<?xml version="1.0" standalone="no"?>
<svg width="800px" height="400px" version="1.1" xmlns="http://www.w3.org/2000/svg"
>
    <rect x="0" y="0" width="800" height="400" fill="#ffffff"/>
    <defs>
        <g id="dot">
            <line x1="1" y1="1" x2="0" y2="0"/>
        </g>
        <g id="cross">
            <line x1="-3" y1="0" x2="3" y2="0"/>
            <line x1="0" y1="-3" x2="0" y2="3"/>
        </g>
        <g id="square">
            <line x1="-3" y1="-3" x2="-3" y2="3"/>
            <line x1="-3" y1="3" x2="3" y2="3"/>
            <line x1="3" y1="3" x2="3" y2="-3"/>
            <line x1="3" y1="-3" x2="-3" y2="-3"/>
        </g>
        <g id="round">
            <ellipse cx="0" cy="0" rx="3" ry="3" fill="none"/>
        </g>
        <g id="triangle">
            <line x1="0" y1="-3" x2="-3" y2="3"/>
            <line x1="-3" y1="3" x2="3" y2="3"/>
            <line x1="0" y1="-3" x2="3" y2="3"/>
        </g>
    </defs>
    <line x1="255.476" y1="200" x2="544.524" y2="200" stroke="#7f7f7f"/>
    <g>
        <title>element</title>
        <g>
            <line x1="366.007" y1="154.171" x2="366.007" y2="108.342" stroke="#7f7fff"/>
            <line x1="366.007" y1="245.829" x2="366.007" y2="291.658" stroke="#7f7fff"/>
        </g>
        <g>
            <polyline fill="none" stroke="#7f7fff"
                      points="261.43,129.804 261.19,131.222 260.956,132.64 260.726,134.058 260.501,135.476 260.281,136.894 260.067,138.312 259.857,139.73 259.652,141.148 259.452,142.567 259.257,143.985 259.068,145.403 258.883,146.821 258.703,148.239 258.528,149.657 258.358,151.075 258.192,152.493 258.032,153.911 257.877,155.33 257.726,156.748 257.581,158.166 257.44,159.584 257.304,161.002 257.174,162.42 257.048,163.838 256.927,165.256 256.81,166.674 256.699,168.093 256.593,169.511 256.491,170.929 256.394,172.347 256.302,173.765 256.215,175.183 256.133,176.601 256.056,178.019 255.983,179.437 255.916,180.856 255.853,182.274 255.795,183.692 255.742,185.11 255.694,186.528 255.65,187.946 255.612,189.364 255.578,190.782 255.549,192.2 255.525,193.619 255.505,195.037 255.491,196.455 255.481,197.873 255.476,199.291 255.476,200.709 255.481,202.127 255.491,203.545 255.505,204.963 255.525,206.381 255.549,207.8 255.578,209.218 255.612,210.636 255.65,212.054 255.694,213.472 255.742,214.89 255.795,216.308 255.853,217.726 255.916,219.144 255.983,220.563 256.056,221.981 256.133,223.399 256.215,224.817 256.302,226.235 256.394,227.653 256.491,229.071 256.593,230.489 256.699,231.907 256.81,233.326 256.927,234.744 257.048,236.162 257.174,237.58 257.304,238.998 257.44,240.416 257.581,241.834 257.726,243.252 257.877,244.67 258.032,246.089 258.192,247.507 258.358,248.925 258.528,250.343 258.703,251.761 258.883,253.179 259.068,254.597 259.257,256.015 259.452,257.433 259.652,258.852 259.857,260.27 260.067,261.688 260.281,263.106 260.501,264.524 260.726,265.942 260.956,267.36 261.19,268.778 261.43,270.196 "/>
            <line x1="270.658" y1="129.804" x2="270.658" y2="135.638" stroke="#7f7fff"/>
            <line x1="261.43" y1="129.804" x2="270.658" y2="129.804" stroke="#7f7fff"/>
            <line x1="270.658" y1="270.196" x2="270.658" y2="264.362" stroke="#7f7fff"/>
            <line x1="261.43" y1="270.196" x2="270.658" y2="270.196" stroke="#7f7fff"/>
            <polyline fill="none" stroke="#7f7fff"
                      points="270.658,135.638 270.485,136.938 270.315,138.239 270.149,139.539 269.987,140.839 269.828,142.139 269.673,143.44 269.521,144.74 269.373,146.04 269.229,147.34 269.088,148.641 268.951,149.941 268.817,151.241 268.687,152.541 268.56,153.842 268.437,155.142 268.317,156.442 268.201,157.742 268.089,159.042 267.98,160.343 267.874,161.643 267.772,162.943 267.674,164.243 267.579,165.544 267.488,166.844 267.4,168.144 267.316,169.444 267.235,170.745 267.158,172.045 267.084,173.345 267.014,174.645 266.948,175.946 266.884,177.246 266.825,178.546 266.769,179.846 266.716,181.147 266.667,182.447 266.621,183.747 266.579,185.047 266.541,186.347 266.506,187.648 266.474,188.948 266.446,190.248 266.422,191.548 266.401,192.849 266.383,194.149 266.369,195.449 266.359,196.749 266.352,198.05 266.348,199.35 266.348,200.65 266.352,201.95 266.359,203.251 266.369,204.551 266.383,205.851 266.401,207.151 266.422,208.452 266.446,209.752 266.474,211.052 266.506,212.352 266.541,213.653 266.579,214.953 266.621,216.253 266.667,217.553 266.716,218.853 266.769,220.154 266.825,221.454 266.884,222.754 266.948,224.054 267.014,225.355 267.084,226.655 267.158,227.955 267.235,229.255 267.316,230.556 267.4,231.856 267.488,233.156 267.579,234.456 267.674,235.757 267.772,237.057 267.874,238.357 267.98,239.657 268.089,240.958 268.201,242.258 268.317,243.558 268.437,244.858 268.56,246.158 268.687,247.459 268.817,248.759 268.951,250.059 269.088,251.359 269.229,252.66 269.373,253.96 269.521,255.26 269.673,256.56 269.828,257.861 269.987,259.161 270.149,260.461 270.315,261.761 270.485,263.062 270.658,264.362 "/>
        </g>
        <g>
            <polyline fill="none" stroke="#7f7fff"
                      points="274.156,137.36 273.869,138.625 273.588,139.89 273.313,141.156 273.045,142.421 272.783,143.687 272.526,144.952 272.276,146.218 272.032,147.483 271.794,148.749 271.562,150.014 271.336,151.28 271.115,152.545 270.901,153.811 270.693,155.076 270.491,156.342 270.294,157.607 270.104,158.872 269.919,160.138 269.74,161.403 269.568,162.669 269.401,163.934 269.239,165.2 269.084,166.465 268.935,167.731 268.791,168.996 268.653,170.262 268.521,171.527 268.395,172.793 268.275,174.058 268.16,175.323 268.051,176.589 267.948,177.854 267.851,179.12 267.759,180.385 267.673,181.651 267.593,182.916 267.519,184.182 267.45,185.447 267.387,186.713 267.33,187.978 267.279,189.244 267.233,190.509 267.193,191.774 267.159,193.04 267.13,194.305 267.108,195.571 267.09,196.836 267.079,198.102 267.073,199.367 267.073,200.633 267.079,201.898 267.09,203.164 267.108,204.429 267.13,205.695 267.159,206.96 267.193,208.226 267.233,209.491 267.279,210.756 267.33,212.022 267.387,213.287 267.45,214.553 267.519,215.818 267.593,217.084 267.673,218.349 267.759,219.615 267.851,220.88 267.948,222.146 268.051,223.411 268.16,224.677 268.275,225.942 268.395,227.207 268.521,228.473 268.653,229.738 268.791,231.004 268.935,232.269 269.084,233.535 269.239,234.8 269.401,236.066 269.568,237.331 269.74,238.597 269.919,239.862 270.104,241.128 270.294,242.393 270.491,243.658 270.693,244.924 270.901,246.189 271.115,247.455 271.336,248.72 271.562,249.986 271.794,251.251 272.032,252.517 272.276,253.782 272.526,255.048 272.783,256.313 273.045,257.579 273.313,258.844 273.588,260.11 273.869,261.375 274.156,262.64 "/>
            <line x1="295.519" y1="137.36" x2="295.519" y2="151.638" stroke="#7f7fff"/>
            <line x1="274.156" y1="137.36" x2="295.519" y2="137.36" stroke="#7f7fff"/>
            <line x1="295.519" y1="262.64" x2="295.519" y2="248.362" stroke="#7f7fff"/>
            <line x1="274.156" y1="262.64" x2="295.519" y2="262.64" stroke="#7f7fff"/>
            <polyline fill="none" stroke="#7f7fff"
                      points="295.519,151.638 294.429,152.615 293.388,153.592 292.391,154.569 291.436,155.546 290.521,156.523 289.643,157.5 288.799,158.477 287.989,159.454 287.211,160.431 286.464,161.408 285.745,162.385 285.054,163.362 284.39,164.339 283.751,165.316 283.138,166.293 282.548,167.27 281.982,168.247 281.439,169.224 280.917,170.201 280.417,171.178 279.937,172.155 279.478,173.132 279.038,174.109 278.618,175.086 278.217,176.063 277.834,177.04 277.47,178.017 277.123,178.994 276.794,179.971 276.483,180.948 276.188,181.925 275.91,182.902 275.649,183.879 275.404,184.856 275.176,185.833 274.963,186.81 274.766,187.787 274.585,188.764 274.419,189.741 274.269,190.718 274.134,191.695 274.015,192.672 273.91,193.649 273.821,194.626 273.746,195.603 273.687,196.58 273.642,197.557 273.612,198.534 273.598,199.511 273.598,200.489 273.612,201.466 273.642,202.443 273.687,203.42 273.746,204.397 273.821,205.374 273.91,206.351 274.015,207.328 274.134,208.305 274.269,209.282 274.419,210.259 274.585,211.236 274.766,212.213 274.963,213.19 275.176,214.167 275.404,215.144 275.649,216.121 275.91,217.098 276.188,218.075 276.483,219.052 276.794,220.029 277.123,221.006 277.47,221.983 277.834,222.96 278.217,223.937 278.618,224.914 279.038,225.891 279.478,226.868 279.937,227.845 280.417,228.822 280.917,229.799 281.439,230.776 281.982,231.753 282.548,232.73 283.138,233.707 283.751,234.684 284.39,235.661 285.054,236.638 285.745,237.615 286.464,238.592 287.211,239.569 287.989,240.546 288.799,241.523 289.643,242.5 290.521,243.477 291.436,244.454 292.391,245.431 293.388,246.408 294.429,247.385 295.519,248.362 "/>
        </g>
        <g>
            <polyline fill="none" stroke="#7f7fff"
                      points="307.647,155.171 307.366,156.077 307.091,156.983 306.822,157.888 306.56,158.794 306.303,159.7 306.053,160.605 305.809,161.511 305.571,162.416 305.339,163.322 305.113,164.228 304.893,165.133 304.679,166.039 304.471,166.945 304.269,167.85 304.073,168.756 303.883,169.661 303.698,170.567 303.519,171.473 303.346,172.378 303.179,173.284 303.018,174.19 302.862,175.095 302.712,176.001 302.568,176.906 302.429,177.812 302.296,178.718 302.169,179.623 302.047,180.529 301.931,181.435 301.821,182.34 301.716,183.246 301.617,184.152 301.523,185.057 301.435,185.963 301.353,186.868 301.276,187.774 301.204,188.68 301.138,189.585 301.078,190.491 301.023,191.397 300.974,192.302 300.93,193.208 300.891,194.113 300.858,195.019 300.831,195.925 300.809,196.83 300.793,197.736 300.782,198.642 300.776,199.547 300.776,200.453 300.782,201.358 300.793,202.264 300.809,203.17 300.831,204.075 300.858,204.981 300.891,205.887 300.93,206.792 300.974,207.698 301.023,208.603 301.078,209.509 301.138,210.415 301.204,211.32 301.276,212.226 301.353,213.132 301.435,214.037 301.523,214.943 301.617,215.848 301.716,216.754 301.821,217.66 301.931,218.565 302.047,219.471 302.169,220.377 302.296,221.282 302.429,222.188 302.568,223.094 302.712,223.999 302.862,224.905 303.018,225.81 303.179,226.716 303.346,227.622 303.519,228.527 303.698,229.433 303.883,230.339 304.073,231.244 304.269,232.15 304.471,233.055 304.679,233.961 304.893,234.867 305.113,235.772 305.339,236.678 305.571,237.584 305.809,238.489 306.053,239.395 306.303,240.3 306.56,241.206 306.822,242.112 307.091,243.017 307.366,243.923 307.647,244.829 "/>
            <line x1="312.552" y1="155.171" x2="312.552" y2="158.777" stroke="#7f7fff"/>
            <line x1="307.647" y1="155.171" x2="312.552" y2="155.171" stroke="#7f7fff"/>
            <line x1="312.552" y1="244.829" x2="312.552" y2="241.223" stroke="#7f7fff"/>
            <line x1="307.647" y1="244.829" x2="312.552" y2="244.829" stroke="#7f7fff"/>
            <polyline fill="none" stroke="#7f7fff"
                      points="312.552,158.777 312.486,159.61 312.423,160.443 312.36,161.276 312.299,162.108 312.239,162.941 312.18,163.774 312.123,164.607 312.067,165.44 312.013,166.272 311.959,167.105 311.908,167.938 311.857,168.771 311.808,169.603 311.76,170.436 311.713,171.269 311.668,172.102 311.624,172.935 311.582,173.767 311.541,174.6 311.501,175.433 311.462,176.266 311.425,177.098 311.389,177.931 311.354,178.764 311.321,179.597 311.289,180.43 311.259,181.262 311.23,182.095 311.202,182.928 311.175,183.761 311.15,184.594 311.126,185.426 311.103,186.259 311.082,187.092 311.062,187.925 311.044,188.757 311.026,189.59 311.01,190.423 310.996,191.256 310.983,192.089 310.971,192.921 310.96,193.754 310.951,194.587 310.943,195.42 310.936,196.252 310.931,197.085 310.927,197.918 310.924,198.751 310.923,199.584 310.923,200.416 310.924,201.249 310.927,202.082 310.931,202.915 310.936,203.748 310.943,204.58 310.951,205.413 310.96,206.246 310.971,207.079 310.983,207.911 310.996,208.744 311.01,209.577 311.026,210.41 311.044,211.243 311.062,212.075 311.082,212.908 311.103,213.741 311.126,214.574 311.15,215.406 311.175,216.239 311.202,217.072 311.23,217.905 311.259,218.738 311.289,219.57 311.321,220.403 311.354,221.236 311.389,222.069 311.425,222.902 311.462,223.734 311.501,224.567 311.541,225.4 311.582,226.233 311.624,227.065 311.668,227.898 311.713,228.731 311.76,229.564 311.808,230.397 311.857,231.229 311.908,232.062 311.959,232.895 312.013,233.728 312.067,234.56 312.123,235.393 312.18,236.226 312.239,237.059 312.299,237.892 312.36,238.724 312.423,239.557 312.486,240.39 312.552,241.223 "/>
        </g>
        <g>
            <polyline fill="none" stroke="#7f7fff"
                      points="318.92,158.596 319.218,159.433 319.508,160.269 319.792,161.105 320.07,161.942 320.34,162.778 320.604,163.615 320.862,164.451 321.113,165.288 321.357,166.124 321.595,166.961 321.826,167.797 322.052,168.633 322.271,169.47 322.483,170.306 322.689,171.143 322.889,171.979 323.083,172.816 323.271,173.652 323.452,174.488 323.628,175.325 323.797,176.161 323.96,176.998 324.117,177.834 324.269,178.671 324.414,179.507 324.553,180.344 324.686,181.18 324.814,182.016 324.935,182.853 325.051,183.689 325.16,184.526 325.264,185.362 325.362,186.199 325.454,187.035 325.54,187.872 325.621,188.708 325.696,189.544 325.764,190.381 325.828,191.217 325.885,192.054 325.936,192.89 325.982,193.727 326.022,194.563 326.057,195.4 326.085,196.236 326.108,197.072 326.125,197.909 326.137,198.745 326.143,199.582 326.143,200.418 326.137,201.255 326.125,202.091 326.108,202.928 326.085,203.764 326.057,204.6 326.022,205.437 325.982,206.273 325.936,207.11 325.885,207.946 325.828,208.783 325.764,209.619 325.696,210.456 325.621,211.292 325.54,212.128 325.454,212.965 325.362,213.801 325.264,214.638 325.16,215.474 325.051,216.311 324.935,217.147 324.814,217.984 324.686,218.82 324.553,219.656 324.414,220.493 324.269,221.329 324.117,222.166 323.96,223.002 323.797,223.839 323.628,224.675 323.452,225.512 323.271,226.348 323.083,227.184 322.889,228.021 322.689,228.857 322.483,229.694 322.271,230.53 322.052,231.367 321.826,232.203 321.595,233.039 321.357,233.876 321.113,234.712 320.862,235.549 320.604,236.385 320.34,237.222 320.07,238.058 319.792,238.895 319.508,239.731 319.218,240.567 318.92,241.404 "/>
            <line x1="318.92" y1="153.649" x2="318.92" y2="158.596" stroke="#7f7fff"/>
            <line x1="318.92" y1="153.649" x2="342.035" y2="153.649" stroke="#7f7fff"/>
            <line x1="318.92" y1="246.351" x2="318.92" y2="241.404" stroke="#7f7fff"/>
            <line x1="318.92" y1="246.351" x2="342.035" y2="246.351" stroke="#7f7fff"/>
            <polyline fill="none" stroke="#7f7fff"
                      points="342.035,153.649 341.612,154.586 341.199,155.522 340.797,156.458 340.405,157.395 340.023,158.331 339.65,159.268 339.287,160.204 338.934,161.14 338.591,162.077 338.257,163.013 337.932,163.949 337.617,164.886 337.31,165.822 337.013,166.759 336.725,167.695 336.446,168.631 336.176,169.568 335.915,170.504 335.662,171.441 335.418,172.377 335.183,173.313 334.957,174.25 334.739,175.186 334.529,176.122 334.328,177.059 334.135,177.995 333.951,178.932 333.775,179.868 333.607,180.804 333.447,181.741 333.296,182.677 333.153,183.613 333.018,184.55 332.891,185.486 332.772,186.423 332.661,187.359 332.558,188.295 332.463,189.232 332.376,190.168 332.297,191.104 332.226,192.041 332.163,192.977 332.108,193.914 332.061,194.85 332.021,195.786 331.99,196.723 331.966,197.659 331.951,198.595 331.943,199.532 331.943,200.468 331.951,201.405 331.966,202.341 331.99,203.277 332.021,204.214 332.061,205.15 332.108,206.086 332.163,207.023 332.226,207.959 332.297,208.896 332.376,209.832 332.463,210.768 332.558,211.705 332.661,212.641 332.772,213.577 332.891,214.514 333.018,215.45 333.153,216.387 333.296,217.323 333.447,218.259 333.607,219.196 333.775,220.132 333.951,221.068 334.135,222.005 334.328,222.941 334.529,223.878 334.739,224.814 334.957,225.75 335.183,226.687 335.418,227.623 335.662,228.559 335.915,229.496 336.176,230.432 336.446,231.369 336.725,232.305 337.013,233.241 337.31,234.178 337.617,235.114 337.932,236.051 338.257,236.987 338.591,237.923 338.934,238.86 339.287,239.796 339.65,240.732 340.023,241.669 340.405,242.605 340.797,243.542 341.199,244.478 341.612,245.414 342.035,246.351 "/>
            <line x1="342.035" y1="153.649" x2="351.875" y2="153.649" stroke="#7f7fff"/>
            <line x1="342.035" y1="246.351" x2="351.875" y2="246.351" stroke="#7f7fff"/>
            <polyline fill="none" stroke="#7f7fff"
                      points="351.875,153.649 352.095,154.586 352.311,155.522 352.521,156.458 352.728,157.395 352.929,158.331 353.126,159.268 353.318,160.204 353.505,161.14 353.688,162.077 353.866,163.013 354.04,163.949 354.209,164.886 354.373,165.822 354.533,166.759 354.688,167.695 354.839,168.631 354.985,169.568 355.127,170.504 355.264,171.441 355.396,172.377 355.524,173.313 355.648,174.25 355.767,175.186 355.882,176.122 355.992,177.059 356.098,177.995 356.199,178.932 356.296,179.868 356.388,180.804 356.476,181.741 356.559,182.677 356.638,183.613 356.713,184.55 356.783,185.486 356.849,186.423 356.91,187.359 356.967,188.295 357.02,189.232 357.068,190.168 357.112,191.104 357.151,192.041 357.186,192.977 357.217,193.914 357.243,194.85 357.265,195.786 357.283,196.723 357.296,197.659 357.305,198.595 357.309,199.532 357.309,200.468 357.305,201.405 357.296,202.341 357.283,203.277 357.265,204.214 357.243,205.15 357.217,206.086 357.186,207.023 357.151,207.959 357.112,208.896 357.068,209.832 357.02,210.768 356.967,211.705 356.91,212.641 356.849,213.577 356.783,214.514 356.713,215.45 356.638,216.387 356.559,217.323 356.476,218.259 356.388,219.196 356.296,220.132 356.199,221.068 356.098,222.005 355.992,222.941 355.882,223.878 355.767,224.814 355.648,225.75 355.524,226.687 355.396,227.623 355.264,228.559 355.127,229.496 354.985,230.432 354.839,231.369 354.688,232.305 354.533,233.241 354.373,234.178 354.209,235.114 354.04,236.051 353.866,236.987 353.688,237.923 353.505,238.86 353.318,239.796 353.126,240.732 352.929,241.669 352.728,242.605 352.521,243.542 352.311,244.478 352.095,245.414 351.875,246.351 "/>
        </g>
        <g>
            <polyline fill="none" stroke="#7f7fff"
                      points="404.936,154.773 404.709,155.686 404.487,156.6 404.27,157.514 404.058,158.428 403.851,159.341 403.648,160.255 403.451,161.169 403.258,162.082 403.07,162.996 402.887,163.91 402.708,164.823 402.534,165.737 402.365,166.651 402.201,167.564 402.041,168.478 401.886,169.392 401.736,170.305 401.59,171.219 401.449,172.133 401.313,173.046 401.181,173.96 401.054,174.874 400.932,175.787 400.814,176.701 400.701,177.615 400.592,178.528 400.488,179.442 400.389,180.356 400.294,181.27 400.204,182.183 400.118,183.097 400.037,184.011 399.96,184.924 399.888,185.838 399.821,186.752 399.758,187.665 399.699,188.579 399.645,189.493 399.596,190.406 399.551,191.32 399.51,192.234 399.474,193.147 399.443,194.061 399.416,194.975 399.393,195.888 399.375,196.802 399.362,197.716 399.353,198.629 399.348,199.543 399.348,200.457 399.353,201.371 399.362,202.284 399.375,203.198 399.393,204.112 399.416,205.025 399.443,205.939 399.474,206.853 399.51,207.766 399.551,208.68 399.596,209.594 399.645,210.507 399.699,211.421 399.758,212.335 399.821,213.248 399.888,214.162 399.96,215.076 400.037,215.989 400.118,216.903 400.204,217.817 400.294,218.73 400.389,219.644 400.488,220.558 400.592,221.472 400.701,222.385 400.814,223.299 400.932,224.213 401.054,225.126 401.181,226.04 401.313,226.954 401.449,227.867 401.59,228.781 401.736,229.695 401.886,230.608 402.041,231.522 402.201,232.436 402.365,233.349 402.534,234.263 402.708,235.177 402.887,236.09 403.07,237.004 403.258,237.918 403.451,238.831 403.648,239.745 403.851,240.659 404.058,241.572 404.27,242.486 404.487,243.4 404.709,244.314 404.936,245.227 "/>
            <line x1="411.142" y1="154.773" x2="411.142" y2="155.624" stroke="#7f7fff"/>
            <line x1="404.936" y1="154.773" x2="411.142" y2="154.773" stroke="#7f7fff"/>
            <line x1="411.142" y1="245.227" x2="411.142" y2="244.376" stroke="#7f7fff"/>
            <line x1="404.936" y1="245.227" x2="411.142" y2="245.227" stroke="#7f7fff"/>
            <polyline fill="none" stroke="#7f7fff"
                      points="411.142,155.624 411.56,156.521 411.968,157.417 412.366,158.314 412.753,159.21 413.131,160.107 413.498,161.003 413.856,161.9 414.205,162.796 414.544,163.693 414.873,164.589 415.194,165.486 415.505,166.382 415.806,167.279 416.099,168.175 416.383,169.072 416.658,169.968 416.924,170.865 417.182,171.761 417.431,172.657 417.671,173.554 417.902,174.45 418.125,175.347 418.34,176.243 418.546,177.14 418.744,178.036 418.934,178.933 419.115,179.829 419.289,180.726 419.454,181.622 419.611,182.519 419.76,183.415 419.901,184.312 420.034,185.208 420.159,186.105 420.275,187.001 420.385,187.898 420.486,188.794 420.579,189.691 420.664,190.587 420.742,191.483 420.812,192.38 420.874,193.276 420.928,194.173 420.975,195.069 421.013,195.966 421.044,196.862 421.067,197.759 421.083,198.655 421.091,199.552 421.091,200.448 421.083,201.345 421.067,202.241 421.044,203.138 421.013,204.034 420.975,204.931 420.928,205.827 420.874,206.724 420.812,207.62 420.742,208.517 420.664,209.413 420.579,210.309 420.486,211.206 420.385,212.102 420.275,212.999 420.159,213.895 420.034,214.792 419.901,215.688 419.76,216.585 419.611,217.481 419.454,218.378 419.289,219.274 419.115,220.171 418.934,221.067 418.744,221.964 418.546,222.86 418.34,223.757 418.125,224.653 417.902,225.55 417.671,226.446 417.431,227.343 417.182,228.239 416.924,229.135 416.658,230.032 416.383,230.928 416.099,231.825 415.806,232.721 415.505,233.618 415.194,234.514 414.873,235.411 414.544,236.307 414.205,237.204 413.856,238.1 413.498,238.997 413.131,239.893 412.753,240.79 412.366,241.686 411.968,242.583 411.56,243.479 411.142,244.376 "/>
            <line x1="426" y1="155.624" x2="426" y2="157.219" stroke="#7f7fff"/>
            <line x1="411.142" y1="155.624" x2="426" y2="155.624" stroke="#7f7fff"/>
            <line x1="426" y1="244.376" x2="426" y2="242.781" stroke="#7f7fff"/>
            <line x1="411.142" y1="244.376" x2="426" y2="244.376" stroke="#7f7fff"/>
            <polyline fill="none" stroke="#7f7fff"
                      points="426,157.219 426.065,158.083 426.128,158.947 426.19,159.812 426.251,160.676 426.31,161.54 426.368,162.405 426.425,163.269 426.48,164.133 426.534,164.997 426.587,165.862 426.638,166.726 426.689,167.59 426.737,168.454 426.785,169.319 426.831,170.183 426.876,171.047 426.919,171.911 426.961,172.776 427.002,173.64 427.042,174.504 427.08,175.368 427.117,176.233 427.152,177.097 427.187,177.961 427.22,178.826 427.251,179.69 427.281,180.554 427.31,181.418 427.338,182.283 427.364,183.147 427.389,184.011 427.413,184.875 427.436,185.74 427.457,186.604 427.476,187.468 427.495,188.332 427.512,189.197 427.528,190.061 427.542,190.925 427.555,191.789 427.567,192.654 427.578,193.518 427.587,194.382 427.595,195.247 427.601,196.111 427.607,196.975 427.611,197.839 427.613,198.704 427.615,199.568 427.615,200.432 427.613,201.296 427.611,202.161 427.607,203.025 427.601,203.889 427.595,204.753 427.587,205.618 427.578,206.482 427.567,207.346 427.555,208.211 427.542,209.075 427.528,209.939 427.512,210.803 427.495,211.668 427.476,212.532 427.457,213.396 427.436,214.26 427.413,215.125 427.389,215.989 427.364,216.853 427.338,217.717 427.31,218.582 427.281,219.446 427.251,220.31 427.22,221.174 427.187,222.039 427.152,222.903 427.117,223.767 427.08,224.632 427.042,225.496 427.002,226.36 426.961,227.224 426.919,228.089 426.876,228.953 426.831,229.817 426.785,230.681 426.737,231.546 426.689,232.41 426.638,233.274 426.587,234.138 426.534,235.003 426.48,235.867 426.425,236.731 426.368,237.595 426.31,238.46 426.251,239.324 426.19,240.188 426.128,241.053 426.065,241.917 426,242.781 "/>
        </g>
        <g>
            <polyline fill="none" stroke="#7f7fff"
                      points="436.984,160.39 436.687,161.19 436.396,161.99 436.113,162.791 435.836,163.591 435.566,164.391 435.303,165.191 435.046,165.991 434.796,166.792 434.552,167.592 434.315,168.392 434.084,169.192 433.86,169.992 433.642,170.793 433.43,171.593 433.225,172.393 433.026,173.193 432.833,173.993 432.646,174.794 432.465,175.594 432.291,176.394 432.122,177.194 431.96,177.994 431.803,178.795 431.653,179.595 431.508,180.395 431.37,181.195 431.237,181.995 431.111,182.796 430.99,183.596 430.875,184.396 430.766,185.196 430.663,185.996 430.566,186.797 430.474,187.597 430.388,188.397 430.308,189.197 430.234,189.997 430.166,190.798 430.103,191.598 430.046,192.398 429.995,193.198 429.949,193.998 429.909,194.799 429.875,195.599 429.847,196.399 429.824,197.199 429.807,197.999 429.795,198.8 429.79,199.6 429.79,200.4 429.795,201.2 429.807,202.001 429.824,202.801 429.847,203.601 429.875,204.401 429.909,205.201 429.949,206.002 429.995,206.802 430.046,207.602 430.103,208.402 430.166,209.202 430.234,210.003 430.308,210.803 430.388,211.603 430.474,212.403 430.566,213.203 430.663,214.004 430.766,214.804 430.875,215.604 430.99,216.404 431.111,217.204 431.237,218.005 431.37,218.805 431.508,219.605 431.653,220.405 431.803,221.205 431.96,222.006 432.122,222.806 432.291,223.606 432.465,224.406 432.646,225.206 432.833,226.007 433.026,226.807 433.225,227.607 433.43,228.407 433.642,229.207 433.86,230.008 434.084,230.808 434.315,231.608 434.552,232.408 434.796,233.208 435.046,234.009 435.303,234.809 435.566,235.609 435.836,236.409 436.113,237.209 436.396,238.01 436.687,238.81 436.984,239.61 "/>
            <line x1="436.984" y1="160.39" x2="445.271" y2="160.39" stroke="#7f7fff"/>
            <line x1="436.984" y1="239.61" x2="445.271" y2="239.61" stroke="#7f7fff"/>
            <polyline fill="none" stroke="#7f7fff"
                      points="445.271,160.39 445.407,161.19 445.539,161.99 445.669,162.791 445.796,163.591 445.92,164.391 446.041,165.191 446.16,165.991 446.275,166.792 446.388,167.592 446.498,168.392 446.605,169.192 446.71,169.992 446.811,170.793 446.91,171.593 447.006,172.393 447.1,173.193 447.19,173.993 447.278,174.794 447.363,175.594 447.445,176.394 447.524,177.194 447.601,177.994 447.675,178.795 447.746,179.595 447.814,180.395 447.88,181.195 447.943,181.995 448.003,182.796 448.06,183.596 448.115,184.396 448.167,185.196 448.216,185.996 448.263,186.797 448.306,187.597 448.347,188.397 448.385,189.197 448.421,189.997 448.453,190.798 448.483,191.598 448.511,192.398 448.535,193.198 448.557,193.998 448.576,194.799 448.593,195.599 448.606,196.399 448.617,197.199 448.625,197.999 448.631,198.8 448.633,199.6 448.633,200.4 448.631,201.2 448.625,202.001 448.617,202.801 448.606,203.601 448.593,204.401 448.576,205.201 448.557,206.002 448.535,206.802 448.511,207.602 448.483,208.402 448.453,209.202 448.421,210.003 448.385,210.803 448.347,211.603 448.306,212.403 448.263,213.203 448.216,214.004 448.167,214.804 448.115,215.604 448.06,216.404 448.003,217.204 447.943,218.005 447.88,218.805 447.814,219.605 447.746,220.405 447.675,221.205 447.601,222.006 447.524,222.806 447.445,223.606 447.363,224.406 447.278,225.206 447.19,226.007 447.1,226.807 447.006,227.607 446.91,228.407 446.811,229.207 446.71,230.008 446.605,230.808 446.498,231.608 446.388,232.408 446.275,233.208 446.16,234.009 446.041,234.809 445.92,235.609 445.796,236.409 445.669,237.209 445.539,238.01 445.407,238.81 445.271,239.61 "/>
            <line x1="463.941" y1="160.39" x2="463.941" y2="162.999" stroke="#7f7fff"/>
            <line x1="445.271" y1="160.39" x2="463.941" y2="160.39" stroke="#7f7fff"/>
            <line x1="463.941" y1="239.61" x2="463.941" y2="237.001" stroke="#7f7fff"/>
            <line x1="445.271" y1="239.61" x2="463.941" y2="239.61" stroke="#7f7fff"/>
            <polyline fill="none" stroke="#7f7fff"
                      points="463.941,162.999 463.535,163.747 463.139,164.494 462.755,165.242 462.38,165.989 462.015,166.737 461.661,167.484 461.316,168.232 460.981,168.979 460.655,169.727 460.339,170.474 460.032,171.222 459.734,171.969 459.446,172.717 459.166,173.464 458.895,174.212 458.632,174.959 458.379,175.707 458.133,176.454 457.897,177.202 457.668,177.949 457.448,178.697 457.236,179.444 457.033,180.191 456.837,180.939 456.649,181.686 456.469,182.434 456.298,183.181 456.134,183.929 455.978,184.676 455.829,185.424 455.688,186.171 455.555,186.919 455.43,187.666 455.312,188.414 455.201,189.161 455.098,189.909 455.003,190.656 454.915,191.404 454.835,192.151 454.761,192.899 454.696,193.646 454.637,194.394 454.586,195.141 454.542,195.889 454.506,196.636 454.477,197.384 454.455,198.131 454.44,198.879 454.433,199.626 454.433,200.374 454.44,201.121 454.455,201.869 454.477,202.616 454.506,203.364 454.542,204.111 454.586,204.859 454.637,205.606 454.696,206.354 454.761,207.101 454.835,207.849 454.915,208.596 455.003,209.344 455.098,210.091 455.201,210.839 455.312,211.586 455.43,212.334 455.555,213.081 455.688,213.829 455.829,214.576 455.978,215.324 456.134,216.071 456.298,216.819 456.469,217.566 456.649,218.314 456.837,219.061 457.033,219.809 457.236,220.556 457.448,221.303 457.668,222.051 457.897,222.798 458.133,223.546 458.379,224.293 458.632,225.041 458.895,225.788 459.166,226.536 459.446,227.283 459.734,228.031 460.032,228.778 460.339,229.526 460.655,230.273 460.981,231.021 461.316,231.768 461.661,232.516 462.015,233.263 462.38,234.011 462.755,234.758 463.139,235.506 463.535,236.253 463.941,237.001 "/>
        </g>
        <g>
            <polyline fill="none" stroke="#7f7fff"
                      points="471.626,161.097 471.825,161.883 472.012,162.668 472.187,163.454 472.352,164.24 472.507,165.026 472.653,165.812 472.791,166.598 472.921,167.384 473.043,168.17 473.158,168.956 473.266,169.742 473.368,170.528 473.465,171.314 473.556,172.1 473.641,172.886 473.722,173.671 473.797,174.457 473.869,175.243 473.936,176.029 473.999,176.815 474.058,177.601 474.114,178.387 474.166,179.173 474.216,179.959 474.261,180.745 474.305,181.531 474.345,182.317 474.382,183.103 474.417,183.888 474.45,184.674 474.48,185.46 474.509,186.246 474.535,187.032 474.559,187.818 474.581,188.604 474.602,189.39 474.62,190.176 474.637,190.962 474.652,191.748 474.666,192.534 474.679,193.32 474.689,194.106 474.699,194.891 474.707,195.677 474.713,196.463 474.718,197.249 474.722,198.035 474.725,198.821 474.726,199.607 474.726,200.393 474.725,201.179 474.722,201.965 474.718,202.751 474.713,203.537 474.707,204.323 474.699,205.109 474.689,205.894 474.679,206.68 474.666,207.466 474.652,208.252 474.637,209.038 474.62,209.824 474.602,210.61 474.581,211.396 474.559,212.182 474.535,212.968 474.509,213.754 474.48,214.54 474.45,215.326 474.417,216.112 474.382,216.897 474.345,217.683 474.305,218.469 474.261,219.255 474.216,220.041 474.166,220.827 474.114,221.613 474.058,222.399 473.999,223.185 473.936,223.971 473.869,224.757 473.797,225.543 473.722,226.329 473.641,227.114 473.556,227.9 473.465,228.686 473.368,229.472 473.266,230.258 473.158,231.044 473.043,231.83 472.921,232.616 472.791,233.402 472.653,234.188 472.507,234.974 472.352,235.76 472.187,236.546 472.012,237.332 471.825,238.117 471.626,238.903 "/>
            <line x1="471.626" y1="157.074" x2="471.626" y2="161.097" stroke="#7f7fff"/>
            <line x1="471.626" y1="157.074" x2="481.408" y2="157.074" stroke="#7f7fff"/>
            <line x1="471.626" y1="242.926" x2="471.626" y2="238.903" stroke="#7f7fff"/>
            <line x1="471.626" y1="242.926" x2="481.408" y2="242.926" stroke="#7f7fff"/>
            <polyline fill="none" stroke="#7f7fff"
                      points="481.408,157.074 481.503,157.941 481.597,158.808 481.688,159.676 481.778,160.543 481.865,161.41 481.951,162.277 482.034,163.144 482.116,164.012 482.196,164.879 482.274,165.746 482.349,166.613 482.423,167.48 482.495,168.347 482.565,169.215 482.633,170.082 482.699,170.949 482.763,171.816 482.825,172.683 482.885,173.551 482.943,174.418 483,175.285 483.054,176.152 483.106,177.019 483.157,177.887 483.205,178.754 483.252,179.621 483.296,180.488 483.339,181.355 483.379,182.223 483.418,183.09 483.455,183.957 483.49,184.824 483.523,185.691 483.554,186.559 483.583,187.426 483.61,188.293 483.635,189.16 483.658,190.027 483.68,190.894 483.699,191.762 483.716,192.629 483.732,193.496 483.745,194.363 483.757,195.23 483.767,196.098 483.774,196.965 483.78,197.832 483.784,198.699 483.786,199.566 483.786,200.434 483.784,201.301 483.78,202.168 483.774,203.035 483.767,203.902 483.757,204.77 483.745,205.637 483.732,206.504 483.716,207.371 483.699,208.238 483.68,209.106 483.658,209.973 483.635,210.84 483.61,211.707 483.583,212.574 483.554,213.441 483.523,214.309 483.49,215.176 483.455,216.043 483.418,216.91 483.379,217.777 483.339,218.645 483.296,219.512 483.252,220.379 483.205,221.246 483.157,222.113 483.106,222.981 483.054,223.848 483,224.715 482.943,225.582 482.885,226.449 482.825,227.317 482.763,228.184 482.699,229.051 482.633,229.918 482.565,230.785 482.495,231.653 482.423,232.52 482.349,233.387 482.274,234.254 482.196,235.121 482.116,235.988 482.034,236.856 481.951,237.723 481.865,238.59 481.778,239.457 481.688,240.324 481.597,241.192 481.503,242.059 481.408,242.926 "/>
        </g>
        <g>
            <polyline fill="none" stroke="#7f7fff"
                      points="538.726,106.973 538.726,108.852 538.726,110.731 538.726,112.611 538.726,114.49 538.726,116.369 538.726,118.249 538.726,120.128 538.726,122.007 538.726,123.887 538.726,125.766 538.726,127.645 538.726,129.525 538.726,131.404 538.726,133.283 538.726,135.163 538.726,137.042 538.726,138.921 538.726,140.801 538.726,142.68 538.726,144.559 538.726,146.439 538.726,148.318 538.726,150.197 538.726,152.077 538.726,153.956 538.726,155.835 538.726,157.715 538.726,159.594 538.726,161.473 538.726,163.353 538.726,165.232 538.726,167.112 538.726,168.991 538.726,170.87 538.726,172.75 538.726,174.629 538.726,176.508 538.726,178.388 538.726,180.267 538.726,182.146 538.726,184.026 538.726,185.905 538.726,187.784 538.726,189.664 538.726,191.543 538.726,193.422 538.726,195.302 538.726,197.181 538.726,199.06 538.726,200.94 538.726,202.819 538.726,204.698 538.726,206.578 538.726,208.457 538.726,210.336 538.726,212.216 538.726,214.095 538.726,215.974 538.726,217.854 538.726,219.733 538.726,221.612 538.726,223.492 538.726,225.371 538.726,227.25 538.726,229.13 538.726,231.009 538.726,232.888 538.726,234.768 538.726,236.647 538.726,238.527 538.726,240.406 538.726,242.285 538.726,244.165 538.726,246.044 538.726,247.923 538.726,249.803 538.726,251.682 538.726,253.561 538.726,255.441 538.726,257.32 538.726,259.199 538.726,261.079 538.726,262.958 538.726,264.837 538.726,266.717 538.726,268.596 538.726,270.475 538.726,272.355 538.726,274.234 538.726,276.113 538.726,277.993 538.726,279.872 538.726,281.751 538.726,283.631 538.726,285.51 538.726,287.389 538.726,289.269 538.726,291.148 538.726,293.027 "/>
            <line x1="538.726" y1="106.973" x2="541.444" y2="106.973" stroke="#7f7fff"/>
            <line x1="538.726" y1="293.027" x2="541.444" y2="293.027" stroke="#7f7fff"/>
            <polyline fill="none" stroke="#7f7fff"
                      points="541.444,106.973 541.444,108.852 541.444,110.731 541.444,112.611 541.444,114.49 541.444,116.369 541.444,118.249 541.444,120.128 541.444,122.007 541.444,123.887 541.444,125.766 541.444,127.645 541.444,129.525 541.444,131.404 541.444,133.283 541.444,135.163 541.444,137.042 541.444,138.921 541.444,140.801 541.444,142.68 541.444,144.559 541.444,146.439 541.444,148.318 541.444,150.197 541.444,152.077 541.444,153.956 541.444,155.835 541.444,157.715 541.444,159.594 541.444,161.473 541.444,163.353 541.444,165.232 541.444,167.112 541.444,168.991 541.444,170.87 541.444,172.75 541.444,174.629 541.444,176.508 541.444,178.388 541.444,180.267 541.444,182.146 541.444,184.026 541.444,185.905 541.444,187.784 541.444,189.664 541.444,191.543 541.444,193.422 541.444,195.302 541.444,197.181 541.444,199.06 541.444,200.94 541.444,202.819 541.444,204.698 541.444,206.578 541.444,208.457 541.444,210.336 541.444,212.216 541.444,214.095 541.444,215.974 541.444,217.854 541.444,219.733 541.444,221.612 541.444,223.492 541.444,225.371 541.444,227.25 541.444,229.13 541.444,231.009 541.444,232.888 541.444,234.768 541.444,236.647 541.444,238.527 541.444,240.406 541.444,242.285 541.444,244.165 541.444,246.044 541.444,247.923 541.444,249.803 541.444,251.682 541.444,253.561 541.444,255.441 541.444,257.32 541.444,259.199 541.444,261.079 541.444,262.958 541.444,264.837 541.444,266.717 541.444,268.596 541.444,270.475 541.444,272.355 541.444,274.234 541.444,276.113 541.444,277.993 541.444,279.872 541.444,281.751 541.444,283.631 541.444,285.51 541.444,287.389 541.444,289.269 541.444,291.148 541.444,293.027 "/>
        </g>
    </g>
    <g>
        <title>element</title>
        <polyline fill="none" stroke="#7f7fff"
                  points="544.524,41.27 544.524,44.477 544.524,47.683 544.524,50.89 544.524,54.097 544.524,57.303 544.524,60.51 544.524,63.717 544.524,66.923 544.524,70.13 544.524,73.337 544.524,76.543 544.524,79.75 544.524,82.957 544.524,86.163 544.524,89.37 544.524,92.577 544.524,95.783 544.524,98.99 544.524,102.197 544.524,105.403 544.524,108.61 544.524,111.817 544.524,115.023 544.524,118.23 544.524,121.437 544.524,124.643 544.524,127.85 544.524,131.057 544.524,134.263 544.524,137.47 544.524,140.677 544.524,143.883 544.524,147.09 544.524,150.297 544.524,153.503 544.524,156.71 544.524,159.917 544.524,163.123 544.524,166.33 544.524,169.537 544.524,172.743 544.524,175.95 544.524,179.157 544.524,182.363 544.524,185.57 544.524,188.777 544.524,191.983 544.524,195.19 544.524,198.397 544.524,201.603 544.524,204.81 544.524,208.017 544.524,211.223 544.524,214.43 544.524,217.637 544.524,220.843 544.524,224.05 544.524,227.257 544.524,230.463 544.524,233.67 544.524,236.877 544.524,240.083 544.524,243.29 544.524,246.497 544.524,249.703 544.524,252.91 544.524,256.117 544.524,259.323 544.524,262.53 544.524,265.737 544.524,268.943 544.524,272.15 544.524,275.357 544.524,278.563 544.524,281.77 544.524,284.977 544.524,288.183 544.524,291.39 544.524,294.597 544.524,297.803 544.524,301.01 544.524,304.217 544.524,307.423 544.524,310.63 544.524,313.837 544.524,317.043 544.524,320.25 544.524,323.457 544.524,326.663 544.524,329.87 544.524,333.077 544.524,336.283 544.524,339.49 544.524,342.697 544.524,345.903 544.524,349.11 544.524,352.317 544.524,355.523 544.524,358.73 "/>
    </g>
    <g>
        <title>rays</title>
        <g>
            <title>ray</title>
            <line x1="305.701" y1="161.92" x2="312.418" y2="160.497" stroke="#ffe100"/>
            <line x1="274.178" y1="191.37" x2="305.701" y2="161.92" stroke="#ffe100"/>
            <line x1="267.124" y1="194.638" x2="274.178" y2="191.37" stroke="#ffe100"/>
            <line x1="266.371" y1="195.224" x2="267.124" y2="194.638" stroke="#ffe100"/>
            <line x1="255.476" y1="200" x2="266.371" y2="195.224" stroke="#ffe100"/>
            <line x1="-2619.618" y1="2406.137" x2="255.476" y2="200" stroke="#ffe100"/>
        </g>
        <g>
            <title>ray</title>
            <line x1="305.702" y1="161.915" x2="312.42" y2="160.48" stroke="#ff0000"/>
            <line x1="274.179" y1="191.356" x2="305.702" y2="161.915" stroke="#ff0000"/>
            <line x1="267.124" y1="194.628" x2="274.179" y2="191.356" stroke="#ff0000"/>
            <line x1="266.371" y1="195.215" x2="267.124" y2="194.628" stroke="#ff0000"/>
            <line x1="255.476" y1="200" x2="266.371" y2="195.215" stroke="#ff0000"/>
            <line x1="-2619.618" y1="2406.137" x2="255.476" y2="200" stroke="#ff0000"/>
        </g>
        <g>
            <title>ray</title>
            <line x1="305.697" y1="161.934" x2="312.415" y2="160.538" stroke="#00ebff"/>
            <line x1="274.173" y1="191.401" x2="305.697" y2="161.934" stroke="#00ebff"/>
            <line x1="267.123" y1="194.659" x2="274.173" y2="191.401" stroke="#00ebff"/>
            <line x1="266.371" y1="195.245" x2="267.123" y2="194.659" stroke="#00ebff"/>
            <line x1="255.476" y1="200" x2="266.371" y2="195.245" stroke="#00ebff"/>
            <line x1="-2619.618" y1="2406.137" x2="255.476" y2="200" stroke="#00ebff"/>
        </g>
        <g>
            <title>ray</title>
            <line x1="-2651.284" y1="2364.869" x2="261.418" y2="129.874" stroke="#ffe100"/>
        </g>
        <g>
            <title>ray</title>
            <line x1="-2651.284" y1="2364.869" x2="261.418" y2="129.874" stroke="#ff0000"/>
        </g>
        <g>
            <title>ray</title>
            <line x1="-2651.284" y1="2364.869" x2="261.418" y2="129.874" stroke="#00ebff"/>
        </g>
        <g>
            <title>ray</title>
            <line x1="-2583.547" y1="2453.145" x2="261.418" y2="270.126" stroke="#ffe100"/>
        </g>
        <g>
            <title>ray</title>
            <line x1="-2583.547" y1="2453.145" x2="261.418" y2="270.126" stroke="#ff0000"/>
        </g>
        <g>
            <title>ray</title>
            <line x1="-2583.547" y1="2453.145" x2="261.418" y2="270.126" stroke="#00ebff"/>
        </g>
        <g>
            <title>ray</title>
            <line x1="-2648.318" y1="2368.734" x2="260.282" y2="136.886" stroke="#ffe100"/>
        </g>
        <g>
            <title>ray</title>
            <line x1="-2648.318" y1="2368.734" x2="260.282" y2="136.886" stroke="#ff0000"/>
        </g>
        <g>
            <title>ray</title>
            <line x1="-2648.318" y1="2368.734" x2="260.282" y2="136.886" stroke="#00ebff"/>
        </g>
        <g>
            <title>ray</title>
            <line x1="541.444" y1="124.449" x2="544.524" y2="122.223" stroke="#ffe100"/>
            <line x1="538.726" y1="125.588" x2="541.444" y2="124.449" stroke="#ffe100"/>
            <line x1="482.326" y1="166.344" x2="538.726" y2="125.588" stroke="#ffe100"/>
            <line x1="473.281" y1="169.856" x2="482.326" y2="166.344" stroke="#ffe100"/>
            <line x1="456.934" y1="180.563" x2="473.281" y2="169.856" stroke="#ffe100"/>
            <line x1="447.975" y1="182.412" x2="456.934" y2="180.563" stroke="#ffe100"/>
            <line x1="430.698" y1="185.718" x2="447.975" y2="182.412" stroke="#ffe100"/>
            <line x1="427.476" y1="187.471" x2="430.698" y2="185.718" stroke="#ffe100"/>
            <line x1="420.557" y1="189.475" x2="427.476" y2="187.471" stroke="#ffe100"/>
            <line x1="399.401" y1="195.531" x2="420.557" y2="189.475" stroke="#ffe100"/>
            <line x1="366.007" y1="215.924" x2="399.401" y2="195.531" stroke="#ffe100"/>
            <line x1="356.101" y1="221.974" x2="366.007" y2="215.924" stroke="#ffe100"/>
            <line x1="335.18" y1="226.673" x2="356.101" y2="221.974" stroke="#ffe100"/>
            <line x1="322.537" y1="229.478" x2="335.18" y2="226.673" stroke="#ffe100"/>
            <line x1="312.2" y1="236.512" x2="322.537" y2="229.478" stroke="#ffe100"/>
            <line x1="305.879" y1="238.752" x2="312.2" y2="236.512" stroke="#ffe100"/>
            <line x1="291.833" y1="244.865" x2="305.879" y2="238.752" stroke="#ffe100"/>
            <line x1="272.701" y1="255.914" x2="291.833" y2="244.865" stroke="#ffe100"/>
            <line x1="269.867" y1="258.182" x2="272.701" y2="255.914" stroke="#ffe100"/>
            <line x1="260.282" y1="263.114" x2="269.867" y2="258.182" stroke="#ffe100"/>
            <line x1="-2587.355" y1="2448.183" x2="260.282" y2="263.114" stroke="#ffe100"/>
        </g>
        <g>
            <title>ray</title>
            <line x1="541.444" y1="124.471" x2="544.524" y2="122.25" stroke="#ff0000"/>
            <line x1="538.726" y1="125.61" x2="541.444" y2="124.471" stroke="#ff0000"/>
            <line x1="482.319" y1="166.268" x2="538.726" y2="125.61" stroke="#ff0000"/>
            <line x1="473.272" y1="169.787" x2="482.319" y2="166.268" stroke="#ff0000"/>
            <line x1="456.968" y1="180.436" x2="473.272" y2="169.787" stroke="#ff0000"/>
            <line x1="447.966" y1="182.297" x2="456.968" y2="180.436" stroke="#ff0000"/>
            <line x1="430.713" y1="185.603" x2="447.966" y2="182.297" stroke="#ff0000"/>
            <line x1="427.474" y1="187.363" x2="430.713" y2="185.603" stroke="#ff0000"/>
            <line x1="420.547" y1="189.378" x2="427.474" y2="187.363" stroke="#ff0000"/>
            <line x1="399.403" y1="195.446" x2="420.547" y2="189.378" stroke="#ff0000"/>
            <line x1="366.007" y1="215.846" x2="399.403" y2="195.446" stroke="#ff0000"/>
            <line x1="356.11" y1="221.892" x2="366.007" y2="215.846" stroke="#ff0000"/>
            <line x1="335.169" y1="226.628" x2="356.11" y2="221.892" stroke="#ff0000"/>
            <line x1="322.544" y1="229.451" x2="335.169" y2="226.628" stroke="#ff0000"/>
            <line x1="312.198" y1="236.483" x2="322.544" y2="229.451" stroke="#ff0000"/>
            <line x1="305.873" y1="238.729" x2="312.198" y2="236.483" stroke="#ff0000"/>
            <line x1="291.825" y1="244.857" x2="305.873" y2="238.729" stroke="#ff0000"/>
            <line x1="272.7" y1="255.908" x2="291.825" y2="244.857" stroke="#ff0000"/>
            <line x1="269.866" y1="258.175" x2="272.7" y2="255.908" stroke="#ff0000"/>
            <line x1="260.282" y1="263.114" x2="269.866" y2="258.175" stroke="#ff0000"/>
            <line x1="-2587.355" y1="2448.183" x2="260.282" y2="263.114" stroke="#ff0000"/>
        </g>
        <g>
            <title>ray</title>
            <line x1="541.444" y1="124.381" x2="544.524" y2="122.141" stroke="#00ebff"/>
            <line x1="538.726" y1="125.517" x2="541.444" y2="124.381" stroke="#00ebff"/>
            <line x1="482.342" y1="166.523" x2="538.726" y2="125.517" stroke="#00ebff"/>
            <line x1="473.303" y1="170.02" x2="482.342" y2="166.523" stroke="#00ebff"/>
            <line x1="456.855" y1="180.869" x2="473.303" y2="170.02" stroke="#00ebff"/>
            <line x1="447.995" y1="182.691" x2="456.855" y2="180.869" stroke="#00ebff"/>
            <line x1="430.663" y1="185.996" x2="447.995" y2="182.691" stroke="#00ebff"/>
            <line x1="427.482" y1="187.734" x2="430.663" y2="185.996" stroke="#00ebff"/>
            <line x1="420.581" y1="189.712" x2="427.482" y2="187.734" stroke="#00ebff"/>
            <line x1="399.397" y1="195.736" x2="420.581" y2="189.712" stroke="#00ebff"/>
            <line x1="366.007" y1="216.106" x2="399.397" y2="195.736" stroke="#00ebff"/>
            <line x1="356.08" y1="222.163" x2="366.007" y2="216.106" stroke="#00ebff"/>
            <line x1="335.205" y1="226.775" x2="356.08" y2="222.163" stroke="#00ebff"/>
            <line x1="322.523" y1="229.536" x2="335.205" y2="226.775" stroke="#00ebff"/>
            <line x1="312.205" y1="236.579" x2="322.523" y2="229.536" stroke="#00ebff"/>
            <line x1="305.894" y1="238.805" x2="312.205" y2="236.579" stroke="#00ebff"/>
            <line x1="291.852" y1="244.884" x2="305.894" y2="238.805" stroke="#00ebff"/>
            <line x1="272.704" y1="255.926" x2="291.852" y2="244.884" stroke="#00ebff"/>
            <line x1="269.869" y1="258.196" x2="272.704" y2="255.926" stroke="#00ebff"/>
            <line x1="260.282" y1="263.114" x2="269.869" y2="258.196" stroke="#00ebff"/>
            <line x1="-2587.355" y1="2448.183" x2="260.282" y2="263.114" stroke="#00ebff"/>
        </g>
        <g>
            <title>ray</title>
            <line x1="259.269" y1="143.899" x2="270.102" y2="139.917" stroke="#ffe100"/>
            <line x1="-2645.307" y1="2372.658" x2="259.269" y2="143.899" stroke="#ffe100"/>
        </g>
        <g>
            <title>ray</title>
            <line x1="259.269" y1="143.899" x2="270.103" y2="139.906" stroke="#ff0000"/>
            <line x1="-2645.307" y1="2372.658" x2="259.269" y2="143.899" stroke="#ff0000"/>
        </g>
        <g>
            <title>ray</title>
            <line x1="259.269" y1="143.899" x2="270.099" y2="139.942" stroke="#00ebff"/>
            <line x1="-2645.307" y1="2372.658" x2="259.269" y2="143.899" stroke="#00ebff"/>
        </g>
        <g>
            <title>ray</title>
            <line x1="541.444" y1="124.241" x2="544.524" y2="122.222" stroke="#ffe100"/>
            <line x1="538.726" y1="125.296" x2="541.444" y2="124.241" stroke="#ffe100"/>
            <line x1="481.973" y1="162.506" x2="538.726" y2="125.296" stroke="#ffe100"/>
            <line x1="472.675" y1="165.932" x2="481.973" y2="162.506" stroke="#ffe100"/>
            <line x1="459.203" y1="173.363" x2="472.675" y2="165.932" stroke="#ffe100"/>
            <line x1="447.272" y1="174.743" x2="459.203" y2="173.363" stroke="#ffe100"/>
            <line x1="432.276" y1="176.464" x2="447.272" y2="174.743" stroke="#ffe100"/>
            <line x1="427.219" y1="178.808" x2="432.276" y2="176.464" stroke="#ffe100"/>
            <line x1="419.316" y1="180.873" x2="427.219" y2="178.808" stroke="#ffe100"/>
            <line x1="399.881" y1="185.926" x2="419.316" y2="180.873" stroke="#ffe100"/>
            <line x1="366.007" y1="206.87" x2="399.881" y2="185.926" stroke="#ffe100"/>
            <line x1="356.92" y1="212.488" x2="366.007" y2="206.87" stroke="#ffe100"/>
            <line x1="333.481" y1="218.462" x2="356.92" y2="212.488" stroke="#ffe100"/>
            <line x1="324.345" y1="220.893" x2="333.481" y2="218.462" stroke="#ffe100"/>
            <line x1="311.76" y1="229.57" x2="324.345" y2="220.893" stroke="#ffe100"/>
            <line x1="304.278" y1="232.188" x2="311.76" y2="229.57" stroke="#ffe100"/>
            <line x1="287.63" y1="240.099" x2="304.278" y2="232.188" stroke="#ffe100"/>
            <line x1="271.43" y1="249.254" x2="287.63" y2="240.099" stroke="#ffe100"/>
            <line x1="269.065" y1="251.143" x2="271.43" y2="249.254" stroke="#ffe100"/>
            <line x1="259.269" y1="256.101" x2="269.065" y2="251.143" stroke="#ffe100"/>
            <line x1="-2591.117" y1="2443.279" x2="259.269" y2="256.101" stroke="#ffe100"/>
        </g>
        <g>
            <title>ray</title>
            <line x1="541.444" y1="124.249" x2="544.524" y2="122.235" stroke="#ff0000"/>
            <line x1="538.726" y1="125.304" x2="541.444" y2="124.249" stroke="#ff0000"/>
            <line x1="481.966" y1="162.428" x2="538.726" y2="125.304" stroke="#ff0000"/>
            <line x1="472.662" y1="165.861" x2="481.966" y2="162.428" stroke="#ff0000"/>
            <line x1="459.249" y1="173.24" x2="472.662" y2="165.861" stroke="#ff0000"/>
            <line x1="447.26" y1="174.631" x2="459.249" y2="173.24" stroke="#ff0000"/>
            <line x1="432.299" y1="176.354" x2="447.26" y2="174.631" stroke="#ff0000"/>
            <line x1="427.215" y1="178.708" x2="432.299" y2="176.354" stroke="#ff0000"/>
            <line x1="419.3" y1="180.784" x2="427.215" y2="178.708" stroke="#ff0000"/>
            <line x1="399.887" y1="185.848" x2="419.3" y2="180.784" stroke="#ff0000"/>
            <line x1="366.007" y1="206.797" x2="399.887" y2="185.848" stroke="#ff0000"/>
            <line x1="356.925" y1="212.413" x2="366.007" y2="206.797" stroke="#ff0000"/>
            <line x1="333.475" y1="218.423" x2="356.925" y2="212.413" stroke="#ff0000"/>
            <line x1="324.35" y1="220.866" x2="333.475" y2="218.423" stroke="#ff0000"/>
            <line x1="311.758" y1="229.538" x2="324.35" y2="220.866" stroke="#ff0000"/>
            <line x1="304.272" y1="232.163" x2="311.758" y2="229.538" stroke="#ff0000"/>
            <line x1="287.623" y1="240.09" x2="304.272" y2="232.163" stroke="#ff0000"/>
            <line x1="271.429" y1="249.248" x2="287.623" y2="240.09" stroke="#ff0000"/>
            <line x1="269.064" y1="251.136" x2="271.429" y2="249.248" stroke="#ff0000"/>
            <line x1="259.269" y1="256.101" x2="269.064" y2="251.136" stroke="#ff0000"/>
            <line x1="-2591.117" y1="2443.279" x2="259.269" y2="256.101" stroke="#ff0000"/>
        </g>
        <g>
            <title>ray</title>
            <line x1="541.444" y1="124.159" x2="544.524" y2="122.125" stroke="#00ebff"/>
            <line x1="538.726" y1="125.212" x2="541.444" y2="124.159" stroke="#00ebff"/>
            <line x1="481.99" y1="162.677" x2="538.726" y2="125.212" stroke="#00ebff"/>
            <line x1="472.703" y1="166.089" x2="481.99" y2="162.677" stroke="#00ebff"/>
            <line x1="459.097" y1="173.651" x2="472.703" y2="166.089" stroke="#00ebff"/>
            <line x1="447.301" y1="175.005" x2="459.097" y2="173.651" stroke="#00ebff"/>
            <line x1="432.221" y1="176.723" x2="447.301" y2="175.005" stroke="#00ebff"/>
            <line x1="427.228" y1="179.045" x2="432.221" y2="176.723" stroke="#00ebff"/>
            <line x1="419.356" y1="181.084" x2="427.228" y2="179.045" stroke="#00ebff"/>
            <line x1="399.867" y1="186.112" x2="419.356" y2="181.084" stroke="#00ebff"/>
            <line x1="366.007" y1="207.038" x2="399.867" y2="186.112" stroke="#00ebff"/>
            <line x1="356.909" y1="212.661" x2="366.007" y2="207.038" stroke="#00ebff"/>
            <line x1="333.496" y1="218.55" x2="356.909" y2="212.661" stroke="#00ebff"/>
            <line x1="324.335" y1="220.95" x2="333.496" y2="218.55" stroke="#00ebff"/>
            <line x1="311.764" y1="229.642" x2="324.335" y2="220.95" stroke="#00ebff"/>
            <line x1="304.29" y1="232.243" x2="311.764" y2="229.642" stroke="#00ebff"/>
            <line x1="287.646" y1="240.119" x2="304.29" y2="232.243" stroke="#00ebff"/>
            <line x1="271.433" y1="249.268" x2="287.646" y2="240.119" stroke="#00ebff"/>
            <line x1="269.066" y1="251.158" x2="271.433" y2="249.268" stroke="#00ebff"/>
            <line x1="259.269" y1="256.101" x2="269.066" y2="251.158" stroke="#00ebff"/>
            <line x1="-2591.117" y1="2443.279" x2="259.269" y2="256.101" stroke="#00ebff"/>
        </g>
        <g>
            <title>ray</title>
            <line x1="269.288" y1="146.801" x2="272.67" y2="144.242" stroke="#ffe100"/>
            <line x1="258.377" y1="150.912" x2="269.288" y2="146.801" stroke="#ffe100"/>
            <line x1="-2642.251" y1="2376.641" x2="258.377" y2="150.912" stroke="#ffe100"/>
        </g>
        <g>
            <title>ray</title>
            <line x1="269.29" y1="146.79" x2="272.672" y2="144.23" stroke="#ff0000"/>
            <line x1="258.377" y1="150.912" x2="269.29" y2="146.79" stroke="#ff0000"/>
            <line x1="-2642.251" y1="2376.641" x2="258.377" y2="150.912" stroke="#ff0000"/>
        </g>
        <g>
            <title>ray</title>
            <line x1="269.286" y1="146.826" x2="272.664" y2="144.27" stroke="#00ebff"/>
            <line x1="258.377" y1="150.912" x2="269.286" y2="146.826" stroke="#00ebff"/>
            <line x1="-2642.251" y1="2376.641" x2="258.377" y2="150.912" stroke="#00ebff"/>
        </g>
        <g>
            <title>ray</title>
            <line x1="541.444" y1="124.092" x2="544.524" y2="122.261" stroke="#ffe100"/>
            <line x1="538.726" y1="125.066" x2="541.444" y2="124.092" stroke="#ffe100"/>
            <line x1="481.62" y1="159.024" x2="538.726" y2="125.066" stroke="#ffe100"/>
            <line x1="471.948" y1="162.395" x2="481.62" y2="159.024" stroke="#ffe100"/>
            <line x1="461.934" y1="166.907" x2="471.948" y2="162.395" stroke="#ffe100"/>
            <line x1="446.354" y1="167.348" x2="461.934" y2="166.907" stroke="#ffe100"/>
            <line x1="434.48" y1="167.832" x2="446.354" y2="167.348" stroke="#ffe100"/>
            <line x1="426.861" y1="170.766" x2="434.48" y2="167.832" stroke="#ffe100"/>
            <line x1="417.503" y1="172.924" x2="426.861" y2="170.766" stroke="#ffe100"/>
            <line x1="400.804" y1="176.784" x2="417.503" y2="172.924" stroke="#ffe100"/>
            <line x1="366.007" y1="198.23" x2="400.804" y2="176.784" stroke="#ffe100"/>
            <line x1="357.277" y1="203.611" x2="366.007" y2="198.23" stroke="#ffe100"/>
            <line x1="332.443" y1="210.559" x2="357.277" y2="203.611" stroke="#ffe100"/>
            <line x1="325.484" y1="212.677" x2="332.443" y2="210.559" stroke="#ffe100"/>
            <line x1="311.403" y1="222.396" x2="325.484" y2="212.677" stroke="#ffe100"/>
            <line x1="302.928" y1="225.294" x2="311.403" y2="222.396" stroke="#ffe100"/>
            <line x1="283.966" y1="235.017" x2="302.928" y2="225.294" stroke="#ffe100"/>
            <line x1="270.32" y1="242.561" x2="283.966" y2="235.017" stroke="#ffe100"/>
            <line x1="268.368" y1="244.115" x2="270.32" y2="242.561" stroke="#ffe100"/>
            <line x1="258.377" y1="249.088" x2="268.368" y2="244.115" stroke="#ffe100"/>
            <line x1="-2594.835" y1="2438.435" x2="258.377" y2="249.088" stroke="#ffe100"/>
        </g>
        <g>
            <title>ray</title>
            <line x1="541.444" y1="124.084" x2="544.524" y2="122.257" stroke="#ff0000"/>
            <line x1="538.726" y1="125.058" x2="541.444" y2="124.084" stroke="#ff0000"/>
            <line x1="481.611" y1="158.943" x2="538.726" y2="125.058" stroke="#ff0000"/>
            <line x1="471.931" y1="162.322" x2="481.611" y2="158.943" stroke="#ff0000"/>
            <line x1="461.991" y1="166.787" x2="471.931" y2="162.322" stroke="#ff0000"/>
            <line x1="446.339" y1="167.238" x2="461.991" y2="166.787" stroke="#ff0000"/>
            <line x1="434.512" y1="167.726" x2="446.339" y2="167.238" stroke="#ff0000"/>
            <line x1="426.856" y1="170.671" x2="434.512" y2="167.726" stroke="#ff0000"/>
            <line x1="417.48" y1="172.84" x2="426.856" y2="170.671" stroke="#ff0000"/>
            <line x1="400.813" y1="176.708" x2="417.48" y2="172.84" stroke="#ff0000"/>
            <line x1="366.007" y1="198.16" x2="400.813" y2="176.708" stroke="#ff0000"/>
            <line x1="357.278" y1="203.54" x2="366.007" y2="198.16" stroke="#ff0000"/>
            <line x1="332.439" y1="210.521" x2="357.278" y2="203.54" stroke="#ff0000"/>
            <line x1="325.487" y1="212.648" x2="332.439" y2="210.521" stroke="#ff0000"/>
            <line x1="311.402" y1="222.363" x2="325.487" y2="212.648" stroke="#ff0000"/>
            <line x1="302.924" y1="225.269" x2="311.402" y2="222.363" stroke="#ff0000"/>
            <line x1="283.961" y1="235.008" x2="302.924" y2="225.269" stroke="#ff0000"/>
            <line x1="270.319" y1="242.555" x2="283.961" y2="235.008" stroke="#ff0000"/>
            <line x1="268.367" y1="244.108" x2="270.319" y2="242.555" stroke="#ff0000"/>
            <line x1="258.377" y1="249.088" x2="268.367" y2="244.108" stroke="#ff0000"/>
            <line x1="-2594.835" y1="2438.435" x2="258.377" y2="249.088" stroke="#ff0000"/>
        </g>
        <g>
            <title>ray</title>
            <line x1="541.444" y1="124.009" x2="544.524" y2="122.163" stroke="#00ebff"/>
            <line x1="538.726" y1="124.982" x2="541.444" y2="124.009" stroke="#00ebff"/>
            <line x1="481.638" y1="159.194" x2="538.726" y2="124.982" stroke="#00ebff"/>
            <line x1="471.985" y1="162.553" x2="481.638" y2="159.194" stroke="#00ebff"/>
            <line x1="461.805" y1="167.177" x2="471.985" y2="162.553" stroke="#00ebff"/>
            <line x1="446.389" y1="167.599" x2="461.805" y2="167.177" stroke="#00ebff"/>
            <line x1="434.408" y1="168.076" x2="446.389" y2="167.599" stroke="#00ebff"/>
            <line x1="426.873" y1="170.987" x2="434.408" y2="168.076" stroke="#00ebff"/>
            <line x1="417.555" y1="173.117" x2="426.873" y2="170.987" stroke="#00ebff"/>
            <line x1="400.782" y1="176.961" x2="417.555" y2="173.117" stroke="#00ebff"/>
            <line x1="366.007" y1="198.391" x2="400.782" y2="176.961" stroke="#00ebff"/>
            <line x1="357.274" y1="203.773" x2="366.007" y2="198.391" stroke="#00ebff"/>
            <line x1="332.451" y1="210.642" x2="357.274" y2="203.773" stroke="#00ebff"/>
            <line x1="325.478" y1="212.738" x2="332.451" y2="210.642" stroke="#00ebff"/>
            <line x1="311.406" y1="222.472" x2="325.478" y2="212.738" stroke="#00ebff"/>
            <line x1="302.938" y1="225.35" x2="311.406" y2="222.472" stroke="#00ebff"/>
            <line x1="283.98" y1="235.038" x2="302.938" y2="225.35" stroke="#00ebff"/>
            <line x1="270.322" y1="242.576" x2="283.98" y2="235.038" stroke="#00ebff"/>
            <line x1="268.369" y1="244.131" x2="270.322" y2="242.576" stroke="#00ebff"/>
            <line x1="258.377" y1="249.088" x2="268.369" y2="244.131" stroke="#00ebff"/>
            <line x1="-2594.835" y1="2438.435" x2="258.377" y2="249.088" stroke="#00ebff"/>
        </g>
        <g>
            <title>ray</title>
            <line x1="268.574" y1="153.693" x2="271.272" y2="151.641" stroke="#ffe100"/>
            <line x1="257.605" y1="157.924" x2="268.574" y2="153.693" stroke="#ffe100"/>
            <line x1="-2639.15" y1="2380.683" x2="257.605" y2="157.924" stroke="#ffe100"/>
        </g>
        <g>
            <title>ray</title>
            <line x1="268.575" y1="153.682" x2="271.274" y2="151.63" stroke="#ff0000"/>
            <line x1="257.605" y1="157.924" x2="268.575" y2="153.682" stroke="#ff0000"/>
            <line x1="-2639.15" y1="2380.683" x2="257.605" y2="157.924" stroke="#ff0000"/>
        </g>
        <g>
            <title>ray</title>
            <line x1="268.572" y1="153.718" x2="271.267" y2="151.668" stroke="#00ebff"/>
            <line x1="257.605" y1="157.924" x2="268.572" y2="153.718" stroke="#00ebff"/>
            <line x1="-2639.15" y1="2380.683" x2="257.605" y2="157.924" stroke="#00ebff"/>
        </g>
        <g>
            <title>ray</title>
            <line x1="415.176" y1="165.437" x2="426.421" y2="163.215" stroke="#ffe100"/>
            <line x1="402.115" y1="168.051" x2="415.176" y2="165.437" stroke="#ffe100"/>
            <line x1="366.007" y1="189.915" x2="402.115" y2="168.051" stroke="#ffe100"/>
            <line x1="357.252" y1="195.216" x2="366.007" y2="189.915" stroke="#ffe100"/>
            <line x1="331.977" y1="202.791" x2="357.252" y2="195.216" stroke="#ffe100"/>
            <line x1="326.049" y1="204.793" x2="331.977" y2="202.791" stroke="#ffe100"/>
            <line x1="311.138" y1="215.001" x2="326.049" y2="204.793" stroke="#ffe100"/>
            <line x1="301.871" y1="218.074" x2="311.138" y2="215.001" stroke="#ffe100"/>
            <line x1="280.833" y1="229.638" x2="301.871" y2="218.074" stroke="#ffe100"/>
            <line x1="269.37" y1="235.833" x2="280.833" y2="229.638" stroke="#ffe100"/>
            <line x1="267.776" y1="237.099" x2="269.37" y2="235.833" stroke="#ffe100"/>
            <line x1="257.605" y1="242.076" x2="267.776" y2="237.099" stroke="#ffe100"/>
            <line x1="-2598.508" y1="2433.648" x2="257.605" y2="242.076" stroke="#ffe100"/>
        </g>
        <g>
            <title>ray</title>
            <line x1="415.148" y1="165.356" x2="426.415" y2="163.122" stroke="#ff0000"/>
            <line x1="402.129" y1="167.974" x2="415.148" y2="165.356" stroke="#ff0000"/>
            <line x1="366.007" y1="189.845" x2="402.129" y2="167.974" stroke="#ff0000"/>
            <line x1="357.251" y1="195.146" x2="366.007" y2="189.845" stroke="#ff0000"/>
            <line x1="331.976" y1="202.752" x2="357.251" y2="195.146" stroke="#ff0000"/>
            <line x1="326.051" y1="204.762" x2="331.976" y2="202.752" stroke="#ff0000"/>
            <line x1="311.137" y1="214.967" x2="326.051" y2="204.762" stroke="#ff0000"/>
            <line x1="301.868" y1="218.049" x2="311.137" y2="214.967" stroke="#ff0000"/>
            <line x1="280.828" y1="229.629" x2="301.868" y2="218.049" stroke="#ff0000"/>
            <line x1="269.37" y1="235.826" x2="280.828" y2="229.629" stroke="#ff0000"/>
            <line x1="267.775" y1="237.092" x2="269.37" y2="235.826" stroke="#ff0000"/>
            <line x1="257.605" y1="242.076" x2="267.775" y2="237.092" stroke="#ff0000"/>
            <line x1="-2598.508" y1="2433.648" x2="257.605" y2="242.076" stroke="#ff0000"/>
        </g>
        <g>
            <title>ray</title>
            <line x1="415.241" y1="165.622" x2="426.435" y2="163.425" stroke="#00ebff"/>
            <line x1="402.084" y1="168.228" x2="415.241" y2="165.622" stroke="#00ebff"/>
            <line x1="366.007" y1="190.075" x2="402.084" y2="168.228" stroke="#00ebff"/>
            <line x1="357.256" y1="195.374" x2="366.007" y2="190.075" stroke="#00ebff"/>
            <line x1="331.979" y1="202.878" x2="357.256" y2="195.374" stroke="#00ebff"/>
            <line x1="326.047" y1="204.86" x2="331.979" y2="202.878" stroke="#00ebff"/>
            <line x1="311.14" y1="215.08" x2="326.047" y2="204.86" stroke="#00ebff"/>
            <line x1="301.878" y1="218.13" x2="311.14" y2="215.08" stroke="#00ebff"/>
            <line x1="280.845" y1="229.66" x2="301.878" y2="218.13" stroke="#00ebff"/>
            <line x1="269.372" y1="235.848" x2="280.845" y2="229.66" stroke="#00ebff"/>
            <line x1="267.777" y1="237.116" x2="269.372" y2="235.848" stroke="#00ebff"/>
            <line x1="257.605" y1="242.076" x2="267.777" y2="237.116" stroke="#00ebff"/>
            <line x1="-2598.508" y1="2433.648" x2="257.605" y2="242.076" stroke="#00ebff"/>
        </g>
        <g>
            <title>ray</title>
            <line x1="267.959" y1="160.593" x2="270.09" y2="158.965" stroke="#ffe100"/>
            <line x1="256.953" y1="164.937" x2="267.959" y2="160.593" stroke="#ffe100"/>
            <line x1="-2636.004" y1="2384.782" x2="256.953" y2="164.937" stroke="#ffe100"/>
        </g>
        <g>
            <title>ray</title>
            <line x1="267.96" y1="160.583" x2="270.092" y2="158.954" stroke="#ff0000"/>
            <line x1="256.953" y1="164.937" x2="267.96" y2="160.583" stroke="#ff0000"/>
            <line x1="-2636.004" y1="2384.782" x2="256.953" y2="164.937" stroke="#ff0000"/>
        </g>
        <g>
            <title>ray</title>
            <line x1="267.957" y1="160.617" x2="270.086" y2="158.991" stroke="#00ebff"/>
            <line x1="256.953" y1="164.937" x2="267.957" y2="160.617" stroke="#00ebff"/>
            <line x1="-2636.004" y1="2384.782" x2="256.953" y2="164.937" stroke="#00ebff"/>
        </g>
        <g>
            <title>ray</title>
            <line x1="403.776" y1="159.676" x2="412.335" y2="158.245" stroke="#ffe100"/>
            <line x1="366.007" y1="181.824" x2="403.776" y2="159.676" stroke="#ffe100"/>
            <line x1="356.898" y1="187.165" x2="366.007" y2="181.824" stroke="#ffe100"/>
            <line x1="332.054" y1="194.991" x2="356.898" y2="187.165" stroke="#ffe100"/>
            <line x1="326.111" y1="197.171" x2="332.054" y2="194.991" stroke="#ffe100"/>
            <line x1="310.975" y1="207.368" x2="326.111" y2="197.171" stroke="#ffe100"/>
            <line x1="301.145" y1="210.504" x2="310.975" y2="207.368" stroke="#ffe100"/>
            <line x1="278.232" y1="223.974" x2="301.145" y2="210.504" stroke="#ffe100"/>
            <line x1="268.583" y1="229.068" x2="278.232" y2="223.974" stroke="#ffe100"/>
            <line x1="267.287" y1="230.094" x2="268.583" y2="229.068" stroke="#ffe100"/>
            <line x1="256.953" y1="235.063" x2="267.287" y2="230.094" stroke="#ffe100"/>
            <line x1="-2602.136" y1="2428.92" x2="256.953" y2="235.063" stroke="#ffe100"/>
        </g>
        <g>
            <title>ray</title>
            <line x1="403.795" y1="159.593" x2="412.3" y2="158.163" stroke="#ff0000"/>
            <line x1="366.007" y1="181.752" x2="403.795" y2="159.593" stroke="#ff0000"/>
            <line x1="356.894" y1="187.096" x2="366.007" y2="181.752" stroke="#ff0000"/>
            <line x1="332.056" y1="194.948" x2="356.894" y2="187.096" stroke="#ff0000"/>
            <line x1="326.11" y1="197.138" x2="332.056" y2="194.948" stroke="#ff0000"/>
            <line x1="310.974" y1="207.333" x2="326.11" y2="197.138" stroke="#ff0000"/>
            <line x1="301.143" y1="210.48" x2="310.974" y2="207.333" stroke="#ff0000"/>
            <line x1="278.228" y1="223.964" x2="301.143" y2="210.48" stroke="#ff0000"/>
            <line x1="268.582" y1="229.061" x2="278.228" y2="223.964" stroke="#ff0000"/>
            <line x1="267.286" y1="230.086" x2="268.582" y2="229.061" stroke="#ff0000"/>
            <line x1="256.953" y1="235.063" x2="267.286" y2="230.086" stroke="#ff0000"/>
            <line x1="-2602.136" y1="2428.92" x2="256.953" y2="235.063" stroke="#ff0000"/>
        </g>
        <g>
            <title>ray</title>
            <line x1="403.735" y1="159.86" x2="412.415" y2="158.427" stroke="#00ebff"/>
            <line x1="366.007" y1="181.986" x2="403.735" y2="159.86" stroke="#00ebff"/>
            <line x1="356.908" y1="187.322" x2="366.007" y2="181.986" stroke="#00ebff"/>
            <line x1="332.05" y1="195.089" x2="356.908" y2="187.322" stroke="#00ebff"/>
            <line x1="326.112" y1="197.245" x2="332.05" y2="195.089" stroke="#00ebff"/>
            <line x1="310.976" y1="207.448" x2="326.112" y2="197.245" stroke="#00ebff"/>
            <line x1="301.149" y1="210.56" x2="310.976" y2="207.448" stroke="#00ebff"/>
            <line x1="278.241" y1="223.997" x2="301.149" y2="210.56" stroke="#00ebff"/>
            <line x1="268.584" y1="229.084" x2="278.241" y2="223.997" stroke="#00ebff"/>
            <line x1="267.288" y1="230.111" x2="268.584" y2="229.084" stroke="#00ebff"/>
            <line x1="256.953" y1="235.063" x2="267.288" y2="230.111" stroke="#00ebff"/>
            <line x1="-2602.136" y1="2428.92" x2="256.953" y2="235.063" stroke="#00ebff"/>
        </g>
        <g>
            <title>ray</title>
            <line x1="269.114" y1="166.22" x2="289.176" y2="158.036" stroke="#ffe100"/>
            <line x1="267.443" y1="167.502" x2="269.114" y2="166.22" stroke="#ffe100"/>
            <line x1="256.421" y1="171.95" x2="267.443" y2="167.502" stroke="#ffe100"/>
            <line x1="-2632.815" y1="2388.938" x2="256.421" y2="171.95" stroke="#ffe100"/>
        </g>
        <g>
            <title>ray</title>
            <line x1="269.115" y1="166.209" x2="289.206" y2="158.001" stroke="#ff0000"/>
            <line x1="267.444" y1="167.491" x2="269.115" y2="166.209" stroke="#ff0000"/>
            <line x1="256.421" y1="171.95" x2="267.444" y2="167.491" stroke="#ff0000"/>
            <line x1="-2632.815" y1="2388.938" x2="256.421" y2="171.95" stroke="#ff0000"/>
        </g>
        <g>
            <title>ray</title>
            <line x1="269.111" y1="166.244" x2="289.107" y2="158.116" stroke="#00ebff"/>
            <line x1="267.441" y1="167.525" x2="269.111" y2="166.244" stroke="#00ebff"/>
            <line x1="256.421" y1="171.95" x2="267.441" y2="167.525" stroke="#00ebff"/>
            <line x1="-2632.815" y1="2388.938" x2="256.421" y2="171.95" stroke="#00ebff"/>
        </g>
        <g>
            <title>ray</title>
            <line x1="356.238" y1="179.307" x2="366.007" y2="173.845" stroke="#ffe100"/>
            <line x1="332.705" y1="186.974" x2="356.238" y2="179.307" stroke="#ffe100"/>
            <line x1="325.71" y1="189.718" x2="332.705" y2="186.974" stroke="#ffe100"/>
            <line x1="310.923" y1="199.451" x2="325.71" y2="189.718" stroke="#ffe100"/>
            <line x1="300.797" y1="202.536" x2="310.923" y2="199.451" stroke="#ffe100"/>
            <line x1="276.175" y1="218.031" x2="300.797" y2="202.536" stroke="#ffe100"/>
            <line x1="267.958" y1="222.265" x2="276.175" y2="218.031" stroke="#ffe100"/>
            <line x1="266.901" y1="223.099" x2="267.958" y2="222.265" stroke="#ffe100"/>
            <line x1="256.421" y1="228.05" x2="266.901" y2="223.099" stroke="#ffe100"/>
            <line x1="-2605.72" y1="2424.249" x2="256.421" y2="228.05" stroke="#ffe100"/>
        </g>
        <g>
            <title>ray</title>
            <line x1="356.231" y1="179.238" x2="366.007" y2="173.771" stroke="#ff0000"/>
            <line x1="332.711" y1="186.925" x2="356.231" y2="179.238" stroke="#ff0000"/>
            <line x1="325.707" y1="189.682" x2="332.711" y2="186.925" stroke="#ff0000"/>
            <line x1="310.923" y1="199.416" x2="325.707" y2="189.682" stroke="#ff0000"/>
            <line x1="300.797" y1="202.513" x2="310.923" y2="199.416" stroke="#ff0000"/>
            <line x1="276.172" y1="218.02" x2="300.797" y2="202.513" stroke="#ff0000"/>
            <line x1="267.957" y1="222.257" x2="276.172" y2="218.02" stroke="#ff0000"/>
            <line x1="266.9" y1="223.091" x2="267.957" y2="222.257" stroke="#ff0000"/>
            <line x1="256.421" y1="228.05" x2="266.9" y2="223.091" stroke="#ff0000"/>
            <line x1="-2605.72" y1="2424.249" x2="256.421" y2="228.05" stroke="#ff0000"/>
        </g>
        <g>
            <title>ray</title>
            <line x1="356.255" y1="179.466" x2="366.007" y2="174.013" stroke="#00ebff"/>
            <line x1="332.692" y1="187.088" x2="356.255" y2="179.466" stroke="#00ebff"/>
            <line x1="325.717" y1="189.799" x2="332.692" y2="187.088" stroke="#00ebff"/>
            <line x1="310.923" y1="199.532" x2="325.717" y2="189.799" stroke="#00ebff"/>
            <line x1="300.798" y1="202.59" x2="310.923" y2="199.532" stroke="#00ebff"/>
            <line x1="276.182" y1="218.054" x2="300.798" y2="202.59" stroke="#00ebff"/>
            <line x1="267.959" y1="222.283" x2="276.182" y2="218.054" stroke="#00ebff"/>
            <line x1="266.902" y1="223.117" x2="267.959" y2="222.283" stroke="#00ebff"/>
            <line x1="256.421" y1="228.05" x2="266.902" y2="223.117" stroke="#00ebff"/>
            <line x1="-2605.72" y1="2424.249" x2="256.421" y2="228.05" stroke="#00ebff"/>
        </g>
        <g>
            <title>ray</title>
            <line x1="268.336" y1="173.41" x2="282.439" y2="167.456" stroke="#ffe100"/>
            <line x1="267.026" y1="174.419" x2="268.336" y2="173.41" stroke="#ffe100"/>
            <line x1="256.007" y1="178.962" x2="267.026" y2="174.419" stroke="#ffe100"/>
            <line x1="-2629.581" y1="2393.152" x2="256.007" y2="178.962" stroke="#ffe100"/>
        </g>
        <g>
            <title>ray</title>
            <line x1="268.337" y1="173.399" x2="282.454" y2="167.431" stroke="#ff0000"/>
            <line x1="267.027" y1="174.409" x2="268.337" y2="173.399" stroke="#ff0000"/>
            <line x1="256.007" y1="178.962" x2="267.027" y2="174.409" stroke="#ff0000"/>
            <line x1="-2629.581" y1="2393.152" x2="256.007" y2="178.962" stroke="#ff0000"/>
        </g>
        <g>
            <title>ray</title>
            <line x1="268.333" y1="173.434" x2="282.406" y2="167.512" stroke="#00ebff"/>
            <line x1="267.025" y1="174.442" x2="268.333" y2="173.434" stroke="#00ebff"/>
            <line x1="256.007" y1="178.962" x2="267.025" y2="174.442" stroke="#00ebff"/>
            <line x1="-2629.581" y1="2393.152" x2="256.007" y2="178.962" stroke="#00ebff"/>
        </g>
        <g>
            <title>ray</title>
            <line x1="355.267" y1="171.46" x2="366.007" y2="165.843" stroke="#ffe100"/>
            <line x1="334.033" y1="178.507" x2="355.267" y2="171.46" stroke="#ffe100"/>
            <line x1="324.857" y1="182.312" x2="334.033" y2="178.507" stroke="#ffe100"/>
            <line x1="310.997" y1="191.158" x2="324.857" y2="182.312" stroke="#ffe100"/>
            <line x1="300.893" y1="194.071" x2="310.997" y2="191.158" stroke="#ffe100"/>
            <line x1="274.689" y1="211.808" x2="300.893" y2="194.071" stroke="#ffe100"/>
            <line x1="267.497" y1="215.423" x2="274.689" y2="211.808" stroke="#ffe100"/>
            <line x1="266.617" y1="216.115" x2="267.497" y2="215.423" stroke="#ffe100"/>
            <line x1="256.007" y1="221.038" x2="266.617" y2="216.115" stroke="#ffe100"/>
            <line x1="-2609.26" y1="2419.635" x2="256.007" y2="221.038" stroke="#ffe100"/>
        </g>
        <g>
            <title>ray</title>
            <line x1="355.256" y1="171.39" x2="366.007" y2="165.765" stroke="#ff0000"/>
            <line x1="334.045" y1="178.449" x2="355.256" y2="171.39" stroke="#ff0000"/>
            <line x1="324.852" y1="182.275" x2="334.045" y2="178.449" stroke="#ff0000"/>
            <line x1="310.998" y1="191.123" x2="324.852" y2="182.275" stroke="#ff0000"/>
            <line x1="300.894" y1="194.049" x2="310.998" y2="191.123" stroke="#ff0000"/>
            <line x1="274.687" y1="211.798" x2="300.894" y2="194.049" stroke="#ff0000"/>
            <line x1="267.496" y1="215.415" x2="274.687" y2="211.798" stroke="#ff0000"/>
            <line x1="266.617" y1="216.107" x2="267.496" y2="215.415" stroke="#ff0000"/>
            <line x1="256.007" y1="221.038" x2="266.617" y2="216.107" stroke="#ff0000"/>
            <line x1="-2609.26" y1="2419.635" x2="256.007" y2="221.038" stroke="#ff0000"/>
        </g>
        <g>
            <title>ray</title>
            <line x1="355.29" y1="171.622" x2="366.007" y2="166.018" stroke="#00ebff"/>
            <line x1="334.007" y1="178.641" x2="355.29" y2="171.622" stroke="#00ebff"/>
            <line x1="324.87" y1="182.398" x2="334.007" y2="178.641" stroke="#00ebff"/>
            <line x1="310.996" y1="191.238" x2="324.87" y2="182.398" stroke="#00ebff"/>
            <line x1="300.891" y1="194.122" x2="310.996" y2="191.238" stroke="#00ebff"/>
            <line x1="274.694" y1="211.833" x2="300.891" y2="194.122" stroke="#00ebff"/>
            <line x1="267.498" y1="215.441" x2="274.694" y2="211.833" stroke="#00ebff"/>
            <line x1="266.617" y1="216.134" x2="267.498" y2="215.441" stroke="#00ebff"/>
            <line x1="256.007" y1="221.038" x2="266.617" y2="216.134" stroke="#00ebff"/>
            <line x1="-2609.26" y1="2419.635" x2="256.007" y2="221.038" stroke="#00ebff"/>
        </g>
        <g>
            <title>ray</title>
            <line x1="267.748" y1="180.54" x2="278.26" y2="175.955" stroke="#ffe100"/>
            <line x1="266.708" y1="181.345" x2="267.748" y2="180.54" stroke="#ffe100"/>
            <line x1="255.712" y1="185.975" x2="266.708" y2="181.345" stroke="#ffe100"/>
            <line x1="-2626.304" y1="2397.423" x2="255.712" y2="185.975" stroke="#ffe100"/>
        </g>
        <g>
            <title>ray</title>
            <line x1="267.749" y1="180.53" x2="278.268" y2="175.936" stroke="#ff0000"/>
            <line x1="266.709" y1="181.335" x2="267.749" y2="180.53" stroke="#ff0000"/>
            <line x1="255.712" y1="185.975" x2="266.709" y2="181.335" stroke="#ff0000"/>
            <line x1="-2626.304" y1="2397.423" x2="255.712" y2="185.975" stroke="#ff0000"/>
        </g>
        <g>
            <title>ray</title>
            <line x1="267.747" y1="180.563" x2="278.243" y2="175.999" stroke="#00ebff"/>
            <line x1="266.708" y1="181.367" x2="267.747" y2="180.563" stroke="#00ebff"/>
            <line x1="255.712" y1="185.975" x2="266.708" y2="181.367" stroke="#00ebff"/>
            <line x1="-2626.304" y1="2397.423" x2="255.712" y2="185.975" stroke="#00ebff"/>
        </g>
        <g>
            <title>ray</title>
            <line x1="353.932" y1="163.364" x2="366.007" y2="157.623" stroke="#ffe100"/>
            <line x1="336.272" y1="169.232" x2="353.932" y2="163.364" stroke="#ffe100"/>
            <line x1="323.513" y1="174.773" x2="336.272" y2="169.232" stroke="#ffe100"/>
            <line x1="311.222" y1="182.306" x2="323.513" y2="174.773" stroke="#ffe100"/>
            <line x1="301.538" y1="184.915" x2="311.222" y2="182.306" stroke="#ffe100"/>
            <line x1="273.815" y1="205.301" x2="301.538" y2="184.915" stroke="#ffe100"/>
            <line x1="267.203" y1="208.539" x2="273.815" y2="205.301" stroke="#ffe100"/>
            <line x1="266.434" y1="209.142" x2="267.203" y2="208.539" stroke="#ffe100"/>
            <line x1="255.712" y1="214.025" x2="266.434" y2="209.142" stroke="#ffe100"/>
            <line x1="-2612.757" y1="2415.079" x2="255.712" y2="214.025" stroke="#ffe100"/>
        </g>
        <g>
            <title>ray</title>
            <line x1="353.918" y1="163.292" x2="366.007" y2="157.542" stroke="#ff0000"/>
            <line x1="336.292" y1="169.164" x2="353.918" y2="163.292" stroke="#ff0000"/>
            <line x1="323.505" y1="174.736" x2="336.292" y2="169.164" stroke="#ff0000"/>
            <line x1="311.224" y1="182.273" x2="323.505" y2="174.736" stroke="#ff0000"/>
            <line x1="301.54" y1="184.895" x2="311.224" y2="182.273" stroke="#ff0000"/>
            <line x1="273.814" y1="205.29" x2="301.54" y2="184.895" stroke="#ff0000"/>
            <line x1="267.202" y1="208.53" x2="273.814" y2="205.29" stroke="#ff0000"/>
            <line x1="266.434" y1="209.133" x2="267.202" y2="208.53" stroke="#ff0000"/>
            <line x1="255.712" y1="214.025" x2="266.434" y2="209.133" stroke="#ff0000"/>
            <line x1="-2612.757" y1="2415.079" x2="255.712" y2="214.025" stroke="#ff0000"/>
        </g>
        <g>
            <title>ray</title>
            <line x1="353.962" y1="163.529" x2="366.007" y2="157.806" stroke="#00ebff"/>
            <line x1="336.227" y1="169.39" x2="353.962" y2="163.529" stroke="#00ebff"/>
            <line x1="323.531" y1="174.86" x2="336.227" y2="169.39" stroke="#00ebff"/>
            <line x1="311.22" y1="182.382" x2="323.531" y2="174.86" stroke="#00ebff"/>
            <line x1="301.533" y1="184.961" x2="311.22" y2="182.382" stroke="#00ebff"/>
            <line x1="273.817" y1="205.328" x2="301.533" y2="184.961" stroke="#00ebff"/>
            <line x1="267.203" y1="208.558" x2="273.817" y2="205.328" stroke="#00ebff"/>
            <line x1="266.435" y1="209.161" x2="267.203" y2="208.558" stroke="#00ebff"/>
            <line x1="255.712" y1="214.025" x2="266.435" y2="209.161" stroke="#00ebff"/>
            <line x1="-2612.757" y1="2415.079" x2="255.712" y2="214.025" stroke="#00ebff"/>
        </g>
        <g>
            <title>ray</title>
            <line x1="267.346" y1="187.615" x2="275.649" y2="183.88" stroke="#ffe100"/>
            <line x1="266.49" y1="188.28" x2="267.346" y2="187.615" stroke="#ffe100"/>
            <line x1="255.535" y1="192.987" x2="266.49" y2="188.28" stroke="#ffe100"/>
            <line x1="-2622.983" y1="2401.752" x2="255.535" y2="192.987" stroke="#ffe100"/>
        </g>
        <g>
            <title>ray</title>
            <line x1="267.347" y1="187.605" x2="275.653" y2="183.864" stroke="#ff0000"/>
            <line x1="266.49" y1="188.27" x2="267.347" y2="187.605" stroke="#ff0000"/>
            <line x1="255.535" y1="192.987" x2="266.49" y2="188.27" stroke="#ff0000"/>
            <line x1="-2622.983" y1="2401.752" x2="255.535" y2="192.987" stroke="#ff0000"/>
        </g>
        <g>
            <title>ray</title>
            <line x1="267.345" y1="187.637" x2="275.64" y2="183.916" stroke="#00ebff"/>
            <line x1="266.49" y1="188.301" x2="267.345" y2="187.637" stroke="#00ebff"/>
            <line x1="255.535" y1="192.987" x2="266.49" y2="188.301" stroke="#00ebff"/>
            <line x1="-2622.983" y1="2401.752" x2="255.535" y2="192.987" stroke="#00ebff"/>
        </g>
        <g>
            <title>ray</title>
            <line x1="352.083" y1="154.533" x2="366.007" y2="148.84" stroke="#ffe100"/>
            <line x1="339.972" y1="158.456" x2="352.083" y2="154.533" stroke="#ffe100"/>
            <line x1="321.539" y1="166.762" x2="339.972" y2="158.456" stroke="#ffe100"/>
            <line x1="311.648" y1="172.487" x2="321.539" y2="166.762" stroke="#ffe100"/>
            <line x1="302.941" y1="174.63" x2="311.648" y2="172.487" stroke="#ffe100"/>
            <line x1="273.613" y1="198.496" x2="302.941" y2="174.63" stroke="#ffe100"/>
            <line x1="267.077" y1="201.611" x2="273.613" y2="198.496" stroke="#ffe100"/>
            <line x1="266.353" y1="202.178" x2="267.077" y2="201.611" stroke="#ffe100"/>
            <line x1="255.535" y1="207.013" x2="266.353" y2="202.178" stroke="#ffe100"/>
            <line x1="-2616.209" y1="2410.579" x2="255.535" y2="207.013" stroke="#ffe100"/>
        </g>
        <g>
            <title>ray</title>
            <line x1="352.066" y1="154.461" x2="366.007" y2="148.755" stroke="#ff0000"/>
            <line x1="340.005" y1="158.376" x2="352.066" y2="154.461" stroke="#ff0000"/>
            <line x1="321.529" y1="166.728" x2="340.005" y2="158.376" stroke="#ff0000"/>
            <line x1="311.649" y1="172.458" x2="321.529" y2="166.728" stroke="#ff0000"/>
            <line x1="302.944" y1="174.614" x2="311.649" y2="172.458" stroke="#ff0000"/>
            <line x1="273.614" y1="198.484" x2="302.944" y2="174.614" stroke="#ff0000"/>
            <line x1="267.077" y1="201.602" x2="273.614" y2="198.484" stroke="#ff0000"/>
            <line x1="266.353" y1="202.169" x2="267.077" y2="201.602" stroke="#ff0000"/>
            <line x1="255.535" y1="207.013" x2="266.353" y2="202.169" stroke="#ff0000"/>
            <line x1="-2616.209" y1="2410.579" x2="255.535" y2="207.013" stroke="#ff0000"/>
        </g>
        <g>
            <title>ray</title>
            <line x1="352.122" y1="154.701" x2="366.007" y2="149.029" stroke="#00ebff"/>
            <line x1="339.897" y1="158.643" x2="352.122" y2="154.701" stroke="#00ebff"/>
            <line x1="321.562" y1="166.842" x2="339.897" y2="158.643" stroke="#00ebff"/>
            <line x1="311.644" y1="172.553" x2="321.562" y2="166.842" stroke="#00ebff"/>
            <line x1="302.935" y1="174.666" x2="311.644" y2="172.553" stroke="#00ebff"/>
            <line x1="273.613" y1="198.525" x2="302.935" y2="174.666" stroke="#00ebff"/>
            <line x1="267.077" y1="201.631" x2="273.613" y2="198.525" stroke="#00ebff"/>
            <line x1="266.353" y1="202.198" x2="267.077" y2="201.631" stroke="#00ebff"/>
            <line x1="255.535" y1="207.013" x2="266.353" y2="202.198" stroke="#00ebff"/>
            <line x1="-2616.209" y1="2410.579" x2="255.535" y2="207.013" stroke="#00ebff"/>
        </g>
    </g>
</svg>
