<?xml version="1.0" standalone="no"?>
<svg width="300px" height="300px" version="1.1" xmlns="http://www.w3.org/2000/svg"
     xmlns:xlink="http://www.w3.org/1999/xlink">
    <rect x="0" y="0" width="300" height="300" fill="#000000"/>
    <defs>
        <g id="dot">
            <line x1="1" y1="1" x2="0" y2="0"/>
        </g>
        <g id="cross">
            <line x1="-3" y1="0" x2="3" y2="0"/>
            <line x1="0" y1="-3" x2="0" y2="3"/>
        </g>
        <g id="square">
            <line x1="-3" y1="-3" x2="-3" y2="3"/>
            <line x1="-3" y1="3" x2="3" y2="3"/>
            <line x1="3" y1="3" x2="3" y2="-3"/>
            <line x1="3" y1="-3" x2="-3" y2="-3"/>
        </g>
        <g id="round">
            <ellipse cx="0" cy="0" rx="3" ry="3" fill="none"/>
        </g>
        <g id="triangle">
            <line x1="0" y1="-3" x2="-3" y2="3"/>
            <line x1="-3" y1="3" x2="3" y2="3"/>
            <line x1="0" y1="-3" x2="3" y2="3"/>
        </g>
    </defs>
    <polygon fill="none" stroke="#ffffff" points="30.952,269.048 30.952,30.952 269.048,30.952 269.048,269.048 "/>
    <text style="font-size:12;text-align:center;text-anchor:middle;" x="150" y="298.262" fill="#ffffff">Sagittal
        distance (um)
    </text>
    <use x="70.635" y="30.952" xlink:href="#cross" stroke="#ffffff"/>
    <use x="70.635" y="269.048" xlink:href="#cross" stroke="#ffffff"/>
    <text style="font-size:12;text-align:center;text-anchor:middle;" x="70.635" y="287.048" fill="#ffffff">-77</text>
    <use x="150" y="30.952" xlink:href="#cross" stroke="#ffffff"/>
    <use x="150" y="269.048" xlink:href="#cross" stroke="#ffffff"/>
    <text style="font-size:12;text-align:center;text-anchor:middle;" x="150" y="287.048" fill="#ffffff">0</text>
    <use x="229.365" y="30.952" xlink:href="#cross" stroke="#ffffff"/>
    <use x="229.365" y="269.048" xlink:href="#cross" stroke="#ffffff"/>
    <text style="font-size:12;text-align:center;text-anchor:middle;" x="229.365" y="287.048" fill="#ffffff">77</text>
    <text style="font-size:12;text-align:center;text-anchor:middle;" x="7.738" y="156" transform="rotate(-90,7.738,150)"
          fill="#ffffff">Tangential distance (um)
    </text>
    <use x="269.048" y="240.889" xlink:href="#cross" stroke="#ffffff"/>
    <use x="30.952" y="240.889" xlink:href="#cross" stroke="#ffffff"/>
    <text style="font-size:12;text-align:right;text-anchor:end;" x="24.952" y="246.889" fill="#ffffff">-77</text>
    <use x="269.048" y="161.524" xlink:href="#cross" stroke="#ffffff"/>
    <use x="30.952" y="161.524" xlink:href="#cross" stroke="#ffffff"/>
    <text style="font-size:12;text-align:right;text-anchor:end;" x="24.952" y="167.524" fill="#ffffff">0</text>
    <use x="269.048" y="82.159" xlink:href="#cross" stroke="#ffffff"/>
    <use x="30.952" y="82.159" xlink:href="#cross" stroke="#ffffff"/>
    <text style="font-size:12;text-align:right;text-anchor:end;" x="24.952" y="88.159" fill="#ffffff">77</text>
    <use x="140.722" y="146.648" xlink:href="#dot" stroke="#ffe100"/>
    <use x="146.16" y="155.604" xlink:href="#dot" stroke="#ff0000"/>
    <use x="144.297" y="126.329" xlink:href="#dot" stroke="#00ebff"/>
    <use x="140.597" y="153.631" xlink:href="#dot" stroke="#ffe100"/>
    <use x="144.791" y="162.968" xlink:href="#dot" stroke="#ff0000"/>
    <use x="142.781" y="133.032" xlink:href="#dot" stroke="#00ebff"/>
    <use x="142.734" y="159.368" xlink:href="#dot" stroke="#ffe100"/>
    <use x="145.582" y="168.972" xlink:href="#dot" stroke="#ff0000"/>
    <use x="143.964" y="138.576" xlink:href="#dot" stroke="#00ebff"/>
    <use x="146.099" y="163.134" xlink:href="#dot" stroke="#ffe100"/>
    <use x="147.538" y="172.896" xlink:href="#dot" stroke="#ff0000"/>
    <use x="146.648" y="142.229" xlink:href="#dot" stroke="#00ebff"/>
    <use x="150" y="164.446" xlink:href="#dot" stroke="#ffe100"/>
    <use x="150" y="174.259" xlink:href="#dot" stroke="#ff0000"/>
    <use x="150" y="143.503" xlink:href="#dot" stroke="#00ebff"/>
    <use x="153.901" y="163.134" xlink:href="#dot" stroke="#ffe100"/>
    <use x="152.462" y="172.896" xlink:href="#dot" stroke="#ff0000"/>
    <use x="153.352" y="142.229" xlink:href="#dot" stroke="#00ebff"/>
    <use x="157.266" y="159.368" xlink:href="#dot" stroke="#ffe100"/>
    <use x="154.418" y="168.972" xlink:href="#dot" stroke="#ff0000"/>
    <use x="156.036" y="138.576" xlink:href="#dot" stroke="#00ebff"/>
    <use x="159.403" y="153.631" xlink:href="#dot" stroke="#ffe100"/>
    <use x="155.209" y="162.968" xlink:href="#dot" stroke="#ff0000"/>
    <use x="157.219" y="133.032" xlink:href="#dot" stroke="#00ebff"/>
    <use x="159.278" y="146.648" xlink:href="#dot" stroke="#ffe100"/>
    <use x="153.84" y="155.604" xlink:href="#dot" stroke="#ff0000"/>
    <use x="155.703" y="126.329" xlink:href="#dot" stroke="#00ebff"/>
    <use x="187.934" y="153.418" xlink:href="#dot" stroke="#ffe100"/>
    <use x="196.048" y="158.09" xlink:href="#dot" stroke="#ff0000"/>
    <use x="199.284" y="131.436" xlink:href="#dot" stroke="#00ebff"/>
    <use x="164.296" y="158.32" xlink:href="#dot" stroke="#ffe100"/>
    <use x="171.796" y="163.886" xlink:href="#dot" stroke="#ff0000"/>
    <use x="171.725" y="135.817" xlink:href="#dot" stroke="#00ebff"/>
    <use x="151.879" y="161.134" xlink:href="#dot" stroke="#ffe100"/>
    <use x="158.476" y="167.434" xlink:href="#dot" stroke="#ff0000"/>
    <use x="156.602" y="138.159" xlink:href="#dot" stroke="#00ebff"/>
    <use x="146.255" y="163.408" xlink:href="#dot" stroke="#ffe100"/>
    <use x="151.741" y="170.296" xlink:href="#dot" stroke="#ff0000"/>
    <use x="149.145" y="140.036" xlink:href="#dot" stroke="#00ebff"/>
    <use x="144.674" y="165.556" xlink:href="#dot" stroke="#ffe100"/>
    <use x="148.903" y="172.891" xlink:href="#dot" stroke="#ff0000"/>
    <use x="146.353" y="141.87" xlink:href="#dot" stroke="#00ebff"/>
    <use x="145.427" y="167.441" xlink:href="#dot" stroke="#ffe100"/>
    <use x="148.298" y="175.092" xlink:href="#dot" stroke="#ff0000"/>
    <use x="146.324" y="143.529" xlink:href="#dot" stroke="#00ebff"/>
    <use x="147.439" y="168.751" xlink:href="#dot" stroke="#ffe100"/>
    <use x="148.89" y="176.59" xlink:href="#dot" stroke="#ff0000"/>
    <use x="147.823" y="144.703" xlink:href="#dot" stroke="#00ebff"/>
    <use x="150" y="169.221" xlink:href="#dot" stroke="#ffe100"/>
    <use x="150" y="177.123" xlink:href="#dot" stroke="#ff0000"/>
    <use x="150" y="145.128" xlink:href="#dot" stroke="#00ebff"/>
    <use x="152.561" y="168.751" xlink:href="#dot" stroke="#ffe100"/>
    <use x="151.11" y="176.59" xlink:href="#dot" stroke="#ff0000"/>
    <use x="152.177" y="144.703" xlink:href="#dot" stroke="#00ebff"/>
    <use x="154.573" y="167.441" xlink:href="#dot" stroke="#ffe100"/>
    <use x="151.702" y="175.092" xlink:href="#dot" stroke="#ff0000"/>
    <use x="153.676" y="143.529" xlink:href="#dot" stroke="#00ebff"/>
    <use x="155.326" y="165.556" xlink:href="#dot" stroke="#ffe100"/>
    <use x="151.097" y="172.891" xlink:href="#dot" stroke="#ff0000"/>
    <use x="153.647" y="141.87" xlink:href="#dot" stroke="#00ebff"/>
    <use x="153.745" y="163.408" xlink:href="#dot" stroke="#ffe100"/>
    <use x="148.259" y="170.296" xlink:href="#dot" stroke="#ff0000"/>
    <use x="150.855" y="140.036" xlink:href="#dot" stroke="#00ebff"/>
    <use x="148.121" y="161.134" xlink:href="#dot" stroke="#ffe100"/>
    <use x="141.524" y="167.434" xlink:href="#dot" stroke="#ff0000"/>
    <use x="143.398" y="138.159" xlink:href="#dot" stroke="#00ebff"/>
    <use x="135.704" y="158.32" xlink:href="#dot" stroke="#ffe100"/>
    <use x="128.204" y="163.886" xlink:href="#dot" stroke="#ff0000"/>
    <use x="128.275" y="135.817" xlink:href="#dot" stroke="#00ebff"/>
    <use x="112.066" y="153.418" xlink:href="#dot" stroke="#ffe100"/>
    <use x="103.952" y="158.09" xlink:href="#dot" stroke="#ff0000"/>
    <use x="100.716" y="131.436" xlink:href="#dot" stroke="#00ebff"/>
    <use x="261.363" y="119.445" xlink:href="#dot" stroke="#00ebff"/>
    <use x="196.842" y="163.594" xlink:href="#dot" stroke="#ffe100"/>
    <use x="205.105" y="165.839" xlink:href="#dot" stroke="#ff0000"/>
    <use x="207.082" y="139.391" xlink:href="#dot" stroke="#00ebff"/>
    <use x="169.201" y="171.01" xlink:href="#dot" stroke="#ffe100"/>
    <use x="176.817" y="174.272" xlink:href="#dot" stroke="#ff0000"/>
    <use x="175.698" y="146.312" xlink:href="#dot" stroke="#00ebff"/>
    <use x="154.498" y="172.417" xlink:href="#dot" stroke="#ffe100"/>
    <use x="161.189" y="176.524" xlink:href="#dot" stroke="#ff0000"/>
    <use x="158.454" y="147.218" xlink:href="#dot" stroke="#00ebff"/>
    <use x="147.6" y="171.513" xlink:href="#dot" stroke="#ffe100"/>
    <use x="153.161" y="176.301" xlink:href="#dot" stroke="#ff0000"/>
    <use x="149.88" y="145.863" xlink:href="#dot" stroke="#00ebff"/>
    <use x="145.329" y="170.101" xlink:href="#dot" stroke="#ffe100"/>
    <use x="149.615" y="175.413" xlink:href="#dot" stroke="#ff0000"/>
    <use x="146.552" y="144.082" xlink:href="#dot" stroke="#00ebff"/>
    <use x="145.721" y="168.928" xlink:href="#dot" stroke="#ffe100"/>
    <use x="148.631" y="174.612" xlink:href="#dot" stroke="#ff0000"/>
    <use x="146.315" y="142.636" xlink:href="#dot" stroke="#00ebff"/>
    <use x="147.549" y="168.215" xlink:href="#dot" stroke="#ffe100"/>
    <use x="149.019" y="174.121" xlink:href="#dot" stroke="#ff0000"/>
    <use x="147.781" y="141.757" xlink:href="#dot" stroke="#00ebff"/>
    <use x="150" y="167.982" xlink:href="#dot" stroke="#ffe100"/>
    <use x="150" y="173.961" xlink:href="#dot" stroke="#ff0000"/>
    <use x="150" y="141.468" xlink:href="#dot" stroke="#00ebff"/>
    <use x="152.451" y="168.215" xlink:href="#dot" stroke="#ffe100"/>
    <use x="150.981" y="174.121" xlink:href="#dot" stroke="#ff0000"/>
    <use x="152.219" y="141.757" xlink:href="#dot" stroke="#00ebff"/>
    <use x="154.279" y="168.928" xlink:href="#dot" stroke="#ffe100"/>
    <use x="151.369" y="174.612" xlink:href="#dot" stroke="#ff0000"/>
    <use x="153.685" y="142.636" xlink:href="#dot" stroke="#00ebff"/>
    <use x="154.671" y="170.101" xlink:href="#dot" stroke="#ffe100"/>
    <use x="150.385" y="175.413" xlink:href="#dot" stroke="#ff0000"/>
    <use x="153.448" y="144.082" xlink:href="#dot" stroke="#00ebff"/>
    <use x="152.4" y="171.513" xlink:href="#dot" stroke="#ffe100"/>
    <use x="146.839" y="176.301" xlink:href="#dot" stroke="#ff0000"/>
    <use x="150.12" y="145.863" xlink:href="#dot" stroke="#00ebff"/>
    <use x="145.502" y="172.417" xlink:href="#dot" stroke="#ffe100"/>
    <use x="138.811" y="176.524" xlink:href="#dot" stroke="#ff0000"/>
    <use x="141.546" y="147.218" xlink:href="#dot" stroke="#00ebff"/>
    <use x="130.799" y="171.01" xlink:href="#dot" stroke="#ffe100"/>
    <use x="123.183" y="174.272" xlink:href="#dot" stroke="#ff0000"/>
    <use x="124.302" y="146.312" xlink:href="#dot" stroke="#00ebff"/>
    <use x="103.158" y="163.594" xlink:href="#dot" stroke="#ffe100"/>
    <use x="94.895" y="165.839" xlink:href="#dot" stroke="#ff0000"/>
    <use x="92.918" y="139.391" xlink:href="#dot" stroke="#00ebff"/>
    <use x="38.637" y="119.445" xlink:href="#dot" stroke="#00ebff"/>
    <use x="191.333" y="164.544" xlink:href="#dot" stroke="#ffe100"/>
    <use x="199.519" y="164.647" xlink:href="#dot" stroke="#ff0000"/>
    <use x="199.043" y="138.924" xlink:href="#dot" stroke="#00ebff"/>
    <use x="165.887" y="175.533" xlink:href="#dot" stroke="#ffe100"/>
    <use x="173.328" y="176.669" xlink:href="#dot" stroke="#ff0000"/>
    <use x="170.653" y="149.41" xlink:href="#dot" stroke="#00ebff"/>
    <use x="152.265" y="177.987" xlink:href="#dot" stroke="#ffe100"/>
    <use x="158.746" y="179.986" xlink:href="#dot" stroke="#ff0000"/>
    <use x="155.043" y="151.347" xlink:href="#dot" stroke="#00ebff"/>
    <use x="145.962" y="176.523" xlink:href="#dot" stroke="#ffe100"/>
    <use x="151.32" y="179.219" xlink:href="#dot" stroke="#ff0000"/>
    <use x="147.452" y="149.411" xlink:href="#dot" stroke="#00ebff"/>
    <use x="144.114" y="173.77" xlink:href="#dot" stroke="#ffe100"/>
    <use x="148.228" y="177.005" xlink:href="#dot" stroke="#ff0000"/>
    <use x="144.824" y="146.266" xlink:href="#dot" stroke="#00ebff"/>
    <use x="144.895" y="171.149" xlink:href="#dot" stroke="#ffe100"/>
    <use x="147.683" y="174.767" xlink:href="#dot" stroke="#ff0000"/>
    <use x="145.182" y="143.353" xlink:href="#dot" stroke="#00ebff"/>
    <use x="147.127" y="169.371" xlink:href="#dot" stroke="#ffe100"/>
    <use x="148.534" y="173.218" xlink:href="#dot" stroke="#ff0000"/>
    <use x="147.216" y="141.395" xlink:href="#dot" stroke="#00ebff"/>
    <use x="150" y="168.749" xlink:href="#dot" stroke="#ffe100"/>
    <use x="150" y="172.672" xlink:href="#dot" stroke="#ff0000"/>
    <use x="150" y="140.713" xlink:href="#dot" stroke="#00ebff"/>
    <use x="152.873" y="169.371" xlink:href="#dot" stroke="#ffe100"/>
    <use x="151.466" y="173.218" xlink:href="#dot" stroke="#ff0000"/>
    <use x="152.784" y="141.395" xlink:href="#dot" stroke="#00ebff"/>
    <use x="155.105" y="171.149" xlink:href="#dot" stroke="#ffe100"/>
    <use x="152.317" y="174.767" xlink:href="#dot" stroke="#ff0000"/>
    <use x="154.818" y="143.353" xlink:href="#dot" stroke="#00ebff"/>
    <use x="155.886" y="173.77" xlink:href="#dot" stroke="#ffe100"/>
    <use x="151.772" y="177.005" xlink:href="#dot" stroke="#ff0000"/>
    <use x="155.176" y="146.266" xlink:href="#dot" stroke="#00ebff"/>
    <use x="154.038" y="176.523" xlink:href="#dot" stroke="#ffe100"/>
    <use x="148.68" y="179.219" xlink:href="#dot" stroke="#ff0000"/>
    <use x="152.548" y="149.411" xlink:href="#dot" stroke="#00ebff"/>
    <use x="147.735" y="177.987" xlink:href="#dot" stroke="#ffe100"/>
    <use x="141.254" y="179.986" xlink:href="#dot" stroke="#ff0000"/>
    <use x="144.957" y="151.347" xlink:href="#dot" stroke="#00ebff"/>
    <use x="134.113" y="175.533" xlink:href="#dot" stroke="#ffe100"/>
    <use x="126.672" y="176.669" xlink:href="#dot" stroke="#ff0000"/>
    <use x="129.347" y="149.41" xlink:href="#dot" stroke="#00ebff"/>
    <use x="108.667" y="164.544" xlink:href="#dot" stroke="#ffe100"/>
    <use x="100.481" y="164.647" xlink:href="#dot" stroke="#ff0000"/>
    <use x="100.957" y="138.924" xlink:href="#dot" stroke="#00ebff"/>
    <use x="171.166" y="166.599" xlink:href="#dot" stroke="#ffe100"/>
    <use x="175.325" y="140.233" xlink:href="#dot" stroke="#00ebff"/>
    <use x="153.531" y="177.431" xlink:href="#dot" stroke="#ffe100"/>
    <use x="160.104" y="176.879" xlink:href="#dot" stroke="#ff0000"/>
    <use x="155.792" y="150.477" xlink:href="#dot" stroke="#00ebff"/>
    <use x="145.266" y="179.91" xlink:href="#dot" stroke="#ffe100"/>
    <use x="150.696" y="180.162" xlink:href="#dot" stroke="#ff0000"/>
    <use x="146.334" y="152.408" xlink:href="#dot" stroke="#00ebff"/>
    <use x="142.736" y="178.627" xlink:href="#dot" stroke="#ffe100"/>
    <use x="146.907" y="179.5" xlink:href="#dot" stroke="#ff0000"/>
    <use x="143.126" y="150.665" xlink:href="#dot" stroke="#00ebff"/>
    <use x="143.616" y="176.283" xlink:href="#dot" stroke="#ffe100"/>
    <use x="146.442" y="177.596" xlink:href="#dot" stroke="#ff0000"/>
    <use x="143.687" y="147.976" xlink:href="#dot" stroke="#00ebff"/>
    <use x="146.388" y="174.384" xlink:href="#dot" stroke="#ffe100"/>
    <use x="147.814" y="175.96" xlink:href="#dot" stroke="#ff0000"/>
    <use x="146.368" y="145.864" xlink:href="#dot" stroke="#00ebff"/>
    <use x="150" y="173.676" xlink:href="#dot" stroke="#ffe100"/>
    <use x="150" y="175.339" xlink:href="#dot" stroke="#ff0000"/>
    <use x="150" y="145.084" xlink:href="#dot" stroke="#00ebff"/>
    <use x="153.612" y="174.384" xlink:href="#dot" stroke="#ffe100"/>
    <use x="152.186" y="175.96" xlink:href="#dot" stroke="#ff0000"/>
    <use x="153.632" y="145.864" xlink:href="#dot" stroke="#00ebff"/>
    <use x="156.384" y="176.283" xlink:href="#dot" stroke="#ffe100"/>
    <use x="153.558" y="177.596" xlink:href="#dot" stroke="#ff0000"/>
    <use x="156.313" y="147.976" xlink:href="#dot" stroke="#00ebff"/>
    <use x="157.264" y="178.627" xlink:href="#dot" stroke="#ffe100"/>
    <use x="153.093" y="179.5" xlink:href="#dot" stroke="#ff0000"/>
    <use x="156.874" y="150.665" xlink:href="#dot" stroke="#00ebff"/>
    <use x="154.734" y="179.91" xlink:href="#dot" stroke="#ffe100"/>
    <use x="149.304" y="180.162" xlink:href="#dot" stroke="#ff0000"/>
    <use x="153.666" y="152.408" xlink:href="#dot" stroke="#00ebff"/>
    <use x="146.469" y="177.431" xlink:href="#dot" stroke="#ffe100"/>
    <use x="139.896" y="176.879" xlink:href="#dot" stroke="#ff0000"/>
    <use x="144.208" y="150.477" xlink:href="#dot" stroke="#00ebff"/>
    <use x="128.834" y="166.599" xlink:href="#dot" stroke="#ffe100"/>
    <use x="124.675" y="140.233" xlink:href="#dot" stroke="#00ebff"/>
    <use x="147.531" y="148.481" xlink:href="#dot" stroke="#00ebff"/>
    <use x="142.578" y="179.883" xlink:href="#dot" stroke="#ffe100"/>
    <use x="146.805" y="178.136" xlink:href="#dot" stroke="#ff0000"/>
    <use x="142.713" y="152.439" xlink:href="#dot" stroke="#00ebff"/>
    <use x="142.958" y="180.555" xlink:href="#dot" stroke="#ffe100"/>
    <use x="145.821" y="179.315" xlink:href="#dot" stroke="#ff0000"/>
    <use x="142.855" y="152.705" xlink:href="#dot" stroke="#00ebff"/>
    <use x="145.906" y="180.051" xlink:href="#dot" stroke="#ffe100"/>
    <use x="147.351" y="179.114" xlink:href="#dot" stroke="#ff0000"/>
    <use x="145.798" y="151.95" xlink:href="#dot" stroke="#00ebff"/>
    <use x="150" y="179.743" xlink:href="#dot" stroke="#ffe100"/>
    <use x="150" y="178.906" xlink:href="#dot" stroke="#ff0000"/>
    <use x="150" y="151.557" xlink:href="#dot" stroke="#00ebff"/>
    <use x="154.094" y="180.051" xlink:href="#dot" stroke="#ffe100"/>
    <use x="152.649" y="179.114" xlink:href="#dot" stroke="#ff0000"/>
    <use x="154.202" y="151.95" xlink:href="#dot" stroke="#00ebff"/>
    <use x="157.042" y="180.555" xlink:href="#dot" stroke="#ffe100"/>
    <use x="154.179" y="179.315" xlink:href="#dot" stroke="#ff0000"/>
    <use x="157.145" y="152.705" xlink:href="#dot" stroke="#00ebff"/>
    <use x="157.422" y="179.883" xlink:href="#dot" stroke="#ffe100"/>
    <use x="153.195" y="178.136" xlink:href="#dot" stroke="#ff0000"/>
    <use x="157.287" y="152.439" xlink:href="#dot" stroke="#00ebff"/>
    <use x="152.469" y="148.481" xlink:href="#dot" stroke="#00ebff"/>
</svg>
