<?xml version="1.0" standalone="no"?>
<svg width="300px" height="300px" version="1.1" xmlns="http://www.w3.org/2000/svg"
     xmlns:xlink="http://www.w3.org/1999/xlink">
    <rect x="0" y="0" width="300" height="300" fill="#000000"/>
    <defs>
        <g id="dot">
            <line x1="1" y1="1" x2="0" y2="0"/>
        </g>
        <g id="cross">
            <line x1="-3" y1="0" x2="3" y2="0"/>
            <line x1="0" y1="-3" x2="0" y2="3"/>
        </g>
        <g id="square">
            <line x1="-3" y1="-3" x2="-3" y2="3"/>
            <line x1="-3" y1="3" x2="3" y2="3"/>
            <line x1="3" y1="3" x2="3" y2="-3"/>
            <line x1="3" y1="-3" x2="-3" y2="-3"/>
        </g>
        <g id="round">
            <ellipse cx="0" cy="0" rx="3" ry="3" fill="none"/>
        </g>
        <g id="triangle">
            <line x1="0" y1="-3" x2="-3" y2="3"/>
            <line x1="-3" y1="3" x2="3" y2="3"/>
            <line x1="0" y1="-3" x2="3" y2="3"/>
        </g>
    </defs>
    <polygon fill="none" stroke="#ffffff" points="30.952,269.048 30.952,30.952 269.048,30.952 269.048,269.048 "/>
    <text style="font-size:12;text-align:center;text-anchor:middle;" x="150" y="298.262" fill="#ffffff">Sagittal
        distance (um)
    </text>
    <use x="70.635" y="30.952" xlink:href="#cross" stroke="#ffffff"/>
    <use x="70.635" y="269.048" xlink:href="#cross" stroke="#ffffff"/>
    <text style="font-size:12;text-align:center;text-anchor:middle;" x="70.635" y="287.048" fill="#ffffff">-78</text>
    <use x="150" y="30.952" xlink:href="#cross" stroke="#ffffff"/>
    <use x="150" y="269.048" xlink:href="#cross" stroke="#ffffff"/>
    <text style="font-size:12;text-align:center;text-anchor:middle;" x="150" y="287.048" fill="#ffffff">0</text>
    <use x="229.365" y="30.952" xlink:href="#cross" stroke="#ffffff"/>
    <use x="229.365" y="269.048" xlink:href="#cross" stroke="#ffffff"/>
    <text style="font-size:12;text-align:center;text-anchor:middle;" x="229.365" y="287.048" fill="#ffffff">78</text>
    <text style="font-size:12;text-align:center;text-anchor:middle;" x="7.738" y="156" transform="rotate(-90,7.738,150)"
          fill="#ffffff">Tangential distance (um)
    </text>
    <use x="269.048" y="240.663" xlink:href="#cross" stroke="#ffffff"/>
    <use x="30.952" y="240.663" xlink:href="#cross" stroke="#ffffff"/>
    <text style="font-size:12;text-align:right;text-anchor:end;" x="24.952" y="246.663" fill="#ffffff">-78</text>
    <use x="269.048" y="161.298" xlink:href="#cross" stroke="#ffffff"/>
    <use x="30.952" y="161.298" xlink:href="#cross" stroke="#ffffff"/>
    <text style="font-size:12;text-align:right;text-anchor:end;" x="24.952" y="167.298" fill="#ffffff">0</text>
    <use x="269.048" y="81.933" xlink:href="#cross" stroke="#ffffff"/>
    <use x="30.952" y="81.933" xlink:href="#cross" stroke="#ffffff"/>
    <text style="font-size:12;text-align:right;text-anchor:end;" x="24.952" y="87.933" fill="#ffffff">78</text>
    <use x="140.728" y="146.263" xlink:href="#dot" stroke="#ffe100"/>
    <use x="146.095" y="154.849" xlink:href="#dot" stroke="#ff0000"/>
    <use x="144.471" y="126.848" xlink:href="#dot" stroke="#00ebff"/>
    <use x="140.603" y="153.24" xlink:href="#dot" stroke="#ffe100"/>
    <use x="144.743" y="162.207" xlink:href="#dot" stroke="#ff0000"/>
    <use x="142.914" y="133.549" xlink:href="#dot" stroke="#00ebff"/>
    <use x="142.739" y="158.973" xlink:href="#dot" stroke="#ffe100"/>
    <use x="145.551" y="168.205" xlink:href="#dot" stroke="#ff0000"/>
    <use x="144.054" y="139.092" xlink:href="#dot" stroke="#00ebff"/>
    <use x="146.102" y="162.737" xlink:href="#dot" stroke="#ffe100"/>
    <use x="147.523" y="172.125" xlink:href="#dot" stroke="#ff0000"/>
    <use x="146.694" y="142.744" xlink:href="#dot" stroke="#00ebff"/>
    <use x="150" y="164.048" xlink:href="#dot" stroke="#ffe100"/>
    <use x="150" y="173.488" xlink:href="#dot" stroke="#ff0000"/>
    <use x="150" y="144.018" xlink:href="#dot" stroke="#00ebff"/>
    <use x="153.898" y="162.737" xlink:href="#dot" stroke="#ffe100"/>
    <use x="152.477" y="172.125" xlink:href="#dot" stroke="#ff0000"/>
    <use x="153.306" y="142.744" xlink:href="#dot" stroke="#00ebff"/>
    <use x="157.261" y="158.973" xlink:href="#dot" stroke="#ffe100"/>
    <use x="154.449" y="168.205" xlink:href="#dot" stroke="#ff0000"/>
    <use x="155.946" y="139.092" xlink:href="#dot" stroke="#00ebff"/>
    <use x="159.397" y="153.24" xlink:href="#dot" stroke="#ffe100"/>
    <use x="155.257" y="162.207" xlink:href="#dot" stroke="#ff0000"/>
    <use x="157.086" y="133.549" xlink:href="#dot" stroke="#00ebff"/>
    <use x="159.272" y="146.263" xlink:href="#dot" stroke="#ffe100"/>
    <use x="153.905" y="154.849" xlink:href="#dot" stroke="#ff0000"/>
    <use x="155.529" y="126.848" xlink:href="#dot" stroke="#00ebff"/>
    <use x="187.907" y="153.027" xlink:href="#dot" stroke="#ffe100"/>
    <use x="195.901" y="157.359" xlink:href="#dot" stroke="#ff0000"/>
    <use x="199.535" y="131.888" xlink:href="#dot" stroke="#00ebff"/>
    <use x="164.286" y="157.926" xlink:href="#dot" stroke="#ffe100"/>
    <use x="171.681" y="163.148" xlink:href="#dot" stroke="#ff0000"/>
    <use x="171.957" y="136.274" xlink:href="#dot" stroke="#00ebff"/>
    <use x="151.877" y="160.738" xlink:href="#dot" stroke="#ffe100"/>
    <use x="158.386" y="166.691" xlink:href="#dot" stroke="#ff0000"/>
    <use x="156.805" y="138.62" xlink:href="#dot" stroke="#00ebff"/>
    <use x="146.258" y="163.011" xlink:href="#dot" stroke="#ffe100"/>
    <use x="151.673" y="169.548" xlink:href="#dot" stroke="#ff0000"/>
    <use x="149.312" y="140.501" xlink:href="#dot" stroke="#00ebff"/>
    <use x="144.678" y="165.157" xlink:href="#dot" stroke="#ffe100"/>
    <use x="148.853" y="172.14" xlink:href="#dot" stroke="#ff0000"/>
    <use x="146.481" y="142.337" xlink:href="#dot" stroke="#00ebff"/>
    <use x="145.43" y="167.041" xlink:href="#dot" stroke="#ffe100"/>
    <use x="148.265" y="174.338" xlink:href="#dot" stroke="#ff0000"/>
    <use x="146.41" y="143.998" xlink:href="#dot" stroke="#00ebff"/>
    <use x="147.441" y="168.35" xlink:href="#dot" stroke="#ffe100"/>
    <use x="148.874" y="175.835" xlink:href="#dot" stroke="#ff0000"/>
    <use x="147.867" y="145.173" xlink:href="#dot" stroke="#00ebff"/>
    <use x="150" y="168.82" xlink:href="#dot" stroke="#ffe100"/>
    <use x="150" y="176.367" xlink:href="#dot" stroke="#ff0000"/>
    <use x="150" y="145.598" xlink:href="#dot" stroke="#00ebff"/>
    <use x="152.559" y="168.35" xlink:href="#dot" stroke="#ffe100"/>
    <use x="151.126" y="175.835" xlink:href="#dot" stroke="#ff0000"/>
    <use x="152.133" y="145.173" xlink:href="#dot" stroke="#00ebff"/>
    <use x="154.57" y="167.041" xlink:href="#dot" stroke="#ffe100"/>
    <use x="151.735" y="174.338" xlink:href="#dot" stroke="#ff0000"/>
    <use x="153.59" y="143.998" xlink:href="#dot" stroke="#00ebff"/>
    <use x="155.322" y="165.157" xlink:href="#dot" stroke="#ffe100"/>
    <use x="151.147" y="172.14" xlink:href="#dot" stroke="#ff0000"/>
    <use x="153.519" y="142.337" xlink:href="#dot" stroke="#00ebff"/>
    <use x="153.742" y="163.011" xlink:href="#dot" stroke="#ffe100"/>
    <use x="148.327" y="169.548" xlink:href="#dot" stroke="#ff0000"/>
    <use x="150.688" y="140.501" xlink:href="#dot" stroke="#00ebff"/>
    <use x="148.123" y="160.738" xlink:href="#dot" stroke="#ffe100"/>
    <use x="141.614" y="166.691" xlink:href="#dot" stroke="#ff0000"/>
    <use x="143.195" y="138.62" xlink:href="#dot" stroke="#00ebff"/>
    <use x="135.714" y="157.926" xlink:href="#dot" stroke="#ffe100"/>
    <use x="128.319" y="163.148" xlink:href="#dot" stroke="#ff0000"/>
    <use x="128.043" y="136.274" xlink:href="#dot" stroke="#00ebff"/>
    <use x="112.093" y="153.027" xlink:href="#dot" stroke="#ffe100"/>
    <use x="104.099" y="157.359" xlink:href="#dot" stroke="#ff0000"/>
    <use x="100.465" y="131.888" xlink:href="#dot" stroke="#00ebff"/>
    <use x="261.601" y="119.854" xlink:href="#dot" stroke="#00ebff"/>
    <use x="196.81" y="163.197" xlink:href="#dot" stroke="#ffe100"/>
    <use x="204.954" y="165.12" xlink:href="#dot" stroke="#ff0000"/>
    <use x="207.323" y="139.794" xlink:href="#dot" stroke="#00ebff"/>
    <use x="169.187" y="170.608" xlink:href="#dot" stroke="#ffe100"/>
    <use x="176.701" y="173.544" xlink:href="#dot" stroke="#ff0000"/>
    <use x="175.922" y="146.718" xlink:href="#dot" stroke="#00ebff"/>
    <use x="154.495" y="172.014" xlink:href="#dot" stroke="#ffe100"/>
    <use x="161.099" y="175.792" xlink:href="#dot" stroke="#ff0000"/>
    <use x="158.652" y="147.63" xlink:href="#dot" stroke="#00ebff"/>
    <use x="147.602" y="171.11" xlink:href="#dot" stroke="#ffe100"/>
    <use x="153.093" y="175.567" xlink:href="#dot" stroke="#ff0000"/>
    <use x="150.044" y="146.283" xlink:href="#dot" stroke="#00ebff"/>
    <use x="145.332" y="169.699" xlink:href="#dot" stroke="#ffe100"/>
    <use x="149.565" y="174.677" xlink:href="#dot" stroke="#ff0000"/>
    <use x="146.678" y="144.507" xlink:href="#dot" stroke="#00ebff"/>
    <use x="145.724" y="168.527" xlink:href="#dot" stroke="#ffe100"/>
    <use x="148.599" y="173.875" xlink:href="#dot" stroke="#ff0000"/>
    <use x="146.4" y="143.065" xlink:href="#dot" stroke="#00ebff"/>
    <use x="147.551" y="167.815" xlink:href="#dot" stroke="#ffe100"/>
    <use x="149.003" y="173.384" xlink:href="#dot" stroke="#ff0000"/>
    <use x="147.824" y="142.189" xlink:href="#dot" stroke="#00ebff"/>
    <use x="150" y="167.581" xlink:href="#dot" stroke="#ffe100"/>
    <use x="150" y="173.224" xlink:href="#dot" stroke="#ff0000"/>
    <use x="150" y="141.9" xlink:href="#dot" stroke="#00ebff"/>
    <use x="152.449" y="167.815" xlink:href="#dot" stroke="#ffe100"/>
    <use x="150.997" y="173.384" xlink:href="#dot" stroke="#ff0000"/>
    <use x="152.176" y="142.189" xlink:href="#dot" stroke="#00ebff"/>
    <use x="154.276" y="168.527" xlink:href="#dot" stroke="#ffe100"/>
    <use x="151.401" y="173.875" xlink:href="#dot" stroke="#ff0000"/>
    <use x="153.6" y="143.065" xlink:href="#dot" stroke="#00ebff"/>
    <use x="154.668" y="169.699" xlink:href="#dot" stroke="#ffe100"/>
    <use x="150.435" y="174.677" xlink:href="#dot" stroke="#ff0000"/>
    <use x="153.322" y="144.507" xlink:href="#dot" stroke="#00ebff"/>
    <use x="152.398" y="171.11" xlink:href="#dot" stroke="#ffe100"/>
    <use x="146.907" y="175.567" xlink:href="#dot" stroke="#ff0000"/>
    <use x="149.956" y="146.283" xlink:href="#dot" stroke="#00ebff"/>
    <use x="145.505" y="172.014" xlink:href="#dot" stroke="#ffe100"/>
    <use x="138.901" y="175.792" xlink:href="#dot" stroke="#ff0000"/>
    <use x="141.348" y="147.63" xlink:href="#dot" stroke="#00ebff"/>
    <use x="130.813" y="170.608" xlink:href="#dot" stroke="#ffe100"/>
    <use x="123.299" y="173.544" xlink:href="#dot" stroke="#ff0000"/>
    <use x="124.078" y="146.718" xlink:href="#dot" stroke="#00ebff"/>
    <use x="103.19" y="163.197" xlink:href="#dot" stroke="#ffe100"/>
    <use x="95.046" y="165.12" xlink:href="#dot" stroke="#ff0000"/>
    <use x="92.677" y="139.794" xlink:href="#dot" stroke="#00ebff"/>
    <use x="38.399" y="119.854" xlink:href="#dot" stroke="#00ebff"/>
    <use x="191.304" y="164.146" xlink:href="#dot" stroke="#ffe100"/>
    <use x="199.38" y="163.945" xlink:href="#dot" stroke="#ff0000"/>
    <use x="199.268" y="139.29" xlink:href="#dot" stroke="#00ebff"/>
    <use x="165.876" y="175.127" xlink:href="#dot" stroke="#ffe100"/>
    <use x="173.222" y="175.955" xlink:href="#dot" stroke="#ff0000"/>
    <use x="170.863" y="149.776" xlink:href="#dot" stroke="#00ebff"/>
    <use x="152.264" y="177.58" xlink:href="#dot" stroke="#ffe100"/>
    <use x="158.664" y="179.267" xlink:href="#dot" stroke="#ff0000"/>
    <use x="155.228" y="151.719" xlink:href="#dot" stroke="#00ebff"/>
    <use x="145.965" y="176.116" xlink:href="#dot" stroke="#ffe100"/>
    <use x="151.258" y="178.498" xlink:href="#dot" stroke="#ff0000"/>
    <use x="147.606" y="149.789" xlink:href="#dot" stroke="#00ebff"/>
    <use x="144.118" y="173.366" xlink:href="#dot" stroke="#ffe100"/>
    <use x="148.183" y="176.284" xlink:href="#dot" stroke="#ff0000"/>
    <use x="144.942" y="146.651" xlink:href="#dot" stroke="#00ebff"/>
    <use x="144.899" y="170.746" xlink:href="#dot" stroke="#ffe100"/>
    <use x="147.654" y="174.046" xlink:href="#dot" stroke="#ff0000"/>
    <use x="145.262" y="143.743" xlink:href="#dot" stroke="#00ebff"/>
    <use x="147.129" y="168.969" xlink:href="#dot" stroke="#ffe100"/>
    <use x="148.52" y="172.497" xlink:href="#dot" stroke="#ff0000"/>
    <use x="147.256" y="141.788" xlink:href="#dot" stroke="#00ebff"/>
    <use x="150" y="168.348" xlink:href="#dot" stroke="#ffe100"/>
    <use x="150" y="171.952" xlink:href="#dot" stroke="#ff0000"/>
    <use x="150" y="141.107" xlink:href="#dot" stroke="#00ebff"/>
    <use x="152.871" y="168.969" xlink:href="#dot" stroke="#ffe100"/>
    <use x="151.48" y="172.497" xlink:href="#dot" stroke="#ff0000"/>
    <use x="152.744" y="141.788" xlink:href="#dot" stroke="#00ebff"/>
    <use x="155.101" y="170.746" xlink:href="#dot" stroke="#ffe100"/>
    <use x="152.346" y="174.046" xlink:href="#dot" stroke="#ff0000"/>
    <use x="154.738" y="143.743" xlink:href="#dot" stroke="#00ebff"/>
    <use x="155.882" y="173.366" xlink:href="#dot" stroke="#ffe100"/>
    <use x="151.817" y="176.284" xlink:href="#dot" stroke="#ff0000"/>
    <use x="155.058" y="146.651" xlink:href="#dot" stroke="#00ebff"/>
    <use x="154.035" y="176.116" xlink:href="#dot" stroke="#ffe100"/>
    <use x="148.742" y="178.498" xlink:href="#dot" stroke="#ff0000"/>
    <use x="152.394" y="149.789" xlink:href="#dot" stroke="#00ebff"/>
    <use x="147.736" y="177.58" xlink:href="#dot" stroke="#ffe100"/>
    <use x="141.336" y="179.267" xlink:href="#dot" stroke="#ff0000"/>
    <use x="144.772" y="151.719" xlink:href="#dot" stroke="#00ebff"/>
    <use x="134.124" y="175.127" xlink:href="#dot" stroke="#ffe100"/>
    <use x="126.778" y="175.955" xlink:href="#dot" stroke="#ff0000"/>
    <use x="129.137" y="149.776" xlink:href="#dot" stroke="#00ebff"/>
    <use x="108.696" y="164.146" xlink:href="#dot" stroke="#ffe100"/>
    <use x="100.62" y="163.945" xlink:href="#dot" stroke="#ff0000"/>
    <use x="100.732" y="139.29" xlink:href="#dot" stroke="#00ebff"/>
    <use x="171.151" y="166.2" xlink:href="#dot" stroke="#ffe100"/>
    <use x="175.527" y="140.567" xlink:href="#dot" stroke="#00ebff"/>
    <use x="153.529" y="177.024" xlink:href="#dot" stroke="#ffe100"/>
    <use x="160.022" y="176.178" xlink:href="#dot" stroke="#ff0000"/>
    <use x="155.972" y="150.811" xlink:href="#dot" stroke="#00ebff"/>
    <use x="145.269" y="179.501" xlink:href="#dot" stroke="#ffe100"/>
    <use x="150.636" y="179.457" xlink:href="#dot" stroke="#ff0000"/>
    <use x="146.485" y="152.746" xlink:href="#dot" stroke="#00ebff"/>
    <use x="142.741" y="178.219" xlink:href="#dot" stroke="#ffe100"/>
    <use x="146.864" y="178.792" xlink:href="#dot" stroke="#ff0000"/>
    <use x="143.243" y="151.009" xlink:href="#dot" stroke="#00ebff"/>
    <use x="143.621" y="175.877" xlink:href="#dot" stroke="#ffe100"/>
    <use x="146.414" y="176.888" xlink:href="#dot" stroke="#ff0000"/>
    <use x="143.766" y="148.325" xlink:href="#dot" stroke="#00ebff"/>
    <use x="146.391" y="173.979" xlink:href="#dot" stroke="#ffe100"/>
    <use x="147.801" y="175.252" xlink:href="#dot" stroke="#ff0000"/>
    <use x="146.408" y="146.216" xlink:href="#dot" stroke="#00ebff"/>
    <use x="150" y="173.272" xlink:href="#dot" stroke="#ffe100"/>
    <use x="150" y="174.632" xlink:href="#dot" stroke="#ff0000"/>
    <use x="150" y="145.438" xlink:href="#dot" stroke="#00ebff"/>
    <use x="153.609" y="173.979" xlink:href="#dot" stroke="#ffe100"/>
    <use x="152.199" y="175.252" xlink:href="#dot" stroke="#ff0000"/>
    <use x="153.592" y="146.216" xlink:href="#dot" stroke="#00ebff"/>
    <use x="156.379" y="175.877" xlink:href="#dot" stroke="#ffe100"/>
    <use x="153.586" y="176.888" xlink:href="#dot" stroke="#ff0000"/>
    <use x="156.234" y="148.325" xlink:href="#dot" stroke="#00ebff"/>
    <use x="157.259" y="178.219" xlink:href="#dot" stroke="#ffe100"/>
    <use x="153.136" y="178.792" xlink:href="#dot" stroke="#ff0000"/>
    <use x="156.757" y="151.009" xlink:href="#dot" stroke="#00ebff"/>
    <use x="154.731" y="179.501" xlink:href="#dot" stroke="#ffe100"/>
    <use x="149.364" y="179.457" xlink:href="#dot" stroke="#ff0000"/>
    <use x="153.515" y="152.746" xlink:href="#dot" stroke="#00ebff"/>
    <use x="146.471" y="177.024" xlink:href="#dot" stroke="#ffe100"/>
    <use x="139.978" y="176.178" xlink:href="#dot" stroke="#ff0000"/>
    <use x="144.028" y="150.811" xlink:href="#dot" stroke="#00ebff"/>
    <use x="128.849" y="166.2" xlink:href="#dot" stroke="#ffe100"/>
    <use x="124.473" y="140.567" xlink:href="#dot" stroke="#00ebff"/>
    <use x="147.678" y="148.786" xlink:href="#dot" stroke="#00ebff"/>
    <use x="142.583" y="179.474" xlink:href="#dot" stroke="#ffe100"/>
    <use x="146.762" y="177.445" xlink:href="#dot" stroke="#ff0000"/>
    <use x="142.829" y="152.746" xlink:href="#dot" stroke="#00ebff"/>
    <use x="142.963" y="180.146" xlink:href="#dot" stroke="#ffe100"/>
    <use x="145.795" y="178.621" xlink:href="#dot" stroke="#ff0000"/>
    <use x="142.934" y="153.015" xlink:href="#dot" stroke="#00ebff"/>
    <use x="145.909" y="179.642" xlink:href="#dot" stroke="#ffe100"/>
    <use x="147.338" y="178.419" xlink:href="#dot" stroke="#ff0000"/>
    <use x="145.838" y="152.263" xlink:href="#dot" stroke="#00ebff"/>
    <use x="150" y="179.334" xlink:href="#dot" stroke="#ffe100"/>
    <use x="150" y="178.211" xlink:href="#dot" stroke="#ff0000"/>
    <use x="150" y="151.87" xlink:href="#dot" stroke="#00ebff"/>
    <use x="154.091" y="179.642" xlink:href="#dot" stroke="#ffe100"/>
    <use x="152.662" y="178.419" xlink:href="#dot" stroke="#ff0000"/>
    <use x="154.162" y="152.263" xlink:href="#dot" stroke="#00ebff"/>
    <use x="157.037" y="180.146" xlink:href="#dot" stroke="#ffe100"/>
    <use x="154.205" y="178.621" xlink:href="#dot" stroke="#ff0000"/>
    <use x="157.066" y="153.015" xlink:href="#dot" stroke="#00ebff"/>
    <use x="157.417" y="179.474" xlink:href="#dot" stroke="#ffe100"/>
    <use x="153.238" y="177.445" xlink:href="#dot" stroke="#ff0000"/>
    <use x="157.171" y="152.746" xlink:href="#dot" stroke="#00ebff"/>
    <use x="152.322" y="148.786" xlink:href="#dot" stroke="#00ebff"/>
</svg>
