<?xml version="1.0" standalone="no"?>
<svg width="2400px" height="1400px" version="1.1" xmlns="http://www.w3.org/2000/svg" xmlns:xlink="http://www.w3.org/1999/xlink">
<rect x="0" y="0" width="2400" height="1400"  fill="#ffffff" />
<defs>
<g id="dot">
<line x1="1" y1="1" x2="0" y2="0"  />
</g>
<g id="cross">
<line x1="-3" y1="0" x2="3" y2="0"  />
<line x1="0" y1="-3" x2="0" y2="3"  />
</g>
<g id="square">
<line x1="-3" y1="-3" x2="-3" y2="3"  />
<line x1="-3" y1="3" x2="3" y2="3"  />
<line x1="3" y1="3" x2="3" y2="-3"  />
<line x1="3" y1="-3" x2="-3" y2="-3"  />
</g>
<g id="round">
<ellipse cx="0" cy="0" rx="3" ry="3"  fill="none" /></g>
<g id="triangle">
<line x1="0" y1="-3" x2="-3" y2="3"  />
<line x1="-3" y1="3" x2="3" y2="3"  />
<line x1="0" y1="-3" x2="3" y2="3"  />
</g>
</defs>
<line x1="718.215" y1="700" x2="1681.785" y2="700"  stroke="#7f7f7f" />
<g><title>element</title>
<g>
<line x1="1166.628" y1="530.304" x2="1166.628" y2="360.608"  stroke="#7f7fff" />
<line x1="1166.628" y1="869.696" x2="1166.628" y2="1039.392"  stroke="#7f7fff" />
</g>
<g>
<polyline fill="none" stroke="#7f7fff" points="805.095,299.25 801.457,307.346 797.907,315.442 794.444,323.538 791.069,331.634 787.778,339.73 784.573,347.826 781.452,355.922 778.413,364.018 775.457,372.114 772.582,380.21 769.787,388.306 767.072,396.402 764.437,404.498 761.88,412.594 759.4,420.69 756.998,428.786 754.673,436.882 752.423,444.978 750.249,453.073 748.15,461.169 746.125,469.265 744.174,477.361 742.297,485.457 740.493,493.553 738.761,501.649 737.102,509.745 735.514,517.841 733.998,525.937 732.553,534.033 731.179,542.129 729.876,550.225 728.642,558.321 727.479,566.417 726.386,574.513 725.361,582.609 724.407,590.705 723.521,598.801 722.704,606.897 721.956,614.993 721.276,623.088 720.665,631.184 720.122,639.28 719.647,647.376 719.24,655.472 718.901,663.568 718.63,671.664 718.426,679.76 718.291,687.856 718.223,695.952 718.223,704.048 718.291,712.144 718.426,720.24 718.63,728.336 718.901,736.432 719.24,744.528 719.647,752.624 720.122,760.72 720.665,768.816 721.276,776.912 721.956,785.007 722.704,793.103 723.521,801.199 724.407,809.295 725.361,817.391 726.386,825.487 727.479,833.583 728.642,841.679 729.876,849.775 731.179,857.871 732.553,865.967 733.998,874.063 735.514,882.159 737.102,890.255 738.761,898.351 740.493,906.447 742.297,914.543 744.174,922.639 746.125,930.735 748.15,938.831 750.249,946.927 752.423,955.022 754.673,963.118 756.998,971.214 759.4,979.31 761.88,987.406 764.437,995.502 767.072,1003.598 769.787,1011.694 772.582,1019.79 775.457,1027.886 778.413,1035.982 781.452,1044.078 784.573,1052.174 787.778,1060.27 791.069,1068.366 794.444,1076.462 797.907,1084.558 801.457,1092.654 805.095,1100.75 " />
<line x1="805.095" y1="299.25" x2="816.608" y2="299.25"  stroke="#7f7fff" />
<line x1="805.095" y1="1100.75" x2="816.608" y2="1100.75"  stroke="#7f7fff" />
<polyline fill="none" stroke="#7f7fff" points="816.608,299.25 815.77,307.346 814.949,315.442 814.146,323.538 813.36,331.634 812.591,339.73 811.839,347.826 811.105,355.922 810.387,364.018 809.687,372.114 809.004,380.21 808.339,388.306 807.69,396.402 807.059,404.498 806.445,412.594 805.848,420.69 805.268,428.786 804.705,436.882 804.159,444.978 803.631,453.073 803.119,461.169 802.625,469.265 802.148,477.361 801.688,485.457 801.245,493.553 800.819,501.649 800.41,509.745 800.019,517.841 799.644,525.937 799.286,534.033 798.946,542.129 798.622,550.225 798.316,558.321 798.027,566.417 797.754,574.513 797.499,582.609 797.261,590.705 797.039,598.801 796.835,606.897 796.648,614.993 796.478,623.088 796.325,631.184 796.189,639.28 796.069,647.376 795.967,655.472 795.882,663.568 795.814,671.664 795.763,679.76 795.729,687.856 795.712,695.952 795.712,704.048 795.729,712.144 795.763,720.24 795.814,728.336 795.882,736.432 795.967,744.528 796.069,752.624 796.189,760.72 796.325,768.816 796.478,776.912 796.648,785.007 796.835,793.103 797.039,801.199 797.261,809.295 797.499,817.391 797.754,825.487 798.027,833.583 798.316,841.679 798.622,849.775 798.946,857.871 799.286,865.967 799.644,874.063 800.019,882.159 800.41,890.255 800.819,898.351 801.245,906.447 801.688,914.543 802.148,922.639 802.625,930.735 803.119,938.831 803.631,946.927 804.159,955.022 804.705,963.118 805.268,971.214 805.848,979.31 806.445,987.406 807.059,995.502 807.69,1003.598 808.339,1011.694 809.004,1019.79 809.687,1027.886 810.387,1035.982 811.105,1044.078 811.839,1052.174 812.591,1060.27 813.36,1068.366 814.146,1076.462 814.949,1084.558 815.77,1092.654 816.608,1100.75 " />
</g>
<g>
<polyline fill="none" stroke="#7f7fff" points="896.672,365.486 892.318,372.244 888.088,379.001 883.978,385.759 879.988,392.517 876.113,399.275 872.351,406.033 868.7,412.791 865.157,419.549 861.721,426.307 858.39,433.064 855.161,439.822 852.033,446.58 849.004,453.338 846.073,460.096 843.237,466.854 840.496,473.612 837.849,480.369 835.293,487.127 832.828,493.885 830.452,500.643 828.165,507.401 825.966,514.159 823.852,520.917 821.825,527.674 819.881,534.432 818.022,541.19 816.245,547.948 814.551,554.706 812.938,561.464 811.406,568.222 809.955,574.98 808.582,581.737 807.29,588.495 806.075,595.253 804.939,602.011 803.88,608.769 802.899,615.527 801.995,622.285 801.167,629.042 800.415,635.8 799.739,642.558 799.139,649.316 798.615,656.074 798.166,662.832 797.792,669.59 797.493,676.347 797.268,683.105 797.119,689.863 797.044,696.621 797.044,703.379 797.119,710.137 797.268,716.895 797.493,723.653 797.792,730.41 798.166,737.168 798.615,743.926 799.139,750.684 799.739,757.442 800.415,764.2 801.167,770.958 801.995,777.715 802.899,784.473 803.88,791.231 804.939,797.989 806.075,804.747 807.29,811.505 808.582,818.263 809.955,825.02 811.406,831.778 812.938,838.536 814.551,845.294 816.245,852.052 818.022,858.81 819.881,865.568 821.825,872.326 823.852,879.083 825.966,885.841 828.165,892.599 830.452,899.357 832.828,906.115 835.293,912.873 837.849,919.631 840.496,926.388 843.237,933.146 846.073,939.904 849.004,946.662 852.033,953.42 855.161,960.178 858.39,966.936 861.721,973.693 865.157,980.451 868.7,987.209 872.351,993.967 876.113,1000.725 879.988,1007.483 883.978,1014.241 888.088,1020.999 892.318,1027.756 896.672,1034.514 " />
<line x1="896.672" y1="365.486" x2="918.047" y2="365.486"  stroke="#7f7fff" />
<line x1="896.672" y1="1034.514" x2="918.047" y2="1034.514"  stroke="#7f7fff" />
<polyline fill="none" stroke="#7f7fff" points="918.047,365.486 915.884,372.244 913.769,379.001 911.703,385.759 909.685,392.517 907.714,399.275 905.791,406.033 903.914,412.791 902.085,419.549 900.302,426.307 898.566,433.064 896.876,439.822 895.232,446.58 893.633,453.338 892.08,460.096 890.573,466.854 889.11,473.612 887.692,480.369 886.32,487.127 884.991,493.885 883.708,500.643 882.468,507.401 881.272,514.159 880.121,520.917 879.013,527.674 877.949,534.432 876.929,541.19 875.952,547.948 875.018,554.706 874.128,561.464 873.28,568.222 872.476,574.98 871.714,581.737 870.995,588.495 870.319,595.253 869.686,602.011 869.095,608.769 868.547,615.527 868.041,622.285 867.577,629.042 867.156,635.8 866.777,642.558 866.44,649.316 866.146,656.074 865.893,662.832 865.683,669.59 865.515,676.347 865.389,683.105 865.305,689.863 865.262,696.621 865.262,703.379 865.305,710.137 865.389,716.895 865.515,723.653 865.683,730.41 865.893,737.168 866.146,743.926 866.44,750.684 866.777,757.442 867.156,764.2 867.577,770.958 868.041,777.715 868.547,784.473 869.095,791.231 869.686,797.989 870.319,804.747 870.995,811.505 871.714,818.263 872.476,825.02 873.28,831.778 874.128,838.536 875.018,845.294 875.952,852.052 876.929,858.81 877.949,865.568 879.013,872.326 880.121,879.083 881.272,885.841 882.468,892.599 883.708,899.357 884.991,906.115 886.32,912.873 887.692,919.631 889.11,926.388 890.573,933.146 892.08,939.904 893.633,946.662 895.232,953.42 896.876,960.178 898.566,966.936 900.302,973.693 902.085,980.451 903.914,987.209 905.791,993.967 907.714,1000.725 909.685,1007.483 911.703,1014.241 913.769,1020.999 915.884,1027.756 918.047,1034.514 " />
</g>
<g>
<polyline fill="none" stroke="#7f7fff" points="1006.646,415.162 999.378,420.917 992.477,426.671 985.912,432.425 979.656,438.179 973.685,443.934 967.981,449.688 962.525,455.442 957.303,461.197 952.302,466.951 947.509,472.705 942.914,478.46 938.507,484.214 934.28,489.968 930.225,495.722 926.336,501.477 922.605,507.231 919.028,512.985 915.598,518.74 912.311,524.494 909.162,530.248 906.148,536.003 903.265,541.757 900.508,547.511 897.876,553.265 895.365,559.02 892.972,564.774 890.694,570.528 888.53,576.283 886.477,582.037 884.534,587.791 882.698,593.545 880.967,599.3 879.341,605.054 877.817,610.808 876.394,616.563 875.072,622.317 873.848,628.071 872.722,633.826 871.693,639.58 870.761,645.334 869.923,651.088 869.181,656.843 868.532,662.597 867.977,668.351 867.515,674.106 867.146,679.86 866.87,685.614 866.686,691.369 866.593,697.123 866.593,702.877 866.686,708.631 866.87,714.386 867.146,720.14 867.515,725.894 867.977,731.649 868.532,737.403 869.181,743.157 869.923,748.912 870.761,754.666 871.693,760.42 872.722,766.174 873.848,771.929 875.072,777.683 876.394,783.437 877.817,789.192 879.341,794.946 880.967,800.7 882.698,806.455 884.534,812.209 886.477,817.963 888.53,823.717 890.694,829.472 892.972,835.226 895.365,840.98 897.876,846.735 900.508,852.489 903.265,858.243 906.148,863.997 909.162,869.752 912.311,875.506 915.598,881.26 919.028,887.015 922.605,892.769 926.336,898.523 930.225,904.278 934.28,910.032 938.507,915.786 942.914,921.54 947.509,927.295 952.302,933.049 957.303,938.803 962.525,944.558 967.981,950.312 973.685,956.066 979.656,961.821 985.912,967.575 992.477,973.329 999.378,979.083 1006.646,984.838 " />
<line x1="1006.646" y1="415.162" x2="1007.968" y2="415.162"  stroke="#7f7fff" />
<line x1="1006.646" y1="984.838" x2="1007.968" y2="984.838"  stroke="#7f7fff" />
<polyline fill="none" stroke="#7f7fff" points="1007.968,415.162 1008.781,420.917 1009.577,426.671 1010.356,432.425 1011.119,438.179 1011.864,443.934 1012.593,449.688 1013.304,455.442 1013.999,461.197 1014.678,466.951 1015.339,472.705 1015.984,478.46 1016.612,484.214 1017.223,489.968 1017.818,495.722 1018.396,501.477 1018.957,507.231 1019.501,512.985 1020.029,518.74 1020.54,524.494 1021.035,530.248 1021.513,536.003 1021.975,541.757 1022.42,547.511 1022.848,553.265 1023.26,559.02 1023.655,564.774 1024.034,570.528 1024.396,576.283 1024.741,582.037 1025.07,587.791 1025.383,593.545 1025.679,599.3 1025.959,605.054 1026.222,610.808 1026.468,616.563 1026.699,622.317 1026.912,628.071 1027.11,633.826 1027.29,639.58 1027.455,645.334 1027.603,651.088 1027.734,656.843 1027.849,662.597 1027.948,668.351 1028.03,674.106 1028.096,679.86 1028.145,685.614 1028.178,691.369 1028.194,697.123 1028.194,702.877 1028.178,708.631 1028.145,714.386 1028.096,720.14 1028.03,725.894 1027.948,731.649 1027.849,737.403 1027.734,743.157 1027.603,748.912 1027.455,754.666 1027.29,760.42 1027.11,766.174 1026.912,771.929 1026.699,777.683 1026.468,783.437 1026.222,789.192 1025.959,794.946 1025.679,800.7 1025.383,806.455 1025.07,812.209 1024.741,817.963 1024.396,823.717 1024.034,829.472 1023.655,835.226 1023.26,840.98 1022.848,846.735 1022.42,852.489 1021.975,858.243 1021.513,863.997 1021.035,869.752 1020.54,875.506 1020.029,881.26 1019.501,887.015 1018.957,892.769 1018.396,898.523 1017.818,904.278 1017.223,910.032 1016.612,915.786 1015.984,921.54 1015.339,927.295 1014.678,933.049 1013.999,938.803 1013.304,944.558 1012.593,950.312 1011.864,956.066 1011.119,961.821 1010.356,967.575 1009.577,973.329 1008.781,979.083 1007.968,984.838 " />
<line x1="1166.031" y1="415.162" x2="1166.031" y2="529.085"  stroke="#7f7fff" />
<line x1="1007.968" y1="415.162" x2="1166.031" y2="415.162"  stroke="#7f7fff" />
<line x1="1166.031" y1="984.838" x2="1166.031" y2="870.915"  stroke="#7f7fff" />
<line x1="1007.968" y1="984.838" x2="1166.031" y2="984.838"  stroke="#7f7fff" />
<polyline fill="none" stroke="#7f7fff" points="1166.031,529.085 1160.554,532.537 1155.443,535.99 1150.65,539.443 1146.138,542.896 1141.879,546.349 1137.846,549.802 1134.021,553.254 1130.386,556.707 1126.927,560.16 1123.631,563.613 1120.487,567.066 1117.486,570.519 1114.62,573.971 1111.881,577.424 1109.263,580.877 1106.76,584.33 1104.367,587.783 1102.079,591.236 1099.891,594.688 1097.801,598.141 1095.804,601.594 1093.898,605.047 1092.079,608.5 1090.345,611.953 1088.693,615.405 1087.121,618.858 1085.627,622.311 1084.21,625.764 1082.867,629.217 1081.597,632.67 1080.398,636.122 1079.269,639.575 1078.209,643.028 1077.217,646.481 1076.291,649.934 1075.431,653.387 1074.636,656.84 1073.905,660.292 1073.237,663.745 1072.632,667.198 1072.089,670.651 1071.608,674.104 1071.188,677.557 1070.828,681.009 1070.529,684.462 1070.29,687.915 1070.111,691.368 1069.992,694.821 1069.932,698.274 1069.932,701.726 1069.992,705.179 1070.111,708.632 1070.29,712.085 1070.529,715.538 1070.828,718.991 1071.188,722.443 1071.608,725.896 1072.089,729.349 1072.632,732.802 1073.237,736.255 1073.905,739.708 1074.636,743.16 1075.431,746.613 1076.291,750.066 1077.217,753.519 1078.209,756.972 1079.269,760.425 1080.398,763.878 1081.597,767.33 1082.867,770.783 1084.21,774.236 1085.627,777.689 1087.121,781.142 1088.693,784.595 1090.345,788.047 1092.079,791.5 1093.898,794.953 1095.804,798.406 1097.801,801.859 1099.891,805.312 1102.079,808.764 1104.367,812.217 1106.76,815.67 1109.263,819.123 1111.881,822.576 1114.62,826.029 1117.486,829.481 1120.487,832.934 1123.631,836.387 1126.927,839.84 1130.386,843.293 1134.021,846.746 1137.846,850.198 1141.879,853.651 1146.138,857.104 1150.65,860.557 1155.443,864.01 1160.554,867.463 1166.031,870.915 " />
</g>
<g>
<polyline fill="none" stroke="#7f7fff" points="1167.437,529.085 1169.728,532.537 1171.952,535.99 1174.112,539.443 1176.209,542.896 1178.244,546.349 1180.219,549.802 1182.135,553.254 1183.993,556.707 1185.795,560.16 1187.542,563.613 1189.234,567.066 1190.873,570.519 1192.459,573.971 1193.994,577.424 1195.478,580.877 1196.913,584.33 1198.298,587.783 1199.635,591.236 1200.924,594.688 1202.166,598.141 1203.362,601.594 1204.512,605.047 1205.616,608.5 1206.676,611.953 1207.691,615.405 1208.663,618.858 1209.59,622.311 1210.475,625.764 1211.317,629.217 1212.117,632.67 1212.875,636.122 1213.591,639.575 1214.266,643.028 1214.9,646.481 1215.493,649.934 1216.045,653.387 1216.557,656.84 1217.029,660.292 1217.461,663.745 1217.853,667.198 1218.206,670.651 1218.519,674.104 1218.792,677.557 1219.027,681.009 1219.222,684.462 1219.378,687.915 1219.495,691.368 1219.573,694.821 1219.612,698.274 1219.612,701.726 1219.573,705.179 1219.495,708.632 1219.378,712.085 1219.222,715.538 1219.027,718.991 1218.792,722.443 1218.519,725.896 1218.206,729.349 1217.853,732.802 1217.461,736.255 1217.029,739.708 1216.557,743.16 1216.045,746.613 1215.493,750.066 1214.9,753.519 1214.266,756.972 1213.591,760.425 1212.875,763.878 1212.117,767.33 1211.317,770.783 1210.475,774.236 1209.59,777.689 1208.663,781.142 1207.691,784.595 1206.676,788.047 1205.616,791.5 1204.512,794.953 1203.362,798.406 1202.166,801.859 1200.924,805.312 1199.635,808.764 1198.298,812.217 1196.913,815.67 1195.478,819.123 1193.994,822.576 1192.459,826.029 1190.873,829.481 1189.234,832.934 1187.542,836.387 1185.795,839.84 1183.993,843.293 1182.135,846.746 1180.219,850.198 1178.244,853.651 1176.209,857.104 1174.112,860.557 1171.952,864.01 1169.728,867.463 1167.437,870.915 " />
<line x1="1167.437" y1="505.915" x2="1167.437" y2="529.085"  stroke="#7f7fff" />
<line x1="1167.437" y1="505.915" x2="1269.2" y2="505.915"  stroke="#7f7fff" />
<line x1="1167.437" y1="894.085" x2="1167.437" y2="870.915"  stroke="#7f7fff" />
<line x1="1167.437" y1="894.085" x2="1269.2" y2="894.085"  stroke="#7f7fff" />
<polyline fill="none" stroke="#7f7fff" points="1269.2,505.915 1268.263,509.836 1267.347,513.757 1266.451,517.678 1265.576,521.599 1264.72,525.52 1263.884,529.44 1263.067,533.361 1262.271,537.282 1261.494,541.203 1260.737,545.124 1260,549.045 1259.282,552.966 1258.583,556.887 1257.904,560.808 1257.245,564.729 1256.605,568.65 1255.984,572.57 1255.382,576.491 1254.8,580.412 1254.237,584.333 1253.692,588.254 1253.167,592.175 1252.662,596.096 1252.175,600.017 1251.707,603.938 1251.258,607.859 1250.828,611.78 1250.417,615.7 1250.025,619.621 1249.651,623.542 1249.297,627.463 1248.961,631.384 1248.644,635.305 1248.346,639.226 1248.066,643.147 1247.806,647.068 1247.564,650.989 1247.34,654.91 1247.136,658.83 1246.95,662.751 1246.782,666.672 1246.633,670.593 1246.503,674.514 1246.392,678.435 1246.299,682.356 1246.224,686.277 1246.169,690.198 1246.132,694.119 1246.113,698.04 1246.113,701.96 1246.132,705.881 1246.169,709.802 1246.224,713.723 1246.299,717.644 1246.392,721.565 1246.503,725.486 1246.633,729.407 1246.782,733.328 1246.95,737.249 1247.136,741.17 1247.34,745.09 1247.564,749.011 1247.806,752.932 1248.066,756.853 1248.346,760.774 1248.644,764.695 1248.961,768.616 1249.297,772.537 1249.651,776.458 1250.025,780.379 1250.417,784.3 1250.828,788.22 1251.258,792.141 1251.707,796.062 1252.175,799.983 1252.662,803.904 1253.167,807.825 1253.692,811.746 1254.237,815.667 1254.8,819.588 1255.382,823.509 1255.984,827.43 1256.605,831.35 1257.245,835.271 1257.904,839.192 1258.583,843.113 1259.282,847.034 1260,850.955 1260.737,854.876 1261.494,858.797 1262.271,862.718 1263.067,866.639 1263.884,870.56 1264.72,874.48 1265.576,878.401 1266.451,882.322 1267.347,886.243 1268.263,890.164 1269.2,894.085 " />
<line x1="1269.2" y1="505.915" x2="1301.367" y2="505.915"  stroke="#7f7fff" />
<line x1="1269.2" y1="894.085" x2="1301.367" y2="894.085"  stroke="#7f7fff" />
<polyline fill="none" stroke="#7f7fff" points="1301.367,505.915 1303.07,509.836 1304.733,513.757 1306.354,517.678 1307.936,521.599 1309.477,525.52 1310.979,529.44 1312.443,533.361 1313.868,537.282 1315.254,541.203 1316.603,545.124 1317.914,549.045 1319.188,552.966 1320.425,556.887 1321.625,560.808 1322.789,564.729 1323.917,568.65 1325.009,572.57 1326.066,576.491 1327.087,580.412 1328.073,584.333 1329.025,588.254 1329.942,592.175 1330.824,596.096 1331.672,600.017 1332.486,603.938 1333.266,607.859 1334.013,611.78 1334.726,615.7 1335.405,619.621 1336.052,623.542 1336.665,627.463 1337.245,631.384 1337.792,635.305 1338.307,639.226 1338.789,643.147 1339.238,647.068 1339.655,650.989 1340.039,654.91 1340.391,658.83 1340.711,662.751 1340.999,666.672 1341.254,670.593 1341.478,674.514 1341.669,678.435 1341.829,682.356 1341.957,686.277 1342.052,690.198 1342.116,694.119 1342.148,698.04 1342.148,701.96 1342.116,705.881 1342.052,709.802 1341.957,713.723 1341.829,717.644 1341.669,721.565 1341.478,725.486 1341.254,729.407 1340.999,733.328 1340.711,737.249 1340.391,741.17 1340.039,745.09 1339.655,749.011 1339.238,752.932 1338.789,756.853 1338.307,760.774 1337.792,764.695 1337.245,768.616 1336.665,772.537 1336.052,776.458 1335.405,780.379 1334.726,784.3 1334.013,788.22 1333.266,792.141 1332.486,796.062 1331.672,799.983 1330.824,803.904 1329.942,807.825 1329.025,811.746 1328.073,815.667 1327.087,819.588 1326.066,823.509 1325.009,827.43 1323.917,831.35 1322.789,835.271 1321.625,839.192 1320.425,843.113 1319.188,847.034 1317.914,850.955 1316.603,854.876 1315.254,858.797 1313.868,862.718 1312.443,866.639 1310.979,870.56 1309.477,874.48 1307.936,878.401 1306.354,882.322 1304.733,886.243 1303.07,890.164 1301.367,894.085 " />
</g>
<g>
<polyline fill="none" stroke="#7f7fff" points="1376.651,471.514 1375.297,476.13 1373.972,480.745 1372.678,485.361 1371.413,489.977 1370.178,494.593 1368.972,499.209 1367.795,503.825 1366.647,508.441 1365.528,513.057 1364.438,517.673 1363.377,522.288 1362.344,526.904 1361.34,531.52 1360.364,536.136 1359.417,540.752 1358.498,545.368 1357.606,549.984 1356.743,554.6 1355.907,559.215 1355.1,563.831 1354.32,568.447 1353.568,573.063 1352.843,577.679 1352.145,582.295 1351.475,586.911 1350.833,591.527 1350.218,596.143 1349.629,600.758 1349.068,605.374 1348.534,609.99 1348.028,614.606 1347.548,619.222 1347.095,623.838 1346.669,628.454 1346.269,633.07 1345.897,637.686 1345.551,642.301 1345.232,646.917 1344.94,651.533 1344.674,656.149 1344.435,660.765 1344.223,665.381 1344.037,669.997 1343.878,674.613 1343.745,679.229 1343.639,683.844 1343.559,688.46 1343.506,693.076 1343.48,697.692 1343.48,702.308 1343.506,706.924 1343.559,711.54 1343.639,716.156 1343.745,720.771 1343.878,725.387 1344.037,730.003 1344.223,734.619 1344.435,739.235 1344.674,743.851 1344.94,748.467 1345.232,753.083 1345.551,757.699 1345.897,762.314 1346.269,766.93 1346.669,771.546 1347.095,776.162 1347.548,780.778 1348.028,785.394 1348.534,790.01 1349.068,794.626 1349.629,799.242 1350.218,803.857 1350.833,808.473 1351.475,813.089 1352.145,817.705 1352.843,822.321 1353.568,826.937 1354.32,831.553 1355.1,836.169 1355.907,840.785 1356.743,845.4 1357.606,850.016 1358.498,854.632 1359.417,859.248 1360.364,863.864 1361.34,868.48 1362.344,873.096 1363.377,877.712 1364.438,882.327 1365.528,886.943 1366.647,891.559 1367.795,896.175 1368.972,900.791 1370.178,905.407 1371.413,910.023 1372.678,914.639 1373.972,919.255 1375.297,923.87 1376.651,928.486 " />
<line x1="1376.651" y1="471.514" x2="1389.515" y2="471.514"  stroke="#7f7fff" />
<line x1="1376.651" y1="928.486" x2="1389.515" y2="928.486"  stroke="#7f7fff" />
<polyline fill="none" stroke="#7f7fff" points="1389.515,471.514 1390.769,476.13 1391.995,480.745 1393.193,485.361 1394.365,489.977 1395.51,494.593 1396.627,499.209 1397.718,503.825 1398.782,508.441 1399.82,513.057 1400.831,517.673 1401.815,522.288 1402.773,526.904 1403.705,531.52 1404.611,536.136 1405.49,540.752 1406.344,545.368 1407.172,549.984 1407.973,554.6 1408.749,559.215 1409.5,563.831 1410.225,568.447 1410.924,573.063 1411.597,577.679 1412.245,582.295 1412.868,586.911 1413.466,591.527 1414.038,596.143 1414.585,600.758 1415.106,605.374 1415.603,609.99 1416.075,614.606 1416.521,619.222 1416.942,623.838 1417.339,628.454 1417.71,633.07 1418.057,637.686 1418.379,642.301 1418.676,646.917 1418.948,651.533 1419.195,656.149 1419.417,660.765 1419.615,665.381 1419.788,669.997 1419.936,674.613 1420.06,679.229 1420.158,683.844 1420.232,688.46 1420.282,693.076 1420.307,697.692 1420.307,702.308 1420.282,706.924 1420.232,711.54 1420.158,716.156 1420.06,720.771 1419.936,725.387 1419.788,730.003 1419.615,734.619 1419.417,739.235 1419.195,743.851 1418.948,748.467 1418.676,753.083 1418.379,757.699 1418.057,762.314 1417.71,766.93 1417.339,771.546 1416.942,776.162 1416.521,780.778 1416.075,785.394 1415.603,790.01 1415.106,794.626 1414.585,799.242 1414.038,803.857 1413.466,808.473 1412.868,813.089 1412.245,817.705 1411.597,822.321 1410.924,826.937 1410.225,831.553 1409.5,836.169 1408.749,840.785 1407.973,845.4 1407.172,850.016 1406.344,854.632 1405.49,859.248 1404.611,863.864 1403.705,868.48 1402.773,873.096 1401.815,877.712 1400.831,882.327 1399.82,886.943 1398.782,891.559 1397.718,896.175 1396.627,900.791 1395.51,905.407 1394.365,910.023 1393.193,914.639 1391.995,919.255 1390.769,923.87 1389.515,928.486 " />
</g>
</g>
<g><title>element</title>
<polyline fill="none" stroke="#7f7fff" points="1681.785,144.444 1681.785,155.668 1681.785,166.891 1681.785,178.114 1681.785,189.338 1681.785,200.561 1681.785,211.785 1681.785,223.008 1681.785,234.231 1681.785,245.455 1681.785,256.678 1681.785,267.901 1681.785,279.125 1681.785,290.348 1681.785,301.571 1681.785,312.795 1681.785,324.018 1681.785,335.241 1681.785,346.465 1681.785,357.688 1681.785,368.911 1681.785,380.135 1681.785,391.358 1681.785,402.581 1681.785,413.805 1681.785,425.028 1681.785,436.251 1681.785,447.475 1681.785,458.698 1681.785,469.921 1681.785,481.145 1681.785,492.368 1681.785,503.591 1681.785,514.815 1681.785,526.038 1681.785,537.262 1681.785,548.485 1681.785,559.708 1681.785,570.932 1681.785,582.155 1681.785,593.378 1681.785,604.602 1681.785,615.825 1681.785,627.048 1681.785,638.272 1681.785,649.495 1681.785,660.718 1681.785,671.942 1681.785,683.165 1681.785,694.388 1681.785,705.612 1681.785,716.835 1681.785,728.058 1681.785,739.282 1681.785,750.505 1681.785,761.728 1681.785,772.952 1681.785,784.175 1681.785,795.398 1681.785,806.622 1681.785,817.845 1681.785,829.068 1681.785,840.292 1681.785,851.515 1681.785,862.738 1681.785,873.962 1681.785,885.185 1681.785,896.409 1681.785,907.632 1681.785,918.855 1681.785,930.079 1681.785,941.302 1681.785,952.525 1681.785,963.749 1681.785,974.972 1681.785,986.195 1681.785,997.419 1681.785,1008.642 1681.785,1019.865 1681.785,1031.089 1681.785,1042.312 1681.785,1053.535 1681.785,1064.759 1681.785,1075.982 1681.785,1087.205 1681.785,1098.429 1681.785,1109.652 1681.785,1120.875 1681.785,1132.099 1681.785,1143.322 1681.785,1154.545 1681.785,1165.769 1681.785,1176.992 1681.785,1188.215 1681.785,1199.439 1681.785,1210.662 1681.785,1221.886 1681.785,1233.109 1681.785,1244.332 1681.785,1255.556 " />
</g>
</svg>
