<?xml version="1.0" standalone="no"?>
<svg width="2400px" height="1400px" version="1.1" xmlns="http://www.w3.org/2000/svg" xmlns:xlink="http://www.w3.org/1999/xlink">
<rect x="0" y="0" width="2400" height="1400"  fill="#ffffff" />
<defs>
<g id="dot">
<line x1="1" y1="1" x2="0" y2="0"  />
</g>
<g id="cross">
<line x1="-3" y1="0" x2="3" y2="0"  />
<line x1="0" y1="-3" x2="0" y2="3"  />
</g>
<g id="square">
<line x1="-3" y1="-3" x2="-3" y2="3"  />
<line x1="-3" y1="3" x2="3" y2="3"  />
<line x1="3" y1="3" x2="3" y2="-3"  />
<line x1="3" y1="-3" x2="-3" y2="-3"  />
</g>
<g id="round">
<ellipse cx="0" cy="0" rx="3" ry="3"  fill="none" /></g>
<g id="triangle">
<line x1="0" y1="-3" x2="-3" y2="3"  />
<line x1="-3" y1="3" x2="3" y2="3"  />
<line x1="0" y1="-3" x2="3" y2="3"  />
</g>
</defs>
<line x1="668.107" y1="700" x2="1731.893" y2="700"  stroke="#7f7f7f" />
<g><title>element</title>
<g>
<line x1="1066.214" y1="504.622" x2="1066.214" y2="309.245"  stroke="#7f7fff" />
<line x1="1066.214" y1="895.378" x2="1066.214" y2="1090.755"  stroke="#7f7fff" />
</g>
<g>
<polyline fill="none" stroke="#7f7fff" points="749.932,348.787 746.48,355.883 743.115,362.978 739.834,370.073 736.638,377.168 733.525,384.263 730.494,391.359 727.544,398.454 724.673,405.549 721.882,412.644 719.169,419.739 716.533,426.835 713.974,433.93 711.491,441.025 709.082,448.12 706.748,455.216 704.488,462.311 702.3,469.406 700.184,476.501 698.141,483.596 696.168,490.692 694.266,497.787 692.434,504.882 690.671,511.977 688.978,519.072 687.353,526.168 685.797,533.263 684.308,540.358 682.886,547.453 681.532,554.548 680.244,561.644 679.023,568.739 677.868,575.834 676.778,582.929 675.754,590.024 674.795,597.12 673.901,604.215 673.072,611.31 672.307,618.405 671.607,625.5 670.971,632.596 670.399,639.691 669.891,646.786 669.446,653.881 669.066,660.976 668.749,668.072 668.495,675.167 668.305,682.262 668.178,689.357 668.115,696.452 668.115,703.548 668.178,710.643 668.305,717.738 668.495,724.833 668.749,731.928 669.066,739.024 669.446,746.119 669.891,753.214 670.399,760.309 670.971,767.404 671.607,774.5 672.307,781.595 673.072,788.69 673.901,795.785 674.795,802.88 675.754,809.976 676.778,817.071 677.868,824.166 679.023,831.261 680.244,838.356 681.532,845.452 682.886,852.547 684.308,859.642 685.797,866.737 687.353,873.832 688.978,880.928 690.671,888.023 692.434,895.118 694.266,902.213 696.168,909.308 698.141,916.404 700.184,923.499 702.3,930.594 704.488,937.689 706.748,944.784 709.082,951.88 711.491,958.975 713.974,966.07 716.533,973.165 719.169,980.261 721.882,987.356 724.673,994.451 727.544,1001.546 730.494,1008.641 733.525,1015.737 736.638,1022.832 739.834,1029.927 743.115,1037.022 746.48,1044.117 749.932,1051.213 " />
<line x1="749.932" y1="348.787" x2="774.755" y2="348.787"  stroke="#7f7fff" />
<line x1="749.932" y1="1051.213" x2="774.755" y2="1051.213"  stroke="#7f7fff" />
<polyline fill="none" stroke="#7f7fff" points="774.755,348.787 774.645,355.883 774.537,362.978 774.431,370.073 774.327,377.168 774.226,384.263 774.127,391.359 774.03,398.454 773.936,405.549 773.843,412.644 773.753,419.739 773.665,426.835 773.58,433.93 773.497,441.025 773.416,448.12 773.337,455.216 773.26,462.311 773.186,469.406 773.114,476.501 773.044,483.596 772.977,490.692 772.911,497.787 772.848,504.882 772.787,511.977 772.729,519.072 772.673,526.168 772.619,533.263 772.567,540.358 772.517,547.453 772.47,554.548 772.425,561.644 772.382,568.739 772.342,575.834 772.303,582.929 772.267,590.024 772.234,597.12 772.202,604.215 772.173,611.31 772.146,618.405 772.121,625.5 772.099,632.596 772.078,639.691 772.06,646.786 772.045,653.881 772.031,660.976 772.02,668.072 772.011,675.167 772.004,682.262 771.999,689.357 771.997,696.452 771.997,703.548 771.999,710.643 772.004,717.738 772.011,724.833 772.02,731.928 772.031,739.024 772.045,746.119 772.06,753.214 772.078,760.309 772.099,767.404 772.121,774.5 772.146,781.595 772.173,788.69 772.202,795.785 772.234,802.88 772.267,809.976 772.303,817.071 772.342,824.166 772.382,831.261 772.425,838.356 772.47,845.452 772.517,852.547 772.567,859.642 772.619,866.737 772.673,873.832 772.729,880.928 772.787,888.023 772.848,895.118 772.911,902.213 772.977,909.308 773.044,916.404 773.114,923.499 773.186,930.594 773.26,937.689 773.337,944.784 773.416,951.88 773.497,958.975 773.58,966.07 773.665,973.165 773.753,980.261 773.843,987.356 773.936,994.451 774.03,1001.546 774.127,1008.641 774.226,1015.737 774.327,1022.832 774.431,1029.927 774.537,1037.022 774.645,1044.117 774.755,1051.213 " />
</g>
<g>
<polyline fill="none" stroke="#7f7fff" points="916.344,400.269 908.942,406.324 901.9,412.379 895.19,418.435 888.786,424.49 882.667,430.545 876.814,436.6 871.21,442.655 865.842,448.71 860.695,454.766 855.759,460.821 851.024,466.876 846.48,472.931 842.119,478.986 837.933,485.041 833.915,491.097 830.06,497.152 826.362,503.207 822.815,509.262 819.414,515.317 816.156,521.372 813.036,527.428 810.05,533.483 807.195,539.538 804.467,545.593 801.865,551.648 799.384,557.703 797.023,563.759 794.779,569.814 792.65,575.869 790.634,581.924 788.729,587.979 786.933,594.035 785.245,600.09 783.663,606.145 782.187,612.2 780.814,618.255 779.543,624.31 778.374,630.366 777.306,636.421 776.337,642.476 775.468,648.531 774.696,654.586 774.023,660.641 773.446,666.697 772.967,672.752 772.583,678.807 772.296,684.862 772.105,690.917 772.009,696.972 772.009,703.028 772.105,709.083 772.296,715.138 772.583,721.193 772.967,727.248 773.446,733.303 774.023,739.359 774.696,745.414 775.468,751.469 776.337,757.524 777.306,763.579 778.374,769.634 779.543,775.69 780.814,781.745 782.187,787.8 783.663,793.855 785.245,799.91 786.933,805.965 788.729,812.021 790.634,818.076 792.65,824.131 794.779,830.186 797.023,836.241 799.384,842.297 801.865,848.352 804.467,854.407 807.195,860.462 810.05,866.517 813.036,872.572 816.156,878.628 819.414,884.683 822.815,890.738 826.362,896.793 830.06,902.848 833.915,908.903 837.933,914.959 842.119,921.014 846.48,927.069 851.024,933.124 855.759,939.179 860.695,945.234 865.842,951.29 871.21,957.345 876.814,963.4 882.667,969.455 888.786,975.51 895.19,981.565 901.9,987.621 908.942,993.676 916.344,999.731 " />
<line x1="919.106" y1="400.269" x2="919.106" y2="425.55"  stroke="#7f7fff" />
<line x1="916.344" y1="400.269" x2="919.106" y2="400.269"  stroke="#7f7fff" />
<line x1="919.106" y1="999.731" x2="919.106" y2="974.45"  stroke="#7f7fff" />
<line x1="916.344" y1="999.731" x2="919.106" y2="999.731"  stroke="#7f7fff" />
<polyline fill="none" stroke="#7f7fff" points="919.106,425.55 917.296,431.094 915.527,436.639 913.798,442.183 912.109,447.727 910.461,453.272 908.852,458.816 907.283,464.361 905.753,469.905 904.262,475.45 902.81,480.994 901.396,486.539 900.022,492.083 898.685,497.628 897.387,503.172 896.126,508.716 894.904,514.261 893.719,519.805 892.571,525.35 891.461,530.894 890.388,536.439 889.352,541.983 888.353,547.528 887.391,553.072 886.465,558.616 885.576,564.161 884.723,569.705 883.907,575.25 883.127,580.794 882.383,586.339 881.675,591.883 881.003,597.428 880.367,602.972 879.766,608.517 879.201,614.061 878.672,619.605 878.179,625.15 877.721,630.694 877.298,636.239 876.911,641.783 876.559,647.328 876.242,652.872 875.961,658.417 875.715,663.961 875.504,669.506 875.329,675.05 875.188,680.594 875.083,686.139 875.012,691.683 874.977,697.228 874.977,702.772 875.012,708.317 875.083,713.861 875.188,719.406 875.329,724.95 875.504,730.494 875.715,736.039 875.961,741.583 876.242,747.128 876.559,752.672 876.911,758.217 877.298,763.761 877.721,769.306 878.179,774.85 878.672,780.395 879.201,785.939 879.766,791.483 880.367,797.028 881.003,802.572 881.675,808.117 882.383,813.661 883.127,819.206 883.907,824.75 884.723,830.295 885.576,835.839 886.465,841.384 887.391,846.928 888.353,852.472 889.352,858.017 890.388,863.561 891.461,869.106 892.571,874.65 893.719,880.195 894.904,885.739 896.126,891.284 897.387,896.828 898.685,902.372 900.022,907.917 901.396,913.461 902.81,919.006 904.262,924.55 905.753,930.095 907.283,935.639 908.852,941.184 910.461,946.728 912.109,952.273 913.798,957.817 915.527,963.361 917.296,968.906 919.106,974.45 " />
</g>
<g>
<polyline fill="none" stroke="#7f7fff" points="925.541,409.003 924.428,414.881 923.339,420.76 922.273,426.639 921.231,432.518 920.212,438.396 919.216,444.275 918.243,450.154 917.294,456.033 916.368,461.911 915.465,467.79 914.585,473.669 913.728,479.547 912.894,485.426 912.083,491.305 911.295,497.184 910.53,503.062 909.788,508.941 909.069,514.82 908.372,520.699 907.698,526.577 907.047,532.456 906.419,538.335 905.813,544.214 905.23,550.092 904.67,555.971 904.132,561.85 903.617,567.728 903.124,573.607 902.654,579.486 902.207,585.365 901.782,591.243 901.379,597.122 900.999,603.001 900.641,608.88 900.306,614.758 899.993,620.637 899.703,626.516 899.435,632.395 899.189,638.273 898.966,644.152 898.765,650.031 898.586,655.909 898.43,661.788 898.296,667.667 898.184,673.546 898.095,679.424 898.028,685.303 897.984,691.182 897.961,697.061 897.961,702.939 897.984,708.818 898.028,714.697 898.095,720.576 898.184,726.454 898.296,732.333 898.43,738.212 898.586,744.091 898.765,749.969 898.966,755.848 899.189,761.727 899.435,767.605 899.703,773.484 899.993,779.363 900.306,785.242 900.641,791.12 900.999,796.999 901.379,802.878 901.782,808.757 902.207,814.635 902.654,820.514 903.124,826.393 903.617,832.272 904.132,838.15 904.67,844.029 905.23,849.908 905.813,855.786 906.419,861.665 907.047,867.544 907.698,873.423 908.372,879.301 909.069,885.18 909.788,891.059 910.53,896.938 911.295,902.816 912.083,908.695 912.894,914.574 913.728,920.453 914.585,926.331 915.465,932.21 916.368,938.089 917.294,943.967 918.243,949.846 919.216,955.725 920.212,961.604 921.231,967.482 922.273,973.361 923.339,979.24 924.428,985.119 925.541,990.997 " />
<line x1="1050.581" y1="409.003" x2="1050.581" y2="500.484"  stroke="#7f7fff" />
<line x1="925.541" y1="409.003" x2="1050.581" y2="409.003"  stroke="#7f7fff" />
<line x1="1050.581" y1="990.997" x2="1050.581" y2="899.516"  stroke="#7f7fff" />
<line x1="925.541" y1="990.997" x2="1050.581" y2="990.997"  stroke="#7f7fff" />
<polyline fill="none" stroke="#7f7fff" points="1050.581,500.484 1045.314,504.515 1040.323,508.545 1035.584,512.576 1031.076,516.606 1026.779,520.637 1022.679,524.668 1018.763,528.698 1015.017,532.729 1011.433,536.76 1008.002,540.79 1004.714,544.821 1001.563,548.852 998.543,552.882 995.648,556.913 992.871,560.943 990.21,564.974 987.659,569.005 985.214,573.035 982.872,577.066 980.629,581.097 978.483,585.127 976.431,589.158 974.469,593.188 972.596,597.219 970.81,601.25 969.108,605.28 967.489,609.311 965.951,613.342 964.492,617.372 963.111,621.403 961.807,625.433 960.577,629.464 959.422,633.495 958.34,637.525 957.33,641.556 956.391,645.587 955.522,649.617 954.723,653.648 953.993,657.678 953.331,661.709 952.737,665.74 952.21,669.77 951.749,673.801 951.356,677.832 951.028,681.862 950.766,685.893 950.57,689.923 950.439,693.954 950.374,697.985 950.374,702.015 950.439,706.046 950.57,710.077 950.766,714.107 951.028,718.138 951.356,722.168 951.749,726.199 952.21,730.23 952.737,734.26 953.331,738.291 953.993,742.322 954.723,746.352 955.522,750.383 956.391,754.413 957.33,758.444 958.34,762.475 959.422,766.505 960.577,770.536 961.807,774.567 963.111,778.597 964.492,782.628 965.951,786.658 967.489,790.689 969.108,794.72 970.81,798.75 972.596,802.781 974.469,806.812 976.431,810.842 978.483,814.873 980.629,818.903 982.872,822.934 985.214,826.965 987.659,830.995 990.21,835.026 992.871,839.057 995.648,843.087 998.543,847.118 1001.563,851.148 1004.714,855.179 1008.002,859.21 1011.433,863.24 1015.017,867.271 1018.763,871.302 1022.679,875.332 1026.779,879.363 1031.076,883.394 1035.584,887.424 1040.323,891.455 1045.314,895.485 1050.581,899.516 " />
</g>
<g>
<polyline fill="none" stroke="#7f7fff" points="1075.403,505.079 1078.642,509.017 1081.773,512.955 1084.799,516.893 1087.725,520.83 1090.554,524.768 1093.289,528.706 1095.933,532.644 1098.49,536.582 1100.961,540.519 1103.35,544.457 1105.658,548.395 1107.887,552.333 1110.04,556.271 1112.118,560.208 1114.123,564.146 1116.057,568.084 1117.921,572.022 1119.717,575.96 1121.445,579.897 1123.108,583.835 1124.706,587.773 1126.24,591.711 1127.711,595.649 1129.121,599.586 1130.471,603.524 1131.76,607.462 1132.99,611.4 1134.162,615.337 1135.276,619.275 1136.333,623.213 1137.334,627.151 1138.279,631.089 1139.169,635.026 1140.004,638.964 1140.785,642.902 1141.512,646.84 1142.185,650.778 1142.805,654.715 1143.373,658.653 1143.888,662.591 1144.35,666.529 1144.761,670.467 1145.12,674.404 1145.427,678.342 1145.683,682.28 1145.887,686.218 1146.041,690.156 1146.143,694.093 1146.194,698.031 1146.194,701.969 1146.143,705.907 1146.041,709.844 1145.887,713.782 1145.683,717.72 1145.427,721.658 1145.12,725.596 1144.761,729.533 1144.35,733.471 1143.888,737.409 1143.373,741.347 1142.805,745.285 1142.185,749.222 1141.512,753.16 1140.785,757.098 1140.004,761.036 1139.169,764.974 1138.279,768.911 1137.334,772.849 1136.333,776.787 1135.276,780.725 1134.162,784.663 1132.99,788.6 1131.76,792.538 1130.471,796.476 1129.121,800.414 1127.711,804.351 1126.24,808.289 1124.706,812.227 1123.108,816.165 1121.445,820.103 1119.717,824.04 1117.921,827.978 1116.057,831.916 1114.123,835.854 1112.118,839.792 1110.04,843.729 1107.887,847.667 1105.658,851.605 1103.35,855.543 1100.961,859.481 1098.49,863.418 1095.933,867.356 1093.289,871.294 1090.554,875.232 1087.725,879.17 1084.799,883.107 1081.773,887.045 1078.642,890.983 1075.403,894.921 " />
<line x1="1075.403" y1="457.73" x2="1075.403" y2="505.079"  stroke="#7f7fff" />
<line x1="1075.403" y1="457.73" x2="1188.492" y2="457.73"  stroke="#7f7fff" />
<line x1="1075.403" y1="942.27" x2="1075.403" y2="894.921"  stroke="#7f7fff" />
<line x1="1075.403" y1="942.27" x2="1188.492" y2="942.27"  stroke="#7f7fff" />
<polyline fill="none" stroke="#7f7fff" points="1188.492,457.73 1187.489,462.624 1186.508,467.518 1185.547,472.413 1184.608,477.307 1183.69,482.201 1182.793,487.096 1181.917,491.99 1181.062,496.884 1180.228,501.779 1179.415,506.673 1178.623,511.567 1177.851,516.462 1177.1,521.356 1176.371,526.251 1175.661,531.145 1174.973,536.039 1174.305,540.934 1173.658,545.828 1173.031,550.722 1172.425,555.617 1171.839,560.511 1171.274,565.405 1170.729,570.3 1170.205,575.194 1169.701,580.088 1169.217,584.983 1168.754,589.877 1168.311,594.771 1167.888,599.666 1167.486,604.56 1167.104,609.455 1166.742,614.349 1166.4,619.243 1166.079,624.138 1165.777,629.032 1165.496,633.926 1165.235,638.821 1164.994,643.715 1164.773,648.609 1164.573,653.504 1164.392,658.398 1164.232,663.292 1164.091,668.187 1163.971,673.081 1163.871,677.975 1163.79,682.87 1163.73,687.764 1163.69,692.658 1163.67,697.553 1163.67,702.447 1163.69,707.342 1163.73,712.236 1163.79,717.13 1163.871,722.025 1163.971,726.919 1164.091,731.813 1164.232,736.708 1164.392,741.602 1164.573,746.496 1164.773,751.391 1164.994,756.285 1165.235,761.179 1165.496,766.074 1165.777,770.968 1166.079,775.862 1166.4,780.757 1166.742,785.651 1167.104,790.545 1167.486,795.44 1167.888,800.334 1168.311,805.229 1168.754,810.123 1169.217,815.017 1169.701,819.912 1170.205,824.806 1170.729,829.7 1171.274,834.595 1171.839,839.489 1172.425,844.383 1173.031,849.278 1173.658,854.172 1174.305,859.066 1174.973,863.961 1175.661,868.855 1176.371,873.749 1177.1,878.644 1177.851,883.538 1178.623,888.433 1179.415,893.327 1180.228,898.221 1181.062,903.116 1181.917,908.01 1182.793,912.904 1183.69,917.799 1184.608,922.693 1185.547,927.587 1186.508,932.482 1187.489,937.376 1188.492,942.27 " />
<line x1="1188.492" y1="457.273" x2="1188.492" y2="457.73"  stroke="#7f7fff" />
<line x1="1188.492" y1="457.273" x2="1195.849" y2="457.273"  stroke="#7f7fff" />
<line x1="1188.492" y1="942.727" x2="1188.492" y2="942.27"  stroke="#7f7fff" />
<line x1="1188.492" y1="942.727" x2="1195.849" y2="942.727"  stroke="#7f7fff" />
<polyline fill="none" stroke="#7f7fff" points="1195.849,457.273 1199.419,462.176 1202.879,467.08 1206.232,471.983 1209.482,476.887 1212.633,481.791 1215.685,486.694 1218.643,491.598 1221.507,496.501 1224.282,501.405 1226.968,506.309 1229.568,511.212 1232.083,516.116 1234.516,521.019 1236.867,525.923 1239.139,530.826 1241.333,535.73 1243.45,540.634 1245.491,545.537 1247.458,550.441 1249.352,555.344 1251.174,560.248 1252.926,565.151 1254.607,570.055 1256.218,574.959 1257.762,579.862 1259.238,584.766 1260.648,589.669 1261.991,594.573 1263.269,599.477 1264.483,604.38 1265.632,609.284 1266.718,614.187 1267.741,619.091 1268.701,623.994 1269.599,628.898 1270.435,633.802 1271.211,638.705 1271.925,643.609 1272.578,648.512 1273.172,653.416 1273.705,658.32 1274.178,663.223 1274.592,668.127 1274.946,673.03 1275.241,677.934 1275.477,682.837 1275.654,687.741 1275.772,692.645 1275.831,697.548 1275.831,702.452 1275.772,707.355 1275.654,712.259 1275.477,717.163 1275.241,722.066 1274.946,726.97 1274.592,731.873 1274.178,736.777 1273.705,741.68 1273.172,746.584 1272.578,751.488 1271.925,756.391 1271.211,761.295 1270.435,766.198 1269.599,771.102 1268.701,776.006 1267.741,780.909 1266.718,785.813 1265.632,790.716 1264.483,795.62 1263.269,800.523 1261.991,805.427 1260.648,810.331 1259.238,815.234 1257.762,820.138 1256.218,825.041 1254.607,829.945 1252.926,834.849 1251.174,839.752 1249.352,844.656 1247.458,849.559 1245.491,854.463 1243.45,859.366 1241.333,864.27 1239.139,869.174 1236.867,874.077 1234.516,878.981 1232.083,883.884 1229.568,888.788 1226.968,893.691 1224.282,898.595 1221.507,903.499 1218.643,908.402 1215.685,913.306 1212.633,918.209 1209.482,923.113 1206.232,928.017 1202.879,932.92 1199.419,937.824 1195.849,942.727 " />
</g>
<g>
<polyline fill="none" stroke="#7f7fff" points="1297.905,472.899 1297.014,477.487 1296.142,482.075 1295.289,486.663 1294.455,491.251 1293.639,495.839 1292.843,500.427 1292.064,505.015 1291.305,509.602 1290.564,514.19 1289.841,518.778 1289.137,523.366 1288.452,527.954 1287.784,532.542 1287.136,537.13 1286.505,541.718 1285.893,546.306 1285.299,550.893 1284.724,555.481 1284.167,560.069 1283.628,564.657 1283.107,569.245 1282.604,573.833 1282.12,578.421 1281.654,583.009 1281.205,587.597 1280.775,592.185 1280.363,596.772 1279.969,601.36 1279.593,605.948 1279.235,610.536 1278.895,615.124 1278.573,619.712 1278.269,624.3 1277.983,628.888 1277.715,633.476 1277.465,638.063 1277.233,642.651 1277.018,647.239 1276.822,651.827 1276.643,656.415 1276.483,661.003 1276.34,665.591 1276.215,670.179 1276.108,674.767 1276.019,679.354 1275.947,683.942 1275.894,688.53 1275.858,693.118 1275.84,697.706 1275.84,702.294 1275.858,706.882 1275.894,711.47 1275.947,716.058 1276.019,720.646 1276.108,725.233 1276.215,729.821 1276.34,734.409 1276.483,738.997 1276.643,743.585 1276.822,748.173 1277.018,752.761 1277.233,757.349 1277.465,761.937 1277.715,766.524 1277.983,771.112 1278.269,775.7 1278.573,780.288 1278.895,784.876 1279.235,789.464 1279.593,794.052 1279.969,798.64 1280.363,803.228 1280.775,807.815 1281.205,812.403 1281.654,816.991 1282.12,821.579 1282.604,826.167 1283.107,830.755 1283.628,835.343 1284.167,839.931 1284.724,844.519 1285.299,849.107 1285.893,853.694 1286.505,858.282 1287.136,862.87 1287.784,867.458 1288.452,872.046 1289.137,876.634 1289.841,881.222 1290.564,885.81 1291.305,890.398 1292.064,894.985 1292.843,899.573 1293.639,904.161 1294.455,908.749 1295.289,913.337 1296.142,917.925 1297.014,922.513 1297.905,927.101 " />
<line x1="1297.905" y1="472.899" x2="1330.937" y2="472.899"  stroke="#7f7fff" />
<line x1="1297.905" y1="927.101" x2="1330.937" y2="927.101"  stroke="#7f7fff" />
<polyline fill="none" stroke="#7f7fff" points="1330.937,472.899 1330.793,477.487 1330.651,482.075 1330.513,486.663 1330.377,491.251 1330.245,495.839 1330.115,500.427 1329.988,505.015 1329.864,509.602 1329.743,514.19 1329.625,518.778 1329.51,523.366 1329.398,527.954 1329.289,532.542 1329.183,537.13 1329.08,541.718 1328.98,546.306 1328.883,550.893 1328.788,555.481 1328.697,560.069 1328.608,564.657 1328.523,569.245 1328.44,573.833 1328.361,578.421 1328.284,583.009 1328.211,587.597 1328.14,592.185 1328.072,596.772 1328.007,601.36 1327.945,605.948 1327.886,610.536 1327.83,615.124 1327.777,619.712 1327.727,624.3 1327.68,628.888 1327.636,633.476 1327.595,638.063 1327.556,642.651 1327.521,647.239 1327.488,651.827 1327.459,656.415 1327.432,661.003 1327.409,665.591 1327.388,670.179 1327.371,674.767 1327.356,679.354 1327.344,683.942 1327.335,688.53 1327.329,693.118 1327.326,697.706 1327.326,702.294 1327.329,706.882 1327.335,711.47 1327.344,716.058 1327.356,720.646 1327.371,725.233 1327.388,729.821 1327.409,734.409 1327.432,738.997 1327.459,743.585 1327.488,748.173 1327.521,752.761 1327.556,757.349 1327.595,761.937 1327.636,766.524 1327.68,771.112 1327.727,775.7 1327.777,780.288 1327.83,784.876 1327.886,789.464 1327.945,794.052 1328.007,798.64 1328.072,803.228 1328.14,807.815 1328.211,812.403 1328.284,816.991 1328.361,821.579 1328.44,826.167 1328.523,830.755 1328.608,835.343 1328.697,839.931 1328.788,844.519 1328.883,849.107 1328.98,853.694 1329.08,858.282 1329.183,862.87 1329.289,867.458 1329.398,872.046 1329.51,876.634 1329.625,881.222 1329.743,885.81 1329.864,890.398 1329.988,894.985 1330.115,899.573 1330.245,904.161 1330.377,908.749 1330.513,913.337 1330.651,917.925 1330.793,922.513 1330.937,927.101 " />
</g>
<g>
<polyline fill="none" stroke="#7f7fff" points="1349.393,484.851 1348.501,489.197 1347.629,493.544 1346.775,497.89 1345.94,502.237 1345.124,506.583 1344.326,510.93 1343.548,515.276 1342.788,519.623 1342.046,523.969 1341.324,528.315 1340.619,532.662 1339.934,537.008 1339.267,541.355 1338.618,545.701 1337.987,550.048 1337.375,554.394 1336.782,558.741 1336.206,563.087 1335.649,567.433 1335.11,571.78 1334.59,576.126 1334.087,580.473 1333.603,584.819 1333.137,589.166 1332.689,593.512 1332.259,597.859 1331.847,602.205 1331.454,606.551 1331.078,610.898 1330.72,615.244 1330.381,619.591 1330.059,623.937 1329.755,628.284 1329.469,632.63 1329.201,636.977 1328.951,641.323 1328.719,645.669 1328.505,650.016 1328.309,654.362 1328.131,658.709 1327.97,663.055 1327.827,667.402 1327.703,671.748 1327.596,676.095 1327.506,680.441 1327.435,684.787 1327.382,689.134 1327.346,693.48 1327.328,697.827 1327.328,702.173 1327.346,706.52 1327.382,710.866 1327.435,715.213 1327.506,719.559 1327.596,723.905 1327.703,728.252 1327.827,732.598 1327.97,736.945 1328.131,741.291 1328.309,745.638 1328.505,749.984 1328.719,754.331 1328.951,758.677 1329.201,763.023 1329.469,767.37 1329.755,771.716 1330.059,776.063 1330.381,780.409 1330.72,784.756 1331.078,789.102 1331.454,793.449 1331.847,797.795 1332.259,802.141 1332.689,806.488 1333.137,810.834 1333.603,815.181 1334.087,819.527 1334.59,823.874 1335.11,828.22 1335.649,832.567 1336.206,836.913 1336.782,841.259 1337.375,845.606 1337.987,849.952 1338.618,854.299 1339.267,858.645 1339.934,862.992 1340.619,867.338 1341.324,871.685 1342.046,876.031 1342.788,880.377 1343.548,884.724 1344.326,889.07 1345.124,893.417 1345.94,897.763 1346.775,902.11 1347.629,906.456 1348.501,910.803 1349.393,915.149 " />
<line x1="1349.393" y1="484.851" x2="1369.619" y2="484.851"  stroke="#7f7fff" />
<line x1="1349.393" y1="915.149" x2="1369.619" y2="915.149"  stroke="#7f7fff" />
<polyline fill="none" stroke="#7f7fff" points="1369.619,484.851 1369.988,489.197 1370.349,493.544 1370.702,497.89 1371.048,502.237 1371.386,506.583 1371.716,510.93 1372.039,515.276 1372.355,519.623 1372.663,523.969 1372.963,528.315 1373.256,532.662 1373.541,537.008 1373.819,541.355 1374.089,545.701 1374.352,550.048 1374.607,554.394 1374.855,558.741 1375.095,563.087 1375.327,567.433 1375.552,571.78 1375.77,576.126 1375.98,580.473 1376.182,584.819 1376.377,589.166 1376.565,593.512 1376.745,597.859 1376.917,602.205 1377.082,606.551 1377.239,610.898 1377.389,615.244 1377.532,619.591 1377.667,623.937 1377.794,628.284 1377.914,632.63 1378.026,636.977 1378.131,641.323 1378.229,645.669 1378.319,650.016 1378.401,654.362 1378.476,658.709 1378.543,663.055 1378.603,667.402 1378.656,671.748 1378.701,676.095 1378.738,680.441 1378.768,684.787 1378.791,689.134 1378.806,693.48 1378.813,697.827 1378.813,702.173 1378.806,706.52 1378.791,710.866 1378.768,715.213 1378.738,719.559 1378.701,723.905 1378.656,728.252 1378.603,732.598 1378.543,736.945 1378.476,741.291 1378.401,745.638 1378.319,749.984 1378.229,754.331 1378.131,758.677 1378.026,763.023 1377.914,767.37 1377.794,771.716 1377.667,776.063 1377.532,780.409 1377.389,784.756 1377.239,789.102 1377.082,793.449 1376.917,797.795 1376.745,802.141 1376.565,806.488 1376.377,810.834 1376.182,815.181 1375.98,819.527 1375.77,823.874 1375.552,828.22 1375.327,832.567 1375.095,836.913 1374.855,841.259 1374.607,845.606 1374.352,849.952 1374.089,854.299 1373.819,858.645 1373.541,862.992 1373.256,867.338 1372.963,871.685 1372.663,876.031 1372.355,880.377 1372.039,884.724 1371.716,889.07 1371.386,893.417 1371.048,897.763 1370.702,902.11 1370.349,906.456 1369.988,910.803 1369.619,915.149 " />
</g>
</g>
<g><title>element</title>
<polyline fill="none" stroke="#7f7fff" points="1731.893,144.444 1731.893,155.668 1731.893,166.891 1731.893,178.114 1731.893,189.338 1731.893,200.561 1731.893,211.785 1731.893,223.008 1731.893,234.231 1731.893,245.455 1731.893,256.678 1731.893,267.901 1731.893,279.125 1731.893,290.348 1731.893,301.571 1731.893,312.795 1731.893,324.018 1731.893,335.241 1731.893,346.465 1731.893,357.688 1731.893,368.911 1731.893,380.135 1731.893,391.358 1731.893,402.581 1731.893,413.805 1731.893,425.028 1731.893,436.251 1731.893,447.475 1731.893,458.698 1731.893,469.921 1731.893,481.145 1731.893,492.368 1731.893,503.591 1731.893,514.815 1731.893,526.038 1731.893,537.262 1731.893,548.485 1731.893,559.708 1731.893,570.932 1731.893,582.155 1731.893,593.378 1731.893,604.602 1731.893,615.825 1731.893,627.048 1731.893,638.272 1731.893,649.495 1731.893,660.718 1731.893,671.942 1731.893,683.165 1731.893,694.388 1731.893,705.612 1731.893,716.835 1731.893,728.058 1731.893,739.282 1731.893,750.505 1731.893,761.728 1731.893,772.952 1731.893,784.175 1731.893,795.398 1731.893,806.622 1731.893,817.845 1731.893,829.068 1731.893,840.292 1731.893,851.515 1731.893,862.738 1731.893,873.962 1731.893,885.185 1731.893,896.409 1731.893,907.632 1731.893,918.855 1731.893,930.079 1731.893,941.302 1731.893,952.525 1731.893,963.749 1731.893,974.972 1731.893,986.195 1731.893,997.419 1731.893,1008.642 1731.893,1019.865 1731.893,1031.089 1731.893,1042.312 1731.893,1053.535 1731.893,1064.759 1731.893,1075.982 1731.893,1087.205 1731.893,1098.429 1731.893,1109.652 1731.893,1120.875 1731.893,1132.099 1731.893,1143.322 1731.893,1154.545 1731.893,1165.769 1731.893,1176.992 1731.893,1188.215 1731.893,1199.439 1731.893,1210.662 1731.893,1221.886 1731.893,1233.109 1731.893,1244.332 1731.893,1255.556 " />
</g>
</svg>
