<?xml version="1.0" standalone="no"?>
<svg width="2400px" height="1400px" version="1.1" xmlns="http://www.w3.org/2000/svg" xmlns:xlink="http://www.w3.org/1999/xlink">
<rect x="0" y="0" width="2400" height="1400"  fill="#ffffff" />
<defs>
<g id="dot">
<line x1="1" y1="1" x2="0" y2="0"  />
</g>
<g id="cross">
<line x1="-3" y1="0" x2="3" y2="0"  />
<line x1="0" y1="-3" x2="0" y2="3"  />
</g>
<g id="square">
<line x1="-3" y1="-3" x2="-3" y2="3"  />
<line x1="-3" y1="3" x2="3" y2="3"  />
<line x1="3" y1="3" x2="3" y2="-3"  />
<line x1="3" y1="-3" x2="-3" y2="-3"  />
</g>
<g id="round">
<ellipse cx="0" cy="0" rx="3" ry="3"  fill="none" /></g>
<g id="triangle">
<line x1="0" y1="-3" x2="-3" y2="3"  />
<line x1="-3" y1="3" x2="3" y2="3"  />
<line x1="0" y1="-3" x2="3" y2="3"  />
</g>
</defs>
<line x1="658.64" y1="700" x2="1741.36" y2="700"  stroke="#7f7f7f" />
<g><title>element</title>
<g>
<line x1="1062.539" y1="504.622" x2="1062.539" y2="309.245"  stroke="#7f7fff" />
<line x1="1062.539" y1="895.378" x2="1062.539" y2="1090.755"  stroke="#7f7fff" />
</g>
<g>
<polyline fill="none" stroke="#7f7fff" points="740.465,348.787 737.013,355.883 733.647,362.978 730.367,370.073 727.171,377.168 724.058,384.263 721.026,391.359 718.076,398.454 715.206,405.549 712.415,412.644 709.702,419.739 707.066,426.835 704.507,433.93 702.024,441.025 699.615,448.12 697.281,455.216 695.02,462.311 692.832,469.406 690.717,476.501 688.673,483.596 686.701,490.692 684.799,497.787 682.967,504.882 681.204,511.977 679.511,519.072 677.886,526.168 676.329,533.263 674.841,540.358 673.419,547.453 672.065,554.548 670.777,561.644 669.556,568.739 668.4,575.834 667.311,582.929 666.286,590.024 665.328,597.12 664.434,604.215 663.604,611.31 662.84,618.405 662.14,625.5 661.504,632.596 660.932,639.691 660.423,646.786 659.979,653.881 659.598,660.976 659.281,668.072 659.028,675.167 658.838,682.262 658.711,689.357 658.648,696.452 658.648,703.548 658.711,710.643 658.838,717.738 659.028,724.833 659.281,731.928 659.598,739.024 659.979,746.119 660.423,753.214 660.932,760.309 661.504,767.404 662.14,774.5 662.84,781.595 663.604,788.69 664.434,795.785 665.328,802.88 666.286,809.976 667.311,817.071 668.4,824.166 669.556,831.261 670.777,838.356 672.065,845.452 673.419,852.547 674.841,859.642 676.329,866.737 677.886,873.832 679.511,880.928 681.204,888.023 682.967,895.118 684.799,902.213 686.701,909.308 688.673,916.404 690.717,923.499 692.832,930.594 695.02,937.689 697.281,944.784 699.615,951.88 702.024,958.975 704.507,966.07 707.066,973.165 709.702,980.261 712.415,987.356 715.206,994.451 718.076,1001.546 721.026,1008.641 724.058,1015.737 727.171,1022.832 730.367,1029.927 733.647,1037.022 737.013,1044.117 740.465,1051.213 " />
<line x1="740.465" y1="348.787" x2="765.288" y2="348.787"  stroke="#7f7fff" />
<line x1="740.465" y1="1051.213" x2="765.288" y2="1051.213"  stroke="#7f7fff" />
<polyline fill="none" stroke="#7f7fff" points="765.288,348.787 765.177,355.883 765.069,362.978 764.964,370.073 764.86,377.168 764.759,384.263 764.66,391.359 764.563,398.454 764.468,405.549 764.376,412.644 764.286,419.739 764.198,426.835 764.113,433.93 764.029,441.025 763.948,448.12 763.869,455.216 763.793,462.311 763.719,469.406 763.646,476.501 763.577,483.596 763.509,490.692 763.444,497.787 763.381,504.882 763.32,511.977 763.262,519.072 763.205,526.168 763.151,533.263 763.099,540.358 763.05,547.453 763.003,554.548 762.958,561.644 762.915,568.739 762.874,575.834 762.836,582.929 762.8,590.024 762.766,597.12 762.735,604.215 762.705,611.31 762.678,618.405 762.654,625.5 762.631,632.596 762.611,639.691 762.593,646.786 762.577,653.881 762.564,660.976 762.552,668.072 762.543,675.167 762.537,682.262 762.532,689.357 762.53,696.452 762.53,703.548 762.532,710.643 762.537,717.738 762.543,724.833 762.552,731.928 762.564,739.024 762.577,746.119 762.593,753.214 762.611,760.309 762.631,767.404 762.654,774.5 762.678,781.595 762.705,788.69 762.735,795.785 762.766,802.88 762.8,809.976 762.836,817.071 762.874,824.166 762.915,831.261 762.958,838.356 763.003,845.452 763.05,852.547 763.099,859.642 763.151,866.737 763.205,873.832 763.262,880.928 763.32,888.023 763.381,895.118 763.444,902.213 763.509,909.308 763.577,916.404 763.646,923.499 763.719,930.594 763.793,937.689 763.869,944.784 763.948,951.88 764.029,958.975 764.113,966.07 764.198,973.165 764.286,980.261 764.376,987.356 764.468,994.451 764.563,1001.546 764.66,1008.641 764.759,1015.737 764.86,1022.832 764.964,1029.927 765.069,1037.022 765.177,1044.117 765.288,1051.213 " />
</g>
<g>
<polyline fill="none" stroke="#7f7fff" points="908.164,400.269 900.762,406.324 893.72,412.379 887.01,418.435 880.606,424.49 874.487,430.545 868.634,436.6 863.03,442.655 857.661,448.71 852.515,454.766 847.579,460.821 842.844,466.876 838.3,472.931 833.938,478.986 829.753,485.041 825.735,491.097 821.88,497.152 818.182,503.207 814.635,509.262 811.234,515.317 807.976,521.372 804.855,527.428 801.869,533.483 799.014,539.538 796.287,545.593 793.684,551.648 791.204,557.703 788.843,563.759 786.599,569.814 784.47,575.869 782.453,581.924 780.548,587.979 778.753,594.035 777.065,600.09 775.483,606.145 774.006,612.2 772.633,618.255 771.363,624.31 770.194,630.366 769.126,636.421 768.157,642.476 767.288,648.531 766.516,654.586 765.843,660.641 765.266,666.697 764.786,672.752 764.403,678.807 764.116,684.862 763.924,690.917 763.829,696.972 763.829,703.028 763.924,709.083 764.116,715.138 764.403,721.193 764.786,727.248 765.266,733.303 765.843,739.359 766.516,745.414 767.288,751.469 768.157,757.524 769.126,763.579 770.194,769.634 771.363,775.69 772.633,781.745 774.006,787.8 775.483,793.855 777.065,799.91 778.753,805.965 780.548,812.021 782.453,818.076 784.47,824.131 786.599,830.186 788.843,836.241 791.204,842.297 793.684,848.352 796.287,854.407 799.014,860.462 801.869,866.517 804.855,872.572 807.976,878.628 811.234,884.683 814.635,890.738 818.182,896.793 821.88,902.848 825.735,908.903 829.753,914.959 833.938,921.014 838.3,927.069 842.844,933.124 847.579,939.179 852.515,945.234 857.661,951.29 863.03,957.345 868.634,963.4 874.487,969.455 880.606,975.51 887.01,981.565 893.72,987.621 900.762,993.676 908.164,999.731 " />
<line x1="910.926" y1="400.269" x2="910.926" y2="425.55"  stroke="#7f7fff" />
<line x1="908.164" y1="400.269" x2="910.926" y2="400.269"  stroke="#7f7fff" />
<line x1="910.926" y1="999.731" x2="910.926" y2="974.45"  stroke="#7f7fff" />
<line x1="908.164" y1="999.731" x2="910.926" y2="999.731"  stroke="#7f7fff" />
<polyline fill="none" stroke="#7f7fff" points="910.926,425.55 909.116,431.094 907.346,436.639 905.618,442.183 903.929,447.727 902.28,453.272 900.672,458.816 899.102,464.361 897.572,469.905 896.082,475.45 894.63,480.994 893.216,486.539 891.842,492.083 890.505,497.628 889.207,503.172 887.946,508.716 886.724,514.261 885.539,519.805 884.391,525.35 883.281,530.894 882.208,536.439 881.172,541.983 880.173,547.528 879.211,553.072 878.285,558.616 877.396,564.161 876.543,569.705 875.727,575.25 874.947,580.794 874.203,586.339 873.495,591.883 872.823,597.428 872.186,602.972 871.586,608.517 871.021,614.061 870.492,619.605 869.999,625.15 869.54,630.694 869.118,636.239 868.731,641.783 868.379,647.328 868.062,652.872 867.781,658.417 867.535,663.961 867.324,669.506 867.148,675.05 867.008,680.594 866.903,686.139 866.832,691.683 866.797,697.228 866.797,702.772 866.832,708.317 866.903,713.861 867.008,719.406 867.148,724.95 867.324,730.494 867.535,736.039 867.781,741.583 868.062,747.128 868.379,752.672 868.731,758.217 869.118,763.761 869.54,769.306 869.999,774.85 870.492,780.395 871.021,785.939 871.586,791.483 872.186,797.028 872.823,802.572 873.495,808.117 874.203,813.661 874.947,819.206 875.727,824.75 876.543,830.295 877.396,835.839 878.285,841.384 879.211,846.928 880.173,852.472 881.172,858.017 882.208,863.561 883.281,869.106 884.391,874.65 885.539,880.195 886.724,885.739 887.946,891.284 889.207,896.828 890.505,902.372 891.842,907.917 893.216,913.461 894.63,919.006 896.082,924.55 897.572,930.095 899.102,935.639 900.672,941.184 902.28,946.728 903.929,952.273 905.618,957.817 907.346,963.361 909.116,968.906 910.926,974.45 " />
</g>
<g>
<polyline fill="none" stroke="#7f7fff" points="917.361,409.003 916.248,414.881 915.159,420.76 914.093,426.639 913.051,432.518 912.031,438.396 911.036,444.275 910.063,450.154 909.114,456.033 908.188,461.911 907.285,467.79 906.405,473.669 905.548,479.547 904.714,485.426 903.903,491.305 903.115,497.184 902.35,503.062 901.608,508.941 900.889,514.82 900.192,520.699 899.518,526.577 898.867,532.456 898.239,538.335 897.633,544.214 897.05,550.092 896.49,555.971 895.952,561.85 895.437,567.728 894.944,573.607 894.474,579.486 894.027,585.365 893.601,591.243 893.199,597.122 892.819,603.001 892.461,608.88 892.126,614.758 891.813,620.637 891.523,626.516 891.255,632.395 891.009,638.273 890.786,644.152 890.585,650.031 890.406,655.909 890.25,661.788 890.116,667.667 890.004,673.546 889.915,679.424 889.848,685.303 889.803,691.182 889.781,697.061 889.781,702.939 889.803,708.818 889.848,714.697 889.915,720.576 890.004,726.454 890.116,732.333 890.25,738.212 890.406,744.091 890.585,749.969 890.786,755.848 891.009,761.727 891.255,767.605 891.523,773.484 891.813,779.363 892.126,785.242 892.461,791.12 892.819,796.999 893.199,802.878 893.601,808.757 894.027,814.635 894.474,820.514 894.944,826.393 895.437,832.272 895.952,838.15 896.49,844.029 897.05,849.908 897.633,855.786 898.239,861.665 898.867,867.544 899.518,873.423 900.192,879.301 900.889,885.18 901.608,891.059 902.35,896.938 903.115,902.816 903.903,908.695 904.714,914.574 905.548,920.453 906.405,926.331 907.285,932.21 908.188,938.089 909.114,943.967 910.063,949.846 911.036,955.725 912.031,961.604 913.051,967.482 914.093,973.361 915.159,979.24 916.248,985.119 917.361,990.997 " />
<line x1="1042.401" y1="409.003" x2="1042.401" y2="500.484"  stroke="#7f7fff" />
<line x1="917.361" y1="409.003" x2="1042.401" y2="409.003"  stroke="#7f7fff" />
<line x1="1042.401" y1="990.997" x2="1042.401" y2="899.516"  stroke="#7f7fff" />
<line x1="917.361" y1="990.997" x2="1042.401" y2="990.997"  stroke="#7f7fff" />
<polyline fill="none" stroke="#7f7fff" points="1042.401,500.484 1037.134,504.515 1032.143,508.545 1027.404,512.576 1022.896,516.606 1018.599,520.637 1014.499,524.668 1010.582,528.698 1006.837,532.729 1003.253,536.76 999.821,540.79 996.534,544.821 993.383,548.852 990.363,552.882 987.467,556.913 984.691,560.943 982.03,564.974 979.479,569.005 977.034,573.035 974.692,577.066 972.449,581.097 970.303,585.127 968.25,589.158 966.289,593.188 964.416,597.219 962.63,601.25 960.928,605.28 959.309,609.311 957.771,613.342 956.312,617.372 954.931,621.403 953.626,625.433 952.397,629.464 951.242,633.495 950.16,637.525 949.15,641.556 948.211,645.587 947.342,649.617 946.543,653.648 945.813,657.678 945.151,661.709 944.556,665.74 944.029,669.77 943.569,673.801 943.175,677.832 942.848,681.862 942.586,685.893 942.39,689.923 942.259,693.954 942.194,697.985 942.194,702.015 942.259,706.046 942.39,710.077 942.586,714.107 942.848,718.138 943.175,722.168 943.569,726.199 944.029,730.23 944.556,734.26 945.151,738.291 945.813,742.322 946.543,746.352 947.342,750.383 948.211,754.413 949.15,758.444 950.16,762.475 951.242,766.505 952.397,770.536 953.626,774.567 954.931,778.597 956.312,782.628 957.771,786.658 959.309,790.689 960.928,794.72 962.63,798.75 964.416,802.781 966.289,806.812 968.25,810.842 970.303,814.873 972.449,818.903 974.692,822.934 977.034,826.965 979.479,830.995 982.03,835.026 984.691,839.057 987.467,843.087 990.363,847.118 993.383,851.148 996.534,855.179 999.821,859.21 1003.253,863.24 1006.837,867.271 1010.582,871.302 1014.499,875.332 1018.599,879.363 1022.896,883.394 1027.404,887.424 1032.143,891.455 1037.134,895.485 1042.401,899.516 " />
</g>
<g>
<polyline fill="none" stroke="#7f7fff" points="1083.132,505.079 1086.372,509.017 1089.502,512.955 1092.529,516.893 1095.455,520.83 1098.283,524.768 1101.019,528.706 1103.663,532.644 1106.22,536.582 1108.691,540.519 1111.079,544.457 1113.387,548.395 1115.617,552.333 1117.77,556.271 1119.848,560.208 1121.853,564.146 1123.787,568.084 1125.651,572.022 1127.447,575.96 1129.175,579.897 1130.838,583.835 1132.435,587.773 1133.97,591.711 1135.441,595.649 1136.851,599.586 1138.2,603.524 1139.49,607.462 1140.72,611.4 1141.892,615.337 1143.006,619.275 1144.063,623.213 1145.064,627.151 1146.009,631.089 1146.899,635.026 1147.734,638.964 1148.515,642.902 1149.241,646.84 1149.915,650.778 1150.535,654.715 1151.102,658.653 1151.617,662.591 1152.08,666.529 1152.491,670.467 1152.849,674.404 1153.157,678.342 1153.412,682.28 1153.617,686.218 1153.77,690.156 1153.872,694.093 1153.923,698.031 1153.923,701.969 1153.872,705.907 1153.77,709.844 1153.617,713.782 1153.412,717.72 1153.157,721.658 1152.849,725.596 1152.491,729.533 1152.08,733.471 1151.617,737.409 1151.102,741.347 1150.535,745.285 1149.915,749.222 1149.241,753.16 1148.515,757.098 1147.734,761.036 1146.899,764.974 1146.009,768.911 1145.064,772.849 1144.063,776.787 1143.006,780.725 1141.892,784.663 1140.72,788.6 1139.49,792.538 1138.2,796.476 1136.851,800.414 1135.441,804.351 1133.97,808.289 1132.435,812.227 1130.838,816.165 1129.175,820.103 1127.447,824.04 1125.651,827.978 1123.787,831.916 1121.853,835.854 1119.848,839.792 1117.77,843.729 1115.617,847.667 1113.387,851.605 1111.079,855.543 1108.691,859.481 1106.22,863.418 1103.663,867.356 1101.019,871.294 1098.283,875.232 1095.455,879.17 1092.529,883.107 1089.502,887.045 1086.372,890.983 1083.132,894.921 " />
<line x1="1083.132" y1="457.73" x2="1083.132" y2="505.079"  stroke="#7f7fff" />
<line x1="1083.132" y1="457.73" x2="1196.222" y2="457.73"  stroke="#7f7fff" />
<line x1="1083.132" y1="942.27" x2="1083.132" y2="894.921"  stroke="#7f7fff" />
<line x1="1083.132" y1="942.27" x2="1196.222" y2="942.27"  stroke="#7f7fff" />
<polyline fill="none" stroke="#7f7fff" points="1196.222,457.73 1195.219,462.624 1194.237,467.518 1193.277,472.413 1192.338,477.307 1191.419,482.201 1190.522,487.096 1189.646,491.99 1188.791,496.884 1187.957,501.779 1187.144,506.673 1186.352,511.567 1185.581,516.462 1184.83,521.356 1184.1,526.251 1183.391,531.145 1182.703,536.039 1182.035,540.934 1181.387,545.828 1180.761,550.722 1180.155,555.617 1179.569,560.511 1179.004,565.405 1178.459,570.3 1177.935,575.194 1177.431,580.088 1176.947,584.983 1176.484,589.877 1176.041,594.771 1175.618,599.666 1175.216,604.56 1174.834,609.455 1174.472,614.349 1174.13,619.243 1173.808,624.138 1173.507,629.032 1173.226,633.926 1172.965,638.821 1172.724,643.715 1172.503,648.609 1172.302,653.504 1172.122,658.398 1171.961,663.292 1171.821,668.187 1171.7,673.081 1171.6,677.975 1171.52,682.87 1171.46,687.764 1171.42,692.658 1171.4,697.553 1171.4,702.447 1171.42,707.342 1171.46,712.236 1171.52,717.13 1171.6,722.025 1171.7,726.919 1171.821,731.813 1171.961,736.708 1172.122,741.602 1172.302,746.496 1172.503,751.391 1172.724,756.285 1172.965,761.179 1173.226,766.074 1173.507,770.968 1173.808,775.862 1174.13,780.757 1174.472,785.651 1174.834,790.545 1175.216,795.44 1175.618,800.334 1176.041,805.229 1176.484,810.123 1176.947,815.017 1177.431,819.912 1177.935,824.806 1178.459,829.7 1179.004,834.595 1179.569,839.489 1180.155,844.383 1180.761,849.278 1181.387,854.172 1182.035,859.066 1182.703,863.961 1183.391,868.855 1184.1,873.749 1184.83,878.644 1185.581,883.538 1186.352,888.433 1187.144,893.327 1187.957,898.221 1188.791,903.116 1189.646,908.01 1190.522,912.904 1191.419,917.799 1192.338,922.693 1193.277,927.587 1194.237,932.482 1195.219,937.376 1196.222,942.27 " />
<line x1="1196.222" y1="457.273" x2="1196.222" y2="457.73"  stroke="#7f7fff" />
<line x1="1196.222" y1="457.273" x2="1203.579" y2="457.273"  stroke="#7f7fff" />
<line x1="1196.222" y1="942.727" x2="1196.222" y2="942.27"  stroke="#7f7fff" />
<line x1="1196.222" y1="942.727" x2="1203.579" y2="942.727"  stroke="#7f7fff" />
<polyline fill="none" stroke="#7f7fff" points="1203.579,457.273 1207.148,462.176 1210.608,467.08 1213.962,471.983 1217.212,476.887 1220.362,481.791 1223.415,486.694 1226.372,491.598 1229.237,496.501 1232.011,501.405 1234.698,506.309 1237.297,511.212 1239.813,516.116 1242.245,521.019 1244.597,525.923 1246.869,530.826 1249.062,535.73 1251.179,540.634 1253.221,545.537 1255.188,550.441 1257.082,555.344 1258.904,560.248 1260.655,565.151 1262.336,570.055 1263.948,574.959 1265.492,579.862 1266.968,584.766 1268.377,589.669 1269.721,594.573 1270.999,599.477 1272.212,604.38 1273.362,609.284 1274.448,614.187 1275.47,619.091 1276.431,623.994 1277.329,628.898 1278.165,633.802 1278.94,638.705 1279.654,643.609 1280.308,648.512 1280.901,653.416 1281.434,658.32 1281.908,663.223 1282.322,668.127 1282.676,673.03 1282.971,677.934 1283.207,682.837 1283.384,687.741 1283.501,692.645 1283.56,697.548 1283.56,702.452 1283.501,707.355 1283.384,712.259 1283.207,717.163 1282.971,722.066 1282.676,726.97 1282.322,731.873 1281.908,736.777 1281.434,741.68 1280.901,746.584 1280.308,751.488 1279.654,756.391 1278.94,761.295 1278.165,766.198 1277.329,771.102 1276.431,776.006 1275.47,780.909 1274.448,785.813 1273.362,790.716 1272.212,795.62 1270.999,800.523 1269.721,805.427 1268.377,810.331 1266.968,815.234 1265.492,820.138 1263.948,825.041 1262.336,829.945 1260.655,834.849 1258.904,839.752 1257.082,844.656 1255.188,849.559 1253.221,854.463 1251.179,859.366 1249.062,864.27 1246.869,869.174 1244.597,874.077 1242.245,878.981 1239.813,883.884 1237.297,888.788 1234.698,893.691 1232.011,898.595 1229.237,903.499 1226.372,908.402 1223.415,913.306 1220.362,918.209 1217.212,923.113 1213.962,928.017 1210.608,932.92 1207.148,937.824 1203.579,942.727 " />
</g>
<g>
<polyline fill="none" stroke="#7f7fff" points="1306.922,472.899 1306.031,477.487 1305.159,482.075 1304.306,486.663 1303.472,491.251 1302.656,495.839 1301.859,500.427 1301.081,505.015 1300.322,509.602 1299.58,514.19 1298.858,518.778 1298.154,523.366 1297.468,527.954 1296.801,532.542 1296.152,537.13 1295.522,541.718 1294.91,546.306 1294.316,550.893 1293.741,555.481 1293.184,560.069 1292.645,564.657 1292.124,569.245 1291.621,573.833 1291.137,578.421 1290.67,583.009 1290.222,587.597 1289.792,592.185 1289.38,596.772 1288.986,601.36 1288.61,605.948 1288.252,610.536 1287.912,615.124 1287.59,619.712 1287.286,624.3 1287,628.888 1286.732,633.476 1286.482,638.063 1286.25,642.651 1286.035,647.239 1285.839,651.827 1285.66,656.415 1285.5,661.003 1285.357,665.591 1285.232,670.179 1285.125,674.767 1285.035,679.354 1284.964,683.942 1284.911,688.53 1284.875,693.118 1284.857,697.706 1284.857,702.294 1284.875,706.882 1284.911,711.47 1284.964,716.058 1285.035,720.646 1285.125,725.233 1285.232,729.821 1285.357,734.409 1285.5,738.997 1285.66,743.585 1285.839,748.173 1286.035,752.761 1286.25,757.349 1286.482,761.937 1286.732,766.524 1287,771.112 1287.286,775.7 1287.59,780.288 1287.912,784.876 1288.252,789.464 1288.61,794.052 1288.986,798.64 1289.38,803.228 1289.792,807.815 1290.222,812.403 1290.67,816.991 1291.137,821.579 1291.621,826.167 1292.124,830.755 1292.645,835.343 1293.184,839.931 1293.741,844.519 1294.316,849.107 1294.91,853.694 1295.522,858.282 1296.152,862.87 1296.801,867.458 1297.468,872.046 1298.154,876.634 1298.858,881.222 1299.58,885.81 1300.322,890.398 1301.081,894.985 1301.859,899.573 1302.656,904.161 1303.472,908.749 1304.306,913.337 1305.159,917.925 1306.031,922.513 1306.922,927.101 " />
<line x1="1306.922" y1="472.899" x2="1339.954" y2="472.899"  stroke="#7f7fff" />
<line x1="1306.922" y1="927.101" x2="1339.954" y2="927.101"  stroke="#7f7fff" />
<polyline fill="none" stroke="#7f7fff" points="1339.954,472.899 1339.81,477.487 1339.668,482.075 1339.53,486.663 1339.394,491.251 1339.261,495.839 1339.132,500.427 1339.005,505.015 1338.881,509.602 1338.76,514.19 1338.642,518.778 1338.527,523.366 1338.415,527.954 1338.306,532.542 1338.2,537.13 1338.097,541.718 1337.997,546.306 1337.899,550.893 1337.805,555.481 1337.714,560.069 1337.625,564.657 1337.54,569.245 1337.457,573.833 1337.378,578.421 1337.301,583.009 1337.227,587.597 1337.157,592.185 1337.089,596.772 1337.024,601.36 1336.962,605.948 1336.903,610.536 1336.847,615.124 1336.794,619.712 1336.744,624.3 1336.697,628.888 1336.653,633.476 1336.611,638.063 1336.573,642.651 1336.538,647.239 1336.505,651.827 1336.476,656.415 1336.449,661.003 1336.426,665.591 1336.405,670.179 1336.387,674.767 1336.373,679.354 1336.361,683.942 1336.352,688.53 1336.346,693.118 1336.343,697.706 1336.343,702.294 1336.346,706.882 1336.352,711.47 1336.361,716.058 1336.373,720.646 1336.387,725.233 1336.405,729.821 1336.426,734.409 1336.449,738.997 1336.476,743.585 1336.505,748.173 1336.538,752.761 1336.573,757.349 1336.611,761.937 1336.653,766.524 1336.697,771.112 1336.744,775.7 1336.794,780.288 1336.847,784.876 1336.903,789.464 1336.962,794.052 1337.024,798.64 1337.089,803.228 1337.157,807.815 1337.227,812.403 1337.301,816.991 1337.378,821.579 1337.457,826.167 1337.54,830.755 1337.625,835.343 1337.714,839.931 1337.805,844.519 1337.899,849.107 1337.997,853.694 1338.097,858.282 1338.2,862.87 1338.306,867.458 1338.415,872.046 1338.527,876.634 1338.642,881.222 1338.76,885.81 1338.881,890.398 1339.005,894.985 1339.132,899.573 1339.261,904.161 1339.394,908.749 1339.53,913.337 1339.668,917.925 1339.81,922.513 1339.954,927.101 " />
</g>
<g>
<polyline fill="none" stroke="#7f7fff" points="1359.697,484.851 1358.805,489.197 1357.933,493.544 1357.079,497.89 1356.244,502.237 1355.428,506.583 1354.63,510.93 1353.852,515.276 1353.092,519.623 1352.35,523.969 1351.628,528.315 1350.923,532.662 1350.238,537.008 1349.571,541.355 1348.922,545.701 1348.291,550.048 1347.679,554.394 1347.086,558.741 1346.51,563.087 1345.953,567.433 1345.414,571.78 1344.894,576.126 1344.391,580.473 1343.907,584.819 1343.441,589.166 1342.993,593.512 1342.563,597.859 1342.151,602.205 1341.758,606.551 1341.382,610.898 1341.024,615.244 1340.685,619.591 1340.363,623.937 1340.059,628.284 1339.773,632.63 1339.505,636.977 1339.256,641.323 1339.023,645.669 1338.809,650.016 1338.613,654.362 1338.435,658.709 1338.274,663.055 1338.131,667.402 1338.007,671.748 1337.9,676.095 1337.81,680.441 1337.739,684.787 1337.686,689.134 1337.65,693.48 1337.632,697.827 1337.632,702.173 1337.65,706.52 1337.686,710.866 1337.739,715.213 1337.81,719.559 1337.9,723.905 1338.007,728.252 1338.131,732.598 1338.274,736.945 1338.435,741.291 1338.613,745.638 1338.809,749.984 1339.023,754.331 1339.256,758.677 1339.505,763.023 1339.773,767.37 1340.059,771.716 1340.363,776.063 1340.685,780.409 1341.024,784.756 1341.382,789.102 1341.758,793.449 1342.151,797.795 1342.563,802.141 1342.993,806.488 1343.441,810.834 1343.907,815.181 1344.391,819.527 1344.894,823.874 1345.414,828.22 1345.953,832.567 1346.51,836.913 1347.086,841.259 1347.679,845.606 1348.291,849.952 1348.922,854.299 1349.571,858.645 1350.238,862.992 1350.923,867.338 1351.628,871.685 1352.35,876.031 1353.092,880.377 1353.852,884.724 1354.63,889.07 1355.428,893.417 1356.244,897.763 1357.079,902.11 1357.933,906.456 1358.805,910.803 1359.697,915.149 " />
<line x1="1359.697" y1="484.851" x2="1379.923" y2="484.851"  stroke="#7f7fff" />
<line x1="1359.697" y1="915.149" x2="1379.923" y2="915.149"  stroke="#7f7fff" />
<polyline fill="none" stroke="#7f7fff" points="1379.923,484.851 1380.292,489.197 1380.653,493.544 1381.006,497.89 1381.352,502.237 1381.69,506.583 1382.02,510.93 1382.343,515.276 1382.659,519.623 1382.967,523.969 1383.267,528.315 1383.56,532.662 1383.845,537.008 1384.123,541.355 1384.393,545.701 1384.656,550.048 1384.911,554.394 1385.159,558.741 1385.399,563.087 1385.631,567.433 1385.856,571.78 1386.074,576.126 1386.284,580.473 1386.486,584.819 1386.681,589.166 1386.869,593.512 1387.049,597.859 1387.221,602.205 1387.386,606.551 1387.543,610.898 1387.693,615.244 1387.836,619.591 1387.971,623.937 1388.098,628.284 1388.218,632.63 1388.33,636.977 1388.435,641.323 1388.533,645.669 1388.623,650.016 1388.705,654.362 1388.78,658.709 1388.847,663.055 1388.907,667.402 1388.96,671.748 1389.005,676.095 1389.042,680.441 1389.072,684.787 1389.095,689.134 1389.11,693.48 1389.117,697.827 1389.117,702.173 1389.11,706.52 1389.095,710.866 1389.072,715.213 1389.042,719.559 1389.005,723.905 1388.96,728.252 1388.907,732.598 1388.847,736.945 1388.78,741.291 1388.705,745.638 1388.623,749.984 1388.533,754.331 1388.435,758.677 1388.33,763.023 1388.218,767.37 1388.098,771.716 1387.971,776.063 1387.836,780.409 1387.693,784.756 1387.543,789.102 1387.386,793.449 1387.221,797.795 1387.049,802.141 1386.869,806.488 1386.681,810.834 1386.486,815.181 1386.284,819.527 1386.074,823.874 1385.856,828.22 1385.631,832.567 1385.399,836.913 1385.159,841.259 1384.911,845.606 1384.656,849.952 1384.393,854.299 1384.123,858.645 1383.845,862.992 1383.56,867.338 1383.267,871.685 1382.967,876.031 1382.659,880.377 1382.343,884.724 1382.02,889.07 1381.69,893.417 1381.352,897.763 1381.006,902.11 1380.653,906.456 1380.292,910.803 1379.923,915.149 " />
</g>
</g>
<g><title>element</title>
<polyline fill="none" stroke="#7f7fff" points="1741.36,144.444 1741.36,155.668 1741.36,166.891 1741.36,178.114 1741.36,189.338 1741.36,200.561 1741.36,211.785 1741.36,223.008 1741.36,234.231 1741.36,245.455 1741.36,256.678 1741.36,267.901 1741.36,279.125 1741.36,290.348 1741.36,301.571 1741.36,312.795 1741.36,324.018 1741.36,335.241 1741.36,346.465 1741.36,357.688 1741.36,368.911 1741.36,380.135 1741.36,391.358 1741.36,402.581 1741.36,413.805 1741.36,425.028 1741.36,436.251 1741.36,447.475 1741.36,458.698 1741.36,469.921 1741.36,481.145 1741.36,492.368 1741.36,503.591 1741.36,514.815 1741.36,526.038 1741.36,537.262 1741.36,548.485 1741.36,559.708 1741.36,570.932 1741.36,582.155 1741.36,593.378 1741.36,604.602 1741.36,615.825 1741.36,627.048 1741.36,638.272 1741.36,649.495 1741.36,660.718 1741.36,671.942 1741.36,683.165 1741.36,694.388 1741.36,705.612 1741.36,716.835 1741.36,728.058 1741.36,739.282 1741.36,750.505 1741.36,761.728 1741.36,772.952 1741.36,784.175 1741.36,795.398 1741.36,806.622 1741.36,817.845 1741.36,829.068 1741.36,840.292 1741.36,851.515 1741.36,862.738 1741.36,873.962 1741.36,885.185 1741.36,896.409 1741.36,907.632 1741.36,918.855 1741.36,930.079 1741.36,941.302 1741.36,952.525 1741.36,963.749 1741.36,974.972 1741.36,986.195 1741.36,997.419 1741.36,1008.642 1741.36,1019.865 1741.36,1031.089 1741.36,1042.312 1741.36,1053.535 1741.36,1064.759 1741.36,1075.982 1741.36,1087.205 1741.36,1098.429 1741.36,1109.652 1741.36,1120.875 1741.36,1132.099 1741.36,1143.322 1741.36,1154.545 1741.36,1165.769 1741.36,1176.992 1741.36,1188.215 1741.36,1199.439 1741.36,1210.662 1741.36,1221.886 1741.36,1233.109 1741.36,1244.332 1741.36,1255.556 " />
</g>
</svg>
