<?xml version="1.0" standalone="no"?>
<svg width="2400px" height="1400px" version="1.1" xmlns="http://www.w3.org/2000/svg"
>
    <rect x="0" y="0" width="2400" height="1400" fill="#ffffff"/>
    <defs>
        <g id="dot">
            <line x1="1" y1="1" x2="0" y2="0"/>
        </g>
        <g id="cross">
            <line x1="-3" y1="0" x2="3" y2="0"/>
            <line x1="0" y1="-3" x2="0" y2="3"/>
        </g>
        <g id="square">
            <line x1="-3" y1="-3" x2="-3" y2="3"/>
            <line x1="-3" y1="3" x2="3" y2="3"/>
            <line x1="3" y1="3" x2="3" y2="-3"/>
            <line x1="3" y1="-3" x2="-3" y2="-3"/>
        </g>
        <g id="round">
            <ellipse cx="0" cy="0" rx="3" ry="3" fill="none"/>
        </g>
        <g id="triangle">
            <line x1="0" y1="-3" x2="-3" y2="3"/>
            <line x1="-3" y1="3" x2="3" y2="3"/>
            <line x1="0" y1="-3" x2="3" y2="3"/>
        </g>
    </defs>
    <line x1="585.949" y1="700" x2="1814.051" y2="700" stroke="#7f7f7f"/>
    <g>
        <title>element</title>
        <g>
            <line x1="970.755" y1="507.584" x2="970.755" y2="315.167" stroke="#7f7fff"/>
            <line x1="970.755" y1="892.416" x2="970.755" y2="1084.833" stroke="#7f7fff"/>
        </g>
        <g>
            <polyline fill="none" stroke="#7f7fff"
                      points="642.654,376.204 640.318,382.745 638.034,389.287 635.804,395.828 633.627,402.369 631.502,408.911 629.43,415.452 627.408,421.993 625.439,428.535 623.52,435.076 621.652,441.617 619.834,448.159 618.066,454.7 616.348,461.241 614.68,467.783 613.06,474.324 611.49,480.865 609.969,487.407 608.495,493.948 607.071,500.489 605.694,507.031 604.365,513.572 603.084,520.113 601.85,526.655 600.663,533.196 599.523,539.737 598.431,546.279 597.385,552.82 596.385,559.361 595.432,565.903 594.525,572.444 593.665,578.985 592.85,585.527 592.081,592.068 591.359,598.609 590.681,605.151 590.05,611.692 589.463,618.233 588.923,624.775 588.427,631.316 587.977,637.857 587.572,644.399 587.212,650.94 586.898,657.481 586.628,664.023 586.403,670.564 586.224,677.105 586.089,683.647 585.999,690.188 585.954,696.729 585.954,703.271 585.999,709.812 586.089,716.353 586.224,722.895 586.403,729.436 586.628,735.977 586.898,742.519 587.212,749.06 587.572,755.601 587.977,762.143 588.427,768.684 588.923,775.225 589.463,781.767 590.05,788.308 590.681,794.849 591.359,801.391 592.081,807.932 592.85,814.473 593.665,821.015 594.525,827.556 595.432,834.097 596.385,840.639 597.385,847.18 598.431,853.721 599.523,860.263 600.663,866.804 601.85,873.345 603.084,879.887 604.365,886.428 605.694,892.969 607.071,899.511 608.495,906.052 609.969,912.593 611.49,919.135 613.06,925.676 614.68,932.217 616.348,938.759 618.066,945.3 619.834,951.841 621.652,958.383 623.52,964.924 625.439,971.465 627.408,978.007 629.43,984.548 631.502,991.089 633.627,997.631 635.804,1004.172 638.034,1010.713 640.318,1017.255 642.654,1023.796 "/>
            <line x1="678.057" y1="376.204" x2="678.057" y2="376.268" stroke="#7f7fff"/>
            <line x1="642.654" y1="376.204" x2="678.057" y2="376.204" stroke="#7f7fff"/>
            <line x1="678.057" y1="1023.796" x2="678.057" y2="1023.732" stroke="#7f7fff"/>
            <line x1="642.654" y1="1023.796" x2="678.057" y2="1023.796" stroke="#7f7fff"/>
            <polyline fill="none" stroke="#7f7fff"
                      points="678.057,376.268 678.057,382.808 678.057,389.348 678.057,395.888 678.057,402.428 678.057,408.968 678.057,415.508 678.057,422.048 678.057,428.589 678.057,435.129 678.057,441.669 678.057,448.209 678.057,454.749 678.057,461.289 678.057,467.829 678.057,474.369 678.057,480.909 678.057,487.449 678.057,493.989 678.057,500.529 678.057,507.069 678.057,513.609 678.057,520.149 678.057,526.689 678.057,533.229 678.057,539.769 678.057,546.309 678.057,552.849 678.057,559.389 678.057,565.929 678.057,572.469 678.057,579.009 678.057,585.549 678.057,592.089 678.057,598.629 678.057,605.169 678.057,611.71 678.057,618.25 678.057,624.79 678.057,631.33 678.057,637.87 678.057,644.41 678.057,650.95 678.057,657.49 678.057,664.03 678.057,670.57 678.057,677.11 678.057,683.65 678.057,690.19 678.057,696.73 678.057,703.27 678.057,709.81 678.057,716.35 678.057,722.89 678.057,729.43 678.057,735.97 678.057,742.51 678.057,749.05 678.057,755.59 678.057,762.13 678.057,768.67 678.057,775.21 678.057,781.75 678.057,788.29 678.057,794.831 678.057,801.371 678.057,807.911 678.057,814.451 678.057,820.991 678.057,827.531 678.057,834.071 678.057,840.611 678.057,847.151 678.057,853.691 678.057,860.231 678.057,866.771 678.057,873.311 678.057,879.851 678.057,886.391 678.057,892.931 678.057,899.471 678.057,906.011 678.057,912.551 678.057,919.091 678.057,925.631 678.057,932.171 678.057,938.711 678.057,945.251 678.057,951.791 678.057,958.331 678.057,964.871 678.057,971.411 678.057,977.952 678.057,984.492 678.057,991.032 678.057,997.572 678.057,1004.112 678.057,1010.652 678.057,1017.192 678.057,1023.732 "/>
        </g>
        <g>
            <polyline fill="none" stroke="#7f7fff"
                      points="793.7,413.301 788.545,419.093 783.575,424.885 778.78,430.677 774.153,436.469 769.688,442.26 765.379,448.052 761.218,453.844 757.202,459.636 753.325,465.428 749.582,471.22 745.97,477.012 742.485,482.804 739.124,488.596 735.882,494.388 732.756,500.179 729.745,505.971 726.845,511.763 724.054,517.555 721.368,523.347 718.788,529.139 716.309,534.931 713.93,540.723 711.65,546.515 709.466,552.307 707.378,558.098 705.383,563.89 703.481,569.682 701.67,575.474 699.948,581.266 698.315,587.058 696.77,592.85 695.311,598.642 693.938,604.434 692.65,610.226 691.446,616.017 690.326,621.809 689.288,627.601 688.332,633.393 687.458,639.185 686.665,644.977 685.952,650.769 685.32,656.561 684.768,662.353 684.294,668.145 683.901,673.936 683.586,679.728 683.35,685.52 683.193,691.312 683.114,697.104 683.114,702.896 683.193,708.688 683.35,714.48 683.586,720.272 683.901,726.064 684.294,731.855 684.768,737.647 685.32,743.439 685.952,749.231 686.665,755.023 687.458,760.815 688.332,766.607 689.288,772.399 690.326,778.191 691.446,783.983 692.65,789.774 693.938,795.566 695.311,801.358 696.77,807.15 698.315,812.942 699.948,818.734 701.67,824.526 703.481,830.318 705.383,836.11 707.378,841.902 709.466,847.693 711.65,853.485 713.93,859.277 716.309,865.069 718.788,870.861 721.368,876.653 724.054,882.445 726.845,888.237 729.745,894.029 732.756,899.821 735.882,905.612 739.124,911.404 742.485,917.196 745.97,922.988 749.582,928.78 753.325,934.572 757.202,940.364 761.218,946.156 765.379,951.948 769.688,957.74 774.153,963.531 778.78,969.323 783.575,975.115 788.545,980.907 793.7,986.699 "/>
            <line x1="793.7" y1="413.301" x2="861.169" y2="413.301" stroke="#7f7fff"/>
            <line x1="793.7" y1="986.699" x2="861.169" y2="986.699" stroke="#7f7fff"/>
            <polyline fill="none" stroke="#7f7fff"
                      points="861.169,413.301 858.913,419.093 856.71,424.885 854.56,430.677 852.461,436.469 850.414,442.26 848.418,448.052 846.472,453.844 844.577,459.636 842.731,465.428 840.934,471.22 839.187,477.012 837.489,482.804 835.838,488.596 834.236,494.388 832.682,500.179 831.175,505.971 829.715,511.763 828.302,517.555 826.936,523.347 825.616,529.139 824.343,534.931 823.115,540.723 821.933,546.515 820.797,552.307 819.705,558.098 818.659,563.89 817.658,569.682 816.702,575.474 815.79,581.266 814.922,587.058 814.099,592.85 813.32,598.642 812.585,604.434 811.894,610.226 811.247,616.017 810.643,621.809 810.083,627.601 809.566,633.393 809.092,639.185 808.662,644.977 808.275,650.769 807.932,656.561 807.631,662.353 807.373,668.145 807.159,673.936 806.987,679.728 806.858,685.52 806.773,691.312 806.73,697.104 806.73,702.896 806.773,708.688 806.858,714.48 806.987,720.272 807.159,726.064 807.373,731.855 807.631,737.647 807.932,743.439 808.275,749.231 808.662,755.023 809.092,760.815 809.566,766.607 810.083,772.399 810.643,778.191 811.247,783.983 811.894,789.774 812.585,795.566 813.32,801.358 814.099,807.15 814.922,812.942 815.79,818.734 816.702,824.526 817.658,830.318 818.659,836.11 819.705,841.902 820.797,847.693 821.933,853.485 823.115,859.277 824.343,865.069 825.616,870.861 826.936,876.653 828.302,882.445 829.715,888.237 831.175,894.029 832.682,899.821 834.236,905.612 835.838,911.404 837.489,917.196 839.187,922.988 840.934,928.78 842.731,934.572 844.577,940.364 846.472,946.156 848.418,951.948 850.414,957.74 852.461,963.531 854.56,969.323 856.71,975.115 858.913,980.907 861.169,986.699 "/>
        </g>
        <g>
            <polyline fill="none" stroke="#7f7fff"
                      points="850.856,417.601 849.943,423.306 849.05,429.011 848.175,434.716 847.319,440.421 846.483,446.126 845.665,451.831 844.866,457.536 844.086,463.241 843.326,468.946 842.584,474.651 841.86,480.356 841.156,486.061 840.471,491.767 839.804,497.472 839.156,503.177 838.527,508.882 837.916,514.587 837.324,520.292 836.751,525.997 836.197,531.702 835.661,537.407 835.144,543.112 834.645,548.817 834.165,554.522 833.704,560.227 833.261,565.932 832.837,571.637 832.431,577.342 832.044,583.047 831.675,588.752 831.325,594.457 830.993,600.162 830.68,605.867 830.385,611.572 830.109,617.277 829.851,622.982 829.612,628.687 829.391,634.392 829.189,640.097 829.005,645.802 828.839,651.507 828.692,657.212 828.563,662.917 828.453,668.622 828.361,674.327 828.287,680.032 828.232,685.737 828.195,691.442 828.177,697.147 828.177,702.853 828.195,708.558 828.232,714.263 828.287,719.968 828.361,725.673 828.453,731.378 828.563,737.083 828.692,742.788 828.839,748.493 829.005,754.198 829.189,759.903 829.391,765.608 829.612,771.313 829.851,777.018 830.109,782.723 830.385,788.428 830.68,794.133 830.993,799.838 831.325,805.543 831.675,811.248 832.044,816.953 832.431,822.658 832.837,828.363 833.261,834.068 833.704,839.773 834.165,845.478 834.645,851.183 835.144,856.888 835.661,862.593 836.197,868.298 836.751,874.003 837.324,879.708 837.916,885.413 838.527,891.118 839.156,896.823 839.804,902.528 840.471,908.233 841.156,913.939 841.86,919.644 842.584,925.349 843.326,931.054 844.086,936.759 844.866,942.464 845.665,948.169 846.483,953.874 847.319,959.579 848.175,965.284 849.05,970.989 849.943,976.694 850.856,982.399 "/>
            <line x1="948.951" y1="417.601" x2="948.951" y2="491.602" stroke="#7f7fff"/>
            <line x1="850.856" y1="417.601" x2="948.951" y2="417.601" stroke="#7f7fff"/>
            <line x1="948.951" y1="982.399" x2="948.951" y2="908.398" stroke="#7f7fff"/>
            <line x1="850.856" y1="982.399" x2="948.951" y2="982.399" stroke="#7f7fff"/>
            <polyline fill="none" stroke="#7f7fff"
                      points="948.951,491.602 945.508,495.813 942.179,500.023 938.961,504.233 935.85,508.443 932.841,512.653 929.932,516.863 927.119,521.073 924.399,525.283 921.77,529.493 919.228,533.703 916.772,537.913 914.399,542.123 912.108,546.333 909.896,550.543 907.761,554.753 905.702,558.963 903.718,563.173 901.806,567.383 899.966,571.593 898.196,575.804 896.494,580.014 894.86,584.224 893.293,588.434 891.792,592.644 890.355,596.854 888.982,601.064 887.671,605.274 886.423,609.484 885.236,613.694 884.11,617.904 883.044,622.114 882.037,626.324 881.09,630.534 880.2,634.744 879.368,638.954 878.594,643.164 877.877,647.374 877.216,651.584 876.611,655.794 876.063,660.005 875.57,664.215 875.132,668.425 874.75,672.635 874.423,676.845 874.15,681.055 873.932,685.265 873.769,689.475 873.66,693.685 873.606,697.895 873.606,702.105 873.66,706.315 873.769,710.525 873.932,714.735 874.15,718.945 874.423,723.155 874.75,727.365 875.132,731.575 875.57,735.785 876.063,739.995 876.611,744.206 877.216,748.416 877.877,752.626 878.594,756.836 879.368,761.046 880.2,765.256 881.09,769.466 882.037,773.676 883.044,777.886 884.11,782.096 885.236,786.306 886.423,790.516 887.671,794.726 888.982,798.936 890.355,803.146 891.792,807.356 893.293,811.566 894.86,815.776 896.494,819.986 898.196,824.196 899.966,828.407 901.806,832.617 903.718,836.827 905.702,841.037 907.761,845.247 909.896,849.457 912.108,853.667 914.399,857.877 916.772,862.087 919.228,866.297 921.77,870.507 924.399,874.717 927.119,878.927 929.932,883.137 932.841,887.347 935.85,891.557 938.961,895.767 942.179,899.977 945.508,904.187 948.951,908.398 "/>
        </g>
        <g>
            <polyline fill="none" stroke="#7f7fff"
                      points="990.138,491.602 993.958,495.813 997.639,500.023 1001.187,504.233 1004.61,508.443 1007.911,512.653 1011.097,516.863 1014.17,521.073 1017.136,525.283 1019.998,529.493 1022.76,533.703 1025.425,537.913 1027.995,542.123 1030.474,546.333 1032.864,550.543 1035.167,554.753 1037.386,558.963 1039.522,563.173 1041.578,567.383 1043.555,571.593 1045.455,575.804 1047.28,580.014 1049.03,584.224 1050.708,588.434 1052.315,592.644 1053.851,596.854 1055.319,601.064 1056.718,605.274 1058.05,609.484 1059.316,613.694 1060.517,617.904 1061.653,622.114 1062.725,626.324 1063.734,630.534 1064.681,634.744 1065.566,638.954 1066.389,643.164 1067.152,647.374 1067.855,651.584 1068.497,655.794 1069.08,660.005 1069.603,664.215 1070.068,668.425 1070.474,672.635 1070.821,676.845 1071.111,681.055 1071.342,685.265 1071.515,689.475 1071.631,693.685 1071.689,697.895 1071.689,702.105 1071.631,706.315 1071.515,710.525 1071.342,714.735 1071.111,718.945 1070.821,723.155 1070.474,727.365 1070.068,731.575 1069.603,735.785 1069.08,739.995 1068.497,744.206 1067.855,748.416 1067.152,752.626 1066.389,756.836 1065.566,761.046 1064.681,765.256 1063.734,769.466 1062.725,773.676 1061.653,777.886 1060.517,782.096 1059.316,786.306 1058.05,790.516 1056.718,794.726 1055.319,798.936 1053.851,803.146 1052.315,807.356 1050.708,811.566 1049.03,815.776 1047.28,819.986 1045.455,824.196 1043.555,828.407 1041.578,832.617 1039.522,836.827 1037.386,841.037 1035.167,845.247 1032.864,849.457 1030.474,853.667 1027.995,857.877 1025.425,862.087 1022.76,866.297 1019.998,870.507 1017.136,874.717 1014.17,878.927 1011.097,883.137 1007.911,887.347 1004.61,891.557 1001.187,895.767 997.639,899.977 993.958,904.187 990.138,908.398 "/>
            <line x1="990.138" y1="443.466" x2="990.138" y2="491.602" stroke="#7f7fff"/>
            <line x1="990.138" y1="443.466" x2="1104.399" y2="443.466" stroke="#7f7fff"/>
            <line x1="990.138" y1="956.534" x2="990.138" y2="908.398" stroke="#7f7fff"/>
            <line x1="990.138" y1="956.534" x2="1104.399" y2="956.534" stroke="#7f7fff"/>
            <polyline fill="none" stroke="#7f7fff"
                      points="1104.399,443.466 1104.05,448.649 1103.707,453.831 1103.372,459.014 1103.044,464.196 1102.723,469.379 1102.41,474.561 1102.103,479.744 1101.804,484.926 1101.511,490.109 1101.226,495.291 1100.948,500.474 1100.677,505.656 1100.414,510.839 1100.157,516.021 1099.908,521.204 1099.665,526.386 1099.43,531.569 1099.202,536.751 1098.981,541.934 1098.768,547.116 1098.561,552.299 1098.362,557.481 1098.169,562.664 1097.984,567.846 1097.806,573.029 1097.635,578.211 1097.471,583.394 1097.315,588.576 1097.165,593.759 1097.023,598.941 1096.888,604.124 1096.759,609.306 1096.638,614.489 1096.524,619.671 1096.418,624.854 1096.318,630.036 1096.225,635.219 1096.14,640.401 1096.062,645.584 1095.991,650.766 1095.927,655.949 1095.87,661.131 1095.82,666.314 1095.777,671.496 1095.741,676.679 1095.713,681.861 1095.692,687.044 1095.677,692.226 1095.67,697.409 1095.67,702.591 1095.677,707.774 1095.692,712.956 1095.713,718.139 1095.741,723.321 1095.777,728.504 1095.82,733.686 1095.87,738.869 1095.927,744.051 1095.991,749.234 1096.062,754.416 1096.14,759.599 1096.225,764.781 1096.318,769.964 1096.418,775.146 1096.524,780.329 1096.638,785.511 1096.759,790.694 1096.888,795.876 1097.023,801.059 1097.165,806.241 1097.315,811.424 1097.471,816.606 1097.635,821.789 1097.806,826.971 1097.984,832.154 1098.169,837.336 1098.362,842.519 1098.561,847.701 1098.768,852.884 1098.981,858.066 1099.202,863.249 1099.43,868.431 1099.665,873.614 1099.908,878.796 1100.157,883.979 1100.414,889.161 1100.677,894.344 1100.948,899.526 1101.226,904.709 1101.511,909.891 1101.804,915.074 1102.103,920.256 1102.41,925.439 1102.723,930.621 1103.044,935.804 1103.372,940.986 1103.707,946.169 1104.05,951.351 1104.399,956.534 "/>
            <line x1="1104.399" y1="443.402" x2="1104.399" y2="443.466" stroke="#7f7fff"/>
            <line x1="1104.399" y1="443.402" x2="1126.797" y2="443.402" stroke="#7f7fff"/>
            <line x1="1104.399" y1="956.598" x2="1104.399" y2="956.534" stroke="#7f7fff"/>
            <line x1="1104.399" y1="956.598" x2="1126.797" y2="956.598" stroke="#7f7fff"/>
            <polyline fill="none" stroke="#7f7fff"
                      points="1126.797,443.402 1129.802,448.586 1132.726,453.77 1135.57,458.954 1138.337,464.137 1141.027,469.321 1143.642,474.505 1146.182,479.689 1148.651,484.872 1151.047,490.056 1153.373,495.24 1155.63,500.424 1157.819,505.608 1159.94,510.791 1161.995,515.975 1163.984,521.159 1165.908,526.343 1167.768,531.527 1169.565,536.71 1171.3,541.894 1172.972,547.078 1174.584,552.262 1176.134,557.446 1177.625,562.629 1179.056,567.813 1180.428,572.997 1181.742,578.181 1182.997,583.365 1184.195,588.548 1185.336,593.732 1186.42,598.916 1187.448,604.1 1188.42,609.284 1189.336,614.467 1190.196,619.651 1191.002,624.835 1191.752,630.019 1192.448,635.203 1193.09,640.386 1193.677,645.57 1194.211,650.754 1194.69,655.938 1195.116,661.122 1195.488,666.305 1195.807,671.489 1196.073,676.673 1196.285,681.857 1196.445,687.041 1196.551,692.224 1196.604,697.408 1196.604,702.592 1196.551,707.776 1196.445,712.959 1196.285,718.143 1196.073,723.327 1195.807,728.511 1195.488,733.695 1195.116,738.878 1194.69,744.062 1194.211,749.246 1193.677,754.43 1193.09,759.614 1192.448,764.797 1191.752,769.981 1191.002,775.165 1190.196,780.349 1189.336,785.533 1188.42,790.716 1187.448,795.9 1186.42,801.084 1185.336,806.268 1184.195,811.452 1182.997,816.635 1181.742,821.819 1180.428,827.003 1179.056,832.187 1177.625,837.371 1176.134,842.554 1174.584,847.738 1172.972,852.922 1171.3,858.106 1169.565,863.29 1167.768,868.473 1165.908,873.657 1163.984,878.841 1161.995,884.025 1159.94,889.209 1157.819,894.392 1155.63,899.576 1153.373,904.76 1151.047,909.944 1148.651,915.128 1146.182,920.311 1143.642,925.495 1141.027,930.679 1138.337,935.863 1135.57,941.046 1132.726,946.23 1129.802,951.414 1126.797,956.598 "/>
        </g>
        <g>
            <polyline fill="none" stroke="#7f7fff"
                      points="1193.93,448.472 1194.29,453.554 1194.642,458.635 1194.987,463.717 1195.325,468.798 1195.656,473.879 1195.979,478.961 1196.295,484.042 1196.603,489.123 1196.904,494.205 1197.198,499.286 1197.484,504.367 1197.763,509.449 1198.034,514.53 1198.298,519.612 1198.555,524.693 1198.805,529.774 1199.047,534.856 1199.282,539.937 1199.509,545.018 1199.729,550.1 1199.942,555.181 1200.147,560.262 1200.345,565.344 1200.536,570.425 1200.719,575.507 1200.895,580.588 1201.064,585.669 1201.225,590.751 1201.379,595.832 1201.526,600.913 1201.665,605.995 1201.797,611.076 1201.922,616.157 1202.039,621.239 1202.149,626.32 1202.251,631.402 1202.347,636.483 1202.435,641.564 1202.515,646.646 1202.589,651.727 1202.655,656.808 1202.713,661.89 1202.764,666.971 1202.808,672.052 1202.845,677.134 1202.874,682.215 1202.896,687.297 1202.911,692.378 1202.918,697.459 1202.918,702.541 1202.911,707.622 1202.896,712.703 1202.874,717.785 1202.845,722.866 1202.808,727.948 1202.764,733.029 1202.713,738.11 1202.655,743.192 1202.589,748.273 1202.515,753.354 1202.435,758.436 1202.347,763.517 1202.251,768.598 1202.149,773.68 1202.039,778.761 1201.922,783.843 1201.797,788.924 1201.665,794.005 1201.526,799.087 1201.379,804.168 1201.225,809.249 1201.064,814.331 1200.895,819.412 1200.719,824.493 1200.536,829.575 1200.345,834.656 1200.147,839.738 1199.942,844.819 1199.729,849.9 1199.509,854.982 1199.282,860.063 1199.047,865.144 1198.805,870.226 1198.555,875.307 1198.298,880.388 1198.034,885.47 1197.763,890.551 1197.484,895.633 1197.198,900.714 1196.904,905.795 1196.603,910.877 1196.295,915.958 1195.979,921.039 1195.656,926.121 1195.325,931.202 1194.987,936.283 1194.642,941.365 1194.29,946.446 1193.93,951.528 "/>
            <line x1="1193.93" y1="448.472" x2="1227.981" y2="448.472" stroke="#7f7fff"/>
            <line x1="1193.93" y1="951.528" x2="1227.981" y2="951.528" stroke="#7f7fff"/>
            <polyline fill="none" stroke="#7f7fff"
                      points="1227.981,448.472 1229.976,453.554 1231.924,458.635 1233.825,463.717 1235.681,468.798 1237.491,473.879 1239.256,478.961 1240.976,484.042 1242.652,489.123 1244.283,494.205 1245.871,499.286 1247.416,504.367 1248.917,509.449 1250.376,514.53 1251.792,519.612 1253.166,524.693 1254.498,529.774 1255.788,534.856 1257.036,539.937 1258.244,545.018 1259.41,550.1 1260.535,555.181 1261.62,560.262 1262.665,565.344 1263.669,570.425 1264.633,575.507 1265.557,580.588 1266.442,585.669 1267.287,590.751 1268.093,595.832 1268.859,600.913 1269.586,605.995 1270.275,611.076 1270.924,616.157 1271.535,621.239 1272.107,626.32 1272.64,631.402 1273.135,636.483 1273.591,641.564 1274.01,646.646 1274.39,651.727 1274.731,656.808 1275.035,661.89 1275.301,666.971 1275.528,672.052 1275.718,677.134 1275.869,682.215 1275.983,687.297 1276.059,692.378 1276.097,697.459 1276.097,702.541 1276.059,707.622 1275.983,712.703 1275.869,717.785 1275.718,722.866 1275.528,727.948 1275.301,733.029 1275.035,738.11 1274.731,743.192 1274.39,748.273 1274.01,753.354 1273.591,758.436 1273.135,763.517 1272.64,768.598 1272.107,773.68 1271.535,778.761 1270.924,783.843 1270.275,788.924 1269.586,794.005 1268.859,799.087 1268.093,804.168 1267.287,809.249 1266.442,814.331 1265.557,819.412 1264.633,824.493 1263.669,829.575 1262.665,834.656 1261.62,839.738 1260.535,844.819 1259.41,849.9 1258.244,854.982 1257.036,860.063 1255.788,865.144 1254.498,870.226 1253.166,875.307 1251.792,880.388 1250.376,885.47 1248.917,890.551 1247.416,895.633 1245.871,900.714 1244.283,905.795 1242.652,910.877 1240.976,915.958 1239.256,921.039 1237.491,926.121 1235.681,931.202 1233.825,936.283 1231.924,941.365 1229.976,946.446 1227.981,951.528 "/>
        </g>
        <g>
            <polyline fill="none" stroke="#7f7fff"
                      points="1294.143,460.924 1293.418,465.754 1292.707,470.583 1292.012,475.413 1291.332,480.243 1290.666,485.073 1290.016,489.903 1289.381,494.732 1288.761,499.562 1288.156,504.392 1287.566,509.222 1286.991,514.052 1286.431,518.882 1285.886,523.711 1285.355,528.541 1284.84,533.371 1284.339,538.201 1283.854,543.031 1283.383,547.861 1282.927,552.69 1282.486,557.52 1282.06,562.35 1281.648,567.18 1281.251,572.01 1280.869,576.839 1280.502,581.669 1280.15,586.499 1279.812,591.329 1279.49,596.159 1279.181,600.989 1278.888,605.818 1278.609,610.648 1278.345,615.478 1278.096,620.308 1277.862,625.138 1277.642,629.968 1277.436,634.797 1277.246,639.627 1277.07,644.457 1276.909,649.287 1276.762,654.117 1276.631,658.946 1276.513,663.776 1276.411,668.606 1276.323,673.436 1276.25,678.266 1276.191,683.096 1276.147,687.925 1276.118,692.755 1276.103,697.585 1276.103,702.415 1276.118,707.245 1276.147,712.075 1276.191,716.904 1276.25,721.734 1276.323,726.564 1276.411,731.394 1276.513,736.224 1276.631,741.054 1276.762,745.883 1276.909,750.713 1277.07,755.543 1277.246,760.373 1277.436,765.203 1277.642,770.032 1277.862,774.862 1278.096,779.692 1278.345,784.522 1278.609,789.352 1278.888,794.182 1279.181,799.011 1279.49,803.841 1279.812,808.671 1280.15,813.501 1280.502,818.331 1280.869,823.161 1281.251,827.99 1281.648,832.82 1282.06,837.65 1282.486,842.48 1282.927,847.31 1283.383,852.139 1283.854,856.969 1284.339,861.799 1284.84,866.629 1285.355,871.459 1285.886,876.289 1286.431,881.118 1286.991,885.948 1287.566,890.778 1288.156,895.608 1288.761,900.438 1289.381,905.268 1290.016,910.097 1290.666,914.927 1291.332,919.757 1292.012,924.587 1292.707,929.417 1293.418,934.246 1294.143,939.076 "/>
            <line x1="1294.143" y1="460.924" x2="1305.898" y2="460.924" stroke="#7f7fff"/>
            <line x1="1294.143" y1="939.076" x2="1305.898" y2="939.076" stroke="#7f7fff"/>
            <polyline fill="none" stroke="#7f7fff"
                      points="1305.898,460.924 1306.834,465.754 1307.75,470.583 1308.647,475.413 1309.524,480.243 1310.381,485.073 1311.219,489.903 1312.037,494.732 1312.836,499.562 1313.615,504.392 1314.374,509.222 1315.115,514.052 1315.835,518.882 1316.537,523.711 1317.219,528.541 1317.881,533.371 1318.525,538.201 1319.149,543.031 1319.754,547.861 1320.34,552.69 1320.906,557.52 1321.454,562.35 1321.982,567.18 1322.491,572.01 1322.982,576.839 1323.453,581.669 1323.905,586.499 1324.338,591.329 1324.752,596.159 1325.148,600.989 1325.524,605.818 1325.881,610.648 1326.22,615.478 1326.54,620.308 1326.84,625.138 1327.122,629.968 1327.385,634.797 1327.629,639.627 1327.855,644.457 1328.061,649.287 1328.249,654.117 1328.418,658.946 1328.568,663.776 1328.699,668.606 1328.812,673.436 1328.906,678.266 1328.981,683.096 1329.037,687.925 1329.075,692.755 1329.093,697.585 1329.093,702.415 1329.075,707.245 1329.037,712.075 1328.981,716.904 1328.906,721.734 1328.812,726.564 1328.699,731.394 1328.568,736.224 1328.418,741.054 1328.249,745.883 1328.061,750.713 1327.855,755.543 1327.629,760.373 1327.385,765.203 1327.122,770.032 1326.84,774.862 1326.54,779.692 1326.22,784.522 1325.881,789.352 1325.524,794.182 1325.148,799.011 1324.752,803.841 1324.338,808.671 1323.905,813.501 1323.453,818.331 1322.982,823.161 1322.491,827.99 1321.982,832.82 1321.454,837.65 1320.906,842.48 1320.34,847.31 1319.754,852.139 1319.149,856.969 1318.525,861.799 1317.881,866.629 1317.219,871.459 1316.537,876.289 1315.835,881.118 1315.115,885.948 1314.374,890.778 1313.615,895.608 1312.836,900.438 1312.037,905.268 1311.219,910.097 1310.381,914.927 1309.524,919.757 1308.647,924.587 1307.75,929.417 1306.834,934.246 1305.898,939.076 "/>
        </g>
    </g>
    <g>
        <title>element</title>
        <polyline fill="none" stroke="#7f7fff"
                  points="1814.051,144.444 1814.051,155.668 1814.051,166.891 1814.051,178.114 1814.051,189.338 1814.051,200.561 1814.051,211.785 1814.051,223.008 1814.051,234.231 1814.051,245.455 1814.051,256.678 1814.051,267.901 1814.051,279.125 1814.051,290.348 1814.051,301.571 1814.051,312.795 1814.051,324.018 1814.051,335.241 1814.051,346.465 1814.051,357.688 1814.051,368.911 1814.051,380.135 1814.051,391.358 1814.051,402.581 1814.051,413.805 1814.051,425.028 1814.051,436.251 1814.051,447.475 1814.051,458.698 1814.051,469.921 1814.051,481.145 1814.051,492.368 1814.051,503.591 1814.051,514.815 1814.051,526.038 1814.051,537.262 1814.051,548.485 1814.051,559.708 1814.051,570.932 1814.051,582.155 1814.051,593.378 1814.051,604.602 1814.051,615.825 1814.051,627.048 1814.051,638.272 1814.051,649.495 1814.051,660.718 1814.051,671.942 1814.051,683.165 1814.051,694.388 1814.051,705.612 1814.051,716.835 1814.051,728.058 1814.051,739.282 1814.051,750.505 1814.051,761.728 1814.051,772.952 1814.051,784.175 1814.051,795.398 1814.051,806.622 1814.051,817.845 1814.051,829.068 1814.051,840.292 1814.051,851.515 1814.051,862.738 1814.051,873.962 1814.051,885.185 1814.051,896.409 1814.051,907.632 1814.051,918.855 1814.051,930.079 1814.051,941.302 1814.051,952.525 1814.051,963.749 1814.051,974.972 1814.051,986.195 1814.051,997.419 1814.051,1008.642 1814.051,1019.865 1814.051,1031.089 1814.051,1042.312 1814.051,1053.535 1814.051,1064.759 1814.051,1075.982 1814.051,1087.205 1814.051,1098.429 1814.051,1109.652 1814.051,1120.875 1814.051,1132.099 1814.051,1143.322 1814.051,1154.545 1814.051,1165.769 1814.051,1176.992 1814.051,1188.215 1814.051,1199.439 1814.051,1210.662 1814.051,1221.886 1814.051,1233.109 1814.051,1244.332 1814.051,1255.556 "/>
    </g>
</svg>
