<?xml version="1.0" standalone="no"?>
<svg width="2400px" height="1400px" version="1.1" xmlns="http://www.w3.org/2000/svg"
>
    <rect x="0" y="0" width="2400" height="1400" fill="#ffffff"/>
    <defs>
        <g id="dot">
            <line x1="1" y1="1" x2="0" y2="0"/>
        </g>
        <g id="cross">
            <line x1="-3" y1="0" x2="3" y2="0"/>
            <line x1="0" y1="-3" x2="0" y2="3"/>
        </g>
        <g id="square">
            <line x1="-3" y1="-3" x2="-3" y2="3"/>
            <line x1="-3" y1="3" x2="3" y2="3"/>
            <line x1="3" y1="3" x2="3" y2="-3"/>
            <line x1="3" y1="-3" x2="-3" y2="-3"/>
        </g>
        <g id="round">
            <ellipse cx="0" cy="0" rx="3" ry="3" fill="none"/>
        </g>
        <g id="triangle">
            <line x1="0" y1="-3" x2="-3" y2="3"/>
            <line x1="-3" y1="3" x2="3" y2="3"/>
            <line x1="0" y1="-3" x2="3" y2="3"/>
        </g>
    </defs>
    <line x1="686.51" y1="700" x2="1713.49" y2="700" stroke="#7f7f7f"/>
    <g>
        <title>element</title>
        <g>
            <line x1="1060.004" y1="539.357" x2="1060.004" y2="378.715" stroke="#7f7fff"/>
            <line x1="1060.004" y1="860.643" x2="1060.004" y2="1021.285" stroke="#7f7fff"/>
        </g>
        <g>
            <polyline fill="none" stroke="#7f7fff"
                      points="765.474,357.605 762.236,364.522 759.069,371.439 755.973,378.356 752.949,385.273 749.994,392.19 747.11,399.107 744.295,406.024 741.549,412.941 738.874,419.858 736.267,426.776 733.729,433.693 731.26,440.61 728.861,447.527 726.529,454.444 724.266,461.361 722.072,468.278 719.946,475.195 717.887,482.112 715.897,489.029 713.974,495.946 712.118,502.863 710.329,509.78 708.608,516.698 706.952,523.615 705.364,530.532 703.841,537.449 702.384,544.366 700.992,551.283 699.666,558.2 698.405,565.117 697.209,572.034 696.077,578.951 695.009,585.868 694.005,592.785 693.066,599.702 692.19,606.619 691.377,613.537 690.627,620.454 689.941,627.371 689.318,634.288 688.757,641.205 688.259,648.122 687.823,655.039 687.45,661.956 687.139,668.873 686.891,675.79 686.704,682.707 686.58,689.624 686.518,696.541 686.518,703.459 686.58,710.376 686.704,717.293 686.891,724.21 687.139,731.127 687.45,738.044 687.823,744.961 688.259,751.878 688.757,758.795 689.318,765.712 689.941,772.629 690.627,779.546 691.377,786.463 692.19,793.381 693.066,800.298 694.005,807.215 695.009,814.132 696.077,821.049 697.209,827.966 698.405,834.883 699.666,841.8 700.992,848.717 702.384,855.634 703.841,862.551 705.364,869.468 706.952,876.385 708.608,883.302 710.329,890.22 712.118,897.137 713.974,904.054 715.897,910.971 717.887,917.888 719.946,924.805 722.072,931.722 724.266,938.639 726.529,945.556 728.861,952.473 731.26,959.39 733.729,966.307 736.267,973.224 738.874,980.142 741.549,987.059 744.295,993.976 747.11,1000.893 749.994,1007.81 752.949,1014.727 755.973,1021.644 759.069,1028.561 762.236,1035.478 765.474,1042.395 "/>
            <line x1="765.474" y1="357.605" x2="792.744" y2="357.605" stroke="#7f7fff"/>
            <line x1="765.474" y1="1042.395" x2="792.744" y2="1042.395" stroke="#7f7fff"/>
            <polyline fill="none" stroke="#7f7fff"
                      points="792.744,357.605 791.973,364.522 791.218,371.439 790.479,378.356 789.755,385.273 789.048,392.19 788.356,399.107 787.681,406.024 787.021,412.941 786.377,419.858 785.749,426.776 785.137,433.693 784.54,440.61 783.96,447.527 783.395,454.444 782.846,461.361 782.312,468.278 781.795,475.195 781.293,482.112 780.807,489.029 780.337,495.946 779.883,502.863 779.444,509.78 779.021,516.698 778.613,523.615 778.222,530.532 777.846,537.449 777.486,544.366 777.141,551.283 776.813,558.2 776.5,565.117 776.202,572.034 775.92,578.951 775.654,585.868 775.404,592.785 775.169,599.702 774.95,606.619 774.747,613.537 774.559,620.454 774.387,627.371 774.231,634.288 774.09,641.205 773.965,648.122 773.855,655.039 773.761,661.956 773.683,668.873 773.621,675.79 773.574,682.707 773.542,689.624 773.527,696.541 773.527,703.459 773.542,710.376 773.574,717.293 773.621,724.21 773.683,731.127 773.761,738.044 773.855,744.961 773.965,751.878 774.09,758.795 774.231,765.712 774.387,772.629 774.559,779.546 774.747,786.463 774.95,793.381 775.169,800.298 775.404,807.215 775.654,814.132 775.92,821.049 776.202,827.966 776.5,834.883 776.813,841.8 777.141,848.717 777.486,855.634 777.846,862.551 778.222,869.468 778.613,876.385 779.021,883.302 779.444,890.22 779.883,897.137 780.337,904.054 780.807,910.971 781.293,917.888 781.795,924.805 782.312,931.722 782.846,938.639 783.395,945.556 783.96,952.473 784.54,959.39 785.137,966.307 785.749,973.224 786.377,980.142 787.021,987.059 787.681,993.976 788.356,1000.893 789.048,1007.81 789.755,1014.727 790.479,1021.644 791.218,1028.561 791.973,1035.478 792.744,1042.395 "/>
        </g>
        <g>
            <polyline fill="none" stroke="#7f7fff"
                      points="922.298,398.152 914.785,404.25 907.642,410.347 900.837,416.445 894.345,422.543 888.144,428.641 882.213,434.739 876.537,440.837 871.1,446.935 865.89,453.033 860.893,459.131 856.1,465.229 851.502,471.327 847.089,477.425 842.854,483.523 838.79,489.621 834.891,495.719 831.15,501.817 827.563,507.915 824.124,514.013 820.83,520.111 817.675,526.208 814.656,532.306 811.77,538.404 809.013,544.502 806.383,550.6 803.875,556.698 801.489,562.796 799.221,568.894 797.069,574.992 795.032,581.09 793.107,587.188 791.292,593.286 789.587,599.384 787.989,605.482 786.497,611.58 785.109,617.678 783.826,623.776 782.645,629.874 781.566,635.972 780.587,642.069 779.708,648.167 778.929,654.265 778.249,660.363 777.666,666.461 777.182,672.559 776.794,678.657 776.504,684.755 776.311,690.853 776.214,696.951 776.214,703.049 776.311,709.147 776.504,715.245 776.794,721.343 777.182,727.441 777.666,733.539 778.249,739.637 778.929,745.735 779.708,751.833 780.587,757.931 781.566,764.028 782.645,770.126 783.826,776.224 785.109,782.322 786.497,788.42 787.989,794.518 789.587,800.616 791.292,806.714 793.107,812.812 795.032,818.91 797.069,825.008 799.221,831.106 801.489,837.204 803.875,843.302 806.383,849.4 809.013,855.498 811.77,861.596 814.656,867.694 817.675,873.792 820.83,879.889 824.124,885.987 827.563,892.085 831.15,898.183 834.891,904.281 838.79,910.379 842.854,916.477 847.089,922.575 851.502,928.673 856.1,934.771 860.893,940.869 865.89,946.967 871.1,953.065 876.537,959.163 882.213,965.261 888.144,971.359 894.345,977.457 900.837,983.555 907.642,989.653 914.785,995.75 922.298,1001.848 "/>
            <line x1="922.298" y1="372.343" x2="922.298" y2="398.152" stroke="#7f7fff"/>
            <line x1="922.298" y1="372.343" x2="960.763" y2="372.343" stroke="#7f7fff"/>
            <line x1="922.298" y1="1027.657" x2="922.298" y2="1001.848" stroke="#7f7fff"/>
            <line x1="922.298" y1="1027.657" x2="960.763" y2="1027.657" stroke="#7f7fff"/>
            <polyline fill="none" stroke="#7f7fff"
                      points="960.763,372.343 959.418,378.963 958.102,385.582 956.814,392.201 955.555,398.821 954.324,405.44 953.121,412.059 951.947,418.679 950.8,425.298 949.682,431.917 948.592,438.537 947.529,445.156 946.495,451.775 945.488,458.394 944.51,465.014 943.559,471.633 942.636,478.252 941.74,484.872 940.872,491.491 940.032,498.11 939.219,504.73 938.433,511.349 937.675,517.968 936.945,524.588 936.242,531.207 935.566,537.826 934.917,544.446 934.296,551.065 933.702,557.684 933.135,564.304 932.595,570.923 932.083,577.542 931.597,584.162 931.139,590.781 930.708,597.4 930.304,604.02 929.927,610.639 929.576,617.258 929.253,623.878 928.957,630.497 928.688,637.116 928.446,643.736 928.231,650.355 928.042,656.974 927.881,663.594 927.746,670.213 927.639,676.832 927.558,683.452 927.504,690.071 927.477,696.69 927.477,703.31 927.504,709.929 927.558,716.548 927.639,723.168 927.746,729.787 927.881,736.406 928.042,743.026 928.231,749.645 928.446,756.264 928.688,762.884 928.957,769.503 929.253,776.122 929.576,782.742 929.927,789.361 930.304,795.98 930.708,802.6 931.139,809.219 931.597,815.838 932.083,822.458 932.595,829.077 933.135,835.696 933.702,842.316 934.296,848.935 934.917,855.554 935.566,862.174 936.242,868.793 936.945,875.412 937.675,882.032 938.433,888.651 939.219,895.27 940.032,901.89 940.872,908.509 941.74,915.128 942.636,921.748 943.559,928.367 944.51,934.986 945.488,941.606 946.495,948.225 947.529,954.844 948.592,961.463 949.682,968.083 950.8,974.702 951.947,981.321 953.121,987.941 954.324,994.56 955.555,1001.179 956.814,1007.799 958.102,1014.418 959.418,1021.037 960.763,1027.657 "/>
            <line x1="1048.883" y1="372.343" x2="1048.883" y2="513.227" stroke="#7f7fff"/>
            <line x1="960.763" y1="372.343" x2="1048.883" y2="372.343" stroke="#7f7fff"/>
            <line x1="1048.883" y1="1027.657" x2="1048.883" y2="886.773" stroke="#7f7fff"/>
            <line x1="960.763" y1="1027.657" x2="1048.883" y2="1027.657" stroke="#7f7fff"/>
            <polyline fill="none" stroke="#7f7fff"
                      points="1048.883,513.227 1043.996,517 1039.363,520.774 1034.962,524.547 1030.772,528.32 1026.778,532.093 1022.966,535.866 1019.323,539.64 1015.838,543.413 1012.503,547.186 1009.309,550.959 1006.248,554.732 1003.315,558.506 1000.502,562.279 997.805,566.052 995.219,569.825 992.739,573.598 990.362,577.371 988.083,581.145 985.901,584.918 983.81,588.691 981.81,592.464 979.896,596.237 978.068,600.011 976.322,603.784 974.656,607.557 973.069,611.33 971.559,615.103 970.125,618.876 968.764,622.65 967.476,626.423 966.26,630.196 965.113,633.969 964.035,637.742 963.026,641.516 962.084,645.289 961.208,649.062 960.397,652.835 959.652,656.608 958.971,660.382 958.353,664.155 957.799,667.928 957.307,671.701 956.877,675.474 956.51,679.247 956.204,683.021 955.96,686.794 955.777,690.567 955.655,694.34 955.594,698.113 955.594,701.887 955.655,705.66 955.777,709.433 955.96,713.206 956.204,716.979 956.51,720.753 956.877,724.526 957.307,728.299 957.799,732.072 958.353,735.845 958.971,739.618 959.652,743.392 960.397,747.165 961.208,750.938 962.084,754.711 963.026,758.484 964.035,762.258 965.113,766.031 966.26,769.804 967.476,773.577 968.764,777.35 970.125,781.124 971.559,784.897 973.069,788.67 974.656,792.443 976.322,796.216 978.068,799.989 979.896,803.763 981.81,807.536 983.81,811.309 985.901,815.082 988.083,818.855 990.362,822.629 992.739,826.402 995.219,830.175 997.805,833.948 1000.502,837.721 1003.315,841.494 1006.248,845.268 1009.309,849.041 1012.503,852.814 1015.838,856.587 1019.323,860.36 1022.966,864.134 1026.778,867.907 1030.772,871.68 1034.962,875.453 1039.363,879.226 1043.996,883 1048.883,886.773 "/>
        </g>
        <g>
            <polyline fill="none" stroke="#7f7fff"
                      points="1077.552,521.272 1080.173,524.883 1082.713,528.494 1085.175,532.104 1087.562,535.715 1089.875,539.326 1092.117,542.936 1094.289,546.547 1096.393,550.158 1098.431,553.768 1100.404,557.379 1102.313,560.99 1104.161,564.6 1105.948,568.211 1107.675,571.822 1109.344,575.432 1110.955,579.043 1112.511,582.654 1114.01,586.264 1115.456,589.875 1116.847,593.485 1118.186,597.096 1119.473,600.707 1120.708,604.317 1121.892,607.928 1123.026,611.539 1124.111,615.149 1125.147,618.76 1126.134,622.371 1127.073,625.981 1127.965,629.592 1128.809,633.203 1129.607,636.813 1130.359,640.424 1131.064,644.035 1131.724,647.645 1132.339,651.256 1132.909,654.867 1133.434,658.477 1133.914,662.088 1134.35,665.699 1134.742,669.309 1135.09,672.92 1135.394,676.531 1135.654,680.141 1135.871,683.752 1136.044,687.363 1136.174,690.973 1136.261,694.584 1136.304,698.195 1136.304,701.805 1136.261,705.416 1136.174,709.027 1136.044,712.637 1135.871,716.248 1135.654,719.859 1135.394,723.469 1135.09,727.08 1134.742,730.691 1134.35,734.301 1133.914,737.912 1133.434,741.523 1132.909,745.133 1132.339,748.744 1131.724,752.355 1131.064,755.965 1130.359,759.576 1129.607,763.187 1128.809,766.797 1127.965,770.408 1127.073,774.019 1126.134,777.629 1125.147,781.24 1124.111,784.851 1123.026,788.461 1121.892,792.072 1120.708,795.683 1119.473,799.293 1118.186,802.904 1116.847,806.515 1115.456,810.125 1114.01,813.736 1112.511,817.346 1110.955,820.957 1109.344,824.568 1107.675,828.178 1105.948,831.789 1104.161,835.4 1102.313,839.01 1100.404,842.621 1098.431,846.232 1096.393,849.842 1094.289,853.453 1092.117,857.064 1089.875,860.674 1087.562,864.285 1085.175,867.896 1082.713,871.506 1080.173,875.117 1077.552,878.728 "/>
            <line x1="1077.552" y1="458.393" x2="1077.552" y2="521.272" stroke="#7f7fff"/>
            <line x1="1077.552" y1="458.393" x2="1189.097" y2="458.393" stroke="#7f7fff"/>
            <line x1="1077.552" y1="941.607" x2="1077.552" y2="878.728" stroke="#7f7fff"/>
            <line x1="1077.552" y1="941.607" x2="1189.097" y2="941.607" stroke="#7f7fff"/>
            <polyline fill="none" stroke="#7f7fff"
                      points="1189.097,458.393 1187.793,463.274 1186.518,468.154 1185.272,473.035 1184.053,477.916 1182.863,482.797 1181.701,487.678 1180.566,492.559 1179.459,497.44 1178.38,502.321 1177.329,507.202 1176.305,512.083 1175.308,516.964 1174.339,521.845 1173.396,526.726 1172.481,531.607 1171.593,536.488 1170.732,541.369 1169.898,546.25 1169.09,551.131 1168.309,556.012 1167.555,560.893 1166.828,565.774 1166.127,570.655 1165.452,575.536 1164.804,580.417 1164.182,585.297 1163.587,590.178 1163.018,595.059 1162.475,599.94 1161.958,604.821 1161.467,609.702 1161.003,614.583 1160.564,619.464 1160.151,624.345 1159.765,629.226 1159.404,634.107 1159.069,638.988 1158.76,643.869 1158.477,648.75 1158.219,653.631 1157.988,658.512 1157.782,663.393 1157.602,668.274 1157.448,673.155 1157.319,678.036 1157.216,682.917 1157.139,687.798 1157.088,692.679 1157.062,697.56 1157.062,702.44 1157.088,707.321 1157.139,712.202 1157.216,717.083 1157.319,721.964 1157.448,726.845 1157.602,731.726 1157.782,736.607 1157.988,741.488 1158.219,746.369 1158.477,751.25 1158.76,756.131 1159.069,761.012 1159.404,765.893 1159.765,770.774 1160.151,775.655 1160.564,780.536 1161.003,785.417 1161.467,790.298 1161.958,795.179 1162.475,800.06 1163.018,804.941 1163.587,809.822 1164.182,814.703 1164.804,819.583 1165.452,824.464 1166.127,829.345 1166.828,834.226 1167.555,839.107 1168.309,843.988 1169.09,848.869 1169.898,853.75 1170.732,858.631 1171.593,863.512 1172.481,868.393 1173.396,873.274 1174.339,878.155 1175.308,883.036 1176.305,887.917 1177.329,892.798 1178.38,897.679 1179.459,902.56 1180.566,907.441 1181.701,912.322 1182.863,917.203 1184.053,922.084 1185.272,926.965 1186.518,931.846 1187.793,936.726 1189.097,941.607 "/>
            <line x1="1209.48" y1="458.393" x2="1209.48" y2="462.383" stroke="#7f7fff"/>
            <line x1="1189.097" y1="458.393" x2="1209.48" y2="458.393" stroke="#7f7fff"/>
            <line x1="1209.48" y1="941.607" x2="1209.48" y2="937.617" stroke="#7f7fff"/>
            <line x1="1189.097" y1="941.607" x2="1209.48" y2="941.607" stroke="#7f7fff"/>
            <polyline fill="none" stroke="#7f7fff"
                      points="1209.48,462.383 1212.468,467.183 1215.372,471.984 1218.195,476.784 1220.938,481.584 1223.602,486.385 1226.19,491.185 1228.703,495.985 1231.142,500.786 1233.508,505.586 1235.804,510.386 1238.029,515.187 1240.186,519.987 1242.275,524.787 1244.297,529.588 1246.254,534.388 1248.146,539.188 1249.974,543.989 1251.739,548.789 1253.442,553.589 1255.083,558.39 1256.664,563.19 1258.184,567.99 1259.646,572.791 1261.048,577.591 1262.392,582.392 1263.678,587.192 1264.907,591.992 1266.08,596.793 1267.196,601.593 1268.256,606.393 1269.261,611.194 1270.211,615.994 1271.106,620.794 1271.947,625.595 1272.734,630.395 1273.468,635.195 1274.147,639.996 1274.774,644.796 1275.347,649.596 1275.868,654.397 1276.336,659.197 1276.752,663.997 1277.115,668.798 1277.427,673.598 1277.686,678.398 1277.893,683.199 1278.048,687.999 1278.152,692.799 1278.204,697.6 1278.204,702.4 1278.152,707.201 1278.048,712.001 1277.893,716.801 1277.686,721.602 1277.427,726.402 1277.115,731.202 1276.752,736.003 1276.336,740.803 1275.868,745.603 1275.347,750.404 1274.774,755.204 1274.147,760.004 1273.468,764.805 1272.734,769.605 1271.947,774.405 1271.106,779.206 1270.211,784.006 1269.261,788.806 1268.256,793.607 1267.196,798.407 1266.08,803.207 1264.907,808.008 1263.678,812.808 1262.392,817.608 1261.048,822.409 1259.646,827.209 1258.184,832.01 1256.664,836.81 1255.083,841.61 1253.442,846.411 1251.739,851.211 1249.974,856.011 1248.146,860.812 1246.254,865.612 1244.297,870.412 1242.275,875.213 1240.186,880.013 1238.029,884.813 1235.804,889.614 1233.508,894.414 1231.142,899.214 1228.703,904.015 1226.19,908.815 1223.602,913.615 1220.938,918.416 1218.195,923.216 1215.372,928.016 1212.468,932.817 1209.48,937.617 "/>
        </g>
        <g>
            <polyline fill="none" stroke="#7f7fff"
                      points="1306.798,491.86 1305.662,496.065 1304.551,500.269 1303.464,504.474 1302.402,508.679 1301.364,512.884 1300.351,517.089 1299.362,521.294 1298.398,525.499 1297.457,529.703 1296.541,533.908 1295.648,538.113 1294.78,542.318 1293.935,546.523 1293.114,550.728 1292.316,554.933 1291.542,559.137 1290.792,563.342 1290.065,567.547 1289.361,571.752 1288.681,575.957 1288.024,580.162 1287.39,584.367 1286.779,588.571 1286.192,592.776 1285.627,596.981 1285.085,601.186 1284.566,605.391 1284.071,609.596 1283.598,613.801 1283.147,618.005 1282.72,622.21 1282.315,626.415 1281.933,630.62 1281.573,634.825 1281.236,639.03 1280.922,643.234 1280.63,647.439 1280.361,651.644 1280.115,655.849 1279.89,660.054 1279.689,664.259 1279.509,668.464 1279.353,672.668 1279.218,676.873 1279.106,681.078 1279.017,685.283 1278.95,689.488 1278.905,693.693 1278.882,697.898 1278.882,702.102 1278.905,706.307 1278.95,710.512 1279.017,714.717 1279.106,718.922 1279.218,723.127 1279.353,727.332 1279.509,731.536 1279.689,735.741 1279.89,739.946 1280.115,744.151 1280.361,748.356 1280.63,752.561 1280.922,756.766 1281.236,760.97 1281.573,765.175 1281.933,769.38 1282.315,773.585 1282.72,777.79 1283.147,781.995 1283.598,786.199 1284.071,790.404 1284.566,794.609 1285.085,798.814 1285.627,803.019 1286.192,807.224 1286.779,811.429 1287.39,815.633 1288.024,819.838 1288.681,824.043 1289.361,828.248 1290.065,832.453 1290.792,836.658 1291.542,840.863 1292.316,845.067 1293.114,849.272 1293.935,853.477 1294.78,857.682 1295.648,861.887 1296.541,866.092 1297.457,870.297 1298.398,874.501 1299.362,878.706 1300.351,882.911 1301.364,887.116 1302.402,891.321 1303.464,895.526 1304.551,899.731 1305.662,903.935 1306.798,908.14 "/>
            <line x1="1306.798" y1="491.86" x2="1329.245" y2="491.86" stroke="#7f7fff"/>
            <line x1="1306.798" y1="908.14" x2="1329.245" y2="908.14" stroke="#7f7fff"/>
            <polyline fill="none" stroke="#7f7fff"
                      points="1329.245,491.86 1330.332,496.065 1331.4,500.269 1332.449,504.474 1333.478,508.679 1334.487,512.884 1335.475,517.089 1336.442,521.294 1337.386,525.499 1338.309,529.703 1339.21,533.908 1340.089,538.113 1340.945,542.318 1341.779,546.523 1342.591,550.728 1343.381,554.933 1344.149,559.137 1344.896,563.342 1345.62,567.547 1346.323,571.752 1347.004,575.957 1347.663,580.162 1348.302,584.367 1348.919,588.571 1349.514,592.776 1350.089,596.981 1350.642,601.186 1351.173,605.391 1351.684,609.596 1352.172,613.801 1352.64,618.005 1353.085,622.21 1353.509,626.415 1353.911,630.62 1354.29,634.825 1354.647,639.03 1354.982,643.234 1355.294,647.439 1355.582,651.644 1355.848,655.849 1356.09,660.054 1356.309,664.259 1356.504,668.464 1356.675,672.668 1356.821,676.873 1356.944,681.078 1357.042,685.283 1357.116,689.488 1357.165,693.693 1357.19,697.898 1357.19,702.102 1357.165,706.307 1357.116,710.512 1357.042,714.717 1356.944,718.922 1356.821,723.127 1356.675,727.332 1356.504,731.536 1356.309,735.741 1356.09,739.946 1355.848,744.151 1355.582,748.356 1355.294,752.561 1354.982,756.766 1354.647,760.97 1354.29,765.175 1353.911,769.38 1353.509,773.585 1353.085,777.79 1352.64,781.995 1352.172,786.199 1351.684,790.404 1351.173,794.609 1350.642,798.814 1350.089,803.019 1349.514,807.224 1348.919,811.429 1348.302,815.633 1347.663,819.838 1347.004,824.043 1346.323,828.248 1345.62,832.453 1344.896,836.658 1344.149,840.863 1343.381,845.067 1342.591,849.272 1341.779,853.477 1340.945,857.682 1340.089,861.887 1339.21,866.092 1338.309,870.297 1337.386,874.501 1336.442,878.706 1335.475,882.911 1334.487,887.116 1333.478,891.321 1332.449,895.526 1331.4,899.731 1330.332,903.935 1329.245,908.14 "/>
        </g>
    </g>
    <g>
        <title>element</title>
        <polyline fill="none" stroke="#7f7fff"
                  points="1713.49,144.444 1713.49,155.668 1713.49,166.891 1713.49,178.114 1713.49,189.338 1713.49,200.561 1713.49,211.785 1713.49,223.008 1713.49,234.231 1713.49,245.455 1713.49,256.678 1713.49,267.901 1713.49,279.125 1713.49,290.348 1713.49,301.571 1713.49,312.795 1713.49,324.018 1713.49,335.241 1713.49,346.465 1713.49,357.688 1713.49,368.911 1713.49,380.135 1713.49,391.358 1713.49,402.581 1713.49,413.805 1713.49,425.028 1713.49,436.251 1713.49,447.475 1713.49,458.698 1713.49,469.921 1713.49,481.145 1713.49,492.368 1713.49,503.591 1713.49,514.815 1713.49,526.038 1713.49,537.262 1713.49,548.485 1713.49,559.708 1713.49,570.932 1713.49,582.155 1713.49,593.378 1713.49,604.602 1713.49,615.825 1713.49,627.048 1713.49,638.272 1713.49,649.495 1713.49,660.718 1713.49,671.942 1713.49,683.165 1713.49,694.388 1713.49,705.612 1713.49,716.835 1713.49,728.058 1713.49,739.282 1713.49,750.505 1713.49,761.728 1713.49,772.952 1713.49,784.175 1713.49,795.398 1713.49,806.622 1713.49,817.845 1713.49,829.068 1713.49,840.292 1713.49,851.515 1713.49,862.738 1713.49,873.962 1713.49,885.185 1713.49,896.409 1713.49,907.632 1713.49,918.855 1713.49,930.079 1713.49,941.302 1713.49,952.525 1713.49,963.749 1713.49,974.972 1713.49,986.195 1713.49,997.419 1713.49,1008.642 1713.49,1019.865 1713.49,1031.089 1713.49,1042.312 1713.49,1053.535 1713.49,1064.759 1713.49,1075.982 1713.49,1087.205 1713.49,1098.429 1713.49,1109.652 1713.49,1120.875 1713.49,1132.099 1713.49,1143.322 1713.49,1154.545 1713.49,1165.769 1713.49,1176.992 1713.49,1188.215 1713.49,1199.439 1713.49,1210.662 1713.49,1221.886 1713.49,1233.109 1713.49,1244.332 1713.49,1255.556 "/>
    </g>
</svg>
