<?xml version="1.0" standalone="no"?>
<svg width="2400px" height="1400px" version="1.1" xmlns="http://www.w3.org/2000/svg" xmlns:xlink="http://www.w3.org/1999/xlink">
<rect x="0" y="0" width="2400" height="1400"  fill="#ffffff" />
<defs>
<g id="dot">
<line x1="1" y1="1" x2="0" y2="0"  />
</g>
<g id="cross">
<line x1="-3" y1="0" x2="3" y2="0"  />
<line x1="0" y1="-3" x2="0" y2="3"  />
</g>
<g id="square">
<line x1="-3" y1="-3" x2="-3" y2="3"  />
<line x1="-3" y1="3" x2="3" y2="3"  />
<line x1="3" y1="3" x2="3" y2="-3"  />
<line x1="3" y1="-3" x2="-3" y2="-3"  />
</g>
<g id="round">
<ellipse cx="0" cy="0" rx="3" ry="3"  fill="none" /></g>
<g id="triangle">
<line x1="0" y1="-3" x2="-3" y2="3"  />
<line x1="-3" y1="3" x2="3" y2="3"  />
<line x1="0" y1="-3" x2="3" y2="3"  />
</g>
</defs>
<line x1="247.619" y1="700" x2="2152.381" y2="700"  stroke="#7f7f7f" />
<g><title>element</title>
<g>
<line x1="1284.942" y1="523.899" x2="1284.942" y2="347.798"  stroke="#7f7fff" />
<line x1="1284.942" y1="876.101" x2="1284.942" y2="1052.202"  stroke="#7f7fff" />
</g>
<g>
<polyline fill="none" stroke="#7f7fff" points="371.512,337.931 365.932,345.246 360.53,352.56 355.299,359.875 350.234,367.189 345.329,374.504 340.58,381.818 335.982,389.133 331.531,396.448 327.223,403.762 323.056,411.077 319.024,418.391 315.126,425.706 311.358,433.02 307.718,440.335 304.203,447.649 300.809,454.964 297.537,462.278 294.382,469.593 291.343,476.907 288.418,484.222 285.605,491.536 282.903,498.851 280.309,506.165 277.823,513.48 275.443,520.794 273.168,528.109 270.996,535.423 268.926,542.738 266.957,550.052 265.089,557.367 263.319,564.681 261.647,571.996 260.073,579.31 258.596,586.625 257.214,593.939 255.927,601.254 254.734,608.569 253.636,615.883 252.631,623.198 251.718,630.512 250.898,637.827 250.171,645.141 249.535,652.456 248.99,659.77 248.536,667.085 248.174,674.399 247.902,681.714 247.721,689.028 247.63,696.343 247.63,703.657 247.721,710.972 247.902,718.286 248.174,725.601 248.536,732.915 248.99,740.23 249.535,747.544 250.171,754.859 250.898,762.173 251.718,769.488 252.631,776.802 253.636,784.117 254.734,791.431 255.927,798.746 257.214,806.061 258.596,813.375 260.073,820.69 261.647,828.004 263.319,835.319 265.089,842.633 266.957,849.948 268.926,857.262 270.996,864.577 273.168,871.891 275.443,879.206 277.823,886.52 280.309,893.835 282.903,901.149 285.605,908.464 288.418,915.778 291.343,923.093 294.382,930.407 297.537,937.722 300.809,945.036 304.203,952.351 307.718,959.665 311.358,966.98 315.126,974.294 319.024,981.609 323.056,988.923 327.223,996.238 331.531,1003.552 335.982,1010.867 340.58,1018.182 345.329,1025.496 350.234,1032.811 355.299,1040.125 360.53,1047.44 365.932,1054.754 371.512,1062.069 " />
<line x1="429.425" y1="337.931" x2="429.425" y2="427.481"  stroke="#7f7fff" />
<line x1="371.512" y1="337.931" x2="429.425" y2="337.931"  stroke="#7f7fff" />
<line x1="429.425" y1="1062.069" x2="429.425" y2="972.519"  stroke="#7f7fff" />
<line x1="371.512" y1="1062.069" x2="429.425" y2="1062.069"  stroke="#7f7fff" />
<polyline fill="none" stroke="#7f7fff" points="429.425,427.481 420.171,432.986 411.584,438.491 403.568,443.997 396.051,449.502 388.976,455.008 382.296,460.513 375.975,466.019 369.979,471.524 364.283,477.03 358.863,482.535 353.702,488.04 348.781,493.546 344.086,499.051 339.604,504.557 335.323,510.062 331.234,515.568 327.327,521.073 323.594,526.579 320.028,532.084 316.622,537.589 313.37,543.095 310.267,548.6 307.308,554.106 304.487,559.611 301.801,565.117 299.247,570.622 296.82,576.128 294.518,581.633 292.337,587.138 290.275,592.644 288.329,598.149 286.498,603.655 284.778,609.16 283.169,614.666 281.668,620.171 280.273,625.677 278.984,631.182 277.799,636.687 276.717,642.193 275.736,647.698 274.856,653.204 274.076,658.709 273.395,664.215 272.813,669.72 272.328,675.226 271.941,680.731 271.651,686.236 271.458,691.742 271.361,697.247 271.361,702.753 271.458,708.258 271.651,713.764 271.941,719.269 272.328,724.774 272.813,730.28 273.395,735.785 274.076,741.291 274.856,746.796 275.736,752.302 276.717,757.807 277.799,763.313 278.984,768.818 280.273,774.323 281.668,779.829 283.169,785.334 284.778,790.84 286.498,796.345 288.329,801.851 290.275,807.356 292.337,812.862 294.518,818.367 296.82,823.872 299.247,829.378 301.801,834.883 304.487,840.389 307.308,845.894 310.267,851.4 313.37,856.905 316.622,862.411 320.028,867.916 323.594,873.421 327.327,878.927 331.234,884.432 335.323,889.938 339.604,895.443 344.086,900.949 348.781,906.454 353.702,911.96 358.863,917.465 364.283,922.97 369.979,928.476 375.975,933.981 382.296,939.487 388.976,944.992 396.051,950.498 403.568,956.003 411.584,961.509 420.171,967.014 429.425,972.519 " />
</g>
<g>
<polyline fill="none" stroke="#7f7fff" points="448.305,403.501 445.588,409.491 442.882,415.481 440.2,421.471 437.549,427.46 434.936,433.45 432.368,439.44 429.849,445.43 427.384,451.42 424.975,457.41 422.625,463.4 420.336,469.39 418.107,475.379 415.941,481.369 413.837,487.359 411.795,493.349 409.816,499.339 407.898,505.329 406.041,511.319 404.244,517.309 402.507,523.299 400.829,529.288 399.209,535.278 397.648,541.268 396.143,547.258 394.695,553.248 393.303,559.238 391.968,565.228 390.687,571.218 389.463,577.207 388.294,583.197 387.18,589.187 386.122,595.177 385.12,601.167 384.174,607.157 383.284,613.147 382.451,619.137 381.675,625.126 380.956,631.116 380.295,637.106 379.693,643.096 379.149,649.086 378.665,655.076 378.24,661.066 377.875,667.056 377.571,673.046 377.326,679.035 377.143,685.025 377.021,691.015 376.96,697.005 376.96,702.995 377.021,708.985 377.143,714.975 377.326,720.965 377.571,726.954 377.875,732.944 378.24,738.934 378.665,744.924 379.149,750.914 379.693,756.904 380.295,762.894 380.956,768.884 381.675,774.874 382.451,780.863 383.284,786.853 384.174,792.843 385.12,798.833 386.122,804.823 387.18,810.813 388.294,816.803 389.463,822.793 390.687,828.782 391.968,834.772 393.303,840.762 394.695,846.752 396.143,852.742 397.648,858.732 399.209,864.722 400.829,870.712 402.507,876.701 404.244,882.691 406.041,888.681 407.898,894.671 409.816,900.661 411.795,906.651 413.837,912.641 415.941,918.631 418.107,924.621 420.336,930.61 422.625,936.6 424.975,942.59 427.384,948.58 429.849,954.57 432.368,960.56 434.936,966.55 437.549,972.54 440.2,978.529 442.882,984.519 445.588,990.509 448.305,996.499 " />
<line x1="448.305" y1="403.501" x2="531.638" y2="403.501"  stroke="#7f7fff" />
<line x1="448.305" y1="996.499" x2="531.638" y2="996.499"  stroke="#7f7fff" />
<polyline fill="none" stroke="#7f7fff" points="531.638,403.501 529.035,409.491 526.102,415.481 522.892,421.471 519.457,427.46 515.841,433.45 512.085,439.44 508.226,445.43 504.295,451.42 500.32,457.41 496.325,463.4 492.332,469.39 488.358,475.379 484.42,481.369 480.53,487.359 476.698,493.349 472.935,499.339 469.248,505.329 465.642,511.319 462.124,517.309 458.698,523.299 455.366,529.288 452.133,535.278 449,541.268 445.97,547.258 443.044,553.248 440.224,559.238 437.511,565.228 434.906,571.218 432.412,577.207 430.027,583.197 427.755,589.187 425.595,595.177 423.549,601.167 421.618,607.157 419.802,613.147 418.102,619.137 416.52,625.126 415.056,631.116 413.711,637.106 412.486,643.096 411.381,649.086 410.398,655.076 409.536,661.066 408.796,667.056 408.179,673.046 407.684,679.035 407.313,685.025 407.066,691.015 406.942,697.005 406.942,702.995 407.066,708.985 407.313,714.975 407.684,720.965 408.179,726.954 408.796,732.944 409.536,738.934 410.398,744.924 411.381,750.914 412.486,756.904 413.711,762.894 415.056,768.884 416.52,774.874 418.102,780.863 419.802,786.853 421.618,792.843 423.549,798.833 425.595,804.823 427.755,810.813 430.027,816.803 432.412,822.793 434.906,828.782 437.511,834.772 440.224,840.762 443.044,846.752 445.97,852.742 449,858.732 452.133,864.722 455.366,870.712 458.698,876.701 462.124,882.691 465.642,888.681 469.248,894.671 472.935,900.661 476.698,906.651 480.53,912.641 484.42,918.631 488.358,924.621 492.332,930.61 496.325,936.6 500.32,942.59 504.295,948.58 508.226,954.57 512.085,960.56 515.841,966.55 519.457,972.54 522.892,978.529 526.102,984.519 529.035,990.509 531.638,996.499 " />
</g>
<g>
<polyline fill="none" stroke="#7f7fff" points="513.233,438.097 513.055,443.388 512.881,448.679 512.711,453.97 512.544,459.261 512.381,464.552 512.221,469.842 512.065,475.133 511.913,480.424 511.765,485.715 511.619,491.006 511.478,496.297 511.34,501.588 511.206,506.879 511.076,512.17 510.949,517.461 510.826,522.752 510.706,528.043 510.59,533.334 510.478,538.625 510.369,543.916 510.264,549.207 510.162,554.498 510.064,559.789 509.97,565.08 509.88,570.371 509.793,575.662 509.709,580.953 509.629,586.244 509.553,591.535 509.481,596.826 509.412,602.117 509.347,607.408 509.285,612.699 509.227,617.99 509.173,623.281 509.122,628.572 509.075,633.863 509.031,639.154 508.992,644.445 508.955,649.736 508.923,655.027 508.894,660.318 508.868,665.609 508.847,670.9 508.828,676.191 508.814,681.482 508.803,686.773 508.796,692.064 508.792,697.355 508.792,702.645 508.796,707.936 508.803,713.227 508.814,718.518 508.828,723.809 508.847,729.1 508.868,734.391 508.894,739.682 508.923,744.973 508.955,750.264 508.992,755.555 509.031,760.846 509.075,766.137 509.122,771.428 509.173,776.719 509.227,782.01 509.285,787.301 509.347,792.592 509.412,797.883 509.481,803.174 509.553,808.465 509.629,813.756 509.709,819.047 509.793,824.338 509.88,829.629 509.97,834.92 510.064,840.211 510.162,845.502 510.264,850.793 510.369,856.084 510.478,861.375 510.59,866.666 510.706,871.957 510.826,877.248 510.949,882.539 511.076,887.83 511.206,893.121 511.34,898.412 511.478,903.703 511.619,908.994 511.765,914.285 511.913,919.576 512.065,924.867 512.221,930.158 512.381,935.448 512.544,940.739 512.711,946.03 512.881,951.321 513.055,956.612 513.233,961.903 " />
<line x1="513.233" y1="438.097" x2="529.444" y2="438.097"  stroke="#7f7fff" />
<line x1="513.233" y1="961.903" x2="529.444" y2="961.903"  stroke="#7f7fff" />
<polyline fill="none" stroke="#7f7fff" points="529.444,438.097 530.237,443.388 531.014,448.679 531.774,453.97 532.518,459.261 533.245,464.552 533.956,469.842 534.65,475.133 535.328,480.424 535.99,485.715 536.635,491.006 537.264,496.297 537.876,501.588 538.472,506.879 539.052,512.17 539.616,517.461 540.163,522.752 540.694,528.043 541.209,533.334 541.707,538.625 542.19,543.916 542.656,549.207 543.106,554.498 543.539,559.789 543.957,565.08 544.358,570.371 544.744,575.662 545.113,580.953 545.466,586.244 545.803,591.535 546.123,596.826 546.428,602.117 546.717,607.408 546.989,612.699 547.246,617.99 547.486,623.281 547.711,628.572 547.919,633.863 548.111,639.154 548.287,644.445 548.447,649.736 548.592,655.027 548.72,660.318 548.832,665.609 548.928,670.9 549.008,676.191 549.072,681.482 549.12,686.773 549.152,692.064 549.168,697.355 549.168,702.645 549.152,707.936 549.12,713.227 549.072,718.518 549.008,723.809 548.928,729.1 548.832,734.391 548.72,739.682 548.592,744.973 548.447,750.264 548.287,755.555 548.111,760.846 547.919,766.137 547.711,771.428 547.486,776.719 547.246,782.01 546.989,787.301 546.717,792.592 546.428,797.883 546.123,803.174 545.803,808.465 545.466,813.756 545.113,819.047 544.744,824.338 544.358,829.629 543.957,834.92 543.539,840.211 543.106,845.502 542.656,850.793 542.19,856.084 541.707,861.375 541.209,866.666 540.694,871.957 540.163,877.248 539.616,882.539 539.052,887.83 538.472,893.121 537.876,898.412 537.264,903.703 536.635,908.994 535.99,914.285 535.328,919.576 534.65,924.867 533.956,930.158 533.245,935.448 532.518,940.739 531.774,946.03 531.014,951.321 530.237,956.612 529.444,961.903 " />
</g>
<g>
<polyline fill="none" stroke="#7f7fff" points="530.525,445.153 533.481,450.302 536.358,455.45 539.157,460.598 541.879,465.747 544.527,470.895 547.1,476.044 549.601,481.192 552.031,486.341 554.391,491.489 556.681,496.637 558.903,501.786 561.059,506.934 563.148,512.083 565.172,517.231 567.131,522.379 569.026,527.528 570.859,532.676 572.629,537.825 574.338,542.973 575.986,548.122 577.574,553.27 579.102,558.418 580.571,563.567 581.981,568.715 583.334,573.864 584.628,579.012 585.866,584.161 587.047,589.309 588.171,594.457 589.24,599.606 590.253,604.754 591.211,609.903 592.114,615.051 592.962,620.199 593.756,625.348 594.496,630.496 595.183,635.645 595.815,640.793 596.394,645.942 596.92,651.09 597.393,656.238 597.813,661.387 598.18,666.535 598.495,671.684 598.756,676.832 598.966,681.981 599.123,687.129 599.228,692.277 599.28,697.426 599.28,702.574 599.228,707.723 599.123,712.871 598.966,718.019 598.756,723.168 598.495,728.316 598.18,733.465 597.813,738.613 597.393,743.762 596.92,748.91 596.394,754.058 595.815,759.207 595.183,764.355 594.496,769.504 593.756,774.652 592.962,779.801 592.114,784.949 591.211,790.097 590.253,795.246 589.24,800.394 588.171,805.543 587.047,810.691 585.866,815.839 584.628,820.988 583.334,826.136 581.981,831.285 580.571,836.433 579.102,841.582 577.574,846.73 575.986,851.878 574.338,857.027 572.629,862.175 570.859,867.324 569.026,872.472 567.131,877.621 565.172,882.769 563.148,887.917 561.059,893.066 558.903,898.214 556.681,903.363 554.391,908.511 552.031,913.659 549.601,918.808 547.1,923.956 544.527,929.105 541.879,934.253 539.157,939.402 536.358,944.55 533.481,949.698 530.525,954.847 " />
<line x1="530.525" y1="428.23" x2="530.525" y2="445.153"  stroke="#7f7fff" />
<line x1="530.525" y1="428.23" x2="652.272" y2="428.23"  stroke="#7f7fff" />
<line x1="530.525" y1="971.77" x2="530.525" y2="954.847"  stroke="#7f7fff" />
<line x1="530.525" y1="971.77" x2="652.272" y2="971.77"  stroke="#7f7fff" />
<polyline fill="none" stroke="#7f7fff" points="652.272,428.23 650.985,433.72 649.726,439.211 648.494,444.701 647.29,450.191 646.113,455.681 644.964,461.172 643.842,466.662 642.747,472.152 641.679,477.643 640.638,483.133 639.623,488.623 638.636,494.114 637.676,499.604 636.742,505.094 635.835,510.585 634.955,516.075 634.101,521.565 633.273,527.055 632.472,532.546 631.697,538.036 630.949,543.526 630.227,549.017 629.531,554.507 628.861,559.997 628.218,565.488 627.6,570.978 627.009,576.468 626.443,581.958 625.904,587.449 625.39,592.939 624.902,598.429 624.44,603.92 624.004,609.41 623.594,614.9 623.21,620.391 622.851,625.881 622.518,631.371 622.21,636.862 621.929,642.352 621.673,647.842 621.443,653.332 621.238,658.823 621.059,664.313 620.905,669.803 620.777,675.294 620.675,680.784 620.598,686.274 620.547,691.765 620.522,697.255 620.522,702.745 620.547,708.235 620.598,713.726 620.675,719.216 620.777,724.706 620.905,730.197 621.059,735.687 621.238,741.177 621.443,746.668 621.673,752.158 621.929,757.648 622.21,763.138 622.518,768.629 622.851,774.119 623.21,779.609 623.594,785.1 624.004,790.59 624.44,796.08 624.902,801.571 625.39,807.061 625.904,812.551 626.443,818.042 627.009,823.532 627.6,829.022 628.218,834.512 628.861,840.003 629.531,845.493 630.227,850.983 630.949,856.474 631.697,861.964 632.472,867.454 633.273,872.945 634.101,878.435 634.955,883.925 635.835,889.415 636.742,894.906 637.676,900.396 638.636,905.886 639.623,911.377 640.638,916.867 641.679,922.357 642.747,927.848 643.842,933.338 644.964,938.828 646.113,944.319 647.29,949.809 648.494,955.299 649.726,960.789 650.985,966.28 652.272,971.77 " />
<line x1="652.272" y1="428.23" x2="660.163" y2="428.23"  stroke="#7f7fff" />
<line x1="652.272" y1="971.77" x2="660.163" y2="971.77"  stroke="#7f7fff" />
<polyline fill="none" stroke="#7f7fff" points="660.163,428.23 661.923,433.72 663.644,439.211 665.325,444.701 666.968,450.191 668.571,455.681 670.136,461.172 671.663,466.662 673.152,472.152 674.602,477.643 676.015,483.133 677.391,488.623 678.729,494.114 680.029,499.604 681.293,505.094 682.52,510.585 683.71,516.075 684.863,521.565 685.981,527.055 687.061,532.546 688.106,538.036 689.115,543.526 690.087,549.017 691.024,554.507 691.926,559.997 692.791,565.488 693.622,570.978 694.417,576.468 695.177,581.958 695.901,587.449 696.591,592.939 697.245,598.429 697.865,603.92 698.45,609.41 699,614.9 699.515,620.391 699.996,625.881 700.442,631.371 700.854,636.862 701.231,642.352 701.574,647.842 701.882,653.332 702.156,658.823 702.396,664.313 702.601,669.803 702.772,675.294 702.909,680.784 703.012,686.274 703.08,691.765 703.114,697.255 703.114,702.745 703.08,708.235 703.012,713.726 702.909,719.216 702.772,724.706 702.601,730.197 702.396,735.687 702.156,741.177 701.882,746.668 701.574,752.158 701.231,757.648 700.854,763.138 700.442,768.629 699.996,774.119 699.515,779.609 699,785.1 698.45,790.59 697.865,796.08 697.245,801.571 696.591,807.061 695.901,812.551 695.177,818.042 694.417,823.532 693.622,829.022 692.791,834.512 691.926,840.003 691.024,845.493 690.087,850.983 689.115,856.474 688.106,861.964 687.061,867.454 685.981,872.945 684.863,878.435 683.71,883.925 682.52,889.415 681.293,894.906 680.029,900.396 678.729,905.886 677.391,911.377 676.015,916.867 674.602,922.357 673.152,927.848 671.663,933.338 670.136,938.828 668.571,944.319 666.968,949.809 665.325,955.299 663.644,960.789 661.923,966.28 660.163,971.77 " />
</g>
<g>
<polyline fill="none" stroke="#7f7fff" points="676.181,447.089 678.59,452.198 680.94,457.308 683.231,462.417 685.463,467.526 687.639,472.636 689.757,477.745 691.819,482.854 693.826,487.964 695.778,493.073 697.676,498.182 699.52,503.291 701.311,508.401 703.049,513.51 704.735,518.619 706.37,523.729 707.953,528.838 709.485,533.947 710.967,539.057 712.399,544.166 713.781,549.275 715.114,554.385 716.398,559.494 717.633,564.603 718.82,569.713 719.96,574.822 721.051,579.931 722.095,585.04 723.092,590.15 724.042,595.259 724.945,600.368 725.802,605.478 726.613,610.587 727.377,615.696 728.096,620.806 728.769,625.915 729.396,631.024 729.978,636.134 730.515,641.243 731.006,646.352 731.453,651.462 731.854,656.571 732.211,661.68 732.523,666.789 732.79,671.899 733.012,677.008 733.19,682.117 733.324,687.227 733.413,692.336 733.457,697.445 733.457,702.555 733.413,707.664 733.324,712.773 733.19,717.883 733.012,722.992 732.79,728.101 732.523,733.211 732.211,738.32 731.854,743.429 731.453,748.538 731.006,753.648 730.515,758.757 729.978,763.866 729.396,768.976 728.769,774.085 728.096,779.194 727.377,784.304 726.613,789.413 725.802,794.522 724.945,799.632 724.042,804.741 723.092,809.85 722.095,814.96 721.051,820.069 719.96,825.178 718.82,830.287 717.633,835.397 716.398,840.506 715.114,845.615 713.781,850.725 712.399,855.834 710.967,860.943 709.485,866.053 707.953,871.162 706.37,876.271 704.735,881.381 703.049,886.49 701.311,891.599 699.52,896.709 697.676,901.818 695.778,906.927 693.826,912.036 691.819,917.146 689.757,922.255 687.639,927.364 685.463,932.474 683.231,937.583 680.94,942.692 678.59,947.802 676.181,952.911 " />
<line x1="676.181" y1="439.346" x2="676.181" y2="447.089"  stroke="#7f7fff" />
<line x1="676.181" y1="439.346" x2="848.426" y2="439.346"  stroke="#7f7fff" />
<line x1="676.181" y1="960.654" x2="676.181" y2="952.911"  stroke="#7f7fff" />
<line x1="676.181" y1="960.654" x2="848.426" y2="960.654"  stroke="#7f7fff" />
<polyline fill="none" stroke="#7f7fff" points="848.426,439.346 844.002,444.611 839.729,449.877 835.601,455.143 831.611,460.409 827.756,465.674 824.03,470.94 820.429,476.206 816.949,481.472 813.586,486.737 810.337,492.003 807.198,497.269 804.167,502.535 801.241,507.8 798.417,513.066 795.693,518.332 793.067,523.598 790.536,528.863 788.098,534.129 785.752,539.395 783.496,544.66 781.328,549.926 779.247,555.192 777.251,560.458 775.339,565.723 773.509,570.989 771.761,576.255 770.094,581.521 768.505,586.786 766.995,592.052 765.562,597.318 764.206,602.584 762.925,607.849 761.72,613.115 760.588,618.381 759.531,623.647 758.546,628.912 757.634,634.178 756.794,639.444 756.026,644.71 755.329,649.975 754.702,655.241 754.146,660.507 753.66,665.773 753.244,671.038 752.898,676.304 752.621,681.57 752.413,686.836 752.275,692.101 752.206,697.367 752.206,702.633 752.275,707.899 752.413,713.164 752.621,718.43 752.898,723.696 753.244,728.962 753.66,734.227 754.146,739.493 754.702,744.759 755.329,750.025 756.026,755.29 756.794,760.556 757.634,765.822 758.546,771.088 759.531,776.353 760.588,781.619 761.72,786.885 762.925,792.151 764.206,797.416 765.562,802.682 766.995,807.948 768.505,813.214 770.094,818.479 771.761,823.745 773.509,829.011 775.339,834.277 777.251,839.542 779.247,844.808 781.328,850.074 783.496,855.34 785.752,860.605 788.098,865.871 790.536,871.137 793.067,876.402 795.693,881.668 798.417,886.934 801.241,892.2 804.167,897.465 807.198,902.731 810.337,907.997 813.586,913.263 816.949,918.528 820.429,923.794 824.03,929.06 827.756,934.326 831.611,939.591 835.601,944.857 839.729,950.123 844.002,955.389 848.426,960.654 " />
<line x1="848.426" y1="439.346" x2="855.536" y2="439.346"  stroke="#7f7fff" />
<line x1="848.426" y1="960.654" x2="855.536" y2="960.654"  stroke="#7f7fff" />
<polyline fill="none" stroke="#7f7fff" points="855.536,439.346 855.736,444.611 855.932,449.877 856.124,455.143 856.312,460.409 856.495,465.674 856.675,470.94 856.85,476.206 857.022,481.472 857.189,486.737 857.352,492.003 857.512,497.269 857.667,502.535 857.818,507.8 857.965,513.066 858.107,518.332 858.246,523.598 858.381,528.863 858.511,534.129 858.638,539.395 858.76,544.66 858.879,549.926 858.993,555.192 859.103,560.458 859.209,565.723 859.311,570.989 859.409,576.255 859.503,581.521 859.593,586.786 859.678,592.052 859.76,597.318 859.837,602.584 859.911,607.849 859.98,613.115 860.045,618.381 860.107,623.647 860.164,628.912 860.217,634.178 860.266,639.444 860.311,644.71 860.351,649.975 860.388,655.241 860.421,660.507 860.449,665.773 860.474,671.038 860.494,676.304 860.51,681.57 860.523,686.836 860.531,692.101 860.535,697.367 860.535,702.633 860.531,707.899 860.523,713.164 860.51,718.43 860.494,723.696 860.474,728.962 860.449,734.227 860.421,739.493 860.388,744.759 860.351,750.025 860.311,755.29 860.266,760.556 860.217,765.822 860.164,771.088 860.107,776.353 860.045,781.619 859.98,786.885 859.911,792.151 859.837,797.416 859.76,802.682 859.678,807.948 859.593,813.214 859.503,818.479 859.409,823.745 859.311,829.011 859.209,834.277 859.103,839.542 858.993,844.808 858.879,850.074 858.76,855.34 858.638,860.605 858.511,865.871 858.381,871.137 858.246,876.402 858.107,881.668 857.965,886.934 857.818,892.2 857.667,897.465 857.512,902.731 857.352,907.997 857.189,913.263 857.022,918.528 856.85,923.794 856.675,929.06 856.495,934.326 856.312,939.591 856.124,944.857 855.932,950.123 855.736,955.389 855.536,960.654 " />
</g>
<g>
<polyline fill="none" stroke="#7f7fff" points="915.869,424.858 913.706,430.416 911.593,435.975 909.531,441.533 907.519,447.092 905.556,452.65 903.641,458.208 901.775,463.767 899.958,469.325 898.188,474.884 896.465,480.442 894.789,486.001 893.161,491.559 891.578,497.117 890.042,502.676 888.551,508.234 887.106,513.793 885.706,519.351 884.351,524.91 883.041,530.468 881.775,536.026 880.554,541.585 879.377,547.143 878.243,552.702 877.153,558.26 876.107,563.819 875.103,569.377 874.143,574.935 873.226,580.494 872.352,586.052 871.52,591.611 870.73,597.169 869.983,602.728 869.278,608.286 868.616,613.844 867.995,619.403 867.416,624.961 866.878,630.52 866.383,636.078 865.929,641.637 865.516,647.195 865.145,652.753 864.816,658.312 864.527,663.87 864.28,669.429 864.074,674.987 863.91,680.546 863.786,686.104 863.704,691.662 863.663,697.221 863.663,702.779 863.704,708.338 863.786,713.896 863.91,719.454 864.074,725.013 864.28,730.571 864.527,736.13 864.816,741.688 865.145,747.247 865.516,752.805 865.929,758.363 866.383,763.922 866.878,769.48 867.416,775.039 867.995,780.597 868.616,786.156 869.278,791.714 869.983,797.272 870.73,802.831 871.52,808.389 872.352,813.948 873.226,819.506 874.143,825.065 875.103,830.623 876.107,836.181 877.153,841.74 878.243,847.298 879.377,852.857 880.554,858.415 881.775,863.974 883.041,869.532 884.351,875.09 885.706,880.649 887.106,886.207 888.551,891.766 890.042,897.324 891.578,902.883 893.161,908.441 894.789,913.999 896.465,919.558 898.188,925.116 899.958,930.675 901.775,936.233 903.641,941.792 905.556,947.35 907.519,952.908 909.531,958.467 911.593,964.025 913.706,969.584 915.869,975.142 " />
<line x1="915.869" y1="424.858" x2="925.251" y2="424.858"  stroke="#7f7fff" />
<line x1="915.869" y1="975.142" x2="925.251" y2="975.142"  stroke="#7f7fff" />
<polyline fill="none" stroke="#7f7fff" points="925.251,424.858 926.566,430.416 927.853,435.975 929.112,441.533 930.343,447.092 931.545,452.65 932.72,458.208 933.867,463.767 934.986,469.325 936.078,474.884 937.142,480.442 938.178,486.001 939.187,491.559 940.168,497.117 941.123,502.676 942.05,508.234 942.949,513.793 943.822,519.351 944.667,524.91 945.486,530.468 946.278,536.026 947.042,541.585 947.78,547.143 948.491,552.702 949.176,558.26 949.833,563.819 950.464,569.377 951.068,574.935 951.646,580.494 952.198,586.052 952.722,591.611 953.221,597.169 953.693,602.728 954.138,608.286 954.557,613.844 954.95,619.403 955.317,624.961 955.657,630.52 955.971,636.078 956.259,641.637 956.52,647.195 956.755,652.753 956.964,658.312 957.147,663.87 957.304,669.429 957.435,674.987 957.539,680.546 957.618,686.104 957.67,691.662 957.696,697.221 957.696,702.779 957.67,708.338 957.618,713.896 957.539,719.454 957.435,725.013 957.304,730.571 957.147,736.13 956.964,741.688 956.755,747.247 956.52,752.805 956.259,758.363 955.971,763.922 955.657,769.48 955.317,775.039 954.95,780.597 954.557,786.156 954.138,791.714 953.693,797.272 953.221,802.831 952.722,808.389 952.198,813.948 951.646,819.506 951.068,825.065 950.464,830.623 949.833,836.181 949.176,841.74 948.491,847.298 947.78,852.857 947.042,858.415 946.278,863.974 945.486,869.532 944.667,875.09 943.822,880.649 942.949,886.207 942.05,891.766 941.123,897.324 940.168,902.883 939.187,908.441 938.178,913.999 937.142,919.558 936.078,925.116 934.986,930.675 933.867,936.233 932.72,941.792 931.545,947.35 930.343,952.908 929.112,958.467 927.853,964.025 926.566,969.584 925.251,975.142 " />
</g>
<g>
<polyline fill="none" stroke="#7f7fff" points="1085.631,437.722 1083.981,443.02 1082.368,448.319 1080.791,453.618 1079.251,458.916 1077.747,464.215 1076.279,469.513 1074.847,474.812 1073.451,480.11 1072.09,485.409 1070.764,490.707 1069.473,496.006 1068.218,501.305 1066.997,506.603 1065.811,511.902 1064.66,517.2 1063.542,522.499 1062.459,527.797 1061.411,533.096 1060.396,538.394 1059.415,543.693 1058.468,548.991 1057.554,554.29 1056.674,559.589 1055.828,564.887 1055.015,570.186 1054.235,575.484 1053.488,580.783 1052.774,586.081 1052.094,591.38 1051.446,596.678 1050.831,601.977 1050.249,607.275 1049.699,612.574 1049.182,617.873 1048.698,623.171 1048.246,628.47 1047.827,633.768 1047.44,639.067 1047.086,644.365 1046.764,649.664 1046.474,654.962 1046.216,660.261 1045.991,665.559 1045.798,670.858 1045.637,676.157 1045.508,681.455 1045.412,686.754 1045.348,692.052 1045.316,697.351 1045.316,702.649 1045.348,707.948 1045.412,713.246 1045.508,718.545 1045.637,723.843 1045.798,729.142 1045.991,734.441 1046.216,739.739 1046.474,745.038 1046.764,750.336 1047.086,755.635 1047.44,760.933 1047.827,766.232 1048.246,771.53 1048.698,776.829 1049.182,782.127 1049.699,787.426 1050.249,792.725 1050.831,798.023 1051.446,803.322 1052.094,808.62 1052.774,813.919 1053.488,819.217 1054.235,824.516 1055.015,829.814 1055.828,835.113 1056.674,840.411 1057.554,845.71 1058.468,851.009 1059.415,856.307 1060.396,861.606 1061.411,866.904 1062.459,872.203 1063.542,877.501 1064.66,882.8 1065.811,888.098 1066.997,893.397 1068.218,898.695 1069.473,903.994 1070.764,909.293 1072.09,914.591 1073.451,919.89 1074.847,925.188 1076.279,930.487 1077.747,935.785 1079.251,941.084 1080.791,946.382 1082.368,951.681 1083.981,956.98 1085.631,962.278 " />
<line x1="1085.631" y1="437.722" x2="1096.67" y2="437.722"  stroke="#7f7fff" />
<line x1="1085.631" y1="962.278" x2="1096.67" y2="962.278"  stroke="#7f7fff" />
<polyline fill="none" stroke="#7f7fff" points="1096.67,437.722 1096.791,443.02 1096.911,448.319 1097.028,453.618 1097.142,458.916 1097.254,464.215 1097.363,469.513 1097.47,474.812 1097.575,480.11 1097.677,485.409 1097.776,490.707 1097.873,496.006 1097.967,501.305 1098.059,506.603 1098.149,511.902 1098.236,517.2 1098.321,522.499 1098.403,527.797 1098.482,533.096 1098.559,538.394 1098.634,543.693 1098.706,548.991 1098.775,554.29 1098.843,559.589 1098.907,564.887 1098.969,570.186 1099.029,575.484 1099.086,580.783 1099.141,586.081 1099.193,591.38 1099.243,596.678 1099.29,601.977 1099.335,607.275 1099.377,612.574 1099.417,617.873 1099.454,623.171 1099.489,628.47 1099.521,633.768 1099.551,639.067 1099.578,644.365 1099.603,649.664 1099.626,654.962 1099.646,660.261 1099.663,665.559 1099.678,670.858 1099.69,676.157 1099.7,681.455 1099.708,686.754 1099.713,692.052 1099.715,697.351 1099.715,702.649 1099.713,707.948 1099.708,713.246 1099.7,718.545 1099.69,723.843 1099.678,729.142 1099.663,734.441 1099.646,739.739 1099.626,745.038 1099.603,750.336 1099.578,755.635 1099.551,760.933 1099.521,766.232 1099.489,771.53 1099.454,776.829 1099.417,782.127 1099.377,787.426 1099.335,792.725 1099.29,798.023 1099.243,803.322 1099.193,808.62 1099.141,813.919 1099.086,819.217 1099.029,824.516 1098.969,829.814 1098.907,835.113 1098.843,840.411 1098.775,845.71 1098.706,851.009 1098.634,856.307 1098.559,861.606 1098.482,866.904 1098.403,872.203 1098.321,877.501 1098.236,882.8 1098.149,888.098 1098.059,893.397 1097.967,898.695 1097.873,903.994 1097.776,909.293 1097.677,914.591 1097.575,919.89 1097.47,925.188 1097.363,930.487 1097.254,935.785 1097.142,941.084 1097.028,946.382 1096.911,951.681 1096.791,956.98 1096.67,962.278 " />
</g>
<g>
<polyline fill="none" stroke="#7f7fff" points="1119.418,447.089 1118.504,452.198 1117.704,457.308 1116.994,462.417 1116.354,467.526 1115.769,472.636 1115.225,477.745 1114.712,482.854 1114.221,487.964 1113.747,493.073 1113.283,498.182 1112.828,503.291 1112.377,508.401 1111.929,513.51 1111.484,518.619 1111.04,523.729 1110.597,528.838 1110.157,533.947 1109.719,539.057 1109.284,544.166 1108.853,549.275 1108.428,554.385 1108.008,559.494 1107.595,564.603 1107.19,569.713 1106.794,574.822 1106.408,579.931 1106.033,585.04 1105.669,590.15 1105.317,595.259 1104.978,600.368 1104.653,605.478 1104.342,610.587 1104.045,615.696 1103.764,620.806 1103.499,625.915 1103.249,631.024 1103.016,636.134 1102.8,641.243 1102.601,646.352 1102.419,651.462 1102.255,656.571 1102.108,661.68 1101.979,666.789 1101.869,671.899 1101.776,677.008 1101.702,682.117 1101.647,687.227 1101.61,692.336 1101.591,697.445 1101.591,702.555 1101.61,707.664 1101.647,712.773 1101.702,717.883 1101.776,722.992 1101.869,728.101 1101.979,733.211 1102.108,738.32 1102.255,743.429 1102.419,748.538 1102.601,753.648 1102.8,758.757 1103.016,763.866 1103.249,768.976 1103.499,774.085 1103.764,779.194 1104.045,784.304 1104.342,789.413 1104.653,794.522 1104.978,799.632 1105.317,804.741 1105.669,809.85 1106.033,814.96 1106.408,820.069 1106.794,825.178 1107.19,830.287 1107.595,835.397 1108.008,840.506 1108.428,845.615 1108.853,850.725 1109.284,855.834 1109.719,860.943 1110.157,866.053 1110.597,871.162 1111.04,876.271 1111.484,881.381 1111.929,886.49 1112.377,891.599 1112.828,896.709 1113.283,901.818 1113.747,906.927 1114.221,912.036 1114.712,917.146 1115.225,922.255 1115.769,927.364 1116.354,932.474 1116.994,937.583 1117.704,942.692 1118.504,947.802 1119.418,952.911 " />
<line x1="1119.418" y1="447.089" x2="1133.628" y2="447.089"  stroke="#7f7fff" />
<line x1="1119.418" y1="952.911" x2="1133.628" y2="952.911"  stroke="#7f7fff" />
<polyline fill="none" stroke="#7f7fff" points="1133.628,447.089 1133.62,452.198 1133.731,457.308 1133.938,462.417 1134.221,467.526 1134.564,472.636 1134.951,477.745 1135.371,482.854 1135.815,487.964 1136.274,493.073 1136.741,498.182 1137.212,503.291 1137.682,508.401 1138.148,513.51 1138.606,518.619 1139.056,523.729 1139.496,528.838 1139.924,533.947 1140.339,539.057 1140.742,544.166 1141.131,549.275 1141.507,554.385 1141.87,559.494 1142.219,564.603 1142.555,569.713 1142.878,574.822 1143.187,579.931 1143.483,585.04 1143.767,590.15 1144.037,595.259 1144.295,600.368 1144.54,605.478 1144.773,610.587 1144.992,615.696 1145.2,620.806 1145.394,625.915 1145.576,631.024 1145.745,636.134 1145.901,641.243 1146.045,646.352 1146.176,651.462 1146.294,656.571 1146.399,661.68 1146.491,666.789 1146.57,671.899 1146.636,677.008 1146.689,682.117 1146.728,687.227 1146.755,692.336 1146.768,697.445 1146.768,702.555 1146.755,707.664 1146.728,712.773 1146.689,717.883 1146.636,722.992 1146.57,728.101 1146.491,733.211 1146.399,738.32 1146.294,743.429 1146.176,748.538 1146.045,753.648 1145.901,758.757 1145.745,763.866 1145.576,768.976 1145.394,774.085 1145.2,779.194 1144.992,784.304 1144.773,789.413 1144.54,794.522 1144.295,799.632 1144.037,804.741 1143.767,809.85 1143.483,814.96 1143.187,820.069 1142.878,825.178 1142.555,830.287 1142.219,835.397 1141.87,840.506 1141.507,845.615 1141.131,850.725 1140.742,855.834 1140.339,860.943 1139.924,866.053 1139.496,871.162 1139.056,876.271 1138.606,881.381 1138.148,886.49 1137.682,891.599 1137.212,896.709 1136.741,901.818 1136.274,906.927 1135.815,912.036 1135.371,917.146 1134.951,922.255 1134.564,927.364 1134.221,932.474 1133.938,937.583 1133.731,942.692 1133.62,947.802 1133.628,952.911 " />
</g>
<g>
<polyline fill="none" stroke="#7f7fff" points="1154.465,463.2 1154.232,467.984 1154.004,472.768 1153.78,477.552 1153.562,482.336 1153.348,487.12 1153.139,491.903 1152.934,496.687 1152.735,501.471 1152.54,506.255 1152.35,511.039 1152.164,515.823 1151.984,520.606 1151.808,525.39 1151.637,530.174 1151.47,534.958 1151.309,539.742 1151.152,544.526 1151,549.309 1150.852,554.093 1150.71,558.877 1150.572,563.661 1150.439,568.445 1150.311,573.228 1150.187,578.012 1150.069,582.796 1149.954,587.58 1149.845,592.364 1149.741,597.148 1149.641,601.931 1149.546,606.715 1149.456,611.499 1149.37,616.283 1149.289,621.067 1149.213,625.851 1149.142,630.634 1149.076,635.418 1149.014,640.202 1148.957,644.986 1148.905,649.77 1148.857,654.554 1148.814,659.337 1148.776,664.121 1148.743,668.905 1148.715,673.689 1148.691,678.473 1148.672,683.257 1148.658,688.04 1148.648,692.824 1148.643,697.608 1148.643,702.392 1148.648,707.176 1148.658,711.96 1148.672,716.743 1148.691,721.527 1148.715,726.311 1148.743,731.095 1148.776,735.879 1148.814,740.663 1148.857,745.446 1148.905,750.23 1148.957,755.014 1149.014,759.798 1149.076,764.582 1149.142,769.366 1149.213,774.149 1149.289,778.933 1149.37,783.717 1149.456,788.501 1149.546,793.285 1149.641,798.069 1149.741,802.852 1149.845,807.636 1149.954,812.42 1150.069,817.204 1150.187,821.988 1150.311,826.772 1150.439,831.555 1150.572,836.339 1150.71,841.123 1150.852,845.907 1151,850.691 1151.152,855.474 1151.309,860.258 1151.47,865.042 1151.637,869.826 1151.808,874.61 1151.984,879.394 1152.164,884.177 1152.35,888.961 1152.54,893.745 1152.735,898.529 1152.934,903.313 1153.139,908.097 1153.348,912.88 1153.562,917.664 1153.78,922.448 1154.004,927.232 1154.232,932.016 1154.465,936.8 " />
<line x1="1154.465" y1="463.2" x2="1166.089" y2="463.2"  stroke="#7f7fff" />
<line x1="1154.465" y1="936.8" x2="1166.089" y2="936.8"  stroke="#7f7fff" />
<polyline fill="none" stroke="#7f7fff" points="1166.089,463.2 1167.477,467.984 1168.833,472.768 1170.16,477.552 1171.455,482.336 1172.721,487.12 1173.957,491.903 1175.163,496.687 1176.339,501.471 1177.485,506.255 1178.602,511.039 1179.69,515.823 1180.748,520.606 1181.777,525.39 1182.777,530.174 1183.748,534.958 1184.691,539.742 1185.604,544.526 1186.489,549.309 1187.345,554.093 1188.173,558.877 1188.973,563.661 1189.744,568.445 1190.487,573.228 1191.202,578.012 1191.888,582.796 1192.547,587.58 1193.178,592.364 1193.781,597.148 1194.356,601.931 1194.904,606.715 1195.423,611.499 1195.915,616.283 1196.38,621.067 1196.817,625.851 1197.226,630.634 1197.608,635.418 1197.962,640.202 1198.289,644.986 1198.589,649.77 1198.861,654.554 1199.106,659.337 1199.324,664.121 1199.515,668.905 1199.678,673.689 1199.814,678.473 1199.923,683.257 1200.004,688.04 1200.059,692.824 1200.086,697.608 1200.086,702.392 1200.059,707.176 1200.004,711.96 1199.923,716.743 1199.814,721.527 1199.678,726.311 1199.515,731.095 1199.324,735.879 1199.106,740.663 1198.861,745.446 1198.589,750.23 1198.289,755.014 1197.962,759.798 1197.608,764.582 1197.226,769.366 1196.817,774.149 1196.38,778.933 1195.915,783.717 1195.423,788.501 1194.904,793.285 1194.356,798.069 1193.781,802.852 1193.178,807.636 1192.547,812.42 1191.888,817.204 1191.202,821.988 1190.487,826.772 1189.744,831.555 1188.973,836.339 1188.173,841.123 1187.345,845.907 1186.489,850.691 1185.604,855.474 1184.691,860.258 1183.748,865.042 1182.777,869.826 1181.777,874.61 1180.748,879.394 1179.69,884.177 1178.602,888.961 1177.485,893.745 1176.339,898.529 1175.163,903.313 1173.957,908.097 1172.721,912.88 1171.455,917.664 1170.16,922.448 1168.833,927.232 1167.477,932.016 1166.089,936.8 " />
<line x1="1267.445" y1="463.2" x2="1267.445" y2="505.914"  stroke="#7f7fff" />
<line x1="1166.089" y1="463.2" x2="1267.445" y2="463.2"  stroke="#7f7fff" />
<line x1="1267.445" y1="936.8" x2="1267.445" y2="894.086"  stroke="#7f7fff" />
<line x1="1166.089" y1="936.8" x2="1267.445" y2="936.8"  stroke="#7f7fff" />
<polyline fill="none" stroke="#7f7fff" points="1267.445,505.914 1265.131,509.835 1262.881,513.756 1260.692,517.677 1258.564,521.598 1256.495,525.519 1254.484,529.44 1252.531,533.361 1250.634,537.282 1248.792,541.203 1247.004,545.123 1245.27,549.044 1243.589,552.965 1241.96,556.886 1240.382,560.807 1238.855,564.728 1237.377,568.649 1235.949,572.57 1234.57,576.491 1233.239,580.412 1231.955,584.333 1230.719,588.254 1229.529,592.175 1228.385,596.096 1227.287,600.016 1226.235,603.937 1225.227,607.858 1224.264,611.779 1223.345,615.7 1222.47,619.621 1221.639,623.542 1220.851,627.463 1220.106,631.384 1219.404,635.305 1218.744,639.226 1218.127,643.147 1217.551,647.068 1217.018,650.988 1216.526,654.909 1216.076,658.83 1215.667,662.751 1215.299,666.672 1214.973,670.593 1214.688,674.514 1214.443,678.435 1214.24,682.356 1214.077,686.277 1213.955,690.198 1213.873,694.119 1213.833,698.04 1213.833,701.96 1213.873,705.881 1213.955,709.802 1214.077,713.723 1214.24,717.644 1214.443,721.565 1214.688,725.486 1214.973,729.407 1215.299,733.328 1215.667,737.249 1216.076,741.17 1216.526,745.091 1217.018,749.012 1217.551,752.932 1218.127,756.853 1218.744,760.774 1219.404,764.695 1220.106,768.616 1220.851,772.537 1221.639,776.458 1222.47,780.379 1223.345,784.3 1224.264,788.221 1225.227,792.142 1226.235,796.063 1227.287,799.984 1228.385,803.904 1229.529,807.825 1230.719,811.746 1231.955,815.667 1233.239,819.588 1234.57,823.509 1235.949,827.43 1237.377,831.351 1238.855,835.272 1240.382,839.193 1241.96,843.114 1243.589,847.035 1245.27,850.956 1247.004,854.877 1248.792,858.797 1250.634,862.718 1252.531,866.639 1254.484,870.56 1256.495,874.481 1258.564,878.402 1260.692,882.323 1262.881,886.244 1265.131,890.165 1267.445,894.086 " />
</g>
<g>
<polyline fill="none" stroke="#7f7fff" points="1316.159,519.528 1317.53,523.174 1318.869,526.82 1320.176,530.465 1321.453,534.111 1322.698,537.757 1323.912,541.403 1325.096,545.049 1326.25,548.695 1327.373,552.341 1328.467,555.987 1329.53,559.633 1330.565,563.279 1331.57,566.924 1332.546,570.57 1333.493,574.216 1334.411,577.862 1335.3,581.508 1336.161,585.154 1336.994,588.8 1337.798,592.446 1338.575,596.092 1339.323,599.738 1340.044,603.384 1340.737,607.029 1341.402,610.675 1342.04,614.321 1342.651,617.967 1343.234,621.613 1343.791,625.259 1344.32,628.905 1344.822,632.551 1345.297,636.197 1345.746,639.843 1346.168,643.488 1346.563,647.134 1346.931,650.78 1347.273,654.426 1347.589,658.072 1347.877,661.718 1348.14,665.364 1348.376,669.01 1348.586,672.656 1348.77,676.302 1348.927,679.948 1349.058,683.593 1349.163,687.239 1349.241,690.885 1349.294,694.531 1349.32,698.177 1349.32,701.823 1349.294,705.469 1349.241,709.115 1349.163,712.761 1349.058,716.407 1348.927,720.052 1348.77,723.698 1348.586,727.344 1348.376,730.99 1348.14,734.636 1347.877,738.282 1347.589,741.928 1347.273,745.574 1346.931,749.22 1346.563,752.866 1346.168,756.512 1345.746,760.157 1345.297,763.803 1344.822,767.449 1344.32,771.095 1343.791,774.741 1343.234,778.387 1342.651,782.033 1342.04,785.679 1341.402,789.325 1340.737,792.971 1340.044,796.616 1339.323,800.262 1338.575,803.908 1337.798,807.554 1336.994,811.2 1336.161,814.846 1335.3,818.492 1334.411,822.138 1333.493,825.784 1332.546,829.43 1331.57,833.076 1330.565,836.721 1329.53,840.367 1328.467,844.013 1327.373,847.659 1326.25,851.305 1325.096,854.951 1323.912,858.597 1322.698,862.243 1321.453,865.889 1320.176,869.535 1318.869,873.18 1317.53,876.826 1316.159,880.472 " />
<line x1="1316.159" y1="500.544" x2="1316.159" y2="519.528"  stroke="#7f7fff" />
<line x1="1316.159" y1="500.544" x2="1321.184" y2="500.544"  stroke="#7f7fff" />
<line x1="1316.159" y1="899.456" x2="1316.159" y2="880.472"  stroke="#7f7fff" />
<line x1="1316.159" y1="899.456" x2="1321.184" y2="899.456"  stroke="#7f7fff" />
<polyline fill="none" stroke="#7f7fff" points="1321.184,500.544 1329.287,504.573 1336.645,508.603 1343.4,512.632 1349.652,516.661 1355.473,520.691 1360.92,524.72 1366.038,528.75 1370.86,532.779 1375.417,536.809 1379.732,540.838 1383.824,544.867 1387.711,548.897 1391.408,552.926 1394.927,556.956 1398.278,560.985 1401.473,565.014 1404.518,569.044 1407.422,573.073 1410.191,577.103 1412.832,581.132 1415.349,585.162 1417.748,589.191 1420.033,593.22 1422.208,597.25 1424.277,601.279 1426.243,605.309 1428.109,609.338 1429.878,613.368 1431.552,617.397 1433.134,621.426 1434.625,625.456 1436.029,629.485 1437.345,633.515 1438.577,637.544 1439.725,641.573 1440.791,645.603 1441.777,649.632 1442.682,653.662 1443.509,657.691 1444.258,661.721 1444.929,665.75 1445.525,669.779 1446.044,673.809 1446.489,677.838 1446.858,681.868 1447.153,685.897 1447.375,689.926 1447.522,693.956 1447.596,697.985 1447.596,702.015 1447.522,706.044 1447.375,710.074 1447.153,714.103 1446.858,718.132 1446.489,722.162 1446.044,726.191 1445.525,730.221 1444.929,734.25 1444.258,738.279 1443.509,742.309 1442.682,746.338 1441.777,750.368 1440.791,754.397 1439.725,758.427 1438.577,762.456 1437.345,766.485 1436.029,770.515 1434.625,774.544 1433.134,778.574 1431.552,782.603 1429.878,786.632 1428.109,790.662 1426.243,794.691 1424.277,798.721 1422.208,802.75 1420.033,806.78 1417.748,810.809 1415.349,814.838 1412.832,818.868 1410.191,822.897 1407.422,826.927 1404.518,830.956 1401.473,834.986 1398.278,839.015 1394.927,843.044 1391.408,847.074 1387.711,851.103 1383.824,855.133 1379.732,859.162 1375.417,863.191 1370.86,867.221 1366.038,871.25 1360.92,875.28 1355.473,879.309 1349.652,883.339 1343.4,887.368 1336.645,891.397 1329.287,895.427 1321.184,899.456 " />
<line x1="1321.184" y1="487.929" x2="1321.184" y2="500.544"  stroke="#7f7fff" />
<line x1="1321.184" y1="487.929" x2="1480.37" y2="487.929"  stroke="#7f7fff" />
<line x1="1321.184" y1="912.071" x2="1321.184" y2="899.456"  stroke="#7f7fff" />
<line x1="1321.184" y1="912.071" x2="1480.37" y2="912.071"  stroke="#7f7fff" />
<polyline fill="none" stroke="#7f7fff" points="1480.37,487.929 1479.552,492.214 1478.751,496.498 1477.967,500.782 1477.201,505.066 1476.452,509.351 1475.72,513.635 1475.005,517.919 1474.307,522.203 1473.626,526.488 1472.962,530.772 1472.315,535.056 1471.686,539.34 1471.073,543.625 1470.476,547.909 1469.897,552.193 1469.335,556.478 1468.789,560.762 1468.26,565.046 1467.748,569.33 1467.253,573.615 1466.775,577.899 1466.313,582.183 1465.868,586.467 1465.439,590.752 1465.027,595.036 1464.632,599.32 1464.253,603.604 1463.891,607.889 1463.546,612.173 1463.217,616.457 1462.904,620.741 1462.608,625.026 1462.329,629.31 1462.066,633.594 1461.82,637.878 1461.59,642.163 1461.376,646.447 1461.179,650.731 1460.999,655.015 1460.835,659.3 1460.687,663.584 1460.556,667.868 1460.441,672.152 1460.342,676.437 1460.26,680.721 1460.195,685.005 1460.146,689.289 1460.113,693.574 1460.096,697.858 1460.096,702.142 1460.113,706.426 1460.146,710.711 1460.195,714.995 1460.26,719.279 1460.342,723.563 1460.441,727.848 1460.556,732.132 1460.687,736.416 1460.835,740.7 1460.999,744.985 1461.179,749.269 1461.376,753.553 1461.59,757.837 1461.82,762.122 1462.066,766.406 1462.329,770.69 1462.608,774.974 1462.904,779.259 1463.217,783.543 1463.546,787.827 1463.891,792.111 1464.253,796.396 1464.632,800.68 1465.027,804.964 1465.439,809.248 1465.868,813.533 1466.313,817.817 1466.775,822.101 1467.253,826.385 1467.748,830.67 1468.26,834.954 1468.789,839.238 1469.335,843.522 1469.897,847.807 1470.476,852.091 1471.073,856.375 1471.686,860.66 1472.315,864.944 1472.962,869.228 1473.626,873.512 1474.307,877.797 1475.005,882.081 1475.72,886.365 1476.452,890.649 1477.201,894.934 1477.967,899.218 1478.751,903.502 1479.552,907.786 1480.37,912.071 " />
<line x1="1480.37" y1="487.929" x2="1494.369" y2="487.929"  stroke="#7f7fff" />
<line x1="1480.37" y1="912.071" x2="1494.369" y2="912.071"  stroke="#7f7fff" />
<polyline fill="none" stroke="#7f7fff" points="1494.369,487.929 1495.081,492.214 1495.779,496.498 1496.461,500.782 1497.129,505.066 1497.782,509.351 1498.42,513.635 1499.043,517.919 1499.652,522.203 1500.245,526.488 1500.824,530.772 1501.388,535.056 1501.938,539.34 1502.473,543.625 1502.993,547.909 1503.498,552.193 1503.989,556.478 1504.465,560.762 1504.927,565.046 1505.374,569.33 1505.807,573.615 1506.225,577.899 1506.628,582.183 1507.017,586.467 1507.391,590.752 1507.751,595.036 1508.096,599.32 1508.427,603.604 1508.744,607.889 1509.045,612.173 1509.333,616.457 1509.606,620.741 1509.865,625.026 1510.109,629.31 1510.339,633.594 1510.554,637.878 1510.755,642.163 1510.942,646.447 1511.114,650.731 1511.272,655.015 1511.415,659.3 1511.545,663.584 1511.659,667.868 1511.76,672.152 1511.846,676.437 1511.918,680.721 1511.975,685.005 1512.018,689.289 1512.047,693.574 1512.061,697.858 1512.061,702.142 1512.047,706.426 1512.018,710.711 1511.975,714.995 1511.918,719.279 1511.846,723.563 1511.76,727.848 1511.659,732.132 1511.545,736.416 1511.415,740.7 1511.272,744.985 1511.114,749.269 1510.942,753.553 1510.755,757.837 1510.554,762.122 1510.339,766.406 1510.109,770.69 1509.865,774.974 1509.606,779.259 1509.333,783.543 1509.045,787.827 1508.744,792.111 1508.427,796.396 1508.096,800.68 1507.751,804.964 1507.391,809.248 1507.017,813.533 1506.628,817.817 1506.225,822.101 1505.807,826.385 1505.374,830.67 1504.927,834.954 1504.465,839.238 1503.989,843.522 1503.498,847.807 1502.993,852.091 1502.473,856.375 1501.938,860.66 1501.388,864.944 1500.824,869.228 1500.245,873.512 1499.652,877.797 1499.043,882.081 1498.42,886.365 1497.782,890.649 1497.129,894.934 1496.461,899.218 1495.779,903.502 1495.081,907.786 1494.369,912.071 " />
</g>
<g>
<polyline fill="none" stroke="#7f7fff" points="1543.071,480.686 1541.885,485.116 1540.726,489.547 1539.592,493.977 1538.484,498.408 1537.402,502.839 1536.345,507.269 1535.313,511.7 1534.306,516.13 1533.325,520.561 1532.369,524.992 1531.437,529.422 1530.531,533.853 1529.649,538.283 1528.793,542.714 1527.96,547.145 1527.153,551.575 1526.37,556.006 1525.611,560.436 1524.877,564.867 1524.167,569.297 1523.481,573.728 1522.819,578.159 1522.182,582.589 1521.569,587.02 1520.979,591.45 1520.414,595.881 1519.872,600.312 1519.355,604.742 1518.861,609.173 1518.391,613.603 1517.945,618.034 1517.522,622.465 1517.123,626.895 1516.748,631.326 1516.396,635.756 1516.068,640.187 1515.764,644.618 1515.483,649.048 1515.225,653.479 1514.991,657.909 1514.781,662.34 1514.594,666.771 1514.43,671.201 1514.29,675.632 1514.173,680.062 1514.079,684.493 1514.009,688.924 1513.963,693.354 1513.939,697.785 1513.939,702.215 1513.963,706.646 1514.009,711.076 1514.079,715.507 1514.173,719.938 1514.29,724.368 1514.43,728.799 1514.594,733.229 1514.781,737.66 1514.991,742.091 1515.225,746.521 1515.483,750.952 1515.764,755.382 1516.068,759.813 1516.396,764.244 1516.748,768.674 1517.123,773.105 1517.522,777.535 1517.945,781.966 1518.391,786.397 1518.861,790.827 1519.355,795.258 1519.872,799.688 1520.414,804.119 1520.979,808.55 1521.569,812.98 1522.182,817.411 1522.819,821.841 1523.481,826.272 1524.167,830.703 1524.877,835.133 1525.611,839.564 1526.37,843.994 1527.153,848.425 1527.96,852.855 1528.793,857.286 1529.649,861.717 1530.531,866.147 1531.437,870.578 1532.369,875.008 1533.325,879.439 1534.306,883.87 1535.313,888.3 1536.345,892.731 1537.402,897.161 1538.484,901.592 1539.592,906.023 1540.726,910.453 1541.885,914.884 1543.071,919.314 " />
<line x1="1543.071" y1="480.686" x2="1557.167" y2="480.686"  stroke="#7f7fff" />
<line x1="1543.071" y1="919.314" x2="1557.167" y2="919.314"  stroke="#7f7fff" />
<polyline fill="none" stroke="#7f7fff" points="1557.167,480.686 1559.968,485.116 1562.691,489.547 1565.336,493.977 1567.905,498.408 1570.401,502.839 1572.825,507.269 1575.177,511.7 1577.461,516.13 1579.676,520.561 1581.824,524.992 1583.906,529.422 1585.924,533.853 1587.878,538.283 1589.769,542.714 1591.599,547.145 1593.368,551.575 1595.078,556.006 1596.728,560.436 1598.319,564.867 1599.854,569.297 1601.331,573.728 1602.752,578.159 1604.117,582.589 1605.427,587.02 1606.683,591.45 1607.884,595.881 1609.033,600.312 1610.128,604.742 1611.17,609.173 1612.16,613.603 1613.099,618.034 1613.986,622.465 1614.822,626.895 1615.607,631.326 1616.342,635.756 1617.027,640.187 1617.661,644.618 1618.246,649.048 1618.781,653.479 1619.268,657.909 1619.705,662.34 1620.093,666.771 1620.432,671.201 1620.722,675.632 1620.964,680.062 1621.158,684.493 1621.303,688.924 1621.4,693.354 1621.448,697.785 1621.448,702.215 1621.4,706.646 1621.303,711.076 1621.158,715.507 1620.964,719.938 1620.722,724.368 1620.432,728.799 1620.093,733.229 1619.705,737.66 1619.268,742.091 1618.781,746.521 1618.246,750.952 1617.661,755.382 1617.027,759.813 1616.342,764.244 1615.607,768.674 1614.822,773.105 1613.986,777.535 1613.099,781.966 1612.16,786.397 1611.17,790.827 1610.128,795.258 1609.033,799.688 1607.884,804.119 1606.683,808.55 1605.427,812.98 1604.117,817.411 1602.752,821.841 1601.331,826.272 1599.854,830.703 1598.319,835.133 1596.728,839.564 1595.078,843.994 1593.368,848.425 1591.599,852.855 1589.769,857.286 1587.878,861.717 1585.924,866.147 1583.906,870.578 1581.824,875.008 1579.676,879.439 1577.461,883.87 1575.177,888.3 1572.825,892.731 1570.401,897.161 1567.905,901.592 1565.336,906.023 1562.691,910.453 1559.968,914.884 1557.167,919.314 " />
</g>
<g>
<polyline fill="none" stroke="#7f7fff" points="1596.97,501.543 1598.146,505.552 1599.293,509.561 1600.412,513.571 1601.502,517.58 1602.564,521.589 1603.597,525.598 1604.601,529.608 1605.577,533.617 1606.523,537.626 1607.44,541.635 1608.327,545.645 1609.186,549.654 1610.015,553.663 1610.814,557.672 1611.585,561.681 1612.326,565.691 1613.039,569.7 1613.724,573.709 1614.38,577.718 1615.009,581.728 1615.611,585.737 1616.186,589.746 1616.735,593.755 1617.258,597.765 1617.756,601.774 1618.23,605.783 1618.679,609.792 1619.104,613.801 1619.507,617.811 1619.886,621.82 1620.244,625.829 1620.58,629.838 1620.895,633.848 1621.189,637.857 1621.462,641.866 1621.716,645.875 1621.95,649.885 1622.165,653.894 1622.361,657.903 1622.538,661.912 1622.697,665.922 1622.837,669.931 1622.96,673.94 1623.065,677.949 1623.152,681.958 1623.221,685.968 1623.273,689.977 1623.308,693.986 1623.325,697.995 1623.325,702.005 1623.308,706.014 1623.273,710.023 1623.221,714.032 1623.152,718.042 1623.065,722.051 1622.96,726.06 1622.837,730.069 1622.697,734.078 1622.538,738.088 1622.361,742.097 1622.165,746.106 1621.95,750.115 1621.716,754.125 1621.462,758.134 1621.189,762.143 1620.895,766.152 1620.58,770.162 1620.244,774.171 1619.886,778.18 1619.507,782.189 1619.104,786.199 1618.679,790.208 1618.23,794.217 1617.756,798.226 1617.258,802.235 1616.735,806.245 1616.186,810.254 1615.611,814.263 1615.009,818.272 1614.38,822.282 1613.724,826.291 1613.039,830.3 1612.326,834.309 1611.585,838.319 1610.814,842.328 1610.015,846.337 1609.186,850.346 1608.327,854.355 1607.44,858.365 1606.523,862.374 1605.577,866.383 1604.601,870.392 1603.597,874.402 1602.564,878.411 1601.502,882.42 1600.412,886.429 1599.293,890.439 1598.146,894.448 1596.97,898.457 " />
<line x1="1596.97" y1="477.938" x2="1596.97" y2="501.543"  stroke="#7f7fff" />
<line x1="1596.97" y1="477.938" x2="1621.811" y2="477.938"  stroke="#7f7fff" />
<line x1="1596.97" y1="922.062" x2="1596.97" y2="898.457"  stroke="#7f7fff" />
<line x1="1596.97" y1="922.062" x2="1621.811" y2="922.062"  stroke="#7f7fff" />
<polyline fill="none" stroke="#7f7fff" points="1621.811,477.938 1623.339,482.424 1624.866,486.91 1626.391,491.396 1627.91,495.882 1629.422,500.368 1630.925,504.855 1632.414,509.341 1633.888,513.827 1635.344,518.313 1636.779,522.799 1638.192,527.285 1639.579,531.771 1640.939,536.257 1642.27,540.743 1643.571,545.229 1644.839,549.716 1646.074,554.202 1647.274,558.688 1648.438,563.174 1649.567,567.66 1650.658,572.146 1651.712,576.632 1652.727,581.118 1653.705,585.604 1654.644,590.09 1655.545,594.577 1656.407,599.063 1657.23,603.549 1658.015,608.035 1658.761,612.521 1659.469,617.007 1660.139,621.493 1660.77,625.979 1661.363,630.465 1661.919,634.952 1662.437,639.438 1662.917,643.924 1663.36,648.41 1663.765,652.896 1664.134,657.382 1664.465,661.868 1664.759,666.354 1665.016,670.84 1665.237,675.326 1665.42,679.813 1665.567,684.299 1665.677,688.785 1665.75,693.271 1665.787,697.757 1665.787,702.243 1665.75,706.729 1665.677,711.215 1665.567,715.701 1665.42,720.187 1665.237,724.674 1665.016,729.16 1664.759,733.646 1664.465,738.132 1664.134,742.618 1663.765,747.104 1663.36,751.59 1662.917,756.076 1662.437,760.562 1661.919,765.048 1661.363,769.535 1660.77,774.021 1660.139,778.507 1659.469,782.993 1658.761,787.479 1658.015,791.965 1657.23,796.451 1656.407,800.937 1655.545,805.423 1654.644,809.91 1653.705,814.396 1652.727,818.882 1651.712,823.368 1650.658,827.854 1649.567,832.34 1648.438,836.826 1647.274,841.312 1646.074,845.798 1644.839,850.284 1643.571,854.771 1642.27,859.257 1640.939,863.743 1639.579,868.229 1638.192,872.715 1636.779,877.201 1635.344,881.687 1633.888,886.173 1632.414,890.659 1630.925,895.145 1629.422,899.632 1627.91,904.118 1626.391,908.604 1624.866,913.09 1623.339,917.576 1621.811,922.062 " />
</g>
<g>
<polyline fill="none" stroke="#7f7fff" points="2121.782,405.374 2121.782,411.326 2121.782,417.278 2121.782,423.23 2121.782,429.182 2121.782,435.134 2121.782,441.087 2121.782,447.039 2121.782,452.991 2121.782,458.943 2121.782,464.895 2121.782,470.847 2121.782,476.799 2121.782,482.751 2121.782,488.703 2121.782,494.655 2121.782,500.607 2121.782,506.559 2121.782,512.511 2121.782,518.463 2121.782,524.415 2121.782,530.367 2121.782,536.319 2121.782,542.271 2121.782,548.223 2121.782,554.175 2121.782,560.127 2121.782,566.079 2121.782,572.031 2121.782,577.983 2121.782,583.935 2121.782,589.887 2121.782,595.839 2121.782,601.791 2121.782,607.743 2121.782,613.696 2121.782,619.648 2121.782,625.6 2121.782,631.552 2121.782,637.504 2121.782,643.456 2121.782,649.408 2121.782,655.36 2121.782,661.312 2121.782,667.264 2121.782,673.216 2121.782,679.168 2121.782,685.12 2121.782,691.072 2121.782,697.024 2121.782,702.976 2121.782,708.928 2121.782,714.88 2121.782,720.832 2121.782,726.784 2121.782,732.736 2121.782,738.688 2121.782,744.64 2121.782,750.592 2121.782,756.544 2121.782,762.496 2121.782,768.448 2121.782,774.4 2121.782,780.352 2121.782,786.304 2121.782,792.257 2121.782,798.209 2121.782,804.161 2121.782,810.113 2121.782,816.065 2121.782,822.017 2121.782,827.969 2121.782,833.921 2121.782,839.873 2121.782,845.825 2121.782,851.777 2121.782,857.729 2121.782,863.681 2121.782,869.633 2121.782,875.585 2121.782,881.537 2121.782,887.489 2121.782,893.441 2121.782,899.393 2121.782,905.345 2121.782,911.297 2121.782,917.249 2121.782,923.201 2121.782,929.153 2121.782,935.105 2121.782,941.057 2121.782,947.009 2121.782,952.961 2121.782,958.913 2121.782,964.866 2121.782,970.818 2121.782,976.77 2121.782,982.722 2121.782,988.674 2121.782,994.626 " />
<line x1="2121.782" y1="405.374" x2="2139.892" y2="405.374"  stroke="#7f7fff" />
<line x1="2121.782" y1="994.626" x2="2139.892" y2="994.626"  stroke="#7f7fff" />
<polyline fill="none" stroke="#7f7fff" points="2139.892,405.374 2139.892,411.326 2139.892,417.278 2139.892,423.23 2139.892,429.182 2139.892,435.134 2139.892,441.087 2139.892,447.039 2139.892,452.991 2139.892,458.943 2139.892,464.895 2139.892,470.847 2139.892,476.799 2139.892,482.751 2139.892,488.703 2139.892,494.655 2139.892,500.607 2139.892,506.559 2139.892,512.511 2139.892,518.463 2139.892,524.415 2139.892,530.367 2139.892,536.319 2139.892,542.271 2139.892,548.223 2139.892,554.175 2139.892,560.127 2139.892,566.079 2139.892,572.031 2139.892,577.983 2139.892,583.935 2139.892,589.887 2139.892,595.839 2139.892,601.791 2139.892,607.743 2139.892,613.696 2139.892,619.648 2139.892,625.6 2139.892,631.552 2139.892,637.504 2139.892,643.456 2139.892,649.408 2139.892,655.36 2139.892,661.312 2139.892,667.264 2139.892,673.216 2139.892,679.168 2139.892,685.12 2139.892,691.072 2139.892,697.024 2139.892,702.976 2139.892,708.928 2139.892,714.88 2139.892,720.832 2139.892,726.784 2139.892,732.736 2139.892,738.688 2139.892,744.64 2139.892,750.592 2139.892,756.544 2139.892,762.496 2139.892,768.448 2139.892,774.4 2139.892,780.352 2139.892,786.304 2139.892,792.257 2139.892,798.209 2139.892,804.161 2139.892,810.113 2139.892,816.065 2139.892,822.017 2139.892,827.969 2139.892,833.921 2139.892,839.873 2139.892,845.825 2139.892,851.777 2139.892,857.729 2139.892,863.681 2139.892,869.633 2139.892,875.585 2139.892,881.537 2139.892,887.489 2139.892,893.441 2139.892,899.393 2139.892,905.345 2139.892,911.297 2139.892,917.249 2139.892,923.201 2139.892,929.153 2139.892,935.105 2139.892,941.057 2139.892,947.009 2139.892,952.961 2139.892,958.913 2139.892,964.866 2139.892,970.818 2139.892,976.77 2139.892,982.722 2139.892,988.674 2139.892,994.626 " />
</g>
</g>
<g><title>element</title>
<polyline fill="none" stroke="#7f7fff" points="2152.381,159.707 2152.381,170.622 2152.381,181.537 2152.381,192.452 2152.381,203.367 2152.381,214.282 2152.381,225.197 2152.381,236.112 2152.381,247.027 2152.381,257.942 2152.381,268.857 2152.381,279.772 2152.381,290.687 2152.381,301.602 2152.381,312.517 2152.381,323.432 2152.381,334.347 2152.381,345.262 2152.381,356.177 2152.381,367.092 2152.381,378.007 2152.381,388.922 2152.381,399.837 2152.381,410.752 2152.381,421.667 2152.381,432.582 2152.381,443.497 2152.381,454.412 2152.381,465.327 2152.381,476.242 2152.381,487.157 2152.381,498.072 2152.381,508.987 2152.381,519.902 2152.381,530.817 2152.381,541.732 2152.381,552.647 2152.381,563.562 2152.381,574.477 2152.381,585.392 2152.381,596.307 2152.381,607.222 2152.381,618.137 2152.381,629.052 2152.381,639.967 2152.381,650.882 2152.381,661.797 2152.381,672.712 2152.381,683.627 2152.381,694.542 2152.381,705.458 2152.381,716.373 2152.381,727.288 2152.381,738.203 2152.381,749.118 2152.381,760.033 2152.381,770.948 2152.381,781.863 2152.381,792.778 2152.381,803.693 2152.381,814.608 2152.381,825.523 2152.381,836.438 2152.381,847.353 2152.381,858.268 2152.381,869.183 2152.381,880.098 2152.381,891.013 2152.381,901.928 2152.381,912.843 2152.381,923.758 2152.381,934.673 2152.381,945.588 2152.381,956.503 2152.381,967.418 2152.381,978.333 2152.381,989.248 2152.381,1000.163 2152.381,1011.078 2152.381,1021.993 2152.381,1032.908 2152.381,1043.823 2152.381,1054.738 2152.381,1065.653 2152.381,1076.568 2152.381,1087.483 2152.381,1098.398 2152.381,1109.313 2152.381,1120.228 2152.381,1131.143 2152.381,1142.058 2152.381,1152.973 2152.381,1163.888 2152.381,1174.803 2152.381,1185.718 2152.381,1196.633 2152.381,1207.548 2152.381,1218.463 2152.381,1229.378 2152.381,1240.293 " />
</g>
</svg>
