<?xml version="1.0" standalone="no"?>
<svg width="300px" height="300px" version="1.1" xmlns="http://www.w3.org/2000/svg"
     xmlns:xlink="http://www.w3.org/1999/xlink">
    <rect x="0" y="0" width="300" height="300" fill="#000000"/>
    <defs>
        <g id="dot">
            <line x1="1" y1="1" x2="0" y2="0"/>
        </g>
        <g id="cross">
            <line x1="-3" y1="0" x2="3" y2="0"/>
            <line x1="0" y1="-3" x2="0" y2="3"/>
        </g>
        <g id="square">
            <line x1="-3" y1="-3" x2="-3" y2="3"/>
            <line x1="-3" y1="3" x2="3" y2="3"/>
            <line x1="3" y1="3" x2="3" y2="-3"/>
            <line x1="3" y1="-3" x2="-3" y2="-3"/>
        </g>
        <g id="round">
            <ellipse cx="0" cy="0" rx="3" ry="3" fill="none"/>
        </g>
        <g id="triangle">
            <line x1="0" y1="-3" x2="-3" y2="3"/>
            <line x1="-3" y1="3" x2="3" y2="3"/>
            <line x1="0" y1="-3" x2="3" y2="3"/>
        </g>
    </defs>
    <polygon fill="none" stroke="#ffffff" points="30.952,269.048 30.952,30.952 269.048,30.952 269.048,269.048 "/>
    <text style="font-size:12;text-align:center;text-anchor:middle;" x="150" y="298.262" fill="#ffffff">Sagittal
        distance (um)
    </text>
    <use x="70.635" y="30.952" xlink:href="#cross" stroke="#ffffff"/>
    <use x="70.635" y="269.048" xlink:href="#cross" stroke="#ffffff"/>
    <text style="font-size:12;text-align:center;text-anchor:middle;" x="70.635" y="287.048" fill="#ffffff">-9</text>
    <use x="150" y="30.952" xlink:href="#cross" stroke="#ffffff"/>
    <use x="150" y="269.048" xlink:href="#cross" stroke="#ffffff"/>
    <text style="font-size:12;text-align:center;text-anchor:middle;" x="150" y="287.048" fill="#ffffff">0</text>
    <use x="229.365" y="30.952" xlink:href="#cross" stroke="#ffffff"/>
    <use x="229.365" y="269.048" xlink:href="#cross" stroke="#ffffff"/>
    <text style="font-size:12;text-align:center;text-anchor:middle;" x="229.365" y="287.048" fill="#ffffff">9</text>
    <text style="font-size:12;text-align:center;text-anchor:middle;" x="7.738" y="156" transform="rotate(-90,7.738,150)"
          fill="#ffffff">Tangential distance (um)
    </text>
    <use x="269.048" y="229.365" xlink:href="#cross" stroke="#ffffff"/>
    <use x="30.952" y="229.365" xlink:href="#cross" stroke="#ffffff"/>
    <text style="font-size:12;text-align:right;text-anchor:end;" x="24.952" y="235.365" fill="#ffffff">-9</text>
    <use x="269.048" y="150" xlink:href="#cross" stroke="#ffffff"/>
    <use x="30.952" y="150" xlink:href="#cross" stroke="#ffffff"/>
    <text style="font-size:12;text-align:right;text-anchor:end;" x="24.952" y="156" fill="#ffffff">0</text>
    <use x="269.048" y="70.635" xlink:href="#cross" stroke="#ffffff"/>
    <use x="30.952" y="70.635" xlink:href="#cross" stroke="#ffffff"/>
    <text style="font-size:12;text-align:right;text-anchor:end;" x="24.952" y="76.635" fill="#ffffff">9</text>
    <use x="150" y="150" xlink:href="#dot" stroke="#ffe100"/>
    <use x="150" y="150" xlink:href="#dot" stroke="#ff0000"/>
    <use x="150" y="150" xlink:href="#dot" stroke="#00ebff"/>
    <use x="150" y="164.82" xlink:href="#dot" stroke="#ffe100"/>
    <use x="150" y="30.952" xlink:href="#dot" stroke="#ff0000"/>
    <use x="150" y="161.665" xlink:href="#dot" stroke="#00ebff"/>
    <use x="147.427" y="164.595" xlink:href="#dot" stroke="#ffe100"/>
    <use x="170.672" y="32.761" xlink:href="#dot" stroke="#ff0000"/>
    <use x="147.974" y="161.488" xlink:href="#dot" stroke="#00ebff"/>
    <use x="144.931" y="163.926" xlink:href="#dot" stroke="#ffe100"/>
    <use x="190.717" y="38.132" xlink:href="#dot" stroke="#ff0000"/>
    <use x="146.01" y="160.961" xlink:href="#dot" stroke="#00ebff"/>
    <use x="142.59" y="162.835" xlink:href="#dot" stroke="#ffe100"/>
    <use x="209.524" y="46.902" xlink:href="#dot" stroke="#ff0000"/>
    <use x="144.168" y="160.102" xlink:href="#dot" stroke="#00ebff"/>
    <use x="140.474" y="161.353" xlink:href="#dot" stroke="#ffe100"/>
    <use x="226.522" y="58.804" xlink:href="#dot" stroke="#ff0000"/>
    <use x="142.502" y="158.936" xlink:href="#dot" stroke="#00ebff"/>
    <use x="138.647" y="159.526" xlink:href="#dot" stroke="#ffe100"/>
    <use x="241.196" y="73.478" xlink:href="#dot" stroke="#ff0000"/>
    <use x="141.064" y="157.498" xlink:href="#dot" stroke="#00ebff"/>
    <use x="137.165" y="157.41" xlink:href="#dot" stroke="#ffe100"/>
    <use x="253.098" y="90.476" xlink:href="#dot" stroke="#ff0000"/>
    <use x="139.898" y="155.832" xlink:href="#dot" stroke="#00ebff"/>
    <use x="136.074" y="155.069" xlink:href="#dot" stroke="#ffe100"/>
    <use x="261.868" y="109.283" xlink:href="#dot" stroke="#ff0000"/>
    <use x="139.039" y="153.99" xlink:href="#dot" stroke="#00ebff"/>
    <use x="135.405" y="152.573" xlink:href="#dot" stroke="#ffe100"/>
    <use x="267.239" y="129.328" xlink:href="#dot" stroke="#ff0000"/>
    <use x="138.512" y="152.026" xlink:href="#dot" stroke="#00ebff"/>
    <use x="135.18" y="150" xlink:href="#dot" stroke="#ffe100"/>
    <use x="269.048" y="150" xlink:href="#dot" stroke="#ff0000"/>
    <use x="138.335" y="150" xlink:href="#dot" stroke="#00ebff"/>
    <use x="135.405" y="147.427" xlink:href="#dot" stroke="#ffe100"/>
    <use x="267.239" y="170.672" xlink:href="#dot" stroke="#ff0000"/>
    <use x="138.512" y="147.974" xlink:href="#dot" stroke="#00ebff"/>
    <use x="136.074" y="144.931" xlink:href="#dot" stroke="#ffe100"/>
    <use x="261.868" y="190.717" xlink:href="#dot" stroke="#ff0000"/>
    <use x="139.039" y="146.01" xlink:href="#dot" stroke="#00ebff"/>
    <use x="137.165" y="142.59" xlink:href="#dot" stroke="#ffe100"/>
    <use x="253.098" y="209.524" xlink:href="#dot" stroke="#ff0000"/>
    <use x="139.898" y="144.168" xlink:href="#dot" stroke="#00ebff"/>
    <use x="138.647" y="140.474" xlink:href="#dot" stroke="#ffe100"/>
    <use x="241.196" y="226.522" xlink:href="#dot" stroke="#ff0000"/>
    <use x="141.064" y="142.502" xlink:href="#dot" stroke="#00ebff"/>
    <use x="140.474" y="138.647" xlink:href="#dot" stroke="#ffe100"/>
    <use x="226.522" y="241.196" xlink:href="#dot" stroke="#ff0000"/>
    <use x="142.502" y="141.064" xlink:href="#dot" stroke="#00ebff"/>
    <use x="142.59" y="137.165" xlink:href="#dot" stroke="#ffe100"/>
    <use x="209.524" y="253.098" xlink:href="#dot" stroke="#ff0000"/>
    <use x="144.168" y="139.898" xlink:href="#dot" stroke="#00ebff"/>
    <use x="144.931" y="136.074" xlink:href="#dot" stroke="#ffe100"/>
    <use x="190.717" y="261.868" xlink:href="#dot" stroke="#ff0000"/>
    <use x="146.01" y="139.039" xlink:href="#dot" stroke="#00ebff"/>
    <use x="147.427" y="135.405" xlink:href="#dot" stroke="#ffe100"/>
    <use x="170.672" y="267.239" xlink:href="#dot" stroke="#ff0000"/>
    <use x="147.974" y="138.512" xlink:href="#dot" stroke="#00ebff"/>
    <use x="150" y="135.18" xlink:href="#dot" stroke="#ffe100"/>
    <use x="150" y="269.048" xlink:href="#dot" stroke="#ff0000"/>
    <use x="150" y="138.335" xlink:href="#dot" stroke="#00ebff"/>
    <use x="152.573" y="135.405" xlink:href="#dot" stroke="#ffe100"/>
    <use x="129.328" y="267.239" xlink:href="#dot" stroke="#ff0000"/>
    <use x="152.026" y="138.512" xlink:href="#dot" stroke="#00ebff"/>
    <use x="155.069" y="136.074" xlink:href="#dot" stroke="#ffe100"/>
    <use x="109.283" y="261.868" xlink:href="#dot" stroke="#ff0000"/>
    <use x="153.99" y="139.039" xlink:href="#dot" stroke="#00ebff"/>
    <use x="157.41" y="137.165" xlink:href="#dot" stroke="#ffe100"/>
    <use x="90.476" y="253.098" xlink:href="#dot" stroke="#ff0000"/>
    <use x="155.832" y="139.898" xlink:href="#dot" stroke="#00ebff"/>
    <use x="159.526" y="138.647" xlink:href="#dot" stroke="#ffe100"/>
    <use x="73.478" y="241.196" xlink:href="#dot" stroke="#ff0000"/>
    <use x="157.498" y="141.064" xlink:href="#dot" stroke="#00ebff"/>
    <use x="161.353" y="140.474" xlink:href="#dot" stroke="#ffe100"/>
    <use x="58.804" y="226.522" xlink:href="#dot" stroke="#ff0000"/>
    <use x="158.936" y="142.502" xlink:href="#dot" stroke="#00ebff"/>
    <use x="162.835" y="142.59" xlink:href="#dot" stroke="#ffe100"/>
    <use x="46.902" y="209.524" xlink:href="#dot" stroke="#ff0000"/>
    <use x="160.102" y="144.168" xlink:href="#dot" stroke="#00ebff"/>
    <use x="163.926" y="144.931" xlink:href="#dot" stroke="#ffe100"/>
    <use x="38.132" y="190.717" xlink:href="#dot" stroke="#ff0000"/>
    <use x="160.961" y="146.01" xlink:href="#dot" stroke="#00ebff"/>
    <use x="164.595" y="147.427" xlink:href="#dot" stroke="#ffe100"/>
    <use x="32.761" y="170.672" xlink:href="#dot" stroke="#ff0000"/>
    <use x="161.488" y="147.974" xlink:href="#dot" stroke="#00ebff"/>
    <use x="164.82" y="150" xlink:href="#dot" stroke="#ffe100"/>
    <use x="30.952" y="150" xlink:href="#dot" stroke="#ff0000"/>
    <use x="161.665" y="150" xlink:href="#dot" stroke="#00ebff"/>
    <use x="164.595" y="152.573" xlink:href="#dot" stroke="#ffe100"/>
    <use x="32.761" y="129.328" xlink:href="#dot" stroke="#ff0000"/>
    <use x="161.488" y="152.026" xlink:href="#dot" stroke="#00ebff"/>
    <use x="163.926" y="155.069" xlink:href="#dot" stroke="#ffe100"/>
    <use x="38.132" y="109.283" xlink:href="#dot" stroke="#ff0000"/>
    <use x="160.961" y="153.99" xlink:href="#dot" stroke="#00ebff"/>
    <use x="162.835" y="157.41" xlink:href="#dot" stroke="#ffe100"/>
    <use x="46.902" y="90.476" xlink:href="#dot" stroke="#ff0000"/>
    <use x="160.102" y="155.832" xlink:href="#dot" stroke="#00ebff"/>
    <use x="161.353" y="159.526" xlink:href="#dot" stroke="#ffe100"/>
    <use x="58.804" y="73.478" xlink:href="#dot" stroke="#ff0000"/>
    <use x="158.936" y="157.498" xlink:href="#dot" stroke="#00ebff"/>
    <use x="159.526" y="161.353" xlink:href="#dot" stroke="#ffe100"/>
    <use x="73.478" y="58.804" xlink:href="#dot" stroke="#ff0000"/>
    <use x="157.498" y="158.936" xlink:href="#dot" stroke="#00ebff"/>
    <use x="157.41" y="162.835" xlink:href="#dot" stroke="#ffe100"/>
    <use x="90.476" y="46.902" xlink:href="#dot" stroke="#ff0000"/>
    <use x="155.832" y="160.102" xlink:href="#dot" stroke="#00ebff"/>
    <use x="155.069" y="163.926" xlink:href="#dot" stroke="#ffe100"/>
    <use x="109.283" y="38.132" xlink:href="#dot" stroke="#ff0000"/>
    <use x="153.99" y="160.961" xlink:href="#dot" stroke="#00ebff"/>
    <use x="152.573" y="164.595" xlink:href="#dot" stroke="#ffe100"/>
    <use x="129.328" y="32.761" xlink:href="#dot" stroke="#ff0000"/>
    <use x="152.026" y="161.488" xlink:href="#dot" stroke="#00ebff"/>
    <use x="150" y="151.162" xlink:href="#dot" stroke="#ffe100"/>
    <use x="150" y="51.66" xlink:href="#dot" stroke="#ff0000"/>
    <use x="150" y="157.192" xlink:href="#dot" stroke="#00ebff"/>
    <use x="149.758" y="151.136" xlink:href="#dot" stroke="#ffe100"/>
    <use x="170.446" y="53.809" xlink:href="#dot" stroke="#ff0000"/>
    <use x="148.505" y="157.035" xlink:href="#dot" stroke="#00ebff"/>
    <use x="149.528" y="151.061" xlink:href="#dot" stroke="#ffe100"/>
    <use x="189.998" y="60.162" xlink:href="#dot" stroke="#ff0000"/>
    <use x="147.075" y="156.57" xlink:href="#dot" stroke="#00ebff"/>
    <use x="149.317" y="150.94" xlink:href="#dot" stroke="#ffe100"/>
    <use x="207.803" y="70.441" xlink:href="#dot" stroke="#ff0000"/>
    <use x="145.773" y="155.819" xlink:href="#dot" stroke="#00ebff"/>
    <use x="149.137" y="150.777" xlink:href="#dot" stroke="#ffe100"/>
    <use x="223.081" y="84.198" xlink:href="#dot" stroke="#ff0000"/>
    <use x="144.655" y="154.813" xlink:href="#dot" stroke="#00ebff"/>
    <use x="148.994" y="150.581" xlink:href="#dot" stroke="#ffe100"/>
    <use x="235.165" y="100.83" xlink:href="#dot" stroke="#ff0000"/>
    <use x="143.771" y="153.596" xlink:href="#dot" stroke="#00ebff"/>
    <use x="148.895" y="150.359" xlink:href="#dot" stroke="#ffe100"/>
    <use x="243.527" y="119.611" xlink:href="#dot" stroke="#ff0000"/>
    <use x="143.16" y="152.223" xlink:href="#dot" stroke="#00ebff"/>
    <use x="148.845" y="150.121" xlink:href="#dot" stroke="#ffe100"/>
    <use x="247.801" y="139.721" xlink:href="#dot" stroke="#ff0000"/>
    <use x="142.847" y="150.752" xlink:href="#dot" stroke="#00ebff"/>
    <use x="148.845" y="149.879" xlink:href="#dot" stroke="#ffe100"/>
    <use x="247.801" y="160.279" xlink:href="#dot" stroke="#ff0000"/>
    <use x="142.847" y="149.248" xlink:href="#dot" stroke="#00ebff"/>
    <use x="148.895" y="149.641" xlink:href="#dot" stroke="#ffe100"/>
    <use x="243.527" y="180.389" xlink:href="#dot" stroke="#ff0000"/>
    <use x="143.16" y="147.777" xlink:href="#dot" stroke="#00ebff"/>
    <use x="148.994" y="149.419" xlink:href="#dot" stroke="#ffe100"/>
    <use x="235.165" y="199.17" xlink:href="#dot" stroke="#ff0000"/>
    <use x="143.771" y="146.404" xlink:href="#dot" stroke="#00ebff"/>
    <use x="149.137" y="149.223" xlink:href="#dot" stroke="#ffe100"/>
    <use x="223.081" y="215.802" xlink:href="#dot" stroke="#ff0000"/>
    <use x="144.655" y="145.187" xlink:href="#dot" stroke="#00ebff"/>
    <use x="149.317" y="149.06" xlink:href="#dot" stroke="#ffe100"/>
    <use x="207.803" y="229.559" xlink:href="#dot" stroke="#ff0000"/>
    <use x="145.773" y="144.181" xlink:href="#dot" stroke="#00ebff"/>
    <use x="149.528" y="148.939" xlink:href="#dot" stroke="#ffe100"/>
    <use x="189.998" y="239.838" xlink:href="#dot" stroke="#ff0000"/>
    <use x="147.075" y="143.43" xlink:href="#dot" stroke="#00ebff"/>
    <use x="149.758" y="148.864" xlink:href="#dot" stroke="#ffe100"/>
    <use x="170.446" y="246.191" xlink:href="#dot" stroke="#ff0000"/>
    <use x="148.505" y="142.965" xlink:href="#dot" stroke="#00ebff"/>
    <use x="150" y="148.838" xlink:href="#dot" stroke="#ffe100"/>
    <use x="150" y="248.34" xlink:href="#dot" stroke="#ff0000"/>
    <use x="150" y="142.808" xlink:href="#dot" stroke="#00ebff"/>
    <use x="150.242" y="148.864" xlink:href="#dot" stroke="#ffe100"/>
    <use x="129.554" y="246.191" xlink:href="#dot" stroke="#ff0000"/>
    <use x="151.495" y="142.965" xlink:href="#dot" stroke="#00ebff"/>
    <use x="150.472" y="148.939" xlink:href="#dot" stroke="#ffe100"/>
    <use x="110.002" y="239.838" xlink:href="#dot" stroke="#ff0000"/>
    <use x="152.925" y="143.43" xlink:href="#dot" stroke="#00ebff"/>
    <use x="150.683" y="149.06" xlink:href="#dot" stroke="#ffe100"/>
    <use x="92.197" y="229.559" xlink:href="#dot" stroke="#ff0000"/>
    <use x="154.227" y="144.181" xlink:href="#dot" stroke="#00ebff"/>
    <use x="150.863" y="149.223" xlink:href="#dot" stroke="#ffe100"/>
    <use x="76.919" y="215.802" xlink:href="#dot" stroke="#ff0000"/>
    <use x="155.345" y="145.187" xlink:href="#dot" stroke="#00ebff"/>
    <use x="151.006" y="149.419" xlink:href="#dot" stroke="#ffe100"/>
    <use x="64.835" y="199.17" xlink:href="#dot" stroke="#ff0000"/>
    <use x="156.229" y="146.404" xlink:href="#dot" stroke="#00ebff"/>
    <use x="151.105" y="149.641" xlink:href="#dot" stroke="#ffe100"/>
    <use x="56.473" y="180.389" xlink:href="#dot" stroke="#ff0000"/>
    <use x="156.84" y="147.777" xlink:href="#dot" stroke="#00ebff"/>
    <use x="151.155" y="149.879" xlink:href="#dot" stroke="#ffe100"/>
    <use x="52.199" y="160.279" xlink:href="#dot" stroke="#ff0000"/>
    <use x="157.153" y="149.248" xlink:href="#dot" stroke="#00ebff"/>
    <use x="151.155" y="150.121" xlink:href="#dot" stroke="#ffe100"/>
    <use x="52.199" y="139.721" xlink:href="#dot" stroke="#ff0000"/>
    <use x="157.153" y="150.752" xlink:href="#dot" stroke="#00ebff"/>
    <use x="151.105" y="150.359" xlink:href="#dot" stroke="#ffe100"/>
    <use x="56.473" y="119.611" xlink:href="#dot" stroke="#ff0000"/>
    <use x="156.84" y="152.223" xlink:href="#dot" stroke="#00ebff"/>
    <use x="151.006" y="150.581" xlink:href="#dot" stroke="#ffe100"/>
    <use x="64.835" y="100.83" xlink:href="#dot" stroke="#ff0000"/>
    <use x="156.229" y="153.596" xlink:href="#dot" stroke="#00ebff"/>
    <use x="150.863" y="150.777" xlink:href="#dot" stroke="#ffe100"/>
    <use x="76.919" y="84.198" xlink:href="#dot" stroke="#ff0000"/>
    <use x="155.345" y="154.813" xlink:href="#dot" stroke="#00ebff"/>
    <use x="150.683" y="150.94" xlink:href="#dot" stroke="#ffe100"/>
    <use x="92.197" y="70.441" xlink:href="#dot" stroke="#ff0000"/>
    <use x="154.227" y="155.819" xlink:href="#dot" stroke="#00ebff"/>
    <use x="150.472" y="151.061" xlink:href="#dot" stroke="#ffe100"/>
    <use x="110.002" y="60.162" xlink:href="#dot" stroke="#ff0000"/>
    <use x="152.925" y="156.57" xlink:href="#dot" stroke="#00ebff"/>
    <use x="150.242" y="151.136" xlink:href="#dot" stroke="#ffe100"/>
    <use x="129.554" y="53.809" xlink:href="#dot" stroke="#ff0000"/>
    <use x="151.495" y="157.035" xlink:href="#dot" stroke="#00ebff"/>
    <use x="150" y="120.45" xlink:href="#dot" stroke="#ffe100"/>
    <use x="150" y="44.699" xlink:href="#dot" stroke="#ff0000"/>
    <use x="150" y="135.664" xlink:href="#dot" stroke="#00ebff"/>
    <use x="157.648" y="121.457" xlink:href="#dot" stroke="#ffe100"/>
    <use x="177.254" y="48.287" xlink:href="#dot" stroke="#ff0000"/>
    <use x="153.71" y="136.152" xlink:href="#dot" stroke="#00ebff"/>
    <use x="164.775" y="124.409" xlink:href="#dot" stroke="#ffe100"/>
    <use x="202.65" y="58.807" xlink:href="#dot" stroke="#ff0000"/>
    <use x="157.168" y="137.585" xlink:href="#dot" stroke="#00ebff"/>
    <use x="170.895" y="129.105" xlink:href="#dot" stroke="#ffe100"/>
    <use x="224.459" y="75.541" xlink:href="#dot" stroke="#ff0000"/>
    <use x="160.137" y="139.863" xlink:href="#dot" stroke="#00ebff"/>
    <use x="175.591" y="135.225" xlink:href="#dot" stroke="#ffe100"/>
    <use x="241.193" y="97.35" xlink:href="#dot" stroke="#ff0000"/>
    <use x="162.415" y="142.832" xlink:href="#dot" stroke="#00ebff"/>
    <use x="178.543" y="142.352" xlink:href="#dot" stroke="#ffe100"/>
    <use x="251.713" y="122.746" xlink:href="#dot" stroke="#ff0000"/>
    <use x="163.848" y="146.29" xlink:href="#dot" stroke="#00ebff"/>
    <use x="179.55" y="150" xlink:href="#dot" stroke="#ffe100"/>
    <use x="255.301" y="150" xlink:href="#dot" stroke="#ff0000"/>
    <use x="164.336" y="150" xlink:href="#dot" stroke="#00ebff"/>
    <use x="178.543" y="157.648" xlink:href="#dot" stroke="#ffe100"/>
    <use x="251.713" y="177.254" xlink:href="#dot" stroke="#ff0000"/>
    <use x="163.848" y="153.71" xlink:href="#dot" stroke="#00ebff"/>
    <use x="175.591" y="164.775" xlink:href="#dot" stroke="#ffe100"/>
    <use x="241.193" y="202.65" xlink:href="#dot" stroke="#ff0000"/>
    <use x="162.415" y="157.168" xlink:href="#dot" stroke="#00ebff"/>
    <use x="170.895" y="170.895" xlink:href="#dot" stroke="#ffe100"/>
    <use x="224.459" y="224.459" xlink:href="#dot" stroke="#ff0000"/>
    <use x="160.137" y="160.137" xlink:href="#dot" stroke="#00ebff"/>
    <use x="164.775" y="175.591" xlink:href="#dot" stroke="#ffe100"/>
    <use x="202.65" y="241.193" xlink:href="#dot" stroke="#ff0000"/>
    <use x="157.168" y="162.415" xlink:href="#dot" stroke="#00ebff"/>
    <use x="157.648" y="178.543" xlink:href="#dot" stroke="#ffe100"/>
    <use x="177.254" y="251.713" xlink:href="#dot" stroke="#ff0000"/>
    <use x="153.71" y="163.848" xlink:href="#dot" stroke="#00ebff"/>
    <use x="150" y="179.55" xlink:href="#dot" stroke="#ffe100"/>
    <use x="150" y="255.301" xlink:href="#dot" stroke="#ff0000"/>
    <use x="150" y="164.336" xlink:href="#dot" stroke="#00ebff"/>
    <use x="142.352" y="178.543" xlink:href="#dot" stroke="#ffe100"/>
    <use x="122.746" y="251.713" xlink:href="#dot" stroke="#ff0000"/>
    <use x="146.29" y="163.848" xlink:href="#dot" stroke="#00ebff"/>
    <use x="135.225" y="175.591" xlink:href="#dot" stroke="#ffe100"/>
    <use x="97.35" y="241.193" xlink:href="#dot" stroke="#ff0000"/>
    <use x="142.832" y="162.415" xlink:href="#dot" stroke="#00ebff"/>
    <use x="129.105" y="170.895" xlink:href="#dot" stroke="#ffe100"/>
    <use x="75.541" y="224.459" xlink:href="#dot" stroke="#ff0000"/>
    <use x="139.863" y="160.137" xlink:href="#dot" stroke="#00ebff"/>
    <use x="124.409" y="164.775" xlink:href="#dot" stroke="#ffe100"/>
    <use x="58.807" y="202.65" xlink:href="#dot" stroke="#ff0000"/>
    <use x="137.585" y="157.168" xlink:href="#dot" stroke="#00ebff"/>
    <use x="121.457" y="157.648" xlink:href="#dot" stroke="#ffe100"/>
    <use x="48.287" y="177.254" xlink:href="#dot" stroke="#ff0000"/>
    <use x="136.152" y="153.71" xlink:href="#dot" stroke="#00ebff"/>
    <use x="120.45" y="150" xlink:href="#dot" stroke="#ffe100"/>
    <use x="44.699" y="150" xlink:href="#dot" stroke="#ff0000"/>
    <use x="135.664" y="150" xlink:href="#dot" stroke="#00ebff"/>
    <use x="121.457" y="142.352" xlink:href="#dot" stroke="#ffe100"/>
    <use x="48.287" y="122.746" xlink:href="#dot" stroke="#ff0000"/>
    <use x="136.152" y="146.29" xlink:href="#dot" stroke="#00ebff"/>
    <use x="124.409" y="135.225" xlink:href="#dot" stroke="#ffe100"/>
    <use x="58.807" y="97.35" xlink:href="#dot" stroke="#ff0000"/>
    <use x="137.585" y="142.832" xlink:href="#dot" stroke="#00ebff"/>
    <use x="129.105" y="129.105" xlink:href="#dot" stroke="#ffe100"/>
    <use x="75.541" y="75.541" xlink:href="#dot" stroke="#ff0000"/>
    <use x="139.863" y="139.863" xlink:href="#dot" stroke="#00ebff"/>
    <use x="135.225" y="124.409" xlink:href="#dot" stroke="#ffe100"/>
    <use x="97.35" y="58.807" xlink:href="#dot" stroke="#ff0000"/>
    <use x="142.832" y="137.585" xlink:href="#dot" stroke="#00ebff"/>
    <use x="142.352" y="121.457" xlink:href="#dot" stroke="#ffe100"/>
    <use x="122.746" y="48.287" xlink:href="#dot" stroke="#ff0000"/>
    <use x="146.29" y="136.152" xlink:href="#dot" stroke="#00ebff"/>
    <use x="150" y="114.916" xlink:href="#dot" stroke="#ffe100"/>
    <use x="150" y="60.088" xlink:href="#dot" stroke="#ff0000"/>
    <use x="150" y="131.205" xlink:href="#dot" stroke="#00ebff"/>
    <use x="162" y="117.031" xlink:href="#dot" stroke="#ffe100"/>
    <use x="180.752" y="65.51" xlink:href="#dot" stroke="#ff0000"/>
    <use x="156.428" y="132.339" xlink:href="#dot" stroke="#00ebff"/>
    <use x="172.552" y="123.124" xlink:href="#dot" stroke="#ffe100"/>
    <use x="207.795" y="81.123" xlink:href="#dot" stroke="#ff0000"/>
    <use x="162.081" y="135.602" xlink:href="#dot" stroke="#00ebff"/>
    <use x="180.384" y="132.458" xlink:href="#dot" stroke="#ffe100"/>
    <use x="227.866" y="105.044" xlink:href="#dot" stroke="#ff0000"/>
    <use x="166.277" y="140.603" xlink:href="#dot" stroke="#00ebff"/>
    <use x="184.551" y="143.908" xlink:href="#dot" stroke="#ffe100"/>
    <use x="238.546" y="134.387" xlink:href="#dot" stroke="#ff0000"/>
    <use x="168.509" y="146.736" xlink:href="#dot" stroke="#00ebff"/>
    <use x="184.551" y="156.092" xlink:href="#dot" stroke="#ffe100"/>
    <use x="238.546" y="165.613" xlink:href="#dot" stroke="#ff0000"/>
    <use x="168.509" y="153.264" xlink:href="#dot" stroke="#00ebff"/>
    <use x="180.384" y="167.542" xlink:href="#dot" stroke="#ffe100"/>
    <use x="227.866" y="194.956" xlink:href="#dot" stroke="#ff0000"/>
    <use x="166.277" y="159.397" xlink:href="#dot" stroke="#00ebff"/>
    <use x="172.552" y="176.876" xlink:href="#dot" stroke="#ffe100"/>
    <use x="207.795" y="218.877" xlink:href="#dot" stroke="#ff0000"/>
    <use x="162.081" y="164.398" xlink:href="#dot" stroke="#00ebff"/>
    <use x="162" y="182.969" xlink:href="#dot" stroke="#ffe100"/>
    <use x="180.752" y="234.49" xlink:href="#dot" stroke="#ff0000"/>
    <use x="156.428" y="167.661" xlink:href="#dot" stroke="#00ebff"/>
    <use x="150" y="185.084" xlink:href="#dot" stroke="#ffe100"/>
    <use x="150" y="239.912" xlink:href="#dot" stroke="#ff0000"/>
    <use x="150" y="168.795" xlink:href="#dot" stroke="#00ebff"/>
    <use x="138" y="182.969" xlink:href="#dot" stroke="#ffe100"/>
    <use x="119.248" y="234.49" xlink:href="#dot" stroke="#ff0000"/>
    <use x="143.572" y="167.661" xlink:href="#dot" stroke="#00ebff"/>
    <use x="127.448" y="176.876" xlink:href="#dot" stroke="#ffe100"/>
    <use x="92.205" y="218.877" xlink:href="#dot" stroke="#ff0000"/>
    <use x="137.919" y="164.398" xlink:href="#dot" stroke="#00ebff"/>
    <use x="119.616" y="167.542" xlink:href="#dot" stroke="#ffe100"/>
    <use x="72.134" y="194.956" xlink:href="#dot" stroke="#ff0000"/>
    <use x="133.723" y="159.397" xlink:href="#dot" stroke="#00ebff"/>
    <use x="115.449" y="156.092" xlink:href="#dot" stroke="#ffe100"/>
    <use x="61.454" y="165.613" xlink:href="#dot" stroke="#ff0000"/>
    <use x="131.491" y="153.264" xlink:href="#dot" stroke="#00ebff"/>
    <use x="115.449" y="143.908" xlink:href="#dot" stroke="#ffe100"/>
    <use x="61.454" y="134.387" xlink:href="#dot" stroke="#ff0000"/>
    <use x="131.491" y="146.736" xlink:href="#dot" stroke="#00ebff"/>
    <use x="119.616" y="132.458" xlink:href="#dot" stroke="#ffe100"/>
    <use x="72.134" y="105.044" xlink:href="#dot" stroke="#ff0000"/>
    <use x="133.723" y="140.603" xlink:href="#dot" stroke="#00ebff"/>
    <use x="127.448" y="123.124" xlink:href="#dot" stroke="#ffe100"/>
    <use x="92.205" y="81.123" xlink:href="#dot" stroke="#ff0000"/>
    <use x="137.919" y="135.602" xlink:href="#dot" stroke="#00ebff"/>
    <use x="138" y="117.031" xlink:href="#dot" stroke="#ffe100"/>
    <use x="119.248" y="65.51" xlink:href="#dot" stroke="#ff0000"/>
    <use x="143.572" y="132.339" xlink:href="#dot" stroke="#00ebff"/>
    <use x="150" y="130.834" xlink:href="#dot" stroke="#ffe100"/>
    <use x="150" y="95.193" xlink:href="#dot" stroke="#ff0000"/>
    <use x="150" y="143.589" xlink:href="#dot" stroke="#00ebff"/>
    <use x="159.583" y="133.402" xlink:href="#dot" stroke="#ffe100"/>
    <use x="177.404" y="102.536" xlink:href="#dot" stroke="#ff0000"/>
    <use x="153.206" y="144.448" xlink:href="#dot" stroke="#00ebff"/>
    <use x="166.598" y="140.417" xlink:href="#dot" stroke="#ffe100"/>
    <use x="197.464" y="122.596" xlink:href="#dot" stroke="#ff0000"/>
    <use x="155.552" y="146.794" xlink:href="#dot" stroke="#00ebff"/>
    <use x="169.166" y="150" xlink:href="#dot" stroke="#ffe100"/>
    <use x="204.807" y="150" xlink:href="#dot" stroke="#ff0000"/>
    <use x="156.411" y="150" xlink:href="#dot" stroke="#00ebff"/>
    <use x="166.598" y="159.583" xlink:href="#dot" stroke="#ffe100"/>
    <use x="197.464" y="177.404" xlink:href="#dot" stroke="#ff0000"/>
    <use x="155.552" y="153.206" xlink:href="#dot" stroke="#00ebff"/>
    <use x="159.583" y="166.598" xlink:href="#dot" stroke="#ffe100"/>
    <use x="177.404" y="197.464" xlink:href="#dot" stroke="#ff0000"/>
    <use x="153.206" y="155.552" xlink:href="#dot" stroke="#00ebff"/>
    <use x="150" y="169.166" xlink:href="#dot" stroke="#ffe100"/>
    <use x="150" y="204.807" xlink:href="#dot" stroke="#ff0000"/>
    <use x="150" y="156.411" xlink:href="#dot" stroke="#00ebff"/>
    <use x="140.417" y="166.598" xlink:href="#dot" stroke="#ffe100"/>
    <use x="122.596" y="197.464" xlink:href="#dot" stroke="#ff0000"/>
    <use x="146.794" y="155.552" xlink:href="#dot" stroke="#00ebff"/>
    <use x="133.402" y="159.583" xlink:href="#dot" stroke="#ffe100"/>
    <use x="102.536" y="177.404" xlink:href="#dot" stroke="#ff0000"/>
    <use x="144.448" y="153.206" xlink:href="#dot" stroke="#00ebff"/>
    <use x="130.834" y="150" xlink:href="#dot" stroke="#ffe100"/>
    <use x="95.193" y="150" xlink:href="#dot" stroke="#ff0000"/>
    <use x="143.589" y="150" xlink:href="#dot" stroke="#00ebff"/>
    <use x="133.402" y="140.417" xlink:href="#dot" stroke="#ffe100"/>
    <use x="102.536" y="122.596" xlink:href="#dot" stroke="#ff0000"/>
    <use x="144.448" y="146.794" xlink:href="#dot" stroke="#00ebff"/>
    <use x="140.417" y="133.402" xlink:href="#dot" stroke="#ffe100"/>
    <use x="122.596" y="102.536" xlink:href="#dot" stroke="#ff0000"/>
    <use x="146.794" y="144.448" xlink:href="#dot" stroke="#00ebff"/>
    <use x="150" y="146.537" xlink:href="#dot" stroke="#ffe100"/>
    <use x="150" y="128.948" xlink:href="#dot" stroke="#ff0000"/>
    <use x="150" y="153.497" xlink:href="#dot" stroke="#00ebff"/>
    <use x="152.999" y="148.269" xlink:href="#dot" stroke="#ffe100"/>
    <use x="168.232" y="139.474" xlink:href="#dot" stroke="#ff0000"/>
    <use x="146.971" y="151.749" xlink:href="#dot" stroke="#00ebff"/>
    <use x="152.999" y="151.731" xlink:href="#dot" stroke="#ffe100"/>
    <use x="168.232" y="160.526" xlink:href="#dot" stroke="#ff0000"/>
    <use x="146.971" y="148.251" xlink:href="#dot" stroke="#00ebff"/>
    <use x="150" y="153.463" xlink:href="#dot" stroke="#ffe100"/>
    <use x="150" y="171.052" xlink:href="#dot" stroke="#ff0000"/>
    <use x="150" y="146.503" xlink:href="#dot" stroke="#00ebff"/>
    <use x="147.001" y="151.731" xlink:href="#dot" stroke="#ffe100"/>
    <use x="131.768" y="160.526" xlink:href="#dot" stroke="#ff0000"/>
    <use x="153.029" y="148.251" xlink:href="#dot" stroke="#00ebff"/>
    <use x="147.001" y="148.269" xlink:href="#dot" stroke="#ffe100"/>
    <use x="131.768" y="139.474" xlink:href="#dot" stroke="#ff0000"/>
    <use x="153.029" y="151.749" xlink:href="#dot" stroke="#00ebff"/>
</svg>
