<?xml version="1.0" standalone="no"?>
<svg width="2400px" height="1400px" version="1.1" xmlns="http://www.w3.org/2000/svg"
>
    <rect x="0" y="0" width="2400" height="1400" fill="#ffffff"/>
    <defs>
        <g id="dot">
            <line x1="1" y1="1" x2="0" y2="0"/>
        </g>
        <g id="cross">
            <line x1="-3" y1="0" x2="3" y2="0"/>
            <line x1="0" y1="-3" x2="0" y2="3"/>
        </g>
        <g id="square">
            <line x1="-3" y1="-3" x2="-3" y2="3"/>
            <line x1="-3" y1="3" x2="3" y2="3"/>
            <line x1="3" y1="3" x2="3" y2="-3"/>
            <line x1="3" y1="-3" x2="-3" y2="-3"/>
        </g>
        <g id="round">
            <ellipse cx="0" cy="0" rx="3" ry="3" fill="none"/>
        </g>
        <g id="triangle">
            <line x1="0" y1="-3" x2="-3" y2="3"/>
            <line x1="-3" y1="3" x2="3" y2="3"/>
            <line x1="0" y1="-3" x2="3" y2="3"/>
        </g>
    </defs>
    <line x1="256.24" y1="700" x2="2143.76" y2="700" stroke="#7f7f7f"/>
    <g>
        <title>element</title>
        <g>
            <line x1="846.742" y1="425.326" x2="846.742" y2="150.653" stroke="#7f7fff"/>
            <line x1="846.742" y1="974.674" x2="846.742" y2="1249.347" stroke="#7f7fff"/>
        </g>
        <g>
            <polyline fill="none" stroke="#7f7fff"
                      points="384.524,227.202 379.005,236.753 373.634,246.305 368.409,255.856 363.327,265.408 358.385,274.959 353.581,284.511 348.913,294.062 344.379,303.614 339.976,313.165 335.702,322.717 331.555,332.268 327.534,341.82 323.636,351.371 319.86,360.922 316.205,370.474 312.669,380.025 309.251,389.577 305.949,399.128 302.761,408.68 299.687,418.231 296.726,427.783 293.876,437.334 291.137,446.886 288.507,456.437 285.985,465.989 283.57,475.54 281.263,485.092 279.061,494.643 276.964,504.195 274.971,513.746 273.082,523.298 271.296,532.849 269.612,542.401 268.031,551.952 266.55,561.504 265.171,571.055 263.891,580.607 262.712,590.158 261.632,599.709 260.652,609.261 259.77,618.812 258.987,628.364 258.303,637.915 257.717,647.467 257.228,657.018 256.838,666.57 256.545,676.121 256.35,685.673 256.253,695.224 256.253,704.776 256.35,714.327 256.545,723.879 256.838,733.43 257.228,742.982 257.717,752.533 258.303,762.085 258.987,771.636 259.77,781.188 260.652,790.739 261.632,800.291 262.712,809.842 263.891,819.393 265.171,828.945 266.55,838.496 268.031,848.048 269.612,857.599 271.296,867.151 273.082,876.702 274.971,886.254 276.964,895.805 279.061,905.357 281.263,914.908 283.57,924.46 285.985,934.011 288.507,943.563 291.137,953.114 293.876,962.666 296.726,972.217 299.687,981.769 302.761,991.32 305.949,1000.872 309.251,1010.423 312.669,1019.975 316.205,1029.526 319.86,1039.078 323.636,1048.629 327.534,1058.18 331.555,1067.732 335.702,1077.283 339.976,1086.835 344.379,1096.386 348.913,1105.938 353.581,1115.489 358.385,1125.041 363.327,1134.592 368.409,1144.144 373.634,1153.695 379.005,1163.247 384.524,1172.798 "/>
            <line x1="384.524" y1="227.202" x2="412.726" y2="227.202" stroke="#7f7fff"/>
            <line x1="384.524" y1="1172.798" x2="412.726" y2="1172.798" stroke="#7f7fff"/>
            <polyline fill="none" stroke="#7f7fff"
                      points="412.726,227.202 410.672,236.753 408.662,246.305 406.696,255.856 404.774,265.408 402.894,274.959 401.059,284.511 399.266,294.062 397.517,303.614 395.81,313.165 394.146,322.717 392.526,332.268 390.948,341.82 389.412,351.371 387.919,360.922 386.469,370.474 385.06,380.025 383.695,389.577 382.371,399.128 381.089,408.68 379.85,418.231 378.652,427.783 377.497,437.334 376.383,446.886 375.311,456.437 374.281,465.989 373.292,475.54 372.345,485.092 371.44,494.643 370.576,504.195 369.753,513.746 368.972,523.298 368.232,532.849 367.534,542.401 366.877,551.952 366.261,561.504 365.686,571.055 365.153,580.607 364.661,590.158 364.209,599.709 363.799,609.261 363.43,618.812 363.102,628.364 362.815,637.915 362.569,647.467 362.364,657.018 362.201,666.57 362.078,676.121 361.996,685.673 361.955,695.224 361.955,704.776 361.996,714.327 362.078,723.879 362.201,733.43 362.364,742.982 362.569,752.533 362.815,762.085 363.102,771.636 363.43,781.188 363.799,790.739 364.209,800.291 364.661,809.842 365.153,819.393 365.686,828.945 366.261,838.496 366.877,848.048 367.534,857.599 368.232,867.151 368.972,876.702 369.753,886.254 370.576,895.805 371.44,905.357 372.345,914.908 373.292,924.46 374.281,934.011 375.311,943.563 376.383,953.114 377.497,962.666 378.652,972.217 379.85,981.769 381.089,991.32 382.371,1000.872 383.695,1010.423 385.06,1019.975 386.469,1029.526 387.919,1039.078 389.412,1048.629 390.948,1058.18 392.526,1067.732 394.146,1077.283 395.81,1086.835 397.517,1096.386 399.266,1105.938 401.059,1115.489 402.894,1125.041 404.774,1134.592 406.696,1144.144 408.662,1153.695 410.672,1163.247 412.726,1172.798 "/>
        </g>
        <g>
            <polyline fill="none" stroke="#7f7fff"
                      points="488.938,245.891 484.076,255.065 479.341,264.239 474.73,273.413 470.24,282.587 465.871,291.761 461.62,300.934 457.485,310.108 453.465,319.282 449.559,328.456 445.764,337.63 442.08,346.804 438.504,355.978 435.037,365.152 431.676,374.326 428.42,383.5 425.269,392.674 422.22,401.848 419.274,411.022 416.429,420.195 413.684,429.369 411.038,438.543 408.49,447.717 406.041,456.891 403.688,466.065 401.431,475.239 399.269,484.413 397.202,493.587 395.23,502.761 393.351,511.935 391.564,521.109 389.871,530.282 388.269,539.456 386.758,548.63 385.339,557.804 384.011,566.978 382.772,576.152 381.624,585.326 380.565,594.5 379.595,603.674 378.714,612.848 377.922,622.022 377.219,631.196 376.604,640.37 376.077,649.543 375.638,658.717 375.287,667.891 375.024,677.065 374.849,686.239 374.761,695.413 374.761,704.587 374.849,713.761 375.024,722.935 375.287,732.109 375.638,741.283 376.077,750.457 376.604,759.63 377.219,768.804 377.922,777.978 378.714,787.152 379.595,796.326 380.565,805.5 381.624,814.674 382.772,823.848 384.011,833.022 385.339,842.196 386.758,851.37 388.269,860.544 389.871,869.718 391.564,878.891 393.351,888.065 395.23,897.239 397.202,906.413 399.269,915.587 401.431,924.761 403.688,933.935 406.041,943.109 408.49,952.283 411.038,961.457 413.684,970.631 416.429,979.805 419.274,988.978 422.22,998.152 425.269,1007.326 428.42,1016.5 431.676,1025.674 435.037,1034.848 438.504,1044.022 442.08,1053.196 445.764,1062.37 449.559,1071.544 453.465,1080.718 457.485,1089.892 461.62,1099.066 465.871,1108.239 470.24,1117.413 474.73,1126.587 479.341,1135.761 484.076,1144.935 488.938,1154.109 "/>
            <line x1="488.938" y1="245.891" x2="514.164" y2="245.891" stroke="#7f7fff"/>
            <line x1="488.938" y1="1154.109" x2="514.164" y2="1154.109" stroke="#7f7fff"/>
            <polyline fill="none" stroke="#7f7fff"
                      points="514.164,245.891 512.724,255.065 511.315,264.239 509.935,273.413 508.586,282.587 507.266,291.761 505.976,300.934 504.717,310.108 503.487,319.282 502.287,328.456 501.116,337.63 499.976,346.804 498.865,355.978 497.783,365.152 496.732,374.326 495.709,383.5 494.717,392.674 493.754,401.848 492.82,411.022 491.916,420.195 491.041,429.369 490.196,438.543 489.38,447.717 488.594,456.891 487.836,466.065 487.109,475.239 486.41,484.413 485.741,493.587 485.101,502.761 484.49,511.935 483.908,521.109 483.356,530.282 482.832,539.456 482.338,548.63 481.873,557.804 481.437,566.978 481.031,576.152 480.653,585.326 480.304,594.5 479.985,603.674 479.695,612.848 479.433,622.022 479.201,631.196 478.998,640.37 478.824,649.543 478.678,658.717 478.562,667.891 478.475,677.065 478.417,686.239 478.388,695.413 478.388,704.587 478.417,713.761 478.475,722.935 478.562,732.109 478.678,741.283 478.824,750.457 478.998,759.63 479.201,768.804 479.433,777.978 479.695,787.152 479.985,796.326 480.304,805.5 480.653,814.674 481.031,823.848 481.437,833.022 481.873,842.196 482.338,851.37 482.832,860.544 483.356,869.718 483.908,878.891 484.49,888.065 485.101,897.239 485.741,906.413 486.41,915.587 487.109,924.761 487.836,933.935 488.594,943.109 489.38,952.283 490.196,961.457 491.041,970.631 491.916,979.805 492.82,988.978 493.754,998.152 494.717,1007.326 495.709,1016.5 496.732,1025.674 497.783,1034.848 498.865,1044.022 499.976,1053.196 501.116,1062.37 502.287,1071.544 503.487,1080.718 504.717,1089.892 505.976,1099.066 507.266,1108.239 508.586,1117.413 509.935,1126.587 511.315,1135.761 512.724,1144.935 514.164,1154.109 "/>
        </g>
        <g>
            <polyline fill="none" stroke="#7f7fff"
                      points="567.532,278.213 564.38,286.734 561.3,295.255 558.292,303.776 555.357,312.297 552.492,320.818 549.698,329.339 546.974,337.86 544.319,346.381 541.734,354.902 539.217,363.422 536.769,371.943 534.388,380.464 532.075,388.985 529.828,397.506 527.648,406.027 525.534,414.548 523.486,423.069 521.504,431.59 519.587,440.111 517.734,448.632 515.946,457.153 514.222,465.674 512.562,474.195 510.966,482.716 509.433,491.237 507.964,499.758 506.557,508.279 505.213,516.8 503.932,525.321 502.713,533.841 501.556,542.362 500.461,550.883 499.427,559.404 498.456,567.925 497.545,576.446 496.697,584.967 495.909,593.488 495.182,602.009 494.516,610.53 493.911,619.051 493.367,627.572 492.884,636.093 492.461,644.614 492.098,653.135 491.796,661.656 491.555,670.177 491.374,678.698 491.253,687.219 491.193,695.74 491.193,704.26 491.253,712.781 491.374,721.302 491.555,729.823 491.796,738.344 492.098,746.865 492.461,755.386 492.884,763.907 493.367,772.428 493.911,780.949 494.516,789.47 495.182,797.991 495.909,806.512 496.697,815.033 497.545,823.554 498.456,832.075 499.427,840.596 500.461,849.117 501.556,857.638 502.713,866.159 503.932,874.679 505.213,883.2 506.557,891.721 507.964,900.242 509.433,908.763 510.966,917.284 512.562,925.805 514.222,934.326 515.946,942.847 517.734,951.368 519.587,959.889 521.504,968.41 523.486,976.931 525.534,985.452 527.648,993.973 529.828,1002.494 532.075,1011.015 534.388,1019.536 536.769,1028.057 539.217,1036.578 541.734,1045.098 544.319,1053.619 546.974,1062.14 549.698,1070.661 552.492,1079.182 555.357,1087.703 558.292,1096.224 561.3,1104.745 564.38,1113.266 567.532,1121.787 "/>
            <line x1="567.532" y1="278.213" x2="597.628" y2="278.213" stroke="#7f7fff"/>
            <line x1="567.532" y1="1121.787" x2="597.628" y2="1121.787" stroke="#7f7fff"/>
            <polyline fill="none" stroke="#7f7fff"
                      points="597.628,278.213 596.533,286.734 595.46,295.255 594.409,303.776 593.382,312.297 592.377,320.818 591.394,329.339 590.435,337.86 589.497,346.381 588.583,354.902 587.691,363.422 586.821,371.943 585.974,380.464 585.15,388.985 584.348,397.506 583.568,406.027 582.811,414.548 582.076,423.069 581.364,431.59 580.674,440.111 580.007,448.632 579.362,457.153 578.739,465.674 578.139,474.195 577.561,482.716 577.005,491.237 576.472,499.758 575.961,508.279 575.472,516.8 575.006,525.321 574.561,533.841 574.139,542.362 573.74,550.883 573.362,559.404 573.007,567.925 572.674,576.446 572.364,584.967 572.075,593.488 571.809,602.009 571.565,610.53 571.343,619.051 571.143,627.572 570.966,636.093 570.81,644.614 570.677,653.135 570.566,661.656 570.478,670.177 570.411,678.698 570.367,687.219 570.345,695.74 570.345,704.26 570.367,712.781 570.411,721.302 570.478,729.823 570.566,738.344 570.677,746.865 570.81,755.386 570.966,763.907 571.143,772.428 571.343,780.949 571.565,789.47 571.809,797.991 572.075,806.512 572.364,815.033 572.674,823.554 573.007,832.075 573.362,840.596 573.74,849.117 574.139,857.638 574.561,866.159 575.006,874.679 575.472,883.2 575.961,891.721 576.472,900.242 577.005,908.763 577.561,917.284 578.139,925.805 578.739,934.326 579.362,942.847 580.007,951.368 580.674,959.889 581.364,968.41 582.076,976.931 582.811,985.452 583.568,993.973 584.348,1002.494 585.15,1011.015 585.974,1019.536 586.821,1028.057 587.691,1036.578 588.583,1045.098 589.497,1053.619 590.435,1062.14 591.394,1070.661 592.377,1079.182 593.382,1087.703 594.409,1096.224 595.46,1104.745 596.533,1113.266 597.628,1121.787 "/>
        </g>
        <g>
            <polyline fill="none" stroke="#7f7fff"
                      points="691.001,325.512 686.316,333.077 681.761,340.643 677.334,348.208 673.032,355.774 668.852,363.339 664.793,370.905 660.851,378.47 657.024,386.035 653.312,393.601 649.71,401.166 646.218,408.732 642.834,416.297 639.555,423.862 636.382,431.428 633.311,438.993 630.341,446.559 627.472,454.124 624.702,461.689 622.029,469.255 619.452,476.82 616.971,484.386 614.584,491.951 612.291,499.517 610.089,507.082 607.979,514.647 605.96,522.213 604.03,529.778 602.19,537.344 600.437,544.909 598.772,552.474 597.194,560.04 595.703,567.605 594.297,575.171 592.977,582.736 591.741,590.302 590.59,597.867 589.523,605.432 588.539,612.998 587.638,620.563 586.821,628.129 586.086,635.694 585.433,643.259 584.862,650.825 584.373,658.39 583.966,665.956 583.641,673.521 583.397,681.086 583.234,688.652 583.153,696.217 583.153,703.783 583.234,711.348 583.397,718.914 583.641,726.479 583.966,734.044 584.373,741.61 584.862,749.175 585.433,756.741 586.086,764.306 586.821,771.871 587.638,779.437 588.539,787.002 589.523,794.568 590.59,802.133 591.741,809.698 592.977,817.264 594.297,824.829 595.703,832.395 597.194,839.96 598.772,847.526 600.437,855.091 602.19,862.656 604.03,870.222 605.96,877.787 607.979,885.353 610.089,892.918 612.291,900.483 614.584,908.049 616.971,915.614 619.452,923.18 622.029,930.745 624.702,938.311 627.472,945.876 630.341,953.441 633.311,961.007 636.382,968.572 639.555,976.138 642.834,983.703 646.218,991.268 649.71,998.834 653.312,1006.399 657.024,1013.965 660.851,1021.53 664.793,1029.095 668.852,1036.661 673.032,1044.226 677.334,1051.792 681.761,1059.357 686.316,1066.923 691.001,1074.488 "/>
            <line x1="691.001" y1="325.512" x2="707.176" y2="325.512" stroke="#7f7fff"/>
            <line x1="691.001" y1="1074.488" x2="707.176" y2="1074.488" stroke="#7f7fff"/>
            <polyline fill="none" stroke="#7f7fff"
                      points="707.176,325.512 707.462,333.077 707.742,340.643 708.017,348.208 708.285,355.774 708.548,363.339 708.805,370.905 709.056,378.47 709.301,386.035 709.54,393.601 709.774,401.166 710.001,408.732 710.223,416.297 710.439,423.862 710.649,431.428 710.853,438.993 711.052,446.559 711.244,454.124 711.431,461.689 711.612,469.255 711.787,476.82 711.956,484.386 712.119,491.951 712.277,499.517 712.429,507.082 712.574,514.647 712.715,522.213 712.849,529.778 712.977,537.344 713.1,544.909 713.216,552.474 713.327,560.04 713.432,567.605 713.531,575.171 713.625,582.736 713.712,590.302 713.794,597.867 713.87,605.432 713.94,612.998 714.004,620.563 714.062,628.129 714.115,635.694 714.161,643.259 714.202,650.825 714.237,658.39 714.266,665.956 714.29,673.521 714.307,681.086 714.319,688.652 714.325,696.217 714.325,703.783 714.319,711.348 714.307,718.914 714.29,726.479 714.266,734.044 714.237,741.61 714.202,749.175 714.161,756.741 714.115,764.306 714.062,771.871 714.004,779.437 713.94,787.002 713.87,794.568 713.794,802.133 713.712,809.698 713.625,817.264 713.531,824.829 713.432,832.395 713.327,839.96 713.216,847.526 713.1,855.091 712.977,862.656 712.849,870.222 712.715,877.787 712.574,885.353 712.429,892.918 712.277,900.483 712.119,908.049 711.956,915.614 711.787,923.18 711.612,930.745 711.431,938.311 711.244,945.876 711.052,953.441 710.853,961.007 710.649,968.572 710.439,976.138 710.223,983.703 710.001,991.268 709.774,998.834 709.54,1006.399 709.301,1013.965 709.056,1021.53 708.805,1029.095 708.548,1036.661 708.285,1044.226 708.017,1051.792 707.742,1059.357 707.462,1066.923 707.176,1074.488 "/>
            <line x1="811.716" y1="325.512" x2="811.716" y2="407.885" stroke="#7f7fff"/>
            <line x1="707.176" y1="325.512" x2="811.716" y2="325.512" stroke="#7f7fff"/>
            <line x1="811.716" y1="1074.488" x2="811.716" y2="992.115" stroke="#7f7fff"/>
            <line x1="707.176" y1="1074.488" x2="811.716" y2="1074.488" stroke="#7f7fff"/>
            <polyline fill="none" stroke="#7f7fff"
                      points="811.716,407.885 808.729,413.787 805.819,419.688 802.983,425.589 800.221,431.491 797.531,437.392 794.913,443.293 792.366,449.194 789.889,455.096 787.481,460.997 785.141,466.898 782.868,472.8 780.661,478.701 778.521,484.602 776.445,490.504 774.434,496.405 772.487,502.306 770.603,508.208 768.782,514.109 767.023,520.01 765.325,525.911 763.688,531.813 762.112,537.714 760.596,543.615 759.14,549.517 757.743,555.418 756.404,561.319 755.124,567.221 753.902,573.122 752.738,579.023 751.632,584.925 750.582,590.826 749.59,596.727 748.653,602.628 747.774,608.53 746.95,614.431 746.182,620.332 745.47,626.234 744.813,632.135 744.212,638.036 743.666,643.938 743.175,649.839 742.738,655.74 742.357,661.642 742.03,667.543 741.758,673.444 741.54,679.345 741.377,685.247 741.268,691.148 741.214,697.049 741.214,702.951 741.268,708.852 741.377,714.753 741.54,720.655 741.758,726.556 742.03,732.457 742.357,738.358 742.738,744.26 743.175,750.161 743.666,756.062 744.212,761.964 744.813,767.865 745.47,773.766 746.182,779.668 746.95,785.569 747.774,791.47 748.653,797.372 749.59,803.273 750.582,809.174 751.632,815.075 752.738,820.977 753.902,826.878 755.124,832.779 756.404,838.681 757.743,844.582 759.14,850.483 760.596,856.385 762.112,862.286 763.688,868.187 765.325,874.089 767.023,879.99 768.782,885.891 770.603,891.792 772.487,897.694 774.434,903.595 776.445,909.496 778.521,915.398 780.661,921.299 782.868,927.2 785.141,933.102 787.481,939.003 789.889,944.904 792.366,950.806 794.913,956.707 797.531,962.608 800.221,968.509 802.983,974.411 805.819,980.312 808.729,986.213 811.716,992.115 "/>
        </g>
        <g>
            <polyline fill="none" stroke="#7f7fff"
                      points="896.908,425.038 896.156,430.593 895.405,436.148 894.656,441.703 893.909,447.258 893.166,452.812 892.426,458.367 891.692,463.922 890.964,469.477 890.242,475.031 889.528,480.586 888.822,486.141 888.125,491.696 887.437,497.251 886.76,502.805 886.094,508.36 885.44,513.915 884.798,519.47 884.17,525.024 883.555,530.579 882.954,536.134 882.368,541.689 881.797,547.244 881.242,552.798 880.703,558.353 880.182,563.908 879.677,569.463 879.191,575.017 878.722,580.572 878.272,586.127 877.841,591.682 877.429,597.237 877.037,602.791 876.665,608.346 876.314,613.901 875.982,619.456 875.672,625.01 875.383,630.565 875.115,636.12 874.869,641.675 874.644,647.23 874.442,652.784 874.261,658.339 874.103,663.894 873.967,669.449 873.854,675.003 873.763,680.558 873.695,686.113 873.65,691.668 873.627,697.223 873.627,702.777 873.65,708.332 873.695,713.887 873.763,719.442 873.854,724.997 873.967,730.551 874.103,736.106 874.261,741.661 874.442,747.216 874.644,752.77 874.869,758.325 875.115,763.88 875.383,769.435 875.672,774.99 875.982,780.544 876.314,786.099 876.665,791.654 877.037,797.209 877.429,802.763 877.841,808.318 878.272,813.873 878.722,819.428 879.191,824.983 879.677,830.537 880.182,836.092 880.703,841.647 881.242,847.202 881.797,852.756 882.368,858.311 882.954,863.866 883.555,869.421 884.17,874.976 884.798,880.53 885.44,886.085 886.094,891.64 886.76,897.195 887.437,902.749 888.125,908.304 888.822,913.859 889.528,919.414 890.242,924.969 890.964,930.523 891.692,936.078 892.426,941.633 893.166,947.188 893.909,952.742 894.656,958.297 895.405,963.852 896.156,969.407 896.908,974.962 "/>
            <line x1="896.908" y1="425.038" x2="937.248" y2="425.038" stroke="#7f7fff"/>
            <line x1="896.908" y1="974.962" x2="937.248" y2="974.962" stroke="#7f7fff"/>
            <polyline fill="none" stroke="#7f7fff"
                      points="937.248,425.038 937.11,430.593 936.974,436.148 936.841,441.703 936.711,447.258 936.584,452.812 936.46,458.367 936.339,463.922 936.22,469.477 936.104,475.031 935.991,480.586 935.881,486.141 935.774,491.696 935.669,497.251 935.567,502.805 935.469,508.36 935.373,513.915 935.279,519.47 935.189,525.024 935.101,530.579 935.017,536.134 934.935,541.689 934.856,547.244 934.779,552.798 934.706,558.353 934.635,563.908 934.568,569.463 934.503,575.017 934.44,580.572 934.381,586.127 934.325,591.682 934.271,597.237 934.22,602.791 934.172,608.346 934.127,613.901 934.085,619.456 934.045,625.01 934.008,630.565 933.975,636.12 933.943,641.675 933.915,647.23 933.89,652.784 933.867,658.339 933.847,663.894 933.83,669.449 933.816,675.003 933.805,680.558 933.797,686.113 933.791,691.668 933.788,697.223 933.788,702.777 933.791,708.332 933.797,713.887 933.805,719.442 933.816,724.997 933.83,730.551 933.847,736.106 933.867,741.661 933.89,747.216 933.915,752.77 933.943,758.325 933.975,763.88 934.008,769.435 934.045,774.99 934.085,780.544 934.127,786.099 934.172,791.654 934.22,797.209 934.271,802.763 934.325,808.318 934.381,813.873 934.44,819.428 934.503,824.983 934.568,830.537 934.635,836.092 934.706,841.647 934.779,847.202 934.856,852.756 934.935,858.311 935.017,863.866 935.101,869.421 935.189,874.976 935.279,880.53 935.373,886.085 935.469,891.64 935.567,897.195 935.669,902.749 935.774,908.304 935.881,913.859 935.991,919.414 936.104,924.969 936.22,930.523 936.339,936.078 936.46,941.633 936.584,947.188 936.711,952.742 936.841,958.297 936.974,963.852 937.11,969.407 937.248,974.962 "/>
        </g>
        <g>
            <polyline fill="none" stroke="#7f7fff"
                      points="968.839,432.207 968.332,437.617 967.835,443.027 967.348,448.437 966.872,453.847 966.406,459.257 965.951,464.667 965.506,470.077 965.071,475.487 964.647,480.897 964.233,486.306 963.83,491.716 963.437,497.126 963.054,502.536 962.682,507.946 962.321,513.356 961.969,518.766 961.628,524.176 961.298,529.586 960.977,534.996 960.667,540.406 960.368,545.816 960.079,551.226 959.8,556.636 959.531,562.046 959.273,567.456 959.026,572.866 958.788,578.276 958.561,583.686 958.344,589.096 958.138,594.506 957.942,599.916 957.756,605.326 957.581,610.736 957.416,616.146 957.261,621.556 957.116,626.966 956.982,632.375 956.858,637.785 956.745,643.195 956.642,648.605 956.549,654.015 956.466,659.425 956.394,664.835 956.332,670.245 956.281,675.655 956.24,681.065 956.209,686.475 956.188,691.885 956.178,697.295 956.178,702.705 956.188,708.115 956.209,713.525 956.24,718.935 956.281,724.345 956.332,729.755 956.394,735.165 956.466,740.575 956.549,745.985 956.642,751.395 956.745,756.805 956.858,762.215 956.982,767.625 957.116,773.034 957.261,778.444 957.416,783.854 957.581,789.264 957.756,794.674 957.942,800.084 958.138,805.494 958.344,810.904 958.561,816.314 958.788,821.724 959.026,827.134 959.273,832.544 959.531,837.954 959.8,843.364 960.079,848.774 960.368,854.184 960.667,859.594 960.977,865.004 961.298,870.414 961.628,875.824 961.969,881.234 962.321,886.644 962.682,892.054 963.054,897.464 963.437,902.874 963.83,908.284 964.233,913.694 964.647,919.103 965.071,924.513 965.506,929.923 965.951,935.333 966.406,940.743 966.872,946.153 967.348,951.563 967.835,956.973 968.332,962.383 968.839,967.793 "/>
            <line x1="1044.137" y1="432.207" x2="1044.137" y2="459.345" stroke="#7f7fff"/>
            <line x1="968.839" y1="432.207" x2="1044.137" y2="432.207" stroke="#7f7fff"/>
            <line x1="1044.137" y1="967.793" x2="1044.137" y2="940.655" stroke="#7f7fff"/>
            <line x1="968.839" y1="967.793" x2="1044.137" y2="967.793" stroke="#7f7fff"/>
            <polyline fill="none" stroke="#7f7fff"
                      points="1044.137,459.345 1041.534,464.206 1038.998,469.068 1036.529,473.93 1034.126,478.791 1031.787,483.653 1029.511,488.515 1027.298,493.377 1025.147,498.238 1023.057,503.1 1021.026,507.962 1019.055,512.824 1017.142,517.685 1015.287,522.547 1013.49,527.409 1011.748,532.27 1010.063,537.132 1008.433,541.994 1006.857,546.856 1005.336,551.717 1003.868,556.579 1002.453,561.441 1001.091,566.303 999.781,571.164 998.523,576.026 997.317,580.888 996.161,585.749 995.057,590.611 994.002,595.473 992.998,600.335 992.043,605.196 991.138,610.058 990.282,614.92 989.475,619.782 988.716,624.643 988.006,629.505 987.344,634.367 986.731,639.228 986.165,644.09 985.647,648.952 985.176,653.814 984.753,658.675 984.377,663.537 984.049,668.399 983.767,673.261 983.533,678.122 983.345,682.984 983.205,687.846 983.111,692.707 983.064,697.569 983.064,702.431 983.111,707.293 983.205,712.154 983.345,717.016 983.533,721.878 983.767,726.739 984.049,731.601 984.377,736.463 984.753,741.325 985.176,746.186 985.647,751.048 986.165,755.91 986.731,760.772 987.344,765.633 988.006,770.495 988.716,775.357 989.475,780.218 990.282,785.08 991.138,789.942 992.043,794.804 992.998,799.665 994.002,804.527 995.057,809.389 996.161,814.251 997.317,819.112 998.523,823.974 999.781,828.836 1001.091,833.697 1002.453,838.559 1003.868,843.421 1005.336,848.283 1006.857,853.144 1008.433,858.006 1010.063,862.868 1011.748,867.73 1013.49,872.591 1015.287,877.453 1017.142,882.315 1019.055,887.176 1021.026,892.038 1023.057,896.9 1025.147,901.762 1027.298,906.623 1029.511,911.485 1031.787,916.347 1034.126,921.209 1036.529,926.07 1038.998,930.932 1041.534,935.794 1044.137,940.655 "/>
        </g>
        <g>
            <polyline fill="none" stroke="#7f7fff"
                      points="1248.851,431.695 1249.54,437.115 1250.215,442.535 1250.876,447.956 1251.523,453.376 1252.155,458.796 1252.773,464.217 1253.377,469.637 1253.967,475.057 1254.542,480.478 1255.103,485.898 1255.65,491.318 1256.183,496.739 1256.702,502.159 1257.207,507.579 1257.697,512.999 1258.174,518.42 1258.636,523.84 1259.084,529.26 1259.518,534.681 1259.938,540.101 1260.344,545.521 1260.736,550.942 1261.114,556.362 1261.477,561.782 1261.827,567.202 1262.163,572.623 1262.484,578.043 1262.792,583.463 1263.085,588.884 1263.365,594.304 1263.63,599.724 1263.882,605.145 1264.119,610.565 1264.343,615.985 1264.552,621.406 1264.748,626.826 1264.93,632.246 1265.097,637.666 1265.251,643.087 1265.39,648.507 1265.516,653.927 1265.628,659.348 1265.725,664.768 1265.809,670.188 1265.879,675.609 1265.935,681.029 1265.977,686.449 1266.005,691.87 1266.018,697.29 1266.018,702.71 1266.005,708.13 1265.977,713.551 1265.935,718.971 1265.879,724.391 1265.809,729.812 1265.725,735.232 1265.628,740.652 1265.516,746.073 1265.39,751.493 1265.251,756.913 1265.097,762.334 1264.93,767.754 1264.748,773.174 1264.552,778.594 1264.343,784.015 1264.119,789.435 1263.882,794.855 1263.63,800.276 1263.365,805.696 1263.085,811.116 1262.792,816.537 1262.484,821.957 1262.163,827.377 1261.827,832.798 1261.477,838.218 1261.114,843.638 1260.736,849.058 1260.344,854.479 1259.938,859.899 1259.518,865.319 1259.084,870.74 1258.636,876.16 1258.174,881.58 1257.697,887.001 1257.207,892.421 1256.702,897.841 1256.183,903.261 1255.65,908.682 1255.103,914.102 1254.542,919.522 1253.967,924.943 1253.377,930.363 1252.773,935.783 1252.155,941.204 1251.523,946.624 1250.876,952.044 1250.215,957.465 1249.54,962.885 1248.851,968.305 "/>
            <line x1="1248.851" y1="431.695" x2="1279.886" y2="431.695" stroke="#7f7fff"/>
            <line x1="1248.851" y1="968.305" x2="1279.886" y2="968.305" stroke="#7f7fff"/>
            <polyline fill="none" stroke="#7f7fff"
                      points="1279.886,431.695 1281.437,437.115 1282.954,442.535 1284.437,447.956 1285.886,453.376 1287.302,458.796 1288.684,464.217 1290.032,469.637 1291.348,475.057 1292.63,480.478 1293.879,485.898 1295.096,491.318 1296.279,496.739 1297.431,502.159 1298.549,507.579 1299.636,512.999 1300.69,518.42 1301.712,523.84 1302.702,529.26 1303.66,534.681 1304.586,540.101 1305.481,545.521 1306.344,550.942 1307.175,556.362 1307.975,561.782 1308.743,567.202 1309.481,572.623 1310.186,578.043 1310.861,583.463 1311.505,588.884 1312.117,594.304 1312.699,599.724 1313.25,605.145 1313.769,610.565 1314.258,615.985 1314.716,621.406 1315.144,626.826 1315.541,632.246 1315.907,637.666 1316.242,643.087 1316.547,648.507 1316.821,653.927 1317.065,659.348 1317.278,664.768 1317.461,670.188 1317.613,675.609 1317.735,681.029 1317.826,686.449 1317.887,691.87 1317.917,697.29 1317.917,702.71 1317.887,708.13 1317.826,713.551 1317.735,718.971 1317.613,724.391 1317.461,729.812 1317.278,735.232 1317.065,740.652 1316.821,746.073 1316.547,751.493 1316.242,756.913 1315.907,762.334 1315.541,767.754 1315.144,773.174 1314.716,778.594 1314.258,784.015 1313.769,789.435 1313.25,794.855 1312.699,800.276 1312.117,805.696 1311.505,811.116 1310.861,816.537 1310.186,821.957 1309.481,827.377 1308.743,832.798 1307.975,838.218 1307.175,843.638 1306.344,849.058 1305.481,854.479 1304.586,859.899 1303.66,865.319 1302.702,870.74 1301.712,876.16 1300.69,881.58 1299.636,887.001 1298.549,892.421 1297.431,897.841 1296.279,903.261 1295.096,908.682 1293.879,914.102 1292.63,919.522 1291.348,924.943 1290.032,930.363 1288.684,935.783 1287.302,941.204 1285.886,946.624 1284.437,952.044 1282.954,957.465 1281.437,962.885 1279.886,968.305 "/>
        </g>
        <g>
            <polyline fill="none" stroke="#7f7fff"
                      points="1301.252,428.815 1301.973,434.293 1302.679,439.772 1303.37,445.25 1304.046,450.729 1304.707,456.207 1305.353,461.686 1305.985,467.164 1306.601,472.643 1307.203,478.121 1307.79,483.6 1308.362,489.078 1308.919,494.557 1309.461,500.035 1309.989,505.514 1310.502,510.992 1311,516.471 1311.483,521.949 1311.951,527.428 1312.405,532.906 1312.844,538.384 1313.268,543.863 1313.678,549.341 1314.073,554.82 1314.453,560.298 1314.819,565.777 1315.169,571.255 1315.505,576.734 1315.827,582.212 1316.134,587.691 1316.426,593.169 1316.703,598.648 1316.966,604.126 1317.215,609.605 1317.448,615.083 1317.667,620.562 1317.872,626.04 1318.061,631.519 1318.236,636.997 1318.397,642.476 1318.543,647.954 1318.674,653.433 1318.791,658.911 1318.893,664.39 1318.981,669.868 1319.054,675.347 1319.112,680.825 1319.156,686.304 1319.185,691.782 1319.199,697.261 1319.199,702.739 1319.185,708.218 1319.156,713.696 1319.112,719.175 1319.054,724.653 1318.981,730.132 1318.893,735.61 1318.791,741.089 1318.674,746.567 1318.543,752.046 1318.397,757.524 1318.236,763.003 1318.061,768.481 1317.872,773.96 1317.667,779.438 1317.448,784.917 1317.215,790.395 1316.966,795.874 1316.703,801.352 1316.426,806.831 1316.134,812.309 1315.827,817.788 1315.505,823.266 1315.169,828.745 1314.819,834.223 1314.453,839.702 1314.073,845.18 1313.678,850.659 1313.268,856.137 1312.844,861.616 1312.405,867.094 1311.951,872.572 1311.483,878.051 1311,883.529 1310.502,889.008 1309.989,894.486 1309.461,899.965 1308.919,905.443 1308.362,910.922 1307.79,916.4 1307.203,921.879 1306.601,927.357 1305.985,932.836 1305.353,938.314 1304.707,943.793 1304.046,949.271 1303.37,954.75 1302.679,960.228 1301.973,965.707 1301.252,971.185 "/>
            <line x1="1301.252" y1="419.598" x2="1301.252" y2="428.815" stroke="#7f7fff"/>
            <line x1="1301.252" y1="419.598" x2="1385.011" y2="419.598" stroke="#7f7fff"/>
            <line x1="1301.252" y1="980.402" x2="1301.252" y2="971.185" stroke="#7f7fff"/>
            <line x1="1301.252" y1="980.402" x2="1385.011" y2="980.402" stroke="#7f7fff"/>
            <polyline fill="none" stroke="#7f7fff"
                      points="1385.011,419.598 1383.425,425.263 1381.873,430.927 1380.357,436.592 1378.874,442.257 1377.426,447.921 1376.013,453.586 1374.633,459.251 1373.287,464.916 1371.975,470.58 1370.697,476.245 1369.452,481.91 1368.241,487.574 1367.063,493.239 1365.918,498.904 1364.806,504.568 1363.727,510.233 1362.681,515.898 1361.667,521.562 1360.686,527.227 1359.738,532.892 1358.822,538.556 1357.939,544.221 1357.088,549.886 1356.269,555.551 1355.482,561.215 1354.727,566.88 1354.004,572.545 1353.313,578.209 1352.654,583.874 1352.027,589.539 1351.432,595.203 1350.868,600.868 1350.335,606.533 1349.835,612.197 1349.365,617.862 1348.928,623.527 1348.521,629.191 1348.146,634.856 1347.803,640.521 1347.491,646.185 1347.21,651.85 1346.96,657.515 1346.742,663.18 1346.555,668.844 1346.399,674.509 1346.274,680.174 1346.18,685.838 1346.118,691.503 1346.087,697.168 1346.087,702.832 1346.118,708.497 1346.18,714.162 1346.274,719.826 1346.399,725.491 1346.555,731.156 1346.742,736.82 1346.96,742.485 1347.21,748.15 1347.491,753.815 1347.803,759.479 1348.146,765.144 1348.521,770.809 1348.928,776.473 1349.365,782.138 1349.835,787.803 1350.335,793.467 1350.868,799.132 1351.432,804.797 1352.027,810.461 1352.654,816.126 1353.313,821.791 1354.004,827.455 1354.727,833.12 1355.482,838.785 1356.269,844.449 1357.088,850.114 1357.939,855.779 1358.822,861.444 1359.738,867.108 1360.686,872.773 1361.667,878.438 1362.681,884.102 1363.727,889.767 1364.806,895.432 1365.918,901.096 1367.063,906.761 1368.241,912.426 1369.452,918.09 1370.697,923.755 1371.975,929.42 1373.287,935.084 1374.633,940.749 1376.013,946.414 1377.426,952.079 1378.874,957.743 1380.357,963.408 1381.873,969.073 1383.425,974.737 1385.011,980.402 "/>
            <line x1="1385.011" y1="419.598" x2="1407.82" y2="419.598" stroke="#7f7fff"/>
            <line x1="1385.011" y1="980.402" x2="1407.82" y2="980.402" stroke="#7f7fff"/>
            <polyline fill="none" stroke="#7f7fff"
                      points="1407.82,419.598 1407.035,425.263 1406.266,430.927 1405.513,436.592 1404.776,442.257 1404.056,447.921 1403.352,453.586 1402.664,459.251 1401.992,464.916 1401.337,470.58 1400.698,476.245 1400.075,481.91 1399.468,487.574 1398.877,493.239 1398.303,498.904 1397.744,504.568 1397.202,510.233 1396.676,515.898 1396.165,521.562 1395.671,527.227 1395.193,532.892 1394.731,538.556 1394.285,544.221 1393.855,549.886 1393.441,555.551 1393.043,561.215 1392.661,566.88 1392.295,572.545 1391.945,578.209 1391.611,583.874 1391.293,589.539 1390.991,595.203 1390.705,600.868 1390.435,606.533 1390.18,612.197 1389.942,617.862 1389.719,623.527 1389.513,629.191 1389.322,634.856 1389.147,640.521 1388.989,646.185 1388.846,651.85 1388.719,657.515 1388.607,663.18 1388.512,668.844 1388.433,674.509 1388.369,680.174 1388.322,685.838 1388.29,691.503 1388.274,697.168 1388.274,702.832 1388.29,708.497 1388.322,714.162 1388.369,719.826 1388.433,725.491 1388.512,731.156 1388.607,736.82 1388.719,742.485 1388.846,748.15 1388.989,753.815 1389.147,759.479 1389.322,765.144 1389.513,770.809 1389.719,776.473 1389.942,782.138 1390.18,787.803 1390.435,793.467 1390.705,799.132 1390.991,804.797 1391.293,810.461 1391.611,816.126 1391.945,821.791 1392.295,827.455 1392.661,833.12 1393.043,838.785 1393.441,844.449 1393.855,850.114 1394.285,855.779 1394.731,861.444 1395.193,867.108 1395.671,872.773 1396.165,878.438 1396.676,884.102 1397.202,889.767 1397.744,895.432 1398.303,901.096 1398.877,906.761 1399.468,912.426 1400.075,918.09 1400.698,923.755 1401.337,929.42 1401.992,935.084 1402.664,940.749 1403.352,946.414 1404.056,952.079 1404.776,957.743 1405.513,963.408 1406.266,969.073 1407.035,974.737 1407.82,980.402 "/>
        </g>
        <g>
            <polyline fill="none" stroke="#7f7fff"
                      points="1452.029,405.965 1449.774,411.905 1447.571,417.845 1445.421,423.785 1443.322,429.726 1441.274,435.666 1439.276,441.606 1437.329,447.546 1435.432,453.486 1433.585,459.426 1431.787,465.366 1430.038,471.306 1428.337,477.246 1426.685,483.186 1425.08,489.127 1423.523,495.067 1422.014,501.007 1420.552,506.947 1419.136,512.887 1417.768,518.827 1416.445,524.767 1415.169,530.707 1413.939,536.647 1412.754,542.587 1411.615,548.528 1410.521,554.468 1409.473,560.408 1408.469,566.348 1407.51,572.288 1406.596,578.228 1405.727,584.168 1404.901,590.108 1404.12,596.048 1403.383,601.988 1402.69,607.928 1402.041,613.869 1401.435,619.809 1400.873,625.749 1400.355,631.689 1399.88,637.629 1399.449,643.569 1399.061,649.509 1398.716,655.449 1398.415,661.389 1398.156,667.329 1397.941,673.27 1397.769,679.21 1397.64,685.15 1397.554,691.09 1397.51,697.03 1397.51,702.97 1397.554,708.91 1397.64,714.85 1397.769,720.79 1397.941,726.73 1398.156,732.671 1398.415,738.611 1398.716,744.551 1399.061,750.491 1399.449,756.431 1399.88,762.371 1400.355,768.311 1400.873,774.251 1401.435,780.191 1402.041,786.131 1402.69,792.072 1403.383,798.012 1404.12,803.952 1404.901,809.892 1405.727,815.832 1406.596,821.772 1407.51,827.712 1408.469,833.652 1409.473,839.592 1410.521,845.532 1411.615,851.472 1412.754,857.413 1413.939,863.353 1415.169,869.293 1416.445,875.233 1417.768,881.173 1419.136,887.113 1420.552,893.053 1422.014,898.993 1423.523,904.933 1425.08,910.873 1426.685,916.814 1428.337,922.754 1430.038,928.694 1431.787,934.634 1433.585,940.574 1435.432,946.514 1437.329,952.454 1439.276,958.394 1441.274,964.334 1443.322,970.274 1445.421,976.215 1447.571,982.155 1449.774,988.095 1452.029,994.035 "/>
            <line x1="1452.029" y1="405.965" x2="1482.508" y2="405.965" stroke="#7f7fff"/>
            <line x1="1452.029" y1="994.035" x2="1482.508" y2="994.035" stroke="#7f7fff"/>
            <polyline fill="none" stroke="#7f7fff"
                      points="1482.508,405.965 1483.869,411.905 1485.202,417.845 1486.505,423.785 1487.779,429.726 1489.024,435.666 1490.24,441.606 1491.428,447.546 1492.586,453.486 1493.717,459.426 1494.818,465.366 1495.892,471.306 1496.936,477.246 1497.953,483.186 1498.941,489.127 1499.901,495.067 1500.833,501.007 1501.737,506.947 1502.613,512.887 1503.461,518.827 1504.282,524.767 1505.074,530.707 1505.838,536.647 1506.575,542.587 1507.284,548.528 1507.966,554.468 1508.62,560.408 1509.246,566.348 1509.845,572.288 1510.416,578.228 1510.96,584.168 1511.476,590.108 1511.965,596.048 1512.427,601.988 1512.862,607.928 1513.269,613.869 1513.649,619.809 1514.001,625.749 1514.327,631.689 1514.625,637.629 1514.896,643.569 1515.14,649.509 1515.357,655.449 1515.547,661.389 1515.709,667.329 1515.845,673.27 1515.953,679.21 1516.034,685.15 1516.088,691.09 1516.115,697.03 1516.115,702.97 1516.088,708.91 1516.034,714.85 1515.953,720.79 1515.845,726.73 1515.709,732.671 1515.547,738.611 1515.357,744.551 1515.14,750.491 1514.896,756.431 1514.625,762.371 1514.327,768.311 1514.001,774.251 1513.649,780.191 1513.269,786.131 1512.862,792.072 1512.427,798.012 1511.965,803.952 1511.476,809.892 1510.96,815.832 1510.416,821.772 1509.845,827.712 1509.246,833.652 1508.62,839.592 1507.966,845.532 1507.284,851.472 1506.575,857.413 1505.838,863.353 1505.074,869.293 1504.282,875.233 1503.461,881.173 1502.613,887.113 1501.737,893.053 1500.833,898.993 1499.901,904.933 1498.941,910.873 1497.953,916.814 1496.936,922.754 1495.892,928.694 1494.818,934.634 1493.717,940.574 1492.586,946.514 1491.428,952.454 1490.24,958.394 1489.024,964.334 1487.779,970.274 1486.505,976.215 1485.202,982.155 1483.869,988.095 1482.508,994.035 "/>
        </g>
        <g>
            <polyline fill="none" stroke="#7f7fff"
                      points="1533.875,412.942 1533.214,418.741 1532.567,424.54 1531.933,430.339 1531.313,436.138 1530.707,441.937 1530.114,447.737 1529.534,453.536 1528.969,459.335 1528.417,465.134 1527.878,470.933 1527.353,476.732 1526.842,482.532 1526.344,488.331 1525.86,494.13 1525.389,499.929 1524.932,505.728 1524.488,511.527 1524.058,517.326 1523.642,523.126 1523.238,528.925 1522.849,534.724 1522.473,540.523 1522.11,546.322 1521.761,552.121 1521.425,557.921 1521.103,563.72 1520.794,569.519 1520.499,575.318 1520.217,581.117 1519.949,586.916 1519.694,592.716 1519.452,598.515 1519.224,604.314 1519.01,610.113 1518.808,615.912 1518.621,621.711 1518.446,627.511 1518.285,633.31 1518.138,639.109 1518.004,644.908 1517.883,650.707 1517.776,656.506 1517.682,662.305 1517.602,668.105 1517.535,673.904 1517.481,679.703 1517.441,685.502 1517.414,691.301 1517.401,697.1 1517.401,702.9 1517.414,708.699 1517.441,714.498 1517.481,720.297 1517.535,726.096 1517.602,731.895 1517.682,737.695 1517.776,743.494 1517.883,749.293 1518.004,755.092 1518.138,760.891 1518.285,766.69 1518.446,772.489 1518.621,778.289 1518.808,784.088 1519.01,789.887 1519.224,795.686 1519.452,801.485 1519.694,807.284 1519.949,813.084 1520.217,818.883 1520.499,824.682 1520.794,830.481 1521.103,836.28 1521.425,842.079 1521.761,847.879 1522.11,853.678 1522.473,859.477 1522.849,865.276 1523.238,871.075 1523.642,876.874 1524.058,882.674 1524.488,888.473 1524.932,894.272 1525.389,900.071 1525.86,905.87 1526.344,911.669 1526.842,917.468 1527.353,923.268 1527.878,929.067 1528.417,934.866 1528.969,940.665 1529.534,946.464 1530.114,952.263 1530.707,958.063 1531.313,963.862 1531.933,969.661 1532.567,975.46 1533.214,981.259 1533.875,987.058 "/>
            <line x1="1533.875" y1="412.942" x2="1584.983" y2="412.942" stroke="#7f7fff"/>
            <line x1="1533.875" y1="987.058" x2="1584.983" y2="987.058" stroke="#7f7fff"/>
            <polyline fill="none" stroke="#7f7fff"
                      points="1584.983,412.942 1583.377,418.741 1581.807,424.54 1580.271,430.339 1578.771,436.138 1577.305,441.937 1575.873,447.737 1574.476,453.536 1573.114,459.335 1571.785,465.134 1570.491,470.933 1569.231,476.732 1568.004,482.532 1566.811,488.331 1565.651,494.13 1564.525,499.929 1563.433,505.728 1562.373,511.527 1561.347,517.326 1560.353,523.126 1559.393,528.925 1558.465,534.724 1557.571,540.523 1556.709,546.322 1555.879,552.121 1555.082,557.921 1554.317,563.72 1553.585,569.519 1552.885,575.318 1552.218,581.117 1551.582,586.916 1550.979,592.716 1550.408,598.515 1549.869,604.314 1549.361,610.113 1548.886,615.912 1548.443,621.711 1548.031,627.511 1547.651,633.31 1547.303,639.109 1546.987,644.908 1546.702,650.707 1546.449,656.506 1546.228,662.305 1546.038,668.105 1545.88,673.904 1545.754,679.703 1545.659,685.502 1545.596,691.301 1545.565,697.1 1545.565,702.9 1545.596,708.699 1545.659,714.498 1545.754,720.297 1545.88,726.096 1546.038,731.895 1546.228,737.695 1546.449,743.494 1546.702,749.293 1546.987,755.092 1547.303,760.891 1547.651,766.69 1548.031,772.489 1548.443,778.289 1548.886,784.088 1549.361,789.887 1549.869,795.686 1550.408,801.485 1550.979,807.284 1551.582,813.084 1552.218,818.883 1552.885,824.682 1553.585,830.481 1554.317,836.28 1555.082,842.079 1555.879,847.879 1556.709,853.678 1557.571,859.477 1558.465,865.276 1559.393,871.075 1560.353,876.874 1561.347,882.674 1562.373,888.473 1563.433,894.272 1564.525,900.071 1565.651,905.87 1566.811,911.669 1568.004,917.468 1569.231,923.268 1570.491,929.067 1571.785,934.866 1573.114,940.665 1574.476,946.464 1575.873,952.263 1577.305,958.063 1578.771,963.862 1580.271,969.661 1581.807,975.46 1583.377,981.259 1584.983,987.058 "/>
        </g>
        <g>
            <polyline fill="none" stroke="#7f7fff"
                      points="1704.402,418.958 1702.902,424.636 1701.435,430.313 1700.001,435.991 1698.599,441.668 1697.229,447.346 1695.892,453.024 1694.586,458.701 1693.312,464.379 1692.071,470.057 1690.86,475.734 1689.682,481.412 1688.535,487.089 1687.419,492.767 1686.334,498.445 1685.281,504.122 1684.259,509.8 1683.268,515.477 1682.307,521.155 1681.378,526.833 1680.479,532.51 1679.611,538.188 1678.774,543.866 1677.967,549.543 1677.19,555.221 1676.444,560.898 1675.728,566.576 1675.043,572.254 1674.387,577.931 1673.762,583.609 1673.167,589.286 1672.602,594.964 1672.067,600.642 1671.562,606.319 1671.087,611.997 1670.642,617.675 1670.227,623.352 1669.841,629.03 1669.485,634.707 1669.159,640.385 1668.863,646.063 1668.596,651.74 1668.359,657.418 1668.152,663.095 1667.975,668.773 1667.827,674.451 1667.708,680.128 1667.619,685.806 1667.56,691.484 1667.531,697.161 1667.531,702.839 1667.56,708.516 1667.619,714.194 1667.708,719.872 1667.827,725.549 1667.975,731.227 1668.152,736.905 1668.359,742.582 1668.596,748.26 1668.863,753.937 1669.159,759.615 1669.485,765.293 1669.841,770.97 1670.227,776.648 1670.642,782.325 1671.087,788.003 1671.562,793.681 1672.067,799.358 1672.602,805.036 1673.167,810.714 1673.762,816.391 1674.387,822.069 1675.043,827.746 1675.728,833.424 1676.444,839.102 1677.19,844.779 1677.967,850.457 1678.774,856.134 1679.611,861.812 1680.479,867.49 1681.378,873.167 1682.307,878.845 1683.268,884.523 1684.259,890.2 1685.281,895.878 1686.334,901.555 1687.419,907.233 1688.535,912.911 1689.682,918.588 1690.86,924.266 1692.071,929.943 1693.312,935.621 1694.586,941.299 1695.892,946.976 1697.229,952.654 1698.599,958.332 1700.001,964.009 1701.435,969.687 1702.902,975.364 1704.402,981.042 "/>
            <line x1="1704.402" y1="418.958" x2="1732.666" y2="418.958" stroke="#7f7fff"/>
            <line x1="1704.402" y1="981.042" x2="1732.666" y2="981.042" stroke="#7f7fff"/>
            <polyline fill="none" stroke="#7f7fff"
                      points="1732.666,418.958 1732.341,424.636 1732.023,430.313 1731.712,435.991 1731.407,441.668 1731.109,447.346 1730.817,453.024 1730.532,458.701 1730.254,464.379 1729.982,470.057 1729.718,475.734 1729.459,481.412 1729.208,487.089 1728.963,492.767 1728.724,498.445 1728.492,504.122 1728.267,509.8 1728.049,515.477 1727.837,521.155 1727.632,526.833 1727.433,532.51 1727.241,538.188 1727.056,543.866 1726.877,549.543 1726.705,555.221 1726.539,560.898 1726.381,566.576 1726.228,572.254 1726.083,577.931 1725.944,583.609 1725.811,589.286 1725.686,594.964 1725.566,600.642 1725.454,606.319 1725.348,611.997 1725.249,617.675 1725.156,623.352 1725.07,629.03 1724.991,634.707 1724.918,640.385 1724.852,646.063 1724.792,651.74 1724.739,657.418 1724.693,663.095 1724.653,668.773 1724.62,674.451 1724.594,680.128 1724.574,685.806 1724.561,691.484 1724.554,697.161 1724.554,702.839 1724.561,708.516 1724.574,714.194 1724.594,719.872 1724.62,725.549 1724.653,731.227 1724.693,736.905 1724.739,742.582 1724.792,748.26 1724.852,753.937 1724.918,759.615 1724.991,765.293 1725.07,770.97 1725.156,776.648 1725.249,782.325 1725.348,788.003 1725.454,793.681 1725.566,799.358 1725.686,805.036 1725.811,810.714 1725.944,816.391 1726.083,822.069 1726.228,827.746 1726.381,833.424 1726.539,839.102 1726.705,844.779 1726.877,850.457 1727.056,856.134 1727.241,861.812 1727.433,867.49 1727.632,873.167 1727.837,878.845 1728.049,884.523 1728.267,890.2 1728.492,895.878 1728.724,901.555 1728.963,907.233 1729.208,912.911 1729.459,918.588 1729.718,924.266 1729.982,929.943 1730.254,935.621 1730.532,941.299 1730.817,946.976 1731.109,952.654 1731.407,958.332 1731.712,964.009 1732.023,969.687 1732.341,975.364 1732.666,981.042 "/>
        </g>
        <g>
            <polyline fill="none" stroke="#7f7fff"
                      points="1764.166,431.567 1764.374,436.99 1764.577,442.413 1764.776,447.835 1764.971,453.258 1765.162,458.681 1765.348,464.104 1765.531,469.527 1765.709,474.95 1765.882,480.373 1766.052,485.796 1766.217,491.219 1766.378,496.642 1766.535,502.064 1766.687,507.487 1766.836,512.91 1766.98,518.333 1767.119,523.756 1767.255,529.179 1767.386,534.602 1767.513,540.025 1767.636,545.448 1767.755,550.87 1767.869,556.293 1767.979,561.716 1768.085,567.139 1768.187,572.562 1768.284,577.985 1768.377,583.408 1768.466,588.831 1768.551,594.254 1768.631,599.676 1768.708,605.099 1768.78,610.522 1768.847,615.945 1768.911,621.368 1768.97,626.791 1769.025,632.214 1769.076,637.637 1769.123,643.06 1769.165,648.483 1769.203,653.905 1769.237,659.328 1769.267,664.751 1769.292,670.174 1769.313,675.597 1769.33,681.02 1769.343,686.443 1769.351,691.866 1769.356,697.289 1769.356,702.711 1769.351,708.134 1769.343,713.557 1769.33,718.98 1769.313,724.403 1769.292,729.826 1769.267,735.249 1769.237,740.672 1769.203,746.095 1769.165,751.517 1769.123,756.94 1769.076,762.363 1769.025,767.786 1768.97,773.209 1768.911,778.632 1768.847,784.055 1768.78,789.478 1768.708,794.901 1768.631,800.324 1768.551,805.746 1768.466,811.169 1768.377,816.592 1768.284,822.015 1768.187,827.438 1768.085,832.861 1767.979,838.284 1767.869,843.707 1767.755,849.13 1767.636,854.552 1767.513,859.975 1767.386,865.398 1767.255,870.821 1767.119,876.244 1766.98,881.667 1766.836,887.09 1766.687,892.513 1766.535,897.936 1766.378,903.358 1766.217,908.781 1766.052,914.204 1765.882,919.627 1765.709,925.05 1765.531,930.473 1765.348,935.896 1765.162,941.319 1764.971,946.742 1764.776,952.165 1764.577,957.587 1764.374,963.01 1764.166,968.433 "/>
            <line x1="1764.166" y1="431.567" x2="1842.792" y2="431.567" stroke="#7f7fff"/>
            <line x1="1764.166" y1="968.433" x2="1842.792" y2="968.433" stroke="#7f7fff"/>
            <polyline fill="none" stroke="#7f7fff"
                      points="1842.792,431.567 1840.875,436.99 1839.001,442.413 1837.171,447.835 1835.385,453.258 1833.641,458.681 1831.94,464.104 1830.281,469.527 1828.664,474.95 1827.089,480.373 1825.556,485.796 1824.063,491.219 1822.612,496.642 1821.202,502.064 1819.832,507.487 1818.503,512.91 1817.214,518.333 1815.964,523.756 1814.755,529.179 1813.585,534.602 1812.454,540.025 1811.363,545.448 1810.311,550.87 1809.298,556.293 1808.323,561.716 1807.387,567.139 1806.49,572.562 1805.631,577.985 1804.81,583.408 1804.027,588.831 1803.283,594.254 1802.576,599.676 1801.907,605.099 1801.275,610.522 1800.682,615.945 1800.125,621.368 1799.607,626.791 1799.125,632.214 1798.681,637.637 1798.274,643.06 1797.904,648.483 1797.572,653.905 1797.276,659.328 1797.018,664.751 1796.796,670.174 1796.611,675.597 1796.464,681.02 1796.353,686.443 1796.279,691.866 1796.242,697.289 1796.242,702.711 1796.279,708.134 1796.353,713.557 1796.464,718.98 1796.611,724.403 1796.796,729.826 1797.018,735.249 1797.276,740.672 1797.572,746.095 1797.904,751.517 1798.274,756.94 1798.681,762.363 1799.125,767.786 1799.607,773.209 1800.125,778.632 1800.682,784.055 1801.275,789.478 1801.907,794.901 1802.576,800.324 1803.283,805.746 1804.027,811.169 1804.81,816.592 1805.631,822.015 1806.49,827.438 1807.387,832.861 1808.323,838.284 1809.298,843.707 1810.311,849.13 1811.363,854.552 1812.454,859.975 1813.585,865.398 1814.755,870.821 1815.964,876.244 1817.214,881.667 1818.503,887.09 1819.832,892.513 1821.202,897.936 1822.612,903.358 1824.063,908.781 1825.556,914.204 1827.089,919.627 1828.664,925.05 1830.281,930.473 1831.94,935.896 1833.641,941.319 1835.385,946.742 1837.171,952.165 1839.001,957.587 1840.875,963.01 1842.792,968.433 "/>
        </g>
        <g>
            <polyline fill="none" stroke="#7f7fff"
                      points="1866.341,431.375 1863.945,436.802 1861.607,442.228 1859.326,447.655 1857.102,453.082 1854.934,458.509 1852.822,463.935 1850.764,469.362 1848.761,474.789 1846.812,480.216 1844.917,485.643 1843.074,491.069 1841.284,496.496 1839.546,501.923 1837.86,507.35 1836.224,512.776 1834.64,518.203 1833.105,523.63 1831.621,529.057 1830.187,534.483 1828.802,539.91 1827.465,545.337 1826.178,550.764 1824.939,556.191 1823.748,561.617 1822.605,567.044 1821.51,572.471 1820.462,577.898 1819.461,583.324 1818.507,588.751 1817.6,594.178 1816.739,599.605 1815.925,605.031 1815.157,610.458 1814.435,615.885 1813.759,621.312 1813.128,626.739 1812.543,632.165 1812.004,637.592 1811.509,643.019 1811.061,648.446 1810.657,653.872 1810.298,659.299 1809.984,664.726 1809.716,670.153 1809.492,675.58 1809.313,681.006 1809.178,686.433 1809.089,691.86 1809.044,697.287 1809.044,702.713 1809.089,708.14 1809.178,713.567 1809.313,718.994 1809.492,724.42 1809.716,729.847 1809.984,735.274 1810.298,740.701 1810.657,746.128 1811.061,751.554 1811.509,756.981 1812.004,762.408 1812.543,767.835 1813.128,773.261 1813.759,778.688 1814.435,784.115 1815.157,789.542 1815.925,794.969 1816.739,800.395 1817.6,805.822 1818.507,811.249 1819.461,816.676 1820.462,822.102 1821.51,827.529 1822.605,832.956 1823.748,838.383 1824.939,843.809 1826.178,849.236 1827.465,854.663 1828.802,860.09 1830.187,865.517 1831.621,870.943 1833.105,876.37 1834.64,881.797 1836.224,887.224 1837.86,892.65 1839.546,898.077 1841.284,903.504 1843.074,908.931 1844.917,914.357 1846.812,919.784 1848.761,925.211 1850.764,930.638 1852.822,936.065 1854.934,941.491 1857.102,946.918 1859.326,952.345 1861.607,957.772 1863.945,963.198 1866.341,968.625 "/>
            <line x1="1893.3" y1="431.375" x2="1893.3" y2="439.695" stroke="#7f7fff"/>
            <line x1="1866.341" y1="431.375" x2="1893.3" y2="431.375" stroke="#7f7fff"/>
            <line x1="1893.3" y1="968.625" x2="1893.3" y2="960.305" stroke="#7f7fff"/>
            <line x1="1866.341" y1="968.625" x2="1893.3" y2="968.625" stroke="#7f7fff"/>
            <polyline fill="none" stroke="#7f7fff"
                      points="1893.3,439.695 1892.645,444.954 1892.003,450.213 1891.375,455.471 1890.76,460.73 1890.159,465.989 1889.572,471.247 1888.998,476.506 1888.437,481.765 1887.89,487.023 1887.356,492.282 1886.836,497.541 1886.33,502.8 1885.837,508.058 1885.357,513.317 1884.89,518.576 1884.438,523.834 1883.998,529.093 1883.572,534.352 1883.159,539.61 1882.76,544.869 1882.374,550.128 1882.002,555.386 1881.643,560.645 1881.297,565.904 1880.964,571.162 1880.645,576.421 1880.34,581.68 1880.047,586.938 1879.768,592.197 1879.502,597.456 1879.25,602.714 1879.011,607.973 1878.785,613.232 1878.572,618.49 1878.373,623.749 1878.187,629.008 1878.015,634.267 1877.855,639.525 1877.709,644.784 1877.577,650.043 1877.457,655.301 1877.351,660.56 1877.258,665.819 1877.178,671.077 1877.112,676.336 1877.059,681.595 1877.019,686.853 1876.993,692.112 1876.979,697.371 1876.979,702.629 1876.993,707.888 1877.019,713.147 1877.059,718.405 1877.112,723.664 1877.178,728.923 1877.258,734.181 1877.351,739.44 1877.457,744.699 1877.577,749.957 1877.709,755.216 1877.855,760.475 1878.015,765.733 1878.187,770.992 1878.373,776.251 1878.572,781.51 1878.785,786.768 1879.011,792.027 1879.25,797.286 1879.502,802.544 1879.768,807.803 1880.047,813.062 1880.34,818.32 1880.645,823.579 1880.964,828.838 1881.297,834.096 1881.643,839.355 1882.002,844.614 1882.374,849.872 1882.76,855.131 1883.159,860.39 1883.572,865.648 1883.998,870.907 1884.438,876.166 1884.89,881.424 1885.357,886.683 1885.837,891.942 1886.33,897.2 1886.836,902.459 1887.356,907.718 1887.89,912.977 1888.437,918.235 1888.998,923.494 1889.572,928.753 1890.159,934.011 1890.76,939.27 1891.375,944.529 1892.003,949.787 1892.645,955.046 1893.3,960.305 "/>
        </g>
        <g>
            <polyline fill="none" stroke="#7f7fff"
                      points="1893.657,439.695 1895.225,444.954 1896.758,450.213 1898.257,455.471 1899.721,460.73 1901.151,465.989 1902.547,471.247 1903.909,476.506 1905.238,481.765 1906.533,487.023 1907.794,492.282 1909.022,497.541 1910.217,502.8 1911.379,508.058 1912.508,513.317 1913.605,518.576 1914.668,523.834 1915.7,529.093 1916.699,534.352 1917.665,539.61 1918.599,544.869 1919.502,550.128 1920.372,555.386 1921.211,560.645 1922.017,565.904 1922.792,571.162 1923.535,576.421 1924.247,581.68 1924.927,586.938 1925.576,592.197 1926.194,597.456 1926.78,602.714 1927.335,607.973 1927.859,613.232 1928.352,618.49 1928.814,623.749 1929.244,629.008 1929.644,634.267 1930.013,639.525 1930.351,644.784 1930.658,650.043 1930.935,655.301 1931.18,660.56 1931.395,665.819 1931.579,671.077 1931.732,676.336 1931.855,681.595 1931.947,686.853 1932.009,692.112 1932.039,697.371 1932.039,702.629 1932.009,707.888 1931.947,713.147 1931.855,718.405 1931.732,723.664 1931.579,728.923 1931.395,734.181 1931.18,739.44 1930.935,744.699 1930.658,749.957 1930.351,755.216 1930.013,760.475 1929.644,765.733 1929.244,770.992 1928.814,776.251 1928.352,781.51 1927.859,786.768 1927.335,792.027 1926.78,797.286 1926.194,802.544 1925.576,807.803 1924.927,813.062 1924.247,818.32 1923.535,823.579 1922.792,828.838 1922.017,834.096 1921.211,839.355 1920.372,844.614 1919.502,849.872 1918.599,855.131 1917.665,860.39 1916.699,865.648 1915.7,870.907 1914.668,876.166 1913.605,881.424 1912.508,886.683 1911.379,891.942 1910.217,897.2 1909.022,902.459 1907.794,907.718 1906.533,912.977 1905.238,918.235 1903.909,923.494 1902.547,928.753 1901.151,934.011 1899.721,939.27 1898.257,944.529 1896.758,949.787 1895.225,955.046 1893.657,960.305 "/>
            <line x1="1893.657" y1="437.839" x2="1893.657" y2="439.695" stroke="#7f7fff"/>
            <line x1="1893.657" y1="437.839" x2="1957.793" y2="437.839" stroke="#7f7fff"/>
            <line x1="1893.657" y1="962.161" x2="1893.657" y2="960.305" stroke="#7f7fff"/>
            <line x1="1893.657" y1="962.161" x2="1957.793" y2="962.161" stroke="#7f7fff"/>
            <polyline fill="none" stroke="#7f7fff"
                      points="1957.793,437.839 1957.839,443.135 1957.883,448.432 1957.926,453.728 1957.969,459.024 1958.01,464.32 1958.051,469.616 1958.091,474.912 1958.13,480.209 1958.167,485.505 1958.204,490.801 1958.24,496.097 1958.275,501.393 1958.31,506.69 1958.343,511.986 1958.375,517.282 1958.407,522.578 1958.437,527.874 1958.467,533.17 1958.495,538.467 1958.523,543.763 1958.55,549.059 1958.576,554.355 1958.6,559.651 1958.625,564.947 1958.648,570.244 1958.67,575.54 1958.691,580.836 1958.711,586.132 1958.731,591.428 1958.749,596.725 1958.767,602.021 1958.783,607.317 1958.799,612.613 1958.814,617.909 1958.828,623.205 1958.841,628.502 1958.853,633.798 1958.864,639.094 1958.874,644.39 1958.883,649.686 1958.891,654.982 1958.899,660.279 1958.905,665.575 1958.911,670.871 1958.915,676.167 1958.919,681.463 1958.922,686.76 1958.924,692.056 1958.925,697.352 1958.925,702.648 1958.924,707.944 1958.922,713.24 1958.919,718.537 1958.915,723.833 1958.911,729.129 1958.905,734.425 1958.899,739.721 1958.891,745.018 1958.883,750.314 1958.874,755.61 1958.864,760.906 1958.853,766.202 1958.841,771.498 1958.828,776.795 1958.814,782.091 1958.799,787.387 1958.783,792.683 1958.767,797.979 1958.749,803.275 1958.731,808.572 1958.711,813.868 1958.691,819.164 1958.67,824.46 1958.648,829.756 1958.625,835.053 1958.6,840.349 1958.576,845.645 1958.55,850.941 1958.523,856.237 1958.495,861.533 1958.467,866.83 1958.437,872.126 1958.407,877.422 1958.375,882.718 1958.343,888.014 1958.31,893.31 1958.275,898.607 1958.24,903.903 1958.204,909.199 1958.167,914.495 1958.13,919.791 1958.091,925.088 1958.051,930.384 1958.01,935.68 1957.969,940.976 1957.926,946.272 1957.883,951.568 1957.839,956.865 1957.793,962.161 "/>
        </g>
        <g>
            <polyline fill="none" stroke="#7f7fff"
                      points="2105.726,404.429 2105.726,410.4 2105.726,416.371 2105.726,422.342 2105.726,428.314 2105.726,434.285 2105.726,440.256 2105.726,446.227 2105.726,452.198 2105.726,458.169 2105.726,464.14 2105.726,470.112 2105.726,476.083 2105.726,482.054 2105.726,488.025 2105.726,493.996 2105.726,499.967 2105.726,505.938 2105.726,511.909 2105.726,517.881 2105.726,523.852 2105.726,529.823 2105.726,535.794 2105.726,541.765 2105.726,547.736 2105.726,553.707 2105.726,559.678 2105.726,565.65 2105.726,571.621 2105.726,577.592 2105.726,583.563 2105.726,589.534 2105.726,595.505 2105.726,601.476 2105.726,607.447 2105.726,613.419 2105.726,619.39 2105.726,625.361 2105.726,631.332 2105.726,637.303 2105.726,643.274 2105.726,649.245 2105.726,655.217 2105.726,661.188 2105.726,667.159 2105.726,673.13 2105.726,679.101 2105.726,685.072 2105.726,691.043 2105.726,697.014 2105.726,702.986 2105.726,708.957 2105.726,714.928 2105.726,720.899 2105.726,726.87 2105.726,732.841 2105.726,738.812 2105.726,744.783 2105.726,750.755 2105.726,756.726 2105.726,762.697 2105.726,768.668 2105.726,774.639 2105.726,780.61 2105.726,786.581 2105.726,792.553 2105.726,798.524 2105.726,804.495 2105.726,810.466 2105.726,816.437 2105.726,822.408 2105.726,828.379 2105.726,834.35 2105.726,840.322 2105.726,846.293 2105.726,852.264 2105.726,858.235 2105.726,864.206 2105.726,870.177 2105.726,876.148 2105.726,882.119 2105.726,888.091 2105.726,894.062 2105.726,900.033 2105.726,906.004 2105.726,911.975 2105.726,917.946 2105.726,923.917 2105.726,929.888 2105.726,935.86 2105.726,941.831 2105.726,947.802 2105.726,953.773 2105.726,959.744 2105.726,965.715 2105.726,971.686 2105.726,977.658 2105.726,983.629 2105.726,989.6 2105.726,995.571 "/>
            <line x1="2105.726" y1="404.429" x2="2126.207" y2="404.429" stroke="#7f7fff"/>
            <line x1="2105.726" y1="995.571" x2="2126.207" y2="995.571" stroke="#7f7fff"/>
            <polyline fill="none" stroke="#7f7fff"
                      points="2126.207,404.429 2126.207,410.4 2126.207,416.371 2126.207,422.342 2126.207,428.314 2126.207,434.285 2126.207,440.256 2126.207,446.227 2126.207,452.198 2126.207,458.169 2126.207,464.14 2126.207,470.112 2126.207,476.083 2126.207,482.054 2126.207,488.025 2126.207,493.996 2126.207,499.967 2126.207,505.938 2126.207,511.909 2126.207,517.881 2126.207,523.852 2126.207,529.823 2126.207,535.794 2126.207,541.765 2126.207,547.736 2126.207,553.707 2126.207,559.678 2126.207,565.65 2126.207,571.621 2126.207,577.592 2126.207,583.563 2126.207,589.534 2126.207,595.505 2126.207,601.476 2126.207,607.447 2126.207,613.419 2126.207,619.39 2126.207,625.361 2126.207,631.332 2126.207,637.303 2126.207,643.274 2126.207,649.245 2126.207,655.217 2126.207,661.188 2126.207,667.159 2126.207,673.13 2126.207,679.101 2126.207,685.072 2126.207,691.043 2126.207,697.014 2126.207,702.986 2126.207,708.957 2126.207,714.928 2126.207,720.899 2126.207,726.87 2126.207,732.841 2126.207,738.812 2126.207,744.783 2126.207,750.755 2126.207,756.726 2126.207,762.697 2126.207,768.668 2126.207,774.639 2126.207,780.61 2126.207,786.581 2126.207,792.553 2126.207,798.524 2126.207,804.495 2126.207,810.466 2126.207,816.437 2126.207,822.408 2126.207,828.379 2126.207,834.35 2126.207,840.322 2126.207,846.293 2126.207,852.264 2126.207,858.235 2126.207,864.206 2126.207,870.177 2126.207,876.148 2126.207,882.119 2126.207,888.091 2126.207,894.062 2126.207,900.033 2126.207,906.004 2126.207,911.975 2126.207,917.946 2126.207,923.917 2126.207,929.888 2126.207,935.86 2126.207,941.831 2126.207,947.802 2126.207,953.773 2126.207,959.744 2126.207,965.715 2126.207,971.686 2126.207,977.658 2126.207,983.629 2126.207,989.6 2126.207,995.571 "/>
        </g>
    </g>
    <g>
        <title>element</title>
        <polyline fill="none" stroke="#7f7fff"
                  points="2143.76,144.444 2143.76,155.668 2143.76,166.891 2143.76,178.114 2143.76,189.338 2143.76,200.561 2143.76,211.785 2143.76,223.008 2143.76,234.231 2143.76,245.455 2143.76,256.678 2143.76,267.901 2143.76,279.125 2143.76,290.348 2143.76,301.571 2143.76,312.795 2143.76,324.018 2143.76,335.241 2143.76,346.465 2143.76,357.688 2143.76,368.911 2143.76,380.135 2143.76,391.358 2143.76,402.581 2143.76,413.805 2143.76,425.028 2143.76,436.251 2143.76,447.475 2143.76,458.698 2143.76,469.921 2143.76,481.145 2143.76,492.368 2143.76,503.591 2143.76,514.815 2143.76,526.038 2143.76,537.262 2143.76,548.485 2143.76,559.708 2143.76,570.932 2143.76,582.155 2143.76,593.378 2143.76,604.602 2143.76,615.825 2143.76,627.048 2143.76,638.272 2143.76,649.495 2143.76,660.718 2143.76,671.942 2143.76,683.165 2143.76,694.388 2143.76,705.612 2143.76,716.835 2143.76,728.058 2143.76,739.282 2143.76,750.505 2143.76,761.728 2143.76,772.952 2143.76,784.175 2143.76,795.398 2143.76,806.622 2143.76,817.845 2143.76,829.068 2143.76,840.292 2143.76,851.515 2143.76,862.738 2143.76,873.962 2143.76,885.185 2143.76,896.409 2143.76,907.632 2143.76,918.855 2143.76,930.079 2143.76,941.302 2143.76,952.525 2143.76,963.749 2143.76,974.972 2143.76,986.195 2143.76,997.419 2143.76,1008.642 2143.76,1019.865 2143.76,1031.089 2143.76,1042.312 2143.76,1053.535 2143.76,1064.759 2143.76,1075.982 2143.76,1087.205 2143.76,1098.429 2143.76,1109.652 2143.76,1120.875 2143.76,1132.099 2143.76,1143.322 2143.76,1154.545 2143.76,1165.769 2143.76,1176.992 2143.76,1188.215 2143.76,1199.439 2143.76,1210.662 2143.76,1221.886 2143.76,1233.109 2143.76,1244.332 2143.76,1255.556 "/>
    </g>
</svg>
