<?xml version="1.0" standalone="no"?>
<svg width="2400px" height="1400px" version="1.1" xmlns="http://www.w3.org/2000/svg" xmlns:xlink="http://www.w3.org/1999/xlink">
<rect x="0" y="0" width="2400" height="1400"  fill="#ffffff" />
<defs>
<g id="dot">
<line x1="1" y1="1" x2="0" y2="0"  />
</g>
<g id="cross">
<line x1="-3" y1="0" x2="3" y2="0"  />
<line x1="0" y1="-3" x2="0" y2="3"  />
</g>
<g id="square">
<line x1="-3" y1="-3" x2="-3" y2="3"  />
<line x1="-3" y1="3" x2="3" y2="3"  />
<line x1="3" y1="3" x2="3" y2="-3"  />
<line x1="3" y1="-3" x2="-3" y2="-3"  />
</g>
<g id="round">
<ellipse cx="0" cy="0" rx="3" ry="3"  fill="none" /></g>
<g id="triangle">
<line x1="0" y1="-3" x2="-3" y2="3"  />
<line x1="-3" y1="3" x2="3" y2="3"  />
<line x1="0" y1="-3" x2="3" y2="3"  />
</g>
</defs>
<line x1="636.177" y1="700" x2="1763.823" y2="700"  stroke="#7f7f7f" />
<g><title>element</title>
<g>
<line x1="994.826" y1="505.568" x2="994.826" y2="311.137"  stroke="#7f7fff" />
<line x1="994.826" y1="894.432" x2="994.826" y2="1088.863"  stroke="#7f7fff" />
</g>
<g>
<polyline fill="none" stroke="#7f7fff" points="696.208,377.726 693.725,384.237 691.299,390.747 688.93,397.258 686.619,403.769 684.363,410.279 682.164,416.79 680.02,423.3 677.931,429.811 675.897,436.322 673.917,442.832 671.991,449.343 670.118,455.853 668.299,462.364 666.532,468.874 664.818,475.385 663.157,481.896 661.547,488.406 659.989,494.917 658.482,501.427 657.026,507.938 655.621,514.448 654.266,520.959 652.962,527.47 651.708,533.98 650.504,540.491 649.35,547.001 648.245,553.512 647.19,560.023 646.184,566.533 645.226,573.044 644.318,579.554 643.458,586.065 642.647,592.575 641.884,599.086 641.169,605.597 640.503,612.107 639.884,618.618 639.314,625.128 638.791,631.639 638.316,638.149 637.889,644.66 637.51,651.171 637.178,657.681 636.893,664.192 636.656,670.702 636.467,677.213 636.325,683.724 636.23,690.234 636.183,696.745 636.183,703.255 636.23,709.766 636.325,716.276 636.467,722.787 636.656,729.298 636.893,735.808 637.178,742.319 637.51,748.829 637.889,755.34 638.316,761.851 638.791,768.361 639.314,774.872 639.884,781.382 640.503,787.893 641.169,794.403 641.884,800.914 642.647,807.425 643.458,813.935 644.318,820.446 645.226,826.956 646.184,833.467 647.19,839.977 648.245,846.488 649.35,852.999 650.504,859.509 651.708,866.02 652.962,872.53 654.266,879.041 655.621,885.552 657.026,892.062 658.482,898.573 659.989,905.083 661.547,911.594 663.157,918.104 664.818,924.615 666.532,931.126 668.299,937.636 670.118,944.147 671.991,950.657 673.917,957.168 675.897,963.678 677.931,970.189 680.02,976.7 682.164,983.21 684.363,989.721 686.619,996.231 688.93,1002.742 691.299,1009.253 693.725,1015.763 696.208,1022.274 " />
<line x1="696.208" y1="377.726" x2="709.358" y2="377.726"  stroke="#7f7fff" />
<line x1="696.208" y1="1022.274" x2="709.358" y2="1022.274"  stroke="#7f7fff" />
<polyline fill="none" stroke="#7f7fff" points="709.358,377.726 709.265,384.237 709.174,390.747 709.085,397.258 708.998,403.769 708.912,410.279 708.829,416.79 708.747,423.3 708.668,429.811 708.59,436.322 708.514,442.832 708.44,449.343 708.368,455.853 708.298,462.364 708.23,468.874 708.164,475.385 708.099,481.896 708.037,488.406 707.976,494.917 707.917,501.427 707.86,507.938 707.805,514.448 707.752,520.959 707.701,527.47 707.652,533.98 707.605,540.491 707.559,547.001 707.515,553.512 707.474,560.023 707.434,566.533 707.396,573.044 707.36,579.554 707.326,586.065 707.294,592.575 707.263,599.086 707.235,605.597 707.208,612.107 707.184,618.618 707.161,625.128 707.14,631.639 707.121,638.149 707.104,644.66 707.089,651.171 707.076,657.681 707.064,664.192 707.055,670.702 707.047,677.213 707.042,683.724 707.038,690.234 707.036,696.745 707.036,703.255 707.038,709.766 707.042,716.276 707.047,722.787 707.055,729.298 707.064,735.808 707.076,742.319 707.089,748.829 707.104,755.34 707.121,761.851 707.14,768.361 707.161,774.872 707.184,781.382 707.208,787.893 707.235,794.403 707.263,800.914 707.294,807.425 707.326,813.935 707.36,820.446 707.396,826.956 707.434,833.467 707.474,839.977 707.515,846.488 707.559,852.999 707.605,859.509 707.652,866.02 707.701,872.53 707.752,879.041 707.805,885.552 707.86,892.062 707.917,898.573 707.976,905.083 708.037,911.594 708.099,918.104 708.164,924.615 708.23,931.126 708.298,937.636 708.368,944.147 708.44,950.657 708.514,957.168 708.59,963.678 708.668,970.189 708.747,976.7 708.829,983.21 708.912,989.721 708.998,996.231 709.085,1002.742 709.174,1009.253 709.265,1015.763 709.358,1022.274 " />
</g>
<g>
<polyline fill="none" stroke="#7f7fff" points="834.96,421.708 828.653,427.33 822.626,432.952 816.859,438.574 811.337,444.196 806.043,449.818 800.965,455.44 796.09,461.062 791.41,466.684 786.913,472.306 782.593,477.928 778.44,483.551 774.449,489.173 770.612,494.795 766.925,500.417 763.382,506.039 759.977,511.661 756.708,517.283 753.569,522.905 750.557,528.527 747.668,534.149 744.9,539.771 742.248,545.393 739.711,551.015 737.286,556.637 734.971,562.259 732.762,567.881 730.659,573.504 728.659,579.126 726.761,584.748 724.963,590.37 723.263,595.992 721.659,601.614 720.152,607.236 718.739,612.858 717.42,618.48 716.192,624.102 715.056,629.724 714.011,635.346 713.055,640.968 712.189,646.59 711.411,652.212 710.72,657.835 710.117,663.457 709.601,669.079 709.172,674.701 708.829,680.323 708.571,685.945 708.4,691.567 708.314,697.189 708.314,702.811 708.4,708.433 708.571,714.055 708.829,719.677 709.172,725.299 709.601,730.921 710.117,736.543 710.72,742.165 711.411,747.788 712.189,753.41 713.055,759.032 714.011,764.654 715.056,770.276 716.192,775.898 717.42,781.52 718.739,787.142 720.152,792.764 721.659,798.386 723.263,804.008 724.963,809.63 726.761,815.252 728.659,820.874 730.659,826.496 732.762,832.119 734.971,837.741 737.286,843.363 739.711,848.985 742.248,854.607 744.9,860.229 747.668,865.851 750.557,871.473 753.569,877.095 756.708,882.717 759.977,888.339 763.382,893.961 766.925,899.583 770.612,905.205 774.449,910.827 778.44,916.449 782.593,922.072 786.913,927.694 791.41,933.316 796.09,938.938 800.965,944.56 806.043,950.182 811.337,955.804 816.859,961.426 822.626,967.048 828.653,972.67 834.96,978.292 " />
<line x1="880.447" y1="421.708" x2="880.447" y2="433.925"  stroke="#7f7fff" />
<line x1="834.96" y1="421.708" x2="880.447" y2="421.708"  stroke="#7f7fff" />
<line x1="880.447" y1="978.292" x2="880.447" y2="966.075"  stroke="#7f7fff" />
<line x1="834.96" y1="978.292" x2="880.447" y2="978.292"  stroke="#7f7fff" />
<polyline fill="none" stroke="#7f7fff" points="880.447,433.925 878.418,439.3 876.436,444.675 874.501,450.051 872.612,455.426 870.77,460.801 868.972,466.176 867.22,471.552 865.513,476.927 863.851,482.302 862.233,487.677 860.659,493.053 859.128,498.428 857.641,503.803 856.197,509.178 854.796,514.554 853.437,519.929 852.121,525.304 850.847,530.679 849.615,536.055 848.425,541.43 847.276,546.805 846.169,552.18 845.103,557.556 844.077,562.931 843.093,568.306 842.149,573.682 841.245,579.057 840.382,584.432 839.559,589.807 838.776,595.183 838.033,600.558 837.33,605.933 836.667,611.308 836.043,616.684 835.458,622.059 834.913,627.434 834.407,632.809 833.941,638.185 833.513,643.56 833.125,648.935 832.775,654.31 832.465,659.686 832.194,665.061 831.961,670.436 831.767,675.811 831.612,681.187 831.496,686.562 831.418,691.937 831.38,697.312 831.38,702.688 831.418,708.063 831.496,713.438 831.612,718.813 831.767,724.189 831.961,729.564 832.194,734.939 832.465,740.314 832.775,745.69 833.125,751.065 833.513,756.44 833.941,761.815 834.407,767.191 834.913,772.566 835.458,777.941 836.043,783.316 836.667,788.692 837.33,794.067 838.033,799.442 838.776,804.817 839.559,810.193 840.382,815.568 841.245,820.943 842.149,826.318 843.093,831.694 844.077,837.069 845.103,842.444 846.169,847.82 847.276,853.195 848.425,858.57 849.615,863.945 850.847,869.321 852.121,874.696 853.437,880.071 854.796,885.446 856.197,890.822 857.641,896.197 859.128,901.572 860.659,906.947 862.233,912.323 863.851,917.698 865.513,923.073 867.22,928.448 868.972,933.824 870.77,939.199 872.612,944.574 874.501,949.949 876.436,955.325 878.418,960.7 880.447,966.075 " />
</g>
<g>
<polyline fill="none" stroke="#7f7fff" points="874.623,449.743 873.475,454.798 872.353,459.854 871.255,464.91 870.181,469.966 869.132,475.021 868.107,480.077 867.106,485.133 866.129,490.188 865.177,495.244 864.248,500.3 863.343,505.356 862.463,510.411 861.606,515.467 860.773,520.523 859.964,525.578 859.178,530.634 858.416,535.69 857.678,540.745 856.963,545.801 856.272,550.857 855.604,555.913 854.959,560.968 854.338,566.024 853.74,571.08 853.166,576.135 852.615,581.191 852.087,586.247 851.582,591.302 851.1,596.358 850.642,601.414 850.206,606.47 849.794,611.525 849.405,616.581 849.038,621.637 848.695,626.692 848.375,631.748 848.078,636.804 847.803,641.859 847.552,646.915 847.323,651.971 847.118,657.027 846.935,662.082 846.775,667.138 846.638,672.194 846.524,677.249 846.432,682.305 846.364,687.361 846.318,692.416 846.295,697.472 846.295,702.528 846.318,707.584 846.364,712.639 846.432,717.695 846.524,722.751 846.638,727.806 846.775,732.862 846.935,737.918 847.118,742.973 847.323,748.029 847.552,753.085 847.803,758.141 848.078,763.196 848.375,768.252 848.695,773.308 849.038,778.363 849.405,783.419 849.794,788.475 850.206,793.53 850.642,798.586 851.1,803.642 851.582,808.698 852.087,813.753 852.615,818.809 853.166,823.865 853.74,828.92 854.338,833.976 854.959,839.032 855.604,844.087 856.272,849.143 856.963,854.199 857.678,859.255 858.416,864.31 859.178,869.366 859.964,874.422 860.773,879.477 861.606,884.533 862.463,889.589 863.343,894.644 864.248,899.7 865.177,904.756 866.129,909.812 867.106,914.867 868.107,919.923 869.132,924.979 870.181,930.034 871.255,935.09 872.353,940.146 873.475,945.202 874.623,950.257 " />
<line x1="972.263" y1="449.743" x2="972.263" y2="500.669"  stroke="#7f7fff" />
<line x1="874.623" y1="449.743" x2="972.263" y2="449.743"  stroke="#7f7fff" />
<line x1="972.263" y1="950.257" x2="972.263" y2="899.331"  stroke="#7f7fff" />
<line x1="874.623" y1="950.257" x2="972.263" y2="950.257"  stroke="#7f7fff" />
<polyline fill="none" stroke="#7f7fff" points="972.263,500.669 967.329,504.696 962.636,508.723 958.165,512.749 953.898,516.776 949.821,520.803 945.922,524.83 942.189,528.857 938.612,532.884 935.184,536.911 931.897,540.938 928.743,544.965 925.717,548.991 922.813,553.018 920.025,557.045 917.35,561.072 914.783,565.099 912.32,569.126 909.959,573.153 907.694,577.18 905.525,581.207 903.447,585.234 901.46,589.26 899.559,593.287 897.743,597.314 896.01,601.341 894.359,605.368 892.787,609.395 891.293,613.422 889.876,617.449 888.534,621.476 887.265,625.502 886.07,629.529 884.946,633.556 883.894,637.583 882.911,641.61 881.997,645.637 881.151,649.664 880.373,653.691 879.662,657.718 879.017,661.745 878.438,665.771 877.925,669.798 877.476,673.825 877.093,677.852 876.773,681.879 876.518,685.906 876.327,689.933 876.199,693.96 876.136,697.987 876.136,702.013 876.199,706.04 876.327,710.067 876.518,714.094 876.773,718.121 877.093,722.148 877.476,726.175 877.925,730.202 878.438,734.229 879.017,738.255 879.662,742.282 880.373,746.309 881.151,750.336 881.997,754.363 882.911,758.39 883.894,762.417 884.946,766.444 886.07,770.471 887.265,774.498 888.534,778.524 889.876,782.551 891.293,786.578 892.787,790.605 894.359,794.632 896.01,798.659 897.743,802.686 899.559,806.713 901.46,810.74 903.447,814.766 905.525,818.793 907.694,822.82 909.959,826.847 912.32,830.874 914.783,834.901 917.35,838.928 920.025,842.955 922.813,846.982 925.717,851.009 928.743,855.035 931.897,859.062 935.184,863.089 938.612,867.116 942.189,871.143 945.922,875.17 949.821,879.197 953.898,883.224 958.165,887.251 962.636,891.277 967.329,895.304 972.263,899.331 " />
</g>
<g>
<polyline fill="none" stroke="#7f7fff" points="1020.532,505.941 1023.623,509.862 1026.614,513.782 1029.507,517.702 1032.307,521.623 1035.017,525.543 1037.639,529.464 1040.176,533.384 1042.631,537.304 1045.005,541.225 1047.301,545.145 1049.521,549.066 1051.667,552.986 1053.74,556.906 1055.742,560.827 1057.675,564.747 1059.54,568.667 1061.339,572.588 1063.072,576.508 1064.741,580.429 1066.347,584.349 1067.89,588.269 1069.373,592.19 1070.796,596.11 1072.16,600.03 1073.465,603.951 1074.712,607.871 1075.903,611.792 1077.037,615.712 1078.116,619.632 1079.14,623.553 1080.11,627.473 1081.025,631.393 1081.887,635.314 1082.697,639.234 1083.453,643.155 1084.158,647.075 1084.811,650.995 1085.412,654.916 1085.962,658.836 1086.462,662.756 1086.91,666.677 1087.309,670.597 1087.657,674.518 1087.955,678.438 1088.203,682.358 1088.401,686.279 1088.55,690.199 1088.649,694.119 1088.699,698.04 1088.699,701.96 1088.649,705.881 1088.55,709.801 1088.401,713.721 1088.203,717.642 1087.955,721.562 1087.657,725.482 1087.309,729.403 1086.91,733.323 1086.462,737.244 1085.962,741.164 1085.412,745.084 1084.811,749.005 1084.158,752.925 1083.453,756.845 1082.697,760.766 1081.887,764.686 1081.025,768.607 1080.11,772.527 1079.14,776.447 1078.116,780.368 1077.037,784.288 1075.903,788.208 1074.712,792.129 1073.465,796.049 1072.16,799.97 1070.796,803.89 1069.373,807.81 1067.89,811.731 1066.347,815.651 1064.741,819.571 1063.072,823.492 1061.339,827.412 1059.54,831.333 1057.675,835.253 1055.742,839.173 1053.74,843.094 1051.667,847.014 1049.521,850.934 1047.301,854.855 1045.005,858.775 1042.631,862.696 1040.176,866.616 1037.639,870.536 1035.017,874.457 1032.307,878.377 1029.507,882.298 1026.614,886.218 1023.623,890.138 1020.532,894.059 " />
<line x1="1020.532" y1="466.461" x2="1020.532" y2="505.941"  stroke="#7f7fff" />
<line x1="1020.532" y1="466.461" x2="1150.228" y2="466.461"  stroke="#7f7fff" />
<line x1="1020.532" y1="933.539" x2="1020.532" y2="894.059"  stroke="#7f7fff" />
<line x1="1020.532" y1="933.539" x2="1150.228" y2="933.539"  stroke="#7f7fff" />
<polyline fill="none" stroke="#7f7fff" points="1150.228,466.461 1148.619,471.179 1147.046,475.897 1145.51,480.615 1144.01,485.333 1142.545,490.051 1141.116,494.769 1139.723,499.487 1138.365,504.205 1137.041,508.923 1135.752,513.641 1134.498,518.358 1133.278,523.076 1132.093,527.794 1130.941,532.512 1129.823,537.23 1128.739,541.948 1127.688,546.666 1126.671,551.384 1125.686,556.102 1124.735,560.82 1123.817,565.538 1122.932,570.256 1122.079,574.974 1121.259,579.692 1120.471,584.41 1119.715,589.128 1118.992,593.846 1118.301,598.564 1117.642,603.282 1117.015,608 1116.42,612.718 1115.857,617.436 1115.325,622.154 1114.825,626.872 1114.356,631.59 1113.919,636.308 1113.514,641.025 1113.14,645.743 1112.797,650.461 1112.485,655.179 1112.205,659.897 1111.956,664.615 1111.738,669.333 1111.552,674.051 1111.396,678.769 1111.272,683.487 1111.179,688.205 1111.116,692.923 1111.085,697.641 1111.085,702.359 1111.116,707.077 1111.179,711.795 1111.272,716.513 1111.396,721.231 1111.552,725.949 1111.738,730.667 1111.956,735.385 1112.205,740.103 1112.485,744.821 1112.797,749.539 1113.14,754.257 1113.514,758.975 1113.919,763.692 1114.356,768.41 1114.825,773.128 1115.325,777.846 1115.857,782.564 1116.42,787.282 1117.015,792 1117.642,796.718 1118.301,801.436 1118.992,806.154 1119.715,810.872 1120.471,815.59 1121.259,820.308 1122.079,825.026 1122.932,829.744 1123.817,834.462 1124.735,839.18 1125.686,843.898 1126.671,848.616 1127.688,853.334 1128.739,858.052 1129.823,862.77 1130.941,867.488 1132.093,872.206 1133.278,876.924 1134.498,881.642 1135.752,886.359 1137.041,891.077 1138.365,895.795 1139.723,900.513 1141.116,905.231 1142.545,909.949 1144.01,914.667 1145.51,919.385 1147.046,924.103 1148.619,928.821 1150.228,933.539 " />
<line x1="1150.228" y1="466.461" x2="1176.295" y2="466.461"  stroke="#7f7fff" />
<line x1="1150.228" y1="933.539" x2="1176.295" y2="933.539"  stroke="#7f7fff" />
<polyline fill="none" stroke="#7f7fff" points="1176.295,466.461 1179.308,471.179 1182.236,475.897 1185.081,480.615 1187.843,485.333 1190.527,490.051 1193.132,494.769 1195.66,499.487 1198.114,504.205 1200.494,508.923 1202.802,513.641 1205.039,518.358 1207.206,523.076 1209.305,527.794 1211.336,532.512 1213.302,537.23 1215.201,541.948 1217.036,546.666 1218.808,551.384 1220.517,556.102 1222.164,560.82 1223.749,565.538 1225.275,570.256 1226.74,574.974 1228.146,579.692 1229.494,584.41 1230.783,589.128 1232.015,593.846 1233.19,598.564 1234.309,603.282 1235.371,608 1236.378,612.718 1237.33,617.436 1238.227,622.154 1239.069,626.872 1239.857,631.59 1240.592,636.308 1241.272,641.025 1241.9,645.743 1242.474,650.461 1242.996,655.179 1243.464,659.897 1243.881,664.615 1244.245,669.333 1244.556,674.051 1244.816,678.769 1245.023,683.487 1245.179,688.205 1245.282,692.923 1245.334,697.641 1245.334,702.359 1245.282,707.077 1245.179,711.795 1245.023,716.513 1244.816,721.231 1244.556,725.949 1244.245,730.667 1243.881,735.385 1243.464,740.103 1242.996,744.821 1242.474,749.539 1241.9,754.257 1241.272,758.975 1240.592,763.692 1239.857,768.41 1239.069,773.128 1238.227,777.846 1237.33,782.564 1236.378,787.282 1235.371,792 1234.309,796.718 1233.19,801.436 1232.015,806.154 1230.783,810.872 1229.494,815.59 1228.146,820.308 1226.74,825.026 1225.275,829.744 1223.749,834.462 1222.164,839.18 1220.517,843.898 1218.808,848.616 1217.036,853.334 1215.201,858.052 1213.302,862.77 1211.336,867.488 1209.305,872.206 1207.206,876.924 1205.039,881.642 1202.802,886.359 1200.494,891.077 1198.114,895.795 1195.66,900.513 1193.132,905.231 1190.527,909.949 1187.843,914.667 1185.081,919.385 1182.236,924.103 1179.308,928.821 1176.295,933.539 " />
</g>
<g>
<polyline fill="none" stroke="#7f7fff" points="1243.661,471.734 1243.779,476.345 1243.894,480.956 1244.008,485.568 1244.118,490.179 1244.227,494.791 1244.332,499.402 1244.436,504.014 1244.537,508.625 1244.636,513.237 1244.732,517.848 1244.826,522.459 1244.917,527.071 1245.006,531.682 1245.093,536.294 1245.177,540.905 1245.259,545.517 1245.338,550.128 1245.415,554.74 1245.49,559.351 1245.562,563.962 1245.632,568.574 1245.699,573.185 1245.764,577.797 1245.827,582.408 1245.887,587.02 1245.944,591.631 1246,596.243 1246.053,600.854 1246.103,605.465 1246.151,610.077 1246.197,614.688 1246.24,619.3 1246.281,623.911 1246.32,628.523 1246.356,633.134 1246.39,637.746 1246.421,642.357 1246.45,646.968 1246.476,651.58 1246.5,656.191 1246.522,660.803 1246.541,665.414 1246.558,670.026 1246.572,674.637 1246.584,679.249 1246.594,683.86 1246.601,688.471 1246.606,693.083 1246.608,697.694 1246.608,702.306 1246.606,706.917 1246.601,711.529 1246.594,716.14 1246.584,720.751 1246.572,725.363 1246.558,729.974 1246.541,734.586 1246.522,739.197 1246.5,743.809 1246.476,748.42 1246.45,753.032 1246.421,757.643 1246.39,762.254 1246.356,766.866 1246.32,771.477 1246.281,776.089 1246.24,780.7 1246.197,785.312 1246.151,789.923 1246.103,794.535 1246.053,799.146 1246,803.757 1245.944,808.369 1245.887,812.98 1245.827,817.592 1245.764,822.203 1245.699,826.815 1245.632,831.426 1245.562,836.038 1245.49,840.649 1245.415,845.26 1245.338,849.872 1245.259,854.483 1245.177,859.095 1245.093,863.706 1245.006,868.318 1244.917,872.929 1244.826,877.541 1244.732,882.152 1244.636,886.763 1244.537,891.375 1244.436,895.986 1244.332,900.598 1244.227,905.209 1244.118,909.821 1244.008,914.432 1243.894,919.044 1243.779,923.655 1243.661,928.266 " />
<line x1="1243.661" y1="471.734" x2="1258.829" y2="471.734"  stroke="#7f7fff" />
<line x1="1243.661" y1="928.266" x2="1258.829" y2="928.266"  stroke="#7f7fff" />
<polyline fill="none" stroke="#7f7fff" points="1258.829,471.734 1259.69,476.345 1260.532,480.956 1261.357,485.568 1262.164,490.179 1262.952,494.791 1263.723,499.402 1264.475,504.014 1265.21,508.625 1265.926,513.237 1266.625,517.848 1267.306,522.459 1267.969,527.071 1268.614,531.682 1269.242,536.294 1269.852,540.905 1270.444,545.517 1271.018,550.128 1271.575,554.74 1272.114,559.351 1272.635,563.962 1273.139,568.574 1273.625,573.185 1274.094,577.797 1274.545,582.408 1274.979,587.02 1275.395,591.631 1275.794,596.243 1276.175,600.854 1276.539,605.465 1276.885,610.077 1277.214,614.688 1277.526,619.3 1277.82,623.911 1278.097,628.523 1278.357,633.134 1278.599,637.746 1278.824,642.357 1279.031,646.968 1279.221,651.58 1279.394,656.191 1279.55,660.803 1279.688,665.414 1279.809,670.026 1279.912,674.637 1279.999,679.249 1280.068,683.86 1280.12,688.471 1280.154,693.083 1280.171,697.694 1280.171,702.306 1280.154,706.917 1280.12,711.529 1280.068,716.14 1279.999,720.751 1279.912,725.363 1279.809,729.974 1279.688,734.586 1279.55,739.197 1279.394,743.809 1279.221,748.42 1279.031,753.032 1278.824,757.643 1278.599,762.254 1278.357,766.866 1278.097,771.477 1277.82,776.089 1277.526,780.7 1277.214,785.312 1276.885,789.923 1276.539,794.535 1276.175,799.146 1275.794,803.757 1275.395,808.369 1274.979,812.98 1274.545,817.592 1274.094,822.203 1273.625,826.815 1273.139,831.426 1272.635,836.038 1272.114,840.649 1271.575,845.26 1271.018,849.872 1270.444,854.483 1269.852,859.095 1269.242,863.706 1268.614,868.318 1267.969,872.929 1267.306,877.541 1266.625,882.152 1265.926,886.763 1265.21,891.375 1264.475,895.986 1263.723,900.598 1262.952,905.209 1262.164,909.821 1261.357,914.432 1260.532,919.044 1259.69,923.655 1258.829,928.266 " />
</g>
<g>
<polyline fill="none" stroke="#7f7fff" points="1305.012,477.006 1304.059,481.511 1303.127,486.016 1302.214,490.521 1301.322,495.026 1300.45,499.531 1299.598,504.036 1298.766,508.541 1297.954,513.046 1297.162,517.551 1296.39,522.055 1295.637,526.56 1294.905,531.065 1294.192,535.57 1293.499,540.075 1292.826,544.58 1292.172,549.085 1291.538,553.59 1290.923,558.095 1290.329,562.6 1289.753,567.105 1289.197,571.61 1288.661,576.115 1288.143,580.619 1287.646,585.124 1287.167,589.629 1286.708,594.134 1286.269,598.639 1285.848,603.144 1285.447,607.649 1285.065,612.154 1284.703,616.659 1284.359,621.164 1284.035,625.669 1283.73,630.174 1283.444,634.679 1283.177,639.184 1282.929,643.688 1282.701,648.193 1282.491,652.698 1282.301,657.203 1282.129,661.708 1281.977,666.213 1281.844,670.718 1281.729,675.223 1281.634,679.728 1281.558,684.233 1281.501,688.738 1281.463,693.243 1281.444,697.748 1281.444,702.252 1281.463,706.757 1281.501,711.262 1281.558,715.767 1281.634,720.272 1281.729,724.777 1281.844,729.282 1281.977,733.787 1282.129,738.292 1282.301,742.797 1282.491,747.302 1282.701,751.807 1282.929,756.312 1283.177,760.816 1283.444,765.321 1283.73,769.826 1284.035,774.331 1284.359,778.836 1284.703,783.341 1285.065,787.846 1285.447,792.351 1285.848,796.856 1286.269,801.361 1286.708,805.866 1287.167,810.371 1287.646,814.876 1288.143,819.381 1288.661,823.885 1289.197,828.39 1289.753,832.895 1290.329,837.4 1290.923,841.905 1291.538,846.41 1292.172,850.915 1292.826,855.42 1293.499,859.925 1294.192,864.43 1294.905,868.935 1295.637,873.44 1296.39,877.945 1297.162,882.449 1297.954,886.954 1298.766,891.459 1299.598,895.964 1300.45,900.469 1301.322,904.974 1302.214,909.479 1303.127,913.984 1304.059,918.489 1305.012,922.994 " />
<line x1="1305.012" y1="477.006" x2="1314.245" y2="477.006"  stroke="#7f7fff" />
<line x1="1305.012" y1="922.994" x2="1314.245" y2="922.994"  stroke="#7f7fff" />
<polyline fill="none" stroke="#7f7fff" points="1314.245,477.006 1314.424,481.511 1314.6,486.016 1314.773,490.521 1314.942,495.026 1315.107,499.531 1315.268,504.036 1315.426,508.541 1315.58,513.046 1315.73,517.551 1315.876,522.055 1316.019,526.56 1316.159,531.065 1316.294,535.57 1316.426,540.075 1316.555,544.58 1316.679,549.085 1316.8,553.59 1316.918,558.095 1317.031,562.6 1317.141,567.105 1317.247,571.61 1317.35,576.115 1317.449,580.619 1317.544,585.124 1317.636,589.629 1317.724,594.134 1317.808,598.639 1317.889,603.144 1317.966,607.649 1318.039,612.154 1318.109,616.659 1318.175,621.164 1318.237,625.669 1318.296,630.174 1318.351,634.679 1318.402,639.184 1318.45,643.688 1318.494,648.193 1318.534,652.698 1318.57,657.203 1318.603,661.708 1318.633,666.213 1318.658,670.718 1318.68,675.223 1318.699,679.728 1318.713,684.233 1318.724,688.738 1318.732,693.243 1318.735,697.748 1318.735,702.252 1318.732,706.757 1318.724,711.262 1318.713,715.767 1318.699,720.272 1318.68,724.777 1318.658,729.282 1318.633,733.787 1318.603,738.292 1318.57,742.797 1318.534,747.302 1318.494,751.807 1318.45,756.312 1318.402,760.816 1318.351,765.321 1318.296,769.826 1318.237,774.331 1318.175,778.836 1318.109,783.341 1318.039,787.846 1317.966,792.351 1317.889,796.856 1317.808,801.361 1317.724,805.866 1317.636,810.371 1317.544,814.876 1317.449,819.381 1317.35,823.885 1317.247,828.39 1317.141,832.895 1317.031,837.4 1316.918,841.905 1316.8,846.41 1316.679,850.915 1316.555,855.42 1316.426,859.925 1316.294,864.43 1316.159,868.935 1316.019,873.44 1315.876,877.945 1315.73,882.449 1315.58,886.954 1315.426,891.459 1315.268,895.964 1315.107,900.469 1314.942,904.974 1314.773,909.479 1314.6,913.984 1314.424,918.489 1314.245,922.994 " />
</g>
</g>
<g><title>element</title>
<polyline fill="none" stroke="#7f7fff" points="1763.823,144.444 1763.823,155.668 1763.823,166.891 1763.823,178.114 1763.823,189.338 1763.823,200.561 1763.823,211.785 1763.823,223.008 1763.823,234.231 1763.823,245.455 1763.823,256.678 1763.823,267.901 1763.823,279.125 1763.823,290.348 1763.823,301.571 1763.823,312.795 1763.823,324.018 1763.823,335.241 1763.823,346.465 1763.823,357.688 1763.823,368.911 1763.823,380.135 1763.823,391.358 1763.823,402.581 1763.823,413.805 1763.823,425.028 1763.823,436.251 1763.823,447.475 1763.823,458.698 1763.823,469.921 1763.823,481.145 1763.823,492.368 1763.823,503.591 1763.823,514.815 1763.823,526.038 1763.823,537.262 1763.823,548.485 1763.823,559.708 1763.823,570.932 1763.823,582.155 1763.823,593.378 1763.823,604.602 1763.823,615.825 1763.823,627.048 1763.823,638.272 1763.823,649.495 1763.823,660.718 1763.823,671.942 1763.823,683.165 1763.823,694.388 1763.823,705.612 1763.823,716.835 1763.823,728.058 1763.823,739.282 1763.823,750.505 1763.823,761.728 1763.823,772.952 1763.823,784.175 1763.823,795.398 1763.823,806.622 1763.823,817.845 1763.823,829.068 1763.823,840.292 1763.823,851.515 1763.823,862.738 1763.823,873.962 1763.823,885.185 1763.823,896.409 1763.823,907.632 1763.823,918.855 1763.823,930.079 1763.823,941.302 1763.823,952.525 1763.823,963.749 1763.823,974.972 1763.823,986.195 1763.823,997.419 1763.823,1008.642 1763.823,1019.865 1763.823,1031.089 1763.823,1042.312 1763.823,1053.535 1763.823,1064.759 1763.823,1075.982 1763.823,1087.205 1763.823,1098.429 1763.823,1109.652 1763.823,1120.875 1763.823,1132.099 1763.823,1143.322 1763.823,1154.545 1763.823,1165.769 1763.823,1176.992 1763.823,1188.215 1763.823,1199.439 1763.823,1210.662 1763.823,1221.886 1763.823,1233.109 1763.823,1244.332 1763.823,1255.556 " />
</g>
</svg>
