<?xml version="1.0" standalone="no"?>
<svg width="2400px" height="1400px" version="1.1" xmlns="http://www.w3.org/2000/svg"
>
    <rect x="0" y="0" width="2400" height="1400" fill="#ffffff"/>
    <defs>
        <g id="dot">
            <line x1="1" y1="1" x2="0" y2="0"/>
        </g>
        <g id="cross">
            <line x1="-3" y1="0" x2="3" y2="0"/>
            <line x1="0" y1="-3" x2="0" y2="3"/>
        </g>
        <g id="square">
            <line x1="-3" y1="-3" x2="-3" y2="3"/>
            <line x1="-3" y1="3" x2="3" y2="3"/>
            <line x1="3" y1="3" x2="3" y2="-3"/>
            <line x1="3" y1="-3" x2="-3" y2="-3"/>
        </g>
        <g id="round">
            <ellipse cx="0" cy="0" rx="3" ry="3" fill="none"/>
        </g>
        <g id="triangle">
            <line x1="0" y1="-3" x2="-3" y2="3"/>
            <line x1="-3" y1="3" x2="3" y2="3"/>
            <line x1="0" y1="-3" x2="3" y2="3"/>
        </g>
    </defs>
    <line x1="665.636" y1="700" x2="1734.364" y2="700" stroke="#7f7f7f"/>
    <g>
        <title>element</title>
        <g>
            <line x1="902.287" y1="534.291" x2="902.287" y2="368.583" stroke="#7f7fff"/>
            <line x1="902.287" y1="865.709" x2="902.287" y2="1031.417" stroke="#7f7fff"/>
        </g>
        <g>
            <polyline fill="none" stroke="#7f7fff"
                      points="721.138,459.645 718.799,464.501 716.518,469.356 714.294,474.212 712.128,479.068 710.018,483.923 707.963,488.779 705.962,493.635 704.016,498.49 702.124,503.346 700.284,508.202 698.496,513.057 696.761,517.913 695.076,522.769 693.443,527.624 691.859,532.48 690.326,537.336 688.842,542.191 687.406,547.047 686.02,551.903 684.681,556.758 683.391,561.614 682.148,566.469 680.952,571.325 679.803,576.181 678.7,581.036 677.644,585.892 676.633,590.748 675.668,595.603 674.749,600.459 673.875,605.315 673.046,610.17 672.262,615.026 671.522,619.882 670.827,624.737 670.176,629.593 669.569,634.449 669.006,639.304 668.487,644.16 668.012,649.016 667.58,653.871 667.192,658.727 666.847,663.583 666.545,668.438 666.287,673.294 666.072,678.15 665.899,683.005 665.77,687.861 665.684,692.717 665.641,697.572 665.641,702.428 665.684,707.283 665.77,712.139 665.899,716.995 666.072,721.85 666.287,726.706 666.545,731.562 666.847,736.417 667.192,741.273 667.58,746.129 668.012,750.984 668.487,755.84 669.006,760.696 669.569,765.551 670.176,770.407 670.827,775.263 671.522,780.118 672.262,784.974 673.046,789.83 673.875,794.685 674.749,799.541 675.668,804.397 676.633,809.252 677.644,814.108 678.7,818.964 679.803,823.819 680.952,828.675 682.148,833.531 683.391,838.386 684.681,843.242 686.02,848.097 687.406,852.953 688.842,857.809 690.326,862.664 691.859,867.52 693.443,872.376 695.076,877.231 696.761,882.087 698.496,886.943 700.284,891.798 702.124,896.654 704.016,901.51 705.962,906.365 707.963,911.221 710.018,916.077 712.128,920.932 714.294,925.788 716.518,930.644 718.799,935.499 721.138,940.355 "/>
            <line x1="721.138" y1="459.645" x2="732.476" y2="459.645" stroke="#7f7fff"/>
            <line x1="721.138" y1="940.355" x2="732.476" y2="940.355" stroke="#7f7fff"/>
            <polyline fill="none" stroke="#7f7fff"
                      points="732.476,459.645 732.127,464.501 731.785,469.356 731.451,474.212 731.123,479.068 730.803,483.923 730.49,488.779 730.184,493.635 729.885,498.49 729.593,503.346 729.309,508.202 729.031,513.057 728.761,517.913 728.498,522.769 728.242,527.624 727.993,532.48 727.751,537.336 727.516,542.191 727.289,547.047 727.068,551.903 726.855,556.758 726.649,561.614 726.45,566.469 726.258,571.325 726.073,576.181 725.896,581.036 725.725,585.892 725.562,590.748 725.405,595.603 725.256,600.459 725.114,605.315 724.979,610.17 724.851,615.026 724.73,619.882 724.617,624.737 724.51,629.593 724.411,634.449 724.318,639.304 724.233,644.16 724.155,649.016 724.084,653.871 724.02,658.727 723.963,663.583 723.914,668.438 723.871,673.294 723.835,678.15 723.807,683.005 723.786,687.861 723.771,692.717 723.764,697.572 723.764,702.428 723.771,707.283 723.786,712.139 723.807,716.995 723.835,721.85 723.871,726.706 723.914,731.562 723.963,736.417 724.02,741.273 724.084,746.129 724.155,750.984 724.233,755.84 724.318,760.696 724.411,765.551 724.51,770.407 724.617,775.263 724.73,780.118 724.851,784.974 724.979,789.83 725.114,794.685 725.256,799.541 725.405,804.397 725.562,809.252 725.725,814.108 725.896,818.964 726.073,823.819 726.258,828.675 726.45,833.531 726.649,838.386 726.855,843.242 727.068,848.097 727.289,852.953 727.516,857.809 727.751,862.664 727.993,867.52 728.242,872.376 728.498,877.231 728.761,882.087 729.031,886.943 729.309,891.798 729.593,896.654 729.885,901.51 730.184,906.365 730.49,911.221 730.803,916.077 731.123,920.932 731.451,925.788 731.785,930.644 732.127,935.499 732.476,940.355 "/>
        </g>
        <g>
            <polyline fill="none" stroke="#7f7fff"
                      points="802.555,482.986 799.062,487.37 795.684,491.754 792.416,496.138 789.255,500.523 786.196,504.907 783.236,509.291 780.373,513.675 777.604,518.059 774.926,522.443 772.336,526.827 769.832,531.211 767.412,535.596 765.075,539.98 762.818,544.364 760.639,548.748 758.537,553.132 756.51,557.516 754.557,561.9 752.677,566.284 750.868,570.668 749.129,575.053 747.458,579.437 745.856,583.821 744.32,588.205 742.85,592.589 741.445,596.973 740.104,601.357 738.827,605.741 737.612,610.126 736.459,614.51 735.368,618.894 734.337,623.278 733.366,627.662 732.455,632.046 731.603,636.43 730.81,640.814 730.075,645.199 729.399,649.583 728.779,653.967 728.217,658.351 727.712,662.735 727.264,667.119 726.872,671.503 726.537,675.887 726.257,680.271 726.034,684.656 725.867,689.04 725.755,693.424 725.699,697.808 725.699,702.192 725.755,706.576 725.867,710.96 726.034,715.344 726.257,719.729 726.537,724.113 726.872,728.497 727.264,732.881 727.712,737.265 728.217,741.649 728.779,746.033 729.399,750.417 730.075,754.801 730.81,759.186 731.603,763.57 732.455,767.954 733.366,772.338 734.337,776.722 735.368,781.106 736.459,785.49 737.612,789.874 738.827,794.259 740.104,798.643 741.445,803.027 742.85,807.411 744.32,811.795 745.856,816.179 747.458,820.563 749.129,824.947 750.868,829.332 752.677,833.716 754.557,838.1 756.51,842.484 758.537,846.868 760.639,851.252 762.818,855.636 765.075,860.02 767.412,864.404 769.832,868.789 772.336,873.173 774.926,877.557 777.604,881.941 780.373,886.325 783.236,890.709 786.196,895.093 789.255,899.477 792.416,903.862 795.684,908.246 799.062,912.63 802.555,917.014 "/>
            <line x1="824.181" y1="482.986" x2="824.181" y2="495.589" stroke="#7f7fff"/>
            <line x1="802.555" y1="482.986" x2="824.181" y2="482.986" stroke="#7f7fff"/>
            <line x1="824.181" y1="917.014" x2="824.181" y2="904.411" stroke="#7f7fff"/>
            <line x1="802.555" y1="917.014" x2="824.181" y2="917.014" stroke="#7f7fff"/>
            <polyline fill="none" stroke="#7f7fff"
                      points="824.181,495.589 822.288,499.719 820.442,503.848 818.641,507.978 816.886,512.107 815.175,516.237 813.509,520.366 811.887,524.496 810.308,528.625 808.771,532.755 807.278,536.884 805.826,541.014 804.416,545.143 803.047,549.273 801.719,553.402 800.431,557.532 799.184,561.661 797.977,565.791 796.809,569.92 795.68,574.05 794.591,578.179 793.54,582.309 792.527,586.438 791.553,590.568 790.617,594.697 789.718,598.827 788.857,602.956 788.034,607.086 787.247,611.215 786.498,615.345 785.785,619.474 785.109,623.604 784.469,627.733 783.866,631.863 783.299,635.993 782.768,640.122 782.273,644.252 781.813,648.381 781.39,652.511 781.002,656.64 780.649,660.77 780.332,664.899 780.051,669.029 779.804,673.158 779.593,677.288 779.418,681.417 779.277,685.547 779.172,689.676 779.101,693.806 779.066,697.935 779.066,702.065 779.101,706.194 779.172,710.324 779.277,714.453 779.418,718.583 779.593,722.712 779.804,726.842 780.051,730.971 780.332,735.101 780.649,739.23 781.002,743.36 781.39,747.489 781.813,751.619 782.273,755.748 782.768,759.878 783.299,764.007 783.866,768.137 784.469,772.267 785.109,776.396 785.785,780.526 786.498,784.655 787.247,788.785 788.034,792.914 788.857,797.044 789.718,801.173 790.617,805.303 791.553,809.432 792.527,813.562 793.54,817.691 794.591,821.821 795.68,825.95 796.809,830.08 797.977,834.209 799.184,838.339 800.431,842.468 801.719,846.598 803.047,850.727 804.416,854.857 805.826,858.986 807.278,863.116 808.771,867.245 810.308,871.375 811.887,875.504 813.509,879.634 815.175,883.763 816.886,887.893 818.641,892.022 820.442,896.152 822.288,900.281 824.181,904.411 "/>
        </g>
        <g>
            <polyline fill="none" stroke="#7f7fff"
                      points="826.393,487.23 825.258,491.528 824.148,495.827 823.062,500.125 822.001,504.423 820.964,508.722 819.951,513.02 818.963,517.319 817.999,521.617 817.059,525.915 816.143,530.214 815.251,534.512 814.383,538.811 813.538,543.109 812.717,547.407 811.92,551.706 811.146,556.004 810.396,560.302 809.669,564.601 808.965,568.899 808.285,573.198 807.628,577.496 806.994,581.794 806.383,586.093 805.795,590.391 805.23,594.69 804.689,598.988 804.17,603.286 803.674,607.585 803.2,611.883 802.75,616.181 802.322,620.48 801.917,624.778 801.535,629.077 801.176,633.375 800.839,637.673 800.524,641.972 800.232,646.27 799.963,650.569 799.716,654.867 799.492,659.165 799.29,663.464 799.111,667.762 798.954,672.06 798.819,676.359 798.707,680.657 798.618,684.956 798.551,689.254 798.506,693.552 798.483,697.851 798.483,702.149 798.506,706.448 798.551,710.746 798.618,715.044 798.707,719.343 798.819,723.641 798.954,727.94 799.111,732.238 799.29,736.536 799.492,740.835 799.716,745.133 799.963,749.431 800.232,753.73 800.524,758.028 800.839,762.327 801.176,766.625 801.535,770.923 801.917,775.222 802.322,779.52 802.75,783.819 803.2,788.117 803.674,792.415 804.17,796.714 804.689,801.012 805.23,805.31 805.795,809.609 806.383,813.907 806.994,818.206 807.628,822.504 808.285,826.802 808.965,831.101 809.669,835.399 810.396,839.698 811.146,843.996 811.92,848.294 812.717,852.593 813.538,856.891 814.383,861.189 815.251,865.488 816.143,869.786 817.059,874.085 817.999,878.383 818.963,882.681 819.951,886.98 820.964,891.278 822.001,895.577 823.062,899.875 824.148,904.173 825.258,908.472 826.393,912.77 "/>
            <line x1="888.478" y1="487.23" x2="888.478" y2="523.817" stroke="#7f7fff"/>
            <line x1="826.393" y1="487.23" x2="888.478" y2="487.23" stroke="#7f7fff"/>
            <line x1="888.478" y1="912.77" x2="888.478" y2="876.183" stroke="#7f7fff"/>
            <line x1="826.393" y1="912.77" x2="888.478" y2="912.77" stroke="#7f7fff"/>
            <polyline fill="none" stroke="#7f7fff"
                      points="888.478,523.817 884.927,527.376 881.515,530.935 878.236,534.495 875.083,538.054 872.049,541.613 869.129,545.172 866.318,548.732 863.61,552.291 861.002,555.85 858.49,559.409 856.07,562.969 853.74,566.528 851.496,570.087 849.335,573.646 847.255,577.206 845.253,580.765 843.328,584.324 841.478,587.883 839.7,591.443 837.993,595.002 836.355,598.561 834.785,602.12 833.281,605.68 831.842,609.239 830.467,612.798 829.154,616.358 827.903,619.917 826.713,623.476 825.583,627.035 824.511,630.595 823.497,634.154 822.541,637.713 821.641,641.272 820.798,644.832 820.01,648.391 819.276,651.95 818.597,655.509 817.972,659.069 817.4,662.628 816.882,666.187 816.416,669.746 816.003,673.306 815.642,676.865 815.333,680.424 815.076,683.983 814.87,687.543 814.716,691.102 814.613,694.661 814.562,698.22 814.562,701.78 814.613,705.339 814.716,708.898 814.87,712.457 815.076,716.017 815.333,719.576 815.642,723.135 816.003,726.694 816.416,730.254 816.882,733.813 817.4,737.372 817.972,740.931 818.597,744.491 819.276,748.05 820.01,751.609 820.798,755.168 821.641,758.728 822.541,762.287 823.497,765.846 824.511,769.405 825.583,772.965 826.713,776.524 827.903,780.083 829.154,783.642 830.467,787.202 831.842,790.761 833.281,794.32 834.785,797.88 836.355,801.439 837.993,804.998 839.7,808.557 841.478,812.117 843.328,815.676 845.253,819.235 847.255,822.794 849.335,826.354 851.496,829.913 853.74,833.472 856.07,837.031 858.49,840.591 861.002,844.15 863.61,847.709 866.318,851.268 869.129,854.828 872.049,858.387 875.083,861.946 878.236,865.505 881.515,869.065 884.927,872.624 888.478,876.183 "/>
        </g>
        <g>
            <polyline fill="none" stroke="#7f7fff"
                      points="955.157,529.09 958.538,532.542 961.788,535.995 964.914,539.448 967.921,542.9 970.816,546.353 973.605,549.806 976.29,553.259 978.878,556.711 981.371,560.164 983.773,563.617 986.088,567.07 988.319,570.522 990.467,573.975 992.536,577.428 994.528,580.881 996.445,584.333 998.29,587.786 1000.064,591.239 1001.768,594.692 1003.405,598.144 1004.975,601.597 1006.481,605.05 1007.924,608.502 1009.304,611.955 1010.624,615.408 1011.883,618.861 1013.084,622.313 1014.226,625.766 1015.311,629.219 1016.34,632.672 1017.313,636.124 1018.232,639.577 1019.096,643.03 1019.906,646.483 1020.663,649.935 1021.367,653.388 1022.02,656.841 1022.62,660.294 1023.169,663.746 1023.667,667.199 1024.115,670.652 1024.512,674.104 1024.858,677.557 1025.155,681.01 1025.402,684.463 1025.6,687.915 1025.748,691.368 1025.847,694.821 1025.896,698.274 1025.896,701.726 1025.847,705.179 1025.748,708.632 1025.6,712.085 1025.402,715.537 1025.155,718.99 1024.858,722.443 1024.512,725.896 1024.115,729.348 1023.667,732.801 1023.169,736.254 1022.62,739.706 1022.02,743.159 1021.367,746.612 1020.663,750.065 1019.906,753.517 1019.096,756.97 1018.232,760.423 1017.313,763.876 1016.34,767.328 1015.311,770.781 1014.226,774.234 1013.084,777.687 1011.883,781.139 1010.624,784.592 1009.304,788.045 1007.924,791.498 1006.481,794.95 1004.975,798.403 1003.405,801.856 1001.768,805.308 1000.064,808.761 998.29,812.214 996.445,815.667 994.528,819.119 992.536,822.572 990.467,826.025 988.319,829.478 986.088,832.93 983.773,836.383 981.371,839.836 978.878,843.289 976.29,846.741 973.605,850.194 970.816,853.647 967.921,857.1 964.914,860.552 961.788,864.005 958.538,867.458 955.157,870.91 "/>
            <line x1="955.157" y1="493.274" x2="955.157" y2="529.09" stroke="#7f7fff"/>
            <line x1="955.157" y1="493.274" x2="1056.647" y2="493.274" stroke="#7f7fff"/>
            <line x1="955.157" y1="906.726" x2="955.157" y2="870.91" stroke="#7f7fff"/>
            <line x1="955.157" y1="906.726" x2="1056.647" y2="906.726" stroke="#7f7fff"/>
            <polyline fill="none" stroke="#7f7fff"
                      points="1056.647,493.274 1056.214,497.45 1055.789,501.627 1055.373,505.803 1054.966,509.979 1054.569,514.156 1054.18,518.332 1053.8,522.508 1053.429,526.684 1053.066,530.861 1052.713,535.037 1052.369,539.213 1052.033,543.39 1051.707,547.566 1051.389,551.742 1051.08,555.918 1050.78,560.095 1050.489,564.271 1050.206,568.447 1049.933,572.623 1049.669,576.8 1049.413,580.976 1049.166,585.152 1048.928,589.329 1048.699,593.505 1048.478,597.681 1048.267,601.857 1048.064,606.034 1047.87,610.21 1047.685,614.386 1047.509,618.563 1047.342,622.739 1047.183,626.915 1047.034,631.091 1046.893,635.268 1046.761,639.444 1046.637,643.62 1046.523,647.797 1046.417,651.973 1046.32,656.149 1046.232,660.325 1046.153,664.502 1046.083,668.678 1046.021,672.854 1045.968,677.03 1045.924,681.207 1045.889,685.383 1045.863,689.559 1045.845,693.736 1045.836,697.912 1045.836,702.088 1045.845,706.264 1045.863,710.441 1045.889,714.617 1045.924,718.793 1045.968,722.97 1046.021,727.146 1046.083,731.322 1046.153,735.498 1046.232,739.675 1046.32,743.851 1046.417,748.027 1046.523,752.203 1046.637,756.38 1046.761,760.556 1046.893,764.732 1047.034,768.909 1047.183,773.085 1047.342,777.261 1047.509,781.437 1047.685,785.614 1047.87,789.79 1048.064,793.966 1048.267,798.143 1048.478,802.319 1048.699,806.495 1048.928,810.671 1049.166,814.848 1049.413,819.024 1049.669,823.2 1049.933,827.377 1050.206,831.553 1050.489,835.729 1050.78,839.905 1051.08,844.082 1051.389,848.258 1051.707,852.434 1052.033,856.61 1052.369,860.787 1052.713,864.963 1053.066,869.139 1053.429,873.316 1053.8,877.492 1054.18,881.668 1054.569,885.844 1054.966,890.021 1055.373,894.197 1055.789,898.373 1056.214,902.55 1056.647,906.726 "/>
            <line x1="1056.647" y1="493.274" x2="1056.776" y2="493.274" stroke="#7f7fff"/>
            <line x1="1056.647" y1="906.726" x2="1056.776" y2="906.726" stroke="#7f7fff"/>
            <polyline fill="none" stroke="#7f7fff"
                      points="1056.776,493.274 1056.342,497.45 1055.918,501.627 1055.502,505.803 1055.095,509.979 1054.697,514.156 1054.308,518.332 1053.928,522.508 1053.557,526.684 1053.195,530.861 1052.842,535.037 1052.497,539.213 1052.162,543.39 1051.835,547.566 1051.517,551.742 1051.209,555.918 1050.909,560.095 1050.617,564.271 1050.335,568.447 1050.062,572.623 1049.797,576.8 1049.541,580.976 1049.295,585.152 1049.057,589.329 1048.827,593.505 1048.607,597.681 1048.396,601.857 1048.193,606.034 1047.999,610.21 1047.814,614.386 1047.638,618.563 1047.471,622.739 1047.312,626.915 1047.162,631.091 1047.021,635.268 1046.889,639.444 1046.766,643.62 1046.652,647.797 1046.546,651.973 1046.449,656.149 1046.361,660.325 1046.282,664.502 1046.211,668.678 1046.15,672.854 1046.097,677.03 1046.053,681.207 1046.018,685.383 1045.991,689.559 1045.974,693.736 1045.965,697.912 1045.965,702.088 1045.974,706.264 1045.991,710.441 1046.018,714.617 1046.053,718.793 1046.097,722.97 1046.15,727.146 1046.211,731.322 1046.282,735.498 1046.361,739.675 1046.449,743.851 1046.546,748.027 1046.652,752.203 1046.766,756.38 1046.889,760.556 1047.021,764.732 1047.162,768.909 1047.312,773.085 1047.471,777.261 1047.638,781.437 1047.814,785.614 1047.999,789.79 1048.193,793.966 1048.396,798.143 1048.607,802.319 1048.827,806.495 1049.057,810.671 1049.295,814.848 1049.541,819.024 1049.797,823.2 1050.062,827.377 1050.335,831.553 1050.617,835.729 1050.909,839.905 1051.209,844.082 1051.517,848.258 1051.835,852.434 1052.162,856.61 1052.497,860.787 1052.842,864.963 1053.195,869.139 1053.557,873.316 1053.928,877.492 1054.308,881.668 1054.697,885.844 1055.095,890.021 1055.502,894.197 1055.918,898.373 1056.342,902.55 1056.776,906.726 "/>
            <line x1="1056.776" y1="487.294" x2="1056.776" y2="493.274" stroke="#7f7fff"/>
            <line x1="1056.776" y1="487.294" x2="1066.725" y2="487.294" stroke="#7f7fff"/>
            <line x1="1056.776" y1="912.706" x2="1056.776" y2="906.726" stroke="#7f7fff"/>
            <line x1="1056.776" y1="912.706" x2="1066.725" y2="912.706" stroke="#7f7fff"/>
            <polyline fill="none" stroke="#7f7fff"
                      points="1066.725,487.294 1068.775,491.591 1070.774,495.888 1072.723,500.185 1074.622,504.483 1076.472,508.78 1078.273,513.077 1080.027,517.374 1081.733,521.671 1083.393,525.968 1085.006,530.265 1086.574,534.562 1088.096,538.859 1089.573,543.156 1091.006,547.453 1092.395,551.751 1093.741,556.048 1095.043,560.345 1096.302,564.642 1097.518,568.939 1098.693,573.236 1099.825,577.533 1100.916,581.83 1101.965,586.127 1102.974,590.424 1103.941,594.721 1104.868,599.018 1105.755,603.316 1106.602,607.613 1107.409,611.91 1108.176,616.207 1108.903,620.504 1109.592,624.801 1110.241,629.098 1110.851,633.395 1111.423,637.692 1111.955,641.989 1112.449,646.286 1112.905,650.584 1113.322,654.881 1113.701,659.178 1114.042,663.475 1114.345,667.772 1114.61,672.069 1114.837,676.366 1115.026,680.663 1115.177,684.96 1115.29,689.257 1115.366,693.554 1115.404,697.851 1115.404,702.149 1115.366,706.446 1115.29,710.743 1115.177,715.04 1115.026,719.337 1114.837,723.634 1114.61,727.931 1114.345,732.228 1114.042,736.525 1113.701,740.822 1113.322,745.119 1112.905,749.416 1112.449,753.714 1111.955,758.011 1111.423,762.308 1110.851,766.605 1110.241,770.902 1109.592,775.199 1108.903,779.496 1108.176,783.793 1107.409,788.09 1106.602,792.387 1105.755,796.684 1104.868,800.982 1103.941,805.279 1102.974,809.576 1101.965,813.873 1100.916,818.17 1099.825,822.467 1098.693,826.764 1097.518,831.061 1096.302,835.358 1095.043,839.655 1093.741,843.952 1092.395,848.249 1091.006,852.547 1089.573,856.844 1088.096,861.141 1086.574,865.438 1085.006,869.735 1083.393,874.032 1081.733,878.329 1080.027,882.626 1078.273,886.923 1076.472,891.22 1074.622,895.517 1072.723,899.815 1070.774,904.112 1068.775,908.409 1066.725,912.706 "/>
        </g>
        <g>
            <polyline fill="none" stroke="#7f7fff"
                      points="1084.292,492.824 1085.962,497.009 1087.593,501.195 1089.185,505.38 1090.738,509.566 1092.253,513.751 1093.73,517.936 1095.17,522.122 1096.572,526.307 1097.937,530.492 1099.266,534.678 1100.558,538.863 1101.814,543.049 1103.034,547.234 1104.218,551.419 1105.367,555.605 1106.481,559.79 1107.56,563.975 1108.604,568.161 1109.613,572.346 1110.589,576.532 1111.53,580.717 1112.436,584.902 1113.31,589.088 1114.149,593.273 1114.955,597.458 1115.728,601.644 1116.467,605.829 1117.173,610.014 1117.847,614.2 1118.487,618.385 1119.095,622.571 1119.67,626.756 1120.213,630.941 1120.723,635.127 1121.201,639.312 1121.647,643.497 1122.06,647.683 1122.442,651.868 1122.791,656.054 1123.109,660.239 1123.394,664.424 1123.648,668.61 1123.87,672.795 1124.06,676.98 1124.218,681.166 1124.345,685.351 1124.44,689.537 1124.503,693.722 1124.535,697.907 1124.535,702.093 1124.503,706.278 1124.44,710.463 1124.345,714.649 1124.218,718.834 1124.06,723.02 1123.87,727.205 1123.648,731.39 1123.394,735.576 1123.109,739.761 1122.791,743.946 1122.442,748.132 1122.06,752.317 1121.647,756.503 1121.201,760.688 1120.723,764.873 1120.213,769.059 1119.67,773.244 1119.095,777.429 1118.487,781.615 1117.847,785.8 1117.173,789.986 1116.467,794.171 1115.728,798.356 1114.955,802.542 1114.149,806.727 1113.31,810.912 1112.436,815.098 1111.53,819.283 1110.589,823.468 1109.613,827.654 1108.604,831.839 1107.56,836.025 1106.481,840.21 1105.367,844.395 1104.218,848.581 1103.034,852.766 1101.814,856.951 1100.558,861.137 1099.266,865.322 1097.937,869.508 1096.572,873.693 1095.17,877.878 1093.73,882.064 1092.253,886.249 1090.738,890.434 1089.185,894.62 1087.593,898.805 1085.962,902.991 1084.292,907.176 "/>
            <line x1="1084.292" y1="488.837" x2="1084.292" y2="492.824" stroke="#7f7fff"/>
            <line x1="1084.292" y1="488.837" x2="1101.033" y2="488.837" stroke="#7f7fff"/>
            <line x1="1084.292" y1="911.163" x2="1084.292" y2="907.176" stroke="#7f7fff"/>
            <line x1="1084.292" y1="911.163" x2="1101.033" y2="911.163" stroke="#7f7fff"/>
            <polyline fill="none" stroke="#7f7fff"
                      points="1101.033,488.837 1104.101,493.103 1107.076,497.369 1109.959,501.635 1112.755,505.901 1115.464,510.167 1118.091,514.433 1120.636,518.699 1123.102,522.965 1125.49,527.231 1127.803,531.497 1130.042,535.762 1132.208,540.028 1134.304,544.294 1136.329,548.56 1138.287,552.826 1140.177,557.092 1142.001,561.358 1143.761,565.624 1145.456,569.89 1147.089,574.156 1148.66,578.422 1150.17,582.687 1151.619,586.953 1153.009,591.219 1154.34,595.485 1155.613,599.751 1156.829,604.017 1157.988,608.283 1159.09,612.549 1160.137,616.815 1161.129,621.081 1162.065,625.347 1162.948,629.612 1163.776,633.878 1164.551,638.144 1165.273,642.41 1165.942,646.676 1166.558,650.942 1167.122,655.208 1167.634,659.474 1168.094,663.74 1168.503,668.006 1168.86,672.272 1169.165,676.537 1169.42,680.803 1169.624,685.069 1169.776,689.335 1169.878,693.601 1169.929,697.867 1169.929,702.133 1169.878,706.399 1169.776,710.665 1169.624,714.931 1169.42,719.197 1169.165,723.463 1168.86,727.728 1168.503,731.994 1168.094,736.26 1167.634,740.526 1167.122,744.792 1166.558,749.058 1165.942,753.324 1165.273,757.59 1164.551,761.856 1163.776,766.122 1162.948,770.388 1162.065,774.653 1161.129,778.919 1160.137,783.185 1159.09,787.451 1157.988,791.717 1156.829,795.983 1155.613,800.249 1154.34,804.515 1153.009,808.781 1151.619,813.047 1150.17,817.313 1148.66,821.578 1147.089,825.844 1145.456,830.11 1143.761,834.376 1142.001,838.642 1140.177,842.908 1138.287,847.174 1136.329,851.44 1134.304,855.706 1132.208,859.972 1130.042,864.238 1127.803,868.503 1125.49,872.769 1123.102,877.035 1120.636,881.301 1118.091,885.567 1115.464,889.833 1112.755,894.099 1109.959,898.365 1107.076,902.631 1104.101,906.897 1101.033,911.163 "/>
        </g>
        <g>
            <polyline fill="none" stroke="#7f7fff"
                      points="1161.246,493.274 1161.688,497.45 1162.12,501.627 1162.543,505.803 1162.957,509.979 1163.362,514.156 1163.758,518.332 1164.144,522.508 1164.522,526.684 1164.891,530.861 1165.25,535.037 1165.601,539.213 1165.942,543.39 1166.275,547.566 1166.598,551.742 1166.913,555.918 1167.218,560.095 1167.514,564.271 1167.801,568.447 1168.08,572.623 1168.349,576.8 1168.609,580.976 1168.86,585.152 1169.103,589.329 1169.336,593.505 1169.56,597.681 1169.775,601.857 1169.982,606.034 1170.179,610.21 1170.367,614.386 1170.546,618.563 1170.717,622.739 1170.878,626.915 1171.03,631.091 1171.174,635.268 1171.308,639.444 1171.434,643.62 1171.55,647.797 1171.658,651.973 1171.756,656.149 1171.846,660.325 1171.926,664.502 1171.998,668.678 1172.061,672.854 1172.114,677.03 1172.159,681.207 1172.195,685.383 1172.222,689.559 1172.24,693.736 1172.249,697.912 1172.249,702.088 1172.24,706.264 1172.222,710.441 1172.195,714.617 1172.159,718.793 1172.114,722.97 1172.061,727.146 1171.998,731.322 1171.926,735.498 1171.846,739.675 1171.756,743.851 1171.658,748.027 1171.55,752.203 1171.434,756.38 1171.308,760.556 1171.174,764.732 1171.03,768.909 1170.878,773.085 1170.717,777.261 1170.546,781.437 1170.367,785.614 1170.179,789.79 1169.982,793.966 1169.775,798.143 1169.56,802.319 1169.336,806.495 1169.103,810.671 1168.86,814.848 1168.609,819.024 1168.349,823.2 1168.08,827.377 1167.801,831.553 1167.514,835.729 1167.218,839.905 1166.913,844.082 1166.598,848.258 1166.275,852.434 1165.942,856.61 1165.601,860.787 1165.25,864.963 1164.891,869.139 1164.522,873.316 1164.144,877.492 1163.758,881.668 1163.362,885.844 1162.957,890.021 1162.543,894.197 1162.12,898.373 1161.688,902.55 1161.246,906.726 "/>
            <line x1="1161.246" y1="493.274" x2="1171.601" y2="493.274" stroke="#7f7fff"/>
            <line x1="1161.246" y1="906.726" x2="1171.601" y2="906.726" stroke="#7f7fff"/>
            <polyline fill="none" stroke="#7f7fff"
                      points="1171.601,493.274 1172.814,497.45 1173.999,501.627 1175.158,505.803 1176.291,509.979 1177.397,514.156 1178.477,518.332 1179.531,522.508 1180.559,526.684 1181.56,530.861 1182.537,535.037 1183.487,539.213 1184.412,543.39 1185.311,547.566 1186.185,551.742 1187.034,555.918 1187.857,560.095 1188.655,564.271 1189.429,568.447 1190.177,572.623 1190.901,576.8 1191.599,580.976 1192.273,585.152 1192.922,589.329 1193.547,593.505 1194.147,597.681 1194.723,601.857 1195.274,606.034 1195.801,610.21 1196.304,614.386 1196.782,618.563 1197.236,622.739 1197.666,626.915 1198.072,631.091 1198.454,635.268 1198.811,639.444 1199.145,643.62 1199.455,647.797 1199.741,651.973 1200.003,656.149 1200.241,660.325 1200.455,664.502 1200.645,668.678 1200.812,672.854 1200.954,677.03 1201.073,681.207 1201.168,685.383 1201.239,689.559 1201.287,693.736 1201.311,697.912 1201.311,702.088 1201.287,706.264 1201.239,710.441 1201.168,714.617 1201.073,718.793 1200.954,722.97 1200.812,727.146 1200.645,731.322 1200.455,735.498 1200.241,739.675 1200.003,743.851 1199.741,748.027 1199.455,752.203 1199.145,756.38 1198.811,760.556 1198.454,764.732 1198.072,768.909 1197.666,773.085 1197.236,777.261 1196.782,781.437 1196.304,785.614 1195.801,789.79 1195.274,793.966 1194.723,798.143 1194.147,802.319 1193.547,806.495 1192.922,810.671 1192.273,814.848 1191.599,819.024 1190.901,823.2 1190.177,827.377 1189.429,831.553 1188.655,835.729 1187.857,839.905 1187.034,844.082 1186.185,848.258 1185.311,852.434 1184.412,856.61 1183.487,860.787 1182.537,864.963 1181.56,869.139 1180.559,873.316 1179.531,877.492 1178.477,881.668 1177.397,885.844 1176.291,890.021 1175.158,894.197 1173.999,898.373 1172.814,902.55 1171.601,906.726 "/>
        </g>
        <g>
            <polyline fill="none" stroke="#7f7fff"
                      points="1218.501,497.84 1217.861,501.924 1217.234,506.008 1216.621,510.092 1216.022,514.176 1215.435,518.26 1214.862,522.344 1214.302,526.428 1213.756,530.512 1213.222,534.596 1212.702,538.68 1212.195,542.764 1211.701,546.848 1211.221,550.932 1210.754,555.016 1210.299,559.1 1209.858,563.184 1209.43,567.268 1209.015,571.352 1208.613,575.436 1208.225,579.521 1207.849,583.605 1207.486,587.689 1207.137,591.773 1206.8,595.857 1206.477,599.941 1206.166,604.025 1205.869,608.109 1205.584,612.193 1205.313,616.277 1205.054,620.361 1204.809,624.445 1204.576,628.529 1204.357,632.613 1204.15,636.697 1203.956,640.781 1203.776,644.865 1203.608,648.949 1203.453,653.033 1203.311,657.117 1203.182,661.202 1203.066,665.286 1202.963,669.37 1202.872,673.454 1202.795,677.538 1202.73,681.622 1202.679,685.706 1202.64,689.79 1202.614,693.874 1202.601,697.958 1202.601,702.042 1202.614,706.126 1202.64,710.21 1202.679,714.294 1202.73,718.378 1202.795,722.462 1202.872,726.546 1202.963,730.63 1203.066,734.714 1203.182,738.798 1203.311,742.883 1203.453,746.967 1203.608,751.051 1203.776,755.135 1203.956,759.219 1204.15,763.303 1204.357,767.387 1204.576,771.471 1204.809,775.555 1205.054,779.639 1205.313,783.723 1205.584,787.807 1205.869,791.891 1206.166,795.975 1206.477,800.059 1206.8,804.143 1207.137,808.227 1207.486,812.311 1207.849,816.395 1208.225,820.479 1208.613,824.564 1209.015,828.648 1209.43,832.732 1209.858,836.816 1210.299,840.9 1210.754,844.984 1211.221,849.068 1211.701,853.152 1212.195,857.236 1212.702,861.32 1213.222,865.404 1213.756,869.488 1214.302,873.572 1214.862,877.656 1215.435,881.74 1216.022,885.824 1216.621,889.908 1217.234,893.992 1217.861,898.076 1218.501,902.16 "/>
            <line x1="1218.501" y1="497.84" x2="1228.59" y2="497.84" stroke="#7f7fff"/>
            <line x1="1218.501" y1="902.16" x2="1228.59" y2="902.16" stroke="#7f7fff"/>
            <polyline fill="none" stroke="#7f7fff"
                      points="1228.59,497.84 1228.749,501.924 1228.904,506.008 1229.057,510.092 1229.206,514.176 1229.352,518.26 1229.495,522.344 1229.634,526.428 1229.771,530.512 1229.904,534.596 1230.033,538.68 1230.16,542.764 1230.283,546.848 1230.403,550.932 1230.52,555.016 1230.634,559.1 1230.744,563.184 1230.851,567.268 1230.955,571.352 1231.055,575.436 1231.153,579.521 1231.247,583.605 1231.337,587.689 1231.425,591.773 1231.509,595.857 1231.59,599.941 1231.668,604.025 1231.743,608.109 1231.814,612.193 1231.882,616.277 1231.947,620.361 1232.009,624.445 1232.067,628.529 1232.122,632.613 1232.174,636.697 1232.223,640.781 1232.268,644.865 1232.31,648.949 1232.349,653.033 1232.385,657.117 1232.417,661.202 1232.447,665.286 1232.472,669.37 1232.495,673.454 1232.515,677.538 1232.531,681.622 1232.544,685.706 1232.554,689.79 1232.56,693.874 1232.563,697.958 1232.563,702.042 1232.56,706.126 1232.554,710.21 1232.544,714.294 1232.531,718.378 1232.515,722.462 1232.495,726.546 1232.472,730.63 1232.447,734.714 1232.417,738.798 1232.385,742.883 1232.349,746.967 1232.31,751.051 1232.268,755.135 1232.223,759.219 1232.174,763.303 1232.122,767.387 1232.067,771.471 1232.009,775.555 1231.947,779.639 1231.882,783.723 1231.814,787.807 1231.743,791.891 1231.668,795.975 1231.59,800.059 1231.509,804.143 1231.425,808.227 1231.337,812.311 1231.247,816.395 1231.153,820.479 1231.055,824.564 1230.955,828.648 1230.851,832.732 1230.744,836.816 1230.634,840.9 1230.52,844.984 1230.403,849.068 1230.283,853.152 1230.16,857.236 1230.033,861.32 1229.904,865.404 1229.771,869.488 1229.634,873.572 1229.495,877.656 1229.352,881.74 1229.206,885.824 1229.057,889.908 1228.904,893.992 1228.749,898.076 1228.59,902.16 "/>
        </g>
    </g>
    <g>
        <title>element</title>
        <polyline fill="none" stroke="#7f7fff"
                  points="1734.364,144.444 1734.364,155.668 1734.364,166.891 1734.364,178.114 1734.364,189.338 1734.364,200.561 1734.364,211.785 1734.364,223.008 1734.364,234.231 1734.364,245.455 1734.364,256.678 1734.364,267.901 1734.364,279.125 1734.364,290.348 1734.364,301.571 1734.364,312.795 1734.364,324.018 1734.364,335.241 1734.364,346.465 1734.364,357.688 1734.364,368.911 1734.364,380.135 1734.364,391.358 1734.364,402.581 1734.364,413.805 1734.364,425.028 1734.364,436.251 1734.364,447.475 1734.364,458.698 1734.364,469.921 1734.364,481.145 1734.364,492.368 1734.364,503.591 1734.364,514.815 1734.364,526.038 1734.364,537.262 1734.364,548.485 1734.364,559.708 1734.364,570.932 1734.364,582.155 1734.364,593.378 1734.364,604.602 1734.364,615.825 1734.364,627.048 1734.364,638.272 1734.364,649.495 1734.364,660.718 1734.364,671.942 1734.364,683.165 1734.364,694.388 1734.364,705.612 1734.364,716.835 1734.364,728.058 1734.364,739.282 1734.364,750.505 1734.364,761.728 1734.364,772.952 1734.364,784.175 1734.364,795.398 1734.364,806.622 1734.364,817.845 1734.364,829.068 1734.364,840.292 1734.364,851.515 1734.364,862.738 1734.364,873.962 1734.364,885.185 1734.364,896.409 1734.364,907.632 1734.364,918.855 1734.364,930.079 1734.364,941.302 1734.364,952.525 1734.364,963.749 1734.364,974.972 1734.364,986.195 1734.364,997.419 1734.364,1008.642 1734.364,1019.865 1734.364,1031.089 1734.364,1042.312 1734.364,1053.535 1734.364,1064.759 1734.364,1075.982 1734.364,1087.205 1734.364,1098.429 1734.364,1109.652 1734.364,1120.875 1734.364,1132.099 1734.364,1143.322 1734.364,1154.545 1734.364,1165.769 1734.364,1176.992 1734.364,1188.215 1734.364,1199.439 1734.364,1210.662 1734.364,1221.886 1734.364,1233.109 1734.364,1244.332 1734.364,1255.556 "/>
    </g>
</svg>
