<?xml version="1.0" standalone="no"?>
<svg width="2400px" height="1400px" version="1.1" xmlns="http://www.w3.org/2000/svg"
>
    <rect x="0" y="0" width="2400" height="1400" fill="#ffffff"/>
    <defs>
        <g id="dot">
            <line x1="1" y1="1" x2="0" y2="0"/>
        </g>
        <g id="cross">
            <line x1="-3" y1="0" x2="3" y2="0"/>
            <line x1="0" y1="-3" x2="0" y2="3"/>
        </g>
        <g id="square">
            <line x1="-3" y1="-3" x2="-3" y2="3"/>
            <line x1="-3" y1="3" x2="3" y2="3"/>
            <line x1="3" y1="3" x2="3" y2="-3"/>
            <line x1="3" y1="-3" x2="-3" y2="-3"/>
        </g>
        <g id="round">
            <ellipse cx="0" cy="0" rx="3" ry="3" fill="none"/>
        </g>
        <g id="triangle">
            <line x1="0" y1="-3" x2="-3" y2="3"/>
            <line x1="-3" y1="3" x2="3" y2="3"/>
            <line x1="0" y1="-3" x2="3" y2="3"/>
        </g>
    </defs>
    <line x1="563.484" y1="700" x2="1836.516" y2="700" stroke="#7f7f7f"/>
    <g>
        <title>element</title>
        <g>
            <line x1="1103.349" y1="554.724" x2="1103.349" y2="409.447" stroke="#7f7fff"/>
            <line x1="1103.349" y1="845.276" x2="1103.349" y2="990.553" stroke="#7f7fff"/>
        </g>
        <g>
            <line x1="1235.453" y1="560.215" x2="1235.453" y2="420.43" stroke="#7f7fff"/>
            <line x1="1235.453" y1="839.785" x2="1235.453" y2="979.57" stroke="#7f7fff"/>
        </g>
        <g>
            <polyline fill="none" stroke="#7f7fff"
                      points="610.87,472.145 612.683,476.749 614.454,481.352 616.184,485.955 617.871,490.558 619.517,495.161 621.121,499.764 622.685,504.367 624.209,508.97 625.692,513.574 627.136,518.177 628.54,522.78 629.905,527.383 631.231,531.986 632.519,536.589 633.768,541.192 634.978,545.795 636.151,550.399 637.286,555.002 638.384,559.605 639.444,564.208 640.467,568.811 641.453,573.414 642.403,578.017 643.315,582.62 644.192,587.223 645.032,591.827 645.836,596.43 646.604,601.033 647.337,605.636 648.033,610.239 648.694,614.842 649.32,619.445 649.91,624.048 650.465,628.652 650.985,633.255 651.47,637.858 651.92,642.461 652.335,647.064 652.715,651.667 653.06,656.27 653.371,660.873 653.647,665.477 653.888,670.08 654.095,674.683 654.267,679.286 654.405,683.889 654.508,688.492 654.577,693.095 654.612,697.698 654.612,702.302 654.577,706.905 654.508,711.508 654.405,716.111 654.267,720.714 654.095,725.317 653.888,729.92 653.647,734.523 653.371,739.127 653.06,743.73 652.715,748.333 652.335,752.936 651.92,757.539 651.47,762.142 650.985,766.745 650.465,771.348 649.91,775.952 649.32,780.555 648.694,785.158 648.033,789.761 647.337,794.364 646.604,798.967 645.836,803.57 645.032,808.173 644.192,812.777 643.315,817.38 642.403,821.983 641.453,826.586 640.467,831.189 639.444,835.792 638.384,840.395 637.286,844.998 636.151,849.601 634.978,854.205 633.768,858.808 632.519,863.411 631.231,868.014 629.905,872.617 628.54,877.22 627.136,881.823 625.692,886.426 624.209,891.03 622.685,895.633 621.121,900.236 619.517,904.839 617.871,909.442 616.184,914.045 614.454,918.648 612.683,923.251 610.87,927.855 "/>
            <line x1="718.599" y1="472.145" x2="718.599" y2="481.618" stroke="#7f7fff"/>
            <line x1="610.87" y1="472.145" x2="718.599" y2="472.145" stroke="#7f7fff"/>
            <line x1="718.599" y1="927.855" x2="718.599" y2="918.382" stroke="#7f7fff"/>
            <line x1="610.87" y1="927.855" x2="718.599" y2="927.855" stroke="#7f7fff"/>
            <polyline fill="none" stroke="#7f7fff"
                      points="718.599,481.618 717.017,486.03 715.471,490.442 713.962,494.853 712.488,499.265 711.049,503.677 709.646,508.089 708.278,512.5 706.945,516.912 705.646,521.324 704.381,525.736 703.151,530.147 701.954,534.559 700.791,538.971 699.662,543.383 698.566,547.794 697.503,552.206 696.473,556.618 695.476,561.03 694.512,565.441 693.58,569.853 692.681,574.265 691.814,578.677 690.979,583.088 690.176,587.5 689.404,591.912 688.665,596.324 687.957,600.735 687.28,605.147 686.635,609.559 686.022,613.971 685.439,618.382 684.888,622.794 684.368,627.206 683.879,631.618 683.42,636.03 682.993,640.441 682.596,644.853 682.23,649.265 681.895,653.677 681.59,658.088 681.316,662.5 681.073,666.912 680.86,671.324 680.677,675.735 680.525,680.147 680.404,684.559 680.313,688.971 680.252,693.382 680.221,697.794 680.221,702.206 680.252,706.618 680.313,711.029 680.404,715.441 680.525,719.853 680.677,724.265 680.86,728.676 681.073,733.088 681.316,737.5 681.59,741.912 681.895,746.323 682.23,750.735 682.596,755.147 682.993,759.559 683.42,763.97 683.879,768.382 684.368,772.794 684.888,777.206 685.439,781.618 686.022,786.029 686.635,790.441 687.28,794.853 687.957,799.265 688.665,803.676 689.404,808.088 690.176,812.5 690.979,816.912 691.814,821.323 692.681,825.735 693.58,830.147 694.512,834.559 695.476,838.97 696.473,843.382 697.503,847.794 698.566,852.206 699.662,856.617 700.791,861.029 701.954,865.441 703.151,869.853 704.381,874.264 705.646,878.676 706.945,883.088 708.278,887.5 709.646,891.911 711.049,896.323 712.488,900.735 713.962,905.147 715.471,909.558 717.017,913.97 718.599,918.382 "/>
            <line x1="718.599" y1="481.618" x2="734.7" y2="481.618" stroke="#7f7fff"/>
            <line x1="718.599" y1="918.382" x2="734.7" y2="918.382" stroke="#7f7fff"/>
            <polyline fill="none" stroke="#7f7fff"
                      points="734.7,481.618 733.981,486.03 733.278,490.442 732.589,494.853 731.915,499.265 731.256,503.677 730.612,508.089 729.983,512.5 729.369,516.912 728.77,521.324 728.186,525.736 727.616,530.147 727.062,534.559 726.522,538.971 725.997,543.383 725.487,547.794 724.991,552.206 724.51,556.618 724.044,561.03 723.593,565.441 723.157,569.853 722.735,574.265 722.328,578.677 721.935,583.088 721.557,587.5 721.194,591.912 720.845,596.324 720.511,600.735 720.192,605.147 719.887,609.559 719.597,613.971 719.321,618.382 719.06,622.794 718.813,627.206 718.581,631.618 718.364,636.03 718.161,640.441 717.973,644.853 717.799,649.265 717.639,653.677 717.494,658.088 717.364,662.5 717.248,666.912 717.147,671.324 717.06,675.735 716.987,680.147 716.929,684.559 716.886,688.971 716.857,693.382 716.843,697.794 716.843,702.206 716.857,706.618 716.886,711.029 716.929,715.441 716.987,719.853 717.06,724.265 717.147,728.676 717.248,733.088 717.364,737.5 717.494,741.912 717.639,746.323 717.799,750.735 717.973,755.147 718.161,759.559 718.364,763.97 718.581,768.382 718.813,772.794 719.06,777.206 719.321,781.618 719.597,786.029 719.887,790.441 720.192,794.853 720.511,799.265 720.845,803.676 721.194,808.088 721.557,812.5 721.935,816.912 722.328,821.323 722.735,825.735 723.157,830.147 723.593,834.559 724.044,838.97 724.51,843.382 724.991,847.794 725.487,852.206 725.997,856.617 726.522,861.029 727.062,865.441 727.616,869.853 728.186,874.264 728.77,878.676 729.369,883.088 729.983,887.5 730.612,891.911 731.256,896.323 731.915,900.735 732.589,905.147 733.278,909.558 733.981,913.97 734.7,918.382 "/>
        </g>
        <g>
            <polyline fill="none" stroke="#7f7fff"
                      points="744.504,481.618 744.834,486.03 745.158,490.442 745.474,494.853 745.784,499.265 746.087,503.677 746.383,508.089 746.673,512.5 746.956,516.912 747.232,521.324 747.501,525.736 747.763,530.147 748.019,534.559 748.268,538.971 748.51,543.383 748.746,547.794 748.975,552.206 749.197,556.618 749.412,561.03 749.62,565.441 749.822,569.853 750.017,574.265 750.206,578.677 750.387,583.088 750.562,587.5 750.73,591.912 750.891,596.324 751.046,600.735 751.194,605.147 751.335,609.559 751.469,613.971 751.597,618.382 751.718,622.794 751.832,627.206 751.94,631.618 752.041,636.03 752.135,640.441 752.222,644.853 752.303,649.265 752.377,653.677 752.444,658.088 752.504,662.5 752.558,666.912 752.605,671.324 752.645,675.735 752.679,680.147 752.706,684.559 752.726,688.971 752.74,693.382 752.746,697.794 752.746,702.206 752.74,706.618 752.726,711.029 752.706,715.441 752.679,719.853 752.645,724.265 752.605,728.676 752.558,733.088 752.504,737.5 752.444,741.912 752.377,746.323 752.303,750.735 752.222,755.147 752.135,759.559 752.041,763.97 751.94,768.382 751.832,772.794 751.718,777.206 751.597,781.618 751.469,786.029 751.335,790.441 751.194,794.853 751.046,799.265 750.891,803.676 750.73,808.088 750.562,812.5 750.387,816.912 750.206,821.323 750.017,825.735 749.822,830.147 749.62,834.559 749.412,838.97 749.197,843.382 748.975,847.794 748.746,852.206 748.51,856.617 748.268,861.029 748.019,865.441 747.763,869.853 747.501,874.264 747.232,878.676 746.956,883.088 746.673,887.5 746.383,891.911 746.087,896.323 745.784,900.735 745.474,905.147 745.158,909.558 744.834,913.97 744.504,918.382 "/>
            <line x1="744.504" y1="481.618" x2="800.003" y2="481.618" stroke="#7f7fff"/>
            <line x1="744.504" y1="918.382" x2="800.003" y2="918.382" stroke="#7f7fff"/>
            <polyline fill="none" stroke="#7f7fff"
                      points="800.003,481.618 801.662,486.03 803.282,490.442 804.864,494.853 806.409,499.265 807.916,503.677 809.386,508.089 810.818,512.5 812.214,516.912 813.574,521.324 814.897,525.736 816.185,530.147 817.437,534.559 818.653,538.971 819.834,543.383 820.98,547.794 822.091,552.206 823.167,556.618 824.209,561.03 825.217,565.441 826.191,569.853 827.13,574.265 828.036,578.677 828.908,583.088 829.747,587.5 830.552,591.912 831.325,596.324 832.064,600.735 832.77,605.147 833.443,609.559 834.083,613.971 834.691,618.382 835.266,622.794 835.809,627.206 836.32,631.618 836.798,636.03 837.244,640.441 837.657,644.853 838.039,649.265 838.389,653.677 838.707,658.088 838.992,662.5 839.246,666.912 839.468,671.324 839.659,675.735 839.817,680.147 839.944,684.559 840.039,688.971 840.103,693.382 840.134,697.794 840.134,702.206 840.103,706.618 840.039,711.029 839.944,715.441 839.817,719.853 839.659,724.265 839.468,728.676 839.246,733.088 838.992,737.5 838.707,741.912 838.389,746.323 838.039,750.735 837.657,755.147 837.244,759.559 836.798,763.97 836.32,768.382 835.809,772.794 835.266,777.206 834.691,781.618 834.083,786.029 833.443,790.441 832.77,794.853 832.064,799.265 831.325,803.676 830.552,808.088 829.747,812.5 828.908,816.912 828.036,821.323 827.13,825.735 826.191,830.147 825.217,834.559 824.209,838.97 823.167,843.382 822.091,847.794 820.98,852.206 819.834,856.617 818.653,861.029 817.437,865.441 816.185,869.853 814.897,874.264 813.574,878.676 812.214,883.088 810.818,887.5 809.386,891.911 807.916,896.323 806.409,900.735 804.864,905.147 803.282,909.558 801.662,913.97 800.003,918.382 "/>
        </g>
        <g>
            <polyline fill="none" stroke="#7f7fff"
                      points="902.377,480.594 900.093,485.026 897.868,489.459 895.7,493.891 893.589,498.324 891.533,502.756 889.533,507.189 887.587,511.621 885.694,516.054 883.853,520.486 882.065,524.918 880.327,529.351 878.641,533.783 877.004,538.216 875.417,542.648 873.878,547.081 872.388,551.513 870.947,555.946 869.552,560.378 868.205,564.81 866.905,569.243 865.65,573.675 864.442,578.108 863.28,582.54 862.163,586.973 861.091,591.405 860.064,595.838 859.082,600.27 858.144,604.702 857.25,609.135 856.4,613.567 855.594,618 854.831,622.432 854.111,626.865 853.435,631.297 852.801,635.73 852.211,640.162 851.663,644.594 851.158,649.027 850.695,653.459 850.275,657.892 849.897,662.324 849.561,666.757 849.267,671.189 849.016,675.622 848.806,680.054 848.639,684.486 848.513,688.919 848.429,693.351 848.387,697.784 848.387,702.216 848.429,706.649 848.513,711.081 848.639,715.514 848.806,719.946 849.016,724.378 849.267,728.811 849.561,733.243 849.897,737.676 850.275,742.108 850.695,746.541 851.158,750.973 851.663,755.406 852.211,759.838 852.801,764.27 853.435,768.703 854.111,773.135 854.831,777.568 855.594,782 856.4,786.433 857.25,790.865 858.144,795.298 859.082,799.73 860.064,804.162 861.091,808.595 862.163,813.027 863.28,817.46 864.442,821.892 865.65,826.325 866.905,830.757 868.205,835.19 869.552,839.622 870.947,844.054 872.388,848.487 873.878,852.919 875.417,857.352 877.004,861.784 878.641,866.217 880.327,870.649 882.065,875.082 883.853,879.514 885.694,883.946 887.587,888.379 889.533,892.811 891.533,897.244 893.589,901.676 895.7,906.109 897.868,910.541 900.093,914.974 902.377,919.406 "/>
            <line x1="902.377" y1="479.442" x2="902.377" y2="480.594" stroke="#7f7fff"/>
            <line x1="902.377" y1="479.442" x2="904.39" y2="479.442" stroke="#7f7fff"/>
            <line x1="902.377" y1="920.558" x2="902.377" y2="919.406" stroke="#7f7fff"/>
            <line x1="902.377" y1="920.558" x2="904.39" y2="920.558" stroke="#7f7fff"/>
            <polyline fill="none" stroke="#7f7fff"
                      points="904.39,479.442 902.064,483.898 899.798,488.353 897.591,492.809 895.442,497.265 893.35,501.72 891.314,506.176 889.334,510.632 887.409,515.088 885.537,519.543 883.719,523.999 881.954,528.455 880.241,532.911 878.579,537.366 876.968,541.822 875.408,546.278 873.897,550.733 872.435,555.189 871.023,559.645 869.658,564.101 868.342,568.556 867.073,573.012 865.851,577.468 864.676,581.923 863.548,586.379 862.465,590.835 861.428,595.291 860.437,599.746 859.49,604.202 858.589,608.658 857.732,613.113 856.919,617.569 856.15,622.025 855.425,626.481 854.744,630.936 854.107,635.392 853.512,639.848 852.961,644.304 852.453,648.759 851.988,653.215 851.565,657.671 851.185,662.126 850.847,666.582 850.552,671.038 850.299,675.494 850.088,679.949 849.92,684.405 849.794,688.861 849.709,693.316 849.667,697.772 849.667,702.228 849.709,706.684 849.794,711.139 849.92,715.595 850.088,720.051 850.299,724.506 850.552,728.962 850.847,733.418 851.185,737.874 851.565,742.329 851.988,746.785 852.453,751.241 852.961,755.696 853.512,760.152 854.107,764.608 854.744,769.064 855.425,773.519 856.15,777.975 856.919,782.431 857.732,786.887 858.589,791.342 859.49,795.798 860.437,800.254 861.428,804.709 862.465,809.165 863.548,813.621 864.676,818.077 865.851,822.532 867.073,826.988 868.342,831.444 869.658,835.899 871.023,840.355 872.435,844.811 873.897,849.267 875.408,853.722 876.968,858.178 878.579,862.634 880.241,867.089 881.954,871.545 883.719,876.001 885.537,880.457 887.409,884.912 889.334,889.368 891.314,893.824 893.35,898.28 895.442,902.735 897.591,907.191 899.798,911.647 902.064,916.102 904.39,920.558 "/>
            <line x1="904.39" y1="479.442" x2="930.361" y2="479.442" stroke="#7f7fff"/>
            <line x1="904.39" y1="920.558" x2="930.361" y2="920.558" stroke="#7f7fff"/>
            <polyline fill="none" stroke="#7f7fff"
                      points="930.361,479.442 930.011,483.898 929.669,488.353 929.333,492.809 929.005,497.265 928.684,501.72 928.37,506.176 928.063,510.632 927.764,515.088 927.471,519.543 927.186,523.999 926.908,528.455 926.637,532.911 926.373,537.366 926.116,541.822 925.867,546.278 925.625,550.733 925.389,555.189 925.161,559.645 924.94,564.101 924.727,568.556 924.52,573.012 924.321,577.468 924.128,581.923 923.943,586.379 923.765,590.835 923.594,595.291 923.43,599.746 923.274,604.202 923.124,608.658 922.982,613.113 922.846,617.569 922.718,622.025 922.597,626.481 922.483,630.936 922.377,635.392 922.277,639.848 922.184,644.304 922.099,648.759 922.021,653.215 921.949,657.671 921.885,662.126 921.828,666.582 921.779,671.038 921.736,675.494 921.7,679.949 921.672,684.405 921.651,688.861 921.636,693.316 921.629,697.772 921.629,702.228 921.636,706.684 921.651,711.139 921.672,715.595 921.7,720.051 921.736,724.506 921.779,728.962 921.828,733.418 921.885,737.874 921.949,742.329 922.021,746.785 922.099,751.241 922.184,755.696 922.277,760.152 922.377,764.608 922.483,769.064 922.597,773.519 922.718,777.975 922.846,782.431 922.982,786.887 923.124,791.342 923.274,795.798 923.43,800.254 923.594,804.709 923.765,809.165 923.943,813.621 924.128,818.077 924.321,822.532 924.52,826.988 924.727,831.444 924.94,835.899 925.161,840.355 925.389,844.811 925.625,849.267 925.867,853.722 926.116,858.178 926.373,862.634 926.637,867.089 926.908,871.545 927.186,876.001 927.471,880.457 927.764,884.912 928.063,889.368 928.37,893.824 928.684,898.28 929.005,902.735 929.333,907.191 929.669,911.647 930.011,916.102 930.361,920.558 "/>
        </g>
        <g>
            <polyline fill="none" stroke="#7f7fff"
                      points="991.475,488.914 988.495,493.179 985.603,497.443 982.798,501.708 980.078,505.972 977.44,510.236 974.882,514.501 972.402,518.765 969.998,523.029 967.669,527.294 965.412,531.558 963.228,535.822 961.113,540.087 959.067,544.351 957.088,548.615 955.176,552.88 953.328,557.144 951.545,561.409 949.824,565.673 948.166,569.937 946.569,574.202 945.032,578.466 943.555,582.73 942.136,586.995 940.775,591.259 939.472,595.523 938.225,599.788 937.035,604.052 935.9,608.316 934.819,612.581 933.794,616.845 932.822,621.109 931.904,625.374 931.04,629.638 930.227,633.903 929.468,638.167 928.76,642.431 928.105,646.696 927.5,650.96 926.947,655.224 926.445,659.489 925.994,663.753 925.593,668.017 925.243,672.282 924.943,676.546 924.694,680.81 924.494,685.075 924.344,689.339 924.245,693.603 924.195,697.868 924.195,702.132 924.245,706.397 924.344,710.661 924.494,714.925 924.694,719.19 924.943,723.454 925.243,727.718 925.593,731.983 925.994,736.247 926.445,740.511 926.947,744.776 927.5,749.04 928.105,753.304 928.76,757.569 929.468,761.833 930.227,766.097 931.04,770.362 931.904,774.626 932.822,778.891 933.794,783.155 934.819,787.419 935.9,791.684 937.035,795.948 938.225,800.212 939.472,804.477 940.775,808.741 942.136,813.005 943.555,817.27 945.032,821.534 946.569,825.798 948.166,830.063 949.824,834.327 951.545,838.591 953.328,842.856 955.176,847.12 957.088,851.385 959.067,855.649 961.113,859.913 963.228,864.178 965.412,868.442 967.669,872.706 969.998,876.971 972.402,881.235 974.882,885.499 977.44,889.764 980.078,894.028 982.798,898.292 985.603,902.557 988.495,906.821 991.475,911.086 "/>
            <line x1="1009.758" y1="488.914" x2="1009.758" y2="515.156" stroke="#7f7fff"/>
            <line x1="991.475" y1="488.914" x2="1009.758" y2="488.914" stroke="#7f7fff"/>
            <line x1="1009.758" y1="911.086" x2="1009.758" y2="884.844" stroke="#7f7fff"/>
            <line x1="991.475" y1="911.086" x2="1009.758" y2="911.086" stroke="#7f7fff"/>
            <polyline fill="none" stroke="#7f7fff"
                      points="1009.758,515.156 1010.09,518.89 1010.415,522.625 1010.733,526.359 1011.045,530.093 1011.35,533.827 1011.648,537.561 1011.939,541.296 1012.223,545.03 1012.501,548.764 1012.771,552.498 1013.035,556.233 1013.292,559.967 1013.543,563.701 1013.786,567.435 1014.023,571.169 1014.253,574.904 1014.476,578.638 1014.692,582.372 1014.902,586.106 1015.105,589.841 1015.301,593.575 1015.49,597.309 1015.673,601.043 1015.848,604.777 1016.017,608.512 1016.179,612.246 1016.335,615.98 1016.483,619.714 1016.625,623.449 1016.76,627.183 1016.889,630.917 1017.01,634.651 1017.125,638.385 1017.233,642.12 1017.334,645.854 1017.429,649.588 1017.517,653.322 1017.598,657.056 1017.672,660.791 1017.739,664.525 1017.8,668.259 1017.854,671.993 1017.901,675.728 1017.942,679.462 1017.976,683.196 1018.003,686.93 1018.023,690.664 1018.036,694.399 1018.043,698.133 1018.043,701.867 1018.036,705.601 1018.023,709.336 1018.003,713.07 1017.976,716.804 1017.942,720.538 1017.901,724.272 1017.854,728.007 1017.8,731.741 1017.739,735.475 1017.672,739.209 1017.598,742.944 1017.517,746.678 1017.429,750.412 1017.334,754.146 1017.233,757.88 1017.125,761.615 1017.01,765.349 1016.889,769.083 1016.76,772.817 1016.625,776.551 1016.483,780.286 1016.335,784.02 1016.179,787.754 1016.017,791.488 1015.848,795.223 1015.673,798.957 1015.49,802.691 1015.301,806.425 1015.105,810.159 1014.902,813.894 1014.692,817.628 1014.476,821.362 1014.253,825.096 1014.023,828.831 1013.786,832.565 1013.543,836.299 1013.292,840.033 1013.035,843.767 1012.771,847.502 1012.501,851.236 1012.223,854.97 1011.939,858.704 1011.648,862.439 1011.35,866.173 1011.045,869.907 1010.733,873.641 1010.415,877.375 1010.09,881.11 1009.758,884.844 "/>
            <line x1="1088.303" y1="515.156" x2="1088.303" y2="542.422" stroke="#7f7fff"/>
            <line x1="1009.758" y1="515.156" x2="1088.303" y2="515.156" stroke="#7f7fff"/>
            <line x1="1088.303" y1="884.844" x2="1088.303" y2="857.578" stroke="#7f7fff"/>
            <line x1="1009.758" y1="884.844" x2="1088.303" y2="884.844" stroke="#7f7fff"/>
            <polyline fill="none" stroke="#7f7fff"
                      points="1088.303,542.422 1086.033,545.605 1083.832,548.789 1081.698,551.972 1079.629,555.155 1077.622,558.339 1075.678,561.522 1073.793,564.706 1071.967,567.889 1070.198,571.072 1068.484,574.256 1066.826,577.439 1065.221,580.623 1063.668,583.806 1062.167,586.989 1060.716,590.173 1059.315,593.356 1057.963,596.54 1056.658,599.723 1055.401,602.906 1054.191,606.09 1053.026,609.273 1051.907,612.457 1050.832,615.64 1049.801,618.823 1048.814,622.007 1047.87,625.19 1046.968,628.374 1046.109,631.557 1045.291,634.74 1044.514,637.924 1043.779,641.107 1043.084,644.291 1042.429,647.474 1041.815,650.657 1041.24,653.841 1040.704,657.024 1040.208,660.208 1039.751,663.391 1039.332,666.574 1038.953,669.758 1038.611,672.941 1038.308,676.125 1038.043,679.308 1037.816,682.491 1037.627,685.675 1037.476,688.858 1037.363,692.042 1037.288,695.225 1037.25,698.408 1037.25,701.592 1037.288,704.775 1037.363,707.958 1037.476,711.142 1037.627,714.325 1037.816,717.509 1038.043,720.692 1038.308,723.875 1038.611,727.059 1038.953,730.242 1039.332,733.426 1039.751,736.609 1040.208,739.792 1040.704,742.976 1041.24,746.159 1041.815,749.343 1042.429,752.526 1043.084,755.709 1043.779,758.893 1044.514,762.076 1045.291,765.26 1046.109,768.443 1046.968,771.626 1047.87,774.81 1048.814,777.993 1049.801,781.177 1050.832,784.36 1051.907,787.543 1053.026,790.727 1054.191,793.91 1055.401,797.094 1056.658,800.277 1057.963,803.46 1059.315,806.644 1060.716,809.827 1062.167,813.011 1063.668,816.194 1065.221,819.377 1066.826,822.561 1068.484,825.744 1070.198,828.928 1071.967,832.111 1073.793,835.294 1075.678,838.478 1077.622,841.661 1079.629,844.845 1081.698,848.028 1083.832,851.211 1086.033,854.395 1088.303,857.578 "/>
        </g>
        <g>
            <polyline fill="none" stroke="#7f7fff"
                      points="1236.763,562.775 1238.172,565.547 1239.545,568.32 1240.883,571.092 1242.186,573.864 1243.455,576.636 1244.69,579.409 1245.891,582.181 1247.06,584.953 1248.196,587.725 1249.3,590.497 1250.372,593.27 1251.412,596.042 1252.422,598.814 1253.4,601.586 1254.349,604.358 1255.267,607.131 1256.155,609.903 1257.014,612.675 1257.844,615.447 1258.644,618.22 1259.416,620.992 1260.159,623.764 1260.874,626.536 1261.561,629.308 1262.22,632.081 1262.851,634.853 1263.454,637.625 1264.03,640.397 1264.579,643.17 1265.101,645.942 1265.596,648.714 1266.064,651.486 1266.505,654.258 1266.92,657.031 1267.308,659.803 1267.67,662.575 1268.006,665.347 1268.315,668.119 1268.599,670.892 1268.856,673.664 1269.088,676.436 1269.293,679.208 1269.473,681.981 1269.627,684.753 1269.756,687.525 1269.858,690.297 1269.935,693.069 1269.987,695.842 1270.012,698.614 1270.012,701.386 1269.987,704.158 1269.935,706.931 1269.858,709.703 1269.756,712.475 1269.627,715.247 1269.473,718.019 1269.293,720.792 1269.088,723.564 1268.856,726.336 1268.599,729.108 1268.315,731.881 1268.006,734.653 1267.67,737.425 1267.308,740.197 1266.92,742.969 1266.505,745.742 1266.064,748.514 1265.596,751.286 1265.101,754.058 1264.579,756.83 1264.03,759.603 1263.454,762.375 1262.851,765.147 1262.22,767.919 1261.561,770.692 1260.874,773.464 1260.159,776.236 1259.416,779.008 1258.644,781.78 1257.844,784.553 1257.014,787.325 1256.155,790.097 1255.267,792.869 1254.349,795.642 1253.4,798.414 1252.422,801.186 1251.412,803.958 1250.372,806.73 1249.3,809.503 1248.196,812.275 1247.06,815.047 1245.891,817.819 1244.69,820.591 1243.455,823.364 1242.186,826.136 1240.883,828.908 1239.545,831.68 1238.172,834.453 1236.763,837.225 "/>
            <line x1="1236.763" y1="544.598" x2="1236.763" y2="562.775" stroke="#7f7fff"/>
            <line x1="1236.763" y1="544.598" x2="1285.041" y2="544.598" stroke="#7f7fff"/>
            <line x1="1236.763" y1="855.402" x2="1236.763" y2="837.225" stroke="#7f7fff"/>
            <line x1="1236.763" y1="855.402" x2="1285.041" y2="855.402" stroke="#7f7fff"/>
            <polyline fill="none" stroke="#7f7fff"
                      points="1285.041,544.598 1285.003,547.737 1284.966,550.877 1284.93,554.016 1284.894,557.156 1284.86,560.295 1284.826,563.435 1284.793,566.574 1284.76,569.714 1284.729,572.853 1284.698,575.992 1284.668,579.132 1284.638,582.271 1284.61,585.411 1284.582,588.55 1284.555,591.69 1284.529,594.829 1284.503,597.968 1284.479,601.108 1284.455,604.247 1284.432,607.387 1284.409,610.526 1284.388,613.666 1284.367,616.805 1284.347,619.944 1284.328,623.084 1284.309,626.223 1284.291,629.363 1284.274,632.502 1284.258,635.642 1284.243,638.781 1284.228,641.92 1284.214,645.06 1284.201,648.199 1284.189,651.339 1284.177,654.478 1284.167,657.618 1284.157,660.757 1284.147,663.897 1284.139,667.036 1284.131,670.175 1284.124,673.315 1284.118,676.454 1284.113,679.594 1284.108,682.733 1284.104,685.873 1284.101,689.012 1284.099,692.151 1284.097,695.291 1284.096,698.43 1284.096,701.57 1284.097,704.709 1284.099,707.849 1284.101,710.988 1284.104,714.127 1284.108,717.267 1284.113,720.406 1284.118,723.546 1284.124,726.685 1284.131,729.825 1284.139,732.964 1284.147,736.103 1284.157,739.243 1284.167,742.382 1284.177,745.522 1284.189,748.661 1284.201,751.801 1284.214,754.94 1284.228,758.08 1284.243,761.219 1284.258,764.358 1284.274,767.498 1284.291,770.637 1284.309,773.777 1284.328,776.916 1284.347,780.056 1284.367,783.195 1284.388,786.334 1284.409,789.474 1284.432,792.613 1284.455,795.753 1284.479,798.892 1284.503,802.032 1284.529,805.171 1284.555,808.31 1284.582,811.45 1284.61,814.589 1284.638,817.729 1284.668,820.868 1284.698,824.008 1284.729,827.147 1284.76,830.286 1284.793,833.426 1284.826,836.565 1284.86,839.705 1284.894,842.844 1284.93,845.984 1284.966,849.123 1285.003,852.263 1285.041,855.402 "/>
        </g>
        <g>
            <polyline fill="none" stroke="#7f7fff"
                      points="1300.686,522.453 1300.259,526.039 1299.813,529.626 1299.351,533.213 1298.878,536.8 1298.398,540.387 1297.916,543.974 1297.433,547.56 1296.952,551.147 1296.475,554.734 1296.005,558.321 1295.541,561.908 1295.087,565.494 1294.642,569.081 1294.207,572.668 1293.784,576.255 1293.372,579.842 1292.972,583.428 1292.584,587.015 1292.209,590.602 1291.846,594.189 1291.495,597.776 1291.158,601.363 1290.833,604.949 1290.52,608.536 1290.22,612.123 1289.933,615.71 1289.658,619.297 1289.395,622.883 1289.145,626.47 1288.907,630.057 1288.681,633.644 1288.468,637.231 1288.266,640.818 1288.076,644.404 1287.899,647.991 1287.733,651.578 1287.579,655.165 1287.437,658.752 1287.307,662.338 1287.189,665.925 1287.083,669.512 1286.989,673.099 1286.906,676.686 1286.835,680.273 1286.776,683.859 1286.729,687.446 1286.693,691.033 1286.67,694.62 1286.658,698.207 1286.658,701.793 1286.67,705.38 1286.693,708.967 1286.729,712.554 1286.776,716.141 1286.835,719.727 1286.906,723.314 1286.989,726.901 1287.083,730.488 1287.189,734.075 1287.307,737.662 1287.437,741.248 1287.579,744.835 1287.733,748.422 1287.899,752.009 1288.076,755.596 1288.266,759.182 1288.468,762.769 1288.681,766.356 1288.907,769.943 1289.145,773.53 1289.395,777.117 1289.658,780.703 1289.933,784.29 1290.22,787.877 1290.52,791.464 1290.833,795.051 1291.158,798.637 1291.495,802.224 1291.846,805.811 1292.209,809.398 1292.584,812.985 1292.972,816.572 1293.372,820.158 1293.784,823.745 1294.207,827.332 1294.642,830.919 1295.087,834.506 1295.541,838.092 1296.005,841.679 1296.475,845.266 1296.952,848.853 1297.433,852.44 1297.916,856.026 1298.398,859.613 1298.878,863.2 1299.351,866.787 1299.813,870.374 1300.259,873.961 1300.686,877.547 "/>
            <line x1="1300.686" y1="522.453" x2="1322.35" y2="522.453" stroke="#7f7fff"/>
            <line x1="1300.686" y1="877.547" x2="1322.35" y2="877.547" stroke="#7f7fff"/>
            <polyline fill="none" stroke="#7f7fff"
                      points="1322.35,522.453 1323.306,526.039 1324.237,529.626 1325.147,533.213 1326.042,536.8 1326.924,540.387 1327.795,543.974 1328.657,547.56 1329.511,551.147 1330.357,554.734 1331.196,558.321 1332.028,561.908 1332.852,565.494 1333.668,569.081 1334.474,572.668 1335.271,576.255 1336.057,579.842 1336.831,583.428 1337.592,587.015 1338.34,590.602 1339.073,594.189 1339.79,597.776 1340.491,601.363 1341.173,604.949 1341.838,608.536 1342.483,612.123 1343.107,615.71 1343.711,619.297 1344.293,622.883 1344.853,626.47 1345.39,630.057 1345.903,633.644 1346.392,637.231 1346.857,640.818 1347.296,644.404 1347.71,647.991 1348.098,651.578 1348.459,655.165 1348.794,658.752 1349.102,662.338 1349.383,665.925 1349.637,669.512 1349.863,673.099 1350.061,676.686 1350.231,680.273 1350.373,683.859 1350.486,687.446 1350.572,691.033 1350.629,694.62 1350.657,698.207 1350.657,701.793 1350.629,705.38 1350.572,708.967 1350.486,712.554 1350.373,716.141 1350.231,719.727 1350.061,723.314 1349.863,726.901 1349.637,730.488 1349.383,734.075 1349.102,737.662 1348.794,741.248 1348.459,744.835 1348.098,748.422 1347.71,752.009 1347.296,755.596 1346.857,759.182 1346.392,762.769 1345.903,766.356 1345.39,769.943 1344.853,773.53 1344.293,777.117 1343.711,780.703 1343.107,784.29 1342.483,787.877 1341.838,791.464 1341.173,795.051 1340.491,798.637 1339.79,802.224 1339.073,805.811 1338.34,809.398 1337.592,812.985 1336.831,816.572 1336.057,820.158 1335.271,823.745 1334.474,827.332 1333.668,830.919 1332.852,834.506 1332.028,838.092 1331.196,841.679 1330.357,845.266 1329.511,848.853 1328.657,852.44 1327.795,856.026 1326.924,859.613 1326.042,863.2 1325.147,866.787 1324.237,870.374 1323.306,873.961 1322.35,877.547 "/>
        </g>
        <g>
            <polyline fill="none" stroke="#7f7fff"
                      points="1359.545,493.139 1360.473,497.318 1361.381,501.497 1362.269,505.676 1363.138,509.855 1363.987,514.034 1364.816,518.213 1365.626,522.392 1366.416,526.571 1367.187,530.75 1367.938,534.929 1368.67,539.108 1369.382,543.287 1370.076,547.466 1370.75,551.645 1371.405,555.824 1372.04,560.003 1372.657,564.182 1373.255,568.361 1373.833,572.54 1374.393,576.719 1374.933,580.898 1375.455,585.077 1375.957,589.256 1376.441,593.435 1376.906,597.614 1377.352,601.793 1377.78,605.972 1378.188,610.151 1378.578,614.33 1378.949,618.509 1379.302,622.688 1379.636,626.867 1379.951,631.046 1380.247,635.225 1380.525,639.404 1380.785,643.583 1381.025,647.762 1381.247,651.941 1381.451,656.12 1381.636,660.299 1381.803,664.478 1381.951,668.657 1382.08,672.836 1382.191,677.015 1382.283,681.194 1382.357,685.373 1382.413,689.552 1382.45,693.731 1382.468,697.91 1382.468,702.09 1382.45,706.269 1382.413,710.448 1382.357,714.627 1382.283,718.806 1382.191,722.985 1382.08,727.164 1381.951,731.343 1381.803,735.522 1381.636,739.701 1381.451,743.88 1381.247,748.059 1381.025,752.238 1380.785,756.417 1380.525,760.596 1380.247,764.775 1379.951,768.954 1379.636,773.133 1379.302,777.312 1378.949,781.491 1378.578,785.67 1378.188,789.849 1377.78,794.028 1377.352,798.207 1376.906,802.386 1376.441,806.565 1375.957,810.744 1375.455,814.923 1374.933,819.102 1374.393,823.281 1373.833,827.46 1373.255,831.639 1372.657,835.818 1372.04,839.997 1371.405,844.176 1370.75,848.355 1370.076,852.534 1369.382,856.713 1368.67,860.892 1367.938,865.071 1367.187,869.25 1366.416,873.429 1365.626,877.608 1364.816,881.787 1363.987,885.966 1363.138,890.145 1362.269,894.324 1361.381,898.503 1360.473,902.682 1359.545,906.861 "/>
            <line x1="1359.545" y1="493.139" x2="1380.678" y2="493.139" stroke="#7f7fff"/>
            <line x1="1359.545" y1="906.861" x2="1380.678" y2="906.861" stroke="#7f7fff"/>
            <polyline fill="none" stroke="#7f7fff"
                      points="1380.678,493.139 1384.645,497.318 1388.463,501.497 1392.138,505.676 1395.678,509.855 1399.089,514.034 1402.376,518.213 1405.545,522.392 1408.6,526.571 1411.545,530.75 1414.385,534.929 1417.122,539.108 1419.761,543.287 1422.305,547.466 1424.755,551.645 1427.115,555.824 1429.388,560.003 1431.575,564.182 1433.679,568.361 1435.701,572.54 1437.643,576.719 1439.508,580.898 1441.296,585.077 1443.01,589.256 1444.65,593.435 1446.218,597.614 1447.715,601.793 1449.142,605.972 1450.5,610.151 1451.791,614.33 1453.015,618.509 1454.172,622.688 1455.265,626.867 1456.293,631.046 1457.257,635.225 1458.158,639.404 1458.996,643.583 1459.773,647.762 1460.487,651.941 1461.141,656.12 1461.734,660.299 1462.267,664.478 1462.74,668.657 1463.153,672.836 1463.506,677.015 1463.801,681.194 1464.036,685.373 1464.212,689.552 1464.33,693.731 1464.388,697.91 1464.388,702.09 1464.33,706.269 1464.212,710.448 1464.036,714.627 1463.801,718.806 1463.506,722.985 1463.153,727.164 1462.74,731.343 1462.267,735.522 1461.734,739.701 1461.141,743.88 1460.487,748.059 1459.773,752.238 1458.996,756.417 1458.158,760.596 1457.257,764.775 1456.293,768.954 1455.265,773.133 1454.172,777.312 1453.015,781.491 1451.791,785.67 1450.5,789.849 1449.142,794.028 1447.715,798.207 1446.218,802.386 1444.65,806.565 1443.01,810.744 1441.296,814.923 1439.508,819.102 1437.643,823.281 1435.701,827.46 1433.679,831.639 1431.575,835.818 1429.388,839.997 1427.115,844.176 1424.755,848.355 1422.305,852.534 1419.761,856.713 1417.122,860.892 1414.385,865.071 1411.545,869.25 1408.6,873.429 1405.545,877.608 1402.376,881.787 1399.089,885.966 1395.678,890.145 1392.138,894.324 1388.463,898.503 1384.645,902.682 1380.678,906.861 "/>
        </g>
        <g>
            <polyline fill="none" stroke="#7f7fff"
                      points="1534.526,474.194 1534.976,478.755 1535.417,483.317 1535.849,487.879 1536.271,492.441 1536.685,497.002 1537.089,501.564 1537.483,506.126 1537.869,510.688 1538.245,515.249 1538.612,519.811 1538.97,524.373 1539.318,528.935 1539.658,533.496 1539.988,538.058 1540.309,542.62 1540.62,547.181 1540.923,551.743 1541.216,556.305 1541.5,560.867 1541.775,565.428 1542.041,569.99 1542.297,574.552 1542.544,579.114 1542.782,583.675 1543.011,588.237 1543.231,592.799 1543.442,597.361 1543.643,601.922 1543.835,606.484 1544.018,611.046 1544.192,615.608 1544.357,620.169 1544.513,624.731 1544.659,629.293 1544.796,633.855 1544.924,638.416 1545.043,642.978 1545.153,647.54 1545.254,652.102 1545.345,656.663 1545.427,661.225 1545.501,665.787 1545.565,670.349 1545.62,674.91 1545.665,679.472 1545.702,684.034 1545.729,688.596 1545.748,693.157 1545.757,697.719 1545.757,702.281 1545.748,706.843 1545.729,711.404 1545.702,715.966 1545.665,720.528 1545.62,725.09 1545.565,729.651 1545.501,734.213 1545.427,738.775 1545.345,743.337 1545.254,747.898 1545.153,752.46 1545.043,757.022 1544.924,761.584 1544.796,766.145 1544.659,770.707 1544.513,775.269 1544.357,779.831 1544.192,784.392 1544.018,788.954 1543.835,793.516 1543.643,798.078 1543.442,802.639 1543.231,807.201 1543.011,811.763 1542.782,816.325 1542.544,820.886 1542.297,825.448 1542.041,830.01 1541.775,834.572 1541.5,839.133 1541.216,843.695 1540.923,848.257 1540.62,852.819 1540.309,857.38 1539.988,861.942 1539.658,866.504 1539.318,871.065 1538.97,875.627 1538.612,880.189 1538.245,884.751 1537.869,889.312 1537.483,893.874 1537.089,898.436 1536.685,902.998 1536.271,907.559 1535.849,912.121 1535.417,916.683 1534.976,921.245 1534.526,925.806 "/>
            <line x1="1534.526" y1="474.194" x2="1551.335" y2="474.194" stroke="#7f7fff"/>
            <line x1="1534.526" y1="925.806" x2="1551.335" y2="925.806" stroke="#7f7fff"/>
            <polyline fill="none" stroke="#7f7fff"
                      points="1551.335,474.194 1552.635,478.755 1553.907,483.317 1555.15,487.879 1556.365,492.441 1557.552,497.002 1558.711,501.564 1559.841,506.126 1560.944,510.688 1562.019,515.249 1563.067,519.811 1564.086,524.373 1565.079,528.935 1566.044,533.496 1566.982,538.058 1567.893,542.62 1568.777,547.181 1569.634,551.743 1570.464,556.305 1571.267,560.867 1572.044,565.428 1572.794,569.99 1573.518,574.552 1574.215,579.114 1574.885,583.675 1575.53,588.237 1576.148,592.799 1576.74,597.361 1577.306,601.922 1577.845,606.484 1578.359,611.046 1578.847,615.608 1579.308,620.169 1579.744,624.731 1580.154,629.293 1580.538,633.855 1580.897,638.416 1581.23,642.978 1581.536,647.54 1581.818,652.102 1582.073,656.663 1582.303,661.225 1582.508,665.787 1582.687,670.349 1582.84,674.91 1582.967,679.472 1583.07,684.034 1583.146,688.596 1583.197,693.157 1583.223,697.719 1583.223,702.281 1583.197,706.843 1583.146,711.404 1583.07,715.966 1582.967,720.528 1582.84,725.09 1582.687,729.651 1582.508,734.213 1582.303,738.775 1582.073,743.337 1581.818,747.898 1581.536,752.46 1581.23,757.022 1580.897,761.584 1580.538,766.145 1580.154,770.707 1579.744,775.269 1579.308,779.831 1578.847,784.392 1578.359,788.954 1577.845,793.516 1577.306,798.078 1576.74,802.639 1576.148,807.201 1575.53,811.763 1574.885,816.325 1574.215,820.886 1573.518,825.448 1572.794,830.01 1572.044,834.572 1571.267,839.133 1570.464,843.695 1569.634,848.257 1568.777,852.819 1567.893,857.38 1566.982,861.942 1566.044,866.504 1565.079,871.065 1564.086,875.627 1563.067,880.189 1562.019,884.751 1560.944,889.312 1559.841,893.874 1558.711,898.436 1557.552,902.998 1556.365,907.559 1555.15,912.121 1553.907,916.683 1552.635,921.245 1551.335,925.806 "/>
            <line x1="1551.335" y1="474.194" x2="1603.414" y2="474.194" stroke="#7f7fff"/>
            <line x1="1551.335" y1="925.806" x2="1603.414" y2="925.806" stroke="#7f7fff"/>
            <polyline fill="none" stroke="#7f7fff"
                      points="1603.414,474.194 1603.579,478.755 1603.741,483.317 1603.9,487.879 1604.055,492.441 1604.207,497.002 1604.356,501.564 1604.501,506.126 1604.642,510.688 1604.781,515.249 1604.916,519.811 1605.047,524.373 1605.176,528.935 1605.3,533.496 1605.422,538.058 1605.54,542.62 1605.655,547.181 1605.766,551.743 1605.874,556.305 1605.979,560.867 1606.08,565.428 1606.178,569.99 1606.272,574.552 1606.363,579.114 1606.451,583.675 1606.535,588.237 1606.616,592.799 1606.694,597.361 1606.768,601.922 1606.839,606.484 1606.906,611.046 1606.97,615.608 1607.031,620.169 1607.088,624.731 1607.142,629.293 1607.193,633.855 1607.24,638.416 1607.284,642.978 1607.324,647.54 1607.361,652.102 1607.395,656.663 1607.426,661.225 1607.453,665.787 1607.476,670.349 1607.496,674.91 1607.513,679.472 1607.527,684.034 1607.537,688.596 1607.544,693.157 1607.547,697.719 1607.547,702.281 1607.544,706.843 1607.537,711.404 1607.527,715.966 1607.513,720.528 1607.496,725.09 1607.476,729.651 1607.453,734.213 1607.426,738.775 1607.395,743.337 1607.361,747.898 1607.324,752.46 1607.284,757.022 1607.24,761.584 1607.193,766.145 1607.142,770.707 1607.088,775.269 1607.031,779.831 1606.97,784.392 1606.906,788.954 1606.839,793.516 1606.768,798.078 1606.694,802.639 1606.616,807.201 1606.535,811.763 1606.451,816.325 1606.363,820.886 1606.272,825.448 1606.178,830.01 1606.08,834.572 1605.979,839.133 1605.874,843.695 1605.766,848.257 1605.655,852.819 1605.54,857.38 1605.422,861.942 1605.3,866.504 1605.176,871.065 1605.047,875.627 1604.916,880.189 1604.781,884.751 1604.642,889.312 1604.501,893.874 1604.356,898.436 1604.207,902.998 1604.055,907.559 1603.9,912.121 1603.741,916.683 1603.579,921.245 1603.414,925.806 "/>
        </g>
        <g>
            <polyline fill="none" stroke="#7f7fff"
                      points="1603.144,473.169 1604.853,477.752 1606.522,482.334 1608.152,486.917 1609.743,491.499 1611.295,496.082 1612.809,500.664 1614.285,505.247 1615.724,509.829 1617.124,514.411 1618.488,518.994 1619.815,523.576 1621.104,528.159 1622.358,532.741 1623.575,537.324 1624.756,541.906 1625.901,546.488 1627.01,551.071 1628.084,555.653 1629.122,560.236 1630.126,564.818 1631.094,569.401 1632.028,573.983 1632.927,578.565 1633.791,583.148 1634.621,587.73 1635.417,592.313 1636.179,596.895 1636.907,601.478 1637.601,606.06 1638.261,610.643 1638.888,615.225 1639.481,619.807 1640.04,624.39 1640.566,628.972 1641.059,633.555 1641.519,638.137 1641.946,642.72 1642.339,647.302 1642.7,651.884 1643.027,656.467 1643.322,661.049 1643.584,665.632 1643.813,670.214 1644.009,674.797 1644.172,679.379 1644.303,683.961 1644.401,688.544 1644.467,693.126 1644.499,697.709 1644.499,702.291 1644.467,706.874 1644.401,711.456 1644.303,716.039 1644.172,720.621 1644.009,725.203 1643.813,729.786 1643.584,734.368 1643.322,738.951 1643.027,743.533 1642.7,748.116 1642.339,752.698 1641.946,757.28 1641.519,761.863 1641.059,766.445 1640.566,771.028 1640.04,775.61 1639.481,780.193 1638.888,784.775 1638.261,789.357 1637.601,793.94 1636.907,798.522 1636.179,803.105 1635.417,807.687 1634.621,812.27 1633.791,816.852 1632.927,821.435 1632.028,826.017 1631.094,830.599 1630.126,835.182 1629.122,839.764 1628.084,844.347 1627.01,848.929 1625.901,853.512 1624.756,858.094 1623.575,862.676 1622.358,867.259 1621.104,871.841 1619.815,876.424 1618.488,881.006 1617.124,885.589 1615.724,890.171 1614.285,894.753 1612.809,899.336 1611.295,903.918 1609.743,908.501 1608.152,913.083 1606.522,917.666 1604.853,922.248 1603.144,926.831 "/>
            <line x1="1603.144" y1="461.649" x2="1603.144" y2="473.169" stroke="#7f7fff"/>
            <line x1="1603.144" y1="461.649" x2="1668.825" y2="461.649" stroke="#7f7fff"/>
            <line x1="1603.144" y1="938.351" x2="1603.144" y2="926.831" stroke="#7f7fff"/>
            <line x1="1603.144" y1="938.351" x2="1668.825" y2="938.351" stroke="#7f7fff"/>
            <polyline fill="none" stroke="#7f7fff"
                      points="1668.825,461.649 1668.825,466.464 1668.825,471.279 1668.825,476.094 1668.825,480.909 1668.825,485.725 1668.825,490.54 1668.825,495.355 1668.825,500.17 1668.825,504.985 1668.825,509.801 1668.825,514.616 1668.825,519.431 1668.825,524.246 1668.825,529.061 1668.825,533.876 1668.825,538.692 1668.825,543.507 1668.825,548.322 1668.825,553.137 1668.825,557.952 1668.825,562.767 1668.825,567.583 1668.825,572.398 1668.825,577.213 1668.825,582.028 1668.825,586.843 1668.825,591.659 1668.825,596.474 1668.825,601.289 1668.825,606.104 1668.825,610.919 1668.825,615.734 1668.825,620.55 1668.825,625.365 1668.825,630.18 1668.825,634.995 1668.825,639.81 1668.825,644.625 1668.825,649.441 1668.825,654.256 1668.825,659.071 1668.825,663.886 1668.825,668.701 1668.825,673.517 1668.825,678.332 1668.825,683.147 1668.825,687.962 1668.825,692.777 1668.825,697.592 1668.825,702.408 1668.825,707.223 1668.825,712.038 1668.825,716.853 1668.825,721.668 1668.825,726.483 1668.825,731.299 1668.825,736.114 1668.825,740.929 1668.825,745.744 1668.825,750.559 1668.825,755.375 1668.825,760.19 1668.825,765.005 1668.825,769.82 1668.825,774.635 1668.825,779.45 1668.825,784.266 1668.825,789.081 1668.825,793.896 1668.825,798.711 1668.825,803.526 1668.825,808.341 1668.825,813.157 1668.825,817.972 1668.825,822.787 1668.825,827.602 1668.825,832.417 1668.825,837.233 1668.825,842.048 1668.825,846.863 1668.825,851.678 1668.825,856.493 1668.825,861.308 1668.825,866.124 1668.825,870.939 1668.825,875.754 1668.825,880.569 1668.825,885.384 1668.825,890.199 1668.825,895.015 1668.825,899.83 1668.825,904.645 1668.825,909.46 1668.825,914.275 1668.825,919.091 1668.825,923.906 1668.825,928.721 1668.825,933.536 1668.825,938.351 "/>
        </g>
        <g>
            <polyline fill="none" stroke="#7f7fff"
                      points="1803.234,414.414 1803.234,420.183 1803.234,425.953 1803.234,431.722 1803.234,437.491 1803.234,443.261 1803.234,449.03 1803.234,454.8 1803.234,460.569 1803.234,466.339 1803.234,472.108 1803.234,477.877 1803.234,483.647 1803.234,489.416 1803.234,495.186 1803.234,500.955 1803.234,506.724 1803.234,512.494 1803.234,518.263 1803.234,524.033 1803.234,529.802 1803.234,535.572 1803.234,541.341 1803.234,547.11 1803.234,552.88 1803.234,558.649 1803.234,564.419 1803.234,570.188 1803.234,575.957 1803.234,581.727 1803.234,587.496 1803.234,593.266 1803.234,599.035 1803.234,604.805 1803.234,610.574 1803.234,616.343 1803.234,622.113 1803.234,627.882 1803.234,633.652 1803.234,639.421 1803.234,645.191 1803.234,650.96 1803.234,656.729 1803.234,662.499 1803.234,668.268 1803.234,674.038 1803.234,679.807 1803.234,685.576 1803.234,691.346 1803.234,697.115 1803.234,702.885 1803.234,708.654 1803.234,714.424 1803.234,720.193 1803.234,725.962 1803.234,731.732 1803.234,737.501 1803.234,743.271 1803.234,749.04 1803.234,754.809 1803.234,760.579 1803.234,766.348 1803.234,772.118 1803.234,777.887 1803.234,783.657 1803.234,789.426 1803.234,795.195 1803.234,800.965 1803.234,806.734 1803.234,812.504 1803.234,818.273 1803.234,824.043 1803.234,829.812 1803.234,835.581 1803.234,841.351 1803.234,847.12 1803.234,852.89 1803.234,858.659 1803.234,864.428 1803.234,870.198 1803.234,875.967 1803.234,881.737 1803.234,887.506 1803.234,893.276 1803.234,899.045 1803.234,904.814 1803.234,910.584 1803.234,916.353 1803.234,922.123 1803.234,927.892 1803.234,933.661 1803.234,939.431 1803.234,945.2 1803.234,950.97 1803.234,956.739 1803.234,962.509 1803.234,968.278 1803.234,974.047 1803.234,979.817 1803.234,985.586 "/>
            <line x1="1803.234" y1="414.414" x2="1823.715" y2="414.414" stroke="#7f7fff"/>
            <line x1="1803.234" y1="985.586" x2="1823.715" y2="985.586" stroke="#7f7fff"/>
            <polyline fill="none" stroke="#7f7fff"
                      points="1823.715,414.414 1823.715,420.183 1823.715,425.953 1823.715,431.722 1823.715,437.491 1823.715,443.261 1823.715,449.03 1823.715,454.8 1823.715,460.569 1823.715,466.339 1823.715,472.108 1823.715,477.877 1823.715,483.647 1823.715,489.416 1823.715,495.186 1823.715,500.955 1823.715,506.724 1823.715,512.494 1823.715,518.263 1823.715,524.033 1823.715,529.802 1823.715,535.572 1823.715,541.341 1823.715,547.11 1823.715,552.88 1823.715,558.649 1823.715,564.419 1823.715,570.188 1823.715,575.957 1823.715,581.727 1823.715,587.496 1823.715,593.266 1823.715,599.035 1823.715,604.805 1823.715,610.574 1823.715,616.343 1823.715,622.113 1823.715,627.882 1823.715,633.652 1823.715,639.421 1823.715,645.191 1823.715,650.96 1823.715,656.729 1823.715,662.499 1823.715,668.268 1823.715,674.038 1823.715,679.807 1823.715,685.576 1823.715,691.346 1823.715,697.115 1823.715,702.885 1823.715,708.654 1823.715,714.424 1823.715,720.193 1823.715,725.962 1823.715,731.732 1823.715,737.501 1823.715,743.271 1823.715,749.04 1823.715,754.809 1823.715,760.579 1823.715,766.348 1823.715,772.118 1823.715,777.887 1823.715,783.657 1823.715,789.426 1823.715,795.195 1823.715,800.965 1823.715,806.734 1823.715,812.504 1823.715,818.273 1823.715,824.043 1823.715,829.812 1823.715,835.581 1823.715,841.351 1823.715,847.12 1823.715,852.89 1823.715,858.659 1823.715,864.428 1823.715,870.198 1823.715,875.967 1823.715,881.737 1823.715,887.506 1823.715,893.276 1823.715,899.045 1823.715,904.814 1823.715,910.584 1823.715,916.353 1823.715,922.123 1823.715,927.892 1823.715,933.661 1823.715,939.431 1823.715,945.2 1823.715,950.97 1823.715,956.739 1823.715,962.509 1823.715,968.278 1823.715,974.047 1823.715,979.817 1823.715,985.586 "/>
        </g>
    </g>
    <g>
        <title>element</title>
        <polyline fill="none" stroke="#7f7fff"
                  points="1836.516,144.444 1836.516,155.668 1836.516,166.891 1836.516,178.114 1836.516,189.338 1836.516,200.561 1836.516,211.785 1836.516,223.008 1836.516,234.231 1836.516,245.455 1836.516,256.678 1836.516,267.901 1836.516,279.125 1836.516,290.348 1836.516,301.571 1836.516,312.795 1836.516,324.018 1836.516,335.241 1836.516,346.465 1836.516,357.688 1836.516,368.911 1836.516,380.135 1836.516,391.358 1836.516,402.581 1836.516,413.805 1836.516,425.028 1836.516,436.251 1836.516,447.475 1836.516,458.698 1836.516,469.921 1836.516,481.145 1836.516,492.368 1836.516,503.591 1836.516,514.815 1836.516,526.038 1836.516,537.262 1836.516,548.485 1836.516,559.708 1836.516,570.932 1836.516,582.155 1836.516,593.378 1836.516,604.602 1836.516,615.825 1836.516,627.048 1836.516,638.272 1836.516,649.495 1836.516,660.718 1836.516,671.942 1836.516,683.165 1836.516,694.388 1836.516,705.612 1836.516,716.835 1836.516,728.058 1836.516,739.282 1836.516,750.505 1836.516,761.728 1836.516,772.952 1836.516,784.175 1836.516,795.398 1836.516,806.622 1836.516,817.845 1836.516,829.068 1836.516,840.292 1836.516,851.515 1836.516,862.738 1836.516,873.962 1836.516,885.185 1836.516,896.409 1836.516,907.632 1836.516,918.855 1836.516,930.079 1836.516,941.302 1836.516,952.525 1836.516,963.749 1836.516,974.972 1836.516,986.195 1836.516,997.419 1836.516,1008.642 1836.516,1019.865 1836.516,1031.089 1836.516,1042.312 1836.516,1053.535 1836.516,1064.759 1836.516,1075.982 1836.516,1087.205 1836.516,1098.429 1836.516,1109.652 1836.516,1120.875 1836.516,1132.099 1836.516,1143.322 1836.516,1154.545 1836.516,1165.769 1836.516,1176.992 1836.516,1188.215 1836.516,1199.439 1836.516,1210.662 1836.516,1221.886 1836.516,1233.109 1836.516,1244.332 1836.516,1255.556 "/>
    </g>
</svg>
