<?xml version="1.0" standalone="no"?>
<svg width="2400px" height="1400px" version="1.1" xmlns="http://www.w3.org/2000/svg" xmlns:xlink="http://www.w3.org/1999/xlink">
<rect x="0" y="0" width="2400" height="1400"  fill="#ffffff" />
<defs>
<g id="dot">
<line x1="1" y1="1" x2="0" y2="0"  />
</g>
<g id="cross">
<line x1="-3" y1="0" x2="3" y2="0"  />
<line x1="0" y1="-3" x2="0" y2="3"  />
</g>
<g id="square">
<line x1="-3" y1="-3" x2="-3" y2="3"  />
<line x1="-3" y1="3" x2="3" y2="3"  />
<line x1="3" y1="3" x2="3" y2="-3"  />
<line x1="3" y1="-3" x2="-3" y2="-3"  />
</g>
<g id="round">
<ellipse cx="0" cy="0" rx="3" ry="3"  fill="none" /></g>
<g id="triangle">
<line x1="0" y1="-3" x2="-3" y2="3"  />
<line x1="-3" y1="3" x2="3" y2="3"  />
<line x1="0" y1="-3" x2="3" y2="3"  />
</g>
</defs>
<line x1="713.738" y1="700" x2="1686.262" y2="700"  stroke="#7f7f7f" />
<g><title>element</title>
<g>
<line x1="1041.2" y1="539.249" x2="1041.2" y2="378.498"  stroke="#7f7fff" />
<line x1="1041.2" y1="860.751" x2="1041.2" y2="1021.502"  stroke="#7f7fff" />
</g>
<g>
<polyline fill="none" stroke="#7f7fff" points="738.586,487.809 739.566,492.095 740.525,496.382 741.463,500.669 742.38,504.955 743.276,509.242 744.151,513.529 745.006,517.816 745.84,522.102 746.654,526.389 747.447,530.676 748.219,534.962 748.972,539.249 749.703,543.536 750.415,547.822 751.106,552.109 751.777,556.396 752.427,560.682 753.058,564.969 753.668,569.256 754.259,573.543 754.829,577.829 755.379,582.116 755.91,586.403 756.42,590.689 756.911,594.976 757.381,599.263 757.832,603.549 758.263,607.836 758.674,612.123 759.066,616.409 759.438,620.696 759.79,624.983 760.122,629.27 760.435,633.556 760.728,637.843 761.002,642.13 761.255,646.416 761.49,650.703 761.704,654.99 761.9,659.276 762.075,663.563 762.231,667.85 762.368,672.136 762.485,676.423 762.582,680.71 762.66,684.997 762.719,689.283 762.758,693.57 762.777,697.857 762.777,702.143 762.758,706.43 762.719,710.717 762.66,715.003 762.582,719.29 762.485,723.577 762.368,727.864 762.231,732.15 762.075,736.437 761.9,740.724 761.704,745.01 761.49,749.297 761.255,753.584 761.002,757.87 760.728,762.157 760.435,766.444 760.122,770.73 759.79,775.017 759.438,779.304 759.066,783.591 758.674,787.877 758.263,792.164 757.832,796.451 757.381,800.737 756.911,805.024 756.42,809.311 755.91,813.597 755.379,817.884 754.829,822.171 754.259,826.457 753.668,830.744 753.058,835.031 752.427,839.318 751.777,843.604 751.106,847.891 750.415,852.178 749.703,856.464 748.972,860.751 748.219,865.038 747.447,869.324 746.654,873.611 745.84,877.898 745.006,882.184 744.151,886.471 743.276,890.758 742.38,895.045 741.463,899.331 740.525,903.618 739.566,907.905 738.586,912.191 " />
<line x1="738.586" y1="487.809" x2="810.74" y2="487.809"  stroke="#7f7fff" />
<line x1="738.586" y1="912.191" x2="810.74" y2="912.191"  stroke="#7f7fff" />
<polyline fill="none" stroke="#7f7fff" points="810.74,487.809 809.519,492.095 808.324,496.382 807.156,500.669 806.015,504.955 804.9,509.242 803.812,513.529 802.75,517.816 801.714,522.102 800.704,526.389 799.72,530.676 798.762,534.962 797.83,539.249 796.923,543.536 796.042,547.822 795.187,552.109 794.356,556.396 793.551,560.682 792.772,564.969 792.017,569.256 791.287,573.543 790.583,577.829 789.903,582.116 789.248,586.403 788.618,590.689 788.013,594.976 787.432,599.263 786.876,603.549 786.345,607.836 785.838,612.123 785.355,616.409 784.897,620.696 784.464,624.983 784.054,629.27 783.669,633.556 783.308,637.843 782.972,642.13 782.659,646.416 782.371,650.703 782.106,654.99 781.866,659.276 781.65,663.563 781.458,667.85 781.29,672.136 781.146,676.423 781.027,680.71 780.931,684.997 780.859,689.283 780.811,693.57 780.787,697.857 780.787,702.143 780.811,706.43 780.859,710.717 780.931,715.003 781.027,719.29 781.146,723.577 781.29,727.864 781.458,732.15 781.65,736.437 781.866,740.724 782.106,745.01 782.371,749.297 782.659,753.584 782.972,757.87 783.308,762.157 783.669,766.444 784.054,770.73 784.464,775.017 784.897,779.304 785.355,783.591 785.838,787.877 786.345,792.164 786.876,796.451 787.432,800.737 788.013,805.024 788.618,809.311 789.248,813.597 789.903,817.884 790.583,822.171 791.287,826.457 792.017,830.744 792.772,835.031 793.551,839.318 794.356,843.604 795.187,847.891 796.042,852.178 796.923,856.464 797.83,860.751 798.762,865.038 799.72,869.324 800.704,873.611 801.714,877.898 802.75,882.184 803.812,886.471 804.9,890.758 806.015,895.045 807.156,899.331 808.324,903.618 809.519,907.905 810.74,912.191 " />
</g>
<g>
<polyline fill="none" stroke="#7f7fff" points="828.406,500.669 827.075,504.696 825.853,508.723 824.724,512.749 823.673,516.776 822.688,520.803 821.759,524.83 820.878,528.857 820.037,532.884 819.23,536.911 818.453,540.938 817.702,544.965 816.973,548.991 816.264,553.018 815.573,557.045 814.899,561.072 814.241,565.099 813.598,569.126 812.97,573.153 812.356,577.18 811.756,581.207 811.171,585.234 810.6,589.26 810.044,593.287 809.503,597.314 808.978,601.341 808.469,605.368 807.977,609.395 807.502,613.422 807.044,617.449 806.605,621.476 806.184,625.502 805.783,629.529 805.401,633.556 805.04,637.583 804.699,641.61 804.379,645.637 804.081,649.664 803.804,653.691 803.549,657.718 803.317,661.745 803.108,665.771 802.921,669.798 802.757,673.825 802.616,677.852 802.499,681.879 802.404,685.906 802.334,689.933 802.287,693.96 802.263,697.987 802.263,702.013 802.287,706.04 802.334,710.067 802.404,714.094 802.499,718.121 802.616,722.148 802.757,726.175 802.921,730.202 803.108,734.229 803.317,738.255 803.549,742.282 803.804,746.309 804.081,750.336 804.379,754.363 804.699,758.39 805.04,762.417 805.401,766.444 805.783,770.471 806.184,774.498 806.605,778.524 807.044,782.551 807.502,786.578 807.977,790.605 808.469,794.632 808.978,798.659 809.503,802.686 810.044,806.713 810.6,810.74 811.171,814.766 811.756,818.793 812.356,822.82 812.97,826.847 813.598,830.874 814.241,834.901 814.899,838.928 815.573,842.955 816.264,846.982 816.973,851.009 817.702,855.035 818.453,859.062 819.23,863.089 820.037,867.116 820.878,871.143 821.759,875.17 822.688,879.197 823.673,883.224 824.724,887.251 825.853,891.277 827.075,895.304 828.406,899.331 " />
<line x1="828.406" y1="500.669" x2="855.301" y2="500.669"  stroke="#7f7fff" />
<line x1="828.406" y1="899.331" x2="855.301" y2="899.331"  stroke="#7f7fff" />
<polyline fill="none" stroke="#7f7fff" points="855.301,500.669 854.327,504.696 853.498,508.723 852.789,512.749 852.183,516.776 851.662,520.803 851.212,524.83 850.821,528.857 850.479,532.884 850.178,536.911 849.912,540.938 849.674,544.965 849.46,548.991 849.265,553.018 849.087,557.045 848.923,561.072 848.771,565.099 848.628,569.126 848.494,573.153 848.368,577.18 848.247,581.207 848.132,585.234 848.023,589.26 847.917,593.287 847.816,597.314 847.719,601.341 847.625,605.368 847.535,609.395 847.448,613.422 847.365,617.449 847.285,621.476 847.208,625.502 847.135,629.529 847.066,633.556 847,637.583 846.939,641.61 846.881,645.637 846.826,649.664 846.776,653.691 846.73,657.718 846.688,661.745 846.651,665.771 846.617,669.798 846.588,673.825 846.562,677.852 846.541,681.879 846.525,685.906 846.512,689.933 846.504,693.96 846.499,697.987 846.499,702.013 846.504,706.04 846.512,710.067 846.525,714.094 846.541,718.121 846.562,722.148 846.588,726.175 846.617,730.202 846.651,734.229 846.688,738.255 846.73,742.282 846.776,746.309 846.826,750.336 846.881,754.363 846.939,758.39 847,762.417 847.066,766.444 847.135,770.471 847.208,774.498 847.285,778.524 847.365,782.551 847.448,786.578 847.535,790.605 847.625,794.632 847.719,798.659 847.816,802.686 847.917,806.713 848.023,810.74 848.132,814.766 848.247,818.793 848.368,822.82 848.494,826.847 848.628,830.874 848.771,834.901 848.923,838.928 849.087,842.955 849.265,846.982 849.46,851.009 849.674,855.035 849.912,859.062 850.178,863.089 850.479,867.116 850.821,871.143 851.212,875.17 851.662,879.197 852.183,883.224 852.789,887.251 853.498,891.277 854.327,895.304 855.301,899.331 " />
</g>
<g>
<polyline fill="none" stroke="#7f7fff" points="905.521,481.379 903.172,485.795 900.883,490.212 898.655,494.628 896.485,499.045 894.373,503.462 892.319,507.878 890.321,512.295 888.379,516.711 886.491,521.128 884.658,525.545 882.878,529.961 881.151,534.378 879.475,538.794 877.852,543.211 876.279,547.628 874.757,552.044 873.284,556.461 871.861,560.877 870.486,565.294 869.16,569.71 867.882,574.127 866.652,578.544 865.469,582.96 864.332,587.377 863.242,591.793 862.198,596.21 861.2,600.627 860.247,605.043 859.339,609.46 858.477,613.876 857.659,618.293 856.885,622.71 856.156,627.126 855.47,631.543 854.829,635.959 854.231,640.376 853.676,644.793 853.165,649.209 852.696,653.626 852.271,658.042 851.889,662.459 851.549,666.876 851.252,671.292 850.998,675.709 850.786,680.125 850.616,684.542 850.489,688.959 850.404,693.375 850.362,697.792 850.362,702.208 850.404,706.625 850.489,711.041 850.616,715.458 850.786,719.875 850.998,724.291 851.252,728.708 851.549,733.124 851.889,737.541 852.271,741.958 852.696,746.374 853.165,750.791 853.676,755.207 854.231,759.624 854.829,764.041 855.47,768.457 856.156,772.874 856.885,777.29 857.659,781.707 858.477,786.124 859.339,790.54 860.247,794.957 861.2,799.373 862.198,803.79 863.242,808.207 864.332,812.623 865.469,817.04 866.652,821.456 867.882,825.873 869.16,830.29 870.486,834.706 871.861,839.123 873.284,843.539 874.757,847.956 876.279,852.372 877.852,856.789 879.475,861.206 881.151,865.622 882.878,870.039 884.658,874.455 886.491,878.872 888.379,883.289 890.321,887.705 892.319,892.122 894.373,896.538 896.485,900.955 898.655,905.372 900.883,909.788 903.172,914.205 905.521,918.621 " />
<line x1="905.521" y1="481.379" x2="919.815" y2="481.379"  stroke="#7f7fff" />
<line x1="905.521" y1="918.621" x2="919.815" y2="918.621"  stroke="#7f7fff" />
<polyline fill="none" stroke="#7f7fff" points="919.815,481.379 920.419,485.795 921.011,490.212 921.59,494.628 922.156,499.045 922.71,503.462 923.251,507.878 923.78,512.295 924.296,516.711 924.8,521.128 925.292,525.545 925.771,529.961 926.238,534.378 926.692,538.794 927.134,543.211 927.563,547.628 927.98,552.044 928.385,556.461 928.777,560.877 929.157,565.294 929.525,569.71 929.88,574.127 930.223,578.544 930.554,582.96 930.872,587.377 931.178,591.793 931.472,596.21 931.753,600.627 932.023,605.043 932.279,609.46 932.524,613.876 932.756,618.293 932.976,622.71 933.184,627.126 933.38,631.543 933.563,635.959 933.734,640.376 933.893,644.793 934.04,649.209 934.174,653.626 934.296,658.042 934.406,662.459 934.504,666.876 934.59,671.292 934.663,675.709 934.724,680.125 934.773,684.542 934.809,688.959 934.834,693.375 934.846,697.792 934.846,702.208 934.834,706.625 934.809,711.041 934.773,715.458 934.724,719.875 934.663,724.291 934.59,728.708 934.504,733.124 934.406,737.541 934.296,741.958 934.174,746.374 934.04,750.791 933.893,755.207 933.734,759.624 933.563,764.041 933.38,768.457 933.184,772.874 932.976,777.29 932.756,781.707 932.524,786.124 932.279,790.54 932.023,794.957 931.753,799.373 931.472,803.79 931.178,808.207 930.872,812.623 930.554,817.04 930.223,821.456 929.88,825.873 929.525,830.29 929.157,834.706 928.777,839.123 928.385,843.539 927.98,847.956 927.563,852.372 927.134,856.789 926.692,861.206 926.238,865.622 925.771,870.039 925.292,874.455 924.8,878.872 924.296,883.289 923.78,887.705 923.251,892.122 922.71,896.538 922.156,900.955 921.59,905.372 921.011,909.788 920.419,914.205 919.815,918.621 " />
</g>
<g>
<polyline fill="none" stroke="#7f7fff" points="965.728,481.379 964.551,485.795 963.399,490.212 962.272,494.628 961.171,499.045 960.095,503.462 959.045,507.878 958.02,512.295 957.02,516.711 956.045,521.128 955.094,525.545 954.169,529.961 953.268,534.378 952.392,538.794 951.541,543.211 950.714,547.628 949.911,552.044 949.133,556.461 948.379,560.877 947.649,565.294 946.944,569.71 946.262,574.127 945.605,578.544 944.971,582.96 944.362,587.377 943.776,591.793 943.214,596.21 942.676,600.627 942.162,605.043 941.671,609.46 941.204,613.876 940.76,618.293 940.34,622.71 939.944,627.126 939.571,631.543 939.222,635.959 938.896,640.376 938.593,644.793 938.314,649.209 938.058,653.626 937.825,658.042 937.616,662.459 937.43,666.876 937.267,671.292 937.128,675.709 937.012,680.125 936.919,684.542 936.849,688.959 936.803,693.375 936.779,697.792 936.779,702.208 936.803,706.625 936.849,711.041 936.919,715.458 937.012,719.875 937.128,724.291 937.267,728.708 937.43,733.124 937.616,737.541 937.825,741.958 938.058,746.374 938.314,750.791 938.593,755.207 938.896,759.624 939.222,764.041 939.571,768.457 939.944,772.874 940.34,777.29 940.76,781.707 941.204,786.124 941.671,790.54 942.162,794.957 942.676,799.373 943.214,803.79 943.776,808.207 944.362,812.623 944.971,817.04 945.605,821.456 946.262,825.873 946.944,830.29 947.649,834.706 948.379,839.123 949.133,843.539 949.911,847.956 950.714,852.372 951.541,856.789 952.392,861.206 953.268,865.622 954.169,870.039 955.094,874.455 956.045,878.872 957.02,883.289 958.02,887.705 959.045,892.122 960.095,896.538 961.171,900.955 962.272,905.372 963.399,909.788 964.551,914.205 965.728,918.621 " />
<line x1="1042.579" y1="481.379" x2="1042.579" y2="506.713"  stroke="#7f7fff" />
<line x1="965.728" y1="481.379" x2="1042.579" y2="481.379"  stroke="#7f7fff" />
<line x1="1042.579" y1="918.621" x2="1042.579" y2="893.287"  stroke="#7f7fff" />
<line x1="965.728" y1="918.621" x2="1042.579" y2="918.621"  stroke="#7f7fff" />
<polyline fill="none" stroke="#7f7fff" points="1042.579,506.713 1038.115,510.618 1033.854,514.523 1029.78,518.427 1025.881,522.332 1022.146,526.237 1018.566,530.142 1015.131,534.046 1011.834,537.951 1008.668,541.856 1005.627,545.761 1002.706,549.666 999.899,553.57 997.202,557.475 994.611,561.38 992.121,565.285 989.73,569.19 987.434,573.094 985.23,576.999 983.116,580.904 981.089,584.809 979.146,588.714 977.286,592.618 975.506,596.523 973.805,600.428 972.181,604.333 970.633,608.237 969.158,612.142 967.756,616.047 966.426,619.952 965.165,623.857 963.974,627.761 962.85,631.666 961.794,635.571 960.804,639.476 959.88,643.381 959.02,647.285 958.224,651.19 957.492,655.095 956.823,659 956.216,662.905 955.671,666.809 955.187,670.714 954.765,674.619 954.403,678.524 954.103,682.428 953.862,686.333 953.682,690.238 953.562,694.143 953.502,698.048 953.502,701.952 953.562,705.857 953.682,709.762 953.862,713.667 954.103,717.572 954.403,721.476 954.765,725.381 955.187,729.286 955.671,733.191 956.216,737.095 956.823,741 957.492,744.905 958.224,748.81 959.02,752.715 959.88,756.619 960.804,760.524 961.794,764.429 962.85,768.334 963.974,772.239 965.165,776.143 966.426,780.048 967.756,783.953 969.158,787.858 970.633,791.763 972.181,795.667 973.805,799.572 975.506,803.477 977.286,807.382 979.146,811.286 981.089,815.191 983.116,819.096 985.23,823.001 987.434,826.906 989.73,830.81 992.121,834.715 994.611,838.62 997.202,842.525 999.899,846.43 1002.706,850.334 1005.627,854.239 1008.668,858.144 1011.834,862.049 1015.131,865.954 1018.566,869.858 1022.146,873.763 1025.881,877.668 1029.78,881.573 1033.854,885.477 1038.115,889.382 1042.579,893.287 " />
</g>
<g>
<polyline fill="none" stroke="#7f7fff" points="1060.478,512.243 1062.494,516.036 1064.458,519.829 1066.37,523.622 1068.232,527.415 1070.044,531.208 1071.806,535.001 1073.521,538.794 1075.187,542.587 1076.807,546.38 1078.38,550.174 1079.908,553.967 1081.39,557.76 1082.827,561.553 1084.221,565.346 1085.57,569.139 1086.877,572.932 1088.14,576.725 1089.362,580.518 1090.541,584.311 1091.679,588.104 1092.776,591.897 1093.832,595.69 1094.847,599.484 1095.822,603.277 1096.758,607.07 1097.654,610.863 1098.51,614.656 1099.328,618.449 1100.107,622.242 1100.847,626.035 1101.549,629.828 1102.213,633.621 1102.839,637.414 1103.427,641.207 1103.978,645 1104.491,648.793 1104.967,652.587 1105.406,656.38 1105.808,660.173 1106.173,663.966 1106.501,667.759 1106.793,671.552 1107.047,675.345 1107.266,679.138 1107.448,682.931 1107.593,686.724 1107.702,690.517 1107.775,694.31 1107.811,698.103 1107.811,701.897 1107.775,705.69 1107.702,709.483 1107.593,713.276 1107.448,717.069 1107.266,720.862 1107.047,724.655 1106.793,728.448 1106.501,732.241 1106.173,736.034 1105.808,739.827 1105.406,743.62 1104.967,747.413 1104.491,751.207 1103.978,755 1103.427,758.793 1102.839,762.586 1102.213,766.379 1101.549,770.172 1100.847,773.965 1100.107,777.758 1099.328,781.551 1098.51,785.344 1097.654,789.137 1096.758,792.93 1095.822,796.723 1094.847,800.516 1093.832,804.31 1092.776,808.103 1091.679,811.896 1090.541,815.689 1089.362,819.482 1088.14,823.275 1086.877,827.068 1085.57,830.861 1084.221,834.654 1082.827,838.447 1081.39,842.24 1079.908,846.033 1078.38,849.826 1076.807,853.62 1075.187,857.413 1073.521,861.206 1071.806,864.999 1070.044,868.792 1068.232,872.585 1066.37,876.378 1064.458,880.171 1062.494,883.964 1060.478,887.757 " />
<line x1="1060.478" y1="512.243" x2="1163.063" y2="512.243"  stroke="#7f7fff" />
<line x1="1060.478" y1="887.757" x2="1163.063" y2="887.757"  stroke="#7f7fff" />
<polyline fill="none" stroke="#7f7fff" points="1163.063,512.243 1161.399,516.036 1159.775,519.829 1158.191,523.622 1156.646,527.415 1155.14,531.208 1153.673,535.001 1152.244,538.794 1150.852,542.587 1149.499,546.38 1148.182,550.174 1146.902,553.967 1145.658,557.76 1144.45,561.553 1143.278,565.346 1142.142,569.139 1141.041,572.932 1139.975,576.725 1138.944,580.518 1137.947,584.311 1136.984,588.104 1136.056,591.897 1135.161,595.69 1134.3,599.484 1133.472,603.277 1132.678,607.07 1131.917,610.863 1131.188,614.656 1130.493,618.449 1129.83,622.242 1129.199,626.035 1128.601,629.828 1128.035,633.621 1127.501,637.414 1126.999,641.207 1126.529,645 1126.09,648.793 1125.684,652.587 1125.309,656.38 1124.965,660.173 1124.653,663.966 1124.373,667.759 1124.123,671.552 1123.905,675.345 1123.718,679.138 1123.563,682.931 1123.438,686.724 1123.345,690.517 1123.283,694.31 1123.252,698.103 1123.252,701.897 1123.283,705.69 1123.345,709.483 1123.438,713.276 1123.563,717.069 1123.718,720.862 1123.905,724.655 1124.123,728.448 1124.373,732.241 1124.653,736.034 1124.965,739.827 1125.309,743.62 1125.684,747.413 1126.09,751.207 1126.529,755 1126.999,758.793 1127.501,762.586 1128.035,766.379 1128.601,770.172 1129.199,773.965 1129.83,777.758 1130.493,781.551 1131.188,785.344 1131.917,789.137 1132.678,792.93 1133.472,796.723 1134.3,800.516 1135.161,804.31 1136.056,808.103 1136.984,811.896 1137.947,815.689 1138.944,819.482 1139.975,823.275 1141.041,827.068 1142.142,830.861 1143.278,834.654 1144.45,838.447 1145.658,842.24 1146.902,846.033 1148.182,849.826 1149.499,853.62 1150.852,857.413 1152.244,861.206 1153.673,864.999 1155.14,868.792 1156.646,872.585 1158.191,876.378 1159.775,880.171 1161.399,883.964 1163.063,887.757 " />
<line x1="1163.063" y1="512.243" x2="1193.088" y2="512.243"  stroke="#7f7fff" />
<line x1="1163.063" y1="887.757" x2="1193.088" y2="887.757"  stroke="#7f7fff" />
<polyline fill="none" stroke="#7f7fff" points="1193.088,512.243 1194.825,516.036 1196.519,519.829 1198.171,523.622 1199.781,527.415 1201.351,531.208 1202.879,535.001 1204.368,538.794 1205.817,542.587 1207.226,546.38 1208.597,550.174 1209.929,553.967 1211.223,557.76 1212.479,561.553 1213.697,565.346 1214.879,569.139 1216.023,572.932 1217.131,576.725 1218.203,580.518 1219.238,584.311 1220.238,588.104 1221.202,591.897 1222.131,595.69 1223.025,599.484 1223.884,603.277 1224.709,607.07 1225.499,610.863 1226.255,614.656 1226.976,618.449 1227.664,622.242 1228.318,626.035 1228.938,629.828 1229.525,633.621 1230.079,637.414 1230.599,641.207 1231.087,645 1231.541,648.793 1231.963,652.587 1232.351,656.38 1232.708,660.173 1233.031,663.966 1233.322,667.759 1233.58,671.552 1233.806,675.345 1234,679.138 1234.161,682.931 1234.29,686.724 1234.387,690.517 1234.451,694.31 1234.483,698.103 1234.483,701.897 1234.451,705.69 1234.387,709.483 1234.29,713.276 1234.161,717.069 1234,720.862 1233.806,724.655 1233.58,728.448 1233.322,732.241 1233.031,736.034 1232.708,739.827 1232.351,743.62 1231.963,747.413 1231.541,751.207 1231.087,755 1230.599,758.793 1230.079,762.586 1229.525,766.379 1228.938,770.172 1228.318,773.965 1227.664,777.758 1226.976,781.551 1226.255,785.344 1225.499,789.137 1224.709,792.93 1223.884,796.723 1223.025,800.516 1222.131,804.31 1221.202,808.103 1220.238,811.896 1219.238,815.689 1218.203,819.482 1217.131,823.275 1216.023,827.068 1214.879,830.861 1213.697,834.654 1212.479,838.447 1211.223,842.24 1209.929,846.033 1208.597,849.826 1207.226,853.62 1205.817,857.413 1204.368,861.206 1202.879,864.999 1201.351,868.792 1199.781,872.585 1198.171,876.378 1196.519,880.171 1194.825,883.964 1193.088,887.757 " />
</g>
<g>
<polyline fill="none" stroke="#7f7fff" points="1292.565,526.389 1290.44,529.896 1288.373,533.403 1286.364,536.911 1284.411,540.418 1282.513,543.925 1280.669,547.433 1278.878,550.94 1277.139,554.447 1275.451,557.955 1273.814,561.462 1272.226,564.969 1270.686,568.476 1269.195,571.984 1267.751,575.491 1266.353,578.998 1265.001,582.506 1263.695,586.013 1262.434,589.52 1261.217,593.027 1260.043,596.535 1258.913,600.042 1257.825,603.549 1256.78,607.057 1255.777,610.564 1254.816,614.071 1253.895,617.579 1253.016,621.086 1252.177,624.593 1251.378,628.1 1250.619,631.608 1249.899,635.115 1249.219,638.622 1248.578,642.13 1247.976,645.637 1247.412,649.144 1246.887,652.652 1246.4,656.159 1245.951,659.666 1245.541,663.173 1245.168,666.681 1244.832,670.188 1244.534,673.695 1244.274,677.203 1244.051,680.71 1243.865,684.217 1243.717,687.724 1243.605,691.232 1243.531,694.739 1243.494,698.246 1243.494,701.754 1243.531,705.261 1243.605,708.768 1243.717,712.276 1243.865,715.783 1244.051,719.29 1244.274,722.797 1244.534,726.305 1244.832,729.812 1245.168,733.319 1245.541,736.827 1245.951,740.334 1246.4,743.841 1246.887,747.348 1247.412,750.856 1247.976,754.363 1248.578,757.87 1249.219,761.378 1249.899,764.885 1250.619,768.392 1251.378,771.9 1252.177,775.407 1253.016,778.914 1253.895,782.421 1254.816,785.929 1255.777,789.436 1256.78,792.943 1257.825,796.451 1258.913,799.958 1260.043,803.465 1261.217,806.973 1262.434,810.48 1263.695,813.987 1265.001,817.494 1266.353,821.002 1267.751,824.509 1269.195,828.016 1270.686,831.524 1272.226,835.031 1273.814,838.538 1275.451,842.045 1277.139,845.553 1278.878,849.06 1280.669,852.567 1282.513,856.075 1284.411,859.582 1286.364,863.089 1288.373,866.597 1290.44,870.104 1292.565,873.611 " />
<line x1="1292.565" y1="526.389" x2="1316.804" y2="526.389"  stroke="#7f7fff" />
<line x1="1292.565" y1="873.611" x2="1316.804" y2="873.611"  stroke="#7f7fff" />
<polyline fill="none" stroke="#7f7fff" points="1316.804,526.389 1318.009,529.896 1319.187,533.403 1320.338,536.911 1321.461,540.418 1322.558,543.925 1323.628,547.433 1324.671,550.94 1325.689,554.447 1326.68,557.955 1327.645,561.462 1328.584,564.969 1329.497,568.476 1330.385,571.984 1331.247,575.491 1332.084,578.998 1332.896,582.506 1333.683,586.013 1334.444,589.52 1335.181,593.027 1335.893,596.535 1336.58,600.042 1337.243,603.549 1337.882,607.057 1338.496,610.564 1339.085,614.071 1339.651,617.579 1340.192,621.086 1340.709,624.593 1341.203,628.1 1341.672,631.608 1342.117,635.115 1342.539,638.622 1342.937,642.13 1343.311,645.637 1343.662,649.144 1343.989,652.652 1344.293,656.159 1344.573,659.666 1344.829,663.173 1345.062,666.681 1345.272,670.188 1345.458,673.695 1345.621,677.203 1345.761,680.71 1345.877,684.217 1345.971,687.724 1346.04,691.232 1346.087,694.739 1346.11,698.246 1346.11,701.754 1346.087,705.261 1346.04,708.768 1345.971,712.276 1345.877,715.783 1345.761,719.29 1345.621,722.797 1345.458,726.305 1345.272,729.812 1345.062,733.319 1344.829,736.827 1344.573,740.334 1344.293,743.841 1343.989,747.348 1343.662,750.856 1343.311,754.363 1342.937,757.87 1342.539,761.378 1342.117,764.885 1341.672,768.392 1341.203,771.9 1340.709,775.407 1340.192,778.914 1339.651,782.421 1339.085,785.929 1338.496,789.436 1337.882,792.943 1337.243,796.451 1336.58,799.958 1335.893,803.465 1335.181,806.973 1334.444,810.48 1333.683,813.987 1332.896,817.494 1332.084,821.002 1331.247,824.509 1330.385,828.016 1329.497,831.524 1328.584,835.031 1327.645,838.538 1326.68,842.045 1325.689,845.553 1324.671,849.06 1323.628,852.567 1322.558,856.075 1321.461,859.582 1320.338,863.089 1319.187,866.597 1318.009,870.104 1316.804,873.611 " />
<line x1="1316.804" y1="526.389" x2="1420.737" y2="526.389"  stroke="#7f7fff" />
<line x1="1316.804" y1="873.611" x2="1420.737" y2="873.611"  stroke="#7f7fff" />
<polyline fill="none" stroke="#7f7fff" points="1420.737,526.389 1418.435,529.896 1416.2,533.403 1414.03,536.911 1411.923,540.418 1409.878,543.925 1407.892,547.433 1405.966,550.94 1404.097,554.447 1402.285,557.955 1400.529,561.462 1398.826,564.969 1397.178,568.476 1395.582,571.984 1394.037,575.491 1392.543,578.998 1391.099,582.506 1389.705,586.013 1388.359,589.52 1387.061,593.027 1385.811,596.535 1384.607,600.042 1383.449,603.549 1382.337,607.057 1381.27,610.564 1380.247,614.071 1379.269,617.579 1378.334,621.086 1377.443,624.593 1376.594,628.1 1375.789,631.608 1375.025,635.115 1374.304,638.622 1373.624,642.13 1372.985,645.637 1372.388,649.144 1371.831,652.652 1371.315,656.159 1370.84,659.666 1370.404,663.173 1370.009,666.681 1369.654,670.188 1369.339,673.695 1369.063,677.203 1368.827,680.71 1368.63,684.217 1368.473,687.724 1368.355,691.232 1368.277,694.739 1368.237,698.246 1368.237,701.754 1368.277,705.261 1368.355,708.768 1368.473,712.276 1368.63,715.783 1368.827,719.29 1369.063,722.797 1369.339,726.305 1369.654,729.812 1370.009,733.319 1370.404,736.827 1370.84,740.334 1371.315,743.841 1371.831,747.348 1372.388,750.856 1372.985,754.363 1373.624,757.87 1374.304,761.378 1375.025,764.885 1375.789,768.392 1376.594,771.9 1377.443,775.407 1378.334,778.914 1379.269,782.421 1380.247,785.929 1381.27,789.436 1382.337,792.943 1383.449,796.451 1384.607,799.958 1385.811,803.465 1387.061,806.973 1388.359,810.48 1389.705,813.987 1391.099,817.494 1392.543,821.002 1394.037,824.509 1395.582,828.016 1397.178,831.524 1398.826,835.031 1400.529,838.538 1402.285,842.045 1404.097,845.553 1405.966,849.06 1407.892,852.567 1409.878,856.075 1411.923,859.582 1414.03,863.089 1416.2,866.597 1418.435,870.104 1420.737,873.611 " />
</g>
<g>
<polyline fill="none" stroke="#7f7fff" points="1417.512,532.819 1416.728,536.196 1415.955,539.574 1415.198,542.951 1414.464,546.329 1413.755,549.706 1413.074,553.083 1412.424,556.461 1411.807,559.838 1411.222,563.215 1410.671,566.593 1410.153,569.97 1409.668,573.348 1409.216,576.725 1408.795,580.102 1408.405,583.48 1408.045,586.857 1407.712,590.235 1407.406,593.612 1407.125,596.989 1406.868,600.367 1406.633,603.744 1406.419,607.122 1406.224,610.499 1406.047,613.876 1405.886,617.254 1405.74,620.631 1405.608,624.009 1405.489,627.386 1405.382,630.763 1405.285,634.141 1405.198,637.518 1405.121,640.896 1405.051,644.273 1404.989,647.65 1404.934,651.028 1404.885,654.405 1404.842,657.783 1404.804,661.16 1404.771,664.537 1404.742,667.915 1404.717,671.292 1404.695,674.67 1404.677,678.047 1404.662,681.424 1404.65,684.802 1404.641,688.179 1404.634,691.557 1404.629,694.934 1404.627,698.311 1404.627,701.689 1404.629,705.066 1404.634,708.443 1404.641,711.821 1404.65,715.198 1404.662,718.576 1404.677,721.953 1404.695,725.33 1404.717,728.708 1404.742,732.085 1404.771,735.463 1404.804,738.84 1404.842,742.217 1404.885,745.595 1404.934,748.972 1404.989,752.35 1405.051,755.727 1405.121,759.104 1405.198,762.482 1405.285,765.859 1405.382,769.237 1405.489,772.614 1405.608,775.991 1405.74,779.369 1405.886,782.746 1406.047,786.124 1406.224,789.501 1406.419,792.878 1406.633,796.256 1406.868,799.633 1407.125,803.011 1407.406,806.388 1407.712,809.765 1408.045,813.143 1408.405,816.52 1408.795,819.898 1409.216,823.275 1409.668,826.652 1410.153,830.03 1410.671,833.407 1411.222,836.785 1411.807,840.162 1412.424,843.539 1413.074,846.917 1413.755,850.294 1414.464,853.671 1415.198,857.049 1415.955,860.426 1416.728,863.804 1417.512,867.181 " />
<line x1="1417.512" y1="532.819" x2="1462.687" y2="532.819"  stroke="#7f7fff" />
<line x1="1417.512" y1="867.181" x2="1462.687" y2="867.181"  stroke="#7f7fff" />
<polyline fill="none" stroke="#7f7fff" points="1462.687,532.819 1460.648,536.196 1458.733,539.574 1456.94,542.951 1455.267,546.329 1453.709,549.706 1452.263,553.083 1450.924,556.461 1449.686,559.838 1448.545,563.215 1447.495,566.593 1446.531,569.97 1445.648,573.348 1444.842,576.725 1444.106,580.102 1443.438,583.48 1442.831,586.857 1442.282,590.235 1441.786,593.612 1441.339,596.989 1440.938,600.367 1440.578,603.744 1440.256,607.122 1439.968,610.499 1439.712,613.876 1439.485,617.254 1439.284,620.631 1439.106,624.009 1438.95,627.386 1438.813,630.763 1438.694,634.141 1438.589,637.518 1438.499,640.896 1438.422,644.273 1438.355,647.65 1438.299,651.028 1438.251,654.405 1438.212,657.783 1438.179,661.16 1438.151,664.537 1438.13,667.915 1438.112,671.292 1438.098,674.67 1438.087,678.047 1438.079,681.424 1438.073,684.802 1438.069,688.179 1438.065,691.557 1438.064,694.934 1438.063,698.311 1438.063,701.689 1438.064,705.066 1438.065,708.443 1438.069,711.821 1438.073,715.198 1438.079,718.576 1438.087,721.953 1438.098,725.33 1438.112,728.708 1438.13,732.085 1438.151,735.463 1438.179,738.84 1438.212,742.217 1438.251,745.595 1438.299,748.972 1438.355,752.35 1438.422,755.727 1438.499,759.104 1438.589,762.482 1438.694,765.859 1438.813,769.237 1438.95,772.614 1439.106,775.991 1439.284,779.369 1439.485,782.746 1439.712,786.124 1439.968,789.501 1440.256,792.878 1440.578,796.256 1440.938,799.633 1441.339,803.011 1441.786,806.388 1442.282,809.765 1442.831,813.143 1443.438,816.52 1444.106,819.898 1444.842,823.275 1445.648,826.652 1446.531,830.03 1447.495,833.407 1448.545,836.785 1449.686,840.162 1450.924,843.539 1452.263,846.917 1453.709,850.294 1455.267,853.671 1456.94,857.049 1458.733,860.426 1460.648,863.804 1462.687,867.181 " />
</g>
</g>
<g><title>element</title>
<polyline fill="none" stroke="#7f7fff" points="1686.262,144.444 1686.262,155.668 1686.262,166.891 1686.262,178.114 1686.262,189.338 1686.262,200.561 1686.262,211.785 1686.262,223.008 1686.262,234.231 1686.262,245.455 1686.262,256.678 1686.262,267.901 1686.262,279.125 1686.262,290.348 1686.262,301.571 1686.262,312.795 1686.262,324.018 1686.262,335.241 1686.262,346.465 1686.262,357.688 1686.262,368.911 1686.262,380.135 1686.262,391.358 1686.262,402.581 1686.262,413.805 1686.262,425.028 1686.262,436.251 1686.262,447.475 1686.262,458.698 1686.262,469.921 1686.262,481.145 1686.262,492.368 1686.262,503.591 1686.262,514.815 1686.262,526.038 1686.262,537.262 1686.262,548.485 1686.262,559.708 1686.262,570.932 1686.262,582.155 1686.262,593.378 1686.262,604.602 1686.262,615.825 1686.262,627.048 1686.262,638.272 1686.262,649.495 1686.262,660.718 1686.262,671.942 1686.262,683.165 1686.262,694.388 1686.262,705.612 1686.262,716.835 1686.262,728.058 1686.262,739.282 1686.262,750.505 1686.262,761.728 1686.262,772.952 1686.262,784.175 1686.262,795.398 1686.262,806.622 1686.262,817.845 1686.262,829.068 1686.262,840.292 1686.262,851.515 1686.262,862.738 1686.262,873.962 1686.262,885.185 1686.262,896.409 1686.262,907.632 1686.262,918.855 1686.262,930.079 1686.262,941.302 1686.262,952.525 1686.262,963.749 1686.262,974.972 1686.262,986.195 1686.262,997.419 1686.262,1008.642 1686.262,1019.865 1686.262,1031.089 1686.262,1042.312 1686.262,1053.535 1686.262,1064.759 1686.262,1075.982 1686.262,1087.205 1686.262,1098.429 1686.262,1109.652 1686.262,1120.875 1686.262,1132.099 1686.262,1143.322 1686.262,1154.545 1686.262,1165.769 1686.262,1176.992 1686.262,1188.215 1686.262,1199.439 1686.262,1210.662 1686.262,1221.886 1686.262,1233.109 1686.262,1244.332 1686.262,1255.556 " />
</g>
</svg>
