<?xml version="1.0" standalone="no"?>
<svg width="2400px" height="1400px" version="1.1" xmlns="http://www.w3.org/2000/svg" xmlns:xlink="http://www.w3.org/1999/xlink">
<rect x="0" y="0" width="2400" height="1400"  fill="#ffffff" />
<defs>
<g id="dot">
<line x1="1" y1="1" x2="0" y2="0"  />
</g>
<g id="cross">
<line x1="-3" y1="0" x2="3" y2="0"  />
<line x1="0" y1="-3" x2="0" y2="3"  />
</g>
<g id="square">
<line x1="-3" y1="-3" x2="-3" y2="3"  />
<line x1="-3" y1="3" x2="3" y2="3"  />
<line x1="3" y1="3" x2="3" y2="-3"  />
<line x1="3" y1="-3" x2="-3" y2="-3"  />
</g>
<g id="round">
<ellipse cx="0" cy="0" rx="3" ry="3"  fill="none" /></g>
<g id="triangle">
<line x1="0" y1="-3" x2="-3" y2="3"  />
<line x1="-3" y1="3" x2="3" y2="3"  />
<line x1="0" y1="-3" x2="3" y2="3"  />
</g>
</defs>
<line x1="271.631" y1="700" x2="2128.369" y2="700"  stroke="#7f7f7f" />
<g><title>element</title>
<g>
<line x1="1304.81" y1="528.659" x2="1304.81" y2="357.317"  stroke="#7f7fff" />
<line x1="1304.81" y1="871.341" x2="1304.81" y2="1042.683"  stroke="#7f7fff" />
</g>
<g>
<polyline fill="none" stroke="#7f7fff" points="347.101,339.146 343.951,346.436 340.876,353.726 337.876,361.016 334.951,368.306 332.099,375.596 329.32,382.886 326.612,390.176 323.977,397.466 321.411,404.756 318.916,412.046 316.49,419.336 314.133,426.626 311.844,433.916 309.623,441.206 307.469,448.496 305.381,455.786 303.36,463.076 301.405,470.366 299.514,477.656 297.689,484.946 295.928,492.236 294.232,499.526 292.598,506.816 291.029,514.106 289.522,521.396 288.078,528.686 286.696,535.975 285.377,543.265 284.119,550.555 282.923,557.845 281.788,565.135 280.714,572.425 279.701,579.715 278.749,587.005 277.857,594.295 277.025,601.585 276.254,608.875 275.542,616.165 274.89,623.455 274.298,630.745 273.765,638.035 273.292,645.325 272.878,652.615 272.524,659.905 272.228,667.195 271.992,674.485 271.815,681.775 271.697,689.065 271.638,696.355 271.638,703.645 271.697,710.935 271.815,718.225 271.992,725.515 272.228,732.805 272.524,740.095 272.878,747.385 273.292,754.675 273.765,761.965 274.298,769.255 274.89,776.545 275.542,783.835 276.254,791.125 277.025,798.415 277.857,805.705 278.749,812.995 279.701,820.285 280.714,827.575 281.788,834.865 282.923,842.155 284.119,849.445 285.377,856.735 286.696,864.025 288.078,871.314 289.522,878.604 291.029,885.894 292.598,893.184 294.232,900.474 295.928,907.764 297.689,915.054 299.514,922.344 301.405,929.634 303.36,936.924 305.381,944.214 307.469,951.504 309.623,958.794 311.844,966.084 314.133,973.374 316.49,980.664 318.916,987.954 321.411,995.244 323.977,1002.534 326.612,1009.824 329.32,1017.114 332.099,1024.404 334.951,1031.694 337.876,1038.984 340.876,1046.274 343.951,1053.564 347.101,1060.854 " />
<line x1="457.94" y1="339.146" x2="457.94" y2="393.801"  stroke="#7f7fff" />
<line x1="347.101" y1="339.146" x2="457.94" y2="339.146"  stroke="#7f7fff" />
<line x1="457.94" y1="1060.854" x2="457.94" y2="1006.199"  stroke="#7f7fff" />
<line x1="347.101" y1="1060.854" x2="457.94" y2="1060.854"  stroke="#7f7fff" />
<polyline fill="none" stroke="#7f7fff" points="457.94,393.801 449.826,399.987 442.14,406.173 434.843,412.359 427.902,418.545 421.288,424.731 414.978,430.916 408.951,437.102 403.188,443.288 397.674,449.474 392.395,455.66 387.338,461.846 382.492,468.031 377.846,474.217 373.393,480.403 369.124,486.589 365.031,492.775 361.108,498.961 357.349,505.146 353.748,511.332 350.3,517.518 347,523.704 343.845,529.89 340.829,536.076 337.95,542.261 335.205,548.447 332.589,554.633 330.1,560.819 327.735,567.005 325.493,573.19 323.37,579.376 321.365,585.562 319.476,591.748 317.7,597.934 316.037,604.12 314.484,610.305 313.041,616.491 311.706,622.677 310.478,628.863 309.355,635.049 308.338,641.235 307.425,647.42 306.615,653.606 305.907,659.792 305.302,665.978 304.799,672.164 304.396,678.35 304.095,684.535 303.894,690.721 303.793,696.907 303.793,703.093 303.894,709.279 304.095,715.465 304.396,721.65 304.799,727.836 305.302,734.022 305.907,740.208 306.615,746.394 307.425,752.58 308.338,758.765 309.355,764.951 310.478,771.137 311.706,777.323 313.041,783.509 314.484,789.695 316.037,795.88 317.7,802.066 319.476,808.252 321.365,814.438 323.37,820.624 325.493,826.81 327.735,832.995 330.1,839.181 332.589,845.367 335.205,851.553 337.95,857.739 340.829,863.924 343.845,870.11 347,876.296 350.3,882.482 353.748,888.668 357.349,894.854 361.108,901.039 365.031,907.225 369.124,913.411 373.393,919.597 377.846,925.783 382.492,931.969 387.338,938.154 392.395,944.34 397.674,950.526 403.188,956.712 408.951,962.898 414.978,969.084 421.288,975.269 427.902,981.455 434.843,987.641 442.14,993.827 449.826,1000.013 457.94,1006.199 " />
</g>
<g>
<polyline fill="none" stroke="#7f7fff" points="475.449,408.591 474.004,414.478 472.591,420.365 471.208,426.252 469.857,432.139 468.536,438.026 467.246,443.913 465.987,449.8 464.758,455.687 463.56,461.574 462.392,467.461 461.254,473.348 460.147,479.235 459.07,485.122 458.023,491.009 457.005,496.896 456.018,502.783 455.061,508.671 454.133,514.558 453.235,520.445 452.366,526.332 451.528,532.219 450.718,538.106 449.938,543.993 449.188,549.88 448.466,555.767 447.774,561.654 447.111,567.541 446.478,573.428 445.873,579.315 445.298,585.202 444.751,591.089 444.234,596.976 443.745,602.864 443.286,608.751 442.855,614.638 442.453,620.525 442.08,626.412 441.736,632.299 441.42,638.186 441.134,644.073 440.876,649.96 440.646,655.847 440.446,661.734 440.274,667.621 440.131,673.508 440.016,679.395 439.93,685.282 439.873,691.169 439.844,697.056 439.844,702.944 439.873,708.831 439.93,714.718 440.016,720.605 440.131,726.492 440.274,732.379 440.446,738.266 440.646,744.153 440.876,750.04 441.134,755.927 441.42,761.814 441.736,767.701 442.08,773.588 442.453,779.475 442.855,785.362 443.286,791.249 443.745,797.136 444.234,803.024 444.751,808.911 445.298,814.798 445.873,820.685 446.478,826.572 447.111,832.459 447.774,838.346 448.466,844.233 449.188,850.12 449.938,856.007 450.718,861.894 451.528,867.781 452.366,873.668 453.235,879.555 454.133,885.442 455.061,891.329 456.018,897.217 457.005,903.104 458.023,908.991 459.07,914.878 460.147,920.765 461.254,926.652 462.392,932.539 463.56,938.426 464.758,944.313 465.987,950.2 467.246,956.087 468.536,961.974 469.857,967.861 471.208,973.748 472.591,979.635 474.004,985.522 475.449,991.409 " />
<line x1="582.782" y1="408.591" x2="582.782" y2="418.879"  stroke="#7f7fff" />
<line x1="475.449" y1="408.591" x2="582.782" y2="408.591"  stroke="#7f7fff" />
<line x1="582.782" y1="991.409" x2="582.782" y2="981.121"  stroke="#7f7fff" />
<line x1="475.449" y1="991.409" x2="582.782" y2="991.409"  stroke="#7f7fff" />
<polyline fill="none" stroke="#7f7fff" points="582.782,418.879 577.5,424.558 572.413,430.237 567.512,435.916 562.79,441.595 558.237,447.275 553.847,452.954 549.613,458.633 545.53,464.312 541.591,469.992 537.792,475.671 534.129,481.35 530.596,487.029 527.19,492.708 523.908,498.388 520.746,504.067 517.7,509.746 514.769,515.425 511.948,521.105 509.237,526.784 506.631,532.463 504.13,538.142 501.73,543.821 499.431,549.501 497.23,555.18 495.125,560.859 493.116,566.538 491.199,572.218 489.375,577.897 487.642,583.576 485.999,589.255 484.444,594.934 482.976,600.614 481.595,606.293 480.3,611.972 479.089,617.651 477.962,623.331 476.919,629.01 475.958,634.689 475.08,640.368 474.282,646.047 473.566,651.727 472.931,657.406 472.376,663.085 471.9,668.764 471.505,674.444 471.189,680.123 470.951,685.802 470.794,691.481 470.715,697.16 470.715,702.84 470.794,708.519 470.951,714.198 471.189,719.877 471.505,725.556 471.9,731.236 472.376,736.915 472.931,742.594 473.566,748.273 474.282,753.953 475.08,759.632 475.958,765.311 476.919,770.99 477.962,776.669 479.089,782.349 480.3,788.028 481.595,793.707 482.976,799.386 484.444,805.066 485.999,810.745 487.642,816.424 489.375,822.103 491.199,827.782 493.116,833.462 495.125,839.141 497.23,844.82 499.431,850.499 501.73,856.179 504.13,861.858 506.631,867.537 509.237,873.216 511.948,878.895 514.769,884.575 517.7,890.254 520.746,895.933 523.908,901.612 527.19,907.292 530.596,912.971 534.129,918.65 537.792,924.329 541.591,930.008 545.53,935.688 549.613,941.367 553.847,947.046 558.237,952.725 562.79,958.405 567.512,964.084 572.413,969.763 577.5,975.442 582.782,981.121 " />
<line x1="582.782" y1="418.879" x2="582.813" y2="418.879"  stroke="#7f7fff" />
<line x1="582.782" y1="981.121" x2="582.813" y2="981.121"  stroke="#7f7fff" />
<polyline fill="none" stroke="#7f7fff" points="582.813,418.879 578.378,424.558 574.047,430.237 569.813,435.916 565.674,441.595 561.626,447.275 557.667,452.954 553.795,458.633 550.011,464.312 546.313,469.992 542.701,475.671 539.175,481.35 535.735,487.029 532.381,492.708 529.114,498.388 525.933,504.067 522.84,509.746 519.834,515.425 516.916,521.105 514.086,526.784 511.345,532.463 508.693,538.142 506.129,543.821 503.656,549.501 501.272,555.18 498.978,560.859 496.775,566.538 494.662,572.218 492.64,577.897 490.708,583.576 488.868,589.255 487.119,594.934 485.462,600.614 483.896,606.293 482.422,611.972 481.04,617.651 479.75,623.331 478.551,629.01 477.445,634.689 476.431,640.368 475.509,646.047 474.679,651.727 473.941,657.406 473.296,663.085 472.743,668.764 472.281,674.444 471.913,680.123 471.636,685.802 471.451,691.481 471.359,697.16 471.359,702.84 471.451,708.519 471.636,714.198 471.913,719.877 472.281,725.556 472.743,731.236 473.296,736.915 473.941,742.594 474.679,748.273 475.509,753.953 476.431,759.632 477.445,765.311 478.551,770.99 479.75,776.669 481.04,782.349 482.422,788.028 483.896,793.707 485.462,799.386 487.119,805.066 488.868,810.745 490.708,816.424 492.64,822.103 494.662,827.782 496.775,833.462 498.978,839.141 501.272,844.82 503.656,850.499 506.129,856.179 508.693,861.858 511.345,867.537 514.086,873.216 516.916,878.895 519.834,884.575 522.84,890.254 525.933,895.933 529.114,901.612 532.381,907.292 535.735,912.971 539.175,918.65 542.701,924.329 546.313,930.008 550.011,935.688 553.795,941.367 557.667,947.046 561.626,952.725 565.674,958.405 569.813,964.084 574.047,969.763 578.378,975.442 582.813,981.121 " />
</g>
<g>
<polyline fill="none" stroke="#7f7fff" points="610.699,429.745 610.004,435.205 609.323,440.665 608.657,446.124 608.005,451.584 607.367,457.044 606.744,462.504 606.136,467.963 605.541,473.423 604.961,478.883 604.395,484.342 603.844,489.802 603.306,495.262 602.783,500.721 602.275,506.181 601.78,511.641 601.3,517.1 600.834,522.56 600.382,528.02 599.945,533.479 599.521,538.939 599.112,544.399 598.717,549.859 598.336,555.318 597.969,560.778 597.617,566.238 597.279,571.697 596.954,577.157 596.644,582.617 596.349,588.076 596.067,593.536 595.799,598.996 595.546,604.455 595.306,609.915 595.081,615.375 594.87,620.835 594.672,626.294 594.489,631.754 594.321,637.214 594.166,642.673 594.025,648.133 593.898,653.593 593.786,659.052 593.687,664.512 593.603,669.972 593.532,675.431 593.476,680.891 593.434,686.351 593.406,691.81 593.392,697.27 593.392,702.73 593.406,708.19 593.434,713.649 593.476,719.109 593.532,724.569 593.603,730.028 593.687,735.488 593.786,740.948 593.898,746.407 594.025,751.867 594.166,757.327 594.321,762.786 594.489,768.246 594.672,773.706 594.87,779.165 595.081,784.625 595.306,790.085 595.546,795.545 595.799,801.004 596.067,806.464 596.349,811.924 596.644,817.383 596.954,822.843 597.279,828.303 597.617,833.762 597.969,839.222 598.336,844.682 598.717,850.141 599.112,855.601 599.521,861.061 599.945,866.521 600.382,871.98 600.834,877.44 601.3,882.9 601.78,888.359 602.275,893.819 602.783,899.279 603.306,904.738 603.844,910.198 604.395,915.658 604.961,921.117 605.541,926.577 606.136,932.037 606.744,937.496 607.367,942.956 608.005,948.416 608.657,953.876 609.323,959.335 610.004,964.795 610.699,970.255 " />
<line x1="610.699" y1="429.745" x2="635.105" y2="429.745"  stroke="#7f7fff" />
<line x1="610.699" y1="970.255" x2="635.105" y2="970.255"  stroke="#7f7fff" />
<polyline fill="none" stroke="#7f7fff" points="635.105,429.745 635.983,435.205 636.842,440.665 637.683,446.124 638.506,451.584 639.311,457.044 640.097,462.504 640.866,467.963 641.616,473.423 642.347,478.883 643.061,484.342 643.757,489.802 644.434,495.262 645.093,500.721 645.734,506.181 646.358,511.641 646.963,517.1 647.55,522.56 648.119,528.02 648.67,533.479 649.204,538.939 649.719,544.399 650.216,549.859 650.696,555.318 651.157,560.778 651.601,566.238 652.027,571.697 652.435,577.157 652.825,582.617 653.197,588.076 653.552,593.536 653.889,598.996 654.208,604.455 654.509,609.915 654.792,615.375 655.058,620.835 655.306,626.294 655.536,631.754 655.749,637.214 655.943,642.673 656.12,648.133 656.28,653.593 656.421,659.052 656.545,664.512 656.651,669.972 656.74,675.431 656.81,680.891 656.863,686.351 656.899,691.81 656.917,697.27 656.917,702.73 656.899,708.19 656.863,713.649 656.81,719.109 656.74,724.569 656.651,730.028 656.545,735.488 656.421,740.948 656.28,746.407 656.12,751.867 655.943,757.327 655.749,762.786 655.536,768.246 655.306,773.706 655.058,779.165 654.792,784.625 654.509,790.085 654.208,795.545 653.889,801.004 653.552,806.464 653.197,811.924 652.825,817.383 652.435,822.843 652.027,828.303 651.601,833.762 651.157,839.222 650.696,844.682 650.216,850.141 649.719,855.601 649.204,861.061 648.67,866.521 648.119,871.98 647.55,877.44 646.963,882.9 646.358,888.359 645.734,893.819 645.093,899.279 644.434,904.738 643.757,910.198 643.061,915.658 642.347,921.117 641.616,926.577 640.866,932.037 640.097,937.496 639.311,942.956 638.506,948.416 637.683,953.876 636.842,959.335 635.983,964.795 635.105,970.255 " />
</g>
<g>
<polyline fill="none" stroke="#7f7fff" points="657.928,435.147 660.515,440.497 663.038,445.848 665.496,451.198 667.892,456.549 670.226,461.899 672.498,467.25 674.71,472.601 676.862,477.951 678.955,483.302 680.989,488.652 682.965,494.003 684.884,499.353 686.747,504.704 688.553,510.055 690.303,515.405 691.999,520.756 693.639,526.106 695.226,531.457 696.759,536.808 698.239,542.158 699.665,547.509 701.039,552.859 702.361,558.21 703.632,563.56 704.851,568.911 706.018,574.262 707.135,579.612 708.201,584.963 709.218,590.313 710.184,595.664 711.1,601.014 711.967,606.365 712.784,611.716 713.553,617.066 714.272,622.417 714.943,627.767 715.565,633.118 716.139,638.468 716.664,643.819 717.141,649.17 717.57,654.52 717.952,659.871 718.285,665.221 718.571,670.572 718.809,675.922 718.999,681.273 719.142,686.624 719.237,691.974 719.284,697.325 719.284,702.675 719.237,708.026 719.142,713.376 718.999,718.727 718.809,724.078 718.571,729.428 718.285,734.779 717.952,740.129 717.57,745.48 717.141,750.83 716.664,756.181 716.139,761.532 715.565,766.882 714.943,772.233 714.272,777.583 713.553,782.934 712.784,788.284 711.967,793.635 711.1,798.986 710.184,804.336 709.218,809.687 708.201,815.037 707.135,820.388 706.018,825.738 704.851,831.089 703.632,836.44 702.361,841.79 701.039,847.141 699.665,852.491 698.239,857.842 696.759,863.192 695.226,868.543 693.639,873.894 691.999,879.244 690.303,884.595 688.553,889.945 686.747,895.296 684.884,900.647 682.965,905.997 680.989,911.348 678.955,916.698 676.862,922.049 674.71,927.399 672.498,932.75 670.226,938.101 667.892,943.451 665.496,948.802 663.038,954.152 660.515,959.503 657.928,964.853 " />
<line x1="657.928" y1="428.395" x2="657.928" y2="435.147"  stroke="#7f7fff" />
<line x1="657.928" y1="428.395" x2="768.359" y2="428.395"  stroke="#7f7fff" />
<line x1="657.928" y1="971.605" x2="657.928" y2="964.853"  stroke="#7f7fff" />
<line x1="657.928" y1="971.605" x2="768.359" y2="971.605"  stroke="#7f7fff" />
<polyline fill="none" stroke="#7f7fff" points="768.359,428.395 767.497,433.882 766.653,439.369 765.827,444.856 765.019,450.343 764.229,455.83 763.457,461.317 762.703,466.804 761.967,472.291 761.248,477.778 760.548,483.265 759.865,488.752 759.2,494.239 758.552,499.726 757.923,505.213 757.311,510.7 756.717,516.187 756.14,521.674 755.581,527.16 755.04,532.647 754.516,538.134 754.01,543.621 753.522,549.108 753.051,554.595 752.598,560.082 752.162,565.569 751.744,571.056 751.343,576.543 750.96,582.03 750.594,587.517 750.246,593.004 749.915,598.491 749.602,603.978 749.306,609.465 749.028,614.952 748.767,620.439 748.523,625.926 748.297,631.413 748.089,636.9 747.897,642.387 747.724,647.874 747.567,653.361 747.428,658.848 747.306,664.335 747.202,669.822 747.115,675.309 747.046,680.796 746.994,686.283 746.959,691.77 746.941,697.257 746.941,702.743 746.959,708.23 746.994,713.717 747.046,719.204 747.115,724.691 747.202,730.178 747.306,735.665 747.428,741.152 747.567,746.639 747.724,752.126 747.897,757.613 748.089,763.1 748.297,768.587 748.523,774.074 748.767,779.561 749.028,785.048 749.306,790.535 749.602,796.022 749.915,801.509 750.246,806.996 750.594,812.483 750.96,817.97 751.343,823.457 751.744,828.944 752.162,834.431 752.598,839.918 753.051,845.405 753.522,850.892 754.01,856.379 754.516,861.866 755.04,867.353 755.581,872.84 756.14,878.326 756.717,883.813 757.311,889.3 757.923,894.787 758.552,900.274 759.2,905.761 759.865,911.248 760.548,916.735 761.248,922.222 761.967,927.709 762.703,933.196 763.457,938.683 764.229,944.17 765.019,949.657 765.827,955.144 766.653,960.631 767.497,966.118 768.359,971.605 " />
<line x1="768.359" y1="428.395" x2="792.742" y2="428.395"  stroke="#7f7fff" />
<line x1="768.359" y1="971.605" x2="792.742" y2="971.605"  stroke="#7f7fff" />
<polyline fill="none" stroke="#7f7fff" points="792.742,428.395 793.056,433.882 793.362,439.369 793.663,444.856 793.957,450.343 794.244,455.83 794.525,461.317 794.8,466.804 795.068,472.291 795.33,477.778 795.586,483.265 795.835,488.752 796.077,494.239 796.314,499.726 796.544,505.213 796.767,510.7 796.984,516.187 797.195,521.674 797.399,527.16 797.597,532.647 797.789,538.134 797.974,543.621 798.153,549.108 798.325,554.595 798.491,560.082 798.65,565.569 798.804,571.056 798.95,576.543 799.091,582.03 799.225,587.517 799.353,593.004 799.474,598.491 799.589,603.978 799.697,609.465 799.799,614.952 799.895,620.439 799.984,625.926 800.067,631.413 800.144,636.9 800.214,642.387 800.278,647.874 800.335,653.361 800.386,658.848 800.431,664.335 800.469,669.822 800.501,675.309 800.527,680.796 800.546,686.283 800.559,691.77 800.565,697.257 800.565,702.743 800.559,708.23 800.546,713.717 800.527,719.204 800.501,724.691 800.469,730.178 800.431,735.665 800.386,741.152 800.335,746.639 800.278,752.126 800.214,757.613 800.144,763.1 800.067,768.587 799.984,774.074 799.895,779.561 799.799,785.048 799.697,790.535 799.589,796.022 799.474,801.509 799.353,806.996 799.225,812.483 799.091,817.97 798.95,823.457 798.804,828.944 798.65,834.431 798.491,839.918 798.325,845.405 798.153,850.892 797.974,856.379 797.789,861.866 797.597,867.353 797.399,872.84 797.195,878.326 796.984,883.813 796.767,889.3 796.544,894.787 796.314,900.274 796.077,905.761 795.835,911.248 795.586,916.735 795.33,922.222 795.068,927.709 794.8,933.196 794.525,938.683 794.244,944.17 793.957,949.657 793.663,955.144 793.362,960.631 793.056,966.118 792.742,971.605 " />
</g>
<g>
<polyline fill="none" stroke="#7f7fff" points="879.484,434.182 877.851,439.552 876.254,444.922 874.693,450.292 873.168,455.662 871.679,461.032 870.225,466.402 868.807,471.773 867.424,477.143 866.076,482.513 864.762,487.883 863.484,493.253 862.24,498.623 861.03,503.993 859.855,509.363 858.714,514.733 857.607,520.103 856.534,525.473 855.494,530.843 854.489,536.213 853.516,541.583 852.577,546.953 851.672,552.323 850.8,557.693 849.96,563.064 849.154,568.434 848.381,573.804 847.641,579.174 846.933,584.544 846.258,589.914 845.616,595.284 845.006,600.654 844.428,606.024 843.883,611.394 843.371,616.764 842.891,622.134 842.443,627.504 842.027,632.874 841.643,638.244 841.292,643.614 840.972,648.984 840.685,654.355 840.429,659.725 840.206,665.095 840.014,670.465 839.855,675.835 839.727,681.205 839.632,686.575 839.568,691.945 839.536,697.315 839.536,702.685 839.568,708.055 839.632,713.425 839.727,718.795 839.855,724.165 840.014,729.535 840.206,734.905 840.429,740.275 840.685,745.645 840.972,751.016 841.292,756.386 841.643,761.756 842.027,767.126 842.443,772.496 842.891,777.866 843.371,783.236 843.883,788.606 844.428,793.976 845.006,799.346 845.616,804.716 846.258,810.086 846.933,815.456 847.641,820.826 848.381,826.196 849.154,831.566 849.96,836.936 850.8,842.307 851.672,847.677 852.577,853.047 853.516,858.417 854.489,863.787 855.494,869.157 856.534,874.527 857.607,879.897 858.714,885.267 859.855,890.637 861.03,896.007 862.24,901.377 863.484,906.747 864.762,912.117 866.076,917.487 867.424,922.857 868.807,928.227 870.225,933.598 871.679,938.968 873.168,944.338 874.693,949.708 876.254,955.078 877.851,960.448 879.484,965.818 " />
<line x1="879.484" y1="434.182" x2="902.749" y2="434.182"  stroke="#7f7fff" />
<line x1="879.484" y1="965.818" x2="902.749" y2="965.818"  stroke="#7f7fff" />
<polyline fill="none" stroke="#7f7fff" points="902.749,434.182 903.879,439.552 904.985,444.922 906.067,450.292 907.126,455.662 908.16,461.032 909.171,466.402 910.158,471.773 911.121,477.143 912.061,482.513 912.977,487.883 913.869,493.253 914.738,498.623 915.584,503.993 916.406,509.363 917.204,514.733 917.98,520.103 918.732,525.473 919.461,530.843 920.167,536.213 920.85,541.583 921.509,546.953 922.146,552.323 922.759,557.693 923.349,563.064 923.917,568.434 924.461,573.804 924.983,579.174 925.482,584.544 925.958,589.914 926.411,595.284 926.841,600.654 927.249,606.024 927.633,611.394 927.995,616.764 928.335,622.134 928.651,627.504 928.945,632.874 929.216,638.244 929.465,643.614 929.691,648.984 929.894,654.355 930.075,659.725 930.233,665.095 930.368,670.465 930.481,675.835 930.572,681.205 930.639,686.575 930.684,691.945 930.707,697.315 930.707,702.685 930.684,708.055 930.639,713.425 930.572,718.795 930.481,724.165 930.368,729.535 930.233,734.905 930.075,740.275 929.894,745.645 929.691,751.016 929.465,756.386 929.216,761.756 928.945,767.126 928.651,772.496 928.335,777.866 927.995,783.236 927.633,788.606 927.249,793.976 926.841,799.346 926.411,804.716 925.958,810.086 925.482,815.456 924.983,820.826 924.461,826.196 923.917,831.566 923.349,836.936 922.759,842.307 922.146,847.677 921.509,853.047 920.85,858.417 920.167,863.787 919.461,869.157 918.732,874.527 917.98,879.897 917.204,885.267 916.406,890.637 915.584,896.007 914.738,901.377 913.869,906.747 912.977,912.117 912.061,917.487 911.121,922.857 910.158,928.227 909.171,933.598 908.16,938.968 907.126,944.338 906.067,949.708 904.985,955.078 903.879,960.448 902.749,965.818 " />
</g>
<g>
<polyline fill="none" stroke="#7f7fff" points="1073.126,455.273 1071.337,460.217 1069.588,465.161 1067.881,470.105 1066.214,475.049 1064.587,479.993 1063,484.937 1061.453,489.881 1059.945,494.825 1058.476,499.769 1057.046,504.713 1055.655,509.656 1054.302,514.6 1052.987,519.544 1051.71,524.488 1050.471,529.432 1049.27,534.376 1048.105,539.32 1046.978,544.264 1045.888,549.208 1044.835,554.152 1043.818,559.096 1042.838,564.04 1041.894,568.984 1040.986,573.928 1040.115,578.872 1039.279,583.816 1038.479,588.76 1037.714,593.704 1036.985,598.648 1036.292,603.592 1035.633,608.536 1035.01,613.48 1034.423,618.424 1033.87,623.368 1033.352,628.312 1032.869,633.256 1032.42,638.2 1032.007,643.144 1031.628,648.088 1031.284,653.032 1030.974,657.976 1030.699,662.92 1030.458,667.864 1030.252,672.808 1030.08,677.752 1029.943,682.696 1029.84,687.64 1029.771,692.584 1029.737,697.528 1029.737,702.472 1029.771,707.416 1029.84,712.36 1029.943,717.304 1030.08,722.248 1030.252,727.192 1030.458,732.136 1030.699,737.08 1030.974,742.024 1031.284,746.968 1031.628,751.912 1032.007,756.856 1032.42,761.8 1032.869,766.744 1033.352,771.688 1033.87,776.632 1034.423,781.576 1035.01,786.52 1035.633,791.464 1036.292,796.408 1036.985,801.352 1037.714,806.296 1038.479,811.24 1039.279,816.184 1040.115,821.128 1040.986,826.072 1041.894,831.016 1042.838,835.96 1043.818,840.904 1044.835,845.848 1045.888,850.792 1046.978,855.736 1048.105,860.68 1049.27,865.624 1050.471,870.568 1051.71,875.512 1052.987,880.456 1054.302,885.4 1055.655,890.344 1057.046,895.287 1058.476,900.231 1059.945,905.175 1061.453,910.119 1063,915.063 1064.587,920.007 1066.214,924.951 1067.881,929.895 1069.588,934.839 1071.337,939.783 1073.126,944.727 " />
<line x1="1073.126" y1="455.273" x2="1091.806" y2="455.273"  stroke="#7f7fff" />
<line x1="1073.126" y1="944.727" x2="1091.806" y2="944.727"  stroke="#7f7fff" />
<polyline fill="none" stroke="#7f7fff" points="1091.806,455.273 1091.483,460.217 1091.167,465.161 1090.858,470.105 1090.555,475.049 1090.258,479.993 1089.969,484.937 1089.686,489.881 1089.409,494.825 1089.139,499.769 1088.876,504.713 1088.619,509.656 1088.369,514.6 1088.126,519.544 1087.889,524.488 1087.659,529.432 1087.435,534.376 1087.218,539.32 1087.007,544.264 1086.803,549.208 1086.606,554.152 1086.415,559.096 1086.231,564.04 1086.053,568.984 1085.882,573.928 1085.718,578.872 1085.56,583.816 1085.409,588.76 1085.264,593.704 1085.126,598.648 1084.995,603.592 1084.87,608.536 1084.751,613.48 1084.64,618.424 1084.534,623.368 1084.436,628.312 1084.344,633.256 1084.258,638.2 1084.18,643.144 1084.107,648.088 1084.041,653.032 1083.982,657.976 1083.93,662.92 1083.884,667.864 1083.844,672.808 1083.811,677.752 1083.785,682.696 1083.765,687.64 1083.752,692.584 1083.746,697.528 1083.746,702.472 1083.752,707.416 1083.765,712.36 1083.785,717.304 1083.811,722.248 1083.844,727.192 1083.884,732.136 1083.93,737.08 1083.982,742.024 1084.041,746.968 1084.107,751.912 1084.18,756.856 1084.258,761.8 1084.344,766.744 1084.436,771.688 1084.534,776.632 1084.64,781.576 1084.751,786.52 1084.87,791.464 1084.995,796.408 1085.126,801.352 1085.264,806.296 1085.409,811.24 1085.56,816.184 1085.718,821.128 1085.882,826.072 1086.053,831.016 1086.231,835.96 1086.415,840.904 1086.606,845.848 1086.803,850.792 1087.007,855.736 1087.218,860.68 1087.435,865.624 1087.659,870.568 1087.889,875.512 1088.126,880.456 1088.369,885.4 1088.619,890.344 1088.876,895.287 1089.139,900.231 1089.409,905.175 1089.686,910.119 1089.969,915.063 1090.258,920.007 1090.555,924.951 1090.858,929.895 1091.167,934.839 1091.483,939.783 1091.806,944.727 " />
</g>
<g>
<polyline fill="none" stroke="#7f7fff" points="1105.735,461.188 1104.927,466.013 1104.136,470.837 1103.362,475.662 1102.605,480.486 1101.865,485.311 1101.142,490.135 1100.435,494.96 1099.745,499.784 1099.072,504.609 1098.415,509.433 1097.776,514.258 1097.153,519.082 1096.546,523.907 1095.957,528.731 1095.384,533.555 1094.827,538.38 1094.287,543.204 1093.764,548.029 1093.257,552.853 1092.767,557.678 1092.293,562.502 1091.835,567.327 1091.395,572.151 1090.97,576.976 1090.562,581.8 1090.171,586.625 1089.796,591.449 1089.437,596.274 1089.095,601.098 1088.769,605.923 1088.459,610.747 1088.166,615.572 1087.889,620.396 1087.628,625.221 1087.384,630.045 1087.156,634.87 1086.945,639.694 1086.749,644.518 1086.57,649.343 1086.408,654.167 1086.261,658.992 1086.131,663.816 1086.017,668.641 1085.92,673.465 1085.839,678.29 1085.773,683.114 1085.725,687.939 1085.692,692.763 1085.676,697.588 1085.676,702.412 1085.692,707.237 1085.725,712.061 1085.773,716.886 1085.839,721.71 1085.92,726.535 1086.017,731.359 1086.131,736.184 1086.261,741.008 1086.408,745.833 1086.57,750.657 1086.749,755.482 1086.945,760.306 1087.156,765.13 1087.384,769.955 1087.628,774.779 1087.889,779.604 1088.166,784.428 1088.459,789.253 1088.769,794.077 1089.095,798.902 1089.437,803.726 1089.796,808.551 1090.171,813.375 1090.562,818.2 1090.97,823.024 1091.395,827.849 1091.835,832.673 1092.293,837.498 1092.767,842.322 1093.257,847.147 1093.764,851.971 1094.287,856.796 1094.827,861.62 1095.384,866.445 1095.957,871.269 1096.546,876.093 1097.153,880.918 1097.776,885.742 1098.415,890.567 1099.072,895.391 1099.745,900.216 1100.435,905.04 1101.142,909.865 1101.865,914.689 1102.605,919.514 1103.362,924.338 1104.136,929.163 1104.927,933.987 1105.735,938.812 " />
<line x1="1105.735" y1="461.188" x2="1123.062" y2="461.188"  stroke="#7f7fff" />
<line x1="1105.735" y1="938.812" x2="1123.062" y2="938.812"  stroke="#7f7fff" />
<polyline fill="none" stroke="#7f7fff" points="1123.062,461.188 1123.626,466.013 1124.178,470.837 1124.719,475.662 1125.248,480.486 1125.765,485.311 1126.271,490.135 1126.765,494.96 1127.247,499.784 1127.718,504.609 1128.178,509.433 1128.625,514.258 1129.061,519.082 1129.486,523.907 1129.899,528.731 1130.3,533.555 1130.69,538.38 1131.069,543.204 1131.435,548.029 1131.791,552.853 1132.135,557.678 1132.467,562.502 1132.788,567.327 1133.097,572.151 1133.395,576.976 1133.681,581.8 1133.956,586.625 1134.219,591.449 1134.471,596.274 1134.711,601.098 1134.94,605.923 1135.157,610.747 1135.363,615.572 1135.558,620.396 1135.741,625.221 1135.912,630.045 1136.072,634.87 1136.221,639.694 1136.358,644.518 1136.484,649.343 1136.598,654.167 1136.701,658.992 1136.793,663.816 1136.873,668.641 1136.941,673.465 1136.998,678.29 1137.044,683.114 1137.078,687.939 1137.101,692.763 1137.113,697.588 1137.113,702.412 1137.101,707.237 1137.078,712.061 1137.044,716.886 1136.998,721.71 1136.941,726.535 1136.873,731.359 1136.793,736.184 1136.701,741.008 1136.598,745.833 1136.484,750.657 1136.358,755.482 1136.221,760.306 1136.072,765.13 1135.912,769.955 1135.741,774.779 1135.558,779.604 1135.363,784.428 1135.157,789.253 1134.94,794.077 1134.711,798.902 1134.471,803.726 1134.219,808.551 1133.956,813.375 1133.681,818.2 1133.395,823.024 1133.097,827.849 1132.788,832.673 1132.467,837.498 1132.135,842.322 1131.791,847.147 1131.435,851.971 1131.069,856.796 1130.69,861.62 1130.3,866.445 1129.899,871.269 1129.486,876.093 1129.061,880.918 1128.625,885.742 1128.178,890.567 1127.718,895.391 1127.247,900.216 1126.765,905.04 1126.271,909.865 1125.765,914.689 1125.248,919.514 1124.719,924.338 1124.178,929.163 1123.626,933.987 1123.062,938.812 " />
</g>
<g>
<polyline fill="none" stroke="#7f7fff" points="1145.189,474.434 1144.943,478.991 1144.702,483.548 1144.467,488.105 1144.236,492.662 1144.01,497.219 1143.789,501.775 1143.573,506.332 1143.362,510.889 1143.157,515.446 1142.956,520.003 1142.76,524.56 1142.57,529.117 1142.384,533.674 1142.203,538.231 1142.028,542.787 1141.857,547.344 1141.692,551.901 1141.531,556.458 1141.376,561.015 1141.225,565.572 1141.08,570.129 1140.939,574.686 1140.804,579.243 1140.673,583.799 1140.548,588.356 1140.428,592.913 1140.312,597.47 1140.202,602.027 1140.097,606.584 1139.996,611.141 1139.901,615.698 1139.811,620.254 1139.726,624.811 1139.645,629.368 1139.57,633.925 1139.5,638.482 1139.435,643.039 1139.375,647.596 1139.32,652.153 1139.269,656.71 1139.224,661.266 1139.184,665.823 1139.149,670.38 1139.119,674.937 1139.094,679.494 1139.074,684.051 1139.059,688.608 1139.049,693.165 1139.044,697.722 1139.044,702.278 1139.049,706.835 1139.059,711.392 1139.074,715.949 1139.094,720.506 1139.119,725.063 1139.149,729.62 1139.184,734.177 1139.224,738.734 1139.269,743.29 1139.32,747.847 1139.375,752.404 1139.435,756.961 1139.5,761.518 1139.57,766.075 1139.645,770.632 1139.726,775.189 1139.811,779.746 1139.901,784.302 1139.996,788.859 1140.097,793.416 1140.202,797.973 1140.312,802.53 1140.428,807.087 1140.548,811.644 1140.673,816.201 1140.804,820.757 1140.939,825.314 1141.08,829.871 1141.225,834.428 1141.376,838.985 1141.531,843.542 1141.692,848.099 1141.857,852.656 1142.028,857.213 1142.203,861.769 1142.384,866.326 1142.57,870.883 1142.76,875.44 1142.956,879.997 1143.157,884.554 1143.362,889.111 1143.573,893.668 1143.789,898.225 1144.01,902.781 1144.236,907.338 1144.467,911.895 1144.702,916.452 1144.943,921.009 1145.189,925.566 " />
<line x1="1145.189" y1="474.434" x2="1156.856" y2="474.434"  stroke="#7f7fff" />
<line x1="1145.189" y1="925.566" x2="1156.856" y2="925.566"  stroke="#7f7fff" />
<polyline fill="none" stroke="#7f7fff" points="1156.856,474.434 1159.267,478.991 1161.616,483.548 1163.903,488.105 1166.13,492.662 1168.298,497.219 1170.406,501.775 1172.457,506.332 1174.451,510.889 1176.389,515.446 1178.272,520.003 1180.099,524.56 1181.873,529.117 1183.593,533.674 1185.261,538.231 1186.876,542.787 1188.439,547.344 1189.951,551.901 1191.413,556.458 1192.825,561.015 1194.187,565.572 1195.499,570.129 1196.763,574.686 1197.979,579.243 1199.146,583.799 1200.266,588.356 1201.338,592.913 1202.363,597.47 1203.342,602.027 1204.275,606.584 1205.161,611.141 1206.001,615.698 1206.796,620.254 1207.545,624.811 1208.249,629.368 1208.909,633.925 1209.523,638.482 1210.093,643.039 1210.618,647.596 1211.099,652.153 1211.536,656.71 1211.929,661.266 1212.278,665.823 1212.583,670.38 1212.845,674.937 1213.062,679.494 1213.237,684.051 1213.367,688.608 1213.454,693.165 1213.498,697.722 1213.498,702.278 1213.454,706.835 1213.367,711.392 1213.237,715.949 1213.062,720.506 1212.845,725.063 1212.583,729.62 1212.278,734.177 1211.929,738.734 1211.536,743.29 1211.099,747.847 1210.618,752.404 1210.093,756.961 1209.523,761.518 1208.909,766.075 1208.249,770.632 1207.545,775.189 1206.796,779.746 1206.001,784.302 1205.161,788.859 1204.275,793.416 1203.342,797.973 1202.363,802.53 1201.338,807.087 1200.266,811.644 1199.146,816.201 1197.979,820.757 1196.763,825.314 1195.499,829.871 1194.187,834.428 1192.825,838.985 1191.413,843.542 1189.951,848.099 1188.439,852.656 1186.876,857.213 1185.261,861.769 1183.593,866.326 1181.873,870.883 1180.099,875.44 1178.272,879.997 1176.389,884.554 1174.451,889.111 1172.457,893.668 1170.406,898.225 1168.298,902.781 1166.13,907.338 1163.903,911.895 1161.616,916.452 1159.267,921.009 1156.856,925.566 " />
<line x1="1270.445" y1="474.434" x2="1270.445" y2="513.915"  stroke="#7f7fff" />
<line x1="1156.856" y1="474.434" x2="1270.445" y2="474.434"  stroke="#7f7fff" />
<line x1="1270.445" y1="925.566" x2="1270.445" y2="886.085"  stroke="#7f7fff" />
<line x1="1156.856" y1="925.566" x2="1270.445" y2="925.566"  stroke="#7f7fff" />
<polyline fill="none" stroke="#7f7fff" points="1270.445,513.915 1268.878,517.674 1267.348,521.433 1265.855,525.193 1264.398,528.952 1262.978,532.711 1261.593,536.47 1260.245,540.23 1258.931,543.989 1257.653,547.748 1256.409,551.508 1255.199,555.267 1254.023,559.026 1252.882,562.786 1251.774,566.545 1250.699,570.304 1249.657,574.063 1248.648,577.823 1247.672,581.582 1246.729,585.341 1245.817,589.101 1244.938,592.86 1244.09,596.619 1243.275,600.379 1242.491,604.138 1241.738,607.897 1241.016,611.656 1240.326,615.416 1239.666,619.175 1239.038,622.934 1238.44,626.694 1237.873,630.453 1237.336,634.212 1236.829,637.972 1236.353,641.731 1235.907,645.49 1235.491,649.249 1235.105,653.009 1234.75,656.768 1234.424,660.527 1234.127,664.287 1233.861,668.046 1233.624,671.805 1233.417,675.565 1233.24,679.324 1233.092,683.083 1232.974,686.842 1232.885,690.602 1232.826,694.361 1232.797,698.12 1232.797,701.88 1232.826,705.639 1232.885,709.398 1232.974,713.158 1233.092,716.917 1233.24,720.676 1233.417,724.435 1233.624,728.195 1233.861,731.954 1234.127,735.713 1234.424,739.473 1234.75,743.232 1235.105,746.991 1235.491,750.751 1235.907,754.51 1236.353,758.269 1236.829,762.028 1237.336,765.788 1237.873,769.547 1238.44,773.306 1239.038,777.066 1239.666,780.825 1240.326,784.584 1241.016,788.344 1241.738,792.103 1242.491,795.862 1243.275,799.621 1244.09,803.381 1244.938,807.14 1245.817,810.899 1246.729,814.659 1247.672,818.418 1248.648,822.177 1249.657,825.937 1250.699,829.696 1251.774,833.455 1252.882,837.214 1254.023,840.974 1255.199,844.733 1256.409,848.492 1257.653,852.252 1258.931,856.011 1260.245,859.77 1261.593,863.53 1262.978,867.289 1264.398,871.048 1265.855,874.807 1267.348,878.567 1268.878,882.326 1270.445,886.085 " />
</g>
<g>
<polyline fill="none" stroke="#7f7fff" points="1321.746,520.216 1324.289,523.848 1326.756,527.48 1329.149,531.112 1331.47,534.744 1333.721,538.376 1335.904,542.008 1338.019,545.64 1340.07,549.272 1342.057,552.904 1343.982,556.536 1345.845,560.168 1347.649,563.8 1349.395,567.432 1351.082,571.064 1352.714,574.696 1354.289,578.328 1355.81,581.96 1357.278,585.592 1358.692,589.224 1360.054,592.856 1361.365,596.488 1362.625,600.12 1363.835,603.752 1364.996,607.384 1366.107,611.016 1367.171,614.648 1368.186,618.28 1369.154,621.912 1370.075,625.544 1370.95,629.176 1371.778,632.808 1372.561,636.44 1373.299,640.072 1373.991,643.704 1374.639,647.336 1375.242,650.968 1375.801,654.6 1376.317,658.232 1376.788,661.864 1377.216,665.496 1377.601,669.128 1377.943,672.76 1378.242,676.392 1378.497,680.024 1378.71,683.656 1378.88,687.288 1379.008,690.92 1379.093,694.552 1379.136,698.184 1379.136,701.816 1379.093,705.448 1379.008,709.08 1378.88,712.712 1378.71,716.344 1378.497,719.976 1378.242,723.608 1377.943,727.24 1377.601,730.872 1377.216,734.504 1376.788,738.136 1376.317,741.768 1375.801,745.4 1375.242,749.032 1374.639,752.664 1373.991,756.296 1373.299,759.928 1372.561,763.56 1371.778,767.192 1370.95,770.824 1370.075,774.456 1369.154,778.088 1368.186,781.72 1367.171,785.352 1366.107,788.984 1364.996,792.616 1363.835,796.248 1362.625,799.88 1361.365,803.512 1360.054,807.144 1358.692,810.776 1357.278,814.408 1355.81,818.04 1354.289,821.672 1352.714,825.304 1351.082,828.936 1349.395,832.568 1347.649,836.2 1345.845,839.832 1343.982,843.464 1342.057,847.096 1340.07,850.728 1338.019,854.36 1335.904,857.992 1333.721,861.624 1331.47,865.256 1329.149,868.888 1326.756,872.52 1324.289,876.152 1321.746,879.784 " />
<line x1="1321.746" y1="498.032" x2="1321.746" y2="520.216"  stroke="#7f7fff" />
<line x1="1321.746" y1="498.032" x2="1430.401" y2="498.032"  stroke="#7f7fff" />
<line x1="1321.746" y1="901.968" x2="1321.746" y2="879.784"  stroke="#7f7fff" />
<line x1="1321.746" y1="901.968" x2="1430.401" y2="901.968"  stroke="#7f7fff" />
<polyline fill="none" stroke="#7f7fff" points="1430.401,498.032 1428.979,502.113 1427.59,506.193 1426.234,510.273 1424.909,514.353 1423.616,518.433 1422.354,522.513 1421.124,526.593 1419.925,530.674 1418.756,534.754 1417.619,538.834 1416.512,542.914 1415.435,546.994 1414.389,551.074 1413.373,555.155 1412.386,559.235 1411.43,563.315 1410.503,567.395 1409.605,571.475 1408.737,575.555 1407.898,579.635 1407.088,583.716 1406.307,587.796 1405.555,591.876 1404.832,595.956 1404.137,600.036 1403.471,604.116 1402.833,608.197 1402.224,612.277 1401.643,616.357 1401.09,620.437 1400.565,624.517 1400.068,628.597 1399.599,632.677 1399.159,636.758 1398.746,640.838 1398.36,644.918 1398.003,648.998 1397.673,653.078 1397.371,657.158 1397.096,661.239 1396.849,665.319 1396.63,669.399 1396.438,673.479 1396.274,677.559 1396.136,681.639 1396.027,685.719 1395.945,689.8 1395.89,693.88 1395.862,697.96 1395.862,702.04 1395.89,706.12 1395.945,710.2 1396.027,714.281 1396.136,718.361 1396.274,722.441 1396.438,726.521 1396.63,730.601 1396.849,734.681 1397.096,738.761 1397.371,742.842 1397.673,746.922 1398.003,751.002 1398.36,755.082 1398.746,759.162 1399.159,763.242 1399.599,767.323 1400.068,771.403 1400.565,775.483 1401.09,779.563 1401.643,783.643 1402.224,787.723 1402.833,791.803 1403.471,795.884 1404.137,799.964 1404.832,804.044 1405.555,808.124 1406.307,812.204 1407.088,816.284 1407.898,820.365 1408.737,824.445 1409.605,828.525 1410.503,832.605 1411.43,836.685 1412.386,840.765 1413.373,844.845 1414.389,848.926 1415.435,853.006 1416.512,857.086 1417.619,861.166 1418.756,865.246 1419.925,869.326 1421.124,873.407 1422.354,877.487 1423.616,881.567 1424.909,885.647 1426.234,889.727 1427.59,893.807 1428.979,897.887 1430.401,901.968 " />
<line x1="1430.401" y1="498.032" x2="1457.293" y2="498.032"  stroke="#7f7fff" />
<line x1="1430.401" y1="901.968" x2="1457.293" y2="901.968"  stroke="#7f7fff" />
<polyline fill="none" stroke="#7f7fff" points="1457.293,498.032 1457.268,502.113 1457.284,506.193 1457.335,510.273 1457.419,514.353 1457.53,518.433 1457.666,522.513 1457.823,526.593 1457.999,530.674 1458.19,534.754 1458.395,538.834 1458.61,542.914 1458.834,546.994 1459.065,551.074 1459.301,555.155 1459.54,559.235 1459.781,563.315 1460.023,567.395 1460.265,571.475 1460.505,575.555 1460.743,579.635 1460.978,583.716 1461.209,587.796 1461.436,591.876 1461.657,595.956 1461.873,600.036 1462.083,604.116 1462.287,608.197 1462.484,612.277 1462.673,616.357 1462.856,620.437 1463.03,624.517 1463.197,628.597 1463.355,632.677 1463.505,636.758 1463.647,640.838 1463.779,644.918 1463.903,648.998 1464.018,653.078 1464.124,657.158 1464.221,661.239 1464.308,665.319 1464.385,669.399 1464.454,673.479 1464.512,677.559 1464.561,681.639 1464.6,685.719 1464.63,689.8 1464.649,693.88 1464.659,697.96 1464.659,702.04 1464.649,706.12 1464.63,710.2 1464.6,714.281 1464.561,718.361 1464.512,722.441 1464.454,726.521 1464.385,730.601 1464.308,734.681 1464.221,738.761 1464.124,742.842 1464.018,746.922 1463.903,751.002 1463.779,755.082 1463.647,759.162 1463.505,763.242 1463.355,767.323 1463.197,771.403 1463.03,775.483 1462.856,779.563 1462.673,783.643 1462.484,787.723 1462.287,791.803 1462.083,795.884 1461.873,799.964 1461.657,804.044 1461.436,808.124 1461.209,812.204 1460.978,816.284 1460.743,820.365 1460.505,824.445 1460.265,828.525 1460.023,832.605 1459.781,836.685 1459.54,840.765 1459.301,844.845 1459.065,848.926 1458.834,853.006 1458.61,857.086 1458.395,861.166 1458.19,865.246 1457.999,869.326 1457.823,873.407 1457.666,877.487 1457.53,881.567 1457.419,885.647 1457.335,889.727 1457.284,893.807 1457.268,897.887 1457.293,901.968 " />
</g>
<g>
<polyline fill="none" stroke="#7f7fff" points="1495.706,489.545 1494.601,493.796 1493.52,498.048 1492.463,502.3 1491.429,506.551 1490.42,510.803 1489.434,515.054 1488.472,519.306 1487.533,523.558 1486.617,527.809 1485.725,532.061 1484.856,536.313 1484.011,540.564 1483.188,544.816 1482.389,549.067 1481.612,553.319 1480.858,557.571 1480.127,561.822 1479.419,566.074 1478.734,570.326 1478.071,574.577 1477.431,578.829 1476.814,583.08 1476.218,587.332 1475.646,591.584 1475.096,595.835 1474.568,600.087 1474.062,604.339 1473.579,608.59 1473.118,612.842 1472.679,617.093 1472.262,621.345 1471.868,625.597 1471.495,629.848 1471.145,634.1 1470.816,638.351 1470.51,642.603 1470.226,646.855 1469.963,651.106 1469.723,655.358 1469.504,659.61 1469.307,663.861 1469.133,668.113 1468.98,672.364 1468.849,676.616 1468.74,680.868 1468.652,685.119 1468.587,689.371 1468.543,693.623 1468.521,697.874 1468.521,702.126 1468.543,706.377 1468.587,710.629 1468.652,714.881 1468.74,719.132 1468.849,723.384 1468.98,727.636 1469.133,731.887 1469.307,736.139 1469.504,740.39 1469.723,744.642 1469.963,748.894 1470.226,753.145 1470.51,757.397 1470.816,761.649 1471.145,765.9 1471.495,770.152 1471.868,774.403 1472.262,778.655 1472.679,782.907 1473.118,787.158 1473.579,791.41 1474.062,795.661 1474.568,799.913 1475.096,804.165 1475.646,808.416 1476.218,812.668 1476.814,816.92 1477.431,821.171 1478.071,825.423 1478.734,829.674 1479.419,833.926 1480.127,838.178 1480.858,842.429 1481.612,846.681 1482.389,850.933 1483.188,855.184 1484.011,859.436 1484.856,863.687 1485.725,867.939 1486.617,872.191 1487.533,876.442 1488.472,880.694 1489.434,884.946 1490.42,889.197 1491.429,893.449 1492.463,897.7 1493.52,901.952 1494.601,906.204 1495.706,910.455 " />
<line x1="1495.706" y1="489.545" x2="1518.346" y2="489.545"  stroke="#7f7fff" />
<line x1="1495.706" y1="910.455" x2="1518.346" y2="910.455"  stroke="#7f7fff" />
<polyline fill="none" stroke="#7f7fff" points="1518.346,489.545 1521.241,493.796 1524.051,498.048 1526.778,502.3 1529.425,506.551 1531.992,510.803 1534.482,515.054 1536.898,519.306 1539.24,523.558 1541.509,527.809 1543.709,532.061 1545.839,536.313 1547.902,540.564 1549.899,544.816 1551.83,549.067 1553.697,553.319 1555.5,557.571 1557.242,561.822 1558.923,566.074 1560.543,570.326 1562.104,574.577 1563.606,578.829 1565.05,583.08 1566.437,587.332 1567.768,591.584 1569.042,595.835 1570.262,600.087 1571.426,604.339 1572.537,608.59 1573.594,612.842 1574.597,617.093 1575.548,621.345 1576.447,625.597 1577.293,629.848 1578.088,634.1 1578.832,638.351 1579.525,642.603 1580.167,646.855 1580.758,651.106 1581.3,655.358 1581.792,659.61 1582.234,663.861 1582.626,668.113 1582.969,672.364 1583.263,676.616 1583.507,680.868 1583.703,685.119 1583.849,689.371 1583.947,693.623 1583.996,697.874 1583.996,702.126 1583.947,706.377 1583.849,710.629 1583.703,714.881 1583.507,719.132 1583.263,723.384 1582.969,727.636 1582.626,731.887 1582.234,736.139 1581.792,740.39 1581.3,744.642 1580.758,748.894 1580.167,753.145 1579.525,757.397 1578.832,761.649 1578.088,765.9 1577.293,770.152 1576.447,774.403 1575.548,778.655 1574.597,782.907 1573.594,787.158 1572.537,791.41 1571.426,795.661 1570.262,799.913 1569.042,804.165 1567.768,808.416 1566.437,812.668 1565.05,816.92 1563.606,821.171 1562.104,825.423 1560.543,829.674 1558.923,833.926 1557.242,838.178 1555.5,842.429 1553.697,846.681 1551.83,850.933 1549.899,855.184 1547.902,859.436 1545.839,863.687 1543.709,867.939 1541.509,872.191 1539.24,876.442 1536.898,880.694 1534.482,884.946 1531.992,889.197 1529.425,893.449 1526.778,897.7 1524.051,901.952 1521.241,906.204 1518.346,910.455 " />
</g>
<g>
<polyline fill="none" stroke="#7f7fff" points="1566.411,489.931 1567.269,494.174 1568.181,498.418 1569.128,502.662 1570.094,506.906 1571.063,511.15 1572.025,515.394 1572.969,519.637 1573.887,523.881 1574.774,528.125 1575.624,532.369 1576.434,536.613 1577.202,540.856 1577.927,545.1 1578.609,549.344 1579.247,553.588 1579.842,557.832 1580.397,562.076 1580.911,566.319 1581.387,570.563 1581.826,574.807 1582.231,579.051 1582.603,583.295 1582.945,587.539 1583.258,591.782 1583.544,596.026 1583.806,600.27 1584.044,604.514 1584.261,608.758 1584.458,613.002 1584.637,617.245 1584.799,621.489 1584.946,625.733 1585.078,629.977 1585.197,634.221 1585.304,638.465 1585.4,642.708 1585.485,646.952 1585.561,651.196 1585.628,655.44 1585.687,659.684 1585.739,663.927 1585.784,668.171 1585.822,672.415 1585.853,676.659 1585.88,680.903 1585.9,685.147 1585.915,689.39 1585.925,693.634 1585.93,697.878 1585.93,702.122 1585.925,706.366 1585.915,710.61 1585.9,714.853 1585.88,719.097 1585.853,723.341 1585.822,727.585 1585.784,731.829 1585.739,736.073 1585.687,740.316 1585.628,744.56 1585.561,748.804 1585.485,753.048 1585.4,757.292 1585.304,761.535 1585.197,765.779 1585.078,770.023 1584.946,774.267 1584.799,778.511 1584.637,782.755 1584.458,786.998 1584.261,791.242 1584.044,795.486 1583.806,799.73 1583.544,803.974 1583.258,808.218 1582.945,812.461 1582.603,816.705 1582.231,820.949 1581.826,825.193 1581.387,829.437 1580.911,833.681 1580.397,837.924 1579.842,842.168 1579.247,846.412 1578.609,850.656 1577.927,854.9 1577.202,859.144 1576.434,863.387 1575.624,867.631 1574.774,871.875 1573.887,876.119 1572.969,880.363 1572.025,884.606 1571.063,888.85 1570.094,893.094 1569.128,897.338 1568.181,901.582 1567.269,905.826 1566.411,910.069 " />
<line x1="1566.411" y1="489.931" x2="1596.615" y2="489.931"  stroke="#7f7fff" />
<line x1="1566.411" y1="910.069" x2="1596.615" y2="910.069"  stroke="#7f7fff" />
<polyline fill="none" stroke="#7f7fff" points="1596.615,489.931 1597.936,494.174 1599.318,498.418 1600.74,502.662 1602.183,506.906 1603.633,511.15 1605.077,515.394 1606.506,519.637 1607.911,523.881 1609.285,528.125 1610.625,532.369 1611.925,536.613 1613.184,540.856 1614.4,545.1 1615.572,549.344 1616.699,553.588 1617.781,557.832 1618.819,562.076 1619.813,566.319 1620.764,570.563 1621.673,574.807 1622.541,579.051 1623.369,583.295 1624.158,587.539 1624.909,591.782 1625.623,596.026 1626.301,600.27 1626.944,604.514 1627.554,608.758 1628.131,613.002 1628.675,617.245 1629.188,621.489 1629.671,625.733 1630.123,629.977 1630.546,634.221 1630.94,638.465 1631.306,642.708 1631.644,646.952 1631.954,651.196 1632.238,655.44 1632.495,659.684 1632.725,663.927 1632.929,668.171 1633.107,672.415 1633.259,676.659 1633.386,680.903 1633.487,685.147 1633.563,689.39 1633.614,693.634 1633.639,697.878 1633.639,702.122 1633.614,706.366 1633.563,710.61 1633.487,714.853 1633.386,719.097 1633.259,723.341 1633.107,727.585 1632.929,731.829 1632.725,736.073 1632.495,740.316 1632.238,744.56 1631.954,748.804 1631.644,753.048 1631.306,757.292 1630.94,761.535 1630.546,765.779 1630.123,770.023 1629.671,774.267 1629.188,778.511 1628.675,782.755 1628.131,786.998 1627.554,791.242 1626.944,795.486 1626.301,799.73 1625.623,803.974 1624.909,808.218 1624.158,812.461 1623.369,816.705 1622.541,820.949 1621.673,825.193 1620.764,829.437 1619.813,833.681 1618.819,837.924 1617.781,842.168 1616.699,846.412 1615.572,850.656 1614.4,854.9 1613.184,859.144 1611.925,863.387 1610.625,867.631 1609.285,871.875 1607.911,876.119 1606.506,880.363 1605.077,884.606 1603.633,888.85 1602.183,893.094 1600.74,897.338 1599.318,901.582 1597.936,905.826 1596.615,910.069 " />
</g>
</g>
<g><title>element</title>
<polyline fill="none" stroke="#7f7fff" points="2128.369,144.444 2128.369,155.668 2128.369,166.891 2128.369,178.114 2128.369,189.338 2128.369,200.561 2128.369,211.785 2128.369,223.008 2128.369,234.231 2128.369,245.455 2128.369,256.678 2128.369,267.901 2128.369,279.125 2128.369,290.348 2128.369,301.571 2128.369,312.795 2128.369,324.018 2128.369,335.241 2128.369,346.465 2128.369,357.688 2128.369,368.911 2128.369,380.135 2128.369,391.358 2128.369,402.581 2128.369,413.805 2128.369,425.028 2128.369,436.251 2128.369,447.475 2128.369,458.698 2128.369,469.921 2128.369,481.145 2128.369,492.368 2128.369,503.591 2128.369,514.815 2128.369,526.038 2128.369,537.262 2128.369,548.485 2128.369,559.708 2128.369,570.932 2128.369,582.155 2128.369,593.378 2128.369,604.602 2128.369,615.825 2128.369,627.048 2128.369,638.272 2128.369,649.495 2128.369,660.718 2128.369,671.942 2128.369,683.165 2128.369,694.388 2128.369,705.612 2128.369,716.835 2128.369,728.058 2128.369,739.282 2128.369,750.505 2128.369,761.728 2128.369,772.952 2128.369,784.175 2128.369,795.398 2128.369,806.622 2128.369,817.845 2128.369,829.068 2128.369,840.292 2128.369,851.515 2128.369,862.738 2128.369,873.962 2128.369,885.185 2128.369,896.409 2128.369,907.632 2128.369,918.855 2128.369,930.079 2128.369,941.302 2128.369,952.525 2128.369,963.749 2128.369,974.972 2128.369,986.195 2128.369,997.419 2128.369,1008.642 2128.369,1019.865 2128.369,1031.089 2128.369,1042.312 2128.369,1053.535 2128.369,1064.759 2128.369,1075.982 2128.369,1087.205 2128.369,1098.429 2128.369,1109.652 2128.369,1120.875 2128.369,1132.099 2128.369,1143.322 2128.369,1154.545 2128.369,1165.769 2128.369,1176.992 2128.369,1188.215 2128.369,1199.439 2128.369,1210.662 2128.369,1221.886 2128.369,1233.109 2128.369,1244.332 2128.369,1255.556 " />
</g>
</svg>
