<?xml version="1.0" standalone="no"?>
<svg width="2400px" height="1400px" version="1.1" xmlns="http://www.w3.org/2000/svg" xmlns:xlink="http://www.w3.org/1999/xlink">
<rect x="0" y="0" width="2400" height="1400"  fill="#ffffff" />
<defs>
<g id="dot">
<line x1="1" y1="1" x2="0" y2="0"  />
</g>
<g id="cross">
<line x1="-3" y1="0" x2="3" y2="0"  />
<line x1="0" y1="-3" x2="0" y2="3"  />
</g>
<g id="square">
<line x1="-3" y1="-3" x2="-3" y2="3"  />
<line x1="-3" y1="3" x2="3" y2="3"  />
<line x1="3" y1="3" x2="3" y2="-3"  />
<line x1="3" y1="-3" x2="-3" y2="-3"  />
</g>
<g id="round">
<ellipse cx="0" cy="0" rx="3" ry="3"  fill="none" /></g>
<g id="triangle">
<line x1="0" y1="-3" x2="-3" y2="3"  />
<line x1="-3" y1="3" x2="3" y2="3"  />
<line x1="0" y1="-3" x2="3" y2="3"  />
</g>
</defs>
<line x1="641.776" y1="700" x2="1758.224" y2="700"  stroke="#7f7f7f" />
<g><title>element</title>
<g>
<line x1="927.463" y1="546.322" x2="927.463" y2="392.644"  stroke="#7f7fff" />
<line x1="927.463" y1="853.678" x2="927.463" y2="1007.356"  stroke="#7f7fff" />
</g>
<g>
<polyline fill="none" stroke="#7f7fff" points="709.33,442.798 706.437,447.994 703.621,453.19 700.88,458.386 698.213,463.582 695.618,468.778 693.095,473.974 690.642,479.17 688.259,484.366 685.943,489.562 683.695,494.758 681.513,499.954 679.397,505.15 677.345,510.346 675.356,515.542 673.431,520.738 671.568,525.934 669.766,531.13 668.025,536.326 666.345,541.522 664.724,546.718 663.162,551.914 661.658,557.11 660.212,562.306 658.824,567.502 657.493,572.698 656.218,577.894 655,583.09 653.837,588.286 652.729,593.482 651.677,598.678 650.679,603.874 649.735,609.07 648.845,614.266 648.009,619.462 647.227,624.658 646.498,629.854 645.821,635.05 645.198,640.246 644.627,645.442 644.109,650.638 643.643,655.834 643.229,661.03 642.867,666.226 642.557,671.422 642.299,676.618 642.092,681.814 641.937,687.01 641.834,692.206 641.782,697.402 641.782,702.598 641.834,707.794 641.937,712.99 642.092,718.186 642.299,723.382 642.557,728.578 642.867,733.774 643.229,738.97 643.643,744.166 644.109,749.362 644.627,754.558 645.198,759.754 645.821,764.95 646.498,770.146 647.227,775.342 648.009,780.538 648.845,785.734 649.735,790.93 650.679,796.126 651.677,801.322 652.729,806.518 653.837,811.714 655,816.91 656.218,822.106 657.493,827.302 658.824,832.498 660.212,837.694 661.658,842.89 663.162,848.086 664.724,853.282 666.345,858.478 668.025,863.674 669.766,868.87 671.568,874.066 673.431,879.262 675.356,884.458 677.345,889.654 679.397,894.85 681.513,900.046 683.695,905.242 685.943,910.438 688.259,915.634 690.642,920.83 693.095,926.026 695.618,931.222 698.213,936.418 700.88,941.614 703.621,946.81 706.437,952.006 709.33,957.202 " />
<line x1="709.33" y1="442.798" x2="721.09" y2="442.798"  stroke="#7f7fff" />
<line x1="709.33" y1="957.202" x2="721.09" y2="957.202"  stroke="#7f7fff" />
<polyline fill="none" stroke="#7f7fff" points="721.09,442.798 720.305,447.994 719.536,453.19 718.784,458.386 718.049,463.582 717.329,468.778 716.626,473.974 715.939,479.17 715.268,484.366 714.614,489.562 713.976,494.758 713.353,499.954 712.748,505.15 712.158,510.346 711.584,515.542 711.027,520.738 710.485,525.934 709.96,531.13 709.451,536.326 708.958,541.522 708.481,546.718 708.019,551.914 707.574,557.11 707.145,562.306 706.732,567.502 706.335,572.698 705.954,577.894 705.589,583.09 705.24,588.286 704.906,593.482 704.589,598.678 704.288,603.874 704.002,609.07 703.733,614.266 703.479,619.462 703.241,624.658 703.019,629.854 702.813,635.05 702.623,640.246 702.449,645.442 702.29,650.638 702.148,655.834 702.021,661.03 701.91,666.226 701.815,671.422 701.736,676.618 701.672,681.814 701.625,687.01 701.593,692.206 701.577,697.402 701.577,702.598 701.593,707.794 701.625,712.99 701.672,718.186 701.736,723.382 701.815,728.578 701.91,733.774 702.021,738.97 702.148,744.166 702.29,749.362 702.449,754.558 702.623,759.754 702.813,764.95 703.019,770.146 703.241,775.342 703.479,780.538 703.733,785.734 704.002,790.93 704.288,796.126 704.589,801.322 704.906,806.518 705.24,811.714 705.589,816.91 705.954,822.106 706.335,827.302 706.732,832.498 707.145,837.694 707.574,842.89 708.019,848.086 708.481,853.282 708.958,858.478 709.451,863.674 709.96,868.87 710.485,874.066 711.027,879.262 711.584,884.458 712.158,889.654 712.748,894.85 713.353,900.046 713.976,905.242 714.614,910.438 715.268,915.634 715.939,920.83 716.626,926.026 717.329,931.222 718.049,936.418 718.784,941.614 719.536,946.81 720.305,952.006 721.09,957.202 " />
</g>
<g>
<polyline fill="none" stroke="#7f7fff" points="771.19,488.452 768.151,492.725 765.204,496.999 762.347,501.273 759.576,505.546 756.889,509.82 754.285,514.094 751.761,518.368 749.315,522.641 746.945,526.915 744.65,531.189 742.429,535.462 740.279,539.736 738.199,544.01 736.188,548.284 734.245,552.557 732.368,556.831 730.556,561.105 728.809,565.378 727.125,569.652 725.503,573.926 723.942,578.199 722.443,582.473 721.002,586.747 719.621,591.021 718.299,595.294 717.034,599.568 715.826,603.842 714.674,608.115 713.578,612.389 712.538,616.663 711.552,620.936 710.621,625.21 709.744,629.484 708.92,633.758 708.15,638.031 707.433,642.305 706.768,646.579 706.155,650.852 705.594,655.126 705.085,659.4 704.628,663.674 704.221,667.947 703.866,672.221 703.562,676.495 703.309,680.768 703.107,685.042 702.955,689.316 702.854,693.589 702.803,697.863 702.803,702.137 702.854,706.411 702.955,710.684 703.107,714.958 703.309,719.232 703.562,723.505 703.866,727.779 704.221,732.053 704.628,736.326 705.085,740.6 705.594,744.874 706.155,749.148 706.768,753.421 707.433,757.695 708.15,761.969 708.92,766.242 709.744,770.516 710.621,774.79 711.552,779.064 712.538,783.337 713.578,787.611 714.674,791.885 715.826,796.158 717.034,800.432 718.299,804.706 719.621,808.979 721.002,813.253 722.443,817.527 723.942,821.801 725.503,826.074 727.125,830.348 728.809,834.622 730.556,838.895 732.368,843.169 734.245,847.443 736.188,851.716 738.199,855.99 740.279,860.264 742.429,864.538 744.65,868.811 746.945,873.085 749.315,877.359 751.761,881.632 754.285,885.906 756.889,890.18 759.576,894.454 762.347,898.727 765.204,903.001 768.151,907.275 771.19,911.548 " />
<line x1="791.884" y1="488.452" x2="791.884" y2="497.454"  stroke="#7f7fff" />
<line x1="771.19" y1="488.452" x2="791.884" y2="488.452"  stroke="#7f7fff" />
<line x1="791.884" y1="911.548" x2="791.884" y2="902.546"  stroke="#7f7fff" />
<line x1="771.19" y1="911.548" x2="791.884" y2="911.548"  stroke="#7f7fff" />
<polyline fill="none" stroke="#7f7fff" points="791.884,497.454 791.41,501.546 790.947,505.637 790.493,509.729 790.049,513.821 789.615,517.913 789.19,522.005 788.775,526.097 788.37,530.188 787.975,534.28 787.589,538.372 787.213,542.464 786.847,546.556 786.491,550.648 786.144,554.74 785.807,558.831 785.48,562.923 785.162,567.015 784.854,571.107 784.556,575.199 784.267,579.291 783.988,583.382 783.719,587.474 783.459,591.566 783.209,595.658 782.969,599.75 782.738,603.842 782.517,607.934 782.306,612.025 782.104,616.117 781.912,620.209 781.729,624.301 781.556,628.393 781.393,632.485 781.239,636.576 781.095,640.668 780.961,644.76 780.836,648.852 780.721,652.944 780.615,657.036 780.519,661.127 780.433,665.219 780.356,669.311 780.289,673.403 780.231,677.495 780.183,681.587 780.145,685.679 780.116,689.77 780.097,693.862 780.087,697.954 780.087,702.046 780.097,706.138 780.116,710.23 780.145,714.321 780.183,718.413 780.231,722.505 780.289,726.597 780.356,730.689 780.433,734.781 780.519,738.873 780.615,742.964 780.721,747.056 780.836,751.148 780.961,755.24 781.095,759.332 781.239,763.424 781.393,767.515 781.556,771.607 781.729,775.699 781.912,779.791 782.104,783.883 782.306,787.975 782.517,792.066 782.738,796.158 782.969,800.25 783.209,804.342 783.459,808.434 783.719,812.526 783.988,816.618 784.267,820.709 784.556,824.801 784.854,828.893 785.162,832.985 785.48,837.077 785.807,841.169 786.144,845.26 786.491,849.352 786.847,853.444 787.213,857.536 787.589,861.628 787.975,865.72 788.37,869.812 788.775,873.903 789.19,877.995 789.615,882.087 790.049,886.179 790.493,890.271 790.947,894.363 791.41,898.454 791.884,902.546 " />
<line x1="891.925" y1="497.454" x2="891.925" y2="541.821"  stroke="#7f7fff" />
<line x1="791.884" y1="497.454" x2="891.925" y2="497.454"  stroke="#7f7fff" />
<line x1="891.925" y1="902.546" x2="891.925" y2="858.179"  stroke="#7f7fff" />
<line x1="791.884" y1="902.546" x2="891.925" y2="902.546"  stroke="#7f7fff" />
<polyline fill="none" stroke="#7f7fff" points="891.925,541.821 888.523,545.017 885.264,548.212 882.139,551.408 879.14,554.603 876.261,557.799 873.494,560.994 870.835,564.19 868.278,567.385 865.819,570.581 863.453,573.776 861.177,576.972 858.987,580.167 856.881,583.363 854.854,586.558 852.906,589.754 851.032,592.95 849.232,596.145 847.502,599.341 845.841,602.536 844.248,605.732 842.72,608.927 841.256,612.123 839.854,615.318 838.514,618.514 837.234,621.709 836.013,624.905 834.849,628.1 833.743,631.296 832.692,634.492 831.696,637.687 830.754,640.883 829.866,644.078 829.031,647.274 828.248,650.469 827.517,653.665 826.836,656.86 826.206,660.056 825.627,663.251 825.097,666.447 824.616,669.642 824.184,672.838 823.801,676.033 823.467,679.229 823.18,682.425 822.942,685.62 822.751,688.816 822.609,692.011 822.514,695.207 822.466,698.402 822.466,701.598 822.514,704.793 822.609,707.989 822.751,711.184 822.942,714.38 823.18,717.575 823.467,720.771 823.801,723.967 824.184,727.162 824.616,730.358 825.097,733.553 825.627,736.749 826.206,739.944 826.836,743.14 827.517,746.335 828.248,749.531 829.031,752.726 829.866,755.922 830.754,759.117 831.696,762.313 832.692,765.508 833.743,768.704 834.849,771.9 836.013,775.095 837.234,778.291 838.514,781.486 839.854,784.682 841.256,787.877 842.72,791.073 844.248,794.268 845.841,797.464 847.502,800.659 849.232,803.855 851.032,807.05 852.906,810.246 854.854,813.442 856.881,816.637 858.987,819.833 861.177,823.028 863.453,826.224 865.819,829.419 868.278,832.615 870.835,835.81 873.494,839.006 876.261,842.201 879.14,845.397 882.139,848.592 885.264,851.788 888.523,854.983 891.925,858.179 " />
</g>
<g>
<polyline fill="none" stroke="#7f7fff" points="972.835,550.18 975.928,553.207 978.897,556.233 981.747,559.26 984.486,562.287 987.12,565.313 989.653,568.34 992.091,571.367 994.437,574.393 996.696,577.42 998.87,580.447 1000.964,583.473 1002.98,586.5 1004.92,589.527 1006.788,592.553 1008.585,595.58 1010.313,598.607 1011.976,601.633 1013.573,604.66 1015.108,607.687 1016.581,610.713 1017.994,613.74 1019.348,616.767 1020.645,619.793 1021.886,622.82 1023.071,625.847 1024.202,628.873 1025.28,631.9 1026.306,634.927 1027.28,637.953 1028.203,640.98 1029.076,644.007 1029.899,647.033 1030.674,650.06 1031.401,653.087 1032.079,656.113 1032.711,659.14 1033.295,662.167 1033.833,665.193 1034.325,668.22 1034.772,671.247 1035.172,674.273 1035.528,677.3 1035.839,680.327 1036.105,683.353 1036.326,686.38 1036.503,689.407 1036.635,692.433 1036.724,695.46 1036.768,698.487 1036.768,701.513 1036.724,704.54 1036.635,707.567 1036.503,710.593 1036.326,713.62 1036.105,716.647 1035.839,719.673 1035.528,722.7 1035.172,725.727 1034.772,728.753 1034.325,731.78 1033.833,734.807 1033.295,737.833 1032.711,740.86 1032.079,743.887 1031.401,746.913 1030.674,749.94 1029.899,752.967 1029.076,755.993 1028.203,759.02 1027.28,762.047 1026.306,765.073 1025.28,768.1 1024.202,771.127 1023.071,774.153 1021.886,777.18 1020.645,780.207 1019.348,783.233 1017.994,786.26 1016.581,789.287 1015.108,792.313 1013.573,795.34 1011.976,798.367 1010.313,801.393 1008.585,804.42 1006.788,807.447 1004.92,810.473 1002.98,813.5 1000.964,816.527 998.87,819.553 996.696,822.58 994.437,825.607 992.091,828.633 989.653,831.66 987.12,834.687 984.486,837.713 981.747,840.74 978.897,843.767 975.928,846.793 972.835,849.82 " />
<line x1="972.835" y1="516.744" x2="972.835" y2="550.18"  stroke="#7f7fff" />
<line x1="972.835" y1="516.744" x2="1063.626" y2="516.744"  stroke="#7f7fff" />
<line x1="972.835" y1="883.256" x2="972.835" y2="849.82"  stroke="#7f7fff" />
<line x1="972.835" y1="883.256" x2="1063.626" y2="883.256"  stroke="#7f7fff" />
<polyline fill="none" stroke="#7f7fff" points="1063.626,516.744 1063.748,520.446 1063.867,524.148 1063.984,527.85 1064.099,531.552 1064.211,535.255 1064.32,538.957 1064.427,542.659 1064.532,546.361 1064.634,550.063 1064.733,553.765 1064.83,557.467 1064.925,561.17 1065.017,564.872 1065.106,568.574 1065.193,572.276 1065.278,575.978 1065.36,579.68 1065.439,583.382 1065.516,587.085 1065.591,590.787 1065.663,594.489 1065.733,598.191 1065.8,601.893 1065.865,605.595 1065.927,609.297 1065.986,613 1066.044,616.702 1066.098,620.404 1066.151,624.106 1066.2,627.808 1066.248,631.51 1066.292,635.212 1066.335,638.915 1066.374,642.617 1066.412,646.319 1066.447,650.021 1066.479,653.723 1066.509,657.425 1066.536,661.127 1066.561,664.83 1066.583,668.532 1066.603,672.234 1066.621,675.936 1066.635,679.638 1066.648,683.34 1066.658,687.042 1066.665,690.745 1066.67,694.447 1066.673,698.149 1066.673,701.851 1066.67,705.553 1066.665,709.255 1066.658,712.958 1066.648,716.66 1066.635,720.362 1066.621,724.064 1066.603,727.766 1066.583,731.468 1066.561,735.17 1066.536,738.873 1066.509,742.575 1066.479,746.277 1066.447,749.979 1066.412,753.681 1066.374,757.383 1066.335,761.085 1066.292,764.788 1066.248,768.49 1066.2,772.192 1066.151,775.894 1066.098,779.596 1066.044,783.298 1065.986,787 1065.927,790.703 1065.865,794.405 1065.8,798.107 1065.733,801.809 1065.663,805.511 1065.591,809.213 1065.516,812.915 1065.439,816.618 1065.36,820.32 1065.278,824.022 1065.193,827.724 1065.106,831.426 1065.017,835.128 1064.925,838.83 1064.83,842.533 1064.733,846.235 1064.634,849.937 1064.532,853.639 1064.427,857.341 1064.32,861.043 1064.211,864.745 1064.099,868.448 1063.984,872.15 1063.867,875.852 1063.748,879.554 1063.626,883.256 " />
<line x1="1063.626" y1="501.955" x2="1063.626" y2="516.744"  stroke="#7f7fff" />
<line x1="1063.626" y1="501.955" x2="1103.51" y2="501.955"  stroke="#7f7fff" />
<line x1="1063.626" y1="898.045" x2="1063.626" y2="883.256"  stroke="#7f7fff" />
<line x1="1063.626" y1="898.045" x2="1103.51" y2="898.045"  stroke="#7f7fff" />
<polyline fill="none" stroke="#7f7fff" points="1103.51,501.955 1106.636,505.956 1109.66,509.957 1112.587,513.957 1115.42,517.958 1118.162,521.959 1120.816,525.96 1123.384,529.961 1125.869,533.962 1128.274,537.963 1130.599,541.964 1132.848,545.965 1135.022,549.966 1137.122,553.967 1139.151,557.968 1141.109,561.968 1142.999,565.969 1144.822,569.97 1146.579,573.971 1148.27,577.972 1149.898,581.973 1151.464,585.974 1152.967,589.975 1154.41,593.976 1155.792,597.977 1157.116,601.978 1158.381,605.979 1159.589,609.979 1160.739,613.98 1161.833,617.981 1162.872,621.982 1163.855,625.983 1164.784,629.984 1165.659,633.985 1166.48,637.986 1167.248,641.987 1167.962,645.988 1168.625,649.989 1169.235,653.989 1169.793,657.99 1170.3,661.991 1170.755,665.992 1171.159,669.993 1171.512,673.994 1171.815,677.995 1172.067,681.996 1172.268,685.997 1172.419,689.998 1172.519,693.999 1172.57,698 1172.57,702 1172.519,706.001 1172.419,710.002 1172.268,714.003 1172.067,718.004 1171.815,722.005 1171.512,726.006 1171.159,730.007 1170.755,734.008 1170.3,738.009 1169.793,742.01 1169.235,746.011 1168.625,750.011 1167.962,754.012 1167.248,758.013 1166.48,762.014 1165.659,766.015 1164.784,770.016 1163.855,774.017 1162.872,778.018 1161.833,782.019 1160.739,786.02 1159.589,790.021 1158.381,794.021 1157.116,798.022 1155.792,802.023 1154.41,806.024 1152.967,810.025 1151.464,814.026 1149.898,818.027 1148.27,822.028 1146.579,826.029 1144.822,830.03 1142.999,834.031 1141.109,838.032 1139.151,842.032 1137.122,846.033 1135.022,850.034 1132.848,854.035 1130.599,858.036 1128.274,862.037 1125.869,866.038 1123.384,870.039 1120.816,874.04 1118.162,878.041 1115.42,882.042 1112.587,886.043 1109.66,890.043 1106.636,894.044 1103.51,898.045 " />
</g>
<g>
<polyline fill="none" stroke="#7f7fff" points="1162.081,494.239 1162.653,498.395 1163.213,502.552 1163.76,506.709 1164.296,510.866 1164.82,515.023 1165.333,519.179 1165.833,523.336 1166.322,527.493 1166.799,531.65 1167.264,535.807 1167.717,539.963 1168.159,544.12 1168.588,548.277 1169.006,552.434 1169.413,556.591 1169.807,560.747 1170.19,564.904 1170.562,569.061 1170.921,573.218 1171.269,577.375 1171.605,581.531 1171.93,585.688 1172.243,589.845 1172.544,594.002 1172.833,598.159 1173.111,602.315 1173.378,606.472 1173.632,610.629 1173.875,614.786 1174.107,618.943 1174.327,623.099 1174.535,627.256 1174.732,631.413 1174.917,635.57 1175.09,639.726 1175.252,643.883 1175.402,648.04 1175.541,652.197 1175.668,656.354 1175.784,660.51 1175.888,664.667 1175.98,668.824 1176.061,672.981 1176.131,677.138 1176.188,681.294 1176.235,685.451 1176.269,689.608 1176.292,693.765 1176.304,697.922 1176.304,702.078 1176.292,706.235 1176.269,710.392 1176.235,714.549 1176.188,718.706 1176.131,722.862 1176.061,727.019 1175.98,731.176 1175.888,735.333 1175.784,739.49 1175.668,743.646 1175.541,747.803 1175.402,751.96 1175.252,756.117 1175.09,760.274 1174.917,764.43 1174.732,768.587 1174.535,772.744 1174.327,776.901 1174.107,781.057 1173.875,785.214 1173.632,789.371 1173.378,793.528 1173.111,797.685 1172.833,801.841 1172.544,805.998 1172.243,810.155 1171.93,814.312 1171.605,818.469 1171.269,822.625 1170.921,826.782 1170.562,830.939 1170.19,835.096 1169.807,839.253 1169.413,843.409 1169.006,847.566 1168.588,851.723 1168.159,855.88 1167.717,860.037 1167.264,864.193 1166.799,868.35 1166.322,872.507 1165.833,876.664 1165.333,880.821 1164.82,884.977 1164.296,889.134 1163.76,893.291 1163.213,897.448 1162.653,901.605 1162.081,905.761 " />
<line x1="1162.081" y1="484.594" x2="1162.081" y2="494.239"  stroke="#7f7fff" />
<line x1="1162.081" y1="484.594" x2="1179.984" y2="484.594"  stroke="#7f7fff" />
<line x1="1162.081" y1="915.406" x2="1162.081" y2="905.761"  stroke="#7f7fff" />
<line x1="1162.081" y1="915.406" x2="1179.984" y2="915.406"  stroke="#7f7fff" />
<polyline fill="none" stroke="#7f7fff" points="1179.984,484.594 1182.508,488.945 1184.963,493.297 1187.352,497.649 1189.676,502 1191.935,506.352 1194.131,510.703 1196.264,515.055 1198.337,519.407 1200.35,523.758 1202.303,528.11 1204.199,532.462 1206.037,536.813 1207.818,541.165 1209.543,545.517 1211.214,549.868 1212.83,554.22 1214.392,558.572 1215.901,562.923 1217.358,567.275 1218.762,571.627 1220.115,575.978 1221.417,580.33 1222.669,584.681 1223.871,589.033 1225.023,593.385 1226.126,597.736 1227.181,602.088 1228.187,606.44 1229.145,610.791 1230.055,615.143 1230.918,619.495 1231.734,623.846 1232.504,628.198 1233.226,632.55 1233.903,636.901 1234.533,641.253 1235.117,645.604 1235.656,649.956 1236.149,654.308 1236.597,658.659 1237,663.011 1237.357,667.363 1237.67,671.714 1237.938,676.066 1238.161,680.418 1238.339,684.769 1238.473,689.121 1238.562,693.473 1238.607,697.824 1238.607,702.176 1238.562,706.527 1238.473,710.879 1238.339,715.231 1238.161,719.582 1237.938,723.934 1237.67,728.286 1237.357,732.637 1237,736.989 1236.597,741.341 1236.149,745.692 1235.656,750.044 1235.117,754.396 1234.533,758.747 1233.903,763.099 1233.226,767.45 1232.504,771.802 1231.734,776.154 1230.918,780.505 1230.055,784.857 1229.145,789.209 1228.187,793.56 1227.181,797.912 1226.126,802.264 1225.023,806.615 1223.871,810.967 1222.669,815.319 1221.417,819.67 1220.115,824.022 1218.762,828.373 1217.358,832.725 1215.901,837.077 1214.392,841.428 1212.83,845.78 1211.214,850.132 1209.543,854.483 1207.818,858.835 1206.037,863.187 1204.199,867.538 1202.303,871.89 1200.35,876.242 1198.337,880.593 1196.264,884.945 1194.131,889.297 1191.935,893.648 1189.676,898 1187.352,902.351 1184.963,906.703 1182.508,911.055 1179.984,915.406 " />
</g>
<g>
<polyline fill="none" stroke="#7f7fff" points="1266.4,468.519 1265.324,473.195 1264.271,477.871 1263.241,482.548 1262.234,487.224 1261.249,491.9 1260.288,496.577 1259.349,501.253 1258.433,505.93 1257.54,510.606 1256.669,515.282 1255.821,519.959 1254.995,524.635 1254.191,529.312 1253.41,533.988 1252.651,538.664 1251.915,543.341 1251.2,548.017 1250.508,552.694 1249.838,557.37 1249.19,562.046 1248.563,566.723 1247.959,571.399 1247.377,576.076 1246.816,580.752 1246.278,585.428 1245.761,590.105 1245.266,594.781 1244.793,599.458 1244.341,604.134 1243.911,608.81 1243.503,613.487 1243.117,618.163 1242.752,622.84 1242.408,627.516 1242.086,632.192 1241.786,636.869 1241.508,641.545 1241.25,646.221 1241.015,650.898 1240.8,655.574 1240.608,660.251 1240.436,664.927 1240.286,669.603 1240.158,674.28 1240.051,678.956 1239.965,683.633 1239.901,688.309 1239.858,692.985 1239.837,697.662 1239.837,702.338 1239.858,707.015 1239.901,711.691 1239.965,716.367 1240.051,721.044 1240.158,725.72 1240.286,730.397 1240.436,735.073 1240.608,739.749 1240.8,744.426 1241.015,749.102 1241.25,753.779 1241.508,758.455 1241.786,763.131 1242.086,767.808 1242.408,772.484 1242.752,777.16 1243.117,781.837 1243.503,786.513 1243.911,791.19 1244.341,795.866 1244.793,800.542 1245.266,805.219 1245.761,809.895 1246.278,814.572 1246.816,819.248 1247.377,823.924 1247.959,828.601 1248.563,833.277 1249.19,837.954 1249.838,842.63 1250.508,847.306 1251.2,851.983 1251.915,856.659 1252.651,861.336 1253.41,866.012 1254.191,870.688 1254.995,875.365 1255.821,880.041 1256.669,884.718 1257.54,889.394 1258.433,894.07 1259.349,898.747 1260.288,903.423 1261.249,908.1 1262.234,912.776 1263.241,917.452 1264.271,922.129 1265.324,926.805 1266.4,931.481 " />
<line x1="1266.4" y1="468.519" x2="1275.018" y2="468.519"  stroke="#7f7fff" />
<line x1="1266.4" y1="931.481" x2="1275.018" y2="931.481"  stroke="#7f7fff" />
<polyline fill="none" stroke="#7f7fff" points="1275.018,468.519 1275.206,473.195 1275.389,477.871 1275.569,482.548 1275.745,487.224 1275.917,491.9 1276.085,496.577 1276.249,501.253 1276.41,505.93 1276.566,510.606 1276.719,515.282 1276.868,519.959 1277.014,524.635 1277.155,529.312 1277.293,533.988 1277.426,538.664 1277.556,543.341 1277.682,548.017 1277.805,552.694 1277.923,557.37 1278.038,562.046 1278.149,566.723 1278.256,571.399 1278.359,576.076 1278.458,580.752 1278.554,585.428 1278.645,590.105 1278.733,594.781 1278.817,599.458 1278.898,604.134 1278.974,608.81 1279.047,613.487 1279.115,618.163 1279.18,622.84 1279.241,627.516 1279.299,632.192 1279.352,636.869 1279.402,641.545 1279.448,646.221 1279.49,650.898 1279.528,655.574 1279.562,660.251 1279.593,664.927 1279.62,669.603 1279.643,674.28 1279.662,678.956 1279.677,683.633 1279.688,688.309 1279.696,692.985 1279.7,697.662 1279.7,702.338 1279.696,707.015 1279.688,711.691 1279.677,716.367 1279.662,721.044 1279.643,725.72 1279.62,730.397 1279.593,735.073 1279.562,739.749 1279.528,744.426 1279.49,749.102 1279.448,753.779 1279.402,758.455 1279.352,763.131 1279.299,767.808 1279.241,772.484 1279.18,777.16 1279.115,781.837 1279.047,786.513 1278.974,791.19 1278.898,795.866 1278.817,800.542 1278.733,805.219 1278.645,809.895 1278.554,814.572 1278.458,819.248 1278.359,823.924 1278.256,828.601 1278.149,833.277 1278.038,837.954 1277.923,842.63 1277.805,847.306 1277.682,851.983 1277.556,856.659 1277.426,861.336 1277.293,866.012 1277.155,870.688 1277.014,875.365 1276.868,880.041 1276.719,884.718 1276.566,889.394 1276.41,894.07 1276.249,898.747 1276.085,903.423 1275.917,908.1 1275.745,912.776 1275.569,917.452 1275.389,922.129 1275.206,926.805 1275.018,931.481 " />
</g>
</g>
<g><title>element</title>
<polyline fill="none" stroke="#7f7fff" points="1758.224,144.444 1758.224,155.668 1758.224,166.891 1758.224,178.114 1758.224,189.338 1758.224,200.561 1758.224,211.785 1758.224,223.008 1758.224,234.231 1758.224,245.455 1758.224,256.678 1758.224,267.901 1758.224,279.125 1758.224,290.348 1758.224,301.571 1758.224,312.795 1758.224,324.018 1758.224,335.241 1758.224,346.465 1758.224,357.688 1758.224,368.911 1758.224,380.135 1758.224,391.358 1758.224,402.581 1758.224,413.805 1758.224,425.028 1758.224,436.251 1758.224,447.475 1758.224,458.698 1758.224,469.921 1758.224,481.145 1758.224,492.368 1758.224,503.591 1758.224,514.815 1758.224,526.038 1758.224,537.262 1758.224,548.485 1758.224,559.708 1758.224,570.932 1758.224,582.155 1758.224,593.378 1758.224,604.602 1758.224,615.825 1758.224,627.048 1758.224,638.272 1758.224,649.495 1758.224,660.718 1758.224,671.942 1758.224,683.165 1758.224,694.388 1758.224,705.612 1758.224,716.835 1758.224,728.058 1758.224,739.282 1758.224,750.505 1758.224,761.728 1758.224,772.952 1758.224,784.175 1758.224,795.398 1758.224,806.622 1758.224,817.845 1758.224,829.068 1758.224,840.292 1758.224,851.515 1758.224,862.738 1758.224,873.962 1758.224,885.185 1758.224,896.409 1758.224,907.632 1758.224,918.855 1758.224,930.079 1758.224,941.302 1758.224,952.525 1758.224,963.749 1758.224,974.972 1758.224,986.195 1758.224,997.419 1758.224,1008.642 1758.224,1019.865 1758.224,1031.089 1758.224,1042.312 1758.224,1053.535 1758.224,1064.759 1758.224,1075.982 1758.224,1087.205 1758.224,1098.429 1758.224,1109.652 1758.224,1120.875 1758.224,1132.099 1758.224,1143.322 1758.224,1154.545 1758.224,1165.769 1758.224,1176.992 1758.224,1188.215 1758.224,1199.439 1758.224,1210.662 1758.224,1221.886 1758.224,1233.109 1758.224,1244.332 1758.224,1255.556 " />
</g>
</svg>
