<?xml version="1.0" standalone="no"?>
<svg width="2400px" height="1400px" version="1.1" xmlns="http://www.w3.org/2000/svg" xmlns:xlink="http://www.w3.org/1999/xlink">
<rect x="0" y="0" width="2400" height="1400"  fill="#ffffff" />
<defs>
<g id="dot">
<line x1="1" y1="1" x2="0" y2="0"  />
</g>
<g id="cross">
<line x1="-3" y1="0" x2="3" y2="0"  />
<line x1="0" y1="-3" x2="0" y2="3"  />
</g>
<g id="square">
<line x1="-3" y1="-3" x2="-3" y2="3"  />
<line x1="-3" y1="3" x2="3" y2="3"  />
<line x1="3" y1="3" x2="3" y2="-3"  />
<line x1="3" y1="-3" x2="-3" y2="-3"  />
</g>
<g id="round">
<ellipse cx="0" cy="0" rx="3" ry="3"  fill="none" /></g>
<g id="triangle">
<line x1="0" y1="-3" x2="-3" y2="3"  />
<line x1="-3" y1="3" x2="3" y2="3"  />
<line x1="0" y1="-3" x2="3" y2="3"  />
</g>
</defs>
<line x1="247.619" y1="700" x2="2152.381" y2="700"  stroke="#7f7f7f" />
<g><title>element</title>
<g>
<line x1="1296.911" y1="495.436" x2="1296.911" y2="290.872"  stroke="#7f7fff" />
<line x1="1296.911" y1="904.564" x2="1296.911" y2="1109.128"  stroke="#7f7fff" />
</g>
<g>
<polyline fill="none" stroke="#7f7fff" points="727.569,348.839 724.497,355.933 721.499,363.028 718.574,370.122 715.722,377.216 712.941,384.31 710.231,391.404 707.592,398.498 705.021,405.593 702.52,412.687 700.087,419.781 697.722,426.875 695.424,433.969 693.193,441.063 691.027,448.157 688.927,455.252 686.892,462.346 684.922,469.44 683.015,476.534 681.172,483.628 679.393,490.722 677.676,497.817 676.022,504.911 674.43,512.005 672.9,519.099 671.431,526.193 670.023,533.287 668.677,540.382 667.39,547.476 666.164,554.57 664.998,561.664 663.892,568.758 662.845,575.852 661.857,582.946 660.929,590.041 660.06,597.135 659.249,604.229 658.497,611.323 657.803,618.417 657.168,625.511 656.59,632.606 656.071,639.7 655.61,646.794 655.207,653.888 654.861,660.982 654.573,668.076 654.343,675.17 654.17,682.265 654.055,689.359 653.998,696.453 653.998,703.547 654.055,710.641 654.17,717.735 654.343,724.83 654.573,731.924 654.861,739.018 655.207,746.112 655.61,753.206 656.071,760.3 656.59,767.394 657.168,774.489 657.803,781.583 658.497,788.677 659.249,795.771 660.06,802.865 660.929,809.959 661.857,817.054 662.845,824.148 663.892,831.242 664.998,838.336 666.164,845.43 667.39,852.524 668.677,859.618 670.023,866.713 671.431,873.807 672.9,880.901 674.43,887.995 676.022,895.089 677.676,902.183 679.393,909.278 681.172,916.372 683.015,923.466 684.922,930.56 686.892,937.654 688.927,944.748 691.027,951.843 693.193,958.937 695.424,966.031 697.722,973.125 700.087,980.219 702.52,987.313 705.021,994.407 707.592,1001.502 710.231,1008.596 712.941,1015.69 715.722,1022.784 718.574,1029.878 721.499,1036.972 724.497,1044.067 727.569,1051.161 " />
<line x1="727.569" y1="348.839" x2="740.068" y2="348.839"  stroke="#7f7fff" />
<line x1="727.569" y1="1051.161" x2="740.068" y2="1051.161"  stroke="#7f7fff" />
<polyline fill="none" stroke="#7f7fff" points="740.068,348.839 740.388,355.933 740.701,363.028 741.007,370.122 741.307,377.216 741.601,384.31 741.887,391.404 742.168,398.498 742.442,405.593 742.709,412.687 742.97,419.781 743.224,426.875 743.472,433.969 743.713,441.063 743.948,448.157 744.176,455.252 744.397,462.346 744.612,469.44 744.821,476.534 745.023,483.628 745.218,490.722 745.407,497.817 745.59,504.911 745.766,512.005 745.935,519.099 746.098,526.193 746.255,533.287 746.404,540.382 746.548,547.476 746.685,554.57 746.815,561.664 746.939,568.758 747.056,575.852 747.167,582.946 747.271,590.041 747.369,597.135 747.46,604.229 747.545,611.323 747.623,618.417 747.695,625.511 747.76,632.606 747.818,639.7 747.87,646.794 747.916,653.888 747.955,660.982 747.988,668.076 748.014,675.17 748.033,682.265 748.046,689.359 748.053,696.453 748.053,703.547 748.046,710.641 748.033,717.735 748.014,724.83 747.988,731.924 747.955,739.018 747.916,746.112 747.87,753.206 747.818,760.3 747.76,767.394 747.695,774.489 747.623,781.583 747.545,788.677 747.46,795.771 747.369,802.865 747.271,809.959 747.167,817.054 747.056,824.148 746.939,831.242 746.815,838.336 746.685,845.43 746.548,852.524 746.404,859.618 746.255,866.713 746.098,873.807 745.935,880.901 745.766,887.995 745.59,895.089 745.407,902.183 745.218,909.278 745.023,916.372 744.821,923.466 744.612,930.56 744.397,937.654 744.176,944.748 743.948,951.843 743.713,958.937 743.472,966.031 743.224,973.125 742.97,980.219 742.709,987.313 742.442,994.407 742.168,1001.502 741.887,1008.596 741.601,1015.69 741.307,1022.784 741.007,1029.878 740.701,1036.972 740.388,1044.067 740.068,1051.161 " />
</g>
<g>
<polyline fill="none" stroke="#7f7fff" points="767.67,397.99 768.384,404.091 769.082,410.193 769.766,416.294 770.435,422.395 771.089,428.496 771.729,434.597 772.354,440.699 772.964,446.8 773.56,452.901 774.141,459.002 774.707,465.103 775.259,471.205 775.796,477.306 776.319,483.407 776.826,489.508 777.32,495.609 777.798,501.711 778.262,507.812 778.712,513.913 779.146,520.014 779.567,526.116 779.973,532.217 780.364,538.318 780.74,544.419 781.102,550.52 781.45,556.622 781.783,562.723 782.102,568.824 782.406,574.925 782.695,581.026 782.97,587.128 783.231,593.229 783.477,599.33 783.708,605.431 783.925,611.532 784.128,617.634 784.316,623.735 784.489,629.836 784.648,635.937 784.793,642.039 784.923,648.14 785.039,654.241 785.14,660.342 785.227,666.443 785.299,672.545 785.357,678.646 785.4,684.747 785.429,690.848 785.444,696.949 785.444,703.051 785.429,709.152 785.4,715.253 785.357,721.354 785.299,727.455 785.227,733.557 785.14,739.658 785.039,745.759 784.923,751.86 784.793,757.961 784.648,764.063 784.489,770.164 784.316,776.265 784.128,782.366 783.925,788.468 783.708,794.569 783.477,800.67 783.231,806.771 782.97,812.872 782.695,818.974 782.406,825.075 782.102,831.176 781.783,837.277 781.45,843.378 781.102,849.48 780.74,855.581 780.364,861.682 779.973,867.783 779.567,873.884 779.146,879.986 778.712,886.087 778.262,892.188 777.798,898.289 777.32,904.391 776.826,910.492 776.319,916.593 775.796,922.694 775.259,928.795 774.707,934.897 774.141,940.998 773.56,947.099 772.964,953.2 772.354,959.301 771.729,965.403 771.089,971.504 770.435,977.605 769.766,983.706 769.082,989.807 768.384,995.909 767.67,1002.01 " />
<line x1="889.272" y1="397.99" x2="889.272" y2="476.317"  stroke="#7f7fff" />
<line x1="767.67" y1="397.99" x2="889.272" y2="397.99"  stroke="#7f7fff" />
<line x1="889.272" y1="1002.01" x2="889.272" y2="923.683"  stroke="#7f7fff" />
<line x1="767.67" y1="1002.01" x2="889.272" y2="1002.01"  stroke="#7f7fff" />
<polyline fill="none" stroke="#7f7fff" points="889.272,476.317 885.1,480.836 881.082,485.355 877.21,489.874 873.478,494.392 869.879,498.911 866.408,503.43 863.06,507.949 859.831,512.468 856.716,516.987 853.711,521.506 850.812,526.024 848.017,530.543 845.322,535.062 842.724,539.581 840.221,544.1 837.811,548.619 835.49,553.137 833.257,557.656 831.11,562.175 829.047,566.694 827.066,571.213 825.166,575.732 823.345,580.251 821.602,584.769 819.935,589.288 818.343,593.807 816.825,598.326 815.38,602.845 814.007,607.364 812.705,611.882 811.473,616.401 810.31,620.92 809.216,625.439 808.19,629.958 807.231,634.477 806.338,638.996 805.511,643.514 804.75,648.033 804.054,652.552 803.422,657.071 802.855,661.59 802.351,666.109 801.911,670.627 801.534,675.146 801.221,679.665 800.97,684.184 800.782,688.703 800.657,693.222 800.595,697.741 800.595,702.259 800.657,706.778 800.782,711.297 800.97,715.816 801.221,720.335 801.534,724.854 801.911,729.373 802.351,733.891 802.855,738.41 803.422,742.929 804.054,747.448 804.75,751.967 805.511,756.486 806.338,761.004 807.231,765.523 808.19,770.042 809.216,774.561 810.31,779.08 811.473,783.599 812.705,788.118 814.007,792.636 815.38,797.155 816.825,801.674 818.343,806.193 819.935,810.712 821.602,815.231 823.345,819.749 825.166,824.268 827.066,828.787 829.047,833.306 831.11,837.825 833.257,842.344 835.49,846.863 837.811,851.381 840.221,855.9 842.724,860.419 845.322,864.938 848.017,869.457 850.812,873.976 853.711,878.494 856.716,883.013 859.831,887.532 863.06,892.051 866.408,896.57 869.879,901.089 873.478,905.608 877.21,910.126 881.082,914.645 885.1,919.164 889.272,923.683 " />
</g>
<g>
<polyline fill="none" stroke="#7f7fff" points="892.962,480.801 895.086,485.229 897.157,489.658 899.176,494.086 901.144,498.514 903.06,502.942 904.927,507.371 906.744,511.799 908.511,516.227 910.23,520.656 911.901,525.084 913.525,529.512 915.102,533.94 916.632,538.369 918.116,542.797 919.554,547.225 920.947,551.653 922.296,556.082 923.6,560.51 924.859,564.938 926.076,569.366 927.248,573.795 928.378,578.223 929.464,582.651 930.508,587.079 931.51,591.508 932.47,595.936 933.388,600.364 934.265,604.792 935.1,609.221 935.894,613.649 936.648,618.077 937.36,622.505 938.032,626.934 938.664,631.362 939.256,635.79 939.807,640.219 940.319,644.647 940.79,649.075 941.222,653.503 941.615,657.932 941.968,662.36 942.281,666.788 942.555,671.216 942.79,675.645 942.986,680.073 943.142,684.501 943.26,688.929 943.338,693.358 943.377,697.786 943.377,702.214 943.338,706.642 943.26,711.071 943.142,715.499 942.986,719.927 942.79,724.355 942.555,728.784 942.281,733.212 941.968,737.64 941.615,742.068 941.222,746.497 940.79,750.925 940.319,755.353 939.807,759.781 939.256,764.21 938.664,768.638 938.032,773.066 937.36,777.495 936.648,781.923 935.894,786.351 935.1,790.779 934.265,795.208 933.388,799.636 932.47,804.064 931.51,808.492 930.508,812.921 929.464,817.349 928.378,821.777 927.248,826.205 926.076,830.634 924.859,835.062 923.6,839.49 922.296,843.918 920.947,848.347 919.554,852.775 918.116,857.203 916.632,861.631 915.102,866.06 913.525,870.488 911.901,874.916 910.23,879.344 908.511,883.773 906.744,888.201 904.927,892.629 903.06,897.058 901.144,901.486 899.176,905.914 897.157,910.342 895.086,914.771 892.962,919.199 " />
<line x1="892.962" y1="463.796" x2="892.962" y2="480.801"  stroke="#7f7fff" />
<line x1="892.962" y1="463.796" x2="974.305" y2="463.796"  stroke="#7f7fff" />
<line x1="892.962" y1="936.204" x2="892.962" y2="919.199"  stroke="#7f7fff" />
<line x1="892.962" y1="936.204" x2="974.305" y2="936.204"  stroke="#7f7fff" />
<polyline fill="none" stroke="#7f7fff" points="974.305,463.796 973.664,468.568 973.037,473.34 972.423,478.112 971.822,482.884 971.235,487.655 970.66,492.427 970.099,497.199 969.552,501.971 969.017,506.742 968.496,511.514 967.988,516.286 967.493,521.058 967.011,525.83 966.542,530.601 966.087,535.373 965.644,540.145 965.215,544.917 964.799,549.689 964.396,554.46 964.006,559.232 963.629,564.004 963.265,568.776 962.914,573.548 962.576,578.319 962.252,583.091 961.94,587.863 961.641,592.635 961.356,597.407 961.083,602.178 960.824,606.95 960.577,611.722 960.344,616.494 960.123,621.265 959.916,626.037 959.721,630.809 959.54,635.581 959.371,640.353 959.216,645.124 959.073,649.896 958.944,654.668 958.827,659.44 958.723,664.212 958.632,668.983 958.555,673.755 958.49,678.527 958.438,683.299 958.399,688.071 958.373,692.842 958.36,697.614 958.36,702.386 958.373,707.158 958.399,711.929 958.438,716.701 958.49,721.473 958.555,726.245 958.632,731.017 958.723,735.788 958.827,740.56 958.944,745.332 959.073,750.104 959.216,754.876 959.371,759.647 959.54,764.419 959.721,769.191 959.916,773.963 960.123,778.735 960.344,783.506 960.577,788.278 960.824,793.05 961.083,797.822 961.356,802.593 961.641,807.365 961.94,812.137 962.252,816.909 962.576,821.681 962.914,826.452 963.265,831.224 963.629,835.996 964.006,840.768 964.396,845.54 964.799,850.311 965.215,855.083 965.644,859.855 966.087,864.627 966.542,869.399 967.011,874.17 967.493,878.942 967.988,883.714 968.496,888.486 969.017,893.258 969.552,898.029 970.099,902.801 970.66,907.573 971.235,912.345 971.822,917.116 972.423,921.888 973.037,926.66 973.664,931.432 974.305,936.204 " />
</g>
<g>
<polyline fill="none" stroke="#7f7fff" points="992.575,460.535 991.784,465.373 991.017,470.211 990.271,475.048 989.545,479.886 988.834,484.724 988.137,489.561 987.451,494.399 986.775,499.237 986.108,504.074 985.449,508.912 984.798,513.75 984.155,518.587 983.521,523.425 982.895,528.263 982.277,533.1 981.67,537.938 981.072,542.776 980.484,547.613 979.908,552.451 979.343,557.289 978.79,562.126 978.25,566.964 977.724,571.802 977.211,576.639 976.713,581.477 976.231,586.315 975.764,591.152 975.313,595.99 974.879,600.828 974.463,605.665 974.064,610.503 973.683,615.341 973.321,620.178 972.978,625.016 972.655,629.854 972.351,634.691 972.068,639.529 971.805,644.367 971.563,649.204 971.342,654.042 971.143,658.88 970.965,663.717 970.809,668.555 970.675,673.393 970.563,678.23 970.473,683.068 970.406,687.906 970.361,692.743 970.338,697.581 970.338,702.419 970.361,707.257 970.406,712.094 970.473,716.932 970.563,721.77 970.675,726.607 970.809,731.445 970.965,736.283 971.143,741.12 971.342,745.958 971.563,750.796 971.805,755.633 972.068,760.471 972.351,765.309 972.655,770.146 972.978,774.984 973.321,779.822 973.683,784.659 974.064,789.497 974.463,794.335 974.879,799.172 975.313,804.01 975.764,808.848 976.231,813.685 976.713,818.523 977.211,823.361 977.724,828.198 978.25,833.036 978.79,837.874 979.343,842.711 979.908,847.549 980.484,852.387 981.072,857.224 981.67,862.062 982.277,866.9 982.895,871.737 983.521,876.575 984.155,881.413 984.798,886.25 985.449,891.088 986.108,895.926 986.775,900.763 987.451,905.601 988.137,910.439 988.834,915.276 989.545,920.114 990.271,924.952 991.017,929.789 991.784,934.627 992.575,939.465 " />
<line x1="992.575" y1="460.535" x2="1013.369" y2="460.535"  stroke="#7f7fff" />
<line x1="992.575" y1="939.465" x2="1013.369" y2="939.465"  stroke="#7f7fff" />
<polyline fill="none" stroke="#7f7fff" points="1013.369,460.535 1015.026,465.373 1016.675,470.211 1018.31,475.048 1019.928,479.886 1021.525,484.724 1023.097,489.561 1024.641,494.399 1026.155,499.237 1027.638,504.074 1029.088,508.912 1030.504,513.75 1031.885,518.587 1033.231,523.425 1034.541,528.263 1035.816,533.1 1037.054,537.938 1038.256,542.776 1039.421,547.613 1040.551,552.451 1041.643,557.289 1042.699,562.126 1043.719,566.964 1044.702,571.802 1045.649,576.639 1046.559,581.477 1047.433,586.315 1048.27,591.152 1049.07,595.99 1049.835,600.828 1050.563,605.665 1051.254,610.503 1051.909,615.341 1052.528,620.178 1053.11,625.016 1053.656,629.854 1054.165,634.691 1054.639,639.529 1055.075,644.367 1055.476,649.204 1055.84,654.042 1056.167,658.88 1056.459,663.717 1056.713,668.555 1056.932,673.393 1057.114,678.23 1057.26,683.068 1057.369,687.906 1057.442,692.743 1057.478,697.581 1057.478,702.419 1057.442,707.257 1057.369,712.094 1057.26,716.932 1057.114,721.77 1056.932,726.607 1056.713,731.445 1056.459,736.283 1056.167,741.12 1055.84,745.958 1055.476,750.796 1055.075,755.633 1054.639,760.471 1054.165,765.309 1053.656,770.146 1053.11,774.984 1052.528,779.822 1051.909,784.659 1051.254,789.497 1050.563,794.335 1049.835,799.172 1049.07,804.01 1048.27,808.848 1047.433,813.685 1046.559,818.523 1045.649,823.361 1044.702,828.198 1043.719,833.036 1042.699,837.874 1041.643,842.711 1040.551,847.549 1039.421,852.387 1038.256,857.224 1037.054,862.062 1035.816,866.9 1034.541,871.737 1033.231,876.575 1031.885,881.413 1030.504,886.25 1029.088,891.088 1027.638,895.926 1026.155,900.763 1024.641,905.601 1023.097,910.439 1021.525,915.276 1019.928,920.114 1018.31,924.952 1016.675,929.789 1015.026,934.627 1013.369,939.465 " />
</g>
<g>
<polyline fill="none" stroke="#7f7fff" points="1098.716,454.479 1097.301,459.439 1095.918,464.399 1094.566,469.359 1093.244,474.319 1091.954,479.279 1090.694,484.239 1089.464,489.199 1088.264,494.159 1087.095,499.119 1085.956,504.079 1084.846,509.039 1083.767,513.999 1082.717,518.959 1081.697,523.919 1080.706,528.879 1079.745,533.839 1078.813,538.799 1077.91,543.759 1077.036,548.719 1076.191,553.679 1075.376,558.639 1074.589,563.599 1073.83,568.559 1073.101,573.519 1072.4,578.479 1071.728,583.439 1071.084,588.399 1070.469,593.359 1069.882,598.319 1069.323,603.279 1068.793,608.24 1068.29,613.2 1067.816,618.16 1067.37,623.12 1066.952,628.08 1066.563,633.04 1066.201,638 1065.867,642.96 1065.561,647.92 1065.283,652.88 1065.033,657.84 1064.811,662.8 1064.616,667.76 1064.45,672.72 1064.311,677.68 1064.2,682.64 1064.116,687.6 1064.061,692.56 1064.033,697.52 1064.033,702.48 1064.061,707.44 1064.116,712.4 1064.2,717.36 1064.311,722.32 1064.45,727.28 1064.616,732.24 1064.811,737.2 1065.033,742.16 1065.283,747.12 1065.561,752.08 1065.867,757.04 1066.201,762 1066.563,766.96 1066.952,771.92 1067.37,776.88 1067.816,781.84 1068.29,786.8 1068.793,791.76 1069.323,796.721 1069.882,801.681 1070.469,806.641 1071.084,811.601 1071.728,816.561 1072.4,821.521 1073.101,826.481 1073.83,831.441 1074.589,836.401 1075.376,841.361 1076.191,846.321 1077.036,851.281 1077.91,856.241 1078.813,861.201 1079.745,866.161 1080.706,871.121 1081.697,876.081 1082.717,881.041 1083.767,886.001 1084.846,890.961 1085.956,895.921 1087.095,900.881 1088.264,905.841 1089.464,910.801 1090.694,915.761 1091.954,920.721 1093.244,925.681 1094.566,930.641 1095.918,935.601 1097.301,940.561 1098.716,945.521 " />
<line x1="1098.716" y1="454.479" x2="1113.447" y2="454.479"  stroke="#7f7fff" />
<line x1="1098.716" y1="945.521" x2="1113.447" y2="945.521"  stroke="#7f7fff" />
<polyline fill="none" stroke="#7f7fff" points="1113.447,454.479 1116.922,459.439 1120.291,464.399 1123.56,469.359 1126.731,474.319 1129.805,479.279 1132.786,484.239 1135.677,489.199 1138.478,494.159 1141.192,499.119 1143.821,504.079 1146.366,509.039 1148.83,513.999 1151.214,518.959 1153.52,523.919 1155.748,528.879 1157.9,533.839 1159.978,538.799 1161.982,543.759 1163.914,548.719 1165.775,553.679 1167.565,558.639 1169.286,563.599 1170.939,568.559 1172.524,573.519 1174.043,578.479 1175.495,583.439 1176.882,588.399 1178.204,593.359 1179.462,598.319 1180.657,603.279 1181.788,608.24 1182.858,613.2 1183.865,618.16 1184.811,623.12 1185.696,628.08 1186.52,633.04 1187.284,638 1187.988,642.96 1188.632,647.92 1189.216,652.88 1189.742,657.84 1190.209,662.8 1190.617,667.76 1190.966,672.72 1191.257,677.68 1191.489,682.64 1191.664,687.6 1191.78,692.56 1191.838,697.52 1191.838,702.48 1191.78,707.44 1191.664,712.4 1191.489,717.36 1191.257,722.32 1190.966,727.28 1190.617,732.24 1190.209,737.2 1189.742,742.16 1189.216,747.12 1188.632,752.08 1187.988,757.04 1187.284,762 1186.52,766.96 1185.696,771.92 1184.811,776.88 1183.865,781.84 1182.858,786.8 1181.788,791.76 1180.657,796.721 1179.462,801.681 1178.204,806.641 1176.882,811.601 1175.495,816.561 1174.043,821.521 1172.524,826.481 1170.939,831.441 1169.286,836.401 1167.565,841.361 1165.775,846.321 1163.914,851.281 1161.982,856.241 1159.978,861.201 1157.9,866.161 1155.748,871.121 1153.52,876.081 1151.214,881.041 1148.83,886.001 1146.366,890.961 1143.821,895.921 1141.192,900.881 1138.478,905.841 1135.677,910.801 1132.786,915.761 1129.805,920.721 1126.731,925.681 1123.56,930.641 1120.291,935.601 1116.922,940.561 1113.447,945.521 " />
<line x1="1113.447" y1="454.479" x2="1199.65" y2="454.479"  stroke="#7f7fff" />
<line x1="1113.447" y1="945.521" x2="1199.65" y2="945.521"  stroke="#7f7fff" />
<polyline fill="none" stroke="#7f7fff" points="1199.65,454.479 1199.897,459.439 1200.139,464.399 1200.375,469.359 1200.607,474.319 1200.834,479.279 1201.056,484.239 1201.273,489.199 1201.484,494.159 1201.691,499.119 1201.892,504.079 1202.089,509.039 1202.28,513.999 1202.467,518.959 1202.648,523.919 1202.824,528.879 1202.996,533.839 1203.162,538.799 1203.323,543.759 1203.479,548.719 1203.63,553.679 1203.776,558.639 1203.918,563.599 1204.053,568.559 1204.184,573.519 1204.31,578.479 1204.431,583.439 1204.547,588.399 1204.658,593.359 1204.764,598.319 1204.864,603.279 1204.96,608.24 1205.051,613.2 1205.136,618.16 1205.217,623.12 1205.292,628.08 1205.363,633.04 1205.428,638 1205.489,642.96 1205.544,647.92 1205.594,652.88 1205.64,657.84 1205.68,662.8 1205.715,667.76 1205.745,672.72 1205.771,677.68 1205.791,682.64 1205.806,687.6 1205.816,692.56 1205.821,697.52 1205.821,702.48 1205.816,707.44 1205.806,712.4 1205.791,717.36 1205.771,722.32 1205.745,727.28 1205.715,732.24 1205.68,737.2 1205.64,742.16 1205.594,747.12 1205.544,752.08 1205.489,757.04 1205.428,762 1205.363,766.96 1205.292,771.92 1205.217,776.88 1205.136,781.84 1205.051,786.8 1204.96,791.76 1204.864,796.721 1204.764,801.681 1204.658,806.641 1204.547,811.601 1204.431,816.561 1204.31,821.521 1204.184,826.481 1204.053,831.441 1203.918,836.401 1203.776,841.361 1203.63,846.321 1203.479,851.281 1203.323,856.241 1203.162,861.201 1202.996,866.161 1202.824,871.121 1202.648,876.081 1202.467,881.041 1202.28,886.001 1202.089,890.961 1201.892,895.921 1201.691,900.881 1201.484,905.841 1201.273,910.801 1201.056,915.761 1200.834,920.721 1200.607,925.681 1200.375,930.641 1200.139,935.601 1199.897,940.561 1199.65,945.521 " />
</g>
<g>
<polyline fill="none" stroke="#7f7fff" points="1217.959,454.479 1217.542,459.439 1217.135,464.399 1216.736,469.359 1216.345,474.319 1215.963,479.279 1215.589,484.239 1215.224,489.199 1214.868,494.159 1214.52,499.119 1214.18,504.079 1213.85,509.039 1213.527,513.999 1213.213,518.959 1212.908,523.919 1212.611,528.879 1212.323,533.839 1212.043,538.799 1211.772,543.759 1211.509,548.719 1211.255,553.679 1211.009,558.639 1210.772,563.599 1210.543,568.559 1210.322,573.519 1210.111,578.479 1209.907,583.439 1209.712,588.399 1209.526,593.359 1209.348,598.319 1209.179,603.279 1209.018,608.24 1208.865,613.2 1208.721,618.16 1208.586,623.12 1208.459,628.08 1208.34,633.04 1208.23,638 1208.129,642.96 1208.035,647.92 1207.951,652.88 1207.875,657.84 1207.807,662.8 1207.748,667.76 1207.697,672.72 1207.654,677.68 1207.621,682.64 1207.595,687.6 1207.578,692.56 1207.57,697.52 1207.57,702.48 1207.578,707.44 1207.595,712.4 1207.621,717.36 1207.654,722.32 1207.697,727.28 1207.748,732.24 1207.807,737.2 1207.875,742.16 1207.951,747.12 1208.035,752.08 1208.129,757.04 1208.23,762 1208.34,766.96 1208.459,771.92 1208.586,776.88 1208.721,781.84 1208.865,786.8 1209.018,791.76 1209.179,796.721 1209.348,801.681 1209.526,806.641 1209.712,811.601 1209.907,816.561 1210.111,821.521 1210.322,826.481 1210.543,831.441 1210.772,836.401 1211.009,841.361 1211.255,846.321 1211.509,851.281 1211.772,856.241 1212.043,861.201 1212.323,866.161 1212.611,871.121 1212.908,876.081 1213.213,881.041 1213.527,886.001 1213.85,890.961 1214.18,895.921 1214.52,900.881 1214.868,905.841 1215.224,910.801 1215.589,915.761 1215.963,920.721 1216.345,925.681 1216.736,930.641 1217.135,935.601 1217.542,940.561 1217.959,945.521 " />
<line x1="1217.959" y1="454.479" x2="1230.785" y2="454.479"  stroke="#7f7fff" />
<line x1="1217.959" y1="945.521" x2="1230.785" y2="945.521"  stroke="#7f7fff" />
<polyline fill="none" stroke="#7f7fff" points="1230.785,454.479 1232.394,459.439 1233.967,464.399 1235.504,469.359 1237.006,474.319 1238.472,479.279 1239.902,484.239 1241.297,489.199 1242.658,494.159 1243.984,499.119 1245.275,504.079 1246.532,509.039 1247.754,513.999 1248.943,518.959 1250.098,523.919 1251.219,528.879 1252.306,533.839 1253.36,538.799 1254.38,543.759 1255.368,548.719 1256.322,553.679 1257.244,558.639 1258.132,563.599 1258.988,568.559 1259.812,573.519 1260.602,578.479 1261.361,583.439 1262.087,588.399 1262.781,593.359 1263.443,598.319 1264.073,603.279 1264.67,608.24 1265.236,613.2 1265.771,618.16 1266.273,623.12 1266.744,628.08 1267.183,633.04 1267.59,638 1267.966,642.96 1268.311,647.92 1268.624,652.88 1268.905,657.84 1269.155,662.8 1269.374,667.76 1269.562,672.72 1269.718,677.68 1269.843,682.64 1269.937,687.6 1269.999,692.56 1270.031,697.52 1270.031,702.48 1269.999,707.44 1269.937,712.4 1269.843,717.36 1269.718,722.32 1269.562,727.28 1269.374,732.24 1269.155,737.2 1268.905,742.16 1268.624,747.12 1268.311,752.08 1267.966,757.04 1267.59,762 1267.183,766.96 1266.744,771.92 1266.273,776.88 1265.771,781.84 1265.236,786.8 1264.67,791.76 1264.073,796.721 1263.443,801.681 1262.781,806.641 1262.087,811.601 1261.361,816.561 1260.602,821.521 1259.812,826.481 1258.988,831.441 1258.132,836.401 1257.244,841.361 1256.322,846.321 1255.368,851.281 1254.38,856.241 1253.36,861.201 1252.306,866.161 1251.219,871.121 1250.098,876.081 1248.943,881.041 1247.754,886.001 1246.532,890.961 1245.275,895.921 1243.984,900.881 1242.658,905.841 1241.297,910.801 1239.902,915.761 1238.472,920.721 1237.006,925.681 1235.504,930.641 1233.967,935.601 1232.394,940.561 1230.785,945.521 " />
</g>
<g>
<polyline fill="none" stroke="#7f7fff" points="1346.549,492.681 1346.44,496.87 1346.315,501.058 1346.179,505.246 1346.035,509.434 1345.883,513.623 1345.727,517.811 1345.565,521.999 1345.399,526.187 1345.228,530.376 1345.052,534.564 1344.872,538.752 1344.686,542.94 1344.495,547.129 1344.299,551.317 1344.099,555.505 1343.894,559.693 1343.685,563.882 1343.473,568.07 1343.257,572.258 1343.039,576.446 1342.818,580.635 1342.596,584.823 1342.373,589.011 1342.15,593.199 1341.926,597.388 1341.703,601.576 1341.481,605.764 1341.261,609.952 1341.043,614.141 1340.827,618.329 1340.615,622.517 1340.406,626.705 1340.202,630.894 1340.004,635.082 1339.812,639.27 1339.627,643.459 1339.45,647.647 1339.282,651.835 1339.123,656.023 1338.975,660.212 1338.839,664.4 1338.715,668.588 1338.605,672.776 1338.508,676.965 1338.427,681.153 1338.361,685.341 1338.311,689.529 1338.278,693.718 1338.261,697.906 1338.261,702.094 1338.278,706.282 1338.311,710.471 1338.361,714.659 1338.427,718.847 1338.508,723.035 1338.605,727.224 1338.715,731.412 1338.839,735.6 1338.975,739.788 1339.123,743.977 1339.282,748.165 1339.45,752.353 1339.627,756.541 1339.812,760.73 1340.004,764.918 1340.202,769.106 1340.406,773.295 1340.615,777.483 1340.827,781.671 1341.043,785.859 1341.261,790.048 1341.481,794.236 1341.703,798.424 1341.926,802.612 1342.15,806.801 1342.373,810.989 1342.596,815.177 1342.818,819.365 1343.039,823.554 1343.257,827.742 1343.473,831.93 1343.685,836.118 1343.894,840.307 1344.099,844.495 1344.299,848.683 1344.495,852.871 1344.686,857.06 1344.872,861.248 1345.052,865.436 1345.228,869.624 1345.399,873.813 1345.565,878.001 1345.727,882.189 1345.883,886.377 1346.035,890.566 1346.179,894.754 1346.315,898.942 1346.44,903.13 1346.549,907.319 " />
<line x1="1410.682" y1="492.681" x2="1410.682" y2="514.461"  stroke="#7f7fff" />
<line x1="1346.549" y1="492.681" x2="1410.682" y2="492.681"  stroke="#7f7fff" />
<line x1="1410.682" y1="907.319" x2="1410.682" y2="885.539"  stroke="#7f7fff" />
<line x1="1346.549" y1="907.319" x2="1410.682" y2="907.319"  stroke="#7f7fff" />
<polyline fill="none" stroke="#7f7fff" points="1410.682,514.461 1408.65,518.21 1406.669,521.958 1404.738,525.706 1402.857,529.454 1401.024,533.203 1399.238,536.951 1397.498,540.699 1395.802,544.447 1394.149,548.196 1392.538,551.944 1390.968,555.692 1389.438,559.44 1387.947,563.189 1386.496,566.937 1385.084,570.685 1383.71,574.433 1382.374,578.182 1381.076,581.93 1379.816,585.678 1378.594,589.426 1377.409,593.175 1376.262,596.923 1375.153,600.671 1374.082,604.419 1373.048,608.168 1372.052,611.916 1371.093,615.664 1370.173,619.413 1369.29,623.161 1368.445,626.909 1367.639,630.657 1366.871,634.406 1366.142,638.154 1365.453,641.902 1364.803,645.65 1364.193,649.399 1363.624,653.147 1363.095,656.895 1362.609,660.643 1362.164,664.392 1361.763,668.14 1361.404,671.888 1361.089,675.636 1360.818,679.385 1360.591,683.133 1360.41,686.881 1360.273,690.629 1360.182,694.378 1360.137,698.126 1360.137,701.874 1360.182,705.622 1360.273,709.371 1360.41,713.119 1360.591,716.867 1360.818,720.615 1361.089,724.364 1361.404,728.112 1361.763,731.86 1362.164,735.608 1362.609,739.357 1363.095,743.105 1363.624,746.853 1364.193,750.601 1364.803,754.35 1365.453,758.098 1366.142,761.846 1366.871,765.594 1367.639,769.343 1368.445,773.091 1369.29,776.839 1370.173,780.587 1371.093,784.336 1372.052,788.084 1373.048,791.832 1374.082,795.581 1375.153,799.329 1376.262,803.077 1377.409,806.825 1378.594,810.574 1379.816,814.322 1381.076,818.07 1382.374,821.818 1383.71,825.567 1385.084,829.315 1386.496,833.063 1387.947,836.811 1389.438,840.56 1390.968,844.308 1392.538,848.056 1394.149,851.804 1395.802,855.553 1397.498,859.301 1399.238,863.049 1401.024,866.797 1402.857,870.546 1404.738,874.294 1406.669,878.042 1408.65,881.79 1410.682,885.539 " />
</g>
<g>
<polyline fill="none" stroke="#7f7fff" points="1566.102,515.859 1565.695,519.579 1565.295,523.299 1564.905,527.019 1564.522,530.739 1564.148,534.459 1563.783,538.179 1563.425,541.899 1563.077,545.619 1562.736,549.339 1562.404,553.059 1562.08,556.779 1561.765,560.499 1561.458,564.219 1561.16,567.939 1560.869,571.659 1560.587,575.379 1560.314,579.099 1560.048,582.819 1559.791,586.539 1559.543,590.259 1559.303,593.979 1559.071,597.699 1558.847,601.419 1558.632,605.139 1558.425,608.86 1558.226,612.58 1558.035,616.3 1557.853,620.02 1557.679,623.74 1557.514,627.46 1557.357,631.18 1557.208,634.9 1557.067,638.62 1556.935,642.34 1556.811,646.06 1556.695,649.78 1556.587,653.5 1556.488,657.22 1556.397,660.94 1556.314,664.66 1556.24,668.38 1556.174,672.1 1556.116,675.82 1556.066,679.54 1556.025,683.26 1555.992,686.98 1555.967,690.7 1555.95,694.42 1555.942,698.14 1555.942,701.86 1555.95,705.58 1555.967,709.3 1555.992,713.02 1556.025,716.74 1556.066,720.46 1556.116,724.18 1556.174,727.9 1556.24,731.62 1556.314,735.34 1556.397,739.06 1556.488,742.78 1556.587,746.5 1556.695,750.22 1556.811,753.94 1556.935,757.66 1557.067,761.38 1557.208,765.1 1557.357,768.82 1557.514,772.54 1557.679,776.26 1557.853,779.98 1558.035,783.7 1558.226,787.42 1558.425,791.14 1558.632,794.861 1558.847,798.581 1559.071,802.301 1559.303,806.021 1559.543,809.741 1559.791,813.461 1560.048,817.181 1560.314,820.901 1560.587,824.621 1560.869,828.341 1561.16,832.061 1561.458,835.781 1561.765,839.501 1562.08,843.221 1562.404,846.941 1562.736,850.661 1563.077,854.381 1563.425,858.101 1563.783,861.821 1564.148,865.541 1564.522,869.261 1564.905,872.981 1565.295,876.701 1565.695,880.421 1566.102,884.141 " />
<line x1="1566.102" y1="515.859" x2="1591.259" y2="515.859"  stroke="#7f7fff" />
<line x1="1566.102" y1="884.141" x2="1591.259" y2="884.141"  stroke="#7f7fff" />
<polyline fill="none" stroke="#7f7fff" points="1591.259,515.859 1595.311,519.579 1599.188,523.299 1602.902,527.019 1606.463,530.739 1609.88,534.459 1613.161,538.179 1616.313,541.899 1619.342,545.619 1622.253,549.339 1625.053,553.059 1627.745,556.779 1630.334,560.499 1632.824,564.219 1635.218,567.939 1637.52,571.659 1639.732,575.379 1641.857,579.099 1643.898,582.819 1645.858,586.539 1647.737,590.259 1649.539,593.979 1651.265,597.699 1652.917,601.419 1654.497,605.139 1656.006,608.86 1657.445,612.58 1658.815,616.3 1660.119,620.02 1661.357,623.74 1662.529,627.46 1663.638,631.18 1664.684,634.9 1665.667,638.62 1666.589,642.34 1667.45,646.06 1668.251,649.78 1668.992,653.5 1669.674,657.22 1670.298,660.94 1670.864,664.66 1671.372,668.38 1671.822,672.1 1672.216,675.82 1672.553,679.54 1672.833,683.26 1673.057,686.98 1673.225,690.7 1673.337,694.42 1673.393,698.14 1673.393,701.86 1673.337,705.58 1673.225,709.3 1673.057,713.02 1672.833,716.74 1672.553,720.46 1672.216,724.18 1671.822,727.9 1671.372,731.62 1670.864,735.34 1670.298,739.06 1669.674,742.78 1668.992,746.5 1668.251,750.22 1667.45,753.94 1666.589,757.66 1665.667,761.38 1664.684,765.1 1663.638,768.82 1662.529,772.54 1661.357,776.26 1660.119,779.98 1658.815,783.7 1657.445,787.42 1656.006,791.14 1654.497,794.861 1652.917,798.581 1651.265,802.301 1649.539,806.021 1647.737,809.741 1645.858,813.461 1643.898,817.181 1641.857,820.901 1639.732,824.621 1637.52,828.341 1635.218,832.061 1632.824,835.781 1630.334,839.501 1627.745,843.221 1625.053,846.941 1622.253,850.661 1619.342,854.381 1616.313,858.101 1613.161,861.821 1609.88,865.541 1606.463,869.261 1602.902,872.981 1599.188,876.701 1595.311,880.421 1591.259,884.141 " />
<line x1="1591.259" y1="515.859" x2="1677.271" y2="515.859"  stroke="#7f7fff" />
<line x1="1591.259" y1="884.141" x2="1677.271" y2="884.141"  stroke="#7f7fff" />
<polyline fill="none" stroke="#7f7fff" points="1677.271,515.859 1677.536,519.579 1677.795,523.299 1678.049,527.019 1678.297,530.739 1678.54,534.459 1678.778,538.179 1679.01,541.899 1679.237,545.619 1679.458,549.339 1679.674,553.059 1679.885,556.779 1680.09,560.499 1680.29,564.219 1680.484,567.939 1680.673,571.659 1680.856,575.379 1681.034,579.099 1681.207,582.819 1681.374,586.539 1681.536,590.259 1681.693,593.979 1681.844,597.699 1681.989,601.419 1682.129,605.139 1682.264,608.86 1682.394,612.58 1682.518,616.3 1682.636,620.02 1682.75,623.74 1682.857,627.46 1682.96,631.18 1683.057,634.9 1683.149,638.62 1683.235,642.34 1683.316,646.06 1683.391,649.78 1683.461,653.5 1683.526,657.22 1683.585,660.94 1683.639,664.66 1683.688,668.38 1683.731,672.1 1683.769,675.82 1683.801,679.54 1683.828,683.26 1683.849,686.98 1683.866,690.7 1683.876,694.42 1683.882,698.14 1683.882,701.86 1683.876,705.58 1683.866,709.3 1683.849,713.02 1683.828,716.74 1683.801,720.46 1683.769,724.18 1683.731,727.9 1683.688,731.62 1683.639,735.34 1683.585,739.06 1683.526,742.78 1683.461,746.5 1683.391,750.22 1683.316,753.94 1683.235,757.66 1683.149,761.38 1683.057,765.1 1682.96,768.82 1682.857,772.54 1682.75,776.26 1682.636,779.98 1682.518,783.7 1682.394,787.42 1682.264,791.14 1682.129,794.861 1681.989,798.581 1681.844,802.301 1681.693,806.021 1681.536,809.741 1681.374,813.461 1681.207,817.181 1681.034,820.901 1680.856,824.621 1680.673,828.341 1680.484,832.061 1680.29,835.781 1680.09,839.501 1679.885,843.221 1679.674,846.941 1679.458,850.661 1679.237,854.381 1679.01,858.101 1678.778,861.821 1678.54,865.541 1678.297,869.261 1678.049,872.981 1677.795,876.701 1677.536,880.421 1677.271,884.141 " />
</g>
<g>
<polyline fill="none" stroke="#7f7fff" points="1706.102,508.055 1705.274,511.933 1704.464,515.811 1703.671,519.688 1702.896,523.566 1702.139,527.444 1701.399,531.321 1700.676,535.199 1699.971,539.077 1699.283,542.954 1698.612,546.832 1697.958,550.71 1697.322,554.587 1696.703,558.465 1696.101,562.343 1695.516,566.22 1694.948,570.098 1694.398,573.976 1693.864,577.853 1693.347,581.731 1692.847,585.609 1692.365,589.486 1691.899,593.364 1691.45,597.242 1691.017,601.119 1690.602,604.997 1690.203,608.875 1689.821,612.752 1689.456,616.63 1689.108,620.508 1688.776,624.385 1688.461,628.263 1688.163,632.141 1687.881,636.018 1687.616,639.896 1687.368,643.774 1687.136,647.651 1686.921,651.529 1686.723,655.407 1686.541,659.284 1686.375,663.162 1686.227,667.04 1686.094,670.917 1685.979,674.795 1685.879,678.673 1685.797,682.55 1685.731,686.428 1685.681,690.306 1685.648,694.183 1685.631,698.061 1685.631,701.939 1685.648,705.817 1685.681,709.694 1685.731,713.572 1685.797,717.45 1685.879,721.327 1685.979,725.205 1686.094,729.083 1686.227,732.96 1686.375,736.838 1686.541,740.716 1686.723,744.593 1686.921,748.471 1687.136,752.349 1687.368,756.226 1687.616,760.104 1687.881,763.982 1688.163,767.859 1688.461,771.737 1688.776,775.615 1689.108,779.492 1689.456,783.37 1689.821,787.248 1690.203,791.125 1690.602,795.003 1691.017,798.881 1691.45,802.758 1691.899,806.636 1692.365,810.514 1692.847,814.391 1693.347,818.269 1693.864,822.147 1694.398,826.024 1694.948,829.902 1695.516,833.78 1696.101,837.657 1696.703,841.535 1697.322,845.413 1697.958,849.29 1698.612,853.168 1699.283,857.046 1699.971,860.923 1700.676,864.801 1701.399,868.679 1702.139,872.556 1702.896,876.434 1703.671,880.312 1704.464,884.189 1705.274,888.067 1706.102,891.945 " />
<line x1="1706.102" y1="508.055" x2="1724.271" y2="508.055"  stroke="#7f7fff" />
<line x1="1706.102" y1="891.945" x2="1724.271" y2="891.945"  stroke="#7f7fff" />
<polyline fill="none" stroke="#7f7fff" points="1724.271,508.055 1725.374,511.933 1726.454,515.811 1727.509,519.688 1728.541,523.566 1729.548,527.444 1730.532,531.321 1731.492,535.199 1732.428,539.077 1733.34,542.954 1734.23,546.832 1735.095,550.71 1735.938,554.587 1736.757,558.465 1737.554,562.343 1738.327,566.22 1739.077,570.098 1739.805,573.976 1740.509,577.853 1741.191,581.731 1741.851,585.609 1742.488,589.486 1743.102,593.364 1743.694,597.242 1744.263,601.119 1744.81,604.997 1745.335,608.875 1745.837,612.752 1746.318,616.63 1746.776,620.508 1747.212,624.385 1747.626,628.263 1748.018,632.141 1748.388,636.018 1748.736,639.896 1749.062,643.774 1749.366,647.651 1749.649,651.529 1749.909,655.407 1750.148,659.284 1750.365,663.162 1750.56,667.04 1750.734,670.917 1750.886,674.795 1751.016,678.673 1751.124,682.55 1751.211,686.428 1751.276,690.306 1751.319,694.183 1751.341,698.061 1751.341,701.939 1751.319,705.817 1751.276,709.694 1751.211,713.572 1751.124,717.45 1751.016,721.327 1750.886,725.205 1750.734,729.083 1750.56,732.96 1750.365,736.838 1750.148,740.716 1749.909,744.593 1749.649,748.471 1749.366,752.349 1749.062,756.226 1748.736,760.104 1748.388,763.982 1748.018,767.859 1747.626,771.737 1747.212,775.615 1746.776,779.492 1746.318,783.37 1745.837,787.248 1745.335,791.125 1744.81,795.003 1744.263,798.881 1743.694,802.758 1743.102,806.636 1742.488,810.514 1741.851,814.391 1741.191,818.269 1740.509,822.147 1739.805,826.024 1739.077,829.902 1738.327,833.78 1737.554,837.657 1736.757,841.535 1735.938,845.413 1735.095,849.29 1734.23,853.168 1733.34,857.046 1732.428,860.923 1731.492,864.801 1730.532,868.679 1729.548,872.556 1728.541,876.434 1727.509,880.312 1726.454,884.189 1725.374,888.067 1724.271,891.945 " />
</g>
<g>
<polyline fill="none" stroke="#7f7fff" points="1760.767,509.803 1760.46,513.645 1760.159,517.487 1759.864,521.33 1759.575,525.172 1759.293,529.014 1759.017,532.857 1758.747,536.699 1758.484,540.542 1758.227,544.384 1757.976,548.226 1757.732,552.069 1757.493,555.911 1757.262,559.753 1757.036,563.596 1756.817,567.438 1756.604,571.28 1756.397,575.123 1756.196,578.965 1756.002,582.808 1755.814,586.65 1755.633,590.492 1755.457,594.335 1755.288,598.177 1755.125,602.019 1754.969,605.862 1754.819,609.704 1754.675,613.547 1754.537,617.389 1754.406,621.231 1754.28,625.074 1754.161,628.916 1754.049,632.758 1753.942,636.601 1753.842,640.443 1753.748,644.286 1753.661,648.128 1753.579,651.97 1753.504,655.813 1753.436,659.655 1753.373,663.497 1753.317,667.34 1753.267,671.182 1753.223,675.025 1753.185,678.867 1753.154,682.709 1753.129,686.552 1753.11,690.394 1753.098,694.236 1753.092,698.079 1753.092,701.921 1753.098,705.764 1753.11,709.606 1753.129,713.448 1753.154,717.291 1753.185,721.133 1753.223,724.975 1753.267,728.818 1753.317,732.66 1753.373,736.503 1753.436,740.345 1753.504,744.187 1753.579,748.03 1753.661,751.872 1753.748,755.714 1753.842,759.557 1753.942,763.399 1754.049,767.242 1754.161,771.084 1754.28,774.926 1754.406,778.769 1754.537,782.611 1754.675,786.453 1754.819,790.296 1754.969,794.138 1755.125,797.981 1755.288,801.823 1755.457,805.665 1755.633,809.508 1755.814,813.35 1756.002,817.192 1756.196,821.035 1756.397,824.877 1756.604,828.72 1756.817,832.562 1757.036,836.404 1757.262,840.247 1757.493,844.089 1757.732,847.931 1757.976,851.774 1758.227,855.616 1758.484,859.458 1758.747,863.301 1759.017,867.143 1759.293,870.986 1759.575,874.828 1759.864,878.67 1760.159,882.513 1760.46,886.355 1760.767,890.197 " />
<line x1="1760.767" y1="509.803" x2="1775.461" y2="509.803"  stroke="#7f7fff" />
<line x1="1760.767" y1="890.197" x2="1775.461" y2="890.197"  stroke="#7f7fff" />
<polyline fill="none" stroke="#7f7fff" points="1775.461,509.803 1776.245,513.645 1777.012,517.487 1777.762,521.33 1778.496,525.172 1779.213,529.014 1779.914,532.857 1780.599,536.699 1781.267,540.542 1781.918,544.384 1782.554,548.226 1783.173,552.069 1783.775,555.911 1784.362,559.753 1784.932,563.596 1785.486,567.438 1786.024,571.28 1786.546,575.123 1787.052,578.965 1787.542,582.808 1788.015,586.65 1788.473,590.492 1788.915,594.335 1789.34,598.177 1789.75,602.019 1790.144,605.862 1790.522,609.704 1790.884,613.547 1791.23,617.389 1791.56,621.231 1791.875,625.074 1792.173,628.916 1792.456,632.758 1792.723,636.601 1792.974,640.443 1793.21,644.286 1793.429,648.128 1793.633,651.97 1793.822,655.813 1793.994,659.655 1794.151,663.497 1794.292,667.34 1794.418,671.182 1794.527,675.025 1794.621,678.867 1794.7,682.709 1794.762,686.552 1794.809,690.394 1794.841,694.236 1794.856,698.079 1794.856,701.921 1794.841,705.764 1794.809,709.606 1794.762,713.448 1794.7,717.291 1794.621,721.133 1794.527,724.975 1794.418,728.818 1794.292,732.66 1794.151,736.503 1793.994,740.345 1793.822,744.187 1793.633,748.03 1793.429,751.872 1793.21,755.714 1792.974,759.557 1792.723,763.399 1792.456,767.242 1792.173,771.084 1791.875,774.926 1791.56,778.769 1791.23,782.611 1790.884,786.453 1790.522,790.296 1790.144,794.138 1789.75,797.981 1789.34,801.823 1788.915,805.665 1788.473,809.508 1788.015,813.35 1787.542,817.192 1787.052,821.035 1786.546,824.877 1786.024,828.72 1785.486,832.562 1784.932,836.404 1784.362,840.247 1783.775,844.089 1783.173,847.931 1782.554,851.774 1781.918,855.616 1781.267,859.458 1780.599,863.301 1779.914,867.143 1779.213,870.986 1778.496,874.828 1777.762,878.67 1777.012,882.513 1776.245,886.355 1775.461,890.197 " />
<line x1="1846.1" y1="509.803" x2="1846.1" y2="531.874"  stroke="#7f7fff" />
<line x1="1775.461" y1="509.803" x2="1846.1" y2="509.803"  stroke="#7f7fff" />
<line x1="1846.1" y1="890.197" x2="1846.1" y2="868.126"  stroke="#7f7fff" />
<line x1="1775.461" y1="890.197" x2="1846.1" y2="890.197"  stroke="#7f7fff" />
<polyline fill="none" stroke="#7f7fff" points="1846.1,531.874 1844.428,535.27 1842.799,538.667 1841.212,542.063 1839.665,545.46 1838.159,548.856 1836.692,552.253 1835.265,555.649 1833.877,559.046 1832.526,562.442 1831.214,565.839 1829.94,569.235 1828.702,572.632 1827.501,576.028 1826.337,579.425 1825.208,582.821 1824.115,586.218 1823.057,589.614 1822.035,593.011 1821.047,596.407 1820.093,599.804 1819.174,603.2 1818.289,606.597 1817.437,609.993 1816.618,613.39 1815.833,616.786 1815.081,620.183 1814.362,623.579 1813.675,626.975 1813.02,630.372 1812.398,633.768 1811.808,637.165 1811.25,640.561 1810.723,643.958 1810.229,647.354 1809.765,650.751 1809.334,654.147 1808.933,657.544 1808.564,660.94 1808.225,664.337 1807.918,667.733 1807.642,671.13 1807.396,674.526 1807.182,677.923 1806.998,681.319 1806.845,684.716 1806.722,688.112 1806.63,691.509 1806.569,694.905 1806.539,698.302 1806.539,701.698 1806.569,705.095 1806.63,708.491 1806.722,711.888 1806.845,715.284 1806.998,718.681 1807.182,722.077 1807.396,725.474 1807.642,728.87 1807.918,732.267 1808.225,735.663 1808.564,739.06 1808.933,742.456 1809.334,745.853 1809.765,749.249 1810.229,752.646 1810.723,756.042 1811.25,759.439 1811.808,762.835 1812.398,766.232 1813.02,769.628 1813.675,773.025 1814.362,776.421 1815.081,779.817 1815.833,783.214 1816.618,786.61 1817.437,790.007 1818.289,793.403 1819.174,796.8 1820.093,800.196 1821.047,803.593 1822.035,806.989 1823.057,810.386 1824.115,813.782 1825.208,817.179 1826.337,820.575 1827.501,823.972 1828.702,827.368 1829.94,830.765 1831.214,834.161 1832.526,837.558 1833.877,840.954 1835.265,844.351 1836.692,847.747 1838.159,851.144 1839.665,854.54 1841.212,857.937 1842.799,861.333 1844.428,864.73 1846.1,868.126 " />
</g>
<g>
<polyline fill="none" stroke="#7f7fff" points="1849.737,531.408 1851.239,534.814 1852.704,538.22 1854.133,541.626 1855.527,545.032 1856.885,548.437 1858.209,551.843 1859.498,555.249 1860.753,558.655 1861.975,562.061 1863.162,565.467 1864.317,568.873 1865.439,572.279 1866.528,575.685 1867.585,579.091 1868.61,582.496 1869.603,585.902 1870.564,589.308 1871.495,592.714 1872.394,596.12 1873.262,599.526 1874.099,602.932 1874.906,606.338 1875.682,609.744 1876.429,613.15 1877.145,616.555 1877.832,619.961 1878.488,623.367 1879.116,626.773 1879.713,630.179 1880.282,633.585 1880.821,636.991 1881.332,640.397 1881.813,643.803 1882.266,647.209 1882.69,650.614 1883.085,654.02 1883.451,657.426 1883.789,660.832 1884.099,664.238 1884.381,667.644 1884.634,671.05 1884.858,674.456 1885.055,677.862 1885.223,681.268 1885.364,684.673 1885.476,688.079 1885.56,691.485 1885.616,694.891 1885.644,698.297 1885.644,701.703 1885.616,705.109 1885.56,708.515 1885.476,711.921 1885.364,715.327 1885.223,718.732 1885.055,722.138 1884.858,725.544 1884.634,728.95 1884.381,732.356 1884.099,735.762 1883.789,739.168 1883.451,742.574 1883.085,745.98 1882.69,749.386 1882.266,752.791 1881.813,756.197 1881.332,759.603 1880.821,763.009 1880.282,766.415 1879.713,769.821 1879.116,773.227 1878.488,776.633 1877.832,780.039 1877.145,783.445 1876.429,786.85 1875.682,790.256 1874.906,793.662 1874.099,797.068 1873.262,800.474 1872.394,803.88 1871.495,807.286 1870.564,810.692 1869.603,814.098 1868.61,817.504 1867.585,820.909 1866.528,824.315 1865.439,827.721 1864.317,831.127 1863.162,834.533 1861.975,837.939 1860.753,841.345 1859.498,844.751 1858.209,848.157 1856.885,851.563 1855.527,854.968 1854.133,858.374 1852.704,861.78 1851.239,865.186 1849.737,868.592 " />
<line x1="1849.737" y1="507.24" x2="1849.737" y2="531.408"  stroke="#7f7fff" />
<line x1="1849.737" y1="507.24" x2="1897.476" y2="507.24"  stroke="#7f7fff" />
<line x1="1849.737" y1="892.76" x2="1849.737" y2="868.592"  stroke="#7f7fff" />
<line x1="1849.737" y1="892.76" x2="1897.476" y2="892.76"  stroke="#7f7fff" />
<polyline fill="none" stroke="#7f7fff" points="1897.476,507.24 1897.523,511.134 1897.595,515.028 1897.697,518.923 1897.832,522.817 1898,526.711 1898.201,530.605 1898.431,534.499 1898.689,538.393 1898.973,542.287 1899.278,546.182 1899.603,550.076 1899.944,553.97 1900.3,557.864 1900.667,561.758 1901.044,565.652 1901.429,569.546 1901.819,573.441 1902.212,577.335 1902.609,581.229 1903.005,585.123 1903.401,589.017 1903.794,592.911 1904.184,596.805 1904.568,600.699 1904.947,604.594 1905.318,608.488 1905.681,612.382 1906.034,616.276 1906.377,620.17 1906.709,624.064 1907.029,627.958 1907.336,631.853 1907.63,635.747 1907.91,639.641 1908.175,643.535 1908.424,647.429 1908.659,651.323 1908.876,655.217 1909.077,659.112 1909.262,663.006 1909.428,666.9 1909.577,670.794 1909.708,674.688 1909.821,678.582 1909.915,682.476 1909.991,686.371 1910.047,690.265 1910.085,694.159 1910.104,698.053 1910.104,701.947 1910.085,705.841 1910.047,709.735 1909.991,713.629 1909.915,717.524 1909.821,721.418 1909.708,725.312 1909.577,729.206 1909.428,733.1 1909.262,736.994 1909.077,740.888 1908.876,744.783 1908.659,748.677 1908.424,752.571 1908.175,756.465 1907.91,760.359 1907.63,764.253 1907.336,768.147 1907.029,772.042 1906.709,775.936 1906.377,779.83 1906.034,783.724 1905.681,787.618 1905.318,791.512 1904.947,795.406 1904.568,799.301 1904.184,803.195 1903.794,807.089 1903.401,810.983 1903.005,814.877 1902.609,818.771 1902.212,822.665 1901.819,826.559 1901.429,830.454 1901.044,834.348 1900.667,838.242 1900.3,842.136 1899.944,846.03 1899.603,849.924 1899.278,853.818 1898.973,857.713 1898.689,861.607 1898.431,865.501 1898.201,869.395 1898,873.289 1897.832,877.183 1897.697,881.077 1897.595,884.972 1897.523,888.866 1897.476,892.76 " />
</g>
</g>
<g><title>element</title>
<polyline fill="none" stroke="#7f7fff" points="2135.213,196.146 2135.213,206.324 2135.213,216.503 2135.213,226.682 2135.213,236.861 2135.213,247.04 2135.213,257.219 2135.213,267.398 2135.213,277.577 2135.213,287.755 2135.213,297.934 2135.213,308.113 2135.213,318.292 2135.213,328.471 2135.213,338.65 2135.213,348.829 2135.213,359.008 2135.213,369.186 2135.213,379.365 2135.213,389.544 2135.213,399.723 2135.213,409.902 2135.213,420.081 2135.213,430.26 2135.213,440.439 2135.213,450.617 2135.213,460.796 2135.213,470.975 2135.213,481.154 2135.213,491.333 2135.213,501.512 2135.213,511.691 2135.213,521.87 2135.213,532.049 2135.213,542.227 2135.213,552.406 2135.213,562.585 2135.213,572.764 2135.213,582.943 2135.213,593.122 2135.213,603.301 2135.213,613.48 2135.213,623.658 2135.213,633.837 2135.213,644.016 2135.213,654.195 2135.213,664.374 2135.213,674.553 2135.213,684.732 2135.213,694.911 2135.213,705.089 2135.213,715.268 2135.213,725.447 2135.213,735.626 2135.213,745.805 2135.213,755.984 2135.213,766.163 2135.213,776.342 2135.213,786.52 2135.213,796.699 2135.213,806.878 2135.213,817.057 2135.213,827.236 2135.213,837.415 2135.213,847.594 2135.213,857.773 2135.213,867.951 2135.213,878.13 2135.213,888.309 2135.213,898.488 2135.213,908.667 2135.213,918.846 2135.213,929.025 2135.213,939.204 2135.213,949.383 2135.213,959.561 2135.213,969.74 2135.213,979.919 2135.213,990.098 2135.213,1000.277 2135.213,1010.456 2135.213,1020.635 2135.213,1030.814 2135.213,1040.992 2135.213,1051.171 2135.213,1061.35 2135.213,1071.529 2135.213,1081.708 2135.213,1091.887 2135.213,1102.066 2135.213,1112.245 2135.213,1122.423 2135.213,1132.602 2135.213,1142.781 2135.213,1152.96 2135.213,1163.139 2135.213,1173.318 2135.213,1183.497 2135.213,1193.676 2135.213,1203.854 " />
</g>
</svg>
