<?xml version="1.0" standalone="no"?>
<svg width="2400px" height="1400px" version="1.1" xmlns="http://www.w3.org/2000/svg" xmlns:xlink="http://www.w3.org/1999/xlink">
<rect x="0" y="0" width="2400" height="1400"  fill="#ffffff" />
<defs>
<g id="dot">
<line x1="1" y1="1" x2="0" y2="0"  />
</g>
<g id="cross">
<line x1="-3" y1="0" x2="3" y2="0"  />
<line x1="0" y1="-3" x2="0" y2="3"  />
</g>
<g id="square">
<line x1="-3" y1="-3" x2="-3" y2="3"  />
<line x1="-3" y1="3" x2="3" y2="3"  />
<line x1="3" y1="3" x2="3" y2="-3"  />
<line x1="3" y1="-3" x2="-3" y2="-3"  />
</g>
<g id="round">
<ellipse cx="0" cy="0" rx="3" ry="3"  fill="none" /></g>
<g id="triangle">
<line x1="0" y1="-3" x2="-3" y2="3"  />
<line x1="-3" y1="3" x2="3" y2="3"  />
<line x1="0" y1="-3" x2="3" y2="3"  />
</g>
</defs>
<line x1="247.619" y1="700" x2="2152.381" y2="700"  stroke="#7f7f7f" />
<g><title>element</title>
<g>
<line x1="1332.418" y1="540.7" x2="1332.418" y2="381.4"  stroke="#7f7fff" />
<line x1="1332.418" y1="859.3" x2="1332.418" y2="1018.6"  stroke="#7f7fff" />
</g>
<g>
<polyline fill="none" stroke="#7f7fff" points="295.329,394.819 293.375,400.984 291.465,407.15 289.598,413.315 287.775,419.48 285.994,425.645 284.256,431.811 282.561,437.976 280.908,444.141 279.297,450.307 277.728,456.472 276.201,462.637 274.715,468.802 273.27,474.968 271.867,481.133 270.504,487.298 269.182,493.463 267.901,499.629 266.66,505.794 265.459,511.959 264.299,518.124 263.179,524.29 262.098,530.455 261.057,536.62 260.056,542.786 259.094,548.951 258.171,555.116 257.288,561.281 256.444,567.447 255.639,573.612 254.873,579.777 254.145,585.942 253.457,592.108 252.807,598.273 252.196,604.438 251.623,610.604 251.089,616.769 250.593,622.934 250.136,629.099 249.717,635.265 249.336,641.43 248.993,647.595 248.689,653.76 248.422,659.926 248.194,666.091 248.004,672.256 247.852,678.422 247.738,684.587 247.662,690.752 247.624,696.917 247.624,703.083 247.662,709.248 247.738,715.413 247.852,721.578 248.004,727.744 248.194,733.909 248.422,740.074 248.689,746.24 248.993,752.405 249.336,758.57 249.717,764.735 250.136,770.901 250.593,777.066 251.089,783.231 251.623,789.396 252.196,795.562 252.807,801.727 253.457,807.892 254.145,814.058 254.873,820.223 255.639,826.388 256.444,832.553 257.288,838.719 258.171,844.884 259.094,851.049 260.056,857.214 261.057,863.38 262.098,869.545 263.179,875.71 264.299,881.876 265.459,888.041 266.66,894.206 267.901,900.371 269.182,906.537 270.504,912.702 271.867,918.867 273.27,925.032 274.715,931.198 276.201,937.363 277.728,943.528 279.297,949.693 280.908,955.859 282.561,962.024 284.256,968.189 285.994,974.355 287.775,980.52 289.598,986.685 291.465,992.85 293.375,999.016 295.329,1005.181 " />
<line x1="316.75" y1="394.819" x2="316.75" y2="402.178"  stroke="#7f7fff" />
<line x1="295.329" y1="394.819" x2="316.75" y2="394.819"  stroke="#7f7fff" />
<line x1="316.75" y1="1005.181" x2="316.75" y2="997.822"  stroke="#7f7fff" />
<line x1="295.329" y1="1005.181" x2="316.75" y2="1005.181"  stroke="#7f7fff" />
<polyline fill="none" stroke="#7f7fff" points="316.75,402.178 316.699,408.195 316.65,414.211 316.602,420.228 316.555,426.244 316.509,432.261 316.464,438.278 316.42,444.294 316.377,450.311 316.335,456.327 316.294,462.344 316.254,468.361 316.215,474.377 316.177,480.394 316.14,486.411 316.104,492.427 316.069,498.444 316.036,504.46 316.003,510.477 315.971,516.494 315.94,522.51 315.911,528.527 315.882,534.543 315.854,540.56 315.828,546.577 315.802,552.593 315.778,558.61 315.754,564.626 315.731,570.643 315.71,576.66 315.689,582.676 315.67,588.693 315.652,594.709 315.634,600.726 315.618,606.743 315.602,612.759 315.588,618.776 315.575,624.792 315.562,630.809 315.551,636.826 315.541,642.842 315.532,648.859 315.524,654.875 315.516,660.892 315.51,666.909 315.505,672.925 315.501,678.942 315.498,684.958 315.496,690.975 315.495,696.992 315.495,703.008 315.496,709.025 315.498,715.042 315.501,721.058 315.505,727.075 315.51,733.091 315.516,739.108 315.524,745.125 315.532,751.141 315.541,757.158 315.551,763.174 315.562,769.191 315.575,775.208 315.588,781.224 315.602,787.241 315.618,793.257 315.634,799.274 315.652,805.291 315.67,811.307 315.689,817.324 315.71,823.34 315.731,829.357 315.754,835.374 315.778,841.39 315.802,847.407 315.828,853.423 315.854,859.44 315.882,865.457 315.911,871.473 315.94,877.49 315.971,883.506 316.003,889.523 316.036,895.54 316.069,901.556 316.104,907.573 316.14,913.589 316.177,919.606 316.215,925.623 316.254,931.639 316.294,937.656 316.335,943.673 316.377,949.689 316.42,955.706 316.464,961.722 316.509,967.739 316.555,973.756 316.602,979.772 316.65,985.789 316.699,991.805 316.75,997.822 " />
</g>
<g>
<polyline fill="none" stroke="#7f7fff" points="360.457,435.077 358.72,440.429 357.022,445.781 355.362,451.133 353.742,456.485 352.16,461.837 350.616,467.189 349.109,472.541 347.641,477.893 346.21,483.245 344.816,488.597 343.46,493.949 342.14,499.301 340.857,504.653 339.611,510.005 338.401,515.357 337.227,520.709 336.09,526.061 334.988,531.413 333.922,536.765 332.892,542.117 331.898,547.469 330.939,552.821 330.015,558.173 329.126,563.525 328.273,568.876 327.454,574.228 326.67,579.58 325.921,584.932 325.207,590.284 324.527,595.636 323.882,600.988 323.271,606.34 322.694,611.692 322.152,617.044 321.644,622.396 321.17,627.748 320.73,633.1 320.325,638.452 319.953,643.804 319.615,649.156 319.311,654.508 319.041,659.86 318.805,665.212 318.602,670.564 318.433,675.916 318.299,681.268 318.197,686.62 318.13,691.972 318.096,697.324 318.096,702.676 318.13,708.028 318.197,713.38 318.299,718.732 318.433,724.084 318.602,729.436 318.805,734.788 319.041,740.14 319.311,745.492 319.615,750.844 319.953,756.196 320.325,761.548 320.73,766.9 321.17,772.252 321.644,777.604 322.152,782.956 322.694,788.308 323.271,793.66 323.882,799.012 324.527,804.364 325.207,809.716 325.921,815.068 326.67,820.42 327.454,825.772 328.273,831.124 329.126,836.475 330.015,841.827 330.939,847.179 331.898,852.531 332.892,857.883 333.922,863.235 334.988,868.587 336.09,873.939 337.227,879.291 338.401,884.643 339.611,889.995 340.857,895.347 342.14,900.699 343.46,906.051 344.816,911.403 346.21,916.755 347.641,922.107 349.109,927.459 350.616,932.811 352.16,938.163 353.742,943.515 355.362,948.867 357.022,954.219 358.72,959.571 360.457,964.923 " />
<line x1="413.191" y1="435.077" x2="413.191" y2="465.379"  stroke="#7f7fff" />
<line x1="360.457" y1="435.077" x2="413.191" y2="435.077"  stroke="#7f7fff" />
<line x1="413.191" y1="964.923" x2="413.191" y2="934.621"  stroke="#7f7fff" />
<line x1="360.457" y1="964.923" x2="413.191" y2="964.923"  stroke="#7f7fff" />
<polyline fill="none" stroke="#7f7fff" points="413.191,465.379 409.422,470.118 405.776,474.858 402.249,479.598 398.837,484.338 395.536,489.078 392.341,493.818 389.251,498.557 386.262,503.297 383.37,508.037 380.575,512.777 377.872,517.517 375.26,522.257 372.736,526.996 370.299,531.736 367.947,536.476 365.678,541.216 363.49,545.956 361.381,550.695 359.351,555.435 357.398,560.175 355.52,564.915 353.716,569.655 351.986,574.395 350.327,579.134 348.74,583.874 347.223,588.614 345.775,593.354 344.396,598.094 343.084,602.834 341.839,607.573 340.661,612.313 339.548,617.053 338.499,621.793 337.516,626.533 336.596,631.273 335.739,636.012 334.946,640.752 334.215,645.492 333.546,650.232 332.939,654.972 332.394,659.711 331.91,664.451 331.487,669.191 331.124,673.931 330.823,678.671 330.582,683.411 330.401,688.15 330.28,692.89 330.22,697.63 330.22,702.37 330.28,707.11 330.401,711.85 330.582,716.589 330.823,721.329 331.124,726.069 331.487,730.809 331.91,735.549 332.394,740.289 332.939,745.028 333.546,749.768 334.215,754.508 334.946,759.248 335.739,763.988 336.596,768.727 337.516,773.467 338.499,778.207 339.548,782.947 340.661,787.687 341.839,792.427 343.084,797.166 344.396,801.906 345.775,806.646 347.223,811.386 348.74,816.126 350.327,820.866 351.986,825.605 353.716,830.345 355.52,835.085 357.398,839.825 359.351,844.565 361.381,849.305 363.49,854.044 365.678,858.784 367.947,863.524 370.299,868.264 372.736,873.004 375.26,877.743 377.872,882.483 380.575,887.223 383.37,891.963 386.262,896.703 389.251,901.443 392.341,906.182 395.536,910.922 398.837,915.662 402.249,920.402 405.776,925.142 409.422,929.882 413.191,934.621 " />
</g>
<g>
<polyline fill="none" stroke="#7f7fff" points="416.112,467.11 416.455,471.815 416.79,476.52 417.119,481.225 417.441,485.93 417.755,490.634 418.063,495.339 418.363,500.044 418.656,504.749 418.943,509.454 419.222,514.159 419.495,518.863 419.76,523.568 420.019,528.273 420.27,532.978 420.514,537.683 420.752,542.388 420.982,547.093 421.206,551.797 421.422,556.502 421.631,561.207 421.834,565.912 422.029,570.617 422.218,575.322 422.399,580.026 422.574,584.731 422.741,589.436 422.902,594.141 423.055,598.846 423.202,603.551 423.341,608.256 423.474,612.96 423.599,617.665 423.718,622.37 423.829,627.075 423.934,631.78 424.032,636.485 424.122,641.189 424.206,645.894 424.283,650.599 424.353,655.304 424.415,660.009 424.471,664.714 424.52,669.419 424.562,674.123 424.597,678.828 424.625,683.533 424.645,688.238 424.659,692.943 424.666,697.648 424.666,702.352 424.659,707.057 424.645,711.762 424.625,716.467 424.597,721.172 424.562,725.877 424.52,730.581 424.471,735.286 424.415,739.991 424.353,744.696 424.283,749.401 424.206,754.106 424.122,758.811 424.032,763.515 423.934,768.22 423.829,772.925 423.718,777.63 423.599,782.335 423.474,787.04 423.341,791.744 423.202,796.449 423.055,801.154 422.902,805.859 422.741,810.564 422.574,815.269 422.399,819.974 422.218,824.678 422.029,829.383 421.834,834.088 421.631,838.793 421.422,843.498 421.206,848.203 420.982,852.907 420.752,857.612 420.514,862.317 420.27,867.022 420.019,871.727 419.76,876.432 419.495,881.137 419.222,885.841 418.943,890.546 418.656,895.251 418.363,899.956 418.063,904.661 417.755,909.366 417.441,914.07 417.119,918.775 416.79,923.48 416.455,928.185 416.112,932.89 " />
<line x1="478.674" y1="467.11" x2="478.674" y2="484.425"  stroke="#7f7fff" />
<line x1="416.112" y1="467.11" x2="478.674" y2="467.11"  stroke="#7f7fff" />
<line x1="478.674" y1="932.89" x2="478.674" y2="915.575"  stroke="#7f7fff" />
<line x1="416.112" y1="932.89" x2="478.674" y2="932.89"  stroke="#7f7fff" />
<polyline fill="none" stroke="#7f7fff" points="478.674,484.425 476.936,488.78 475.239,493.135 473.582,497.491 471.966,501.846 470.389,506.201 468.852,510.556 467.353,514.911 465.894,519.266 464.473,523.621 463.091,527.976 461.746,532.331 460.439,536.686 459.169,541.041 457.936,545.396 456.74,549.751 455.581,554.106 454.459,558.461 453.372,562.816 452.321,567.171 451.306,571.526 450.327,575.881 449.383,580.236 448.475,584.591 447.601,588.946 446.762,593.301 445.958,597.656 445.189,602.012 444.454,606.367 443.753,610.722 443.086,615.077 442.454,619.432 441.855,623.787 441.29,628.142 440.759,632.497 440.262,636.852 439.798,641.207 439.368,645.562 438.971,649.917 438.607,654.272 438.277,658.627 437.979,662.982 437.715,667.337 437.484,671.692 437.286,676.047 437.122,680.402 436.99,684.757 436.891,689.112 436.825,693.467 436.792,697.822 436.792,702.178 436.825,706.533 436.891,710.888 436.99,715.243 437.122,719.598 437.286,723.953 437.484,728.308 437.715,732.663 437.979,737.018 438.277,741.373 438.607,745.728 438.971,750.083 439.368,754.438 439.798,758.793 440.262,763.148 440.759,767.503 441.29,771.858 441.855,776.213 442.454,780.568 443.086,784.923 443.753,789.278 444.454,793.633 445.189,797.988 445.958,802.344 446.762,806.699 447.601,811.054 448.475,815.409 449.383,819.764 450.327,824.119 451.306,828.474 452.321,832.829 453.372,837.184 454.459,841.539 455.581,845.894 456.74,850.249 457.936,854.604 459.169,858.959 460.439,863.314 461.746,867.669 463.091,872.024 464.473,876.379 465.894,880.734 467.353,885.089 468.852,889.444 470.389,893.799 471.966,898.154 473.582,902.509 475.239,906.865 476.936,911.22 478.674,915.575 " />
</g>
<g>
<polyline fill="none" stroke="#7f7fff" points="628.15,516.891 629.66,520.591 631.134,524.29 632.573,527.989 633.977,531.688 635.346,535.387 636.681,539.086 637.982,542.786 639.248,546.485 640.482,550.184 641.682,553.883 642.848,557.582 643.982,561.281 645.084,564.981 646.153,568.68 647.19,572.379 648.196,576.078 649.17,579.777 650.112,583.476 651.023,587.176 651.903,590.875 652.752,594.574 653.57,598.273 654.358,601.972 655.115,605.671 655.842,609.371 656.539,613.07 657.205,616.769 657.842,620.468 658.45,624.167 659.027,627.866 659.575,631.565 660.094,635.265 660.583,638.964 661.043,642.663 661.474,646.362 661.876,650.061 662.249,653.76 662.593,657.46 662.908,661.159 663.194,664.858 663.451,668.557 663.68,672.256 663.88,675.955 664.051,679.655 664.194,683.354 664.308,687.053 664.394,690.752 664.451,694.451 664.48,698.15 664.48,701.85 664.451,705.549 664.394,709.248 664.308,712.947 664.194,716.646 664.051,720.345 663.88,724.045 663.68,727.744 663.451,731.443 663.194,735.142 662.908,738.841 662.593,742.54 662.249,746.24 661.876,749.939 661.474,753.638 661.043,757.337 660.583,761.036 660.094,764.735 659.575,768.435 659.027,772.134 658.45,775.833 657.842,779.532 657.205,783.231 656.539,786.93 655.842,790.629 655.115,794.329 654.358,798.028 653.57,801.727 652.752,805.426 651.903,809.125 651.023,812.824 650.112,816.524 649.17,820.223 648.196,823.922 647.19,827.621 646.153,831.32 645.084,835.019 643.982,838.719 642.848,842.418 641.682,846.117 640.482,849.816 639.248,853.515 637.982,857.214 636.681,860.914 635.346,864.613 633.977,868.312 632.573,872.011 631.134,875.71 629.66,879.409 628.15,883.109 " />
<line x1="628.15" y1="515.16" x2="628.15" y2="516.891"  stroke="#7f7fff" />
<line x1="628.15" y1="515.16" x2="691.949" y2="515.16"  stroke="#7f7fff" />
<line x1="628.15" y1="884.84" x2="628.15" y2="883.109"  stroke="#7f7fff" />
<line x1="628.15" y1="884.84" x2="691.949" y2="884.84"  stroke="#7f7fff" />
<polyline fill="none" stroke="#7f7fff" points="691.949,515.16 691.296,518.894 690.657,522.628 690.031,526.362 689.419,530.096 688.82,533.831 688.235,537.565 687.664,541.299 687.107,545.033 686.563,548.767 686.032,552.501 685.515,556.235 685.012,559.97 684.521,563.704 684.045,567.438 683.582,571.172 683.132,574.906 682.696,578.64 682.273,582.374 681.863,586.109 681.467,589.843 681.084,593.577 680.715,597.311 680.359,601.045 680.016,604.779 679.686,608.513 679.37,612.248 679.067,615.982 678.777,619.716 678.501,623.45 678.238,627.184 677.988,630.918 677.751,634.652 677.527,638.387 677.317,642.121 677.119,645.855 676.935,649.589 676.764,653.323 676.607,657.057 676.462,660.791 676.331,664.526 676.213,668.26 676.107,671.994 676.016,675.728 675.937,679.462 675.871,683.196 675.819,686.93 675.779,690.665 675.753,694.399 675.74,698.133 675.74,701.867 675.753,705.601 675.779,709.335 675.819,713.07 675.871,716.804 675.937,720.538 676.016,724.272 676.107,728.006 676.213,731.74 676.331,735.474 676.462,739.209 676.607,742.943 676.764,746.677 676.935,750.411 677.119,754.145 677.317,757.879 677.527,761.613 677.751,765.348 677.988,769.082 678.238,772.816 678.501,776.55 678.777,780.284 679.067,784.018 679.37,787.752 679.686,791.487 680.016,795.221 680.359,798.955 680.715,802.689 681.084,806.423 681.467,810.157 681.863,813.891 682.273,817.626 682.696,821.36 683.132,825.094 683.582,828.828 684.045,832.562 684.521,836.296 685.012,840.03 685.515,843.765 686.032,847.499 686.563,851.233 687.107,854.967 687.664,858.701 688.235,862.435 688.82,866.169 689.419,869.904 690.031,873.638 690.657,877.372 691.296,881.106 691.949,884.84 " />
<line x1="691.949" y1="513.861" x2="691.949" y2="515.16"  stroke="#7f7fff" />
<line x1="691.949" y1="513.861" x2="726.916" y2="513.861"  stroke="#7f7fff" />
<line x1="691.949" y1="886.139" x2="691.949" y2="884.84"  stroke="#7f7fff" />
<line x1="691.949" y1="886.139" x2="726.916" y2="886.139"  stroke="#7f7fff" />
<polyline fill="none" stroke="#7f7fff" points="726.916,513.861 727.294,517.622 727.664,521.382 728.026,525.142 728.381,528.903 728.727,532.663 729.066,536.424 729.398,540.184 729.721,543.944 730.037,547.705 730.345,551.465 730.645,555.225 730.938,558.986 731.222,562.746 731.499,566.507 731.769,570.267 732.03,574.027 732.284,577.788 732.53,581.548 732.769,585.308 732.999,589.069 733.222,592.829 733.437,596.59 733.645,600.35 733.845,604.11 734.037,607.871 734.221,611.631 734.398,615.391 734.567,619.152 734.728,622.912 734.882,626.673 735.028,630.433 735.166,634.193 735.296,637.954 735.419,641.714 735.535,645.475 735.642,649.235 735.742,652.995 735.834,656.756 735.918,660.516 735.995,664.276 736.064,668.037 736.126,671.797 736.179,675.558 736.225,679.318 736.264,683.078 736.294,686.839 736.317,690.599 736.333,694.359 736.34,698.12 736.34,701.88 736.333,705.641 736.317,709.401 736.294,713.161 736.264,716.922 736.225,720.682 736.179,724.442 736.126,728.203 736.064,731.963 735.995,735.724 735.918,739.484 735.834,743.244 735.742,747.005 735.642,750.765 735.535,754.525 735.419,758.286 735.296,762.046 735.166,765.807 735.028,769.567 734.882,773.327 734.728,777.088 734.567,780.848 734.398,784.609 734.221,788.369 734.037,792.129 733.845,795.89 733.645,799.65 733.437,803.41 733.222,807.171 732.999,810.931 732.769,814.692 732.53,818.452 732.284,822.212 732.03,825.973 731.769,829.733 731.499,833.493 731.222,837.254 730.938,841.014 730.645,844.775 730.345,848.535 730.037,852.295 729.721,856.056 729.398,859.816 729.066,863.576 728.727,867.337 728.381,871.097 728.026,874.858 727.664,878.618 727.294,882.378 726.916,886.139 " />
</g>
<g>
<polyline fill="none" stroke="#7f7fff" points="745.719,485.724 746.267,490.053 746.804,494.382 747.329,498.71 747.843,503.039 748.346,507.368 748.837,511.697 749.318,516.026 749.786,520.354 750.244,524.683 750.69,529.012 751.125,533.341 751.549,537.67 751.962,541.999 752.363,546.327 752.753,550.656 753.132,554.985 753.499,559.314 753.856,563.643 754.201,567.971 754.535,572.3 754.857,576.629 755.169,580.958 755.469,585.287 755.758,589.615 756.037,593.944 756.303,598.273 756.559,602.602 756.804,606.931 757.037,611.259 757.259,615.588 757.47,619.917 757.67,624.246 757.859,628.575 758.037,632.903 758.204,637.232 758.359,641.561 758.503,645.89 758.637,650.219 758.759,654.548 758.87,658.876 758.97,663.205 759.059,667.534 759.136,671.863 759.203,676.192 759.258,680.52 759.303,684.849 759.336,689.178 759.358,693.507 759.369,697.836 759.369,702.164 759.358,706.493 759.336,710.822 759.303,715.151 759.258,719.48 759.203,723.808 759.136,728.137 759.059,732.466 758.97,736.795 758.87,741.124 758.759,745.452 758.637,749.781 758.503,754.11 758.359,758.439 758.204,762.768 758.037,767.097 757.859,771.425 757.67,775.754 757.47,780.083 757.259,784.412 757.037,788.741 756.804,793.069 756.559,797.398 756.303,801.727 756.037,806.056 755.758,810.385 755.469,814.713 755.169,819.042 754.857,823.371 754.535,827.7 754.201,832.029 753.856,836.357 753.499,840.686 753.132,845.015 752.753,849.344 752.363,853.673 751.962,858.001 751.549,862.33 751.125,866.659 750.69,870.988 750.244,875.317 749.786,879.646 749.318,883.974 748.837,888.303 748.346,892.632 747.843,896.961 747.329,901.29 746.804,905.618 746.267,909.947 745.719,914.276 " />
<line x1="745.719" y1="476.201" x2="745.719" y2="485.724"  stroke="#7f7fff" />
<line x1="745.719" y1="476.201" x2="785.653" y2="476.201"  stroke="#7f7fff" />
<line x1="745.719" y1="923.799" x2="745.719" y2="914.276"  stroke="#7f7fff" />
<line x1="745.719" y1="923.799" x2="785.653" y2="923.799"  stroke="#7f7fff" />
<polyline fill="none" stroke="#7f7fff" points="785.653,476.201 785.084,480.722 784.527,485.243 783.982,489.764 783.449,494.285 782.927,498.807 782.418,503.328 781.92,507.849 781.433,512.37 780.959,516.891 780.496,521.413 780.044,525.934 779.605,530.455 779.177,534.976 778.761,539.497 778.356,544.019 777.963,548.54 777.582,553.061 777.212,557.582 776.854,562.103 776.508,566.625 776.173,571.146 775.85,575.667 775.538,580.188 775.238,584.709 774.95,589.231 774.673,593.752 774.408,598.273 774.154,602.794 773.912,607.315 773.682,611.837 773.463,616.358 773.255,620.879 773.059,625.4 772.875,629.921 772.702,634.443 772.541,638.964 772.391,643.485 772.253,648.006 772.126,652.527 772.011,657.049 771.907,661.57 771.815,666.091 771.735,670.612 771.665,675.133 771.608,679.655 771.562,684.176 771.527,688.697 771.504,693.218 771.493,697.739 771.493,702.261 771.504,706.782 771.527,711.303 771.562,715.824 771.608,720.345 771.665,724.867 771.735,729.388 771.815,733.909 771.907,738.43 772.011,742.951 772.126,747.473 772.253,751.994 772.391,756.515 772.541,761.036 772.702,765.557 772.875,770.079 773.059,774.6 773.255,779.121 773.463,783.642 773.682,788.163 773.912,792.685 774.154,797.206 774.408,801.727 774.673,806.248 774.95,810.769 775.238,815.291 775.538,819.812 775.85,824.333 776.173,828.854 776.508,833.375 776.854,837.897 777.212,842.418 777.582,846.939 777.963,851.46 778.356,855.981 778.761,860.503 779.177,865.024 779.605,869.545 780.044,874.066 780.496,878.587 780.959,883.109 781.433,887.63 781.92,892.151 782.418,896.672 782.927,901.193 783.449,905.715 783.982,910.236 784.527,914.757 785.084,919.278 785.653,923.799 " />
<line x1="785.653" y1="470.14" x2="785.653" y2="476.201"  stroke="#7f7fff" />
<line x1="785.653" y1="470.14" x2="806.978" y2="470.14"  stroke="#7f7fff" />
<line x1="785.653" y1="929.86" x2="785.653" y2="923.799"  stroke="#7f7fff" />
<line x1="785.653" y1="929.86" x2="806.978" y2="929.86"  stroke="#7f7fff" />
<polyline fill="none" stroke="#7f7fff" points="806.978,470.14 808.984,474.784 810.942,479.428 812.852,484.071 814.715,488.715 816.531,493.358 818.301,498.002 820.025,502.646 821.704,507.289 823.337,511.933 824.926,516.577 826.471,521.22 827.972,525.864 829.43,530.508 830.844,535.151 832.216,539.795 833.545,544.438 834.832,549.082 836.077,553.726 837.281,558.369 838.443,563.013 839.565,567.657 840.645,572.3 841.685,576.944 842.685,581.587 843.644,586.231 844.564,590.875 845.443,595.518 846.284,600.162 847.085,604.806 847.846,609.449 848.569,614.093 849.253,618.736 849.898,623.38 850.505,628.024 851.073,632.667 851.602,637.311 852.093,641.955 852.547,646.598 852.962,651.242 853.339,655.886 853.678,660.529 853.979,665.173 854.243,669.816 854.469,674.46 854.657,679.104 854.807,683.747 854.92,688.391 854.995,693.035 855.033,697.678 855.033,702.322 854.995,706.965 854.92,711.609 854.807,716.253 854.657,720.896 854.469,725.54 854.243,730.184 853.979,734.827 853.678,739.471 853.339,744.114 852.962,748.758 852.547,753.402 852.093,758.045 851.602,762.689 851.073,767.333 850.505,771.976 849.898,776.62 849.253,781.264 848.569,785.907 847.846,790.551 847.085,795.194 846.284,799.838 845.443,804.482 844.564,809.125 843.644,813.769 842.685,818.413 841.685,823.056 840.645,827.7 839.565,832.343 838.443,836.987 837.281,841.631 836.077,846.274 834.832,850.918 833.545,855.562 832.216,860.205 830.844,864.849 829.43,869.492 827.972,874.136 826.471,878.78 824.926,883.423 823.337,888.067 821.704,892.711 820.025,897.354 818.301,901.998 816.531,906.642 814.715,911.285 812.852,915.929 810.942,920.572 808.984,925.216 806.978,929.86 " />
</g>
<g>
<polyline fill="none" stroke="#7f7fff" points="1030.633,451.094 1029.489,456.122 1028.37,461.15 1027.275,466.179 1026.205,471.207 1025.159,476.236 1024.137,481.264 1023.139,486.292 1022.165,491.321 1021.216,496.349 1020.29,501.378 1019.388,506.406 1018.51,511.435 1017.656,516.463 1016.825,521.491 1016.019,526.52 1015.235,531.548 1014.476,536.577 1013.74,541.605 1013.027,546.633 1012.338,551.662 1011.672,556.69 1011.03,561.719 1010.41,566.747 1009.815,571.775 1009.242,576.804 1008.692,581.832 1008.166,586.861 1007.663,591.889 1007.183,596.918 1006.726,601.946 1006.292,606.974 1005.881,612.003 1005.492,617.031 1005.127,622.06 1004.785,627.088 1004.466,632.116 1004.169,637.145 1003.896,642.173 1003.645,647.202 1003.417,652.23 1003.212,657.258 1003.03,662.287 1002.871,667.315 1002.734,672.344 1002.62,677.372 1002.529,682.401 1002.461,687.429 1002.416,692.457 1002.393,697.486 1002.393,702.514 1002.416,707.543 1002.461,712.571 1002.529,717.599 1002.62,722.628 1002.734,727.656 1002.871,732.685 1003.03,737.713 1003.212,742.742 1003.417,747.77 1003.645,752.798 1003.896,757.827 1004.169,762.855 1004.466,767.884 1004.785,772.912 1005.127,777.94 1005.492,782.969 1005.881,787.997 1006.292,793.026 1006.726,798.054 1007.183,803.082 1007.663,808.111 1008.166,813.139 1008.692,818.168 1009.242,823.196 1009.815,828.225 1010.41,833.253 1011.03,838.281 1011.672,843.31 1012.338,848.338 1013.027,853.367 1013.74,858.395 1014.476,863.423 1015.235,868.452 1016.019,873.48 1016.825,878.509 1017.656,883.537 1018.51,888.565 1019.388,893.594 1020.29,898.622 1021.216,903.651 1022.165,908.679 1023.139,913.708 1024.137,918.736 1025.159,923.764 1026.205,928.793 1027.275,933.821 1028.37,938.85 1029.489,943.878 1030.633,948.906 " />
<line x1="1030.633" y1="451.094" x2="1052.055" y2="451.094"  stroke="#7f7fff" />
<line x1="1030.633" y1="948.906" x2="1052.055" y2="948.906"  stroke="#7f7fff" />
<polyline fill="none" stroke="#7f7fff" points="1052.055,451.094 1051.893,456.122 1051.735,461.15 1051.58,466.179 1051.428,471.207 1051.28,476.236 1051.135,481.264 1050.993,486.292 1050.854,491.321 1050.719,496.349 1050.587,501.378 1050.459,506.406 1050.333,511.435 1050.211,516.463 1050.093,521.491 1049.977,526.52 1049.865,531.548 1049.756,536.577 1049.651,541.605 1049.549,546.633 1049.45,551.662 1049.354,556.69 1049.262,561.719 1049.173,566.747 1049.087,571.775 1049.005,576.804 1048.926,581.832 1048.85,586.861 1048.777,591.889 1048.708,596.918 1048.642,601.946 1048.58,606.974 1048.52,612.003 1048.464,617.031 1048.412,622.06 1048.362,627.088 1048.316,632.116 1048.273,637.145 1048.234,642.173 1048.197,647.202 1048.164,652.23 1048.135,657.258 1048.108,662.287 1048.085,667.315 1048.065,672.344 1048.049,677.372 1048.036,682.401 1048.026,687.429 1048.019,692.457 1048.016,697.486 1048.016,702.514 1048.019,707.543 1048.026,712.571 1048.036,717.599 1048.049,722.628 1048.065,727.656 1048.085,732.685 1048.108,737.713 1048.135,742.742 1048.164,747.77 1048.197,752.798 1048.234,757.827 1048.273,762.855 1048.316,767.884 1048.362,772.912 1048.412,777.94 1048.464,782.969 1048.52,787.997 1048.58,793.026 1048.642,798.054 1048.708,803.082 1048.777,808.111 1048.85,813.139 1048.926,818.168 1049.005,823.196 1049.087,828.225 1049.173,833.253 1049.262,838.281 1049.354,843.31 1049.45,848.338 1049.549,853.367 1049.651,858.395 1049.756,863.423 1049.865,868.452 1049.977,873.48 1050.093,878.509 1050.211,883.537 1050.333,888.565 1050.459,893.594 1050.587,898.622 1050.719,903.651 1050.854,908.679 1050.993,913.708 1051.135,918.736 1051.28,923.764 1051.428,928.793 1051.58,933.821 1051.735,938.85 1051.893,943.878 1052.055,948.906 " />
</g>
<g>
<polyline fill="none" stroke="#7f7fff" points="1135.313,449.795 1131.509,454.85 1127.825,459.904 1124.256,464.959 1120.799,470.014 1117.451,475.068 1114.208,480.123 1111.068,485.177 1108.028,490.232 1105.085,495.287 1102.237,500.341 1099.482,505.396 1096.818,510.451 1094.242,515.505 1091.753,520.56 1089.349,525.615 1087.028,530.669 1084.789,535.724 1082.631,540.779 1080.552,545.833 1078.55,550.888 1076.625,555.943 1074.776,560.997 1073.001,566.052 1071.299,571.106 1069.67,576.161 1068.112,581.216 1066.625,586.27 1065.208,591.325 1063.859,596.38 1062.58,601.434 1061.368,606.489 1060.223,611.544 1059.145,616.598 1058.133,621.653 1057.186,626.708 1056.304,631.762 1055.488,636.817 1054.735,641.872 1054.046,646.926 1053.421,651.981 1052.86,657.035 1052.361,662.09 1051.925,667.145 1051.552,672.199 1051.241,677.254 1050.993,682.309 1050.807,687.363 1050.683,692.418 1050.621,697.473 1050.621,702.527 1050.683,707.582 1050.807,712.637 1050.993,717.691 1051.241,722.746 1051.552,727.801 1051.925,732.855 1052.361,737.91 1052.86,742.965 1053.421,748.019 1054.046,753.074 1054.735,758.128 1055.488,763.183 1056.304,768.238 1057.186,773.292 1058.133,778.347 1059.145,783.402 1060.223,788.456 1061.368,793.511 1062.58,798.566 1063.859,803.62 1065.208,808.675 1066.625,813.73 1068.112,818.784 1069.67,823.839 1071.299,828.894 1073.001,833.948 1074.776,839.003 1076.625,844.057 1078.55,849.112 1080.552,854.167 1082.631,859.221 1084.789,864.276 1087.028,869.331 1089.349,874.385 1091.753,879.44 1094.242,884.495 1096.818,889.549 1099.482,894.604 1102.237,899.659 1105.085,904.713 1108.028,909.768 1111.068,914.823 1114.208,919.877 1117.451,924.932 1120.799,929.986 1124.256,935.041 1127.825,940.096 1131.509,945.15 1135.313,950.205 " />
<line x1="1156.214" y1="449.795" x2="1156.214" y2="456.721"  stroke="#7f7fff" />
<line x1="1135.313" y1="449.795" x2="1156.214" y2="449.795"  stroke="#7f7fff" />
<line x1="1156.214" y1="950.205" x2="1156.214" y2="943.279"  stroke="#7f7fff" />
<line x1="1135.313" y1="950.205" x2="1156.214" y2="950.205"  stroke="#7f7fff" />
<polyline fill="none" stroke="#7f7fff" points="1156.214,456.721 1155.799,461.636 1155.392,466.55 1154.994,471.465 1154.604,476.38 1154.223,481.295 1153.85,486.209 1153.486,491.124 1153.13,496.039 1152.783,500.954 1152.444,505.868 1152.114,510.783 1151.792,515.698 1151.479,520.612 1151.174,525.527 1150.878,530.442 1150.591,535.357 1150.311,540.271 1150.041,545.186 1149.778,550.101 1149.525,555.016 1149.279,559.93 1149.043,564.845 1148.814,569.76 1148.594,574.674 1148.383,579.589 1148.18,584.504 1147.986,589.419 1147.8,594.333 1147.622,599.248 1147.453,604.163 1147.293,609.078 1147.14,613.992 1146.997,618.907 1146.862,623.822 1146.735,628.736 1146.616,633.651 1146.507,638.566 1146.405,643.481 1146.312,648.395 1146.228,653.31 1146.152,658.225 1146.084,663.14 1146.025,668.054 1145.974,672.969 1145.932,677.884 1145.898,682.798 1145.873,687.713 1145.856,692.628 1145.848,697.543 1145.848,702.457 1145.856,707.372 1145.873,712.287 1145.898,717.202 1145.932,722.116 1145.974,727.031 1146.025,731.946 1146.084,736.86 1146.152,741.775 1146.228,746.69 1146.312,751.605 1146.405,756.519 1146.507,761.434 1146.616,766.349 1146.735,771.264 1146.862,776.178 1146.997,781.093 1147.14,786.008 1147.293,790.922 1147.453,795.837 1147.622,800.752 1147.8,805.667 1147.986,810.581 1148.18,815.496 1148.383,820.411 1148.594,825.326 1148.814,830.24 1149.043,835.155 1149.279,840.07 1149.525,844.984 1149.778,849.899 1150.041,854.814 1150.311,859.729 1150.591,864.643 1150.878,869.558 1151.174,874.473 1151.479,879.388 1151.792,884.302 1152.114,889.217 1152.444,894.132 1152.783,899.046 1153.13,903.961 1153.486,908.876 1153.85,913.791 1154.223,918.705 1154.604,923.62 1154.994,928.535 1155.392,933.45 1155.799,938.364 1156.214,943.279 " />
</g>
<g>
<polyline fill="none" stroke="#7f7fff" points="1211.939,485.724 1209.166,490.053 1206.473,494.382 1203.856,498.71 1201.315,503.039 1198.847,507.368 1196.451,511.697 1194.125,516.026 1191.868,520.354 1189.679,524.683 1187.557,529.012 1185.499,533.341 1183.506,537.67 1181.576,541.999 1179.708,546.327 1177.901,550.656 1176.154,554.985 1174.467,559.314 1172.838,563.643 1171.266,567.971 1169.752,572.3 1168.294,576.629 1166.892,580.958 1165.545,585.287 1164.252,589.615 1163.013,593.944 1161.827,598.273 1160.694,602.602 1159.614,606.931 1158.586,611.259 1157.609,615.588 1156.683,619.917 1155.808,624.246 1154.984,628.575 1154.209,632.903 1153.485,637.232 1152.81,641.561 1152.184,645.89 1151.607,650.219 1151.079,654.548 1150.6,658.876 1150.169,663.205 1149.786,667.534 1149.452,671.863 1149.165,676.192 1148.927,680.52 1148.736,684.849 1148.593,689.178 1148.498,693.507 1148.45,697.836 1148.45,702.164 1148.498,706.493 1148.593,710.822 1148.736,715.151 1148.927,719.48 1149.165,723.808 1149.452,728.137 1149.786,732.466 1150.169,736.795 1150.6,741.124 1151.079,745.452 1151.607,749.781 1152.184,754.11 1152.81,758.439 1153.485,762.768 1154.209,767.097 1154.984,771.425 1155.808,775.754 1156.683,780.083 1157.609,784.412 1158.586,788.741 1159.614,793.069 1160.694,797.398 1161.827,801.727 1163.013,806.056 1164.252,810.385 1165.545,814.713 1166.892,819.042 1168.294,823.371 1169.752,827.7 1171.266,832.029 1172.838,836.357 1174.467,840.686 1176.154,845.015 1177.901,849.344 1179.708,853.673 1181.576,858.001 1183.506,862.33 1185.499,866.659 1187.557,870.988 1189.679,875.317 1191.868,879.646 1194.125,883.974 1196.451,888.303 1198.847,892.632 1201.315,896.961 1203.856,901.29 1206.473,905.618 1209.166,909.947 1211.939,914.276 " />
<line x1="1233.388" y1="485.724" x2="1233.388" y2="498.278"  stroke="#7f7fff" />
<line x1="1211.939" y1="485.724" x2="1233.388" y2="485.724"  stroke="#7f7fff" />
<line x1="1233.388" y1="914.276" x2="1233.388" y2="901.722"  stroke="#7f7fff" />
<line x1="1211.939" y1="914.276" x2="1233.388" y2="914.276"  stroke="#7f7fff" />
<polyline fill="none" stroke="#7f7fff" points="1233.388,498.278 1233.839,502.353 1234.281,506.428 1234.713,510.503 1235.136,514.578 1235.55,518.654 1235.954,522.729 1236.349,526.804 1236.735,530.879 1237.112,534.954 1237.479,539.03 1237.838,543.105 1238.187,547.18 1238.526,551.255 1238.857,555.33 1239.178,559.406 1239.49,563.481 1239.792,567.556 1240.086,571.631 1240.37,575.706 1240.645,579.782 1240.911,583.857 1241.168,587.932 1241.415,592.007 1241.653,596.082 1241.882,600.158 1242.102,604.233 1242.313,608.308 1242.514,612.383 1242.707,616.458 1242.89,620.534 1243.064,624.609 1243.229,628.684 1243.384,632.759 1243.531,636.834 1243.668,640.91 1243.796,644.985 1243.915,649.06 1244.025,653.135 1244.126,657.21 1244.217,661.286 1244.3,665.361 1244.373,669.436 1244.437,673.511 1244.492,677.586 1244.537,681.662 1244.574,685.737 1244.601,689.812 1244.62,693.887 1244.629,697.962 1244.629,702.038 1244.62,706.113 1244.601,710.188 1244.574,714.263 1244.537,718.338 1244.492,722.414 1244.437,726.489 1244.373,730.564 1244.3,734.639 1244.217,738.714 1244.126,742.79 1244.025,746.865 1243.915,750.94 1243.796,755.015 1243.668,759.09 1243.531,763.166 1243.384,767.241 1243.229,771.316 1243.064,775.391 1242.89,779.466 1242.707,783.542 1242.514,787.617 1242.313,791.692 1242.102,795.767 1241.882,799.842 1241.653,803.918 1241.415,807.993 1241.168,812.068 1240.911,816.143 1240.645,820.218 1240.37,824.294 1240.086,828.369 1239.792,832.444 1239.49,836.519 1239.178,840.594 1238.857,844.67 1238.526,848.745 1238.187,852.82 1237.838,856.895 1237.479,860.97 1237.112,865.046 1236.735,869.121 1236.349,873.196 1235.954,877.271 1235.55,881.346 1235.136,885.422 1234.713,889.497 1234.281,893.572 1233.839,897.647 1233.388,901.722 " />
<line x1="1306.472" y1="498.278" x2="1306.472" y2="532.042"  stroke="#7f7fff" />
<line x1="1233.388" y1="498.278" x2="1306.472" y2="498.278"  stroke="#7f7fff" />
<line x1="1306.472" y1="901.722" x2="1306.472" y2="867.958"  stroke="#7f7fff" />
<line x1="1233.388" y1="901.722" x2="1306.472" y2="901.722"  stroke="#7f7fff" />
<polyline fill="none" stroke="#7f7fff" points="1306.472,532.042 1304.301,535.435 1302.192,538.828 1300.144,542.222 1298.154,545.615 1296.221,549.008 1294.345,552.401 1292.524,555.794 1290.757,559.187 1289.043,562.58 1287.381,565.973 1285.77,569.366 1284.209,572.759 1282.698,576.152 1281.235,579.545 1279.82,582.939 1278.452,586.332 1277.13,589.725 1275.855,593.118 1274.624,596.511 1273.438,599.904 1272.297,603.297 1271.198,606.69 1270.143,610.083 1269.131,613.476 1268.161,616.869 1267.232,620.262 1266.345,623.656 1265.499,627.049 1264.694,630.442 1263.929,633.835 1263.204,637.228 1262.518,640.621 1261.873,644.014 1261.266,647.407 1260.699,650.8 1260.17,654.193 1259.68,657.586 1259.228,660.98 1258.815,664.373 1258.439,667.766 1258.102,671.159 1257.802,674.552 1257.54,677.945 1257.316,681.338 1257.129,684.731 1256.979,688.124 1256.867,691.517 1256.793,694.91 1256.755,698.303 1256.755,701.697 1256.793,705.09 1256.867,708.483 1256.979,711.876 1257.129,715.269 1257.316,718.662 1257.54,722.055 1257.802,725.448 1258.102,728.841 1258.439,732.234 1258.815,735.627 1259.228,739.02 1259.68,742.414 1260.17,745.807 1260.699,749.2 1261.266,752.593 1261.873,755.986 1262.518,759.379 1263.204,762.772 1263.929,766.165 1264.694,769.558 1265.499,772.951 1266.345,776.344 1267.232,779.738 1268.161,783.131 1269.131,786.524 1270.143,789.917 1271.198,793.31 1272.297,796.703 1273.438,800.096 1274.624,803.489 1275.855,806.882 1277.13,810.275 1278.452,813.668 1279.82,817.061 1281.235,820.455 1282.698,823.848 1284.209,827.241 1285.77,830.634 1287.381,834.027 1289.043,837.42 1290.757,840.813 1292.524,844.206 1294.345,847.599 1296.221,850.992 1298.154,854.385 1300.144,857.778 1302.192,861.172 1304.301,864.565 1306.472,867.958 " />
</g>
<g>
<polyline fill="none" stroke="#7f7fff" points="1369.156,551.955 1369.134,554.946 1369.113,557.936 1369.092,560.927 1369.071,563.918 1369.051,566.909 1369.031,569.9 1369.012,572.89 1368.993,575.881 1368.975,578.872 1368.957,581.863 1368.939,584.854 1368.922,587.845 1368.906,590.835 1368.89,593.826 1368.874,596.817 1368.859,599.808 1368.844,602.799 1368.83,605.789 1368.816,608.78 1368.802,611.771 1368.789,614.762 1368.777,617.753 1368.765,620.743 1368.753,623.734 1368.742,626.725 1368.731,629.716 1368.721,632.707 1368.711,635.698 1368.701,638.688 1368.692,641.679 1368.684,644.67 1368.676,647.661 1368.668,650.652 1368.661,653.642 1368.654,656.633 1368.648,659.624 1368.642,662.615 1368.637,665.606 1368.632,668.596 1368.627,671.587 1368.623,674.578 1368.62,677.569 1368.617,680.56 1368.614,683.551 1368.612,686.541 1368.61,689.532 1368.608,692.523 1368.608,695.514 1368.607,698.505 1368.607,701.495 1368.608,704.486 1368.608,707.477 1368.61,710.468 1368.612,713.459 1368.614,716.449 1368.617,719.44 1368.62,722.431 1368.623,725.422 1368.627,728.413 1368.632,731.404 1368.637,734.394 1368.642,737.385 1368.648,740.376 1368.654,743.367 1368.661,746.358 1368.668,749.348 1368.676,752.339 1368.684,755.33 1368.692,758.321 1368.701,761.312 1368.711,764.302 1368.721,767.293 1368.731,770.284 1368.742,773.275 1368.753,776.266 1368.765,779.257 1368.777,782.247 1368.789,785.238 1368.802,788.229 1368.816,791.22 1368.83,794.211 1368.844,797.201 1368.859,800.192 1368.874,803.183 1368.89,806.174 1368.906,809.165 1368.922,812.155 1368.939,815.146 1368.957,818.137 1368.975,821.128 1368.993,824.119 1369.012,827.11 1369.031,830.1 1369.051,833.091 1369.071,836.082 1369.092,839.073 1369.113,842.064 1369.134,845.054 1369.156,848.045 " />
<line x1="1446.318" y1="551.955" x2="1446.318" y2="565.374"  stroke="#7f7fff" />
<line x1="1369.156" y1="551.955" x2="1446.318" y2="551.955"  stroke="#7f7fff" />
<line x1="1446.318" y1="848.045" x2="1446.318" y2="834.626"  stroke="#7f7fff" />
<line x1="1369.156" y1="848.045" x2="1446.318" y2="848.045"  stroke="#7f7fff" />
<polyline fill="none" stroke="#7f7fff" points="1446.318,565.374 1442.789,568.094 1439.444,570.814 1436.267,573.533 1433.243,576.253 1430.36,578.973 1427.608,581.692 1424.979,584.412 1422.464,587.132 1420.057,589.852 1417.752,592.571 1415.544,595.291 1413.427,598.011 1411.398,600.73 1409.452,603.45 1407.586,606.17 1405.797,608.89 1404.082,611.609 1402.438,614.329 1400.863,617.049 1399.355,619.768 1397.912,622.488 1396.532,625.208 1395.212,627.928 1393.953,630.647 1392.751,633.367 1391.607,636.087 1390.518,638.806 1389.483,641.526 1388.501,644.246 1387.572,646.966 1386.695,649.685 1385.868,652.405 1385.09,655.125 1384.362,657.844 1383.683,660.564 1383.051,663.284 1382.466,666.004 1381.928,668.723 1381.437,671.443 1380.992,674.163 1380.592,676.882 1380.237,679.602 1379.927,682.322 1379.662,685.042 1379.442,687.761 1379.266,690.481 1379.134,693.201 1379.046,695.92 1379.002,698.64 1379.002,701.36 1379.046,704.08 1379.134,706.799 1379.266,709.519 1379.442,712.239 1379.662,714.958 1379.927,717.678 1380.237,720.398 1380.592,723.118 1380.992,725.837 1381.437,728.557 1381.928,731.277 1382.466,733.996 1383.051,736.716 1383.683,739.436 1384.362,742.156 1385.09,744.875 1385.868,747.595 1386.695,750.315 1387.572,753.034 1388.501,755.754 1389.483,758.474 1390.518,761.194 1391.607,763.913 1392.751,766.633 1393.953,769.353 1395.212,772.072 1396.532,774.792 1397.912,777.512 1399.355,780.232 1400.863,782.951 1402.438,785.671 1404.082,788.391 1405.797,791.11 1407.586,793.83 1409.452,796.55 1411.398,799.27 1413.427,801.989 1415.544,804.709 1417.752,807.429 1420.057,810.148 1422.464,812.868 1424.979,815.588 1427.608,818.308 1430.36,821.027 1433.243,823.747 1436.267,826.467 1439.444,829.186 1442.789,831.906 1446.318,834.626 " />
<line x1="1476.576" y1="565.374" x2="1476.576" y2="567.971"  stroke="#7f7fff" />
<line x1="1446.318" y1="565.374" x2="1476.576" y2="565.374"  stroke="#7f7fff" />
<line x1="1476.576" y1="834.626" x2="1476.576" y2="832.029"  stroke="#7f7fff" />
<line x1="1446.318" y1="834.626" x2="1476.576" y2="834.626"  stroke="#7f7fff" />
<polyline fill="none" stroke="#7f7fff" points="1476.576,567.971 1476.604,570.639 1476.63,573.306 1476.657,575.973 1476.682,578.64 1476.707,581.308 1476.732,583.975 1476.756,586.642 1476.779,589.309 1476.802,591.977 1476.825,594.644 1476.846,597.311 1476.868,599.978 1476.888,602.646 1476.908,605.313 1476.928,607.98 1476.947,610.647 1476.965,613.315 1476.983,615.982 1477,618.649 1477.017,621.316 1477.033,623.984 1477.049,626.651 1477.064,629.318 1477.079,631.985 1477.093,634.652 1477.106,637.32 1477.119,639.987 1477.131,642.654 1477.143,645.321 1477.154,647.989 1477.165,650.656 1477.175,653.323 1477.184,655.99 1477.193,658.658 1477.201,661.325 1477.209,663.992 1477.217,666.659 1477.223,669.327 1477.229,671.994 1477.235,674.661 1477.24,677.328 1477.244,679.996 1477.248,682.663 1477.252,685.33 1477.254,687.997 1477.257,690.665 1477.258,693.332 1477.259,695.999 1477.26,698.666 1477.26,701.334 1477.259,704.001 1477.258,706.668 1477.257,709.335 1477.254,712.003 1477.252,714.67 1477.248,717.337 1477.244,720.004 1477.24,722.672 1477.235,725.339 1477.229,728.006 1477.223,730.673 1477.217,733.341 1477.209,736.008 1477.201,738.675 1477.193,741.342 1477.184,744.01 1477.175,746.677 1477.165,749.344 1477.154,752.011 1477.143,754.679 1477.131,757.346 1477.119,760.013 1477.106,762.68 1477.093,765.348 1477.079,768.015 1477.064,770.682 1477.049,773.349 1477.033,776.016 1477.017,778.684 1477,781.351 1476.983,784.018 1476.965,786.685 1476.947,789.353 1476.928,792.02 1476.908,794.687 1476.888,797.354 1476.868,800.022 1476.846,802.689 1476.825,805.356 1476.802,808.023 1476.779,810.691 1476.756,813.358 1476.732,816.025 1476.707,818.692 1476.682,821.36 1476.657,824.027 1476.63,826.694 1476.604,829.361 1476.576,832.029 " />
</g>
<g>
<polyline fill="none" stroke="#7f7fff" points="1490.229,570.136 1491.119,572.759 1491.989,575.383 1492.839,578.006 1493.669,580.63 1494.479,583.253 1495.269,585.877 1496.04,588.5 1496.792,591.124 1497.524,593.747 1498.237,596.371 1498.931,598.994 1499.606,601.618 1500.262,604.242 1500.9,606.865 1501.518,609.489 1502.118,612.112 1502.7,614.736 1503.263,617.359 1503.808,619.983 1504.334,622.606 1504.842,625.23 1505.332,627.853 1505.804,630.477 1506.258,633.1 1506.694,635.724 1507.112,638.347 1507.512,640.971 1507.895,643.594 1508.259,646.218 1508.606,648.841 1508.936,651.465 1509.248,654.088 1509.542,656.712 1509.819,659.335 1510.078,661.959 1510.32,664.582 1510.544,667.206 1510.751,669.83 1510.941,672.453 1511.114,675.077 1511.269,677.7 1511.406,680.324 1511.527,682.947 1511.63,685.571 1511.716,688.194 1511.785,690.818 1511.837,693.441 1511.871,696.065 1511.888,698.688 1511.888,701.312 1511.871,703.935 1511.837,706.559 1511.785,709.182 1511.716,711.806 1511.63,714.429 1511.527,717.053 1511.406,719.676 1511.269,722.3 1511.114,724.923 1510.941,727.547 1510.751,730.17 1510.544,732.794 1510.32,735.418 1510.078,738.041 1509.819,740.665 1509.542,743.288 1509.248,745.912 1508.936,748.535 1508.606,751.159 1508.259,753.782 1507.895,756.406 1507.512,759.029 1507.112,761.653 1506.694,764.276 1506.258,766.9 1505.804,769.523 1505.332,772.147 1504.842,774.77 1504.334,777.394 1503.808,780.017 1503.263,782.641 1502.7,785.264 1502.118,787.888 1501.518,790.511 1500.9,793.135 1500.262,795.758 1499.606,798.382 1498.931,801.006 1498.237,803.629 1497.524,806.253 1496.792,808.876 1496.04,811.5 1495.269,814.123 1494.479,816.747 1493.669,819.37 1492.839,821.994 1491.989,824.617 1491.119,827.241 1490.229,829.864 " />
<line x1="1490.229" y1="567.106" x2="1490.229" y2="570.136"  stroke="#7f7fff" />
<line x1="1490.229" y1="567.106" x2="1570.666" y2="567.106"  stroke="#7f7fff" />
<line x1="1490.229" y1="832.894" x2="1490.229" y2="829.864"  stroke="#7f7fff" />
<line x1="1490.229" y1="832.894" x2="1570.666" y2="832.894"  stroke="#7f7fff" />
<polyline fill="none" stroke="#7f7fff" points="1570.666,567.106 1568.451,569.79 1566.31,572.475 1564.24,575.16 1562.24,577.845 1560.305,580.529 1558.435,583.214 1556.628,585.899 1554.88,588.583 1553.191,591.268 1551.558,593.953 1549.981,596.638 1548.457,599.322 1546.986,602.007 1545.565,604.692 1544.195,607.377 1542.873,610.061 1541.6,612.746 1540.373,615.431 1539.192,618.116 1538.056,620.8 1536.964,623.485 1535.916,626.17 1534.91,628.855 1533.947,631.539 1533.025,634.224 1532.144,636.909 1531.304,639.593 1530.503,642.278 1529.742,644.963 1529.02,647.648 1528.336,650.332 1527.69,653.017 1527.083,655.702 1526.512,658.387 1525.979,661.071 1525.482,663.756 1525.022,666.441 1524.599,669.126 1524.211,671.81 1523.859,674.495 1523.543,677.18 1523.263,679.864 1523.018,682.549 1522.808,685.234 1522.633,687.919 1522.493,690.603 1522.389,693.288 1522.319,695.973 1522.284,698.658 1522.284,701.342 1522.319,704.027 1522.389,706.712 1522.493,709.397 1522.633,712.081 1522.808,714.766 1523.018,717.451 1523.263,720.136 1523.543,722.82 1523.859,725.505 1524.211,728.19 1524.599,730.874 1525.022,733.559 1525.482,736.244 1525.979,738.929 1526.512,741.613 1527.083,744.298 1527.69,746.983 1528.336,749.668 1529.02,752.352 1529.742,755.037 1530.503,757.722 1531.304,760.407 1532.144,763.091 1533.025,765.776 1533.947,768.461 1534.91,771.145 1535.916,773.83 1536.964,776.515 1538.056,779.2 1539.192,781.884 1540.373,784.569 1541.6,787.254 1542.873,789.939 1544.195,792.623 1545.565,795.308 1546.986,797.993 1548.457,800.678 1549.981,803.362 1551.558,806.047 1553.191,808.732 1554.88,811.417 1556.628,814.101 1558.435,816.786 1560.305,819.471 1562.24,822.155 1564.24,824.84 1566.31,827.525 1568.451,830.21 1570.666,832.894 " />
<line x1="1592.035" y1="567.106" x2="1592.035" y2="567.971"  stroke="#7f7fff" />
<line x1="1570.666" y1="567.106" x2="1592.035" y2="567.106"  stroke="#7f7fff" />
<line x1="1592.035" y1="832.894" x2="1592.035" y2="832.029"  stroke="#7f7fff" />
<line x1="1570.666" y1="832.894" x2="1592.035" y2="832.894"  stroke="#7f7fff" />
<polyline fill="none" stroke="#7f7fff" points="1592.035,567.971 1592.762,570.639 1593.473,573.306 1594.169,575.973 1594.848,578.64 1595.512,581.308 1596.16,583.975 1596.793,586.642 1597.41,589.309 1598.012,591.977 1598.598,594.644 1599.169,597.311 1599.725,599.978 1600.265,602.646 1600.79,605.313 1601.301,607.98 1601.796,610.647 1602.276,613.315 1602.741,615.982 1603.191,618.649 1603.626,621.316 1604.046,623.984 1604.452,626.651 1604.842,629.318 1605.218,631.985 1605.579,634.652 1605.926,637.32 1606.258,639.987 1606.575,642.654 1606.877,645.321 1607.165,647.989 1607.439,650.656 1607.698,653.323 1607.942,655.99 1608.172,658.658 1608.388,661.325 1608.589,663.992 1608.775,666.659 1608.947,669.327 1609.105,671.994 1609.248,674.661 1609.377,677.328 1609.492,679.996 1609.592,682.663 1609.678,685.33 1609.75,687.997 1609.807,690.665 1609.85,693.332 1609.879,695.999 1609.893,698.666 1609.893,701.334 1609.879,704.001 1609.85,706.668 1609.807,709.335 1609.75,712.003 1609.678,714.67 1609.592,717.337 1609.492,720.004 1609.377,722.672 1609.248,725.339 1609.105,728.006 1608.947,730.673 1608.775,733.341 1608.589,736.008 1608.388,738.675 1608.172,741.342 1607.942,744.01 1607.698,746.677 1607.439,749.344 1607.165,752.011 1606.877,754.679 1606.575,757.346 1606.258,760.013 1605.926,762.68 1605.579,765.348 1605.218,768.015 1604.842,770.682 1604.452,773.349 1604.046,776.016 1603.626,778.684 1603.191,781.351 1602.741,784.018 1602.276,786.685 1601.796,789.353 1601.301,792.02 1600.79,794.687 1600.265,797.354 1599.725,800.022 1599.169,802.689 1598.598,805.356 1598.012,808.023 1597.41,810.691 1596.793,813.358 1596.16,816.025 1595.512,818.692 1594.848,821.36 1594.169,824.027 1593.473,826.694 1592.762,829.361 1592.035,832.029 " />
</g>
<g>
<polyline fill="none" stroke="#7f7fff" points="1650.492,567.538 1651.633,570.214 1652.747,572.89 1653.833,575.566 1654.893,578.242 1655.927,580.918 1656.934,583.594 1657.915,586.27 1658.87,588.946 1659.8,591.622 1660.705,594.298 1661.584,596.974 1662.439,599.65 1663.269,602.326 1664.074,605.002 1664.855,607.678 1665.612,610.354 1666.345,613.03 1667.054,615.706 1667.74,618.382 1668.402,621.058 1669.041,623.734 1669.656,626.41 1670.248,629.086 1670.818,631.762 1671.365,634.438 1671.888,637.114 1672.39,639.79 1672.869,642.466 1673.325,645.142 1673.759,647.818 1674.171,650.494 1674.56,653.17 1674.928,655.846 1675.274,658.522 1675.597,661.198 1675.899,663.874 1676.179,666.55 1676.437,669.226 1676.674,671.902 1676.889,674.578 1677.082,677.254 1677.254,679.93 1677.404,682.606 1677.533,685.282 1677.64,687.958 1677.726,690.634 1677.79,693.31 1677.833,695.986 1677.854,698.662 1677.854,701.338 1677.833,704.014 1677.79,706.69 1677.726,709.366 1677.64,712.042 1677.533,714.718 1677.404,717.394 1677.254,720.07 1677.082,722.746 1676.889,725.422 1676.674,728.098 1676.437,730.774 1676.179,733.45 1675.899,736.126 1675.597,738.802 1675.274,741.478 1674.928,744.154 1674.56,746.83 1674.171,749.506 1673.759,752.182 1673.325,754.858 1672.869,757.534 1672.39,760.21 1671.888,762.886 1671.365,765.562 1670.818,768.238 1670.248,770.914 1669.656,773.59 1669.041,776.266 1668.402,778.942 1667.74,781.618 1667.054,784.294 1666.345,786.97 1665.612,789.646 1664.855,792.322 1664.074,794.998 1663.269,797.674 1662.439,800.35 1661.584,803.026 1660.705,805.702 1659.8,808.378 1658.87,811.054 1657.915,813.73 1656.934,816.406 1655.927,819.082 1654.893,821.758 1653.833,824.434 1652.747,827.11 1651.633,829.786 1650.492,832.462 " />
<line x1="1650.492" y1="559.314" x2="1650.492" y2="567.538"  stroke="#7f7fff" />
<line x1="1650.492" y1="559.314" x2="1684.502" y2="559.314"  stroke="#7f7fff" />
<line x1="1650.492" y1="840.686" x2="1650.492" y2="832.462"  stroke="#7f7fff" />
<line x1="1650.492" y1="840.686" x2="1684.502" y2="840.686"  stroke="#7f7fff" />
<polyline fill="none" stroke="#7f7fff" points="1684.502,559.314 1684.747,562.156 1685.008,564.998 1685.282,567.84 1685.567,570.682 1685.862,573.524 1686.164,576.367 1686.472,579.209 1686.784,582.051 1687.1,584.893 1687.418,587.735 1687.737,590.577 1688.056,593.42 1688.374,596.262 1688.691,599.104 1689.005,601.946 1689.316,604.788 1689.624,607.63 1689.927,610.472 1690.225,613.315 1690.517,616.157 1690.804,618.999 1691.084,621.841 1691.358,624.683 1691.624,627.525 1691.883,630.367 1692.133,633.21 1692.376,636.052 1692.609,638.894 1692.834,641.736 1693.05,644.578 1693.256,647.42 1693.453,650.262 1693.64,653.105 1693.816,655.947 1693.983,658.789 1694.139,661.631 1694.285,664.473 1694.42,667.315 1694.544,670.157 1694.657,673 1694.759,675.842 1694.85,678.684 1694.93,681.526 1694.999,684.368 1695.056,687.21 1695.102,690.052 1695.136,692.895 1695.159,695.737 1695.171,698.579 1695.171,701.421 1695.159,704.263 1695.136,707.105 1695.102,709.948 1695.056,712.79 1694.999,715.632 1694.93,718.474 1694.85,721.316 1694.759,724.158 1694.657,727 1694.544,729.843 1694.42,732.685 1694.285,735.527 1694.139,738.369 1693.983,741.211 1693.816,744.053 1693.64,746.895 1693.453,749.738 1693.256,752.58 1693.05,755.422 1692.834,758.264 1692.609,761.106 1692.376,763.948 1692.133,766.79 1691.883,769.633 1691.624,772.475 1691.358,775.317 1691.084,778.159 1690.804,781.001 1690.517,783.843 1690.225,786.685 1689.927,789.528 1689.624,792.37 1689.316,795.212 1689.005,798.054 1688.691,800.896 1688.374,803.738 1688.056,806.58 1687.737,809.423 1687.418,812.265 1687.1,815.107 1686.784,817.949 1686.472,820.791 1686.164,823.633 1685.862,826.476 1685.567,829.318 1685.282,832.16 1685.008,835.002 1684.747,837.844 1684.502,840.686 " />
</g>
<g>
<polyline fill="none" stroke="#7f7fff" points="1858.833,490.919 1857.146,495.142 1855.5,499.366 1853.892,503.59 1852.324,507.814 1850.794,512.038 1849.303,516.262 1847.85,520.486 1846.434,524.71 1845.055,528.933 1843.714,533.157 1842.409,537.381 1841.141,541.605 1839.909,545.829 1838.714,550.053 1837.554,554.277 1836.429,558.5 1835.34,562.724 1834.286,566.948 1833.266,571.172 1832.282,575.396 1831.332,579.62 1830.416,583.844 1829.535,588.068 1828.687,592.291 1827.873,596.515 1827.093,600.739 1826.347,604.963 1825.634,609.187 1824.954,613.411 1824.307,617.635 1823.693,621.858 1823.113,626.082 1822.565,630.306 1822.05,634.53 1821.567,638.754 1821.117,642.978 1820.7,647.202 1820.314,651.426 1819.962,655.649 1819.641,659.873 1819.353,664.097 1819.097,668.321 1818.873,672.545 1818.681,676.769 1818.521,680.993 1818.393,685.216 1818.297,689.44 1818.233,693.664 1818.201,697.888 1818.201,702.112 1818.233,706.336 1818.297,710.56 1818.393,714.784 1818.521,719.007 1818.681,723.231 1818.873,727.455 1819.097,731.679 1819.353,735.903 1819.641,740.127 1819.962,744.351 1820.314,748.574 1820.7,752.798 1821.117,757.022 1821.567,761.246 1822.05,765.47 1822.565,769.694 1823.113,773.918 1823.693,778.142 1824.307,782.365 1824.954,786.589 1825.634,790.813 1826.347,795.037 1827.093,799.261 1827.873,803.485 1828.687,807.709 1829.535,811.932 1830.416,816.156 1831.332,820.38 1832.282,824.604 1833.266,828.828 1834.286,833.052 1835.34,837.276 1836.429,841.5 1837.554,845.723 1838.714,849.947 1839.909,854.171 1841.141,858.395 1842.409,862.619 1843.714,866.843 1845.055,871.067 1846.434,875.29 1847.85,879.514 1849.303,883.738 1850.794,887.962 1852.324,892.186 1853.892,896.41 1855.5,900.634 1857.146,904.858 1858.833,909.081 " />
<line x1="1858.833" y1="490.919" x2="1880.305" y2="490.919"  stroke="#7f7fff" />
<line x1="1858.833" y1="909.081" x2="1880.305" y2="909.081"  stroke="#7f7fff" />
<polyline fill="none" stroke="#7f7fff" points="1880.305,490.919 1880.801,495.142 1881.286,499.366 1881.761,503.59 1882.226,507.814 1882.68,512.038 1883.125,516.262 1883.559,520.486 1883.983,524.71 1884.397,528.933 1884.8,533.157 1885.194,537.381 1885.577,541.605 1885.95,545.829 1886.313,550.053 1886.665,554.277 1887.008,558.5 1887.34,562.724 1887.663,566.948 1887.975,571.172 1888.277,575.396 1888.569,579.62 1888.851,583.844 1889.123,588.068 1889.384,592.291 1889.636,596.515 1889.877,600.739 1890.108,604.963 1890.33,609.187 1890.541,613.411 1890.742,617.635 1890.933,621.858 1891.114,626.082 1891.285,630.306 1891.446,634.53 1891.596,638.754 1891.737,642.978 1891.868,647.202 1891.988,651.426 1892.099,655.649 1892.199,659.873 1892.29,664.097 1892.37,668.321 1892.44,672.545 1892.501,676.769 1892.551,680.993 1892.591,685.216 1892.621,689.44 1892.641,693.664 1892.651,697.888 1892.651,702.112 1892.641,706.336 1892.621,710.56 1892.591,714.784 1892.551,719.007 1892.501,723.231 1892.44,727.455 1892.37,731.679 1892.29,735.903 1892.199,740.127 1892.099,744.351 1891.988,748.574 1891.868,752.798 1891.737,757.022 1891.596,761.246 1891.446,765.47 1891.285,769.694 1891.114,773.918 1890.933,778.142 1890.742,782.365 1890.541,786.589 1890.33,790.813 1890.108,795.037 1889.877,799.261 1889.636,803.485 1889.384,807.709 1889.123,811.932 1888.851,816.156 1888.569,820.38 1888.277,824.604 1887.975,828.828 1887.663,833.052 1887.34,837.276 1887.008,841.5 1886.665,845.723 1886.313,849.947 1885.95,854.171 1885.577,858.395 1885.194,862.619 1884.8,866.843 1884.397,871.067 1883.983,875.29 1883.559,879.514 1883.125,883.738 1882.68,887.962 1882.226,892.186 1881.761,896.41 1881.286,900.634 1880.801,904.858 1880.305,909.081 " />
</g>
<g>
<polyline fill="none" stroke="#7f7fff" points="2117.75,498.278 2117.75,502.353 2117.75,506.428 2117.75,510.503 2117.75,514.578 2117.75,518.654 2117.75,522.729 2117.75,526.804 2117.75,530.879 2117.75,534.954 2117.75,539.03 2117.75,543.105 2117.75,547.18 2117.75,551.255 2117.75,555.33 2117.75,559.406 2117.75,563.481 2117.75,567.556 2117.75,571.631 2117.75,575.706 2117.75,579.782 2117.75,583.857 2117.75,587.932 2117.75,592.007 2117.75,596.082 2117.75,600.158 2117.75,604.233 2117.75,608.308 2117.75,612.383 2117.75,616.458 2117.75,620.534 2117.75,624.609 2117.75,628.684 2117.75,632.759 2117.75,636.834 2117.75,640.91 2117.75,644.985 2117.75,649.06 2117.75,653.135 2117.75,657.21 2117.75,661.286 2117.75,665.361 2117.75,669.436 2117.75,673.511 2117.75,677.586 2117.75,681.662 2117.75,685.737 2117.75,689.812 2117.75,693.887 2117.75,697.962 2117.75,702.038 2117.75,706.113 2117.75,710.188 2117.75,714.263 2117.75,718.338 2117.75,722.414 2117.75,726.489 2117.75,730.564 2117.75,734.639 2117.75,738.714 2117.75,742.79 2117.75,746.865 2117.75,750.94 2117.75,755.015 2117.75,759.09 2117.75,763.166 2117.75,767.241 2117.75,771.316 2117.75,775.391 2117.75,779.466 2117.75,783.542 2117.75,787.617 2117.75,791.692 2117.75,795.767 2117.75,799.842 2117.75,803.918 2117.75,807.993 2117.75,812.068 2117.75,816.143 2117.75,820.218 2117.75,824.294 2117.75,828.369 2117.75,832.444 2117.75,836.519 2117.75,840.594 2117.75,844.67 2117.75,848.745 2117.75,852.82 2117.75,856.895 2117.75,860.97 2117.75,865.046 2117.75,869.121 2117.75,873.196 2117.75,877.271 2117.75,881.346 2117.75,885.422 2117.75,889.497 2117.75,893.572 2117.75,897.647 2117.75,901.722 " />
<line x1="2117.75" y1="498.278" x2="2143.723" y2="498.278"  stroke="#7f7fff" />
<line x1="2117.75" y1="901.722" x2="2143.723" y2="901.722"  stroke="#7f7fff" />
<polyline fill="none" stroke="#7f7fff" points="2143.723,498.278 2143.723,502.353 2143.723,506.428 2143.723,510.503 2143.723,514.578 2143.723,518.654 2143.723,522.729 2143.723,526.804 2143.723,530.879 2143.723,534.954 2143.723,539.03 2143.723,543.105 2143.723,547.18 2143.723,551.255 2143.723,555.33 2143.723,559.406 2143.723,563.481 2143.723,567.556 2143.723,571.631 2143.723,575.706 2143.723,579.782 2143.723,583.857 2143.723,587.932 2143.723,592.007 2143.723,596.082 2143.723,600.158 2143.723,604.233 2143.723,608.308 2143.723,612.383 2143.723,616.458 2143.723,620.534 2143.723,624.609 2143.723,628.684 2143.723,632.759 2143.723,636.834 2143.723,640.91 2143.723,644.985 2143.723,649.06 2143.723,653.135 2143.723,657.21 2143.723,661.286 2143.723,665.361 2143.723,669.436 2143.723,673.511 2143.723,677.586 2143.723,681.662 2143.723,685.737 2143.723,689.812 2143.723,693.887 2143.723,697.962 2143.723,702.038 2143.723,706.113 2143.723,710.188 2143.723,714.263 2143.723,718.338 2143.723,722.414 2143.723,726.489 2143.723,730.564 2143.723,734.639 2143.723,738.714 2143.723,742.79 2143.723,746.865 2143.723,750.94 2143.723,755.015 2143.723,759.09 2143.723,763.166 2143.723,767.241 2143.723,771.316 2143.723,775.391 2143.723,779.466 2143.723,783.542 2143.723,787.617 2143.723,791.692 2143.723,795.767 2143.723,799.842 2143.723,803.918 2143.723,807.993 2143.723,812.068 2143.723,816.143 2143.723,820.218 2143.723,824.294 2143.723,828.369 2143.723,832.444 2143.723,836.519 2143.723,840.594 2143.723,844.67 2143.723,848.745 2143.723,852.82 2143.723,856.895 2143.723,860.97 2143.723,865.046 2143.723,869.121 2143.723,873.196 2143.723,877.271 2143.723,881.346 2143.723,885.422 2143.723,889.497 2143.723,893.572 2143.723,897.647 2143.723,901.722 " />
</g>
</g>
<g><title>element</title>
<polyline fill="none" stroke="#7f7fff" points="2152.381,327.723 2152.381,335.243 2152.381,342.764 2152.381,350.285 2152.381,357.806 2152.381,365.326 2152.381,372.847 2152.381,380.368 2152.381,387.889 2152.381,395.409 2152.381,402.93 2152.381,410.451 2152.381,417.972 2152.381,425.492 2152.381,433.013 2152.381,440.534 2152.381,448.055 2152.381,455.575 2152.381,463.096 2152.381,470.617 2152.381,478.138 2152.381,485.658 2152.381,493.179 2152.381,500.7 2152.381,508.221 2152.381,515.741 2152.381,523.262 2152.381,530.783 2152.381,538.304 2152.381,545.824 2152.381,553.345 2152.381,560.866 2152.381,568.387 2152.381,575.908 2152.381,583.428 2152.381,590.949 2152.381,598.47 2152.381,605.991 2152.381,613.511 2152.381,621.032 2152.381,628.553 2152.381,636.074 2152.381,643.594 2152.381,651.115 2152.381,658.636 2152.381,666.157 2152.381,673.677 2152.381,681.198 2152.381,688.719 2152.381,696.24 2152.381,703.76 2152.381,711.281 2152.381,718.802 2152.381,726.323 2152.381,733.843 2152.381,741.364 2152.381,748.885 2152.381,756.406 2152.381,763.926 2152.381,771.447 2152.381,778.968 2152.381,786.489 2152.381,794.009 2152.381,801.53 2152.381,809.051 2152.381,816.572 2152.381,824.092 2152.381,831.613 2152.381,839.134 2152.381,846.655 2152.381,854.176 2152.381,861.696 2152.381,869.217 2152.381,876.738 2152.381,884.259 2152.381,891.779 2152.381,899.3 2152.381,906.821 2152.381,914.342 2152.381,921.862 2152.381,929.383 2152.381,936.904 2152.381,944.425 2152.381,951.945 2152.381,959.466 2152.381,966.987 2152.381,974.508 2152.381,982.028 2152.381,989.549 2152.381,997.07 2152.381,1004.591 2152.381,1012.111 2152.381,1019.632 2152.381,1027.153 2152.381,1034.674 2152.381,1042.194 2152.381,1049.715 2152.381,1057.236 2152.381,1064.757 2152.381,1072.277 " />
</g>
</svg>
