<?xml version="1.0" standalone="no"?>
<svg width="300px" height="300px" version="1.1" xmlns="http://www.w3.org/2000/svg" xmlns:xlink="http://www.w3.org/1999/xlink">
    <rect x="0" y="0" width="300" height="300"  fill="#000000" />
    <defs>
        <g id="dot">
            <line x1="1" y1="1" x2="0" y2="0"  />
        </g>
        <g id="cross">
            <line x1="-3" y1="0" x2="3" y2="0"  />
            <line x1="0" y1="-3" x2="0" y2="3"  />
        </g>
        <g id="square">
            <line x1="-3" y1="-3" x2="-3" y2="3"  />
            <line x1="-3" y1="3" x2="3" y2="3"  />
            <line x1="3" y1="3" x2="3" y2="-3"  />
            <line x1="3" y1="-3" x2="-3" y2="-3"  />
        </g>
        <g id="round">
            <ellipse cx="0" cy="0" rx="3" ry="3"  fill="none" /></g>
        <g id="triangle">
            <line x1="0" y1="-3" x2="-3" y2="3"  />
            <line x1="-3" y1="3" x2="3" y2="3"  />
            <line x1="0" y1="-3" x2="3" y2="3"  />
        </g>
    </defs>
    <polygon fill="none" stroke="#ffffff" points="30.952,269.048 30.952,30.952 269.048,30.952 269.048,269.048 " />
    <text style="font-size:12;text-align:center;text-anchor:middle;" x="150" y="298.262" fill="#ffffff">Sagittal distance (um)</text>
    <use x="70.635" y="30.952" xlink:href="#cross"  stroke="#ffffff" />
    <use x="70.635" y="269.048" xlink:href="#cross"  stroke="#ffffff" />
    <text style="font-size:12;text-align:center;text-anchor:middle;" x="70.635" y="287.048" fill="#ffffff">-16</text>
    <use x="150" y="30.952" xlink:href="#cross"  stroke="#ffffff" />
    <use x="150" y="269.048" xlink:href="#cross"  stroke="#ffffff" />
    <text style="font-size:12;text-align:center;text-anchor:middle;" x="150" y="287.048" fill="#ffffff">0</text>
    <use x="229.365" y="30.952" xlink:href="#cross"  stroke="#ffffff" />
    <use x="229.365" y="269.048" xlink:href="#cross"  stroke="#ffffff" />
    <text style="font-size:12;text-align:center;text-anchor:middle;" x="229.365" y="287.048" fill="#ffffff">16</text>
    <text style="font-size:12;text-align:center;text-anchor:middle;" x="7.738" y="156" transform="rotate(-90,7.738,150)" fill="#ffffff">Tangential distance (um)</text>
    <use x="269.048" y="234.306" xlink:href="#cross"  stroke="#ffffff" />
    <use x="30.952" y="234.306" xlink:href="#cross"  stroke="#ffffff" />
    <text style="font-size:12;text-align:right;text-anchor:end;" x="24.952" y="240.306" fill="#ffffff">-16</text>
    <use x="269.048" y="154.941" xlink:href="#cross"  stroke="#ffffff" />
    <use x="30.952" y="154.941" xlink:href="#cross"  stroke="#ffffff" />
    <text style="font-size:12;text-align:right;text-anchor:end;" x="24.952" y="160.941" fill="#ffffff">0</text>
    <use x="269.048" y="75.576" xlink:href="#cross"  stroke="#ffffff" />
    <use x="30.952" y="75.576" xlink:href="#cross"  stroke="#ffffff" />
    <text style="font-size:12;text-align:right;text-anchor:end;" x="24.952" y="81.576" fill="#ffffff">16</text>
    <use x="111.109" y="213.957" xlink:href="#dot"  stroke="#00ebff" />
    <use x="107.467" y="216.531" xlink:href="#dot"  stroke="#ffe100" />
    <use x="106.435" y="205.404" xlink:href="#dot"  stroke="#ff0000" />
    <use x="119.172" y="242.245" xlink:href="#dot"  stroke="#00ebff" />
    <use x="126.587" y="231.344" xlink:href="#dot"  stroke="#ffe100" />
    <use x="125.858" y="220.01" xlink:href="#dot"  stroke="#ff0000" />
    <use x="133" y="258.696" xlink:href="#dot"  stroke="#00ebff" />
    <use x="150" y="236.164" xlink:href="#dot"  stroke="#ffe100" />
    <use x="150" y="224.745" xlink:href="#dot"  stroke="#ff0000" />
    <use x="150" y="264.103" xlink:href="#dot"  stroke="#00ebff" />
    <use x="173.413" y="231.344" xlink:href="#dot"  stroke="#ffe100" />
    <use x="174.142" y="220.01" xlink:href="#dot"  stroke="#ff0000" />
    <use x="167" y="258.696" xlink:href="#dot"  stroke="#00ebff" />
    <use x="192.533" y="216.531" xlink:href="#dot"  stroke="#ffe100" />
    <use x="193.565" y="205.404" xlink:href="#dot"  stroke="#ff0000" />
    <use x="180.828" y="242.245" xlink:href="#dot"  stroke="#00ebff" />
    <use x="188.891" y="213.957" xlink:href="#dot"  stroke="#00ebff" />
    <use x="122.795" y="62.516" xlink:href="#dot"  stroke="#ffe100" />
    <use x="134.466" y="53.396" xlink:href="#dot"  stroke="#ff0000" />
    <use x="124.963" y="74.299" xlink:href="#dot"  stroke="#00ebff" />
    <use x="131.292" y="99.724" xlink:href="#dot"  stroke="#ffe100" />
    <use x="137.839" y="93.513" xlink:href="#dot"  stroke="#ff0000" />
    <use x="140.913" y="107.876" xlink:href="#dot"  stroke="#00ebff" />
    <use x="120.322" y="127.366" xlink:href="#dot"  stroke="#ffe100" />
    <use x="123.069" y="122.556" xlink:href="#dot"  stroke="#ff0000" />
    <use x="134.392" y="135.173" xlink:href="#dot"  stroke="#00ebff" />
    <use x="113.441" y="149.655" xlink:href="#dot"  stroke="#ffe100" />
    <use x="113.935" y="145.483" xlink:href="#dot"  stroke="#ff0000" />
    <use x="128.058" y="158.382" xlink:href="#dot"  stroke="#00ebff" />
    <use x="117.576" y="166.318" xlink:href="#dot"  stroke="#ffe100" />
    <use x="117.134" y="162.404" xlink:href="#dot"  stroke="#ff0000" />
    <use x="129.332" y="176.215" xlink:href="#dot"  stroke="#00ebff" />
    <use x="131.269" y="176.529" xlink:href="#dot"  stroke="#ffe100" />
    <use x="130.814" y="172.699" xlink:href="#dot"  stroke="#ff0000" />
    <use x="137.761" y="187.309" xlink:href="#dot"  stroke="#00ebff" />
    <use x="150" y="179.948" xlink:href="#dot"  stroke="#ffe100" />
    <use x="150" y="176.136" xlink:href="#dot"  stroke="#ff0000" />
    <use x="150" y="191.05" xlink:href="#dot"  stroke="#00ebff" />
    <use x="168.731" y="176.529" xlink:href="#dot"  stroke="#ffe100" />
    <use x="169.186" y="172.699" xlink:href="#dot"  stroke="#ff0000" />
    <use x="162.239" y="187.309" xlink:href="#dot"  stroke="#00ebff" />
    <use x="182.424" y="166.318" xlink:href="#dot"  stroke="#ffe100" />
    <use x="182.866" y="162.404" xlink:href="#dot"  stroke="#ff0000" />
    <use x="170.668" y="176.215" xlink:href="#dot"  stroke="#00ebff" />
    <use x="186.559" y="149.655" xlink:href="#dot"  stroke="#ffe100" />
    <use x="186.065" y="145.483" xlink:href="#dot"  stroke="#ff0000" />
    <use x="171.942" y="158.382" xlink:href="#dot"  stroke="#00ebff" />
    <use x="179.678" y="127.366" xlink:href="#dot"  stroke="#ffe100" />
    <use x="176.931" y="122.556" xlink:href="#dot"  stroke="#ff0000" />
    <use x="165.608" y="135.173" xlink:href="#dot"  stroke="#00ebff" />
    <use x="168.708" y="99.724" xlink:href="#dot"  stroke="#ffe100" />
    <use x="162.161" y="93.513" xlink:href="#dot"  stroke="#ff0000" />
    <use x="159.087" y="107.876" xlink:href="#dot"  stroke="#00ebff" />
    <use x="177.205" y="62.516" xlink:href="#dot"  stroke="#ffe100" />
    <use x="165.534" y="53.396" xlink:href="#dot"  stroke="#ff0000" />
    <use x="175.037" y="74.299" xlink:href="#dot"  stroke="#00ebff" />
    <use x="109.88" y="104.096" xlink:href="#dot"  stroke="#ffe100" />
    <use x="134.11" y="85.303" xlink:href="#dot"  stroke="#ff0000" />
    <use x="90.714" y="133.231" xlink:href="#dot"  stroke="#00ebff" />
    <use x="163.651" y="112.112" xlink:href="#dot"  stroke="#ffe100" />
    <use x="178.94" y="100.429" xlink:href="#dot"  stroke="#ff0000" />
    <use x="160.068" y="128.142" xlink:href="#dot"  stroke="#00ebff" />
    <use x="156.035" y="122.789" xlink:href="#dot"  stroke="#ffe100" />
    <use x="164.558" y="115.18" xlink:href="#dot"  stroke="#ff0000" />
    <use x="163.555" y="132.557" xlink:href="#dot"  stroke="#00ebff" />
    <use x="138.881" y="134.733" xlink:href="#dot"  stroke="#ffe100" />
    <use x="142.813" y="129.567" xlink:href="#dot"  stroke="#ff0000" />
    <use x="152.242" y="141.589" xlink:href="#dot"  stroke="#00ebff" />
    <use x="127.769" y="147.712" xlink:href="#dot"  stroke="#ffe100" />
    <use x="129.002" y="144.024" xlink:href="#dot"  stroke="#ff0000" />
    <use x="142.196" y="153.348" xlink:href="#dot"  stroke="#00ebff" />
    <use x="127.323" y="159.154" xlink:href="#dot"  stroke="#ffe100" />
    <use x="127.323" y="156.333" xlink:href="#dot"  stroke="#ff0000" />
    <use x="139.062" y="164.386" xlink:href="#dot"  stroke="#00ebff" />
    <use x="136.143" y="166.761" xlink:href="#dot"  stroke="#ffe100" />
    <use x="135.896" y="164.39" xlink:href="#dot"  stroke="#ff0000" />
    <use x="142.651" y="171.916" xlink:href="#dot"  stroke="#00ebff" />
    <use x="150" y="169.393" xlink:href="#dot"  stroke="#ffe100" />
    <use x="150" y="167.162" xlink:href="#dot"  stroke="#ff0000" />
    <use x="150" y="174.549" xlink:href="#dot"  stroke="#00ebff" />
    <use x="163.857" y="166.761" xlink:href="#dot"  stroke="#ffe100" />
    <use x="164.104" y="164.39" xlink:href="#dot"  stroke="#ff0000" />
    <use x="157.349" y="171.916" xlink:href="#dot"  stroke="#00ebff" />
    <use x="172.677" y="159.154" xlink:href="#dot"  stroke="#ffe100" />
    <use x="172.677" y="156.333" xlink:href="#dot"  stroke="#ff0000" />
    <use x="160.938" y="164.386" xlink:href="#dot"  stroke="#00ebff" />
    <use x="172.231" y="147.712" xlink:href="#dot"  stroke="#ffe100" />
    <use x="170.998" y="144.024" xlink:href="#dot"  stroke="#ff0000" />
    <use x="157.804" y="153.348" xlink:href="#dot"  stroke="#00ebff" />
    <use x="161.119" y="134.733" xlink:href="#dot"  stroke="#ffe100" />
    <use x="157.187" y="129.567" xlink:href="#dot"  stroke="#ff0000" />
    <use x="147.758" y="141.589" xlink:href="#dot"  stroke="#00ebff" />
    <use x="143.965" y="122.789" xlink:href="#dot"  stroke="#ffe100" />
    <use x="135.442" y="115.18" xlink:href="#dot"  stroke="#ff0000" />
    <use x="136.445" y="132.557" xlink:href="#dot"  stroke="#00ebff" />
    <use x="136.349" y="112.112" xlink:href="#dot"  stroke="#ffe100" />
    <use x="121.06" y="100.429" xlink:href="#dot"  stroke="#ff0000" />
    <use x="139.932" y="128.142" xlink:href="#dot"  stroke="#00ebff" />
    <use x="190.12" y="104.096" xlink:href="#dot"  stroke="#ffe100" />
    <use x="165.89" y="85.303" xlink:href="#dot"  stroke="#ff0000" />
    <use x="209.286" y="133.231" xlink:href="#dot"  stroke="#00ebff" />
    <use x="103.183" y="183.353" xlink:href="#dot"  stroke="#ffe100" />
    <use x="134.552" y="153.31" xlink:href="#dot"  stroke="#ff0000" />
    <use x="69.638" y="235.074" xlink:href="#dot"  stroke="#00ebff" />
    <use x="177.267" y="150.313" xlink:href="#dot"  stroke="#ffe100" />
    <use x="196.18" y="130.564" xlink:href="#dot"  stroke="#ff0000" />
    <use x="167.391" y="181.67" xlink:href="#dot"  stroke="#00ebff" />
    <use x="167.474" y="148.369" xlink:href="#dot"  stroke="#ffe100" />
    <use x="178.117" y="134.779" xlink:href="#dot"  stroke="#ff0000" />
    <use x="171.86" y="168.48" xlink:href="#dot"  stroke="#00ebff" />
    <use x="149.43" y="150.382" xlink:href="#dot"  stroke="#ffe100" />
    <use x="154.708" y="140.723" xlink:href="#dot"  stroke="#ff0000" />
    <use x="161.074" y="163.918" xlink:href="#dot"  stroke="#00ebff" />
    <use x="137.242" y="155.171" xlink:href="#dot"  stroke="#ffe100" />
    <use x="139.345" y="148.057" xlink:href="#dot"  stroke="#ff0000" />
    <use x="150.678" y="164.816" xlink:href="#dot"  stroke="#00ebff" />
    <use x="134.37" y="160.977" xlink:href="#dot"  stroke="#ffe100" />
    <use x="134.899" y="155.457" xlink:href="#dot"  stroke="#ff0000" />
    <use x="145.549" y="168.387" xlink:href="#dot"  stroke="#00ebff" />
    <use x="139.828" y="165.457" xlink:href="#dot"  stroke="#ffe100" />
    <use x="139.833" y="160.812" xlink:href="#dot"  stroke="#ff0000" />
    <use x="146.08" y="171.719" xlink:href="#dot"  stroke="#00ebff" />
    <use x="150" y="167.105" xlink:href="#dot"  stroke="#ffe100" />
    <use x="150" y="162.739" xlink:href="#dot"  stroke="#ff0000" />
    <use x="150" y="173.014" xlink:href="#dot"  stroke="#00ebff" />
    <use x="160.172" y="165.457" xlink:href="#dot"  stroke="#ffe100" />
    <use x="160.167" y="160.812" xlink:href="#dot"  stroke="#ff0000" />
    <use x="153.92" y="171.719" xlink:href="#dot"  stroke="#00ebff" />
    <use x="165.63" y="160.977" xlink:href="#dot"  stroke="#ffe100" />
    <use x="165.101" y="155.457" xlink:href="#dot"  stroke="#ff0000" />
    <use x="154.451" y="168.387" xlink:href="#dot"  stroke="#00ebff" />
    <use x="162.758" y="155.171" xlink:href="#dot"  stroke="#ffe100" />
    <use x="160.655" y="148.057" xlink:href="#dot"  stroke="#ff0000" />
    <use x="149.322" y="164.816" xlink:href="#dot"  stroke="#00ebff" />
    <use x="150.57" y="150.382" xlink:href="#dot"  stroke="#ffe100" />
    <use x="145.292" y="140.723" xlink:href="#dot"  stroke="#ff0000" />
    <use x="138.926" y="163.918" xlink:href="#dot"  stroke="#00ebff" />
    <use x="132.526" y="148.369" xlink:href="#dot"  stroke="#ffe100" />
    <use x="121.883" y="134.779" xlink:href="#dot"  stroke="#ff0000" />
    <use x="128.14" y="168.48" xlink:href="#dot"  stroke="#00ebff" />
    <use x="122.733" y="150.313" xlink:href="#dot"  stroke="#ffe100" />
    <use x="103.82" y="130.564" xlink:href="#dot"  stroke="#ff0000" />
    <use x="132.609" y="181.67" xlink:href="#dot"  stroke="#00ebff" />
    <use x="196.817" y="183.353" xlink:href="#dot"  stroke="#ffe100" />
    <use x="165.448" y="153.31" xlink:href="#dot"  stroke="#ff0000" />
    <use x="230.362" y="235.074" xlink:href="#dot"  stroke="#00ebff" />
    <use x="168.16" y="173.926" xlink:href="#dot"  stroke="#ffe100" />
    <use x="192.08" y="141.183" xlink:href="#dot"  stroke="#ff0000" />
    <use x="148.189" y="230.768" xlink:href="#dot"  stroke="#00ebff" />
    <use x="170.555" y="163.326" xlink:href="#dot"  stroke="#ffe100" />
    <use x="184.145" y="139.965" xlink:href="#dot"  stroke="#ff0000" />
    <use x="169.298" y="201.344" xlink:href="#dot"  stroke="#00ebff" />
    <use x="152.923" y="163.03" xlink:href="#dot"  stroke="#ffe100" />
    <use x="160.09" y="145.63" xlink:href="#dot"  stroke="#ff0000" />
    <use x="161.088" y="189.604" xlink:href="#dot"  stroke="#00ebff" />
    <use x="140.863" y="162.825" xlink:href="#dot"  stroke="#ffe100" />
    <use x="144.196" y="149.326" xlink:href="#dot"  stroke="#ff0000" />
    <use x="152.095" y="182.218" xlink:href="#dot"  stroke="#00ebff" />
    <use x="137.452" y="163.507" xlink:href="#dot"  stroke="#ffe100" />
    <use x="138.732" y="152.483" xlink:href="#dot"  stroke="#ff0000" />
    <use x="147.309" y="178.505" xlink:href="#dot"  stroke="#00ebff" />
    <use x="141.57" y="164.57" xlink:href="#dot"  stroke="#ffe100" />
    <use x="141.932" y="154.923" xlink:href="#dot"  stroke="#ff0000" />
    <use x="147.198" y="177.187" xlink:href="#dot"  stroke="#00ebff" />
    <use x="150" y="165.056" xlink:href="#dot"  stroke="#ffe100" />
    <use x="150" y="155.853" xlink:href="#dot"  stroke="#ff0000" />
    <use x="150" y="176.92" xlink:href="#dot"  stroke="#00ebff" />
    <use x="158.43" y="164.57" xlink:href="#dot"  stroke="#ffe100" />
    <use x="158.068" y="154.923" xlink:href="#dot"  stroke="#ff0000" />
    <use x="152.802" y="177.187" xlink:href="#dot"  stroke="#00ebff" />
    <use x="162.548" y="163.507" xlink:href="#dot"  stroke="#ffe100" />
    <use x="161.268" y="152.483" xlink:href="#dot"  stroke="#ff0000" />
    <use x="152.691" y="178.505" xlink:href="#dot"  stroke="#00ebff" />
    <use x="159.137" y="162.825" xlink:href="#dot"  stroke="#ffe100" />
    <use x="155.804" y="149.326" xlink:href="#dot"  stroke="#ff0000" />
    <use x="147.905" y="182.218" xlink:href="#dot"  stroke="#00ebff" />
    <use x="147.077" y="163.03" xlink:href="#dot"  stroke="#ffe100" />
    <use x="139.91" y="145.63" xlink:href="#dot"  stroke="#ff0000" />
    <use x="138.912" y="189.604" xlink:href="#dot"  stroke="#00ebff" />
    <use x="129.445" y="163.326" xlink:href="#dot"  stroke="#ffe100" />
    <use x="115.855" y="139.965" xlink:href="#dot"  stroke="#ff0000" />
    <use x="130.702" y="201.344" xlink:href="#dot"  stroke="#00ebff" />
    <use x="131.84" y="173.926" xlink:href="#dot"  stroke="#ffe100" />
    <use x="107.92" y="141.183" xlink:href="#dot"  stroke="#ff0000" />
    <use x="151.811" y="230.768" xlink:href="#dot"  stroke="#00ebff" />
    <use x="166.801" y="153.452" xlink:href="#dot"  stroke="#ffe100" />
    <use x="184.829" y="116.003" xlink:href="#dot"  stroke="#ff0000" />
    <use x="156.021" y="218.651" xlink:href="#dot"  stroke="#00ebff" />
    <use x="153.92" y="158.901" xlink:href="#dot"  stroke="#ffe100" />
    <use x="163.846" y="130.416" xlink:href="#dot"  stroke="#ff0000" />
    <use x="156.234" y="205.645" xlink:href="#dot"  stroke="#00ebff" />
    <use x="141.134" y="163.455" xlink:href="#dot"  stroke="#ffe100" />
    <use x="146.235" y="140.706" xlink:href="#dot"  stroke="#ff0000" />
    <use x="148.649" y="198.676" xlink:href="#dot"  stroke="#00ebff" />
    <use x="137.545" y="164.263" xlink:href="#dot"  stroke="#ffe100" />
    <use x="139.894" y="145.127" xlink:href="#dot"  stroke="#ff0000" />
    <use x="145.166" y="192.376" xlink:href="#dot"  stroke="#00ebff" />
    <use x="141.653" y="164.054" xlink:href="#dot"  stroke="#ffe100" />
    <use x="142.523" y="146.926" xlink:href="#dot"  stroke="#ff0000" />
    <use x="146.226" y="188.277" xlink:href="#dot"  stroke="#00ebff" />
    <use x="150" y="163.922" xlink:href="#dot"  stroke="#ffe100" />
    <use x="150" y="147.439" xlink:href="#dot"  stroke="#ff0000" />
    <use x="150" y="186.905" xlink:href="#dot"  stroke="#00ebff" />
    <use x="158.347" y="164.054" xlink:href="#dot"  stroke="#ffe100" />
    <use x="157.477" y="146.926" xlink:href="#dot"  stroke="#ff0000" />
    <use x="153.774" y="188.277" xlink:href="#dot"  stroke="#00ebff" />
    <use x="162.455" y="164.263" xlink:href="#dot"  stroke="#ffe100" />
    <use x="160.106" y="145.127" xlink:href="#dot"  stroke="#ff0000" />
    <use x="154.834" y="192.376" xlink:href="#dot"  stroke="#00ebff" />
    <use x="158.866" y="163.455" xlink:href="#dot"  stroke="#ffe100" />
    <use x="153.765" y="140.706" xlink:href="#dot"  stroke="#ff0000" />
    <use x="151.351" y="198.676" xlink:href="#dot"  stroke="#00ebff" />
    <use x="146.08" y="158.901" xlink:href="#dot"  stroke="#ffe100" />
    <use x="136.154" y="130.416" xlink:href="#dot"  stroke="#ff0000" />
    <use x="143.766" y="205.645" xlink:href="#dot"  stroke="#00ebff" />
    <use x="133.199" y="153.452" xlink:href="#dot"  stroke="#ffe100" />
    <use x="115.171" y="116.003" xlink:href="#dot"  stroke="#ff0000" />
    <use x="143.979" y="218.651" xlink:href="#dot"  stroke="#00ebff" />
    <use x="155.146" y="116.857" xlink:href="#dot"  stroke="#ffe100" />
    <use x="169.176" y="72.85" xlink:href="#dot"  stroke="#ff0000" />
    <use x="148.264" y="193.696" xlink:href="#dot"  stroke="#00ebff" />
    <use x="143.501" y="135.805" xlink:href="#dot"  stroke="#ffe100" />
    <use x="151.125" y="100.342" xlink:href="#dot"  stroke="#ff0000" />
    <use x="145.369" y="194.641" xlink:href="#dot"  stroke="#00ebff" />
    <use x="138.128" y="148.114" xlink:href="#dot"  stroke="#ffe100" />
    <use x="141.971" y="117.878" xlink:href="#dot"  stroke="#ff0000" />
    <use x="142.411" y="196.09" xlink:href="#dot"  stroke="#00ebff" />
    <use x="141.613" y="153.143" xlink:href="#dot"  stroke="#ffe100" />
    <use x="143.182" y="125.773" xlink:href="#dot"  stroke="#ff0000" />
    <use x="144.622" y="195.223" xlink:href="#dot"  stroke="#00ebff" />
    <use x="150" y="154.396" xlink:href="#dot"  stroke="#ffe100" />
    <use x="150" y="127.942" xlink:href="#dot"  stroke="#ff0000" />
    <use x="150" y="194.6" xlink:href="#dot"  stroke="#00ebff" />
    <use x="158.387" y="153.143" xlink:href="#dot"  stroke="#ffe100" />
    <use x="156.818" y="125.773" xlink:href="#dot"  stroke="#ff0000" />
    <use x="155.378" y="195.223" xlink:href="#dot"  stroke="#00ebff" />
    <use x="161.872" y="148.114" xlink:href="#dot"  stroke="#ffe100" />
    <use x="158.029" y="117.878" xlink:href="#dot"  stroke="#ff0000" />
    <use x="157.589" y="196.09" xlink:href="#dot"  stroke="#00ebff" />
    <use x="156.499" y="135.805" xlink:href="#dot"  stroke="#ffe100" />
    <use x="148.875" y="100.342" xlink:href="#dot"  stroke="#ff0000" />
    <use x="154.631" y="194.641" xlink:href="#dot"  stroke="#00ebff" />
    <use x="144.854" y="116.857" xlink:href="#dot"  stroke="#ffe100" />
    <use x="130.824" y="72.85" xlink:href="#dot"  stroke="#ff0000" />
    <use x="151.736" y="193.696" xlink:href="#dot"  stroke="#00ebff" />
    <use x="143.076" y="81.307" xlink:href="#dot"  stroke="#ffe100" />
    <use x="149.019" y="35.897" xlink:href="#dot"  stroke="#ff0000" />
    <use x="142.547" y="158.511" xlink:href="#dot"  stroke="#00ebff" />
    <use x="143.782" y="99.496" xlink:href="#dot"  stroke="#ffe100" />
    <use x="146.315" y="58.276" xlink:href="#dot"  stroke="#ff0000" />
    <use x="144.58" y="167.772" xlink:href="#dot"  stroke="#00ebff" />
    <use x="150" y="105.249" xlink:href="#dot"  stroke="#ffe100" />
    <use x="150" y="65.351" xlink:href="#dot"  stroke="#ff0000" />
    <use x="150" y="170.72" xlink:href="#dot"  stroke="#00ebff" />
    <use x="156.218" y="99.496" xlink:href="#dot"  stroke="#ffe100" />
    <use x="153.685" y="58.276" xlink:href="#dot"  stroke="#ff0000" />
    <use x="155.42" y="167.772" xlink:href="#dot"  stroke="#00ebff" />
    <use x="156.924" y="81.307" xlink:href="#dot"  stroke="#ffe100" />
    <use x="150.981" y="35.897" xlink:href="#dot"  stroke="#ff0000" />
    <use x="157.453" y="158.511" xlink:href="#dot"  stroke="#00ebff" />
</svg>
