<?xml version="1.0" standalone="no"?>
<svg width="300px" height="300px" version="1.1" xmlns="http://www.w3.org/2000/svg" xmlns:xlink="http://www.w3.org/1999/xlink">
    <rect x="0" y="0" width="300" height="300"  fill="#000000" />
    <defs>
        <g id="dot">
            <line x1="1" y1="1" x2="0" y2="0"  />
        </g>
        <g id="cross">
            <line x1="-3" y1="0" x2="3" y2="0"  />
            <line x1="0" y1="-3" x2="0" y2="3"  />
        </g>
        <g id="square">
            <line x1="-3" y1="-3" x2="-3" y2="3"  />
            <line x1="-3" y1="3" x2="3" y2="3"  />
            <line x1="3" y1="3" x2="3" y2="-3"  />
            <line x1="3" y1="-3" x2="-3" y2="-3"  />
        </g>
        <g id="round">
            <ellipse cx="0" cy="0" rx="3" ry="3"  fill="none" /></g>
        <g id="triangle">
            <line x1="0" y1="-3" x2="-3" y2="3"  />
            <line x1="-3" y1="3" x2="3" y2="3"  />
            <line x1="0" y1="-3" x2="3" y2="3"  />
        </g>
    </defs>
    <polygon fill="none" stroke="#ffffff" points="30.952,269.048 30.952,30.952 269.048,30.952 269.048,269.048 " />
    <text style="font-size:12;text-align:center;text-anchor:middle;" x="150" y="298.262" fill="#ffffff">Sagittal distance (um)</text>
    <use x="70.635" y="30.952" xlink:href="#cross"  stroke="#ffffff" />
    <use x="70.635" y="269.048" xlink:href="#cross"  stroke="#ffffff" />
    <text style="font-size:12;text-align:center;text-anchor:middle;" x="70.635" y="287.048" fill="#ffffff">-21</text>
    <use x="150" y="30.952" xlink:href="#cross"  stroke="#ffffff" />
    <use x="150" y="269.048" xlink:href="#cross"  stroke="#ffffff" />
    <text style="font-size:12;text-align:center;text-anchor:middle;" x="150" y="287.048" fill="#ffffff">0</text>
    <use x="229.365" y="30.952" xlink:href="#cross"  stroke="#ffffff" />
    <use x="229.365" y="269.048" xlink:href="#cross"  stroke="#ffffff" />
    <text style="font-size:12;text-align:center;text-anchor:middle;" x="229.365" y="287.048" fill="#ffffff">21</text>
    <text style="font-size:12;text-align:center;text-anchor:middle;" x="7.738" y="156" transform="rotate(-90,7.738,150)" fill="#ffffff">Tangential distance (um)</text>
    <use x="269.048" y="223.951" xlink:href="#cross"  stroke="#ffffff" />
    <use x="30.952" y="223.951" xlink:href="#cross"  stroke="#ffffff" />
    <text style="font-size:12;text-align:right;text-anchor:end;" x="24.952" y="229.951" fill="#ffffff">-21</text>
    <use x="269.048" y="144.586" xlink:href="#cross"  stroke="#ffffff" />
    <use x="30.952" y="144.586" xlink:href="#cross"  stroke="#ffffff" />
    <text style="font-size:12;text-align:right;text-anchor:end;" x="24.952" y="150.586" fill="#ffffff">0</text>
    <use x="269.048" y="65.221" xlink:href="#cross"  stroke="#ffffff" />
    <use x="30.952" y="65.221" xlink:href="#cross"  stroke="#ffffff" />
    <text style="font-size:12;text-align:right;text-anchor:end;" x="24.952" y="71.221" fill="#ffffff">21</text>
    <use x="147.914" y="226.218" xlink:href="#dot"  stroke="#00ebff" />
    <use x="135.131" y="226.287" xlink:href="#dot"  stroke="#ffe100" />
    <use x="134.158" y="217.294" xlink:href="#dot"  stroke="#ff0000" />
    <use x="144.324" y="247.304" xlink:href="#dot"  stroke="#00ebff" />
    <use x="140.791" y="237.389" xlink:href="#dot"  stroke="#ffe100" />
    <use x="140.15" y="228.251" xlink:href="#dot"  stroke="#ff0000" />
    <use x="145.795" y="259.591" xlink:href="#dot"  stroke="#00ebff" />
    <use x="150" y="241.005" xlink:href="#dot"  stroke="#ffe100" />
    <use x="150" y="231.808" xlink:href="#dot"  stroke="#ff0000" />
    <use x="150" y="263.634" xlink:href="#dot"  stroke="#00ebff" />
    <use x="159.209" y="237.389" xlink:href="#dot"  stroke="#ffe100" />
    <use x="159.85" y="228.251" xlink:href="#dot"  stroke="#ff0000" />
    <use x="154.205" y="259.591" xlink:href="#dot"  stroke="#00ebff" />
    <use x="164.869" y="226.287" xlink:href="#dot"  stroke="#ffe100" />
    <use x="165.842" y="217.294" xlink:href="#dot"  stroke="#ff0000" />
    <use x="155.676" y="247.304" xlink:href="#dot"  stroke="#00ebff" />
    <use x="152.086" y="226.218" xlink:href="#dot"  stroke="#00ebff" />
    <use x="186.088" y="96.141" xlink:href="#dot"  stroke="#ffe100" />
    <use x="194.027" y="88.822" xlink:href="#dot"  stroke="#ff0000" />
    <use x="189.463" y="106.356" xlink:href="#dot"  stroke="#00ebff" />
    <use x="180.664" y="123.566" xlink:href="#dot"  stroke="#ffe100" />
    <use x="184.973" y="118.422" xlink:href="#dot"  stroke="#ff0000" />
    <use x="189.138" y="131.035" xlink:href="#dot"  stroke="#00ebff" />
    <use x="161.795" y="144.566" xlink:href="#dot"  stroke="#ffe100" />
    <use x="163.43" y="140.474" xlink:href="#dot"  stroke="#ff0000" />
    <use x="173.212" y="151.733" xlink:href="#dot"  stroke="#00ebff" />
    <use x="147.116" y="161.729" xlink:href="#dot"  stroke="#ffe100" />
    <use x="147.202" y="158.121" xlink:href="#dot"  stroke="#ff0000" />
    <use x="158.642" y="169.543" xlink:href="#dot"  stroke="#00ebff" />
    <use x="141.565" y="174.622" xlink:href="#dot"  stroke="#ffe100" />
    <use x="141.06" y="171.214" xlink:href="#dot"  stroke="#ff0000" />
    <use x="150.717" y="183.279" xlink:href="#dot"  stroke="#00ebff" />
    <use x="143.753" y="182.538" xlink:href="#dot"  stroke="#ffe100" />
    <use x="143.329" y="179.198" xlink:href="#dot"  stroke="#ff0000" />
    <use x="148.777" y="191.835" xlink:href="#dot"  stroke="#00ebff" />
    <use x="150" y="185.191" xlink:href="#dot"  stroke="#ffe100" />
    <use x="150" y="181.865" xlink:href="#dot"  stroke="#ff0000" />
    <use x="150" y="194.721" xlink:href="#dot"  stroke="#00ebff" />
    <use x="156.247" y="182.538" xlink:href="#dot"  stroke="#ffe100" />
    <use x="156.671" y="179.198" xlink:href="#dot"  stroke="#ff0000" />
    <use x="151.223" y="191.835" xlink:href="#dot"  stroke="#00ebff" />
    <use x="158.435" y="174.622" xlink:href="#dot"  stroke="#ffe100" />
    <use x="158.94" y="171.214" xlink:href="#dot"  stroke="#ff0000" />
    <use x="149.283" y="183.279" xlink:href="#dot"  stroke="#00ebff" />
    <use x="152.884" y="161.729" xlink:href="#dot"  stroke="#ffe100" />
    <use x="152.798" y="158.121" xlink:href="#dot"  stroke="#ff0000" />
    <use x="141.358" y="169.543" xlink:href="#dot"  stroke="#00ebff" />
    <use x="138.205" y="144.566" xlink:href="#dot"  stroke="#ffe100" />
    <use x="136.57" y="140.474" xlink:href="#dot"  stroke="#ff0000" />
    <use x="126.788" y="151.733" xlink:href="#dot"  stroke="#00ebff" />
    <use x="119.336" y="123.566" xlink:href="#dot"  stroke="#ffe100" />
    <use x="115.027" y="118.422" xlink:href="#dot"  stroke="#ff0000" />
    <use x="110.862" y="131.035" xlink:href="#dot"  stroke="#00ebff" />
    <use x="113.912" y="96.141" xlink:href="#dot"  stroke="#ffe100" />
    <use x="105.973" y="88.822" xlink:href="#dot"  stroke="#ff0000" />
    <use x="110.537" y="106.356" xlink:href="#dot"  stroke="#00ebff" />
    <use x="179.312" y="117.463" xlink:href="#dot"  stroke="#ffe100" />
    <use x="196.482" y="103.159" xlink:href="#dot"  stroke="#ff0000" />
    <use x="167.056" y="140.053" xlink:href="#dot"  stroke="#00ebff" />
    <use x="211.422" y="120.244" xlink:href="#dot"  stroke="#ffe100" />
    <use x="222.123" y="111.233" xlink:href="#dot"  stroke="#ff0000" />
    <use x="210.317" y="133.059" xlink:href="#dot"  stroke="#00ebff" />
    <use x="196.031" y="127.72" xlink:href="#dot"  stroke="#ffe100" />
    <use x="201.865" y="121.739" xlink:href="#dot"  stroke="#ff0000" />
    <use x="202.787" y="135.862" xlink:href="#dot"  stroke="#00ebff" />
    <use x="173.676" y="137.164" xlink:href="#dot"  stroke="#ffe100" />
    <use x="176.234" y="133" xlink:href="#dot"  stroke="#ff0000" />
    <use x="184.448" y="143.126" xlink:href="#dot"  stroke="#00ebff" />
    <use x="156.536" y="147.621" xlink:href="#dot"  stroke="#ffe100" />
    <use x="157.199" y="144.556" xlink:href="#dot"  stroke="#ff0000" />
    <use x="167.837" y="152.665" xlink:href="#dot"  stroke="#00ebff" />
    <use x="148.063" y="156.834" xlink:href="#dot"  stroke="#ffe100" />
    <use x="147.903" y="154.414" xlink:href="#dot"  stroke="#ff0000" />
    <use x="157.148" y="161.568" xlink:href="#dot"  stroke="#00ebff" />
    <use x="147.019" y="162.949" xlink:href="#dot"  stroke="#ffe100" />
    <use x="146.759" y="160.865" xlink:href="#dot"  stroke="#ff0000" />
    <use x="152.029" y="167.62" xlink:href="#dot"  stroke="#00ebff" />
    <use x="150" y="165.064" xlink:href="#dot"  stroke="#ffe100" />
    <use x="150" y="163.084" xlink:href="#dot"  stroke="#ff0000" />
    <use x="150" y="169.734" xlink:href="#dot"  stroke="#00ebff" />
    <use x="152.981" y="162.949" xlink:href="#dot"  stroke="#ffe100" />
    <use x="153.241" y="160.865" xlink:href="#dot"  stroke="#ff0000" />
    <use x="147.971" y="167.62" xlink:href="#dot"  stroke="#00ebff" />
    <use x="151.937" y="156.834" xlink:href="#dot"  stroke="#ffe100" />
    <use x="152.097" y="154.414" xlink:href="#dot"  stroke="#ff0000" />
    <use x="142.852" y="161.568" xlink:href="#dot"  stroke="#00ebff" />
    <use x="143.464" y="147.621" xlink:href="#dot"  stroke="#ffe100" />
    <use x="142.801" y="144.556" xlink:href="#dot"  stroke="#ff0000" />
    <use x="132.163" y="152.665" xlink:href="#dot"  stroke="#00ebff" />
    <use x="126.324" y="137.164" xlink:href="#dot"  stroke="#ffe100" />
    <use x="123.766" y="133" xlink:href="#dot"  stroke="#ff0000" />
    <use x="115.552" y="143.126" xlink:href="#dot"  stroke="#00ebff" />
    <use x="103.969" y="127.72" xlink:href="#dot"  stroke="#ffe100" />
    <use x="98.135" y="121.739" xlink:href="#dot"  stroke="#ff0000" />
    <use x="97.213" y="135.862" xlink:href="#dot"  stroke="#00ebff" />
    <use x="88.578" y="120.244" xlink:href="#dot"  stroke="#ffe100" />
    <use x="77.877" y="111.233" xlink:href="#dot"  stroke="#ff0000" />
    <use x="89.683" y="133.059" xlink:href="#dot"  stroke="#00ebff" />
    <use x="120.688" y="117.463" xlink:href="#dot"  stroke="#ffe100" />
    <use x="103.518" y="103.159" xlink:href="#dot"  stroke="#ff0000" />
    <use x="132.944" y="140.053" xlink:href="#dot"  stroke="#00ebff" />
    <use x="164.293" y="170.891" xlink:href="#dot"  stroke="#ffe100" />
    <use x="186.859" y="148.388" xlink:href="#dot"  stroke="#ff0000" />
    <use x="141.106" y="209.853" xlink:href="#dot"  stroke="#00ebff" />
    <use x="216.253" y="139.854" xlink:href="#dot"  stroke="#ffe100" />
    <use x="229.706" y="125.017" xlink:href="#dot"  stroke="#ff0000" />
    <use x="210.31" y="163.632" xlink:href="#dot"  stroke="#00ebff" />
    <use x="201.646" y="136.506" xlink:href="#dot"  stroke="#ffe100" />
    <use x="209.097" y="126.244" xlink:href="#dot"  stroke="#ff0000" />
    <use x="205.96" y="151.92" xlink:href="#dot"  stroke="#00ebff" />
    <use x="179.859" y="138.028" xlink:href="#dot"  stroke="#ffe100" />
    <use x="183.444" y="130.681" xlink:href="#dot"  stroke="#ff0000" />
    <use x="189.274" y="148.559" xlink:href="#dot"  stroke="#00ebff" />
    <use x="162.594" y="142.252" xlink:href="#dot"  stroke="#ffe100" />
    <use x="163.923" y="136.791" xlink:href="#dot"  stroke="#ff0000" />
    <use x="173.102" y="149.899" xlink:href="#dot"  stroke="#00ebff" />
    <use x="152.736" y="147.281" xlink:href="#dot"  stroke="#ffe100" />
    <use x="152.983" y="143" xlink:href="#dot"  stroke="#ff0000" />
    <use x="161.37" y="153.271" xlink:href="#dot"  stroke="#00ebff" />
    <use x="149.499" y="151.109" xlink:href="#dot"  stroke="#ffe100" />
    <use x="149.431" y="147.476" xlink:href="#dot"  stroke="#ff0000" />
    <use x="154.301" y="156.249" xlink:href="#dot"  stroke="#00ebff" />
    <use x="150" y="152.51" xlink:href="#dot"  stroke="#ffe100" />
    <use x="150" y="149.084" xlink:href="#dot"  stroke="#ff0000" />
    <use x="150" y="157.389" xlink:href="#dot"  stroke="#00ebff" />
    <use x="150.501" y="151.109" xlink:href="#dot"  stroke="#ffe100" />
    <use x="150.569" y="147.476" xlink:href="#dot"  stroke="#ff0000" />
    <use x="145.699" y="156.249" xlink:href="#dot"  stroke="#00ebff" />
    <use x="147.264" y="147.281" xlink:href="#dot"  stroke="#ffe100" />
    <use x="147.017" y="143" xlink:href="#dot"  stroke="#ff0000" />
    <use x="138.63" y="153.271" xlink:href="#dot"  stroke="#00ebff" />
    <use x="137.406" y="142.252" xlink:href="#dot"  stroke="#ffe100" />
    <use x="136.077" y="136.791" xlink:href="#dot"  stroke="#ff0000" />
    <use x="126.898" y="149.899" xlink:href="#dot"  stroke="#00ebff" />
    <use x="120.141" y="138.028" xlink:href="#dot"  stroke="#ffe100" />
    <use x="116.556" y="130.681" xlink:href="#dot"  stroke="#ff0000" />
    <use x="110.726" y="148.559" xlink:href="#dot"  stroke="#00ebff" />
    <use x="98.354" y="136.506" xlink:href="#dot"  stroke="#ffe100" />
    <use x="90.903" y="126.244" xlink:href="#dot"  stroke="#ff0000" />
    <use x="94.04" y="151.92" xlink:href="#dot"  stroke="#00ebff" />
    <use x="83.747" y="139.854" xlink:href="#dot"  stroke="#ffe100" />
    <use x="70.294" y="125.017" xlink:href="#dot"  stroke="#ff0000" />
    <use x="89.69" y="163.632" xlink:href="#dot"  stroke="#00ebff" />
    <use x="135.707" y="170.891" xlink:href="#dot"  stroke="#ffe100" />
    <use x="113.141" y="148.388" xlink:href="#dot"  stroke="#ff0000" />
    <use x="158.894" y="209.853" xlink:href="#dot"  stroke="#00ebff" />
    <use x="202.531" y="154.009" xlink:href="#dot"  stroke="#ffe100" />
    <use x="219.76" y="129.64" xlink:href="#dot"  stroke="#ff0000" />
    <use x="188.936" y="196.42" xlink:href="#dot"  stroke="#00ebff" />
    <use x="200.41" y="140.894" xlink:href="#dot"  stroke="#ffe100" />
    <use x="210.082" y="123.502" xlink:href="#dot"  stroke="#ff0000" />
    <use x="200.441" y="169.293" xlink:href="#dot"  stroke="#00ebff" />
    <use x="180.62" y="139.138" xlink:href="#dot"  stroke="#ffe100" />
    <use x="185.63" y="126.168" xlink:href="#dot"  stroke="#ff0000" />
    <use x="187.393" y="159.041" xlink:href="#dot"  stroke="#00ebff" />
    <use x="164.305" y="138.956" xlink:href="#dot"  stroke="#ffe100" />
    <use x="166.562" y="128.876" xlink:href="#dot"  stroke="#ff0000" />
    <use x="173.138" y="153.539" xlink:href="#dot"  stroke="#00ebff" />
    <use x="154.513" y="139.887" xlink:href="#dot"  stroke="#ffe100" />
    <use x="155.326" y="131.639" xlink:href="#dot"  stroke="#ff0000" />
    <use x="162.141" y="151.218" xlink:href="#dot"  stroke="#00ebff" />
    <use x="150.57" y="141.069" xlink:href="#dot"  stroke="#ffe100" />
    <use x="150.773" y="133.84" xlink:href="#dot"  stroke="#ff0000" />
    <use x="154.897" y="150.639" xlink:href="#dot"  stroke="#00ebff" />
    <use x="150" y="141.58" xlink:href="#dot"  stroke="#ffe100" />
    <use x="150" y="134.679" xlink:href="#dot"  stroke="#ff0000" />
    <use x="150" y="150.593" xlink:href="#dot"  stroke="#00ebff" />
    <use x="149.43" y="141.069" xlink:href="#dot"  stroke="#ffe100" />
    <use x="149.227" y="133.84" xlink:href="#dot"  stroke="#ff0000" />
    <use x="145.103" y="150.639" xlink:href="#dot"  stroke="#00ebff" />
    <use x="145.487" y="139.887" xlink:href="#dot"  stroke="#ffe100" />
    <use x="144.674" y="131.639" xlink:href="#dot"  stroke="#ff0000" />
    <use x="137.859" y="151.218" xlink:href="#dot"  stroke="#00ebff" />
    <use x="135.695" y="138.956" xlink:href="#dot"  stroke="#ffe100" />
    <use x="133.438" y="128.876" xlink:href="#dot"  stroke="#ff0000" />
    <use x="126.862" y="153.539" xlink:href="#dot"  stroke="#00ebff" />
    <use x="119.38" y="139.138" xlink:href="#dot"  stroke="#ffe100" />
    <use x="114.37" y="126.168" xlink:href="#dot"  stroke="#ff0000" />
    <use x="112.607" y="159.041" xlink:href="#dot"  stroke="#00ebff" />
    <use x="99.59" y="140.894" xlink:href="#dot"  stroke="#ffe100" />
    <use x="89.918" y="123.502" xlink:href="#dot"  stroke="#ff0000" />
    <use x="99.559" y="169.293" xlink:href="#dot"  stroke="#00ebff" />
    <use x="97.469" y="154.009" xlink:href="#dot"  stroke="#ffe100" />
    <use x="80.24" y="129.64" xlink:href="#dot"  stroke="#ff0000" />
    <use x="111.064" y="196.42" xlink:href="#dot"  stroke="#00ebff" />
    <use x="192.372" y="132.286" xlink:href="#dot"  stroke="#ffe100" />
    <use x="205.375" y="104.519" xlink:href="#dot"  stroke="#ff0000" />
    <use x="185.235" y="180.662" xlink:href="#dot"  stroke="#00ebff" />
    <use x="178.76" y="131.422" xlink:href="#dot"  stroke="#ffe100" />
    <use x="185.838" y="110.319" xlink:href="#dot"  stroke="#ff0000" />
    <use x="181.136" y="166.068" xlink:href="#dot"  stroke="#00ebff" />
    <use x="163.209" y="133.101" xlink:href="#dot"  stroke="#ffe100" />
    <use x="166.79" y="116.253" xlink:href="#dot"  stroke="#ff0000" />
    <use x="169.251" y="159.196" xlink:href="#dot"  stroke="#00ebff" />
    <use x="153.948" y="133.316" xlink:href="#dot"  stroke="#ffe100" />
    <use x="155.561" y="119.145" xlink:href="#dot"  stroke="#ff0000" />
    <use x="159.899" y="154.144" xlink:href="#dot"  stroke="#00ebff" />
    <use x="150.371" y="133.19" xlink:href="#dot"  stroke="#ffe100" />
    <use x="150.953" y="120.506" xlink:href="#dot"  stroke="#ff0000" />
    <use x="153.906" y="151.14" xlink:href="#dot"  stroke="#00ebff" />
    <use x="150" y="133.14" xlink:href="#dot"  stroke="#ffe100" />
    <use x="150" y="120.933" xlink:href="#dot"  stroke="#ff0000" />
    <use x="150" y="150.172" xlink:href="#dot"  stroke="#00ebff" />
    <use x="149.629" y="133.19" xlink:href="#dot"  stroke="#ffe100" />
    <use x="149.047" y="120.506" xlink:href="#dot"  stroke="#ff0000" />
    <use x="146.094" y="151.14" xlink:href="#dot"  stroke="#00ebff" />
    <use x="146.052" y="133.316" xlink:href="#dot"  stroke="#ffe100" />
    <use x="144.439" y="119.145" xlink:href="#dot"  stroke="#ff0000" />
    <use x="140.101" y="154.144" xlink:href="#dot"  stroke="#00ebff" />
    <use x="136.791" y="133.101" xlink:href="#dot"  stroke="#ffe100" />
    <use x="133.21" y="116.253" xlink:href="#dot"  stroke="#ff0000" />
    <use x="130.749" y="159.196" xlink:href="#dot"  stroke="#00ebff" />
    <use x="121.24" y="131.422" xlink:href="#dot"  stroke="#ffe100" />
    <use x="114.162" y="110.319" xlink:href="#dot"  stroke="#ff0000" />
    <use x="118.864" y="166.068" xlink:href="#dot"  stroke="#00ebff" />
    <use x="107.628" y="132.286" xlink:href="#dot"  stroke="#ffe100" />
    <use x="94.625" y="104.519" xlink:href="#dot"  stroke="#ff0000" />
    <use x="114.765" y="180.662" xlink:href="#dot"  stroke="#00ebff" />
    <use x="175.36" y="101.688" xlink:href="#dot"  stroke="#ffe100" />
    <use x="185.511" y="69.116" xlink:href="#dot"  stroke="#ff0000" />
    <use x="170.843" y="158.55" xlink:href="#dot"  stroke="#00ebff" />
    <use x="162.842" y="110.555" xlink:href="#dot"  stroke="#ffe100" />
    <use x="168.308" y="84.339" xlink:href="#dot"  stroke="#ff0000" />
    <use x="164.66" y="154.017" xlink:href="#dot"  stroke="#00ebff" />
    <use x="153.363" y="117.527" xlink:href="#dot"  stroke="#ffe100" />
    <use x="156.091" y="95.192" xlink:href="#dot"  stroke="#ff0000" />
    <use x="156.819" y="152.921" xlink:href="#dot"  stroke="#00ebff" />
    <use x="149.929" y="120.456" xlink:href="#dot"  stroke="#ffe100" />
    <use x="151.033" y="100.246" xlink:href="#dot"  stroke="#ff0000" />
    <use x="152.297" y="151.476" xlink:href="#dot"  stroke="#00ebff" />
    <use x="150" y="121.189" xlink:href="#dot"  stroke="#ffe100" />
    <use x="150" y="101.658" xlink:href="#dot"  stroke="#ff0000" />
    <use x="150" y="150.819" xlink:href="#dot"  stroke="#00ebff" />
    <use x="150.071" y="120.456" xlink:href="#dot"  stroke="#ffe100" />
    <use x="148.967" y="100.246" xlink:href="#dot"  stroke="#ff0000" />
    <use x="147.703" y="151.476" xlink:href="#dot"  stroke="#00ebff" />
    <use x="146.637" y="117.527" xlink:href="#dot"  stroke="#ffe100" />
    <use x="143.909" y="95.192" xlink:href="#dot"  stroke="#ff0000" />
    <use x="143.181" y="152.921" xlink:href="#dot"  stroke="#00ebff" />
    <use x="137.158" y="110.555" xlink:href="#dot"  stroke="#ffe100" />
    <use x="131.692" y="84.339" xlink:href="#dot"  stroke="#ff0000" />
    <use x="135.34" y="154.017" xlink:href="#dot"  stroke="#00ebff" />
    <use x="124.64" y="101.688" xlink:href="#dot"  stroke="#ffe100" />
    <use x="114.489" y="69.116" xlink:href="#dot"  stroke="#ff0000" />
    <use x="129.157" y="158.55" xlink:href="#dot"  stroke="#00ebff" />
    <use x="155.198" y="69.926" xlink:href="#dot"  stroke="#ffe100" />
    <use x="159.494" y="36.366" xlink:href="#dot"  stroke="#ff0000" />
    <use x="155.058" y="126.931" xlink:href="#dot"  stroke="#00ebff" />
    <use x="150.792" y="80.878" xlink:href="#dot"  stroke="#ffe100" />
    <use x="152.615" y="50.435" xlink:href="#dot"  stroke="#ff0000" />
    <use x="151.509" y="131.237" xlink:href="#dot"  stroke="#00ebff" />
    <use x="150" y="84.435" xlink:href="#dot"  stroke="#ffe100" />
    <use x="150" y="54.975" xlink:href="#dot"  stroke="#ff0000" />
    <use x="150" y="132.707" xlink:href="#dot"  stroke="#00ebff" />
    <use x="149.208" y="80.878" xlink:href="#dot"  stroke="#ffe100" />
    <use x="147.385" y="50.435" xlink:href="#dot"  stroke="#ff0000" />
    <use x="148.491" y="131.237" xlink:href="#dot"  stroke="#00ebff" />
    <use x="144.802" y="69.926" xlink:href="#dot"  stroke="#ffe100" />
    <use x="140.506" y="36.366" xlink:href="#dot"  stroke="#ff0000" />
    <use x="144.942" y="126.931" xlink:href="#dot"  stroke="#00ebff" />
</svg>
