<?xml version="1.0" standalone="no"?>
<svg width="300px" height="300px" version="1.1" xmlns="http://www.w3.org/2000/svg" xmlns:xlink="http://www.w3.org/1999/xlink">
    <rect x="0" y="0" width="300" height="300"  fill="#000000" />
    <defs>
        <g id="dot">
            <line x1="1" y1="1" x2="0" y2="0"  />
        </g>
        <g id="cross">
            <line x1="-3" y1="0" x2="3" y2="0"  />
            <line x1="0" y1="-3" x2="0" y2="3"  />
        </g>
        <g id="square">
            <line x1="-3" y1="-3" x2="-3" y2="3"  />
            <line x1="-3" y1="3" x2="3" y2="3"  />
            <line x1="3" y1="3" x2="3" y2="-3"  />
            <line x1="3" y1="-3" x2="-3" y2="-3"  />
        </g>
        <g id="round">
            <ellipse cx="0" cy="0" rx="3" ry="3"  fill="none" /></g>
        <g id="triangle">
            <line x1="0" y1="-3" x2="-3" y2="3"  />
            <line x1="-3" y1="3" x2="3" y2="3"  />
            <line x1="0" y1="-3" x2="3" y2="3"  />
        </g>
    </defs>
    <polygon fill="none" stroke="#ffffff" points="30.952,269.048 30.952,30.952 269.048,30.952 269.048,269.048 " />
    <text style="font-size:12;text-align:center;text-anchor:middle;" x="150" y="298.262" fill="#ffffff">Sagittal distance (um)</text>
    <use x="70.635" y="30.952" xlink:href="#cross"  stroke="#ffffff" />
    <use x="70.635" y="269.048" xlink:href="#cross"  stroke="#ffffff" />
    <text style="font-size:12;text-align:center;text-anchor:middle;" x="70.635" y="287.048" fill="#ffffff">-19</text>
    <use x="150" y="30.952" xlink:href="#cross"  stroke="#ffffff" />
    <use x="150" y="269.048" xlink:href="#cross"  stroke="#ffffff" />
    <text style="font-size:12;text-align:center;text-anchor:middle;" x="150" y="287.048" fill="#ffffff">0</text>
    <use x="229.365" y="30.952" xlink:href="#cross"  stroke="#ffffff" />
    <use x="229.365" y="269.048" xlink:href="#cross"  stroke="#ffffff" />
    <text style="font-size:12;text-align:center;text-anchor:middle;" x="229.365" y="287.048" fill="#ffffff">19</text>
    <text style="font-size:12;text-align:center;text-anchor:middle;" x="7.738" y="156" transform="rotate(-90,7.738,150)" fill="#ffffff">Tangential distance (um)</text>
    <use x="269.048" y="230.068" xlink:href="#cross"  stroke="#ffffff" />
    <use x="30.952" y="230.068" xlink:href="#cross"  stroke="#ffffff" />
    <text style="font-size:12;text-align:right;text-anchor:end;" x="24.952" y="236.068" fill="#ffffff">-19</text>
    <use x="269.048" y="150.703" xlink:href="#cross"  stroke="#ffffff" />
    <use x="30.952" y="150.703" xlink:href="#cross"  stroke="#ffffff" />
    <text style="font-size:12;text-align:right;text-anchor:end;" x="24.952" y="156.703" fill="#ffffff">0</text>
    <use x="269.048" y="71.337" xlink:href="#cross"  stroke="#ffffff" />
    <use x="30.952" y="71.337" xlink:href="#cross"  stroke="#ffffff" />
    <text style="font-size:12;text-align:right;text-anchor:end;" x="24.952" y="77.337" fill="#ffffff">19</text>
    <use x="118.636" y="195.164" xlink:href="#dot"  stroke="#00ebff" />
    <use x="115.189" y="197.551" xlink:href="#dot"  stroke="#ffe100" />
    <use x="114.332" y="188.342" xlink:href="#dot"  stroke="#ff0000" />
    <use x="124.883" y="218.836" xlink:href="#dot"  stroke="#00ebff" />
    <use x="130.769" y="209.98" xlink:href="#dot"  stroke="#ffe100" />
    <use x="130.165" y="200.598" xlink:href="#dot"  stroke="#ff0000" />
    <use x="136.08" y="232.622" xlink:href="#dot"  stroke="#00ebff" />
    <use x="150" y="214.027" xlink:href="#dot"  stroke="#ffe100" />
    <use x="150" y="204.575" xlink:href="#dot"  stroke="#ff0000" />
    <use x="150" y="237.157" xlink:href="#dot"  stroke="#00ebff" />
    <use x="169.231" y="209.98" xlink:href="#dot"  stroke="#ffe100" />
    <use x="169.835" y="200.598" xlink:href="#dot"  stroke="#ff0000" />
    <use x="163.92" y="232.622" xlink:href="#dot"  stroke="#00ebff" />
    <use x="184.811" y="197.551" xlink:href="#dot"  stroke="#ffe100" />
    <use x="185.668" y="188.342" xlink:href="#dot"  stroke="#ff0000" />
    <use x="175.117" y="218.836" xlink:href="#dot"  stroke="#00ebff" />
    <use x="181.364" y="195.164" xlink:href="#dot"  stroke="#00ebff" />
    <use x="127.996" y="70.384" xlink:href="#dot"  stroke="#ffe100" />
    <use x="137.645" y="62.843" xlink:href="#dot"  stroke="#ff0000" />
    <use x="129.826" y="80.114" xlink:href="#dot"  stroke="#00ebff" />
    <use x="136.21" y="100.024" xlink:href="#dot"  stroke="#ffe100" />
    <use x="141.616" y="94.894" xlink:href="#dot"  stroke="#ff0000" />
    <use x="144.211" y="106.745" xlink:href="#dot"  stroke="#00ebff" />
    <use x="126.917" y="122.732" xlink:href="#dot"  stroke="#ffe100" />
    <use x="129.18" y="118.761" xlink:href="#dot"  stroke="#ff0000" />
    <use x="138.59" y="129.171" xlink:href="#dot"  stroke="#00ebff" />
    <use x="120.719" y="141.362" xlink:href="#dot"  stroke="#ffe100" />
    <use x="121.122" y="137.917" xlink:href="#dot"  stroke="#ff0000" />
    <use x="132.835" y="148.567" xlink:href="#dot"  stroke="#00ebff" />
    <use x="123.704" y="155.397" xlink:href="#dot"  stroke="#ffe100" />
    <use x="123.336" y="152.164" xlink:href="#dot"  stroke="#ff0000" />
    <use x="133.445" y="163.577" xlink:href="#dot"  stroke="#00ebff" />
    <use x="134.728" y="164.028" xlink:href="#dot"  stroke="#ffe100" />
    <use x="134.35" y="160.863" xlink:href="#dot"  stroke="#ff0000" />
    <use x="140.106" y="172.941" xlink:href="#dot"  stroke="#00ebff" />
    <use x="150" y="166.922" xlink:href="#dot"  stroke="#ffe100" />
    <use x="150" y="163.771" xlink:href="#dot"  stroke="#ff0000" />
    <use x="150" y="176.103" xlink:href="#dot"  stroke="#00ebff" />
    <use x="165.272" y="164.028" xlink:href="#dot"  stroke="#ffe100" />
    <use x="165.65" y="160.863" xlink:href="#dot"  stroke="#ff0000" />
    <use x="159.894" y="172.941" xlink:href="#dot"  stroke="#00ebff" />
    <use x="176.296" y="155.397" xlink:href="#dot"  stroke="#ffe100" />
    <use x="176.664" y="152.164" xlink:href="#dot"  stroke="#ff0000" />
    <use x="166.555" y="163.577" xlink:href="#dot"  stroke="#00ebff" />
    <use x="179.281" y="141.362" xlink:href="#dot"  stroke="#ffe100" />
    <use x="178.878" y="137.917" xlink:href="#dot"  stroke="#ff0000" />
    <use x="167.165" y="148.567" xlink:href="#dot"  stroke="#00ebff" />
    <use x="173.083" y="122.732" xlink:href="#dot"  stroke="#ffe100" />
    <use x="170.82" y="118.761" xlink:href="#dot"  stroke="#ff0000" />
    <use x="161.41" y="129.171" xlink:href="#dot"  stroke="#00ebff" />
    <use x="163.79" y="100.024" xlink:href="#dot"  stroke="#ffe100" />
    <use x="158.384" y="94.894" xlink:href="#dot"  stroke="#ff0000" />
    <use x="155.789" y="106.745" xlink:href="#dot"  stroke="#00ebff" />
    <use x="172.004" y="70.384" xlink:href="#dot"  stroke="#ffe100" />
    <use x="162.355" y="62.843" xlink:href="#dot"  stroke="#ff0000" />
    <use x="170.174" y="80.114" xlink:href="#dot"  stroke="#00ebff" />
    <use x="106.367" y="113.484" xlink:href="#dot"  stroke="#ffe100" />
    <use x="126.461" y="97.903" xlink:href="#dot"  stroke="#ff0000" />
    <use x="90.424" y="137.647" xlink:href="#dot"  stroke="#00ebff" />
    <use x="159.542" y="113.484" xlink:href="#dot"  stroke="#ffe100" />
    <use x="172.195" y="103.817" xlink:href="#dot"  stroke="#ff0000" />
    <use x="156.59" y="126.739" xlink:href="#dot"  stroke="#00ebff" />
    <use x="155.907" y="119.648" xlink:href="#dot"  stroke="#ffe100" />
    <use x="162.951" y="113.362" xlink:href="#dot"  stroke="#ff0000" />
    <use x="162.163" y="127.701" xlink:href="#dot"  stroke="#00ebff" />
    <use x="142.127" y="128.656" xlink:href="#dot"  stroke="#ffe100" />
    <use x="145.372" y="124.394" xlink:href="#dot"  stroke="#ff0000" />
    <use x="153.215" y="134.298" xlink:href="#dot"  stroke="#00ebff" />
    <use x="132.653" y="139.267" xlink:href="#dot"  stroke="#ffe100" />
    <use x="133.666" y="136.228" xlink:href="#dot"  stroke="#ff0000" />
    <use x="144.615" y="143.902" xlink:href="#dot"  stroke="#00ebff" />
    <use x="131.887" y="148.852" xlink:href="#dot"  stroke="#ffe100" />
    <use x="131.882" y="146.528" xlink:href="#dot"  stroke="#ff0000" />
    <use x="141.616" y="153.156" xlink:href="#dot"  stroke="#00ebff" />
    <use x="138.834" y="155.28" xlink:href="#dot"  stroke="#ffe100" />
    <use x="138.627" y="153.328" xlink:href="#dot"  stroke="#ff0000" />
    <use x="144.226" y="159.524" xlink:href="#dot"  stroke="#00ebff" />
    <use x="150" y="157.511" xlink:href="#dot"  stroke="#ffe100" />
    <use x="150" y="155.675" xlink:href="#dot"  stroke="#ff0000" />
    <use x="150" y="161.758" xlink:href="#dot"  stroke="#00ebff" />
    <use x="161.166" y="155.28" xlink:href="#dot"  stroke="#ffe100" />
    <use x="161.373" y="153.328" xlink:href="#dot"  stroke="#ff0000" />
    <use x="155.774" y="159.524" xlink:href="#dot"  stroke="#00ebff" />
    <use x="168.113" y="148.852" xlink:href="#dot"  stroke="#ffe100" />
    <use x="168.118" y="146.528" xlink:href="#dot"  stroke="#ff0000" />
    <use x="158.384" y="153.156" xlink:href="#dot"  stroke="#00ebff" />
    <use x="167.347" y="139.267" xlink:href="#dot"  stroke="#ffe100" />
    <use x="166.334" y="136.228" xlink:href="#dot"  stroke="#ff0000" />
    <use x="155.385" y="143.902" xlink:href="#dot"  stroke="#00ebff" />
    <use x="157.873" y="128.656" xlink:href="#dot"  stroke="#ffe100" />
    <use x="154.628" y="124.394" xlink:href="#dot"  stroke="#ff0000" />
    <use x="146.785" y="134.298" xlink:href="#dot"  stroke="#00ebff" />
    <use x="144.093" y="119.648" xlink:href="#dot"  stroke="#ffe100" />
    <use x="137.049" y="113.362" xlink:href="#dot"  stroke="#ff0000" />
    <use x="137.837" y="127.701" xlink:href="#dot"  stroke="#00ebff" />
    <use x="140.458" y="113.484" xlink:href="#dot"  stroke="#ffe100" />
    <use x="127.805" y="103.817" xlink:href="#dot"  stroke="#ff0000" />
    <use x="143.41" y="126.739" xlink:href="#dot"  stroke="#00ebff" />
    <use x="193.633" y="113.484" xlink:href="#dot"  stroke="#ffe100" />
    <use x="173.539" y="97.903" xlink:href="#dot"  stroke="#ff0000" />
    <use x="209.576" y="137.647" xlink:href="#dot"  stroke="#00ebff" />
    <use x="91.527" y="189.587" xlink:href="#dot"  stroke="#ffe100" />
    <use x="117.581" y="164.645" xlink:href="#dot"  stroke="#ff0000" />
    <use x="63.56" y="232.559" xlink:href="#dot"  stroke="#00ebff" />
    <use x="166.623" y="150.08" xlink:href="#dot"  stroke="#ffe100" />
    <use x="182.296" y="133.716" xlink:href="#dot"  stroke="#ff0000" />
    <use x="158.415" y="176.064" xlink:href="#dot"  stroke="#00ebff" />
    <use x="163.648" y="142.96" xlink:href="#dot"  stroke="#ffe100" />
    <use x="172.455" y="131.716" xlink:href="#dot"  stroke="#ff0000" />
    <use x="167.296" y="159.586" xlink:href="#dot"  stroke="#00ebff" />
    <use x="150.245" y="142.321" xlink:href="#dot"  stroke="#ffe100" />
    <use x="154.606" y="134.339" xlink:href="#dot"  stroke="#ff0000" />
    <use x="159.909" y="153.489" xlink:href="#dot"  stroke="#00ebff" />
    <use x="140.344" y="145.443" xlink:href="#dot"  stroke="#ffe100" />
    <use x="142.077" y="139.57" xlink:href="#dot"  stroke="#ff0000" />
    <use x="151.486" y="153.387" xlink:href="#dot"  stroke="#00ebff" />
    <use x="137.728" y="150.019" xlink:href="#dot"  stroke="#ffe100" />
    <use x="138.16" y="145.465" xlink:href="#dot"  stroke="#ff0000" />
    <use x="146.995" y="156.115" xlink:href="#dot"  stroke="#00ebff" />
    <use x="141.915" y="153.705" xlink:href="#dot"  stroke="#ffe100" />
    <use x="141.916" y="149.875" xlink:href="#dot"  stroke="#ff0000" />
    <use x="147.097" y="158.853" xlink:href="#dot"  stroke="#00ebff" />
    <use x="150" y="155.079" xlink:href="#dot"  stroke="#ffe100" />
    <use x="150" y="151.48" xlink:href="#dot"  stroke="#ff0000" />
    <use x="150" y="159.935" xlink:href="#dot"  stroke="#00ebff" />
    <use x="158.085" y="153.705" xlink:href="#dot"  stroke="#ffe100" />
    <use x="158.084" y="149.875" xlink:href="#dot"  stroke="#ff0000" />
    <use x="152.903" y="158.853" xlink:href="#dot"  stroke="#00ebff" />
    <use x="162.272" y="150.019" xlink:href="#dot"  stroke="#ffe100" />
    <use x="161.84" y="145.465" xlink:href="#dot"  stroke="#ff0000" />
    <use x="153.005" y="156.115" xlink:href="#dot"  stroke="#00ebff" />
    <use x="159.656" y="145.443" xlink:href="#dot"  stroke="#ffe100" />
    <use x="157.923" y="139.57" xlink:href="#dot"  stroke="#ff0000" />
    <use x="148.514" y="153.387" xlink:href="#dot"  stroke="#00ebff" />
    <use x="149.755" y="142.321" xlink:href="#dot"  stroke="#ffe100" />
    <use x="145.394" y="134.339" xlink:href="#dot"  stroke="#ff0000" />
    <use x="140.091" y="153.489" xlink:href="#dot"  stroke="#00ebff" />
    <use x="136.352" y="142.96" xlink:href="#dot"  stroke="#ffe100" />
    <use x="127.545" y="131.716" xlink:href="#dot"  stroke="#ff0000" />
    <use x="132.704" y="159.586" xlink:href="#dot"  stroke="#00ebff" />
    <use x="133.377" y="150.08" xlink:href="#dot"  stroke="#ffe100" />
    <use x="117.704" y="133.716" xlink:href="#dot"  stroke="#ff0000" />
    <use x="141.585" y="176.064" xlink:href="#dot"  stroke="#00ebff" />
    <use x="208.473" y="189.587" xlink:href="#dot"  stroke="#ffe100" />
    <use x="182.419" y="164.645" xlink:href="#dot"  stroke="#ff0000" />
    <use x="236.44" y="232.559" xlink:href="#dot"  stroke="#00ebff" />
    <use x="151.659" y="180.142" xlink:href="#dot"  stroke="#ffe100" />
    <use x="171.516" y="152.973" xlink:href="#dot"  stroke="#ff0000" />
    <use x="135.003" y="227.333" xlink:href="#dot"  stroke="#00ebff" />
    <use x="162.8" y="160.72" xlink:href="#dot"  stroke="#ffe100" />
    <use x="174.061" y="141.366" xlink:href="#dot"  stroke="#ff0000" />
    <use x="161.741" y="192.216" xlink:href="#dot"  stroke="#00ebff" />
    <use x="151.664" y="155.459" xlink:href="#dot"  stroke="#ffe100" />
    <use x="157.594" y="141.061" xlink:href="#dot"  stroke="#ff0000" />
    <use x="158.435" y="177.437" xlink:href="#dot"  stroke="#00ebff" />
    <use x="142.75" y="153.028" xlink:href="#dot"  stroke="#ffe100" />
    <use x="145.503" y="141.867" xlink:href="#dot"  stroke="#ff0000" />
    <use x="152.065" y="169.044" xlink:href="#dot"  stroke="#00ebff" />
    <use x="140.068" y="152.632" xlink:href="#dot"  stroke="#ffe100" />
    <use x="141.123" y="143.523" xlink:href="#dot"  stroke="#ff0000" />
    <use x="148.241" y="165.005" xlink:href="#dot"  stroke="#00ebff" />
    <use x="143.296" y="153.145" xlink:href="#dot"  stroke="#ffe100" />
    <use x="143.593" y="145.177" xlink:href="#dot"  stroke="#ff0000" />
    <use x="147.962" y="163.546" xlink:href="#dot"  stroke="#00ebff" />
    <use x="150" y="153.456" xlink:href="#dot"  stroke="#ffe100" />
    <use x="150" y="145.855" xlink:href="#dot"  stroke="#ff0000" />
    <use x="150" y="163.233" xlink:href="#dot"  stroke="#00ebff" />
    <use x="156.704" y="153.145" xlink:href="#dot"  stroke="#ffe100" />
    <use x="156.407" y="145.177" xlink:href="#dot"  stroke="#ff0000" />
    <use x="152.038" y="163.546" xlink:href="#dot"  stroke="#00ebff" />
    <use x="159.932" y="152.632" xlink:href="#dot"  stroke="#ffe100" />
    <use x="158.877" y="143.523" xlink:href="#dot"  stroke="#ff0000" />
    <use x="151.759" y="165.005" xlink:href="#dot"  stroke="#00ebff" />
    <use x="157.25" y="153.028" xlink:href="#dot"  stroke="#ffe100" />
    <use x="154.497" y="141.867" xlink:href="#dot"  stroke="#ff0000" />
    <use x="147.935" y="169.044" xlink:href="#dot"  stroke="#00ebff" />
    <use x="148.336" y="155.459" xlink:href="#dot"  stroke="#ffe100" />
    <use x="142.406" y="141.061" xlink:href="#dot"  stroke="#ff0000" />
    <use x="141.565" y="177.437" xlink:href="#dot"  stroke="#00ebff" />
    <use x="137.2" y="160.72" xlink:href="#dot"  stroke="#ffe100" />
    <use x="125.939" y="141.366" xlink:href="#dot"  stroke="#ff0000" />
    <use x="138.259" y="192.216" xlink:href="#dot"  stroke="#00ebff" />
    <use x="148.341" y="180.142" xlink:href="#dot"  stroke="#ffe100" />
    <use x="128.484" y="152.973" xlink:href="#dot"  stroke="#ff0000" />
    <use x="164.997" y="227.333" xlink:href="#dot"  stroke="#00ebff" />
    <use x="153.435" y="164.113" xlink:href="#dot"  stroke="#ffe100" />
    <use x="168.402" y="133.044" xlink:href="#dot"  stroke="#ff0000" />
    <use x="144.414" y="218.234" xlink:href="#dot"  stroke="#00ebff" />
    <use x="149.503" y="158.625" xlink:href="#dot"  stroke="#ffe100" />
    <use x="157.731" y="135.022" xlink:href="#dot"  stroke="#ff0000" />
    <use x="151.398" y="197.359" xlink:href="#dot"  stroke="#00ebff" />
    <use x="141.586" y="157.436" xlink:href="#dot"  stroke="#ffe100" />
    <use x="145.809" y="138.604" xlink:href="#dot"  stroke="#ff0000" />
    <use x="147.811" y="186.584" xlink:href="#dot"  stroke="#00ebff" />
    <use x="139.529" y="155.716" xlink:href="#dot"  stroke="#ffe100" />
    <use x="141.472" y="139.884" xlink:href="#dot"  stroke="#ff0000" />
    <use x="145.846" y="178.959" xlink:href="#dot"  stroke="#00ebff" />
    <use x="143.133" y="154.484" xlink:href="#dot"  stroke="#ffe100" />
    <use x="143.851" y="140.318" xlink:href="#dot"  stroke="#ff0000" />
    <use x="146.923" y="174.499" xlink:href="#dot"  stroke="#00ebff" />
    <use x="150" y="154.077" xlink:href="#dot"  stroke="#ffe100" />
    <use x="150" y="140.446" xlink:href="#dot"  stroke="#ff0000" />
    <use x="150" y="173.063" xlink:href="#dot"  stroke="#00ebff" />
    <use x="156.867" y="154.484" xlink:href="#dot"  stroke="#ffe100" />
    <use x="156.149" y="140.318" xlink:href="#dot"  stroke="#ff0000" />
    <use x="153.077" y="174.499" xlink:href="#dot"  stroke="#00ebff" />
    <use x="160.471" y="155.716" xlink:href="#dot"  stroke="#ffe100" />
    <use x="158.528" y="139.884" xlink:href="#dot"  stroke="#ff0000" />
    <use x="154.154" y="178.959" xlink:href="#dot"  stroke="#00ebff" />
    <use x="158.414" y="157.436" xlink:href="#dot"  stroke="#ffe100" />
    <use x="154.191" y="138.604" xlink:href="#dot"  stroke="#ff0000" />
    <use x="152.189" y="186.584" xlink:href="#dot"  stroke="#00ebff" />
    <use x="150.497" y="158.625" xlink:href="#dot"  stroke="#ffe100" />
    <use x="142.269" y="135.022" xlink:href="#dot"  stroke="#ff0000" />
    <use x="148.602" y="197.359" xlink:href="#dot"  stroke="#00ebff" />
    <use x="146.565" y="164.113" xlink:href="#dot"  stroke="#ffe100" />
    <use x="131.598" y="133.044" xlink:href="#dot"  stroke="#ff0000" />
    <use x="155.586" y="218.234" xlink:href="#dot"  stroke="#00ebff" />
    <use x="144.942" y="137.809" xlink:href="#dot"  stroke="#ffe100" />
    <use x="156.598" y="101.291" xlink:href="#dot"  stroke="#ff0000" />
    <use x="139.153" y="201.615" xlink:href="#dot"  stroke="#00ebff" />
    <use x="140.766" y="143.563" xlink:href="#dot"  stroke="#ffe100" />
    <use x="147.091" y="114.166" xlink:href="#dot"  stroke="#ff0000" />
    <use x="142.284" y="192.351" xlink:href="#dot"  stroke="#00ebff" />
    <use x="138.68" y="148.671" xlink:href="#dot"  stroke="#ffe100" />
    <use x="141.865" y="123.624" xlink:href="#dot"  stroke="#ff0000" />
    <use x="142.22" y="188.414" xlink:href="#dot"  stroke="#00ebff" />
    <use x="142.564" y="150.451" xlink:href="#dot"  stroke="#ffe100" />
    <use x="143.864" y="127.786" xlink:href="#dot"  stroke="#ff0000" />
    <use x="145.054" y="185.289" xlink:href="#dot"  stroke="#00ebff" />
    <use x="150" y="150.791" xlink:href="#dot"  stroke="#ffe100" />
    <use x="150" y="128.888" xlink:href="#dot"  stroke="#ff0000" />
    <use x="150" y="184.07" xlink:href="#dot"  stroke="#00ebff" />
    <use x="157.436" y="150.451" xlink:href="#dot"  stroke="#ffe100" />
    <use x="156.136" y="127.786" xlink:href="#dot"  stroke="#ff0000" />
    <use x="154.946" y="185.289" xlink:href="#dot"  stroke="#00ebff" />
    <use x="161.32" y="148.671" xlink:href="#dot"  stroke="#ffe100" />
    <use x="158.135" y="123.624" xlink:href="#dot"  stroke="#ff0000" />
    <use x="157.78" y="188.414" xlink:href="#dot"  stroke="#00ebff" />
    <use x="159.234" y="143.563" xlink:href="#dot"  stroke="#ffe100" />
    <use x="152.909" y="114.166" xlink:href="#dot"  stroke="#ff0000" />
    <use x="157.716" y="192.351" xlink:href="#dot"  stroke="#00ebff" />
    <use x="155.058" y="137.809" xlink:href="#dot"  stroke="#ffe100" />
    <use x="143.402" y="101.291" xlink:href="#dot"  stroke="#ff0000" />
    <use x="160.847" y="201.615" xlink:href="#dot"  stroke="#00ebff" />
    <use x="140.218" y="106.948" xlink:href="#dot"  stroke="#ffe100" />
    <use x="145.155" y="69.274" xlink:href="#dot"  stroke="#ff0000" />
    <use x="139.741" y="171.041" xlink:href="#dot"  stroke="#00ebff" />
    <use x="143.3" y="117.159" xlink:href="#dot"  stroke="#ffe100" />
    <use x="145.403" y="82.978" xlink:href="#dot"  stroke="#ff0000" />
    <use x="143.947" y="173.805" xlink:href="#dot"  stroke="#00ebff" />
    <use x="150" y="120.48" xlink:href="#dot"  stroke="#ffe100" />
    <use x="150" y="87.401" xlink:href="#dot"  stroke="#ff0000" />
    <use x="150" y="174.787" xlink:href="#dot"  stroke="#00ebff" />
    <use x="156.7" y="117.159" xlink:href="#dot"  stroke="#ffe100" />
    <use x="154.597" y="82.978" xlink:href="#dot"  stroke="#ff0000" />
    <use x="156.053" y="173.805" xlink:href="#dot"  stroke="#00ebff" />
    <use x="159.782" y="106.948" xlink:href="#dot"  stroke="#ffe100" />
    <use x="154.845" y="69.274" xlink:href="#dot"  stroke="#ff0000" />
    <use x="160.259" y="171.041" xlink:href="#dot"  stroke="#00ebff" />
</svg>
