<?xml version="1.0" standalone="no"?>
<svg width="2400px" height="1400px" version="1.1" xmlns="http://www.w3.org/2000/svg" xmlns:xlink="http://www.w3.org/1999/xlink">
<rect x="0" y="0" width="2400" height="1400"  fill="#ffffff" />
<defs>
<g id="dot">
<line x1="1" y1="1" x2="0" y2="0"  />
</g>
<g id="cross">
<line x1="-3" y1="0" x2="3" y2="0"  />
<line x1="0" y1="-3" x2="0" y2="3"  />
</g>
<g id="square">
<line x1="-3" y1="-3" x2="-3" y2="3"  />
<line x1="-3" y1="3" x2="3" y2="3"  />
<line x1="3" y1="3" x2="3" y2="-3"  />
<line x1="3" y1="-3" x2="-3" y2="-3"  />
</g>
<g id="round">
<ellipse cx="0" cy="0" rx="3" ry="3"  fill="none" /></g>
<g id="triangle">
<line x1="0" y1="-3" x2="-3" y2="3"  />
<line x1="-3" y1="3" x2="3" y2="3"  />
<line x1="0" y1="-3" x2="3" y2="3"  />
</g>
</defs>
<line x1="708.23" y1="700" x2="1691.77" y2="700"  stroke="#7f7f7f" />
<g><title>element</title>
<g>
<line x1="964.377" y1="543.821" x2="964.377" y2="387.641"  stroke="#7f7fff" />
<line x1="964.377" y1="856.179" x2="964.377" y2="1012.359"  stroke="#7f7fff" />
</g>
<g>
<polyline fill="none" stroke="#7f7fff" points="761.573,458.873 759.335,463.745 757.151,468.616 755.022,473.487 752.947,478.358 750.924,483.23 748.954,488.101 747.036,492.972 745.168,497.843 743.352,502.715 741.586,507.586 739.87,512.457 738.202,517.328 736.584,522.2 735.014,527.071 733.492,531.942 732.017,536.813 730.59,541.685 729.209,546.556 727.875,551.427 726.587,556.298 725.345,561.17 724.148,566.041 722.996,570.912 721.889,575.783 720.827,580.655 719.809,585.526 718.836,590.397 717.906,595.268 717.02,600.14 716.178,605.011 715.378,609.882 714.622,614.753 713.909,619.624 713.239,624.496 712.611,629.367 712.026,634.238 711.483,639.109 710.982,643.981 710.523,648.852 710.107,653.723 709.732,658.594 709.399,663.466 709.108,668.337 708.859,673.208 708.651,678.079 708.485,682.951 708.36,687.822 708.277,692.693 708.236,697.564 708.236,702.436 708.277,707.307 708.36,712.178 708.485,717.049 708.651,721.921 708.859,726.792 709.108,731.663 709.399,736.534 709.732,741.406 710.107,746.277 710.523,751.148 710.982,756.019 711.483,760.891 712.026,765.762 712.611,770.633 713.239,775.504 713.909,780.376 714.622,785.247 715.378,790.118 716.178,794.989 717.02,799.86 717.906,804.732 718.836,809.603 719.809,814.474 720.827,819.345 721.889,824.217 722.996,829.088 724.148,833.959 725.345,838.83 726.587,843.702 727.875,848.573 729.209,853.444 730.59,858.315 732.017,863.187 733.492,868.058 735.014,872.929 736.584,877.8 738.202,882.672 739.87,887.543 741.586,892.414 743.352,897.285 745.168,902.157 747.036,907.028 748.954,911.899 750.924,916.77 752.947,921.642 755.022,926.513 757.151,931.384 759.335,936.255 761.573,941.127 " />
<line x1="761.573" y1="458.873" x2="781.541" y2="458.873"  stroke="#7f7fff" />
<line x1="761.573" y1="941.127" x2="781.541" y2="941.127"  stroke="#7f7fff" />
<polyline fill="none" stroke="#7f7fff" points="781.541,458.873 781.227,463.745 780.92,468.616 780.619,473.487 780.324,478.358 780.036,483.23 779.755,488.101 779.479,492.972 779.21,497.843 778.948,502.715 778.692,507.586 778.442,512.457 778.199,517.328 777.962,522.2 777.732,527.071 777.508,531.942 777.29,536.813 777.079,541.685 776.874,546.556 776.676,551.427 776.484,556.298 776.299,561.17 776.12,566.041 775.947,570.912 775.781,575.783 775.621,580.655 775.467,585.526 775.32,590.397 775.179,595.268 775.045,600.14 774.917,605.011 774.796,609.882 774.681,614.753 774.572,619.624 774.47,624.496 774.374,629.367 774.284,634.238 774.201,639.109 774.124,643.981 774.054,648.852 773.99,653.723 773.933,658.594 773.882,663.466 773.837,668.337 773.798,673.208 773.766,678.079 773.741,682.951 773.722,687.822 773.709,692.693 773.703,697.564 773.703,702.436 773.709,707.307 773.722,712.178 773.741,717.049 773.766,721.921 773.798,726.792 773.837,731.663 773.882,736.534 773.933,741.406 773.99,746.277 774.054,751.148 774.124,756.019 774.201,760.891 774.284,765.762 774.374,770.633 774.47,775.504 774.572,780.376 774.681,785.247 774.796,790.118 774.917,794.989 775.045,799.86 775.179,804.732 775.32,809.603 775.467,814.474 775.621,819.345 775.781,824.217 775.947,829.088 776.12,833.959 776.299,838.83 776.484,843.702 776.676,848.573 776.874,853.444 777.079,858.315 777.29,863.187 777.508,868.058 777.732,872.929 777.962,877.8 778.199,882.672 778.442,887.543 778.692,892.414 778.948,897.285 779.21,902.157 779.479,907.028 779.755,911.899 780.036,916.77 780.324,921.642 780.619,926.513 780.92,931.384 781.227,936.255 781.541,941.127 " />
</g>
<g>
<polyline fill="none" stroke="#7f7fff" points="869.424,489.673 864.713,493.922 860.209,498.171 855.897,502.42 851.766,506.669 847.804,510.918 844.002,515.167 840.352,519.417 836.846,523.666 833.476,527.915 830.238,532.164 827.125,536.413 824.132,540.662 821.254,544.911 818.488,549.16 815.83,553.409 813.275,557.658 810.822,561.907 808.466,566.156 806.204,570.405 804.036,574.654 801.957,578.903 799.966,583.152 798.06,587.401 796.239,591.65 794.499,595.899 792.84,600.148 791.26,604.397 789.758,608.646 788.331,612.895 786.98,617.144 785.703,621.393 784.498,625.642 783.365,629.891 782.303,634.14 781.311,638.389 780.389,642.638 779.535,646.887 778.749,651.136 778.031,655.385 777.379,659.634 776.794,663.883 776.275,668.132 775.822,672.381 775.434,676.63 775.111,680.879 774.853,685.128 774.66,689.377 774.531,693.626 774.467,697.875 774.467,702.125 774.531,706.374 774.66,710.623 774.853,714.872 775.111,719.121 775.434,723.37 775.822,727.619 776.275,731.868 776.794,736.117 777.379,740.366 778.031,744.615 778.749,748.864 779.535,753.113 780.389,757.362 781.311,761.611 782.303,765.86 783.365,770.109 784.498,774.358 785.703,778.607 786.98,782.856 788.331,787.105 789.758,791.354 791.26,795.603 792.84,799.852 794.499,804.101 796.239,808.35 798.06,812.599 799.966,816.848 801.957,821.097 804.036,825.346 806.204,829.595 808.466,833.844 810.822,838.093 813.275,842.342 815.83,846.591 818.488,850.84 821.254,855.089 824.132,859.338 827.125,863.587 830.238,867.836 833.476,872.085 836.846,876.334 840.352,880.583 844.002,884.833 847.804,889.082 851.766,893.331 855.897,897.58 860.209,901.829 864.713,906.078 869.424,910.327 " />
<line x1="869.424" y1="489.673" x2="890.701" y2="489.673"  stroke="#7f7fff" />
<line x1="869.424" y1="910.327" x2="890.701" y2="910.327"  stroke="#7f7fff" />
<polyline fill="none" stroke="#7f7fff" points="890.701,489.673 888.405,493.922 886.17,498.171 883.993,502.42 881.875,506.669 879.813,510.918 877.808,515.167 875.858,519.417 873.962,523.666 872.121,527.915 870.332,532.164 868.595,536.413 866.91,540.662 865.277,544.911 863.693,549.16 862.159,553.409 860.675,557.658 859.239,561.907 857.852,566.156 856.512,570.405 855.22,574.654 853.974,578.903 852.775,583.152 851.622,587.401 850.514,591.65 849.452,595.899 848.435,600.148 847.463,604.397 846.535,608.646 845.65,612.895 844.81,617.144 844.013,621.393 843.26,625.642 842.55,629.891 841.882,634.14 841.257,638.389 840.675,642.638 840.135,646.887 839.637,651.136 839.181,655.385 838.766,659.634 838.394,663.883 838.063,668.132 837.774,672.381 837.526,676.63 837.32,680.879 837.155,685.128 837.031,689.377 836.949,693.626 836.908,697.875 836.908,702.125 836.949,706.374 837.031,710.623 837.155,714.872 837.32,719.121 837.526,723.37 837.774,727.619 838.063,731.868 838.394,736.117 838.766,740.366 839.181,744.615 839.637,748.864 840.135,753.113 840.675,757.362 841.257,761.611 841.882,765.86 842.55,770.109 843.26,774.358 844.013,778.607 844.81,782.856 845.65,787.105 846.535,791.354 847.463,795.603 848.435,799.852 849.452,804.101 850.514,808.35 851.622,812.599 852.775,816.848 853.974,821.097 855.22,825.346 856.512,829.595 857.852,833.844 859.239,838.093 860.675,842.342 862.159,846.591 863.693,850.84 865.277,855.089 866.91,859.338 868.595,863.587 870.332,867.836 872.121,872.085 873.962,876.334 875.858,880.583 877.808,884.833 879.813,889.082 881.875,893.331 883.993,897.58 886.17,901.829 888.405,906.078 890.701,910.327 " />
</g>
<g>
<polyline fill="none" stroke="#7f7fff" points="891.515,499.447 890.109,503.499 888.735,507.55 887.393,511.602 886.082,515.653 884.803,519.705 883.555,523.756 882.337,527.808 881.151,531.86 879.995,535.911 878.87,539.963 877.775,544.014 876.709,548.066 875.674,552.117 874.669,556.169 873.693,560.221 872.746,564.272 871.829,568.324 870.941,572.375 870.082,576.427 869.252,580.479 868.45,584.53 867.677,588.582 866.933,592.633 866.217,596.685 865.53,600.736 864.871,604.788 864.24,608.84 863.637,612.891 863.062,616.943 862.515,620.994 861.996,625.046 861.504,629.097 861.04,633.149 860.604,637.201 860.195,641.252 859.814,645.304 859.46,649.355 859.134,653.407 858.835,657.458 858.563,661.51 858.319,665.562 858.102,669.613 857.912,673.665 857.749,677.716 857.613,681.768 857.505,685.819 857.423,689.871 857.369,693.923 857.342,697.974 857.342,702.026 857.369,706.077 857.423,710.129 857.505,714.181 857.613,718.232 857.749,722.284 857.912,726.335 858.102,730.387 858.319,734.438 858.563,738.49 858.835,742.542 859.134,746.593 859.46,750.645 859.814,754.696 860.195,758.748 860.604,762.799 861.04,766.851 861.504,770.903 861.996,774.954 862.515,779.006 863.062,783.057 863.637,787.109 864.24,791.16 864.871,795.212 865.53,799.264 866.217,803.315 866.933,807.367 867.677,811.418 868.45,815.47 869.252,819.521 870.082,823.573 870.941,827.625 871.829,831.676 872.746,835.728 873.693,839.779 874.669,843.831 875.674,847.883 876.709,851.934 877.775,855.986 878.87,860.037 879.995,864.089 881.151,868.14 882.337,872.192 883.555,876.244 884.803,880.295 886.082,884.347 887.393,888.398 888.735,892.45 890.109,896.501 891.515,900.553 " />
<line x1="954.595" y1="499.447" x2="954.595" y2="540.021"  stroke="#7f7fff" />
<line x1="891.515" y1="499.447" x2="954.595" y2="499.447"  stroke="#7f7fff" />
<line x1="954.595" y1="900.553" x2="954.595" y2="859.979"  stroke="#7f7fff" />
<line x1="891.515" y1="900.553" x2="954.595" y2="900.553"  stroke="#7f7fff" />
<polyline fill="none" stroke="#7f7fff" points="954.595,540.021 950.231,543.252 946.104,546.484 942.193,549.716 938.478,552.948 934.943,556.18 931.574,559.412 928.359,562.644 925.288,565.876 922.351,569.108 919.542,572.34 916.853,575.572 914.277,578.803 911.81,582.035 909.445,585.267 907.18,588.499 905.009,591.731 902.929,594.963 900.936,598.195 899.028,601.427 897.201,604.659 895.454,607.891 893.783,611.123 892.187,614.354 890.663,617.586 889.21,620.818 887.826,624.05 886.51,627.282 885.26,630.514 884.074,633.746 882.952,636.978 881.892,640.21 880.893,643.442 879.955,646.674 879.076,649.905 878.256,653.137 877.493,656.369 876.788,659.601 876.139,662.833 875.547,666.065 875.009,669.297 874.527,672.529 874.099,675.761 873.726,678.993 873.406,682.225 873.14,685.456 872.928,688.688 872.769,691.92 872.663,695.152 872.61,698.384 872.61,701.616 872.663,704.848 872.769,708.08 872.928,711.312 873.14,714.544 873.406,717.775 873.726,721.007 874.099,724.239 874.527,727.471 875.009,730.703 875.547,733.935 876.139,737.167 876.788,740.399 877.493,743.631 878.256,746.863 879.076,750.095 879.955,753.326 880.893,756.558 881.892,759.79 882.952,763.022 884.074,766.254 885.26,769.486 886.51,772.718 887.826,775.95 889.21,779.182 890.663,782.414 892.187,785.646 893.783,788.877 895.454,792.109 897.201,795.341 899.028,798.573 900.936,801.805 902.929,805.037 905.009,808.269 907.18,811.501 909.445,814.733 911.81,817.965 914.277,821.197 916.853,824.428 919.542,827.66 922.351,830.892 925.288,834.124 928.359,837.356 931.574,840.588 934.943,843.82 938.478,847.052 942.193,850.284 946.104,853.516 950.231,856.748 954.595,859.979 " />
</g>
<g>
<polyline fill="none" stroke="#7f7fff" points="986.23,537.963 989.629,541.236 992.888,544.51 996.016,547.783 999.02,551.057 1001.907,554.33 1004.682,557.604 1007.352,560.877 1009.921,564.151 1012.393,567.424 1014.772,570.698 1017.062,573.971 1019.267,577.245 1021.388,580.518 1023.429,583.792 1025.393,587.065 1027.282,590.339 1029.098,593.612 1030.842,596.886 1032.518,600.159 1034.126,603.432 1035.669,606.706 1037.147,609.979 1038.562,613.253 1039.916,616.526 1041.209,619.8 1042.443,623.073 1043.619,626.347 1044.738,629.62 1045.8,632.894 1046.807,636.167 1047.759,639.441 1048.657,642.714 1049.502,645.988 1050.294,649.261 1051.034,652.535 1051.722,655.808 1052.359,659.082 1052.946,662.355 1053.482,665.629 1053.969,668.902 1054.405,672.175 1054.793,675.449 1055.132,678.722 1055.421,681.996 1055.663,685.269 1055.855,688.543 1056,691.816 1056.096,695.09 1056.144,698.363 1056.144,701.637 1056.096,704.91 1056,708.184 1055.855,711.457 1055.663,714.731 1055.421,718.004 1055.132,721.278 1054.793,724.551 1054.405,727.825 1053.969,731.098 1053.482,734.371 1052.946,737.645 1052.359,740.918 1051.722,744.192 1051.034,747.465 1050.294,750.739 1049.502,754.012 1048.657,757.286 1047.759,760.559 1046.807,763.833 1045.8,767.106 1044.738,770.38 1043.619,773.653 1042.443,776.927 1041.209,780.2 1039.916,783.474 1038.562,786.747 1037.147,790.021 1035.669,793.294 1034.126,796.568 1032.518,799.841 1030.842,803.114 1029.098,806.388 1027.282,809.661 1025.393,812.935 1023.429,816.208 1021.388,819.482 1019.267,822.755 1017.062,826.029 1014.772,829.302 1012.393,832.576 1009.921,835.849 1007.352,839.123 1004.682,842.396 1001.907,845.67 999.02,848.943 996.016,852.217 992.888,855.49 989.629,858.764 986.23,862.037 " />
<line x1="986.23" y1="504.848" x2="986.23" y2="537.963"  stroke="#7f7fff" />
<line x1="986.23" y1="504.848" x2="1074.87" y2="504.848"  stroke="#7f7fff" />
<line x1="986.23" y1="895.152" x2="986.23" y2="862.037"  stroke="#7f7fff" />
<line x1="986.23" y1="895.152" x2="1074.87" y2="895.152"  stroke="#7f7fff" />
<polyline fill="none" stroke="#7f7fff" points="1074.87,504.848 1074.712,508.791 1074.557,512.733 1074.405,516.676 1074.256,520.618 1074.11,524.561 1073.968,528.503 1073.829,532.445 1073.693,536.388 1073.561,540.33 1073.431,544.273 1073.305,548.215 1073.182,552.158 1073.063,556.1 1072.946,560.043 1072.833,563.985 1072.723,567.928 1072.617,571.87 1072.513,575.813 1072.413,579.755 1072.316,583.697 1072.222,587.64 1072.132,591.582 1072.045,595.525 1071.961,599.467 1071.88,603.41 1071.802,607.352 1071.728,611.295 1071.657,615.237 1071.589,619.18 1071.524,623.122 1071.463,627.064 1071.405,631.007 1071.35,634.949 1071.298,638.892 1071.25,642.834 1071.204,646.777 1071.162,650.719 1071.124,654.662 1071.088,658.604 1071.056,662.547 1071.027,666.489 1071.001,670.432 1070.978,674.374 1070.959,678.316 1070.943,682.259 1070.93,686.201 1070.92,690.144 1070.913,694.086 1070.91,698.029 1070.91,701.971 1070.913,705.914 1070.92,709.856 1070.93,713.799 1070.943,717.741 1070.959,721.684 1070.978,725.626 1071.001,729.568 1071.027,733.511 1071.056,737.453 1071.088,741.396 1071.124,745.338 1071.162,749.281 1071.204,753.223 1071.25,757.166 1071.298,761.108 1071.35,765.051 1071.405,768.993 1071.463,772.936 1071.524,776.878 1071.589,780.82 1071.657,784.763 1071.728,788.705 1071.802,792.648 1071.88,796.59 1071.961,800.533 1072.045,804.475 1072.132,808.418 1072.222,812.36 1072.316,816.303 1072.413,820.245 1072.513,824.187 1072.617,828.13 1072.723,832.072 1072.833,836.015 1072.946,839.957 1073.063,843.9 1073.182,847.842 1073.305,851.785 1073.431,855.727 1073.561,859.67 1073.693,863.612 1073.829,867.555 1073.968,871.497 1074.11,875.439 1074.256,879.382 1074.405,883.324 1074.557,887.267 1074.712,891.209 1074.87,895.152 " />
<line x1="1074.87" y1="504.848" x2="1084.861" y2="504.848"  stroke="#7f7fff" />
<line x1="1074.87" y1="895.152" x2="1084.861" y2="895.152"  stroke="#7f7fff" />
<polyline fill="none" stroke="#7f7fff" points="1084.861,504.848 1087.106,508.791 1089.291,512.733 1091.417,516.676 1093.485,520.618 1095.497,524.561 1097.452,528.503 1099.353,532.445 1101.199,536.388 1102.993,540.33 1104.734,544.273 1106.423,548.215 1108.061,552.158 1109.649,556.1 1111.188,560.043 1112.678,563.985 1114.119,567.928 1115.512,571.87 1116.859,575.813 1118.158,579.755 1119.412,583.697 1120.619,587.64 1121.781,591.582 1122.899,595.525 1123.972,599.467 1125,603.41 1125.985,607.352 1126.927,611.295 1127.825,615.237 1128.681,619.18 1129.494,623.122 1130.264,627.064 1130.993,631.007 1131.68,634.949 1132.326,638.892 1132.93,642.834 1133.493,646.777 1134.015,650.719 1134.496,654.662 1134.937,658.604 1135.337,662.547 1135.697,666.489 1136.017,670.432 1136.296,674.374 1136.535,678.316 1136.735,682.259 1136.894,686.201 1137.014,690.144 1137.093,694.086 1137.133,698.029 1137.133,701.971 1137.093,705.914 1137.014,709.856 1136.894,713.799 1136.735,717.741 1136.535,721.684 1136.296,725.626 1136.017,729.568 1135.697,733.511 1135.337,737.453 1134.937,741.396 1134.496,745.338 1134.015,749.281 1133.493,753.223 1132.93,757.166 1132.326,761.108 1131.68,765.051 1130.993,768.993 1130.264,772.936 1129.494,776.878 1128.681,780.82 1127.825,784.763 1126.927,788.705 1125.985,792.648 1125,796.59 1123.972,800.533 1122.899,804.475 1121.781,808.418 1120.619,812.36 1119.412,816.303 1118.158,820.245 1116.859,824.187 1115.512,828.13 1114.119,832.072 1112.678,836.015 1111.188,839.957 1109.649,843.9 1108.061,847.842 1106.423,851.785 1104.734,855.727 1102.993,859.67 1101.199,863.612 1099.353,867.555 1097.452,871.497 1095.497,875.439 1093.485,879.382 1091.417,883.324 1089.291,887.267 1087.106,891.209 1084.861,895.152 " />
</g>
<g>
<polyline fill="none" stroke="#7f7fff" points="1122.271,496.746 1123.018,500.853 1123.749,504.959 1124.465,509.065 1125.164,513.171 1125.849,517.277 1126.517,521.383 1127.17,525.489 1127.807,529.595 1128.429,533.702 1129.036,537.808 1129.626,541.914 1130.202,546.02 1130.762,550.126 1131.306,554.232 1131.836,558.338 1132.35,562.445 1132.848,566.551 1133.331,570.657 1133.799,574.763 1134.252,578.869 1134.689,582.975 1135.111,587.081 1135.518,591.187 1135.91,595.294 1136.286,599.4 1136.648,603.506 1136.994,607.612 1137.325,611.718 1137.641,615.824 1137.941,619.93 1138.227,624.037 1138.497,628.143 1138.753,632.249 1138.993,636.355 1139.218,640.461 1139.429,644.567 1139.624,648.673 1139.804,652.779 1139.969,656.886 1140.119,660.992 1140.254,665.098 1140.374,669.204 1140.479,673.31 1140.569,677.416 1140.644,681.522 1140.704,685.629 1140.749,689.735 1140.779,693.841 1140.794,697.947 1140.794,702.053 1140.779,706.159 1140.749,710.265 1140.704,714.371 1140.644,718.478 1140.569,722.584 1140.479,726.69 1140.374,730.796 1140.254,734.902 1140.119,739.008 1139.969,743.114 1139.804,747.221 1139.624,751.327 1139.429,755.433 1139.218,759.539 1138.993,763.645 1138.753,767.751 1138.497,771.857 1138.227,775.963 1137.941,780.07 1137.641,784.176 1137.325,788.282 1136.994,792.388 1136.648,796.494 1136.286,800.6 1135.91,804.706 1135.518,808.813 1135.111,812.919 1134.689,817.025 1134.252,821.131 1133.799,825.237 1133.331,829.343 1132.848,833.449 1132.35,837.555 1131.836,841.662 1131.306,845.768 1130.762,849.874 1130.202,853.98 1129.626,858.086 1129.036,862.192 1128.429,866.298 1127.807,870.405 1127.17,874.511 1126.517,878.617 1125.849,882.723 1125.164,886.829 1124.465,890.935 1123.749,895.041 1123.018,899.147 1122.271,903.254 " />
<line x1="1122.271" y1="496.746" x2="1135.007" y2="496.746"  stroke="#7f7fff" />
<line x1="1122.271" y1="903.254" x2="1135.007" y2="903.254"  stroke="#7f7fff" />
<polyline fill="none" stroke="#7f7fff" points="1135.007,496.746 1137.738,500.853 1140.39,504.959 1142.965,509.065 1145.464,513.171 1147.89,517.277 1150.243,521.383 1152.527,525.489 1154.742,529.595 1156.889,533.702 1158.97,537.808 1160.987,541.914 1162.939,546.02 1164.83,550.126 1166.659,554.232 1168.427,558.338 1170.137,562.445 1171.787,566.551 1173.38,570.657 1174.916,574.763 1176.396,578.869 1177.821,582.975 1179.191,587.081 1180.507,591.187 1181.769,595.294 1182.979,599.4 1184.136,603.506 1185.241,607.612 1186.295,611.718 1187.299,615.824 1188.252,619.93 1189.154,624.037 1190.008,628.143 1190.812,632.249 1191.567,636.355 1192.273,640.461 1192.931,644.567 1193.541,648.673 1194.103,652.779 1194.618,656.886 1195.085,660.992 1195.505,665.098 1195.877,669.204 1196.203,673.31 1196.482,677.416 1196.715,681.522 1196.901,685.629 1197.04,689.735 1197.133,693.841 1197.179,697.947 1197.179,702.053 1197.133,706.159 1197.04,710.265 1196.901,714.371 1196.715,718.478 1196.482,722.584 1196.203,726.69 1195.877,730.796 1195.505,734.902 1195.085,739.008 1194.618,743.114 1194.103,747.221 1193.541,751.327 1192.931,755.433 1192.273,759.539 1191.567,763.645 1190.812,767.751 1190.008,771.857 1189.154,775.963 1188.252,780.07 1187.299,784.176 1186.295,788.282 1185.241,792.388 1184.136,796.494 1182.979,800.6 1181.769,804.706 1180.507,808.813 1179.191,812.919 1177.821,817.025 1176.396,821.131 1174.916,825.237 1173.38,829.343 1171.787,833.449 1170.137,837.555 1168.427,841.662 1166.659,845.768 1164.83,849.874 1162.939,853.98 1160.987,858.086 1158.97,862.192 1156.889,866.298 1154.742,870.405 1152.527,874.511 1150.243,878.617 1147.89,882.723 1145.464,886.829 1142.965,890.935 1140.39,895.041 1137.738,899.147 1135.007,903.254 " />
</g>
<g>
<polyline fill="none" stroke="#7f7fff" points="1207.967,503.434 1207.6,507.405 1207.241,511.376 1206.89,515.347 1206.546,519.318 1206.21,523.289 1205.881,527.26 1205.56,531.231 1205.246,535.202 1204.94,539.173 1204.641,543.144 1204.35,547.115 1204.067,551.086 1203.79,555.057 1203.522,559.028 1203.261,562.999 1203.007,566.97 1202.761,570.941 1202.522,574.912 1202.291,578.883 1202.067,582.854 1201.851,586.825 1201.642,590.796 1201.441,594.768 1201.247,598.739 1201.061,602.71 1200.882,606.681 1200.71,610.652 1200.546,614.623 1200.39,618.594 1200.241,622.565 1200.099,626.536 1199.965,630.507 1199.838,634.478 1199.719,638.449 1199.607,642.42 1199.503,646.391 1199.406,650.362 1199.317,654.333 1199.235,658.304 1199.161,662.275 1199.094,666.246 1199.034,670.217 1198.982,674.188 1198.937,678.159 1198.9,682.13 1198.87,686.101 1198.848,690.072 1198.833,694.043 1198.826,698.014 1198.826,701.986 1198.833,705.957 1198.848,709.928 1198.87,713.899 1198.9,717.87 1198.937,721.841 1198.982,725.812 1199.034,729.783 1199.094,733.754 1199.161,737.725 1199.235,741.696 1199.317,745.667 1199.406,749.638 1199.503,753.609 1199.607,757.58 1199.719,761.551 1199.838,765.522 1199.965,769.493 1200.099,773.464 1200.241,777.435 1200.39,781.406 1200.546,785.377 1200.71,789.348 1200.882,793.319 1201.061,797.29 1201.247,801.261 1201.441,805.232 1201.642,809.204 1201.851,813.175 1202.067,817.146 1202.291,821.117 1202.522,825.088 1202.761,829.059 1203.007,833.03 1203.261,837.001 1203.522,840.972 1203.79,844.943 1204.067,848.914 1204.35,852.885 1204.641,856.856 1204.94,860.827 1205.246,864.798 1205.56,868.769 1205.881,872.74 1206.21,876.711 1206.546,880.682 1206.89,884.653 1207.241,888.624 1207.6,892.595 1207.967,896.566 " />
<line x1="1207.967" y1="503.434" x2="1223.758" y2="503.434"  stroke="#7f7fff" />
<line x1="1207.967" y1="896.566" x2="1223.758" y2="896.566"  stroke="#7f7fff" />
<polyline fill="none" stroke="#7f7fff" points="1223.758,503.434 1224.22,507.405 1224.673,511.376 1225.116,515.347 1225.55,519.318 1225.974,523.289 1226.389,527.26 1226.794,531.231 1227.19,535.202 1227.576,539.173 1227.953,543.144 1228.32,547.115 1228.678,551.086 1229.026,555.057 1229.364,559.028 1229.694,562.999 1230.013,566.97 1230.324,570.941 1230.624,574.912 1230.916,578.883 1231.198,582.854 1231.47,586.825 1231.733,590.796 1231.987,594.768 1232.231,598.739 1232.466,602.71 1232.691,606.681 1232.907,610.652 1233.114,614.623 1233.311,618.594 1233.498,622.565 1233.677,626.536 1233.846,630.507 1234.005,634.478 1234.155,638.449 1234.296,642.42 1234.427,646.391 1234.549,650.362 1234.662,654.333 1234.765,658.304 1234.859,662.275 1234.943,666.246 1235.018,670.217 1235.084,674.188 1235.14,678.159 1235.187,682.13 1235.224,686.101 1235.252,690.072 1235.271,694.043 1235.28,698.014 1235.28,701.986 1235.271,705.957 1235.252,709.928 1235.224,713.899 1235.187,717.87 1235.14,721.841 1235.084,725.812 1235.018,729.783 1234.943,733.754 1234.859,737.725 1234.765,741.696 1234.662,745.667 1234.549,749.638 1234.427,753.609 1234.296,757.58 1234.155,761.551 1234.005,765.522 1233.846,769.493 1233.677,773.464 1233.498,777.435 1233.311,781.406 1233.114,785.377 1232.907,789.348 1232.691,793.319 1232.466,797.29 1232.231,801.261 1231.987,805.232 1231.733,809.204 1231.47,813.175 1231.198,817.146 1230.916,821.117 1230.624,825.088 1230.324,829.059 1230.013,833.03 1229.694,837.001 1229.364,840.972 1229.026,844.943 1228.678,848.914 1228.32,852.885 1227.953,856.856 1227.576,860.827 1227.19,864.798 1226.794,868.769 1226.389,872.74 1225.974,876.711 1225.55,880.682 1225.116,884.653 1224.673,888.624 1224.22,892.595 1223.758,896.566 " />
</g>
</g>
<g><title>element</title>
<polyline fill="none" stroke="#7f7fff" points="1691.77,144.444 1691.77,155.668 1691.77,166.891 1691.77,178.114 1691.77,189.338 1691.77,200.561 1691.77,211.785 1691.77,223.008 1691.77,234.231 1691.77,245.455 1691.77,256.678 1691.77,267.901 1691.77,279.125 1691.77,290.348 1691.77,301.571 1691.77,312.795 1691.77,324.018 1691.77,335.241 1691.77,346.465 1691.77,357.688 1691.77,368.911 1691.77,380.135 1691.77,391.358 1691.77,402.581 1691.77,413.805 1691.77,425.028 1691.77,436.251 1691.77,447.475 1691.77,458.698 1691.77,469.921 1691.77,481.145 1691.77,492.368 1691.77,503.591 1691.77,514.815 1691.77,526.038 1691.77,537.262 1691.77,548.485 1691.77,559.708 1691.77,570.932 1691.77,582.155 1691.77,593.378 1691.77,604.602 1691.77,615.825 1691.77,627.048 1691.77,638.272 1691.77,649.495 1691.77,660.718 1691.77,671.942 1691.77,683.165 1691.77,694.388 1691.77,705.612 1691.77,716.835 1691.77,728.058 1691.77,739.282 1691.77,750.505 1691.77,761.728 1691.77,772.952 1691.77,784.175 1691.77,795.398 1691.77,806.622 1691.77,817.845 1691.77,829.068 1691.77,840.292 1691.77,851.515 1691.77,862.738 1691.77,873.962 1691.77,885.185 1691.77,896.409 1691.77,907.632 1691.77,918.855 1691.77,930.079 1691.77,941.302 1691.77,952.525 1691.77,963.749 1691.77,974.972 1691.77,986.195 1691.77,997.419 1691.77,1008.642 1691.77,1019.865 1691.77,1031.089 1691.77,1042.312 1691.77,1053.535 1691.77,1064.759 1691.77,1075.982 1691.77,1087.205 1691.77,1098.429 1691.77,1109.652 1691.77,1120.875 1691.77,1132.099 1691.77,1143.322 1691.77,1154.545 1691.77,1165.769 1691.77,1176.992 1691.77,1188.215 1691.77,1199.439 1691.77,1210.662 1691.77,1221.886 1691.77,1233.109 1691.77,1244.332 1691.77,1255.556 " />
</g>
</svg>
