<?xml version="1.0" standalone="no"?>
<svg width="2400px" height="1400px" version="1.1" xmlns="http://www.w3.org/2000/svg"
>
    <rect x="0" y="0" width="2400" height="1400" fill="#ffffff"/>
    <defs>
        <g id="dot">
            <line x1="1" y1="1" x2="0" y2="0"/>
        </g>
        <g id="cross">
            <line x1="-3" y1="0" x2="3" y2="0"/>
            <line x1="0" y1="-3" x2="0" y2="3"/>
        </g>
        <g id="square">
            <line x1="-3" y1="-3" x2="-3" y2="3"/>
            <line x1="-3" y1="3" x2="3" y2="3"/>
            <line x1="3" y1="3" x2="3" y2="-3"/>
            <line x1="3" y1="-3" x2="-3" y2="-3"/>
        </g>
        <g id="round">
            <ellipse cx="0" cy="0" rx="3" ry="3" fill="none"/>
        </g>
        <g id="triangle">
            <line x1="0" y1="-3" x2="-3" y2="3"/>
            <line x1="-3" y1="3" x2="3" y2="3"/>
            <line x1="0" y1="-3" x2="3" y2="3"/>
        </g>
    </defs>
    <line x1="730.285" y1="700" x2="1669.715" y2="700" stroke="#7f7f7f"/>
    <g>
        <title>element</title>
        <g>
            <line x1="961.896" y1="583.88" x2="961.896" y2="467.76" stroke="#7f7fff"/>
            <line x1="961.896" y1="816.12" x2="961.896" y2="932.24" stroke="#7f7fff"/>
        </g>
        <g>
            <polyline fill="none" stroke="#7f7fff"
                      points="762.769,513.915 761.43,517.674 760.123,521.433 758.845,525.193 757.598,528.952 756.381,532.711 755.194,536.47 754.036,540.23 752.908,543.989 751.809,547.748 750.739,551.508 749.698,555.267 748.685,559.026 747.701,562.786 746.745,566.545 745.818,570.304 744.918,574.063 744.047,577.823 743.203,581.582 742.386,585.341 741.598,589.101 740.836,592.86 740.102,596.619 739.396,600.379 738.716,604.138 738.063,607.897 737.437,611.656 736.837,615.416 736.265,619.175 735.719,622.934 735.199,626.694 734.706,630.453 734.24,634.212 733.799,637.972 733.385,641.731 732.997,645.49 732.635,649.249 732.299,653.009 731.99,656.768 731.706,660.527 731.448,664.287 731.216,668.046 731.01,671.805 730.829,675.565 730.675,679.324 730.546,683.083 730.443,686.842 730.366,690.602 730.314,694.361 730.289,698.12 730.289,701.88 730.314,705.639 730.366,709.398 730.443,713.158 730.546,716.917 730.675,720.676 730.829,724.435 731.01,728.195 731.216,731.954 731.448,735.713 731.706,739.473 731.99,743.232 732.299,746.991 732.635,750.751 732.997,754.51 733.385,758.269 733.799,762.028 734.24,765.788 734.706,769.547 735.199,773.306 735.719,777.066 736.265,780.825 736.837,784.584 737.437,788.344 738.063,792.103 738.716,795.862 739.396,799.621 740.102,803.381 740.836,807.14 741.598,810.899 742.386,814.659 743.203,818.418 744.047,822.177 744.918,825.937 745.818,829.696 746.745,833.455 747.701,837.214 748.685,840.974 749.698,844.733 750.739,848.492 751.809,852.252 752.908,856.011 754.036,859.77 755.194,863.53 756.381,867.289 757.598,871.048 758.845,874.807 760.123,878.567 761.43,882.326 762.769,886.085 "/>
            <line x1="787.629" y1="513.915" x2="787.629" y2="526.003" stroke="#7f7fff"/>
            <line x1="762.769" y1="513.915" x2="787.629" y2="513.915" stroke="#7f7fff"/>
            <line x1="787.629" y1="886.085" x2="787.629" y2="873.997" stroke="#7f7fff"/>
            <line x1="762.769" y1="886.085" x2="787.629" y2="886.085" stroke="#7f7fff"/>
            <polyline fill="none" stroke="#7f7fff"
                      points="787.629,526.003 787.388,529.518 787.151,533.033 786.919,536.548 786.693,540.063 786.471,543.579 786.254,547.094 786.042,550.609 785.835,554.124 785.633,557.639 785.436,561.154 785.244,564.669 785.057,568.184 784.875,571.699 784.698,575.214 784.525,578.729 784.358,582.245 784.196,585.76 784.038,589.275 783.886,592.79 783.738,596.305 783.595,599.82 783.457,603.335 783.324,606.85 783.197,610.365 783.074,613.88 782.955,617.395 782.842,620.91 782.734,624.426 782.631,627.941 782.532,631.456 782.439,634.971 782.35,638.486 782.267,642.001 782.188,645.516 782.114,649.031 782.045,652.546 781.981,656.061 781.922,659.576 781.868,663.092 781.819,666.607 781.775,670.122 781.736,673.637 781.701,677.152 781.672,680.667 781.647,684.182 781.627,687.697 781.613,691.212 781.603,694.727 781.598,698.242 781.598,701.758 781.603,705.273 781.613,708.788 781.627,712.303 781.647,715.818 781.672,719.333 781.701,722.848 781.736,726.363 781.775,729.878 781.819,733.393 781.868,736.908 781.922,740.424 781.981,743.939 782.045,747.454 782.114,750.969 782.188,754.484 782.267,757.999 782.35,761.514 782.439,765.029 782.532,768.544 782.631,772.059 782.734,775.574 782.842,779.09 782.955,782.605 783.074,786.12 783.197,789.635 783.324,793.15 783.457,796.665 783.595,800.18 783.738,803.695 783.886,807.21 784.038,810.725 784.196,814.24 784.358,817.755 784.525,821.271 784.698,824.786 784.875,828.301 785.057,831.816 785.244,835.331 785.436,838.846 785.633,842.361 785.835,845.876 786.042,849.391 786.254,852.906 786.471,856.421 786.693,859.937 786.919,863.452 787.151,866.967 787.388,870.482 787.629,873.997 "/>
        </g>
        <g>
            <polyline fill="none" stroke="#7f7fff"
                      points="834.149,545.55 831.928,548.671 829.774,551.791 827.685,554.911 825.66,558.031 823.697,561.151 821.793,564.272 819.949,567.392 818.161,570.512 816.429,573.632 814.752,576.752 813.129,579.873 811.557,582.993 810.038,586.113 808.568,589.233 807.148,592.353 805.776,595.474 804.453,598.594 803.176,601.714 801.945,604.834 800.76,607.954 799.62,611.074 798.524,614.195 797.471,617.315 796.462,620.435 795.496,623.555 794.571,626.675 793.689,629.796 792.847,632.916 792.047,636.036 791.286,639.156 790.566,642.276 789.886,645.397 789.245,648.517 788.643,651.637 788.08,654.757 787.556,657.877 787.07,660.998 786.623,664.118 786.213,667.238 785.841,670.358 785.507,673.478 785.21,676.599 784.951,679.719 784.728,682.839 784.543,685.959 784.396,689.079 784.285,692.2 784.211,695.32 784.174,698.44 784.174,701.56 784.211,704.68 784.285,707.8 784.396,710.921 784.543,714.041 784.728,717.161 784.951,720.281 785.21,723.401 785.507,726.522 785.841,729.642 786.213,732.762 786.623,735.882 787.07,739.002 787.556,742.123 788.08,745.243 788.643,748.363 789.245,751.483 789.886,754.603 790.566,757.724 791.286,760.844 792.047,763.964 792.847,767.084 793.689,770.204 794.571,773.325 795.496,776.445 796.462,779.565 797.471,782.685 798.524,785.805 799.62,788.926 800.76,792.046 801.945,795.166 803.176,798.286 804.453,801.406 805.776,804.526 807.148,807.647 808.568,810.767 810.038,813.887 811.557,817.007 813.129,820.127 814.752,823.248 816.429,826.368 818.161,829.488 819.949,832.608 821.793,835.728 823.697,838.849 825.66,841.969 827.685,845.089 829.774,848.209 831.928,851.329 834.149,854.45 "/>
            <line x1="876.505" y1="545.55" x2="876.505" y2="561.818" stroke="#7f7fff"/>
            <line x1="834.149" y1="545.55" x2="876.505" y2="545.55" stroke="#7f7fff"/>
            <line x1="876.505" y1="854.45" x2="876.505" y2="838.182" stroke="#7f7fff"/>
            <line x1="834.149" y1="854.45" x2="876.505" y2="854.45" stroke="#7f7fff"/>
            <polyline fill="none" stroke="#7f7fff"
                      points="876.505,561.818 876.505,564.61 876.505,567.402 876.505,570.193 876.505,572.985 876.505,575.776 876.505,578.568 876.505,581.359 876.505,584.151 876.505,586.942 876.505,589.734 876.505,592.525 876.505,595.317 876.505,598.109 876.505,600.9 876.505,603.692 876.505,606.483 876.505,609.275 876.505,612.066 876.505,614.858 876.505,617.649 876.505,620.441 876.505,623.232 876.505,626.024 876.505,628.816 876.505,631.607 876.505,634.399 876.505,637.19 876.505,639.982 876.505,642.773 876.505,645.565 876.505,648.356 876.505,651.148 876.505,653.939 876.505,656.731 876.505,659.523 876.505,662.314 876.505,665.106 876.505,667.897 876.505,670.689 876.505,673.48 876.505,676.272 876.505,679.063 876.505,681.855 876.505,684.646 876.505,687.438 876.505,690.23 876.505,693.021 876.505,695.813 876.505,698.604 876.505,701.396 876.505,704.187 876.505,706.979 876.505,709.77 876.505,712.562 876.505,715.354 876.505,718.145 876.505,720.937 876.505,723.728 876.505,726.52 876.505,729.311 876.505,732.103 876.505,734.894 876.505,737.686 876.505,740.477 876.505,743.269 876.505,746.061 876.505,748.852 876.505,751.644 876.505,754.435 876.505,757.227 876.505,760.018 876.505,762.81 876.505,765.601 876.505,768.393 876.505,771.184 876.505,773.976 876.505,776.768 876.505,779.559 876.505,782.351 876.505,785.142 876.505,787.934 876.505,790.725 876.505,793.517 876.505,796.308 876.505,799.1 876.505,801.891 876.505,804.683 876.505,807.475 876.505,810.266 876.505,813.058 876.505,815.849 876.505,818.641 876.505,821.432 876.505,824.224 876.505,827.015 876.505,829.807 876.505,832.598 876.505,835.39 876.505,838.182 "/>
            <line x1="933.794" y1="561.818" x2="933.794" y2="581.752" stroke="#7f7fff"/>
            <line x1="876.505" y1="561.818" x2="933.794" y2="561.818" stroke="#7f7fff"/>
            <line x1="933.794" y1="838.182" x2="933.794" y2="818.248" stroke="#7f7fff"/>
            <line x1="876.505" y1="838.182" x2="933.794" y2="838.182" stroke="#7f7fff"/>
            <polyline fill="none" stroke="#7f7fff"
                      points="933.794,581.752 931.958,584.14 930.181,586.529 928.461,588.918 926.795,591.307 925.182,593.696 923.621,596.085 922.11,598.474 920.647,600.862 919.231,603.251 917.862,605.64 916.537,608.029 915.257,610.418 914.019,612.807 912.823,615.196 911.668,617.584 910.554,619.973 909.479,622.362 908.443,624.751 907.445,627.14 906.485,629.529 905.561,631.918 904.674,634.306 903.823,636.695 903.007,639.084 902.225,641.473 901.479,643.862 900.766,646.251 900.086,648.64 899.44,651.028 898.827,653.417 898.246,655.806 897.697,658.195 897.181,660.584 896.696,662.973 896.242,665.362 895.82,667.75 895.429,670.139 895.068,672.528 894.738,674.917 894.439,677.306 894.17,679.695 893.931,682.084 893.723,684.472 893.544,686.861 893.395,689.25 893.276,691.639 893.187,694.028 893.128,696.417 893.098,698.806 893.098,701.194 893.128,703.583 893.187,705.972 893.276,708.361 893.395,710.75 893.544,713.139 893.723,715.528 893.931,717.916 894.17,720.305 894.439,722.694 894.738,725.083 895.068,727.472 895.429,729.861 895.82,732.25 896.242,734.638 896.696,737.027 897.181,739.416 897.697,741.805 898.246,744.194 898.827,746.583 899.44,748.972 900.086,751.36 900.766,753.749 901.479,756.138 902.225,758.527 903.007,760.916 903.823,763.305 904.674,765.694 905.561,768.082 906.485,770.471 907.445,772.86 908.443,775.249 909.479,777.638 910.554,780.027 911.668,782.416 912.823,784.804 914.019,787.193 915.257,789.582 916.537,791.971 917.862,794.36 919.231,796.749 920.647,799.138 922.11,801.526 923.621,803.915 925.182,806.304 926.795,808.693 928.461,811.082 930.181,813.471 931.958,815.86 933.794,818.248 "/>
        </g>
        <g>
            <polyline fill="none" stroke="#7f7fff"
                      points="1023.361,587.474 1024.979,589.748 1026.547,592.021 1028.068,594.294 1029.543,596.567 1030.973,598.841 1032.359,601.114 1033.703,603.387 1035.004,605.66 1036.266,607.934 1037.487,610.207 1038.669,612.48 1039.814,614.753 1040.921,617.026 1041.991,619.3 1043.025,621.573 1044.024,623.846 1044.988,626.119 1045.918,628.393 1046.814,630.666 1047.677,632.939 1048.508,635.212 1049.306,637.486 1050.072,639.759 1050.807,642.032 1051.511,644.305 1052.185,646.579 1052.827,648.852 1053.44,651.125 1054.023,653.398 1054.577,655.672 1055.102,657.945 1055.597,660.218 1056.064,662.491 1056.502,664.765 1056.912,667.038 1057.294,669.311 1057.648,671.584 1057.974,673.858 1058.272,676.131 1058.543,678.404 1058.787,680.677 1059.003,682.951 1059.192,685.224 1059.354,687.497 1059.488,689.77 1059.596,692.044 1059.677,694.317 1059.731,696.59 1059.757,698.863 1059.757,701.137 1059.731,703.41 1059.677,705.683 1059.596,707.956 1059.488,710.23 1059.354,712.503 1059.192,714.776 1059.003,717.049 1058.787,719.323 1058.543,721.596 1058.272,723.869 1057.974,726.142 1057.648,728.416 1057.294,730.689 1056.912,732.962 1056.502,735.235 1056.064,737.509 1055.597,739.782 1055.102,742.055 1054.577,744.328 1054.023,746.602 1053.44,748.875 1052.827,751.148 1052.185,753.421 1051.511,755.695 1050.807,757.968 1050.072,760.241 1049.306,762.514 1048.508,764.788 1047.677,767.061 1046.814,769.334 1045.918,771.607 1044.988,773.881 1044.024,776.154 1043.025,778.427 1041.991,780.7 1040.921,782.974 1039.814,785.247 1038.669,787.52 1037.487,789.793 1036.266,792.066 1035.004,794.34 1033.703,796.613 1032.359,798.886 1030.973,801.159 1029.543,803.433 1028.068,805.706 1026.547,807.979 1024.979,810.252 1023.361,812.526 "/>
            <line x1="1023.361" y1="576.093" x2="1023.361" y2="587.474" stroke="#7f7fff"/>
            <line x1="1023.361" y1="576.093" x2="1072.621" y2="576.093" stroke="#7f7fff"/>
            <line x1="1023.361" y1="823.907" x2="1023.361" y2="812.526" stroke="#7f7fff"/>
            <line x1="1023.361" y1="823.907" x2="1072.621" y2="823.907" stroke="#7f7fff"/>
            <polyline fill="none" stroke="#7f7fff"
                      points="1072.621,576.093 1072.621,578.596 1072.621,581.099 1072.621,583.603 1072.621,586.106 1072.621,588.609 1072.621,591.112 1072.621,593.615 1072.621,596.118 1072.621,598.622 1072.621,601.125 1072.621,603.628 1072.621,606.131 1072.621,608.634 1072.621,611.137 1072.621,613.641 1072.621,616.144 1072.621,618.647 1072.621,621.15 1072.621,623.653 1072.621,626.156 1072.621,628.66 1072.621,631.163 1072.621,633.666 1072.621,636.169 1072.621,638.672 1072.621,641.176 1072.621,643.679 1072.621,646.182 1072.621,648.685 1072.621,651.188 1072.621,653.691 1072.621,656.195 1072.621,658.698 1072.621,661.201 1072.621,663.704 1072.621,666.207 1072.621,668.71 1072.621,671.214 1072.621,673.717 1072.621,676.22 1072.621,678.723 1072.621,681.226 1072.621,683.729 1072.621,686.233 1072.621,688.736 1072.621,691.239 1072.621,693.742 1072.621,696.245 1072.621,698.748 1072.621,701.252 1072.621,703.755 1072.621,706.258 1072.621,708.761 1072.621,711.264 1072.621,713.767 1072.621,716.271 1072.621,718.774 1072.621,721.277 1072.621,723.78 1072.621,726.283 1072.621,728.786 1072.621,731.29 1072.621,733.793 1072.621,736.296 1072.621,738.799 1072.621,741.302 1072.621,743.805 1072.621,746.309 1072.621,748.812 1072.621,751.315 1072.621,753.818 1072.621,756.321 1072.621,758.824 1072.621,761.328 1072.621,763.831 1072.621,766.334 1072.621,768.837 1072.621,771.34 1072.621,773.844 1072.621,776.347 1072.621,778.85 1072.621,781.353 1072.621,783.856 1072.621,786.359 1072.621,788.863 1072.621,791.366 1072.621,793.869 1072.621,796.372 1072.621,798.875 1072.621,801.378 1072.621,803.882 1072.621,806.385 1072.621,808.888 1072.621,811.391 1072.621,813.894 1072.621,816.397 1072.621,818.901 1072.621,821.404 1072.621,823.907 "/>
            <line x1="1072.621" y1="568.956" x2="1072.621" y2="576.093" stroke="#7f7fff"/>
            <line x1="1072.621" y1="568.956" x2="1104.874" y2="568.956" stroke="#7f7fff"/>
            <line x1="1072.621" y1="831.044" x2="1072.621" y2="823.907" stroke="#7f7fff"/>
            <line x1="1072.621" y1="831.044" x2="1104.874" y2="831.044" stroke="#7f7fff"/>
            <polyline fill="none" stroke="#7f7fff"
                      points="1104.874,568.956 1106.371,571.603 1107.827,574.25 1109.244,576.898 1110.623,579.545 1111.964,582.193 1113.268,584.84 1114.536,587.487 1115.767,590.135 1116.963,592.782 1118.124,595.429 1119.251,598.077 1120.344,600.724 1121.404,603.371 1122.43,606.019 1123.424,608.666 1124.386,611.313 1125.315,613.961 1126.214,616.608 1127.081,619.256 1127.917,621.903 1128.723,624.55 1129.499,627.198 1130.245,629.845 1130.961,632.492 1131.647,635.14 1132.305,637.787 1132.933,640.434 1133.533,643.082 1134.104,645.729 1134.647,648.377 1135.161,651.024 1135.648,653.671 1136.107,656.319 1136.537,658.966 1136.941,661.613 1137.317,664.261 1137.665,666.908 1137.987,669.555 1138.281,672.203 1138.548,674.85 1138.788,677.497 1139.002,680.145 1139.188,682.792 1139.348,685.44 1139.481,688.087 1139.588,690.734 1139.667,693.382 1139.721,696.029 1139.747,698.676 1139.747,701.324 1139.721,703.971 1139.667,706.618 1139.588,709.266 1139.481,711.913 1139.348,714.56 1139.188,717.208 1139.002,719.855 1138.788,722.503 1138.548,725.15 1138.281,727.797 1137.987,730.445 1137.665,733.092 1137.317,735.739 1136.941,738.387 1136.537,741.034 1136.107,743.681 1135.648,746.329 1135.161,748.976 1134.647,751.623 1134.104,754.271 1133.533,756.918 1132.933,759.566 1132.305,762.213 1131.647,764.86 1130.961,767.508 1130.245,770.155 1129.499,772.802 1128.723,775.45 1127.917,778.097 1127.081,780.744 1126.214,783.392 1125.315,786.039 1124.386,788.687 1123.424,791.334 1122.43,793.981 1121.404,796.629 1120.344,799.276 1119.251,801.923 1118.124,804.571 1116.963,807.218 1115.767,809.865 1114.536,812.513 1113.268,815.16 1111.964,817.807 1110.623,820.455 1109.244,823.102 1107.827,825.75 1106.371,828.397 1104.874,831.044 "/>
        </g>
        <g>
            <polyline fill="none" stroke="#7f7fff"
                      points="1142.323,552.366 1142.323,555.349 1142.323,558.331 1142.323,561.314 1142.323,564.296 1142.323,567.279 1142.323,570.261 1142.323,573.244 1142.323,576.226 1142.323,579.209 1142.323,582.191 1142.323,585.174 1142.323,588.156 1142.323,591.139 1142.323,594.121 1142.323,597.104 1142.323,600.086 1142.323,603.069 1142.323,606.051 1142.323,609.034 1142.323,612.016 1142.323,614.999 1142.323,617.981 1142.323,620.964 1142.323,623.946 1142.323,626.929 1142.323,629.911 1142.323,632.894 1142.323,635.876 1142.323,638.859 1142.323,641.841 1142.323,644.824 1142.323,647.806 1142.323,650.789 1142.323,653.771 1142.323,656.754 1142.323,659.736 1142.323,662.719 1142.323,665.701 1142.323,668.684 1142.323,671.666 1142.323,674.649 1142.323,677.631 1142.323,680.614 1142.323,683.596 1142.323,686.579 1142.323,689.561 1142.323,692.544 1142.323,695.526 1142.323,698.509 1142.323,701.491 1142.323,704.474 1142.323,707.456 1142.323,710.439 1142.323,713.421 1142.323,716.404 1142.323,719.386 1142.323,722.369 1142.323,725.351 1142.323,728.334 1142.323,731.316 1142.323,734.299 1142.323,737.281 1142.323,740.264 1142.323,743.246 1142.323,746.229 1142.323,749.211 1142.323,752.194 1142.323,755.176 1142.323,758.159 1142.323,761.141 1142.323,764.124 1142.323,767.106 1142.323,770.089 1142.323,773.071 1142.323,776.054 1142.323,779.036 1142.323,782.019 1142.323,785.001 1142.323,787.984 1142.323,790.966 1142.323,793.949 1142.323,796.931 1142.323,799.914 1142.323,802.896 1142.323,805.879 1142.323,808.861 1142.323,811.844 1142.323,814.826 1142.323,817.809 1142.323,820.791 1142.323,823.774 1142.323,826.756 1142.323,829.739 1142.323,832.721 1142.323,835.704 1142.323,838.686 1142.323,841.669 1142.323,844.651 1142.323,847.634 "/>
            <line x1="1142.323" y1="545.872" x2="1142.323" y2="552.366" stroke="#7f7fff"/>
            <line x1="1142.323" y1="545.872" x2="1167.708" y2="545.872" stroke="#7f7fff"/>
            <line x1="1142.323" y1="854.128" x2="1142.323" y2="847.634" stroke="#7f7fff"/>
            <line x1="1142.323" y1="854.128" x2="1167.708" y2="854.128" stroke="#7f7fff"/>
            <polyline fill="none" stroke="#7f7fff"
                      points="1167.708,545.872 1168.608,548.986 1169.489,552.099 1170.349,555.213 1171.19,558.327 1172.012,561.44 1172.814,564.554 1173.596,567.668 1174.36,570.782 1175.104,573.895 1175.829,577.009 1176.535,580.123 1177.222,583.236 1177.89,586.35 1178.539,589.464 1179.169,592.577 1179.781,595.691 1180.374,598.805 1180.948,601.918 1181.504,605.032 1182.041,608.146 1182.56,611.26 1183.061,614.373 1183.543,617.487 1184.007,620.601 1184.453,623.714 1184.88,626.828 1185.29,629.942 1185.681,633.055 1186.055,636.169 1186.41,639.283 1186.747,642.397 1187.067,645.51 1187.368,648.624 1187.652,651.738 1187.917,654.851 1188.165,657.965 1188.395,661.079 1188.608,664.192 1188.802,667.306 1188.979,670.42 1189.138,673.534 1189.28,676.647 1189.403,679.761 1189.509,682.875 1189.597,685.988 1189.668,689.102 1189.721,692.216 1189.756,695.329 1189.774,698.443 1189.774,701.557 1189.756,704.671 1189.721,707.784 1189.668,710.898 1189.597,714.012 1189.509,717.125 1189.403,720.239 1189.28,723.353 1189.138,726.466 1188.979,729.58 1188.802,732.694 1188.608,735.808 1188.395,738.921 1188.165,742.035 1187.917,745.149 1187.652,748.262 1187.368,751.376 1187.067,754.49 1186.747,757.603 1186.41,760.717 1186.055,763.831 1185.681,766.945 1185.29,770.058 1184.88,773.172 1184.453,776.286 1184.007,779.399 1183.543,782.513 1183.061,785.627 1182.56,788.74 1182.041,791.854 1181.504,794.968 1180.948,798.082 1180.374,801.195 1179.781,804.309 1179.169,807.423 1178.539,810.536 1177.89,813.65 1177.222,816.764 1176.535,819.877 1175.829,822.991 1175.104,826.105 1174.36,829.218 1173.596,832.332 1172.814,835.446 1172.012,838.56 1171.19,841.673 1170.349,844.787 1169.489,847.901 1168.608,851.014 1167.708,854.128 "/>
        </g>
    </g>
    <g>
        <title>element</title>
        <polyline fill="none" stroke="#7f7fff"
                  points="1669.715,144.444 1669.715,155.668 1669.715,166.891 1669.715,178.114 1669.715,189.338 1669.715,200.561 1669.715,211.785 1669.715,223.008 1669.715,234.231 1669.715,245.455 1669.715,256.678 1669.715,267.901 1669.715,279.125 1669.715,290.348 1669.715,301.571 1669.715,312.795 1669.715,324.018 1669.715,335.241 1669.715,346.465 1669.715,357.688 1669.715,368.911 1669.715,380.135 1669.715,391.358 1669.715,402.581 1669.715,413.805 1669.715,425.028 1669.715,436.251 1669.715,447.475 1669.715,458.698 1669.715,469.921 1669.715,481.145 1669.715,492.368 1669.715,503.591 1669.715,514.815 1669.715,526.038 1669.715,537.262 1669.715,548.485 1669.715,559.708 1669.715,570.932 1669.715,582.155 1669.715,593.378 1669.715,604.602 1669.715,615.825 1669.715,627.048 1669.715,638.272 1669.715,649.495 1669.715,660.718 1669.715,671.942 1669.715,683.165 1669.715,694.388 1669.715,705.612 1669.715,716.835 1669.715,728.058 1669.715,739.282 1669.715,750.505 1669.715,761.728 1669.715,772.952 1669.715,784.175 1669.715,795.398 1669.715,806.622 1669.715,817.845 1669.715,829.068 1669.715,840.292 1669.715,851.515 1669.715,862.738 1669.715,873.962 1669.715,885.185 1669.715,896.409 1669.715,907.632 1669.715,918.855 1669.715,930.079 1669.715,941.302 1669.715,952.525 1669.715,963.749 1669.715,974.972 1669.715,986.195 1669.715,997.419 1669.715,1008.642 1669.715,1019.865 1669.715,1031.089 1669.715,1042.312 1669.715,1053.535 1669.715,1064.759 1669.715,1075.982 1669.715,1087.205 1669.715,1098.429 1669.715,1109.652 1669.715,1120.875 1669.715,1132.099 1669.715,1143.322 1669.715,1154.545 1669.715,1165.769 1669.715,1176.992 1669.715,1188.215 1669.715,1199.439 1669.715,1210.662 1669.715,1221.886 1669.715,1233.109 1669.715,1244.332 1669.715,1255.556 "/>
    </g>
</svg>
