<?xml version="1.0" standalone="no"?>
<svg width="2400px" height="1400px" version="1.1" xmlns="http://www.w3.org/2000/svg" xmlns:xlink="http://www.w3.org/1999/xlink">
<rect x="0" y="0" width="2400" height="1400"  fill="#ffffff" />
<defs>
<g id="dot">
<line x1="1" y1="1" x2="0" y2="0"  />
</g>
<g id="cross">
<line x1="-3" y1="0" x2="3" y2="0"  />
<line x1="0" y1="-3" x2="0" y2="3"  />
</g>
<g id="square">
<line x1="-3" y1="-3" x2="-3" y2="3"  />
<line x1="-3" y1="3" x2="3" y2="3"  />
<line x1="3" y1="3" x2="3" y2="-3"  />
<line x1="3" y1="-3" x2="-3" y2="-3"  />
</g>
<g id="round">
<ellipse cx="0" cy="0" rx="3" ry="3"  fill="none" /></g>
<g id="triangle">
<line x1="0" y1="-3" x2="-3" y2="3"  />
<line x1="-3" y1="3" x2="3" y2="3"  />
<line x1="0" y1="-3" x2="3" y2="3"  />
</g>
</defs>
<line x1="288.201" y1="700" x2="2111.799" y2="700"  stroke="#7f7f7f" />
<g><title>element</title>
<g>
<line x1="921.49" y1="418.241" x2="921.49" y2="136.482"  stroke="#7f7fff" />
<line x1="921.49" y1="981.759" x2="921.49" y2="1263.518"  stroke="#7f7fff" />
</g>
<g>
<line x1="1294.739" y1="507.726" x2="1294.739" y2="315.452"  stroke="#7f7fff" />
<line x1="1294.739" y1="892.274" x2="1294.739" y2="1084.548"  stroke="#7f7fff" />
</g>
<g>
<polyline fill="none" stroke="#7f7fff" points="400.796,299.065 395.925,307.165 391.188,315.264 386.582,323.364 382.104,331.464 377.753,339.564 373.524,347.663 369.417,355.763 365.429,363.863 361.558,371.962 357.802,380.062 354.159,388.162 350.628,396.261 347.206,404.361 343.892,412.461 340.686,420.561 337.584,428.66 334.587,436.76 331.692,444.86 328.898,452.959 326.205,461.059 323.611,469.159 321.115,477.258 318.716,485.358 316.414,493.458 314.206,501.557 312.093,509.657 310.074,517.757 308.148,525.857 306.313,533.956 304.571,542.056 302.919,550.156 301.357,558.255 299.885,566.355 298.502,574.455 297.208,582.554 296.003,590.654 294.885,598.754 293.854,606.854 292.911,614.953 292.054,623.053 291.284,631.153 290.6,639.252 290.002,647.352 289.49,655.452 289.064,663.551 288.722,671.651 288.467,679.751 288.296,687.85 288.211,695.95 288.211,704.05 288.296,712.15 288.467,720.249 288.722,728.349 289.064,736.449 289.49,744.548 290.002,752.648 290.6,760.748 291.284,768.847 292.054,776.947 292.911,785.047 293.854,793.146 294.885,801.246 296.003,809.346 297.208,817.446 298.502,825.545 299.885,833.645 301.357,841.745 302.919,849.844 304.571,857.944 306.313,866.044 308.148,874.143 310.074,882.243 312.093,890.343 314.206,898.443 316.414,906.542 318.716,914.642 321.115,922.742 323.611,930.841 326.205,938.941 328.898,947.041 331.692,955.14 334.587,963.24 337.584,971.34 340.686,979.439 343.892,987.539 347.206,995.639 350.628,1003.739 354.159,1011.838 357.802,1019.938 361.558,1028.038 365.429,1036.137 369.417,1044.237 373.524,1052.337 377.753,1060.436 382.104,1068.536 386.582,1076.636 391.188,1084.736 395.925,1092.835 400.796,1100.935 " />
<line x1="400.796" y1="299.065" x2="420.467" y2="299.065"  stroke="#7f7fff" />
<line x1="400.796" y1="1100.935" x2="420.467" y2="1100.935"  stroke="#7f7fff" />
<polyline fill="none" stroke="#7f7fff" points="420.467,299.065 419.043,307.165 417.648,315.264 416.283,323.364 414.948,331.464 413.643,339.564 412.368,347.663 411.122,355.763 409.906,363.863 408.719,371.962 407.562,380.062 406.435,388.162 405.337,396.261 404.268,404.361 403.229,412.461 402.219,420.561 401.238,428.66 400.286,436.76 399.364,444.86 398.471,452.959 397.607,461.059 396.772,469.159 395.967,477.258 395.19,485.358 394.442,493.458 393.724,501.557 393.034,509.657 392.373,517.757 391.741,525.857 391.138,533.956 390.564,542.056 390.019,550.156 389.502,558.255 389.015,566.355 388.556,574.455 388.126,582.554 387.724,590.654 387.351,598.754 387.008,606.854 386.692,614.953 386.406,623.053 386.148,631.153 385.919,639.252 385.718,647.352 385.546,655.452 385.403,663.551 385.289,671.651 385.203,679.751 385.145,687.85 385.117,695.95 385.117,704.05 385.145,712.15 385.203,720.249 385.289,728.349 385.403,736.449 385.546,744.548 385.718,752.648 385.919,760.748 386.148,768.847 386.406,776.947 386.692,785.047 387.008,793.146 387.351,801.246 387.724,809.346 388.126,817.446 388.556,825.545 389.015,833.645 389.502,841.745 390.019,849.844 390.564,857.944 391.138,866.044 391.741,874.143 392.373,882.243 393.034,890.343 393.724,898.443 394.442,906.542 395.19,914.642 395.967,922.742 396.772,930.841 397.607,938.941 398.471,947.041 399.364,955.14 400.286,963.24 401.238,971.34 402.219,979.439 403.229,987.539 404.268,995.639 405.337,1003.739 406.435,1011.838 407.562,1019.938 408.719,1028.038 409.906,1036.137 411.122,1044.237 412.368,1052.337 413.643,1060.436 414.948,1068.536 416.283,1076.636 417.648,1084.736 419.043,1092.835 420.467,1100.935 " />
</g>
<g>
<polyline fill="none" stroke="#7f7fff" points="423.453,314.476 422.233,322.264 421.038,330.053 419.869,337.841 418.725,345.629 417.607,353.418 416.514,361.206 415.446,368.994 414.404,376.783 413.387,384.571 412.395,392.359 411.428,400.148 410.487,407.936 409.57,415.725 408.679,423.513 407.813,431.301 406.971,439.09 406.155,446.878 405.364,454.666 404.598,462.455 403.856,470.243 403.14,478.032 402.448,485.82 401.782,493.608 401.14,501.397 400.523,509.185 399.931,516.973 399.364,524.762 398.821,532.55 398.304,540.338 397.811,548.127 397.342,555.915 396.899,563.704 396.48,571.492 396.086,579.28 395.717,587.069 395.372,594.857 395.052,602.645 394.757,610.434 394.486,618.222 394.24,626.011 394.018,633.799 393.821,641.587 393.649,649.376 393.501,657.164 393.378,664.952 393.28,672.741 393.206,680.529 393.157,688.317 393.132,696.106 393.132,703.894 393.157,711.683 393.206,719.471 393.28,727.259 393.378,735.048 393.501,742.836 393.649,750.624 393.821,758.413 394.018,766.201 394.24,773.989 394.486,781.778 394.757,789.566 395.052,797.355 395.372,805.143 395.717,812.931 396.086,820.72 396.48,828.508 396.899,836.296 397.342,844.085 397.811,851.873 398.304,859.662 398.821,867.45 399.364,875.238 399.931,883.027 400.523,890.815 401.14,898.603 401.782,906.392 402.448,914.18 403.14,921.968 403.856,929.757 404.598,937.545 405.364,945.334 406.155,953.122 406.971,960.91 407.813,968.699 408.679,976.487 409.57,984.275 410.487,992.064 411.428,999.852 412.395,1007.641 413.387,1015.429 414.404,1023.217 415.446,1031.006 416.514,1038.794 417.607,1046.582 418.725,1054.371 419.869,1062.159 421.038,1069.947 422.233,1077.736 423.453,1085.524 " />
<line x1="565.432" y1="314.476" x2="565.432" y2="405.399"  stroke="#7f7fff" />
<line x1="423.453" y1="314.476" x2="565.432" y2="314.476"  stroke="#7f7fff" />
<line x1="565.432" y1="1085.524" x2="565.432" y2="994.601"  stroke="#7f7fff" />
<line x1="423.453" y1="1085.524" x2="565.432" y2="1085.524"  stroke="#7f7fff" />
<polyline fill="none" stroke="#7f7fff" points="565.432,405.399 557.769,411.35 550.502,417.302 543.596,423.253 537.02,429.205 530.75,435.157 524.763,441.108 519.042,447.06 513.568,453.011 508.328,458.963 503.309,464.914 498.499,470.866 493.887,476.817 489.466,482.769 485.226,488.72 481.16,494.672 477.261,500.623 473.523,506.575 469.941,512.527 466.508,518.478 463.22,524.43 460.074,530.381 457.064,536.333 454.187,542.284 451.441,548.236 448.82,554.187 446.324,560.139 443.949,566.09 441.692,572.042 439.551,577.993 437.524,583.945 435.61,589.897 433.806,595.848 432.11,601.8 430.522,607.751 429.039,613.703 427.66,619.654 426.385,625.606 425.212,631.557 424.14,637.509 423.168,643.46 422.295,649.412 421.522,655.363 420.846,661.315 420.268,667.267 419.786,673.218 419.402,679.17 419.114,685.121 418.922,691.073 418.826,697.024 418.826,702.976 418.922,708.927 419.114,714.879 419.402,720.83 419.786,726.782 420.268,732.733 420.846,738.685 421.522,744.637 422.295,750.588 423.168,756.54 424.14,762.491 425.212,768.443 426.385,774.394 427.66,780.346 429.039,786.297 430.522,792.249 432.11,798.2 433.806,804.152 435.61,810.103 437.524,816.055 439.551,822.007 441.692,827.958 443.949,833.91 446.324,839.861 448.82,845.813 451.441,851.764 454.187,857.716 457.064,863.667 460.074,869.619 463.22,875.57 466.508,881.522 469.941,887.473 473.523,893.425 477.261,899.377 481.16,905.328 485.226,911.28 489.466,917.231 493.887,923.183 498.499,929.134 503.309,935.086 508.328,941.037 513.568,946.989 519.042,952.94 524.763,958.892 530.75,964.843 537.02,970.795 543.596,976.747 550.502,982.698 557.769,988.65 565.432,994.601 " />
</g>
<g>
<polyline fill="none" stroke="#7f7fff" points="573.494,401.033 575.671,407.072 577.798,413.112 579.875,419.152 581.903,425.192 583.883,431.231 585.813,437.271 587.696,443.311 589.53,449.35 591.317,455.39 593.057,461.43 594.75,467.47 596.396,473.509 597.996,479.549 599.55,485.589 601.057,491.629 602.519,497.668 603.936,503.708 605.308,509.748 606.634,515.788 607.916,521.827 609.153,527.867 610.346,533.907 611.495,539.947 612.6,545.986 613.66,552.026 614.678,558.066 615.651,564.106 616.582,570.145 617.469,576.185 618.313,582.225 619.114,588.265 619.872,594.304 620.588,600.344 621.261,606.384 621.891,612.424 622.479,618.463 623.024,624.503 623.528,630.543 623.989,636.583 624.408,642.622 624.785,648.662 625.119,654.702 625.412,660.742 625.663,666.781 625.873,672.821 626.04,678.861 626.165,684.901 626.249,690.94 626.291,696.98 626.291,703.02 626.249,709.06 626.165,715.099 626.04,721.139 625.873,727.179 625.663,733.219 625.412,739.258 625.119,745.298 624.785,751.338 624.408,757.378 623.989,763.417 623.528,769.457 623.024,775.497 622.479,781.537 621.891,787.576 621.261,793.616 620.588,799.656 619.872,805.696 619.114,811.735 618.313,817.775 617.469,823.815 616.582,829.855 615.651,835.894 614.678,841.934 613.66,847.974 612.6,854.014 611.495,860.053 610.346,866.093 609.153,872.133 607.916,878.173 606.634,884.212 605.308,890.252 603.936,896.292 602.519,902.332 601.057,908.371 599.55,914.411 597.996,920.451 596.396,926.491 594.75,932.53 593.057,938.57 591.317,944.61 589.53,950.65 587.696,956.689 585.813,962.729 583.883,968.769 581.903,974.808 579.875,980.848 577.798,986.888 575.671,992.928 573.494,998.967 " />
<line x1="573.494" y1="401.033" x2="583.181" y2="401.033"  stroke="#7f7fff" />
<line x1="573.494" y1="998.967" x2="583.181" y2="998.967"  stroke="#7f7fff" />
<polyline fill="none" stroke="#7f7fff" points="583.181,401.033 594.215,407.072 604.36,413.112 613.761,419.152 622.526,425.192 630.737,431.231 638.457,437.271 645.739,443.311 652.626,449.35 659.151,455.39 665.346,461.43 671.234,467.47 676.839,473.509 682.178,479.549 687.267,485.589 692.122,491.629 696.754,497.668 701.176,503.708 705.396,509.748 709.424,515.788 713.269,521.827 716.937,527.867 720.435,533.907 723.769,539.947 726.945,545.986 729.967,552.026 732.84,558.066 735.569,564.106 738.156,570.145 740.606,576.185 742.922,582.225 745.106,588.265 747.161,594.304 749.091,600.344 750.896,606.384 752.58,612.424 754.143,618.463 755.588,624.503 756.916,630.543 758.129,636.583 759.228,642.622 760.214,648.662 761.088,654.702 761.85,660.742 762.503,666.781 763.046,672.821 763.479,678.861 763.804,684.901 764.02,690.94 764.128,696.98 764.128,703.02 764.02,709.06 763.804,715.099 763.479,721.139 763.046,727.179 762.503,733.219 761.85,739.258 761.088,745.298 760.214,751.338 759.228,757.378 758.129,763.417 756.916,769.457 755.588,775.497 754.143,781.537 752.58,787.576 750.896,793.616 749.091,799.656 747.161,805.696 745.106,811.735 742.922,817.775 740.606,823.815 738.156,829.855 735.569,835.894 732.84,841.934 729.967,847.974 726.945,854.014 723.769,860.053 720.435,866.093 716.937,872.133 713.269,878.173 709.424,884.212 705.396,890.252 701.176,896.292 696.754,902.332 692.122,908.371 687.267,914.411 682.178,920.451 676.839,926.491 671.234,932.53 665.346,938.57 659.151,944.61 652.626,950.65 645.739,956.689 638.457,962.729 630.737,968.769 622.526,974.808 613.761,980.848 604.36,986.888 594.215,992.928 583.181,998.967 " />
<line x1="583.181" y1="401.033" x2="869.125" y2="401.033"  stroke="#7f7fff" />
<line x1="583.181" y1="998.967" x2="869.125" y2="998.967"  stroke="#7f7fff" />
<polyline fill="none" stroke="#7f7fff" points="869.125,401.033 865.404,407.072 861.786,413.112 858.27,419.152 854.853,425.192 851.533,431.231 848.308,437.271 845.177,443.311 842.136,449.35 839.186,455.39 836.325,461.43 833.55,467.47 830.86,473.509 828.255,479.549 825.733,485.589 823.292,491.629 820.932,497.668 818.651,503.708 816.449,509.748 814.324,515.788 812.276,521.827 810.304,527.867 808.406,533.907 806.583,539.947 804.832,545.986 803.155,552.026 801.549,558.066 800.015,564.106 798.552,570.145 797.158,576.185 795.834,582.225 794.58,588.265 793.394,594.304 792.276,600.344 791.226,606.384 790.243,612.424 789.328,618.463 788.479,624.503 787.697,630.543 786.981,636.583 786.33,642.622 785.746,648.662 785.227,654.702 784.773,660.742 784.384,666.781 784.06,672.821 783.801,678.861 783.607,684.901 783.478,690.94 783.413,696.98 783.413,703.02 783.478,709.06 783.607,715.099 783.801,721.139 784.06,727.179 784.384,733.219 784.773,739.258 785.227,745.298 785.746,751.338 786.33,757.378 786.981,763.417 787.697,769.457 788.479,775.497 789.328,781.537 790.243,787.576 791.226,793.616 792.276,799.656 793.394,805.696 794.58,811.735 795.834,817.775 797.158,823.815 798.552,829.855 800.015,835.894 801.549,841.934 803.155,847.974 804.832,854.014 806.583,860.053 808.406,866.093 810.304,872.133 812.276,878.173 814.324,884.212 816.449,890.252 818.651,896.292 820.932,902.332 823.292,908.371 825.733,914.411 828.255,920.451 830.86,926.491 833.55,932.53 836.325,938.57 839.186,944.61 842.136,950.65 845.177,956.689 848.308,962.729 851.533,968.769 854.853,974.808 858.27,980.848 861.786,986.888 865.404,992.928 869.125,998.967 " />
<line x1="869.125" y1="401.033" x2="884.066" y2="401.033"  stroke="#7f7fff" />
<line x1="869.125" y1="998.967" x2="884.066" y2="998.967"  stroke="#7f7fff" />
<polyline fill="none" stroke="#7f7fff" points="884.066,401.033 885.586,407.072 887.072,413.112 888.526,419.152 889.948,425.192 891.336,431.231 892.693,437.271 894.017,443.311 895.309,449.35 896.568,455.39 897.796,461.43 898.992,467.47 900.155,473.509 901.288,479.549 902.388,485.589 903.457,491.629 904.495,497.668 905.501,503.708 906.476,509.748 907.42,515.788 908.332,521.827 909.213,527.867 910.064,533.907 910.883,539.947 911.672,545.986 912.43,552.026 913.157,558.066 913.853,564.106 914.519,570.145 915.154,576.185 915.758,582.225 916.333,588.265 916.876,594.304 917.389,600.344 917.872,606.384 918.324,612.424 918.746,618.463 919.138,624.503 919.5,630.543 919.831,636.583 920.132,642.622 920.403,648.662 920.644,654.702 920.855,660.742 921.035,666.781 921.186,672.821 921.306,678.861 921.396,684.901 921.456,690.94 921.486,696.98 921.486,703.02 921.456,709.06 921.396,715.099 921.306,721.139 921.186,727.179 921.035,733.219 920.855,739.258 920.644,745.298 920.403,751.338 920.132,757.378 919.831,763.417 919.5,769.457 919.138,775.497 918.746,781.537 918.324,787.576 917.872,793.616 917.389,799.656 916.876,805.696 916.333,811.735 915.758,817.775 915.154,823.815 914.519,829.855 913.853,835.894 913.157,841.934 912.43,847.974 911.672,854.014 910.883,860.053 910.064,866.093 909.213,872.133 908.332,878.173 907.42,884.212 906.476,890.252 905.501,896.292 904.495,902.332 903.457,908.371 902.388,914.411 901.288,920.451 900.155,926.491 898.992,932.53 897.796,938.57 896.568,944.61 895.309,950.65 894.017,956.689 892.693,962.729 891.336,968.769 889.948,974.808 888.526,980.848 887.072,986.888 885.586,992.928 884.066,998.967 " />
</g>
<g>
<polyline fill="none" stroke="#7f7fff" points="1109.527,429.542 1107.014,435.006 1104.563,440.47 1102.173,445.934 1099.843,451.397 1097.573,456.861 1095.361,462.325 1093.208,467.789 1091.112,473.253 1089.073,478.716 1087.091,484.18 1085.164,489.644 1083.293,495.108 1081.476,500.572 1079.714,506.035 1078.005,511.499 1076.35,516.963 1074.748,522.427 1073.198,527.891 1071.7,533.354 1070.255,538.818 1068.86,544.282 1067.517,549.746 1066.224,555.21 1064.982,560.673 1063.79,566.137 1062.647,571.601 1061.554,577.065 1060.511,582.528 1059.516,587.992 1058.571,593.456 1057.674,598.92 1056.825,604.384 1056.024,609.847 1055.272,615.311 1054.567,620.775 1053.91,626.239 1053.301,631.703 1052.739,637.166 1052.224,642.63 1051.757,648.094 1051.336,653.558 1050.962,659.022 1050.636,664.485 1050.356,669.949 1050.123,675.413 1049.936,680.877 1049.796,686.341 1049.703,691.804 1049.657,697.268 1049.657,702.732 1049.703,708.196 1049.796,713.659 1049.936,719.123 1050.123,724.587 1050.356,730.051 1050.636,735.515 1050.962,740.978 1051.336,746.442 1051.757,751.906 1052.224,757.37 1052.739,762.834 1053.301,768.297 1053.91,773.761 1054.567,779.225 1055.272,784.689 1056.024,790.153 1056.825,795.616 1057.674,801.08 1058.571,806.544 1059.516,812.008 1060.511,817.472 1061.554,822.935 1062.647,828.399 1063.79,833.863 1064.982,839.327 1066.224,844.79 1067.517,850.254 1068.86,855.718 1070.255,861.182 1071.7,866.646 1073.198,872.109 1074.748,877.573 1076.35,883.037 1078.005,888.501 1079.714,893.965 1081.476,899.428 1083.293,904.892 1085.164,910.356 1087.091,915.82 1089.073,921.284 1091.112,926.747 1093.208,932.211 1095.361,937.675 1097.573,943.139 1099.843,948.603 1102.173,954.066 1104.563,959.53 1107.014,964.994 1109.527,970.458 " />
<line x1="1109.527" y1="429.542" x2="1126.394" y2="429.542"  stroke="#7f7fff" />
<line x1="1109.527" y1="970.458" x2="1126.394" y2="970.458"  stroke="#7f7fff" />
<polyline fill="none" stroke="#7f7fff" points="1126.394,429.542 1125.324,435.006 1124.277,440.47 1123.252,445.934 1122.25,451.397 1121.27,456.861 1120.313,462.325 1119.378,467.789 1118.466,473.253 1117.576,478.716 1116.708,484.18 1115.862,489.644 1115.039,495.108 1114.238,500.572 1113.459,506.035 1112.701,511.499 1111.966,516.963 1111.253,522.427 1110.562,527.891 1109.893,533.354 1109.246,538.818 1108.62,544.282 1108.017,549.746 1107.435,555.21 1106.875,560.673 1106.337,566.137 1105.82,571.601 1105.325,577.065 1104.852,582.528 1104.4,587.992 1103.971,593.456 1103.562,598.92 1103.176,604.384 1102.811,609.847 1102.467,615.311 1102.145,620.775 1101.845,626.239 1101.566,631.703 1101.308,637.166 1101.073,642.63 1100.858,648.094 1100.665,653.558 1100.494,659.022 1100.344,664.485 1100.215,669.949 1100.108,675.413 1100.022,680.877 1099.958,686.341 1099.915,691.804 1099.894,697.268 1099.894,702.732 1099.915,708.196 1099.958,713.659 1100.022,719.123 1100.108,724.587 1100.215,730.051 1100.344,735.515 1100.494,740.978 1100.665,746.442 1100.858,751.906 1101.073,757.37 1101.308,762.834 1101.566,768.297 1101.845,773.761 1102.145,779.225 1102.467,784.689 1102.811,790.153 1103.176,795.616 1103.562,801.08 1103.971,806.544 1104.4,812.008 1104.852,817.472 1105.325,822.935 1105.82,828.399 1106.337,833.863 1106.875,839.327 1107.435,844.79 1108.017,850.254 1108.62,855.718 1109.246,861.182 1109.893,866.646 1110.562,872.109 1111.253,877.573 1111.966,883.037 1112.701,888.501 1113.459,893.965 1114.238,899.428 1115.039,904.892 1115.862,910.356 1116.708,915.82 1117.576,921.284 1118.466,926.747 1119.378,932.211 1120.313,937.675 1121.27,943.139 1122.25,948.603 1123.252,954.066 1124.277,959.53 1125.324,964.994 1126.394,970.458 " />
</g>
<g>
<polyline fill="none" stroke="#7f7fff" points="1157.526,444.825 1155.192,449.98 1152.914,455.135 1150.693,460.29 1148.527,465.445 1146.417,470.6 1144.36,475.755 1142.358,480.91 1140.409,486.065 1138.513,491.22 1136.669,496.375 1134.877,501.53 1133.136,506.685 1131.446,511.84 1129.807,516.995 1128.217,522.15 1126.677,527.306 1125.186,532.461 1123.743,537.616 1122.35,542.771 1121.004,547.926 1119.706,553.081 1118.455,558.236 1117.252,563.391 1116.095,568.546 1114.985,573.701 1113.922,578.856 1112.904,584.011 1111.932,589.166 1111.006,594.321 1110.126,599.476 1109.29,604.631 1108.5,609.786 1107.754,614.942 1107.053,620.097 1106.397,625.252 1105.785,630.407 1105.218,635.562 1104.694,640.717 1104.214,645.872 1103.779,651.027 1103.387,656.182 1103.039,661.337 1102.735,666.492 1102.474,671.647 1102.257,676.802 1102.083,681.957 1101.953,687.112 1101.866,692.267 1101.823,697.422 1101.823,702.578 1101.866,707.733 1101.953,712.888 1102.083,718.043 1102.257,723.198 1102.474,728.353 1102.735,733.508 1103.039,738.663 1103.387,743.818 1103.779,748.973 1104.214,754.128 1104.694,759.283 1105.218,764.438 1105.785,769.593 1106.397,774.748 1107.053,779.903 1107.754,785.058 1108.5,790.214 1109.29,795.369 1110.126,800.524 1111.006,805.679 1111.932,810.834 1112.904,815.989 1113.922,821.144 1114.985,826.299 1116.095,831.454 1117.252,836.609 1118.455,841.764 1119.706,846.919 1121.004,852.074 1122.35,857.229 1123.743,862.384 1125.186,867.539 1126.677,872.694 1128.217,877.85 1129.807,883.005 1131.446,888.16 1133.136,893.315 1134.877,898.47 1136.669,903.625 1138.513,908.78 1140.409,913.935 1142.358,919.09 1144.36,924.245 1146.417,929.4 1148.527,934.555 1150.693,939.71 1152.914,944.865 1155.192,950.02 1157.526,955.175 " />
<line x1="1157.526" y1="444.825" x2="1167.847" y2="444.825"  stroke="#7f7fff" />
<line x1="1157.526" y1="955.175" x2="1167.847" y2="955.175"  stroke="#7f7fff" />
<polyline fill="none" stroke="#7f7fff" points="1167.847,444.825 1169.374,449.98 1170.868,455.135 1172.328,460.29 1173.754,465.445 1175.147,470.6 1176.507,475.755 1177.834,480.91 1179.128,486.065 1180.389,491.22 1181.618,496.375 1182.815,501.53 1183.979,506.685 1185.111,511.84 1186.211,516.995 1187.279,522.15 1188.316,527.306 1189.321,532.461 1190.294,537.616 1191.236,542.771 1192.146,547.926 1193.025,553.081 1193.873,558.236 1194.69,563.391 1195.476,568.546 1196.231,573.701 1196.955,578.856 1197.649,584.011 1198.312,589.166 1198.944,594.321 1199.546,599.476 1200.117,604.631 1200.658,609.786 1201.169,614.942 1201.649,620.097 1202.099,625.252 1202.519,630.407 1202.908,635.562 1203.268,640.717 1203.597,645.872 1203.896,651.027 1204.166,656.182 1204.405,661.337 1204.615,666.492 1204.794,671.647 1204.943,676.802 1205.063,681.957 1205.153,687.112 1205.212,692.267 1205.242,697.422 1205.242,702.578 1205.212,707.733 1205.153,712.888 1205.063,718.043 1204.943,723.198 1204.794,728.353 1204.615,733.508 1204.405,738.663 1204.166,743.818 1203.896,748.973 1203.597,754.128 1203.268,759.283 1202.908,764.438 1202.519,769.593 1202.099,774.748 1201.649,779.903 1201.169,785.058 1200.658,790.214 1200.117,795.369 1199.546,800.524 1198.944,805.679 1198.312,810.834 1197.649,815.989 1196.955,821.144 1196.231,826.299 1195.476,831.454 1194.69,836.609 1193.873,841.764 1193.025,846.919 1192.146,852.074 1191.236,857.229 1190.294,862.384 1189.321,867.539 1188.316,872.694 1187.279,877.85 1186.211,883.005 1185.111,888.16 1183.979,893.315 1182.815,898.47 1181.618,903.625 1180.389,908.78 1179.128,913.935 1177.834,919.09 1176.507,924.245 1175.147,929.4 1173.754,934.555 1172.328,939.71 1170.868,944.865 1169.374,950.02 1167.847,955.175 " />
<line x1="1273.203" y1="444.825" x2="1273.203" y2="495.295"  stroke="#7f7fff" />
<line x1="1167.847" y1="444.825" x2="1273.203" y2="444.825"  stroke="#7f7fff" />
<line x1="1273.203" y1="955.175" x2="1273.203" y2="904.705"  stroke="#7f7fff" />
<line x1="1167.847" y1="955.175" x2="1273.203" y2="955.175"  stroke="#7f7fff" />
<polyline fill="none" stroke="#7f7fff" points="1273.203,495.295 1270.803,499.43 1268.467,503.566 1266.195,507.701 1263.985,511.836 1261.837,515.972 1259.748,520.107 1257.719,524.243 1255.748,528.378 1253.833,532.514 1251.975,536.649 1250.173,540.785 1248.425,544.92 1246.731,549.056 1245.09,553.191 1243.501,557.327 1241.965,561.462 1240.479,565.597 1239.044,569.733 1237.659,573.868 1236.323,578.004 1235.036,582.139 1233.798,586.275 1232.607,590.41 1231.465,594.546 1230.369,598.681 1229.32,602.817 1228.317,606.952 1227.36,611.088 1226.449,615.223 1225.583,619.358 1224.763,623.494 1223.987,627.629 1223.255,631.765 1222.568,635.9 1221.925,640.036 1221.326,644.171 1220.77,648.307 1220.258,652.442 1219.789,656.578 1219.363,660.713 1218.98,664.849 1218.64,668.984 1218.342,673.119 1218.088,677.255 1217.875,681.39 1217.706,685.526 1217.579,689.661 1217.494,693.797 1217.451,697.932 1217.451,702.068 1217.494,706.203 1217.579,710.339 1217.706,714.474 1217.875,718.61 1218.088,722.745 1218.342,726.881 1218.64,731.016 1218.98,735.151 1219.363,739.287 1219.789,743.422 1220.258,747.558 1220.77,751.693 1221.326,755.829 1221.925,759.964 1222.568,764.1 1223.255,768.235 1223.987,772.371 1224.763,776.506 1225.583,780.642 1226.449,784.777 1227.36,788.912 1228.317,793.048 1229.32,797.183 1230.369,801.319 1231.465,805.454 1232.607,809.59 1233.798,813.725 1235.036,817.861 1236.323,821.996 1237.659,826.132 1239.044,830.267 1240.479,834.403 1241.965,838.538 1243.501,842.673 1245.09,846.809 1246.731,850.944 1248.425,855.08 1250.173,859.215 1251.975,863.351 1253.833,867.486 1255.748,871.622 1257.719,875.757 1259.748,879.893 1261.837,884.028 1263.985,888.164 1266.195,892.299 1268.467,896.434 1270.803,900.57 1273.203,904.705 " />
</g>
<g>
<polyline fill="none" stroke="#7f7fff" points="1301.581,499.661 1303.843,503.708 1306.045,507.755 1308.188,511.803 1310.273,515.85 1312.301,519.897 1314.273,523.944 1316.19,527.992 1318.053,532.039 1319.863,536.086 1321.62,540.133 1323.325,544.181 1324.979,548.228 1326.583,552.275 1328.137,556.323 1329.641,560.37 1331.097,564.417 1332.505,568.464 1333.865,572.512 1335.178,576.559 1336.445,580.606 1337.665,584.653 1338.84,588.701 1339.97,592.748 1341.054,596.795 1342.094,600.842 1343.09,604.89 1344.042,608.937 1344.951,612.984 1345.816,617.031 1346.639,621.079 1347.418,625.126 1348.155,629.173 1348.85,633.22 1349.503,637.268 1350.115,641.315 1350.684,645.362 1351.213,649.409 1351.7,653.457 1352.146,657.504 1352.55,661.551 1352.915,665.598 1353.238,669.646 1353.521,673.693 1353.763,677.74 1353.965,681.787 1354.126,685.835 1354.247,689.882 1354.327,693.929 1354.368,697.976 1354.368,702.024 1354.327,706.071 1354.247,710.118 1354.126,714.165 1353.965,718.213 1353.763,722.26 1353.521,726.307 1353.238,730.354 1352.915,734.402 1352.55,738.449 1352.146,742.496 1351.7,746.543 1351.213,750.591 1350.684,754.638 1350.115,758.685 1349.503,762.732 1348.85,766.78 1348.155,770.827 1347.418,774.874 1346.639,778.921 1345.816,782.969 1344.951,787.016 1344.042,791.063 1343.09,795.11 1342.094,799.158 1341.054,803.205 1339.97,807.252 1338.84,811.299 1337.665,815.347 1336.445,819.394 1335.178,823.441 1333.865,827.488 1332.505,831.536 1331.097,835.583 1329.641,839.63 1328.137,843.677 1326.583,847.725 1324.979,851.772 1323.325,855.819 1321.62,859.867 1319.863,863.914 1318.053,867.961 1316.19,872.008 1314.273,876.056 1312.301,880.103 1310.273,884.15 1308.188,888.197 1306.045,892.245 1303.843,896.292 1301.581,900.339 " />
<line x1="1301.581" y1="483.223" x2="1301.581" y2="499.661"  stroke="#7f7fff" />
<line x1="1301.581" y1="483.223" x2="1392.485" y2="483.223"  stroke="#7f7fff" />
<line x1="1301.581" y1="916.777" x2="1301.581" y2="900.339"  stroke="#7f7fff" />
<line x1="1301.581" y1="916.777" x2="1392.485" y2="916.777"  stroke="#7f7fff" />
<polyline fill="none" stroke="#7f7fff" points="1392.485,483.223 1391.434,487.602 1390.406,491.982 1389.4,496.361 1388.417,500.74 1387.457,505.12 1386.518,509.499 1385.602,513.878 1384.708,518.258 1383.837,522.637 1382.987,527.016 1382.159,531.396 1381.354,535.775 1380.57,540.154 1379.808,544.534 1379.068,548.913 1378.349,553.292 1377.652,557.672 1376.977,562.051 1376.324,566.43 1375.692,570.81 1375.081,575.189 1374.492,579.568 1373.924,583.948 1373.378,588.327 1372.853,592.706 1372.349,597.086 1371.866,601.465 1371.405,605.844 1370.965,610.224 1370.546,614.603 1370.148,618.982 1369.772,623.362 1369.416,627.741 1369.081,632.12 1368.768,636.5 1368.475,640.879 1368.203,645.258 1367.953,649.638 1367.723,654.017 1367.514,658.396 1367.327,662.776 1367.16,667.155 1367.014,671.534 1366.888,675.914 1366.784,680.293 1366.701,684.672 1366.638,689.052 1366.596,693.431 1366.576,697.81 1366.576,702.19 1366.596,706.569 1366.638,710.948 1366.701,715.328 1366.784,719.707 1366.888,724.086 1367.014,728.466 1367.16,732.845 1367.327,737.224 1367.514,741.604 1367.723,745.983 1367.953,750.362 1368.203,754.742 1368.475,759.121 1368.768,763.5 1369.081,767.88 1369.416,772.259 1369.772,776.638 1370.148,781.018 1370.546,785.397 1370.965,789.776 1371.405,794.156 1371.866,798.535 1372.349,802.914 1372.853,807.294 1373.378,811.673 1373.924,816.052 1374.492,820.432 1375.081,824.811 1375.692,829.19 1376.324,833.57 1376.977,837.949 1377.652,842.328 1378.349,846.708 1379.068,851.087 1379.808,855.466 1380.57,859.846 1381.354,864.225 1382.159,868.604 1382.987,872.984 1383.837,877.363 1384.708,881.742 1385.602,886.122 1386.518,890.501 1387.457,894.88 1388.417,899.26 1389.4,903.639 1390.406,908.018 1391.434,912.398 1392.485,916.777 " />
<line x1="1392.485" y1="483.223" x2="1407.343" y2="483.223"  stroke="#7f7fff" />
<line x1="1392.485" y1="916.777" x2="1407.343" y2="916.777"  stroke="#7f7fff" />
<polyline fill="none" stroke="#7f7fff" points="1407.343,483.223 1408.112,487.602 1408.865,491.982 1409.602,496.361 1410.323,500.74 1411.028,505.12 1411.716,509.499 1412.389,513.878 1413.045,518.258 1413.686,522.637 1414.311,527.016 1414.919,531.396 1415.512,535.775 1416.089,540.154 1416.65,544.534 1417.196,548.913 1417.725,553.292 1418.239,557.672 1418.737,562.051 1419.219,566.43 1419.685,570.81 1420.136,575.189 1420.571,579.568 1420.99,583.948 1421.394,588.327 1421.782,592.706 1422.154,597.086 1422.511,601.465 1422.852,605.844 1423.178,610.224 1423.488,614.603 1423.782,618.982 1424.061,623.362 1424.324,627.741 1424.572,632.12 1424.804,636.5 1425.021,640.879 1425.222,645.258 1425.408,649.638 1425.578,654.017 1425.733,658.396 1425.872,662.776 1425.996,667.155 1426.104,671.534 1426.197,675.914 1426.274,680.293 1426.336,684.672 1426.382,689.052 1426.413,693.431 1426.429,697.81 1426.429,702.19 1426.413,706.569 1426.382,710.948 1426.336,715.328 1426.274,719.707 1426.197,724.086 1426.104,728.466 1425.996,732.845 1425.872,737.224 1425.733,741.604 1425.578,745.983 1425.408,750.362 1425.222,754.742 1425.021,759.121 1424.804,763.5 1424.572,767.88 1424.324,772.259 1424.061,776.638 1423.782,781.018 1423.488,785.397 1423.178,789.776 1422.852,794.156 1422.511,798.535 1422.154,802.914 1421.782,807.294 1421.394,811.673 1420.99,816.052 1420.571,820.432 1420.136,824.811 1419.685,829.19 1419.219,833.57 1418.737,837.949 1418.239,842.328 1417.725,846.708 1417.196,851.087 1416.65,855.466 1416.089,859.846 1415.512,864.225 1414.919,868.604 1414.311,872.984 1413.686,877.363 1413.045,881.742 1412.389,886.122 1411.716,890.501 1411.028,894.88 1410.323,899.26 1409.602,903.639 1408.865,908.018 1408.112,912.398 1407.343,916.777 " />
</g>
<g>
<polyline fill="none" stroke="#7f7fff" points="1450.405,481.04 1449.514,485.463 1448.643,489.887 1447.79,494.31 1446.956,498.733 1446.141,503.157 1445.344,507.58 1444.566,512.004 1443.807,516.427 1443.067,520.851 1442.344,525.274 1441.641,529.698 1440.956,534.121 1440.289,538.544 1439.641,542.968 1439.011,547.391 1438.4,551.815 1437.806,556.238 1437.232,560.662 1436.675,565.085 1436.137,569.509 1435.616,573.932 1435.114,578.355 1434.63,582.779 1434.165,587.202 1433.717,591.626 1433.287,596.049 1432.876,600.473 1432.482,604.896 1432.107,609.319 1431.749,613.743 1431.41,618.166 1431.088,622.59 1430.785,627.013 1430.499,631.437 1430.231,635.86 1429.982,640.284 1429.75,644.707 1429.536,649.13 1429.339,653.554 1429.161,657.977 1429.001,662.401 1428.858,666.824 1428.733,671.248 1428.626,675.671 1428.537,680.095 1428.466,684.518 1428.413,688.941 1428.377,693.365 1428.359,697.788 1428.359,702.212 1428.377,706.635 1428.413,711.059 1428.466,715.482 1428.537,719.905 1428.626,724.329 1428.733,728.752 1428.858,733.176 1429.001,737.599 1429.161,742.023 1429.339,746.446 1429.536,750.87 1429.75,755.293 1429.982,759.716 1430.231,764.14 1430.499,768.563 1430.785,772.987 1431.088,777.41 1431.41,781.834 1431.749,786.257 1432.107,790.681 1432.482,795.104 1432.876,799.527 1433.287,803.951 1433.717,808.374 1434.165,812.798 1434.63,817.221 1435.114,821.645 1435.616,826.068 1436.137,830.491 1436.675,834.915 1437.232,839.338 1437.806,843.762 1438.4,848.185 1439.011,852.609 1439.641,857.032 1440.289,861.456 1440.956,865.879 1441.641,870.302 1442.344,874.726 1443.067,879.149 1443.807,883.573 1444.566,887.996 1445.344,892.42 1446.141,896.843 1446.956,901.267 1447.79,905.69 1448.643,910.113 1449.514,914.537 1450.405,918.96 " />
<line x1="1450.405" y1="481.04" x2="1465.283" y2="481.04"  stroke="#7f7fff" />
<line x1="1450.405" y1="918.96" x2="1465.283" y2="918.96"  stroke="#7f7fff" />
<polyline fill="none" stroke="#7f7fff" points="1465.283,481.04 1467.322,485.463 1469.31,489.887 1471.249,494.31 1473.139,498.733 1474.981,503.157 1476.775,507.58 1478.522,512.004 1480.222,516.427 1481.876,520.851 1483.484,525.274 1485.046,529.698 1486.564,534.121 1488.038,538.544 1489.467,542.968 1490.853,547.391 1492.196,551.815 1493.495,556.238 1494.752,560.662 1495.967,565.085 1497.139,569.509 1498.27,573.932 1499.36,578.355 1500.408,582.779 1501.416,587.202 1502.383,591.626 1503.309,596.049 1504.195,600.473 1505.042,604.896 1505.848,609.319 1506.615,613.743 1507.343,618.166 1508.031,622.59 1508.68,627.013 1509.29,631.437 1509.862,635.86 1510.395,640.284 1510.889,644.707 1511.345,649.13 1511.762,653.554 1512.141,657.977 1512.482,662.401 1512.785,666.824 1513.05,671.248 1513.277,675.671 1513.466,680.095 1513.618,684.518 1513.731,688.941 1513.807,693.365 1513.844,697.788 1513.844,702.212 1513.807,706.635 1513.731,711.059 1513.618,715.482 1513.466,719.905 1513.277,724.329 1513.05,728.752 1512.785,733.176 1512.482,737.599 1512.141,742.023 1511.762,746.446 1511.345,750.87 1510.889,755.293 1510.395,759.716 1509.862,764.14 1509.29,768.563 1508.68,772.987 1508.031,777.41 1507.343,781.834 1506.615,786.257 1505.848,790.681 1505.042,795.104 1504.195,799.527 1503.309,803.951 1502.383,808.374 1501.416,812.798 1500.408,817.221 1499.36,821.645 1498.27,826.068 1497.139,830.491 1495.967,834.915 1494.752,839.338 1493.495,843.762 1492.196,848.185 1490.853,852.609 1489.467,857.032 1488.038,861.456 1486.564,865.879 1485.046,870.302 1483.484,874.726 1481.876,879.149 1480.222,883.573 1478.522,887.996 1476.775,892.42 1474.981,896.843 1473.139,901.267 1471.249,905.69 1469.31,910.113 1467.322,914.537 1465.283,918.96 " />
<line x1="1465.283" y1="481.04" x2="1559.226" y2="481.04"  stroke="#7f7fff" />
<line x1="1465.283" y1="918.96" x2="1559.226" y2="918.96"  stroke="#7f7fff" />
<polyline fill="none" stroke="#7f7fff" points="1559.226,481.04 1557.87,485.463 1556.543,489.887 1555.246,494.31 1553.98,498.733 1552.743,503.157 1551.535,507.58 1550.357,512.004 1549.209,516.427 1548.089,520.851 1546.998,525.274 1545.936,529.698 1544.903,534.121 1543.899,538.544 1542.923,542.968 1541.975,547.391 1541.056,551.815 1540.165,556.238 1539.302,560.662 1538.467,565.085 1537.659,569.509 1536.88,573.932 1536.128,578.355 1535.404,582.779 1534.707,587.202 1534.038,591.626 1533.396,596.049 1532.781,600.473 1532.193,604.896 1531.633,609.319 1531.1,613.743 1530.593,618.166 1530.114,622.59 1529.662,627.013 1529.236,631.437 1528.837,635.86 1528.466,640.284 1528.12,644.707 1527.802,649.13 1527.51,653.554 1527.245,657.977 1527.006,662.401 1526.794,666.824 1526.609,671.248 1526.45,675.671 1526.317,680.095 1526.211,684.518 1526.132,688.941 1526.079,693.365 1526.053,697.788 1526.053,702.212 1526.079,706.635 1526.132,711.059 1526.211,715.482 1526.317,719.905 1526.45,724.329 1526.609,728.752 1526.794,733.176 1527.006,737.599 1527.245,742.023 1527.51,746.446 1527.802,750.87 1528.12,755.293 1528.466,759.716 1528.837,764.14 1529.236,768.563 1529.662,772.987 1530.114,777.41 1530.593,781.834 1531.1,786.257 1531.633,790.681 1532.193,795.104 1532.781,799.527 1533.396,803.951 1534.038,808.374 1534.707,812.798 1535.404,817.221 1536.128,821.645 1536.88,826.068 1537.659,830.491 1538.467,834.915 1539.302,839.338 1540.165,843.762 1541.056,848.185 1541.975,852.609 1542.923,857.032 1543.899,861.456 1544.903,865.879 1545.936,870.302 1546.998,874.726 1548.089,879.149 1549.209,883.573 1550.357,887.996 1551.535,892.42 1552.743,896.843 1553.98,901.267 1555.246,905.69 1556.543,910.113 1557.87,914.537 1559.226,918.96 " />
</g>
<g>
<polyline fill="none" stroke="#7f7fff" points="1561.621,481.04 1560.683,485.463 1559.764,489.887 1558.865,494.31 1557.984,498.733 1557.122,503.157 1556.279,507.58 1555.456,512.004 1554.651,516.427 1553.864,520.851 1553.097,525.274 1552.348,529.698 1551.619,534.121 1550.908,538.544 1550.215,542.968 1549.542,547.391 1548.887,551.815 1548.251,556.238 1547.634,560.662 1547.036,565.085 1546.456,569.509 1545.896,573.932 1545.354,578.355 1544.831,582.779 1544.327,587.202 1543.842,591.626 1543.376,596.049 1542.929,600.473 1542.501,604.896 1542.092,609.319 1541.703,613.743 1541.332,618.166 1540.981,622.59 1540.649,627.013 1540.336,631.437 1540.043,635.86 1539.769,640.284 1539.514,644.707 1539.279,649.13 1539.064,653.554 1538.867,657.977 1538.691,662.401 1538.534,666.824 1538.396,671.248 1538.278,675.671 1538.18,680.095 1538.101,684.518 1538.042,688.941 1538.003,693.365 1537.983,697.788 1537.983,702.212 1538.003,706.635 1538.042,711.059 1538.101,715.482 1538.18,719.905 1538.278,724.329 1538.396,728.752 1538.534,733.176 1538.691,737.599 1538.867,742.023 1539.064,746.446 1539.279,750.87 1539.514,755.293 1539.769,759.716 1540.043,764.14 1540.336,768.563 1540.649,772.987 1540.981,777.41 1541.332,781.834 1541.703,786.257 1542.092,790.681 1542.501,795.104 1542.929,799.527 1543.376,803.951 1543.842,808.374 1544.327,812.798 1544.831,817.221 1545.354,821.645 1545.896,826.068 1546.456,830.491 1547.036,834.915 1547.634,839.338 1548.251,843.762 1548.887,848.185 1549.542,852.609 1550.215,857.032 1550.908,861.456 1551.619,865.879 1552.348,870.302 1553.097,874.726 1553.864,879.149 1554.651,883.573 1555.456,887.996 1556.279,892.42 1557.122,896.843 1557.984,901.267 1558.865,905.69 1559.764,910.113 1560.683,914.537 1561.621,918.96 " />
<line x1="1561.621" y1="481.04" x2="1576.441" y2="481.04"  stroke="#7f7fff" />
<line x1="1561.621" y1="918.96" x2="1576.441" y2="918.96"  stroke="#7f7fff" />
<polyline fill="none" stroke="#7f7fff" points="1576.441,481.04 1577.835,485.463 1579.207,489.887 1580.559,494.31 1581.889,498.733 1583.196,503.157 1584.481,507.58 1585.743,512.004 1586.98,516.427 1588.194,520.851 1589.383,525.274 1590.547,529.698 1591.686,534.121 1592.799,538.544 1593.886,542.968 1594.946,547.391 1595.98,551.815 1596.986,556.238 1597.965,560.662 1598.916,565.085 1599.84,569.509 1600.735,573.932 1601.601,578.355 1602.439,582.779 1603.247,587.202 1604.026,591.626 1604.776,596.049 1605.496,600.473 1606.186,604.896 1606.847,609.319 1607.476,613.743 1608.076,618.166 1608.645,622.59 1609.183,627.013 1609.69,631.437 1610.166,635.86 1610.611,640.284 1611.025,644.707 1611.407,649.13 1611.758,653.554 1612.077,657.977 1612.365,662.401 1612.621,666.824 1612.845,671.248 1613.037,675.671 1613.197,680.095 1613.325,684.518 1613.421,688.941 1613.486,693.365 1613.518,697.788 1613.518,702.212 1613.486,706.635 1613.421,711.059 1613.325,715.482 1613.197,719.905 1613.037,724.329 1612.845,728.752 1612.621,733.176 1612.365,737.599 1612.077,742.023 1611.758,746.446 1611.407,750.87 1611.025,755.293 1610.611,759.716 1610.166,764.14 1609.69,768.563 1609.183,772.987 1608.645,777.41 1608.076,781.834 1607.476,786.257 1606.847,790.681 1606.186,795.104 1605.496,799.527 1604.776,803.951 1604.026,808.374 1603.247,812.798 1602.439,817.221 1601.601,821.645 1600.735,826.068 1599.84,830.491 1598.916,834.915 1597.965,839.338 1596.986,843.762 1595.98,848.185 1594.946,852.609 1593.886,857.032 1592.799,861.456 1591.686,865.879 1590.547,870.302 1589.383,874.726 1588.194,879.149 1586.98,883.573 1585.743,887.996 1584.481,892.42 1583.196,896.843 1581.889,901.267 1580.559,905.69 1579.207,910.113 1577.835,914.537 1576.441,918.96 " />
</g>
</g>
<g><title>element</title>
<polyline fill="none" stroke="#7f7fff" points="2111.799,144.444 2111.799,155.668 2111.799,166.891 2111.799,178.114 2111.799,189.338 2111.799,200.561 2111.799,211.785 2111.799,223.008 2111.799,234.231 2111.799,245.455 2111.799,256.678 2111.799,267.901 2111.799,279.125 2111.799,290.348 2111.799,301.571 2111.799,312.795 2111.799,324.018 2111.799,335.241 2111.799,346.465 2111.799,357.688 2111.799,368.911 2111.799,380.135 2111.799,391.358 2111.799,402.581 2111.799,413.805 2111.799,425.028 2111.799,436.251 2111.799,447.475 2111.799,458.698 2111.799,469.921 2111.799,481.145 2111.799,492.368 2111.799,503.591 2111.799,514.815 2111.799,526.038 2111.799,537.262 2111.799,548.485 2111.799,559.708 2111.799,570.932 2111.799,582.155 2111.799,593.378 2111.799,604.602 2111.799,615.825 2111.799,627.048 2111.799,638.272 2111.799,649.495 2111.799,660.718 2111.799,671.942 2111.799,683.165 2111.799,694.388 2111.799,705.612 2111.799,716.835 2111.799,728.058 2111.799,739.282 2111.799,750.505 2111.799,761.728 2111.799,772.952 2111.799,784.175 2111.799,795.398 2111.799,806.622 2111.799,817.845 2111.799,829.068 2111.799,840.292 2111.799,851.515 2111.799,862.738 2111.799,873.962 2111.799,885.185 2111.799,896.409 2111.799,907.632 2111.799,918.855 2111.799,930.079 2111.799,941.302 2111.799,952.525 2111.799,963.749 2111.799,974.972 2111.799,986.195 2111.799,997.419 2111.799,1008.642 2111.799,1019.865 2111.799,1031.089 2111.799,1042.312 2111.799,1053.535 2111.799,1064.759 2111.799,1075.982 2111.799,1087.205 2111.799,1098.429 2111.799,1109.652 2111.799,1120.875 2111.799,1132.099 2111.799,1143.322 2111.799,1154.545 2111.799,1165.769 2111.799,1176.992 2111.799,1188.215 2111.799,1199.439 2111.799,1210.662 2111.799,1221.886 2111.799,1233.109 2111.799,1244.332 2111.799,1255.556 " />
</g>
</svg>
