<?xml version="1.0" standalone="no"?>
<svg width="2400px" height="1400px" version="1.1" xmlns="http://www.w3.org/2000/svg" xmlns:xlink="http://www.w3.org/1999/xlink">
<rect x="0" y="0" width="2400" height="1400"  fill="#ffffff" />
<defs>
<g id="dot">
<line x1="1" y1="1" x2="0" y2="0"  />
</g>
<g id="cross">
<line x1="-3" y1="0" x2="3" y2="0"  />
<line x1="0" y1="-3" x2="0" y2="3"  />
</g>
<g id="square">
<line x1="-3" y1="-3" x2="-3" y2="3"  />
<line x1="-3" y1="3" x2="3" y2="3"  />
<line x1="3" y1="3" x2="3" y2="-3"  />
<line x1="3" y1="-3" x2="-3" y2="-3"  />
</g>
<g id="round">
<ellipse cx="0" cy="0" rx="3" ry="3"  fill="none" /></g>
<g id="triangle">
<line x1="0" y1="-3" x2="-3" y2="3"  />
<line x1="-3" y1="3" x2="3" y2="3"  />
<line x1="0" y1="-3" x2="3" y2="3"  />
</g>
</defs>
<line x1="776.587" y1="700" x2="1623.413" y2="700"  stroke="#7f7f7f" />
<g><title>element</title>
<g>
<line x1="1034.807" y1="586.716" x2="1034.807" y2="473.431"  stroke="#7f7fff" />
<line x1="1034.807" y1="813.284" x2="1034.807" y2="926.569"  stroke="#7f7fff" />
</g>
<g>
<polyline fill="none" stroke="#7f7fff" points="807.599,543.364 807.453,546.529 807.28,549.693 807.082,552.857 806.862,556.022 806.621,559.186 806.363,562.35 806.088,565.515 805.8,568.679 805.5,571.843 805.19,575.008 804.872,578.172 804.546,581.337 804.216,584.501 803.881,587.665 803.544,590.83 803.205,593.994 802.866,597.158 802.529,600.323 802.193,603.487 801.86,606.651 801.531,609.816 801.207,612.98 800.888,616.144 800.576,619.309 800.27,622.473 799.973,625.638 799.683,628.802 799.403,631.966 799.132,635.131 798.871,638.295 798.62,641.459 798.38,644.624 798.152,647.788 797.935,650.952 797.73,654.117 797.537,657.281 797.357,660.446 797.19,663.61 797.036,666.774 796.895,669.939 796.768,673.103 796.654,676.267 796.555,679.432 796.469,682.596 796.397,685.76 796.34,688.925 796.297,692.089 796.268,695.253 796.254,698.418 796.254,701.582 796.268,704.747 796.297,707.911 796.34,711.075 796.397,714.24 796.469,717.404 796.555,720.568 796.654,723.733 796.768,726.897 796.895,730.061 797.036,733.226 797.19,736.39 797.357,739.554 797.537,742.719 797.73,745.883 797.935,749.048 798.152,752.212 798.38,755.376 798.62,758.541 798.871,761.705 799.132,764.869 799.403,768.034 799.683,771.198 799.973,774.362 800.27,777.527 800.576,780.691 800.888,783.856 801.207,787.02 801.531,790.184 801.86,793.349 802.193,796.513 802.529,799.677 802.866,802.842 803.205,806.006 803.544,809.17 803.881,812.335 804.216,815.499 804.546,818.663 804.872,821.828 805.19,824.992 805.5,828.157 805.8,831.321 806.088,834.485 806.363,837.65 806.621,840.814 806.862,843.978 807.082,847.143 807.28,850.307 807.453,853.471 807.599,856.636 " />
<line x1="829.557" y1="543.364" x2="829.557" y2="549.794"  stroke="#7f7fff" />
<line x1="807.599" y1="543.364" x2="829.557" y2="543.364"  stroke="#7f7fff" />
<line x1="829.557" y1="856.636" x2="829.557" y2="850.206"  stroke="#7f7fff" />
<line x1="807.599" y1="856.636" x2="829.557" y2="856.636"  stroke="#7f7fff" />
<polyline fill="none" stroke="#7f7fff" points="829.557,549.794 831.434,552.829 833.259,555.863 835.032,558.898 836.756,561.932 838.43,564.967 840.056,568.001 841.635,571.035 843.168,574.07 844.655,577.104 846.098,580.139 847.497,583.173 848.853,586.208 850.166,589.242 851.438,592.277 852.668,595.311 853.858,598.346 855.008,601.38 856.118,604.415 857.188,607.449 858.221,610.483 859.215,613.518 860.171,616.552 861.09,619.587 861.972,622.621 862.818,625.656 863.627,628.69 864.4,631.725 865.137,634.759 865.84,637.794 866.507,640.828 867.139,643.862 867.737,646.897 868.3,649.931 868.829,652.966 869.324,656 869.785,659.035 870.213,662.069 870.607,665.104 870.968,668.138 871.296,671.173 871.59,674.207 871.852,677.242 872.081,680.276 872.276,683.31 872.44,686.345 872.57,689.379 872.668,692.414 872.733,695.448 872.765,698.483 872.765,701.517 872.733,704.552 872.668,707.586 872.57,710.621 872.44,713.655 872.276,716.69 872.081,719.724 871.852,722.758 871.59,725.793 871.296,728.827 870.968,731.862 870.607,734.896 870.213,737.931 869.785,740.965 869.324,744 868.829,747.034 868.3,750.069 867.737,753.103 867.139,756.138 866.507,759.172 865.84,762.206 865.137,765.241 864.4,768.275 863.627,771.31 862.818,774.344 861.972,777.379 861.09,780.413 860.171,783.448 859.215,786.482 858.221,789.517 857.188,792.551 856.118,795.585 855.008,798.62 853.858,801.654 852.668,804.689 851.438,807.723 850.166,810.758 848.853,813.792 847.497,816.827 846.098,819.861 844.655,822.896 843.168,825.93 841.635,828.965 840.056,831.999 838.43,835.033 836.756,838.068 835.032,841.102 833.259,844.137 831.434,847.171 829.557,850.206 " />
<line x1="905.915" y1="549.794" x2="905.915" y2="587.153"  stroke="#7f7fff" />
<line x1="829.557" y1="549.794" x2="905.915" y2="549.794"  stroke="#7f7fff" />
<line x1="905.915" y1="850.206" x2="905.915" y2="812.847"  stroke="#7f7fff" />
<line x1="829.557" y1="850.206" x2="905.915" y2="850.206"  stroke="#7f7fff" />
<polyline fill="none" stroke="#7f7fff" points="905.915,587.153 905.106,589.433 904.315,591.712 903.543,593.992 902.789,596.272 902.053,598.551 901.336,600.831 900.636,603.111 899.953,605.391 899.289,607.67 898.642,609.95 898.012,612.23 897.4,614.51 896.805,616.789 896.227,619.069 895.666,621.349 895.122,623.629 894.595,625.908 894.085,628.188 893.591,630.468 893.114,632.748 892.654,635.027 892.21,637.307 891.782,639.587 891.371,641.867 890.976,644.146 890.598,646.426 890.235,648.706 889.889,650.986 889.559,653.265 889.244,655.545 888.946,657.825 888.664,660.105 888.398,662.384 888.147,664.664 887.913,666.944 887.694,669.223 887.491,671.503 887.303,673.783 887.132,676.063 886.976,678.342 886.835,680.622 886.711,682.902 886.602,685.182 886.508,687.461 886.43,689.741 886.368,692.021 886.321,694.301 886.29,696.58 886.275,698.86 886.275,701.14 886.29,703.42 886.321,705.699 886.368,707.979 886.43,710.259 886.508,712.539 886.602,714.818 886.711,717.098 886.835,719.378 886.976,721.658 887.132,723.937 887.303,726.217 887.491,728.497 887.694,730.777 887.913,733.056 888.147,735.336 888.398,737.616 888.664,739.895 888.946,742.175 889.244,744.455 889.559,746.735 889.889,749.014 890.235,751.294 890.598,753.574 890.976,755.854 891.371,758.133 891.782,760.413 892.21,762.693 892.654,764.973 893.114,767.252 893.591,769.532 894.085,771.812 894.595,774.092 895.122,776.371 895.666,778.651 896.227,780.931 896.805,783.211 897.4,785.49 898.012,787.77 898.642,790.05 899.289,792.33 899.953,794.609 900.636,796.889 901.336,799.169 902.053,801.449 902.789,803.728 903.543,806.008 904.315,808.288 905.106,810.567 905.915,812.847 " />
</g>
<g>
<polyline fill="none" stroke="#7f7fff" points="915.326,594.676 915.979,596.804 916.617,598.931 917.24,601.059 917.85,603.187 918.445,605.315 919.025,607.442 919.592,609.57 920.144,611.698 920.683,613.826 921.207,615.954 921.718,618.081 922.215,620.209 922.698,622.337 923.167,624.465 923.623,626.592 924.065,628.72 924.494,630.848 924.909,632.976 925.311,635.103 925.699,637.231 926.074,639.359 926.435,641.487 926.784,643.614 927.119,645.742 927.441,647.87 927.75,649.998 928.045,652.125 928.328,654.253 928.597,656.381 928.854,658.509 929.097,660.636 929.328,662.764 929.545,664.892 929.75,667.02 929.942,669.147 930.121,671.275 930.287,673.403 930.44,675.531 930.58,677.659 930.708,679.786 930.823,681.914 930.925,684.042 931.014,686.17 931.09,688.297 931.154,690.425 931.205,692.553 931.243,694.681 931.269,696.808 931.281,698.936 931.281,701.064 931.269,703.192 931.243,705.319 931.205,707.447 931.154,709.575 931.09,711.703 931.014,713.83 930.925,715.958 930.823,718.086 930.708,720.214 930.58,722.341 930.44,724.469 930.287,726.597 930.121,728.725 929.942,730.853 929.75,732.98 929.545,735.108 929.328,737.236 929.097,739.364 928.854,741.491 928.597,743.619 928.328,745.747 928.045,747.875 927.75,750.002 927.441,752.13 927.119,754.258 926.784,756.386 926.435,758.513 926.074,760.641 925.699,762.769 925.311,764.897 924.909,767.024 924.494,769.152 924.065,771.28 923.623,773.408 923.167,775.535 922.698,777.663 922.215,779.791 921.718,781.919 921.207,784.046 920.683,786.174 920.144,788.302 919.592,790.43 919.025,792.558 918.445,794.685 917.85,796.813 917.24,798.941 916.617,801.069 915.979,803.196 915.326,805.324 " />
<line x1="915.326" y1="583.873" x2="915.326" y2="594.676"  stroke="#7f7fff" />
<line x1="915.326" y1="583.873" x2="982.404" y2="583.873"  stroke="#7f7fff" />
<line x1="915.326" y1="816.127" x2="915.326" y2="805.324"  stroke="#7f7fff" />
<line x1="915.326" y1="816.127" x2="982.404" y2="816.127"  stroke="#7f7fff" />
<polyline fill="none" stroke="#7f7fff" points="982.404,583.873 981.398,586.219 980.416,588.565 979.458,590.911 978.523,593.257 977.613,595.603 976.725,597.949 975.86,600.295 975.018,602.641 974.199,604.987 973.401,607.333 972.626,609.679 971.873,612.025 971.142,614.371 970.432,616.717 969.744,619.063 969.077,621.409 968.431,623.755 967.806,626.101 967.202,628.447 966.619,630.793 966.056,633.139 965.514,635.485 964.992,637.831 964.49,640.177 964.008,642.523 963.547,644.869 963.105,647.215 962.683,649.561 962.281,651.907 961.899,654.253 961.536,656.599 961.193,658.945 960.869,661.291 960.565,663.637 960.28,665.983 960.014,668.329 959.767,670.675 959.54,673.021 959.331,675.367 959.142,677.713 958.972,680.059 958.82,682.405 958.688,684.751 958.575,687.097 958.48,689.443 958.405,691.789 958.348,694.135 958.31,696.481 958.291,698.827 958.291,701.173 958.31,703.519 958.348,705.865 958.405,708.211 958.48,710.557 958.575,712.903 958.688,715.249 958.82,717.595 958.972,719.941 959.142,722.287 959.331,724.633 959.54,726.979 959.767,729.325 960.014,731.671 960.28,734.017 960.565,736.363 960.869,738.709 961.193,741.055 961.536,743.401 961.899,745.747 962.281,748.093 962.683,750.439 963.105,752.785 963.547,755.131 964.008,757.477 964.49,759.823 964.992,762.169 965.514,764.515 966.056,766.861 966.619,769.207 967.202,771.553 967.806,773.899 968.431,776.245 969.077,778.591 969.744,780.937 970.432,783.283 971.142,785.629 971.873,787.975 972.626,790.321 973.401,792.667 974.199,795.013 975.018,797.359 975.86,799.705 976.725,802.051 977.613,804.397 978.523,806.743 979.458,809.089 980.416,811.435 981.398,813.781 982.404,816.127 " />
<line x1="982.404" y1="583.873" x2="1002.741" y2="583.873"  stroke="#7f7fff" />
<line x1="982.404" y1="816.127" x2="1002.741" y2="816.127"  stroke="#7f7fff" />
<polyline fill="none" stroke="#7f7fff" points="1002.741,583.873 1003.312,586.219 1003.87,588.565 1004.416,590.911 1004.949,593.257 1005.471,595.603 1005.98,597.949 1006.477,600.295 1006.962,602.641 1007.436,604.987 1007.897,607.333 1008.346,609.679 1008.783,612.025 1009.208,614.371 1009.622,616.717 1010.024,619.063 1010.413,621.409 1010.792,623.755 1011.158,626.101 1011.512,628.447 1011.855,630.793 1012.187,633.139 1012.506,635.485 1012.814,637.831 1013.111,640.177 1013.396,642.523 1013.669,644.869 1013.931,647.215 1014.181,649.561 1014.42,651.907 1014.647,654.253 1014.863,656.599 1015.067,658.945 1015.26,661.291 1015.442,663.637 1015.612,665.983 1015.771,668.329 1015.918,670.675 1016.054,673.021 1016.179,675.367 1016.292,677.713 1016.394,680.059 1016.484,682.405 1016.563,684.751 1016.631,687.097 1016.688,689.443 1016.733,691.789 1016.767,694.135 1016.79,696.481 1016.801,698.827 1016.801,701.173 1016.79,703.519 1016.767,705.865 1016.733,708.211 1016.688,710.557 1016.631,712.903 1016.563,715.249 1016.484,717.595 1016.394,719.941 1016.292,722.287 1016.179,724.633 1016.054,726.979 1015.918,729.325 1015.771,731.671 1015.612,734.017 1015.442,736.363 1015.26,738.709 1015.067,741.055 1014.863,743.401 1014.647,745.747 1014.42,748.093 1014.181,750.439 1013.931,752.785 1013.669,755.131 1013.396,757.477 1013.111,759.823 1012.814,762.169 1012.506,764.515 1012.187,766.861 1011.855,769.207 1011.512,771.553 1011.158,773.899 1010.792,776.245 1010.413,778.591 1010.024,780.937 1009.622,783.283 1009.208,785.629 1008.783,787.975 1008.346,790.321 1007.897,792.667 1007.436,795.013 1006.962,797.359 1006.477,799.705 1005.98,802.051 1005.471,804.397 1004.949,806.743 1004.416,809.089 1003.87,811.435 1003.312,813.781 1002.741,816.127 " />
</g>
<g>
<polyline fill="none" stroke="#7f7fff" points="1055.528,587.153 1055.419,589.433 1055.313,591.712 1055.208,593.992 1055.106,596.272 1055.007,598.551 1054.909,600.831 1054.813,603.111 1054.72,605.391 1054.629,607.67 1054.541,609.95 1054.454,612.23 1054.37,614.51 1054.288,616.789 1054.208,619.069 1054.13,621.349 1054.055,623.629 1053.982,625.908 1053.911,628.188 1053.842,630.468 1053.775,632.748 1053.711,635.027 1053.649,637.307 1053.589,639.587 1053.531,641.867 1053.476,644.146 1053.423,646.426 1053.372,648.706 1053.323,650.986 1053.277,653.265 1053.232,655.545 1053.19,657.825 1053.15,660.105 1053.112,662.384 1053.077,664.664 1053.044,666.944 1053.013,669.223 1052.984,671.503 1052.957,673.783 1052.933,676.063 1052.911,678.342 1052.891,680.622 1052.873,682.902 1052.858,685.182 1052.844,687.461 1052.833,689.741 1052.824,692.021 1052.818,694.301 1052.813,696.58 1052.811,698.86 1052.811,701.14 1052.813,703.42 1052.818,705.699 1052.824,707.979 1052.833,710.259 1052.844,712.539 1052.858,714.818 1052.873,717.098 1052.891,719.378 1052.911,721.658 1052.933,723.937 1052.957,726.217 1052.984,728.497 1053.013,730.777 1053.044,733.056 1053.077,735.336 1053.112,737.616 1053.15,739.895 1053.19,742.175 1053.232,744.455 1053.277,746.735 1053.323,749.014 1053.372,751.294 1053.423,753.574 1053.476,755.854 1053.531,758.133 1053.589,760.413 1053.649,762.693 1053.711,764.973 1053.775,767.252 1053.842,769.532 1053.911,771.812 1053.982,774.092 1054.055,776.371 1054.13,778.651 1054.208,780.931 1054.288,783.211 1054.37,785.49 1054.454,787.77 1054.541,790.05 1054.629,792.33 1054.72,794.609 1054.813,796.889 1054.909,799.169 1055.007,801.449 1055.106,803.728 1055.208,806.008 1055.313,808.288 1055.419,810.567 1055.528,812.847 " />
<line x1="1055.528" y1="587.153" x2="1121.837" y2="587.153"  stroke="#7f7fff" />
<line x1="1055.528" y1="812.847" x2="1121.837" y2="812.847"  stroke="#7f7fff" />
<polyline fill="none" stroke="#7f7fff" points="1121.837,587.153 1122.51,589.433 1123.169,591.712 1123.812,593.992 1124.441,596.272 1125.056,598.551 1125.655,600.831 1126.241,603.111 1126.811,605.391 1127.368,607.67 1127.91,609.95 1128.437,612.23 1128.951,614.51 1129.45,616.789 1129.935,619.069 1130.406,621.349 1130.863,623.629 1131.306,625.908 1131.736,628.188 1132.151,630.468 1132.552,632.748 1132.94,635.027 1133.314,637.307 1133.674,639.587 1134.021,641.867 1134.354,644.146 1134.674,646.426 1134.979,648.706 1135.272,650.986 1135.551,653.265 1135.816,655.545 1136.068,657.825 1136.307,660.105 1136.532,662.384 1136.744,664.664 1136.942,666.944 1137.127,669.223 1137.299,671.503 1137.458,673.783 1137.603,676.063 1137.735,678.342 1137.854,680.622 1137.959,682.902 1138.052,685.182 1138.131,687.461 1138.197,689.741 1138.249,692.021 1138.289,694.301 1138.315,696.58 1138.329,698.86 1138.329,701.14 1138.315,703.42 1138.289,705.699 1138.249,707.979 1138.197,710.259 1138.131,712.539 1138.052,714.818 1137.959,717.098 1137.854,719.378 1137.735,721.658 1137.603,723.937 1137.458,726.217 1137.299,728.497 1137.127,730.777 1136.942,733.056 1136.744,735.336 1136.532,737.616 1136.307,739.895 1136.068,742.175 1135.816,744.455 1135.551,746.735 1135.272,749.014 1134.979,751.294 1134.674,753.574 1134.354,755.854 1134.021,758.133 1133.674,760.413 1133.314,762.693 1132.94,764.973 1132.552,767.252 1132.151,769.532 1131.736,771.812 1131.306,774.092 1130.863,776.371 1130.406,778.651 1129.935,780.931 1129.45,783.211 1128.951,785.49 1128.437,787.77 1127.91,790.05 1127.368,792.33 1126.811,794.609 1126.241,796.889 1125.655,799.169 1125.056,801.449 1124.441,803.728 1123.812,806.008 1123.169,808.288 1122.51,810.567 1121.837,812.847 " />
<line x1="1121.837" y1="580.851" x2="1121.837" y2="587.153"  stroke="#7f7fff" />
<line x1="1121.837" y1="580.851" x2="1177.585" y2="580.851"  stroke="#7f7fff" />
<line x1="1121.837" y1="819.149" x2="1121.837" y2="812.847"  stroke="#7f7fff" />
<line x1="1121.837" y1="819.149" x2="1177.585" y2="819.149"  stroke="#7f7fff" />
<polyline fill="none" stroke="#7f7fff" points="1177.585,580.851 1176.507,583.258 1175.455,585.665 1174.429,588.072 1173.428,590.48 1172.453,592.887 1171.504,595.294 1170.578,597.701 1169.678,600.108 1168.802,602.515 1167.95,604.922 1167.121,607.329 1166.317,609.736 1165.536,612.143 1164.778,614.55 1164.043,616.957 1163.331,619.364 1162.641,621.771 1161.975,624.178 1161.33,626.585 1160.708,628.992 1160.108,631.399 1159.529,633.806 1158.973,636.213 1158.438,638.62 1157.925,641.027 1157.433,643.434 1156.962,645.842 1156.513,648.249 1156.084,650.656 1155.677,653.063 1155.29,655.47 1154.925,657.877 1154.58,660.284 1154.256,662.691 1153.952,665.098 1153.669,667.505 1153.406,669.912 1153.164,672.319 1152.942,674.726 1152.741,677.133 1152.56,679.54 1152.399,681.947 1152.258,684.354 1152.137,686.761 1152.037,689.168 1151.956,691.575 1151.896,693.982 1151.856,696.389 1151.836,698.796 1151.836,701.204 1151.856,703.611 1151.896,706.018 1151.956,708.425 1152.037,710.832 1152.137,713.239 1152.258,715.646 1152.399,718.053 1152.56,720.46 1152.741,722.867 1152.942,725.274 1153.164,727.681 1153.406,730.088 1153.669,732.495 1153.952,734.902 1154.256,737.309 1154.58,739.716 1154.925,742.123 1155.29,744.53 1155.677,746.937 1156.084,749.344 1156.513,751.751 1156.962,754.158 1157.433,756.566 1157.925,758.973 1158.438,761.38 1158.973,763.787 1159.529,766.194 1160.108,768.601 1160.708,771.008 1161.33,773.415 1161.975,775.822 1162.641,778.229 1163.331,780.636 1164.043,783.043 1164.778,785.45 1165.536,787.857 1166.317,790.264 1167.121,792.671 1167.95,795.078 1168.802,797.485 1169.678,799.892 1170.578,802.299 1171.504,804.706 1172.453,807.113 1173.428,809.52 1174.429,811.928 1175.455,814.335 1176.507,816.742 1177.585,819.149 " />
<line x1="1177.585" y1="578.215" x2="1177.585" y2="580.851"  stroke="#7f7fff" />
<line x1="1177.585" y1="578.215" x2="1198.379" y2="578.215"  stroke="#7f7fff" />
<line x1="1177.585" y1="821.785" x2="1177.585" y2="819.149"  stroke="#7f7fff" />
<line x1="1177.585" y1="821.785" x2="1198.379" y2="821.785"  stroke="#7f7fff" />
<polyline fill="none" stroke="#7f7fff" points="1198.379,578.215 1199.243,580.675 1200.086,583.136 1200.91,585.596 1201.715,588.056 1202.5,590.517 1203.266,592.977 1204.013,595.437 1204.741,597.897 1205.45,600.358 1206.141,602.818 1206.813,605.278 1207.467,607.739 1208.102,610.199 1208.719,612.659 1209.318,615.12 1209.898,617.58 1210.461,620.04 1211.006,622.5 1211.533,624.961 1212.042,627.421 1212.534,629.881 1213.008,632.342 1213.464,634.802 1213.903,637.262 1214.325,639.723 1214.729,642.183 1215.116,644.643 1215.486,647.103 1215.839,649.564 1216.174,652.024 1216.493,654.484 1216.794,656.945 1217.079,659.405 1217.346,661.865 1217.597,664.326 1217.831,666.786 1218.048,669.246 1218.248,671.707 1218.431,674.167 1218.598,676.627 1218.748,679.087 1218.881,681.548 1218.997,684.008 1219.097,686.468 1219.18,688.929 1219.247,691.389 1219.297,693.849 1219.33,696.31 1219.347,698.77 1219.347,701.23 1219.33,703.69 1219.297,706.151 1219.247,708.611 1219.18,711.071 1219.097,713.532 1218.997,715.992 1218.881,718.452 1218.748,720.913 1218.598,723.373 1218.431,725.833 1218.248,728.293 1218.048,730.754 1217.831,733.214 1217.597,735.674 1217.346,738.135 1217.079,740.595 1216.794,743.055 1216.493,745.516 1216.174,747.976 1215.839,750.436 1215.486,752.897 1215.116,755.357 1214.729,757.817 1214.325,760.277 1213.903,762.738 1213.464,765.198 1213.008,767.658 1212.534,770.119 1212.042,772.579 1211.533,775.039 1211.006,777.5 1210.461,779.96 1209.898,782.42 1209.318,784.88 1208.719,787.341 1208.102,789.801 1207.467,792.261 1206.813,794.722 1206.141,797.182 1205.45,799.642 1204.741,802.103 1204.013,804.563 1203.266,807.023 1202.5,809.483 1201.715,811.944 1200.91,814.404 1200.086,816.864 1199.243,819.325 1198.379,821.785 " />
</g>
<g>
<polyline fill="none" stroke="#7f7fff" points="1255.809,549.73 1254.529,552.766 1253.272,555.801 1252.04,558.837 1250.832,561.873 1249.649,564.909 1248.492,567.944 1247.361,570.98 1246.255,574.016 1245.176,577.052 1244.124,580.088 1243.098,583.123 1242.1,586.159 1241.128,589.195 1240.183,592.231 1239.265,595.266 1238.374,598.302 1237.51,601.338 1236.674,604.374 1235.864,607.409 1235.082,610.445 1234.326,613.481 1233.597,616.517 1232.895,619.552 1232.22,622.588 1231.572,625.624 1230.95,628.66 1230.355,631.695 1229.786,634.731 1229.244,637.767 1228.728,640.803 1228.238,643.838 1227.775,646.874 1227.338,649.91 1226.926,652.946 1226.541,655.981 1226.182,659.017 1225.848,662.053 1225.541,665.089 1225.259,668.125 1225.003,671.16 1224.773,674.196 1224.568,677.232 1224.389,680.268 1224.236,683.303 1224.108,686.339 1224.006,689.375 1223.93,692.411 1223.878,695.446 1223.853,698.482 1223.853,701.518 1223.878,704.554 1223.93,707.589 1224.006,710.625 1224.108,713.661 1224.236,716.697 1224.389,719.732 1224.568,722.768 1224.773,725.804 1225.003,728.84 1225.259,731.875 1225.541,734.911 1225.848,737.947 1226.182,740.983 1226.541,744.019 1226.926,747.054 1227.338,750.09 1227.775,753.126 1228.238,756.162 1228.728,759.197 1229.244,762.233 1229.786,765.269 1230.355,768.305 1230.95,771.34 1231.572,774.376 1232.22,777.412 1232.895,780.448 1233.597,783.483 1234.326,786.519 1235.082,789.555 1235.864,792.591 1236.674,795.626 1237.51,798.662 1238.374,801.698 1239.265,804.734 1240.183,807.769 1241.128,810.805 1242.1,813.841 1243.098,816.877 1244.124,819.912 1245.176,822.948 1246.255,825.984 1247.361,829.02 1248.492,832.056 1249.649,835.091 1250.832,838.127 1252.04,841.163 1253.272,844.199 1254.529,847.234 1255.809,850.27 " />
<line x1="1255.809" y1="549.73" x2="1278.62" y2="549.73"  stroke="#7f7fff" />
<line x1="1255.809" y1="850.27" x2="1278.62" y2="850.27"  stroke="#7f7fff" />
<polyline fill="none" stroke="#7f7fff" points="1278.62,549.73 1280.55,552.766 1282.425,555.801 1284.247,558.837 1286.017,561.873 1287.736,564.909 1289.405,567.944 1291.025,570.98 1292.597,574.016 1294.122,577.052 1295.601,580.088 1297.035,583.123 1298.424,586.159 1299.769,589.195 1301.071,592.231 1302.33,595.266 1303.548,598.302 1304.724,601.338 1305.86,604.374 1306.955,607.409 1308.011,610.445 1309.028,613.481 1310.006,616.517 1310.945,619.552 1311.846,622.588 1312.71,625.624 1313.537,628.66 1314.327,631.695 1315.081,634.731 1315.798,637.767 1316.479,640.803 1317.125,643.838 1317.735,646.874 1318.31,649.91 1318.85,652.946 1319.356,655.981 1319.827,659.017 1320.263,662.053 1320.666,665.089 1321.034,668.125 1321.368,671.16 1321.669,674.196 1321.936,677.232 1322.169,680.268 1322.369,683.303 1322.536,686.339 1322.669,689.375 1322.769,692.411 1322.835,695.446 1322.868,698.482 1322.868,701.518 1322.835,704.554 1322.769,707.589 1322.669,710.625 1322.536,713.661 1322.369,716.697 1322.169,719.732 1321.936,722.768 1321.669,725.804 1321.368,728.84 1321.034,731.875 1320.666,734.911 1320.263,737.947 1319.827,740.983 1319.356,744.019 1318.85,747.054 1318.31,750.09 1317.735,753.126 1317.125,756.162 1316.479,759.197 1315.798,762.233 1315.081,765.269 1314.327,768.305 1313.537,771.34 1312.71,774.376 1311.846,777.412 1310.945,780.448 1310.006,783.483 1309.028,786.519 1308.011,789.555 1306.955,792.591 1305.86,795.626 1304.724,798.662 1303.548,801.698 1302.33,804.734 1301.071,807.769 1299.769,810.805 1298.424,813.841 1297.035,816.877 1295.601,819.912 1294.122,822.948 1292.597,825.984 1291.025,829.02 1289.405,832.056 1287.736,835.091 1286.017,838.127 1284.247,841.163 1282.425,844.199 1280.55,847.234 1278.62,850.27 " />
<line x1="1373.726" y1="549.73" x2="1373.726" y2="556.61"  stroke="#7f7fff" />
<line x1="1278.62" y1="549.73" x2="1373.726" y2="549.73"  stroke="#7f7fff" />
<line x1="1373.726" y1="850.27" x2="1373.726" y2="843.39"  stroke="#7f7fff" />
<line x1="1278.62" y1="850.27" x2="1373.726" y2="850.27"  stroke="#7f7fff" />
<polyline fill="none" stroke="#7f7fff" points="1373.726,556.61 1372.128,559.507 1370.573,562.404 1369.058,565.3 1367.585,568.197 1366.152,571.094 1364.757,573.991 1363.402,576.887 1362.085,579.784 1360.805,582.681 1359.562,585.578 1358.356,588.475 1357.186,591.371 1356.052,594.268 1354.952,597.165 1353.888,600.062 1352.858,602.958 1351.861,605.855 1350.899,608.752 1349.969,611.649 1349.072,614.545 1348.208,617.442 1347.377,620.339 1346.577,623.236 1345.809,626.132 1345.073,629.029 1344.367,631.926 1343.693,634.823 1343.05,637.72 1342.437,640.616 1341.855,643.513 1341.302,646.41 1340.78,649.307 1340.288,652.203 1339.825,655.1 1339.392,657.997 1338.989,660.894 1338.614,663.79 1338.269,666.687 1337.954,669.584 1337.667,672.481 1337.409,675.377 1337.18,678.274 1336.979,681.171 1336.808,684.068 1336.665,686.965 1336.55,689.861 1336.465,692.758 1336.408,695.655 1336.379,698.552 1336.379,701.448 1336.408,704.345 1336.465,707.242 1336.55,710.139 1336.665,713.035 1336.808,715.932 1336.979,718.829 1337.18,721.726 1337.409,724.623 1337.667,727.519 1337.954,730.416 1338.269,733.313 1338.614,736.21 1338.989,739.106 1339.392,742.003 1339.825,744.9 1340.288,747.797 1340.78,750.693 1341.302,753.59 1341.855,756.487 1342.437,759.384 1343.05,762.28 1343.693,765.177 1344.367,768.074 1345.073,770.971 1345.809,773.868 1346.577,776.764 1347.377,779.661 1348.208,782.558 1349.072,785.455 1349.969,788.351 1350.899,791.248 1351.861,794.145 1352.858,797.042 1353.888,799.938 1354.952,802.835 1356.052,805.732 1357.186,808.629 1358.356,811.525 1359.562,814.422 1360.805,817.319 1362.085,820.216 1363.402,823.113 1364.757,826.009 1366.152,828.906 1367.585,831.803 1369.058,834.7 1370.573,837.596 1372.128,840.493 1373.726,843.39 " />
</g>
<g>
<polyline fill="none" stroke="#7f7fff" points="1394.385,550.309 1395.398,553.333 1396.417,556.357 1397.44,559.381 1398.466,562.405 1399.493,565.429 1400.517,568.453 1401.537,571.477 1402.55,574.501 1403.551,577.525 1404.54,580.549 1405.512,583.573 1406.466,586.597 1407.399,589.622 1408.308,592.646 1409.192,595.67 1410.048,598.694 1410.875,601.718 1411.672,604.742 1412.438,607.766 1413.171,610.79 1413.87,613.814 1414.537,616.838 1415.169,619.862 1415.767,622.886 1416.332,625.91 1416.863,628.934 1417.361,631.958 1417.826,634.983 1418.26,638.007 1418.664,641.031 1419.037,644.055 1419.382,647.079 1419.699,650.103 1419.989,653.127 1420.254,656.151 1420.495,659.175 1420.713,662.199 1420.909,665.223 1421.084,668.247 1421.24,671.271 1421.377,674.295 1421.496,677.319 1421.598,680.344 1421.684,683.368 1421.755,686.392 1421.811,689.416 1421.852,692.44 1421.88,695.464 1421.893,698.488 1421.893,701.512 1421.88,704.536 1421.852,707.56 1421.811,710.584 1421.755,713.608 1421.684,716.632 1421.598,719.656 1421.496,722.681 1421.377,725.705 1421.24,728.729 1421.084,731.753 1420.909,734.777 1420.713,737.801 1420.495,740.825 1420.254,743.849 1419.989,746.873 1419.699,749.897 1419.382,752.921 1419.037,755.945 1418.664,758.969 1418.26,761.993 1417.826,765.017 1417.361,768.042 1416.863,771.066 1416.332,774.09 1415.767,777.114 1415.169,780.138 1414.537,783.162 1413.87,786.186 1413.171,789.21 1412.438,792.234 1411.672,795.258 1410.875,798.282 1410.048,801.306 1409.192,804.33 1408.308,807.354 1407.399,810.378 1406.466,813.403 1405.512,816.427 1404.54,819.451 1403.551,822.475 1402.55,825.499 1401.537,828.523 1400.517,831.547 1399.493,834.571 1398.466,837.595 1397.44,840.619 1396.417,843.643 1395.398,846.667 1394.385,849.691 " />
<line x1="1394.385" y1="544.007" x2="1394.385" y2="550.309"  stroke="#7f7fff" />
<line x1="1394.385" y1="544.007" x2="1429.194" y2="544.007"  stroke="#7f7fff" />
<line x1="1394.385" y1="855.993" x2="1394.385" y2="849.691"  stroke="#7f7fff" />
<line x1="1394.385" y1="855.993" x2="1429.194" y2="855.993"  stroke="#7f7fff" />
<polyline fill="none" stroke="#7f7fff" points="1429.194,544.007 1428.918,547.159 1428.715,550.31 1428.58,553.461 1428.509,556.613 1428.496,559.764 1428.536,562.915 1428.623,566.067 1428.754,569.218 1428.921,572.37 1429.121,575.521 1429.349,578.672 1429.599,581.824 1429.868,584.975 1430.15,588.126 1430.443,591.278 1430.741,594.429 1431.043,597.58 1431.345,600.732 1431.644,603.883 1431.938,607.035 1432.224,610.186 1432.501,613.337 1432.767,616.489 1433.021,619.64 1433.262,622.791 1433.489,625.943 1433.701,629.094 1433.898,632.246 1434.081,635.397 1434.249,638.548 1434.402,641.7 1434.54,644.851 1434.665,648.002 1434.777,651.154 1434.877,654.305 1434.965,657.457 1435.042,660.608 1435.109,663.759 1435.166,666.911 1435.216,670.062 1435.257,673.213 1435.292,676.365 1435.321,679.516 1435.345,682.667 1435.363,685.819 1435.377,688.97 1435.388,692.122 1435.394,695.273 1435.398,698.424 1435.398,701.576 1435.394,704.727 1435.388,707.878 1435.377,711.03 1435.363,714.181 1435.345,717.333 1435.321,720.484 1435.292,723.635 1435.257,726.787 1435.216,729.938 1435.166,733.089 1435.109,736.241 1435.042,739.392 1434.965,742.543 1434.877,745.695 1434.777,748.846 1434.665,751.998 1434.54,755.149 1434.402,758.3 1434.249,761.452 1434.081,764.603 1433.898,767.754 1433.701,770.906 1433.489,774.057 1433.262,777.209 1433.021,780.36 1432.767,783.511 1432.501,786.663 1432.224,789.814 1431.938,792.965 1431.644,796.117 1431.345,799.268 1431.043,802.42 1430.741,805.571 1430.443,808.722 1430.15,811.874 1429.868,815.025 1429.599,818.176 1429.349,821.328 1429.121,824.479 1428.921,827.63 1428.754,830.782 1428.623,833.933 1428.536,837.085 1428.496,840.236 1428.509,843.387 1428.58,846.539 1428.715,849.69 1428.918,852.841 1429.194,855.993 " />
</g>
</g>
<g><title>element</title>
<polyline fill="none" stroke="#7f7fff" points="1623.413,144.444 1623.413,155.668 1623.413,166.891 1623.413,178.114 1623.413,189.338 1623.413,200.561 1623.413,211.785 1623.413,223.008 1623.413,234.231 1623.413,245.455 1623.413,256.678 1623.413,267.901 1623.413,279.125 1623.413,290.348 1623.413,301.571 1623.413,312.795 1623.413,324.018 1623.413,335.241 1623.413,346.465 1623.413,357.688 1623.413,368.911 1623.413,380.135 1623.413,391.358 1623.413,402.581 1623.413,413.805 1623.413,425.028 1623.413,436.251 1623.413,447.475 1623.413,458.698 1623.413,469.921 1623.413,481.145 1623.413,492.368 1623.413,503.591 1623.413,514.815 1623.413,526.038 1623.413,537.262 1623.413,548.485 1623.413,559.708 1623.413,570.932 1623.413,582.155 1623.413,593.378 1623.413,604.602 1623.413,615.825 1623.413,627.048 1623.413,638.272 1623.413,649.495 1623.413,660.718 1623.413,671.942 1623.413,683.165 1623.413,694.388 1623.413,705.612 1623.413,716.835 1623.413,728.058 1623.413,739.282 1623.413,750.505 1623.413,761.728 1623.413,772.952 1623.413,784.175 1623.413,795.398 1623.413,806.622 1623.413,817.845 1623.413,829.068 1623.413,840.292 1623.413,851.515 1623.413,862.738 1623.413,873.962 1623.413,885.185 1623.413,896.409 1623.413,907.632 1623.413,918.855 1623.413,930.079 1623.413,941.302 1623.413,952.525 1623.413,963.749 1623.413,974.972 1623.413,986.195 1623.413,997.419 1623.413,1008.642 1623.413,1019.865 1623.413,1031.089 1623.413,1042.312 1623.413,1053.535 1623.413,1064.759 1623.413,1075.982 1623.413,1087.205 1623.413,1098.429 1623.413,1109.652 1623.413,1120.875 1623.413,1132.099 1623.413,1143.322 1623.413,1154.545 1623.413,1165.769 1623.413,1176.992 1623.413,1188.215 1623.413,1199.439 1623.413,1210.662 1623.413,1221.886 1623.413,1233.109 1623.413,1244.332 1623.413,1255.556 " />
</g>
</svg>
