<?xml version="1.0" standalone="no"?>
<svg width="2400px" height="1400px" version="1.1" xmlns="http://www.w3.org/2000/svg" xmlns:xlink="http://www.w3.org/1999/xlink">
<rect x="0" y="0" width="2400" height="1400"  fill="#ffffff" />
<defs>
<g id="dot">
<line x1="1" y1="1" x2="0" y2="0"  />
</g>
<g id="cross">
<line x1="-3" y1="0" x2="3" y2="0"  />
<line x1="0" y1="-3" x2="0" y2="3"  />
</g>
<g id="square">
<line x1="-3" y1="-3" x2="-3" y2="3"  />
<line x1="-3" y1="3" x2="3" y2="3"  />
<line x1="3" y1="3" x2="3" y2="-3"  />
<line x1="3" y1="-3" x2="-3" y2="-3"  />
</g>
<g id="round">
<ellipse cx="0" cy="0" rx="3" ry="3"  fill="none" /></g>
<g id="triangle">
<line x1="0" y1="-3" x2="-3" y2="3"  />
<line x1="-3" y1="3" x2="3" y2="3"  />
<line x1="0" y1="-3" x2="3" y2="3"  />
</g>
</defs>
<line x1="589.101" y1="700" x2="1810.899" y2="700"  stroke="#7f7f7f" />
<g><title>element</title>
<g>
<line x1="972.547" y1="499.58" x2="972.547" y2="299.161"  stroke="#7f7fff" />
<line x1="972.547" y1="900.42" x2="972.547" y2="1100.839"  stroke="#7f7fff" />
</g>
<g>
<polyline fill="none" stroke="#7f7fff" points="646.268,375.963 643.911,382.51 641.609,389.056 639.36,395.602 637.164,402.148 635.021,408.694 632.931,415.241 630.893,421.787 628.907,428.333 626.972,434.879 625.088,441.425 623.256,447.972 621.473,454.518 619.741,461.064 618.059,467.61 616.427,474.156 614.844,480.702 613.31,487.249 611.825,493.795 610.389,500.341 609.001,506.887 607.661,513.433 606.37,519.98 605.126,526.526 603.93,533.072 602.781,539.618 601.68,546.164 600.626,552.711 599.618,559.257 598.658,565.803 597.744,572.349 596.877,578.895 596.056,585.442 595.281,591.988 594.553,598.534 593.87,605.08 593.233,611.626 592.643,618.173 592.098,624.719 591.599,631.265 591.145,637.811 590.737,644.357 590.374,650.904 590.057,657.45 589.785,663.996 589.559,670.542 589.378,677.088 589.242,683.635 589.152,690.181 589.106,696.727 589.106,703.273 589.152,709.819 589.242,716.365 589.378,722.912 589.559,729.458 589.785,736.004 590.057,742.55 590.374,749.096 590.737,755.643 591.145,762.189 591.599,768.735 592.098,775.281 592.643,781.827 593.233,788.374 593.87,794.92 594.553,801.466 595.281,808.012 596.056,814.558 596.877,821.105 597.744,827.651 598.658,834.197 599.618,840.743 600.626,847.289 601.68,853.836 602.781,860.382 603.93,866.928 605.126,873.474 606.37,880.02 607.661,886.567 609.001,893.113 610.389,899.659 611.825,906.205 613.31,912.751 614.844,919.298 616.427,925.844 618.059,932.39 619.741,938.936 621.473,945.482 623.256,952.028 625.088,958.575 626.972,965.121 628.907,971.667 630.893,978.213 632.931,984.759 635.021,991.306 637.164,997.852 639.36,1004.398 641.609,1010.944 643.911,1017.49 646.268,1024.037 " />
<line x1="646.268" y1="375.963" x2="680.933" y2="375.963"  stroke="#7f7fff" />
<line x1="646.268" y1="1024.037" x2="680.933" y2="1024.037"  stroke="#7f7fff" />
<polyline fill="none" stroke="#7f7fff" points="680.933,375.963 680.941,382.51 680.949,389.056 680.957,395.602 680.964,402.148 680.972,408.694 680.979,415.241 680.986,421.787 680.993,428.333 681,434.879 681.007,441.425 681.013,447.972 681.02,454.518 681.026,461.064 681.032,467.61 681.038,474.156 681.043,480.702 681.049,487.249 681.054,493.795 681.059,500.341 681.064,506.887 681.069,513.433 681.074,519.98 681.078,526.526 681.083,533.072 681.087,539.618 681.091,546.164 681.095,552.711 681.098,559.257 681.102,565.803 681.105,572.349 681.108,578.895 681.111,585.442 681.114,591.988 681.117,598.534 681.119,605.08 681.122,611.626 681.124,618.173 681.126,624.719 681.128,631.265 681.13,637.811 681.131,644.357 681.132,650.904 681.134,657.45 681.135,663.996 681.135,670.542 681.136,677.088 681.137,683.635 681.137,690.181 681.137,696.727 681.137,703.273 681.137,709.819 681.137,716.365 681.136,722.912 681.135,729.458 681.135,736.004 681.134,742.55 681.132,749.096 681.131,755.643 681.13,762.189 681.128,768.735 681.126,775.281 681.124,781.827 681.122,788.374 681.119,794.92 681.117,801.466 681.114,808.012 681.111,814.558 681.108,821.105 681.105,827.651 681.102,834.197 681.098,840.743 681.095,847.289 681.091,853.836 681.087,860.382 681.083,866.928 681.078,873.474 681.074,880.02 681.069,886.567 681.064,893.113 681.059,899.659 681.054,906.205 681.049,912.751 681.043,919.298 681.038,925.844 681.032,932.39 681.026,938.936 681.02,945.482 681.013,952.028 681.007,958.575 681,965.121 680.993,971.667 680.986,978.213 680.979,984.759 680.972,991.306 680.964,997.852 680.957,1004.398 680.949,1010.944 680.941,1017.49 680.933,1024.037 " />
</g>
<g>
<polyline fill="none" stroke="#7f7fff" points="796.222,412.261 791.065,418.074 786.093,423.887 781.296,429.7 776.666,435.513 772.198,441.326 767.885,447.139 763.721,452.952 759.701,458.764 755.821,464.577 752.075,470.39 748.459,476.203 744.97,482.016 741.604,487.829 738.359,493.642 735.23,499.455 732.214,505.268 729.31,511.081 726.515,516.894 723.827,522.706 721.242,528.519 718.76,534.332 716.377,540.145 714.094,545.958 711.907,551.771 709.816,557.584 707.818,563.397 705.912,569.21 704.098,575.023 702.374,580.835 700.738,586.648 699.19,592.461 697.729,598.274 696.354,604.087 695.064,609.9 693.858,615.713 692.736,621.526 691.696,627.339 690.739,633.152 689.863,638.965 689.068,644.777 688.355,650.59 687.721,656.403 687.168,662.216 686.694,668.029 686.299,673.842 685.984,679.655 685.747,685.468 685.59,691.281 685.511,697.094 685.511,702.906 685.59,708.719 685.747,714.532 685.984,720.345 686.299,726.158 686.694,731.971 687.168,737.784 687.721,743.597 688.355,749.41 689.068,755.223 689.863,761.035 690.739,766.848 691.696,772.661 692.736,778.474 693.858,784.287 695.064,790.1 696.354,795.913 697.729,801.726 699.19,807.539 700.738,813.352 702.374,819.165 704.098,824.977 705.912,830.79 707.818,836.603 709.816,842.416 711.907,848.229 714.094,854.042 716.377,859.855 718.76,865.668 721.242,871.481 723.827,877.294 726.515,883.106 729.31,888.919 732.214,894.732 735.23,900.545 738.359,906.358 741.604,912.171 744.97,917.984 748.459,923.797 752.075,929.61 755.821,935.423 759.701,941.236 763.721,947.048 767.885,952.861 772.198,958.674 776.666,964.487 781.296,970.3 786.093,976.113 791.065,981.926 796.222,987.739 " />
<line x1="796.222" y1="412.261" x2="857.264" y2="412.261"  stroke="#7f7fff" />
<line x1="796.222" y1="987.739" x2="857.264" y2="987.739"  stroke="#7f7fff" />
<polyline fill="none" stroke="#7f7fff" points="857.264,412.261 855.286,418.074 853.352,423.887 851.462,429.7 849.617,435.513 847.816,441.326 846.059,447.139 844.345,452.952 842.674,458.764 841.046,464.577 839.461,470.39 837.918,476.203 836.418,482.016 834.96,487.829 833.543,493.642 832.168,499.455 830.834,505.268 829.542,511.081 828.29,516.894 827.08,522.706 825.91,528.519 824.781,534.332 823.691,540.145 822.642,545.958 821.634,551.771 820.665,557.584 819.735,563.397 818.846,569.21 817.996,575.023 817.185,580.835 816.414,586.648 815.682,592.461 814.989,598.274 814.335,604.087 813.72,609.9 813.143,615.713 812.606,621.526 812.107,627.339 811.647,633.152 811.225,638.965 810.842,644.777 810.497,650.59 810.191,656.403 809.923,662.216 809.693,668.029 809.502,673.842 809.349,679.655 809.235,685.468 809.158,691.281 809.12,697.094 809.12,702.906 809.158,708.719 809.235,714.532 809.349,720.345 809.502,726.158 809.693,731.971 809.923,737.784 810.191,743.597 810.497,749.41 810.842,755.223 811.225,761.035 811.647,766.848 812.107,772.661 812.606,778.474 813.143,784.287 813.72,790.1 814.335,795.913 814.989,801.726 815.682,807.539 816.414,813.352 817.185,819.165 817.996,824.977 818.846,830.79 819.735,836.603 820.665,842.416 821.634,848.229 822.642,854.042 823.691,859.855 824.781,865.668 825.91,871.481 827.08,877.294 828.29,883.106 829.542,888.919 830.834,894.732 832.168,900.545 833.543,906.358 834.96,912.171 836.418,917.984 837.918,923.797 839.461,929.61 841.046,935.423 842.674,941.236 844.345,947.048 846.059,952.861 847.816,958.674 849.617,964.487 851.462,970.3 853.352,976.113 855.286,981.926 857.264,987.739 " />
</g>
<g>
<polyline fill="none" stroke="#7f7fff" points="850.495,429.353 849.657,434.82 848.836,440.288 848.033,445.756 847.247,451.223 846.478,456.691 845.727,462.159 844.993,467.626 844.277,473.094 843.578,478.561 842.896,484.029 842.232,489.497 841.585,494.964 840.955,500.432 840.342,505.899 839.747,511.367 839.168,516.835 838.607,522.302 838.064,527.77 837.537,533.238 837.027,538.705 836.535,544.173 836.06,549.64 835.601,555.108 835.16,560.576 834.736,566.043 834.329,571.511 833.939,576.979 833.566,582.446 833.21,587.914 832.871,593.381 832.55,598.849 832.245,604.317 831.957,609.784 831.686,615.252 831.432,620.72 831.195,626.187 830.975,631.655 830.772,637.122 830.586,642.59 830.416,648.058 830.264,653.525 830.129,658.993 830.01,664.46 829.909,669.928 829.824,675.396 829.757,680.863 829.706,686.331 829.672,691.799 829.655,697.266 829.655,702.734 829.672,708.201 829.706,713.669 829.757,719.137 829.824,724.604 829.909,730.072 830.01,735.54 830.129,741.007 830.264,746.475 830.416,751.942 830.586,757.41 830.772,762.878 830.975,768.345 831.195,773.813 831.432,779.28 831.686,784.748 831.957,790.216 832.245,795.683 832.55,801.151 832.871,806.619 833.21,812.086 833.566,817.554 833.939,823.021 834.329,828.489 834.736,833.957 835.16,839.424 835.601,844.892 836.06,850.36 836.535,855.827 837.027,861.295 837.537,866.762 838.064,872.23 838.607,877.698 839.168,883.165 839.747,888.633 840.342,894.101 840.955,899.568 841.585,905.036 842.232,910.503 842.896,915.971 843.578,921.439 844.277,926.906 844.993,932.374 845.727,937.841 846.478,943.309 847.247,948.777 848.033,954.244 848.836,959.712 849.657,965.18 850.495,970.647 " />
<line x1="946.542" y1="429.353" x2="946.542" y2="493.795"  stroke="#7f7fff" />
<line x1="850.495" y1="429.353" x2="946.542" y2="429.353"  stroke="#7f7fff" />
<line x1="946.542" y1="970.647" x2="946.542" y2="906.205"  stroke="#7f7fff" />
<line x1="850.495" y1="970.647" x2="946.542" y2="970.647"  stroke="#7f7fff" />
<polyline fill="none" stroke="#7f7fff" points="946.542,493.795 943.234,497.961 940.033,502.126 936.937,506.292 933.941,510.458 931.043,514.624 928.238,518.789 925.525,522.955 922.901,527.121 920.362,531.287 917.907,535.452 915.534,539.618 913.241,543.784 911.025,547.95 908.885,552.116 906.819,556.281 904.827,560.447 902.905,564.613 901.054,568.779 899.271,572.944 897.555,577.11 895.906,581.276 894.323,585.442 892.803,589.607 891.347,593.773 889.953,597.939 888.621,602.105 887.349,606.27 886.138,610.436 884.986,614.602 883.893,618.768 882.858,622.933 881.88,627.099 880.959,631.265 880.096,635.431 879.288,639.596 878.535,643.762 877.839,647.928 877.197,652.094 876.609,656.26 876.076,660.425 875.597,664.591 875.172,668.757 874.801,672.923 874.482,677.088 874.217,681.254 874.006,685.42 873.847,689.586 873.741,693.751 873.688,697.917 873.688,702.083 873.741,706.249 873.847,710.414 874.006,714.58 874.217,718.746 874.482,722.912 874.801,727.077 875.172,731.243 875.597,735.409 876.076,739.575 876.609,743.74 877.197,747.906 877.839,752.072 878.535,756.238 879.288,760.404 880.096,764.569 880.959,768.735 881.88,772.901 882.858,777.067 883.893,781.232 884.986,785.398 886.138,789.564 887.349,793.73 888.621,797.895 889.953,802.061 891.347,806.227 892.803,810.393 894.323,814.558 895.906,818.724 897.555,822.89 899.271,827.056 901.054,831.221 902.905,835.387 904.827,839.553 906.819,843.719 908.885,847.884 911.025,852.05 913.241,856.216 915.534,860.382 917.907,864.548 920.362,868.713 922.901,872.879 925.525,877.045 928.238,881.211 931.043,885.376 933.941,889.542 936.937,893.708 940.033,897.874 943.234,902.039 946.542,906.205 " />
</g>
<g>
<polyline fill="none" stroke="#7f7fff" points="999.348,498.181 1002.681,502.258 1005.903,506.335 1009.018,510.413 1012.03,514.49 1014.943,518.567 1017.759,522.644 1020.483,526.721 1023.116,530.798 1025.662,534.875 1028.122,538.953 1030.5,543.03 1032.797,547.107 1035.015,551.184 1037.157,555.261 1039.223,559.338 1041.217,563.415 1043.138,567.493 1044.989,571.57 1046.77,575.647 1048.484,579.724 1050.131,583.801 1051.713,587.878 1053.23,591.956 1054.684,596.033 1056.075,600.11 1057.405,604.187 1058.673,608.264 1059.882,612.341 1061.031,616.418 1062.121,620.496 1063.153,624.573 1064.128,628.65 1065.046,632.727 1065.907,636.804 1066.712,640.881 1067.462,644.958 1068.156,649.036 1068.796,653.113 1069.381,657.19 1069.912,661.267 1070.39,665.344 1070.813,669.421 1071.183,673.499 1071.5,677.576 1071.764,681.653 1071.975,685.73 1072.133,689.807 1072.239,693.884 1072.291,697.961 1072.291,702.039 1072.239,706.116 1072.133,710.193 1071.975,714.27 1071.764,718.347 1071.5,722.424 1071.183,726.501 1070.813,730.579 1070.39,734.656 1069.912,738.733 1069.381,742.81 1068.796,746.887 1068.156,750.964 1067.462,755.042 1066.712,759.119 1065.907,763.196 1065.046,767.273 1064.128,771.35 1063.153,775.427 1062.121,779.504 1061.031,783.582 1059.882,787.659 1058.673,791.736 1057.405,795.813 1056.075,799.89 1054.684,803.967 1053.23,808.044 1051.713,812.122 1050.131,816.199 1048.484,820.276 1046.77,824.353 1044.989,828.43 1043.138,832.507 1041.217,836.585 1039.223,840.662 1037.157,844.739 1035.015,848.816 1032.797,852.893 1030.5,856.97 1028.122,861.047 1025.662,865.125 1023.116,869.202 1020.483,873.279 1017.759,877.356 1014.943,881.433 1012.03,885.51 1009.018,889.587 1005.903,893.665 1002.681,897.742 999.348,901.819 " />
<line x1="999.348" y1="441.99" x2="999.348" y2="498.181"  stroke="#7f7fff" />
<line x1="999.348" y1="441.99" x2="1104.815" y2="441.99"  stroke="#7f7fff" />
<line x1="999.348" y1="958.01" x2="999.348" y2="901.819"  stroke="#7f7fff" />
<line x1="999.348" y1="958.01" x2="1104.815" y2="958.01"  stroke="#7f7fff" />
<polyline fill="none" stroke="#7f7fff" points="1104.815,441.99 1104.474,447.202 1104.14,452.415 1103.813,457.627 1103.493,462.839 1103.18,468.052 1102.874,473.264 1102.575,478.476 1102.283,483.689 1101.998,488.901 1101.72,494.113 1101.449,499.326 1101.185,504.538 1100.928,509.75 1100.678,514.963 1100.435,520.175 1100.199,525.387 1099.969,530.6 1099.747,535.812 1099.532,541.024 1099.323,546.237 1099.122,551.449 1098.927,556.661 1098.74,561.874 1098.559,567.086 1098.386,572.298 1098.219,577.51 1098.059,582.723 1097.906,587.935 1097.761,593.147 1097.622,598.36 1097.49,603.572 1097.365,608.784 1097.247,613.997 1097.136,619.209 1097.032,624.421 1096.934,629.634 1096.844,634.846 1096.761,640.058 1096.684,645.271 1096.615,650.483 1096.553,655.695 1096.497,660.908 1096.448,666.12 1096.407,671.332 1096.372,676.545 1096.344,681.757 1096.324,686.969 1096.31,692.182 1096.303,697.394 1096.303,702.606 1096.31,707.818 1096.324,713.031 1096.344,718.243 1096.372,723.455 1096.407,728.668 1096.448,733.88 1096.497,739.092 1096.553,744.305 1096.615,749.517 1096.684,754.729 1096.761,759.942 1096.844,765.154 1096.934,770.366 1097.032,775.579 1097.136,780.791 1097.247,786.003 1097.365,791.216 1097.49,796.428 1097.622,801.64 1097.761,806.853 1097.906,812.065 1098.059,817.277 1098.219,822.49 1098.386,827.702 1098.559,832.914 1098.74,838.126 1098.927,843.339 1099.122,848.551 1099.323,853.763 1099.532,858.976 1099.747,864.188 1099.969,869.4 1100.199,874.613 1100.435,879.825 1100.678,885.037 1100.928,890.25 1101.185,895.462 1101.449,900.674 1101.72,905.887 1101.998,911.099 1102.283,916.311 1102.575,921.524 1102.874,926.736 1103.18,931.948 1103.493,937.161 1103.813,942.373 1104.14,947.585 1104.474,952.798 1104.815,958.01 " />
<line x1="1104.815" y1="441.99" x2="1127.473" y2="441.99"  stroke="#7f7fff" />
<line x1="1104.815" y1="958.01" x2="1127.473" y2="958.01"  stroke="#7f7fff" />
<polyline fill="none" stroke="#7f7fff" points="1127.473,441.99 1130.528,447.202 1133.501,452.415 1136.392,457.627 1139.204,462.839 1141.937,468.052 1144.594,473.264 1147.175,478.476 1149.682,483.689 1152.117,488.901 1154.479,494.113 1156.771,499.326 1158.993,504.538 1161.147,509.75 1163.233,514.963 1165.252,520.175 1167.205,525.387 1169.093,530.6 1170.917,535.812 1172.677,541.024 1174.374,546.237 1176.009,551.449 1177.583,556.661 1179.095,561.874 1180.547,567.086 1181.939,572.298 1183.272,577.51 1184.545,582.723 1185.761,587.935 1186.918,593.147 1188.017,598.36 1189.06,603.572 1190.045,608.784 1190.974,613.997 1191.847,619.209 1192.663,624.421 1193.425,629.634 1194.13,634.846 1194.781,640.058 1195.376,645.271 1195.917,650.483 1196.403,655.695 1196.835,660.908 1197.213,666.12 1197.536,671.332 1197.806,676.545 1198.021,681.757 1198.182,686.969 1198.29,692.182 1198.344,697.394 1198.344,702.606 1198.29,707.818 1198.182,713.031 1198.021,718.243 1197.806,723.455 1197.536,728.668 1197.213,733.88 1196.835,739.092 1196.403,744.305 1195.917,749.517 1195.376,754.729 1194.781,759.942 1194.13,765.154 1193.425,770.366 1192.663,775.579 1191.847,780.791 1190.974,786.003 1190.045,791.216 1189.06,796.428 1188.017,801.64 1186.918,806.853 1185.761,812.065 1184.545,817.277 1183.272,822.49 1181.939,827.702 1180.547,832.914 1179.095,838.126 1177.583,843.339 1176.009,848.551 1174.374,853.763 1172.677,858.976 1170.917,864.188 1169.093,869.4 1167.205,874.613 1165.252,879.825 1163.233,885.037 1161.147,890.25 1158.993,895.462 1156.771,900.674 1154.479,905.887 1152.117,911.099 1149.682,916.311 1147.175,921.524 1144.594,926.736 1141.937,931.948 1139.204,937.161 1136.392,942.373 1133.501,947.585 1130.528,952.798 1127.473,958.01 " />
</g>
<g>
<polyline fill="none" stroke="#7f7fff" points="1194.992,446.483 1195.332,451.604 1195.665,456.726 1195.991,461.848 1196.31,466.969 1196.623,472.091 1196.928,477.212 1197.226,482.334 1197.517,487.455 1197.802,492.577 1198.079,497.698 1198.35,502.82 1198.613,507.942 1198.87,513.063 1199.119,518.185 1199.362,523.306 1199.597,528.428 1199.826,533.549 1200.048,538.671 1200.263,543.792 1200.471,548.914 1200.672,554.036 1200.866,559.157 1201.053,564.279 1201.233,569.4 1201.406,574.522 1201.573,579.643 1201.732,584.765 1201.884,589.886 1202.03,595.008 1202.168,600.13 1202.3,605.251 1202.425,610.373 1202.542,615.494 1202.653,620.616 1202.757,625.737 1202.854,630.859 1202.944,635.981 1203.027,641.102 1203.103,646.224 1203.173,651.345 1203.235,656.467 1203.29,661.588 1203.339,666.71 1203.38,671.831 1203.415,676.953 1203.443,682.075 1203.463,687.196 1203.477,692.318 1203.484,697.439 1203.484,702.561 1203.477,707.682 1203.463,712.804 1203.443,717.925 1203.415,723.047 1203.38,728.169 1203.339,733.29 1203.29,738.412 1203.235,743.533 1203.173,748.655 1203.103,753.776 1203.027,758.898 1202.944,764.019 1202.854,769.141 1202.757,774.263 1202.653,779.384 1202.542,784.506 1202.425,789.627 1202.3,794.749 1202.168,799.87 1202.03,804.992 1201.884,810.114 1201.732,815.235 1201.573,820.357 1201.406,825.478 1201.233,830.6 1201.053,835.721 1200.866,840.843 1200.672,845.964 1200.471,851.086 1200.263,856.208 1200.048,861.329 1199.826,866.451 1199.597,871.572 1199.362,876.694 1199.119,881.815 1198.87,886.937 1198.613,892.058 1198.35,897.18 1198.079,902.302 1197.802,907.423 1197.517,912.545 1197.226,917.666 1196.928,922.788 1196.623,927.909 1196.31,933.031 1195.991,938.152 1195.665,943.274 1195.332,948.396 1194.992,953.517 " />
<line x1="1194.992" y1="446.483" x2="1230.087" y2="446.483"  stroke="#7f7fff" />
<line x1="1194.992" y1="953.517" x2="1230.087" y2="953.517"  stroke="#7f7fff" />
<polyline fill="none" stroke="#7f7fff" points="1230.087,446.483 1231.972,451.604 1233.814,456.726 1235.612,461.848 1237.368,466.969 1239.081,472.091 1240.752,477.212 1242.381,482.334 1243.969,487.455 1245.515,492.577 1247.02,497.698 1248.485,502.82 1249.909,507.942 1251.292,513.063 1252.636,518.185 1253.94,523.306 1255.204,528.428 1256.429,533.549 1257.615,538.671 1258.762,543.792 1259.87,548.914 1260.94,554.036 1261.971,559.157 1262.964,564.279 1263.919,569.4 1264.836,574.522 1265.715,579.643 1266.557,584.765 1267.361,589.886 1268.127,595.008 1268.857,600.13 1269.549,605.251 1270.204,610.373 1270.822,615.494 1271.404,620.616 1271.948,625.737 1272.456,630.859 1272.927,635.981 1273.362,641.102 1273.761,646.224 1274.122,651.345 1274.448,656.467 1274.737,661.588 1274.99,666.71 1275.207,671.831 1275.388,676.953 1275.532,682.075 1275.641,687.196 1275.713,692.318 1275.749,697.439 1275.749,702.561 1275.713,707.682 1275.641,712.804 1275.532,717.925 1275.388,723.047 1275.207,728.169 1274.99,733.29 1274.737,738.412 1274.448,743.533 1274.122,748.655 1273.761,753.776 1273.362,758.898 1272.927,764.019 1272.456,769.141 1271.948,774.263 1271.404,779.384 1270.822,784.506 1270.204,789.627 1269.549,794.749 1268.857,799.87 1268.127,804.992 1267.361,810.114 1266.557,815.235 1265.715,820.357 1264.836,825.478 1263.919,830.6 1262.964,835.721 1261.971,840.843 1260.94,845.964 1259.87,851.086 1258.762,856.208 1257.615,861.329 1256.429,866.451 1255.204,871.572 1253.94,876.694 1252.636,881.815 1251.292,886.937 1249.909,892.058 1248.485,897.18 1247.02,902.302 1245.515,907.423 1243.969,912.545 1242.381,917.666 1240.752,922.788 1239.081,927.909 1237.368,933.031 1235.612,938.152 1233.814,943.274 1231.972,948.396 1230.087,953.517 " />
</g>
<g>
<polyline fill="none" stroke="#7f7fff" points="1295.815,454.345 1295.06,459.308 1294.32,464.271 1293.597,469.233 1292.889,474.196 1292.196,479.159 1291.519,484.121 1290.858,489.084 1290.213,494.047 1289.583,499.01 1288.969,503.972 1288.37,508.935 1287.787,513.898 1287.22,518.861 1286.668,523.823 1286.131,528.786 1285.611,533.749 1285.105,538.711 1284.615,543.674 1284.141,548.637 1283.681,553.6 1283.238,558.562 1282.809,563.525 1282.397,568.488 1281.999,573.451 1281.617,578.413 1281.25,583.376 1280.899,588.339 1280.563,593.301 1280.242,598.264 1279.937,603.227 1279.647,608.19 1279.372,613.152 1279.113,618.115 1278.869,623.078 1278.64,628.04 1278.426,633.003 1278.228,637.966 1278.045,642.929 1277.877,647.891 1277.725,652.854 1277.588,657.817 1277.466,662.78 1277.359,667.742 1277.268,672.705 1277.191,677.668 1277.13,682.63 1277.085,687.593 1277.054,692.556 1277.039,697.519 1277.039,702.481 1277.054,707.444 1277.085,712.407 1277.13,717.37 1277.191,722.332 1277.268,727.295 1277.359,732.258 1277.466,737.22 1277.588,742.183 1277.725,747.146 1277.877,752.109 1278.045,757.071 1278.228,762.034 1278.426,766.997 1278.64,771.96 1278.869,776.922 1279.113,781.885 1279.372,786.848 1279.647,791.81 1279.937,796.773 1280.242,801.736 1280.563,806.699 1280.899,811.661 1281.25,816.624 1281.617,821.587 1281.999,826.549 1282.397,831.512 1282.809,836.475 1283.238,841.438 1283.681,846.4 1284.141,851.363 1284.615,856.326 1285.105,861.289 1285.611,866.251 1286.131,871.214 1286.668,876.177 1287.22,881.139 1287.787,886.102 1288.37,891.065 1288.969,896.028 1289.583,900.99 1290.213,905.953 1290.858,910.916 1291.519,915.879 1292.196,920.841 1292.889,925.804 1293.597,930.767 1294.32,935.729 1295.06,940.692 1295.815,945.655 " />
<line x1="1295.815" y1="454.345" x2="1305.409" y2="454.345"  stroke="#7f7fff" />
<line x1="1295.815" y1="945.655" x2="1305.409" y2="945.655"  stroke="#7f7fff" />
<polyline fill="none" stroke="#7f7fff" points="1305.409,454.345 1306.383,459.308 1307.337,464.271 1308.269,469.233 1309.182,474.196 1310.074,479.159 1310.945,484.121 1311.796,489.084 1312.627,494.047 1313.437,499.01 1314.227,503.972 1314.997,508.935 1315.747,513.898 1316.476,518.861 1317.186,523.823 1317.875,528.786 1318.544,533.749 1319.193,538.711 1319.823,543.674 1320.432,548.637 1321.021,553.6 1321.591,558.562 1322.14,563.525 1322.67,568.488 1323.18,573.451 1323.67,578.413 1324.14,583.376 1324.59,588.339 1325.021,593.301 1325.432,598.264 1325.823,603.227 1326.195,608.19 1326.547,613.152 1326.88,618.115 1327.192,623.078 1327.485,628.04 1327.759,633.003 1328.013,637.966 1328.247,642.929 1328.462,647.891 1328.657,652.854 1328.833,657.817 1328.989,662.78 1329.125,667.742 1329.243,672.705 1329.34,677.668 1329.418,682.63 1329.477,687.593 1329.516,692.556 1329.535,697.519 1329.535,702.481 1329.516,707.444 1329.477,712.407 1329.418,717.37 1329.34,722.332 1329.243,727.295 1329.125,732.258 1328.989,737.22 1328.833,742.183 1328.657,747.146 1328.462,752.109 1328.247,757.071 1328.013,762.034 1327.759,766.997 1327.485,771.96 1327.192,776.922 1326.88,781.885 1326.547,786.848 1326.195,791.81 1325.823,796.773 1325.432,801.736 1325.021,806.699 1324.59,811.661 1324.14,816.624 1323.67,821.587 1323.18,826.549 1322.67,831.512 1322.14,836.475 1321.591,841.438 1321.021,846.4 1320.432,851.363 1319.823,856.326 1319.193,861.289 1318.544,866.251 1317.875,871.214 1317.186,876.177 1316.476,881.139 1315.747,886.102 1314.997,891.065 1314.227,896.028 1313.437,900.99 1312.627,905.953 1311.796,910.916 1310.945,915.879 1310.074,920.841 1309.182,925.804 1308.269,930.767 1307.337,935.729 1306.383,940.692 1305.409,945.655 " />
</g>
</g>
<g><title>element</title>
<polyline fill="none" stroke="#7f7fff" points="1810.899,144.444 1810.899,155.668 1810.899,166.891 1810.899,178.114 1810.899,189.338 1810.899,200.561 1810.899,211.785 1810.899,223.008 1810.899,234.231 1810.899,245.455 1810.899,256.678 1810.899,267.901 1810.899,279.125 1810.899,290.348 1810.899,301.571 1810.899,312.795 1810.899,324.018 1810.899,335.241 1810.899,346.465 1810.899,357.688 1810.899,368.911 1810.899,380.135 1810.899,391.358 1810.899,402.581 1810.899,413.805 1810.899,425.028 1810.899,436.251 1810.899,447.475 1810.899,458.698 1810.899,469.921 1810.899,481.145 1810.899,492.368 1810.899,503.591 1810.899,514.815 1810.899,526.038 1810.899,537.262 1810.899,548.485 1810.899,559.708 1810.899,570.932 1810.899,582.155 1810.899,593.378 1810.899,604.602 1810.899,615.825 1810.899,627.048 1810.899,638.272 1810.899,649.495 1810.899,660.718 1810.899,671.942 1810.899,683.165 1810.899,694.388 1810.899,705.612 1810.899,716.835 1810.899,728.058 1810.899,739.282 1810.899,750.505 1810.899,761.728 1810.899,772.952 1810.899,784.175 1810.899,795.398 1810.899,806.622 1810.899,817.845 1810.899,829.068 1810.899,840.292 1810.899,851.515 1810.899,862.738 1810.899,873.962 1810.899,885.185 1810.899,896.409 1810.899,907.632 1810.899,918.855 1810.899,930.079 1810.899,941.302 1810.899,952.525 1810.899,963.749 1810.899,974.972 1810.899,986.195 1810.899,997.419 1810.899,1008.642 1810.899,1019.865 1810.899,1031.089 1810.899,1042.312 1810.899,1053.535 1810.899,1064.759 1810.899,1075.982 1810.899,1087.205 1810.899,1098.429 1810.899,1109.652 1810.899,1120.875 1810.899,1132.099 1810.899,1143.322 1810.899,1154.545 1810.899,1165.769 1810.899,1176.992 1810.899,1188.215 1810.899,1199.439 1810.899,1210.662 1810.899,1221.886 1810.899,1233.109 1810.899,1244.332 1810.899,1255.556 " />
</g>
</svg>
