<?xml version="1.0" standalone="no"?>
<svg width="2400px" height="1400px" version="1.1" xmlns="http://www.w3.org/2000/svg" xmlns:xlink="http://www.w3.org/1999/xlink">
<rect x="0" y="0" width="2400" height="1400"  fill="#ffffff" />
<defs>
<g id="dot">
<line x1="1" y1="1" x2="0" y2="0"  />
</g>
<g id="cross">
<line x1="-3" y1="0" x2="3" y2="0"  />
<line x1="0" y1="-3" x2="0" y2="3"  />
</g>
<g id="square">
<line x1="-3" y1="-3" x2="-3" y2="3"  />
<line x1="-3" y1="3" x2="3" y2="3"  />
<line x1="3" y1="3" x2="3" y2="-3"  />
<line x1="3" y1="-3" x2="-3" y2="-3"  />
</g>
<g id="round">
<ellipse cx="0" cy="0" rx="3" ry="3"  fill="none" /></g>
<g id="triangle">
<line x1="0" y1="-3" x2="-3" y2="3"  />
<line x1="-3" y1="3" x2="3" y2="3"  />
<line x1="0" y1="-3" x2="3" y2="3"  />
</g>
</defs>
<line x1="434.993" y1="700" x2="1965.007" y2="700"  stroke="#7f7f7f" />
<g><title>element</title>
<g>
<line x1="920.701" y1="452.26" x2="920.701" y2="204.52"  stroke="#7f7fff" />
<line x1="920.701" y1="947.74" x2="920.701" y2="1195.48"  stroke="#7f7fff" />
</g>
<g>
<polyline fill="none" stroke="#7f7fff" points="441.021,400.005 441.007,406.066 440.994,412.126 440.98,418.187 440.967,424.247 440.954,430.308 440.942,436.368 440.929,442.429 440.917,448.489 440.906,454.55 440.894,460.61 440.883,466.671 440.872,472.731 440.862,478.792 440.851,484.852 440.841,490.913 440.831,496.973 440.822,503.034 440.813,509.094 440.804,515.155 440.795,521.215 440.787,527.276 440.779,533.336 440.771,539.397 440.764,545.457 440.757,551.518 440.75,557.578 440.743,563.639 440.737,569.699 440.731,575.76 440.725,581.82 440.72,587.881 440.715,593.941 440.71,600.002 440.705,606.062 440.701,612.123 440.697,618.183 440.693,624.244 440.69,630.304 440.687,636.365 440.684,642.425 440.681,648.486 440.679,654.546 440.677,660.607 440.675,666.667 440.674,672.728 440.673,678.788 440.672,684.849 440.671,690.909 440.671,696.97 440.671,703.03 440.671,709.091 440.672,715.151 440.673,721.212 440.674,727.272 440.675,733.333 440.677,739.393 440.679,745.454 440.681,751.514 440.684,757.575 440.687,763.635 440.69,769.696 440.693,775.756 440.697,781.817 440.701,787.877 440.705,793.938 440.71,799.998 440.715,806.059 440.72,812.119 440.725,818.18 440.731,824.24 440.737,830.301 440.743,836.361 440.75,842.422 440.757,848.482 440.764,854.543 440.771,860.603 440.779,866.664 440.787,872.724 440.795,878.785 440.804,884.845 440.813,890.906 440.822,896.966 440.831,903.027 440.841,909.087 440.851,915.148 440.862,921.208 440.872,927.269 440.883,933.329 440.894,939.39 440.906,945.45 440.917,951.511 440.929,957.571 440.942,963.632 440.954,969.692 440.967,975.753 440.98,981.813 440.994,987.874 441.007,993.934 441.021,999.995 " />
<line x1="441.021" y1="400.005" x2="463.03" y2="400.005"  stroke="#7f7fff" />
<line x1="441.021" y1="999.995" x2="463.03" y2="999.995"  stroke="#7f7fff" />
<polyline fill="none" stroke="#7f7fff" points="463.03,400.005 464.141,406.066 465.229,412.126 466.293,418.187 467.334,424.247 468.352,430.308 469.347,436.368 470.318,442.429 471.266,448.489 472.192,454.55 473.094,460.61 473.973,466.671 474.829,472.731 475.662,478.792 476.472,484.852 477.26,490.913 478.024,496.973 478.766,503.034 479.484,509.094 480.18,515.155 480.854,521.215 481.504,527.276 482.132,533.336 482.738,539.397 483.32,545.457 483.88,551.518 484.418,557.578 484.933,563.639 485.425,569.699 485.895,575.76 486.342,581.82 486.767,587.881 487.17,593.941 487.549,600.002 487.907,606.062 488.242,612.123 488.555,618.183 488.845,624.244 489.113,630.304 489.359,636.365 489.582,642.425 489.783,648.486 489.961,654.546 490.117,660.607 490.251,666.667 490.363,672.728 490.452,678.788 490.519,684.849 490.564,690.909 490.586,696.97 490.586,703.03 490.564,709.091 490.519,715.151 490.452,721.212 490.363,727.272 490.251,733.333 490.117,739.393 489.961,745.454 489.783,751.514 489.582,757.575 489.359,763.635 489.113,769.696 488.845,775.756 488.555,781.817 488.242,787.877 487.907,793.938 487.549,799.998 487.17,806.059 486.767,812.119 486.342,818.18 485.895,824.24 485.425,830.301 484.933,836.361 484.418,842.422 483.88,848.482 483.32,854.543 482.738,860.603 482.132,866.664 481.504,872.724 480.854,878.785 480.18,884.845 479.484,890.906 478.766,896.966 478.024,903.027 477.26,909.087 476.472,915.148 475.662,921.208 474.829,927.269 473.973,933.329 473.094,939.39 472.192,945.45 471.266,951.511 470.318,957.571 469.347,963.632 468.352,969.692 467.334,975.753 466.293,981.813 465.229,987.874 464.141,993.934 463.03,999.995 " />
</g>
<g>
<polyline fill="none" stroke="#7f7fff" points="535.14,455.869 535.033,460.801 534.897,465.733 534.732,470.665 534.542,475.597 534.328,480.529 534.093,485.461 533.839,490.392 533.567,495.324 533.28,500.256 532.98,505.188 532.667,510.12 532.345,515.052 532.013,519.984 531.675,524.916 531.331,529.848 530.983,534.78 530.632,539.712 530.279,544.644 529.926,549.576 529.574,554.508 529.224,559.44 528.877,564.372 528.535,569.304 528.197,574.235 527.865,579.167 527.54,584.099 527.222,589.031 526.913,593.963 526.614,598.895 526.324,603.827 526.045,608.759 525.777,613.691 525.521,618.623 525.277,623.555 525.046,628.487 524.828,633.419 524.624,638.351 524.434,643.283 524.259,648.215 524.098,653.147 523.953,658.078 523.823,663.01 523.709,667.942 523.611,672.874 523.529,677.806 523.463,682.738 523.414,687.67 523.381,692.602 523.364,697.534 523.364,702.466 523.381,707.398 523.414,712.33 523.463,717.262 523.529,722.194 523.611,727.126 523.709,732.058 523.823,736.99 523.953,741.922 524.098,746.853 524.259,751.785 524.434,756.717 524.624,761.649 524.828,766.581 525.046,771.513 525.277,776.445 525.521,781.377 525.777,786.309 526.045,791.241 526.324,796.173 526.614,801.105 526.913,806.037 527.222,810.969 527.54,815.901 527.865,820.833 528.197,825.765 528.535,830.696 528.877,835.628 529.224,840.56 529.574,845.492 529.926,850.424 530.279,855.356 530.632,860.288 530.983,865.22 531.331,870.152 531.675,875.084 532.013,880.016 532.345,884.948 532.667,889.88 532.98,894.812 533.28,899.744 533.567,904.676 533.839,909.608 534.093,914.539 534.328,919.471 534.542,924.403 534.732,929.335 534.897,934.267 535.033,939.199 535.14,944.131 " />
<line x1="535.14" y1="455.869" x2="566.805" y2="455.869"  stroke="#7f7fff" />
<line x1="535.14" y1="944.131" x2="566.805" y2="944.131"  stroke="#7f7fff" />
<polyline fill="none" stroke="#7f7fff" points="566.805,455.869 567.613,460.801 568.405,465.733 569.179,470.665 569.936,475.597 570.677,480.529 571.401,485.461 572.108,490.392 572.798,495.324 573.472,500.256 574.128,505.188 574.768,510.12 575.392,515.052 575.999,519.984 576.589,524.916 577.162,529.848 577.719,534.78 578.259,539.712 578.783,544.644 579.29,549.576 579.781,554.508 580.255,559.44 580.713,564.372 581.154,569.304 581.579,574.235 581.987,579.167 582.379,584.099 582.754,589.031 583.113,593.963 583.456,598.895 583.782,603.827 584.092,608.759 584.386,613.691 584.663,618.623 584.924,623.555 585.168,628.487 585.396,633.419 585.608,638.351 585.803,643.283 585.982,648.215 586.145,653.147 586.292,658.078 586.422,663.01 586.536,667.942 586.634,672.874 586.715,677.806 586.78,682.738 586.829,687.67 586.862,692.602 586.878,697.534 586.878,702.466 586.862,707.398 586.829,712.33 586.78,717.262 586.715,722.194 586.634,727.126 586.536,732.058 586.422,736.99 586.292,741.922 586.145,746.853 585.982,751.785 585.803,756.717 585.608,761.649 585.396,766.581 585.168,771.513 584.924,776.445 584.663,781.377 584.386,786.309 584.092,791.241 583.782,796.173 583.456,801.105 583.113,806.037 582.754,810.969 582.379,815.901 581.987,820.833 581.579,825.765 581.154,830.696 580.713,835.628 580.255,840.56 579.781,845.492 579.29,850.424 578.783,855.356 578.259,860.288 577.719,865.22 577.162,870.152 576.589,875.084 575.999,880.016 575.392,884.948 574.768,889.88 574.128,894.812 573.472,899.744 572.798,904.676 572.108,909.608 571.401,914.539 570.677,919.471 569.936,924.403 569.179,929.335 568.405,934.267 567.613,939.199 566.805,944.131 " />
<line x1="681.527" y1="455.869" x2="681.527" y2="490.928"  stroke="#7f7fff" />
<line x1="566.805" y1="455.869" x2="681.527" y2="455.869"  stroke="#7f7fff" />
<line x1="681.527" y1="944.131" x2="681.527" y2="909.072"  stroke="#7f7fff" />
<line x1="566.805" y1="944.131" x2="681.527" y2="944.131"  stroke="#7f7fff" />
<polyline fill="none" stroke="#7f7fff" points="681.527,490.928 678.573,495.152 675.707,499.376 672.928,503.599 670.232,507.823 667.617,512.047 665.082,516.27 662.625,520.494 660.242,524.718 657.934,528.941 655.699,533.165 653.534,537.389 651.438,541.612 649.41,545.836 647.45,550.06 645.555,554.283 643.724,558.507 641.957,562.731 640.252,566.954 638.609,571.178 637.026,575.402 635.503,579.625 634.039,583.849 632.634,588.073 631.285,592.296 629.994,596.52 628.759,600.744 627.579,604.967 626.454,609.191 625.384,613.415 624.368,617.638 623.405,621.862 622.496,626.086 621.639,630.309 620.834,634.533 620.081,638.757 619.38,642.98 618.731,647.204 618.132,651.428 617.584,655.651 617.086,659.875 616.639,664.099 616.242,668.322 615.895,672.546 615.598,676.77 615.351,680.993 615.153,685.217 615.005,689.441 614.906,693.664 614.857,697.888 614.857,702.112 614.906,706.336 615.005,710.559 615.153,714.783 615.351,719.007 615.598,723.23 615.895,727.454 616.242,731.678 616.639,735.901 617.086,740.125 617.584,744.349 618.132,748.572 618.731,752.796 619.38,757.02 620.081,761.243 620.834,765.467 621.639,769.691 622.496,773.914 623.405,778.138 624.368,782.362 625.384,786.585 626.454,790.809 627.579,795.033 628.759,799.256 629.994,803.48 631.285,807.704 632.634,811.927 634.039,816.151 635.503,820.375 637.026,824.598 638.609,828.822 640.252,833.046 641.957,837.269 643.724,841.493 645.555,845.717 647.45,849.94 649.41,854.164 651.438,858.388 653.534,862.611 655.699,866.835 657.934,871.059 660.242,875.282 662.625,879.506 665.082,883.73 667.617,887.953 670.232,892.177 672.928,896.401 675.707,900.624 678.573,904.848 681.527,909.072 " />
</g>
<g>
<polyline fill="none" stroke="#7f7fff" points="694.695,490.928 696.074,495.152 697.421,499.376 698.738,503.599 700.024,507.823 701.28,512.047 702.506,516.27 703.701,520.494 704.866,524.718 706.002,528.941 707.108,533.165 708.184,537.389 709.232,541.612 710.25,545.836 711.239,550.06 712.199,554.283 713.13,558.507 714.033,562.731 714.907,566.954 715.752,571.178 716.57,575.402 717.359,579.625 718.12,583.849 718.853,588.073 719.558,592.296 720.235,596.52 720.885,600.744 721.506,604.967 722.101,609.191 722.667,613.415 723.207,617.638 723.719,621.862 724.203,626.086 724.661,630.309 725.091,634.533 725.494,638.757 725.87,642.98 726.219,647.204 726.541,651.428 726.836,655.651 727.104,659.875 727.345,664.099 727.559,668.322 727.746,672.546 727.907,676.77 728.041,680.993 728.148,685.217 728.228,689.441 728.282,693.664 728.308,697.888 728.308,702.112 728.282,706.336 728.228,710.559 728.148,714.783 728.041,719.007 727.907,723.23 727.746,727.454 727.559,731.678 727.345,735.901 727.104,740.125 726.836,744.349 726.541,748.572 726.219,752.796 725.87,757.02 725.494,761.243 725.091,765.467 724.661,769.691 724.203,773.914 723.719,778.138 723.207,782.362 722.667,786.585 722.101,790.809 721.506,795.033 720.885,799.256 720.235,803.48 719.558,807.704 718.853,811.927 718.12,816.151 717.359,820.375 716.57,824.598 715.752,828.822 714.907,833.046 714.033,837.269 713.13,841.493 712.199,845.717 711.239,849.94 710.25,854.164 709.232,858.388 708.184,862.611 707.108,866.835 706.002,871.059 704.866,875.282 703.701,879.506 702.506,883.73 701.28,887.953 700.024,892.177 698.738,896.401 697.421,900.624 696.074,904.848 694.695,909.072 " />
<line x1="694.695" y1="442.77" x2="694.695" y2="490.928"  stroke="#7f7fff" />
<line x1="694.695" y1="442.77" x2="826.369" y2="442.77"  stroke="#7f7fff" />
<line x1="694.695" y1="957.23" x2="694.695" y2="909.072"  stroke="#7f7fff" />
<line x1="694.695" y1="957.23" x2="826.369" y2="957.23"  stroke="#7f7fff" />
<polyline fill="none" stroke="#7f7fff" points="826.369,442.77 823.797,447.966 821.291,453.163 818.848,458.36 816.468,463.556 814.15,468.753 811.893,473.949 809.698,479.146 807.562,484.342 805.485,489.539 803.466,494.736 801.505,499.932 799.602,505.129 797.755,510.325 795.963,515.522 794.228,520.718 792.547,525.915 790.92,531.111 789.347,536.308 787.828,541.505 786.362,546.701 784.948,551.898 783.587,557.094 782.277,562.291 781.018,567.487 779.811,572.684 778.655,577.881 777.548,583.077 776.492,588.274 775.486,593.47 774.53,598.667 773.622,603.863 772.764,609.06 771.955,614.257 771.194,619.453 770.482,624.65 769.818,629.846 769.202,635.043 768.635,640.239 768.114,645.436 767.642,650.633 767.217,655.829 766.84,661.026 766.51,666.222 766.228,671.419 765.992,676.615 765.804,681.812 765.663,687.009 765.569,692.205 765.521,697.402 765.521,702.598 765.569,707.795 765.663,712.991 765.804,718.188 765.992,723.385 766.228,728.581 766.51,733.778 766.84,738.974 767.217,744.171 767.642,749.367 768.114,754.564 768.635,759.761 769.202,764.957 769.818,770.154 770.482,775.35 771.194,780.547 771.955,785.743 772.764,790.94 773.622,796.137 774.53,801.333 775.486,806.53 776.492,811.726 777.548,816.923 778.655,822.119 779.811,827.316 781.018,832.513 782.277,837.709 783.587,842.906 784.948,848.102 786.362,853.299 787.828,858.495 789.347,863.692 790.92,868.889 792.547,874.085 794.228,879.282 795.963,884.478 797.755,889.675 799.602,894.871 801.505,900.068 803.466,905.264 805.485,910.461 807.562,915.658 809.698,920.854 811.893,926.051 814.15,931.247 816.468,936.444 818.848,941.64 821.291,946.837 823.797,952.034 826.369,957.23 " />
<line x1="826.369" y1="442.77" x2="857.387" y2="442.77"  stroke="#7f7fff" />
<line x1="826.369" y1="957.23" x2="857.387" y2="957.23"  stroke="#7f7fff" />
<polyline fill="none" stroke="#7f7fff" points="857.387,442.77 859.401,447.966 861.368,453.163 863.288,458.36 865.161,463.556 866.989,468.753 868.772,473.949 870.509,479.146 872.202,484.342 873.85,489.539 875.454,494.736 877.014,499.932 878.531,505.129 880.005,510.325 881.436,515.522 882.824,520.718 884.17,525.915 885.474,531.111 886.735,536.308 887.956,541.505 889.134,546.701 890.272,551.898 891.368,557.094 892.424,562.291 893.439,567.487 894.414,572.684 895.348,577.881 896.243,583.077 897.097,588.274 897.912,593.47 898.686,598.667 899.422,603.863 900.118,609.06 900.774,614.257 901.392,619.453 901.97,624.65 902.509,629.846 903.01,635.043 903.471,640.239 903.894,645.436 904.279,650.633 904.624,655.829 904.931,661.026 905.2,666.222 905.43,671.419 905.622,676.615 905.775,681.812 905.89,687.009 905.967,692.205 906.005,697.402 906.005,702.598 905.967,707.795 905.89,712.991 905.775,718.188 905.622,723.385 905.43,728.581 905.2,733.778 904.931,738.974 904.624,744.171 904.279,749.367 903.894,754.564 903.471,759.761 903.01,764.957 902.509,770.154 901.97,775.35 901.392,780.547 900.774,785.743 900.118,790.94 899.422,796.137 898.686,801.333 897.912,806.53 897.097,811.726 896.243,816.923 895.348,822.119 894.414,827.316 893.439,832.513 892.424,837.709 891.368,842.906 890.272,848.102 889.134,853.299 887.956,858.495 886.735,863.692 885.474,868.889 884.17,874.085 882.824,879.282 881.436,884.478 880.005,889.675 878.531,894.871 877.014,900.068 875.454,905.264 873.85,910.461 872.202,915.658 870.509,920.854 868.772,926.051 866.989,931.247 865.161,936.444 863.288,941.64 861.368,946.837 859.401,952.034 857.387,957.23 " />
</g>
<g>
<polyline fill="none" stroke="#7f7fff" points="987.629,425.176 985.813,430.728 984.038,436.28 982.304,441.832 980.61,447.384 978.956,452.936 977.342,458.488 975.767,464.04 974.232,469.592 972.737,475.144 971.28,480.696 969.862,486.248 968.483,491.8 967.142,497.352 965.84,502.904 964.575,508.456 963.349,514.008 962.16,519.56 961.009,525.112 959.895,530.664 958.819,536.216 957.779,541.768 956.777,547.32 955.812,552.872 954.883,558.424 953.991,563.976 953.136,569.528 952.317,575.08 951.534,580.632 950.788,586.184 950.078,591.736 949.404,597.288 948.765,602.84 948.163,608.392 947.597,613.944 947.066,619.496 946.571,625.048 946.111,630.6 945.687,636.152 945.299,641.704 944.946,647.256 944.628,652.808 944.346,658.36 944.099,663.912 943.888,669.464 943.712,675.016 943.571,680.568 943.465,686.12 943.395,691.672 943.359,697.224 943.359,702.776 943.395,708.328 943.465,713.88 943.571,719.432 943.712,724.984 943.888,730.536 944.099,736.088 944.346,741.64 944.628,747.192 944.946,752.744 945.299,758.296 945.687,763.848 946.111,769.4 946.571,774.952 947.066,780.504 947.597,786.056 948.163,791.608 948.765,797.16 949.404,802.712 950.078,808.264 950.788,813.816 951.534,819.368 952.317,824.92 953.136,830.472 953.991,836.024 954.883,841.576 955.812,847.128 956.777,852.68 957.779,858.232 958.819,863.784 959.895,869.336 961.009,874.888 962.16,880.44 963.349,885.992 964.575,891.544 965.84,897.096 967.142,902.648 968.483,908.2 969.862,913.752 971.28,919.304 972.737,924.856 974.232,930.408 975.767,935.96 977.342,941.512 978.956,947.064 980.61,952.616 982.304,958.168 984.038,963.72 985.813,969.272 987.629,974.824 " />
<line x1="987.629" y1="425.176" x2="1007.244" y2="425.176"  stroke="#7f7fff" />
<line x1="987.629" y1="974.824" x2="1007.244" y2="974.824"  stroke="#7f7fff" />
<polyline fill="none" stroke="#7f7fff" points="1007.244,425.176 1009.585,430.728 1011.87,436.28 1014.1,441.832 1016.275,447.384 1018.395,452.936 1020.462,458.488 1022.476,464.04 1024.436,469.592 1026.345,475.144 1028.202,480.696 1030.007,486.248 1031.761,491.8 1033.465,497.352 1035.119,502.904 1036.723,508.456 1038.277,514.008 1039.782,519.56 1041.238,525.112 1042.646,530.664 1044.006,536.216 1045.318,541.768 1046.582,547.32 1047.799,552.872 1048.968,558.424 1050.091,563.976 1051.167,569.528 1052.197,575.08 1053.181,580.632 1054.118,586.184 1055.01,591.736 1055.856,597.288 1056.657,602.84 1057.412,608.392 1058.122,613.944 1058.787,619.496 1059.407,625.048 1059.982,630.6 1060.513,636.152 1060.999,641.704 1061.441,647.256 1061.838,652.808 1062.191,658.36 1062.499,663.912 1062.764,669.464 1062.984,675.016 1063.16,680.568 1063.292,686.12 1063.38,691.672 1063.425,697.224 1063.425,702.776 1063.38,708.328 1063.292,713.88 1063.16,719.432 1062.984,724.984 1062.764,730.536 1062.499,736.088 1062.191,741.64 1061.838,747.192 1061.441,752.744 1060.999,758.296 1060.513,763.848 1059.982,769.4 1059.407,774.952 1058.787,780.504 1058.122,786.056 1057.412,791.608 1056.657,797.16 1055.856,802.712 1055.01,808.264 1054.118,813.816 1053.181,819.368 1052.197,824.92 1051.167,830.472 1050.091,836.024 1048.968,841.576 1047.799,847.128 1046.582,852.68 1045.318,858.232 1044.006,863.784 1042.646,869.336 1041.238,874.888 1039.782,880.44 1038.277,885.992 1036.723,891.544 1035.119,897.096 1033.465,902.648 1031.761,908.2 1030.007,913.752 1028.202,919.304 1026.345,924.856 1024.436,930.408 1022.476,935.96 1020.462,941.512 1018.395,947.064 1016.275,952.616 1014.1,958.168 1011.87,963.72 1009.585,969.272 1007.244,974.824 " />
</g>
<g>
<polyline fill="none" stroke="#7f7fff" points="1210.989,450.475 1210.058,455.516 1209.146,460.557 1208.254,465.598 1207.382,470.639 1206.529,475.68 1205.696,480.721 1204.882,485.762 1204.087,490.802 1203.312,495.843 1202.556,500.884 1201.819,505.925 1201.102,510.966 1200.404,516.007 1199.725,521.048 1199.065,526.089 1198.425,531.13 1197.803,536.171 1197.201,541.211 1196.618,546.252 1196.054,551.293 1195.508,556.334 1194.982,561.375 1194.475,566.416 1193.987,571.457 1193.518,576.498 1193.067,581.539 1192.636,586.58 1192.223,591.621 1191.83,596.661 1191.455,601.702 1191.099,606.743 1190.762,611.784 1190.443,616.825 1190.144,621.866 1189.863,626.907 1189.601,631.948 1189.358,636.989 1189.133,642.03 1188.928,647.07 1188.741,652.111 1188.572,657.152 1188.423,662.193 1188.292,667.234 1188.18,672.275 1188.086,677.316 1188.012,682.357 1187.955,687.398 1187.918,692.439 1187.899,697.48 1187.899,702.52 1187.918,707.561 1187.955,712.602 1188.012,717.643 1188.086,722.684 1188.18,727.725 1188.292,732.766 1188.423,737.807 1188.572,742.848 1188.741,747.889 1188.928,752.93 1189.133,757.97 1189.358,763.011 1189.601,768.052 1189.863,773.093 1190.144,778.134 1190.443,783.175 1190.762,788.216 1191.099,793.257 1191.455,798.298 1191.83,803.339 1192.223,808.379 1192.636,813.42 1193.067,818.461 1193.518,823.502 1193.987,828.543 1194.475,833.584 1194.982,838.625 1195.508,843.666 1196.054,848.707 1196.618,853.748 1197.201,858.789 1197.803,863.829 1198.425,868.87 1199.065,873.911 1199.725,878.952 1200.404,883.993 1201.102,889.034 1201.819,894.075 1202.556,899.116 1203.312,904.157 1204.087,909.198 1204.882,914.238 1205.696,919.279 1206.529,924.32 1207.382,929.361 1208.254,934.402 1209.146,939.443 1210.058,944.484 1210.989,949.525 " />
<line x1="1210.989" y1="450.475" x2="1220.142" y2="450.475"  stroke="#7f7fff" />
<line x1="1210.989" y1="949.525" x2="1220.142" y2="949.525"  stroke="#7f7fff" />
<polyline fill="none" stroke="#7f7fff" points="1220.142,450.475 1220.791,455.516 1221.426,460.557 1222.047,465.598 1222.655,470.639 1223.25,475.68 1223.831,480.721 1224.399,485.762 1224.953,490.802 1225.494,495.843 1226.022,500.884 1226.537,505.925 1227.038,510.966 1227.525,516.007 1228,521.048 1228.461,526.089 1228.909,531.13 1229.344,536.171 1229.765,541.211 1230.173,546.252 1230.568,551.293 1230.95,556.334 1231.318,561.375 1231.673,566.416 1232.015,571.457 1232.344,576.498 1232.66,581.539 1232.962,586.58 1233.251,591.621 1233.527,596.661 1233.79,601.702 1234.04,606.743 1234.276,611.784 1234.499,616.825 1234.71,621.866 1234.907,626.907 1235.09,631.948 1235.261,636.989 1235.419,642.03 1235.563,647.07 1235.694,652.111 1235.813,657.152 1235.918,662.193 1236.009,667.234 1236.088,672.275 1236.154,677.316 1236.206,682.357 1236.246,687.398 1236.272,692.439 1236.285,697.48 1236.285,702.52 1236.272,707.561 1236.246,712.602 1236.206,717.643 1236.154,722.684 1236.088,727.725 1236.009,732.766 1235.918,737.807 1235.813,742.848 1235.694,747.889 1235.563,752.93 1235.419,757.97 1235.261,763.011 1235.09,768.052 1234.907,773.093 1234.71,778.134 1234.499,783.175 1234.276,788.216 1234.04,793.257 1233.79,798.298 1233.527,803.339 1233.251,808.379 1232.962,813.42 1232.66,818.461 1232.344,823.502 1232.015,828.543 1231.673,833.584 1231.318,838.625 1230.95,843.666 1230.568,848.707 1230.173,853.748 1229.765,858.789 1229.344,863.829 1228.909,868.87 1228.461,873.911 1228,878.952 1227.525,883.993 1227.038,889.034 1226.537,894.075 1226.022,899.116 1225.494,904.157 1224.953,909.198 1224.399,914.238 1223.831,919.279 1223.25,924.32 1222.655,929.361 1222.047,934.402 1221.426,939.443 1220.791,944.484 1220.142,949.525 " />
</g>
<g>
<polyline fill="none" stroke="#7f7fff" points="1421.798,467.941 1420.885,472.629 1419.992,477.317 1419.117,482.005 1418.262,486.693 1417.426,491.381 1416.609,496.069 1415.811,500.757 1415.032,505.445 1414.273,510.133 1413.532,514.821 1412.81,519.509 1412.108,524.197 1411.424,528.886 1410.759,533.574 1410.112,538.262 1409.485,542.95 1408.876,547.638 1408.286,552.326 1407.715,557.014 1407.163,561.702 1406.629,566.39 1406.114,571.078 1405.617,575.766 1405.139,580.454 1404.68,585.142 1404.239,589.83 1403.816,594.518 1403.412,599.207 1403.027,603.895 1402.66,608.583 1402.312,613.271 1401.982,617.959 1401.67,622.647 1401.377,627.335 1401.102,632.023 1400.846,636.711 1400.607,641.399 1400.388,646.087 1400.186,650.775 1400.003,655.463 1399.839,660.151 1399.692,664.839 1399.564,669.528 1399.454,674.216 1399.363,678.904 1399.29,683.592 1399.235,688.28 1399.198,692.968 1399.18,697.656 1399.18,702.344 1399.198,707.032 1399.235,711.72 1399.29,716.408 1399.363,721.096 1399.454,725.784 1399.564,730.472 1399.692,735.161 1399.839,739.849 1400.003,744.537 1400.186,749.225 1400.388,753.913 1400.607,758.601 1400.846,763.289 1401.102,767.977 1401.377,772.665 1401.67,777.353 1401.982,782.041 1402.312,786.729 1402.66,791.417 1403.027,796.105 1403.412,800.793 1403.816,805.482 1404.239,810.17 1404.68,814.858 1405.139,819.546 1405.617,824.234 1406.114,828.922 1406.629,833.61 1407.163,838.298 1407.715,842.986 1408.286,847.674 1408.876,852.362 1409.485,857.05 1410.112,861.738 1410.759,866.426 1411.424,871.114 1412.108,875.803 1412.81,880.491 1413.532,885.179 1414.273,889.867 1415.032,894.555 1415.811,899.243 1416.609,903.931 1417.426,908.619 1418.262,913.307 1419.117,917.995 1419.992,922.683 1420.885,927.371 1421.798,932.059 " />
<line x1="1421.798" y1="467.941" x2="1439.392" y2="467.941"  stroke="#7f7fff" />
<line x1="1421.798" y1="932.059" x2="1439.392" y2="932.059"  stroke="#7f7fff" />
<polyline fill="none" stroke="#7f7fff" points="1439.392,467.941 1440.804,472.629 1442.185,477.317 1443.534,482.005 1444.853,486.693 1446.14,491.381 1447.397,496.069 1448.624,500.757 1449.82,505.445 1450.985,510.133 1452.121,514.821 1453.226,519.509 1454.302,524.197 1455.348,528.886 1456.365,533.574 1457.352,538.262 1458.309,542.95 1459.237,547.638 1460.136,552.326 1461.006,557.014 1461.847,561.702 1462.659,566.39 1463.443,571.078 1464.197,575.766 1464.923,580.454 1465.621,585.142 1466.29,589.83 1466.93,594.518 1467.542,599.207 1468.126,603.895 1468.682,608.583 1469.209,613.271 1469.709,617.959 1470.18,622.647 1470.624,627.335 1471.039,632.023 1471.427,636.711 1471.787,641.399 1472.119,646.087 1472.423,650.775 1472.699,655.463 1472.948,660.151 1473.169,664.839 1473.362,669.528 1473.528,674.216 1473.666,678.904 1473.776,683.592 1473.859,688.28 1473.914,692.968 1473.942,697.656 1473.942,702.344 1473.914,707.032 1473.859,711.72 1473.776,716.408 1473.666,721.096 1473.528,725.784 1473.362,730.472 1473.169,735.161 1472.948,739.849 1472.699,744.537 1472.423,749.225 1472.119,753.913 1471.787,758.601 1471.427,763.289 1471.039,767.977 1470.624,772.665 1470.18,777.353 1469.709,782.041 1469.209,786.729 1468.682,791.417 1468.126,796.105 1467.542,800.793 1466.93,805.482 1466.29,810.17 1465.621,814.858 1464.923,819.546 1464.197,824.234 1463.443,828.922 1462.659,833.61 1461.847,838.298 1461.006,842.986 1460.136,847.674 1459.237,852.362 1458.309,857.05 1457.352,861.738 1456.365,866.426 1455.348,871.114 1454.302,875.803 1453.226,880.491 1452.121,885.179 1450.985,889.867 1449.82,894.555 1448.624,899.243 1447.397,903.931 1446.14,908.619 1444.853,913.307 1443.534,917.995 1442.185,922.683 1440.804,927.371 1439.392,932.059 " />
</g>
<g>
<polyline fill="none" stroke="#7f7fff" points="1509.471,472.307 1508.289,476.907 1507.132,481.507 1506,486.107 1504.894,490.706 1503.814,495.306 1502.759,499.906 1501.729,504.506 1500.724,509.106 1499.744,513.706 1498.789,518.306 1497.859,522.905 1496.954,527.505 1496.073,532.105 1495.217,536.705 1494.386,541.305 1493.579,545.905 1492.796,550.505 1492.038,555.104 1491.305,559.704 1490.595,564.304 1489.91,568.904 1489.248,573.504 1488.611,578.104 1487.998,582.704 1487.409,587.303 1486.844,591.903 1486.303,596.503 1485.785,601.103 1485.291,605.703 1484.821,610.303 1484.375,614.903 1483.953,619.502 1483.554,624.102 1483.179,628.702 1482.827,633.302 1482.499,637.902 1482.194,642.502 1481.913,647.102 1481.656,651.701 1481.422,656.301 1481.211,660.901 1481.024,665.501 1480.86,670.101 1480.72,674.701 1480.603,679.301 1480.51,683.9 1480.439,688.5 1480.393,693.1 1480.369,697.7 1480.369,702.3 1480.393,706.9 1480.439,711.5 1480.51,716.1 1480.603,720.699 1480.72,725.299 1480.86,729.899 1481.024,734.499 1481.211,739.099 1481.422,743.699 1481.656,748.299 1481.913,752.898 1482.194,757.498 1482.499,762.098 1482.827,766.698 1483.179,771.298 1483.554,775.898 1483.953,780.498 1484.375,785.097 1484.821,789.697 1485.291,794.297 1485.785,798.897 1486.303,803.497 1486.844,808.097 1487.409,812.697 1487.998,817.296 1488.611,821.896 1489.248,826.496 1489.91,831.096 1490.595,835.696 1491.305,840.296 1492.038,844.896 1492.796,849.495 1493.579,854.095 1494.386,858.695 1495.217,863.295 1496.073,867.895 1496.954,872.495 1497.859,877.095 1498.789,881.694 1499.744,886.294 1500.724,890.894 1501.729,895.494 1502.759,900.094 1503.814,904.694 1504.894,909.294 1506,913.893 1507.132,918.493 1508.289,923.093 1509.471,927.693 " />
<line x1="1509.471" y1="472.307" x2="1556.382" y2="472.307"  stroke="#7f7fff" />
<line x1="1509.471" y1="927.693" x2="1556.382" y2="927.693"  stroke="#7f7fff" />
<polyline fill="none" stroke="#7f7fff" points="1556.382,472.307 1558.809,476.907 1561.173,481.507 1563.475,486.107 1565.716,490.706 1567.898,495.306 1570.021,499.906 1572.085,504.506 1574.092,509.106 1576.043,513.706 1577.938,518.306 1579.778,522.905 1581.564,527.505 1583.295,532.105 1584.974,536.705 1586.6,541.305 1588.174,545.905 1589.697,550.505 1591.168,555.104 1592.59,559.704 1593.961,564.304 1595.283,568.904 1596.555,573.504 1597.779,578.104 1598.954,582.704 1600.082,587.303 1601.162,591.903 1602.194,596.503 1603.18,601.103 1604.119,605.703 1605.011,610.303 1605.857,614.903 1606.658,619.502 1607.412,624.102 1608.121,628.702 1608.785,633.302 1609.404,637.902 1609.978,642.502 1610.507,647.102 1610.991,651.701 1611.431,656.301 1611.827,660.901 1612.179,665.501 1612.486,670.101 1612.749,674.701 1612.968,679.301 1613.144,683.9 1613.275,688.5 1613.363,693.1 1613.407,697.7 1613.407,702.3 1613.363,706.9 1613.275,711.5 1613.144,716.1 1612.968,720.699 1612.749,725.299 1612.486,729.899 1612.179,734.499 1611.827,739.099 1611.431,743.699 1610.991,748.299 1610.507,752.898 1609.978,757.498 1609.404,762.098 1608.785,766.698 1608.121,771.298 1607.412,775.898 1606.658,780.498 1605.857,785.097 1605.011,789.697 1604.119,794.297 1603.18,798.897 1602.194,803.497 1601.162,808.097 1600.082,812.697 1598.954,817.296 1597.779,821.896 1596.555,826.496 1595.283,831.096 1593.961,835.696 1592.59,840.296 1591.168,844.896 1589.697,849.495 1588.174,854.095 1586.6,858.695 1584.974,863.295 1583.295,867.895 1581.564,872.495 1579.778,877.095 1577.938,881.694 1576.043,886.294 1574.092,890.894 1572.085,895.494 1570.021,900.094 1567.898,904.694 1565.716,909.294 1563.475,913.893 1561.173,918.493 1558.809,923.093 1556.382,927.693 " />
<line x1="1684.266" y1="472.307" x2="1684.266" y2="501.973"  stroke="#7f7fff" />
<line x1="1556.382" y1="472.307" x2="1684.266" y2="472.307"  stroke="#7f7fff" />
<line x1="1684.266" y1="927.693" x2="1684.266" y2="898.027"  stroke="#7f7fff" />
<line x1="1556.382" y1="927.693" x2="1684.266" y2="927.693"  stroke="#7f7fff" />
<polyline fill="none" stroke="#7f7fff" points="1684.266,501.973 1682.324,505.973 1680.43,509.974 1678.583,513.974 1676.785,517.975 1675.033,521.975 1673.327,525.976 1671.666,529.976 1670.051,533.977 1668.48,537.978 1666.953,541.978 1665.47,545.979 1664.029,549.979 1662.631,553.98 1661.276,557.98 1659.962,561.981 1658.69,565.981 1657.458,569.982 1656.267,573.983 1655.117,577.983 1654.007,581.984 1652.936,585.984 1651.905,589.985 1650.913,593.985 1649.959,597.986 1649.045,601.986 1648.169,605.987 1647.33,609.988 1646.53,613.988 1645.768,617.989 1645.043,621.989 1644.355,625.99 1643.705,629.99 1643.092,633.991 1642.515,637.991 1641.975,641.992 1641.472,645.993 1641.005,649.993 1640.575,653.994 1640.181,657.994 1639.823,661.995 1639.501,665.995 1639.215,669.996 1638.964,673.996 1638.75,677.997 1638.572,681.998 1638.429,685.998 1638.322,689.999 1638.251,693.999 1638.215,698 1638.215,702 1638.251,706.001 1638.322,710.001 1638.429,714.002 1638.572,718.002 1638.75,722.003 1638.964,726.004 1639.215,730.004 1639.501,734.005 1639.823,738.005 1640.181,742.006 1640.575,746.006 1641.005,750.007 1641.472,754.007 1641.975,758.008 1642.515,762.009 1643.092,766.009 1643.705,770.01 1644.355,774.01 1645.043,778.011 1645.768,782.011 1646.53,786.012 1647.33,790.012 1648.169,794.013 1649.045,798.014 1649.959,802.014 1650.913,806.015 1651.905,810.015 1652.936,814.016 1654.007,818.016 1655.117,822.017 1656.267,826.017 1657.458,830.018 1658.69,834.019 1659.962,838.019 1661.276,842.02 1662.631,846.02 1664.029,850.021 1665.47,854.021 1666.953,858.022 1668.48,862.022 1670.051,866.023 1671.666,870.024 1673.327,874.024 1675.033,878.025 1676.785,882.025 1678.583,886.026 1680.43,890.026 1682.324,894.027 1684.266,898.027 " />
</g>
<g>
<polyline fill="none" stroke="#7f7fff" points="1694.019,498.634 1696.084,502.702 1698.097,506.77 1700.058,510.838 1701.968,514.906 1703.827,518.974 1705.637,523.042 1707.398,527.11 1709.111,531.178 1710.776,535.246 1712.393,539.314 1713.965,543.382 1715.49,547.45 1716.97,551.518 1718.404,555.586 1719.794,559.654 1721.14,563.722 1722.442,567.79 1723.701,571.858 1724.917,575.926 1726.091,579.994 1727.222,584.062 1728.311,588.13 1729.359,592.198 1730.366,596.266 1731.332,600.334 1732.257,604.402 1733.141,608.47 1733.986,612.538 1734.79,616.606 1735.555,620.674 1736.28,624.742 1736.966,628.81 1737.613,632.878 1738.221,636.946 1738.79,641.014 1739.321,645.082 1739.813,649.15 1740.267,653.218 1740.683,657.286 1741.06,661.354 1741.399,665.422 1741.701,669.49 1741.964,673.558 1742.19,677.626 1742.378,681.694 1742.529,685.762 1742.642,689.83 1742.717,693.898 1742.754,697.966 1742.754,702.034 1742.717,706.102 1742.642,710.17 1742.529,714.238 1742.378,718.306 1742.19,722.374 1741.964,726.442 1741.701,730.51 1741.399,734.578 1741.06,738.646 1740.683,742.714 1740.267,746.782 1739.813,750.85 1739.321,754.918 1738.79,758.986 1738.221,763.054 1737.613,767.122 1736.966,771.19 1736.28,775.258 1735.555,779.326 1734.79,783.394 1733.986,787.462 1733.141,791.53 1732.257,795.598 1731.332,799.666 1730.366,803.734 1729.359,807.802 1728.311,811.87 1727.222,815.938 1726.091,820.006 1724.917,824.074 1723.701,828.142 1722.442,832.21 1721.14,836.278 1719.794,840.346 1718.404,844.414 1716.97,848.482 1715.49,852.55 1713.965,856.618 1712.393,860.686 1710.776,864.754 1709.111,868.822 1707.398,872.89 1705.637,876.958 1703.827,881.026 1701.968,885.094 1700.058,889.162 1698.097,893.23 1696.084,897.298 1694.019,901.366 " />
<line x1="1694.019" y1="480.012" x2="1694.019" y2="498.634"  stroke="#7f7fff" />
<line x1="1694.019" y1="480.012" x2="1756.364" y2="480.012"  stroke="#7f7fff" />
<line x1="1694.019" y1="919.988" x2="1694.019" y2="901.366"  stroke="#7f7fff" />
<line x1="1694.019" y1="919.988" x2="1756.364" y2="919.988"  stroke="#7f7fff" />
<polyline fill="none" stroke="#7f7fff" points="1756.364,480.012 1756.238,484.457 1756.167,488.901 1756.146,493.345 1756.171,497.789 1756.237,502.233 1756.34,506.678 1756.477,511.122 1756.644,515.566 1756.837,520.01 1757.055,524.454 1757.293,528.898 1757.549,533.343 1757.82,537.787 1758.105,542.231 1758.401,546.675 1758.705,551.119 1759.017,555.564 1759.334,560.008 1759.654,564.452 1759.976,568.896 1760.299,573.34 1760.621,577.785 1760.941,582.229 1761.257,586.673 1761.569,591.117 1761.876,595.561 1762.176,600.006 1762.47,604.45 1762.754,608.894 1763.03,613.338 1763.297,617.782 1763.553,622.227 1763.798,626.671 1764.032,631.115 1764.254,635.559 1764.463,640.003 1764.659,644.448 1764.841,648.892 1765.01,653.336 1765.165,657.78 1765.305,662.224 1765.43,666.669 1765.54,671.113 1765.635,675.557 1765.714,680.001 1765.777,684.445 1765.825,688.89 1765.857,693.334 1765.873,697.778 1765.873,702.222 1765.857,706.666 1765.825,711.11 1765.777,715.555 1765.714,719.999 1765.635,724.443 1765.54,728.887 1765.43,733.331 1765.305,737.776 1765.165,742.22 1765.01,746.664 1764.841,751.108 1764.659,755.552 1764.463,759.997 1764.254,764.441 1764.032,768.885 1763.798,773.329 1763.553,777.773 1763.297,782.218 1763.03,786.662 1762.754,791.106 1762.47,795.55 1762.176,799.994 1761.876,804.439 1761.569,808.883 1761.257,813.327 1760.941,817.771 1760.621,822.215 1760.299,826.66 1759.976,831.104 1759.654,835.548 1759.334,839.992 1759.017,844.436 1758.705,848.881 1758.401,853.325 1758.105,857.769 1757.82,862.213 1757.549,866.657 1757.293,871.102 1757.055,875.546 1756.837,879.99 1756.644,884.434 1756.477,888.878 1756.34,893.322 1756.237,897.767 1756.171,902.211 1756.146,906.655 1756.167,911.099 1756.238,915.543 1756.364,919.988 " />
</g>
</g>
<g><title>element</title>
<polyline fill="none" stroke="#7f7fff" points="1965.007,144.444 1965.007,155.668 1965.007,166.891 1965.007,178.114 1965.007,189.338 1965.007,200.561 1965.007,211.785 1965.007,223.008 1965.007,234.231 1965.007,245.455 1965.007,256.678 1965.007,267.901 1965.007,279.125 1965.007,290.348 1965.007,301.571 1965.007,312.795 1965.007,324.018 1965.007,335.241 1965.007,346.465 1965.007,357.688 1965.007,368.911 1965.007,380.135 1965.007,391.358 1965.007,402.581 1965.007,413.805 1965.007,425.028 1965.007,436.251 1965.007,447.475 1965.007,458.698 1965.007,469.921 1965.007,481.145 1965.007,492.368 1965.007,503.591 1965.007,514.815 1965.007,526.038 1965.007,537.262 1965.007,548.485 1965.007,559.708 1965.007,570.932 1965.007,582.155 1965.007,593.378 1965.007,604.602 1965.007,615.825 1965.007,627.048 1965.007,638.272 1965.007,649.495 1965.007,660.718 1965.007,671.942 1965.007,683.165 1965.007,694.388 1965.007,705.612 1965.007,716.835 1965.007,728.058 1965.007,739.282 1965.007,750.505 1965.007,761.728 1965.007,772.952 1965.007,784.175 1965.007,795.398 1965.007,806.622 1965.007,817.845 1965.007,829.068 1965.007,840.292 1965.007,851.515 1965.007,862.738 1965.007,873.962 1965.007,885.185 1965.007,896.409 1965.007,907.632 1965.007,918.855 1965.007,930.079 1965.007,941.302 1965.007,952.525 1965.007,963.749 1965.007,974.972 1965.007,986.195 1965.007,997.419 1965.007,1008.642 1965.007,1019.865 1965.007,1031.089 1965.007,1042.312 1965.007,1053.535 1965.007,1064.759 1965.007,1075.982 1965.007,1087.205 1965.007,1098.429 1965.007,1109.652 1965.007,1120.875 1965.007,1132.099 1965.007,1143.322 1965.007,1154.545 1965.007,1165.769 1965.007,1176.992 1965.007,1188.215 1965.007,1199.439 1965.007,1210.662 1965.007,1221.886 1965.007,1233.109 1965.007,1244.332 1965.007,1255.556 " />
</g>
</svg>
