<?xml version="1.0" standalone="no"?>
<svg width="2400px" height="1400px" version="1.1" xmlns="http://www.w3.org/2000/svg"
>
    <rect x="0" y="0" width="2400" height="1400" fill="#ffffff"/>
    <defs>
        <g id="dot">
            <line x1="1" y1="1" x2="0" y2="0"/>
        </g>
        <g id="cross">
            <line x1="-3" y1="0" x2="3" y2="0"/>
            <line x1="0" y1="-3" x2="0" y2="3"/>
        </g>
        <g id="square">
            <line x1="-3" y1="-3" x2="-3" y2="3"/>
            <line x1="-3" y1="3" x2="3" y2="3"/>
            <line x1="3" y1="3" x2="3" y2="-3"/>
            <line x1="3" y1="-3" x2="-3" y2="-3"/>
        </g>
        <g id="round">
            <ellipse cx="0" cy="0" rx="3" ry="3" fill="none"/>
        </g>
        <g id="triangle">
            <line x1="0" y1="-3" x2="-3" y2="3"/>
            <line x1="-3" y1="3" x2="3" y2="3"/>
            <line x1="0" y1="-3" x2="3" y2="3"/>
        </g>
    </defs>
    <line x1="771.92" y1="700" x2="1628.08" y2="700" stroke="#7f7f7f"/>
    <g>
        <title>element</title>
        <g>
            <line x1="971.701" y1="568.306" x2="971.701" y2="436.613" stroke="#7f7fff"/>
            <line x1="971.701" y1="831.694" x2="971.701" y2="963.387" stroke="#7f7fff"/>
        </g>
        <g>
            <polyline fill="none" stroke="#7f7fff"
                      points="801.259,509.992 800.058,513.831 798.884,517.669 797.737,521.508 796.616,525.346 795.521,529.185 794.453,533.024 793.411,536.862 792.395,540.701 791.404,544.539 790.44,548.378 789.5,552.216 788.587,556.055 787.698,559.893 786.835,563.732 785.997,567.57 785.184,571.409 784.397,575.247 783.633,579.086 782.895,582.925 782.181,586.763 781.492,590.602 780.827,594.44 780.187,598.279 779.571,602.117 778.98,605.956 778.412,609.794 777.869,613.633 777.349,617.471 776.854,621.31 776.383,625.148 775.935,628.987 775.512,632.826 775.112,636.664 774.736,640.503 774.384,644.341 774.055,648.18 773.75,652.018 773.469,655.857 773.211,659.695 772.976,663.534 772.766,667.372 772.578,671.211 772.414,675.049 772.274,678.888 772.157,682.727 772.063,686.565 771.993,690.404 771.946,694.242 771.923,698.081 771.923,701.919 771.946,705.758 771.993,709.596 772.063,713.435 772.157,717.273 772.274,721.112 772.414,724.951 772.578,728.789 772.766,732.628 772.976,736.466 773.211,740.305 773.469,744.143 773.75,747.982 774.055,751.82 774.384,755.659 774.736,759.497 775.112,763.336 775.512,767.174 775.935,771.013 776.383,774.852 776.854,778.69 777.349,782.529 777.869,786.367 778.412,790.206 778.98,794.044 779.571,797.883 780.187,801.721 780.827,805.56 781.492,809.398 782.181,813.237 782.895,817.075 783.633,820.914 784.397,824.753 785.184,828.591 785.997,832.43 786.835,836.268 787.698,840.107 788.587,843.945 789.5,847.784 790.44,851.622 791.404,855.461 792.395,859.299 793.411,863.138 794.453,866.976 795.521,870.815 796.616,874.654 797.737,878.492 798.884,882.331 800.058,886.169 801.259,890.008 "/>
            <line x1="801.259" y1="509.992" x2="816.417" y2="509.992" stroke="#7f7fff"/>
            <line x1="801.259" y1="890.008" x2="816.417" y2="890.008" stroke="#7f7fff"/>
            <polyline fill="none" stroke="#7f7fff"
                      points="816.417,509.992 816.384,513.831 816.351,517.669 816.319,521.508 816.287,525.346 816.257,529.185 816.227,533.024 816.197,536.862 816.169,540.701 816.141,544.539 816.113,548.378 816.087,552.216 816.061,556.055 816.035,559.893 816.011,563.732 815.987,567.57 815.964,571.409 815.941,575.247 815.919,579.086 815.898,582.925 815.877,586.763 815.858,590.602 815.838,594.44 815.82,598.279 815.802,602.117 815.785,605.956 815.769,609.794 815.753,613.633 815.738,617.471 815.724,621.31 815.71,625.148 815.697,628.987 815.685,632.826 815.673,636.664 815.662,640.503 815.652,644.341 815.642,648.18 815.633,652.018 815.625,655.857 815.618,659.695 815.611,663.534 815.605,667.372 815.599,671.211 815.594,675.049 815.59,678.888 815.587,682.727 815.584,686.565 815.582,690.404 815.581,694.242 815.58,698.081 815.58,701.919 815.581,705.758 815.582,709.596 815.584,713.435 815.587,717.273 815.59,721.112 815.594,724.951 815.599,728.789 815.605,732.628 815.611,736.466 815.618,740.305 815.625,744.143 815.633,747.982 815.642,751.82 815.652,755.659 815.662,759.497 815.673,763.336 815.685,767.174 815.697,771.013 815.71,774.852 815.724,778.69 815.738,782.529 815.753,786.367 815.769,790.206 815.785,794.044 815.802,797.883 815.82,801.721 815.838,805.56 815.858,809.398 815.877,813.237 815.898,817.075 815.919,820.914 815.941,824.753 815.964,828.591 815.987,832.43 816.011,836.268 816.035,840.107 816.061,843.945 816.087,847.784 816.113,851.622 816.141,855.461 816.169,859.299 816.197,863.138 816.227,866.976 816.257,870.815 816.287,874.654 816.319,878.492 816.351,882.331 816.384,886.169 816.417,890.008 "/>
        </g>
        <g>
            <polyline fill="none" stroke="#7f7fff"
                      points="885.264,528.382 882.037,531.849 878.929,535.316 875.935,538.783 873.05,542.25 870.268,545.717 867.586,549.184 865,552.651 862.505,556.118 860.099,559.585 857.779,563.052 855.541,566.519 853.383,569.987 851.303,573.454 849.298,576.921 847.366,580.388 845.506,583.855 843.715,587.322 841.992,590.789 840.336,594.256 838.745,597.723 837.217,601.19 835.751,604.657 834.347,608.124 833.002,611.591 831.717,615.058 830.489,618.525 829.319,621.992 828.205,625.459 827.146,628.926 826.143,632.393 825.193,635.86 824.297,639.327 823.453,642.794 822.662,646.261 821.922,649.728 821.234,653.195 820.597,656.662 820.01,660.129 819.474,663.596 818.987,667.063 818.549,670.53 818.161,673.997 817.822,677.464 817.532,680.931 817.29,684.398 817.097,687.865 816.952,691.332 816.856,694.799 816.808,698.266 816.808,701.734 816.856,705.201 816.952,708.668 817.097,712.135 817.29,715.602 817.532,719.069 817.822,722.536 818.161,726.003 818.549,729.47 818.987,732.937 819.474,736.404 820.01,739.871 820.597,743.338 821.234,746.805 821.922,750.272 822.662,753.739 823.453,757.206 824.297,760.673 825.193,764.14 826.143,767.607 827.146,771.074 828.205,774.541 829.319,778.008 830.489,781.475 831.717,784.942 833.002,788.409 834.347,791.876 835.751,795.343 837.217,798.81 838.745,802.277 840.336,805.744 841.992,809.211 843.715,812.678 845.506,816.145 847.366,819.612 849.298,823.079 851.303,826.546 853.383,830.013 855.541,833.481 857.779,836.948 860.099,840.415 862.505,843.882 865,847.349 867.586,850.816 870.268,854.283 873.05,857.75 875.935,861.217 878.929,864.684 882.037,868.151 885.264,871.618 "/>
            <line x1="899.242" y1="528.382" x2="899.242" y2="540.856" stroke="#7f7fff"/>
            <line x1="885.264" y1="528.382" x2="899.242" y2="528.382" stroke="#7f7fff"/>
            <line x1="899.242" y1="871.618" x2="899.242" y2="859.144" stroke="#7f7fff"/>
            <line x1="885.264" y1="871.618" x2="899.242" y2="871.618" stroke="#7f7fff"/>
            <polyline fill="none" stroke="#7f7fff"
                      points="899.242,540.856 897.97,544.072 896.727,547.287 895.515,550.502 894.331,553.717 893.177,556.932 892.051,560.147 890.954,563.362 889.886,566.577 888.845,569.792 887.833,573.007 886.848,576.222 885.89,579.437 884.96,582.652 884.058,585.867 883.182,589.082 882.333,592.297 881.51,595.512 880.714,598.727 879.945,601.942 879.201,605.157 878.484,608.372 877.792,611.587 877.127,614.802 876.487,618.017 875.872,621.232 875.283,624.447 874.719,627.662 874.181,630.877 873.667,634.092 873.179,637.307 872.715,640.522 872.277,643.737 871.863,646.952 871.474,650.167 871.109,653.382 870.769,656.597 870.454,659.812 870.163,663.027 869.897,666.242 869.654,669.457 869.437,672.672 869.243,675.887 869.074,679.102 868.929,682.317 868.808,685.532 868.711,688.747 868.639,691.962 868.591,695.177 868.567,698.392 868.567,701.608 868.591,704.823 868.639,708.038 868.711,711.253 868.808,714.468 868.929,717.683 869.074,720.898 869.243,724.113 869.437,727.328 869.654,730.543 869.897,733.758 870.163,736.973 870.454,740.188 870.769,743.403 871.109,746.618 871.474,749.833 871.863,753.048 872.277,756.263 872.715,759.478 873.179,762.693 873.667,765.908 874.181,769.123 874.719,772.338 875.283,775.553 875.872,778.768 876.487,781.983 877.127,785.198 877.792,788.413 878.484,791.628 879.201,794.843 879.945,798.058 880.714,801.273 881.51,804.488 882.333,807.703 883.182,810.918 884.058,814.133 884.96,817.348 885.89,820.563 886.848,823.778 887.833,826.993 888.845,830.208 889.886,833.423 890.954,836.638 892.051,839.853 893.177,843.068 894.331,846.283 895.515,849.498 896.727,852.713 897.97,855.928 899.242,859.144 "/>
        </g>
        <g>
            <polyline fill="none" stroke="#7f7fff"
                      points="901.909,528.382 901.216,531.849 900.539,535.316 899.876,538.783 899.228,542.25 898.594,545.717 897.975,549.184 897.37,552.651 896.78,556.118 896.204,559.585 895.643,563.052 895.096,566.519 894.563,569.987 894.045,573.454 893.541,576.921 893.051,580.388 892.576,583.855 892.115,587.322 891.668,590.789 891.235,594.256 890.816,597.723 890.412,601.19 890.021,604.657 889.645,608.124 889.283,611.591 888.935,615.058 888.601,618.525 888.281,621.992 887.975,625.459 887.683,628.926 887.405,632.393 887.141,635.86 886.891,639.327 886.655,642.794 886.433,646.261 886.225,649.728 886.031,653.195 885.85,656.662 885.684,660.129 885.531,663.596 885.393,667.063 885.268,670.53 885.157,673.997 885.06,677.464 884.977,680.931 884.908,684.398 884.852,687.865 884.811,691.332 884.783,694.799 884.769,698.266 884.769,701.734 884.783,705.201 884.811,708.668 884.852,712.135 884.908,715.602 884.977,719.069 885.06,722.536 885.157,726.003 885.268,729.47 885.393,732.937 885.531,736.404 885.684,739.871 885.85,743.338 886.031,746.805 886.225,750.272 886.433,753.739 886.655,757.206 886.891,760.673 887.141,764.14 887.405,767.607 887.683,771.074 887.975,774.541 888.281,778.008 888.601,781.475 888.935,784.942 889.283,788.409 889.645,791.876 890.021,795.343 890.412,798.81 890.816,802.277 891.235,805.744 891.668,809.211 892.115,812.678 892.576,816.145 893.051,819.612 893.541,823.079 894.045,826.546 894.563,830.013 895.096,833.481 895.643,836.948 896.204,840.415 896.78,843.882 897.37,847.349 897.975,850.816 898.594,854.283 899.228,857.75 899.876,861.217 900.539,864.684 901.216,868.151 901.909,871.618 "/>
            <line x1="950.07" y1="528.382" x2="950.07" y2="564.198" stroke="#7f7fff"/>
            <line x1="901.909" y1="528.382" x2="950.07" y2="528.382" stroke="#7f7fff"/>
            <line x1="950.07" y1="871.618" x2="950.07" y2="835.802" stroke="#7f7fff"/>
            <line x1="901.909" y1="871.618" x2="950.07" y2="871.618" stroke="#7f7fff"/>
            <polyline fill="none" stroke="#7f7fff"
                      points="950.07,564.198 947.6,566.941 945.22,569.684 942.925,572.428 940.711,575.171 938.575,577.915 936.514,580.658 934.525,583.402 932.604,586.145 930.751,588.889 928.963,591.632 927.237,594.376 925.573,597.119 923.967,599.863 922.419,602.606 920.926,605.35 919.489,608.093 918.104,610.837 916.772,613.58 915.49,616.324 914.259,619.067 913.076,621.811 911.941,624.554 910.853,627.298 909.812,630.041 908.815,632.785 907.864,635.528 906.957,638.272 906.093,641.015 905.272,643.759 904.493,646.502 903.756,649.246 903.061,651.989 902.406,654.733 901.792,657.476 901.218,660.219 900.684,662.963 900.189,665.706 899.734,668.45 899.317,671.193 898.939,673.937 898.599,676.68 898.298,679.424 898.034,682.167 897.809,684.911 897.621,687.654 897.471,690.398 897.359,693.141 897.284,695.885 897.246,698.628 897.246,701.372 897.284,704.115 897.359,706.859 897.471,709.602 897.621,712.346 897.809,715.089 898.034,717.833 898.298,720.576 898.599,723.32 898.939,726.063 899.317,728.807 899.734,731.55 900.189,734.294 900.684,737.037 901.218,739.781 901.792,742.524 902.406,745.267 903.061,748.011 903.756,750.754 904.493,753.498 905.272,756.241 906.093,758.985 906.957,761.728 907.864,764.472 908.815,767.215 909.812,769.959 910.853,772.702 911.941,775.446 913.076,778.189 914.259,780.933 915.49,783.676 916.772,786.42 918.104,789.163 919.489,791.907 920.926,794.65 922.419,797.394 923.967,800.137 925.573,802.881 927.237,805.624 928.963,808.368 930.751,811.111 932.604,813.855 934.525,816.598 936.514,819.342 938.575,822.085 940.711,824.829 942.925,827.572 945.22,830.316 947.6,833.059 950.07,835.802 "/>
        </g>
        <g>
            <polyline fill="none" stroke="#7f7fff"
                      points="991.382,565.934 993.605,568.642 995.754,571.35 997.83,574.059 999.839,576.767 1001.78,579.476 1003.657,582.184 1005.473,584.893 1007.228,587.601 1008.924,590.309 1010.564,593.018 1012.148,595.726 1013.679,598.435 1015.157,601.143 1016.584,603.851 1017.96,606.56 1019.288,609.268 1020.568,611.977 1021.801,614.685 1022.988,617.393 1024.129,620.102 1025.227,622.81 1026.28,625.519 1027.291,628.227 1028.259,630.936 1029.186,633.644 1030.071,636.352 1030.916,639.061 1031.721,641.769 1032.486,644.478 1033.212,647.186 1033.899,649.894 1034.548,652.603 1035.159,655.311 1035.733,658.02 1036.269,660.728 1036.768,663.436 1037.231,666.145 1037.657,668.853 1038.046,671.562 1038.4,674.27 1038.718,676.979 1039,679.687 1039.246,682.395 1039.457,685.104 1039.633,687.812 1039.774,690.521 1039.879,693.229 1039.949,695.937 1039.984,698.646 1039.984,701.354 1039.949,704.063 1039.879,706.771 1039.774,709.479 1039.633,712.188 1039.457,714.896 1039.246,717.605 1039,720.313 1038.718,723.021 1038.4,725.73 1038.046,728.438 1037.657,731.147 1037.231,733.855 1036.768,736.564 1036.269,739.272 1035.733,741.98 1035.159,744.689 1034.548,747.397 1033.899,750.106 1033.212,752.814 1032.486,755.522 1031.721,758.231 1030.916,760.939 1030.071,763.648 1029.186,766.356 1028.259,769.064 1027.291,771.773 1026.28,774.481 1025.227,777.19 1024.129,779.898 1022.988,782.607 1021.801,785.315 1020.568,788.023 1019.288,790.732 1017.96,793.44 1016.584,796.149 1015.157,798.857 1013.679,801.565 1012.148,804.274 1010.564,806.982 1008.924,809.691 1007.228,812.399 1005.473,815.107 1003.657,817.816 1001.78,820.524 999.839,823.233 997.83,825.941 995.754,828.65 993.605,831.358 991.382,834.066 "/>
            <line x1="991.382" y1="543.75" x2="991.382" y2="565.934" stroke="#7f7fff"/>
            <line x1="991.382" y1="543.75" x2="1047.979" y2="543.75" stroke="#7f7fff"/>
            <line x1="991.382" y1="856.25" x2="991.382" y2="834.066" stroke="#7f7fff"/>
            <line x1="991.382" y1="856.25" x2="1047.979" y2="856.25" stroke="#7f7fff"/>
            <polyline fill="none" stroke="#7f7fff"
                      points="1047.979,543.75 1048.159,546.907 1048.335,550.063 1048.507,553.22 1048.675,556.376 1048.84,559.533 1049.001,562.689 1049.158,565.846 1049.312,569.003 1049.462,572.159 1049.609,575.316 1049.751,578.472 1049.89,581.629 1050.026,584.785 1050.158,587.942 1050.286,591.098 1050.41,594.255 1050.531,597.412 1050.648,600.568 1050.761,603.725 1050.871,606.881 1050.977,610.038 1051.08,613.194 1051.179,616.351 1051.274,619.508 1051.365,622.664 1051.453,625.821 1051.537,628.977 1051.617,632.134 1051.694,635.29 1051.767,638.447 1051.837,641.604 1051.903,644.76 1051.965,647.917 1052.023,651.073 1052.078,654.23 1052.129,657.386 1052.177,660.543 1052.221,663.699 1052.261,666.856 1052.298,670.013 1052.331,673.169 1052.36,676.326 1052.385,679.482 1052.407,682.639 1052.426,685.795 1052.44,688.952 1052.451,692.109 1052.459,695.265 1052.462,698.422 1052.462,701.578 1052.459,704.735 1052.451,707.891 1052.44,711.048 1052.426,714.205 1052.407,717.361 1052.385,720.518 1052.36,723.674 1052.331,726.831 1052.298,729.987 1052.261,733.144 1052.221,736.301 1052.177,739.457 1052.129,742.614 1052.078,745.77 1052.023,748.927 1051.965,752.083 1051.903,755.24 1051.837,758.396 1051.767,761.553 1051.694,764.71 1051.617,767.866 1051.537,771.023 1051.453,774.179 1051.365,777.336 1051.274,780.492 1051.179,783.649 1051.08,786.806 1050.977,789.962 1050.871,793.119 1050.761,796.275 1050.648,799.432 1050.531,802.588 1050.41,805.745 1050.286,808.902 1050.158,812.058 1050.026,815.215 1049.89,818.371 1049.751,821.528 1049.609,824.684 1049.462,827.841 1049.312,830.997 1049.158,834.154 1049.001,837.311 1048.84,840.467 1048.675,843.624 1048.507,846.78 1048.335,849.937 1048.159,853.093 1047.979,856.25 "/>
            <line x1="1047.979" y1="543.75" x2="1062.05" y2="543.75" stroke="#7f7fff"/>
            <line x1="1047.979" y1="856.25" x2="1062.05" y2="856.25" stroke="#7f7fff"/>
            <polyline fill="none" stroke="#7f7fff"
                      points="1062.05,543.75 1064.384,546.907 1066.645,550.063 1068.836,553.22 1070.959,556.376 1073.016,559.533 1075.008,562.689 1076.939,565.846 1078.808,569.003 1080.618,572.159 1082.37,575.316 1084.065,578.472 1085.705,581.629 1087.291,584.785 1088.824,587.942 1090.304,591.098 1091.733,594.255 1093.112,597.412 1094.442,600.568 1095.724,603.725 1096.957,606.881 1098.143,610.038 1099.284,613.194 1100.378,616.351 1101.427,619.508 1102.432,622.664 1103.393,625.821 1104.31,628.977 1105.184,632.134 1106.016,635.29 1106.805,638.447 1107.553,641.604 1108.259,644.76 1108.925,647.917 1109.549,651.073 1110.134,654.23 1110.678,657.386 1111.182,660.543 1111.646,663.699 1112.071,666.856 1112.457,670.013 1112.804,673.169 1113.112,676.326 1113.381,679.482 1113.611,682.639 1113.803,685.795 1113.956,688.952 1114.071,692.109 1114.148,695.265 1114.186,698.422 1114.186,701.578 1114.148,704.735 1114.071,707.891 1113.956,711.048 1113.803,714.205 1113.611,717.361 1113.381,720.518 1113.112,723.674 1112.804,726.831 1112.457,729.987 1112.071,733.144 1111.646,736.301 1111.182,739.457 1110.678,742.614 1110.134,745.77 1109.549,748.927 1108.925,752.083 1108.259,755.24 1107.553,758.396 1106.805,761.553 1106.016,764.71 1105.184,767.866 1104.31,771.023 1103.393,774.179 1102.432,777.336 1101.427,780.492 1100.378,783.649 1099.284,786.806 1098.143,789.962 1096.957,793.119 1095.724,796.275 1094.442,799.432 1093.112,802.588 1091.733,805.745 1090.304,808.902 1088.824,812.058 1087.291,815.215 1085.705,818.371 1084.065,821.528 1082.37,824.684 1080.618,827.841 1078.808,830.997 1076.939,834.154 1075.008,837.311 1073.016,840.467 1070.959,843.624 1068.836,846.78 1066.645,849.937 1064.384,853.093 1062.05,856.25 "/>
        </g>
        <g>
            <polyline fill="none" stroke="#7f7fff"
                      points="1117.962,542.142 1117.86,545.332 1117.76,548.521 1117.662,551.71 1117.566,554.899 1117.473,558.088 1117.381,561.277 1117.292,564.466 1117.204,567.655 1117.119,570.844 1117.036,574.033 1116.955,577.222 1116.876,580.411 1116.799,583.6 1116.724,586.789 1116.651,589.978 1116.58,593.167 1116.511,596.356 1116.445,599.545 1116.38,602.734 1116.318,605.923 1116.258,609.112 1116.199,612.301 1116.143,615.49 1116.089,618.679 1116.037,621.869 1115.987,625.058 1115.939,628.247 1115.894,631.436 1115.85,634.625 1115.808,637.814 1115.769,641.003 1115.731,644.192 1115.696,647.381 1115.663,650.57 1115.631,653.759 1115.602,656.948 1115.575,660.137 1115.55,663.326 1115.527,666.515 1115.507,669.704 1115.488,672.893 1115.471,676.082 1115.457,679.271 1115.444,682.46 1115.434,685.649 1115.426,688.838 1115.419,692.027 1115.415,695.216 1115.413,698.405 1115.413,701.595 1115.415,704.784 1115.419,707.973 1115.426,711.162 1115.434,714.351 1115.444,717.54 1115.457,720.729 1115.471,723.918 1115.488,727.107 1115.507,730.296 1115.527,733.485 1115.55,736.674 1115.575,739.863 1115.602,743.052 1115.631,746.241 1115.663,749.43 1115.696,752.619 1115.731,755.808 1115.769,758.997 1115.808,762.186 1115.85,765.375 1115.894,768.564 1115.939,771.753 1115.987,774.942 1116.037,778.131 1116.089,781.321 1116.143,784.51 1116.199,787.699 1116.258,790.888 1116.318,794.077 1116.38,797.266 1116.445,800.455 1116.511,803.644 1116.58,806.833 1116.651,810.022 1116.724,813.211 1116.799,816.4 1116.876,819.589 1116.955,822.778 1117.036,825.967 1117.119,829.156 1117.204,832.345 1117.292,835.534 1117.381,838.723 1117.473,841.912 1117.566,845.101 1117.662,848.29 1117.76,851.479 1117.86,854.668 1117.962,857.858 "/>
            <line x1="1117.962" y1="542.142" x2="1132.148" y2="542.142" stroke="#7f7fff"/>
            <line x1="1117.962" y1="857.858" x2="1132.148" y2="857.858" stroke="#7f7fff"/>
            <polyline fill="none" stroke="#7f7fff"
                      points="1132.148,542.142 1132.911,545.332 1133.658,548.521 1134.388,551.71 1135.102,554.899 1135.8,558.088 1136.482,561.277 1137.147,564.466 1137.797,567.655 1138.43,570.844 1139.047,574.033 1139.648,577.222 1140.234,580.411 1140.803,583.6 1141.356,586.789 1141.894,589.978 1142.416,593.167 1142.922,596.356 1143.413,599.545 1143.887,602.734 1144.347,605.923 1144.79,609.112 1145.218,612.301 1145.631,615.49 1146.027,618.679 1146.409,621.869 1146.775,625.058 1147.125,628.247 1147.46,631.436 1147.78,634.625 1148.085,637.814 1148.374,641.003 1148.647,644.192 1148.906,647.381 1149.149,650.57 1149.377,653.759 1149.589,656.948 1149.786,660.137 1149.968,663.326 1150.135,666.515 1150.287,669.704 1150.423,672.893 1150.545,676.082 1150.651,679.271 1150.742,682.46 1150.818,685.649 1150.878,688.838 1150.924,692.027 1150.954,695.216 1150.969,698.405 1150.969,701.595 1150.954,704.784 1150.924,707.973 1150.878,711.162 1150.818,714.351 1150.742,717.54 1150.651,720.729 1150.545,723.918 1150.423,727.107 1150.287,730.296 1150.135,733.485 1149.968,736.674 1149.786,739.863 1149.589,743.052 1149.377,746.241 1149.149,749.43 1148.906,752.619 1148.647,755.808 1148.374,758.997 1148.085,762.186 1147.78,765.375 1147.46,768.564 1147.125,771.753 1146.775,774.942 1146.409,778.131 1146.027,781.321 1145.631,784.51 1145.218,787.699 1144.79,790.888 1144.347,794.077 1143.887,797.266 1143.413,800.455 1142.922,803.644 1142.416,806.833 1141.894,810.022 1141.356,813.211 1140.803,816.4 1140.234,819.589 1139.648,822.778 1139.047,825.967 1138.43,829.156 1137.797,832.345 1137.147,835.534 1136.482,838.723 1135.8,841.912 1135.102,845.101 1134.388,848.29 1133.658,851.479 1132.911,854.668 1132.148,857.858 "/>
        </g>
    </g>
    <g>
        <title>element</title>
        <polyline fill="none" stroke="#7f7fff"
                  points="1628.08,144.444 1628.08,155.668 1628.08,166.891 1628.08,178.114 1628.08,189.338 1628.08,200.561 1628.08,211.785 1628.08,223.008 1628.08,234.231 1628.08,245.455 1628.08,256.678 1628.08,267.901 1628.08,279.125 1628.08,290.348 1628.08,301.571 1628.08,312.795 1628.08,324.018 1628.08,335.241 1628.08,346.465 1628.08,357.688 1628.08,368.911 1628.08,380.135 1628.08,391.358 1628.08,402.581 1628.08,413.805 1628.08,425.028 1628.08,436.251 1628.08,447.475 1628.08,458.698 1628.08,469.921 1628.08,481.145 1628.08,492.368 1628.08,503.591 1628.08,514.815 1628.08,526.038 1628.08,537.262 1628.08,548.485 1628.08,559.708 1628.08,570.932 1628.08,582.155 1628.08,593.378 1628.08,604.602 1628.08,615.825 1628.08,627.048 1628.08,638.272 1628.08,649.495 1628.08,660.718 1628.08,671.942 1628.08,683.165 1628.08,694.388 1628.08,705.612 1628.08,716.835 1628.08,728.058 1628.08,739.282 1628.08,750.505 1628.08,761.728 1628.08,772.952 1628.08,784.175 1628.08,795.398 1628.08,806.622 1628.08,817.845 1628.08,829.068 1628.08,840.292 1628.08,851.515 1628.08,862.738 1628.08,873.962 1628.08,885.185 1628.08,896.409 1628.08,907.632 1628.08,918.855 1628.08,930.079 1628.08,941.302 1628.08,952.525 1628.08,963.749 1628.08,974.972 1628.08,986.195 1628.08,997.419 1628.08,1008.642 1628.08,1019.865 1628.08,1031.089 1628.08,1042.312 1628.08,1053.535 1628.08,1064.759 1628.08,1075.982 1628.08,1087.205 1628.08,1098.429 1628.08,1109.652 1628.08,1120.875 1628.08,1132.099 1628.08,1143.322 1628.08,1154.545 1628.08,1165.769 1628.08,1176.992 1628.08,1188.215 1628.08,1199.439 1628.08,1210.662 1628.08,1221.886 1628.08,1233.109 1628.08,1244.332 1628.08,1255.556 "/>
    </g>
</svg>
