<?xml version="1.0" standalone="no"?>
<svg width="2400px" height="1400px" version="1.1" xmlns="http://www.w3.org/2000/svg" xmlns:xlink="http://www.w3.org/1999/xlink">
<rect x="0" y="0" width="2400" height="1400"  fill="#ffffff" />
<defs>
<g id="dot">
<line x1="1" y1="1" x2="0" y2="0"  />
</g>
<g id="cross">
<line x1="-3" y1="0" x2="3" y2="0"  />
<line x1="0" y1="-3" x2="0" y2="3"  />
</g>
<g id="square">
<line x1="-3" y1="-3" x2="-3" y2="3"  />
<line x1="-3" y1="3" x2="3" y2="3"  />
<line x1="3" y1="3" x2="3" y2="-3"  />
<line x1="3" y1="-3" x2="-3" y2="-3"  />
</g>
<g id="round">
<ellipse cx="0" cy="0" rx="3" ry="3"  fill="none" /></g>
<g id="triangle">
<line x1="0" y1="-3" x2="-3" y2="3"  />
<line x1="-3" y1="3" x2="3" y2="3"  />
<line x1="0" y1="-3" x2="3" y2="3"  />
</g>
</defs>
<line x1="603.421" y1="700" x2="1796.579" y2="700"  stroke="#7f7f7f" />
<g><title>element</title>
<g>
<line x1="936.497" y1="517.695" x2="936.497" y2="335.391"  stroke="#7f7fff" />
<line x1="936.497" y1="882.305" x2="936.497" y2="1064.609"  stroke="#7f7fff" />
</g>
<g>
<polyline fill="none" stroke="#7f7fff" points="654.057,408.976 651.971,414.856 649.933,420.735 647.942,426.614 645.999,432.493 644.102,438.373 642.251,444.252 640.447,450.131 638.688,456.01 636.975,461.89 635.307,467.769 633.684,473.648 632.105,479.528 630.571,485.407 629.082,491.286 627.636,497.165 626.233,503.045 624.875,508.924 623.559,514.803 622.287,520.682 621.057,526.562 619.87,532.441 618.726,538.32 617.624,544.199 616.564,550.079 615.546,555.958 614.57,561.837 613.636,567.717 612.743,573.596 611.892,579.475 611.082,585.354 610.313,591.234 609.586,597.113 608.899,602.992 608.253,608.871 607.648,614.751 607.084,620.63 606.561,626.509 606.078,632.388 605.635,638.268 605.233,644.147 604.871,650.026 604.55,655.906 604.269,661.785 604.028,667.664 603.827,673.543 603.667,679.423 603.546,685.302 603.466,691.181 603.426,697.06 603.426,702.94 603.466,708.819 603.546,714.698 603.667,720.577 603.827,726.457 604.028,732.336 604.269,738.215 604.55,744.094 604.871,749.974 605.233,755.853 605.635,761.732 606.078,767.612 606.561,773.491 607.084,779.37 607.648,785.249 608.253,791.129 608.899,797.008 609.586,802.887 610.313,808.766 611.082,814.646 611.892,820.525 612.743,826.404 613.636,832.283 614.57,838.163 615.546,844.042 616.564,849.921 617.624,855.801 618.726,861.68 619.87,867.559 621.057,873.438 622.287,879.318 623.559,885.197 624.875,891.076 626.233,896.955 627.636,902.835 629.082,908.714 630.571,914.593 632.105,920.472 633.684,926.352 635.307,932.231 636.975,938.11 638.688,943.99 640.447,949.869 642.251,955.748 644.102,961.627 645.999,967.507 647.942,973.386 649.933,979.265 651.971,985.144 654.057,991.024 " />
<line x1="654.057" y1="408.976" x2="674.575" y2="408.976"  stroke="#7f7fff" />
<line x1="654.057" y1="991.024" x2="674.575" y2="991.024"  stroke="#7f7fff" />
<polyline fill="none" stroke="#7f7fff" points="674.575,408.976 674.403,414.856 674.236,420.735 674.071,426.614 673.91,432.493 673.753,438.373 673.599,444.252 673.449,450.131 673.302,456.01 673.159,461.89 673.019,467.769 672.883,473.648 672.75,479.528 672.621,485.407 672.495,491.286 672.373,497.165 672.254,503.045 672.139,508.924 672.027,514.803 671.918,520.682 671.814,526.562 671.712,532.441 671.614,538.32 671.52,544.199 671.429,550.079 671.342,555.958 671.258,561.837 671.178,567.717 671.101,573.596 671.027,579.475 670.958,585.354 670.891,591.234 670.828,597.113 670.769,602.992 670.713,608.871 670.661,614.751 670.612,620.63 670.566,626.509 670.524,632.388 670.486,638.268 670.451,644.147 670.419,650.026 670.391,655.906 670.367,661.785 670.346,667.664 670.329,673.543 670.315,679.423 670.304,685.302 670.297,691.181 670.294,697.06 670.294,702.94 670.297,708.819 670.304,714.698 670.315,720.577 670.329,726.457 670.346,732.336 670.367,738.215 670.391,744.094 670.419,749.974 670.451,755.853 670.486,761.732 670.524,767.612 670.566,773.491 670.612,779.37 670.661,785.249 670.713,791.129 670.769,797.008 670.828,802.887 670.891,808.766 670.958,814.646 671.027,820.525 671.101,826.404 671.178,832.283 671.258,838.163 671.342,844.042 671.429,849.921 671.52,855.801 671.614,861.68 671.712,867.559 671.814,873.438 671.918,879.318 672.027,885.197 672.139,891.076 672.254,896.955 672.373,902.835 672.495,908.714 672.621,914.593 672.75,920.472 672.883,926.352 673.019,932.231 673.159,938.11 673.302,943.99 673.449,949.869 673.599,955.748 673.753,961.627 673.91,967.507 674.071,973.386 674.236,979.265 674.403,985.144 674.575,991.024 " />
</g>
<g>
<polyline fill="none" stroke="#7f7fff" points="776.098,443.699 771.13,448.876 766.353,454.054 761.755,459.232 757.327,464.41 753.063,469.588 748.954,474.765 744.994,479.943 741.177,485.121 737.498,490.299 733.951,495.477 730.532,500.654 727.238,505.832 724.063,511.01 721.004,516.188 718.059,521.366 715.223,526.543 712.494,531.721 709.87,536.899 707.348,542.077 704.925,547.255 702.599,552.433 700.369,557.61 698.232,562.788 696.188,567.966 694.233,573.144 692.367,578.322 690.588,583.499 688.895,588.677 687.286,593.855 685.761,599.033 684.318,604.211 682.957,609.388 681.676,614.566 680.474,619.744 679.351,624.922 678.307,630.1 677.339,635.277 676.448,640.455 675.634,645.633 674.895,650.811 674.231,655.989 673.642,661.166 673.128,666.344 672.687,671.522 672.321,676.7 672.028,681.878 671.808,687.055 671.662,692.233 671.588,697.411 671.588,702.589 671.662,707.767 671.808,712.945 672.028,718.122 672.321,723.3 672.687,728.478 673.128,733.656 673.642,738.834 674.231,744.011 674.895,749.189 675.634,754.367 676.448,759.545 677.339,764.723 678.307,769.9 679.351,775.078 680.474,780.256 681.676,785.434 682.957,790.612 684.318,795.789 685.761,800.967 687.286,806.145 688.895,811.323 690.588,816.501 692.367,821.678 694.233,826.856 696.188,832.034 698.232,837.212 700.369,842.39 702.599,847.567 704.925,852.745 707.348,857.923 709.87,863.101 712.494,868.279 715.223,873.457 718.059,878.634 721.004,883.812 724.063,888.99 727.238,894.168 730.532,899.346 733.951,904.523 737.498,909.701 741.177,914.879 744.994,920.057 748.954,925.235 753.063,930.412 757.327,935.59 761.755,940.768 766.353,945.946 771.13,951.124 776.098,956.301 " />
<line x1="776.098" y1="443.699" x2="822.129" y2="443.699"  stroke="#7f7fff" />
<line x1="776.098" y1="956.301" x2="822.129" y2="956.301"  stroke="#7f7fff" />
<polyline fill="none" stroke="#7f7fff" points="822.129,443.699 820.326,448.876 818.565,454.054 816.844,459.232 815.163,464.41 813.523,469.588 811.923,474.765 810.363,479.943 808.842,485.121 807.36,490.299 805.917,495.477 804.513,500.654 803.148,505.832 801.821,511.01 800.532,516.188 799.28,521.366 798.067,526.543 796.891,531.721 795.753,536.899 794.652,542.077 793.588,547.255 792.56,552.433 791.57,557.61 790.616,562.788 789.698,567.966 788.817,573.144 787.972,578.322 787.164,583.499 786.391,588.677 785.654,593.855 784.952,599.033 784.287,604.211 783.657,609.388 783.062,614.566 782.503,619.744 781.979,624.922 781.491,630.1 781.037,635.277 780.619,640.455 780.236,645.633 779.887,650.811 779.574,655.989 779.296,661.166 779.052,666.344 778.844,671.522 778.67,676.7 778.531,681.878 778.426,687.055 778.357,692.233 778.322,697.411 778.322,702.589 778.357,707.767 778.426,712.945 778.531,718.122 778.67,723.3 778.844,728.478 779.052,733.656 779.296,738.834 779.574,744.011 779.887,749.189 780.236,754.367 780.619,759.545 781.037,764.723 781.491,769.9 781.979,775.078 782.503,780.256 783.062,785.434 783.657,790.612 784.287,795.789 784.952,800.967 785.654,806.145 786.391,811.323 787.164,816.501 787.972,821.678 788.817,826.856 789.698,832.034 790.616,837.212 791.57,842.39 792.56,847.567 793.588,852.745 794.652,857.923 795.753,863.101 796.891,868.279 798.067,873.457 799.28,878.634 800.532,883.812 801.821,888.99 803.148,894.168 804.513,899.346 805.917,904.523 807.36,909.701 808.842,914.879 810.363,920.057 811.923,925.235 813.523,930.412 815.163,935.59 816.844,940.768 818.565,945.946 820.326,951.124 822.129,956.301 " />
</g>
<g>
<polyline fill="none" stroke="#7f7fff" points="827.36,443.699 826.155,448.876 824.975,454.054 823.821,459.232 822.693,464.41 821.591,469.588 820.514,474.765 819.462,479.943 818.436,485.121 817.436,490.299 816.46,495.477 815.51,500.654 814.585,505.832 813.685,511.01 812.811,516.188 811.961,521.366 811.136,526.543 810.336,531.721 809.56,536.899 808.81,542.077 808.084,547.255 807.382,552.433 806.706,557.61 806.054,562.788 805.426,567.966 804.823,573.144 804.244,578.322 803.69,583.499 803.16,588.677 802.654,593.855 802.173,599.033 801.716,604.211 801.283,609.388 800.875,614.566 800.49,619.744 800.13,624.922 799.794,630.1 799.482,635.277 799.194,640.455 798.93,645.633 798.69,650.811 798.474,655.989 798.282,661.166 798.114,666.344 797.971,671.522 797.851,676.7 797.755,681.878 797.683,687.055 797.635,692.233 797.611,697.411 797.611,702.589 797.635,707.767 797.683,712.945 797.755,718.122 797.851,723.3 797.971,728.478 798.114,733.656 798.282,738.834 798.474,744.011 798.69,749.189 798.93,754.367 799.194,759.545 799.482,764.723 799.794,769.9 800.13,775.078 800.49,780.256 800.875,785.434 801.283,790.612 801.716,795.789 802.173,800.967 802.654,806.145 803.16,811.323 803.69,816.501 804.244,821.678 804.823,826.856 805.426,832.034 806.054,837.212 806.706,842.39 807.382,847.567 808.084,852.745 808.81,857.923 809.56,863.101 810.336,868.279 811.136,873.457 811.961,878.634 812.811,883.812 813.685,888.99 814.585,894.168 815.51,899.346 816.46,904.523 817.436,909.701 818.436,914.879 819.462,920.057 820.514,925.235 821.591,930.412 822.693,935.59 823.821,940.768 824.975,945.946 826.155,951.124 827.36,956.301 " />
<line x1="909.242" y1="443.699" x2="909.242" y2="513.786"  stroke="#7f7fff" />
<line x1="827.36" y1="443.699" x2="909.242" y2="443.699"  stroke="#7f7fff" />
<line x1="909.242" y1="956.301" x2="909.242" y2="886.214"  stroke="#7f7fff" />
<line x1="827.36" y1="956.301" x2="909.242" y2="956.301"  stroke="#7f7fff" />
<polyline fill="none" stroke="#7f7fff" points="909.242,513.786 904.426,517.548 899.857,521.31 895.514,525.072 891.377,528.834 887.432,532.596 883.665,536.357 880.063,540.119 876.617,543.881 873.317,547.643 870.157,551.405 867.127,555.167 864.222,558.929 861.437,562.691 858.766,566.453 856.204,570.214 853.747,573.976 851.392,577.738 849.134,581.5 846.97,585.262 844.898,589.024 842.914,592.786 841.017,596.548 839.204,600.31 837.472,604.072 835.82,607.833 834.246,611.595 832.749,615.357 831.326,619.119 829.976,622.881 828.698,626.643 827.491,630.405 826.353,634.167 825.284,637.929 824.282,641.691 823.347,645.452 822.478,649.214 821.673,652.976 820.933,656.738 820.257,660.5 819.644,664.262 819.094,668.024 818.606,671.786 818.18,675.548 817.815,679.31 817.511,683.071 817.269,686.833 817.087,690.595 816.966,694.357 816.906,698.119 816.906,701.881 816.966,705.643 817.087,709.405 817.269,713.167 817.511,716.929 817.815,720.69 818.18,724.452 818.606,728.214 819.094,731.976 819.644,735.738 820.257,739.5 820.933,743.262 821.673,747.024 822.478,750.786 823.347,754.548 824.282,758.309 825.284,762.071 826.353,765.833 827.491,769.595 828.698,773.357 829.976,777.119 831.326,780.881 832.749,784.643 834.246,788.405 835.82,792.167 837.472,795.928 839.204,799.69 841.017,803.452 842.914,807.214 844.898,810.976 846.97,814.738 849.134,818.5 851.392,822.262 853.747,826.024 856.204,829.786 858.766,833.547 861.437,837.309 864.222,841.071 867.127,844.833 870.157,848.595 873.317,852.357 876.617,856.119 880.063,859.881 883.665,863.643 887.432,867.404 891.377,871.166 895.514,874.928 899.857,878.69 904.426,882.452 909.242,886.214 " />
</g>
<g>
<polyline fill="none" stroke="#7f7fff" points="953.548,513.786 958.357,517.548 962.919,521.31 967.257,525.072 971.388,528.834 975.329,532.596 979.093,536.357 982.69,540.119 986.133,543.881 989.429,547.643 992.587,551.405 995.614,555.167 998.516,558.929 1001.299,562.691 1003.968,566.453 1006.528,570.214 1008.983,573.976 1011.336,577.738 1013.593,581.5 1015.755,585.262 1017.825,589.024 1019.807,592.786 1021.703,596.548 1023.515,600.31 1025.246,604.072 1026.897,607.833 1028.47,611.595 1029.967,615.357 1031.389,619.119 1032.738,622.881 1034.015,626.643 1035.221,630.405 1036.358,634.167 1037.427,637.929 1038.428,641.691 1039.363,645.452 1040.231,649.214 1041.035,652.976 1041.775,656.738 1042.45,660.5 1043.063,664.262 1043.613,668.024 1044.101,671.786 1044.527,675.548 1044.891,679.31 1045.195,683.071 1045.437,686.833 1045.619,690.595 1045.74,694.357 1045.8,698.119 1045.8,701.881 1045.74,705.643 1045.619,709.405 1045.437,713.167 1045.195,716.929 1044.891,720.69 1044.527,724.452 1044.101,728.214 1043.613,731.976 1043.063,735.738 1042.45,739.5 1041.775,743.262 1041.035,747.024 1040.231,750.786 1039.363,754.548 1038.428,758.309 1037.427,762.071 1036.358,765.833 1035.221,769.595 1034.015,773.357 1032.738,777.119 1031.389,780.881 1029.967,784.643 1028.47,788.405 1026.897,792.167 1025.246,795.928 1023.515,799.69 1021.703,803.452 1019.807,807.214 1017.825,810.976 1015.755,814.738 1013.593,818.5 1011.336,822.262 1008.983,826.024 1006.528,829.786 1003.968,833.547 1001.299,837.309 998.516,841.071 995.614,844.833 992.587,848.595 989.429,852.357 986.133,856.119 982.69,859.881 979.093,863.643 975.329,867.404 971.388,871.166 967.257,874.928 962.919,878.69 958.357,882.452 953.548,886.214 " />
<line x1="953.548" y1="459.002" x2="953.548" y2="513.786"  stroke="#7f7fff" />
<line x1="953.548" y1="459.002" x2="1059.954" y2="459.002"  stroke="#7f7fff" />
<line x1="953.548" y1="940.998" x2="953.548" y2="886.214"  stroke="#7f7fff" />
<line x1="953.548" y1="940.998" x2="1059.954" y2="940.998"  stroke="#7f7fff" />
<polyline fill="none" stroke="#7f7fff" points="1059.954,459.002 1059.954,463.871 1059.954,468.739 1059.954,473.608 1059.954,478.477 1059.954,483.345 1059.954,488.214 1059.954,493.083 1059.954,497.951 1059.954,502.82 1059.954,507.689 1059.954,512.557 1059.954,517.426 1059.954,522.294 1059.954,527.163 1059.954,532.032 1059.954,536.9 1059.954,541.769 1059.954,546.638 1059.954,551.506 1059.954,556.375 1059.954,561.244 1059.954,566.112 1059.954,570.981 1059.954,575.85 1059.954,580.718 1059.954,585.587 1059.954,590.455 1059.954,595.324 1059.954,600.193 1059.954,605.061 1059.954,609.93 1059.954,614.799 1059.954,619.667 1059.954,624.536 1059.954,629.405 1059.954,634.273 1059.954,639.142 1059.954,644.011 1059.954,648.879 1059.954,653.748 1059.954,658.617 1059.954,663.485 1059.954,668.354 1059.954,673.222 1059.954,678.091 1059.954,682.96 1059.954,687.828 1059.954,692.697 1059.954,697.566 1059.954,702.434 1059.954,707.303 1059.954,712.172 1059.954,717.04 1059.954,721.909 1059.954,726.778 1059.954,731.646 1059.954,736.515 1059.954,741.383 1059.954,746.252 1059.954,751.121 1059.954,755.989 1059.954,760.858 1059.954,765.727 1059.954,770.595 1059.954,775.464 1059.954,780.333 1059.954,785.201 1059.954,790.07 1059.954,794.939 1059.954,799.807 1059.954,804.676 1059.954,809.545 1059.954,814.413 1059.954,819.282 1059.954,824.15 1059.954,829.019 1059.954,833.888 1059.954,838.756 1059.954,843.625 1059.954,848.494 1059.954,853.362 1059.954,858.231 1059.954,863.1 1059.954,867.968 1059.954,872.837 1059.954,877.706 1059.954,882.574 1059.954,887.443 1059.954,892.311 1059.954,897.18 1059.954,902.049 1059.954,906.917 1059.954,911.786 1059.954,916.655 1059.954,921.523 1059.954,926.392 1059.954,931.261 1059.954,936.129 1059.954,940.998 " />
<line x1="1059.954" y1="459.002" x2="1081.037" y2="459.002"  stroke="#7f7fff" />
<line x1="1059.954" y1="940.998" x2="1081.037" y2="940.998"  stroke="#7f7fff" />
<polyline fill="none" stroke="#7f7fff" points="1081.037,459.002 1085.237,463.871 1089.292,468.739 1093.206,473.608 1096.985,478.477 1100.636,483.345 1104.162,488.214 1107.568,493.083 1110.858,497.951 1114.035,502.82 1117.104,507.689 1120.067,512.557 1122.928,517.426 1125.688,522.294 1128.352,527.163 1130.92,532.032 1133.396,536.9 1135.781,541.769 1138.077,546.638 1140.286,551.506 1142.411,556.375 1144.452,561.244 1146.411,566.112 1148.289,570.981 1150.088,575.85 1151.809,580.718 1153.453,585.587 1155.021,590.455 1156.515,595.324 1157.934,600.193 1159.281,605.061 1160.556,609.93 1161.759,614.799 1162.892,619.667 1163.955,624.536 1164.949,629.405 1165.874,634.273 1166.73,639.142 1167.519,644.011 1168.241,648.879 1168.896,653.748 1169.484,658.617 1170.006,663.485 1170.463,668.354 1170.853,673.222 1171.179,678.091 1171.439,682.96 1171.634,687.828 1171.763,692.697 1171.828,697.566 1171.828,702.434 1171.763,707.303 1171.634,712.172 1171.439,717.04 1171.179,721.909 1170.853,726.778 1170.463,731.646 1170.006,736.515 1169.484,741.383 1168.896,746.252 1168.241,751.121 1167.519,755.989 1166.73,760.858 1165.874,765.727 1164.949,770.595 1163.955,775.464 1162.892,780.333 1161.759,785.201 1160.556,790.07 1159.281,794.939 1157.934,799.807 1156.515,804.676 1155.021,809.545 1153.453,814.413 1151.809,819.282 1150.088,824.15 1148.289,829.019 1146.411,833.888 1144.452,838.756 1142.411,843.625 1140.286,848.494 1138.077,853.362 1135.781,858.231 1133.396,863.1 1130.92,867.968 1128.352,872.837 1125.688,877.706 1122.928,882.574 1120.067,887.443 1117.104,892.311 1114.035,897.18 1110.858,902.049 1107.568,906.917 1104.162,911.786 1100.636,916.655 1096.985,921.523 1093.206,926.392 1089.292,931.261 1085.237,936.129 1081.037,940.998 " />
</g>
<g>
<polyline fill="none" stroke="#7f7fff" points="1158.522,440.419 1159.108,445.663 1159.681,450.907 1160.243,456.151 1160.792,461.395 1161.33,466.64 1161.855,471.884 1162.368,477.128 1162.87,482.372 1163.359,487.616 1163.836,492.86 1164.301,498.104 1164.754,503.348 1165.195,508.592 1165.624,513.836 1166.041,519.08 1166.447,524.324 1166.84,529.568 1167.221,534.812 1167.59,540.056 1167.947,545.3 1168.293,550.544 1168.626,555.788 1168.947,561.033 1169.257,566.277 1169.554,571.521 1169.84,576.765 1170.113,582.009 1170.375,587.253 1170.625,592.497 1170.863,597.741 1171.089,602.985 1171.303,608.229 1171.505,613.473 1171.695,618.717 1171.873,623.961 1172.04,629.205 1172.194,634.449 1172.337,639.693 1172.467,644.937 1172.586,650.181 1172.693,655.426 1172.788,660.67 1172.871,665.914 1172.943,671.158 1173.002,676.402 1173.05,681.646 1173.085,686.89 1173.109,692.134 1173.121,697.378 1173.121,702.622 1173.109,707.866 1173.085,713.11 1173.05,718.354 1173.002,723.598 1172.943,728.842 1172.871,734.086 1172.788,739.33 1172.693,744.574 1172.586,749.819 1172.467,755.063 1172.337,760.307 1172.194,765.551 1172.04,770.795 1171.873,776.039 1171.695,781.283 1171.505,786.527 1171.303,791.771 1171.089,797.015 1170.863,802.259 1170.625,807.503 1170.375,812.747 1170.113,817.991 1169.84,823.235 1169.554,828.479 1169.257,833.723 1168.947,838.967 1168.626,844.212 1168.293,849.456 1167.947,854.7 1167.59,859.944 1167.221,865.188 1166.84,870.432 1166.447,875.676 1166.041,880.92 1165.624,886.164 1165.195,891.408 1164.754,896.652 1164.301,901.896 1163.836,907.14 1163.359,912.384 1162.87,917.628 1162.368,922.872 1161.855,928.116 1161.33,933.36 1160.792,938.605 1160.243,943.849 1159.681,949.093 1159.108,954.337 1158.522,959.581 " />
<line x1="1158.522" y1="440.419" x2="1168.301" y2="440.419"  stroke="#7f7fff" />
<line x1="1158.522" y1="959.581" x2="1168.301" y2="959.581"  stroke="#7f7fff" />
<polyline fill="none" stroke="#7f7fff" points="1168.301,440.419 1171.995,445.663 1175.577,450.907 1179.052,456.151 1182.421,461.395 1185.689,466.64 1188.857,471.884 1191.928,477.128 1194.904,482.372 1197.787,487.616 1200.58,492.86 1203.284,498.104 1205.902,503.348 1208.434,508.592 1210.882,513.836 1213.249,519.08 1215.534,524.324 1217.741,529.568 1219.869,534.812 1221.92,540.056 1223.896,545.3 1225.797,550.544 1227.624,555.788 1229.379,561.033 1231.062,566.277 1232.673,571.521 1234.215,576.765 1235.687,582.009 1237.091,587.253 1238.426,592.497 1239.694,597.741 1240.896,602.985 1242.031,608.229 1243.1,613.473 1244.104,618.717 1245.043,623.961 1245.918,629.205 1246.728,634.449 1247.475,639.693 1248.159,644.937 1248.779,650.181 1249.337,655.426 1249.832,660.67 1250.265,665.914 1250.636,671.158 1250.945,676.402 1251.191,681.646 1251.376,686.89 1251.5,692.134 1251.561,697.378 1251.561,702.622 1251.5,707.866 1251.376,713.11 1251.191,718.354 1250.945,723.598 1250.636,728.842 1250.265,734.086 1249.832,739.33 1249.337,744.574 1248.779,749.819 1248.159,755.063 1247.475,760.307 1246.728,765.551 1245.918,770.795 1245.043,776.039 1244.104,781.283 1243.1,786.527 1242.031,791.771 1240.896,797.015 1239.694,802.259 1238.426,807.503 1237.091,812.747 1235.687,817.991 1234.215,823.235 1232.673,828.479 1231.062,833.723 1229.379,838.967 1227.624,844.212 1225.797,849.456 1223.896,854.7 1221.92,859.944 1219.869,865.188 1217.741,870.432 1215.534,875.676 1213.249,880.92 1210.882,886.164 1208.434,891.408 1205.902,896.652 1203.284,901.896 1200.58,907.14 1197.787,912.384 1194.904,917.628 1191.928,922.872 1188.857,928.116 1185.689,933.36 1182.421,938.605 1179.052,943.849 1175.577,949.093 1171.995,954.337 1168.301,959.581 " />
</g>
<g>
<polyline fill="none" stroke="#7f7fff" points="1276.972,462.153 1275.997,466.958 1275.044,471.763 1274.111,476.568 1273.199,481.373 1272.307,486.178 1271.436,490.983 1270.585,495.788 1269.754,500.593 1268.944,505.398 1268.154,510.203 1267.385,515.008 1266.635,519.813 1265.906,524.618 1265.197,529.423 1264.508,534.228 1263.839,539.033 1263.19,543.838 1262.562,548.643 1261.953,553.448 1261.364,558.253 1260.795,563.058 1260.246,567.863 1259.716,572.668 1259.207,577.473 1258.717,582.278 1258.247,587.083 1257.797,591.888 1257.367,596.693 1256.956,601.498 1256.565,606.303 1256.194,611.108 1255.842,615.913 1255.51,620.718 1255.198,625.523 1254.905,630.328 1254.632,635.133 1254.378,639.938 1254.144,644.743 1253.93,649.548 1253.735,654.353 1253.559,659.158 1253.403,663.963 1253.267,668.768 1253.15,673.573 1253.052,678.378 1252.974,683.183 1252.916,687.988 1252.877,692.793 1252.857,697.598 1252.857,702.402 1252.877,707.207 1252.916,712.012 1252.974,716.817 1253.052,721.622 1253.15,726.427 1253.267,731.232 1253.403,736.037 1253.559,740.842 1253.735,745.647 1253.93,750.452 1254.144,755.257 1254.378,760.062 1254.632,764.867 1254.905,769.672 1255.198,774.477 1255.51,779.282 1255.842,784.087 1256.194,788.892 1256.565,793.697 1256.956,798.502 1257.367,803.307 1257.797,808.112 1258.247,812.917 1258.717,817.722 1259.207,822.527 1259.716,827.332 1260.246,832.137 1260.795,836.942 1261.364,841.747 1261.953,846.552 1262.562,851.357 1263.19,856.162 1263.839,860.967 1264.508,865.772 1265.197,870.577 1265.906,875.382 1266.635,880.187 1267.385,884.992 1268.154,889.797 1268.944,894.602 1269.754,899.407 1270.585,904.212 1271.436,909.017 1272.307,913.822 1273.199,918.627 1274.111,923.432 1275.044,928.237 1275.997,933.042 1276.972,937.847 " />
<line x1="1276.972" y1="462.153" x2="1285.53" y2="462.153"  stroke="#7f7fff" />
<line x1="1276.972" y1="937.847" x2="1285.53" y2="937.847"  stroke="#7f7fff" />
<polyline fill="none" stroke="#7f7fff" points="1285.53,462.153 1285.869,466.958 1286.202,471.763 1286.528,476.568 1286.846,481.373 1287.158,486.178 1287.462,490.983 1287.76,495.788 1288.051,500.593 1288.335,505.398 1288.612,510.203 1288.882,515.008 1289.145,519.813 1289.401,524.618 1289.65,529.423 1289.892,534.228 1290.127,539.033 1290.356,543.838 1290.577,548.643 1290.791,553.448 1290.999,558.253 1291.199,563.058 1291.393,567.863 1291.58,572.668 1291.76,577.473 1291.932,582.278 1292.098,587.083 1292.257,591.888 1292.41,596.693 1292.555,601.498 1292.693,606.303 1292.824,611.108 1292.949,615.913 1293.066,620.718 1293.177,625.523 1293.281,630.328 1293.377,635.133 1293.467,639.938 1293.55,644.743 1293.626,649.548 1293.695,654.353 1293.758,659.158 1293.813,663.963 1293.861,668.768 1293.903,673.573 1293.937,678.378 1293.965,683.183 1293.986,687.988 1293.999,692.793 1294.006,697.598 1294.006,702.402 1293.999,707.207 1293.986,712.012 1293.965,716.817 1293.937,721.622 1293.903,726.427 1293.861,731.232 1293.813,736.037 1293.758,740.842 1293.695,745.647 1293.626,750.452 1293.55,755.257 1293.467,760.062 1293.377,764.867 1293.281,769.672 1293.177,774.477 1293.066,779.282 1292.949,784.087 1292.824,788.892 1292.693,793.697 1292.555,798.502 1292.41,803.307 1292.257,808.112 1292.098,812.917 1291.932,817.722 1291.76,822.527 1291.58,827.332 1291.393,832.137 1291.199,836.942 1290.999,841.747 1290.791,846.552 1290.577,851.357 1290.356,856.162 1290.127,860.967 1289.892,865.772 1289.65,870.577 1289.401,875.382 1289.145,880.187 1288.882,884.992 1288.612,889.797 1288.335,894.602 1288.051,899.407 1287.76,904.212 1287.462,909.017 1287.158,913.822 1286.846,918.627 1286.528,923.432 1286.202,928.237 1285.869,933.042 1285.53,937.847 " />
</g>
</g>
<g><title>element</title>
<polyline fill="none" stroke="#7f7fff" points="1796.579,144.444 1796.579,155.668 1796.579,166.891 1796.579,178.114 1796.579,189.338 1796.579,200.561 1796.579,211.785 1796.579,223.008 1796.579,234.231 1796.579,245.455 1796.579,256.678 1796.579,267.901 1796.579,279.125 1796.579,290.348 1796.579,301.571 1796.579,312.795 1796.579,324.018 1796.579,335.241 1796.579,346.465 1796.579,357.688 1796.579,368.911 1796.579,380.135 1796.579,391.358 1796.579,402.581 1796.579,413.805 1796.579,425.028 1796.579,436.251 1796.579,447.475 1796.579,458.698 1796.579,469.921 1796.579,481.145 1796.579,492.368 1796.579,503.591 1796.579,514.815 1796.579,526.038 1796.579,537.262 1796.579,548.485 1796.579,559.708 1796.579,570.932 1796.579,582.155 1796.579,593.378 1796.579,604.602 1796.579,615.825 1796.579,627.048 1796.579,638.272 1796.579,649.495 1796.579,660.718 1796.579,671.942 1796.579,683.165 1796.579,694.388 1796.579,705.612 1796.579,716.835 1796.579,728.058 1796.579,739.282 1796.579,750.505 1796.579,761.728 1796.579,772.952 1796.579,784.175 1796.579,795.398 1796.579,806.622 1796.579,817.845 1796.579,829.068 1796.579,840.292 1796.579,851.515 1796.579,862.738 1796.579,873.962 1796.579,885.185 1796.579,896.409 1796.579,907.632 1796.579,918.855 1796.579,930.079 1796.579,941.302 1796.579,952.525 1796.579,963.749 1796.579,974.972 1796.579,986.195 1796.579,997.419 1796.579,1008.642 1796.579,1019.865 1796.579,1031.089 1796.579,1042.312 1796.579,1053.535 1796.579,1064.759 1796.579,1075.982 1796.579,1087.205 1796.579,1098.429 1796.579,1109.652 1796.579,1120.875 1796.579,1132.099 1796.579,1143.322 1796.579,1154.545 1796.579,1165.769 1796.579,1176.992 1796.579,1188.215 1796.579,1199.439 1796.579,1210.662 1796.579,1221.886 1796.579,1233.109 1796.579,1244.332 1796.579,1255.556 " />
</g>
</svg>
