<?xml version="1.0" standalone="no"?>
<svg width="2400px" height="1400px" version="1.1" xmlns="http://www.w3.org/2000/svg"
>
    <rect x="0" y="0" width="2400" height="1400" fill="#ffffff"/>
    <defs>
        <g id="dot">
            <line x1="1" y1="1" x2="0" y2="0"/>
        </g>
        <g id="cross">
            <line x1="-3" y1="0" x2="3" y2="0"/>
            <line x1="0" y1="-3" x2="0" y2="3"/>
        </g>
        <g id="square">
            <line x1="-3" y1="-3" x2="-3" y2="3"/>
            <line x1="-3" y1="3" x2="3" y2="3"/>
            <line x1="3" y1="3" x2="3" y2="-3"/>
            <line x1="3" y1="-3" x2="-3" y2="-3"/>
        </g>
        <g id="round">
            <ellipse cx="0" cy="0" rx="3" ry="3" fill="none"/>
        </g>
        <g id="triangle">
            <line x1="0" y1="-3" x2="-3" y2="3"/>
            <line x1="-3" y1="3" x2="3" y2="3"/>
            <line x1="0" y1="-3" x2="3" y2="3"/>
        </g>
    </defs>
    <line x1="600.945" y1="700" x2="1799.055" y2="700" stroke="#7f7f7f"/>
    <g>
        <title>element</title>
        <g>
            <line x1="934.664" y1="521.508" x2="934.664" y2="343.017" stroke="#7f7fff"/>
            <line x1="934.664" y1="878.492" x2="934.664" y2="1056.983" stroke="#7f7fff"/>
        </g>
        <g>
            <polyline fill="none" stroke="#7f7fff"
                      points="679.179,402.353 675.829,408.366 672.567,414.38 669.392,420.393 666.303,426.406 663.298,432.419 660.376,438.432 657.535,444.445 654.775,450.458 652.093,456.471 649.49,462.484 646.963,468.497 644.512,474.51 642.135,480.523 639.833,486.536 637.603,492.549 635.445,498.562 633.359,504.575 631.343,510.589 629.396,516.602 627.519,522.615 625.71,528.628 623.969,534.641 622.295,540.654 620.687,546.667 619.146,552.68 617.67,558.693 616.258,564.706 614.912,570.719 613.629,576.732 612.41,582.745 611.255,588.758 610.162,594.771 609.132,600.784 608.164,606.798 607.257,612.811 606.413,618.824 605.63,624.837 604.908,630.85 604.247,636.863 603.647,642.876 603.107,648.889 602.628,654.902 602.208,660.915 601.849,666.928 601.55,672.941 601.311,678.954 601.132,684.967 601.012,690.98 600.953,696.993 600.953,703.007 601.012,709.02 601.132,715.033 601.311,721.046 601.55,727.059 601.849,733.072 602.208,739.085 602.628,745.098 603.107,751.111 603.647,757.124 604.247,763.137 604.908,769.15 605.63,775.163 606.413,781.176 607.257,787.189 608.164,793.202 609.132,799.216 610.162,805.229 611.255,811.242 612.41,817.255 613.629,823.268 614.912,829.281 616.258,835.294 617.67,841.307 619.146,847.32 620.687,853.333 622.295,859.346 623.969,865.359 625.71,871.372 627.519,877.385 629.396,883.398 631.343,889.411 633.359,895.425 635.445,901.438 637.603,907.451 639.833,913.464 642.135,919.477 644.512,925.49 646.963,931.503 649.49,937.516 652.093,943.529 654.775,949.542 657.535,955.555 660.376,961.568 663.298,967.581 666.303,973.594 669.392,979.607 672.567,985.62 675.829,991.634 679.179,997.647 "/>
            <line x1="679.179" y1="402.353" x2="687.869" y2="402.353" stroke="#7f7fff"/>
            <line x1="679.179" y1="997.647" x2="687.869" y2="997.647" stroke="#7f7fff"/>
            <polyline fill="none" stroke="#7f7fff"
                      points="687.869,402.353 687.116,408.366 686.378,414.38 685.656,420.393 684.949,426.406 684.258,432.419 683.583,438.432 682.923,444.445 682.278,450.458 681.649,456.471 681.036,462.484 680.438,468.497 679.856,474.51 679.289,480.523 678.737,486.536 678.201,492.549 677.68,498.562 677.175,504.575 676.685,510.589 676.211,516.602 675.752,522.615 675.308,528.628 674.88,534.641 674.467,540.654 674.069,546.667 673.687,552.68 673.32,558.693 672.969,564.706 672.633,570.719 672.312,576.732 672.006,582.745 671.716,588.758 671.441,594.771 671.181,600.784 670.937,606.798 670.708,612.811 670.494,618.824 670.296,624.837 670.113,630.85 669.945,636.863 669.792,642.876 669.655,648.889 669.533,654.902 669.426,660.915 669.334,666.928 669.258,672.941 669.197,678.954 669.151,684.967 669.121,690.98 669.106,696.993 669.106,703.007 669.121,709.02 669.151,715.033 669.197,721.046 669.258,727.059 669.334,733.072 669.426,739.085 669.533,745.098 669.655,751.111 669.792,757.124 669.945,763.137 670.113,769.15 670.296,775.163 670.494,781.176 670.708,787.189 670.937,793.202 671.181,799.216 671.441,805.229 671.716,811.242 672.006,817.255 672.312,823.268 672.633,829.281 672.969,835.294 673.32,841.307 673.687,847.32 674.069,853.333 674.467,859.346 674.88,865.359 675.308,871.372 675.752,877.385 676.211,883.398 676.685,889.411 677.175,895.425 677.68,901.438 678.201,907.451 678.737,913.464 679.289,919.477 679.856,925.49 680.438,931.503 681.036,937.516 681.649,943.529 682.278,949.542 682.923,955.555 683.583,961.568 684.258,967.581 684.949,973.594 685.656,979.607 686.378,985.62 687.116,991.634 687.869,997.647 "/>
        </g>
        <g>
            <polyline fill="none" stroke="#7f7fff"
                      points="783.584,433.989 778.54,439.363 773.684,444.737 769.008,450.111 764.502,455.485 760.16,460.859 755.973,466.233 751.937,471.607 748.044,476.981 744.29,482.355 740.67,487.729 737.18,493.103 733.814,498.477 730.57,503.851 727.444,509.225 724.433,514.599 721.533,519.972 718.742,525.346 716.057,530.72 713.476,536.094 710.996,541.468 708.615,546.842 706.332,552.216 704.144,557.59 702.049,562.964 700.047,568.338 698.135,573.712 696.312,579.086 694.577,584.46 692.928,589.834 691.365,595.208 689.885,600.582 688.49,605.956 687.176,611.33 685.944,616.704 684.793,622.078 683.721,627.452 682.729,632.826 681.815,638.2 680.98,643.573 680.222,648.947 679.541,654.321 678.936,659.695 678.409,665.069 677.957,670.443 677.58,675.817 677.28,681.191 677.054,686.565 676.904,691.939 676.829,697.313 676.829,702.687 676.904,708.061 677.054,713.435 677.28,718.809 677.58,724.183 677.957,729.557 678.409,734.931 678.936,740.305 679.541,745.679 680.222,751.053 680.98,756.427 681.815,761.8 682.729,767.174 683.721,772.548 684.793,777.922 685.944,783.296 687.176,788.67 688.49,794.044 689.885,799.418 691.365,804.792 692.928,810.166 694.577,815.54 696.312,820.914 698.135,826.288 700.047,831.662 702.049,837.036 704.144,842.41 706.332,847.784 708.615,853.158 710.996,858.532 713.476,863.906 716.057,869.28 718.742,874.654 721.533,880.028 724.433,885.401 727.444,890.775 730.57,896.149 733.814,901.523 737.18,906.897 740.67,912.271 744.29,917.645 748.044,923.019 751.937,928.393 755.973,933.767 760.16,939.141 764.502,944.515 769.008,949.889 773.684,955.263 778.54,960.637 783.584,966.011 "/>
            <line x1="783.584" y1="433.989" x2="825.748" y2="433.989" stroke="#7f7fff"/>
            <line x1="783.584" y1="966.011" x2="825.748" y2="966.011" stroke="#7f7fff"/>
            <polyline fill="none" stroke="#7f7fff"
                      points="825.748,433.989 823.365,439.363 821.039,444.737 818.77,450.111 816.558,455.485 814.402,460.859 812.301,466.233 810.255,471.607 808.263,476.981 806.325,482.355 804.44,487.729 802.608,493.103 800.827,498.477 799.099,503.851 797.422,509.225 795.796,514.599 794.22,519.972 792.695,525.346 791.219,530.72 789.793,536.094 788.416,541.468 787.087,546.842 785.807,552.216 784.576,557.59 783.392,562.964 782.255,568.338 781.166,573.712 780.125,579.086 779.13,584.46 778.181,589.834 777.28,595.208 776.424,600.582 775.615,605.956 774.851,611.33 774.133,616.704 773.461,622.078 772.834,627.452 772.253,632.826 771.716,638.2 771.225,643.573 770.779,648.947 770.378,654.321 770.021,659.695 769.709,665.069 769.442,670.443 769.22,675.817 769.042,681.191 768.908,686.565 768.819,691.939 768.775,697.313 768.775,702.687 768.819,708.061 768.908,713.435 769.042,718.809 769.22,724.183 769.442,729.557 769.709,734.931 770.021,740.305 770.378,745.679 770.779,751.053 771.225,756.427 771.716,761.8 772.253,767.174 772.834,772.548 773.461,777.922 774.133,783.296 774.851,788.67 775.615,794.044 776.424,799.418 777.28,804.792 778.181,810.166 779.13,815.54 780.125,820.914 781.166,826.288 782.255,831.662 783.392,837.036 784.576,842.41 785.807,847.784 787.087,853.158 788.416,858.532 789.793,863.906 791.219,869.28 792.695,874.654 794.22,880.028 795.796,885.401 797.422,890.775 799.099,896.149 800.827,901.523 802.608,906.897 804.44,912.271 806.325,917.645 808.263,923.019 810.255,928.393 812.301,933.767 814.402,939.141 816.558,944.515 818.77,949.889 821.039,955.263 823.365,960.637 825.748,966.011 "/>
        </g>
        <g>
            <polyline fill="none" stroke="#7f7fff"
                      points="830.145,467.168 828.686,471.872 827.259,476.576 825.865,481.279 824.504,485.983 823.174,490.687 821.876,495.39 820.61,500.094 819.375,504.798 818.171,509.501 816.999,514.205 815.858,518.909 814.748,523.612 813.668,528.316 812.619,533.02 811.601,537.723 810.613,542.427 809.655,547.131 808.728,551.834 807.83,556.538 806.963,561.242 806.125,565.945 805.317,570.649 804.539,575.353 803.79,580.056 803.071,584.76 802.381,589.464 801.721,594.167 801.09,598.871 800.488,603.575 799.915,608.278 799.371,612.982 798.856,617.686 798.37,622.389 797.913,627.093 797.485,631.797 797.085,636.5 796.714,641.204 796.372,645.908 796.059,650.611 795.774,655.315 795.517,660.019 795.29,664.722 795.09,669.426 794.92,674.13 794.777,678.833 794.664,683.537 794.578,688.241 794.521,692.944 794.493,697.648 794.493,702.352 794.521,707.056 794.578,711.759 794.664,716.463 794.777,721.167 794.92,725.87 795.09,730.574 795.29,735.278 795.517,739.981 795.774,744.685 796.059,749.389 796.372,754.092 796.714,758.796 797.085,763.5 797.485,768.203 797.913,772.907 798.37,777.611 798.856,782.314 799.371,787.018 799.915,791.722 800.488,796.425 801.09,801.129 801.721,805.833 802.381,810.536 803.071,815.24 803.79,819.944 804.539,824.647 805.317,829.351 806.125,834.055 806.963,838.758 807.83,843.462 808.728,848.166 809.655,852.869 810.613,857.573 811.601,862.277 812.619,866.98 813.668,871.684 814.748,876.388 815.858,881.091 816.999,885.795 818.171,890.499 819.375,895.202 820.61,899.906 821.876,904.61 823.174,909.313 824.504,914.017 825.865,918.721 827.259,923.424 828.686,928.128 830.145,932.832 "/>
            <line x1="908.187" y1="467.168" x2="908.187" y2="510.764" stroke="#7f7fff"/>
            <line x1="830.145" y1="467.168" x2="908.187" y2="467.168" stroke="#7f7fff"/>
            <line x1="908.187" y1="932.832" x2="908.187" y2="889.236" stroke="#7f7fff"/>
            <line x1="830.145" y1="932.832" x2="908.187" y2="932.832" stroke="#7f7fff"/>
            <polyline fill="none" stroke="#7f7fff"
                      points="908.187,510.764 902.674,514.587 897.487,518.41 892.591,522.233 887.956,526.056 883.559,529.879 879.38,533.702 875.401,537.525 871.608,541.348 867.988,545.17 864.531,548.993 861.225,552.816 858.064,556.639 855.04,560.462 852.145,564.285 849.373,568.108 846.72,571.931 844.18,575.754 841.749,579.577 839.423,583.4 837.197,587.223 835.07,591.046 833.036,594.869 831.095,598.692 829.243,602.515 827.478,606.338 825.797,610.161 824.199,613.984 822.681,617.807 821.243,621.629 819.882,625.452 818.597,629.275 817.387,633.098 816.25,636.921 815.185,640.744 814.191,644.567 813.268,648.39 812.414,652.213 811.629,656.036 810.911,659.859 810.261,663.682 809.677,667.505 809.16,671.328 808.708,675.151 808.321,678.974 808,682.797 807.743,686.62 807.55,690.443 807.422,694.266 807.358,698.089 807.358,701.911 807.422,705.734 807.55,709.557 807.743,713.38 808,717.203 808.321,721.026 808.708,724.849 809.16,728.672 809.677,732.495 810.261,736.318 810.911,740.141 811.629,743.964 812.414,747.787 813.268,751.61 814.191,755.433 815.185,759.256 816.25,763.079 817.387,766.902 818.597,770.725 819.882,774.548 821.243,778.371 822.681,782.193 824.199,786.016 825.797,789.839 827.478,793.662 829.243,797.485 831.095,801.308 833.036,805.131 835.07,808.954 837.197,812.777 839.423,816.6 841.749,820.423 844.18,824.246 846.72,828.069 849.373,831.892 852.145,835.715 855.04,839.538 858.064,843.361 861.225,847.184 864.531,851.007 867.988,854.83 871.608,858.652 875.401,862.475 879.38,866.298 883.559,870.121 887.956,873.944 892.591,877.767 897.487,881.59 902.674,885.413 908.187,889.236 "/>
        </g>
        <g>
            <polyline fill="none" stroke="#7f7fff"
                      points="953.117,517.451 958.086,521.139 962.784,524.827 967.238,528.515 971.47,532.203 975.496,535.89 979.334,539.578 982.997,543.266 986.496,546.954 989.841,550.642 993.042,554.33 996.107,558.018 999.042,561.705 1001.854,565.393 1004.549,569.081 1007.131,572.769 1009.605,576.457 1011.976,580.145 1014.247,583.833 1016.423,587.52 1018.505,591.208 1020.496,594.896 1022.401,598.584 1024.22,602.272 1025.957,605.96 1027.614,609.648 1029.191,613.335 1030.692,617.023 1032.117,620.711 1033.469,624.399 1034.748,628.087 1035.956,631.775 1037.095,635.463 1038.165,639.15 1039.167,642.838 1040.102,646.526 1040.971,650.214 1041.775,653.902 1042.515,657.59 1043.191,661.278 1043.803,664.965 1044.353,668.653 1044.841,672.341 1045.267,676.029 1045.631,679.717 1045.934,683.405 1046.177,687.093 1046.358,690.78 1046.479,694.468 1046.54,698.156 1046.54,701.844 1046.479,705.532 1046.358,709.22 1046.177,712.907 1045.934,716.595 1045.631,720.283 1045.267,723.971 1044.841,727.659 1044.353,731.347 1043.803,735.035 1043.191,738.722 1042.515,742.41 1041.775,746.098 1040.971,749.786 1040.102,753.474 1039.167,757.162 1038.165,760.85 1037.095,764.537 1035.956,768.225 1034.748,771.913 1033.469,775.601 1032.117,779.289 1030.692,782.977 1029.191,786.665 1027.614,790.352 1025.957,794.04 1024.22,797.728 1022.401,801.416 1020.496,805.104 1018.505,808.792 1016.423,812.48 1014.247,816.167 1011.976,819.855 1009.605,823.543 1007.131,827.231 1004.549,830.919 1001.854,834.607 999.042,838.295 996.107,841.982 993.042,845.67 989.841,849.358 986.496,853.046 982.997,856.734 979.334,860.422 975.496,864.11 971.47,867.797 967.238,871.485 962.784,875.173 958.086,878.861 953.117,882.549 "/>
            <line x1="953.117" y1="449.807" x2="953.117" y2="517.451" stroke="#7f7fff"/>
            <line x1="953.117" y1="449.807" x2="1065.699" y2="449.807" stroke="#7f7fff"/>
            <line x1="953.117" y1="950.193" x2="953.117" y2="882.549" stroke="#7f7fff"/>
            <line x1="953.117" y1="950.193" x2="1065.699" y2="950.193" stroke="#7f7fff"/>
            <polyline fill="none" stroke="#7f7fff"
                      points="1065.699,449.807 1065.602,454.862 1065.506,459.916 1065.413,464.97 1065.322,470.025 1065.232,475.079 1065.145,480.134 1065.059,485.188 1064.976,490.242 1064.894,495.297 1064.815,500.351 1064.738,505.406 1064.662,510.46 1064.589,515.514 1064.517,520.569 1064.447,525.623 1064.38,530.678 1064.314,535.732 1064.251,540.786 1064.189,545.841 1064.13,550.895 1064.072,555.95 1064.016,561.004 1063.963,566.058 1063.911,571.113 1063.861,576.167 1063.814,581.222 1063.768,586.276 1063.724,591.33 1063.683,596.385 1063.643,601.439 1063.605,606.494 1063.569,611.548 1063.536,616.602 1063.504,621.657 1063.474,626.711 1063.446,631.766 1063.42,636.82 1063.397,641.874 1063.375,646.929 1063.355,651.983 1063.337,657.038 1063.321,662.092 1063.307,667.146 1063.295,672.201 1063.285,677.255 1063.277,682.31 1063.271,687.364 1063.267,692.418 1063.265,697.473 1063.265,702.527 1063.267,707.582 1063.271,712.636 1063.277,717.69 1063.285,722.745 1063.295,727.799 1063.307,732.854 1063.321,737.908 1063.337,742.962 1063.355,748.017 1063.375,753.071 1063.397,758.126 1063.42,763.18 1063.446,768.234 1063.474,773.289 1063.504,778.343 1063.536,783.398 1063.569,788.452 1063.605,793.506 1063.643,798.561 1063.683,803.615 1063.724,808.67 1063.768,813.724 1063.814,818.778 1063.861,823.833 1063.911,828.887 1063.963,833.942 1064.016,838.996 1064.072,844.05 1064.13,849.105 1064.189,854.159 1064.251,859.214 1064.314,864.268 1064.38,869.322 1064.447,874.377 1064.517,879.431 1064.589,884.486 1064.662,889.54 1064.738,894.594 1064.815,899.649 1064.894,904.703 1064.976,909.758 1065.059,914.812 1065.145,919.866 1065.232,924.921 1065.322,929.975 1065.413,935.03 1065.506,940.084 1065.602,945.138 1065.699,950.193 "/>
            <line x1="1065.699" y1="449.807" x2="1070.815" y2="449.807" stroke="#7f7fff"/>
            <line x1="1065.699" y1="950.193" x2="1070.815" y2="950.193" stroke="#7f7fff"/>
            <polyline fill="none" stroke="#7f7fff"
                      points="1070.815,449.807 1075.605,454.862 1080.214,459.916 1084.651,464.97 1088.926,470.025 1093.044,475.079 1097.014,480.134 1100.84,485.188 1104.53,490.242 1108.087,495.297 1111.516,500.351 1114.823,505.406 1118.01,510.46 1121.082,515.514 1124.042,520.569 1126.893,525.623 1129.638,530.678 1132.28,535.732 1134.822,540.786 1137.264,545.841 1139.611,550.895 1141.864,555.95 1144.024,561.004 1146.094,566.058 1148.076,571.113 1149.97,576.167 1151.778,581.222 1153.503,586.276 1155.144,591.33 1156.703,596.385 1158.181,601.439 1159.58,606.494 1160.9,611.548 1162.142,616.602 1163.307,621.657 1164.396,626.711 1165.409,631.766 1166.347,636.82 1167.21,641.874 1168,646.929 1168.717,651.983 1169.361,657.038 1169.932,662.092 1170.431,667.146 1170.858,672.201 1171.214,677.255 1171.498,682.31 1171.711,687.364 1171.853,692.418 1171.924,697.473 1171.924,702.527 1171.853,707.582 1171.711,712.636 1171.498,717.69 1171.214,722.745 1170.858,727.799 1170.431,732.854 1169.932,737.908 1169.361,742.962 1168.717,748.017 1168,753.071 1167.21,758.126 1166.347,763.18 1165.409,768.234 1164.396,773.289 1163.307,778.343 1162.142,783.398 1160.9,788.452 1159.58,793.506 1158.181,798.561 1156.703,803.615 1155.144,808.67 1153.503,813.724 1151.778,818.778 1149.97,823.833 1148.076,828.887 1146.094,833.942 1144.024,838.996 1141.864,844.05 1139.611,849.105 1137.264,854.159 1134.822,859.214 1132.28,864.268 1129.638,869.322 1126.893,874.377 1124.042,879.431 1121.082,884.486 1118.01,889.54 1114.823,894.594 1111.516,899.649 1108.087,904.703 1104.53,909.758 1100.84,914.812 1097.014,919.866 1093.044,924.921 1088.926,929.975 1084.651,935.03 1080.214,940.084 1075.605,945.138 1070.815,950.193 "/>
        </g>
        <g>
            <polyline fill="none" stroke="#7f7fff"
                      points="1153.072,429.488 1153.882,434.953 1154.675,440.418 1155.451,445.883 1156.211,451.348 1156.954,456.813 1157.68,462.277 1158.389,467.742 1159.081,473.207 1159.757,478.672 1160.416,484.137 1161.058,489.602 1161.683,495.067 1162.292,500.532 1162.884,505.997 1163.46,511.461 1164.019,516.926 1164.561,522.391 1165.087,527.856 1165.596,533.321 1166.089,538.786 1166.565,544.251 1167.024,549.716 1167.467,555.181 1167.894,560.645 1168.304,566.11 1168.697,571.575 1169.075,577.04 1169.435,582.505 1169.779,587.97 1170.107,593.435 1170.418,598.9 1170.713,604.365 1170.991,609.829 1171.253,615.294 1171.499,620.759 1171.728,626.224 1171.941,631.689 1172.137,637.154 1172.317,642.619 1172.481,648.084 1172.628,653.548 1172.759,659.013 1172.873,664.478 1172.972,669.943 1173.053,675.408 1173.119,680.873 1173.168,686.338 1173.2,691.803 1173.217,697.268 1173.217,702.732 1173.2,708.197 1173.168,713.662 1173.119,719.127 1173.053,724.592 1172.972,730.057 1172.873,735.522 1172.759,740.987 1172.628,746.452 1172.481,751.916 1172.317,757.381 1172.137,762.846 1171.941,768.311 1171.728,773.776 1171.499,779.241 1171.253,784.706 1170.991,790.171 1170.713,795.635 1170.418,801.1 1170.107,806.565 1169.779,812.03 1169.435,817.495 1169.075,822.96 1168.697,828.425 1168.304,833.89 1167.894,839.355 1167.467,844.819 1167.024,850.284 1166.565,855.749 1166.089,861.214 1165.596,866.679 1165.087,872.144 1164.561,877.609 1164.019,883.074 1163.46,888.539 1162.884,894.003 1162.292,899.468 1161.683,904.933 1161.058,910.398 1160.416,915.863 1159.757,921.328 1159.081,926.793 1158.389,932.258 1157.68,937.723 1156.954,943.187 1156.211,948.652 1155.451,954.117 1154.675,959.582 1153.882,965.047 1153.072,970.512 "/>
            <line x1="1153.072" y1="429.488" x2="1173.235" y2="429.488" stroke="#7f7fff"/>
            <line x1="1153.072" y1="970.512" x2="1173.235" y2="970.512" stroke="#7f7fff"/>
            <polyline fill="none" stroke="#7f7fff"
                      points="1173.235,429.488 1177.12,434.953 1180.887,440.418 1184.54,445.883 1188.082,451.348 1191.516,456.813 1194.846,462.277 1198.072,467.742 1201.199,473.207 1204.228,478.672 1207.162,484.137 1210.002,489.602 1212.75,495.067 1215.409,500.532 1217.98,505.997 1220.464,511.461 1222.864,516.926 1225.18,522.391 1227.414,527.856 1229.567,533.321 1231.64,538.786 1233.635,544.251 1235.552,549.716 1237.393,555.181 1239.159,560.645 1240.85,566.11 1242.467,571.575 1244.011,577.04 1245.484,582.505 1246.884,587.97 1248.215,593.435 1249.474,598.9 1250.665,604.365 1251.786,609.829 1252.839,615.294 1253.824,620.759 1254.741,626.224 1255.591,631.689 1256.375,637.154 1257.092,642.619 1257.742,648.084 1258.327,653.548 1258.847,659.013 1259.3,664.478 1259.689,669.943 1260.013,675.408 1260.271,680.873 1260.465,686.338 1260.595,691.803 1260.659,697.268 1260.659,702.732 1260.595,708.197 1260.465,713.662 1260.271,719.127 1260.013,724.592 1259.689,730.057 1259.3,735.522 1258.847,740.987 1258.327,746.452 1257.742,751.916 1257.092,757.381 1256.375,762.846 1255.591,768.311 1254.741,773.776 1253.824,779.241 1252.839,784.706 1251.786,790.171 1250.665,795.635 1249.474,801.1 1248.215,806.565 1246.884,812.03 1245.484,817.495 1244.011,822.96 1242.467,828.425 1240.85,833.89 1239.159,839.355 1237.393,844.819 1235.552,850.284 1233.635,855.749 1231.64,861.214 1229.567,866.679 1227.414,872.144 1225.18,877.609 1222.864,883.074 1220.464,888.539 1217.98,894.003 1215.409,899.468 1212.75,904.933 1210.002,910.398 1207.162,915.863 1204.228,921.328 1201.199,926.793 1198.072,932.258 1194.846,937.723 1191.516,943.187 1188.082,948.652 1184.54,954.117 1180.887,959.582 1177.12,965.047 1173.235,970.512 "/>
        </g>
        <g>
            <polyline fill="none" stroke="#7f7fff"
                      points="1293.328,453.215 1292.275,458.201 1291.246,463.186 1290.238,468.172 1289.253,473.157 1288.29,478.143 1287.35,483.128 1286.431,488.114 1285.535,493.099 1284.66,498.085 1283.808,503.071 1282.977,508.056 1282.168,513.042 1281.381,518.027 1280.616,523.013 1279.873,527.998 1279.151,532.984 1278.451,537.969 1277.772,542.955 1277.116,547.941 1276.48,552.926 1275.866,557.912 1275.274,562.897 1274.703,567.883 1274.153,572.868 1273.625,577.854 1273.119,582.839 1272.633,587.825 1272.169,592.811 1271.726,597.796 1271.304,602.782 1270.904,607.767 1270.525,612.753 1270.166,617.738 1269.83,622.724 1269.514,627.709 1269.219,632.695 1268.946,637.681 1268.693,642.666 1268.462,647.652 1268.252,652.637 1268.062,657.623 1267.894,662.608 1267.747,667.594 1267.621,672.579 1267.516,677.565 1267.432,682.551 1267.369,687.536 1267.327,692.522 1267.306,697.507 1267.306,702.493 1267.327,707.478 1267.369,712.464 1267.432,717.449 1267.516,722.435 1267.621,727.421 1267.747,732.406 1267.894,737.392 1268.062,742.377 1268.252,747.363 1268.462,752.348 1268.693,757.334 1268.946,762.319 1269.219,767.305 1269.514,772.291 1269.83,777.276 1270.166,782.262 1270.525,787.247 1270.904,792.233 1271.304,797.218 1271.726,802.204 1272.169,807.189 1272.633,812.175 1273.119,817.161 1273.625,822.146 1274.153,827.132 1274.703,832.117 1275.274,837.103 1275.866,842.088 1276.48,847.074 1277.116,852.059 1277.772,857.045 1278.451,862.031 1279.151,867.016 1279.873,872.002 1280.616,876.987 1281.381,881.973 1282.168,886.958 1282.977,891.944 1283.808,896.929 1284.66,901.915 1285.535,906.901 1286.431,911.886 1287.35,916.872 1288.29,921.857 1289.253,926.843 1290.238,931.828 1291.246,936.814 1292.275,941.799 1293.328,946.785 "/>
            <line x1="1293.328" y1="453.215" x2="1301.209" y2="453.215" stroke="#7f7fff"/>
            <line x1="1293.328" y1="946.785" x2="1301.209" y2="946.785" stroke="#7f7fff"/>
            <polyline fill="none" stroke="#7f7fff"
                      points="1301.209,453.215 1301.551,458.201 1301.885,463.186 1302.213,468.172 1302.534,473.157 1302.847,478.143 1303.154,483.128 1303.454,488.114 1303.746,493.099 1304.032,498.085 1304.311,503.071 1304.582,508.056 1304.847,513.042 1305.105,518.027 1305.356,523.013 1305.599,527.998 1305.836,532.984 1306.066,537.969 1306.289,542.955 1306.505,547.941 1306.713,552.926 1306.915,557.912 1307.11,562.897 1307.298,567.883 1307.479,572.868 1307.653,577.854 1307.82,582.839 1307.98,587.825 1308.133,592.811 1308.28,597.796 1308.419,602.782 1308.551,607.767 1308.676,612.753 1308.794,617.738 1308.906,622.724 1309.01,627.709 1309.108,632.695 1309.198,637.681 1309.282,642.666 1309.358,647.652 1309.428,652.637 1309.49,657.623 1309.546,662.608 1309.595,667.594 1309.636,672.579 1309.671,677.565 1309.699,682.551 1309.72,687.536 1309.734,692.522 1309.741,697.507 1309.741,702.493 1309.734,707.478 1309.72,712.464 1309.699,717.449 1309.671,722.435 1309.636,727.421 1309.595,732.406 1309.546,737.392 1309.49,742.377 1309.428,747.363 1309.358,752.348 1309.282,757.334 1309.198,762.319 1309.108,767.305 1309.01,772.291 1308.906,777.276 1308.794,782.262 1308.676,787.247 1308.551,792.233 1308.419,797.218 1308.28,802.204 1308.133,807.189 1307.98,812.175 1307.82,817.161 1307.653,822.146 1307.479,827.132 1307.298,832.117 1307.11,837.103 1306.915,842.088 1306.713,847.074 1306.505,852.059 1306.289,857.045 1306.066,862.031 1305.836,867.016 1305.599,872.002 1305.356,876.987 1305.105,881.973 1304.847,886.958 1304.582,891.944 1304.311,896.929 1304.032,901.915 1303.746,906.901 1303.454,911.886 1303.154,916.872 1302.847,921.857 1302.534,926.843 1302.213,931.828 1301.885,936.814 1301.551,941.799 1301.209,946.785 "/>
        </g>
    </g>
    <g>
        <title>element</title>
        <polyline fill="none" stroke="#7f7fff"
                  points="1799.055,144.444 1799.055,155.668 1799.055,166.891 1799.055,178.114 1799.055,189.338 1799.055,200.561 1799.055,211.785 1799.055,223.008 1799.055,234.231 1799.055,245.455 1799.055,256.678 1799.055,267.901 1799.055,279.125 1799.055,290.348 1799.055,301.571 1799.055,312.795 1799.055,324.018 1799.055,335.241 1799.055,346.465 1799.055,357.688 1799.055,368.911 1799.055,380.135 1799.055,391.358 1799.055,402.581 1799.055,413.805 1799.055,425.028 1799.055,436.251 1799.055,447.475 1799.055,458.698 1799.055,469.921 1799.055,481.145 1799.055,492.368 1799.055,503.591 1799.055,514.815 1799.055,526.038 1799.055,537.262 1799.055,548.485 1799.055,559.708 1799.055,570.932 1799.055,582.155 1799.055,593.378 1799.055,604.602 1799.055,615.825 1799.055,627.048 1799.055,638.272 1799.055,649.495 1799.055,660.718 1799.055,671.942 1799.055,683.165 1799.055,694.388 1799.055,705.612 1799.055,716.835 1799.055,728.058 1799.055,739.282 1799.055,750.505 1799.055,761.728 1799.055,772.952 1799.055,784.175 1799.055,795.398 1799.055,806.622 1799.055,817.845 1799.055,829.068 1799.055,840.292 1799.055,851.515 1799.055,862.738 1799.055,873.962 1799.055,885.185 1799.055,896.409 1799.055,907.632 1799.055,918.855 1799.055,930.079 1799.055,941.302 1799.055,952.525 1799.055,963.749 1799.055,974.972 1799.055,986.195 1799.055,997.419 1799.055,1008.642 1799.055,1019.865 1799.055,1031.089 1799.055,1042.312 1799.055,1053.535 1799.055,1064.759 1799.055,1075.982 1799.055,1087.205 1799.055,1098.429 1799.055,1109.652 1799.055,1120.875 1799.055,1132.099 1799.055,1143.322 1799.055,1154.545 1799.055,1165.769 1799.055,1176.992 1799.055,1188.215 1799.055,1199.439 1799.055,1210.662 1799.055,1221.886 1799.055,1233.109 1799.055,1244.332 1799.055,1255.556 "/>
    </g>
</svg>
