<?xml version="1.0" standalone="no"?>
<svg width="2400px" height="1400px" version="1.1" xmlns="http://www.w3.org/2000/svg" xmlns:xlink="http://www.w3.org/1999/xlink">
<rect x="0" y="0" width="2400" height="1400"  fill="#ffffff" />
<defs>
<g id="dot">
<line x1="1" y1="1" x2="0" y2="0"  />
</g>
<g id="cross">
<line x1="-3" y1="0" x2="3" y2="0"  />
<line x1="0" y1="-3" x2="0" y2="3"  />
</g>
<g id="square">
<line x1="-3" y1="-3" x2="-3" y2="3"  />
<line x1="-3" y1="3" x2="3" y2="3"  />
<line x1="3" y1="3" x2="3" y2="-3"  />
<line x1="3" y1="-3" x2="-3" y2="-3"  />
</g>
<g id="round">
<ellipse cx="0" cy="0" rx="3" ry="3"  fill="none" /></g>
<g id="triangle">
<line x1="0" y1="-3" x2="-3" y2="3"  />
<line x1="-3" y1="3" x2="3" y2="3"  />
<line x1="0" y1="-3" x2="3" y2="3"  />
</g>
</defs>
<line x1="586.938" y1="700" x2="1813.062" y2="700"  stroke="#7f7f7f" />
<g><title>element</title>
<g>
<line x1="970.898" y1="499.58" x2="970.898" y2="299.161"  stroke="#7f7fff" />
<line x1="970.898" y1="900.42" x2="970.898" y2="1100.839"  stroke="#7f7fff" />
</g>
<g>
<polyline fill="none" stroke="#7f7fff" points="639.288,375.963 637.14,382.51 635.041,389.056 632.99,395.602 630.987,402.148 629.031,408.694 627.122,415.241 625.261,421.787 623.446,428.333 621.677,434.879 619.955,441.425 618.278,447.972 616.647,454.518 615.062,461.064 613.522,467.61 612.027,474.156 610.576,480.702 609.171,487.249 607.81,493.795 606.493,500.341 605.22,506.887 603.992,513.433 602.807,519.98 601.665,526.526 600.567,533.072 599.513,539.618 598.502,546.164 597.533,552.711 596.608,559.257 595.726,565.803 594.886,572.349 594.089,578.895 593.334,585.442 592.622,591.988 591.952,598.534 591.325,605.08 590.74,611.626 590.196,618.173 589.695,624.719 589.236,631.265 588.819,637.811 588.443,644.357 588.11,650.904 587.818,657.45 587.568,663.996 587.359,670.542 587.193,677.088 587.068,683.635 586.985,690.181 586.943,696.727 586.943,703.273 586.985,709.819 587.068,716.365 587.193,722.912 587.359,729.458 587.568,736.004 587.818,742.55 588.11,749.096 588.443,755.643 588.819,762.189 589.236,768.735 589.695,775.281 590.196,781.827 590.74,788.374 591.325,794.92 591.952,801.466 592.622,808.012 593.334,814.558 594.089,821.105 594.886,827.651 595.726,834.197 596.608,840.743 597.533,847.289 598.502,853.836 599.513,860.382 600.567,866.928 601.665,873.474 602.807,880.02 603.992,886.567 605.22,893.113 606.493,899.659 607.81,906.205 609.171,912.751 610.576,919.298 612.027,925.844 613.522,932.39 615.062,938.936 616.647,945.482 618.278,952.028 619.955,958.575 621.677,965.121 623.446,971.667 625.261,978.213 627.122,984.759 629.031,991.306 630.987,997.852 632.99,1004.398 635.041,1010.944 637.14,1017.49 639.288,1024.037 " />
<line x1="639.288" y1="375.963" x2="677.331" y2="375.963"  stroke="#7f7fff" />
<line x1="639.288" y1="1024.037" x2="677.331" y2="1024.037"  stroke="#7f7fff" />
<polyline fill="none" stroke="#7f7fff" points="677.331,375.963 677.331,382.51 677.331,389.056 677.331,395.602 677.331,402.148 677.331,408.694 677.331,415.241 677.331,421.787 677.331,428.333 677.331,434.879 677.331,441.425 677.331,447.972 677.331,454.518 677.331,461.064 677.331,467.61 677.331,474.156 677.331,480.702 677.331,487.249 677.331,493.795 677.331,500.341 677.331,506.887 677.331,513.433 677.331,519.98 677.331,526.526 677.331,533.072 677.331,539.618 677.331,546.164 677.331,552.711 677.331,559.257 677.331,565.803 677.331,572.349 677.331,578.895 677.331,585.442 677.331,591.988 677.331,598.534 677.331,605.08 677.331,611.626 677.331,618.173 677.331,624.719 677.331,631.265 677.331,637.811 677.331,644.357 677.331,650.904 677.331,657.45 677.331,663.996 677.331,670.542 677.331,677.088 677.331,683.635 677.331,690.181 677.331,696.727 677.331,703.273 677.331,709.819 677.331,716.365 677.331,722.912 677.331,729.458 677.331,736.004 677.331,742.55 677.331,749.096 677.331,755.643 677.331,762.189 677.331,768.735 677.331,775.281 677.331,781.827 677.331,788.374 677.331,794.92 677.331,801.466 677.331,808.012 677.331,814.558 677.331,821.105 677.331,827.651 677.331,834.197 677.331,840.743 677.331,847.289 677.331,853.836 677.331,860.382 677.331,866.928 677.331,873.474 677.331,880.02 677.331,886.567 677.331,893.113 677.331,899.659 677.331,906.205 677.331,912.751 677.331,919.298 677.331,925.844 677.331,932.39 677.331,938.936 677.331,945.482 677.331,952.028 677.331,958.575 677.331,965.121 677.331,971.667 677.331,978.213 677.331,984.759 677.331,991.306 677.331,997.852 677.331,1004.398 677.331,1010.944 677.331,1017.49 677.331,1024.037 " />
</g>
<g>
<polyline fill="none" stroke="#7f7fff" points="789.445,412.261 784.352,418.074 779.439,423.887 774.697,429.7 770.12,435.513 765.701,441.326 761.434,447.139 757.314,452.952 753.335,458.764 749.493,464.577 745.784,470.39 742.203,476.203 738.747,482.016 735.412,487.829 732.196,493.642 729.095,499.455 726.106,505.268 723.228,511.081 720.456,516.894 717.79,522.706 715.227,528.519 712.765,534.332 710.402,540.145 708.137,545.958 705.967,551.771 703.892,557.584 701.91,563.397 700.019,569.21 698.219,575.023 696.508,580.835 694.884,586.648 693.348,592.461 691.898,598.274 690.533,604.087 689.252,609.9 688.055,615.713 686.94,621.526 685.908,627.339 684.958,633.152 684.088,638.965 683.299,644.777 682.59,650.59 681.961,656.403 681.412,662.216 680.941,668.029 680.549,673.842 680.236,679.655 680.001,685.468 679.845,691.281 679.767,697.094 679.767,702.906 679.845,708.719 680.001,714.532 680.236,720.345 680.549,726.158 680.941,731.971 681.412,737.784 681.961,743.597 682.59,749.41 683.299,755.223 684.088,761.035 684.958,766.848 685.908,772.661 686.94,778.474 688.055,784.287 689.252,790.1 690.533,795.913 691.898,801.726 693.348,807.539 694.884,813.352 696.508,819.165 698.219,824.977 700.019,830.79 701.91,836.603 703.892,842.416 705.967,848.229 708.137,854.042 710.402,859.855 712.765,865.668 715.227,871.481 717.79,877.294 720.456,883.106 723.228,888.919 726.106,894.732 729.095,900.545 732.196,906.358 735.412,912.171 738.747,917.984 742.203,923.797 745.784,929.61 749.493,935.423 753.335,941.236 757.314,947.048 761.434,952.861 765.701,958.674 770.12,964.487 774.697,970.3 779.439,976.113 784.352,981.926 789.445,987.739 " />
<line x1="789.445" y1="412.261" x2="851.825" y2="412.261"  stroke="#7f7fff" />
<line x1="789.445" y1="987.739" x2="851.825" y2="987.739"  stroke="#7f7fff" />
<polyline fill="none" stroke="#7f7fff" points="851.825,412.261 849.88,418.074 847.979,423.887 846.122,429.7 844.308,435.513 842.537,441.326 840.81,447.139 839.124,452.952 837.482,458.764 835.881,464.577 834.322,470.39 832.805,476.203 831.329,482.016 829.895,487.829 828.501,493.642 827.149,499.455 825.837,505.268 824.565,511.081 823.334,516.894 822.143,522.706 820.992,528.519 819.881,534.332 818.809,540.145 817.777,545.958 816.784,551.771 815.83,557.584 814.916,563.397 814.041,569.21 813.204,575.023 812.406,580.835 811.647,586.648 810.926,592.461 810.244,598.274 809.6,604.087 808.995,609.9 808.428,615.713 807.898,621.526 807.407,627.339 806.954,633.152 806.539,638.965 806.162,644.777 805.823,650.59 805.521,656.403 805.257,662.216 805.031,668.029 804.843,673.842 804.692,679.655 804.58,685.468 804.504,691.281 804.467,697.094 804.467,702.906 804.504,708.719 804.58,714.532 804.692,720.345 804.843,726.158 805.031,731.971 805.257,737.784 805.521,743.597 805.823,749.41 806.162,755.223 806.539,761.035 806.954,766.848 807.407,772.661 807.898,778.474 808.428,784.287 808.995,790.1 809.6,795.913 810.244,801.726 810.926,807.539 811.647,813.352 812.406,819.165 813.204,824.977 814.041,830.79 814.916,836.603 815.83,842.416 816.784,848.229 817.777,854.042 818.809,859.855 819.881,865.668 820.992,871.481 822.143,877.294 823.334,883.106 824.565,888.919 825.837,894.732 827.149,900.545 828.501,906.358 829.895,912.171 831.329,917.984 832.805,923.797 834.322,929.61 835.881,935.423 837.482,941.236 839.124,947.048 840.81,952.861 842.537,958.674 844.308,964.487 846.122,970.3 847.979,976.113 849.88,981.926 851.825,987.739 " />
</g>
<g>
<polyline fill="none" stroke="#7f7fff" points="845.16,429.353 844.285,434.82 843.428,440.288 842.589,445.756 841.768,451.223 840.966,456.691 840.182,462.159 839.416,467.626 838.668,473.094 837.938,478.561 837.227,484.029 836.533,489.497 835.858,494.964 835.2,500.432 834.561,505.899 833.94,511.367 833.336,516.835 832.751,522.302 832.183,527.77 831.633,533.238 831.102,538.705 830.588,544.173 830.092,549.64 829.614,555.108 829.154,560.576 828.711,566.043 828.286,571.511 827.88,576.979 827.49,582.446 827.119,587.914 826.766,593.381 826.43,598.849 826.112,604.317 825.811,609.784 825.529,615.252 825.264,620.72 825.017,626.187 824.787,631.655 824.575,637.122 824.381,642.59 824.205,648.058 824.046,653.525 823.905,658.993 823.781,664.46 823.675,669.928 823.587,675.396 823.516,680.863 823.463,686.331 823.428,691.799 823.411,697.266 823.411,702.734 823.428,708.201 823.463,713.669 823.516,719.137 823.587,724.604 823.675,730.072 823.781,735.54 823.905,741.007 824.046,746.475 824.205,751.942 824.381,757.41 824.575,762.878 824.787,768.345 825.017,773.813 825.264,779.28 825.529,784.748 825.811,790.216 826.112,795.683 826.43,801.151 826.766,806.619 827.119,812.086 827.49,817.554 827.88,823.021 828.286,828.489 828.711,833.957 829.154,839.424 829.614,844.892 830.092,850.36 830.588,855.827 831.102,861.295 831.633,866.762 832.183,872.23 832.751,877.698 833.336,883.165 833.94,888.633 834.561,894.101 835.2,899.568 835.858,905.036 836.533,910.503 837.227,915.971 837.938,921.439 838.668,926.906 839.416,932.374 840.182,937.841 840.966,943.309 841.768,948.777 842.589,954.244 843.428,959.712 844.285,965.18 845.16,970.647 " />
<line x1="948.987" y1="429.353" x2="948.987" y2="493.795"  stroke="#7f7fff" />
<line x1="845.16" y1="429.353" x2="948.987" y2="429.353"  stroke="#7f7fff" />
<line x1="948.987" y1="970.647" x2="948.987" y2="906.205"  stroke="#7f7fff" />
<line x1="845.16" y1="970.647" x2="948.987" y2="970.647"  stroke="#7f7fff" />
<polyline fill="none" stroke="#7f7fff" points="948.987,493.795 944.81,497.961 940.799,502.126 936.945,506.292 933.239,510.458 929.673,514.624 926.242,518.789 922.938,522.955 919.757,527.121 916.694,531.287 913.743,535.452 910.902,539.618 908.165,543.784 905.529,547.95 902.992,552.116 900.55,556.281 898.2,560.447 895.94,564.613 893.768,568.779 891.681,572.944 889.677,577.11 887.754,581.276 885.911,585.442 884.146,589.607 882.457,593.773 880.844,597.939 879.303,602.105 877.835,606.27 876.439,610.436 875.112,614.602 873.855,618.768 872.665,622.933 871.543,627.099 870.487,631.265 869.498,635.431 868.573,639.596 867.712,643.762 866.915,647.928 866.182,652.094 865.511,656.26 864.903,660.425 864.357,664.591 863.872,668.757 863.448,672.923 863.086,677.088 862.784,681.254 862.543,685.42 862.362,689.586 862.242,693.751 862.181,697.917 862.181,702.083 862.242,706.249 862.362,710.414 862.543,714.58 862.784,718.746 863.086,722.912 863.448,727.077 863.872,731.243 864.357,735.409 864.903,739.575 865.511,743.74 866.182,747.906 866.915,752.072 867.712,756.238 868.573,760.404 869.498,764.569 870.487,768.735 871.543,772.901 872.665,777.067 873.855,781.232 875.112,785.398 876.439,789.564 877.835,793.73 879.303,797.895 880.844,802.061 882.457,806.227 884.146,810.393 885.911,814.558 887.754,818.724 889.677,822.89 891.681,827.056 893.768,831.221 895.94,835.387 898.2,839.553 900.55,843.719 902.992,847.884 905.529,852.05 908.165,856.216 910.902,860.382 913.743,864.548 916.694,868.713 919.757,872.879 922.938,877.045 926.242,881.211 929.673,885.376 933.239,889.542 936.945,893.708 940.799,897.874 944.81,902.039 948.987,906.205 " />
</g>
<g>
<polyline fill="none" stroke="#7f7fff" points="993.466,498.181 997.156,502.258 1000.712,506.335 1004.141,510.413 1007.448,514.49 1010.638,518.567 1013.717,522.644 1016.687,526.721 1019.554,530.798 1022.32,534.875 1024.989,538.953 1027.565,543.03 1030.05,547.107 1032.446,551.184 1034.756,555.261 1036.983,559.338 1039.128,563.415 1041.193,567.493 1043.181,571.57 1045.092,575.647 1046.929,579.724 1048.694,583.801 1050.386,587.878 1052.009,591.956 1053.562,596.033 1055.048,600.11 1056.467,604.187 1057.82,608.264 1059.108,612.341 1060.332,616.418 1061.493,620.496 1062.592,624.573 1063.629,628.65 1064.605,632.727 1065.52,636.804 1066.376,640.881 1067.173,644.958 1067.91,649.036 1068.589,653.113 1069.211,657.19 1069.774,661.267 1070.281,665.344 1070.73,669.421 1071.123,673.499 1071.459,677.576 1071.739,681.653 1071.962,685.73 1072.13,689.807 1072.242,693.884 1072.297,697.961 1072.297,702.039 1072.242,706.116 1072.13,710.193 1071.962,714.27 1071.739,718.347 1071.459,722.424 1071.123,726.501 1070.73,730.579 1070.281,734.656 1069.774,738.733 1069.211,742.81 1068.589,746.887 1067.91,750.964 1067.173,755.042 1066.376,759.119 1065.52,763.196 1064.605,767.273 1063.629,771.35 1062.592,775.427 1061.493,779.504 1060.332,783.582 1059.108,787.659 1057.82,791.736 1056.467,795.813 1055.048,799.89 1053.562,803.967 1052.009,808.044 1050.386,812.122 1048.694,816.199 1046.929,820.276 1045.092,824.353 1043.181,828.43 1041.193,832.507 1039.128,836.585 1036.983,840.662 1034.756,844.739 1032.446,848.816 1030.05,852.893 1027.565,856.97 1024.989,861.047 1022.32,865.125 1019.554,869.202 1016.687,873.279 1013.717,877.356 1010.638,881.433 1007.448,885.51 1004.141,889.587 1000.712,893.665 997.156,897.742 993.466,901.819 " />
<line x1="993.466" y1="441.99" x2="993.466" y2="498.181"  stroke="#7f7fff" />
<line x1="993.466" y1="441.99" x2="1102.654" y2="441.99"  stroke="#7f7fff" />
<line x1="993.466" y1="958.01" x2="993.466" y2="901.819"  stroke="#7f7fff" />
<line x1="993.466" y1="958.01" x2="1102.654" y2="958.01"  stroke="#7f7fff" />
<polyline fill="none" stroke="#7f7fff" points="1102.654,441.99 1102.317,447.202 1101.988,452.415 1101.666,457.627 1101.35,462.839 1101.041,468.052 1100.739,473.264 1100.444,478.476 1100.156,483.689 1099.875,488.901 1099.601,494.113 1099.333,499.326 1099.073,504.538 1098.819,509.75 1098.572,514.963 1098.332,520.175 1098.099,525.387 1097.873,530.6 1097.654,535.812 1097.441,541.024 1097.236,546.237 1097.037,551.449 1096.845,556.661 1096.66,561.874 1096.482,567.086 1096.31,572.298 1096.146,577.51 1095.988,582.723 1095.838,587.935 1095.694,593.147 1095.557,598.36 1095.427,603.572 1095.303,608.784 1095.187,613.997 1095.077,619.209 1094.974,624.421 1094.879,629.634 1094.79,634.846 1094.707,640.058 1094.632,645.271 1094.564,650.483 1094.502,655.695 1094.447,660.908 1094.399,666.12 1094.358,671.332 1094.324,676.545 1094.296,681.757 1094.276,686.969 1094.262,692.182 1094.255,697.394 1094.255,702.606 1094.262,707.818 1094.276,713.031 1094.296,718.243 1094.324,723.455 1094.358,728.668 1094.399,733.88 1094.447,739.092 1094.502,744.305 1094.564,749.517 1094.632,754.729 1094.707,759.942 1094.79,765.154 1094.879,770.366 1094.974,775.579 1095.077,780.791 1095.187,786.003 1095.303,791.216 1095.427,796.428 1095.557,801.64 1095.694,806.853 1095.838,812.065 1095.988,817.277 1096.146,822.49 1096.31,827.702 1096.482,832.914 1096.66,838.126 1096.845,843.339 1097.037,848.551 1097.236,853.763 1097.441,858.976 1097.654,864.188 1097.873,869.4 1098.099,874.613 1098.332,879.825 1098.572,885.037 1098.819,890.25 1099.073,895.462 1099.333,900.674 1099.601,905.887 1099.875,911.099 1100.156,916.311 1100.444,921.524 1100.739,926.736 1101.041,931.948 1101.35,937.161 1101.666,942.373 1101.988,947.585 1102.317,952.798 1102.654,958.01 " />
<line x1="1102.654" y1="441.99" x2="1125.031" y2="441.99"  stroke="#7f7fff" />
<line x1="1102.654" y1="958.01" x2="1125.031" y2="958.01"  stroke="#7f7fff" />
<polyline fill="none" stroke="#7f7fff" points="1125.031,441.99 1128.23,447.202 1131.339,452.415 1134.362,457.627 1137.3,462.839 1140.154,468.052 1142.927,473.264 1145.619,478.476 1148.234,483.689 1150.77,488.901 1153.231,494.113 1155.618,499.326 1157.931,504.538 1160.171,509.75 1162.341,514.963 1164.44,520.175 1166.47,525.387 1168.432,530.6 1170.326,535.812 1172.154,541.024 1173.915,546.237 1175.612,551.449 1177.244,556.661 1178.813,561.874 1180.319,567.086 1181.762,572.298 1183.143,577.51 1184.463,582.723 1185.723,587.935 1186.921,593.147 1188.06,598.36 1189.14,603.572 1190.16,608.784 1191.122,613.997 1192.025,619.209 1192.871,624.421 1193.659,629.634 1194.389,634.846 1195.062,640.058 1195.678,645.271 1196.238,650.483 1196.741,655.695 1197.188,660.908 1197.578,666.12 1197.913,671.332 1198.191,676.545 1198.414,681.757 1198.581,686.969 1198.692,692.182 1198.748,697.394 1198.748,702.606 1198.692,707.818 1198.581,713.031 1198.414,718.243 1198.191,723.455 1197.913,728.668 1197.578,733.88 1197.188,739.092 1196.741,744.305 1196.238,749.517 1195.678,754.729 1195.062,759.942 1194.389,765.154 1193.659,770.366 1192.871,775.579 1192.025,780.791 1191.122,786.003 1190.16,791.216 1189.14,796.428 1188.06,801.64 1186.921,806.853 1185.723,812.065 1184.463,817.277 1183.143,822.49 1181.762,827.702 1180.319,832.914 1178.813,838.126 1177.244,843.339 1175.612,848.551 1173.915,853.763 1172.154,858.976 1170.326,864.188 1168.432,869.4 1166.47,874.613 1164.44,879.825 1162.341,885.037 1160.171,890.25 1157.931,895.462 1155.618,900.674 1153.231,905.887 1150.77,911.099 1148.234,916.311 1145.619,921.524 1142.927,926.736 1140.154,931.948 1137.3,937.161 1134.362,942.373 1131.339,947.585 1128.23,952.798 1125.031,958.01 " />
</g>
<g>
<polyline fill="none" stroke="#7f7fff" points="1194.016,446.483 1194.244,451.604 1194.467,456.726 1194.685,461.848 1194.899,466.969 1195.108,472.091 1195.312,477.212 1195.512,482.334 1195.707,487.455 1195.897,492.577 1196.083,497.698 1196.264,502.82 1196.441,507.942 1196.613,513.063 1196.78,518.185 1196.942,523.306 1197.1,528.428 1197.253,533.549 1197.402,538.671 1197.546,543.792 1197.685,548.914 1197.82,554.036 1197.95,559.157 1198.075,564.279 1198.196,569.4 1198.312,574.522 1198.423,579.643 1198.53,584.765 1198.632,589.886 1198.73,595.008 1198.822,600.13 1198.911,605.251 1198.994,610.373 1199.073,615.494 1199.147,620.616 1199.217,625.737 1199.282,630.859 1199.342,635.981 1199.398,641.102 1199.449,646.224 1199.495,651.345 1199.537,656.467 1199.574,661.588 1199.607,666.71 1199.635,671.831 1199.658,676.953 1199.676,682.075 1199.69,687.196 1199.7,692.318 1199.704,697.439 1199.704,702.561 1199.7,707.682 1199.69,712.804 1199.676,717.925 1199.658,723.047 1199.635,728.169 1199.607,733.29 1199.574,738.412 1199.537,743.533 1199.495,748.655 1199.449,753.776 1199.398,758.898 1199.342,764.019 1199.282,769.141 1199.217,774.263 1199.147,779.384 1199.073,784.506 1198.994,789.627 1198.911,794.749 1198.822,799.87 1198.73,804.992 1198.632,810.114 1198.53,815.235 1198.423,820.357 1198.312,825.478 1198.196,830.6 1198.075,835.721 1197.95,840.843 1197.82,845.964 1197.685,851.086 1197.546,856.208 1197.402,861.329 1197.253,866.451 1197.1,871.572 1196.942,876.694 1196.78,881.815 1196.613,886.937 1196.441,892.058 1196.264,897.18 1196.083,902.302 1195.897,907.423 1195.707,912.545 1195.512,917.666 1195.312,922.788 1195.108,927.909 1194.899,933.031 1194.685,938.152 1194.467,943.274 1194.244,948.396 1194.016,953.517 " />
<line x1="1194.016" y1="446.483" x2="1228.965" y2="446.483"  stroke="#7f7fff" />
<line x1="1194.016" y1="953.517" x2="1228.965" y2="953.517"  stroke="#7f7fff" />
<polyline fill="none" stroke="#7f7fff" points="1228.965,446.483 1230.947,451.604 1232.883,456.726 1234.774,461.848 1236.618,466.969 1238.418,472.091 1240.173,477.212 1241.884,482.334 1243.55,487.455 1245.173,492.577 1246.752,497.698 1248.289,502.82 1249.782,507.942 1251.233,513.063 1252.642,518.185 1254.009,523.306 1255.334,528.428 1256.617,533.549 1257.86,538.671 1259.061,543.792 1260.222,548.914 1261.342,554.036 1262.422,559.157 1263.461,564.279 1264.461,569.4 1265.42,574.522 1266.34,579.643 1267.221,584.765 1268.062,589.886 1268.864,595.008 1269.627,600.13 1270.351,605.251 1271.036,610.373 1271.683,615.494 1272.291,620.616 1272.86,625.737 1273.391,630.859 1273.884,635.981 1274.339,641.102 1274.755,646.224 1275.133,651.345 1275.474,656.467 1275.776,661.588 1276.041,666.71 1276.267,671.831 1276.456,676.953 1276.607,682.075 1276.72,687.196 1276.796,692.318 1276.833,697.439 1276.833,702.561 1276.796,707.682 1276.72,712.804 1276.607,717.925 1276.456,723.047 1276.267,728.169 1276.041,733.29 1275.776,738.412 1275.474,743.533 1275.133,748.655 1274.755,753.776 1274.339,758.898 1273.884,764.019 1273.391,769.141 1272.86,774.263 1272.291,779.384 1271.683,784.506 1271.036,789.627 1270.351,794.749 1269.627,799.87 1268.864,804.992 1268.062,810.114 1267.221,815.235 1266.34,820.357 1265.42,825.478 1264.461,830.6 1263.461,835.721 1262.422,840.843 1261.342,845.964 1260.222,851.086 1259.061,856.208 1257.86,861.329 1256.617,866.451 1255.334,871.572 1254.009,876.694 1252.642,881.815 1251.233,886.937 1249.782,892.058 1248.289,897.18 1246.752,902.302 1245.173,907.423 1243.55,912.545 1241.884,917.666 1240.173,922.788 1238.418,927.909 1236.618,933.031 1234.774,938.152 1232.883,943.274 1230.947,948.396 1228.965,953.517 " />
</g>
<g>
<polyline fill="none" stroke="#7f7fff" points="1289.214,454.345 1288.769,459.308 1288.334,464.271 1287.908,469.233 1287.491,474.196 1287.083,479.159 1286.684,484.121 1286.294,489.084 1285.914,494.047 1285.542,499.01 1285.18,503.972 1284.826,508.935 1284.482,513.898 1284.147,518.861 1283.821,523.823 1283.504,528.786 1283.197,533.749 1282.898,538.711 1282.608,543.674 1282.328,548.637 1282.056,553.6 1281.794,558.562 1281.54,563.525 1281.296,568.488 1281.061,573.451 1280.835,578.413 1280.618,583.376 1280.41,588.339 1280.211,593.301 1280.021,598.264 1279.84,603.227 1279.668,608.19 1279.506,613.152 1279.352,618.115 1279.207,623.078 1279.072,628.04 1278.945,633.003 1278.828,637.966 1278.719,642.929 1278.62,647.891 1278.53,652.854 1278.448,657.817 1278.376,662.78 1278.313,667.742 1278.258,672.705 1278.213,677.668 1278.177,682.63 1278.15,687.593 1278.132,692.556 1278.123,697.519 1278.123,702.481 1278.132,707.444 1278.15,712.407 1278.177,717.37 1278.213,722.332 1278.258,727.295 1278.313,732.258 1278.376,737.22 1278.448,742.183 1278.53,747.146 1278.62,752.109 1278.719,757.071 1278.828,762.034 1278.945,766.997 1279.072,771.96 1279.207,776.922 1279.352,781.885 1279.506,786.848 1279.668,791.81 1279.84,796.773 1280.021,801.736 1280.211,806.699 1280.41,811.661 1280.618,816.624 1280.835,821.587 1281.061,826.549 1281.296,831.512 1281.54,836.475 1281.794,841.438 1282.056,846.4 1282.328,851.363 1282.608,856.326 1282.898,861.289 1283.197,866.251 1283.504,871.214 1283.821,876.177 1284.147,881.139 1284.482,886.102 1284.826,891.065 1285.18,896.028 1285.542,900.99 1285.914,905.953 1286.294,910.916 1286.684,915.879 1287.083,920.841 1287.491,925.804 1287.908,930.767 1288.334,935.729 1288.769,940.692 1289.214,945.655 " />
<line x1="1289.214" y1="454.345" x2="1304.461" y2="454.345"  stroke="#7f7fff" />
<line x1="1289.214" y1="945.655" x2="1304.461" y2="945.655"  stroke="#7f7fff" />
<polyline fill="none" stroke="#7f7fff" points="1304.461,454.345 1305.415,459.308 1306.349,464.271 1307.263,469.233 1308.157,474.196 1309.03,479.159 1309.884,484.121 1310.718,489.084 1311.532,494.047 1312.326,499.01 1313.1,503.972 1313.855,508.935 1314.589,513.898 1315.304,518.861 1315.999,523.823 1316.675,528.786 1317.331,533.749 1317.967,538.711 1318.583,543.674 1319.181,548.637 1319.758,553.6 1320.316,558.562 1320.855,563.525 1321.374,568.488 1321.874,573.451 1322.354,578.413 1322.815,583.376 1323.257,588.339 1323.679,593.301 1324.082,598.264 1324.465,603.227 1324.83,608.19 1325.175,613.152 1325.501,618.115 1325.807,623.078 1326.094,628.04 1326.363,633.003 1326.611,637.966 1326.841,642.929 1327.052,647.891 1327.243,652.854 1327.415,657.817 1327.568,662.78 1327.702,667.742 1327.817,672.705 1327.913,677.668 1327.989,682.63 1328.047,687.593 1328.085,692.556 1328.104,697.519 1328.104,702.481 1328.085,707.444 1328.047,712.407 1327.989,717.37 1327.913,722.332 1327.817,727.295 1327.702,732.258 1327.568,737.22 1327.415,742.183 1327.243,747.146 1327.052,752.109 1326.841,757.071 1326.611,762.034 1326.363,766.997 1326.094,771.96 1325.807,776.922 1325.501,781.885 1325.175,786.848 1324.83,791.81 1324.465,796.773 1324.082,801.736 1323.679,806.699 1323.257,811.661 1322.815,816.624 1322.354,821.587 1321.874,826.549 1321.374,831.512 1320.855,836.475 1320.316,841.438 1319.758,846.4 1319.181,851.363 1318.583,856.326 1317.967,861.289 1317.331,866.251 1316.675,871.214 1315.999,876.177 1315.304,881.139 1314.589,886.102 1313.855,891.065 1313.1,896.028 1312.326,900.99 1311.532,905.953 1310.718,910.916 1309.884,915.879 1309.03,920.841 1308.157,925.804 1307.263,930.767 1306.349,935.729 1305.415,940.692 1304.461,945.655 " />
</g>
</g>
<g><title>element</title>
<polyline fill="none" stroke="#7f7fff" points="1813.062,144.444 1813.062,155.668 1813.062,166.891 1813.062,178.114 1813.062,189.338 1813.062,200.561 1813.062,211.785 1813.062,223.008 1813.062,234.231 1813.062,245.455 1813.062,256.678 1813.062,267.901 1813.062,279.125 1813.062,290.348 1813.062,301.571 1813.062,312.795 1813.062,324.018 1813.062,335.241 1813.062,346.465 1813.062,357.688 1813.062,368.911 1813.062,380.135 1813.062,391.358 1813.062,402.581 1813.062,413.805 1813.062,425.028 1813.062,436.251 1813.062,447.475 1813.062,458.698 1813.062,469.921 1813.062,481.145 1813.062,492.368 1813.062,503.591 1813.062,514.815 1813.062,526.038 1813.062,537.262 1813.062,548.485 1813.062,559.708 1813.062,570.932 1813.062,582.155 1813.062,593.378 1813.062,604.602 1813.062,615.825 1813.062,627.048 1813.062,638.272 1813.062,649.495 1813.062,660.718 1813.062,671.942 1813.062,683.165 1813.062,694.388 1813.062,705.612 1813.062,716.835 1813.062,728.058 1813.062,739.282 1813.062,750.505 1813.062,761.728 1813.062,772.952 1813.062,784.175 1813.062,795.398 1813.062,806.622 1813.062,817.845 1813.062,829.068 1813.062,840.292 1813.062,851.515 1813.062,862.738 1813.062,873.962 1813.062,885.185 1813.062,896.409 1813.062,907.632 1813.062,918.855 1813.062,930.079 1813.062,941.302 1813.062,952.525 1813.062,963.749 1813.062,974.972 1813.062,986.195 1813.062,997.419 1813.062,1008.642 1813.062,1019.865 1813.062,1031.089 1813.062,1042.312 1813.062,1053.535 1813.062,1064.759 1813.062,1075.982 1813.062,1087.205 1813.062,1098.429 1813.062,1109.652 1813.062,1120.875 1813.062,1132.099 1813.062,1143.322 1813.062,1154.545 1813.062,1165.769 1813.062,1176.992 1813.062,1188.215 1813.062,1199.439 1813.062,1210.662 1813.062,1221.886 1813.062,1233.109 1813.062,1244.332 1813.062,1255.556 " />
</g>
</svg>
