<?xml version="1.0" standalone="no"?>
<svg width="2400px" height="1400px" version="1.1" xmlns="http://www.w3.org/2000/svg" xmlns:xlink="http://www.w3.org/1999/xlink">
<rect x="0" y="0" width="2400" height="1400"  fill="#ffffff" />
<defs>
<g id="dot">
<line x1="1" y1="1" x2="0" y2="0"  />
</g>
<g id="cross">
<line x1="-3" y1="0" x2="3" y2="0"  />
<line x1="0" y1="-3" x2="0" y2="3"  />
</g>
<g id="square">
<line x1="-3" y1="-3" x2="-3" y2="3"  />
<line x1="-3" y1="3" x2="3" y2="3"  />
<line x1="3" y1="3" x2="3" y2="-3"  />
<line x1="3" y1="-3" x2="-3" y2="-3"  />
</g>
<g id="round">
<ellipse cx="0" cy="0" rx="3" ry="3"  fill="none" /></g>
<g id="triangle">
<line x1="0" y1="-3" x2="-3" y2="3"  />
<line x1="-3" y1="3" x2="3" y2="3"  />
<line x1="0" y1="-3" x2="3" y2="3"  />
</g>
</defs>
<line x1="301.044" y1="700" x2="2098.956" y2="700"  stroke="#7f7f7f" />
<g><title>element</title>
<g>
<line x1="1289.522" y1="492.63" x2="1289.522" y2="285.26"  stroke="#7f7fff" />
<line x1="1289.522" y1="907.37" x2="1289.522" y2="1114.74"  stroke="#7f7fff" />
</g>
<g>
<polyline fill="none" stroke="#7f7fff" points="327.486,324.364 326.423,331.953 325.382,339.542 324.364,347.13 323.368,354.719 322.393,362.307 321.441,369.896 320.511,377.485 319.602,385.073 318.716,392.662 317.851,400.25 317.008,407.839 316.187,415.428 315.388,423.016 314.611,430.605 313.856,438.193 313.122,445.782 312.41,453.371 311.72,460.959 311.052,468.548 310.405,476.136 309.78,483.725 309.177,491.314 308.596,498.902 308.036,506.491 307.497,514.079 306.981,521.668 306.486,529.257 306.012,536.845 305.561,544.434 305.13,552.022 304.722,559.611 304.335,567.2 303.969,574.788 303.625,582.377 303.303,589.965 303.002,597.554 302.722,605.143 302.465,612.731 302.228,620.32 302.013,627.908 301.82,635.497 301.648,643.086 301.498,650.674 301.369,658.263 301.262,665.851 301.176,673.44 301.111,681.029 301.068,688.617 301.047,696.206 301.047,703.794 301.068,711.383 301.111,718.971 301.176,726.56 301.262,734.149 301.369,741.737 301.498,749.326 301.648,756.914 301.82,764.503 302.013,772.092 302.228,779.68 302.465,787.269 302.722,794.857 303.002,802.446 303.303,810.035 303.625,817.623 303.969,825.212 304.335,832.8 304.722,840.389 305.13,847.978 305.561,855.566 306.012,863.155 306.486,870.743 306.981,878.332 307.497,885.921 308.036,893.509 308.596,901.098 309.177,908.686 309.78,916.275 310.405,923.864 311.052,931.452 311.72,939.041 312.41,946.629 313.122,954.218 313.856,961.807 314.611,969.395 315.388,976.984 316.187,984.572 317.008,992.161 317.851,999.75 318.716,1007.338 319.602,1014.927 320.511,1022.515 321.441,1030.104 322.393,1037.693 323.368,1045.281 324.364,1052.87 325.382,1060.458 326.423,1068.047 327.486,1075.636 " />
<line x1="429.128" y1="324.364" x2="429.128" y2="399.556"  stroke="#7f7fff" />
<line x1="327.486" y1="324.364" x2="429.128" y2="324.364"  stroke="#7f7fff" />
<line x1="429.128" y1="1075.636" x2="429.128" y2="1000.444"  stroke="#7f7fff" />
<line x1="327.486" y1="1075.636" x2="429.128" y2="1075.636"  stroke="#7f7fff" />
<polyline fill="none" stroke="#7f7fff" points="429.128,399.556 424.376,405.625 419.778,411.695 415.327,417.764 411.02,423.834 406.852,429.904 402.817,435.973 398.913,442.043 395.135,448.112 391.481,454.182 387.946,460.251 384.528,466.321 381.225,472.391 378.032,478.46 374.949,484.53 371.972,490.599 369.1,496.669 366.33,502.739 363.661,508.808 361.09,514.878 358.616,520.947 356.238,527.017 353.953,533.086 351.761,539.156 349.66,545.226 347.649,551.295 345.727,557.365 343.892,563.434 342.144,569.504 340.481,575.574 338.903,581.643 337.409,587.713 335.998,593.782 334.669,599.852 333.422,605.921 332.255,611.991 331.169,618.061 330.163,624.13 329.236,630.2 328.388,636.269 327.618,642.339 326.927,648.409 326.313,654.478 325.776,660.548 325.316,666.617 324.934,672.687 324.628,678.756 324.399,684.826 324.246,690.896 324.17,696.965 324.17,703.035 324.246,709.104 324.399,715.174 324.628,721.244 324.934,727.313 325.316,733.383 325.776,739.452 326.313,745.522 326.927,751.591 327.618,757.661 328.388,763.731 329.236,769.8 330.163,775.87 331.169,781.939 332.255,788.009 333.422,794.079 334.669,800.148 335.998,806.218 337.409,812.287 338.903,818.357 340.481,824.426 342.144,830.496 343.892,836.566 345.727,842.635 347.649,848.705 349.66,854.774 351.761,860.844 353.953,866.914 356.238,872.983 358.616,879.053 361.09,885.122 363.661,891.192 366.33,897.261 369.1,903.331 371.972,909.401 374.949,915.47 378.032,921.54 381.225,927.609 384.528,933.679 387.946,939.749 391.481,945.818 395.135,951.888 398.913,957.957 402.817,964.027 406.852,970.096 411.02,976.166 415.327,982.236 419.778,988.305 424.376,994.375 429.128,1000.444 " />
</g>
<g>
<polyline fill="none" stroke="#7f7fff" points="457.81,377.788 453.502,384.297 449.319,390.807 445.258,397.316 441.315,403.825 437.488,410.335 433.774,416.844 430.171,423.353 426.676,429.863 423.287,436.372 420.002,442.881 416.82,449.391 413.737,455.9 410.753,462.409 407.866,468.919 405.074,475.428 402.376,481.937 399.77,488.447 397.254,494.956 394.829,501.465 392.492,507.975 390.243,514.484 388.08,520.993 386.002,527.503 384.008,534.012 382.098,540.521 380.271,547.031 378.525,553.54 376.86,560.049 375.276,566.559 373.771,573.068 372.345,579.577 370.997,586.087 369.727,592.596 368.535,599.105 367.419,605.615 366.38,612.124 365.416,618.633 364.528,625.143 363.715,631.652 362.978,638.161 362.314,644.671 361.726,651.18 361.211,657.689 360.77,664.199 360.403,670.708 360.109,677.217 359.889,683.727 359.742,690.236 359.669,696.745 359.669,703.255 359.742,709.764 359.889,716.273 360.109,722.783 360.403,729.292 360.77,735.801 361.211,742.311 361.726,748.82 362.314,755.329 362.978,761.839 363.715,768.348 364.528,774.857 365.416,781.367 366.38,787.876 367.419,794.385 368.535,800.895 369.727,807.404 370.997,813.913 372.345,820.423 373.771,826.932 375.276,833.441 376.86,839.951 378.525,846.46 380.271,852.969 382.098,859.479 384.008,865.988 386.002,872.497 388.08,879.007 390.243,885.516 392.492,892.025 394.829,898.535 397.254,905.044 399.77,911.553 402.376,918.063 405.074,924.572 407.866,931.081 410.753,937.591 413.737,944.1 416.82,950.609 420.002,957.119 423.287,963.628 426.676,970.137 430.171,976.647 433.774,983.156 437.488,989.665 441.315,996.175 445.258,1002.684 449.319,1009.193 453.502,1015.703 457.81,1022.212 " />
<line x1="468.033" y1="377.788" x2="468.033" y2="410.664"  stroke="#7f7fff" />
<line x1="457.81" y1="377.788" x2="468.033" y2="377.788"  stroke="#7f7fff" />
<line x1="468.033" y1="1022.212" x2="468.033" y2="989.336"  stroke="#7f7fff" />
<line x1="457.81" y1="1022.212" x2="468.033" y2="1022.212"  stroke="#7f7fff" />
<polyline fill="none" stroke="#7f7fff" points="468.033,410.664 466.816,416.509 465.625,422.355 464.459,428.2 463.319,434.045 462.205,439.89 461.117,445.735 460.054,451.58 459.017,457.426 458.005,463.271 457.018,469.116 456.057,474.961 455.121,480.806 454.211,486.651 453.325,492.497 452.465,498.342 451.63,504.187 450.819,510.032 450.034,515.877 449.274,521.722 448.539,527.568 447.828,533.413 447.143,539.258 446.482,545.103 445.846,550.948 445.234,556.793 444.648,562.639 444.086,568.484 443.549,574.329 443.036,580.174 442.548,586.019 442.084,591.864 441.645,597.71 441.231,603.555 440.841,609.4 440.476,615.245 440.135,621.09 439.818,626.935 439.526,632.781 439.258,638.626 439.015,644.471 438.796,650.316 438.601,656.161 438.431,662.006 438.285,667.852 438.163,673.697 438.066,679.542 437.993,685.387 437.944,691.232 437.92,697.077 437.92,702.923 437.944,708.768 437.993,714.613 438.066,720.458 438.163,726.303 438.285,732.148 438.431,737.994 438.601,743.839 438.796,749.684 439.015,755.529 439.258,761.374 439.526,767.219 439.818,773.065 440.135,778.91 440.476,784.755 440.841,790.6 441.231,796.445 441.645,802.29 442.084,808.136 442.548,813.981 443.036,819.826 443.549,825.671 444.086,831.516 444.648,837.361 445.234,843.207 445.846,849.052 446.482,854.897 447.143,860.742 447.828,866.587 448.539,872.432 449.274,878.278 450.034,884.123 450.819,889.968 451.63,895.813 452.465,901.658 453.325,907.503 454.211,913.349 455.121,919.194 456.057,925.039 457.018,930.884 458.005,936.729 459.017,942.574 460.054,948.42 461.117,954.265 462.205,960.11 463.319,965.955 464.459,971.8 465.625,977.645 466.816,983.491 468.033,989.336 " />
</g>
<g>
<polyline fill="none" stroke="#7f7fff" points="486.512,395.639 485.059,401.787 483.584,407.936 482.097,414.085 480.607,420.234 479.123,426.382 477.651,432.531 476.195,438.68 474.761,444.828 473.352,450.977 471.971,457.126 470.619,463.275 469.299,469.423 468.011,475.572 466.756,481.721 465.536,487.869 464.349,494.018 463.197,500.167 462.079,506.316 460.995,512.464 459.945,518.613 458.929,524.762 457.947,530.91 456.998,537.059 456.083,543.208 455.201,549.357 454.353,555.505 453.538,561.654 452.755,567.803 452.007,573.951 451.291,580.1 450.609,586.249 449.961,592.398 449.347,598.546 448.767,604.695 448.221,610.844 447.71,616.992 447.234,623.141 446.793,629.29 446.388,635.439 446.018,641.587 445.685,647.736 445.388,653.885 445.127,660.033 444.904,666.182 444.717,672.331 444.567,678.48 444.455,684.628 444.38,690.777 444.343,696.926 444.343,703.074 444.38,709.223 444.455,715.372 444.567,721.52 444.717,727.669 444.904,733.818 445.127,739.967 445.388,746.115 445.685,752.264 446.018,758.413 446.388,764.561 446.793,770.71 447.234,776.859 447.71,783.008 448.221,789.156 448.767,795.305 449.347,801.454 449.961,807.602 450.609,813.751 451.291,819.9 452.007,826.049 452.755,832.197 453.538,838.346 454.353,844.495 455.201,850.643 456.083,856.792 456.998,862.941 457.947,869.09 458.929,875.238 459.945,881.387 460.995,887.536 462.079,893.684 463.197,899.833 464.349,905.982 465.536,912.131 466.756,918.279 468.011,924.428 469.299,930.577 470.619,936.725 471.971,942.874 473.352,949.023 474.761,955.172 476.195,961.32 477.651,967.469 479.123,973.618 480.607,979.766 482.097,985.915 483.584,992.064 485.059,998.213 486.512,1004.361 " />
<line x1="552.26" y1="395.639" x2="552.26" y2="447.521"  stroke="#7f7fff" />
<line x1="486.512" y1="395.639" x2="552.26" y2="395.639"  stroke="#7f7fff" />
<line x1="552.26" y1="1004.361" x2="552.26" y2="952.479"  stroke="#7f7fff" />
<line x1="486.512" y1="1004.361" x2="552.26" y2="1004.361"  stroke="#7f7fff" />
<polyline fill="none" stroke="#7f7fff" points="552.26,447.521 548.297,452.622 544.472,457.723 540.78,462.823 537.216,467.924 533.773,473.024 530.449,478.125 527.237,483.225 524.135,488.326 521.139,493.427 518.244,498.527 515.448,503.628 512.748,508.728 510.14,513.829 507.623,518.93 505.193,524.03 502.848,529.131 500.587,534.231 498.407,539.332 496.306,544.432 494.283,549.533 492.336,554.634 490.464,559.734 488.666,564.835 486.941,569.935 485.287,575.036 483.704,580.136 482.19,585.237 480.746,590.338 479.371,595.438 478.063,600.539 476.823,605.639 475.651,610.74 474.545,615.84 473.505,620.941 472.532,626.042 471.624,631.142 470.782,636.243 470.006,641.343 469.294,646.444 468.648,651.545 468.067,656.645 467.55,661.746 467.099,666.846 466.712,671.947 466.389,677.047 466.132,682.148 465.938,687.249 465.809,692.349 465.745,697.45 465.745,702.55 465.809,707.651 465.938,712.751 466.132,717.852 466.389,722.953 466.712,728.053 467.099,733.154 467.55,738.254 468.067,743.355 468.648,748.455 469.294,753.556 470.006,758.657 470.782,763.757 471.624,768.858 472.532,773.958 473.505,779.059 474.545,784.16 475.651,789.26 476.823,794.361 478.063,799.461 479.371,804.562 480.746,809.662 482.19,814.763 483.704,819.864 485.287,824.964 486.941,830.065 488.666,835.165 490.464,840.266 492.336,845.366 494.283,850.467 496.306,855.568 498.407,860.668 500.587,865.769 502.848,870.869 505.193,875.97 507.623,881.07 510.14,886.171 512.748,891.272 515.448,896.372 518.244,901.473 521.139,906.573 524.135,911.674 527.237,916.775 530.449,921.875 533.773,926.976 537.216,932.076 540.78,937.177 544.472,942.277 548.297,947.378 552.26,952.479 " />
</g>
<g>
<polyline fill="none" stroke="#7f7fff" points="558.135,448.998 559.572,454.069 560.977,459.14 562.35,464.211 563.692,469.281 565.003,474.352 566.283,479.423 567.532,484.493 568.75,489.564 569.938,494.635 571.095,499.706 572.222,504.776 573.318,509.847 574.385,514.918 575.421,519.989 576.427,525.059 577.404,530.13 578.351,535.201 579.268,540.272 580.155,545.342 581.014,550.413 581.842,555.484 582.642,560.555 583.412,565.625 584.153,570.696 584.865,575.767 585.548,580.838 586.202,585.908 586.827,590.979 587.424,596.05 587.991,601.121 588.53,606.191 589.041,611.262 589.522,616.333 589.975,621.404 590.4,626.474 590.796,631.545 591.163,636.616 591.503,641.686 591.813,646.757 592.096,651.828 592.35,656.899 592.576,661.969 592.774,667.04 592.943,672.111 593.084,677.182 593.197,682.252 593.281,687.323 593.338,692.394 593.366,697.465 593.366,702.535 593.338,707.606 593.281,712.677 593.197,717.748 593.084,722.818 592.943,727.889 592.774,732.96 592.576,738.031 592.35,743.101 592.096,748.172 591.813,753.243 591.503,758.314 591.163,763.384 590.796,768.455 590.4,773.526 589.975,778.596 589.522,783.667 589.041,788.738 588.53,793.809 587.991,798.879 587.424,803.95 586.827,809.021 586.202,814.092 585.548,819.162 584.865,824.233 584.153,829.304 583.412,834.375 582.642,839.445 581.842,844.516 581.014,849.587 580.155,854.658 579.268,859.728 578.351,864.799 577.404,869.87 576.427,874.941 575.421,880.011 574.385,885.082 573.318,890.153 572.222,895.224 571.095,900.294 569.938,905.365 568.75,910.436 567.532,915.507 566.283,920.577 565.003,925.648 563.692,930.719 562.35,935.789 560.977,940.86 559.572,945.931 558.135,951.002 " />
<line x1="558.135" y1="434.936" x2="558.135" y2="448.998"  stroke="#7f7fff" />
<line x1="558.135" y1="434.936" x2="572.235" y2="434.936"  stroke="#7f7fff" />
<line x1="558.135" y1="965.064" x2="558.135" y2="951.002"  stroke="#7f7fff" />
<line x1="558.135" y1="965.064" x2="572.235" y2="965.064"  stroke="#7f7fff" />
<polyline fill="none" stroke="#7f7fff" points="572.235,434.936 574.082,440.291 575.886,445.646 577.649,451.001 579.37,456.355 581.05,461.71 582.689,467.065 584.288,472.42 585.846,477.775 587.364,483.129 588.842,488.484 590.281,493.839 591.68,499.194 593.04,504.549 594.36,509.904 595.642,515.258 596.886,520.613 598.091,525.968 599.257,531.323 600.386,536.678 601.477,542.033 602.529,547.387 603.545,552.742 604.522,558.097 605.463,563.452 606.366,568.807 607.232,574.162 608.061,579.516 608.853,584.871 609.609,590.226 610.328,595.581 611.01,600.936 611.656,606.291 612.265,611.645 612.838,617 613.375,622.355 613.876,627.71 614.341,633.065 614.77,638.419 615.163,643.774 615.52,649.129 615.841,654.484 616.126,659.839 616.376,665.194 616.59,670.548 616.768,675.903 616.911,681.258 617.018,686.613 617.089,691.968 617.125,697.323 617.125,702.677 617.089,708.032 617.018,713.387 616.911,718.742 616.768,724.097 616.59,729.452 616.376,734.806 616.126,740.161 615.841,745.516 615.52,750.871 615.163,756.226 614.77,761.581 614.341,766.935 613.876,772.29 613.375,777.645 612.838,783 612.265,788.355 611.656,793.709 611.01,799.064 610.328,804.419 609.609,809.774 608.853,815.129 608.061,820.484 607.232,825.838 606.366,831.193 605.463,836.548 604.522,841.903 603.545,847.258 602.529,852.613 601.477,857.967 600.386,863.322 599.257,868.677 598.091,874.032 596.886,879.387 595.642,884.742 594.36,890.096 593.04,895.451 591.68,900.806 590.281,906.161 588.842,911.516 587.364,916.871 585.846,922.225 584.288,927.58 582.689,932.935 581.05,938.29 579.37,943.645 577.649,948.999 575.886,954.354 574.082,959.709 572.235,965.064 " />
</g>
<g>
<polyline fill="none" stroke="#7f7fff" points="580.627,453.172 583.144,458.158 585.598,463.145 587.988,468.131 590.317,473.118 592.584,478.104 594.791,483.091 596.938,488.077 599.026,493.063 601.057,498.05 603.029,503.036 604.946,508.023 606.806,513.009 608.611,517.996 610.36,522.982 612.056,527.968 613.698,532.955 615.286,537.941 616.822,542.928 618.305,547.914 619.736,552.901 621.117,557.887 622.446,562.873 623.724,567.86 624.952,572.846 626.13,577.833 627.259,582.819 628.338,587.805 629.368,592.792 630.35,597.778 631.283,602.765 632.168,607.751 633.005,612.738 633.795,617.724 634.537,622.71 635.231,627.697 635.879,632.683 636.479,637.67 637.033,642.656 637.54,647.643 638.001,652.629 638.415,657.615 638.783,662.602 639.104,667.588 639.38,672.575 639.61,677.561 639.793,682.548 639.931,687.534 640.023,692.52 640.068,697.507 640.068,702.493 640.023,707.48 639.931,712.466 639.793,717.452 639.61,722.439 639.38,727.425 639.104,732.412 638.783,737.398 638.415,742.385 638.001,747.371 637.54,752.357 637.033,757.344 636.479,762.33 635.879,767.317 635.231,772.303 634.537,777.29 633.795,782.276 633.005,787.262 632.168,792.249 631.283,797.235 630.35,802.222 629.368,807.208 628.338,812.195 627.259,817.181 626.13,822.167 624.952,827.154 623.724,832.14 622.446,837.127 621.117,842.113 619.736,847.099 618.305,852.086 616.822,857.072 615.286,862.059 613.698,867.045 612.056,872.032 610.36,877.018 608.611,882.004 606.806,886.991 604.946,891.977 603.029,896.964 601.057,901.95 599.026,906.937 596.938,911.923 594.791,916.909 592.584,921.896 590.317,926.882 587.988,931.869 585.598,936.855 583.144,941.842 580.627,946.828 " />
<line x1="580.627" y1="427.102" x2="580.627" y2="453.172"  stroke="#7f7fff" />
<line x1="580.627" y1="427.102" x2="765.96" y2="427.102"  stroke="#7f7fff" />
<line x1="580.627" y1="972.898" x2="580.627" y2="946.828"  stroke="#7f7fff" />
<line x1="580.627" y1="972.898" x2="765.96" y2="972.898"  stroke="#7f7fff" />
<polyline fill="none" stroke="#7f7fff" points="765.96,427.102 760.97,432.615 756.16,438.128 751.523,443.642 747.051,449.155 742.736,454.668 738.573,460.181 734.556,465.694 730.68,471.207 726.938,476.72 723.328,482.233 719.845,487.746 716.485,493.259 713.245,498.772 710.121,504.285 707.109,509.799 704.209,515.312 701.415,520.825 698.727,526.338 696.142,531.851 693.658,537.364 691.272,542.877 688.983,548.39 686.789,553.903 684.688,559.416 682.679,564.929 680.76,570.442 678.931,575.956 677.189,581.469 675.533,586.982 673.963,592.495 672.477,598.008 671.075,603.521 669.755,609.034 668.517,614.547 667.36,620.06 666.283,625.573 665.285,631.086 664.367,636.6 663.526,642.113 662.764,647.626 662.08,653.139 661.472,658.652 660.941,664.165 660.486,669.678 660.108,675.191 659.805,680.704 659.579,686.217 659.428,691.73 659.352,697.243 659.352,702.757 659.428,708.27 659.579,713.783 659.805,719.296 660.108,724.809 660.486,730.322 660.941,735.835 661.472,741.348 662.08,746.861 662.764,752.374 663.526,757.887 664.367,763.4 665.285,768.914 666.283,774.427 667.36,779.94 668.517,785.453 669.755,790.966 671.075,796.479 672.477,801.992 673.963,807.505 675.533,813.018 677.189,818.531 678.931,824.044 680.76,829.558 682.679,835.071 684.688,840.584 686.789,846.097 688.983,851.61 691.272,857.123 693.658,862.636 696.142,868.149 698.727,873.662 701.415,879.175 704.209,884.688 707.109,890.201 710.121,895.715 713.245,901.228 716.485,906.741 719.845,912.254 723.328,917.767 726.938,923.28 730.68,928.793 734.556,934.306 738.573,939.819 742.736,945.332 747.051,950.845 751.523,956.358 756.16,961.872 760.97,967.385 765.96,972.898 " />
<line x1="765.96" y1="427.102" x2="771.48" y2="427.102"  stroke="#7f7fff" />
<line x1="765.96" y1="972.898" x2="771.48" y2="972.898"  stroke="#7f7fff" />
<polyline fill="none" stroke="#7f7fff" points="771.48,427.102 771.878,432.615 772.268,438.128 772.65,443.642 773.023,449.155 773.389,454.668 773.746,460.181 774.095,465.694 774.436,471.207 774.769,476.72 775.094,482.233 775.41,487.746 775.719,493.259 776.019,498.772 776.311,504.285 776.595,509.799 776.871,515.312 777.139,520.825 777.398,526.338 777.65,531.851 777.893,537.364 778.128,542.877 778.356,548.39 778.575,553.903 778.785,559.416 778.988,564.929 779.183,570.442 779.369,575.956 779.548,581.469 779.718,586.982 779.88,592.495 780.034,598.008 780.18,603.521 780.318,609.034 780.448,614.547 780.569,620.06 780.683,625.573 780.788,631.086 780.885,636.6 780.974,642.113 781.055,647.626 781.128,653.139 781.193,658.652 781.25,664.165 781.299,669.678 781.339,675.191 781.371,680.704 781.396,686.217 781.412,691.73 781.42,697.243 781.42,702.757 781.412,708.27 781.396,713.783 781.371,719.296 781.339,724.809 781.299,730.322 781.25,735.835 781.193,741.348 781.128,746.861 781.055,752.374 780.974,757.887 780.885,763.4 780.788,768.914 780.683,774.427 780.569,779.94 780.448,785.453 780.318,790.966 780.18,796.479 780.034,801.992 779.88,807.505 779.718,813.018 779.548,818.531 779.369,824.044 779.183,829.558 778.988,835.071 778.785,840.584 778.575,846.097 778.356,851.61 778.128,857.123 777.893,862.636 777.65,868.149 777.398,873.662 777.139,879.175 776.871,884.688 776.595,890.201 776.311,895.715 776.019,901.228 775.719,906.741 775.41,912.254 775.094,917.767 774.769,923.28 774.436,928.793 774.095,934.306 773.746,939.819 773.389,945.332 773.023,950.845 772.65,956.358 772.268,961.872 771.878,967.385 771.48,972.898 " />
</g>
<g>
<polyline fill="none" stroke="#7f7fff" points="796.816,398.336 796.302,404.43 795.799,410.524 795.306,416.618 794.824,422.713 794.352,428.807 793.891,434.901 793.44,440.995 793,447.089 792.571,453.184 792.152,459.278 791.743,465.372 791.345,471.466 790.958,477.561 790.581,483.655 790.215,489.749 789.859,495.843 789.513,501.938 789.178,508.032 788.854,514.126 788.54,520.22 788.236,526.314 787.943,532.409 787.661,538.503 787.389,544.597 787.127,550.691 786.876,556.786 786.636,562.88 786.406,568.974 786.186,575.068 785.977,581.163 785.778,587.257 785.59,593.351 785.412,599.445 785.245,605.539 785.088,611.634 784.942,617.728 784.806,623.822 784.681,629.916 784.566,636.011 784.461,642.105 784.367,648.199 784.284,654.293 784.21,660.388 784.148,666.482 784.095,672.576 784.054,678.67 784.022,684.764 784.001,690.859 783.991,696.953 783.991,703.047 784.001,709.141 784.022,715.236 784.054,721.33 784.095,727.424 784.148,733.518 784.21,739.612 784.284,745.707 784.367,751.801 784.461,757.895 784.566,763.989 784.681,770.084 784.806,776.178 784.942,782.272 785.088,788.366 785.245,794.461 785.412,800.555 785.59,806.649 785.778,812.743 785.977,818.837 786.186,824.932 786.406,831.026 786.636,837.12 786.876,843.214 787.127,849.309 787.389,855.403 787.661,861.497 787.943,867.591 788.236,873.686 788.54,879.78 788.854,885.874 789.178,891.968 789.513,898.062 789.859,904.157 790.215,910.251 790.581,916.345 790.958,922.439 791.345,928.534 791.743,934.628 792.152,940.722 792.571,946.816 793,952.911 793.44,959.005 793.891,965.099 794.352,971.193 794.824,977.287 795.306,983.382 795.799,989.476 796.302,995.57 796.816,1001.664 " />
<line x1="872.049" y1="398.336" x2="872.049" y2="417.471"  stroke="#7f7fff" />
<line x1="796.816" y1="398.336" x2="872.049" y2="398.336"  stroke="#7f7fff" />
<line x1="872.049" y1="1001.664" x2="872.049" y2="982.529"  stroke="#7f7fff" />
<line x1="796.816" y1="1001.664" x2="872.049" y2="1001.664"  stroke="#7f7fff" />
<polyline fill="none" stroke="#7f7fff" points="872.049,417.471 868.821,423.178 865.68,428.886 862.623,434.594 859.65,440.301 856.757,446.009 853.945,451.717 851.212,457.424 848.556,463.132 845.976,468.84 843.472,474.547 841.042,480.255 838.685,485.963 836.4,491.67 834.186,497.378 832.042,503.086 829.968,508.793 827.963,514.501 826.025,520.209 824.155,525.916 822.351,531.624 820.613,537.332 818.94,543.039 817.332,548.747 815.788,554.455 814.307,560.162 812.889,565.87 811.534,571.578 810.241,577.285 809.009,582.993 807.839,588.701 806.729,594.408 805.68,600.116 804.69,605.824 803.761,611.531 802.891,617.239 802.08,622.947 801.329,628.654 800.636,634.362 800.001,640.07 799.425,645.777 798.907,651.485 798.447,657.193 798.044,662.9 797.7,668.608 797.413,674.316 797.183,680.023 797.011,685.731 796.896,691.439 796.839,697.146 796.839,702.854 796.896,708.561 797.011,714.269 797.183,719.977 797.413,725.684 797.7,731.392 798.044,737.1 798.447,742.807 798.907,748.515 799.425,754.223 800.001,759.93 800.636,765.638 801.329,771.346 802.08,777.053 802.891,782.761 803.761,788.469 804.69,794.176 805.68,799.884 806.729,805.592 807.839,811.299 809.009,817.007 810.241,822.715 811.534,828.422 812.889,834.13 814.307,839.838 815.788,845.545 817.332,851.253 818.94,856.961 820.613,862.668 822.351,868.376 824.155,874.084 826.025,879.791 827.963,885.499 829.968,891.207 832.042,896.914 834.186,902.622 836.4,908.33 838.685,914.037 841.042,919.745 843.472,925.453 845.976,931.16 848.556,936.868 851.212,942.576 853.945,948.283 856.757,953.991 859.65,959.699 862.623,965.406 865.68,971.114 868.821,976.822 872.049,982.529 " />
<line x1="872.049" y1="399.748" x2="872.049" y2="417.471"  stroke="#7f7fff" />
<line x1="872.049" y1="399.748" x2="888.808" y2="399.748"  stroke="#7f7fff" />
<line x1="872.049" y1="1000.252" x2="872.049" y2="982.529"  stroke="#7f7fff" />
<line x1="872.049" y1="1000.252" x2="888.808" y2="1000.252"  stroke="#7f7fff" />
<polyline fill="none" stroke="#7f7fff" points="888.808,399.748 889.293,405.814 889.767,411.88 890.232,417.945 890.686,424.011 891.131,430.077 891.566,436.142 891.991,442.208 892.406,448.274 892.811,454.34 893.206,460.405 893.591,466.471 893.967,472.537 894.332,478.602 894.688,484.668 895.033,490.734 895.369,496.799 895.695,502.865 896.01,508.931 896.316,514.996 896.612,521.062 896.899,527.128 897.175,533.193 897.441,539.259 897.698,545.325 897.944,551.391 898.181,557.456 898.408,563.522 898.625,569.588 898.832,575.653 899.029,581.719 899.217,587.785 899.394,593.85 899.562,599.916 899.72,605.982 899.868,612.047 900.006,618.113 900.134,624.179 900.252,630.245 900.361,636.31 900.459,642.376 900.548,648.442 900.627,654.507 900.696,660.573 900.755,666.639 900.804,672.704 900.844,678.77 900.873,684.836 900.893,690.901 900.903,696.967 900.903,703.033 900.893,709.099 900.873,715.164 900.844,721.23 900.804,727.296 900.755,733.361 900.696,739.427 900.627,745.493 900.548,751.558 900.459,757.624 900.361,763.69 900.252,769.755 900.134,775.821 900.006,781.887 899.868,787.953 899.72,794.018 899.562,800.084 899.394,806.15 899.217,812.215 899.029,818.281 898.832,824.347 898.625,830.412 898.408,836.478 898.181,842.544 897.944,848.609 897.698,854.675 897.441,860.741 897.175,866.807 896.899,872.872 896.612,878.938 896.316,885.004 896.01,891.069 895.695,897.135 895.369,903.201 895.033,909.266 894.688,915.332 894.332,921.398 893.967,927.463 893.591,933.529 893.206,939.595 892.811,945.66 892.406,951.726 891.991,957.792 891.566,963.858 891.131,969.923 890.686,975.989 890.232,982.055 889.767,988.12 889.293,994.186 888.808,1000.252 " />
</g>
<g>
<polyline fill="none" stroke="#7f7fff" points="967.393,379.201 964.707,385.681 962.084,392.162 959.525,398.643 957.028,405.124 954.593,411.605 952.22,418.085 949.908,424.566 947.656,431.047 945.464,437.528 943.331,444.009 941.257,450.489 939.241,456.97 937.284,463.451 935.384,469.932 933.541,476.413 931.754,482.893 930.025,489.374 928.351,495.855 926.732,502.336 925.169,508.817 923.661,515.297 922.208,521.778 920.809,528.259 919.464,534.74 918.173,541.221 916.935,547.701 915.751,554.182 914.62,560.663 913.542,567.144 912.516,573.625 911.543,580.105 910.622,586.586 909.754,593.067 908.937,599.548 908.172,606.028 907.459,612.509 906.797,618.99 906.186,625.471 905.627,631.952 905.119,638.432 904.662,644.913 904.256,651.394 903.901,657.875 903.597,664.356 903.343,670.836 903.141,677.317 902.989,683.798 902.887,690.279 902.837,696.76 902.837,703.24 902.887,709.721 902.989,716.202 903.141,722.683 903.343,729.164 903.597,735.644 903.901,742.125 904.256,748.606 904.662,755.087 905.119,761.568 905.627,768.048 906.186,774.529 906.797,781.01 907.459,787.491 908.172,793.972 908.937,800.452 909.754,806.933 910.622,813.414 911.543,819.895 912.516,826.375 913.542,832.856 914.62,839.337 915.751,845.818 916.935,852.299 918.173,858.779 919.464,865.26 920.809,871.741 922.208,878.222 923.661,884.703 925.169,891.183 926.732,897.664 928.351,904.145 930.025,910.626 931.754,917.107 933.541,923.587 935.384,930.068 937.284,936.549 939.241,943.03 941.257,949.511 943.331,955.991 945.464,962.472 947.656,968.953 949.908,975.434 952.22,981.915 954.593,988.395 957.028,994.876 959.525,1001.357 962.084,1007.838 964.707,1014.319 967.393,1020.799 " />
<line x1="967.393" y1="379.201" x2="977.344" y2="379.201"  stroke="#7f7fff" />
<line x1="967.393" y1="1020.799" x2="977.344" y2="1020.799"  stroke="#7f7fff" />
<polyline fill="none" stroke="#7f7fff" points="977.344,379.201 978.257,385.681 979.152,392.162 980.028,398.643 980.885,405.124 981.723,411.605 982.542,418.085 983.342,424.566 984.124,431.047 984.886,437.528 985.63,444.009 986.355,450.489 987.061,456.97 987.748,463.451 988.416,469.932 989.066,476.413 989.697,482.893 990.309,489.374 990.902,495.855 991.477,502.336 992.033,508.817 992.571,515.297 993.089,521.778 993.589,528.259 994.071,534.74 994.534,541.221 994.978,547.701 995.404,554.182 995.811,560.663 996.199,567.144 996.569,573.625 996.921,580.105 997.254,586.586 997.568,593.067 997.864,599.548 998.141,606.028 998.4,612.509 998.64,618.99 998.862,625.471 999.065,631.952 999.25,638.432 999.416,644.913 999.564,651.394 999.693,657.875 999.804,664.356 999.896,670.836 999.97,677.317 1000.026,683.798 1000.063,690.279 1000.081,696.76 1000.081,703.24 1000.063,709.721 1000.026,716.202 999.97,722.683 999.896,729.164 999.804,735.644 999.693,742.125 999.564,748.606 999.416,755.087 999.25,761.568 999.065,768.048 998.862,774.529 998.64,781.01 998.4,787.491 998.141,793.972 997.864,800.452 997.568,806.933 997.254,813.414 996.921,819.895 996.569,826.375 996.199,832.856 995.811,839.337 995.404,845.818 994.978,852.299 994.534,858.779 994.071,865.26 993.589,871.741 993.089,878.222 992.571,884.703 992.033,891.183 991.477,897.664 990.902,904.145 990.309,910.626 989.697,917.107 989.066,923.587 988.416,930.068 987.748,936.549 987.061,943.03 986.355,949.511 985.63,955.991 984.886,962.472 984.124,968.953 983.342,975.434 982.542,981.915 981.723,988.395 980.885,994.876 980.028,1001.357 979.152,1007.838 978.257,1014.319 977.344,1020.799 " />
</g>
<g>
<polyline fill="none" stroke="#7f7fff" points="1127.064,412.077 1125.712,417.893 1124.389,423.71 1123.095,429.527 1121.828,435.343 1120.587,441.16 1119.372,446.977 1118.182,452.793 1117.017,458.61 1115.876,464.427 1114.759,470.243 1113.667,476.06 1112.598,481.876 1111.555,487.693 1110.535,493.51 1109.541,499.326 1108.571,505.143 1107.627,510.96 1106.708,516.776 1105.814,522.593 1104.947,528.409 1104.106,534.226 1103.291,540.043 1102.503,545.859 1101.743,551.676 1101.009,557.493 1100.304,563.309 1099.626,569.126 1098.976,574.942 1098.355,580.759 1097.762,586.576 1097.197,592.392 1096.662,598.209 1096.155,604.026 1095.678,609.842 1095.23,615.659 1094.811,621.476 1094.422,627.292 1094.063,633.109 1093.733,638.925 1093.433,644.742 1093.163,650.559 1092.922,656.375 1092.712,662.192 1092.531,668.009 1092.381,673.825 1092.261,679.642 1092.17,685.458 1092.11,691.275 1092.08,697.092 1092.08,702.908 1092.11,708.725 1092.17,714.542 1092.261,720.358 1092.381,726.175 1092.531,731.991 1092.712,737.808 1092.922,743.625 1093.163,749.441 1093.433,755.258 1093.733,761.075 1094.063,766.891 1094.422,772.708 1094.811,778.524 1095.23,784.341 1095.678,790.158 1096.155,795.974 1096.662,801.791 1097.197,807.608 1097.762,813.424 1098.355,819.241 1098.976,825.058 1099.626,830.874 1100.304,836.691 1101.009,842.507 1101.743,848.324 1102.503,854.141 1103.291,859.957 1104.106,865.774 1104.947,871.591 1105.814,877.407 1106.708,883.224 1107.627,889.04 1108.571,894.857 1109.541,900.674 1110.535,906.49 1111.555,912.307 1112.598,918.124 1113.667,923.94 1114.759,929.757 1115.876,935.573 1117.017,941.39 1118.182,947.207 1119.372,953.023 1120.587,958.84 1121.828,964.657 1123.095,970.473 1124.389,976.29 1125.712,982.107 1127.064,987.923 " />
<line x1="1127.064" y1="412.077" x2="1143.742" y2="412.077"  stroke="#7f7fff" />
<line x1="1127.064" y1="987.923" x2="1143.742" y2="987.923"  stroke="#7f7fff" />
<polyline fill="none" stroke="#7f7fff" points="1143.742,412.077 1144.376,417.893 1145.012,423.71 1145.649,429.527 1146.283,435.343 1146.916,441.16 1147.544,446.977 1148.168,452.793 1148.786,458.61 1149.398,464.427 1150.002,470.243 1150.599,476.06 1151.187,481.876 1151.766,487.693 1152.335,493.51 1152.894,499.326 1153.442,505.143 1153.979,510.96 1154.505,516.776 1155.019,522.593 1155.52,528.409 1156.009,534.226 1156.485,540.043 1156.947,545.859 1157.396,551.676 1157.831,557.493 1158.251,563.309 1158.657,569.126 1159.048,574.942 1159.424,580.759 1159.784,586.576 1160.129,592.392 1160.457,598.209 1160.769,604.026 1161.064,609.842 1161.343,615.659 1161.604,621.476 1161.847,627.292 1162.073,633.109 1162.281,638.925 1162.471,644.742 1162.643,650.559 1162.795,656.375 1162.93,662.192 1163.045,668.009 1163.141,673.825 1163.218,679.642 1163.276,685.458 1163.315,691.275 1163.334,697.092 1163.334,702.908 1163.315,708.725 1163.276,714.542 1163.218,720.358 1163.141,726.175 1163.045,731.991 1162.93,737.808 1162.795,743.625 1162.643,749.441 1162.471,755.258 1162.281,761.075 1162.073,766.891 1161.847,772.708 1161.604,778.524 1161.343,784.341 1161.064,790.158 1160.769,795.974 1160.457,801.791 1160.129,807.608 1159.784,813.424 1159.424,819.241 1159.048,825.058 1158.657,830.874 1158.251,836.691 1157.831,842.507 1157.396,848.324 1156.947,854.141 1156.485,859.957 1156.009,865.774 1155.52,871.591 1155.019,877.407 1154.505,883.224 1153.979,889.04 1153.442,894.857 1152.894,900.674 1152.335,906.49 1151.766,912.307 1151.187,918.124 1150.599,923.94 1150.002,929.757 1149.398,935.573 1148.786,941.39 1148.168,947.207 1147.544,953.023 1146.916,958.84 1146.283,964.657 1145.649,970.473 1145.012,976.29 1144.376,982.107 1143.742,987.923 " />
</g>
<g>
<polyline fill="none" stroke="#7f7fff" points="1168.884,429.799 1168.739,435.258 1168.597,440.716 1168.458,446.175 1168.322,451.634 1168.189,457.092 1168.059,462.551 1167.932,468.009 1167.808,473.468 1167.687,478.927 1167.569,484.385 1167.453,489.844 1167.341,495.302 1167.232,500.761 1167.125,506.22 1167.022,511.678 1166.921,517.137 1166.824,522.595 1166.729,528.054 1166.638,533.513 1166.549,538.971 1166.463,544.43 1166.381,549.888 1166.301,555.347 1166.224,560.806 1166.15,566.264 1166.079,571.723 1166.011,577.181 1165.946,582.64 1165.884,588.099 1165.825,593.557 1165.769,599.016 1165.716,604.474 1165.665,609.933 1165.618,615.392 1165.574,620.85 1165.532,626.309 1165.494,631.767 1165.458,637.226 1165.426,642.685 1165.396,648.143 1165.37,653.602 1165.346,659.06 1165.325,664.519 1165.308,669.978 1165.293,675.436 1165.281,680.895 1165.272,686.353 1165.266,691.812 1165.263,697.271 1165.263,702.729 1165.266,708.188 1165.272,713.647 1165.281,719.105 1165.293,724.564 1165.308,730.022 1165.325,735.481 1165.346,740.94 1165.37,746.398 1165.396,751.857 1165.426,757.315 1165.458,762.774 1165.494,768.233 1165.532,773.691 1165.574,779.15 1165.618,784.608 1165.665,790.067 1165.716,795.526 1165.769,800.984 1165.825,806.443 1165.884,811.901 1165.946,817.36 1166.011,822.819 1166.079,828.277 1166.15,833.736 1166.224,839.194 1166.301,844.653 1166.381,850.112 1166.463,855.57 1166.549,861.029 1166.638,866.487 1166.729,871.946 1166.824,877.405 1166.921,882.863 1167.022,888.322 1167.125,893.78 1167.232,899.239 1167.341,904.698 1167.453,910.156 1167.569,915.615 1167.687,921.073 1167.808,926.532 1167.932,931.991 1168.059,937.449 1168.189,942.908 1168.322,948.366 1168.458,953.825 1168.597,959.284 1168.739,964.742 1168.884,970.201 " />
<line x1="1168.884" y1="429.799" x2="1182.955" y2="429.799"  stroke="#7f7fff" />
<line x1="1168.884" y1="970.201" x2="1182.955" y2="970.201"  stroke="#7f7fff" />
<polyline fill="none" stroke="#7f7fff" points="1182.955,429.799 1185.036,435.258 1187.069,440.716 1189.053,446.175 1190.991,451.634 1192.88,457.092 1194.723,462.551 1196.52,468.009 1198.27,473.468 1199.975,478.927 1201.634,484.385 1203.248,489.844 1204.817,495.302 1206.342,500.761 1207.822,506.22 1209.259,511.678 1210.651,517.137 1212,522.595 1213.306,528.054 1214.569,533.513 1215.789,538.971 1216.966,544.43 1218.101,549.888 1219.194,555.347 1220.244,560.806 1221.253,566.264 1222.221,571.723 1223.147,577.181 1224.031,582.64 1224.874,588.099 1225.677,593.557 1226.438,599.016 1227.158,604.474 1227.838,609.933 1228.478,615.392 1229.077,620.85 1229.635,626.309 1230.153,631.767 1230.631,637.226 1231.069,642.685 1231.467,648.143 1231.825,653.602 1232.143,659.06 1232.421,664.519 1232.66,669.978 1232.858,675.436 1233.017,680.895 1233.136,686.353 1233.215,691.812 1233.255,697.271 1233.255,702.729 1233.215,708.188 1233.136,713.647 1233.017,719.105 1232.858,724.564 1232.66,730.022 1232.421,735.481 1232.143,740.94 1231.825,746.398 1231.467,751.857 1231.069,757.315 1230.631,762.774 1230.153,768.233 1229.635,773.691 1229.077,779.15 1228.478,784.608 1227.838,790.067 1227.158,795.526 1226.438,800.984 1225.677,806.443 1224.874,811.901 1224.031,817.36 1223.147,822.819 1222.221,828.277 1221.253,833.736 1220.244,839.194 1219.194,844.653 1218.101,850.112 1216.966,855.57 1215.789,861.029 1214.569,866.487 1213.306,871.946 1212,877.405 1210.651,882.863 1209.259,888.322 1207.822,893.78 1206.342,899.239 1204.817,904.698 1203.248,910.156 1201.634,915.615 1199.975,921.073 1198.27,926.532 1196.52,931.991 1194.723,937.449 1192.88,942.908 1190.991,948.366 1189.053,953.825 1187.069,959.284 1185.036,964.742 1182.955,970.201 " />
<line x1="1271.78" y1="429.799" x2="1271.78" y2="479.113"  stroke="#7f7fff" />
<line x1="1182.955" y1="429.799" x2="1271.78" y2="429.799"  stroke="#7f7fff" />
<line x1="1271.78" y1="970.201" x2="1271.78" y2="920.887"  stroke="#7f7fff" />
<line x1="1182.955" y1="970.201" x2="1271.78" y2="970.201"  stroke="#7f7fff" />
<polyline fill="none" stroke="#7f7fff" points="1271.78,479.113 1270.74,483.576 1269.722,488.038 1268.726,492.5 1267.752,496.963 1266.801,501.425 1265.871,505.888 1264.964,510.35 1264.078,514.812 1263.215,519.275 1262.373,523.737 1261.553,528.199 1260.754,532.662 1259.978,537.124 1259.223,541.586 1258.489,546.049 1257.777,550.511 1257.087,554.973 1256.417,559.436 1255.77,563.898 1255.143,568.36 1254.538,572.823 1253.954,577.285 1253.391,581.748 1252.85,586.21 1252.329,590.672 1251.83,595.135 1251.351,599.597 1250.894,604.059 1250.458,608.522 1250.042,612.984 1249.648,617.446 1249.274,621.909 1248.922,626.371 1248.59,630.833 1248.279,635.296 1247.989,639.758 1247.719,644.221 1247.471,648.683 1247.243,653.145 1247.036,657.608 1246.85,662.07 1246.684,666.532 1246.539,670.995 1246.415,675.457 1246.312,679.919 1246.229,684.382 1246.167,688.844 1246.126,693.306 1246.105,697.769 1246.105,702.231 1246.126,706.694 1246.167,711.156 1246.229,715.618 1246.312,720.081 1246.415,724.543 1246.539,729.005 1246.684,733.468 1246.85,737.93 1247.036,742.392 1247.243,746.855 1247.471,751.317 1247.719,755.779 1247.989,760.242 1248.279,764.704 1248.59,769.167 1248.922,773.629 1249.274,778.091 1249.648,782.554 1250.042,787.016 1250.458,791.478 1250.894,795.941 1251.351,800.403 1251.83,804.865 1252.329,809.328 1252.85,813.79 1253.391,818.252 1253.954,822.715 1254.538,827.177 1255.143,831.64 1255.77,836.102 1256.417,840.564 1257.087,845.027 1257.777,849.489 1258.489,853.951 1259.223,858.414 1259.978,862.876 1260.754,867.338 1261.553,871.801 1262.373,876.263 1263.215,880.725 1264.078,885.188 1264.964,889.65 1265.871,894.112 1266.801,898.575 1267.752,903.037 1268.726,907.5 1269.722,911.962 1270.74,916.424 1271.78,920.887 " />
</g>
<g>
<polyline fill="none" stroke="#7f7fff" points="1368.025,508.651 1370.759,512.516 1373.411,516.382 1375.983,520.247 1378.476,524.113 1380.894,527.979 1383.239,531.844 1385.511,535.71 1387.713,539.576 1389.846,543.441 1391.913,547.307 1393.913,551.173 1395.849,555.038 1397.722,558.904 1399.533,562.77 1401.283,566.635 1402.974,570.501 1404.606,574.367 1406.18,578.232 1407.697,582.098 1409.158,585.963 1410.564,589.829 1411.915,593.695 1413.212,597.56 1414.457,601.426 1415.648,605.292 1416.788,609.157 1417.877,613.023 1418.915,616.889 1419.902,620.754 1420.839,624.62 1421.728,628.486 1422.567,632.351 1423.357,636.217 1424.099,640.082 1424.794,643.948 1425.44,647.814 1426.04,651.679 1426.592,655.545 1427.097,659.411 1427.556,663.276 1427.968,667.142 1428.334,671.008 1428.654,674.873 1428.928,678.739 1429.157,682.605 1429.339,686.47 1429.476,690.336 1429.567,694.202 1429.612,698.067 1429.612,701.933 1429.567,705.798 1429.476,709.664 1429.339,713.53 1429.157,717.395 1428.928,721.261 1428.654,725.127 1428.334,728.992 1427.968,732.858 1427.556,736.724 1427.097,740.589 1426.592,744.455 1426.04,748.321 1425.44,752.186 1424.794,756.052 1424.099,759.918 1423.357,763.783 1422.567,767.649 1421.728,771.514 1420.839,775.38 1419.902,779.246 1418.915,783.111 1417.877,786.977 1416.788,790.843 1415.648,794.708 1414.457,798.574 1413.212,802.44 1411.915,806.305 1410.564,810.171 1409.158,814.037 1407.697,817.902 1406.18,821.768 1404.606,825.633 1402.974,829.499 1401.283,833.365 1399.533,837.23 1397.722,841.096 1395.849,844.962 1393.913,848.827 1391.913,852.693 1389.846,856.559 1387.713,860.424 1385.511,864.29 1383.239,868.156 1380.894,872.021 1378.476,875.887 1375.983,879.753 1373.411,883.618 1370.759,887.484 1368.025,891.349 " />
<line x1="1368.025" y1="475.004" x2="1368.025" y2="508.651"  stroke="#7f7fff" />
<line x1="1368.025" y1="475.004" x2="1494.359" y2="475.004"  stroke="#7f7fff" />
<line x1="1368.025" y1="924.996" x2="1368.025" y2="891.349"  stroke="#7f7fff" />
<line x1="1368.025" y1="924.996" x2="1494.359" y2="924.996"  stroke="#7f7fff" />
<polyline fill="none" stroke="#7f7fff" points="1494.359,475.004 1492.172,479.549 1490.039,484.095 1487.96,488.64 1485.935,493.185 1483.961,497.731 1482.04,502.276 1480.17,506.821 1478.35,511.367 1476.58,515.912 1474.86,520.458 1473.189,525.003 1471.566,529.548 1469.991,534.094 1468.463,538.639 1466.983,543.185 1465.549,547.73 1464.161,552.275 1462.819,556.821 1461.522,561.366 1460.271,565.911 1459.064,570.457 1457.901,575.002 1456.783,579.548 1455.708,584.093 1454.677,588.638 1453.689,593.184 1452.744,597.729 1451.842,602.274 1450.983,606.82 1450.165,611.365 1449.39,615.911 1448.657,620.456 1447.965,625.001 1447.315,629.547 1446.706,634.092 1446.139,638.637 1445.612,643.183 1445.127,647.728 1444.682,652.274 1444.279,656.819 1443.915,661.364 1443.593,665.91 1443.311,670.455 1443.069,675 1442.868,679.546 1442.707,684.091 1442.586,688.637 1442.506,693.182 1442.465,697.727 1442.465,702.273 1442.506,706.818 1442.586,711.363 1442.707,715.909 1442.868,720.454 1443.069,725 1443.311,729.545 1443.593,734.09 1443.915,738.636 1444.279,743.181 1444.682,747.726 1445.127,752.272 1445.612,756.817 1446.139,761.363 1446.706,765.908 1447.315,770.453 1447.965,774.999 1448.657,779.544 1449.39,784.089 1450.165,788.635 1450.983,793.18 1451.842,797.726 1452.744,802.271 1453.689,806.816 1454.677,811.362 1455.708,815.907 1456.783,820.452 1457.901,824.998 1459.064,829.543 1460.271,834.089 1461.522,838.634 1462.819,843.179 1464.161,847.725 1465.549,852.27 1466.983,856.815 1468.463,861.361 1469.991,865.906 1471.566,870.452 1473.189,874.997 1474.86,879.542 1476.58,884.088 1478.35,888.633 1480.17,893.179 1482.04,897.724 1483.961,902.269 1485.935,906.815 1487.96,911.36 1490.039,915.905 1492.172,920.451 1494.359,924.996 " />
<line x1="1494.359" y1="475.004" x2="1494.741" y2="475.004"  stroke="#7f7fff" />
<line x1="1494.359" y1="924.996" x2="1494.741" y2="924.996"  stroke="#7f7fff" />
<polyline fill="none" stroke="#7f7fff" points="1494.741,475.004 1496.928,479.549 1499.061,484.095 1501.139,488.64 1503.165,493.185 1505.138,497.731 1507.06,502.276 1508.93,506.821 1510.749,511.367 1512.519,515.912 1514.239,520.458 1515.911,525.003 1517.534,529.548 1519.109,534.094 1520.636,538.639 1522.117,543.185 1523.551,547.73 1524.939,552.275 1526.281,556.821 1527.577,561.366 1528.829,565.911 1530.036,570.457 1531.198,575.002 1532.317,579.548 1533.391,584.093 1534.422,588.638 1535.41,593.184 1536.355,597.729 1537.257,602.274 1538.117,606.82 1538.934,611.365 1539.71,615.911 1540.443,620.456 1541.135,625.001 1541.785,629.547 1542.393,634.092 1542.961,638.637 1543.487,643.183 1543.973,647.728 1544.417,652.274 1544.821,656.819 1545.184,661.364 1545.507,665.91 1545.789,670.455 1546.03,675 1546.232,679.546 1546.393,684.091 1546.513,688.637 1546.594,693.182 1546.634,697.727 1546.634,702.273 1546.594,706.818 1546.513,711.363 1546.393,715.909 1546.232,720.454 1546.03,725 1545.789,729.545 1545.507,734.09 1545.184,738.636 1544.821,743.181 1544.417,747.726 1543.973,752.272 1543.487,756.817 1542.961,761.363 1542.393,765.908 1541.785,770.453 1541.135,774.999 1540.443,779.544 1539.71,784.089 1538.934,788.635 1538.117,793.18 1537.257,797.726 1536.355,802.271 1535.41,806.816 1534.422,811.362 1533.391,815.907 1532.317,820.452 1531.198,824.998 1530.036,829.543 1528.829,834.089 1527.577,838.634 1526.281,843.179 1524.939,847.725 1523.551,852.27 1522.117,856.815 1520.636,861.361 1519.109,865.906 1517.534,870.452 1515.911,874.997 1514.239,879.542 1512.519,884.088 1510.749,888.633 1508.93,893.179 1507.06,897.724 1505.138,902.269 1503.165,906.815 1501.139,911.36 1499.061,915.905 1496.928,920.451 1494.741,924.996 " />
</g>
<g>
<polyline fill="none" stroke="#7f7fff" points="1584.31,458.566 1582.877,463.443 1581.476,468.321 1580.106,473.198 1578.767,478.076 1577.46,482.953 1576.184,487.831 1574.939,492.708 1573.724,497.585 1572.541,502.463 1571.387,507.34 1570.264,512.218 1569.172,517.095 1568.109,521.973 1567.077,526.85 1566.074,531.728 1565.101,536.605 1564.158,541.483 1563.245,546.36 1562.361,551.237 1561.506,556.115 1560.681,560.992 1559.885,565.87 1559.118,570.747 1558.38,575.625 1557.671,580.502 1556.991,585.38 1556.34,590.257 1555.718,595.135 1555.124,600.012 1554.559,604.89 1554.023,609.767 1553.515,614.644 1553.036,619.522 1552.585,624.399 1552.162,629.277 1551.768,634.154 1551.403,639.032 1551.065,643.909 1550.756,648.787 1550.475,653.664 1550.222,658.542 1549.997,663.419 1549.801,668.297 1549.632,673.174 1549.492,678.051 1549.38,682.929 1549.295,687.806 1549.239,692.684 1549.211,697.561 1549.211,702.439 1549.239,707.316 1549.295,712.194 1549.38,717.071 1549.492,721.949 1549.632,726.826 1549.801,731.703 1549.997,736.581 1550.222,741.458 1550.475,746.336 1550.756,751.213 1551.065,756.091 1551.403,760.968 1551.768,765.846 1552.162,770.723 1552.585,775.601 1553.036,780.478 1553.515,785.356 1554.023,790.233 1554.559,795.11 1555.124,799.988 1555.718,804.865 1556.34,809.743 1556.991,814.62 1557.671,819.498 1558.38,824.375 1559.118,829.253 1559.885,834.13 1560.681,839.008 1561.506,843.885 1562.361,848.763 1563.245,853.64 1564.158,858.517 1565.101,863.395 1566.074,868.272 1567.077,873.15 1568.109,878.027 1569.172,882.905 1570.264,887.782 1571.387,892.66 1572.541,897.537 1573.724,902.415 1574.939,907.292 1576.184,912.169 1577.46,917.047 1578.767,921.924 1580.106,926.802 1581.476,931.679 1582.877,936.557 1584.31,941.434 " />
<line x1="1584.31" y1="458.566" x2="1593.451" y2="458.566"  stroke="#7f7fff" />
<line x1="1584.31" y1="941.434" x2="1593.451" y2="941.434"  stroke="#7f7fff" />
<polyline fill="none" stroke="#7f7fff" points="1593.451,458.566 1595.703,463.443 1597.9,468.321 1600.042,473.198 1602.13,478.076 1604.164,482.953 1606.146,487.831 1608.075,492.708 1609.953,497.585 1611.78,502.463 1613.556,507.34 1615.282,512.218 1616.959,517.095 1618.587,521.973 1620.166,526.85 1621.696,531.728 1623.179,536.605 1624.614,541.483 1626.003,546.36 1627.344,551.237 1628.639,556.115 1629.888,560.992 1631.092,565.87 1632.25,570.747 1633.362,575.625 1634.43,580.502 1635.453,585.38 1636.432,590.257 1637.367,595.135 1638.258,600.012 1639.105,604.89 1639.908,609.767 1640.668,614.644 1641.385,619.522 1642.059,624.399 1642.69,629.277 1643.279,634.154 1643.825,639.032 1644.328,643.909 1644.789,648.787 1645.208,653.664 1645.584,658.542 1645.919,663.419 1646.212,668.297 1646.462,673.174 1646.671,678.051 1646.838,682.929 1646.963,687.806 1647.047,692.684 1647.089,697.561 1647.089,702.439 1647.047,707.316 1646.963,712.194 1646.838,717.071 1646.671,721.949 1646.462,726.826 1646.212,731.703 1645.919,736.581 1645.584,741.458 1645.208,746.336 1644.789,751.213 1644.328,756.091 1643.825,760.968 1643.279,765.846 1642.69,770.723 1642.059,775.601 1641.385,780.478 1640.668,785.356 1639.908,790.233 1639.105,795.11 1638.258,799.988 1637.367,804.865 1636.432,809.743 1635.453,814.62 1634.43,819.498 1633.362,824.375 1632.25,829.253 1631.092,834.13 1629.888,839.008 1628.639,843.885 1627.344,848.763 1626.003,853.64 1624.614,858.517 1623.179,863.395 1621.696,868.272 1620.166,873.15 1618.587,878.027 1616.959,882.905 1615.282,887.782 1613.556,892.66 1611.78,897.537 1609.953,902.415 1608.075,907.292 1606.146,912.169 1604.164,917.047 1602.13,921.924 1600.042,926.802 1597.9,931.679 1595.703,936.557 1593.451,941.434 " />
</g>
<g>
<polyline fill="none" stroke="#7f7fff" points="1648.67,455.869 1649.453,460.801 1650.189,465.733 1650.882,470.665 1651.538,475.597 1652.158,480.529 1652.746,485.461 1653.304,490.392 1653.834,495.324 1654.337,500.256 1654.814,505.188 1655.266,510.12 1655.694,515.052 1656.099,519.984 1656.481,524.916 1656.842,529.848 1657.181,534.78 1657.5,539.712 1657.799,544.644 1658.079,549.576 1658.341,554.508 1658.584,559.44 1658.811,564.372 1659.022,569.304 1659.217,574.235 1659.398,579.167 1659.565,584.099 1659.719,589.031 1659.86,593.963 1659.99,598.895 1660.109,603.827 1660.218,608.759 1660.318,613.691 1660.408,618.623 1660.491,623.555 1660.565,628.487 1660.632,633.419 1660.693,638.351 1660.747,643.283 1660.796,648.215 1660.839,653.147 1660.877,658.078 1660.909,663.01 1660.938,667.942 1660.962,672.874 1660.981,677.806 1660.997,682.738 1661.008,687.67 1661.016,692.602 1661.019,697.534 1661.019,702.466 1661.016,707.398 1661.008,712.33 1660.997,717.262 1660.981,722.194 1660.962,727.126 1660.938,732.058 1660.909,736.99 1660.877,741.922 1660.839,746.853 1660.796,751.785 1660.747,756.717 1660.693,761.649 1660.632,766.581 1660.565,771.513 1660.491,776.445 1660.408,781.377 1660.318,786.309 1660.218,791.241 1660.109,796.173 1659.99,801.105 1659.86,806.037 1659.719,810.969 1659.565,815.901 1659.398,820.833 1659.217,825.765 1659.022,830.696 1658.811,835.628 1658.584,840.56 1658.341,845.492 1658.079,850.424 1657.799,855.356 1657.5,860.288 1657.181,865.22 1656.842,870.152 1656.481,875.084 1656.099,880.016 1655.694,884.948 1655.266,889.88 1654.814,894.812 1654.337,899.744 1653.834,904.676 1653.304,909.608 1652.746,914.539 1652.158,919.471 1651.538,924.403 1650.882,929.335 1650.189,934.267 1649.453,939.199 1648.67,944.131 " />
<line x1="1648.67" y1="455.869" x2="1686.56" y2="455.869"  stroke="#7f7fff" />
<line x1="1648.67" y1="944.131" x2="1686.56" y2="944.131"  stroke="#7f7fff" />
<polyline fill="none" stroke="#7f7fff" points="1686.56,455.869 1687.531,460.801 1688.504,465.733 1689.479,470.665 1690.456,475.597 1691.435,480.529 1692.413,485.461 1693.389,490.392 1694.362,495.324 1695.331,500.256 1696.292,505.188 1697.246,510.12 1698.189,515.052 1699.121,519.984 1700.039,524.916 1700.943,529.848 1701.831,534.78 1702.702,539.712 1703.555,544.644 1704.388,549.576 1705.202,554.508 1705.994,559.44 1706.764,564.372 1707.511,569.304 1708.235,574.235 1708.935,579.167 1709.611,584.099 1710.262,589.031 1710.888,593.963 1711.488,598.895 1712.062,603.827 1712.609,608.759 1713.13,613.691 1713.624,618.623 1714.09,623.555 1714.529,628.487 1714.94,633.419 1715.323,638.351 1715.677,643.283 1716.002,648.215 1716.299,653.147 1716.567,658.078 1716.805,663.01 1717.015,667.942 1717.194,672.874 1717.344,677.806 1717.464,682.738 1717.554,687.67 1717.614,692.602 1717.644,697.534 1717.644,702.466 1717.614,707.398 1717.554,712.33 1717.464,717.262 1717.344,722.194 1717.194,727.126 1717.015,732.058 1716.805,736.99 1716.567,741.922 1716.299,746.853 1716.002,751.785 1715.677,756.717 1715.323,761.649 1714.94,766.581 1714.529,771.513 1714.09,776.445 1713.624,781.377 1713.13,786.309 1712.609,791.241 1712.062,796.173 1711.488,801.105 1710.888,806.037 1710.262,810.969 1709.611,815.901 1708.935,820.833 1708.235,825.765 1707.511,830.696 1706.764,835.628 1705.994,840.56 1705.202,845.492 1704.388,850.424 1703.555,855.356 1702.702,860.288 1701.831,865.22 1700.943,870.152 1700.039,875.084 1699.121,880.016 1698.189,884.948 1697.246,889.88 1696.292,894.812 1695.331,899.744 1694.362,904.676 1693.389,909.608 1692.413,914.539 1691.435,919.471 1690.456,924.403 1689.479,929.335 1688.504,934.267 1687.531,939.199 1686.56,944.131 " />
</g>
<g>
<polyline fill="none" stroke="#7f7fff" points="1754.523,455.869 1754.665,460.801 1754.804,465.733 1754.941,470.665 1755.074,475.597 1755.205,480.529 1755.333,485.461 1755.458,490.392 1755.58,495.324 1755.699,500.256 1755.815,505.188 1755.928,510.12 1756.038,515.052 1756.146,519.984 1756.25,524.916 1756.352,529.848 1756.45,534.78 1756.546,539.712 1756.639,544.644 1756.729,549.576 1756.816,554.508 1756.9,559.44 1756.982,564.372 1757.06,569.304 1757.135,574.235 1757.208,579.167 1757.278,584.099 1757.344,589.031 1757.408,593.963 1757.469,598.895 1757.527,603.827 1757.582,608.759 1757.635,613.691 1757.684,618.623 1757.73,623.555 1757.774,628.487 1757.815,633.419 1757.852,638.351 1757.887,643.283 1757.919,648.215 1757.948,653.147 1757.974,658.078 1757.997,663.01 1758.018,667.942 1758.035,672.874 1758.05,677.806 1758.061,682.738 1758.07,687.67 1758.076,692.602 1758.079,697.534 1758.079,702.466 1758.076,707.398 1758.07,712.33 1758.061,717.262 1758.05,722.194 1758.035,727.126 1758.018,732.058 1757.997,736.99 1757.974,741.922 1757.948,746.853 1757.919,751.785 1757.887,756.717 1757.852,761.649 1757.815,766.581 1757.774,771.513 1757.73,776.445 1757.684,781.377 1757.635,786.309 1757.582,791.241 1757.527,796.173 1757.469,801.105 1757.408,806.037 1757.344,810.969 1757.278,815.901 1757.208,820.833 1757.135,825.765 1757.06,830.696 1756.982,835.628 1756.9,840.56 1756.816,845.492 1756.729,850.424 1756.639,855.356 1756.546,860.288 1756.45,865.22 1756.352,870.152 1756.25,875.084 1756.146,880.016 1756.038,884.948 1755.928,889.88 1755.815,894.812 1755.699,899.744 1755.58,904.676 1755.458,909.608 1755.333,914.539 1755.205,919.471 1755.074,924.403 1754.941,929.335 1754.804,934.267 1754.665,939.199 1754.523,944.131 " />
<line x1="1754.523" y1="455.869" x2="1777.492" y2="455.869"  stroke="#7f7fff" />
<line x1="1754.523" y1="944.131" x2="1777.492" y2="944.131"  stroke="#7f7fff" />
<polyline fill="none" stroke="#7f7fff" points="1777.492,455.869 1778.274,460.801 1779.04,465.733 1779.789,470.665 1780.522,475.597 1781.239,480.529 1781.939,485.461 1782.624,490.392 1783.292,495.324 1783.943,500.256 1784.579,505.188 1785.199,510.12 1785.802,515.052 1786.389,519.984 1786.96,524.916 1787.516,529.848 1788.055,534.78 1788.578,539.712 1789.085,544.644 1789.576,549.576 1790.051,554.508 1790.51,559.44 1790.953,564.372 1791.38,569.304 1791.791,574.235 1792.187,579.167 1792.566,584.099 1792.93,589.031 1793.277,593.963 1793.609,598.895 1793.925,603.827 1794.225,608.759 1794.509,613.691 1794.777,618.623 1795.03,623.555 1795.266,628.487 1795.487,633.419 1795.692,638.351 1795.882,643.283 1796.055,648.215 1796.213,653.147 1796.355,658.078 1796.481,663.01 1796.591,667.942 1796.686,672.874 1796.765,677.806 1796.828,682.738 1796.875,687.67 1796.907,692.602 1796.922,697.534 1796.922,702.466 1796.907,707.398 1796.875,712.33 1796.828,717.262 1796.765,722.194 1796.686,727.126 1796.591,732.058 1796.481,736.99 1796.355,741.922 1796.213,746.853 1796.055,751.785 1795.882,756.717 1795.692,761.649 1795.487,766.581 1795.266,771.513 1795.03,776.445 1794.777,781.377 1794.509,786.309 1794.225,791.241 1793.925,796.173 1793.609,801.105 1793.277,806.037 1792.93,810.969 1792.566,815.901 1792.187,820.833 1791.791,825.765 1791.38,830.696 1790.953,835.628 1790.51,840.56 1790.051,845.492 1789.576,850.424 1789.085,855.356 1788.578,860.288 1788.055,865.22 1787.516,870.152 1786.96,875.084 1786.389,880.016 1785.802,884.948 1785.199,889.88 1784.579,894.812 1783.943,899.744 1783.292,904.676 1782.624,909.608 1781.939,914.539 1781.239,919.471 1780.522,924.403 1779.789,929.335 1779.04,934.267 1778.274,939.199 1777.492,944.131 " />
<line x1="1870.803" y1="455.869" x2="1870.803" y2="477.765"  stroke="#7f7fff" />
<line x1="1777.492" y1="455.869" x2="1870.803" y2="455.869"  stroke="#7f7fff" />
<line x1="1870.803" y1="944.131" x2="1870.803" y2="922.235"  stroke="#7f7fff" />
<line x1="1777.492" y1="944.131" x2="1870.803" y2="944.131"  stroke="#7f7fff" />
<polyline fill="none" stroke="#7f7fff" points="1870.803,477.765 1868.484,482.255 1866.225,486.744 1864.025,491.234 1861.882,495.723 1859.796,500.213 1857.766,504.703 1855.791,509.192 1853.87,513.682 1852.004,518.171 1850.19,522.661 1848.429,527.151 1846.719,531.64 1845.061,536.13 1843.454,540.619 1841.896,545.109 1840.388,549.598 1838.93,554.088 1837.519,558.578 1836.158,563.067 1834.843,567.557 1833.577,572.046 1832.357,576.536 1831.184,581.026 1830.057,585.515 1828.976,590.005 1827.94,594.494 1826.95,598.984 1826.005,603.474 1825.104,607.963 1824.248,612.453 1823.437,616.942 1822.669,621.432 1821.945,625.922 1821.265,630.411 1820.628,634.901 1820.034,639.39 1819.483,643.88 1818.976,648.37 1818.511,652.859 1818.088,657.349 1817.709,661.838 1817.371,666.328 1817.077,670.818 1816.824,675.307 1816.613,679.797 1816.445,684.286 1816.319,688.776 1816.235,693.266 1816.193,697.755 1816.193,702.245 1816.235,706.734 1816.319,711.224 1816.445,715.714 1816.613,720.203 1816.824,724.693 1817.077,729.182 1817.371,733.672 1817.709,738.162 1818.088,742.651 1818.511,747.141 1818.976,751.63 1819.483,756.12 1820.034,760.61 1820.628,765.099 1821.265,769.589 1821.945,774.078 1822.669,778.568 1823.437,783.058 1824.248,787.547 1825.104,792.037 1826.005,796.526 1826.95,801.016 1827.94,805.506 1828.976,809.995 1830.057,814.485 1831.184,818.974 1832.357,823.464 1833.577,827.954 1834.843,832.443 1836.158,836.933 1837.519,841.422 1838.93,845.912 1840.388,850.402 1841.896,854.891 1843.454,859.381 1845.061,863.87 1846.719,868.36 1848.429,872.849 1850.19,877.339 1852.004,881.829 1853.87,886.318 1855.791,890.808 1857.766,895.297 1859.796,899.787 1861.882,904.277 1864.025,908.766 1866.225,913.256 1868.484,917.745 1870.803,922.235 " />
</g>
<g>
<polyline fill="none" stroke="#7f7fff" points="2054.008,402.445 2054.008,408.456 2054.008,414.468 2054.008,420.479 2054.008,426.49 2054.008,432.501 2054.008,438.512 2054.008,444.524 2054.008,450.535 2054.008,456.546 2054.008,462.557 2054.008,468.568 2054.008,474.58 2054.008,480.591 2054.008,486.602 2054.008,492.613 2054.008,498.625 2054.008,504.636 2054.008,510.647 2054.008,516.658 2054.008,522.669 2054.008,528.681 2054.008,534.692 2054.008,540.703 2054.008,546.714 2054.008,552.725 2054.008,558.737 2054.008,564.748 2054.008,570.759 2054.008,576.77 2054.008,582.781 2054.008,588.793 2054.008,594.804 2054.008,600.815 2054.008,606.826 2054.008,612.837 2054.008,618.849 2054.008,624.86 2054.008,630.871 2054.008,636.882 2054.008,642.894 2054.008,648.905 2054.008,654.916 2054.008,660.927 2054.008,666.938 2054.008,672.95 2054.008,678.961 2054.008,684.972 2054.008,690.983 2054.008,696.994 2054.008,703.006 2054.008,709.017 2054.008,715.028 2054.008,721.039 2054.008,727.05 2054.008,733.062 2054.008,739.073 2054.008,745.084 2054.008,751.095 2054.008,757.106 2054.008,763.118 2054.008,769.129 2054.008,775.14 2054.008,781.151 2054.008,787.163 2054.008,793.174 2054.008,799.185 2054.008,805.196 2054.008,811.207 2054.008,817.219 2054.008,823.23 2054.008,829.241 2054.008,835.252 2054.008,841.263 2054.008,847.275 2054.008,853.286 2054.008,859.297 2054.008,865.308 2054.008,871.319 2054.008,877.331 2054.008,883.342 2054.008,889.353 2054.008,895.364 2054.008,901.375 2054.008,907.387 2054.008,913.398 2054.008,919.409 2054.008,925.42 2054.008,931.432 2054.008,937.443 2054.008,943.454 2054.008,949.465 2054.008,955.476 2054.008,961.488 2054.008,967.499 2054.008,973.51 2054.008,979.521 2054.008,985.532 2054.008,991.544 2054.008,997.555 " />
<line x1="2054.008" y1="402.445" x2="2086.114" y2="402.445"  stroke="#7f7fff" />
<line x1="2054.008" y1="997.555" x2="2086.114" y2="997.555"  stroke="#7f7fff" />
<polyline fill="none" stroke="#7f7fff" points="2086.114,402.445 2086.114,408.456 2086.114,414.468 2086.114,420.479 2086.114,426.49 2086.114,432.501 2086.114,438.512 2086.114,444.524 2086.114,450.535 2086.114,456.546 2086.114,462.557 2086.114,468.568 2086.114,474.58 2086.114,480.591 2086.114,486.602 2086.114,492.613 2086.114,498.625 2086.114,504.636 2086.114,510.647 2086.114,516.658 2086.114,522.669 2086.114,528.681 2086.114,534.692 2086.114,540.703 2086.114,546.714 2086.114,552.725 2086.114,558.737 2086.114,564.748 2086.114,570.759 2086.114,576.77 2086.114,582.781 2086.114,588.793 2086.114,594.804 2086.114,600.815 2086.114,606.826 2086.114,612.837 2086.114,618.849 2086.114,624.86 2086.114,630.871 2086.114,636.882 2086.114,642.894 2086.114,648.905 2086.114,654.916 2086.114,660.927 2086.114,666.938 2086.114,672.95 2086.114,678.961 2086.114,684.972 2086.114,690.983 2086.114,696.994 2086.114,703.006 2086.114,709.017 2086.114,715.028 2086.114,721.039 2086.114,727.05 2086.114,733.062 2086.114,739.073 2086.114,745.084 2086.114,751.095 2086.114,757.106 2086.114,763.118 2086.114,769.129 2086.114,775.14 2086.114,781.151 2086.114,787.163 2086.114,793.174 2086.114,799.185 2086.114,805.196 2086.114,811.207 2086.114,817.219 2086.114,823.23 2086.114,829.241 2086.114,835.252 2086.114,841.263 2086.114,847.275 2086.114,853.286 2086.114,859.297 2086.114,865.308 2086.114,871.319 2086.114,877.331 2086.114,883.342 2086.114,889.353 2086.114,895.364 2086.114,901.375 2086.114,907.387 2086.114,913.398 2086.114,919.409 2086.114,925.42 2086.114,931.432 2086.114,937.443 2086.114,943.454 2086.114,949.465 2086.114,955.476 2086.114,961.488 2086.114,967.499 2086.114,973.51 2086.114,979.521 2086.114,985.532 2086.114,991.544 2086.114,997.555 " />
</g>
</g>
<g><title>element</title>
<polyline fill="none" stroke="#7f7fff" points="2098.956,144.444 2098.956,155.668 2098.956,166.891 2098.956,178.114 2098.956,189.338 2098.956,200.561 2098.956,211.785 2098.956,223.008 2098.956,234.231 2098.956,245.455 2098.956,256.678 2098.956,267.901 2098.956,279.125 2098.956,290.348 2098.956,301.571 2098.956,312.795 2098.956,324.018 2098.956,335.241 2098.956,346.465 2098.956,357.688 2098.956,368.911 2098.956,380.135 2098.956,391.358 2098.956,402.581 2098.956,413.805 2098.956,425.028 2098.956,436.251 2098.956,447.475 2098.956,458.698 2098.956,469.921 2098.956,481.145 2098.956,492.368 2098.956,503.591 2098.956,514.815 2098.956,526.038 2098.956,537.262 2098.956,548.485 2098.956,559.708 2098.956,570.932 2098.956,582.155 2098.956,593.378 2098.956,604.602 2098.956,615.825 2098.956,627.048 2098.956,638.272 2098.956,649.495 2098.956,660.718 2098.956,671.942 2098.956,683.165 2098.956,694.388 2098.956,705.612 2098.956,716.835 2098.956,728.058 2098.956,739.282 2098.956,750.505 2098.956,761.728 2098.956,772.952 2098.956,784.175 2098.956,795.398 2098.956,806.622 2098.956,817.845 2098.956,829.068 2098.956,840.292 2098.956,851.515 2098.956,862.738 2098.956,873.962 2098.956,885.185 2098.956,896.409 2098.956,907.632 2098.956,918.855 2098.956,930.079 2098.956,941.302 2098.956,952.525 2098.956,963.749 2098.956,974.972 2098.956,986.195 2098.956,997.419 2098.956,1008.642 2098.956,1019.865 2098.956,1031.089 2098.956,1042.312 2098.956,1053.535 2098.956,1064.759 2098.956,1075.982 2098.956,1087.205 2098.956,1098.429 2098.956,1109.652 2098.956,1120.875 2098.956,1132.099 2098.956,1143.322 2098.956,1154.545 2098.956,1165.769 2098.956,1176.992 2098.956,1188.215 2098.956,1199.439 2098.956,1210.662 2098.956,1221.886 2098.956,1233.109 2098.956,1244.332 2098.956,1255.556 " />
</g>
</svg>
