<?xml version="1.0" standalone="no"?>
<svg width="2400px" height="1400px" version="1.1" xmlns="http://www.w3.org/2000/svg"
>
    <rect x="0" y="0" width="2400" height="1400" fill="#ffffff"/>
    <defs>
        <g id="dot">
            <line x1="1" y1="1" x2="0" y2="0"/>
        </g>
        <g id="cross">
            <line x1="-3" y1="0" x2="3" y2="0"/>
            <line x1="0" y1="-3" x2="0" y2="3"/>
        </g>
        <g id="square">
            <line x1="-3" y1="-3" x2="-3" y2="3"/>
            <line x1="-3" y1="3" x2="3" y2="3"/>
            <line x1="3" y1="3" x2="3" y2="-3"/>
            <line x1="3" y1="-3" x2="-3" y2="-3"/>
        </g>
        <g id="round">
            <ellipse cx="0" cy="0" rx="3" ry="3" fill="none"/>
        </g>
        <g id="triangle">
            <line x1="0" y1="-3" x2="-3" y2="3"/>
            <line x1="-3" y1="3" x2="3" y2="3"/>
            <line x1="0" y1="-3" x2="3" y2="3"/>
        </g>
    </defs>
    <line x1="661.64" y1="700" x2="1738.36" y2="700" stroke="#7f7f7f"/>
    <g>
        <title>element</title>
        <g>
            <line x1="1043.254" y1="519.001" x2="1043.254" y2="338.003" stroke="#7f7fff"/>
            <line x1="1043.254" y1="880.999" x2="1043.254" y2="1061.997" stroke="#7f7fff"/>
        </g>
        <g>
            <polyline fill="none" stroke="#7f7fff"
                      points="717.689,351.984 715.39,359.015 713.143,366.045 710.947,373.076 708.803,380.107 706.709,387.137 704.666,394.168 702.673,401.198 700.729,408.229 698.836,415.26 696.992,422.29 695.197,429.321 693.451,436.352 691.754,443.382 690.105,450.413 688.504,457.443 686.951,464.474 685.446,471.505 683.989,478.535 682.579,485.566 681.217,492.597 679.901,499.627 678.632,506.658 677.41,513.688 676.235,520.719 675.105,527.75 674.023,534.78 672.986,541.811 671.995,548.842 671.05,555.872 670.151,562.903 669.298,569.933 668.49,576.964 667.727,583.995 667.01,591.025 666.338,598.056 665.711,605.087 665.13,612.117 664.593,619.148 664.101,626.178 663.654,633.209 663.252,640.24 662.895,647.27 662.583,654.301 662.315,661.332 662.092,668.362 661.913,675.393 661.78,682.423 661.69,689.454 661.646,696.485 661.646,703.515 661.69,710.546 661.78,717.577 661.913,724.607 662.092,731.638 662.315,738.668 662.583,745.699 662.895,752.73 663.252,759.76 663.654,766.791 664.101,773.822 664.593,780.852 665.13,787.883 665.711,794.913 666.338,801.944 667.01,808.975 667.727,816.005 668.49,823.036 669.298,830.067 670.151,837.097 671.05,844.128 671.995,851.158 672.986,858.189 674.023,865.22 675.105,872.25 676.235,879.281 677.41,886.312 678.632,893.342 679.901,900.373 681.217,907.403 682.579,914.434 683.989,921.465 685.446,928.495 686.951,935.526 688.504,942.557 690.105,949.587 691.754,956.618 693.451,963.648 695.197,970.679 696.992,977.71 698.836,984.74 700.729,991.771 702.673,998.802 704.666,1005.832 706.709,1012.863 708.803,1019.893 710.947,1026.924 713.143,1033.955 715.39,1040.985 717.689,1048.016 "/>
            <line x1="717.689" y1="351.984" x2="740.639" y2="351.984" stroke="#7f7fff"/>
            <line x1="717.689" y1="1048.016" x2="740.639" y2="1048.016" stroke="#7f7fff"/>
            <polyline fill="none" stroke="#7f7fff"
                      points="740.639,351.984 739.778,359.015 738.934,366.045 738.109,373.076 737.301,380.107 736.51,387.137 735.738,394.168 734.983,401.198 734.246,408.229 733.527,415.26 732.826,422.29 732.142,429.321 731.476,436.352 730.828,443.382 730.197,450.413 729.584,457.443 728.988,464.474 728.411,471.505 727.85,478.535 727.308,485.566 726.783,492.597 726.276,499.627 725.786,506.658 725.314,513.688 724.859,520.719 724.422,527.75 724.002,534.78 723.6,541.811 723.216,548.842 722.849,555.872 722.499,562.903 722.168,569.933 721.853,576.964 721.556,583.995 721.277,591.025 721.015,598.056 720.77,605.087 720.543,612.117 720.334,619.148 720.142,626.178 719.967,633.209 719.81,640.24 719.671,647.27 719.549,654.301 719.444,661.332 719.357,668.362 719.287,675.393 719.234,682.423 719.2,689.454 719.182,696.485 719.182,703.515 719.2,710.546 719.234,717.577 719.287,724.607 719.357,731.638 719.444,738.668 719.549,745.699 719.671,752.73 719.81,759.76 719.967,766.791 720.142,773.822 720.334,780.852 720.543,787.883 720.77,794.913 721.015,801.944 721.277,808.975 721.556,816.005 721.853,823.036 722.168,830.067 722.499,837.097 722.849,844.128 723.216,851.158 723.6,858.189 724.002,865.22 724.422,872.25 724.859,879.281 725.314,886.312 725.786,893.342 726.276,900.373 726.783,907.403 727.308,914.434 727.85,921.465 728.411,928.495 728.988,935.526 729.584,942.557 730.197,949.587 730.828,956.618 731.476,963.648 732.142,970.679 732.826,977.71 733.527,984.74 734.246,991.771 734.983,998.802 735.738,1005.832 736.51,1012.863 737.301,1019.893 738.109,1026.924 738.934,1033.955 739.778,1040.985 740.639,1048.016 "/>
        </g>
        <g>
            <polyline fill="none" stroke="#7f7fff"
                      points="801.382,399.802 798.035,405.866 794.777,411.931 791.605,417.995 788.519,424.06 785.516,430.125 782.596,436.189 779.757,442.254 776.998,448.319 774.317,454.383 771.714,460.448 769.188,466.512 766.737,472.577 764.361,478.642 762.058,484.706 759.828,490.771 757.67,496.835 755.583,502.9 753.567,508.965 751.62,515.029 749.742,521.094 747.932,527.158 746.19,533.223 744.515,539.288 742.907,545.352 741.364,551.417 739.887,557.482 738.475,563.546 737.127,569.611 735.844,575.675 734.624,581.74 733.467,587.805 732.374,593.869 731.343,599.934 730.374,605.998 729.467,612.063 728.621,618.128 727.838,624.192 727.115,630.257 726.453,636.322 725.852,642.386 725.312,648.451 724.832,654.515 724.413,660.58 724.053,666.645 723.754,672.709 723.515,678.774 723.335,684.838 723.215,690.903 723.156,696.968 723.156,703.032 723.215,709.097 723.335,715.162 723.515,721.226 723.754,727.291 724.053,733.355 724.413,739.42 724.832,745.485 725.312,751.549 725.852,757.614 726.453,763.678 727.115,769.743 727.838,775.808 728.621,781.872 729.467,787.937 730.374,794.002 731.343,800.066 732.374,806.131 733.467,812.195 734.624,818.26 735.844,824.325 737.127,830.389 738.475,836.454 739.887,842.518 741.364,848.583 742.907,854.648 744.515,860.712 746.19,866.777 747.932,872.842 749.742,878.906 751.62,884.971 753.567,891.035 755.583,897.1 757.67,903.165 759.828,909.229 762.058,915.294 764.361,921.358 766.737,927.423 769.188,933.488 771.714,939.552 774.317,945.617 776.998,951.681 779.757,957.746 782.596,963.811 785.516,969.875 788.519,975.94 791.605,982.005 794.777,988.069 798.035,994.134 801.382,1000.198 "/>
            <line x1="801.382" y1="399.802" x2="821.789" y2="399.802" stroke="#7f7fff"/>
            <line x1="801.382" y1="1000.198" x2="821.789" y2="1000.198" stroke="#7f7fff"/>
            <polyline fill="none" stroke="#7f7fff"
                      points="821.789,399.802 820.059,405.866 818.367,411.931 816.713,417.995 815.097,424.06 813.519,430.125 811.977,436.189 810.473,442.254 809.006,448.319 807.576,454.383 806.183,460.448 804.826,466.512 803.505,472.577 802.221,478.642 800.974,484.706 799.762,490.771 798.586,496.835 797.446,502.9 796.342,508.965 795.273,515.029 794.24,521.094 793.242,527.158 792.28,533.223 791.352,539.288 790.46,545.352 789.603,551.417 788.781,557.482 787.993,563.546 787.24,569.611 786.523,575.675 785.839,581.74 785.19,587.805 784.576,593.869 783.996,599.934 783.451,605.998 782.94,612.063 782.463,618.128 782.021,624.192 781.612,630.257 781.238,636.322 780.898,642.386 780.592,648.451 780.32,654.515 780.083,660.58 779.879,666.645 779.709,672.709 779.573,678.774 779.471,684.838 779.403,690.903 779.369,696.968 779.369,703.032 779.403,709.097 779.471,715.162 779.573,721.226 779.709,727.291 779.879,733.355 780.083,739.42 780.32,745.485 780.592,751.549 780.898,757.614 781.238,763.678 781.612,769.743 782.021,775.808 782.463,781.872 782.94,787.937 783.451,794.002 783.996,800.066 784.576,806.131 785.19,812.195 785.839,818.26 786.523,824.325 787.24,830.389 787.993,836.454 788.781,842.518 789.603,848.583 790.46,854.648 791.352,860.712 792.28,866.777 793.242,872.842 794.24,878.906 795.273,884.971 796.342,891.035 797.446,897.1 798.586,903.165 799.762,909.229 800.974,915.294 802.221,921.358 803.505,927.423 804.826,933.488 806.183,939.552 807.576,945.617 809.006,951.681 810.473,957.746 811.977,963.811 813.519,969.875 815.097,975.94 816.713,982.005 818.367,988.069 820.059,994.134 821.789,1000.198 "/>
        </g>
        <g>
            <polyline fill="none" stroke="#7f7fff"
                      points="905.637,437.103 899.871,442.414 894.353,447.725 889.066,453.036 883.996,458.347 879.131,463.658 874.459,468.969 869.971,474.281 865.657,479.592 861.51,484.903 857.522,490.214 853.687,495.525 849.999,500.836 846.452,506.147 843.041,511.458 839.762,516.769 836.61,522.08 833.582,527.391 830.673,532.702 827.881,538.013 825.202,543.324 822.634,548.635 820.174,553.946 817.82,559.257 815.569,564.568 813.419,569.879 811.367,575.19 809.414,580.501 807.556,585.812 805.792,591.124 804.12,596.435 802.54,601.746 801.049,607.057 799.648,612.368 798.334,617.679 797.106,622.99 795.965,628.301 794.908,633.612 793.936,638.923 793.046,644.234 792.24,649.545 791.516,654.856 790.874,660.167 790.312,665.478 789.832,670.789 789.432,676.1 789.113,681.411 788.874,686.722 788.714,692.033 788.634,697.344 788.634,702.656 788.714,707.967 788.874,713.278 789.113,718.589 789.432,723.9 789.832,729.211 790.312,734.522 790.874,739.833 791.516,745.144 792.24,750.455 793.046,755.766 793.936,761.077 794.908,766.388 795.965,771.699 797.106,777.01 798.334,782.321 799.648,787.632 801.049,792.943 802.54,798.254 804.12,803.565 805.792,808.876 807.556,814.188 809.414,819.499 811.367,824.81 813.419,830.121 815.569,835.432 817.82,840.743 820.174,846.054 822.634,851.365 825.202,856.676 827.881,861.987 830.673,867.298 833.582,872.609 836.61,877.92 839.762,883.231 843.041,888.542 846.452,893.853 849.999,899.164 853.687,904.475 857.522,909.786 861.51,915.097 865.657,920.408 869.971,925.719 874.459,931.031 879.131,936.342 883.996,941.653 889.066,946.964 894.353,952.275 899.871,957.586 905.637,962.897 "/>
            <line x1="905.637" y1="437.103" x2="922.928" y2="437.103" stroke="#7f7fff"/>
            <line x1="905.637" y1="962.897" x2="922.928" y2="962.897" stroke="#7f7fff"/>
            <polyline fill="none" stroke="#7f7fff"
                      points="922.928,437.103 922.688,442.414 922.453,447.725 922.223,453.036 921.997,458.347 921.777,463.658 921.562,468.969 921.351,474.281 921.145,479.592 920.945,484.903 920.749,490.214 920.558,495.525 920.372,500.836 920.191,506.147 920.015,511.458 919.843,516.769 919.677,522.08 919.515,527.391 919.359,532.702 919.207,538.013 919.06,543.324 918.918,548.635 918.781,553.946 918.649,559.257 918.522,564.568 918.4,569.879 918.282,575.19 918.17,580.501 918.062,585.812 917.959,591.124 917.861,596.435 917.768,601.746 917.68,607.057 917.597,612.368 917.519,617.679 917.446,622.99 917.377,628.301 917.313,633.612 917.255,638.923 917.201,644.234 917.152,649.545 917.108,654.856 917.069,660.167 917.035,665.478 917.005,670.789 916.981,676.1 916.961,681.411 916.947,686.722 916.937,692.033 916.932,697.344 916.932,702.656 916.937,707.967 916.947,713.278 916.961,718.589 916.981,723.9 917.005,729.211 917.035,734.522 917.069,739.833 917.108,745.144 917.152,750.455 917.201,755.766 917.255,761.077 917.313,766.388 917.377,771.699 917.446,777.01 917.519,782.321 917.597,787.632 917.68,792.943 917.768,798.254 917.861,803.565 917.959,808.876 918.062,814.188 918.17,819.499 918.282,824.81 918.4,830.121 918.522,835.432 918.649,840.743 918.781,846.054 918.918,851.365 919.06,856.676 919.207,861.987 919.359,867.298 919.515,872.609 919.677,877.92 919.843,883.231 920.015,888.542 920.191,893.853 920.372,899.164 920.558,904.475 920.749,909.786 920.945,915.097 921.145,920.408 921.351,925.719 921.562,931.031 921.777,936.342 921.997,941.653 922.223,946.964 922.453,952.275 922.688,957.586 922.928,962.897 "/>
            <line x1="1040.204" y1="437.103" x2="1040.204" y2="518.042" stroke="#7f7fff"/>
            <line x1="922.928" y1="437.103" x2="1040.204" y2="437.103" stroke="#7f7fff"/>
            <line x1="1040.204" y1="962.897" x2="1040.204" y2="881.958" stroke="#7f7fff"/>
            <line x1="922.928" y1="962.897" x2="1040.204" y2="962.897" stroke="#7f7fff"/>
            <polyline fill="none" stroke="#7f7fff"
                      points="1040.204,518.042 1034.978,521.718 1030.056,525.394 1025.405,529.07 1021,532.746 1016.817,536.422 1012.839,540.098 1009.05,543.774 1005.436,547.45 1001.986,551.126 998.689,554.801 995.537,558.477 992.521,562.153 989.635,565.829 986.871,569.505 984.225,573.181 981.692,576.857 979.266,580.533 976.943,584.209 974.72,587.885 972.594,591.561 970.561,595.236 968.617,598.912 966.762,602.588 964.991,606.264 963.303,609.94 961.696,613.616 960.168,617.292 958.716,620.968 957.341,624.644 956.039,628.32 954.81,631.996 953.652,635.672 952.564,639.347 951.545,643.023 950.595,646.699 949.711,650.375 948.894,654.051 948.143,657.727 947.456,661.403 946.834,665.079 946.275,668.755 945.78,672.431 945.348,676.107 944.978,679.782 944.67,683.458 944.424,687.134 944.239,690.81 944.117,694.486 944.055,698.162 944.055,701.838 944.117,705.514 944.239,709.19 944.424,712.866 944.67,716.542 944.978,720.218 945.348,723.893 945.78,727.569 946.275,731.245 946.834,734.921 947.456,738.597 948.143,742.273 948.894,745.949 949.711,749.625 950.595,753.301 951.545,756.977 952.564,760.653 953.652,764.328 954.81,768.004 956.039,771.68 957.341,775.356 958.716,779.032 960.168,782.708 961.696,786.384 963.303,790.06 964.991,793.736 966.762,797.412 968.617,801.088 970.561,804.764 972.594,808.439 974.72,812.115 976.943,815.791 979.266,819.467 981.692,823.143 984.225,826.819 986.871,830.495 989.635,834.171 992.521,837.847 995.537,841.523 998.689,845.199 1001.986,848.874 1005.436,852.55 1009.05,856.226 1012.839,859.902 1016.817,863.578 1021,867.254 1025.405,870.93 1030.056,874.606 1034.978,878.282 1040.204,881.958 "/>
        </g>
        <g>
            <polyline fill="none" stroke="#7f7fff"
                      points="1045.234,519.418 1048.229,523.066 1051.123,526.714 1053.921,530.362 1056.627,534.01 1059.242,537.659 1061.771,541.307 1064.217,544.955 1066.581,548.603 1068.866,552.251 1071.075,555.899 1073.21,559.547 1075.272,563.195 1077.263,566.844 1079.185,570.492 1081.04,574.14 1082.829,577.788 1084.553,581.436 1086.214,585.084 1087.812,588.732 1089.35,592.38 1090.828,596.029 1092.248,599.677 1093.609,603.325 1094.913,606.973 1096.161,610.621 1097.354,614.269 1098.492,617.917 1099.577,621.565 1100.607,625.214 1101.585,628.862 1102.511,632.51 1103.386,636.158 1104.209,639.806 1104.982,643.454 1105.704,647.102 1106.376,650.75 1106.999,654.398 1107.573,658.047 1108.098,661.695 1108.575,665.343 1109.003,668.991 1109.383,672.639 1109.715,676.287 1109.999,679.935 1110.236,683.583 1110.425,687.232 1110.567,690.88 1110.661,694.528 1110.708,698.176 1110.708,701.824 1110.661,705.472 1110.567,709.12 1110.425,712.768 1110.236,716.417 1109.999,720.065 1109.715,723.713 1109.383,727.361 1109.003,731.009 1108.575,734.657 1108.098,738.305 1107.573,741.953 1106.999,745.602 1106.376,749.25 1105.704,752.898 1104.982,756.546 1104.209,760.194 1103.386,763.842 1102.511,767.49 1101.585,771.138 1100.607,774.786 1099.577,778.435 1098.492,782.083 1097.354,785.731 1096.161,789.379 1094.913,793.027 1093.609,796.675 1092.248,800.323 1090.828,803.971 1089.35,807.62 1087.812,811.268 1086.214,814.916 1084.553,818.564 1082.829,822.212 1081.04,825.86 1079.185,829.508 1077.263,833.156 1075.272,836.805 1073.21,840.453 1071.075,844.101 1068.866,847.749 1066.581,851.397 1064.217,855.045 1061.771,858.693 1059.242,862.341 1056.627,865.99 1053.921,869.638 1051.123,873.286 1048.229,876.934 1045.234,880.582 "/>
            <line x1="1045.234" y1="489.087" x2="1045.234" y2="519.418" stroke="#7f7fff"/>
            <line x1="1045.234" y1="489.087" x2="1171.563" y2="489.087" stroke="#7f7fff"/>
            <line x1="1045.234" y1="910.913" x2="1045.234" y2="880.582" stroke="#7f7fff"/>
            <line x1="1045.234" y1="910.913" x2="1171.563" y2="910.913" stroke="#7f7fff"/>
            <polyline fill="none" stroke="#7f7fff"
                      points="1171.563,489.087 1170.544,493.348 1169.547,497.609 1168.571,501.87 1167.618,506.131 1166.686,510.392 1165.776,514.652 1164.887,518.913 1164.02,523.174 1163.175,527.435 1162.351,531.696 1161.548,535.957 1160.766,540.218 1160.006,544.479 1159.267,548.739 1158.549,553 1157.852,557.261 1157.176,561.522 1156.521,565.783 1155.887,570.044 1155.274,574.305 1154.682,578.565 1154.11,582.826 1153.56,587.087 1153.03,591.348 1152.52,595.609 1152.032,599.87 1151.564,604.131 1151.116,608.391 1150.689,612.652 1150.283,616.913 1149.897,621.174 1149.531,625.435 1149.186,629.696 1148.862,633.957 1148.558,638.217 1148.274,642.478 1148.01,646.739 1147.767,651 1147.544,655.261 1147.342,659.522 1147.16,663.783 1146.998,668.044 1146.856,672.304 1146.735,676.565 1146.633,680.826 1146.552,685.087 1146.492,689.348 1146.451,693.609 1146.431,697.87 1146.431,702.13 1146.451,706.391 1146.492,710.652 1146.552,714.913 1146.633,719.174 1146.735,723.435 1146.856,727.696 1146.998,731.956 1147.16,736.217 1147.342,740.478 1147.544,744.739 1147.767,749 1148.01,753.261 1148.274,757.522 1148.558,761.783 1148.862,766.043 1149.186,770.304 1149.531,774.565 1149.897,778.826 1150.283,783.087 1150.689,787.348 1151.116,791.609 1151.564,795.869 1152.032,800.13 1152.52,804.391 1153.03,808.652 1153.56,812.913 1154.11,817.174 1154.682,821.435 1155.274,825.695 1155.887,829.956 1156.521,834.217 1157.176,838.478 1157.852,842.739 1158.549,847 1159.267,851.261 1160.006,855.521 1160.766,859.782 1161.548,864.043 1162.351,868.304 1163.175,872.565 1164.02,876.826 1164.887,881.087 1165.776,885.348 1166.686,889.608 1167.618,893.869 1168.571,898.13 1169.547,902.391 1170.544,906.652 1171.563,910.913 "/>
            <line x1="1171.563" y1="489.087" x2="1218.954" y2="489.087" stroke="#7f7fff"/>
            <line x1="1171.563" y1="910.913" x2="1218.954" y2="910.913" stroke="#7f7fff"/>
            <polyline fill="none" stroke="#7f7fff"
                      points="1218.954,489.087 1221.712,493.348 1224.39,497.609 1226.992,501.87 1229.519,506.131 1231.973,510.392 1234.354,514.652 1236.665,518.913 1238.908,523.174 1241.083,527.435 1243.192,531.696 1245.235,535.957 1247.215,540.218 1249.132,544.479 1250.987,548.739 1252.781,553 1254.516,557.261 1256.191,561.522 1257.808,565.783 1259.368,570.044 1260.871,574.305 1262.318,578.565 1263.71,582.826 1265.047,587.087 1266.33,591.348 1267.559,595.609 1268.735,599.87 1269.859,604.131 1270.931,608.391 1271.951,612.652 1272.92,616.913 1273.839,621.174 1274.707,625.435 1275.524,629.696 1276.293,633.957 1277.011,638.217 1277.681,642.478 1278.302,646.739 1278.874,651 1279.397,655.261 1279.873,659.522 1280.3,663.783 1280.679,668.044 1281.011,672.304 1281.295,676.565 1281.532,680.826 1281.721,685.087 1281.863,689.348 1281.957,693.609 1282.005,697.87 1282.005,702.13 1281.957,706.391 1281.863,710.652 1281.721,714.913 1281.532,719.174 1281.295,723.435 1281.011,727.696 1280.679,731.956 1280.3,736.217 1279.873,740.478 1279.397,744.739 1278.874,749 1278.302,753.261 1277.681,757.522 1277.011,761.783 1276.293,766.043 1275.524,770.304 1274.707,774.565 1273.839,778.826 1272.92,783.087 1271.951,787.348 1270.931,791.609 1269.859,795.869 1268.735,800.13 1267.559,804.391 1266.33,808.652 1265.047,812.913 1263.71,817.174 1262.318,821.435 1260.871,825.695 1259.368,829.956 1257.808,834.217 1256.191,838.478 1254.516,842.739 1252.781,847 1250.987,851.261 1249.132,855.521 1247.215,859.782 1245.235,864.043 1243.192,868.304 1241.083,872.565 1238.908,876.826 1236.665,881.087 1234.354,885.348 1231.973,889.608 1229.519,893.869 1226.992,898.13 1224.39,902.391 1221.712,906.652 1218.954,910.913 "/>
        </g>
        <g>
            <polyline fill="none" stroke="#7f7fff"
                      points="1315.934,487.434 1314.713,491.728 1313.518,496.022 1312.35,500.317 1311.209,504.611 1310.095,508.905 1309.006,513.199 1307.944,517.494 1306.909,521.788 1305.899,526.082 1304.915,530.377 1303.957,534.671 1303.025,538.965 1302.118,543.259 1301.237,547.554 1300.382,551.848 1299.551,556.142 1298.746,560.436 1297.967,564.731 1297.212,569.025 1296.482,573.319 1295.778,577.613 1295.098,581.908 1294.443,586.202 1293.813,590.496 1293.208,594.79 1292.628,599.085 1292.072,603.379 1291.54,607.673 1291.033,611.968 1290.551,616.262 1290.092,620.556 1289.659,624.85 1289.249,629.145 1288.864,633.439 1288.503,637.733 1288.167,642.027 1287.854,646.322 1287.566,650.616 1287.302,654.91 1287.061,659.204 1286.845,663.499 1286.653,667.793 1286.485,672.087 1286.342,676.382 1286.222,680.676 1286.126,684.97 1286.054,689.264 1286.006,693.559 1285.982,697.853 1285.982,702.147 1286.006,706.441 1286.054,710.736 1286.126,715.03 1286.222,719.324 1286.342,723.618 1286.485,727.913 1286.653,732.207 1286.845,736.501 1287.061,740.796 1287.302,745.09 1287.566,749.384 1287.854,753.678 1288.167,757.973 1288.503,762.267 1288.864,766.561 1289.249,770.855 1289.659,775.15 1290.092,779.444 1290.551,783.738 1291.033,788.032 1291.54,792.327 1292.072,796.621 1292.628,800.915 1293.208,805.21 1293.813,809.504 1294.443,813.798 1295.098,818.092 1295.778,822.387 1296.482,826.681 1297.212,830.975 1297.967,835.269 1298.746,839.564 1299.551,843.858 1300.382,848.152 1301.237,852.446 1302.118,856.741 1303.025,861.035 1303.957,865.329 1304.915,869.623 1305.899,873.918 1306.909,878.212 1307.944,882.506 1309.006,886.801 1310.095,891.095 1311.209,895.389 1312.35,899.683 1313.518,903.978 1314.713,908.272 1315.934,912.566 "/>
            <line x1="1315.934" y1="487.434" x2="1358.73" y2="487.434" stroke="#7f7fff"/>
            <line x1="1315.934" y1="912.566" x2="1358.73" y2="912.566" stroke="#7f7fff"/>
            <polyline fill="none" stroke="#7f7fff"
                      points="1358.73,487.434 1358.73,491.728 1358.73,496.022 1358.73,500.317 1358.73,504.611 1358.73,508.905 1358.73,513.199 1358.73,517.494 1358.73,521.788 1358.73,526.082 1358.73,530.377 1358.73,534.671 1358.73,538.965 1358.73,543.259 1358.73,547.554 1358.73,551.848 1358.73,556.142 1358.73,560.436 1358.73,564.731 1358.73,569.025 1358.73,573.319 1358.73,577.613 1358.73,581.908 1358.73,586.202 1358.73,590.496 1358.73,594.79 1358.73,599.085 1358.73,603.379 1358.73,607.673 1358.73,611.968 1358.73,616.262 1358.73,620.556 1358.73,624.85 1358.73,629.145 1358.73,633.439 1358.73,637.733 1358.73,642.027 1358.73,646.322 1358.73,650.616 1358.73,654.91 1358.73,659.204 1358.73,663.499 1358.73,667.793 1358.73,672.087 1358.73,676.382 1358.73,680.676 1358.73,684.97 1358.73,689.264 1358.73,693.559 1358.73,697.853 1358.73,702.147 1358.73,706.441 1358.73,710.736 1358.73,715.03 1358.73,719.324 1358.73,723.618 1358.73,727.913 1358.73,732.207 1358.73,736.501 1358.73,740.796 1358.73,745.09 1358.73,749.384 1358.73,753.678 1358.73,757.973 1358.73,762.267 1358.73,766.561 1358.73,770.855 1358.73,775.15 1358.73,779.444 1358.73,783.738 1358.73,788.032 1358.73,792.327 1358.73,796.621 1358.73,800.915 1358.73,805.21 1358.73,809.504 1358.73,813.798 1358.73,818.092 1358.73,822.387 1358.73,826.681 1358.73,830.975 1358.73,835.269 1358.73,839.564 1358.73,843.858 1358.73,848.152 1358.73,852.446 1358.73,856.741 1358.73,861.035 1358.73,865.329 1358.73,869.623 1358.73,873.918 1358.73,878.212 1358.73,882.506 1358.73,886.801 1358.73,891.095 1358.73,895.389 1358.73,899.683 1358.73,903.978 1358.73,908.272 1358.73,912.566 "/>
        </g>
        <g>
            <polyline fill="none" stroke="#7f7fff"
                      points="1387.884,483.73 1386.864,488.099 1385.865,492.468 1384.888,496.837 1383.933,501.207 1383,505.576 1382.088,509.945 1381.198,514.314 1380.33,518.683 1379.483,523.052 1378.657,527.421 1377.853,531.79 1377.069,536.159 1376.308,540.528 1375.567,544.897 1374.848,549.266 1374.149,553.636 1373.472,558.005 1372.816,562.374 1372.18,566.743 1371.566,571.112 1370.972,575.481 1370.399,579.85 1369.847,584.219 1369.316,588.588 1368.806,592.957 1368.316,597.326 1367.847,601.696 1367.398,606.065 1366.97,610.434 1366.563,614.803 1366.176,619.172 1365.809,623.541 1365.463,627.91 1365.138,632.279 1364.833,636.648 1364.549,641.017 1364.284,645.386 1364.041,649.755 1363.817,654.125 1363.614,658.494 1363.431,662.863 1363.269,667.232 1363.127,671.601 1363.005,675.97 1362.904,680.339 1362.823,684.708 1362.762,689.077 1362.721,693.446 1362.701,697.815 1362.701,702.185 1362.721,706.554 1362.762,710.923 1362.823,715.292 1362.904,719.661 1363.005,724.03 1363.127,728.399 1363.269,732.768 1363.431,737.137 1363.614,741.506 1363.817,745.875 1364.041,750.245 1364.284,754.614 1364.549,758.983 1364.833,763.352 1365.138,767.721 1365.463,772.09 1365.809,776.459 1366.176,780.828 1366.563,785.197 1366.97,789.566 1367.398,793.935 1367.847,798.304 1368.316,802.674 1368.806,807.043 1369.316,811.412 1369.847,815.781 1370.399,820.15 1370.972,824.519 1371.566,828.888 1372.18,833.257 1372.816,837.626 1373.472,841.995 1374.149,846.364 1374.848,850.734 1375.567,855.103 1376.308,859.472 1377.069,863.841 1377.853,868.21 1378.657,872.579 1379.483,876.948 1380.33,881.317 1381.198,885.686 1382.088,890.055 1383,894.424 1383.933,898.793 1384.888,903.163 1385.865,907.532 1386.864,911.901 1387.884,916.27 "/>
            <line x1="1387.884" y1="483.73" x2="1419.472" y2="483.73" stroke="#7f7fff"/>
            <line x1="1387.884" y1="916.27" x2="1419.472" y2="916.27" stroke="#7f7fff"/>
            <polyline fill="none" stroke="#7f7fff"
                      points="1419.472,483.73 1417.924,488.099 1416.411,492.468 1414.933,496.837 1413.49,501.207 1412.082,505.576 1410.708,509.945 1409.368,514.314 1408.063,518.683 1406.791,523.052 1405.552,527.421 1404.347,531.79 1403.175,536.159 1402.036,540.528 1400.93,544.897 1399.857,549.266 1398.816,553.636 1397.807,558.005 1396.83,562.374 1395.886,566.743 1394.973,571.112 1394.091,575.481 1393.242,579.85 1392.424,584.219 1391.637,588.588 1390.881,592.957 1390.156,597.326 1389.463,601.696 1388.8,606.065 1388.168,610.434 1387.567,614.803 1386.996,619.172 1386.456,623.541 1385.946,627.91 1385.466,632.279 1385.017,636.648 1384.598,641.017 1384.21,645.386 1383.851,649.755 1383.522,654.125 1383.224,658.494 1382.955,662.863 1382.717,667.232 1382.508,671.601 1382.329,675.97 1382.18,680.339 1382.061,684.708 1381.971,689.077 1381.912,693.446 1381.882,697.815 1381.882,702.185 1381.912,706.554 1381.971,710.923 1382.061,715.292 1382.18,719.661 1382.329,724.03 1382.508,728.399 1382.717,732.768 1382.955,737.137 1383.224,741.506 1383.522,745.875 1383.851,750.245 1384.21,754.614 1384.598,758.983 1385.017,763.352 1385.466,767.721 1385.946,772.09 1386.456,776.459 1386.996,780.828 1387.567,785.197 1388.168,789.566 1388.8,793.935 1389.463,798.304 1390.156,802.674 1390.881,807.043 1391.637,811.412 1392.424,815.781 1393.242,820.15 1394.091,824.519 1394.973,828.888 1395.886,833.257 1396.83,837.626 1397.807,841.995 1398.816,846.364 1399.857,850.734 1400.93,855.103 1402.036,859.472 1403.175,863.841 1404.347,868.21 1405.552,872.579 1406.791,876.948 1408.063,881.317 1409.368,885.686 1410.708,890.055 1412.082,894.424 1413.49,898.793 1414.933,903.163 1416.411,907.532 1417.924,911.901 1419.472,916.27 "/>
            <line x1="1419.472" y1="483.73" x2="1440.3" y2="483.73" stroke="#7f7fff"/>
            <line x1="1419.472" y1="916.27" x2="1440.3" y2="916.27" stroke="#7f7fff"/>
            <polyline fill="none" stroke="#7f7fff"
                      points="1440.3,483.73 1440.026,488.099 1439.758,492.468 1439.496,496.837 1439.239,501.207 1438.988,505.576 1438.742,509.945 1438.502,514.314 1438.268,518.683 1438.039,523.052 1437.816,527.421 1437.598,531.79 1437.386,536.159 1437.18,540.528 1436.979,544.897 1436.784,549.266 1436.594,553.636 1436.41,558.005 1436.232,562.374 1436.059,566.743 1435.891,571.112 1435.73,575.481 1435.574,579.85 1435.423,584.219 1435.278,588.588 1435.139,592.957 1435.005,597.326 1434.877,601.696 1434.754,606.065 1434.637,610.434 1434.525,614.803 1434.419,619.172 1434.319,623.541 1434.224,627.91 1434.135,632.279 1434.052,636.648 1433.973,641.017 1433.901,645.386 1433.834,649.755 1433.773,654.125 1433.717,658.494 1433.667,662.863 1433.622,667.232 1433.583,671.601 1433.55,675.97 1433.522,680.339 1433.5,684.708 1433.483,689.077 1433.472,693.446 1433.466,697.815 1433.466,702.185 1433.472,706.554 1433.483,710.923 1433.5,715.292 1433.522,719.661 1433.55,724.03 1433.583,728.399 1433.622,732.768 1433.667,737.137 1433.717,741.506 1433.773,745.875 1433.834,750.245 1433.901,754.614 1433.973,758.983 1434.052,763.352 1434.135,767.721 1434.224,772.09 1434.319,776.459 1434.419,780.828 1434.525,785.197 1434.637,789.566 1434.754,793.935 1434.877,798.304 1435.005,802.674 1435.139,807.043 1435.278,811.412 1435.423,815.781 1435.574,820.15 1435.73,824.519 1435.891,828.888 1436.059,833.257 1436.232,837.626 1436.41,841.995 1436.594,846.364 1436.784,850.734 1436.979,855.103 1437.18,859.472 1437.386,863.841 1437.598,868.21 1437.816,872.579 1438.039,876.948 1438.268,881.317 1438.502,885.686 1438.742,890.055 1438.988,894.424 1439.239,898.793 1439.496,903.163 1439.758,907.532 1440.026,911.901 1440.3,916.27 "/>
        </g>
    </g>
    <g>
        <title>element</title>
        <polyline fill="none" stroke="#7f7fff"
                  points="1738.36,144.444 1738.36,155.668 1738.36,166.891 1738.36,178.114 1738.36,189.338 1738.36,200.561 1738.36,211.785 1738.36,223.008 1738.36,234.231 1738.36,245.455 1738.36,256.678 1738.36,267.901 1738.36,279.125 1738.36,290.348 1738.36,301.571 1738.36,312.795 1738.36,324.018 1738.36,335.241 1738.36,346.465 1738.36,357.688 1738.36,368.911 1738.36,380.135 1738.36,391.358 1738.36,402.581 1738.36,413.805 1738.36,425.028 1738.36,436.251 1738.36,447.475 1738.36,458.698 1738.36,469.921 1738.36,481.145 1738.36,492.368 1738.36,503.591 1738.36,514.815 1738.36,526.038 1738.36,537.262 1738.36,548.485 1738.36,559.708 1738.36,570.932 1738.36,582.155 1738.36,593.378 1738.36,604.602 1738.36,615.825 1738.36,627.048 1738.36,638.272 1738.36,649.495 1738.36,660.718 1738.36,671.942 1738.36,683.165 1738.36,694.388 1738.36,705.612 1738.36,716.835 1738.36,728.058 1738.36,739.282 1738.36,750.505 1738.36,761.728 1738.36,772.952 1738.36,784.175 1738.36,795.398 1738.36,806.622 1738.36,817.845 1738.36,829.068 1738.36,840.292 1738.36,851.515 1738.36,862.738 1738.36,873.962 1738.36,885.185 1738.36,896.409 1738.36,907.632 1738.36,918.855 1738.36,930.079 1738.36,941.302 1738.36,952.525 1738.36,963.749 1738.36,974.972 1738.36,986.195 1738.36,997.419 1738.36,1008.642 1738.36,1019.865 1738.36,1031.089 1738.36,1042.312 1738.36,1053.535 1738.36,1064.759 1738.36,1075.982 1738.36,1087.205 1738.36,1098.429 1738.36,1109.652 1738.36,1120.875 1738.36,1132.099 1738.36,1143.322 1738.36,1154.545 1738.36,1165.769 1738.36,1176.992 1738.36,1188.215 1738.36,1199.439 1738.36,1210.662 1738.36,1221.886 1738.36,1233.109 1738.36,1244.332 1738.36,1255.556 "/>
    </g>
</svg>
