<?xml version="1.0" standalone="no"?>
<svg width="2400px" height="1400px" version="1.1" xmlns="http://www.w3.org/2000/svg"
>
    <rect x="0" y="0" width="2400" height="1400" fill="#ffffff"/>
    <defs>
        <g id="dot">
            <line x1="1" y1="1" x2="0" y2="0"/>
        </g>
        <g id="cross">
            <line x1="-3" y1="0" x2="3" y2="0"/>
            <line x1="0" y1="-3" x2="0" y2="3"/>
        </g>
        <g id="square">
            <line x1="-3" y1="-3" x2="-3" y2="3"/>
            <line x1="-3" y1="3" x2="3" y2="3"/>
            <line x1="3" y1="3" x2="3" y2="-3"/>
            <line x1="3" y1="-3" x2="-3" y2="-3"/>
        </g>
        <g id="round">
            <ellipse cx="0" cy="0" rx="3" ry="3" fill="none"/>
        </g>
        <g id="triangle">
            <line x1="0" y1="-3" x2="-3" y2="3"/>
            <line x1="-3" y1="3" x2="3" y2="3"/>
            <line x1="0" y1="-3" x2="3" y2="3"/>
        </g>
    </defs>
    <line x1="487.521" y1="700" x2="1912.479" y2="700" stroke="#7f7f7f"/>
    <g>
        <title>element</title>
        <g>
            <line x1="976.199" y1="501.865" x2="976.199" y2="303.73" stroke="#7f7fff"/>
            <line x1="976.199" y1="898.135" x2="976.199" y2="1096.27" stroke="#7f7fff"/>
        </g>
        <g>
            <polyline fill="none" stroke="#7f7fff"
                      points="517.893,436.856 516.82,442.172 515.757,447.488 514.703,452.804 513.661,458.12 512.631,463.436 511.614,468.752 510.61,474.068 509.621,479.384 508.646,484.7 507.687,490.016 506.745,495.332 505.82,500.648 504.912,505.964 504.023,511.28 503.153,516.596 502.302,521.912 501.47,527.228 500.66,532.544 499.87,537.861 499.101,543.177 498.354,548.493 497.63,553.809 496.928,559.125 496.249,564.441 495.593,569.757 494.961,575.073 494.353,580.389 493.77,585.705 493.211,591.021 492.677,596.337 492.168,601.653 491.684,606.969 491.227,612.285 490.795,617.601 490.389,622.917 490.009,628.233 489.656,633.549 489.33,638.865 489.03,644.181 488.757,649.498 488.511,654.814 488.292,660.13 488.1,665.446 487.936,670.762 487.799,676.078 487.689,681.394 487.606,686.71 487.551,692.026 487.524,697.342 487.524,702.658 487.551,707.974 487.606,713.29 487.689,718.606 487.799,723.922 487.936,729.238 488.1,734.554 488.292,739.87 488.511,745.186 488.757,750.502 489.03,755.819 489.33,761.135 489.656,766.451 490.009,771.767 490.389,777.083 490.795,782.399 491.227,787.715 491.684,793.031 492.168,798.347 492.677,803.663 493.211,808.979 493.77,814.295 494.353,819.611 494.961,824.927 495.593,830.243 496.249,835.559 496.928,840.875 497.63,846.191 498.354,851.507 499.101,856.823 499.87,862.139 500.66,867.456 501.47,872.772 502.302,878.088 503.153,883.404 504.023,888.72 504.912,894.036 505.82,899.352 506.745,904.668 507.687,909.984 508.646,915.3 509.621,920.616 510.61,925.932 511.614,931.248 512.631,936.564 513.661,941.88 514.703,947.196 515.757,952.512 516.82,957.828 517.893,963.144 "/>
            <line x1="517.893" y1="436.856" x2="571.189" y2="436.856" stroke="#7f7fff"/>
            <line x1="517.893" y1="963.144" x2="571.189" y2="963.144" stroke="#7f7fff"/>
            <polyline fill="none" stroke="#7f7fff"
                      points="571.189,436.856 572.845,442.172 574.464,447.488 576.046,452.804 577.591,458.12 579.1,463.436 580.573,468.752 582.01,474.068 583.412,479.384 584.777,484.7 586.108,490.016 587.403,495.332 588.663,500.648 589.887,505.964 591.078,511.28 592.233,516.596 593.354,521.912 594.441,527.228 595.493,532.544 596.511,537.861 597.496,543.177 598.446,548.493 599.363,553.809 600.246,559.125 601.095,564.441 601.911,569.757 602.694,575.073 603.443,580.389 604.159,585.705 604.842,591.021 605.492,596.337 606.109,601.653 606.694,606.969 607.245,612.285 607.764,617.601 608.25,622.917 608.703,628.233 609.124,633.549 609.512,638.865 609.867,644.181 610.191,649.498 610.481,654.814 610.74,660.13 610.966,665.446 611.16,670.762 611.321,676.078 611.45,681.394 611.547,686.71 611.611,692.026 611.644,697.342 611.644,702.658 611.611,707.974 611.547,713.29 611.45,718.606 611.321,723.922 611.16,729.238 610.966,734.554 610.74,739.87 610.481,745.186 610.191,750.502 609.867,755.819 609.512,761.135 609.124,766.451 608.703,771.767 608.25,777.083 607.764,782.399 607.245,787.715 606.694,793.031 606.109,798.347 605.492,803.663 604.842,808.979 604.159,814.295 603.443,819.611 602.694,824.927 601.911,830.243 601.095,835.559 600.246,840.875 599.363,846.191 598.446,851.507 597.496,856.823 596.511,862.139 595.493,867.456 594.441,872.772 593.354,878.088 592.233,883.404 591.078,888.72 589.887,894.036 588.663,899.352 587.403,904.668 586.108,909.984 584.777,915.3 583.412,920.616 582.01,925.932 580.573,931.248 579.1,936.564 577.591,941.88 576.046,947.196 574.464,952.512 572.845,957.828 571.189,963.144 "/>
            <line x1="678.765" y1="436.856" x2="678.765" y2="454.249" stroke="#7f7fff"/>
            <line x1="571.189" y1="436.856" x2="678.765" y2="436.856" stroke="#7f7fff"/>
            <line x1="678.765" y1="963.144" x2="678.765" y2="945.751" stroke="#7f7fff"/>
            <line x1="571.189" y1="963.144" x2="678.765" y2="963.144" stroke="#7f7fff"/>
            <polyline fill="none" stroke="#7f7fff"
                      points="678.765,454.249 676.858,459.213 674.996,464.178 673.178,469.143 671.403,474.108 669.672,479.072 667.984,484.037 666.338,489.002 664.735,493.966 663.174,498.931 661.654,503.896 660.176,508.86 658.739,513.825 657.343,518.79 655.988,523.754 654.672,528.719 653.397,533.684 652.162,538.648 650.966,543.613 649.81,548.578 648.693,553.542 647.615,558.507 646.576,563.472 645.576,568.436 644.614,573.401 643.69,578.366 642.805,583.33 641.957,588.295 641.147,593.26 640.375,598.224 639.641,603.189 638.944,608.154 638.284,613.118 637.662,618.083 637.077,623.048 636.529,628.012 636.017,632.977 635.543,637.942 635.105,642.906 634.705,647.871 634.34,652.836 634.013,657.8 633.722,662.765 633.467,667.73 633.249,672.694 633.067,677.659 632.922,682.624 632.813,687.588 632.74,692.553 632.704,697.518 632.704,702.482 632.74,707.447 632.813,712.412 632.922,717.376 633.067,722.341 633.249,727.306 633.467,732.27 633.722,737.235 634.013,742.2 634.34,747.164 634.705,752.129 635.105,757.094 635.543,762.058 636.017,767.023 636.529,771.988 637.077,776.952 637.662,781.917 638.284,786.882 638.944,791.846 639.641,796.811 640.375,801.776 641.147,806.74 641.957,811.705 642.805,816.67 643.69,821.634 644.614,826.599 645.576,831.564 646.576,836.528 647.615,841.493 648.693,846.458 649.81,851.422 650.966,856.387 652.162,861.352 653.397,866.316 654.672,871.281 655.988,876.246 657.343,881.21 658.739,886.175 660.176,891.14 661.654,896.104 663.174,901.069 664.735,906.034 666.338,910.998 667.984,915.963 669.672,920.928 671.403,925.892 673.178,930.857 674.996,935.822 676.858,940.787 678.765,945.751 "/>
        </g>
        <g>
            <polyline fill="none" stroke="#7f7fff"
                      points="694.605,453.543 692.092,458.522 689.643,463.501 687.257,468.48 684.933,473.459 682.67,478.437 680.468,483.416 678.324,488.395 676.24,493.374 674.213,498.353 672.244,503.332 670.331,508.311 668.474,513.29 666.673,518.269 664.927,523.248 663.234,528.227 661.595,533.206 660.01,538.185 658.477,543.164 656.996,548.143 655.567,553.121 654.19,558.1 652.863,563.079 651.587,568.058 650.361,573.037 649.185,578.016 648.059,582.995 646.982,587.974 645.953,592.953 644.973,597.932 644.042,602.911 643.158,607.89 642.323,612.869 641.535,617.848 640.794,622.827 640.101,627.805 639.454,632.784 638.855,637.763 638.302,642.742 637.796,647.721 637.336,652.7 636.923,657.679 636.556,662.658 636.234,667.637 635.959,672.616 635.73,677.595 635.547,682.574 635.41,687.553 635.318,692.532 635.272,697.511 635.272,702.489 635.318,707.468 635.41,712.447 635.547,717.426 635.73,722.405 635.959,727.384 636.234,732.363 636.556,737.342 636.923,742.321 637.336,747.3 637.796,752.279 638.302,757.258 638.855,762.237 639.454,767.216 640.101,772.195 640.794,777.173 641.535,782.152 642.323,787.131 643.158,792.11 644.042,797.089 644.973,802.068 645.953,807.047 646.982,812.026 648.059,817.005 649.185,821.984 650.361,826.963 651.587,831.942 652.863,836.921 654.19,841.9 655.567,846.879 656.996,851.857 658.477,856.836 660.01,861.815 661.595,866.794 663.234,871.773 664.927,876.752 666.673,881.731 668.474,886.71 670.331,891.689 672.244,896.668 674.213,901.647 676.24,906.626 678.324,911.605 680.468,916.584 682.67,921.563 684.933,926.541 687.257,931.52 689.643,936.499 692.092,941.478 694.605,946.457 "/>
            <line x1="694.605" y1="453.543" x2="732.096" y2="453.543" stroke="#7f7fff"/>
            <line x1="694.605" y1="946.457" x2="732.096" y2="946.457" stroke="#7f7fff"/>
            <polyline fill="none" stroke="#7f7fff"
                      points="732.096,453.543 732.058,458.522 732.022,463.501 731.985,468.48 731.95,473.459 731.915,478.437 731.882,483.416 731.848,488.395 731.816,493.374 731.785,498.353 731.754,503.332 731.724,508.311 731.695,513.29 731.666,518.269 731.638,523.248 731.612,528.227 731.585,533.206 731.56,538.185 731.535,543.164 731.512,548.143 731.488,553.121 731.466,558.1 731.445,563.079 731.424,568.058 731.404,573.037 731.385,578.016 731.366,582.995 731.348,587.974 731.332,592.953 731.315,597.932 731.3,602.911 731.285,607.89 731.272,612.869 731.258,617.848 731.246,622.827 731.235,627.805 731.224,632.784 731.214,637.763 731.205,642.742 731.196,647.721 731.188,652.7 731.182,657.679 731.175,662.658 731.17,667.637 731.165,672.616 731.162,677.595 731.158,682.574 731.156,687.553 731.155,692.532 731.154,697.511 731.154,702.489 731.155,707.468 731.156,712.447 731.158,717.426 731.162,722.405 731.165,727.384 731.17,732.363 731.175,737.342 731.182,742.321 731.188,747.3 731.196,752.279 731.205,757.258 731.214,762.237 731.224,767.216 731.235,772.195 731.246,777.173 731.258,782.152 731.272,787.131 731.285,792.11 731.3,797.089 731.315,802.068 731.332,807.047 731.348,812.026 731.366,817.005 731.385,821.984 731.404,826.963 731.424,831.942 731.445,836.921 731.466,841.9 731.488,846.879 731.512,851.857 731.535,856.836 731.56,861.815 731.585,866.794 731.612,871.773 731.638,876.752 731.666,881.731 731.695,886.71 731.724,891.689 731.754,896.668 731.785,901.647 731.816,906.626 731.848,911.605 731.882,916.584 731.915,921.563 731.95,926.541 731.985,931.52 732.022,936.499 732.058,941.478 732.096,946.457 "/>
        </g>
        <g>
            <polyline fill="none" stroke="#7f7fff"
                      points="760.181,474.081 759.373,478.645 758.582,483.209 757.809,487.773 757.052,492.337 756.312,496.901 755.589,501.465 754.882,506.029 754.193,510.593 753.52,515.157 752.864,519.721 752.225,524.285 751.603,528.849 750.997,533.413 750.408,537.977 749.835,542.541 749.279,547.105 748.74,551.669 748.217,556.233 747.711,560.797 747.221,565.361 746.748,569.925 746.291,574.489 745.851,579.053 745.427,583.617 745.02,588.181 744.629,592.745 744.254,597.31 743.896,601.874 743.554,606.438 743.229,611.002 742.92,615.566 742.627,620.13 742.351,624.694 742.09,629.258 741.847,633.822 741.619,638.386 741.408,642.95 741.213,647.514 741.034,652.078 740.872,656.642 740.726,661.206 740.596,665.77 740.482,670.334 740.385,674.898 740.303,679.462 740.239,684.026 740.19,688.59 740.157,693.154 740.141,697.718 740.141,702.282 740.157,706.846 740.19,711.41 740.239,715.974 740.303,720.538 740.385,725.102 740.482,729.666 740.596,734.23 740.726,738.794 740.872,743.358 741.034,747.922 741.213,752.486 741.408,757.05 741.619,761.614 741.847,766.178 742.09,770.742 742.351,775.306 742.627,779.87 742.92,784.434 743.229,788.998 743.554,793.562 743.896,798.126 744.254,802.69 744.629,807.255 745.02,811.819 745.427,816.383 745.851,820.947 746.291,825.511 746.748,830.075 747.221,834.639 747.711,839.203 748.217,843.767 748.74,848.331 749.279,852.895 749.835,857.459 750.408,862.023 750.997,866.587 751.603,871.151 752.225,875.715 752.864,880.279 753.52,884.843 754.193,889.407 754.882,893.971 755.589,898.535 756.312,903.099 757.052,907.663 757.809,912.227 758.582,916.791 759.373,921.355 760.181,925.919 "/>
            <line x1="834.349" y1="474.081" x2="834.349" y2="497.7" stroke="#7f7fff"/>
            <line x1="760.181" y1="474.081" x2="834.349" y2="474.081" stroke="#7f7fff"/>
            <line x1="834.349" y1="925.919" x2="834.349" y2="902.3" stroke="#7f7fff"/>
            <line x1="760.181" y1="925.919" x2="834.349" y2="925.919" stroke="#7f7fff"/>
            <polyline fill="none" stroke="#7f7fff"
                      points="834.349,497.7 830.975,501.787 827.715,505.873 824.564,509.96 821.518,514.047 818.573,518.134 815.726,522.221 812.973,526.308 810.312,530.395 807.74,534.482 805.254,538.568 802.853,542.655 800.533,546.742 798.292,550.829 796.13,554.916 794.043,559.003 792.031,563.09 790.092,567.177 788.224,571.263 786.426,575.35 784.696,579.437 783.034,583.524 781.438,587.611 779.907,591.698 778.44,595.785 777.037,599.872 775.696,603.958 774.416,608.045 773.197,612.132 772.038,616.219 770.939,620.306 769.898,624.393 768.915,628.48 767.989,632.567 767.121,636.653 766.309,640.74 765.553,644.827 764.853,648.914 764.208,653.001 763.618,657.088 763.082,661.175 762.601,665.262 762.174,669.348 761.801,673.435 761.481,677.522 761.215,681.609 761.003,685.696 760.843,689.783 760.737,693.87 760.684,697.957 760.684,702.043 760.737,706.13 760.843,710.217 761.003,714.304 761.215,718.391 761.481,722.478 761.801,726.565 762.174,730.652 762.601,734.738 763.082,738.825 763.618,742.912 764.208,746.999 764.853,751.086 765.553,755.173 766.309,759.26 767.121,763.347 767.989,767.433 768.915,771.52 769.898,775.607 770.939,779.694 772.038,783.781 773.197,787.868 774.416,791.955 775.696,796.042 777.037,800.128 778.44,804.215 779.907,808.302 781.438,812.389 783.034,816.476 784.696,820.563 786.426,824.65 788.224,828.737 790.092,832.823 792.031,836.91 794.043,840.997 796.13,845.084 798.292,849.171 800.533,853.258 802.853,857.345 805.254,861.432 807.74,865.518 810.312,869.605 812.973,873.692 815.726,877.779 818.573,881.866 821.518,885.953 824.564,890.04 827.715,894.127 830.975,898.213 834.349,902.3 "/>
        </g>
        <g>
            <polyline fill="none" stroke="#7f7fff"
                      points="840.582,497.764 841.215,501.849 841.834,505.935 842.44,510.021 843.033,514.106 843.613,518.192 844.18,522.277 844.734,526.363 845.274,530.449 845.802,534.534 846.316,538.62 846.817,542.705 847.306,546.791 847.781,550.876 848.243,554.962 848.692,559.048 849.129,563.133 849.552,567.219 849.962,571.304 850.36,575.39 850.744,579.475 851.116,583.561 851.474,587.647 851.82,591.732 852.153,595.818 852.473,599.903 852.78,603.989 853.074,608.075 853.356,612.16 853.624,616.246 853.88,620.331 854.123,624.417 854.353,628.502 854.57,632.588 854.774,636.674 854.966,640.759 855.145,644.845 855.311,648.93 855.464,653.016 855.604,657.101 855.732,661.187 855.847,665.273 855.949,669.358 856.038,673.444 856.115,677.529 856.179,681.615 856.23,685.7 856.268,689.786 856.293,693.872 856.306,697.957 856.306,702.043 856.293,706.128 856.268,710.214 856.23,714.3 856.179,718.385 856.115,722.471 856.038,726.556 855.949,730.642 855.847,734.727 855.732,738.813 855.604,742.899 855.464,746.984 855.311,751.07 855.145,755.155 854.966,759.241 854.774,763.326 854.57,767.412 854.353,771.498 854.123,775.583 853.88,779.669 853.624,783.754 853.356,787.84 853.074,791.925 852.78,796.011 852.473,800.097 852.153,804.182 851.82,808.268 851.474,812.353 851.116,816.439 850.744,820.525 850.36,824.61 849.962,828.696 849.552,832.781 849.129,836.867 848.692,840.952 848.243,845.038 847.781,849.124 847.306,853.209 846.817,857.295 846.316,861.38 845.802,865.466 845.274,869.551 844.734,873.637 844.18,877.723 843.613,881.808 843.033,885.894 842.44,889.979 841.834,894.065 841.215,898.151 840.582,902.236 "/>
            <line x1="840.582" y1="497.764" x2="921.911" y2="497.764" stroke="#7f7fff"/>
            <line x1="840.582" y1="902.236" x2="921.911" y2="902.236" stroke="#7f7fff"/>
            <polyline fill="none" stroke="#7f7fff"
                      points="921.911,497.764 919.863,501.849 917.867,505.935 915.921,510.021 914.027,514.106 912.182,518.192 910.385,522.277 908.638,526.363 906.938,530.449 905.285,534.534 903.679,538.62 902.119,542.705 900.605,546.791 899.135,550.876 897.711,554.962 896.33,559.048 894.993,563.133 893.7,567.219 892.449,571.304 891.241,575.39 890.075,579.475 888.951,583.561 887.869,587.647 886.828,591.732 885.828,595.818 884.868,599.903 883.949,603.989 883.07,608.075 882.23,612.16 881.431,616.246 880.67,620.331 879.949,624.417 879.268,628.502 878.624,632.588 878.02,636.674 877.454,640.759 876.927,644.845 876.437,648.93 875.986,653.016 875.573,657.101 875.198,661.187 874.86,665.273 874.561,669.358 874.299,673.444 874.074,677.529 873.887,681.615 873.737,685.7 873.625,689.786 873.55,693.872 873.513,697.957 873.513,702.043 873.55,706.128 873.625,710.214 873.737,714.3 873.887,718.385 874.074,722.471 874.299,726.556 874.561,730.642 874.86,734.727 875.198,738.813 875.573,742.899 875.986,746.984 876.437,751.07 876.927,755.155 877.454,759.241 878.02,763.326 878.624,767.412 879.268,771.498 879.949,775.583 880.67,779.669 881.431,783.754 882.23,787.84 883.07,791.925 883.949,796.011 884.868,800.097 885.828,804.182 886.828,808.268 887.869,812.353 888.951,816.439 890.075,820.525 891.241,824.61 892.449,828.696 893.7,832.781 894.993,836.867 896.33,840.952 897.711,845.038 899.135,849.124 900.605,853.209 902.119,857.295 903.679,861.38 905.285,865.466 906.938,869.551 908.638,873.637 910.385,877.723 912.182,881.808 914.027,885.894 915.921,889.979 917.867,894.065 919.863,898.151 921.911,902.236 "/>
            <line x1="921.911" y1="497.764" x2="947.966" y2="497.764" stroke="#7f7fff"/>
            <line x1="921.911" y1="902.236" x2="947.966" y2="902.236" stroke="#7f7fff"/>
            <polyline fill="none" stroke="#7f7fff"
                      points="947.966,497.764 947.843,501.849 947.722,505.935 947.603,510.021 947.487,514.106 947.374,518.192 947.263,522.277 947.154,526.363 947.049,530.449 946.945,534.534 946.844,538.62 946.746,542.705 946.65,546.791 946.557,550.876 946.466,554.962 946.378,559.048 946.292,563.133 946.209,567.219 946.129,571.304 946.05,575.39 945.975,579.475 945.902,583.561 945.831,587.647 945.763,591.732 945.698,595.818 945.635,599.903 945.574,603.989 945.516,608.075 945.461,612.16 945.408,616.246 945.357,620.331 945.31,624.417 945.264,628.502 945.221,632.588 945.181,636.674 945.143,640.759 945.108,644.845 945.075,648.93 945.045,653.016 945.017,657.101 944.992,661.187 944.969,665.273 944.949,669.358 944.932,673.444 944.916,677.529 944.904,681.615 944.894,685.7 944.886,689.786 944.881,693.872 944.879,697.957 944.879,702.043 944.881,706.128 944.886,710.214 944.894,714.3 944.904,718.385 944.916,722.471 944.932,726.556 944.949,730.642 944.969,734.727 944.992,738.813 945.017,742.899 945.045,746.984 945.075,751.07 945.108,755.155 945.143,759.241 945.181,763.326 945.221,767.412 945.264,771.498 945.31,775.583 945.357,779.669 945.408,783.754 945.461,787.84 945.516,791.925 945.574,796.011 945.635,800.097 945.698,804.182 945.763,808.268 945.831,812.353 945.902,816.439 945.975,820.525 946.05,824.61 946.129,828.696 946.209,832.781 946.292,836.867 946.378,840.952 946.466,845.038 946.557,849.124 946.65,853.209 946.746,857.295 946.844,861.38 946.945,865.466 947.049,869.551 947.154,873.637 947.263,877.723 947.374,881.808 947.487,885.894 947.603,889.979 947.722,894.065 947.843,898.151 947.966,902.236 "/>
        </g>
        <g>
            <polyline fill="none" stroke="#7f7fff"
                      points="1008.149,495.261 1008.196,499.397 1008.241,503.533 1008.286,507.669 1008.33,511.805 1008.373,515.942 1008.415,520.078 1008.456,524.214 1008.496,528.35 1008.535,532.486 1008.573,536.622 1008.61,540.758 1008.646,544.895 1008.682,549.031 1008.716,553.167 1008.749,557.303 1008.782,561.439 1008.813,565.575 1008.844,569.711 1008.873,573.848 1008.902,577.984 1008.929,582.12 1008.956,586.256 1008.982,590.392 1009.007,594.528 1009.031,598.664 1009.053,602.801 1009.075,606.937 1009.096,611.073 1009.116,615.209 1009.135,619.345 1009.153,623.481 1009.171,627.617 1009.187,631.754 1009.202,635.89 1009.216,640.026 1009.23,644.162 1009.242,648.298 1009.254,652.434 1009.264,656.57 1009.274,660.707 1009.282,664.843 1009.29,668.979 1009.296,673.115 1009.302,677.251 1009.307,681.387 1009.311,685.523 1009.314,689.66 1009.316,693.796 1009.316,697.932 1009.316,702.068 1009.316,706.204 1009.314,710.34 1009.311,714.477 1009.307,718.613 1009.302,722.749 1009.296,726.885 1009.29,731.021 1009.282,735.157 1009.274,739.293 1009.264,743.43 1009.254,747.566 1009.242,751.702 1009.23,755.838 1009.216,759.974 1009.202,764.11 1009.187,768.246 1009.171,772.383 1009.153,776.519 1009.135,780.655 1009.116,784.791 1009.096,788.927 1009.075,793.063 1009.053,797.199 1009.031,801.336 1009.007,805.472 1008.982,809.608 1008.956,813.744 1008.929,817.88 1008.902,822.016 1008.873,826.152 1008.844,830.289 1008.813,834.425 1008.782,838.561 1008.749,842.697 1008.716,846.833 1008.682,850.969 1008.646,855.105 1008.61,859.242 1008.573,863.378 1008.535,867.514 1008.496,871.65 1008.456,875.786 1008.415,879.922 1008.373,884.058 1008.33,888.195 1008.286,892.331 1008.241,896.467 1008.196,900.603 1008.149,904.739 "/>
            <line x1="1008.149" y1="495.261" x2="1043.615" y2="495.261" stroke="#7f7fff"/>
            <line x1="1008.149" y1="904.739" x2="1043.615" y2="904.739" stroke="#7f7fff"/>
            <polyline fill="none" stroke="#7f7fff"
                      points="1043.615,495.261 1048.34,499.397 1052.851,503.533 1057.164,507.669 1061.292,511.805 1065.246,515.942 1069.036,520.078 1072.673,524.214 1076.163,528.35 1079.515,532.486 1082.734,536.622 1085.827,540.758 1088.799,544.895 1091.655,549.031 1094.399,553.167 1097.035,557.303 1099.567,561.439 1101.998,565.575 1104.331,569.711 1106.57,573.848 1108.717,577.984 1110.774,582.12 1112.744,586.256 1114.628,590.392 1116.429,594.528 1118.149,598.664 1119.788,602.801 1121.35,606.937 1122.834,611.073 1124.243,615.209 1125.578,619.345 1126.84,623.481 1128.029,627.617 1129.148,631.754 1130.196,635.89 1131.175,640.026 1132.086,644.162 1132.928,648.298 1133.704,652.434 1134.412,656.57 1135.055,660.707 1135.632,664.843 1136.144,668.979 1136.591,673.115 1136.974,677.251 1137.293,681.387 1137.547,685.523 1137.738,689.66 1137.865,693.796 1137.928,697.932 1137.928,702.068 1137.865,706.204 1137.738,710.34 1137.547,714.477 1137.293,718.613 1136.974,722.749 1136.591,726.885 1136.144,731.021 1135.632,735.157 1135.055,739.293 1134.412,743.43 1133.704,747.566 1132.928,751.702 1132.086,755.838 1131.175,759.974 1130.196,764.11 1129.148,768.246 1128.029,772.383 1126.84,776.519 1125.578,780.655 1124.243,784.791 1122.834,788.927 1121.35,793.063 1119.788,797.199 1118.149,801.336 1116.429,805.472 1114.628,809.608 1112.744,813.744 1110.774,817.88 1108.717,822.016 1106.57,826.152 1104.331,830.289 1101.998,834.425 1099.567,838.561 1097.035,842.697 1094.399,846.833 1091.655,850.969 1088.799,855.105 1085.827,859.242 1082.734,863.378 1079.515,867.514 1076.163,871.65 1072.673,875.786 1069.036,879.922 1065.246,884.058 1061.292,888.195 1057.164,892.331 1052.851,896.467 1048.34,900.603 1043.615,904.739 "/>
            <line x1="1043.615" y1="495.261" x2="1161.003" y2="495.261" stroke="#7f7fff"/>
            <line x1="1043.615" y1="904.739" x2="1161.003" y2="904.739" stroke="#7f7fff"/>
            <polyline fill="none" stroke="#7f7fff"
                      points="1161.003,495.261 1160.743,499.397 1160.488,503.533 1160.238,507.669 1159.993,511.805 1159.754,515.942 1159.52,520.078 1159.292,524.214 1159.068,528.35 1158.85,532.486 1158.638,536.622 1158.431,540.758 1158.229,544.895 1158.032,549.031 1157.841,553.167 1157.655,557.303 1157.474,561.439 1157.299,565.575 1157.129,569.711 1156.965,573.848 1156.805,577.984 1156.651,582.12 1156.503,586.256 1156.359,590.392 1156.221,594.528 1156.088,598.664 1155.961,602.801 1155.839,606.937 1155.722,611.073 1155.611,615.209 1155.504,619.345 1155.404,623.481 1155.308,627.617 1155.218,631.754 1155.133,635.89 1155.053,640.026 1154.979,644.162 1154.91,648.298 1154.846,652.434 1154.788,656.57 1154.735,660.707 1154.687,664.843 1154.645,668.979 1154.607,673.115 1154.576,677.251 1154.549,681.387 1154.528,685.523 1154.512,689.66 1154.501,693.796 1154.496,697.932 1154.496,702.068 1154.501,706.204 1154.512,710.34 1154.528,714.477 1154.549,718.613 1154.576,722.749 1154.607,726.885 1154.645,731.021 1154.687,735.157 1154.735,739.293 1154.788,743.43 1154.846,747.566 1154.91,751.702 1154.979,755.838 1155.053,759.974 1155.133,764.11 1155.218,768.246 1155.308,772.383 1155.404,776.519 1155.504,780.655 1155.611,784.791 1155.722,788.927 1155.839,793.063 1155.961,797.199 1156.088,801.336 1156.221,805.472 1156.359,809.608 1156.503,813.744 1156.651,817.88 1156.805,822.016 1156.965,826.152 1157.129,830.289 1157.299,834.425 1157.474,838.561 1157.655,842.697 1157.841,846.833 1158.032,850.969 1158.229,855.105 1158.431,859.242 1158.638,863.378 1158.85,867.514 1159.068,871.65 1159.292,875.786 1159.52,879.922 1159.754,884.058 1159.993,888.195 1160.238,892.331 1160.488,896.467 1160.743,900.603 1161.003,904.739 "/>
        </g>
        <g>
            <polyline fill="none" stroke="#7f7fff"
                      points="1180.155,488.843 1179.348,493.108 1178.558,497.374 1177.784,501.64 1177.028,505.906 1176.289,510.172 1175.566,514.438 1174.86,518.703 1174.172,522.969 1173.5,527.235 1172.845,531.501 1172.206,535.767 1171.585,540.032 1170.98,544.298 1170.391,548.564 1169.82,552.83 1169.264,557.096 1168.726,561.361 1168.204,565.627 1167.699,569.893 1167.21,574.159 1166.737,578.425 1166.282,582.69 1165.842,586.956 1165.419,591.222 1165.013,595.488 1164.622,599.754 1164.249,604.019 1163.891,608.285 1163.55,612.551 1163.225,616.817 1162.917,621.083 1162.625,625.348 1162.349,629.614 1162.09,633.88 1161.846,638.146 1161.619,642.412 1161.409,646.677 1161.214,650.943 1161.036,655.209 1160.874,659.475 1160.728,663.741 1160.599,668.006 1160.485,672.272 1160.388,676.538 1160.307,680.804 1160.242,685.07 1160.194,689.335 1160.161,693.601 1160.145,697.867 1160.145,702.133 1160.161,706.399 1160.194,710.665 1160.242,714.93 1160.307,719.196 1160.388,723.462 1160.485,727.728 1160.599,731.994 1160.728,736.259 1160.874,740.525 1161.036,744.791 1161.214,749.057 1161.409,753.323 1161.619,757.588 1161.846,761.854 1162.09,766.12 1162.349,770.386 1162.625,774.652 1162.917,778.917 1163.225,783.183 1163.55,787.449 1163.891,791.715 1164.249,795.981 1164.622,800.246 1165.013,804.512 1165.419,808.778 1165.842,813.044 1166.282,817.31 1166.737,821.575 1167.21,825.841 1167.699,830.107 1168.204,834.373 1168.726,838.639 1169.264,842.904 1169.82,847.17 1170.391,851.436 1170.98,855.702 1171.585,859.968 1172.206,864.233 1172.845,868.499 1173.5,872.765 1174.172,877.031 1174.86,881.297 1175.566,885.562 1176.289,889.828 1177.028,894.094 1177.784,898.36 1178.558,902.626 1179.348,906.892 1180.155,911.157 "/>
            <line x1="1180.155" y1="488.843" x2="1212.2" y2="488.843" stroke="#7f7fff"/>
            <line x1="1180.155" y1="911.157" x2="1212.2" y2="911.157" stroke="#7f7fff"/>
            <polyline fill="none" stroke="#7f7fff"
                      points="1212.2,488.843 1213.925,493.108 1215.608,497.374 1217.252,501.64 1218.855,505.906 1220.419,510.172 1221.944,514.438 1223.429,518.703 1224.877,522.969 1226.285,527.235 1227.656,531.501 1228.99,535.767 1230.285,540.032 1231.544,544.298 1232.766,548.564 1233.951,552.83 1235.1,557.096 1236.213,561.361 1237.29,565.627 1238.331,569.893 1239.337,574.159 1240.307,578.425 1241.243,582.69 1242.143,586.956 1243.009,591.222 1243.84,595.488 1244.636,599.754 1245.399,604.019 1246.127,608.285 1246.821,612.551 1247.482,616.817 1248.108,621.083 1248.701,625.348 1249.261,629.614 1249.787,633.88 1250.279,638.146 1250.739,642.412 1251.165,646.677 1251.558,650.943 1251.918,655.209 1252.246,659.475 1252.54,663.741 1252.802,668.006 1253.03,672.272 1253.226,676.538 1253.389,680.804 1253.52,685.07 1253.618,689.335 1253.683,693.601 1253.716,697.867 1253.716,702.133 1253.683,706.399 1253.618,710.665 1253.52,714.93 1253.389,719.196 1253.226,723.462 1253.03,727.728 1252.802,731.994 1252.54,736.259 1252.246,740.525 1251.918,744.791 1251.558,749.057 1251.165,753.323 1250.739,757.588 1250.279,761.854 1249.787,766.12 1249.261,770.386 1248.701,774.652 1248.108,778.917 1247.482,783.183 1246.821,787.449 1246.127,791.715 1245.399,795.981 1244.636,800.246 1243.84,804.512 1243.009,808.778 1242.143,813.044 1241.243,817.31 1240.307,821.575 1239.337,825.841 1238.331,830.107 1237.29,834.373 1236.213,838.639 1235.1,842.904 1233.951,847.17 1232.766,851.436 1231.544,855.702 1230.285,859.968 1228.99,864.233 1227.656,868.499 1226.285,872.765 1224.877,877.031 1223.429,881.297 1221.944,885.562 1220.419,889.828 1218.855,894.094 1217.252,898.36 1215.608,902.626 1213.925,906.892 1212.2,911.157 "/>
            <line x1="1212.2" y1="488.843" x2="1286.684" y2="488.843" stroke="#7f7fff"/>
            <line x1="1212.2" y1="911.157" x2="1286.684" y2="911.157" stroke="#7f7fff"/>
            <polyline fill="none" stroke="#7f7fff"
                      points="1286.684,488.843 1286.018,493.108 1285.367,497.374 1284.73,501.64 1284.106,505.906 1283.496,510.172 1282.901,514.438 1282.318,518.703 1281.75,522.969 1281.196,527.235 1280.655,531.501 1280.128,535.767 1279.614,540.032 1279.115,544.298 1278.629,548.564 1278.156,552.83 1277.698,557.096 1277.253,561.361 1276.821,565.627 1276.403,569.893 1275.999,574.159 1275.609,578.425 1275.232,582.69 1274.868,586.956 1274.518,591.222 1274.182,595.488 1273.859,599.754 1273.55,604.019 1273.254,608.285 1272.972,612.551 1272.703,616.817 1272.448,621.083 1272.206,625.348 1271.977,629.614 1271.763,633.88 1271.561,638.146 1271.373,642.412 1271.199,646.677 1271.038,650.943 1270.89,655.209 1270.756,659.475 1270.635,663.741 1270.528,668.006 1270.434,672.272 1270.353,676.538 1270.286,680.804 1270.233,685.07 1270.192,689.335 1270.166,693.601 1270.152,697.867 1270.152,702.133 1270.166,706.399 1270.192,710.665 1270.233,714.93 1270.286,719.196 1270.353,723.462 1270.434,727.728 1270.528,731.994 1270.635,736.259 1270.756,740.525 1270.89,744.791 1271.038,749.057 1271.199,753.323 1271.373,757.588 1271.561,761.854 1271.763,766.12 1271.977,770.386 1272.206,774.652 1272.448,778.917 1272.703,783.183 1272.972,787.449 1273.254,791.715 1273.55,795.981 1273.859,800.246 1274.182,804.512 1274.518,808.778 1274.868,813.044 1275.232,817.31 1275.609,821.575 1275.999,825.841 1276.403,830.107 1276.821,834.373 1277.253,838.639 1277.698,842.904 1278.156,847.17 1278.629,851.436 1279.115,855.702 1279.614,859.968 1280.128,864.233 1280.655,868.499 1281.196,872.765 1281.75,877.031 1282.318,881.297 1282.901,885.562 1283.496,889.828 1284.106,894.094 1284.73,898.36 1285.367,902.626 1286.018,906.892 1286.684,911.157 "/>
        </g>
        <g>
            <polyline fill="none" stroke="#7f7fff"
                      points="1302.497,484.992 1302.185,489.335 1301.875,493.679 1301.566,498.023 1301.259,502.366 1300.955,506.71 1300.654,511.053 1300.355,515.397 1300.059,519.741 1299.767,524.084 1299.478,528.428 1299.194,532.771 1298.913,537.115 1298.637,541.459 1298.365,545.802 1298.098,550.146 1297.836,554.489 1297.579,558.833 1297.328,563.177 1297.082,567.52 1296.842,571.864 1296.608,576.207 1296.381,580.551 1296.16,584.895 1295.945,589.238 1295.738,593.582 1295.537,597.925 1295.344,602.269 1295.157,606.613 1294.978,610.956 1294.807,615.3 1294.643,619.643 1294.487,623.987 1294.339,628.331 1294.2,632.674 1294.068,637.018 1293.944,641.361 1293.829,645.705 1293.722,650.049 1293.624,654.392 1293.535,658.736 1293.454,663.079 1293.382,667.423 1293.319,671.767 1293.265,676.11 1293.219,680.454 1293.183,684.797 1293.156,689.141 1293.138,693.485 1293.129,697.828 1293.129,702.172 1293.138,706.515 1293.156,710.859 1293.183,715.203 1293.219,719.546 1293.265,723.89 1293.319,728.233 1293.382,732.577 1293.454,736.921 1293.535,741.264 1293.624,745.608 1293.722,749.951 1293.829,754.295 1293.944,758.639 1294.068,762.982 1294.2,767.326 1294.339,771.669 1294.487,776.013 1294.643,780.357 1294.807,784.7 1294.978,789.044 1295.157,793.387 1295.344,797.731 1295.537,802.075 1295.738,806.418 1295.945,810.762 1296.16,815.105 1296.381,819.449 1296.608,823.793 1296.842,828.136 1297.082,832.48 1297.328,836.823 1297.579,841.167 1297.836,845.511 1298.098,849.854 1298.365,854.198 1298.637,858.541 1298.913,862.885 1299.194,867.229 1299.478,871.572 1299.767,875.916 1300.059,880.259 1300.355,884.603 1300.654,888.947 1300.955,893.29 1301.259,897.634 1301.566,901.977 1301.875,906.321 1302.185,910.665 1302.497,915.008 "/>
            <line x1="1302.497" y1="484.992" x2="1351.061" y2="484.992" stroke="#7f7fff"/>
            <line x1="1302.497" y1="915.008" x2="1351.061" y2="915.008" stroke="#7f7fff"/>
            <polyline fill="none" stroke="#7f7fff"
                      points="1351.061,484.992 1352.905,489.335 1354.706,493.679 1356.462,498.023 1358.175,502.366 1359.846,506.71 1361.474,511.053 1363.06,515.397 1364.604,519.741 1366.107,524.084 1367.57,528.428 1368.991,532.771 1370.373,537.115 1371.715,541.459 1373.017,545.802 1374.28,550.146 1375.504,554.489 1376.689,558.833 1377.835,563.177 1378.944,567.52 1380.014,571.864 1381.047,576.207 1382.042,580.551 1383,584.895 1383.921,589.238 1384.805,593.582 1385.652,597.925 1386.463,602.269 1387.237,606.613 1387.975,610.956 1388.677,615.3 1389.343,619.643 1389.973,623.987 1390.568,628.331 1391.127,632.674 1391.65,637.018 1392.138,641.361 1392.591,645.705 1393.009,650.049 1393.391,654.392 1393.739,658.736 1394.051,663.079 1394.329,667.423 1394.572,671.767 1394.78,676.11 1394.954,680.454 1395.092,684.797 1395.196,689.141 1395.265,693.485 1395.3,697.828 1395.3,702.172 1395.265,706.515 1395.196,710.859 1395.092,715.203 1394.954,719.546 1394.78,723.89 1394.572,728.233 1394.329,732.577 1394.051,736.921 1393.739,741.264 1393.391,745.608 1393.009,749.951 1392.591,754.295 1392.138,758.639 1391.65,762.982 1391.127,767.326 1390.568,771.669 1389.973,776.013 1389.343,780.357 1388.677,784.7 1387.975,789.044 1387.237,793.387 1386.463,797.731 1385.652,802.075 1384.805,806.418 1383.921,810.762 1383,815.105 1382.042,819.449 1381.047,823.793 1380.014,828.136 1378.944,832.48 1377.835,836.823 1376.689,841.167 1375.504,845.511 1374.28,849.854 1373.017,854.198 1371.715,858.541 1370.373,862.885 1368.991,867.229 1367.57,871.572 1366.107,875.916 1364.604,880.259 1363.06,884.603 1361.474,888.947 1359.846,893.29 1358.175,897.634 1356.462,901.977 1354.706,906.321 1352.905,910.665 1351.061,915.008 "/>
        </g>
        <g>
            <polyline fill="none" stroke="#7f7fff"
                      points="1461.202,464.454 1459.519,469.212 1457.875,473.971 1456.268,478.729 1454.7,483.488 1453.169,488.246 1451.676,493.005 1450.219,497.763 1448.8,502.522 1447.418,507.28 1446.071,512.039 1444.762,516.797 1443.488,521.556 1442.25,526.314 1441.047,531.073 1439.88,535.831 1438.748,540.59 1437.652,545.348 1436.59,550.107 1435.563,554.865 1434.571,559.624 1433.613,564.382 1432.689,569.141 1431.8,573.899 1430.944,578.658 1430.123,583.416 1429.335,588.175 1428.581,592.933 1427.86,597.692 1427.173,602.451 1426.519,607.209 1425.899,611.968 1425.312,616.726 1424.757,621.485 1424.236,626.243 1423.748,631.002 1423.292,635.76 1422.87,640.519 1422.48,645.277 1422.123,650.036 1421.798,654.794 1421.506,659.553 1421.247,664.311 1421.02,669.07 1420.825,673.828 1420.663,678.587 1420.534,683.345 1420.436,688.104 1420.372,692.862 1420.339,697.621 1420.339,702.379 1420.372,707.138 1420.436,711.896 1420.534,716.655 1420.663,721.413 1420.825,726.172 1421.02,730.93 1421.247,735.689 1421.506,740.447 1421.798,745.206 1422.123,749.964 1422.48,754.723 1422.87,759.481 1423.292,764.24 1423.748,768.998 1424.236,773.757 1424.757,778.515 1425.312,783.274 1425.899,788.032 1426.519,792.791 1427.173,797.549 1427.86,802.308 1428.581,807.067 1429.335,811.825 1430.123,816.584 1430.944,821.342 1431.8,826.101 1432.689,830.859 1433.613,835.618 1434.571,840.376 1435.563,845.135 1436.59,849.893 1437.652,854.652 1438.748,859.41 1439.88,864.169 1441.047,868.927 1442.25,873.686 1443.488,878.444 1444.762,883.203 1446.071,887.961 1447.418,892.72 1448.8,897.478 1450.219,902.237 1451.676,906.995 1453.169,911.754 1454.7,916.512 1456.268,921.271 1457.875,926.029 1459.519,930.788 1461.202,935.546 "/>
            <line x1="1461.202" y1="464.454" x2="1496.346" y2="464.454" stroke="#7f7fff"/>
            <line x1="1461.202" y1="935.546" x2="1496.346" y2="935.546" stroke="#7f7fff"/>
            <polyline fill="none" stroke="#7f7fff"
                      points="1496.346,464.454 1497.843,469.212 1499.307,473.971 1500.737,478.729 1502.134,483.488 1503.499,488.246 1504.83,493.005 1506.129,497.763 1507.396,502.522 1508.63,507.28 1509.832,512.039 1511.003,516.797 1512.141,521.556 1513.249,526.314 1514.324,531.073 1515.368,535.831 1516.381,540.59 1517.363,545.348 1518.314,550.107 1519.235,554.865 1520.124,559.624 1520.983,564.382 1521.811,569.141 1522.609,573.899 1523.376,578.658 1524.114,583.416 1524.821,588.175 1525.498,592.933 1526.145,597.692 1526.762,602.451 1527.349,607.209 1527.907,611.968 1528.434,616.726 1528.933,621.485 1529.401,626.243 1529.84,631.002 1530.25,635.76 1530.63,640.519 1530.98,645.277 1531.302,650.036 1531.594,654.794 1531.856,659.553 1532.09,664.311 1532.294,669.07 1532.469,673.828 1532.615,678.587 1532.731,683.345 1532.819,688.104 1532.877,692.862 1532.906,697.621 1532.906,702.379 1532.877,707.138 1532.819,711.896 1532.731,716.655 1532.615,721.413 1532.469,726.172 1532.294,730.93 1532.09,735.689 1531.856,740.447 1531.594,745.206 1531.302,749.964 1530.98,754.723 1530.63,759.481 1530.25,764.24 1529.84,768.998 1529.401,773.757 1528.933,778.515 1528.434,783.274 1527.907,788.032 1527.349,792.791 1526.762,797.549 1526.145,802.308 1525.498,807.067 1524.821,811.825 1524.114,816.584 1523.376,821.342 1522.609,826.101 1521.811,830.859 1520.983,835.618 1520.124,840.376 1519.235,845.135 1518.314,849.893 1517.363,854.652 1516.381,859.41 1515.368,864.169 1514.324,868.927 1513.249,873.686 1512.141,878.444 1511.003,883.203 1509.832,887.961 1508.63,892.72 1507.396,897.478 1506.129,902.237 1504.83,906.995 1503.499,911.754 1502.134,916.512 1500.737,921.271 1499.307,926.029 1497.843,930.788 1496.346,935.546 "/>
            <line x1="1607.074" y1="464.454" x2="1607.074" y2="468.305" stroke="#7f7fff"/>
            <line x1="1496.346" y1="464.454" x2="1607.074" y2="464.454" stroke="#7f7fff"/>
            <line x1="1607.074" y1="935.546" x2="1607.074" y2="931.695" stroke="#7f7fff"/>
            <line x1="1496.346" y1="935.546" x2="1607.074" y2="935.546" stroke="#7f7fff"/>
            <polyline fill="none" stroke="#7f7fff"
                      points="1607.074,468.305 1604.777,472.985 1602.538,477.666 1600.356,482.347 1598.229,487.027 1596.159,491.708 1594.143,496.389 1592.181,501.07 1590.272,505.75 1588.416,510.431 1586.612,515.112 1584.86,519.792 1583.158,524.473 1581.507,529.154 1579.906,533.835 1578.354,538.515 1576.852,543.196 1575.397,547.877 1573.991,552.557 1572.633,557.238 1571.322,561.919 1570.058,566.6 1568.84,571.28 1567.669,575.961 1566.544,580.642 1565.464,585.322 1564.43,590.003 1563.441,594.684 1562.496,599.365 1561.596,604.045 1560.741,608.726 1559.929,613.407 1559.162,618.087 1558.438,622.768 1557.757,627.449 1557.12,632.13 1556.527,636.81 1555.976,641.491 1555.468,646.172 1555.003,650.852 1554.58,655.533 1554.2,660.214 1553.863,664.895 1553.567,669.575 1553.315,674.256 1553.104,678.937 1552.935,683.617 1552.809,688.298 1552.725,692.979 1552.683,697.66 1552.683,702.34 1552.725,707.021 1552.809,711.702 1552.935,716.383 1553.104,721.063 1553.315,725.744 1553.567,730.425 1553.863,735.105 1554.2,739.786 1554.58,744.467 1555.003,749.148 1555.468,753.828 1555.976,758.509 1556.527,763.19 1557.12,767.87 1557.757,772.551 1558.438,777.232 1559.162,781.913 1559.929,786.593 1560.741,791.274 1561.596,795.955 1562.496,800.635 1563.441,805.316 1564.43,809.997 1565.464,814.678 1566.544,819.358 1567.669,824.039 1568.84,828.72 1570.058,833.4 1571.322,838.081 1572.633,842.762 1573.991,847.443 1575.397,852.123 1576.852,856.804 1578.354,861.485 1579.906,866.165 1581.507,870.846 1583.158,875.527 1584.86,880.208 1586.612,884.888 1588.416,889.569 1590.272,894.25 1592.181,898.93 1594.143,903.611 1596.159,908.292 1598.229,912.973 1600.356,917.653 1602.538,922.334 1604.777,927.015 1607.074,931.695 "/>
        </g>
        <g>
            <polyline fill="none" stroke="#7f7fff"
                      points="1607.472,468.305 1608.983,472.985 1610.46,477.666 1611.903,482.347 1613.312,487.027 1614.689,491.708 1616.032,496.389 1617.342,501.07 1618.619,505.75 1619.864,510.431 1621.077,515.112 1622.257,519.792 1623.405,524.473 1624.521,529.154 1625.605,533.835 1626.658,538.515 1627.679,543.196 1628.669,547.877 1629.627,552.557 1630.554,557.238 1631.451,561.919 1632.316,566.6 1633.15,571.28 1633.954,575.961 1634.727,580.642 1635.47,585.322 1636.183,590.003 1636.864,594.684 1637.516,599.365 1638.138,604.045 1638.729,608.726 1639.291,613.407 1639.822,618.087 1640.324,622.768 1640.796,627.449 1641.238,632.13 1641.65,636.81 1642.033,641.491 1642.386,646.172 1642.71,650.852 1643.004,655.533 1643.268,660.214 1643.503,664.895 1643.709,669.575 1643.885,674.256 1644.032,678.937 1644.149,683.617 1644.237,688.298 1644.296,692.979 1644.325,697.66 1644.325,702.34 1644.296,707.021 1644.237,711.702 1644.149,716.383 1644.032,721.063 1643.885,725.744 1643.709,730.425 1643.503,735.105 1643.268,739.786 1643.004,744.467 1642.71,749.148 1642.386,753.828 1642.033,758.509 1641.65,763.19 1641.238,767.87 1640.796,772.551 1640.324,777.232 1639.822,781.913 1639.291,786.593 1638.729,791.274 1638.138,795.955 1637.516,800.635 1636.864,805.316 1636.183,809.997 1635.47,814.678 1634.727,819.358 1633.954,824.039 1633.15,828.72 1632.316,833.4 1631.451,838.081 1630.554,842.762 1629.627,847.443 1628.669,852.123 1627.679,856.804 1626.658,861.485 1625.605,866.165 1624.521,870.846 1623.405,875.527 1622.257,880.208 1621.077,884.888 1619.864,889.569 1618.619,894.25 1617.342,898.93 1616.032,903.611 1614.689,908.292 1613.312,912.973 1611.903,917.653 1610.46,922.334 1608.983,927.015 1607.472,931.695 "/>
            <line x1="1607.472" y1="468.305" x2="1679.736" y2="468.305" stroke="#7f7fff"/>
            <line x1="1607.472" y1="931.695" x2="1679.736" y2="931.695" stroke="#7f7fff"/>
            <polyline fill="none" stroke="#7f7fff"
                      points="1679.736,468.305 1678.935,472.985 1678.151,477.666 1677.384,482.347 1676.634,487.027 1675.901,491.708 1675.184,496.389 1674.484,501.07 1673.8,505.75 1673.133,510.431 1672.483,515.112 1671.849,519.792 1671.232,524.473 1670.631,529.154 1670.047,533.835 1669.479,538.515 1668.928,543.196 1668.393,547.877 1667.874,552.557 1667.372,557.238 1666.886,561.919 1666.417,566.6 1665.964,571.28 1665.527,575.961 1665.107,580.642 1664.703,585.322 1664.315,590.003 1663.943,594.684 1663.588,599.365 1663.249,604.045 1662.926,608.726 1662.619,613.407 1662.329,618.087 1662.055,622.768 1661.797,627.449 1661.555,632.13 1661.329,636.81 1661.12,641.491 1660.926,646.172 1660.749,650.852 1660.588,655.533 1660.443,660.214 1660.314,664.895 1660.201,669.575 1660.104,674.256 1660.024,678.937 1659.959,683.617 1659.911,688.298 1659.879,692.979 1659.863,697.66 1659.863,702.34 1659.879,707.021 1659.911,711.702 1659.959,716.383 1660.024,721.063 1660.104,725.744 1660.201,730.425 1660.314,735.105 1660.443,739.786 1660.588,744.467 1660.749,749.148 1660.926,753.828 1661.12,758.509 1661.329,763.19 1661.555,767.87 1661.797,772.551 1662.055,777.232 1662.329,781.913 1662.619,786.593 1662.926,791.274 1663.249,795.955 1663.588,800.635 1663.943,805.316 1664.315,809.997 1664.703,814.678 1665.107,819.358 1665.527,824.039 1665.964,828.72 1666.417,833.4 1666.886,838.081 1667.372,842.762 1667.874,847.443 1668.393,852.123 1668.928,856.804 1669.479,861.485 1670.047,866.165 1670.631,870.846 1671.232,875.527 1671.849,880.208 1672.483,884.888 1673.133,889.569 1673.8,894.25 1674.484,898.93 1675.184,903.611 1675.901,908.292 1676.634,912.973 1677.384,917.653 1678.151,922.334 1678.935,927.015 1679.736,931.695 "/>
            <line x1="1679.736" y1="468.305" x2="1721.016" y2="468.305" stroke="#7f7fff"/>
            <line x1="1679.736" y1="931.695" x2="1721.016" y2="931.695" stroke="#7f7fff"/>
            <polyline fill="none" stroke="#7f7fff"
                      points="1721.016,468.305 1720.905,472.985 1720.824,477.666 1720.772,482.347 1720.744,487.027 1720.739,491.708 1720.755,496.389 1720.79,501.07 1720.841,505.75 1720.908,510.431 1720.988,515.112 1721.08,519.792 1721.183,524.473 1721.295,529.154 1721.415,533.835 1721.543,538.515 1721.676,543.196 1721.813,547.877 1721.955,552.557 1722.1,557.238 1722.247,561.919 1722.395,566.6 1722.544,571.28 1722.692,575.961 1722.84,580.642 1722.987,585.322 1723.132,590.003 1723.275,594.684 1723.414,599.365 1723.55,604.045 1723.683,608.726 1723.811,613.407 1723.935,618.087 1724.053,622.768 1724.167,627.449 1724.274,632.13 1724.376,636.81 1724.472,641.491 1724.561,646.172 1724.644,650.852 1724.719,655.533 1724.788,660.214 1724.85,664.895 1724.904,669.575 1724.951,674.256 1724.99,678.937 1725.021,683.617 1725.045,688.298 1725.06,692.979 1725.068,697.66 1725.068,702.34 1725.06,707.021 1725.045,711.702 1725.021,716.383 1724.99,721.063 1724.951,725.744 1724.904,730.425 1724.85,735.105 1724.788,739.786 1724.719,744.467 1724.644,749.148 1724.561,753.828 1724.472,758.509 1724.376,763.19 1724.274,767.87 1724.167,772.551 1724.053,777.232 1723.935,781.913 1723.811,786.593 1723.683,791.274 1723.55,795.955 1723.414,800.635 1723.275,805.316 1723.132,809.997 1722.987,814.678 1722.84,819.358 1722.692,824.039 1722.544,828.72 1722.395,833.4 1722.247,838.081 1722.1,842.762 1721.955,847.443 1721.813,852.123 1721.676,856.804 1721.543,861.485 1721.415,866.165 1721.295,870.846 1721.183,875.527 1721.08,880.208 1720.988,884.888 1720.908,889.569 1720.841,894.25 1720.79,898.93 1720.755,903.611 1720.739,908.292 1720.744,912.973 1720.772,917.653 1720.824,922.334 1720.905,927.015 1721.016,931.695 "/>
        </g>
    </g>
    <g>
        <title>element</title>
        <polyline fill="none" stroke="#7f7fff"
                  points="1912.479,144.444 1912.479,155.668 1912.479,166.891 1912.479,178.114 1912.479,189.338 1912.479,200.561 1912.479,211.785 1912.479,223.008 1912.479,234.231 1912.479,245.455 1912.479,256.678 1912.479,267.901 1912.479,279.125 1912.479,290.348 1912.479,301.571 1912.479,312.795 1912.479,324.018 1912.479,335.241 1912.479,346.465 1912.479,357.688 1912.479,368.911 1912.479,380.135 1912.479,391.358 1912.479,402.581 1912.479,413.805 1912.479,425.028 1912.479,436.251 1912.479,447.475 1912.479,458.698 1912.479,469.921 1912.479,481.145 1912.479,492.368 1912.479,503.591 1912.479,514.815 1912.479,526.038 1912.479,537.262 1912.479,548.485 1912.479,559.708 1912.479,570.932 1912.479,582.155 1912.479,593.378 1912.479,604.602 1912.479,615.825 1912.479,627.048 1912.479,638.272 1912.479,649.495 1912.479,660.718 1912.479,671.942 1912.479,683.165 1912.479,694.388 1912.479,705.612 1912.479,716.835 1912.479,728.058 1912.479,739.282 1912.479,750.505 1912.479,761.728 1912.479,772.952 1912.479,784.175 1912.479,795.398 1912.479,806.622 1912.479,817.845 1912.479,829.068 1912.479,840.292 1912.479,851.515 1912.479,862.738 1912.479,873.962 1912.479,885.185 1912.479,896.409 1912.479,907.632 1912.479,918.855 1912.479,930.079 1912.479,941.302 1912.479,952.525 1912.479,963.749 1912.479,974.972 1912.479,986.195 1912.479,997.419 1912.479,1008.642 1912.479,1019.865 1912.479,1031.089 1912.479,1042.312 1912.479,1053.535 1912.479,1064.759 1912.479,1075.982 1912.479,1087.205 1912.479,1098.429 1912.479,1109.652 1912.479,1120.875 1912.479,1132.099 1912.479,1143.322 1912.479,1154.545 1912.479,1165.769 1912.479,1176.992 1912.479,1188.215 1912.479,1199.439 1912.479,1210.662 1912.479,1221.886 1912.479,1233.109 1912.479,1244.332 1912.479,1255.556 "/>
    </g>
</svg>
