<?xml version="1.0" standalone="no"?>
<svg width="300px" height="300px" version="1.1" xmlns="http://www.w3.org/2000/svg"
     xmlns:xlink="http://www.w3.org/1999/xlink">
    <rect x="0" y="0" width="300" height="300" fill="#000000"/>
    <defs>
        <g id="dot">
            <line x1="1" y1="1" x2="0" y2="0"/>
        </g>
        <g id="cross">
            <line x1="-3" y1="0" x2="3" y2="0"/>
            <line x1="0" y1="-3" x2="0" y2="3"/>
        </g>
        <g id="square">
            <line x1="-3" y1="-3" x2="-3" y2="3"/>
            <line x1="-3" y1="3" x2="3" y2="3"/>
            <line x1="3" y1="3" x2="3" y2="-3"/>
            <line x1="3" y1="-3" x2="-3" y2="-3"/>
        </g>
        <g id="round">
            <ellipse cx="0" cy="0" rx="3" ry="3" fill="none"/>
        </g>
        <g id="triangle">
            <line x1="0" y1="-3" x2="-3" y2="3"/>
            <line x1="-3" y1="3" x2="3" y2="3"/>
            <line x1="0" y1="-3" x2="3" y2="3"/>
        </g>
    </defs>
    <polygon fill="none" stroke="#ffffff" points="30.952,269.048 30.952,30.952 269.048,30.952 269.048,269.048 "/>
    <text style="font-size:12;text-align:center;text-anchor:middle;" x="150" y="298.262" fill="#ffffff">Sagittal
        distance (um)
    </text>
    <use x="70.635" y="30.952" xlink:href="#cross" stroke="#ffffff"/>
    <use x="70.635" y="269.048" xlink:href="#cross" stroke="#ffffff"/>
    <text style="font-size:12;text-align:center;text-anchor:middle;" x="70.635" y="287.048" fill="#ffffff">-112</text>
    <use x="150" y="30.952" xlink:href="#cross" stroke="#ffffff"/>
    <use x="150" y="269.048" xlink:href="#cross" stroke="#ffffff"/>
    <text style="font-size:12;text-align:center;text-anchor:middle;" x="150" y="287.048" fill="#ffffff">0</text>
    <use x="229.365" y="30.952" xlink:href="#cross" stroke="#ffffff"/>
    <use x="229.365" y="269.048" xlink:href="#cross" stroke="#ffffff"/>
    <text style="font-size:12;text-align:center;text-anchor:middle;" x="229.365" y="287.048" fill="#ffffff">112</text>
    <text style="font-size:12;text-align:center;text-anchor:middle;" x="7.738" y="156" transform="rotate(-90,7.738,150)"
          fill="#ffffff">Tangential distance (um)
    </text>
    <use x="269.048" y="228.53" xlink:href="#cross" stroke="#ffffff"/>
    <use x="30.952" y="228.53" xlink:href="#cross" stroke="#ffffff"/>
    <text style="font-size:12;text-align:right;text-anchor:end;" x="24.952" y="234.53" fill="#ffffff">-112</text>
    <use x="269.048" y="149.165" xlink:href="#cross" stroke="#ffffff"/>
    <use x="30.952" y="149.165" xlink:href="#cross" stroke="#ffffff"/>
    <text style="font-size:12;text-align:right;text-anchor:end;" x="24.952" y="155.165" fill="#ffffff">0</text>
    <use x="269.048" y="69.8" xlink:href="#cross" stroke="#ffffff"/>
    <use x="30.952" y="69.8" xlink:href="#cross" stroke="#ffffff"/>
    <text style="font-size:12;text-align:right;text-anchor:end;" x="24.952" y="75.8" fill="#ffffff">112</text>
    <use x="256.946" y="155.971" xlink:href="#dot" stroke="#ffe100"/>
    <use x="265.455" y="159.217" xlink:href="#dot" stroke="#ff0000"/>
    <use x="268.896" y="155.175" xlink:href="#dot" stroke="#00ebff"/>
    <use x="242.785" y="153.856" xlink:href="#dot" stroke="#ffe100"/>
    <use x="251.667" y="157.318" xlink:href="#dot" stroke="#ff0000"/>
    <use x="251.371" y="154.422" xlink:href="#dot" stroke="#00ebff"/>
    <use x="228.493" y="152.373" xlink:href="#dot" stroke="#ffe100"/>
    <use x="237.442" y="156.303" xlink:href="#dot" stroke="#ff0000"/>
    <use x="234.648" y="153.365" xlink:href="#dot" stroke="#00ebff"/>
    <use x="214.063" y="152.549" xlink:href="#dot" stroke="#ffe100"/>
    <use x="222.908" y="157.005" xlink:href="#dot" stroke="#ff0000"/>
    <use x="218.273" y="153.669" xlink:href="#dot" stroke="#00ebff"/>
    <use x="200.906" y="152.618" xlink:href="#dot" stroke="#ffe100"/>
    <use x="209.524" y="157.605" xlink:href="#dot" stroke="#ff0000"/>
    <use x="203.524" y="153.724" xlink:href="#dot" stroke="#00ebff"/>
    <use x="189.893" y="151.16" xlink:href="#dot" stroke="#ffe100"/>
    <use x="198.171" y="156.687" xlink:href="#dot" stroke="#ff0000"/>
    <use x="191.245" y="152.106" xlink:href="#dot" stroke="#00ebff"/>
    <use x="181.021" y="147.949" xlink:href="#dot" stroke="#ffe100"/>
    <use x="188.849" y="154.033" xlink:href="#dot" stroke="#ff0000"/>
    <use x="181.421" y="148.567" xlink:href="#dot" stroke="#00ebff"/>
    <use x="173.792" y="143.657" xlink:href="#dot" stroke="#ffe100"/>
    <use x="181.067" y="150.313" xlink:href="#dot" stroke="#ff0000"/>
    <use x="173.527" y="143.79" xlink:href="#dot" stroke="#00ebff"/>
    <use x="167.679" y="139.247" xlink:href="#dot" stroke="#ffe100"/>
    <use x="174.314" y="146.471" xlink:href="#dot" stroke="#ff0000"/>
    <use x="166.99" y="138.785" xlink:href="#dot" stroke="#00ebff"/>
    <use x="162.388" y="135.49" xlink:href="#dot" stroke="#ffe100"/>
    <use x="168.31" y="143.256" xlink:href="#dot" stroke="#ff0000"/>
    <use x="161.467" y="134.39" xlink:href="#dot" stroke="#00ebff"/>
    <use x="157.886" y="132.762" xlink:href="#dot" stroke="#ffe100"/>
    <use x="163.042" y="141.023" xlink:href="#dot" stroke="#ff0000"/>
    <use x="156.879" y="131.043" xlink:href="#dot" stroke="#00ebff"/>
    <use x="154.287" y="131.068" xlink:href="#dot" stroke="#ffe100"/>
    <use x="158.636" y="139.756" xlink:href="#dot" stroke="#ff0000"/>
    <use x="153.302" y="128.796" xlink:href="#dot" stroke="#00ebff"/>
    <use x="151.707" y="130.182" xlink:href="#dot" stroke="#ffe100"/>
    <use x="155.219" y="139.22" xlink:href="#dot" stroke="#ff0000"/>
    <use x="150.825" y="127.451" xlink:href="#dot" stroke="#00ebff"/>
    <use x="150.162" y="129.811" xlink:href="#dot" stroke="#ffe100"/>
    <use x="152.816" y="139.118" xlink:href="#dot" stroke="#ff0000"/>
    <use x="149.445" y="126.729" xlink:href="#dot" stroke="#00ebff"/>
    <use x="149.535" y="129.705" xlink:href="#dot" stroke="#ffe100"/>
    <use x="151.314" y="139.199" xlink:href="#dot" stroke="#ff0000"/>
    <use x="149.031" y="126.377" xlink:href="#dot" stroke="#00ebff"/>
    <use x="149.588" y="129.696" xlink:href="#dot" stroke="#ffe100"/>
    <use x="150.48" y="139.302" xlink:href="#dot" stroke="#ff0000"/>
    <use x="149.327" y="126.225" xlink:href="#dot" stroke="#00ebff"/>
    <use x="150" y="129.702" xlink:href="#dot" stroke="#ffe100"/>
    <use x="150" y="139.344" xlink:href="#dot" stroke="#ff0000"/>
    <use x="150" y="126.184" xlink:href="#dot" stroke="#00ebff"/>
    <use x="150.412" y="129.696" xlink:href="#dot" stroke="#ffe100"/>
    <use x="149.52" y="139.302" xlink:href="#dot" stroke="#ff0000"/>
    <use x="150.673" y="126.225" xlink:href="#dot" stroke="#00ebff"/>
    <use x="150.465" y="129.705" xlink:href="#dot" stroke="#ffe100"/>
    <use x="148.686" y="139.199" xlink:href="#dot" stroke="#ff0000"/>
    <use x="150.969" y="126.377" xlink:href="#dot" stroke="#00ebff"/>
    <use x="149.838" y="129.811" xlink:href="#dot" stroke="#ffe100"/>
    <use x="147.184" y="139.118" xlink:href="#dot" stroke="#ff0000"/>
    <use x="150.555" y="126.729" xlink:href="#dot" stroke="#00ebff"/>
    <use x="148.293" y="130.182" xlink:href="#dot" stroke="#ffe100"/>
    <use x="144.781" y="139.22" xlink:href="#dot" stroke="#ff0000"/>
    <use x="149.175" y="127.451" xlink:href="#dot" stroke="#00ebff"/>
    <use x="145.713" y="131.068" xlink:href="#dot" stroke="#ffe100"/>
    <use x="141.364" y="139.756" xlink:href="#dot" stroke="#ff0000"/>
    <use x="146.698" y="128.796" xlink:href="#dot" stroke="#00ebff"/>
    <use x="142.114" y="132.762" xlink:href="#dot" stroke="#ffe100"/>
    <use x="136.958" y="141.023" xlink:href="#dot" stroke="#ff0000"/>
    <use x="143.121" y="131.043" xlink:href="#dot" stroke="#00ebff"/>
    <use x="137.612" y="135.49" xlink:href="#dot" stroke="#ffe100"/>
    <use x="131.69" y="143.256" xlink:href="#dot" stroke="#ff0000"/>
    <use x="138.533" y="134.39" xlink:href="#dot" stroke="#00ebff"/>
    <use x="132.321" y="139.247" xlink:href="#dot" stroke="#ffe100"/>
    <use x="125.686" y="146.471" xlink:href="#dot" stroke="#ff0000"/>
    <use x="133.01" y="138.785" xlink:href="#dot" stroke="#00ebff"/>
    <use x="126.208" y="143.657" xlink:href="#dot" stroke="#ffe100"/>
    <use x="118.933" y="150.313" xlink:href="#dot" stroke="#ff0000"/>
    <use x="126.473" y="143.79" xlink:href="#dot" stroke="#00ebff"/>
    <use x="118.979" y="147.949" xlink:href="#dot" stroke="#ffe100"/>
    <use x="111.151" y="154.033" xlink:href="#dot" stroke="#ff0000"/>
    <use x="118.579" y="148.567" xlink:href="#dot" stroke="#00ebff"/>
    <use x="110.107" y="151.16" xlink:href="#dot" stroke="#ffe100"/>
    <use x="101.829" y="156.687" xlink:href="#dot" stroke="#ff0000"/>
    <use x="108.755" y="152.106" xlink:href="#dot" stroke="#00ebff"/>
    <use x="99.094" y="152.618" xlink:href="#dot" stroke="#ffe100"/>
    <use x="90.476" y="157.605" xlink:href="#dot" stroke="#ff0000"/>
    <use x="96.476" y="153.724" xlink:href="#dot" stroke="#00ebff"/>
    <use x="85.937" y="152.549" xlink:href="#dot" stroke="#ffe100"/>
    <use x="77.092" y="157.005" xlink:href="#dot" stroke="#ff0000"/>
    <use x="81.727" y="153.669" xlink:href="#dot" stroke="#00ebff"/>
    <use x="71.507" y="152.373" xlink:href="#dot" stroke="#ffe100"/>
    <use x="62.558" y="156.303" xlink:href="#dot" stroke="#ff0000"/>
    <use x="65.352" y="153.365" xlink:href="#dot" stroke="#00ebff"/>
    <use x="57.215" y="153.856" xlink:href="#dot" stroke="#ffe100"/>
    <use x="48.333" y="157.318" xlink:href="#dot" stroke="#ff0000"/>
    <use x="48.629" y="154.422" xlink:href="#dot" stroke="#00ebff"/>
    <use x="43.054" y="155.971" xlink:href="#dot" stroke="#ffe100"/>
    <use x="34.545" y="159.217" xlink:href="#dot" stroke="#ff0000"/>
    <use x="31.104" y="155.175" xlink:href="#dot" stroke="#00ebff"/>
    <use x="234.024" y="152.139" xlink:href="#dot" stroke="#ffe100"/>
    <use x="242.727" y="154.959" xlink:href="#dot" stroke="#ff0000"/>
    <use x="241.742" y="149.338" xlink:href="#dot" stroke="#00ebff"/>
    <use x="220.125" y="149.061" xlink:href="#dot" stroke="#ffe100"/>
    <use x="229.043" y="151.987" xlink:href="#dot" stroke="#ff0000"/>
    <use x="225.06" y="147.866" xlink:href="#dot" stroke="#00ebff"/>
    <use x="207.117" y="145.931" xlink:href="#dot" stroke="#ffe100"/>
    <use x="215.959" y="149.276" xlink:href="#dot" stroke="#ff0000"/>
    <use x="210.14" y="145.233" xlink:href="#dot" stroke="#00ebff"/>
    <use x="194.449" y="144.72" xlink:href="#dot" stroke="#ffe100"/>
    <use x="203.062" y="148.551" xlink:href="#dot" stroke="#ff0000"/>
    <use x="195.997" y="144.183" xlink:href="#dot" stroke="#00ebff"/>
    <use x="183.095" y="143.939" xlink:href="#dot" stroke="#ffe100"/>
    <use x="191.372" y="148.252" xlink:href="#dot" stroke="#ff0000"/>
    <use x="183.471" y="143.447" xlink:href="#dot" stroke="#00ebff"/>
    <use x="173.745" y="142.119" xlink:href="#dot" stroke="#ffe100"/>
    <use x="181.588" y="146.905" xlink:href="#dot" stroke="#ff0000"/>
    <use x="173.224" y="141.564" xlink:href="#dot" stroke="#00ebff"/>
    <use x="166.437" y="138.851" xlink:href="#dot" stroke="#ffe100"/>
    <use x="173.75" y="144.117" xlink:href="#dot" stroke="#ff0000"/>
    <use x="165.286" y="138.094" xlink:href="#dot" stroke="#00ebff"/>
    <use x="160.815" y="134.61" xlink:href="#dot" stroke="#ffe100"/>
    <use x="167.507" y="140.363" xlink:href="#dot" stroke="#ff0000"/>
    <use x="159.281" y="133.506" xlink:href="#dot" stroke="#00ebff"/>
    <use x="156.469" y="130.204" xlink:href="#dot" stroke="#ffe100"/>
    <use x="162.461" y="136.446" xlink:href="#dot" stroke="#ff0000"/>
    <use x="154.764" y="128.643" xlink:href="#dot" stroke="#00ebff"/>
    <use x="153.13" y="126.332" xlink:href="#dot" stroke="#ffe100"/>
    <use x="158.358" y="133.04" xlink:href="#dot" stroke="#ff0000"/>
    <use x="151.423" y="124.255" xlink:href="#dot" stroke="#00ebff"/>
    <use x="150.691" y="123.365" xlink:href="#dot" stroke="#ffe100"/>
    <use x="155.107" y="130.497" xlink:href="#dot" stroke="#ff0000"/>
    <use x="149.109" y="120.775" xlink:href="#dot" stroke="#00ebff"/>
    <use x="149.131" y="121.355" xlink:href="#dot" stroke="#ffe100"/>
    <use x="152.699" y="128.851" xlink:href="#dot" stroke="#ff0000"/>
    <use x="147.769" y="118.301" xlink:href="#dot" stroke="#00ebff"/>
    <use x="148.424" y="120.145" xlink:href="#dot" stroke="#ffe100"/>
    <use x="151.12" y="127.931" xlink:href="#dot" stroke="#ff0000"/>
    <use x="147.349" y="116.71" xlink:href="#dot" stroke="#00ebff"/>
    <use x="148.471" y="119.501" xlink:href="#dot" stroke="#ffe100"/>
    <use x="150.277" y="127.496" xlink:href="#dot" stroke="#ff0000"/>
    <use x="147.729" y="115.787" xlink:href="#dot" stroke="#00ebff"/>
    <use x="149.084" y="119.209" xlink:href="#dot" stroke="#ffe100"/>
    <use x="149.989" y="127.329" xlink:href="#dot" stroke="#ff0000"/>
    <use x="148.706" y="115.326" xlink:href="#dot" stroke="#00ebff"/>
    <use x="150" y="119.128" xlink:href="#dot" stroke="#ffe100"/>
    <use x="150" y="127.29" xlink:href="#dot" stroke="#ff0000"/>
    <use x="150" y="115.188" xlink:href="#dot" stroke="#00ebff"/>
    <use x="150.916" y="119.209" xlink:href="#dot" stroke="#ffe100"/>
    <use x="150.011" y="127.329" xlink:href="#dot" stroke="#ff0000"/>
    <use x="151.294" y="115.326" xlink:href="#dot" stroke="#00ebff"/>
    <use x="151.529" y="119.501" xlink:href="#dot" stroke="#ffe100"/>
    <use x="149.723" y="127.496" xlink:href="#dot" stroke="#ff0000"/>
    <use x="152.271" y="115.787" xlink:href="#dot" stroke="#00ebff"/>
    <use x="151.576" y="120.145" xlink:href="#dot" stroke="#ffe100"/>
    <use x="148.88" y="127.931" xlink:href="#dot" stroke="#ff0000"/>
    <use x="152.651" y="116.71" xlink:href="#dot" stroke="#00ebff"/>
    <use x="150.869" y="121.355" xlink:href="#dot" stroke="#ffe100"/>
    <use x="147.301" y="128.851" xlink:href="#dot" stroke="#ff0000"/>
    <use x="152.231" y="118.301" xlink:href="#dot" stroke="#00ebff"/>
    <use x="149.309" y="123.365" xlink:href="#dot" stroke="#ffe100"/>
    <use x="144.893" y="130.497" xlink:href="#dot" stroke="#ff0000"/>
    <use x="150.891" y="120.775" xlink:href="#dot" stroke="#00ebff"/>
    <use x="146.87" y="126.332" xlink:href="#dot" stroke="#ffe100"/>
    <use x="141.642" y="133.04" xlink:href="#dot" stroke="#ff0000"/>
    <use x="148.577" y="124.255" xlink:href="#dot" stroke="#00ebff"/>
    <use x="143.531" y="130.204" xlink:href="#dot" stroke="#ffe100"/>
    <use x="137.539" y="136.446" xlink:href="#dot" stroke="#ff0000"/>
    <use x="145.236" y="128.643" xlink:href="#dot" stroke="#00ebff"/>
    <use x="139.185" y="134.61" xlink:href="#dot" stroke="#ffe100"/>
    <use x="132.493" y="140.363" xlink:href="#dot" stroke="#ff0000"/>
    <use x="140.719" y="133.506" xlink:href="#dot" stroke="#00ebff"/>
    <use x="133.563" y="138.851" xlink:href="#dot" stroke="#ffe100"/>
    <use x="126.25" y="144.117" xlink:href="#dot" stroke="#ff0000"/>
    <use x="134.714" y="138.094" xlink:href="#dot" stroke="#00ebff"/>
    <use x="126.255" y="142.119" xlink:href="#dot" stroke="#ffe100"/>
    <use x="118.412" y="146.905" xlink:href="#dot" stroke="#ff0000"/>
    <use x="126.776" y="141.564" xlink:href="#dot" stroke="#00ebff"/>
    <use x="116.905" y="143.939" xlink:href="#dot" stroke="#ffe100"/>
    <use x="108.628" y="148.252" xlink:href="#dot" stroke="#ff0000"/>
    <use x="116.529" y="143.447" xlink:href="#dot" stroke="#00ebff"/>
    <use x="105.551" y="144.72" xlink:href="#dot" stroke="#ffe100"/>
    <use x="96.938" y="148.551" xlink:href="#dot" stroke="#ff0000"/>
    <use x="104.003" y="144.183" xlink:href="#dot" stroke="#00ebff"/>
    <use x="92.883" y="145.931" xlink:href="#dot" stroke="#ffe100"/>
    <use x="84.041" y="149.276" xlink:href="#dot" stroke="#ff0000"/>
    <use x="89.86" y="145.233" xlink:href="#dot" stroke="#00ebff"/>
    <use x="79.875" y="149.061" xlink:href="#dot" stroke="#ffe100"/>
    <use x="70.957" y="151.987" xlink:href="#dot" stroke="#ff0000"/>
    <use x="74.94" y="147.866" xlink:href="#dot" stroke="#00ebff"/>
    <use x="65.976" y="152.139" xlink:href="#dot" stroke="#ffe100"/>
    <use x="57.273" y="154.959" xlink:href="#dot" stroke="#ff0000"/>
    <use x="58.258" y="149.338" xlink:href="#dot" stroke="#00ebff"/>
    <use x="217.472" y="154.773" xlink:href="#dot" stroke="#ffe100"/>
    <use x="225.909" y="157.005" xlink:href="#dot" stroke="#ff0000"/>
    <use x="204.193" y="152.228" xlink:href="#dot" stroke="#ffe100"/>
    <use x="212.765" y="154.386" xlink:href="#dot" stroke="#ff0000"/>
    <use x="206.958" y="150.311" xlink:href="#dot" stroke="#00ebff"/>
    <use x="192.758" y="148.087" xlink:href="#dot" stroke="#ffe100"/>
    <use x="201.167" y="150.589" xlink:href="#dot" stroke="#ff0000"/>
    <use x="193.954" y="146.819" xlink:href="#dot" stroke="#00ebff"/>
    <use x="181.964" y="145.928" xlink:href="#dot" stroke="#ffe100"/>
    <use x="190.057" y="148.875" xlink:href="#dot" stroke="#ff0000"/>
    <use x="182.02" y="144.867" xlink:href="#dot" stroke="#00ebff"/>
    <use x="172.382" y="144.828" xlink:href="#dot" stroke="#ffe100"/>
    <use x="180.061" y="148.213" xlink:href="#dot" stroke="#ff0000"/>
    <use x="171.572" y="143.857" xlink:href="#dot" stroke="#00ebff"/>
    <use x="164.571" y="143.324" xlink:href="#dot" stroke="#ffe100"/>
    <use x="171.749" y="147.123" xlink:href="#dot" stroke="#ff0000"/>
    <use x="163.133" y="142.371" xlink:href="#dot" stroke="#00ebff"/>
    <use x="158.626" y="140.768" xlink:href="#dot" stroke="#ffe100"/>
    <use x="165.218" y="144.97" xlink:href="#dot" stroke="#ff0000"/>
    <use x="156.789" y="139.734" xlink:href="#dot" stroke="#00ebff"/>
    <use x="154.312" y="137.349" xlink:href="#dot" stroke="#ffe100"/>
    <use x="160.239" y="141.953" xlink:href="#dot" stroke="#ff0000"/>
    <use x="152.289" y="136.117" xlink:href="#dot" stroke="#00ebff"/>
    <use x="151.304" y="133.652" xlink:href="#dot" stroke="#ffe100"/>
    <use x="156.495" y="138.652" xlink:href="#dot" stroke="#ff0000"/>
    <use x="149.28" y="132.123" xlink:href="#dot" stroke="#00ebff"/>
    <use x="149.342" y="130.256" xlink:href="#dot" stroke="#ffe100"/>
    <use x="153.741" y="135.631" xlink:href="#dot" stroke="#ff0000"/>
    <use x="147.465" y="128.37" xlink:href="#dot" stroke="#00ebff"/>
    <use x="148.257" y="127.516" xlink:href="#dot" stroke="#ffe100"/>
    <use x="151.82" y="133.226" xlink:href="#dot" stroke="#ff0000"/>
    <use x="146.64" y="125.264" xlink:href="#dot" stroke="#00ebff"/>
    <use x="147.928" y="125.543" xlink:href="#dot" stroke="#ffe100"/>
    <use x="150.624" y="131.531" xlink:href="#dot" stroke="#ff0000"/>
    <use x="146.652" y="122.962" xlink:href="#dot" stroke="#00ebff"/>
    <use x="148.229" y="124.276" xlink:href="#dot" stroke="#ffe100"/>
    <use x="150.037" y="130.471" xlink:href="#dot" stroke="#ff0000"/>
    <use x="147.35" y="121.439" xlink:href="#dot" stroke="#00ebff"/>
    <use x="148.992" y="123.589" xlink:href="#dot" stroke="#ffe100"/>
    <use x="149.899" y="129.912" xlink:href="#dot" stroke="#ff0000"/>
    <use x="148.544" y="120.59" xlink:href="#dot" stroke="#00ebff"/>
    <use x="150" y="123.374" xlink:href="#dot" stroke="#ffe100"/>
    <use x="150" y="129.74" xlink:href="#dot" stroke="#ff0000"/>
    <use x="150" y="120.32" xlink:href="#dot" stroke="#00ebff"/>
    <use x="151.008" y="123.589" xlink:href="#dot" stroke="#ffe100"/>
    <use x="150.101" y="129.912" xlink:href="#dot" stroke="#ff0000"/>
    <use x="151.456" y="120.59" xlink:href="#dot" stroke="#00ebff"/>
    <use x="151.771" y="124.276" xlink:href="#dot" stroke="#ffe100"/>
    <use x="149.963" y="130.471" xlink:href="#dot" stroke="#ff0000"/>
    <use x="152.65" y="121.439" xlink:href="#dot" stroke="#00ebff"/>
    <use x="152.072" y="125.543" xlink:href="#dot" stroke="#ffe100"/>
    <use x="149.376" y="131.531" xlink:href="#dot" stroke="#ff0000"/>
    <use x="153.348" y="122.962" xlink:href="#dot" stroke="#00ebff"/>
    <use x="151.743" y="127.516" xlink:href="#dot" stroke="#ffe100"/>
    <use x="148.18" y="133.226" xlink:href="#dot" stroke="#ff0000"/>
    <use x="153.36" y="125.264" xlink:href="#dot" stroke="#00ebff"/>
    <use x="150.658" y="130.256" xlink:href="#dot" stroke="#ffe100"/>
    <use x="146.259" y="135.631" xlink:href="#dot" stroke="#ff0000"/>
    <use x="152.535" y="128.37" xlink:href="#dot" stroke="#00ebff"/>
    <use x="148.696" y="133.652" xlink:href="#dot" stroke="#ffe100"/>
    <use x="143.505" y="138.652" xlink:href="#dot" stroke="#ff0000"/>
    <use x="150.72" y="132.123" xlink:href="#dot" stroke="#00ebff"/>
    <use x="145.688" y="137.349" xlink:href="#dot" stroke="#ffe100"/>
    <use x="139.761" y="141.953" xlink:href="#dot" stroke="#ff0000"/>
    <use x="147.711" y="136.117" xlink:href="#dot" stroke="#00ebff"/>
    <use x="141.374" y="140.768" xlink:href="#dot" stroke="#ffe100"/>
    <use x="134.782" y="144.97" xlink:href="#dot" stroke="#ff0000"/>
    <use x="143.211" y="139.734" xlink:href="#dot" stroke="#00ebff"/>
    <use x="135.429" y="143.324" xlink:href="#dot" stroke="#ffe100"/>
    <use x="128.251" y="147.123" xlink:href="#dot" stroke="#ff0000"/>
    <use x="136.867" y="142.371" xlink:href="#dot" stroke="#00ebff"/>
    <use x="127.618" y="144.828" xlink:href="#dot" stroke="#ffe100"/>
    <use x="119.939" y="148.213" xlink:href="#dot" stroke="#ff0000"/>
    <use x="128.428" y="143.857" xlink:href="#dot" stroke="#00ebff"/>
    <use x="118.036" y="145.928" xlink:href="#dot" stroke="#ffe100"/>
    <use x="109.943" y="148.875" xlink:href="#dot" stroke="#ff0000"/>
    <use x="117.98" y="144.867" xlink:href="#dot" stroke="#00ebff"/>
    <use x="107.242" y="148.087" xlink:href="#dot" stroke="#ffe100"/>
    <use x="98.833" y="150.589" xlink:href="#dot" stroke="#ff0000"/>
    <use x="106.046" y="146.819" xlink:href="#dot" stroke="#00ebff"/>
    <use x="95.807" y="152.228" xlink:href="#dot" stroke="#ffe100"/>
    <use x="87.235" y="154.386" xlink:href="#dot" stroke="#ff0000"/>
    <use x="93.042" y="150.311" xlink:href="#dot" stroke="#00ebff"/>
    <use x="82.528" y="154.773" xlink:href="#dot" stroke="#ffe100"/>
    <use x="74.091" y="157.005" xlink:href="#dot" stroke="#ff0000"/>
    <use x="194.45" y="158.605" xlink:href="#dot" stroke="#ffe100"/>
    <use x="202.482" y="159.971" xlink:href="#dot" stroke="#ff0000"/>
    <use x="196.46" y="155.867" xlink:href="#dot" stroke="#00ebff"/>
    <use x="184.725" y="154.432" xlink:href="#dot" stroke="#ffe100"/>
    <use x="192.625" y="155.899" xlink:href="#dot" stroke="#ff0000"/>
    <use x="185.258" y="152.943" xlink:href="#dot" stroke="#00ebff"/>
    <use x="176.066" y="150.814" xlink:href="#dot" stroke="#ffe100"/>
    <use x="183.655" y="152.624" xlink:href="#dot" stroke="#ff0000"/>
    <use x="175.627" y="149.738" xlink:href="#dot" stroke="#00ebff"/>
    <use x="168.229" y="148.94" xlink:href="#dot" stroke="#ffe100"/>
    <use x="175.406" y="151.134" xlink:href="#dot" stroke="#ff0000"/>
    <use x="167.1" y="148.019" xlink:href="#dot" stroke="#00ebff"/>
    <use x="161.585" y="147.877" xlink:href="#dot" stroke="#ffe100"/>
    <use x="168.273" y="150.433" xlink:href="#dot" stroke="#ff0000"/>
    <use x="159.968" y="147.043" xlink:href="#dot" stroke="#00ebff"/>
    <use x="156.377" y="146.64" xlink:href="#dot" stroke="#ffe100"/>
    <use x="162.509" y="149.528" xlink:href="#dot" stroke="#ff0000"/>
    <use x="154.453" y="145.851" xlink:href="#dot" stroke="#00ebff"/>
    <use x="152.59" y="144.815" xlink:href="#dot" stroke="#ffe100"/>
    <use x="158.101" y="148.014" xlink:href="#dot" stroke="#ff0000"/>
    <use x="150.53" y="144.01" xlink:href="#dot" stroke="#00ebff"/>
    <use x="150.047" y="142.497" xlink:href="#dot" stroke="#ffe100"/>
    <use x="154.877" y="145.993" xlink:href="#dot" stroke="#ff0000"/>
    <use x="148.007" y="141.605" xlink:href="#dot" stroke="#00ebff"/>
    <use x="148.525" y="140.019" xlink:href="#dot" stroke="#ffe100"/>
    <use x="152.623" y="143.794" xlink:href="#dot" stroke="#ff0000"/>
    <use x="146.639" y="138.978" xlink:href="#dot" stroke="#00ebff"/>
    <use x="147.823" y="137.723" xlink:href="#dot" stroke="#ffe100"/>
    <use x="151.147" y="141.749" xlink:href="#dot" stroke="#ff0000"/>
    <use x="146.198" y="136.497" xlink:href="#dot" stroke="#00ebff"/>
    <use x="147.775" y="135.842" xlink:href="#dot" stroke="#ffe100"/>
    <use x="150.293" y="140.081" xlink:href="#dot" stroke="#ff0000"/>
    <use x="146.491" y="134.431" xlink:href="#dot" stroke="#00ebff"/>
    <use x="148.227" y="134.487" xlink:href="#dot" stroke="#ffe100"/>
    <use x="149.917" y="138.889" xlink:href="#dot" stroke="#ff0000"/>
    <use x="147.341" y="132.919" xlink:href="#dot" stroke="#00ebff"/>
    <use x="149.024" y="133.683" xlink:href="#dot" stroke="#ffe100"/>
    <use x="149.873" y="138.185" xlink:href="#dot" stroke="#ff0000"/>
    <use x="148.573" y="132.012" xlink:href="#dot" stroke="#00ebff"/>
    <use x="150" y="133.418" xlink:href="#dot" stroke="#ffe100"/>
    <use x="150" y="137.955" xlink:href="#dot" stroke="#ff0000"/>
    <use x="150" y="131.71" xlink:href="#dot" stroke="#00ebff"/>
    <use x="150.976" y="133.683" xlink:href="#dot" stroke="#ffe100"/>
    <use x="150.127" y="138.185" xlink:href="#dot" stroke="#ff0000"/>
    <use x="151.427" y="132.012" xlink:href="#dot" stroke="#00ebff"/>
    <use x="151.773" y="134.487" xlink:href="#dot" stroke="#ffe100"/>
    <use x="150.083" y="138.889" xlink:href="#dot" stroke="#ff0000"/>
    <use x="152.659" y="132.919" xlink:href="#dot" stroke="#00ebff"/>
    <use x="152.225" y="135.842" xlink:href="#dot" stroke="#ffe100"/>
    <use x="149.707" y="140.081" xlink:href="#dot" stroke="#ff0000"/>
    <use x="153.509" y="134.431" xlink:href="#dot" stroke="#00ebff"/>
    <use x="152.177" y="137.723" xlink:href="#dot" stroke="#ffe100"/>
    <use x="148.853" y="141.749" xlink:href="#dot" stroke="#ff0000"/>
    <use x="153.802" y="136.497" xlink:href="#dot" stroke="#00ebff"/>
    <use x="151.475" y="140.019" xlink:href="#dot" stroke="#ffe100"/>
    <use x="147.377" y="143.794" xlink:href="#dot" stroke="#ff0000"/>
    <use x="153.361" y="138.978" xlink:href="#dot" stroke="#00ebff"/>
    <use x="149.953" y="142.497" xlink:href="#dot" stroke="#ffe100"/>
    <use x="145.123" y="145.993" xlink:href="#dot" stroke="#ff0000"/>
    <use x="151.993" y="141.605" xlink:href="#dot" stroke="#00ebff"/>
    <use x="147.41" y="144.815" xlink:href="#dot" stroke="#ffe100"/>
    <use x="141.899" y="148.014" xlink:href="#dot" stroke="#ff0000"/>
    <use x="149.47" y="144.01" xlink:href="#dot" stroke="#00ebff"/>
    <use x="143.623" y="146.64" xlink:href="#dot" stroke="#ffe100"/>
    <use x="137.491" y="149.528" xlink:href="#dot" stroke="#ff0000"/>
    <use x="145.547" y="145.851" xlink:href="#dot" stroke="#00ebff"/>
    <use x="138.415" y="147.877" xlink:href="#dot" stroke="#ffe100"/>
    <use x="131.727" y="150.433" xlink:href="#dot" stroke="#ff0000"/>
    <use x="140.032" y="147.043" xlink:href="#dot" stroke="#00ebff"/>
    <use x="131.771" y="148.94" xlink:href="#dot" stroke="#ffe100"/>
    <use x="124.594" y="151.134" xlink:href="#dot" stroke="#ff0000"/>
    <use x="132.9" y="148.019" xlink:href="#dot" stroke="#00ebff"/>
    <use x="123.934" y="150.814" xlink:href="#dot" stroke="#ffe100"/>
    <use x="116.345" y="152.624" xlink:href="#dot" stroke="#ff0000"/>
    <use x="124.373" y="149.738" xlink:href="#dot" stroke="#00ebff"/>
    <use x="115.275" y="154.432" xlink:href="#dot" stroke="#ffe100"/>
    <use x="107.375" y="155.899" xlink:href="#dot" stroke="#ff0000"/>
    <use x="114.742" y="152.943" xlink:href="#dot" stroke="#00ebff"/>
    <use x="105.55" y="158.605" xlink:href="#dot" stroke="#ffe100"/>
    <use x="97.518" y="159.971" xlink:href="#dot" stroke="#ff0000"/>
    <use x="103.54" y="155.867" xlink:href="#dot" stroke="#00ebff"/>
    <use x="183.743" y="162.978" xlink:href="#dot" stroke="#ffe100"/>
    <use x="191.099" y="163.734" xlink:href="#dot" stroke="#ff0000"/>
    <use x="185.108" y="159.603" xlink:href="#dot" stroke="#00ebff"/>
    <use x="175.08" y="160.221" xlink:href="#dot" stroke="#ffe100"/>
    <use x="182.3" y="160.828" xlink:href="#dot" stroke="#ff0000"/>
    <use x="175.038" y="158.761" xlink:href="#dot" stroke="#00ebff"/>
    <use x="168.102" y="155.943" xlink:href="#dot" stroke="#ffe100"/>
    <use x="174.983" y="156.78" xlink:href="#dot" stroke="#ff0000"/>
    <use x="167.228" y="155.157" xlink:href="#dot" stroke="#00ebff"/>
    <use x="162.006" y="153.199" xlink:href="#dot" stroke="#ffe100"/>
    <use x="168.436" y="154.37" xlink:href="#dot" stroke="#ff0000"/>
    <use x="160.605" y="152.647" xlink:href="#dot" stroke="#00ebff"/>
    <use x="156.897" y="151.814" xlink:href="#dot" stroke="#ffe100"/>
    <use x="162.801" y="153.313" xlink:href="#dot" stroke="#ff0000"/>
    <use x="155.169" y="151.374" xlink:href="#dot" stroke="#00ebff"/>
    <use x="152.961" y="150.922" xlink:href="#dot" stroke="#ffe100"/>
    <use x="158.276" y="152.715" xlink:href="#dot" stroke="#ff0000"/>
    <use x="151.068" y="150.562" xlink:href="#dot" stroke="#00ebff"/>
    <use x="150.222" y="149.935" xlink:href="#dot" stroke="#ffe100"/>
    <use x="154.891" y="151.986" xlink:href="#dot" stroke="#ff0000"/>
    <use x="148.311" y="149.625" xlink:href="#dot" stroke="#00ebff"/>
    <use x="148.564" y="148.689" xlink:href="#dot" stroke="#ffe100"/>
    <use x="152.535" y="150.969" xlink:href="#dot" stroke="#ff0000"/>
    <use x="146.767" y="148.392" xlink:href="#dot" stroke="#00ebff"/>
    <use x="147.803" y="147.301" xlink:href="#dot" stroke="#ffe100"/>
    <use x="151.033" y="149.78" xlink:href="#dot" stroke="#ff0000"/>
    <use x="146.234" y="146.977" xlink:href="#dot" stroke="#00ebff"/>
    <use x="147.747" y="145.981" xlink:href="#dot" stroke="#ffe100"/>
    <use x="150.199" y="148.627" xlink:href="#dot" stroke="#ff0000"/>
    <use x="146.494" y="145.606" xlink:href="#dot" stroke="#00ebff"/>
    <use x="148.211" y="144.918" xlink:href="#dot" stroke="#ffe100"/>
    <use x="149.86" y="147.692" xlink:href="#dot" stroke="#ff0000"/>
    <use x="147.34" y="144.487" xlink:href="#dot" stroke="#00ebff"/>
    <use x="149.019" y="144.239" xlink:href="#dot" stroke="#ffe100"/>
    <use x="149.848" y="147.092" xlink:href="#dot" stroke="#ff0000"/>
    <use x="148.573" y="143.764" xlink:href="#dot" stroke="#00ebff"/>
    <use x="150" y="144.006" xlink:href="#dot" stroke="#ffe100"/>
    <use x="150" y="146.886" xlink:href="#dot" stroke="#ff0000"/>
    <use x="150" y="143.515" xlink:href="#dot" stroke="#00ebff"/>
    <use x="150.981" y="144.239" xlink:href="#dot" stroke="#ffe100"/>
    <use x="150.152" y="147.092" xlink:href="#dot" stroke="#ff0000"/>
    <use x="151.427" y="143.764" xlink:href="#dot" stroke="#00ebff"/>
    <use x="151.789" y="144.918" xlink:href="#dot" stroke="#ffe100"/>
    <use x="150.14" y="147.692" xlink:href="#dot" stroke="#ff0000"/>
    <use x="152.66" y="144.487" xlink:href="#dot" stroke="#00ebff"/>
    <use x="152.253" y="145.981" xlink:href="#dot" stroke="#ffe100"/>
    <use x="149.801" y="148.627" xlink:href="#dot" stroke="#ff0000"/>
    <use x="153.506" y="145.606" xlink:href="#dot" stroke="#00ebff"/>
    <use x="152.197" y="147.301" xlink:href="#dot" stroke="#ffe100"/>
    <use x="148.967" y="149.78" xlink:href="#dot" stroke="#ff0000"/>
    <use x="153.766" y="146.977" xlink:href="#dot" stroke="#00ebff"/>
    <use x="151.436" y="148.689" xlink:href="#dot" stroke="#ffe100"/>
    <use x="147.465" y="150.969" xlink:href="#dot" stroke="#ff0000"/>
    <use x="153.233" y="148.392" xlink:href="#dot" stroke="#00ebff"/>
    <use x="149.778" y="149.935" xlink:href="#dot" stroke="#ffe100"/>
    <use x="145.109" y="151.986" xlink:href="#dot" stroke="#ff0000"/>
    <use x="151.689" y="149.625" xlink:href="#dot" stroke="#00ebff"/>
    <use x="147.039" y="150.922" xlink:href="#dot" stroke="#ffe100"/>
    <use x="141.724" y="152.715" xlink:href="#dot" stroke="#ff0000"/>
    <use x="148.932" y="150.562" xlink:href="#dot" stroke="#00ebff"/>
    <use x="143.103" y="151.814" xlink:href="#dot" stroke="#ffe100"/>
    <use x="137.199" y="153.313" xlink:href="#dot" stroke="#ff0000"/>
    <use x="144.831" y="151.374" xlink:href="#dot" stroke="#00ebff"/>
    <use x="137.994" y="153.199" xlink:href="#dot" stroke="#ffe100"/>
    <use x="131.564" y="154.37" xlink:href="#dot" stroke="#ff0000"/>
    <use x="139.395" y="152.647" xlink:href="#dot" stroke="#00ebff"/>
    <use x="131.898" y="155.943" xlink:href="#dot" stroke="#ffe100"/>
    <use x="125.017" y="156.78" xlink:href="#dot" stroke="#ff0000"/>
    <use x="132.772" y="155.157" xlink:href="#dot" stroke="#00ebff"/>
    <use x="124.92" y="160.221" xlink:href="#dot" stroke="#ffe100"/>
    <use x="117.7" y="160.828" xlink:href="#dot" stroke="#ff0000"/>
    <use x="124.962" y="158.761" xlink:href="#dot" stroke="#00ebff"/>
    <use x="116.257" y="162.978" xlink:href="#dot" stroke="#ffe100"/>
    <use x="108.901" y="163.734" xlink:href="#dot" stroke="#ff0000"/>
    <use x="114.892" y="159.603" xlink:href="#dot" stroke="#00ebff"/>
    <use x="167.372" y="165.846" xlink:href="#dot" stroke="#ffe100"/>
    <use x="173.849" y="165.746" xlink:href="#dot" stroke="#ff0000"/>
    <use x="167.136" y="164.177" xlink:href="#dot" stroke="#00ebff"/>
    <use x="161.739" y="161.829" xlink:href="#dot" stroke="#ffe100"/>
    <use x="167.872" y="161.762" xlink:href="#dot" stroke="#ff0000"/>
    <use x="160.732" y="161.331" xlink:href="#dot" stroke="#00ebff"/>
    <use x="157.202" y="158.2" xlink:href="#dot" stroke="#ffe100"/>
    <use x="162.861" y="158.378" xlink:href="#dot" stroke="#ff0000"/>
    <use x="155.775" y="158.124" xlink:href="#dot" stroke="#00ebff"/>
    <use x="153.534" y="156.044" xlink:href="#dot" stroke="#ffe100"/>
    <use x="158.638" y="156.509" xlink:href="#dot" stroke="#ff0000"/>
    <use x="151.898" y="156.135" xlink:href="#dot" stroke="#00ebff"/>
    <use x="150.8" y="154.928" xlink:href="#dot" stroke="#ffe100"/>
    <use x="155.29" y="155.656" xlink:href="#dot" stroke="#ff0000"/>
    <use x="149.11" y="155.111" xlink:href="#dot" stroke="#00ebff"/>
    <use x="149.024" y="154.254" xlink:href="#dot" stroke="#ffe100"/>
    <use x="152.849" y="155.204" xlink:href="#dot" stroke="#ff0000"/>
    <use x="147.409" y="154.508" xlink:href="#dot" stroke="#00ebff"/>
    <use x="148.125" y="153.679" xlink:href="#dot" stroke="#ffe100"/>
    <use x="151.24" y="154.811" xlink:href="#dot" stroke="#ff0000"/>
    <use x="146.694" y="153.986" xlink:href="#dot" stroke="#00ebff"/>
    <use x="147.954" y="153.115" xlink:href="#dot" stroke="#ffe100"/>
    <use x="150.323" y="154.39" xlink:href="#dot" stroke="#ff0000"/>
    <use x="146.799" y="153.456" xlink:href="#dot" stroke="#00ebff"/>
    <use x="148.332" y="152.614" xlink:href="#dot" stroke="#ffe100"/>
    <use x="149.927" y="153.994" xlink:href="#dot" stroke="#ff0000"/>
    <use x="147.523" y="152.971" xlink:href="#dot" stroke="#00ebff"/>
    <use x="149.075" y="152.267" xlink:href="#dot" stroke="#ffe100"/>
    <use x="149.878" y="153.711" xlink:href="#dot" stroke="#ff0000"/>
    <use x="148.659" y="152.63" xlink:href="#dot" stroke="#00ebff"/>
    <use x="150" y="152.143" xlink:href="#dot" stroke="#ffe100"/>
    <use x="150" y="153.609" xlink:href="#dot" stroke="#ff0000"/>
    <use x="150" y="152.507" xlink:href="#dot" stroke="#00ebff"/>
    <use x="150.925" y="152.267" xlink:href="#dot" stroke="#ffe100"/>
    <use x="150.122" y="153.711" xlink:href="#dot" stroke="#ff0000"/>
    <use x="151.341" y="152.63" xlink:href="#dot" stroke="#00ebff"/>
    <use x="151.668" y="152.614" xlink:href="#dot" stroke="#ffe100"/>
    <use x="150.073" y="153.994" xlink:href="#dot" stroke="#ff0000"/>
    <use x="152.477" y="152.971" xlink:href="#dot" stroke="#00ebff"/>
    <use x="152.046" y="153.115" xlink:href="#dot" stroke="#ffe100"/>
    <use x="149.677" y="154.39" xlink:href="#dot" stroke="#ff0000"/>
    <use x="153.201" y="153.456" xlink:href="#dot" stroke="#00ebff"/>
    <use x="151.875" y="153.679" xlink:href="#dot" stroke="#ffe100"/>
    <use x="148.76" y="154.811" xlink:href="#dot" stroke="#ff0000"/>
    <use x="153.306" y="153.986" xlink:href="#dot" stroke="#00ebff"/>
    <use x="150.976" y="154.254" xlink:href="#dot" stroke="#ffe100"/>
    <use x="147.151" y="155.204" xlink:href="#dot" stroke="#ff0000"/>
    <use x="152.591" y="154.508" xlink:href="#dot" stroke="#00ebff"/>
    <use x="149.2" y="154.928" xlink:href="#dot" stroke="#ffe100"/>
    <use x="144.71" y="155.656" xlink:href="#dot" stroke="#ff0000"/>
    <use x="150.89" y="155.111" xlink:href="#dot" stroke="#00ebff"/>
    <use x="146.466" y="156.044" xlink:href="#dot" stroke="#ffe100"/>
    <use x="141.362" y="156.509" xlink:href="#dot" stroke="#ff0000"/>
    <use x="148.102" y="156.135" xlink:href="#dot" stroke="#00ebff"/>
    <use x="142.798" y="158.2" xlink:href="#dot" stroke="#ffe100"/>
    <use x="137.139" y="158.378" xlink:href="#dot" stroke="#ff0000"/>
    <use x="144.225" y="158.124" xlink:href="#dot" stroke="#00ebff"/>
    <use x="138.261" y="161.829" xlink:href="#dot" stroke="#ffe100"/>
    <use x="132.128" y="161.762" xlink:href="#dot" stroke="#ff0000"/>
    <use x="139.268" y="161.331" xlink:href="#dot" stroke="#00ebff"/>
    <use x="132.628" y="165.846" xlink:href="#dot" stroke="#ffe100"/>
    <use x="126.151" y="165.746" xlink:href="#dot" stroke="#ff0000"/>
    <use x="132.864" y="164.177" xlink:href="#dot" stroke="#00ebff"/>
    <use x="161.986" y="170.068" xlink:href="#dot" stroke="#ffe100"/>
    <use x="167.665" y="169.564" xlink:href="#dot" stroke="#ff0000"/>
    <use x="157.13" y="168.494" xlink:href="#dot" stroke="#ffe100"/>
    <use x="162.485" y="167.69" xlink:href="#dot" stroke="#ff0000"/>
    <use x="156.222" y="167.965" xlink:href="#dot" stroke="#00ebff"/>
    <use x="153.794" y="164.711" xlink:href="#dot" stroke="#ffe100"/>
    <use x="158.669" y="163.983" xlink:href="#dot" stroke="#ff0000"/>
    <use x="152.513" y="165.015" xlink:href="#dot" stroke="#00ebff"/>
    <use x="151.339" y="161.69" xlink:href="#dot" stroke="#ffe100"/>
    <use x="155.645" y="161.166" xlink:href="#dot" stroke="#ff0000"/>
    <use x="149.924" y="162.322" xlink:href="#dot" stroke="#00ebff"/>
    <use x="149.648" y="159.846" xlink:href="#dot" stroke="#ffe100"/>
    <use x="153.323" y="159.54" xlink:href="#dot" stroke="#ff0000"/>
    <use x="148.256" y="160.619" xlink:href="#dot" stroke="#00ebff"/>
    <use x="148.692" y="158.838" xlink:href="#dot" stroke="#ffe100"/>
    <use x="151.688" y="158.722" xlink:href="#dot" stroke="#ff0000"/>
    <use x="147.439" y="159.689" xlink:href="#dot" stroke="#00ebff"/>
    <use x="148.394" y="158.29" xlink:href="#dot" stroke="#ffe100"/>
    <use x="150.675" y="158.324" xlink:href="#dot" stroke="#ff0000"/>
    <use x="147.372" y="159.196" xlink:href="#dot" stroke="#00ebff"/>
    <use x="148.625" y="157.978" xlink:href="#dot" stroke="#ffe100"/>
    <use x="150.162" y="158.117" xlink:href="#dot" stroke="#ff0000"/>
    <use x="147.904" y="158.921" xlink:href="#dot" stroke="#00ebff"/>
    <use x="149.22" y="157.806" xlink:href="#dot" stroke="#ffe100"/>
    <use x="149.993" y="158.008" xlink:href="#dot" stroke="#ff0000"/>
    <use x="148.847" y="158.771" xlink:href="#dot" stroke="#00ebff"/>
    <use x="150" y="157.75" xlink:href="#dot" stroke="#ffe100"/>
    <use x="150" y="157.973" xlink:href="#dot" stroke="#ff0000"/>
    <use x="150" y="158.723" xlink:href="#dot" stroke="#00ebff"/>
    <use x="150.78" y="157.806" xlink:href="#dot" stroke="#ffe100"/>
    <use x="150.007" y="158.008" xlink:href="#dot" stroke="#ff0000"/>
    <use x="151.153" y="158.771" xlink:href="#dot" stroke="#00ebff"/>
    <use x="151.375" y="157.978" xlink:href="#dot" stroke="#ffe100"/>
    <use x="149.838" y="158.117" xlink:href="#dot" stroke="#ff0000"/>
    <use x="152.096" y="158.921" xlink:href="#dot" stroke="#00ebff"/>
    <use x="151.606" y="158.29" xlink:href="#dot" stroke="#ffe100"/>
    <use x="149.325" y="158.324" xlink:href="#dot" stroke="#ff0000"/>
    <use x="152.628" y="159.196" xlink:href="#dot" stroke="#00ebff"/>
    <use x="151.308" y="158.838" xlink:href="#dot" stroke="#ffe100"/>
    <use x="148.312" y="158.722" xlink:href="#dot" stroke="#ff0000"/>
    <use x="152.561" y="159.689" xlink:href="#dot" stroke="#00ebff"/>
    <use x="150.352" y="159.846" xlink:href="#dot" stroke="#ffe100"/>
    <use x="146.677" y="159.54" xlink:href="#dot" stroke="#ff0000"/>
    <use x="151.744" y="160.619" xlink:href="#dot" stroke="#00ebff"/>
    <use x="148.661" y="161.69" xlink:href="#dot" stroke="#ffe100"/>
    <use x="144.355" y="161.166" xlink:href="#dot" stroke="#ff0000"/>
    <use x="150.076" y="162.322" xlink:href="#dot" stroke="#00ebff"/>
    <use x="146.206" y="164.711" xlink:href="#dot" stroke="#ffe100"/>
    <use x="141.331" y="163.983" xlink:href="#dot" stroke="#ff0000"/>
    <use x="147.487" y="165.015" xlink:href="#dot" stroke="#00ebff"/>
    <use x="142.87" y="168.494" xlink:href="#dot" stroke="#ffe100"/>
    <use x="137.515" y="167.69" xlink:href="#dot" stroke="#ff0000"/>
    <use x="143.778" y="167.965" xlink:href="#dot" stroke="#00ebff"/>
    <use x="138.014" y="170.068" xlink:href="#dot" stroke="#ffe100"/>
    <use x="132.335" y="169.564" xlink:href="#dot" stroke="#ff0000"/>
    <use x="154.456" y="174.463" xlink:href="#dot" stroke="#ffe100"/>
    <use x="159.001" y="173.263" xlink:href="#dot" stroke="#ff0000"/>
    <use x="153.853" y="173.067" xlink:href="#dot" stroke="#00ebff"/>
    <use x="151.781" y="172.648" xlink:href="#dot" stroke="#ffe100"/>
    <use x="155.863" y="171.219" xlink:href="#dot" stroke="#ff0000"/>
    <use x="150.788" y="172.864" xlink:href="#dot" stroke="#00ebff"/>
    <use x="150.169" y="169.616" xlink:href="#dot" stroke="#ffe100"/>
    <use x="153.68" y="168.22" xlink:href="#dot" stroke="#ff0000"/>
    <use x="149.066" y="170.553" xlink:href="#dot" stroke="#00ebff"/>
    <use x="149.253" y="167.148" xlink:href="#dot" stroke="#ffe100"/>
    <use x="152.127" y="165.874" xlink:href="#dot" stroke="#ff0000"/>
    <use x="148.21" y="168.406" xlink:href="#dot" stroke="#00ebff"/>
    <use x="148.897" y="165.522" xlink:href="#dot" stroke="#ffe100"/>
    <use x="151.089" y="164.38" xlink:href="#dot" stroke="#ff0000"/>
    <use x="148.025" y="166.931" xlink:href="#dot" stroke="#00ebff"/>
    <use x="148.993" y="164.572" xlink:href="#dot" stroke="#ffe100"/>
    <use x="150.472" y="163.533" xlink:href="#dot" stroke="#ff0000"/>
    <use x="148.371" y="166.054" xlink:href="#dot" stroke="#00ebff"/>
    <use x="149.413" y="164.089" xlink:href="#dot" stroke="#ffe100"/>
    <use x="150.157" y="163.116" xlink:href="#dot" stroke="#ff0000"/>
    <use x="149.089" y="165.608" xlink:href="#dot" stroke="#00ebff"/>
    <use x="150" y="163.942" xlink:href="#dot" stroke="#ffe100"/>
    <use x="150" y="162.991" xlink:href="#dot" stroke="#ff0000"/>
    <use x="150" y="165.472" xlink:href="#dot" stroke="#00ebff"/>
    <use x="150.587" y="164.089" xlink:href="#dot" stroke="#ffe100"/>
    <use x="149.843" y="163.116" xlink:href="#dot" stroke="#ff0000"/>
    <use x="150.911" y="165.608" xlink:href="#dot" stroke="#00ebff"/>
    <use x="151.007" y="164.572" xlink:href="#dot" stroke="#ffe100"/>
    <use x="149.528" y="163.533" xlink:href="#dot" stroke="#ff0000"/>
    <use x="151.629" y="166.054" xlink:href="#dot" stroke="#00ebff"/>
    <use x="151.103" y="165.522" xlink:href="#dot" stroke="#ffe100"/>
    <use x="148.911" y="164.38" xlink:href="#dot" stroke="#ff0000"/>
    <use x="151.975" y="166.931" xlink:href="#dot" stroke="#00ebff"/>
    <use x="150.747" y="167.148" xlink:href="#dot" stroke="#ffe100"/>
    <use x="147.873" y="165.874" xlink:href="#dot" stroke="#ff0000"/>
    <use x="151.79" y="168.406" xlink:href="#dot" stroke="#00ebff"/>
    <use x="149.831" y="169.616" xlink:href="#dot" stroke="#ffe100"/>
    <use x="146.32" y="168.22" xlink:href="#dot" stroke="#ff0000"/>
    <use x="150.934" y="170.553" xlink:href="#dot" stroke="#00ebff"/>
    <use x="148.219" y="172.648" xlink:href="#dot" stroke="#ffe100"/>
    <use x="144.137" y="171.219" xlink:href="#dot" stroke="#ff0000"/>
    <use x="149.212" y="172.864" xlink:href="#dot" stroke="#00ebff"/>
    <use x="145.544" y="174.463" xlink:href="#dot" stroke="#ffe100"/>
    <use x="140.999" y="173.263" xlink:href="#dot" stroke="#ff0000"/>
    <use x="146.147" y="173.067" xlink:href="#dot" stroke="#00ebff"/>
    <use x="151.161" y="179.259" xlink:href="#dot" stroke="#ffe100"/>
    <use x="154.431" y="177.587" xlink:href="#dot" stroke="#ff0000"/>
    <use x="149.894" y="178.683" xlink:href="#dot" stroke="#ffe100"/>
    <use x="152.611" y="176.738" xlink:href="#dot" stroke="#ff0000"/>
    <use x="149.18" y="179.09" xlink:href="#dot" stroke="#00ebff"/>
    <use x="149.386" y="176.964" xlink:href="#dot" stroke="#ffe100"/>
    <use x="151.474" y="174.951" xlink:href="#dot" stroke="#ff0000"/>
    <use x="148.724" y="178.116" xlink:href="#dot" stroke="#00ebff"/>
    <use x="149.345" y="175.448" xlink:href="#dot" stroke="#ffe100"/>
    <use x="150.759" y="173.445" xlink:href="#dot" stroke="#ff0000"/>
    <use x="148.849" y="176.971" xlink:href="#dot" stroke="#00ebff"/>
    <use x="149.598" y="174.508" xlink:href="#dot" stroke="#ffe100"/>
    <use x="150.312" y="172.528" xlink:href="#dot" stroke="#ff0000"/>
    <use x="149.335" y="176.202" xlink:href="#dot" stroke="#00ebff"/>
    <use x="150" y="174.196" xlink:href="#dot" stroke="#ffe100"/>
    <use x="150" y="172.226" xlink:href="#dot" stroke="#ff0000"/>
    <use x="150" y="175.94" xlink:href="#dot" stroke="#00ebff"/>
    <use x="150.402" y="174.508" xlink:href="#dot" stroke="#ffe100"/>
    <use x="149.688" y="172.528" xlink:href="#dot" stroke="#ff0000"/>
    <use x="150.665" y="176.202" xlink:href="#dot" stroke="#00ebff"/>
    <use x="150.655" y="175.448" xlink:href="#dot" stroke="#ffe100"/>
    <use x="149.241" y="173.445" xlink:href="#dot" stroke="#ff0000"/>
    <use x="151.151" y="176.971" xlink:href="#dot" stroke="#00ebff"/>
    <use x="150.614" y="176.964" xlink:href="#dot" stroke="#ffe100"/>
    <use x="148.526" y="174.951" xlink:href="#dot" stroke="#ff0000"/>
    <use x="151.276" y="178.116" xlink:href="#dot" stroke="#00ebff"/>
    <use x="150.106" y="178.683" xlink:href="#dot" stroke="#ffe100"/>
    <use x="147.389" y="176.738" xlink:href="#dot" stroke="#ff0000"/>
    <use x="150.82" y="179.09" xlink:href="#dot" stroke="#00ebff"/>
    <use x="148.839" y="179.259" xlink:href="#dot" stroke="#ffe100"/>
    <use x="145.569" y="177.587" xlink:href="#dot" stroke="#ff0000"/>
    <use x="149.862" y="184.727" xlink:href="#dot" stroke="#ffe100"/>
    <use x="150.531" y="182.503" xlink:href="#dot" stroke="#ff0000"/>
    <use x="150" y="184.759" xlink:href="#dot" stroke="#ffe100"/>
    <use x="150" y="182.49" xlink:href="#dot" stroke="#ff0000"/>
    <use x="150" y="184.812" xlink:href="#dot" stroke="#00ebff"/>
    <use x="150.138" y="184.727" xlink:href="#dot" stroke="#ffe100"/>
    <use x="149.469" y="182.503" xlink:href="#dot" stroke="#ff0000"/>
</svg>
