<?xml version="1.0" standalone="no"?>
<svg width="2400px" height="1400px" version="1.1" xmlns="http://www.w3.org/2000/svg"
>
    <rect x="0" y="0" width="2400" height="1400" fill="#ffffff"/>
    <defs>
        <g id="dot">
            <line x1="1" y1="1" x2="0" y2="0"/>
        </g>
        <g id="cross">
            <line x1="-3" y1="0" x2="3" y2="0"/>
            <line x1="0" y1="-3" x2="0" y2="3"/>
        </g>
        <g id="square">
            <line x1="-3" y1="-3" x2="-3" y2="3"/>
            <line x1="-3" y1="3" x2="3" y2="3"/>
            <line x1="3" y1="3" x2="3" y2="-3"/>
            <line x1="3" y1="-3" x2="-3" y2="-3"/>
        </g>
        <g id="round">
            <ellipse cx="0" cy="0" rx="3" ry="3" fill="none"/>
        </g>
        <g id="triangle">
            <line x1="0" y1="-3" x2="-3" y2="3"/>
            <line x1="-3" y1="3" x2="3" y2="3"/>
            <line x1="0" y1="-3" x2="3" y2="3"/>
        </g>
    </defs>
    <line x1="682.639" y1="700" x2="1717.361" y2="700" stroke="#7f7f7f"/>
    <g>
        <title>element</title>
        <g>
            <line x1="946.528" y1="535.886" x2="946.528" y2="371.772" stroke="#7f7fff"/>
            <line x1="946.528" y1="864.114" x2="946.528" y2="1028.228" stroke="#7f7fff"/>
        </g>
        <g>
            <polyline fill="none" stroke="#7f7fff"
                      points="740.099,462.41 737.664,467.21 735.292,472.01 732.98,476.809 730.729,481.609 728.537,486.409 726.403,491.209 724.327,496.009 722.308,500.808 720.346,505.608 718.438,510.408 716.586,515.208 714.788,520.008 713.044,524.807 711.352,529.607 709.714,534.407 708.127,539.207 706.592,544.007 705.108,548.806 703.674,553.606 702.291,558.406 700.957,563.206 699.673,568.006 698.437,572.805 697.25,577.605 696.112,582.405 695.021,587.205 693.978,592.005 692.983,596.804 692.034,601.604 691.133,606.404 690.277,611.204 689.469,616.004 688.706,620.803 687.989,625.603 687.318,630.403 686.692,635.203 686.112,640.003 685.577,644.802 685.087,649.602 684.642,654.402 684.242,659.202 683.887,664.002 683.576,668.801 683.31,673.601 683.088,678.401 682.91,683.201 682.777,688.001 682.689,692.8 682.644,697.6 682.644,702.4 682.689,707.2 682.777,711.999 682.91,716.799 683.088,721.599 683.31,726.399 683.576,731.199 683.887,735.998 684.242,740.798 684.642,745.598 685.087,750.398 685.577,755.198 686.112,759.997 686.692,764.797 687.318,769.597 687.989,774.397 688.706,779.197 689.469,783.996 690.277,788.796 691.133,793.596 692.034,798.396 692.983,803.196 693.978,807.995 695.021,812.795 696.112,817.595 697.25,822.395 698.437,827.195 699.673,831.994 700.957,836.794 702.291,841.594 703.674,846.394 705.108,851.194 706.592,855.993 708.127,860.793 709.714,865.593 711.352,870.393 713.044,875.193 714.788,879.992 716.586,884.792 718.438,889.592 720.346,894.392 722.308,899.192 724.327,903.991 726.403,908.791 728.537,913.591 730.729,918.391 732.98,923.191 735.292,927.99 737.664,932.79 740.099,937.59 "/>
            <line x1="740.099" y1="462.41" x2="757.298" y2="462.41" stroke="#7f7fff"/>
            <line x1="740.099" y1="937.59" x2="757.298" y2="937.59" stroke="#7f7fff"/>
            <polyline fill="none" stroke="#7f7fff"
                      points="757.298,462.41 756.935,467.21 756.579,472.01 756.231,476.809 755.889,481.609 755.556,486.409 755.23,491.209 754.911,496.009 754.6,500.808 754.296,505.608 754,510.408 753.711,515.208 753.429,520.008 753.155,524.807 752.889,529.607 752.629,534.407 752.378,539.207 752.133,544.007 751.896,548.806 751.667,553.606 751.445,558.406 751.23,563.206 751.023,568.006 750.823,572.805 750.631,577.605 750.446,582.405 750.268,587.205 750.098,592.005 749.935,596.804 749.78,601.604 749.632,606.404 749.491,611.204 749.358,616.004 749.232,620.803 749.114,625.603 749.003,630.403 748.899,635.203 748.803,640.003 748.714,644.802 748.633,649.602 748.559,654.402 748.492,659.202 748.433,664.002 748.382,668.801 748.337,673.601 748.3,678.401 748.271,683.201 748.248,688.001 748.234,692.8 748.226,697.6 748.226,702.4 748.234,707.2 748.248,711.999 748.271,716.799 748.3,721.599 748.337,726.399 748.382,731.199 748.433,735.998 748.492,740.798 748.559,745.598 748.633,750.398 748.714,755.198 748.803,759.997 748.899,764.797 749.003,769.597 749.114,774.397 749.232,779.197 749.358,783.996 749.491,788.796 749.632,793.596 749.78,798.396 749.935,803.196 750.098,807.995 750.268,812.795 750.446,817.595 750.631,822.395 750.823,827.195 751.023,831.994 751.23,836.794 751.445,841.594 751.667,846.394 751.896,851.194 752.133,855.993 752.378,860.793 752.629,865.593 752.889,870.393 753.155,875.193 753.429,879.992 753.711,884.792 754,889.592 754.296,894.392 754.6,899.192 754.911,903.991 755.23,908.791 755.556,913.591 755.889,918.391 756.231,923.191 756.579,927.99 756.935,932.79 757.298,937.59 "/>
        </g>
        <g>
            <polyline fill="none" stroke="#7f7fff"
                      points="824.395,489.352 820.989,493.607 817.695,497.863 814.509,502.118 811.426,506.374 808.445,510.629 805.56,514.885 802.77,519.14 800.071,523.396 797.461,527.652 794.937,531.907 792.497,536.163 790.14,540.418 787.863,544.674 785.664,548.929 783.541,553.185 781.494,557.44 779.519,561.696 777.617,565.951 775.786,570.207 774.024,574.462 772.33,578.718 770.703,582.973 769.143,587.229 767.647,591.484 766.216,595.74 764.848,599.995 763.542,604.251 762.298,608.506 761.116,612.762 759.993,617.017 758.93,621.273 757.927,625.528 756.982,629.784 756.095,634.039 755.266,638.295 754.493,642.551 753.778,646.806 753.119,651.062 752.516,655.317 751.969,659.573 751.477,663.828 751.041,668.084 750.66,672.339 750.333,676.595 750.061,680.85 749.844,685.106 749.681,689.361 749.572,693.617 749.518,697.872 749.518,702.128 749.572,706.383 749.681,710.639 749.844,714.894 750.061,719.15 750.333,723.405 750.66,727.661 751.041,731.916 751.477,736.172 751.969,740.427 752.516,744.683 753.119,748.938 753.778,753.194 754.493,757.449 755.266,761.705 756.095,765.961 756.982,770.216 757.927,774.472 758.93,778.727 759.993,782.983 761.116,787.238 762.298,791.494 763.542,795.749 764.848,800.005 766.216,804.26 767.647,808.516 769.143,812.771 770.703,817.027 772.33,821.282 774.024,825.538 775.786,829.793 777.617,834.049 779.519,838.304 781.494,842.56 783.541,846.815 785.664,851.071 787.863,855.326 790.14,859.582 792.497,863.837 794.937,868.093 797.461,872.348 800.071,876.604 802.77,880.86 805.56,885.115 808.445,889.371 811.426,893.626 814.509,897.882 817.695,902.137 820.989,906.393 824.395,910.648 "/>
            <line x1="850.84" y1="489.352" x2="850.84" y2="503.305" stroke="#7f7fff"/>
            <line x1="824.395" y1="489.352" x2="850.84" y2="489.352" stroke="#7f7fff"/>
            <line x1="850.84" y1="910.648" x2="850.84" y2="896.695" stroke="#7f7fff"/>
            <line x1="824.395" y1="910.648" x2="850.84" y2="910.648" stroke="#7f7fff"/>
            <polyline fill="none" stroke="#7f7fff"
                      points="850.84,503.305 849.134,507.279 847.469,511.252 845.845,515.226 844.261,519.2 842.716,523.173 841.211,527.147 839.745,531.12 838.317,535.094 836.927,539.068 835.576,543.041 834.262,547.015 832.985,550.989 831.745,554.962 830.541,558.936 829.374,562.91 828.244,566.883 827.148,570.857 826.089,574.83 825.065,578.804 824.076,582.778 823.122,586.751 822.202,590.725 821.317,594.699 820.467,598.672 819.65,602.646 818.868,606.62 818.119,610.593 817.404,614.567 816.722,618.54 816.074,622.514 815.459,626.488 814.877,630.461 814.328,634.435 813.812,638.409 813.328,642.382 812.878,646.356 812.459,650.33 812.074,654.303 811.72,658.277 811.399,662.25 811.111,666.224 810.854,670.198 810.63,674.171 810.438,678.145 810.278,682.119 810.15,686.092 810.054,690.066 809.99,694.04 809.958,698.013 809.958,701.987 809.99,705.96 810.054,709.934 810.15,713.908 810.278,717.881 810.438,721.855 810.63,725.829 810.854,729.802 811.111,733.776 811.399,737.75 811.72,741.723 812.074,745.697 812.459,749.67 812.878,753.644 813.328,757.618 813.812,761.591 814.328,765.565 814.877,769.539 815.459,773.512 816.074,777.486 816.722,781.46 817.404,785.433 818.119,789.407 818.868,793.38 819.65,797.354 820.467,801.328 821.317,805.301 822.202,809.275 823.122,813.249 824.076,817.222 825.065,821.196 826.089,825.17 827.148,829.143 828.244,833.117 829.374,837.09 830.541,841.064 831.745,845.038 832.985,849.011 834.262,852.985 835.576,856.959 836.927,860.932 838.317,864.906 839.745,868.88 841.211,872.853 842.716,876.827 844.261,880.8 845.845,884.774 847.469,888.748 849.134,892.721 850.84,896.695 "/>
        </g>
        <g>
            <polyline fill="none" stroke="#7f7fff"
                      points="850.853,503.305 849.989,507.279 849.144,511.252 848.317,515.226 847.508,519.2 846.718,523.173 845.946,527.147 845.192,531.12 844.456,535.094 843.738,539.068 843.039,543.041 842.357,547.015 841.694,550.989 841.048,554.962 840.42,558.936 839.81,562.91 839.218,566.883 838.644,570.857 838.087,574.83 837.548,578.804 837.027,582.778 836.524,586.751 836.038,590.725 835.569,594.699 835.119,598.672 834.685,602.646 834.27,606.62 833.872,610.593 833.491,614.567 833.128,618.54 832.782,622.514 832.453,626.488 832.142,630.461 831.849,634.435 831.573,638.409 831.314,642.382 831.072,646.356 830.848,650.33 830.641,654.303 830.451,658.277 830.279,662.25 830.124,666.224 829.986,670.198 829.865,674.171 829.762,678.145 829.675,682.119 829.607,686.092 829.555,690.066 829.52,694.04 829.503,698.013 829.503,701.987 829.52,705.96 829.555,709.934 829.607,713.908 829.675,717.881 829.762,721.855 829.865,725.829 829.986,729.802 830.124,733.776 830.279,737.75 830.451,741.723 830.641,745.697 830.848,749.67 831.072,753.644 831.314,757.618 831.573,761.591 831.849,765.565 832.142,769.539 832.453,773.512 832.782,777.486 833.128,781.46 833.491,785.433 833.872,789.407 834.27,793.38 834.685,797.354 835.119,801.328 835.569,805.301 836.038,809.275 836.524,813.249 837.027,817.222 837.548,821.196 838.087,825.17 838.644,829.143 839.218,833.117 839.81,837.09 840.42,841.064 841.048,845.038 841.694,849.011 842.357,852.985 843.039,856.959 843.738,860.932 844.456,864.906 845.192,868.88 845.946,872.853 846.718,876.827 847.508,880.8 848.317,884.774 849.144,888.748 849.989,892.721 850.853,896.695 "/>
            <line x1="918.019" y1="503.305" x2="918.019" y2="532.819" stroke="#7f7fff"/>
            <line x1="850.853" y1="503.305" x2="918.019" y2="503.305" stroke="#7f7fff"/>
            <line x1="918.019" y1="896.695" x2="918.019" y2="867.181" stroke="#7f7fff"/>
            <line x1="850.853" y1="896.695" x2="918.019" y2="896.695" stroke="#7f7fff"/>
            <polyline fill="none" stroke="#7f7fff"
                      points="918.019,532.819 914.447,536.196 911.024,539.574 907.741,542.951 904.59,546.329 901.563,549.706 898.655,553.083 895.859,556.461 893.17,559.838 890.584,563.215 888.095,566.593 885.701,569.97 883.397,573.348 881.18,576.725 879.047,580.102 876.997,583.48 875.025,586.857 873.129,590.235 871.308,593.612 869.56,596.989 867.882,600.367 866.273,603.744 864.732,607.122 863.256,610.499 861.845,613.876 860.496,617.254 859.21,620.631 857.985,624.009 856.819,627.386 855.712,630.763 854.663,634.141 853.671,637.518 852.736,640.896 851.856,644.273 851.031,647.65 850.261,651.028 849.544,654.405 848.88,657.783 848.269,661.16 847.711,664.537 847.205,667.915 846.75,671.292 846.346,674.67 845.994,678.047 845.692,681.424 845.441,684.802 845.24,688.179 845.09,691.557 844.989,694.934 844.939,698.311 844.939,701.689 844.989,705.066 845.09,708.443 845.24,711.821 845.441,715.198 845.692,718.576 845.994,721.953 846.346,725.33 846.75,728.708 847.205,732.085 847.711,735.463 848.269,738.84 848.88,742.217 849.544,745.595 850.261,748.972 851.031,752.35 851.856,755.727 852.736,759.104 853.671,762.482 854.663,765.859 855.712,769.237 856.819,772.614 857.985,775.991 859.21,779.369 860.496,782.746 861.845,786.124 863.256,789.501 864.732,792.878 866.273,796.256 867.882,799.633 869.56,803.011 871.308,806.388 873.129,809.765 875.025,813.143 876.997,816.52 879.047,819.898 881.18,823.275 883.397,826.652 885.701,830.03 888.095,833.407 890.584,836.785 893.17,840.162 895.859,843.539 898.655,846.917 901.563,850.294 904.59,853.671 907.741,857.049 911.024,860.426 914.447,863.804 918.019,867.181 "/>
        </g>
        <g>
            <polyline fill="none" stroke="#7f7fff"
                      points="970.411,538.027 973.64,541.299 976.743,544.572 979.727,547.844 982.597,551.116 985.36,554.388 988.02,557.66 990.581,560.932 993.049,564.205 995.426,567.477 997.716,570.749 999.923,574.021 1002.048,577.293 1004.096,580.566 1006.067,583.838 1007.965,587.11 1009.792,590.382 1011.548,593.654 1013.238,596.926 1014.861,600.199 1016.42,603.471 1017.915,606.743 1019.349,610.015 1020.723,613.287 1022.037,616.559 1023.293,619.832 1024.492,623.104 1025.635,626.376 1026.723,629.648 1027.756,632.92 1028.735,636.193 1029.661,639.465 1030.535,642.737 1031.357,646.009 1032.128,649.281 1032.849,652.553 1033.519,655.826 1034.14,659.098 1034.711,662.37 1035.234,665.642 1035.708,668.914 1036.134,672.186 1036.511,675.459 1036.841,678.731 1037.124,682.003 1037.359,685.275 1037.547,688.547 1037.688,691.82 1037.782,695.092 1037.828,698.364 1037.828,701.636 1037.782,704.908 1037.688,708.18 1037.547,711.453 1037.359,714.725 1037.124,717.997 1036.841,721.269 1036.511,724.541 1036.134,727.814 1035.708,731.086 1035.234,734.358 1034.711,737.63 1034.14,740.902 1033.519,744.174 1032.849,747.447 1032.128,750.719 1031.357,753.991 1030.535,757.263 1029.661,760.535 1028.735,763.807 1027.756,767.08 1026.723,770.352 1025.635,773.624 1024.492,776.896 1023.293,780.168 1022.037,783.441 1020.723,786.713 1019.349,789.985 1017.915,793.257 1016.42,796.529 1014.861,799.801 1013.238,803.074 1011.548,806.346 1009.792,809.618 1007.965,812.89 1006.067,816.162 1004.096,819.434 1002.048,822.707 999.923,825.979 997.716,829.251 995.426,832.523 993.049,835.795 990.581,839.068 988.02,842.34 985.36,845.612 982.597,848.884 979.727,852.156 976.743,855.428 973.64,858.701 970.411,861.973 "/>
            <line x1="970.411" y1="510.892" x2="970.411" y2="538.027" stroke="#7f7fff"/>
            <line x1="970.411" y1="510.892" x2="1049.767" y2="510.892" stroke="#7f7fff"/>
            <line x1="970.411" y1="889.108" x2="970.411" y2="861.973" stroke="#7f7fff"/>
            <line x1="970.411" y1="889.108" x2="1049.767" y2="889.108" stroke="#7f7fff"/>
            <polyline fill="none" stroke="#7f7fff"
                      points="1049.767,510.892 1049.805,514.713 1049.841,518.533 1049.876,522.354 1049.911,526.174 1049.945,529.994 1049.979,533.815 1050.011,537.635 1050.043,541.455 1050.074,545.276 1050.104,549.096 1050.134,552.916 1050.162,556.737 1050.19,560.557 1050.218,564.377 1050.244,568.198 1050.27,572.018 1050.295,575.839 1050.319,579.659 1050.343,583.479 1050.365,587.3 1050.387,591.12 1050.408,594.94 1050.429,598.761 1050.448,602.581 1050.467,606.401 1050.486,610.222 1050.503,614.042 1050.52,617.862 1050.535,621.683 1050.551,625.503 1050.565,629.323 1050.579,633.144 1050.591,636.964 1050.604,640.785 1050.615,644.605 1050.625,648.425 1050.635,652.246 1050.644,656.066 1050.653,659.886 1050.66,663.707 1050.667,667.527 1050.673,671.347 1050.678,675.168 1050.683,678.988 1050.687,682.808 1050.69,686.629 1050.692,690.449 1050.694,694.269 1050.694,698.09 1050.694,701.91 1050.694,705.731 1050.692,709.551 1050.69,713.371 1050.687,717.192 1050.683,721.012 1050.678,724.832 1050.673,728.653 1050.667,732.473 1050.66,736.293 1050.653,740.114 1050.644,743.934 1050.635,747.754 1050.625,751.575 1050.615,755.395 1050.604,759.215 1050.591,763.036 1050.579,766.856 1050.565,770.677 1050.551,774.497 1050.535,778.317 1050.52,782.138 1050.503,785.958 1050.486,789.778 1050.467,793.599 1050.448,797.419 1050.429,801.239 1050.408,805.06 1050.387,808.88 1050.365,812.7 1050.343,816.521 1050.319,820.341 1050.295,824.161 1050.27,827.982 1050.244,831.802 1050.218,835.623 1050.19,839.443 1050.162,843.263 1050.134,847.084 1050.104,850.904 1050.074,854.724 1050.043,858.545 1050.011,862.365 1049.979,866.185 1049.945,870.006 1049.911,873.826 1049.876,877.646 1049.841,881.467 1049.805,885.287 1049.767,889.108 "/>
            <line x1="1049.767" y1="500.926" x2="1049.767" y2="510.892" stroke="#7f7fff"/>
            <line x1="1049.767" y1="500.926" x2="1078.663" y2="500.926" stroke="#7f7fff"/>
            <line x1="1049.767" y1="899.074" x2="1049.767" y2="889.108" stroke="#7f7fff"/>
            <line x1="1049.767" y1="899.074" x2="1078.663" y2="899.074" stroke="#7f7fff"/>
            <polyline fill="none" stroke="#7f7fff"
                      points="1078.663,500.926 1081.003,504.948 1083.28,508.969 1085.494,512.991 1087.648,517.013 1089.743,521.034 1091.778,525.056 1093.756,529.078 1095.677,533.1 1097.543,537.121 1099.354,541.143 1101.11,545.165 1102.814,549.186 1104.465,553.208 1106.064,557.23 1107.612,561.251 1109.109,565.273 1110.557,569.295 1111.956,573.316 1113.305,577.338 1114.607,581.36 1115.861,585.382 1117.067,589.403 1118.227,593.425 1119.341,597.447 1120.409,601.468 1121.431,605.49 1122.408,609.512 1123.34,613.533 1124.228,617.555 1125.071,621.577 1125.871,625.599 1126.627,629.62 1127.339,633.642 1128.009,637.664 1128.635,641.685 1129.219,645.707 1129.761,649.729 1130.26,653.75 1130.717,657.772 1131.132,661.794 1131.505,665.816 1131.836,669.837 1132.126,673.859 1132.374,677.881 1132.581,681.902 1132.746,685.924 1132.87,689.946 1132.953,693.967 1132.994,697.989 1132.994,702.011 1132.953,706.033 1132.87,710.054 1132.746,714.076 1132.581,718.098 1132.374,722.119 1132.126,726.141 1131.836,730.163 1131.505,734.184 1131.132,738.206 1130.717,742.228 1130.26,746.25 1129.761,750.271 1129.219,754.293 1128.635,758.315 1128.009,762.336 1127.339,766.358 1126.627,770.38 1125.871,774.401 1125.071,778.423 1124.228,782.445 1123.34,786.467 1122.408,790.488 1121.431,794.51 1120.409,798.532 1119.341,802.553 1118.227,806.575 1117.067,810.597 1115.861,814.618 1114.607,818.64 1113.305,822.662 1111.956,826.684 1110.557,830.705 1109.109,834.727 1107.612,838.749 1106.064,842.77 1104.465,846.792 1102.814,850.814 1101.11,854.835 1099.354,858.857 1097.543,862.879 1095.677,866.9 1093.756,870.922 1091.778,874.944 1089.743,878.966 1087.648,882.987 1085.494,887.009 1083.28,891.031 1081.003,895.052 1078.663,899.074 "/>
        </g>
        <g>
            <polyline fill="none" stroke="#7f7fff"
                      points="1113.733,492.631 1114.616,496.82 1115.48,501.01 1116.325,505.199 1117.152,509.388 1117.96,513.578 1118.749,517.767 1119.52,521.956 1120.272,526.145 1121.006,530.335 1121.722,534.524 1122.419,538.713 1123.097,542.902 1123.758,547.092 1124.4,551.281 1125.023,555.47 1125.629,559.659 1126.217,563.849 1126.786,568.038 1127.337,572.227 1127.87,576.417 1128.385,580.606 1128.882,584.795 1129.362,588.984 1129.823,593.174 1130.266,597.363 1130.691,601.552 1131.099,605.741 1131.488,609.931 1131.86,614.12 1132.214,618.309 1132.55,622.499 1132.868,626.688 1133.168,630.877 1133.451,635.066 1133.716,639.256 1133.963,643.445 1134.193,647.634 1134.405,651.823 1134.599,656.013 1134.775,660.202 1134.934,664.391 1135.075,668.58 1135.198,672.77 1135.304,676.959 1135.392,681.148 1135.463,685.338 1135.516,689.527 1135.551,693.716 1135.569,697.905 1135.569,702.095 1135.551,706.284 1135.516,710.473 1135.463,714.662 1135.392,718.852 1135.304,723.041 1135.198,727.23 1135.075,731.42 1134.934,735.609 1134.775,739.798 1134.599,743.987 1134.405,748.177 1134.193,752.366 1133.963,756.555 1133.716,760.744 1133.451,764.934 1133.168,769.123 1132.868,773.312 1132.55,777.501 1132.214,781.691 1131.86,785.88 1131.488,790.069 1131.099,794.259 1130.691,798.448 1130.266,802.637 1129.823,806.826 1129.362,811.016 1128.882,815.205 1128.385,819.394 1127.87,823.583 1127.337,827.773 1126.786,831.962 1126.217,836.151 1125.629,840.341 1125.023,844.53 1124.4,848.719 1123.758,852.908 1123.097,857.098 1122.419,861.287 1121.722,865.476 1121.006,869.665 1120.272,873.855 1119.52,878.044 1118.749,882.233 1117.96,886.422 1117.152,890.612 1116.325,894.801 1115.48,898.99 1114.616,903.18 1113.733,907.369 "/>
            <line x1="1113.733" y1="492.631" x2="1130.088" y2="492.631" stroke="#7f7fff"/>
            <line x1="1113.733" y1="907.369" x2="1130.088" y2="907.369" stroke="#7f7fff"/>
            <polyline fill="none" stroke="#7f7fff"
                      points="1130.088,492.631 1132.736,496.82 1135.31,501.01 1137.811,505.199 1140.241,509.388 1142.6,513.578 1144.892,517.767 1147.116,521.956 1149.275,526.145 1151.369,530.335 1153.4,534.524 1155.369,538.713 1157.276,542.902 1159.124,547.092 1160.912,551.281 1162.642,555.47 1164.315,559.659 1165.931,563.849 1167.491,568.038 1168.996,572.227 1170.447,576.417 1171.843,580.606 1173.187,584.795 1174.478,588.984 1175.716,593.174 1176.903,597.363 1178.04,601.552 1179.125,605.741 1180.161,609.931 1181.146,614.12 1182.083,618.309 1182.97,622.499 1183.809,626.688 1184.599,630.877 1185.341,635.066 1186.036,639.256 1186.683,643.445 1187.283,647.634 1187.836,651.823 1188.343,656.013 1188.802,660.202 1189.215,664.391 1189.582,668.58 1189.903,672.77 1190.178,676.959 1190.406,681.148 1190.589,685.338 1190.727,689.527 1190.818,693.716 1190.864,697.905 1190.864,702.095 1190.818,706.284 1190.727,710.473 1190.589,714.662 1190.406,718.852 1190.178,723.041 1189.903,727.23 1189.582,731.42 1189.215,735.609 1188.802,739.798 1188.343,743.987 1187.836,748.177 1187.283,752.366 1186.683,756.555 1186.036,760.744 1185.341,764.934 1184.599,769.123 1183.809,773.312 1182.97,777.501 1182.083,781.691 1181.146,785.88 1180.161,790.069 1179.125,794.259 1178.04,798.448 1176.903,802.637 1175.716,806.826 1174.478,811.016 1173.187,815.205 1171.843,819.394 1170.447,823.583 1168.996,827.773 1167.491,831.962 1165.931,836.151 1164.315,840.341 1162.642,844.53 1160.912,848.719 1159.124,852.908 1157.276,857.098 1155.369,861.287 1153.4,865.476 1151.369,869.665 1149.275,873.855 1147.116,878.044 1144.892,882.233 1142.6,886.422 1140.241,890.612 1137.811,894.801 1135.31,898.99 1132.736,903.18 1130.088,907.369 "/>
        </g>
        <g>
            <polyline fill="none" stroke="#7f7fff"
                      points="1202.191,505.556 1201.788,509.484 1201.394,513.412 1201.009,517.34 1200.631,521.268 1200.262,525.196 1199.901,529.125 1199.548,533.053 1199.204,536.981 1198.867,540.909 1198.539,544.837 1198.22,548.765 1197.908,552.694 1197.605,556.622 1197.31,560.55 1197.024,564.478 1196.745,568.406 1196.475,572.334 1196.213,576.263 1195.959,580.191 1195.714,584.119 1195.476,588.047 1195.247,591.975 1195.026,595.903 1194.813,599.832 1194.609,603.76 1194.413,607.688 1194.224,611.616 1194.045,615.544 1193.873,619.473 1193.709,623.401 1193.554,627.329 1193.407,631.257 1193.268,635.185 1193.137,639.113 1193.014,643.042 1192.9,646.97 1192.794,650.898 1192.696,654.826 1192.606,658.754 1192.524,662.682 1192.451,666.611 1192.385,670.539 1192.328,674.467 1192.279,678.395 1192.238,682.323 1192.205,686.251 1192.181,690.18 1192.165,694.108 1192.156,698.036 1192.156,701.964 1192.165,705.892 1192.181,709.82 1192.205,713.749 1192.238,717.677 1192.279,721.605 1192.328,725.533 1192.385,729.461 1192.451,733.389 1192.524,737.318 1192.606,741.246 1192.696,745.174 1192.794,749.102 1192.9,753.03 1193.014,756.958 1193.137,760.887 1193.268,764.815 1193.407,768.743 1193.554,772.671 1193.709,776.599 1193.873,780.527 1194.045,784.456 1194.224,788.384 1194.413,792.312 1194.609,796.24 1194.813,800.168 1195.026,804.097 1195.247,808.025 1195.476,811.953 1195.714,815.881 1195.959,819.809 1196.213,823.737 1196.475,827.666 1196.745,831.594 1197.024,835.522 1197.31,839.45 1197.605,843.378 1197.908,847.306 1198.22,851.235 1198.539,855.163 1198.867,859.091 1199.204,863.019 1199.548,866.947 1199.901,870.875 1200.262,874.804 1200.631,878.732 1201.009,882.66 1201.394,886.588 1201.788,890.516 1202.191,894.444 "/>
            <line x1="1202.191" y1="505.556" x2="1214.303" y2="505.556" stroke="#7f7fff"/>
            <line x1="1202.191" y1="894.444" x2="1214.303" y2="894.444" stroke="#7f7fff"/>
            <polyline fill="none" stroke="#7f7fff"
                      points="1214.303,505.556 1214.756,509.484 1215.2,513.412 1215.634,517.34 1216.059,521.268 1216.474,525.196 1216.881,529.125 1217.277,533.053 1217.665,536.981 1218.043,540.909 1218.412,544.837 1218.772,548.765 1219.122,552.694 1219.463,556.622 1219.795,560.55 1220.117,564.478 1220.431,568.406 1220.735,572.334 1221.029,576.263 1221.315,580.191 1221.591,584.119 1221.858,588.047 1222.116,591.975 1222.364,595.903 1222.603,599.832 1222.833,603.76 1223.054,607.688 1223.265,611.616 1223.468,615.544 1223.661,619.473 1223.845,623.401 1224.019,627.329 1224.185,631.257 1224.341,635.185 1224.488,639.113 1224.626,643.042 1224.755,646.97 1224.874,650.898 1224.984,654.826 1225.085,658.754 1225.177,662.682 1225.26,666.611 1225.333,670.539 1225.398,674.467 1225.453,678.395 1225.499,682.323 1225.535,686.251 1225.563,690.18 1225.581,694.108 1225.59,698.036 1225.59,701.964 1225.581,705.892 1225.563,709.82 1225.535,713.749 1225.499,717.677 1225.453,721.605 1225.398,725.533 1225.333,729.461 1225.26,733.389 1225.177,737.318 1225.085,741.246 1224.984,745.174 1224.874,749.102 1224.755,753.03 1224.626,756.958 1224.488,760.887 1224.341,764.815 1224.185,768.743 1224.019,772.671 1223.845,776.599 1223.661,780.527 1223.468,784.456 1223.265,788.384 1223.054,792.312 1222.833,796.24 1222.603,800.168 1222.364,804.097 1222.116,808.025 1221.858,811.953 1221.591,815.881 1221.315,819.809 1221.029,823.737 1220.735,827.666 1220.431,831.594 1220.117,835.522 1219.795,839.45 1219.463,843.378 1219.122,847.306 1218.772,851.235 1218.412,855.163 1218.043,859.091 1217.665,863.019 1217.277,866.947 1216.881,870.875 1216.474,874.804 1216.059,878.732 1215.634,882.66 1215.2,886.588 1214.756,890.516 1214.303,894.444 "/>
        </g>
    </g>
    <g>
        <title>element</title>
        <polyline fill="none" stroke="#7f7fff"
                  points="1717.361,144.444 1717.361,155.668 1717.361,166.891 1717.361,178.114 1717.361,189.338 1717.361,200.561 1717.361,211.785 1717.361,223.008 1717.361,234.231 1717.361,245.455 1717.361,256.678 1717.361,267.901 1717.361,279.125 1717.361,290.348 1717.361,301.571 1717.361,312.795 1717.361,324.018 1717.361,335.241 1717.361,346.465 1717.361,357.688 1717.361,368.911 1717.361,380.135 1717.361,391.358 1717.361,402.581 1717.361,413.805 1717.361,425.028 1717.361,436.251 1717.361,447.475 1717.361,458.698 1717.361,469.921 1717.361,481.145 1717.361,492.368 1717.361,503.591 1717.361,514.815 1717.361,526.038 1717.361,537.262 1717.361,548.485 1717.361,559.708 1717.361,570.932 1717.361,582.155 1717.361,593.378 1717.361,604.602 1717.361,615.825 1717.361,627.048 1717.361,638.272 1717.361,649.495 1717.361,660.718 1717.361,671.942 1717.361,683.165 1717.361,694.388 1717.361,705.612 1717.361,716.835 1717.361,728.058 1717.361,739.282 1717.361,750.505 1717.361,761.728 1717.361,772.952 1717.361,784.175 1717.361,795.398 1717.361,806.622 1717.361,817.845 1717.361,829.068 1717.361,840.292 1717.361,851.515 1717.361,862.738 1717.361,873.962 1717.361,885.185 1717.361,896.409 1717.361,907.632 1717.361,918.855 1717.361,930.079 1717.361,941.302 1717.361,952.525 1717.361,963.749 1717.361,974.972 1717.361,986.195 1717.361,997.419 1717.361,1008.642 1717.361,1019.865 1717.361,1031.089 1717.361,1042.312 1717.361,1053.535 1717.361,1064.759 1717.361,1075.982 1717.361,1087.205 1717.361,1098.429 1717.361,1109.652 1717.361,1120.875 1717.361,1132.099 1717.361,1143.322 1717.361,1154.545 1717.361,1165.769 1717.361,1176.992 1717.361,1188.215 1717.361,1199.439 1717.361,1210.662 1717.361,1221.886 1717.361,1233.109 1717.361,1244.332 1717.361,1255.556 "/>
    </g>
</svg>
