<?xml version="1.0" standalone="no"?>
<svg width="2400px" height="1400px" version="1.1" xmlns="http://www.w3.org/2000/svg" xmlns:xlink="http://www.w3.org/1999/xlink">
<rect x="0" y="0" width="2400" height="1400"  fill="#ffffff" />
<defs>
<g id="dot">
<line x1="1" y1="1" x2="0" y2="0"  />
</g>
<g id="cross">
<line x1="-3" y1="0" x2="3" y2="0"  />
<line x1="0" y1="-3" x2="0" y2="3"  />
</g>
<g id="square">
<line x1="-3" y1="-3" x2="-3" y2="3"  />
<line x1="-3" y1="3" x2="3" y2="3"  />
<line x1="3" y1="3" x2="3" y2="-3"  />
<line x1="3" y1="-3" x2="-3" y2="-3"  />
</g>
<g id="round">
<ellipse cx="0" cy="0" rx="3" ry="3"  fill="none" /></g>
<g id="triangle">
<line x1="0" y1="-3" x2="-3" y2="3"  />
<line x1="-3" y1="3" x2="3" y2="3"  />
<line x1="0" y1="-3" x2="3" y2="3"  />
</g>
</defs>
<line x1="585.949" y1="700" x2="1814.051" y2="700"  stroke="#7f7f7f" />
<g><title>element</title>
<g>
<line x1="970.755" y1="507.584" x2="970.755" y2="315.167"  stroke="#7f7fff" />
<line x1="970.755" y1="892.416" x2="970.755" y2="1084.833"  stroke="#7f7fff" />
</g>
<g>
<polyline fill="none" stroke="#7f7fff" points="641.033,379.541 638.782,386.015 636.581,392.489 634.43,398.963 632.328,405.437 630.275,411.911 628.271,418.385 626.316,424.859 624.409,431.333 622.551,437.807 620.741,444.281 618.978,450.754 617.263,457.228 615.596,463.702 613.975,470.176 612.402,476.65 610.876,483.124 609.396,489.598 607.963,496.072 606.576,502.546 605.235,509.02 603.94,515.494 602.692,521.967 601.489,528.441 600.331,534.915 599.22,541.389 598.153,547.863 597.132,554.337 596.156,560.811 595.225,567.285 594.339,573.759 593.498,580.233 592.702,586.707 591.95,593.18 591.244,599.654 590.581,606.128 589.963,612.602 589.39,619.076 588.861,625.55 588.376,632.024 587.935,638.498 587.539,644.972 587.186,651.446 586.878,657.92 586.614,664.393 586.394,670.867 586.218,677.341 586.086,683.815 585.998,690.289 585.954,696.763 585.954,703.237 585.998,709.711 586.086,716.185 586.218,722.659 586.394,729.133 586.614,735.607 586.878,742.08 587.186,748.554 587.539,755.028 587.935,761.502 588.376,767.976 588.861,774.45 589.39,780.924 589.963,787.398 590.581,793.872 591.244,800.346 591.95,806.82 592.702,813.293 593.498,819.767 594.339,826.241 595.225,832.715 596.156,839.189 597.132,845.663 598.153,852.137 599.22,858.611 600.331,865.085 601.489,871.559 602.692,878.033 603.94,884.506 605.235,890.98 606.576,897.454 607.963,903.928 609.396,910.402 610.876,916.876 612.402,923.35 613.975,929.824 615.596,936.298 617.263,942.772 618.978,949.246 620.741,955.719 622.551,962.193 624.409,968.667 626.316,975.141 628.271,981.615 630.275,988.089 632.328,994.563 634.43,1001.037 636.581,1007.511 638.782,1013.985 641.033,1020.459 " />
<line x1="641.033" y1="379.541" x2="678.057" y2="379.541"  stroke="#7f7fff" />
<line x1="641.033" y1="1020.459" x2="678.057" y2="1020.459"  stroke="#7f7fff" />
<polyline fill="none" stroke="#7f7fff" points="678.057,379.541 678.057,386.015 678.057,392.489 678.057,398.963 678.057,405.437 678.057,411.911 678.057,418.385 678.057,424.859 678.057,431.333 678.057,437.807 678.057,444.281 678.057,450.754 678.057,457.228 678.057,463.702 678.057,470.176 678.057,476.65 678.057,483.124 678.057,489.598 678.057,496.072 678.057,502.546 678.057,509.02 678.057,515.494 678.057,521.967 678.057,528.441 678.057,534.915 678.057,541.389 678.057,547.863 678.057,554.337 678.057,560.811 678.057,567.285 678.057,573.759 678.057,580.233 678.057,586.707 678.057,593.18 678.057,599.654 678.057,606.128 678.057,612.602 678.057,619.076 678.057,625.55 678.057,632.024 678.057,638.498 678.057,644.972 678.057,651.446 678.057,657.92 678.057,664.393 678.057,670.867 678.057,677.341 678.057,683.815 678.057,690.289 678.057,696.763 678.057,703.237 678.057,709.711 678.057,716.185 678.057,722.659 678.057,729.133 678.057,735.607 678.057,742.08 678.057,748.554 678.057,755.028 678.057,761.502 678.057,767.976 678.057,774.45 678.057,780.924 678.057,787.398 678.057,793.872 678.057,800.346 678.057,806.82 678.057,813.293 678.057,819.767 678.057,826.241 678.057,832.715 678.057,839.189 678.057,845.663 678.057,852.137 678.057,858.611 678.057,865.085 678.057,871.559 678.057,878.033 678.057,884.506 678.057,890.98 678.057,897.454 678.057,903.928 678.057,910.402 678.057,916.876 678.057,923.35 678.057,929.824 678.057,936.298 678.057,942.772 678.057,949.246 678.057,955.719 678.057,962.193 678.057,968.667 678.057,975.141 678.057,981.615 678.057,988.089 678.057,994.563 678.057,1001.037 678.057,1007.511 678.057,1013.985 678.057,1020.459 " />
</g>
<g>
<polyline fill="none" stroke="#7f7fff" points="792.876,414.212 787.767,419.986 782.84,425.759 778.086,431.533 773.498,437.306 769.069,443.08 764.794,448.853 760.667,454.627 756.682,460.4 752.835,466.174 749.122,471.947 745.537,477.721 742.078,483.494 738.741,489.268 735.523,495.041 732.421,500.815 729.431,506.588 726.552,512.362 723.78,518.135 721.114,523.909 718.551,529.682 716.089,535.456 713.727,541.229 711.462,547.003 709.294,552.776 707.219,558.55 705.238,564.323 703.349,570.097 701.549,575.87 699.839,581.644 698.217,587.417 696.682,593.19 695.233,598.964 693.869,604.737 692.589,610.511 691.393,616.284 690.28,622.058 689.249,627.831 688.299,633.605 687.43,639.378 686.642,645.152 685.934,650.925 685.306,656.699 684.757,662.472 684.287,668.246 683.896,674.019 683.583,679.793 683.348,685.566 683.192,691.34 683.114,697.113 683.114,702.887 683.192,708.66 683.348,714.434 683.583,720.207 683.896,725.981 684.287,731.754 684.757,737.528 685.306,743.301 685.934,749.075 686.642,754.848 687.43,760.622 688.299,766.395 689.249,772.169 690.28,777.942 691.393,783.716 692.589,789.489 693.869,795.263 695.233,801.036 696.682,806.81 698.217,812.583 699.839,818.356 701.549,824.13 703.349,829.903 705.238,835.677 707.219,841.45 709.294,847.224 711.462,852.997 713.727,858.771 716.089,864.544 718.551,870.318 721.114,876.091 723.78,881.865 726.552,887.638 729.431,893.412 732.421,899.185 735.523,904.959 738.741,910.732 742.078,916.506 745.537,922.279 749.122,928.053 752.835,933.826 756.682,939.6 760.667,945.373 764.794,951.147 769.069,956.92 773.498,962.694 778.086,968.467 782.84,974.241 787.767,980.014 792.876,985.788 " />
<line x1="792.876" y1="414.212" x2="860.81" y2="414.212"  stroke="#7f7fff" />
<line x1="792.876" y1="985.788" x2="860.81" y2="985.788"  stroke="#7f7fff" />
<polyline fill="none" stroke="#7f7fff" points="860.81,414.212 858.57,419.986 856.382,425.759 854.247,431.533 852.162,437.306 850.129,443.08 848.146,448.853 846.213,454.627 844.33,460.4 842.497,466.174 840.712,471.947 838.977,477.721 837.289,483.494 835.65,489.268 834.058,495.041 832.514,500.815 831.017,506.588 829.567,512.362 828.163,518.135 826.806,523.909 825.495,529.682 824.23,535.456 823.01,541.229 821.836,547.003 820.706,552.776 819.622,558.55 818.583,564.323 817.588,570.097 816.638,575.87 815.732,581.644 814.87,587.417 814.052,593.19 813.278,598.964 812.548,604.737 811.861,610.511 811.218,616.284 810.618,622.058 810.061,627.831 809.548,633.605 809.077,639.378 808.65,645.152 808.266,650.925 807.924,656.699 807.625,662.472 807.369,668.246 807.156,674.019 806.985,679.793 806.858,685.566 806.772,691.34 806.73,697.113 806.73,702.887 806.772,708.66 806.858,714.434 806.985,720.207 807.156,725.981 807.369,731.754 807.625,737.528 807.924,743.301 808.266,749.075 808.65,754.848 809.077,760.622 809.548,766.395 810.061,772.169 810.618,777.942 811.218,783.716 811.861,789.489 812.548,795.263 813.278,801.036 814.052,806.81 814.87,812.583 815.732,818.356 816.638,824.13 817.588,829.903 818.583,835.677 819.622,841.45 820.706,847.224 821.836,852.997 823.01,858.771 824.23,864.544 825.495,870.318 826.806,876.091 828.163,881.865 829.567,887.638 831.017,893.412 832.514,899.185 834.058,904.959 835.65,910.732 837.289,916.506 838.977,922.279 840.712,928.053 842.497,933.826 844.33,939.6 846.213,945.373 848.146,951.147 850.129,956.92 852.162,962.694 854.247,968.467 856.382,974.241 858.57,980.014 860.81,985.788 " />
</g>
<g>
<polyline fill="none" stroke="#7f7fff" points="848.997,429.353 848.159,434.82 847.339,440.288 846.536,445.756 845.751,451.223 844.983,456.691 844.233,462.159 843.5,467.626 842.784,473.094 842.086,478.561 841.405,484.029 840.741,489.497 840.095,494.964 839.465,500.432 838.853,505.899 838.258,511.367 837.681,516.835 837.12,522.302 836.577,527.77 836.051,533.238 835.542,538.705 835.05,544.173 834.575,549.64 834.117,555.108 833.676,560.576 833.253,566.043 832.846,571.511 832.456,576.979 832.084,582.446 831.728,587.914 831.39,593.381 831.068,598.849 830.763,604.317 830.476,609.784 830.205,615.252 829.951,620.72 829.715,626.187 829.495,631.655 829.292,637.122 829.106,642.59 828.937,648.058 828.785,653.525 828.65,658.993 828.531,664.46 828.43,669.928 828.345,675.396 828.278,680.863 828.227,686.331 828.193,691.799 828.176,697.266 828.176,702.734 828.193,708.201 828.227,713.669 828.278,719.137 828.345,724.604 828.43,730.072 828.531,735.54 828.65,741.007 828.785,746.475 828.937,751.942 829.106,757.41 829.292,762.878 829.495,768.345 829.715,773.813 829.951,779.28 830.205,784.748 830.476,790.216 830.763,795.683 831.068,801.151 831.39,806.619 831.728,812.086 832.084,817.554 832.456,823.021 832.846,828.489 833.253,833.957 833.676,839.424 834.117,844.892 834.575,850.36 835.05,855.827 835.542,861.295 836.051,866.762 836.577,872.23 837.12,877.698 837.681,883.165 838.258,888.633 838.853,894.101 839.465,899.568 840.095,905.036 840.741,910.503 841.405,915.971 842.086,921.439 842.784,926.906 843.5,932.374 844.233,937.841 844.983,943.309 845.751,948.777 846.536,954.244 847.339,959.712 848.159,965.18 848.997,970.647 " />
<line x1="949.326" y1="429.353" x2="949.326" y2="491.153"  stroke="#7f7fff" />
<line x1="848.997" y1="429.353" x2="949.326" y2="429.353"  stroke="#7f7fff" />
<line x1="949.326" y1="970.647" x2="949.326" y2="908.847"  stroke="#7f7fff" />
<line x1="848.997" y1="970.647" x2="949.326" y2="970.647"  stroke="#7f7fff" />
<polyline fill="none" stroke="#7f7fff" points="949.326,491.153 945.862,495.372 942.515,499.591 939.279,503.811 936.151,508.03 933.126,512.249 930.201,516.468 927.373,520.687 924.639,524.906 921.996,529.125 919.441,533.344 916.973,537.564 914.588,541.783 912.285,546.002 910.062,550.221 907.917,554.44 905.849,558.659 903.855,562.878 901.934,567.097 900.085,571.317 898.306,575.536 896.597,579.755 894.955,583.974 893.381,588.193 891.873,592.412 890.429,596.631 889.05,600.851 887.734,605.07 886.48,609.289 885.288,613.508 884.156,617.727 883.085,621.946 882.074,626.165 881.122,630.384 880.229,634.604 879.393,638.823 878.616,643.042 877.895,647.261 877.232,651.48 876.624,655.699 876.074,659.918 875.578,664.137 875.139,668.357 874.755,672.576 874.426,676.795 874.153,681.014 873.934,685.233 873.77,689.452 873.66,693.671 873.606,697.89 873.606,702.11 873.66,706.329 873.77,710.548 873.934,714.767 874.153,718.986 874.426,723.205 874.755,727.424 875.139,731.643 875.578,735.863 876.074,740.082 876.624,744.301 877.232,748.52 877.895,752.739 878.616,756.958 879.393,761.177 880.229,765.396 881.122,769.616 882.074,773.835 883.085,778.054 884.156,782.273 885.288,786.492 886.48,790.711 887.734,794.93 889.05,799.149 890.429,803.369 891.873,807.588 893.381,811.807 894.955,816.026 896.597,820.245 898.306,824.464 900.085,828.683 901.934,832.903 903.855,837.122 905.849,841.341 907.917,845.56 910.062,849.779 912.285,853.998 914.588,858.217 916.973,862.436 919.441,866.656 921.996,870.875 924.639,875.094 927.373,879.313 930.201,883.532 933.126,887.751 936.151,891.97 939.279,896.189 942.515,900.409 945.862,904.628 949.326,908.847 " />
</g>
<g>
<polyline fill="none" stroke="#7f7fff" points="996.017,498.149 999.513,502.227 1002.887,506.305 1006.146,510.382 1009.293,514.46 1012.333,518.538 1015.269,522.616 1018.107,526.694 1020.847,530.771 1023.495,534.849 1026.052,538.927 1028.522,543.005 1030.906,547.083 1033.207,551.16 1035.427,555.238 1037.568,559.316 1039.632,563.394 1041.62,567.472 1043.535,571.549 1045.377,575.627 1047.149,579.705 1048.851,583.783 1050.484,587.861 1052.051,591.938 1053.551,596.016 1054.987,600.094 1056.358,604.172 1057.666,608.25 1058.912,612.327 1060.097,616.405 1061.22,620.483 1062.284,624.561 1063.288,628.639 1064.233,632.716 1065.12,636.794 1065.949,640.872 1066.72,644.95 1067.435,649.028 1068.093,653.105 1068.696,657.183 1069.242,661.261 1069.733,665.339 1070.169,669.417 1070.55,673.494 1070.876,677.572 1071.147,681.65 1071.364,685.728 1071.527,689.806 1071.635,693.883 1071.689,697.961 1071.689,702.039 1071.635,706.117 1071.527,710.194 1071.364,714.272 1071.147,718.35 1070.876,722.428 1070.55,726.506 1070.169,730.583 1069.733,734.661 1069.242,738.739 1068.696,742.817 1068.093,746.895 1067.435,750.972 1066.72,755.05 1065.949,759.128 1065.12,763.206 1064.233,767.284 1063.288,771.361 1062.284,775.439 1061.22,779.517 1060.097,783.595 1058.912,787.673 1057.666,791.75 1056.358,795.828 1054.987,799.906 1053.551,803.984 1052.051,808.062 1050.484,812.139 1048.851,816.217 1047.149,820.295 1045.377,824.373 1043.535,828.451 1041.62,832.528 1039.632,836.606 1037.568,840.684 1035.427,844.762 1033.207,848.84 1030.906,852.917 1028.522,856.995 1026.052,861.073 1023.495,865.151 1020.847,869.229 1018.107,873.306 1015.269,877.384 1012.333,881.462 1009.293,885.54 1006.146,889.618 1002.887,893.695 999.513,897.773 996.017,901.851 " />
<line x1="996.017" y1="441.99" x2="996.017" y2="498.149"  stroke="#7f7fff" />
<line x1="996.017" y1="441.99" x2="1104.5" y2="441.99"  stroke="#7f7fff" />
<line x1="996.017" y1="958.01" x2="996.017" y2="901.851"  stroke="#7f7fff" />
<line x1="996.017" y1="958.01" x2="1104.5" y2="958.01"  stroke="#7f7fff" />
<polyline fill="none" stroke="#7f7fff" points="1104.5,441.99 1104.147,447.202 1103.8,452.415 1103.461,457.627 1103.129,462.839 1102.805,468.052 1102.487,473.264 1102.177,478.476 1101.874,483.689 1101.579,488.901 1101.29,494.113 1101.009,499.326 1100.735,504.538 1100.468,509.75 1100.209,514.963 1099.957,520.175 1099.712,525.387 1099.474,530.6 1099.243,535.812 1099.02,541.024 1098.803,546.237 1098.595,551.449 1098.393,556.661 1098.198,561.874 1098.011,567.086 1097.831,572.298 1097.658,577.51 1097.492,582.723 1097.334,587.935 1097.183,593.147 1097.038,598.36 1096.902,603.572 1096.772,608.784 1096.65,613.997 1096.534,619.209 1096.426,624.421 1096.326,629.634 1096.232,634.846 1096.146,640.058 1096.066,645.271 1095.994,650.483 1095.929,655.695 1095.872,660.908 1095.821,666.12 1095.778,671.332 1095.742,676.545 1095.713,681.757 1095.692,686.969 1095.677,692.182 1095.67,697.394 1095.67,702.606 1095.677,707.818 1095.692,713.031 1095.713,718.243 1095.742,723.455 1095.778,728.668 1095.821,733.88 1095.872,739.092 1095.929,744.305 1095.994,749.517 1096.066,754.729 1096.146,759.942 1096.232,765.154 1096.326,770.366 1096.426,775.579 1096.534,780.791 1096.65,786.003 1096.772,791.216 1096.902,796.428 1097.038,801.64 1097.183,806.853 1097.334,812.065 1097.492,817.277 1097.658,822.49 1097.831,827.702 1098.011,832.914 1098.198,838.126 1098.393,843.339 1098.595,848.551 1098.803,853.763 1099.02,858.976 1099.243,864.188 1099.474,869.4 1099.712,874.613 1099.957,879.825 1100.209,885.037 1100.468,890.25 1100.735,895.462 1101.009,900.674 1101.29,905.887 1101.579,911.099 1101.874,916.311 1102.177,921.524 1102.487,926.736 1102.805,931.948 1103.129,937.161 1103.461,942.373 1103.8,947.585 1104.147,952.798 1104.5,958.01 " />
<line x1="1104.5" y1="441.99" x2="1125.964" y2="441.99"  stroke="#7f7fff" />
<line x1="1104.5" y1="958.01" x2="1125.964" y2="958.01"  stroke="#7f7fff" />
<polyline fill="none" stroke="#7f7fff" points="1125.964,441.99 1129.008,447.202 1131.969,452.415 1134.85,457.627 1137.651,462.839 1140.375,468.052 1143.022,473.264 1145.595,478.476 1148.093,483.689 1150.519,488.901 1152.874,494.113 1155.158,499.326 1157.373,504.538 1159.519,509.75 1161.598,514.963 1163.611,520.175 1165.558,525.387 1167.44,530.6 1169.258,535.812 1171.013,541.024 1172.705,546.237 1174.335,551.449 1175.903,556.661 1177.411,561.874 1178.859,567.086 1180.246,572.298 1181.575,577.51 1182.845,582.723 1184.057,587.935 1185.21,593.147 1186.307,598.36 1187.346,603.572 1188.329,608.784 1189.255,613.997 1190.125,619.209 1190.94,624.421 1191.698,629.634 1192.402,634.846 1193.051,640.058 1193.645,645.271 1194.184,650.483 1194.669,655.695 1195.1,660.908 1195.476,666.12 1195.798,671.332 1196.067,676.545 1196.282,681.757 1196.443,686.969 1196.55,692.182 1196.604,697.394 1196.604,702.606 1196.55,707.818 1196.443,713.031 1196.282,718.243 1196.067,723.455 1195.798,728.668 1195.476,733.88 1195.1,739.092 1194.669,744.305 1194.184,749.517 1193.645,754.729 1193.051,759.942 1192.402,765.154 1191.698,770.366 1190.94,775.579 1190.125,780.791 1189.255,786.003 1188.329,791.216 1187.346,796.428 1186.307,801.64 1185.21,806.853 1184.057,812.065 1182.845,817.277 1181.575,822.49 1180.246,827.702 1178.859,832.914 1177.411,838.126 1175.903,843.339 1174.335,848.551 1172.705,853.763 1171.013,858.976 1169.258,864.188 1167.44,869.4 1165.558,874.613 1163.611,879.825 1161.598,885.037 1159.519,890.25 1157.373,895.462 1155.158,900.674 1152.874,905.887 1150.519,911.099 1148.093,916.311 1145.595,921.524 1143.022,926.736 1140.375,931.948 1137.651,937.161 1134.85,942.373 1131.969,947.585 1129.008,952.798 1125.964,958.01 " />
</g>
<g>
<polyline fill="none" stroke="#7f7fff" points="1193.957,448.858 1194.316,453.931 1194.668,459.005 1195.012,464.078 1195.349,469.152 1195.678,474.225 1196,479.299 1196.315,484.373 1196.622,489.446 1196.922,494.52 1197.215,499.593 1197.5,504.667 1197.778,509.741 1198.049,514.814 1198.313,519.888 1198.569,524.961 1198.817,530.035 1199.059,535.109 1199.293,540.182 1199.519,545.256 1199.739,550.329 1199.951,555.403 1200.156,560.476 1200.353,565.55 1200.543,570.624 1200.726,575.697 1200.901,580.771 1201.069,585.844 1201.23,590.918 1201.384,595.992 1201.53,601.065 1201.669,606.139 1201.8,611.212 1201.925,616.286 1202.042,621.359 1202.151,626.433 1202.253,631.507 1202.348,636.58 1202.436,641.654 1202.517,646.727 1202.59,651.801 1202.655,656.875 1202.714,661.948 1202.765,667.022 1202.809,672.095 1202.845,677.169 1202.875,682.242 1202.896,687.316 1202.911,692.39 1202.918,697.463 1202.918,702.537 1202.911,707.61 1202.896,712.684 1202.875,717.758 1202.845,722.831 1202.809,727.905 1202.765,732.978 1202.714,738.052 1202.655,743.125 1202.59,748.199 1202.517,753.273 1202.436,758.346 1202.348,763.42 1202.253,768.493 1202.151,773.567 1202.042,778.641 1201.925,783.714 1201.8,788.788 1201.669,793.861 1201.53,798.935 1201.384,804.008 1201.23,809.082 1201.069,814.156 1200.901,819.229 1200.726,824.303 1200.543,829.376 1200.353,834.45 1200.156,839.524 1199.951,844.597 1199.739,849.671 1199.519,854.744 1199.293,859.818 1199.059,864.891 1198.817,869.965 1198.569,875.039 1198.313,880.112 1198.049,885.186 1197.778,890.259 1197.5,895.333 1197.215,900.407 1196.922,905.48 1196.622,910.554 1196.315,915.627 1196,920.701 1195.678,925.775 1195.349,930.848 1195.012,935.922 1194.668,940.995 1194.316,946.069 1193.957,951.142 " />
<line x1="1193.957" y1="448.858" x2="1228.134" y2="448.858"  stroke="#7f7fff" />
<line x1="1193.957" y1="951.142" x2="1228.134" y2="951.142"  stroke="#7f7fff" />
<polyline fill="none" stroke="#7f7fff" points="1228.134,448.858 1230.122,453.931 1232.064,459.005 1233.959,464.078 1235.808,469.152 1237.613,474.225 1239.372,479.299 1241.086,484.373 1242.757,489.446 1244.383,494.52 1245.966,499.593 1247.506,504.667 1249.002,509.741 1250.456,514.814 1251.868,519.888 1253.237,524.961 1254.565,530.035 1255.851,535.109 1257.095,540.182 1258.299,545.256 1259.462,550.329 1260.583,555.403 1261.665,560.476 1262.706,565.55 1263.707,570.624 1264.668,575.697 1265.59,580.771 1266.472,585.844 1267.314,590.918 1268.117,595.992 1268.881,601.065 1269.606,606.139 1270.293,611.212 1270.94,616.286 1271.549,621.359 1272.119,626.433 1272.651,631.507 1273.144,636.58 1273.599,641.654 1274.016,646.727 1274.395,651.801 1274.736,656.875 1275.038,661.948 1275.303,667.022 1275.53,672.095 1275.719,677.169 1275.87,682.242 1275.984,687.316 1276.059,692.39 1276.097,697.463 1276.097,702.537 1276.059,707.61 1275.984,712.684 1275.87,717.758 1275.719,722.831 1275.53,727.905 1275.303,732.978 1275.038,738.052 1274.736,743.125 1274.395,748.199 1274.016,753.273 1273.599,758.346 1273.144,763.42 1272.651,768.493 1272.119,773.567 1271.549,778.641 1270.94,783.714 1270.293,788.788 1269.606,793.861 1268.881,798.935 1268.117,804.008 1267.314,809.082 1266.472,814.156 1265.59,819.229 1264.668,824.303 1263.707,829.376 1262.706,834.45 1261.665,839.524 1260.583,844.597 1259.462,849.671 1258.299,854.744 1257.095,859.818 1255.851,864.891 1254.565,869.965 1253.237,875.039 1251.868,880.112 1250.456,885.186 1249.002,890.259 1247.506,895.333 1245.966,900.407 1244.383,905.48 1242.757,910.554 1241.086,915.627 1239.372,920.701 1237.613,925.775 1235.808,930.848 1233.959,935.922 1232.064,940.995 1230.122,946.069 1228.134,951.142 " />
</g>
<g>
<polyline fill="none" stroke="#7f7fff" points="1294.881,456.11 1294.126,461.037 1293.386,465.964 1292.662,470.891 1291.954,475.818 1291.262,480.745 1290.585,485.672 1289.924,490.6 1289.278,495.527 1288.648,500.454 1288.034,505.381 1287.435,510.308 1286.852,515.235 1286.285,520.162 1285.733,525.089 1285.196,530.016 1284.675,534.943 1284.17,539.87 1283.68,544.797 1283.205,549.724 1282.746,554.651 1282.302,559.579 1281.874,564.506 1281.461,569.433 1281.064,574.36 1280.682,579.287 1280.315,584.214 1279.963,589.141 1279.627,594.068 1279.307,598.995 1279.001,603.922 1278.711,608.849 1278.437,613.776 1278.177,618.703 1277.933,623.63 1277.704,628.557 1277.491,633.485 1277.293,638.412 1277.11,643.339 1276.942,648.266 1276.789,653.193 1276.652,658.12 1276.53,663.047 1276.424,667.974 1276.332,672.901 1276.256,677.828 1276.195,682.755 1276.149,687.682 1276.119,692.609 1276.103,697.536 1276.103,702.464 1276.119,707.391 1276.149,712.318 1276.195,717.245 1276.256,722.172 1276.332,727.099 1276.424,732.026 1276.53,736.953 1276.652,741.88 1276.789,746.807 1276.942,751.734 1277.11,756.661 1277.293,761.588 1277.491,766.515 1277.704,771.443 1277.933,776.37 1278.177,781.297 1278.437,786.224 1278.711,791.151 1279.001,796.078 1279.307,801.005 1279.627,805.932 1279.963,810.859 1280.315,815.786 1280.682,820.713 1281.064,825.64 1281.461,830.567 1281.874,835.494 1282.302,840.421 1282.746,845.349 1283.205,850.276 1283.68,855.203 1284.17,860.13 1284.675,865.057 1285.196,869.984 1285.733,874.911 1286.285,879.838 1286.852,884.765 1287.435,889.692 1288.034,894.619 1288.648,899.546 1289.278,904.473 1289.924,909.4 1290.585,914.328 1291.262,919.255 1291.954,924.182 1292.662,929.109 1293.386,934.036 1294.126,938.963 1294.881,943.89 " />
<line x1="1294.881" y1="456.11" x2="1304.945" y2="456.11"  stroke="#7f7fff" />
<line x1="1294.881" y1="943.89" x2="1304.945" y2="943.89"  stroke="#7f7fff" />
<polyline fill="none" stroke="#7f7fff" points="1304.945,456.11 1305.92,461.037 1306.874,465.964 1307.808,470.891 1308.721,475.818 1309.614,480.745 1310.487,485.672 1311.338,490.6 1312.17,495.527 1312.981,500.454 1313.772,505.381 1314.543,510.308 1315.293,515.235 1316.023,520.162 1316.733,525.089 1317.423,530.016 1318.093,534.943 1318.743,539.87 1319.372,544.797 1319.982,549.724 1320.572,554.651 1321.142,559.579 1321.692,564.506 1322.222,569.433 1322.732,574.36 1323.223,579.287 1323.694,584.214 1324.144,589.141 1324.576,594.068 1324.987,598.995 1325.379,603.922 1325.751,608.849 1326.103,613.776 1326.435,618.703 1326.748,623.63 1327.042,628.557 1327.315,633.485 1327.57,638.412 1327.804,643.339 1328.019,648.266 1328.214,653.193 1328.39,658.12 1328.546,663.047 1328.683,667.974 1328.8,672.901 1328.898,677.828 1328.976,682.755 1329.035,687.682 1329.074,692.609 1329.093,697.536 1329.093,702.464 1329.074,707.391 1329.035,712.318 1328.976,717.245 1328.898,722.172 1328.8,727.099 1328.683,732.026 1328.546,736.953 1328.39,741.88 1328.214,746.807 1328.019,751.734 1327.804,756.661 1327.57,761.588 1327.315,766.515 1327.042,771.443 1326.748,776.37 1326.435,781.297 1326.103,786.224 1325.751,791.151 1325.379,796.078 1324.987,801.005 1324.576,805.932 1324.144,810.859 1323.694,815.786 1323.223,820.713 1322.732,825.64 1322.222,830.567 1321.692,835.494 1321.142,840.421 1320.572,845.349 1319.982,850.276 1319.372,855.203 1318.743,860.13 1318.093,865.057 1317.423,869.984 1316.733,874.911 1316.023,879.838 1315.293,884.765 1314.543,889.692 1313.772,894.619 1312.981,899.546 1312.17,904.473 1311.338,909.4 1310.487,914.328 1309.614,919.255 1308.721,924.182 1307.808,929.109 1306.874,934.036 1305.92,938.963 1304.945,943.89 " />
</g>
</g>
<g><title>element</title>
<polyline fill="none" stroke="#7f7fff" points="1814.051,144.444 1814.051,155.668 1814.051,166.891 1814.051,178.114 1814.051,189.338 1814.051,200.561 1814.051,211.785 1814.051,223.008 1814.051,234.231 1814.051,245.455 1814.051,256.678 1814.051,267.901 1814.051,279.125 1814.051,290.348 1814.051,301.571 1814.051,312.795 1814.051,324.018 1814.051,335.241 1814.051,346.465 1814.051,357.688 1814.051,368.911 1814.051,380.135 1814.051,391.358 1814.051,402.581 1814.051,413.805 1814.051,425.028 1814.051,436.251 1814.051,447.475 1814.051,458.698 1814.051,469.921 1814.051,481.145 1814.051,492.368 1814.051,503.591 1814.051,514.815 1814.051,526.038 1814.051,537.262 1814.051,548.485 1814.051,559.708 1814.051,570.932 1814.051,582.155 1814.051,593.378 1814.051,604.602 1814.051,615.825 1814.051,627.048 1814.051,638.272 1814.051,649.495 1814.051,660.718 1814.051,671.942 1814.051,683.165 1814.051,694.388 1814.051,705.612 1814.051,716.835 1814.051,728.058 1814.051,739.282 1814.051,750.505 1814.051,761.728 1814.051,772.952 1814.051,784.175 1814.051,795.398 1814.051,806.622 1814.051,817.845 1814.051,829.068 1814.051,840.292 1814.051,851.515 1814.051,862.738 1814.051,873.962 1814.051,885.185 1814.051,896.409 1814.051,907.632 1814.051,918.855 1814.051,930.079 1814.051,941.302 1814.051,952.525 1814.051,963.749 1814.051,974.972 1814.051,986.195 1814.051,997.419 1814.051,1008.642 1814.051,1019.865 1814.051,1031.089 1814.051,1042.312 1814.051,1053.535 1814.051,1064.759 1814.051,1075.982 1814.051,1087.205 1814.051,1098.429 1814.051,1109.652 1814.051,1120.875 1814.051,1132.099 1814.051,1143.322 1814.051,1154.545 1814.051,1165.769 1814.051,1176.992 1814.051,1188.215 1814.051,1199.439 1814.051,1210.662 1814.051,1221.886 1814.051,1233.109 1814.051,1244.332 1814.051,1255.556 " />
</g>
</svg>
