<?xml version="1.0" standalone="no"?>
<svg width="2400px" height="1400px" version="1.1" xmlns="http://www.w3.org/2000/svg" xmlns:xlink="http://www.w3.org/1999/xlink">
<rect x="0" y="0" width="2400" height="1400"  fill="#ffffff" />
<defs>
<g id="dot">
<line x1="1" y1="1" x2="0" y2="0"  />
</g>
<g id="cross">
<line x1="-3" y1="0" x2="3" y2="0"  />
<line x1="0" y1="-3" x2="0" y2="3"  />
</g>
<g id="square">
<line x1="-3" y1="-3" x2="-3" y2="3"  />
<line x1="-3" y1="3" x2="3" y2="3"  />
<line x1="3" y1="3" x2="3" y2="-3"  />
<line x1="3" y1="-3" x2="-3" y2="-3"  />
</g>
<g id="round">
<ellipse cx="0" cy="0" rx="3" ry="3"  fill="none" /></g>
<g id="triangle">
<line x1="0" y1="-3" x2="-3" y2="3"  />
<line x1="-3" y1="3" x2="3" y2="3"  />
<line x1="0" y1="-3" x2="3" y2="3"  />
</g>
</defs>
<line x1="651.262" y1="700" x2="1748.738" y2="700"  stroke="#7f7f7f" />
<g><title>element</title>
<g>
<line x1="1006.328" y1="528.312" x2="1006.328" y2="356.624"  stroke="#7f7fff" />
<line x1="1006.328" y1="871.688" x2="1006.328" y2="1043.376"  stroke="#7f7fff" />
</g>
<g>
<polyline fill="none" stroke="#7f7fff" points="691.858,490.543 693.42,494.774 694.947,499.006 696.438,503.237 697.893,507.469 699.313,511.7 700.698,515.932 702.048,520.163 703.364,524.395 704.646,528.626 705.894,532.858 707.107,537.089 708.288,541.32 709.434,545.552 710.548,549.783 711.629,554.015 712.677,558.246 713.692,562.478 714.675,566.709 715.625,570.941 716.544,575.172 717.43,579.404 718.285,583.635 719.108,587.866 719.899,592.098 720.659,596.329 721.388,600.561 722.085,604.792 722.751,609.024 723.386,613.255 723.991,617.487 724.565,621.718 725.107,625.95 725.62,630.181 726.102,634.412 726.553,638.644 726.974,642.875 727.364,647.107 727.725,651.338 728.055,655.57 728.355,659.801 728.624,664.033 728.864,668.264 729.074,672.496 729.253,676.727 729.403,680.958 729.523,685.19 729.613,689.421 729.672,693.653 729.702,697.884 729.702,702.116 729.672,706.347 729.613,710.579 729.523,714.81 729.403,719.042 729.253,723.273 729.074,727.504 728.864,731.736 728.624,735.967 728.355,740.199 728.055,744.43 727.725,748.662 727.364,752.893 726.974,757.125 726.553,761.356 726.102,765.588 725.62,769.819 725.107,774.05 724.565,778.282 723.991,782.513 723.386,786.745 722.751,790.976 722.085,795.208 721.388,799.439 720.659,803.671 719.899,807.902 719.108,812.134 718.285,816.365 717.43,820.596 716.544,824.828 715.625,829.059 714.675,833.291 713.692,837.522 712.677,841.754 711.629,845.985 710.548,850.217 709.434,854.448 708.288,858.68 707.107,862.911 705.894,867.142 704.646,871.374 703.364,875.605 702.048,879.837 700.698,884.068 699.313,888.3 697.893,892.531 696.438,896.763 694.947,900.994 693.42,905.226 691.858,909.457 " />
<line x1="691.858" y1="475.518" x2="691.858" y2="490.543"  stroke="#7f7fff" />
<line x1="691.858" y1="475.518" x2="829.332" y2="475.518"  stroke="#7f7fff" />
<line x1="691.858" y1="924.482" x2="691.858" y2="909.457"  stroke="#7f7fff" />
<line x1="691.858" y1="924.482" x2="829.332" y2="924.482"  stroke="#7f7fff" />
<polyline fill="none" stroke="#7f7fff" points="829.332,475.518 827.182,480.053 825.086,484.588 823.042,489.123 821.051,493.658 819.11,498.193 817.221,502.728 815.381,507.263 813.591,511.798 811.85,516.333 810.157,520.868 808.513,525.403 806.916,529.938 805.366,534.473 803.862,539.008 802.405,543.543 800.993,548.078 799.627,552.613 798.305,557.148 797.029,561.683 795.796,566.218 794.608,570.753 793.463,575.288 792.361,579.823 791.303,584.358 790.287,588.893 789.314,593.428 788.383,597.963 787.495,602.498 786.648,607.033 785.842,611.568 785.079,616.103 784.356,620.638 783.675,625.173 783.034,629.708 782.434,634.243 781.875,638.778 781.356,643.313 780.878,647.848 780.44,652.383 780.042,656.918 779.684,661.453 779.366,665.988 779.088,670.523 778.85,675.058 778.651,679.593 778.493,684.128 778.374,688.663 778.294,693.198 778.255,697.733 778.255,702.267 778.294,706.802 778.374,711.337 778.493,715.872 778.651,720.407 778.85,724.942 779.088,729.477 779.366,734.012 779.684,738.547 780.042,743.082 780.44,747.617 780.878,752.152 781.356,756.687 781.875,761.222 782.434,765.757 783.034,770.292 783.675,774.827 784.356,779.362 785.079,783.897 785.842,788.432 786.648,792.967 787.495,797.502 788.383,802.037 789.314,806.572 790.287,811.107 791.303,815.642 792.361,820.177 793.463,824.712 794.608,829.247 795.796,833.782 797.029,838.317 798.305,842.852 799.627,847.387 800.993,851.922 802.405,856.457 803.862,860.992 805.366,865.527 806.916,870.062 808.513,874.597 810.157,879.132 811.85,883.667 813.591,888.202 815.381,892.737 817.221,897.272 819.11,901.807 821.051,906.342 823.042,910.877 825.086,915.412 827.182,919.947 829.332,924.482 " />
<line x1="829.332" y1="475.518" x2="840.72" y2="475.518"  stroke="#7f7fff" />
<line x1="829.332" y1="924.482" x2="840.72" y2="924.482"  stroke="#7f7fff" />
<polyline fill="none" stroke="#7f7fff" points="840.72,475.518 842.125,480.053 843.5,484.588 844.843,489.123 846.156,493.658 847.437,498.193 848.688,502.728 849.908,507.263 851.098,511.798 852.258,516.333 853.388,520.868 854.487,525.403 855.557,529.938 856.598,534.473 857.609,539.008 858.59,543.543 859.542,548.078 860.465,552.613 861.359,557.148 862.224,561.683 863.06,566.218 863.867,570.753 864.645,575.288 865.395,579.823 866.117,584.358 866.81,588.893 867.475,593.428 868.111,597.963 868.719,602.498 869.3,607.033 869.852,611.568 870.376,616.103 870.872,620.638 871.341,625.173 871.781,629.708 872.194,634.243 872.579,638.778 872.936,643.313 873.266,647.848 873.568,652.383 873.843,656.918 874.09,661.453 874.309,665.988 874.501,670.523 874.666,675.058 874.803,679.593 874.912,684.128 874.995,688.663 875.05,693.198 875.077,697.733 875.077,702.267 875.05,706.802 874.995,711.337 874.912,715.872 874.803,720.407 874.666,724.942 874.501,729.477 874.309,734.012 874.09,738.547 873.843,743.082 873.568,747.617 873.266,752.152 872.936,756.687 872.579,761.222 872.194,765.757 871.781,770.292 871.341,774.827 870.872,779.362 870.376,783.897 869.852,788.432 869.3,792.967 868.719,797.502 868.111,802.037 867.475,806.572 866.81,811.107 866.117,815.642 865.395,820.177 864.645,824.712 863.867,829.247 863.06,833.782 862.224,838.317 861.359,842.852 860.465,847.387 859.542,851.922 858.59,856.457 857.609,860.992 856.598,865.527 855.557,870.062 854.487,874.597 853.388,879.132 852.258,883.667 851.098,888.202 849.908,892.737 848.688,897.272 847.437,901.807 846.156,906.342 844.843,910.877 843.5,915.412 842.125,919.947 840.72,924.482 " />
</g>
<g>
<polyline fill="none" stroke="#7f7fff" points="944.914,477.315 942.099,481.814 939.363,486.313 936.704,490.811 934.121,495.31 931.612,499.809 929.175,504.308 926.809,508.806 924.512,513.305 922.284,517.804 920.123,522.302 918.028,526.801 915.998,531.3 914.032,535.798 912.128,540.297 910.286,544.796 908.505,549.294 906.785,553.793 905.124,558.292 903.521,562.79 901.976,567.289 900.489,571.788 899.058,576.286 897.683,580.785 896.364,585.284 895.099,589.782 893.889,594.281 892.732,598.78 891.629,603.278 890.579,607.777 889.581,612.276 888.636,616.774 887.742,621.273 886.9,625.772 886.109,630.27 885.369,634.769 884.679,639.268 884.039,643.767 883.45,648.265 882.91,652.764 882.421,657.263 881.98,661.761 881.589,666.26 881.247,670.759 880.954,675.257 880.711,679.756 880.516,684.255 880.369,688.753 880.272,693.252 880.223,697.751 880.223,702.249 880.272,706.748 880.369,711.247 880.516,715.745 880.711,720.244 880.954,724.743 881.247,729.241 881.589,733.74 881.98,738.239 882.421,742.737 882.91,747.236 883.45,751.735 884.039,756.233 884.679,760.732 885.369,765.231 886.109,769.73 886.9,774.228 887.742,778.727 888.636,783.226 889.581,787.724 890.579,792.223 891.629,796.722 892.732,801.22 893.889,805.719 895.099,810.218 896.364,814.716 897.683,819.215 899.058,823.714 900.489,828.212 901.976,832.711 903.521,837.21 905.124,841.708 906.785,846.207 908.505,850.706 910.286,855.204 912.128,859.703 914.032,864.202 915.998,868.7 918.028,873.199 920.123,877.698 922.284,882.196 924.512,886.695 926.809,891.194 929.175,895.692 931.612,900.191 934.121,904.69 936.704,909.189 939.363,913.687 942.099,918.186 944.914,922.685 " />
<line x1="982.245" y1="477.315" x2="982.245" y2="491.314"  stroke="#7f7fff" />
<line x1="944.914" y1="477.315" x2="982.245" y2="477.315"  stroke="#7f7fff" />
<line x1="982.245" y1="922.685" x2="982.245" y2="908.686"  stroke="#7f7fff" />
<line x1="944.914" y1="922.685" x2="982.245" y2="922.685"  stroke="#7f7fff" />
<polyline fill="none" stroke="#7f7fff" points="982.245,491.314 978.432,495.529 974.757,499.745 971.214,503.961 967.797,508.177 964.5,512.393 961.319,516.609 958.249,520.825 955.286,525.041 952.427,529.257 949.669,533.472 947.007,537.688 944.439,541.904 941.962,546.12 939.575,550.336 937.273,554.552 935.056,558.768 932.922,562.984 930.867,567.2 928.892,571.415 926.993,575.631 925.169,579.847 923.42,584.063 921.743,588.279 920.137,592.495 918.602,596.711 917.135,600.927 915.737,605.143 914.405,609.358 913.14,613.574 911.94,617.79 910.804,622.006 909.732,626.222 908.723,630.438 907.777,634.654 906.893,638.87 906.069,643.086 905.307,647.301 904.605,651.517 903.963,655.733 903.38,659.949 902.857,664.165 902.392,668.381 901.986,672.597 901.639,676.813 901.35,681.029 901.119,685.244 900.945,689.46 900.83,693.676 900.772,697.892 900.772,702.108 900.83,706.324 900.945,710.54 901.119,714.756 901.35,718.971 901.639,723.187 901.986,727.403 902.392,731.619 902.857,735.835 903.38,740.051 903.963,744.267 904.605,748.483 905.307,752.699 906.069,756.914 906.893,761.13 907.777,765.346 908.723,769.562 909.732,773.778 910.804,777.994 911.94,782.21 913.14,786.426 914.405,790.642 915.737,794.857 917.135,799.073 918.602,803.289 920.137,807.505 921.743,811.721 923.42,815.937 925.169,820.153 926.993,824.369 928.892,828.585 930.867,832.8 932.922,837.016 935.056,841.232 937.273,845.448 939.575,849.664 941.962,853.88 944.439,858.096 947.007,862.312 949.669,866.528 952.427,870.743 955.286,874.959 958.249,879.175 961.319,883.391 964.5,887.607 967.797,891.823 971.214,896.039 974.757,900.255 978.432,904.471 982.245,908.686 " />
<line x1="984.039" y1="491.314" x2="984.039" y2="511.99"  stroke="#7f7fff" />
<line x1="982.245" y1="491.314" x2="984.039" y2="491.314"  stroke="#7f7fff" />
<line x1="984.039" y1="908.686" x2="984.039" y2="888.01"  stroke="#7f7fff" />
<line x1="982.245" y1="908.686" x2="984.039" y2="908.686"  stroke="#7f7fff" />
<polyline fill="none" stroke="#7f7fff" points="984.039,511.99 983.4,515.788 982.782,519.586 982.185,523.384 981.609,527.182 981.053,530.98 980.517,534.779 979.999,538.577 979.501,542.375 979.02,546.173 978.557,549.971 978.111,553.77 977.681,557.568 977.268,561.366 976.871,565.164 976.488,568.962 976.121,572.761 975.769,576.559 975.43,580.357 975.106,584.155 974.795,587.953 974.497,591.752 974.212,595.55 973.94,599.348 973.68,603.146 973.432,606.944 973.197,610.742 972.973,614.541 972.76,618.339 972.558,622.137 972.368,625.935 972.188,629.733 972.019,633.532 971.86,637.33 971.712,641.128 971.573,644.926 971.445,648.724 971.326,652.523 971.218,656.321 971.118,660.119 971.028,663.917 970.947,667.715 970.876,671.514 970.814,675.312 970.76,679.11 970.716,682.908 970.681,686.706 970.654,690.505 970.637,694.303 970.628,698.101 970.628,701.899 970.637,705.697 970.654,709.495 970.681,713.294 970.716,717.092 970.76,720.89 970.814,724.688 970.876,728.486 970.947,732.285 971.028,736.083 971.118,739.881 971.218,743.679 971.326,747.477 971.445,751.276 971.573,755.074 971.712,758.872 971.86,762.67 972.019,766.468 972.188,770.267 972.368,774.065 972.558,777.863 972.76,781.661 972.973,785.459 973.197,789.258 973.432,793.056 973.68,796.854 973.94,800.652 974.212,804.45 974.497,808.248 974.795,812.047 975.106,815.845 975.43,819.643 975.769,823.441 976.121,827.239 976.488,831.038 976.871,834.836 977.268,838.634 977.681,842.432 978.111,846.23 978.557,850.029 979.02,853.827 979.501,857.625 979.999,861.423 980.517,865.221 981.053,869.02 981.609,872.818 982.185,876.616 982.782,880.414 983.4,884.212 984.039,888.01 " />
</g>
<g>
<polyline fill="none" stroke="#7f7fff" points="1043.856,527.272 1043.904,530.761 1043.939,534.251 1043.963,537.74 1043.977,541.23 1043.984,544.719 1043.984,548.209 1043.978,551.698 1043.967,555.187 1043.951,558.677 1043.931,562.166 1043.908,565.656 1043.881,569.145 1043.852,572.635 1043.82,576.124 1043.785,579.614 1043.747,583.103 1043.708,586.593 1043.666,590.082 1043.623,593.572 1043.577,597.061 1043.53,600.55 1043.481,604.04 1043.431,607.529 1043.38,611.019 1043.328,614.508 1043.275,617.998 1043.222,621.487 1043.168,624.977 1043.114,628.466 1043.06,631.956 1043.007,635.445 1042.954,638.934 1042.903,642.424 1042.853,645.913 1042.804,649.403 1042.757,652.892 1042.712,656.382 1042.67,659.871 1042.63,663.361 1042.592,666.85 1042.558,670.34 1042.527,673.829 1042.5,677.319 1042.476,680.808 1042.456,684.297 1042.44,687.787 1042.428,691.276 1042.419,694.766 1042.415,698.255 1042.415,701.745 1042.419,705.234 1042.428,708.724 1042.44,712.213 1042.456,715.703 1042.476,719.192 1042.5,722.681 1042.527,726.171 1042.558,729.66 1042.592,733.15 1042.63,736.639 1042.67,740.129 1042.712,743.618 1042.757,747.108 1042.804,750.597 1042.853,754.087 1042.903,757.576 1042.954,761.066 1043.007,764.555 1043.06,768.044 1043.114,771.534 1043.168,775.023 1043.222,778.513 1043.275,782.002 1043.328,785.492 1043.38,788.981 1043.431,792.471 1043.481,795.96 1043.53,799.45 1043.577,802.939 1043.623,806.428 1043.666,809.918 1043.708,813.407 1043.747,816.897 1043.785,820.386 1043.82,823.876 1043.852,827.365 1043.881,830.855 1043.908,834.344 1043.931,837.834 1043.951,841.323 1043.967,844.813 1043.978,848.302 1043.984,851.791 1043.984,855.281 1043.977,858.77 1043.963,862.26 1043.939,865.749 1043.904,869.239 1043.856,872.728 " />
<line x1="1095.847" y1="527.272" x2="1095.847" y2="550.837"  stroke="#7f7fff" />
<line x1="1043.856" y1="527.272" x2="1095.847" y2="527.272"  stroke="#7f7fff" />
<line x1="1095.847" y1="872.728" x2="1095.847" y2="849.163"  stroke="#7f7fff" />
<line x1="1043.856" y1="872.728" x2="1095.847" y2="872.728"  stroke="#7f7fff" />
<polyline fill="none" stroke="#7f7fff" points="1095.847,550.837 1094.152,553.851 1092.499,556.864 1090.887,559.877 1089.315,562.891 1087.784,565.904 1086.294,568.918 1084.843,571.931 1083.431,574.944 1082.058,577.958 1080.723,580.971 1079.426,583.985 1078.166,586.998 1076.943,590.011 1075.756,593.025 1074.606,596.038 1073.49,599.052 1072.41,602.065 1071.364,605.078 1070.353,608.092 1069.376,611.105 1068.432,614.118 1067.522,617.132 1066.645,620.145 1065.802,623.159 1064.991,626.172 1064.213,629.185 1063.468,632.199 1062.755,635.212 1062.074,638.226 1061.427,641.239 1060.811,644.252 1060.228,647.266 1059.677,650.279 1059.158,653.292 1058.672,656.306 1058.218,659.319 1057.796,662.333 1057.406,665.346 1057.049,668.359 1056.724,671.373 1056.432,674.386 1056.172,677.4 1055.944,680.413 1055.749,683.426 1055.586,686.44 1055.456,689.453 1055.359,692.467 1055.294,695.48 1055.261,698.493 1055.261,701.507 1055.294,704.52 1055.359,707.533 1055.456,710.547 1055.586,713.56 1055.749,716.574 1055.944,719.587 1056.172,722.6 1056.432,725.614 1056.724,728.627 1057.049,731.641 1057.406,734.654 1057.796,737.667 1058.218,740.681 1058.672,743.694 1059.158,746.708 1059.677,749.721 1060.228,752.734 1060.811,755.748 1061.427,758.761 1062.074,761.774 1062.755,764.788 1063.468,767.801 1064.213,770.815 1064.991,773.828 1065.802,776.841 1066.645,779.855 1067.522,782.868 1068.432,785.882 1069.376,788.895 1070.353,791.908 1071.364,794.922 1072.41,797.935 1073.49,800.948 1074.606,803.962 1075.756,806.975 1076.943,809.989 1078.166,813.002 1079.426,816.015 1080.723,819.029 1082.058,822.042 1083.431,825.056 1084.843,828.069 1086.294,831.082 1087.784,834.096 1089.315,837.109 1090.887,840.123 1092.499,843.136 1094.152,846.149 1095.847,849.163 " />
</g>
<g>
<polyline fill="none" stroke="#7f7fff" points="1260.582,521.108 1259.534,524.722 1258.469,528.335 1257.395,531.949 1256.319,535.563 1255.245,539.177 1254.179,542.791 1253.125,546.405 1252.085,550.019 1251.064,553.633 1250.062,557.247 1249.081,560.861 1248.124,564.475 1247.19,568.089 1246.282,571.703 1245.399,575.317 1244.543,578.931 1243.713,582.545 1242.909,586.159 1242.133,589.773 1241.383,593.387 1240.661,597.001 1239.965,600.615 1239.297,604.229 1238.655,607.843 1238.039,611.457 1237.45,615.071 1236.887,618.685 1236.35,622.299 1235.839,625.913 1235.354,629.527 1234.894,633.141 1234.459,636.755 1234.05,640.369 1233.666,643.983 1233.306,647.597 1232.972,651.211 1232.661,654.825 1232.376,658.439 1232.114,662.053 1231.877,665.667 1231.663,669.281 1231.474,672.895 1231.309,676.509 1231.167,680.123 1231.049,683.737 1230.955,687.351 1230.884,690.965 1230.837,694.579 1230.814,698.193 1230.814,701.807 1230.837,705.421 1230.884,709.035 1230.955,712.649 1231.049,716.263 1231.167,719.877 1231.309,723.491 1231.474,727.105 1231.663,730.719 1231.877,734.333 1232.114,737.947 1232.376,741.561 1232.661,745.175 1232.972,748.789 1233.306,752.403 1233.666,756.017 1234.05,759.631 1234.459,763.245 1234.894,766.859 1235.354,770.473 1235.839,774.087 1236.35,777.701 1236.887,781.315 1237.45,784.929 1238.039,788.543 1238.655,792.157 1239.297,795.771 1239.965,799.385 1240.661,802.999 1241.383,806.613 1242.133,810.227 1242.909,813.841 1243.713,817.455 1244.543,821.069 1245.399,824.683 1246.282,828.297 1247.19,831.911 1248.124,835.525 1249.081,839.139 1250.062,842.753 1251.064,846.367 1252.085,849.981 1253.125,853.595 1254.179,857.209 1255.245,860.823 1256.319,864.437 1257.395,868.051 1258.469,871.665 1259.534,875.278 1260.582,878.892 " />
<line x1="1260.582" y1="521.108" x2="1351.377" y2="521.108"  stroke="#7f7fff" />
<line x1="1260.582" y1="878.892" x2="1351.377" y2="878.892"  stroke="#7f7fff" />
<polyline fill="none" stroke="#7f7fff" points="1351.377,521.108 1353.12,524.722 1354.769,528.335 1356.331,531.949 1357.816,535.563 1359.228,539.177 1360.575,542.791 1361.861,546.405 1363.092,550.019 1364.27,553.633 1365.399,557.247 1366.482,560.861 1367.522,564.475 1368.521,568.089 1369.481,571.703 1370.403,575.317 1371.289,578.931 1372.141,582.545 1372.96,586.159 1373.746,589.773 1374.5,593.387 1375.225,597.001 1375.919,600.615 1376.584,604.229 1377.221,607.843 1377.83,611.457 1378.412,615.071 1378.966,618.685 1379.494,622.299 1379.996,625.913 1380.472,629.527 1380.923,633.141 1381.348,636.755 1381.749,640.369 1382.125,643.983 1382.477,647.597 1382.804,651.211 1383.107,654.825 1383.387,658.439 1383.642,662.053 1383.874,665.667 1384.083,669.281 1384.268,672.895 1384.43,676.509 1384.569,680.123 1384.684,683.737 1384.776,687.351 1384.845,690.965 1384.892,694.579 1384.915,698.193 1384.915,701.807 1384.892,705.421 1384.845,709.035 1384.776,712.649 1384.684,716.263 1384.569,719.877 1384.43,723.491 1384.268,727.105 1384.083,730.719 1383.874,734.333 1383.642,737.947 1383.387,741.561 1383.107,745.175 1382.804,748.789 1382.477,752.403 1382.125,756.017 1381.749,759.631 1381.348,763.245 1380.923,766.859 1380.472,770.473 1379.996,774.087 1379.494,777.701 1378.966,781.315 1378.412,784.929 1377.83,788.543 1377.221,792.157 1376.584,795.771 1375.919,799.385 1375.225,802.999 1374.5,806.613 1373.746,810.227 1372.96,813.841 1372.141,817.455 1371.289,821.069 1370.403,824.683 1369.481,828.297 1368.521,831.911 1367.522,835.525 1366.482,839.139 1365.399,842.753 1364.27,846.367 1363.092,849.981 1361.861,853.595 1360.575,857.209 1359.228,860.823 1357.816,864.437 1356.331,868.051 1354.769,871.665 1353.12,875.278 1351.377,878.892 " />
</g>
<g>
<polyline fill="none" stroke="#7f7fff" points="1464.465,525.602 1468.394,529.125 1472.15,532.649 1475.744,536.172 1479.187,539.695 1482.488,543.218 1485.655,546.741 1488.696,550.265 1491.616,553.788 1494.422,557.311 1497.118,560.834 1499.71,564.357 1502.201,567.881 1504.596,571.404 1506.898,574.927 1509.11,578.45 1511.236,581.973 1513.278,585.496 1515.238,589.02 1517.119,592.543 1518.923,596.066 1520.653,599.589 1522.309,603.112 1523.894,606.636 1525.409,610.159 1526.855,613.682 1528.235,617.205 1529.549,620.728 1530.799,624.252 1531.985,627.775 1533.108,631.298 1534.171,634.821 1535.172,638.344 1536.114,641.867 1536.997,645.391 1537.822,648.914 1538.589,652.437 1539.299,655.96 1539.952,659.483 1540.549,663.007 1541.091,666.53 1541.577,670.053 1542.009,673.576 1542.386,677.099 1542.708,680.622 1542.977,684.146 1543.191,687.669 1543.352,691.192 1543.459,694.715 1543.513,698.238 1543.513,701.762 1543.459,705.285 1543.352,708.808 1543.191,712.331 1542.977,715.854 1542.708,719.378 1542.386,722.901 1542.009,726.424 1541.577,729.947 1541.091,733.47 1540.549,736.993 1539.952,740.517 1539.299,744.04 1538.589,747.563 1537.822,751.086 1536.997,754.609 1536.114,758.133 1535.172,761.656 1534.171,765.179 1533.108,768.702 1531.985,772.225 1530.799,775.748 1529.549,779.272 1528.235,782.795 1526.855,786.318 1525.409,789.841 1523.894,793.364 1522.309,796.888 1520.653,800.411 1518.923,803.934 1517.119,807.457 1515.238,810.98 1513.278,814.504 1511.236,818.027 1509.11,821.55 1506.898,825.073 1504.596,828.596 1502.201,832.119 1499.71,835.643 1497.118,839.166 1494.422,842.689 1491.616,846.212 1488.696,849.735 1485.655,853.259 1482.488,856.782 1479.187,860.305 1475.744,863.828 1472.15,867.351 1468.394,870.875 1464.465,874.398 " />
<line x1="1464.465" y1="493.111" x2="1464.465" y2="525.602"  stroke="#7f7fff" />
<line x1="1464.465" y1="493.111" x2="1514.222" y2="493.111"  stroke="#7f7fff" />
<line x1="1464.465" y1="906.889" x2="1464.465" y2="874.398"  stroke="#7f7fff" />
<line x1="1464.465" y1="906.889" x2="1514.222" y2="906.889"  stroke="#7f7fff" />
<polyline fill="none" stroke="#7f7fff" points="1514.222,493.111 1516.094,497.291 1517.921,501.471 1519.702,505.65 1521.439,509.83 1523.131,514.009 1524.78,518.189 1526.386,522.368 1527.95,526.548 1529.471,530.728 1530.95,534.907 1532.388,539.087 1533.785,543.266 1535.141,547.446 1536.457,551.625 1537.733,555.805 1538.969,559.984 1540.166,564.164 1541.324,568.344 1542.442,572.523 1543.523,576.703 1544.565,580.882 1545.569,585.062 1546.535,589.241 1547.464,593.421 1548.355,597.601 1549.209,601.78 1550.026,605.96 1550.806,610.139 1551.55,614.319 1552.257,618.498 1552.928,622.678 1553.563,626.858 1554.161,631.037 1554.724,635.217 1555.251,639.396 1555.743,643.576 1556.199,647.755 1556.619,651.935 1557.004,656.115 1557.354,660.294 1557.669,664.474 1557.948,668.653 1558.193,672.833 1558.402,677.012 1558.577,681.192 1558.716,685.372 1558.821,689.551 1558.891,693.731 1558.926,697.91 1558.926,702.09 1558.891,706.269 1558.821,710.449 1558.716,714.628 1558.577,718.808 1558.402,722.988 1558.193,727.167 1557.948,731.347 1557.669,735.526 1557.354,739.706 1557.004,743.885 1556.619,748.065 1556.199,752.245 1555.743,756.424 1555.251,760.604 1554.724,764.783 1554.161,768.963 1553.563,773.142 1552.928,777.322 1552.257,781.502 1551.55,785.681 1550.806,789.861 1550.026,794.04 1549.209,798.22 1548.355,802.399 1547.464,806.579 1546.535,810.759 1545.569,814.938 1544.565,819.118 1543.523,823.297 1542.442,827.477 1541.324,831.656 1540.166,835.836 1538.969,840.016 1537.733,844.195 1536.457,848.375 1535.141,852.554 1533.785,856.734 1532.388,860.913 1530.95,865.093 1529.471,869.272 1527.95,873.452 1526.386,877.632 1524.78,881.811 1523.131,885.991 1521.439,890.17 1519.702,894.35 1517.921,898.529 1516.094,902.709 1514.222,906.889 " />
</g>
<g>
<polyline fill="none" stroke="#7f7fff" points="1710.212,403.729 1710.212,409.715 1710.212,415.7 1710.212,421.685 1710.212,427.67 1710.212,433.656 1710.212,439.641 1710.212,445.626 1710.212,451.612 1710.212,457.597 1710.212,463.582 1710.212,469.567 1710.212,475.553 1710.212,481.538 1710.212,487.523 1710.212,493.508 1710.212,499.494 1710.212,505.479 1710.212,511.464 1710.212,517.449 1710.212,523.435 1710.212,529.42 1710.212,535.405 1710.212,541.39 1710.212,547.376 1710.212,553.361 1710.212,559.346 1710.212,565.332 1710.212,571.317 1710.212,577.302 1710.212,583.287 1710.212,589.273 1710.212,595.258 1710.212,601.243 1710.212,607.228 1710.212,613.214 1710.212,619.199 1710.212,625.184 1710.212,631.169 1710.212,637.155 1710.212,643.14 1710.212,649.125 1710.212,655.111 1710.212,661.096 1710.212,667.081 1710.212,673.066 1710.212,679.052 1710.212,685.037 1710.212,691.022 1710.212,697.007 1710.212,702.993 1710.212,708.978 1710.212,714.963 1710.212,720.948 1710.212,726.934 1710.212,732.919 1710.212,738.904 1710.212,744.889 1710.212,750.875 1710.212,756.86 1710.212,762.845 1710.212,768.831 1710.212,774.816 1710.212,780.801 1710.212,786.786 1710.212,792.772 1710.212,798.757 1710.212,804.742 1710.212,810.727 1710.212,816.713 1710.212,822.698 1710.212,828.683 1710.212,834.668 1710.212,840.654 1710.212,846.639 1710.212,852.624 1710.212,858.61 1710.212,864.595 1710.212,870.58 1710.212,876.565 1710.212,882.551 1710.212,888.536 1710.212,894.521 1710.212,900.506 1710.212,906.492 1710.212,912.477 1710.212,918.462 1710.212,924.447 1710.212,930.433 1710.212,936.418 1710.212,942.403 1710.212,948.388 1710.212,954.374 1710.212,960.359 1710.212,966.344 1710.212,972.33 1710.212,978.315 1710.212,984.3 1710.212,990.285 1710.212,996.271 " />
<line x1="1710.212" y1="403.729" x2="1735.896" y2="403.729"  stroke="#7f7fff" />
<line x1="1710.212" y1="996.271" x2="1735.896" y2="996.271"  stroke="#7f7fff" />
<polyline fill="none" stroke="#7f7fff" points="1735.896,403.729 1735.896,409.715 1735.896,415.7 1735.896,421.685 1735.896,427.67 1735.896,433.656 1735.896,439.641 1735.896,445.626 1735.896,451.612 1735.896,457.597 1735.896,463.582 1735.896,469.567 1735.896,475.553 1735.896,481.538 1735.896,487.523 1735.896,493.508 1735.896,499.494 1735.896,505.479 1735.896,511.464 1735.896,517.449 1735.896,523.435 1735.896,529.42 1735.896,535.405 1735.896,541.39 1735.896,547.376 1735.896,553.361 1735.896,559.346 1735.896,565.332 1735.896,571.317 1735.896,577.302 1735.896,583.287 1735.896,589.273 1735.896,595.258 1735.896,601.243 1735.896,607.228 1735.896,613.214 1735.896,619.199 1735.896,625.184 1735.896,631.169 1735.896,637.155 1735.896,643.14 1735.896,649.125 1735.896,655.111 1735.896,661.096 1735.896,667.081 1735.896,673.066 1735.896,679.052 1735.896,685.037 1735.896,691.022 1735.896,697.007 1735.896,702.993 1735.896,708.978 1735.896,714.963 1735.896,720.948 1735.896,726.934 1735.896,732.919 1735.896,738.904 1735.896,744.889 1735.896,750.875 1735.896,756.86 1735.896,762.845 1735.896,768.831 1735.896,774.816 1735.896,780.801 1735.896,786.786 1735.896,792.772 1735.896,798.757 1735.896,804.742 1735.896,810.727 1735.896,816.713 1735.896,822.698 1735.896,828.683 1735.896,834.668 1735.896,840.654 1735.896,846.639 1735.896,852.624 1735.896,858.61 1735.896,864.595 1735.896,870.58 1735.896,876.565 1735.896,882.551 1735.896,888.536 1735.896,894.521 1735.896,900.506 1735.896,906.492 1735.896,912.477 1735.896,918.462 1735.896,924.447 1735.896,930.433 1735.896,936.418 1735.896,942.403 1735.896,948.388 1735.896,954.374 1735.896,960.359 1735.896,966.344 1735.896,972.33 1735.896,978.315 1735.896,984.3 1735.896,990.285 1735.896,996.271 " />
</g>
</g>
<g><title>element</title>
<polyline fill="none" stroke="#7f7fff" points="1748.738,144.444 1748.738,155.668 1748.738,166.891 1748.738,178.114 1748.738,189.338 1748.738,200.561 1748.738,211.785 1748.738,223.008 1748.738,234.231 1748.738,245.455 1748.738,256.678 1748.738,267.901 1748.738,279.125 1748.738,290.348 1748.738,301.571 1748.738,312.795 1748.738,324.018 1748.738,335.241 1748.738,346.465 1748.738,357.688 1748.738,368.911 1748.738,380.135 1748.738,391.358 1748.738,402.581 1748.738,413.805 1748.738,425.028 1748.738,436.251 1748.738,447.475 1748.738,458.698 1748.738,469.921 1748.738,481.145 1748.738,492.368 1748.738,503.591 1748.738,514.815 1748.738,526.038 1748.738,537.262 1748.738,548.485 1748.738,559.708 1748.738,570.932 1748.738,582.155 1748.738,593.378 1748.738,604.602 1748.738,615.825 1748.738,627.048 1748.738,638.272 1748.738,649.495 1748.738,660.718 1748.738,671.942 1748.738,683.165 1748.738,694.388 1748.738,705.612 1748.738,716.835 1748.738,728.058 1748.738,739.282 1748.738,750.505 1748.738,761.728 1748.738,772.952 1748.738,784.175 1748.738,795.398 1748.738,806.622 1748.738,817.845 1748.738,829.068 1748.738,840.292 1748.738,851.515 1748.738,862.738 1748.738,873.962 1748.738,885.185 1748.738,896.409 1748.738,907.632 1748.738,918.855 1748.738,930.079 1748.738,941.302 1748.738,952.525 1748.738,963.749 1748.738,974.972 1748.738,986.195 1748.738,997.419 1748.738,1008.642 1748.738,1019.865 1748.738,1031.089 1748.738,1042.312 1748.738,1053.535 1748.738,1064.759 1748.738,1075.982 1748.738,1087.205 1748.738,1098.429 1748.738,1109.652 1748.738,1120.875 1748.738,1132.099 1748.738,1143.322 1748.738,1154.545 1748.738,1165.769 1748.738,1176.992 1748.738,1188.215 1748.738,1199.439 1748.738,1210.662 1748.738,1221.886 1748.738,1233.109 1748.738,1244.332 1748.738,1255.556 " />
</g>
</svg>
