<?xml version="1.0" standalone="no"?>
<svg width="2400px" height="1400px" version="1.1" xmlns="http://www.w3.org/2000/svg" xmlns:xlink="http://www.w3.org/1999/xlink">
<rect x="0" y="0" width="2400" height="1400"  fill="#ffffff" />
<defs>
<g id="dot">
<line x1="1" y1="1" x2="0" y2="0"  />
</g>
<g id="cross">
<line x1="-3" y1="0" x2="3" y2="0"  />
<line x1="0" y1="-3" x2="0" y2="3"  />
</g>
<g id="square">
<line x1="-3" y1="-3" x2="-3" y2="3"  />
<line x1="-3" y1="3" x2="3" y2="3"  />
<line x1="3" y1="3" x2="3" y2="-3"  />
<line x1="3" y1="-3" x2="-3" y2="-3"  />
</g>
<g id="round">
<ellipse cx="0" cy="0" rx="3" ry="3"  fill="none" /></g>
<g id="triangle">
<line x1="0" y1="-3" x2="-3" y2="3"  />
<line x1="-3" y1="3" x2="3" y2="3"  />
<line x1="0" y1="-3" x2="3" y2="3"  />
</g>
</defs>
<line x1="662.167" y1="700" x2="1737.833" y2="700"  stroke="#7f7f7f" />
<g><title>element</title>
<g>
<line x1="1028.684" y1="495.288" x2="1028.684" y2="290.576"  stroke="#7f7fff" />
<line x1="1028.684" y1="904.712" x2="1028.684" y2="1109.424"  stroke="#7f7fff" />
</g>
<g>
<polyline fill="none" stroke="#7f7fff" points="756.756,391.016 752.882,397.258 749.088,403.5 745.376,409.742 741.747,415.984 738.201,422.226 734.739,428.468 731.361,434.71 728.067,440.952 724.857,447.195 721.731,453.437 718.688,459.679 715.729,465.921 712.853,472.163 710.06,478.405 707.35,484.647 704.722,490.889 702.177,497.131 699.713,503.374 697.33,509.616 695.029,515.858 692.809,522.1 690.669,528.342 688.609,534.584 686.629,540.826 684.729,547.068 682.907,553.31 681.165,559.553 679.5,565.795 677.914,572.037 676.405,578.279 674.974,584.521 673.62,590.763 672.342,597.005 671.142,603.247 670.017,609.489 668.968,615.732 667.996,621.974 667.098,628.216 666.277,634.458 665.53,640.7 664.858,646.942 664.262,653.184 663.74,659.426 663.293,665.668 662.921,671.911 662.623,678.153 662.399,684.395 662.25,690.637 662.176,696.879 662.176,703.121 662.25,709.363 662.399,715.605 662.623,721.847 662.921,728.089 663.293,734.332 663.74,740.574 664.262,746.816 664.858,753.058 665.53,759.3 666.277,765.542 667.098,771.784 667.996,778.026 668.968,784.268 670.017,790.511 671.142,796.753 672.342,802.995 673.62,809.237 674.974,815.479 676.405,821.721 677.914,827.963 679.5,834.205 681.165,840.447 682.907,846.69 684.729,852.932 686.629,859.174 688.609,865.416 690.669,871.658 692.809,877.9 695.029,884.142 697.33,890.384 699.713,896.626 702.177,902.869 704.722,909.111 707.35,915.353 710.06,921.595 712.853,927.837 715.729,934.079 718.688,940.321 721.731,946.563 724.857,952.805 728.067,959.048 731.361,965.29 734.739,971.532 738.201,977.774 741.747,984.016 745.376,990.258 749.088,996.5 752.882,1002.742 756.756,1008.984 " />
<line x1="781.772" y1="391.016" x2="781.772" y2="396.152"  stroke="#7f7fff" />
<line x1="756.756" y1="391.016" x2="781.772" y2="391.016"  stroke="#7f7fff" />
<line x1="781.772" y1="1008.984" x2="781.772" y2="1003.848"  stroke="#7f7fff" />
<line x1="756.756" y1="1008.984" x2="781.772" y2="1008.984"  stroke="#7f7fff" />
<polyline fill="none" stroke="#7f7fff" points="781.772,396.152 779.421,402.291 777.125,408.429 774.883,414.567 772.696,420.706 770.561,426.844 768.479,432.982 766.45,439.121 764.474,445.259 762.548,451.397 760.675,457.536 758.852,463.674 757.08,469.812 755.358,475.951 753.687,482.089 752.065,488.227 750.492,494.366 748.969,500.504 747.495,506.642 746.069,512.781 744.691,518.919 743.362,525.057 742.08,531.196 740.846,537.334 739.66,543.472 738.521,549.611 737.429,555.749 736.383,561.887 735.385,568.026 734.433,574.164 733.527,580.302 732.667,586.441 731.854,592.579 731.086,598.717 730.365,604.856 729.688,610.994 729.058,617.132 728.473,623.271 727.933,629.409 727.439,635.547 726.989,641.686 726.585,647.824 726.226,653.962 725.912,660.101 725.643,666.239 725.419,672.377 725.24,678.516 725.105,684.654 725.016,690.792 724.971,696.931 724.971,703.069 725.016,709.208 725.105,715.346 725.24,721.484 725.419,727.623 725.643,733.761 725.912,739.899 726.226,746.038 726.585,752.176 726.989,758.314 727.439,764.453 727.933,770.591 728.473,776.729 729.058,782.868 729.688,789.006 730.365,795.144 731.086,801.283 731.854,807.421 732.667,813.559 733.527,819.698 734.433,825.836 735.385,831.974 736.383,838.113 737.429,844.251 738.521,850.389 739.66,856.528 740.846,862.666 742.08,868.804 743.362,874.943 744.691,881.081 746.069,887.219 747.495,893.358 748.969,899.496 750.492,905.634 752.065,911.773 753.687,917.911 755.358,924.049 757.08,930.188 758.852,936.326 760.675,942.464 762.548,948.603 764.474,954.741 766.45,960.879 768.479,967.018 770.561,973.156 772.696,979.294 774.883,985.433 777.125,991.571 779.421,997.709 781.772,1003.848 " />
</g>
<g>
<polyline fill="none" stroke="#7f7fff" points="850.758,413.04 845.514,418.837 840.46,424.634 835.588,430.432 830.888,436.229 826.354,442.026 821.979,447.823 817.758,453.62 813.684,459.417 809.752,465.215 805.958,471.012 802.297,476.809 798.766,482.606 795.36,488.403 792.077,494.2 788.912,499.998 785.864,505.795 782.928,511.592 780.103,517.389 777.386,523.186 774.774,528.983 772.267,534.781 769.861,540.578 767.555,546.375 765.347,552.172 763.235,557.969 761.218,563.766 759.295,569.564 757.464,575.361 755.724,581.158 754.074,586.955 752.512,592.752 751.038,598.55 749.651,604.347 748.35,610.144 747.133,615.941 746.001,621.738 744.953,627.535 743.987,633.333 743.104,639.13 742.303,644.927 741.583,650.724 740.944,656.521 740.386,662.318 739.909,668.116 739.511,673.913 739.193,679.71 738.955,685.507 738.796,691.304 738.716,697.101 738.716,702.899 738.796,708.696 738.955,714.493 739.193,720.29 739.511,726.087 739.909,731.884 740.386,737.682 740.944,743.479 741.583,749.276 742.303,755.073 743.104,760.87 743.987,766.667 744.953,772.465 746.001,778.262 747.133,784.059 748.35,789.856 749.651,795.653 751.038,801.45 752.512,807.248 754.074,813.045 755.724,818.842 757.464,824.639 759.295,830.436 761.218,836.234 763.235,842.031 765.347,847.828 767.555,853.625 769.861,859.422 772.267,865.219 774.774,871.017 777.386,876.814 780.103,882.611 782.928,888.408 785.864,894.205 788.912,900.002 792.077,905.8 795.36,911.597 798.766,917.394 802.297,923.191 805.958,928.988 809.752,934.785 813.684,940.583 817.758,946.38 821.979,952.177 826.354,957.974 830.888,963.771 835.588,969.568 840.46,975.366 845.514,981.163 850.758,986.96 " />
<line x1="878.483" y1="413.04" x2="878.483" y2="419.975"  stroke="#7f7fff" />
<line x1="850.758" y1="413.04" x2="878.483" y2="413.04"  stroke="#7f7fff" />
<line x1="878.483" y1="986.96" x2="878.483" y2="980.025"  stroke="#7f7fff" />
<line x1="850.758" y1="986.96" x2="878.483" y2="986.96"  stroke="#7f7fff" />
<polyline fill="none" stroke="#7f7fff" points="878.483,419.975 876.982,425.632 875.514,431.289 874.078,436.946 872.674,442.603 871.303,448.26 869.964,453.917 868.657,459.574 867.382,465.231 866.139,470.888 864.927,476.546 863.748,482.203 862.599,487.86 861.483,493.517 860.397,499.174 859.343,504.831 858.32,510.488 857.327,516.145 856.366,521.802 855.436,527.459 854.536,533.116 853.667,538.773 852.829,544.43 852.021,550.088 851.244,555.745 850.497,561.402 849.781,567.059 849.095,572.716 848.439,578.373 847.813,584.03 847.218,589.687 846.652,595.344 846.117,601.001 845.612,606.658 845.136,612.315 844.691,617.972 844.275,623.629 843.889,629.287 843.533,634.944 843.207,640.601 842.91,646.258 842.643,651.915 842.406,657.572 842.199,663.229 842.021,668.886 841.873,674.543 841.754,680.2 841.665,685.857 841.606,691.514 841.577,697.171 841.577,702.829 841.606,708.486 841.665,714.143 841.754,719.8 841.873,725.457 842.021,731.114 842.199,736.771 842.406,742.428 842.643,748.085 842.91,753.742 843.207,759.399 843.533,765.056 843.889,770.713 844.275,776.371 844.691,782.028 845.136,787.685 845.612,793.342 846.117,798.999 846.652,804.656 847.218,810.313 847.813,815.97 848.439,821.627 849.095,827.284 849.781,832.941 850.497,838.598 851.244,844.255 852.021,849.912 852.829,855.57 853.667,861.227 854.536,866.884 855.436,872.541 856.366,878.198 857.327,883.855 858.32,889.512 859.343,895.169 860.397,900.826 861.483,906.483 862.599,912.14 863.748,917.797 864.927,923.454 866.139,929.112 867.382,934.769 868.657,940.426 869.964,946.083 871.303,951.74 872.674,957.397 874.078,963.054 875.514,968.711 876.982,974.368 878.483,980.025 " />
</g>
<g>
<polyline fill="none" stroke="#7f7fff" points="898.122,442.641 896.252,447.841 894.424,453.04 892.639,458.239 890.896,463.438 889.196,468.637 887.536,473.836 885.919,479.036 884.342,484.235 882.806,489.434 881.311,494.633 879.857,499.832 878.442,505.031 877.067,510.231 875.732,515.43 874.436,520.629 873.18,525.828 871.962,531.027 870.784,536.226 869.644,541.426 868.542,546.625 867.479,551.824 866.453,557.023 865.466,562.222 864.517,567.421 863.605,572.62 862.731,577.82 861.894,583.019 861.094,588.218 860.332,593.417 859.607,598.616 858.918,603.815 858.266,609.015 857.652,614.214 857.073,619.413 856.531,624.612 856.026,629.811 855.557,635.01 855.125,640.21 854.728,645.409 854.368,650.608 854.044,655.807 853.757,661.006 853.505,666.205 853.289,671.405 853.109,676.604 852.966,681.803 852.858,687.002 852.786,692.201 852.75,697.4 852.75,702.6 852.786,707.799 852.858,712.998 852.966,718.197 853.109,723.396 853.289,728.595 853.505,733.795 853.757,738.994 854.044,744.193 854.368,749.392 854.728,754.591 855.125,759.79 855.557,764.99 856.026,770.189 856.531,775.388 857.073,780.587 857.652,785.786 858.266,790.985 858.918,796.185 859.607,801.384 860.332,806.583 861.094,811.782 861.894,816.981 862.731,822.18 863.605,827.38 864.517,832.579 865.466,837.778 866.453,842.977 867.479,848.176 868.542,853.375 869.644,858.574 870.784,863.774 871.962,868.973 873.18,874.172 874.436,879.371 875.732,884.57 877.067,889.769 878.442,894.969 879.857,900.168 881.311,905.367 882.806,910.566 884.342,915.765 885.919,920.964 887.536,926.164 889.196,931.363 890.896,936.562 892.639,941.761 894.424,946.96 896.252,952.159 898.122,957.359 " />
<line x1="985.198" y1="442.641" x2="985.198" y2="489.516"  stroke="#7f7fff" />
<line x1="898.122" y1="442.641" x2="985.198" y2="442.641"  stroke="#7f7fff" />
<line x1="985.198" y1="957.359" x2="985.198" y2="910.484"  stroke="#7f7fff" />
<line x1="898.122" y1="957.359" x2="985.198" y2="957.359"  stroke="#7f7fff" />
<polyline fill="none" stroke="#7f7fff" points="985.198,489.516 979.15,493.768 973.454,498.02 968.072,502.272 962.973,506.524 958.133,510.777 953.53,515.029 949.145,519.281 944.964,523.533 940.972,527.785 937.157,532.038 933.509,536.29 930.02,540.542 926.68,544.794 923.482,549.047 920.421,553.299 917.489,557.551 914.682,561.803 911.995,566.055 909.424,570.308 906.963,574.56 904.61,578.812 902.362,583.064 900.215,587.316 898.166,591.569 896.213,595.821 894.354,600.073 892.586,604.325 890.907,608.577 889.315,612.83 887.809,617.082 886.387,621.334 885.047,625.586 883.789,629.839 882.61,634.091 881.51,638.343 880.488,642.595 879.543,646.847 878.673,651.1 877.879,655.352 877.159,659.604 876.513,663.856 875.94,668.108 875.439,672.361 875.011,676.613 874.655,680.865 874.371,685.117 874.157,689.369 874.015,693.622 873.944,697.874 873.944,702.126 874.015,706.378 874.157,710.631 874.371,714.883 874.655,719.135 875.011,723.387 875.439,727.639 875.94,731.892 876.513,736.144 877.159,740.396 877.879,744.648 878.673,748.9 879.543,753.153 880.488,757.405 881.51,761.657 882.61,765.909 883.789,770.161 885.047,774.414 886.387,778.666 887.809,782.918 889.315,787.17 890.907,791.423 892.586,795.675 894.354,799.927 896.213,804.179 898.166,808.431 900.215,812.684 902.362,816.936 904.61,821.188 906.963,825.44 909.424,829.692 911.995,833.945 914.682,838.197 917.489,842.449 920.421,846.701 923.482,850.953 926.68,855.206 930.02,859.458 933.509,863.71 937.157,867.962 940.972,872.215 944.964,876.467 949.145,880.719 953.53,884.971 958.133,889.223 962.973,893.476 968.072,897.728 973.454,901.98 979.15,906.232 985.198,910.484 " />
</g>
<g>
<polyline fill="none" stroke="#7f7fff" points="1028.839,495.23 1030.564,499.367 1032.249,503.504 1033.893,507.641 1035.497,511.777 1037.061,515.914 1038.585,520.051 1040.07,524.188 1041.516,528.324 1042.924,532.461 1044.293,536.598 1045.625,540.735 1046.919,544.872 1048.176,549.008 1049.396,553.145 1050.58,557.282 1051.727,561.419 1052.837,565.555 1053.912,569.692 1054.951,573.829 1055.954,577.966 1056.922,582.102 1057.855,586.239 1058.754,590.376 1059.617,594.513 1060.446,598.649 1061.24,602.786 1062,606.923 1062.726,611.06 1063.418,615.196 1064.077,619.333 1064.701,623.47 1065.292,627.607 1065.85,631.743 1066.374,635.88 1066.865,640.017 1067.323,644.154 1067.748,648.291 1068.14,652.427 1068.498,656.564 1068.824,660.701 1069.118,664.838 1069.378,668.974 1069.606,673.111 1069.801,677.248 1069.964,681.385 1070.094,685.521 1070.192,689.658 1070.257,693.795 1070.289,697.932 1070.289,702.068 1070.257,706.205 1070.192,710.342 1070.094,714.479 1069.964,718.615 1069.801,722.752 1069.606,726.889 1069.378,731.026 1069.118,735.162 1068.824,739.299 1068.498,743.436 1068.14,747.573 1067.748,751.709 1067.323,755.846 1066.865,759.983 1066.374,764.12 1065.85,768.257 1065.292,772.393 1064.701,776.53 1064.077,780.667 1063.418,784.804 1062.726,788.94 1062,793.077 1061.24,797.214 1060.446,801.351 1059.617,805.487 1058.754,809.624 1057.855,813.761 1056.922,817.898 1055.954,822.034 1054.951,826.171 1053.912,830.308 1052.837,834.445 1051.727,838.581 1050.58,842.718 1049.396,846.855 1048.176,850.992 1046.919,855.128 1045.625,859.265 1044.293,863.402 1042.924,867.539 1041.516,871.676 1040.07,875.812 1038.585,879.949 1037.061,884.086 1035.497,888.223 1033.893,892.359 1032.249,896.496 1030.564,900.633 1028.839,904.77 " />
<line x1="1028.839" y1="474.105" x2="1028.839" y2="495.23"  stroke="#7f7fff" />
<line x1="1028.839" y1="474.105" x2="1175.646" y2="474.105"  stroke="#7f7fff" />
<line x1="1028.839" y1="925.895" x2="1028.839" y2="904.77"  stroke="#7f7fff" />
<line x1="1028.839" y1="925.895" x2="1175.646" y2="925.895"  stroke="#7f7fff" />
<polyline fill="none" stroke="#7f7fff" points="1175.646,474.105 1171.688,478.668 1167.869,483.232 1164.182,487.796 1160.623,492.359 1157.185,496.923 1153.865,501.486 1150.658,506.05 1147.561,510.613 1144.57,515.177 1141.681,519.74 1138.892,524.304 1136.2,528.867 1133.602,533.431 1131.096,537.994 1128.68,542.558 1126.351,547.121 1124.107,551.685 1121.947,556.249 1119.868,560.812 1117.87,565.376 1115.95,569.939 1114.108,574.503 1112.341,579.066 1110.649,583.63 1109.031,588.193 1107.484,592.757 1106.01,597.32 1104.605,601.884 1103.27,606.447 1102.003,611.011 1100.805,615.575 1099.673,620.138 1098.608,624.702 1097.609,629.265 1096.674,633.829 1095.805,638.392 1094.999,642.956 1094.258,647.519 1093.579,652.083 1092.963,656.646 1092.41,661.21 1091.919,665.773 1091.49,670.337 1091.123,674.901 1090.817,679.464 1090.573,684.028 1090.39,688.591 1090.267,693.155 1090.206,697.718 1090.206,702.282 1090.267,706.845 1090.39,711.409 1090.573,715.972 1090.817,720.536 1091.123,725.099 1091.49,729.663 1091.919,734.227 1092.41,738.79 1092.963,743.354 1093.579,747.917 1094.258,752.481 1094.999,757.044 1095.805,761.608 1096.674,766.171 1097.609,770.735 1098.608,775.298 1099.673,779.862 1100.805,784.425 1102.003,788.989 1103.27,793.553 1104.605,798.116 1106.01,802.68 1107.484,807.243 1109.031,811.807 1110.649,816.37 1112.341,820.934 1114.108,825.497 1115.95,830.061 1117.87,834.624 1119.868,839.188 1121.947,843.751 1124.107,848.315 1126.351,852.879 1128.68,857.442 1131.096,862.006 1133.602,866.569 1136.2,871.133 1138.892,875.696 1141.681,880.26 1144.57,884.823 1147.561,889.387 1150.658,893.95 1153.865,898.514 1157.185,903.077 1160.623,907.641 1164.182,912.204 1167.869,916.768 1171.688,921.332 1175.646,925.895 " />
<line x1="1175.646" y1="474.105" x2="1206.781" y2="474.105"  stroke="#7f7fff" />
<line x1="1175.646" y1="925.895" x2="1206.781" y2="925.895"  stroke="#7f7fff" />
<polyline fill="none" stroke="#7f7fff" points="1206.781,474.105 1207.674,478.668 1208.547,483.232 1209.402,487.796 1210.239,492.359 1211.056,496.923 1211.855,501.486 1212.635,506.05 1213.396,510.613 1214.138,515.177 1214.863,519.74 1215.568,524.304 1216.255,528.867 1216.924,533.431 1217.574,537.994 1218.206,542.558 1218.819,547.121 1219.414,551.685 1219.991,556.249 1220.549,560.812 1221.089,565.376 1221.611,569.939 1222.115,574.503 1222.6,579.066 1223.068,583.63 1223.517,588.193 1223.948,592.757 1224.361,597.32 1224.755,601.884 1225.132,606.447 1225.491,611.011 1225.831,615.575 1226.154,620.138 1226.459,624.702 1226.745,629.265 1227.014,633.829 1227.265,638.392 1227.497,642.956 1227.712,647.519 1227.909,652.083 1228.088,656.646 1228.249,661.21 1228.392,665.773 1228.517,670.337 1228.625,674.901 1228.714,679.464 1228.786,684.028 1228.839,688.591 1228.875,693.155 1228.893,697.718 1228.893,702.282 1228.875,706.845 1228.839,711.409 1228.786,715.972 1228.714,720.536 1228.625,725.099 1228.517,729.663 1228.392,734.227 1228.249,738.79 1228.088,743.354 1227.909,747.917 1227.712,752.481 1227.497,757.044 1227.265,761.608 1227.014,766.171 1226.745,770.735 1226.459,775.298 1226.154,779.862 1225.831,784.425 1225.491,788.989 1225.132,793.553 1224.755,798.116 1224.361,802.68 1223.948,807.243 1223.517,811.807 1223.068,816.37 1222.6,820.934 1222.115,825.497 1221.611,830.061 1221.089,834.624 1220.549,839.188 1219.991,843.751 1219.414,848.315 1218.819,852.879 1218.206,857.442 1217.574,862.006 1216.924,866.569 1216.255,871.133 1215.568,875.696 1214.863,880.26 1214.138,884.823 1213.396,889.387 1212.635,893.95 1211.855,898.514 1211.056,903.077 1210.239,907.641 1209.402,912.204 1208.547,916.768 1207.674,921.332 1206.781,925.895 " />
</g>
<g>
<polyline fill="none" stroke="#7f7fff" points="1260.366,466.014 1259.252,470.741 1258.162,475.468 1257.095,480.195 1256.053,484.922 1255.034,489.649 1254.039,494.376 1253.067,499.103 1252.119,503.83 1251.194,508.557 1250.293,513.284 1249.415,518.011 1248.56,522.738 1247.729,527.465 1246.921,532.192 1246.135,536.919 1245.373,541.646 1244.634,546.373 1243.917,551.1 1243.224,555.827 1242.553,560.554 1241.905,565.281 1241.28,570.008 1240.678,574.735 1240.098,579.462 1239.541,584.189 1239.006,588.916 1238.494,593.643 1238.005,598.37 1237.538,603.097 1237.093,607.824 1236.671,612.551 1236.271,617.278 1235.894,622.005 1235.538,626.732 1235.206,631.459 1234.895,636.186 1234.607,640.913 1234.341,645.64 1234.097,650.367 1233.875,655.094 1233.676,659.821 1233.499,664.548 1233.344,669.275 1233.211,674.002 1233.1,678.729 1233.012,683.456 1232.945,688.183 1232.901,692.91 1232.879,697.637 1232.879,702.363 1232.901,707.09 1232.945,711.817 1233.012,716.544 1233.1,721.271 1233.211,725.998 1233.344,730.725 1233.499,735.452 1233.676,740.179 1233.875,744.906 1234.097,749.633 1234.341,754.36 1234.607,759.087 1234.895,763.814 1235.206,768.541 1235.538,773.268 1235.894,777.995 1236.271,782.722 1236.671,787.449 1237.093,792.176 1237.538,796.903 1238.005,801.63 1238.494,806.357 1239.006,811.084 1239.541,815.811 1240.098,820.538 1240.678,825.265 1241.28,829.992 1241.905,834.719 1242.553,839.446 1243.224,844.173 1243.917,848.9 1244.634,853.627 1245.373,858.354 1246.135,863.081 1246.921,867.808 1247.729,872.535 1248.56,877.262 1249.415,881.989 1250.293,886.716 1251.194,891.443 1252.119,896.17 1253.067,900.897 1254.039,905.624 1255.034,910.351 1256.053,915.078 1257.095,919.805 1258.162,924.532 1259.252,929.259 1260.366,933.986 " />
<line x1="1260.366" y1="466.014" x2="1280.613" y2="466.014"  stroke="#7f7fff" />
<line x1="1260.366" y1="933.986" x2="1280.613" y2="933.986"  stroke="#7f7fff" />
<polyline fill="none" stroke="#7f7fff" points="1280.613,466.014 1281.301,470.741 1281.975,475.468 1282.634,480.195 1283.279,484.922 1283.91,489.649 1284.527,494.376 1285.129,499.103 1285.717,503.83 1286.291,508.557 1286.851,513.284 1287.397,518.011 1287.928,522.738 1288.445,527.465 1288.949,532.192 1289.438,536.919 1289.912,541.646 1290.373,546.373 1290.82,551.1 1291.253,555.827 1291.671,560.554 1292.076,565.281 1292.466,570.008 1292.842,574.735 1293.205,579.462 1293.553,584.189 1293.888,588.916 1294.208,593.643 1294.514,598.37 1294.807,603.097 1295.085,607.824 1295.35,612.551 1295.6,617.278 1295.837,622.005 1296.059,626.732 1296.268,631.459 1296.463,636.186 1296.643,640.913 1296.81,645.64 1296.963,650.367 1297.102,655.094 1297.227,659.821 1297.339,664.548 1297.436,669.275 1297.519,674.002 1297.589,678.729 1297.644,683.456 1297.686,688.183 1297.714,692.91 1297.728,697.637 1297.728,702.363 1297.714,707.09 1297.686,711.817 1297.644,716.544 1297.589,721.271 1297.519,725.998 1297.436,730.725 1297.339,735.452 1297.227,740.179 1297.102,744.906 1296.963,749.633 1296.81,754.36 1296.643,759.087 1296.463,763.814 1296.268,768.541 1296.059,773.268 1295.837,777.995 1295.6,782.722 1295.35,787.449 1295.085,792.176 1294.807,796.903 1294.514,801.63 1294.208,806.357 1293.888,811.084 1293.553,815.811 1293.205,820.538 1292.842,825.265 1292.466,829.992 1292.076,834.719 1291.671,839.446 1291.253,844.173 1290.82,848.9 1290.373,853.627 1289.912,858.354 1289.438,863.081 1288.949,867.808 1288.445,872.535 1287.928,877.262 1287.397,881.989 1286.851,886.716 1286.291,891.443 1285.717,896.17 1285.129,900.897 1284.527,905.624 1283.91,910.351 1283.279,915.078 1282.634,919.805 1281.975,924.532 1281.301,929.259 1280.613,933.986 " />
</g>
<g>
<polyline fill="none" stroke="#7f7fff" points="1331.392,499.789 1330.179,503.834 1328.993,507.879 1327.834,511.923 1326.702,515.968 1325.596,520.013 1324.516,524.057 1323.463,528.102 1322.436,532.147 1321.434,536.191 1320.459,540.236 1319.509,544.281 1318.585,548.325 1317.687,552.37 1316.814,556.415 1315.966,560.459 1315.143,564.504 1314.346,568.549 1313.574,572.593 1312.826,576.638 1312.104,580.683 1311.406,584.727 1310.733,588.772 1310.085,592.817 1309.462,596.861 1308.862,600.906 1308.288,604.951 1307.737,608.995 1307.212,613.04 1306.71,617.084 1306.232,621.129 1305.779,625.174 1305.35,629.218 1304.945,633.263 1304.564,637.308 1304.207,641.352 1303.874,645.397 1303.565,649.442 1303.28,653.486 1303.019,657.531 1302.781,661.576 1302.567,665.62 1302.378,669.665 1302.212,673.71 1302.069,677.754 1301.951,681.799 1301.856,685.844 1301.785,689.888 1301.737,693.933 1301.714,697.978 1301.714,702.022 1301.737,706.067 1301.785,710.112 1301.856,714.156 1301.951,718.201 1302.069,722.246 1302.212,726.29 1302.378,730.335 1302.567,734.38 1302.781,738.424 1303.019,742.469 1303.28,746.514 1303.565,750.558 1303.874,754.603 1304.207,758.648 1304.564,762.692 1304.945,766.737 1305.35,770.782 1305.779,774.826 1306.232,778.871 1306.71,782.916 1307.212,786.96 1307.737,791.005 1308.288,795.049 1308.862,799.094 1309.462,803.139 1310.085,807.183 1310.733,811.228 1311.406,815.273 1312.104,819.317 1312.826,823.362 1313.574,827.407 1314.346,831.451 1315.143,835.496 1315.966,839.541 1316.814,843.585 1317.687,847.63 1318.585,851.675 1319.509,855.719 1320.459,859.764 1321.434,863.809 1322.436,867.853 1323.463,871.898 1324.516,875.943 1325.596,879.987 1326.702,884.032 1327.834,888.077 1328.993,892.121 1330.179,896.166 1331.392,900.211 " />
<line x1="1331.392" y1="499.789" x2="1403.222" y2="499.789"  stroke="#7f7fff" />
<line x1="1331.392" y1="900.211" x2="1403.222" y2="900.211"  stroke="#7f7fff" />
<polyline fill="none" stroke="#7f7fff" points="1403.222,499.789 1404.034,503.834 1404.828,507.879 1405.606,511.923 1406.366,515.968 1407.11,520.013 1407.836,524.057 1408.545,528.102 1409.238,532.147 1409.913,536.191 1410.571,540.236 1411.213,544.281 1411.838,548.325 1412.445,552.37 1413.037,556.415 1413.611,560.459 1414.169,564.504 1414.709,568.549 1415.234,572.593 1415.741,576.638 1416.232,580.683 1416.707,584.727 1417.164,588.772 1417.606,592.817 1418.03,596.861 1418.439,600.906 1418.83,604.951 1419.206,608.995 1419.565,613.04 1419.907,617.084 1420.233,621.129 1420.543,625.174 1420.836,629.218 1421.113,633.263 1421.373,637.308 1421.617,641.352 1421.845,645.397 1422.057,649.442 1422.252,653.486 1422.431,657.531 1422.593,661.576 1422.74,665.62 1422.87,669.665 1422.983,673.71 1423.081,677.754 1423.162,681.799 1423.227,685.844 1423.276,689.888 1423.308,693.933 1423.325,697.978 1423.325,702.022 1423.308,706.067 1423.276,710.112 1423.227,714.156 1423.162,718.201 1423.081,722.246 1422.983,726.29 1422.87,730.335 1422.74,734.38 1422.593,738.424 1422.431,742.469 1422.252,746.514 1422.057,750.558 1421.845,754.603 1421.617,758.648 1421.373,762.692 1421.113,766.737 1420.836,770.782 1420.543,774.826 1420.233,778.871 1419.907,782.916 1419.565,786.96 1419.206,791.005 1418.83,795.049 1418.439,799.094 1418.03,803.139 1417.606,807.183 1417.164,811.228 1416.707,815.273 1416.232,819.317 1415.741,823.362 1415.234,827.407 1414.709,831.451 1414.169,835.496 1413.611,839.541 1413.037,843.585 1412.445,847.63 1411.838,851.675 1411.213,855.719 1410.571,859.764 1409.913,863.809 1409.238,867.853 1408.545,871.898 1407.836,875.943 1407.11,879.987 1406.366,884.032 1405.606,888.077 1404.828,892.121 1404.034,896.166 1403.222,900.211 " />
<line x1="1465.868" y1="499.789" x2="1465.868" y2="538.316"  stroke="#7f7fff" />
<line x1="1403.222" y1="499.789" x2="1465.868" y2="499.789"  stroke="#7f7fff" />
<line x1="1465.868" y1="900.211" x2="1465.868" y2="861.684"  stroke="#7f7fff" />
<line x1="1403.222" y1="900.211" x2="1465.868" y2="900.211"  stroke="#7f7fff" />
<polyline fill="none" stroke="#7f7fff" points="1465.868,538.316 1464.945,541.582 1464.043,544.849 1463.16,548.115 1462.298,551.381 1461.456,554.648 1460.634,557.914 1459.832,561.181 1459.049,564.447 1458.286,567.713 1457.543,570.98 1456.819,574.246 1456.114,577.512 1455.429,580.779 1454.764,584.045 1454.117,587.311 1453.49,590.578 1452.881,593.844 1452.292,597.11 1451.722,600.377 1451.171,603.643 1450.638,606.909 1450.124,610.176 1449.63,613.442 1449.153,616.708 1448.696,619.975 1448.257,623.241 1447.837,626.507 1447.435,629.774 1447.052,633.04 1446.688,636.306 1446.341,639.573 1446.013,642.839 1445.704,646.105 1445.413,649.372 1445.14,652.638 1444.886,655.904 1444.65,659.171 1444.432,662.437 1444.232,665.703 1444.05,668.97 1443.887,672.236 1443.742,675.502 1443.615,678.769 1443.506,682.035 1443.416,685.301 1443.343,688.568 1443.289,691.834 1443.253,695.1 1443.234,698.367 1443.234,701.633 1443.253,704.9 1443.289,708.166 1443.343,711.432 1443.416,714.699 1443.506,717.965 1443.615,721.231 1443.742,724.498 1443.887,727.764 1444.05,731.03 1444.232,734.297 1444.432,737.563 1444.65,740.829 1444.886,744.096 1445.14,747.362 1445.413,750.628 1445.704,753.895 1446.013,757.161 1446.341,760.427 1446.688,763.694 1447.052,766.96 1447.435,770.226 1447.837,773.493 1448.257,776.759 1448.696,780.025 1449.153,783.292 1449.63,786.558 1450.124,789.824 1450.638,793.091 1451.171,796.357 1451.722,799.623 1452.292,802.89 1452.881,806.156 1453.49,809.422 1454.117,812.689 1454.764,815.955 1455.429,819.221 1456.114,822.488 1456.819,825.754 1457.543,829.02 1458.286,832.287 1459.049,835.553 1459.832,838.819 1460.634,842.086 1461.456,845.352 1462.298,848.619 1463.16,851.885 1464.043,855.151 1464.945,858.418 1465.868,861.684 " />
</g>
<g>
<polyline fill="none" stroke="#7f7fff" points="1468.633,519.695 1468.333,523.337 1468.007,526.98 1467.667,530.622 1467.32,534.265 1466.972,537.908 1466.627,541.55 1466.288,545.193 1465.955,548.835 1465.632,552.478 1465.319,556.12 1465.017,559.763 1464.727,563.405 1464.449,567.048 1464.185,570.69 1463.935,574.333 1463.699,577.975 1463.477,581.618 1463.269,585.26 1463.076,588.903 1462.897,592.545 1462.733,596.188 1462.581,599.83 1462.443,603.473 1462.318,607.116 1462.204,610.758 1462.102,614.401 1462.011,618.043 1461.93,621.686 1461.858,625.328 1461.795,628.971 1461.739,632.613 1461.691,636.256 1461.65,639.898 1461.615,643.541 1461.585,647.183 1461.56,650.826 1461.539,654.468 1461.523,658.111 1461.509,661.753 1461.498,665.396 1461.49,669.039 1461.483,672.681 1461.478,676.324 1461.475,679.966 1461.472,683.609 1461.47,687.251 1461.469,690.894 1461.468,694.536 1461.468,698.179 1461.468,701.821 1461.468,705.464 1461.469,709.106 1461.47,712.749 1461.472,716.391 1461.475,720.034 1461.478,723.676 1461.483,727.319 1461.49,730.961 1461.498,734.604 1461.509,738.247 1461.523,741.889 1461.539,745.532 1461.56,749.174 1461.585,752.817 1461.615,756.459 1461.65,760.102 1461.691,763.744 1461.739,767.387 1461.795,771.029 1461.858,774.672 1461.93,778.314 1462.011,781.957 1462.102,785.599 1462.204,789.242 1462.318,792.884 1462.443,796.527 1462.581,800.17 1462.733,803.812 1462.897,807.455 1463.076,811.097 1463.269,814.74 1463.477,818.382 1463.699,822.025 1463.935,825.667 1464.185,829.31 1464.449,832.952 1464.727,836.595 1465.017,840.237 1465.319,843.88 1465.632,847.522 1465.955,851.165 1466.288,854.807 1466.627,858.45 1466.972,862.092 1467.32,865.735 1467.667,869.378 1468.007,873.02 1468.333,876.663 1468.633,880.305 " />
<line x1="1516.203" y1="519.695" x2="1516.203" y2="534.592"  stroke="#7f7fff" />
<line x1="1468.633" y1="519.695" x2="1516.203" y2="519.695"  stroke="#7f7fff" />
<line x1="1516.203" y1="880.305" x2="1516.203" y2="865.408"  stroke="#7f7fff" />
<line x1="1468.633" y1="880.305" x2="1516.203" y2="880.305"  stroke="#7f7fff" />
<polyline fill="none" stroke="#7f7fff" points="1516.203,534.592 1515.16,537.933 1514.151,541.275 1513.177,544.617 1512.238,547.958 1511.334,551.3 1510.466,554.641 1509.632,557.983 1508.834,561.324 1508.07,564.666 1507.341,568.008 1506.646,571.349 1505.985,574.691 1505.356,578.032 1504.759,581.374 1504.193,584.716 1503.658,588.057 1503.153,591.399 1502.676,594.74 1502.227,598.082 1501.804,601.423 1501.408,604.765 1501.036,608.107 1500.688,611.448 1500.363,614.79 1500.059,618.131 1499.777,621.473 1499.514,624.814 1499.27,628.156 1499.045,631.498 1498.836,634.839 1498.643,638.181 1498.466,641.522 1498.304,644.864 1498.155,648.206 1498.019,651.547 1497.895,654.889 1497.784,658.23 1497.683,661.572 1497.592,664.913 1497.512,668.255 1497.441,671.597 1497.379,674.938 1497.326,678.28 1497.281,681.621 1497.243,684.963 1497.214,688.304 1497.192,691.646 1497.178,694.988 1497.17,698.329 1497.17,701.671 1497.178,705.012 1497.192,708.354 1497.214,711.696 1497.243,715.037 1497.281,718.379 1497.326,721.72 1497.379,725.062 1497.441,728.403 1497.512,731.745 1497.592,735.087 1497.683,738.428 1497.784,741.77 1497.895,745.111 1498.019,748.453 1498.155,751.794 1498.304,755.136 1498.466,758.478 1498.643,761.819 1498.836,765.161 1499.045,768.502 1499.27,771.844 1499.514,775.186 1499.777,778.527 1500.059,781.869 1500.363,785.21 1500.688,788.552 1501.036,791.893 1501.408,795.235 1501.804,798.577 1502.227,801.918 1502.676,805.26 1503.153,808.601 1503.658,811.943 1504.193,815.284 1504.759,818.626 1505.356,821.968 1505.985,825.309 1506.646,828.651 1507.341,831.992 1508.07,835.334 1508.834,838.676 1509.632,842.017 1510.466,845.359 1511.334,848.7 1512.238,852.042 1513.177,855.383 1514.151,858.725 1515.16,862.067 1516.203,865.408 " />
</g>
</g>
<g><title>element</title>
<polyline fill="none" stroke="#7f7fff" points="1737.833,144.444 1737.833,155.668 1737.833,166.891 1737.833,178.114 1737.833,189.338 1737.833,200.561 1737.833,211.785 1737.833,223.008 1737.833,234.231 1737.833,245.455 1737.833,256.678 1737.833,267.901 1737.833,279.125 1737.833,290.348 1737.833,301.571 1737.833,312.795 1737.833,324.018 1737.833,335.241 1737.833,346.465 1737.833,357.688 1737.833,368.911 1737.833,380.135 1737.833,391.358 1737.833,402.581 1737.833,413.805 1737.833,425.028 1737.833,436.251 1737.833,447.475 1737.833,458.698 1737.833,469.921 1737.833,481.145 1737.833,492.368 1737.833,503.591 1737.833,514.815 1737.833,526.038 1737.833,537.262 1737.833,548.485 1737.833,559.708 1737.833,570.932 1737.833,582.155 1737.833,593.378 1737.833,604.602 1737.833,615.825 1737.833,627.048 1737.833,638.272 1737.833,649.495 1737.833,660.718 1737.833,671.942 1737.833,683.165 1737.833,694.388 1737.833,705.612 1737.833,716.835 1737.833,728.058 1737.833,739.282 1737.833,750.505 1737.833,761.728 1737.833,772.952 1737.833,784.175 1737.833,795.398 1737.833,806.622 1737.833,817.845 1737.833,829.068 1737.833,840.292 1737.833,851.515 1737.833,862.738 1737.833,873.962 1737.833,885.185 1737.833,896.409 1737.833,907.632 1737.833,918.855 1737.833,930.079 1737.833,941.302 1737.833,952.525 1737.833,963.749 1737.833,974.972 1737.833,986.195 1737.833,997.419 1737.833,1008.642 1737.833,1019.865 1737.833,1031.089 1737.833,1042.312 1737.833,1053.535 1737.833,1064.759 1737.833,1075.982 1737.833,1087.205 1737.833,1098.429 1737.833,1109.652 1737.833,1120.875 1737.833,1132.099 1737.833,1143.322 1737.833,1154.545 1737.833,1165.769 1737.833,1176.992 1737.833,1188.215 1737.833,1199.439 1737.833,1210.662 1737.833,1221.886 1737.833,1233.109 1737.833,1244.332 1737.833,1255.556 " />
</g>
</svg>
