<?xml version="1.0" standalone="no"?>
<svg width="2400px" height="1400px" version="1.1" xmlns="http://www.w3.org/2000/svg" xmlns:xlink="http://www.w3.org/1999/xlink">
<rect x="0" y="0" width="2400" height="1400"  fill="#ffffff" />
<defs>
<g id="dot">
<line x1="1" y1="1" x2="0" y2="0"  />
</g>
<g id="cross">
<line x1="-3" y1="0" x2="3" y2="0"  />
<line x1="0" y1="-3" x2="0" y2="3"  />
</g>
<g id="square">
<line x1="-3" y1="-3" x2="-3" y2="3"  />
<line x1="-3" y1="3" x2="3" y2="3"  />
<line x1="3" y1="3" x2="3" y2="-3"  />
<line x1="3" y1="-3" x2="-3" y2="-3"  />
</g>
<g id="round">
<ellipse cx="0" cy="0" rx="3" ry="3"  fill="none" /></g>
<g id="triangle">
<line x1="0" y1="-3" x2="-3" y2="3"  />
<line x1="-3" y1="3" x2="3" y2="3"  />
<line x1="0" y1="-3" x2="3" y2="3"  />
</g>
</defs>
<line x1="627.366" y1="700" x2="1772.634" y2="700"  stroke="#7f7f7f" />
<g><title>element</title>
<g>
<line x1="959.516" y1="515.156" x2="959.516" y2="330.311"  stroke="#7f7fff" />
<line x1="959.516" y1="884.844" x2="959.516" y2="1069.689"  stroke="#7f7fff" />
</g>
<g>
<polyline fill="none" stroke="#7f7fff" points="710.82,404.99 707.217,410.95 703.714,416.909 700.308,422.869 696.997,428.829 693.779,434.789 690.652,440.749 687.614,446.708 684.664,452.668 681.799,458.628 679.019,464.588 676.322,470.548 673.708,476.507 671.174,482.467 668.719,488.427 666.343,494.387 664.045,500.347 661.823,506.306 659.676,512.266 657.605,518.226 655.607,524.186 653.683,530.146 651.831,536.105 650.051,542.065 648.342,548.025 646.703,553.985 645.134,559.945 643.634,565.904 642.203,571.864 640.84,577.824 639.545,583.784 638.317,589.744 637.157,595.703 636.062,601.663 635.034,607.623 634.071,613.583 633.174,619.543 632.343,625.502 631.576,631.462 630.874,637.422 630.236,643.382 629.663,649.342 629.153,655.301 628.708,661.261 628.327,667.221 628.009,673.181 627.755,679.141 627.565,685.1 627.438,691.06 627.374,697.02 627.374,702.98 627.438,708.94 627.565,714.9 627.755,720.859 628.009,726.819 628.327,732.779 628.708,738.739 629.153,744.699 629.663,750.658 630.236,756.618 630.874,762.578 631.576,768.538 632.343,774.498 633.174,780.457 634.071,786.417 635.034,792.377 636.062,798.337 637.157,804.297 638.317,810.256 639.545,816.216 640.84,822.176 642.203,828.136 643.634,834.096 645.134,840.055 646.703,846.015 648.342,851.975 650.051,857.935 651.831,863.895 653.683,869.854 655.607,875.814 657.605,881.774 659.676,887.734 661.823,893.694 664.045,899.653 666.343,905.613 668.719,911.573 671.174,917.533 673.708,923.493 676.322,929.452 679.019,935.412 681.799,941.372 684.664,947.332 687.614,953.292 690.652,959.251 693.779,965.211 696.997,971.171 700.308,977.131 703.714,983.091 707.217,989.05 710.82,995.01 " />
<line x1="710.82" y1="404.99" x2="734.879" y2="404.99"  stroke="#7f7fff" />
<line x1="710.82" y1="995.01" x2="734.879" y2="995.01"  stroke="#7f7fff" />
<polyline fill="none" stroke="#7f7fff" points="734.879,404.99 733.917,410.95 732.975,416.909 732.053,422.869 731.15,428.829 730.268,434.789 729.407,440.749 728.565,446.708 727.742,452.668 726.94,458.628 726.158,464.588 725.396,470.548 724.653,476.507 723.931,482.467 723.228,488.427 722.545,494.387 721.882,500.347 721.238,506.306 720.614,512.266 720.01,518.226 719.426,524.186 718.861,530.146 718.316,536.105 717.79,542.065 717.284,548.025 716.798,553.985 716.331,559.945 715.884,565.904 715.456,571.864 715.048,577.824 714.66,583.784 714.291,589.744 713.941,595.703 713.611,601.663 713.3,607.623 713.009,613.583 712.737,619.543 712.485,625.502 712.252,631.462 712.039,637.422 711.845,643.382 711.67,649.342 711.515,655.301 711.379,661.261 711.263,667.221 711.166,673.181 711.088,679.141 711.03,685.1 710.991,691.06 710.972,697.02 710.972,702.98 710.991,708.94 711.03,714.9 711.088,720.859 711.166,726.819 711.263,732.779 711.379,738.739 711.515,744.699 711.67,750.658 711.845,756.618 712.039,762.578 712.252,768.538 712.485,774.498 712.737,780.457 713.009,786.417 713.3,792.377 713.611,798.337 713.941,804.297 714.291,810.256 714.66,816.216 715.048,822.176 715.456,828.136 715.884,834.096 716.331,840.055 716.798,846.015 717.284,851.975 717.79,857.935 718.316,863.895 718.861,869.854 719.426,875.814 720.01,881.774 720.614,887.734 721.238,893.694 721.882,899.653 722.545,905.613 723.228,911.573 723.931,917.533 724.653,923.493 725.396,929.452 726.158,935.412 726.94,941.372 727.742,947.332 728.565,953.292 729.407,959.251 730.268,965.211 731.15,971.171 732.053,977.131 732.975,983.091 733.917,989.05 734.879,995.01 " />
</g>
<g>
<polyline fill="none" stroke="#7f7fff" points="820.01,441.062 814.891,446.293 809.971,451.524 805.239,456.755 800.686,461.987 796.302,467.218 792.08,472.449 788.014,477.68 784.096,482.911 780.321,488.142 776.683,493.373 773.178,498.604 769.801,503.835 766.548,509.066 763.415,514.297 760.398,519.528 757.495,524.759 754.701,529.99 752.016,535.221 749.435,540.452 746.956,545.684 744.578,550.915 742.297,556.146 740.112,561.377 738.022,566.608 736.024,571.839 734.116,577.07 732.298,582.301 730.568,587.532 728.925,592.763 727.367,597.994 725.893,603.225 724.502,608.456 723.194,613.687 721.967,618.918 720.82,624.15 719.754,629.381 718.766,634.612 717.856,639.843 717.025,645.074 716.271,650.305 715.593,655.536 714.992,660.767 714.466,665.998 714.017,671.229 713.643,676.46 713.343,681.691 713.119,686.922 712.97,692.153 712.895,697.384 712.895,702.616 712.97,707.847 713.119,713.078 713.343,718.309 713.643,723.54 714.017,728.771 714.466,734.002 714.992,739.233 715.593,744.464 716.271,749.695 717.025,754.926 717.856,760.157 718.766,765.388 719.754,770.619 720.82,775.85 721.967,781.082 723.194,786.313 724.502,791.544 725.893,796.775 727.367,802.006 728.925,807.237 730.568,812.468 732.298,817.699 734.116,822.93 736.024,828.161 738.022,833.392 740.112,838.623 742.297,843.854 744.578,849.085 746.956,854.316 749.435,859.548 752.016,864.779 754.701,870.01 757.495,875.241 760.398,880.472 763.415,885.703 766.548,890.934 769.801,896.165 773.178,901.396 776.683,906.627 780.321,911.858 784.096,917.089 788.014,922.32 792.08,927.551 796.302,932.782 800.686,938.013 805.239,943.245 809.971,948.476 814.891,953.707 820.01,958.938 " />
<line x1="820.01" y1="441.062" x2="841.019" y2="441.062"  stroke="#7f7fff" />
<line x1="820.01" y1="958.938" x2="841.019" y2="958.938"  stroke="#7f7fff" />
<polyline fill="none" stroke="#7f7fff" points="841.019,441.062 840.402,446.293 839.797,451.524 839.205,456.755 838.626,461.987 838.059,467.218 837.505,472.449 836.964,477.68 836.436,482.911 835.92,488.142 835.417,493.373 834.927,498.604 834.449,503.835 833.984,509.066 833.532,514.297 833.092,519.528 832.665,524.759 832.251,529.99 831.849,535.221 831.46,540.452 831.083,545.684 830.72,550.915 830.368,556.146 830.03,561.377 829.704,566.608 829.39,571.839 829.089,577.07 828.801,582.301 828.525,587.532 828.262,592.763 828.011,597.994 827.773,603.225 827.548,608.456 827.335,613.687 827.134,618.918 826.946,624.15 826.771,629.381 826.608,634.612 826.458,639.843 826.32,645.074 826.195,650.305 826.082,655.536 825.982,660.767 825.895,665.998 825.819,671.229 825.757,676.46 825.707,681.691 825.669,686.922 825.644,692.153 825.632,697.384 825.632,702.616 825.644,707.847 825.669,713.078 825.707,718.309 825.757,723.54 825.819,728.771 825.895,734.002 825.982,739.233 826.082,744.464 826.195,749.695 826.32,754.926 826.458,760.157 826.608,765.388 826.771,770.619 826.946,775.85 827.134,781.082 827.335,786.313 827.548,791.544 827.773,796.775 828.011,802.006 828.262,807.237 828.525,812.468 828.801,817.699 829.089,822.93 829.39,828.161 829.704,833.392 830.03,838.623 830.368,843.854 830.72,849.085 831.083,854.316 831.46,859.548 831.849,864.779 832.251,870.01 832.665,875.241 833.092,880.472 833.532,885.703 833.984,890.934 834.449,896.165 834.927,901.396 835.417,906.627 835.92,911.858 836.436,917.089 836.964,922.32 837.505,927.551 838.059,932.782 838.626,938.013 839.205,943.245 839.797,948.476 840.402,953.707 841.019,958.938 " />
<line x1="944.287" y1="441.062" x2="944.287" y2="512.757"  stroke="#7f7fff" />
<line x1="841.019" y1="441.062" x2="944.287" y2="441.062"  stroke="#7f7fff" />
<line x1="944.287" y1="958.938" x2="944.287" y2="887.243"  stroke="#7f7fff" />
<line x1="841.019" y1="958.938" x2="944.287" y2="958.938"  stroke="#7f7fff" />
<polyline fill="none" stroke="#7f7fff" points="944.287,512.757 938.866,516.54 933.763,520.323 928.944,524.105 924.38,527.888 920.05,531.671 915.933,535.453 912.012,539.236 908.274,543.019 904.706,546.801 901.297,550.584 898.038,554.367 894.921,558.149 891.937,561.932 889.082,565.715 886.348,569.497 883.731,573.28 881.225,577.063 878.826,580.845 876.53,584.628 874.334,588.411 872.234,592.194 870.228,595.976 868.312,599.759 866.484,603.542 864.741,607.324 863.082,611.107 861.505,614.89 860.007,618.672 858.587,622.455 857.243,626.238 855.974,630.02 854.779,633.803 853.657,637.586 852.606,641.368 851.625,645.151 850.713,648.934 849.87,652.716 849.094,656.499 848.386,660.282 847.744,664.065 847.167,667.847 846.656,671.63 846.21,675.413 845.828,679.195 845.511,682.978 845.257,686.761 845.067,690.543 844.94,694.326 844.877,698.109 844.877,701.891 844.94,705.674 845.067,709.457 845.257,713.239 845.511,717.022 845.828,720.805 846.21,724.587 846.656,728.37 847.167,732.153 847.744,735.935 848.386,739.718 849.094,743.501 849.87,747.284 850.713,751.066 851.625,754.849 852.606,758.632 853.657,762.414 854.779,766.197 855.974,769.98 857.243,773.762 858.587,777.545 860.007,781.328 861.505,785.11 863.082,788.893 864.741,792.676 866.484,796.458 868.312,800.241 870.228,804.024 872.234,807.806 874.334,811.589 876.53,815.372 878.826,819.155 881.225,822.937 883.731,826.72 886.348,830.503 889.082,834.285 891.937,838.068 894.921,841.851 898.038,845.633 901.297,849.416 904.706,853.199 908.274,856.981 912.012,860.764 915.933,864.547 920.05,868.329 924.38,872.112 928.944,875.895 933.763,879.677 938.866,883.46 944.287,887.243 " />
</g>
<g>
<polyline fill="none" stroke="#7f7fff" points="992.376,518.416 996.429,522.084 1000.306,525.752 1004.017,529.421 1007.573,533.089 1010.984,536.757 1014.257,540.426 1017.4,544.094 1020.42,547.763 1023.322,551.431 1026.111,555.099 1028.793,558.768 1031.371,562.436 1033.849,566.104 1036.232,569.773 1038.523,573.441 1040.723,577.11 1042.838,580.778 1044.868,584.446 1046.816,588.115 1048.685,591.783 1050.476,595.451 1052.192,599.12 1053.834,602.788 1055.404,606.457 1056.903,610.125 1058.333,613.793 1059.695,617.462 1060.99,621.13 1062.219,624.798 1063.384,628.467 1064.485,632.135 1065.523,635.804 1066.5,639.472 1067.415,643.14 1068.27,646.809 1069.065,650.477 1069.801,654.145 1070.478,657.814 1071.098,661.482 1071.659,665.15 1072.163,668.819 1072.611,672.487 1073.002,676.156 1073.336,679.824 1073.614,683.492 1073.837,687.161 1074.003,690.829 1074.115,694.497 1074.17,698.166 1074.17,701.834 1074.115,705.503 1074.003,709.171 1073.837,712.839 1073.614,716.508 1073.336,720.176 1073.002,723.844 1072.611,727.513 1072.163,731.181 1071.659,734.85 1071.098,738.518 1070.478,742.186 1069.801,745.855 1069.065,749.523 1068.27,753.191 1067.415,756.86 1066.5,760.528 1065.523,764.196 1064.485,767.865 1063.384,771.533 1062.219,775.202 1060.99,778.87 1059.695,782.538 1058.333,786.207 1056.903,789.875 1055.404,793.543 1053.834,797.212 1052.192,800.88 1050.476,804.549 1048.685,808.217 1046.816,811.885 1044.868,815.554 1042.838,819.222 1040.723,822.89 1038.523,826.559 1036.232,830.227 1033.849,833.896 1031.371,837.564 1028.793,841.232 1026.111,844.901 1023.322,848.569 1020.42,852.237 1017.4,855.906 1014.257,859.574 1010.984,863.243 1007.573,866.911 1004.017,870.579 1000.306,874.248 996.429,877.916 992.376,881.584 " />
<line x1="992.376" y1="472.891" x2="992.376" y2="518.416"  stroke="#7f7fff" />
<line x1="992.376" y1="472.891" x2="1102.054" y2="472.891"  stroke="#7f7fff" />
<line x1="992.376" y1="927.109" x2="992.376" y2="881.584"  stroke="#7f7fff" />
<line x1="992.376" y1="927.109" x2="1102.054" y2="927.109"  stroke="#7f7fff" />
<polyline fill="none" stroke="#7f7fff" points="1102.054,472.891 1101.708,477.479 1101.369,482.067 1101.037,486.655 1100.712,491.243 1100.395,495.831 1100.084,500.419 1099.781,505.007 1099.485,509.595 1099.195,514.184 1098.913,518.772 1098.638,523.36 1098.37,527.948 1098.109,532.536 1097.855,537.124 1097.609,541.712 1097.369,546.3 1097.136,550.888 1096.911,555.476 1096.692,560.064 1096.481,564.652 1096.276,569.24 1096.079,573.828 1095.889,578.416 1095.706,583.004 1095.529,587.592 1095.36,592.181 1095.198,596.769 1095.043,601.357 1094.895,605.945 1094.755,610.533 1094.621,615.121 1094.494,619.709 1094.374,624.297 1094.262,628.885 1094.156,633.473 1094.057,638.061 1093.966,642.649 1093.881,647.237 1093.804,651.825 1093.733,656.413 1093.67,661.001 1093.614,665.59 1093.564,670.178 1093.522,674.766 1093.487,679.354 1093.459,683.942 1093.438,688.53 1093.424,693.118 1093.417,697.706 1093.417,702.294 1093.424,706.882 1093.438,711.47 1093.459,716.058 1093.487,720.646 1093.522,725.234 1093.564,729.822 1093.614,734.41 1093.67,738.999 1093.733,743.587 1093.804,748.175 1093.881,752.763 1093.966,757.351 1094.057,761.939 1094.156,766.527 1094.262,771.115 1094.374,775.703 1094.494,780.291 1094.621,784.879 1094.755,789.467 1094.895,794.055 1095.043,798.643 1095.198,803.231 1095.36,807.819 1095.529,812.408 1095.706,816.996 1095.889,821.584 1096.079,826.172 1096.276,830.76 1096.481,835.348 1096.692,839.936 1096.911,844.524 1097.136,849.112 1097.369,853.7 1097.609,858.288 1097.855,862.876 1098.109,867.464 1098.37,872.052 1098.638,876.64 1098.913,881.228 1099.195,885.816 1099.485,890.405 1099.781,894.993 1100.084,899.581 1100.395,904.169 1100.712,908.757 1101.037,913.345 1101.369,917.933 1101.708,922.521 1102.054,927.109 " />
<line x1="1102.054" y1="472.891" x2="1121.969" y2="472.891"  stroke="#7f7fff" />
<line x1="1102.054" y1="927.109" x2="1121.969" y2="927.109"  stroke="#7f7fff" />
<polyline fill="none" stroke="#7f7fff" points="1121.969,472.891 1125.141,477.479 1128.218,482.067 1131.204,486.655 1134.101,491.243 1136.911,495.831 1139.636,500.419 1142.278,505.007 1144.839,509.595 1147.321,514.184 1149.726,518.772 1152.055,523.36 1154.309,527.948 1156.491,532.536 1158.601,537.124 1160.64,541.712 1162.61,546.3 1164.513,550.888 1166.348,555.476 1168.117,560.064 1169.821,564.652 1171.461,569.24 1173.037,573.828 1174.551,578.416 1176.003,583.004 1177.394,587.592 1178.725,592.181 1179.996,596.769 1181.207,601.357 1182.36,605.945 1183.455,610.533 1184.492,615.121 1185.472,619.709 1186.396,624.297 1187.263,628.885 1188.074,633.473 1188.829,638.061 1189.529,642.649 1190.175,647.237 1190.765,651.825 1191.301,656.413 1191.783,661.001 1192.211,665.59 1192.585,670.178 1192.905,674.766 1193.172,679.354 1193.385,683.942 1193.545,688.53 1193.652,693.118 1193.705,697.706 1193.705,702.294 1193.652,706.882 1193.545,711.47 1193.385,716.058 1193.172,720.646 1192.905,725.234 1192.585,729.822 1192.211,734.41 1191.783,738.999 1191.301,743.587 1190.765,748.175 1190.175,752.763 1189.529,757.351 1188.829,761.939 1188.074,766.527 1187.263,771.115 1186.396,775.703 1185.472,780.291 1184.492,784.879 1183.455,789.467 1182.36,794.055 1181.207,798.643 1179.996,803.231 1178.725,807.819 1177.394,812.408 1176.003,816.996 1174.551,821.584 1173.037,826.172 1171.461,830.76 1169.821,835.348 1168.117,839.936 1166.348,844.524 1164.513,849.112 1162.61,853.7 1160.64,858.288 1158.601,862.876 1156.491,867.464 1154.309,872.052 1152.055,876.64 1149.726,881.228 1147.321,885.816 1144.839,890.405 1142.278,894.993 1139.636,899.581 1136.911,904.169 1134.101,908.757 1131.204,913.345 1128.218,917.933 1125.141,922.521 1121.969,927.109 " />
</g>
<g>
<polyline fill="none" stroke="#7f7fff" points="1185.345,460.031 1185.757,464.879 1186.16,469.727 1186.555,474.574 1186.942,479.422 1187.32,484.27 1187.69,489.118 1188.051,493.966 1188.404,498.814 1188.748,503.662 1189.084,508.509 1189.412,513.357 1189.731,518.205 1190.041,523.053 1190.343,527.901 1190.637,532.749 1190.923,537.597 1191.199,542.445 1191.468,547.292 1191.728,552.14 1191.98,556.988 1192.223,561.836 1192.458,566.684 1192.684,571.532 1192.902,576.38 1193.112,581.227 1193.313,586.075 1193.506,590.923 1193.691,595.771 1193.867,600.619 1194.034,605.467 1194.194,610.315 1194.344,615.162 1194.487,620.01 1194.621,624.858 1194.747,629.706 1194.864,634.554 1194.973,639.402 1195.074,644.25 1195.166,649.097 1195.249,653.945 1195.325,658.793 1195.392,663.641 1195.451,668.489 1195.501,673.337 1195.543,678.185 1195.576,683.032 1195.601,687.88 1195.618,692.728 1195.627,697.576 1195.627,702.424 1195.618,707.272 1195.601,712.12 1195.576,716.968 1195.543,721.815 1195.501,726.663 1195.451,731.511 1195.392,736.359 1195.325,741.207 1195.249,746.055 1195.166,750.903 1195.074,755.75 1194.973,760.598 1194.864,765.446 1194.747,770.294 1194.621,775.142 1194.487,779.99 1194.344,784.838 1194.194,789.685 1194.034,794.533 1193.867,799.381 1193.691,804.229 1193.506,809.077 1193.313,813.925 1193.112,818.773 1192.902,823.62 1192.684,828.468 1192.458,833.316 1192.223,838.164 1191.98,843.012 1191.728,847.86 1191.468,852.708 1191.199,857.555 1190.923,862.403 1190.637,867.251 1190.343,872.099 1190.041,876.947 1189.731,881.795 1189.412,886.643 1189.084,891.491 1188.748,896.338 1188.404,901.186 1188.051,906.034 1187.69,910.882 1187.32,915.73 1186.942,920.578 1186.555,925.426 1186.16,930.273 1185.757,935.121 1185.345,939.969 " />
<line x1="1185.345" y1="460.031" x2="1202.406" y2="460.031"  stroke="#7f7fff" />
<line x1="1185.345" y1="939.969" x2="1202.406" y2="939.969"  stroke="#7f7fff" />
<polyline fill="none" stroke="#7f7fff" points="1202.406,460.031 1205.213,464.879 1207.944,469.727 1210.601,474.574 1213.186,479.422 1215.699,484.27 1218.142,489.118 1220.515,493.966 1222.821,498.814 1225.06,503.662 1227.233,508.509 1229.342,513.357 1231.387,518.205 1233.368,523.053 1235.288,527.901 1237.146,532.749 1238.944,537.597 1240.682,542.445 1242.361,547.292 1243.982,552.14 1245.544,556.988 1247.05,561.836 1248.499,566.684 1249.891,571.532 1251.229,576.38 1252.511,581.227 1253.738,586.075 1254.911,590.923 1256.031,595.771 1257.097,600.619 1258.11,605.467 1259.07,610.315 1259.978,615.162 1260.834,620.01 1261.638,624.858 1262.39,629.706 1263.092,634.554 1263.742,639.402 1264.341,644.25 1264.89,649.097 1265.389,653.945 1265.837,658.793 1266.235,663.641 1266.583,668.489 1266.881,673.337 1267.129,678.185 1267.327,683.032 1267.476,687.88 1267.575,692.728 1267.625,697.576 1267.625,702.424 1267.575,707.272 1267.476,712.12 1267.327,716.968 1267.129,721.815 1266.881,726.663 1266.583,731.511 1266.235,736.359 1265.837,741.207 1265.389,746.055 1264.89,750.903 1264.341,755.75 1263.742,760.598 1263.092,765.446 1262.39,770.294 1261.638,775.142 1260.834,779.99 1259.978,784.838 1259.07,789.685 1258.11,794.533 1257.097,799.381 1256.031,804.229 1254.911,809.077 1253.738,813.925 1252.511,818.773 1251.229,823.62 1249.891,828.468 1248.499,833.316 1247.05,838.164 1245.544,843.012 1243.982,847.86 1242.361,852.708 1240.682,857.555 1238.944,862.403 1237.146,867.251 1235.288,872.099 1233.368,876.947 1231.387,881.795 1229.342,886.643 1227.233,891.491 1225.06,896.338 1222.821,901.186 1220.515,906.034 1218.142,910.882 1215.699,915.73 1213.186,920.578 1210.601,925.426 1207.944,930.273 1205.213,935.121 1202.406,939.969 " />
</g>
<g>
<polyline fill="none" stroke="#7f7fff" points="1282.693,479.642 1282.166,484.094 1281.649,488.546 1281.143,492.997 1280.648,497.449 1280.164,501.901 1279.691,506.352 1279.229,510.804 1278.778,515.256 1278.337,519.707 1277.907,524.159 1277.489,528.611 1277.081,533.062 1276.683,537.514 1276.297,541.966 1275.921,546.417 1275.557,550.869 1275.203,555.321 1274.86,559.772 1274.527,564.224 1274.206,568.676 1273.895,573.127 1273.595,577.579 1273.305,582.031 1273.027,586.482 1272.759,590.934 1272.502,595.386 1272.256,599.837 1272.02,604.289 1271.795,608.741 1271.581,613.192 1271.378,617.644 1271.185,622.096 1271.003,626.547 1270.832,630.999 1270.672,635.451 1270.522,639.902 1270.383,644.354 1270.254,648.806 1270.137,653.257 1270.03,657.709 1269.934,662.161 1269.848,666.612 1269.773,671.064 1269.709,675.516 1269.656,679.967 1269.613,684.419 1269.581,688.871 1269.559,693.322 1269.549,697.774 1269.549,702.226 1269.559,706.678 1269.581,711.129 1269.613,715.581 1269.656,720.033 1269.709,724.484 1269.773,728.936 1269.848,733.388 1269.934,737.839 1270.03,742.291 1270.137,746.743 1270.254,751.194 1270.383,755.646 1270.522,760.098 1270.672,764.549 1270.832,769.001 1271.003,773.453 1271.185,777.904 1271.378,782.356 1271.581,786.808 1271.795,791.259 1272.02,795.711 1272.256,800.163 1272.502,804.614 1272.759,809.066 1273.027,813.518 1273.305,817.969 1273.595,822.421 1273.895,826.873 1274.206,831.324 1274.527,835.776 1274.86,840.228 1275.203,844.679 1275.557,849.131 1275.921,853.583 1276.297,858.034 1276.683,862.486 1277.081,866.938 1277.489,871.389 1277.907,875.841 1278.337,880.293 1278.778,884.744 1279.229,889.196 1279.691,893.648 1280.164,898.099 1280.648,902.551 1281.143,907.003 1281.649,911.454 1282.166,915.906 1282.693,920.358 " />
<line x1="1293.693" y1="479.642" x2="1293.693" y2="499.704"  stroke="#7f7fff" />
<line x1="1282.693" y1="479.642" x2="1293.693" y2="479.642"  stroke="#7f7fff" />
<line x1="1293.693" y1="920.358" x2="1293.693" y2="900.296"  stroke="#7f7fff" />
<line x1="1282.693" y1="920.358" x2="1293.693" y2="920.358"  stroke="#7f7fff" />
<polyline fill="none" stroke="#7f7fff" points="1293.693,499.704 1294.169,503.751 1294.636,507.797 1295.092,511.843 1295.538,515.89 1295.975,519.936 1296.402,523.982 1296.819,528.029 1297.226,532.075 1297.624,536.122 1298.012,540.168 1298.39,544.214 1298.758,548.261 1299.116,552.307 1299.465,556.354 1299.804,560.4 1300.133,564.446 1300.452,568.493 1300.762,572.539 1301.062,576.585 1301.352,580.632 1301.632,584.678 1301.903,588.725 1302.164,592.771 1302.416,596.817 1302.657,600.864 1302.889,604.91 1303.111,608.956 1303.324,613.003 1303.527,617.049 1303.72,621.096 1303.904,625.142 1304.077,629.188 1304.242,633.235 1304.396,637.281 1304.541,641.327 1304.676,645.374 1304.802,649.42 1304.917,653.467 1305.024,657.513 1305.12,661.559 1305.207,665.606 1305.284,669.652 1305.352,673.699 1305.41,677.745 1305.458,681.791 1305.496,685.838 1305.525,689.884 1305.545,693.93 1305.554,697.977 1305.554,702.023 1305.545,706.07 1305.525,710.116 1305.496,714.162 1305.458,718.209 1305.41,722.255 1305.352,726.301 1305.284,730.348 1305.207,734.394 1305.12,738.441 1305.024,742.487 1304.917,746.533 1304.802,750.58 1304.676,754.626 1304.541,758.673 1304.396,762.719 1304.242,766.765 1304.077,770.812 1303.904,774.858 1303.72,778.904 1303.527,782.951 1303.324,786.997 1303.111,791.044 1302.889,795.09 1302.657,799.136 1302.416,803.183 1302.164,807.229 1301.903,811.275 1301.632,815.322 1301.352,819.368 1301.062,823.415 1300.762,827.461 1300.452,831.507 1300.133,835.554 1299.804,839.6 1299.465,843.646 1299.116,847.693 1298.758,851.739 1298.39,855.786 1298.012,859.832 1297.624,863.878 1297.226,867.925 1296.819,871.971 1296.402,876.018 1295.975,880.064 1295.538,884.11 1295.092,888.157 1294.636,892.203 1294.169,896.249 1293.693,900.296 " />
</g>
</g>
<g><title>element</title>
<polyline fill="none" stroke="#7f7fff" points="1772.634,144.444 1772.634,155.668 1772.634,166.891 1772.634,178.114 1772.634,189.338 1772.634,200.561 1772.634,211.785 1772.634,223.008 1772.634,234.231 1772.634,245.455 1772.634,256.678 1772.634,267.901 1772.634,279.125 1772.634,290.348 1772.634,301.571 1772.634,312.795 1772.634,324.018 1772.634,335.241 1772.634,346.465 1772.634,357.688 1772.634,368.911 1772.634,380.135 1772.634,391.358 1772.634,402.581 1772.634,413.805 1772.634,425.028 1772.634,436.251 1772.634,447.475 1772.634,458.698 1772.634,469.921 1772.634,481.145 1772.634,492.368 1772.634,503.591 1772.634,514.815 1772.634,526.038 1772.634,537.262 1772.634,548.485 1772.634,559.708 1772.634,570.932 1772.634,582.155 1772.634,593.378 1772.634,604.602 1772.634,615.825 1772.634,627.048 1772.634,638.272 1772.634,649.495 1772.634,660.718 1772.634,671.942 1772.634,683.165 1772.634,694.388 1772.634,705.612 1772.634,716.835 1772.634,728.058 1772.634,739.282 1772.634,750.505 1772.634,761.728 1772.634,772.952 1772.634,784.175 1772.634,795.398 1772.634,806.622 1772.634,817.845 1772.634,829.068 1772.634,840.292 1772.634,851.515 1772.634,862.738 1772.634,873.962 1772.634,885.185 1772.634,896.409 1772.634,907.632 1772.634,918.855 1772.634,930.079 1772.634,941.302 1772.634,952.525 1772.634,963.749 1772.634,974.972 1772.634,986.195 1772.634,997.419 1772.634,1008.642 1772.634,1019.865 1772.634,1031.089 1772.634,1042.312 1772.634,1053.535 1772.634,1064.759 1772.634,1075.982 1772.634,1087.205 1772.634,1098.429 1772.634,1109.652 1772.634,1120.875 1772.634,1132.099 1772.634,1143.322 1772.634,1154.545 1772.634,1165.769 1772.634,1176.992 1772.634,1188.215 1772.634,1199.439 1772.634,1210.662 1772.634,1221.886 1772.634,1233.109 1772.634,1244.332 1772.634,1255.556 " />
</g>
</svg>
