<?xml version="1.0" standalone="no"?>
<svg width="2400px" height="1400px" version="1.1" xmlns="http://www.w3.org/2000/svg" xmlns:xlink="http://www.w3.org/1999/xlink">
<rect x="0" y="0" width="2400" height="1400"  fill="#ffffff" />
<defs>
<g id="dot">
<line x1="1" y1="1" x2="0" y2="0"  />
</g>
<g id="cross">
<line x1="-3" y1="0" x2="3" y2="0"  />
<line x1="0" y1="-3" x2="0" y2="3"  />
</g>
<g id="square">
<line x1="-3" y1="-3" x2="-3" y2="3"  />
<line x1="-3" y1="3" x2="3" y2="3"  />
<line x1="3" y1="3" x2="3" y2="-3"  />
<line x1="3" y1="-3" x2="-3" y2="-3"  />
</g>
<g id="round">
<ellipse cx="0" cy="0" rx="3" ry="3"  fill="none" /></g>
<g id="triangle">
<line x1="0" y1="-3" x2="-3" y2="3"  />
<line x1="-3" y1="3" x2="3" y2="3"  />
<line x1="0" y1="-3" x2="3" y2="3"  />
</g>
</defs>
<line x1="587.169" y1="700" x2="1812.831" y2="700"  stroke="#7f7f7f" />
<g><title>element</title>
<g>
<line x1="967.188" y1="499.58" x2="967.188" y2="299.161"  stroke="#7f7fff" />
<line x1="967.188" y1="900.42" x2="967.188" y2="1100.839"  stroke="#7f7fff" />
</g>
<g>
<polyline fill="none" stroke="#7f7fff" points="644.418,375.963 642.057,382.51 639.751,389.056 637.499,395.602 635.3,402.148 633.154,408.694 631.061,415.241 629.019,421.787 627.03,428.333 625.093,434.879 623.206,441.425 621.371,447.972 619.586,454.518 617.852,461.064 616.167,467.61 614.532,474.156 612.947,480.702 611.411,487.249 609.924,493.795 608.486,500.341 607.096,506.887 605.755,513.433 604.461,519.98 603.216,526.526 602.018,533.072 600.868,539.618 599.765,546.164 598.709,552.711 597.701,559.257 596.739,565.803 595.824,572.349 594.955,578.895 594.133,585.442 593.357,591.988 592.628,598.534 591.945,605.08 591.307,611.626 590.716,618.173 590.17,624.719 589.67,631.265 589.216,637.811 588.807,644.357 588.444,650.904 588.127,657.45 587.854,663.996 587.628,670.542 587.446,677.088 587.31,683.635 587.22,690.181 587.174,696.727 587.174,703.273 587.22,709.819 587.31,716.365 587.446,722.912 587.628,729.458 587.854,736.004 588.127,742.55 588.444,749.096 588.807,755.643 589.216,762.189 589.67,768.735 590.17,775.281 590.716,781.827 591.307,788.374 591.945,794.92 592.628,801.466 593.357,808.012 594.133,814.558 594.955,821.105 595.824,827.651 596.739,834.197 597.701,840.743 598.709,847.289 599.765,853.836 600.868,860.382 602.018,866.928 603.216,873.474 604.461,880.02 605.755,886.567 607.096,893.113 608.486,899.659 609.924,906.205 611.411,912.751 612.947,919.298 614.532,925.844 616.167,932.39 617.852,938.936 619.586,945.482 621.371,952.028 623.206,958.575 625.093,965.121 627.03,971.667 629.019,978.213 631.061,984.759 633.154,991.306 635.3,997.852 637.499,1004.398 639.751,1010.944 642.057,1017.49 644.418,1024.037 " />
<line x1="644.418" y1="375.963" x2="675.547" y2="375.963"  stroke="#7f7fff" />
<line x1="644.418" y1="1024.037" x2="675.547" y2="1024.037"  stroke="#7f7fff" />
<polyline fill="none" stroke="#7f7fff" points="675.547,375.963 675.547,382.51 675.547,389.056 675.547,395.602 675.547,402.148 675.547,408.694 675.547,415.241 675.547,421.787 675.547,428.333 675.547,434.879 675.547,441.425 675.547,447.972 675.547,454.518 675.547,461.064 675.547,467.61 675.547,474.156 675.547,480.702 675.547,487.249 675.547,493.795 675.547,500.341 675.547,506.887 675.547,513.433 675.547,519.98 675.547,526.526 675.547,533.072 675.547,539.618 675.547,546.164 675.547,552.711 675.547,559.257 675.547,565.803 675.547,572.349 675.547,578.895 675.547,585.442 675.547,591.988 675.547,598.534 675.547,605.08 675.547,611.626 675.547,618.173 675.547,624.719 675.547,631.265 675.547,637.811 675.547,644.357 675.547,650.904 675.547,657.45 675.547,663.996 675.547,670.542 675.547,677.088 675.547,683.635 675.547,690.181 675.547,696.727 675.547,703.273 675.547,709.819 675.547,716.365 675.547,722.912 675.547,729.458 675.547,736.004 675.547,742.55 675.547,749.096 675.547,755.643 675.547,762.189 675.547,768.735 675.547,775.281 675.547,781.827 675.547,788.374 675.547,794.92 675.547,801.466 675.547,808.012 675.547,814.558 675.547,821.105 675.547,827.651 675.547,834.197 675.547,840.743 675.547,847.289 675.547,853.836 675.547,860.382 675.547,866.928 675.547,873.474 675.547,880.02 675.547,886.567 675.547,893.113 675.547,899.659 675.547,906.205 675.547,912.751 675.547,919.298 675.547,925.844 675.547,932.39 675.547,938.936 675.547,945.482 675.547,952.028 675.547,958.575 675.547,965.121 675.547,971.667 675.547,978.213 675.547,984.759 675.547,991.306 675.547,997.852 675.547,1004.398 675.547,1010.944 675.547,1017.49 675.547,1024.037 " />
</g>
<g>
<polyline fill="none" stroke="#7f7fff" points="780.776,412.261 776.027,418.074 771.437,423.887 766.999,429.7 762.708,435.513 758.558,441.326 754.545,447.139 750.665,452.952 746.913,458.764 743.286,464.577 739.78,470.39 736.392,476.203 733.119,482.016 729.958,487.829 726.907,493.642 723.962,499.455 721.122,505.268 718.384,511.081 715.747,516.894 713.208,522.706 710.766,528.519 708.419,534.332 706.165,540.145 704.003,545.958 701.931,551.771 699.949,557.584 698.054,563.397 696.246,569.21 694.524,575.023 692.887,580.835 691.333,586.648 689.862,592.461 688.473,598.274 687.165,604.087 685.938,609.9 684.791,615.713 683.722,621.526 682.732,627.339 681.821,633.152 680.987,638.965 680.23,644.777 679.55,650.59 678.946,656.403 678.419,662.216 677.967,668.029 677.591,673.842 677.29,679.655 677.065,685.468 676.915,691.281 676.84,697.094 676.84,702.906 676.915,708.719 677.065,714.532 677.29,720.345 677.591,726.158 677.967,731.971 678.419,737.784 678.946,743.597 679.55,749.41 680.23,755.223 680.987,761.035 681.821,766.848 682.732,772.661 683.722,778.474 684.791,784.287 685.938,790.1 687.165,795.913 688.473,801.726 689.862,807.539 691.333,813.352 692.887,819.165 694.524,824.977 696.246,830.79 698.054,836.603 699.949,842.416 701.931,848.229 704.003,854.042 706.165,859.855 708.419,865.668 710.766,871.481 713.208,877.294 715.747,883.106 718.384,888.919 721.122,894.732 723.962,900.545 726.907,906.358 729.958,912.171 733.119,917.984 736.392,923.797 739.78,929.61 743.286,935.423 746.913,941.236 750.665,947.048 754.545,952.861 758.558,958.674 762.708,964.487 766.999,970.3 771.437,976.113 776.027,981.926 780.776,987.739 " />
<line x1="780.776" y1="412.261" x2="849.169" y2="412.261"  stroke="#7f7fff" />
<line x1="780.776" y1="987.739" x2="849.169" y2="987.739"  stroke="#7f7fff" />
<polyline fill="none" stroke="#7f7fff" points="849.169,412.261 847.231,418.074 845.338,423.887 843.488,429.7 841.682,435.513 839.918,441.326 838.197,447.139 836.518,452.952 834.882,458.764 833.287,464.577 831.734,470.39 830.223,476.203 828.753,482.016 827.324,487.829 825.936,493.642 824.588,499.455 823.281,505.268 822.015,511.081 820.788,516.894 819.601,522.706 818.454,528.519 817.347,534.332 816.28,540.145 815.251,545.958 814.262,551.771 813.312,557.584 812.401,563.397 811.529,569.21 810.695,575.023 809.9,580.835 809.144,586.648 808.426,592.461 807.746,598.274 807.104,604.087 806.501,609.9 805.936,615.713 805.409,621.526 804.919,627.339 804.468,633.152 804.054,638.965 803.679,644.777 803.34,650.59 803.04,656.403 802.777,662.216 802.552,668.029 802.364,673.842 802.214,679.655 802.102,685.468 802.027,691.281 801.989,697.094 801.989,702.906 802.027,708.719 802.102,714.532 802.214,720.345 802.364,726.158 802.552,731.971 802.777,737.784 803.04,743.597 803.34,749.41 803.679,755.223 804.054,761.035 804.468,766.848 804.919,772.661 805.409,778.474 805.936,784.287 806.501,790.1 807.104,795.913 807.746,801.726 808.426,807.539 809.144,813.352 809.9,819.165 810.695,824.977 811.529,830.79 812.401,836.603 813.312,842.416 814.262,848.229 815.251,854.042 816.28,859.855 817.347,865.668 818.454,871.481 819.601,877.294 820.788,883.106 822.015,888.919 823.281,894.732 824.588,900.545 825.936,906.358 827.324,912.171 828.753,917.984 830.223,923.797 831.734,929.61 833.287,935.423 834.882,941.236 836.518,947.048 838.197,952.861 839.918,958.674 841.682,964.487 843.488,970.3 845.338,976.113 847.231,981.926 849.169,987.739 " />
</g>
<g>
<polyline fill="none" stroke="#7f7fff" points="843.354,429.353 842.495,434.82 841.654,440.288 840.831,445.756 840.026,451.223 839.239,456.691 838.47,462.159 837.718,467.626 836.984,473.094 836.268,478.561 835.57,484.029 834.89,489.497 834.227,494.964 833.582,500.432 832.954,505.899 832.345,511.367 831.752,516.835 831.178,522.302 830.621,527.77 830.082,533.238 829.56,538.705 829.056,544.173 828.569,549.64 828.1,555.108 827.648,560.576 827.214,566.043 826.797,571.511 826.398,576.979 826.016,582.446 825.651,587.914 825.304,593.381 824.975,598.849 824.663,604.317 824.368,609.784 824.09,615.252 823.83,620.72 823.588,626.187 823.362,631.655 823.154,637.122 822.964,642.59 822.791,648.058 822.635,653.525 822.496,658.993 822.375,664.46 822.271,669.928 822.184,675.396 822.115,680.863 822.063,686.331 822.029,691.799 822.011,697.266 822.011,702.734 822.029,708.201 822.063,713.669 822.115,719.137 822.184,724.604 822.271,730.072 822.375,735.54 822.496,741.007 822.635,746.475 822.791,751.942 822.964,757.41 823.154,762.878 823.362,768.345 823.588,773.813 823.83,779.28 824.09,784.748 824.368,790.216 824.663,795.683 824.975,801.151 825.304,806.619 825.651,812.086 826.016,817.554 826.398,823.021 826.797,828.489 827.214,833.957 827.648,839.424 828.1,844.892 828.569,850.36 829.056,855.827 829.56,861.295 830.082,866.762 830.621,872.23 831.178,877.698 831.752,883.165 832.345,888.633 832.954,894.101 833.582,899.568 834.227,905.036 834.89,910.503 835.57,915.971 836.268,921.439 836.984,926.906 837.718,932.374 838.47,937.841 839.239,943.309 840.026,948.777 840.831,954.244 841.654,959.712 842.495,965.18 843.354,970.647 " />
<line x1="946.171" y1="429.353" x2="946.171" y2="493.795"  stroke="#7f7fff" />
<line x1="843.354" y1="429.353" x2="946.171" y2="429.353"  stroke="#7f7fff" />
<line x1="946.171" y1="970.647" x2="946.171" y2="906.205"  stroke="#7f7fff" />
<line x1="843.354" y1="970.647" x2="946.171" y2="970.647"  stroke="#7f7fff" />
<polyline fill="none" stroke="#7f7fff" points="946.171,493.795 941.96,497.961 937.917,502.126 934.033,506.292 930.3,510.458 926.709,514.624 923.254,518.789 919.929,522.955 916.727,527.121 913.644,531.287 910.675,535.452 907.817,539.618 905.064,543.784 902.413,547.95 899.862,552.116 897.406,556.281 895.044,560.447 892.772,564.613 890.588,568.779 888.49,572.944 886.476,577.11 884.544,581.276 882.692,585.442 880.919,589.607 879.222,593.773 877.6,597.939 876.053,602.105 874.578,606.27 873.175,610.436 871.843,614.602 870.58,618.768 869.385,622.933 868.258,627.099 867.198,631.265 866.204,635.431 865.275,639.596 864.411,643.762 863.611,647.928 862.874,652.094 862.201,656.26 861.59,660.425 861.041,664.591 860.554,668.757 860.129,672.923 859.765,677.088 859.462,681.254 859.22,685.42 859.038,689.586 858.917,693.751 858.857,697.917 858.857,702.083 858.917,706.249 859.038,710.414 859.22,714.58 859.462,718.746 859.765,722.912 860.129,727.077 860.554,731.243 861.041,735.409 861.59,739.575 862.201,743.74 862.874,747.906 863.611,752.072 864.411,756.238 865.275,760.404 866.204,764.569 867.198,768.735 868.258,772.901 869.385,777.067 870.58,781.232 871.843,785.398 873.175,789.564 874.578,793.73 876.053,797.895 877.6,802.061 879.222,806.227 880.919,810.393 882.692,814.558 884.544,818.724 886.476,822.89 888.49,827.056 890.588,831.221 892.772,835.387 895.044,839.553 897.406,843.719 899.862,847.884 902.413,852.05 905.064,856.216 907.817,860.382 910.675,864.548 913.644,868.713 916.727,872.879 919.929,877.045 923.254,881.211 926.709,885.376 930.3,889.542 934.033,893.708 937.917,897.874 941.96,902.039 946.171,906.205 " />
</g>
<g>
<polyline fill="none" stroke="#7f7fff" points="989.599,498.181 993.339,502.258 996.942,506.335 1000.415,510.413 1003.763,514.49 1006.992,518.567 1010.106,522.644 1013.11,526.721 1016.009,530.798 1018.805,534.875 1021.503,538.953 1024.106,543.03 1026.616,547.107 1029.036,551.184 1031.369,555.261 1033.617,559.338 1035.782,563.415 1037.867,567.493 1039.873,571.57 1041.802,575.647 1043.656,579.724 1045.435,583.801 1047.143,587.878 1048.779,591.956 1050.346,596.033 1051.844,600.11 1053.275,604.187 1054.639,608.264 1055.938,612.341 1057.172,616.418 1058.342,620.496 1059.449,624.573 1060.495,628.65 1061.478,632.727 1062.401,636.804 1063.263,640.881 1064.066,644.958 1064.809,649.036 1065.494,653.113 1066.12,657.19 1066.687,661.267 1067.198,665.344 1067.65,669.421 1068.046,673.499 1068.385,677.576 1068.666,681.653 1068.892,685.73 1069.061,689.807 1069.173,693.884 1069.229,697.961 1069.229,702.039 1069.173,706.116 1069.061,710.193 1068.892,714.27 1068.666,718.347 1068.385,722.424 1068.046,726.501 1067.65,730.579 1067.198,734.656 1066.687,738.733 1066.12,742.81 1065.494,746.887 1064.809,750.964 1064.066,755.042 1063.263,759.119 1062.401,763.196 1061.478,767.273 1060.495,771.35 1059.449,775.427 1058.342,779.504 1057.172,783.582 1055.938,787.659 1054.639,791.736 1053.275,795.813 1051.844,799.89 1050.346,803.967 1048.779,808.044 1047.143,812.122 1045.435,816.199 1043.656,820.276 1041.802,824.353 1039.873,828.43 1037.867,832.507 1035.782,836.585 1033.617,840.662 1031.369,844.739 1029.036,848.816 1026.616,852.893 1024.106,856.97 1021.503,861.047 1018.805,865.125 1016.009,869.202 1013.11,873.279 1010.106,877.356 1006.992,881.433 1003.763,885.51 1000.415,889.587 996.942,893.665 993.339,897.742 989.599,901.819 " />
<line x1="989.599" y1="441.99" x2="989.599" y2="498.181"  stroke="#7f7fff" />
<line x1="989.599" y1="441.99" x2="1098.756" y2="441.99"  stroke="#7f7fff" />
<line x1="989.599" y1="958.01" x2="989.599" y2="901.819"  stroke="#7f7fff" />
<line x1="989.599" y1="958.01" x2="1098.756" y2="958.01"  stroke="#7f7fff" />
<polyline fill="none" stroke="#7f7fff" points="1098.756,441.99 1098.417,447.202 1098.085,452.415 1097.759,457.627 1097.441,462.839 1097.13,468.052 1096.826,473.264 1096.528,478.476 1096.238,483.689 1095.954,488.901 1095.678,494.113 1095.408,499.326 1095.146,504.538 1094.89,509.75 1094.641,514.963 1094.399,520.175 1094.164,525.387 1093.936,530.6 1093.715,535.812 1093.501,541.024 1093.293,546.237 1093.093,551.449 1092.9,556.661 1092.713,561.874 1092.533,567.086 1092.361,572.298 1092.195,577.51 1092.036,582.723 1091.884,587.935 1091.739,593.147 1091.601,598.36 1091.47,603.572 1091.345,608.784 1091.228,613.997 1091.118,619.209 1091.014,624.421 1090.917,629.634 1090.827,634.846 1090.745,640.058 1090.669,645.271 1090.6,650.483 1090.537,655.695 1090.482,660.908 1090.434,666.12 1090.392,671.332 1090.358,676.545 1090.33,681.757 1090.31,686.969 1090.296,692.182 1090.289,697.394 1090.289,702.606 1090.296,707.818 1090.31,713.031 1090.33,718.243 1090.358,723.455 1090.392,728.668 1090.434,733.88 1090.482,739.092 1090.537,744.305 1090.6,749.517 1090.669,754.729 1090.745,759.942 1090.827,765.154 1090.917,770.366 1091.014,775.579 1091.118,780.791 1091.228,786.003 1091.345,791.216 1091.47,796.428 1091.601,801.64 1091.739,806.853 1091.884,812.065 1092.036,817.277 1092.195,822.49 1092.361,827.702 1092.533,832.914 1092.713,838.126 1092.9,843.339 1093.093,848.551 1093.293,853.763 1093.501,858.976 1093.715,864.188 1093.936,869.4 1094.164,874.613 1094.399,879.825 1094.641,885.037 1094.89,890.25 1095.146,895.462 1095.408,900.674 1095.678,905.887 1095.954,911.099 1096.238,916.311 1096.528,921.524 1096.826,926.736 1097.13,931.948 1097.441,937.161 1097.759,942.373 1098.085,947.585 1098.417,952.798 1098.756,958.01 " />
<line x1="1098.756" y1="441.99" x2="1120.637" y2="441.99"  stroke="#7f7fff" />
<line x1="1098.756" y1="958.01" x2="1120.637" y2="958.01"  stroke="#7f7fff" />
<polyline fill="none" stroke="#7f7fff" points="1120.637,441.99 1123.893,447.202 1127.058,452.415 1130.134,457.627 1133.122,462.839 1136.025,468.052 1138.844,473.264 1141.582,478.476 1144.238,483.689 1146.816,488.901 1149.317,494.113 1151.741,499.326 1154.09,504.538 1156.365,509.75 1158.568,514.963 1160.699,520.175 1162.759,525.387 1164.75,530.6 1166.672,535.812 1168.527,541.024 1170.314,546.237 1172.035,551.449 1173.691,556.661 1175.282,561.874 1176.809,567.086 1178.272,572.298 1179.673,577.51 1181.011,582.723 1182.288,587.935 1183.503,593.147 1184.658,598.36 1185.752,603.572 1186.786,608.784 1187.761,613.997 1188.676,619.209 1189.533,624.421 1190.331,629.634 1191.071,634.846 1191.753,640.058 1192.378,645.271 1192.945,650.483 1193.454,655.695 1193.907,660.908 1194.302,666.12 1194.641,671.332 1194.923,676.545 1195.149,681.757 1195.318,686.969 1195.431,692.182 1195.487,697.394 1195.487,702.606 1195.431,707.818 1195.318,713.031 1195.149,718.243 1194.923,723.455 1194.641,728.668 1194.302,733.88 1193.907,739.092 1193.454,744.305 1192.945,749.517 1192.378,754.729 1191.753,759.942 1191.071,765.154 1190.331,770.366 1189.533,775.579 1188.676,780.791 1187.761,786.003 1186.786,791.216 1185.752,796.428 1184.658,801.64 1183.503,806.853 1182.288,812.065 1181.011,817.277 1179.673,822.49 1178.272,827.702 1176.809,832.914 1175.282,838.126 1173.691,843.339 1172.035,848.551 1170.314,853.763 1168.527,858.976 1166.672,864.188 1164.75,869.4 1162.759,874.613 1160.699,879.825 1158.568,885.037 1156.365,890.25 1154.09,895.462 1151.741,900.674 1149.317,905.887 1146.816,911.099 1144.238,916.311 1141.582,921.524 1138.844,926.736 1136.025,931.948 1133.122,937.161 1130.134,942.373 1127.058,947.585 1123.893,952.798 1120.637,958.01 " />
</g>
<g>
<polyline fill="none" stroke="#7f7fff" points="1191.109,446.483 1191.362,451.604 1191.609,456.726 1191.851,461.848 1192.088,466.969 1192.32,472.091 1192.547,477.212 1192.768,482.334 1192.985,487.455 1193.196,492.577 1193.402,497.698 1193.603,502.82 1193.799,507.942 1193.99,513.063 1194.175,518.185 1194.355,523.306 1194.53,528.428 1194.7,533.549 1194.865,538.671 1195.025,543.792 1195.179,548.914 1195.329,554.036 1195.473,559.157 1195.612,564.279 1195.746,569.4 1195.875,574.522 1195.998,579.643 1196.117,584.765 1196.23,589.886 1196.338,595.008 1196.441,600.13 1196.539,605.251 1196.632,610.373 1196.719,615.494 1196.801,620.616 1196.879,625.737 1196.951,630.859 1197.018,635.981 1197.079,641.102 1197.136,646.224 1197.188,651.345 1197.234,656.467 1197.275,661.588 1197.311,666.71 1197.342,671.831 1197.368,676.953 1197.388,682.075 1197.404,687.196 1197.414,692.318 1197.419,697.439 1197.419,702.561 1197.414,707.682 1197.404,712.804 1197.388,717.925 1197.368,723.047 1197.342,728.169 1197.311,733.29 1197.275,738.412 1197.234,743.533 1197.188,748.655 1197.136,753.776 1197.079,758.898 1197.018,764.019 1196.951,769.141 1196.879,774.263 1196.801,779.384 1196.719,784.506 1196.632,789.627 1196.539,794.749 1196.441,799.87 1196.338,804.992 1196.23,810.114 1196.117,815.235 1195.998,820.357 1195.875,825.478 1195.746,830.6 1195.612,835.721 1195.473,840.843 1195.329,845.964 1195.179,851.086 1195.025,856.208 1194.865,861.329 1194.7,866.451 1194.53,871.572 1194.355,876.694 1194.175,881.815 1193.99,886.937 1193.799,892.058 1193.603,897.18 1193.402,902.302 1193.196,907.423 1192.985,912.545 1192.768,917.666 1192.547,922.788 1192.32,927.909 1192.088,933.031 1191.851,938.152 1191.609,943.274 1191.362,948.396 1191.109,953.517 " />
<line x1="1191.109" y1="446.483" x2="1226.89" y2="446.483"  stroke="#7f7fff" />
<line x1="1191.109" y1="953.517" x2="1226.89" y2="953.517"  stroke="#7f7fff" />
<polyline fill="none" stroke="#7f7fff" points="1226.89,446.483 1228.942,451.604 1230.946,456.726 1232.901,461.848 1234.81,466.969 1236.671,472.091 1238.485,477.212 1240.254,482.334 1241.976,487.455 1243.653,492.577 1245.285,497.698 1246.873,502.82 1248.415,507.942 1249.914,513.063 1251.369,518.185 1252.78,523.306 1254.148,528.428 1255.473,533.549 1256.755,538.671 1257.995,543.792 1259.193,548.914 1260.348,554.036 1261.462,559.157 1262.535,564.279 1263.566,569.4 1264.555,574.522 1265.504,579.643 1266.412,584.765 1267.28,589.886 1268.107,595.008 1268.893,600.13 1269.64,605.251 1270.346,610.373 1271.012,615.494 1271.639,620.616 1272.226,625.737 1272.773,630.859 1273.281,635.981 1273.749,641.102 1274.178,646.224 1274.568,651.345 1274.919,656.467 1275.231,661.588 1275.503,666.71 1275.737,671.831 1275.931,676.953 1276.087,682.075 1276.203,687.196 1276.281,692.318 1276.32,697.439 1276.32,702.561 1276.281,707.682 1276.203,712.804 1276.087,717.925 1275.931,723.047 1275.737,728.169 1275.503,733.29 1275.231,738.412 1274.919,743.533 1274.568,748.655 1274.178,753.776 1273.749,758.898 1273.281,764.019 1272.773,769.141 1272.226,774.263 1271.639,779.384 1271.012,784.506 1270.346,789.627 1269.64,794.749 1268.893,799.87 1268.107,804.992 1267.28,810.114 1266.412,815.235 1265.504,820.357 1264.555,825.478 1263.566,830.6 1262.535,835.721 1261.462,840.843 1260.348,845.964 1259.193,851.086 1257.995,856.208 1256.755,861.329 1255.473,866.451 1254.148,871.572 1252.78,876.694 1251.369,881.815 1249.914,886.937 1248.415,892.058 1246.873,897.18 1245.285,902.302 1243.653,907.423 1241.976,912.545 1240.254,917.666 1238.485,922.788 1236.671,927.909 1234.81,933.031 1232.901,938.152 1230.946,943.274 1228.942,948.396 1226.89,953.517 " />
</g>
<g>
<polyline fill="none" stroke="#7f7fff" points="1286.845,454.345 1286.424,459.308 1286.011,464.271 1285.607,469.233 1285.211,474.196 1284.824,479.159 1284.446,484.121 1284.076,489.084 1283.715,494.047 1283.363,499.01 1283.019,503.972 1282.684,508.935 1282.358,513.898 1282.04,518.861 1281.731,523.823 1281.43,528.786 1281.138,533.749 1280.855,538.711 1280.58,543.674 1280.314,548.637 1280.057,553.6 1279.808,558.562 1279.568,563.525 1279.336,568.488 1279.113,573.451 1278.898,578.413 1278.692,583.376 1278.495,588.339 1278.306,593.301 1278.126,598.264 1277.955,603.227 1277.792,608.19 1277.638,613.152 1277.492,618.115 1277.355,623.078 1277.226,628.04 1277.106,633.003 1276.994,637.966 1276.892,642.929 1276.797,647.891 1276.712,652.854 1276.634,657.817 1276.566,662.78 1276.506,667.742 1276.454,672.705 1276.411,677.668 1276.377,682.63 1276.351,687.593 1276.334,692.556 1276.326,697.519 1276.326,702.481 1276.334,707.444 1276.351,712.407 1276.377,717.37 1276.411,722.332 1276.454,727.295 1276.506,732.258 1276.566,737.22 1276.634,742.183 1276.712,747.146 1276.797,752.109 1276.892,757.071 1276.994,762.034 1277.106,766.997 1277.226,771.96 1277.355,776.922 1277.492,781.885 1277.638,786.848 1277.792,791.81 1277.955,796.773 1278.126,801.736 1278.306,806.699 1278.495,811.661 1278.692,816.624 1278.898,821.587 1279.113,826.549 1279.336,831.512 1279.568,836.475 1279.808,841.438 1280.057,846.4 1280.314,851.363 1280.58,856.326 1280.855,861.289 1281.138,866.251 1281.43,871.214 1281.731,876.177 1282.04,881.139 1282.358,886.102 1282.684,891.065 1283.019,896.028 1283.363,900.99 1283.715,905.953 1284.076,910.916 1284.446,915.879 1284.824,920.841 1285.211,925.804 1285.607,930.767 1286.011,935.729 1286.424,940.692 1286.845,945.655 " />
<line x1="1286.845" y1="454.345" x2="1302.626" y2="454.345"  stroke="#7f7fff" />
<line x1="1286.845" y1="945.655" x2="1302.626" y2="945.655"  stroke="#7f7fff" />
<polyline fill="none" stroke="#7f7fff" points="1302.626,454.345 1303.646,459.308 1304.645,464.271 1305.622,469.233 1306.577,474.196 1307.511,479.159 1308.423,484.121 1309.314,489.084 1310.184,494.047 1311.032,499.01 1311.859,503.972 1312.665,508.935 1313.45,513.898 1314.213,518.861 1314.956,523.823 1315.677,528.786 1316.377,533.749 1317.056,538.711 1317.715,543.674 1318.352,548.637 1318.969,553.6 1319.564,558.562 1320.139,563.525 1320.693,568.488 1321.226,573.451 1321.739,578.413 1322.231,583.376 1322.702,588.339 1323.153,593.301 1323.582,598.264 1323.992,603.227 1324.38,608.19 1324.748,613.152 1325.096,618.115 1325.423,623.078 1325.73,628.04 1326.016,633.003 1326.281,637.966 1326.526,642.929 1326.751,647.891 1326.955,652.854 1327.138,657.817 1327.302,662.78 1327.444,667.742 1327.567,672.705 1327.669,677.668 1327.75,682.63 1327.812,687.593 1327.852,692.556 1327.873,697.519 1327.873,702.481 1327.852,707.444 1327.812,712.407 1327.75,717.37 1327.669,722.332 1327.567,727.295 1327.444,732.258 1327.302,737.22 1327.138,742.183 1326.955,747.146 1326.751,752.109 1326.526,757.071 1326.281,762.034 1326.016,766.997 1325.73,771.96 1325.423,776.922 1325.096,781.885 1324.748,786.848 1324.38,791.81 1323.992,796.773 1323.582,801.736 1323.153,806.699 1322.702,811.661 1322.231,816.624 1321.739,821.587 1321.226,826.549 1320.693,831.512 1320.139,836.475 1319.564,841.438 1318.969,846.4 1318.352,851.363 1317.715,856.326 1317.056,861.289 1316.377,866.251 1315.677,871.214 1314.956,876.177 1314.213,881.139 1313.45,886.102 1312.665,891.065 1311.859,896.028 1311.032,900.99 1310.184,905.953 1309.314,910.916 1308.423,915.879 1307.511,920.841 1306.577,925.804 1305.622,930.767 1304.645,935.729 1303.646,940.692 1302.626,945.655 " />
</g>
</g>
<g><title>element</title>
<polyline fill="none" stroke="#7f7fff" points="1812.831,144.444 1812.831,155.668 1812.831,166.891 1812.831,178.114 1812.831,189.338 1812.831,200.561 1812.831,211.785 1812.831,223.008 1812.831,234.231 1812.831,245.455 1812.831,256.678 1812.831,267.901 1812.831,279.125 1812.831,290.348 1812.831,301.571 1812.831,312.795 1812.831,324.018 1812.831,335.241 1812.831,346.465 1812.831,357.688 1812.831,368.911 1812.831,380.135 1812.831,391.358 1812.831,402.581 1812.831,413.805 1812.831,425.028 1812.831,436.251 1812.831,447.475 1812.831,458.698 1812.831,469.921 1812.831,481.145 1812.831,492.368 1812.831,503.591 1812.831,514.815 1812.831,526.038 1812.831,537.262 1812.831,548.485 1812.831,559.708 1812.831,570.932 1812.831,582.155 1812.831,593.378 1812.831,604.602 1812.831,615.825 1812.831,627.048 1812.831,638.272 1812.831,649.495 1812.831,660.718 1812.831,671.942 1812.831,683.165 1812.831,694.388 1812.831,705.612 1812.831,716.835 1812.831,728.058 1812.831,739.282 1812.831,750.505 1812.831,761.728 1812.831,772.952 1812.831,784.175 1812.831,795.398 1812.831,806.622 1812.831,817.845 1812.831,829.068 1812.831,840.292 1812.831,851.515 1812.831,862.738 1812.831,873.962 1812.831,885.185 1812.831,896.409 1812.831,907.632 1812.831,918.855 1812.831,930.079 1812.831,941.302 1812.831,952.525 1812.831,963.749 1812.831,974.972 1812.831,986.195 1812.831,997.419 1812.831,1008.642 1812.831,1019.865 1812.831,1031.089 1812.831,1042.312 1812.831,1053.535 1812.831,1064.759 1812.831,1075.982 1812.831,1087.205 1812.831,1098.429 1812.831,1109.652 1812.831,1120.875 1812.831,1132.099 1812.831,1143.322 1812.831,1154.545 1812.831,1165.769 1812.831,1176.992 1812.831,1188.215 1812.831,1199.439 1812.831,1210.662 1812.831,1221.886 1812.831,1233.109 1812.831,1244.332 1812.831,1255.556 " />
</g>
</svg>
