<?xml version="1.0" standalone="no"?>
<svg width="2400px" height="1400px" version="1.1" xmlns="http://www.w3.org/2000/svg" xmlns:xlink="http://www.w3.org/1999/xlink">
<rect x="0" y="0" width="2400" height="1400"  fill="#ffffff" />
<defs>
<g id="dot">
<line x1="1" y1="1" x2="0" y2="0"  />
</g>
<g id="cross">
<line x1="-3" y1="0" x2="3" y2="0"  />
<line x1="0" y1="-3" x2="0" y2="3"  />
</g>
<g id="square">
<line x1="-3" y1="-3" x2="-3" y2="3"  />
<line x1="-3" y1="3" x2="3" y2="3"  />
<line x1="3" y1="3" x2="3" y2="-3"  />
<line x1="3" y1="-3" x2="-3" y2="-3"  />
</g>
<g id="round">
<ellipse cx="0" cy="0" rx="3" ry="3"  fill="none" /></g>
<g id="triangle">
<line x1="0" y1="-3" x2="-3" y2="3"  />
<line x1="-3" y1="3" x2="3" y2="3"  />
<line x1="0" y1="-3" x2="3" y2="3"  />
</g>
</defs>
<line x1="585.525" y1="700" x2="1814.475" y2="700"  stroke="#7f7f7f" />
<g><title>element</title>
<g>
<line x1="965.544" y1="499.58" x2="965.544" y2="299.161"  stroke="#7f7fff" />
<line x1="965.544" y1="900.42" x2="965.544" y2="1100.839"  stroke="#7f7fff" />
</g>
<g>
<polyline fill="none" stroke="#7f7fff" points="639.07,375.963 636.871,382.51 634.722,389.056 632.622,395.602 630.571,402.148 628.569,408.694 626.615,415.241 624.71,421.787 622.853,428.333 621.043,434.879 619.281,441.425 617.565,447.972 615.897,454.518 614.275,461.064 612.7,467.61 611.171,474.156 609.688,480.702 608.25,487.249 606.858,493.795 605.512,500.341 604.21,506.887 602.954,513.433 601.743,519.98 600.576,526.526 599.454,533.072 598.376,539.618 597.342,546.164 596.352,552.711 595.407,559.257 594.505,565.803 593.647,572.349 592.832,578.895 592.061,585.442 591.333,591.988 590.649,598.534 590.007,605.08 589.409,611.626 588.854,618.173 588.342,624.719 587.873,631.265 587.447,637.811 587.063,644.357 586.722,650.904 586.424,657.45 586.169,663.996 585.956,670.542 585.786,677.088 585.658,683.635 585.573,690.181 585.53,696.727 585.53,703.273 585.573,709.819 585.658,716.365 585.786,722.912 585.956,729.458 586.169,736.004 586.424,742.55 586.722,749.096 587.063,755.643 587.447,762.189 587.873,768.735 588.342,775.281 588.854,781.827 589.409,788.374 590.007,794.92 590.649,801.466 591.333,808.012 592.061,814.558 592.832,821.105 593.647,827.651 594.505,834.197 595.407,840.743 596.352,847.289 597.342,853.836 598.376,860.382 599.454,866.928 600.576,873.474 601.743,880.02 602.954,886.567 604.21,893.113 605.512,899.659 606.858,906.205 608.25,912.751 609.688,919.298 611.171,925.844 612.7,932.39 614.275,938.936 615.897,945.482 617.565,952.028 619.281,958.575 621.043,965.121 622.853,971.667 624.71,978.213 626.615,984.759 628.569,991.306 630.571,997.852 632.622,1004.398 634.722,1010.944 636.871,1017.49 639.07,1024.037 " />
<line x1="639.07" y1="375.963" x2="673.903" y2="375.963"  stroke="#7f7fff" />
<line x1="639.07" y1="1024.037" x2="673.903" y2="1024.037"  stroke="#7f7fff" />
<polyline fill="none" stroke="#7f7fff" points="673.903,375.963 673.903,382.51 673.903,389.056 673.903,395.602 673.903,402.148 673.903,408.694 673.903,415.241 673.903,421.787 673.903,428.333 673.903,434.879 673.903,441.425 673.903,447.972 673.903,454.518 673.903,461.064 673.903,467.61 673.903,474.156 673.903,480.702 673.903,487.249 673.903,493.795 673.903,500.341 673.903,506.887 673.903,513.433 673.903,519.98 673.903,526.526 673.903,533.072 673.903,539.618 673.903,546.164 673.903,552.711 673.903,559.257 673.903,565.803 673.903,572.349 673.903,578.895 673.903,585.442 673.903,591.988 673.903,598.534 673.903,605.08 673.903,611.626 673.903,618.173 673.903,624.719 673.903,631.265 673.903,637.811 673.903,644.357 673.903,650.904 673.903,657.45 673.903,663.996 673.903,670.542 673.903,677.088 673.903,683.635 673.903,690.181 673.903,696.727 673.903,703.273 673.903,709.819 673.903,716.365 673.903,722.912 673.903,729.458 673.903,736.004 673.903,742.55 673.903,749.096 673.903,755.643 673.903,762.189 673.903,768.735 673.903,775.281 673.903,781.827 673.903,788.374 673.903,794.92 673.903,801.466 673.903,808.012 673.903,814.558 673.903,821.105 673.903,827.651 673.903,834.197 673.903,840.743 673.903,847.289 673.903,853.836 673.903,860.382 673.903,866.928 673.903,873.474 673.903,880.02 673.903,886.567 673.903,893.113 673.903,899.659 673.903,906.205 673.903,912.751 673.903,919.298 673.903,925.844 673.903,932.39 673.903,938.936 673.903,945.482 673.903,952.028 673.903,958.575 673.903,965.121 673.903,971.667 673.903,978.213 673.903,984.759 673.903,991.306 673.903,997.852 673.903,1004.398 673.903,1010.944 673.903,1017.49 673.903,1024.037 " />
</g>
<g>
<polyline fill="none" stroke="#7f7fff" points="781.817,412.261 776.909,418.074 772.169,423.887 767.591,429.7 763.167,435.513 758.892,441.326 754.761,447.139 750.769,452.952 746.911,458.764 743.184,464.577 739.583,470.39 736.105,476.203 732.746,482.016 729.504,487.829 726.375,493.642 723.357,499.455 720.447,505.268 717.644,511.081 714.943,516.894 712.345,522.706 709.846,528.519 707.444,534.332 705.139,540.145 702.929,545.958 700.811,551.771 698.785,557.584 696.849,563.397 695.002,569.21 693.243,575.023 691.571,580.835 689.984,586.648 688.482,592.461 687.065,598.274 685.73,604.087 684.477,609.9 683.306,615.713 682.216,621.526 681.206,627.339 680.276,633.152 679.426,638.965 678.654,644.777 677.96,650.59 677.344,656.403 676.806,662.216 676.346,668.029 675.962,673.842 675.656,679.655 675.426,685.468 675.273,691.281 675.196,697.094 675.196,702.906 675.273,708.719 675.426,714.532 675.656,720.345 675.962,726.158 676.346,731.971 676.806,737.784 677.344,743.597 677.96,749.41 678.654,755.223 679.426,761.035 680.276,766.848 681.206,772.661 682.216,778.474 683.306,784.287 684.477,790.1 685.73,795.913 687.065,801.726 688.482,807.539 689.984,813.352 691.571,819.165 693.243,824.977 695.002,830.79 696.849,836.603 698.785,842.416 700.811,848.229 702.929,854.042 705.139,859.855 707.444,865.668 709.846,871.481 712.345,877.294 714.943,883.106 717.644,888.919 720.447,894.732 723.357,900.545 726.375,906.358 729.504,912.171 732.746,917.984 736.105,923.797 739.583,929.61 743.184,935.423 746.911,941.236 750.769,947.048 754.761,952.861 758.892,958.674 763.167,964.487 767.591,970.3 772.169,976.113 776.909,981.926 781.817,987.739 " />
<line x1="781.817" y1="412.261" x2="847.02" y2="412.261"  stroke="#7f7fff" />
<line x1="781.817" y1="987.739" x2="847.02" y2="987.739"  stroke="#7f7fff" />
<polyline fill="none" stroke="#7f7fff" points="847.02,412.261 845.104,418.074 843.232,423.887 841.403,429.7 839.616,435.513 837.872,441.326 836.17,447.139 834.51,452.952 832.891,458.764 831.314,464.577 829.778,470.39 828.283,476.203 826.829,482.016 825.416,487.829 824.042,493.642 822.709,499.455 821.416,505.268 820.163,511.081 818.949,516.894 817.775,522.706 816.64,528.519 815.545,534.332 814.488,540.145 813.471,545.958 812.492,551.771 811.552,557.584 810.65,563.397 809.787,569.21 808.962,575.023 808.175,580.835 807.427,586.648 806.716,592.461 806.043,598.274 805.408,604.087 804.811,609.9 804.252,615.713 803.73,621.526 803.246,627.339 802.799,633.152 802.389,638.965 802.017,644.777 801.683,650.59 801.385,656.403 801.125,662.216 800.902,668.029 800.717,673.842 800.568,679.655 800.457,685.468 800.382,691.281 800.345,697.094 800.345,702.906 800.382,708.719 800.457,714.532 800.568,720.345 800.717,726.158 800.902,731.971 801.125,737.784 801.385,743.597 801.683,749.41 802.017,755.223 802.389,761.035 802.799,766.848 803.246,772.661 803.73,778.474 804.252,784.287 804.811,790.1 805.408,795.913 806.043,801.726 806.716,807.539 807.427,813.352 808.175,819.165 808.962,824.977 809.787,830.79 810.65,836.603 811.552,842.416 812.492,848.229 813.471,854.042 814.488,859.855 815.545,865.668 816.64,871.481 817.775,877.294 818.949,883.106 820.163,888.919 821.416,894.732 822.709,900.545 824.042,906.358 825.416,912.171 826.829,917.984 828.283,923.797 829.778,929.61 831.314,935.423 832.891,941.236 834.51,947.048 836.17,952.861 837.872,958.674 839.616,964.487 841.403,970.3 843.232,976.113 845.104,981.926 847.02,987.739 " />
</g>
<g>
<polyline fill="none" stroke="#7f7fff" points="841.753,429.353 840.892,434.82 840.049,440.288 839.225,445.756 838.418,451.223 837.629,456.691 836.858,462.159 836.105,467.626 835.37,473.094 834.653,478.561 833.953,484.029 833.271,489.497 832.607,494.964 831.961,500.432 831.332,505.899 830.721,511.367 830.128,516.835 829.552,522.302 828.994,527.77 828.454,533.238 827.931,538.705 827.426,544.173 826.938,549.64 826.468,555.108 826.015,560.576 825.58,566.043 825.162,571.511 824.762,576.979 824.38,582.446 824.015,587.914 823.667,593.381 823.337,598.849 823.024,604.317 822.729,609.784 822.451,615.252 822.19,620.72 821.947,626.187 821.721,631.655 821.513,637.122 821.322,642.59 821.148,648.058 820.992,653.525 820.853,658.993 820.732,664.46 820.628,669.928 820.541,675.396 820.472,680.863 820.42,686.331 820.385,691.799 820.368,697.266 820.368,702.734 820.385,708.201 820.42,713.669 820.472,719.137 820.541,724.604 820.628,730.072 820.732,735.54 820.853,741.007 820.992,746.475 821.148,751.942 821.322,757.41 821.513,762.878 821.721,768.345 821.947,773.813 822.19,779.28 822.451,784.748 822.729,790.216 823.024,795.683 823.337,801.151 823.667,806.619 824.015,812.086 824.38,817.554 824.762,823.021 825.162,828.489 825.58,833.957 826.015,839.424 826.468,844.892 826.938,850.36 827.426,855.827 827.931,861.295 828.454,866.762 828.994,872.23 829.552,877.698 830.128,883.165 830.721,888.633 831.332,894.101 831.961,899.568 832.607,905.036 833.271,910.503 833.953,915.971 834.653,921.439 835.37,926.906 836.105,932.374 836.858,937.841 837.629,943.309 838.418,948.777 839.225,954.244 840.049,959.712 840.892,965.18 841.753,970.647 " />
<line x1="943.387" y1="429.353" x2="943.387" y2="493.795"  stroke="#7f7fff" />
<line x1="841.753" y1="429.353" x2="943.387" y2="429.353"  stroke="#7f7fff" />
<line x1="943.387" y1="970.647" x2="943.387" y2="906.205"  stroke="#7f7fff" />
<line x1="841.753" y1="970.647" x2="943.387" y2="970.647"  stroke="#7f7fff" />
<polyline fill="none" stroke="#7f7fff" points="943.387,493.795 939.253,497.961 935.281,502.126 931.463,506.292 927.79,510.458 924.256,514.624 920.854,518.789 917.578,522.955 914.423,527.121 911.383,531.287 908.455,535.452 905.635,539.618 902.918,543.784 900.301,547.95 897.781,552.116 895.356,556.281 893.022,560.447 890.777,564.613 888.619,568.779 886.545,572.944 884.553,577.11 882.643,581.276 880.811,585.442 879.056,589.607 877.378,593.773 875.773,597.939 874.242,602.105 872.783,606.27 871.394,610.436 870.075,614.602 868.824,618.768 867.641,622.933 866.525,627.099 865.475,631.265 864.491,635.431 863.571,639.596 862.715,643.762 861.922,647.928 861.193,652.094 860.526,656.26 859.921,660.425 859.377,664.591 858.895,668.757 858.473,672.923 858.113,677.088 857.813,681.254 857.573,685.42 857.393,689.586 857.273,693.751 857.213,697.917 857.213,702.083 857.273,706.249 857.393,710.414 857.573,714.58 857.813,718.746 858.113,722.912 858.473,727.077 858.895,731.243 859.377,735.409 859.921,739.575 860.526,743.74 861.193,747.906 861.922,752.072 862.715,756.238 863.571,760.404 864.491,764.569 865.475,768.735 866.525,772.901 867.641,777.067 868.824,781.232 870.075,785.398 871.394,789.564 872.783,793.73 874.242,797.895 875.773,802.061 877.378,806.227 879.056,810.393 880.811,814.558 882.643,818.724 884.553,822.89 886.545,827.056 888.619,831.221 890.777,835.387 893.022,839.553 895.356,843.719 897.781,847.884 900.301,852.05 902.918,856.216 905.635,860.382 908.455,864.548 911.383,868.713 914.423,872.879 917.578,877.045 920.854,881.211 924.256,885.376 927.79,889.542 931.463,893.708 935.281,897.874 939.253,902.039 943.387,906.205 " />
</g>
<g>
<polyline fill="none" stroke="#7f7fff" points="993.917,498.181 997.293,502.258 1000.556,506.335 1003.709,510.413 1006.756,514.49 1009.702,518.567 1012.551,522.644 1015.304,526.721 1017.966,530.798 1020.539,534.875 1023.025,538.953 1025.427,543.03 1027.747,547.107 1029.987,551.184 1032.15,555.261 1034.236,559.338 1036.248,563.415 1038.188,567.493 1040.055,571.57 1041.853,575.647 1043.583,579.724 1045.244,583.801 1046.84,587.878 1048.37,591.956 1049.837,596.033 1051.24,600.11 1052.58,604.187 1053.86,608.264 1055.078,612.341 1056.237,616.418 1057.336,620.496 1058.376,624.573 1059.359,628.65 1060.284,632.727 1061.152,636.804 1061.964,640.881 1062.719,644.958 1063.419,649.036 1064.064,653.113 1064.654,657.19 1065.189,661.267 1065.67,665.344 1066.097,669.421 1066.47,673.499 1066.789,677.576 1067.055,681.653 1067.267,685.73 1067.427,689.807 1067.533,693.884 1067.586,697.961 1067.586,702.039 1067.533,706.116 1067.427,710.193 1067.267,714.27 1067.055,718.347 1066.789,722.424 1066.47,726.501 1066.097,730.579 1065.67,734.656 1065.189,738.733 1064.654,742.81 1064.064,746.887 1063.419,750.964 1062.719,755.042 1061.964,759.119 1061.152,763.196 1060.284,767.273 1059.359,771.35 1058.376,775.427 1057.336,779.504 1056.237,783.582 1055.078,787.659 1053.86,791.736 1052.58,795.813 1051.24,799.89 1049.837,803.967 1048.37,808.044 1046.84,812.122 1045.244,816.199 1043.583,820.276 1041.853,824.353 1040.055,828.43 1038.188,832.507 1036.248,836.585 1034.236,840.662 1032.15,844.739 1029.987,848.816 1027.747,852.893 1025.427,856.97 1023.025,861.047 1020.539,865.125 1017.966,869.202 1015.304,873.279 1012.551,877.356 1009.702,881.433 1006.756,885.51 1003.709,889.587 1000.556,893.665 997.293,897.742 993.917,901.819 " />
<line x1="993.917" y1="441.99" x2="993.917" y2="498.181"  stroke="#7f7fff" />
<line x1="993.917" y1="441.99" x2="1097.112" y2="441.99"  stroke="#7f7fff" />
<line x1="993.917" y1="958.01" x2="993.917" y2="901.819"  stroke="#7f7fff" />
<line x1="993.917" y1="958.01" x2="1097.112" y2="958.01"  stroke="#7f7fff" />
<polyline fill="none" stroke="#7f7fff" points="1097.112,441.99 1096.773,447.202 1096.441,452.415 1096.116,457.627 1095.798,462.839 1095.486,468.052 1095.182,473.264 1094.885,478.476 1094.594,483.689 1094.311,488.901 1094.034,494.113 1093.765,499.326 1093.502,504.538 1093.246,509.75 1092.997,514.963 1092.755,520.175 1092.52,525.387 1092.292,530.6 1092.071,535.812 1091.857,541.024 1091.65,546.237 1091.449,551.449 1091.256,556.661 1091.069,561.874 1090.89,567.086 1090.717,572.298 1090.551,577.51 1090.392,582.723 1090.24,587.935 1090.095,593.147 1089.957,598.36 1089.826,603.572 1089.702,608.784 1089.584,613.997 1089.474,619.209 1089.37,624.421 1089.273,629.634 1089.184,634.846 1089.101,640.058 1089.025,645.271 1088.956,650.483 1088.894,655.695 1088.838,660.908 1088.79,666.12 1088.749,671.332 1088.714,676.545 1088.687,681.757 1088.666,686.969 1088.652,692.182 1088.645,697.394 1088.645,702.606 1088.652,707.818 1088.666,713.031 1088.687,718.243 1088.714,723.455 1088.749,728.668 1088.79,733.88 1088.838,739.092 1088.894,744.305 1088.956,749.517 1089.025,754.729 1089.101,759.942 1089.184,765.154 1089.273,770.366 1089.37,775.579 1089.474,780.791 1089.584,786.003 1089.702,791.216 1089.826,796.428 1089.957,801.64 1090.095,806.853 1090.24,812.065 1090.392,817.277 1090.551,822.49 1090.717,827.702 1090.89,832.914 1091.069,838.126 1091.256,843.339 1091.449,848.551 1091.65,853.763 1091.857,858.976 1092.071,864.188 1092.292,869.4 1092.52,874.613 1092.755,879.825 1092.997,885.037 1093.246,890.25 1093.502,895.462 1093.765,900.674 1094.034,905.887 1094.311,911.099 1094.594,916.311 1094.885,921.524 1095.182,926.736 1095.486,931.948 1095.798,937.161 1096.116,942.373 1096.441,947.585 1096.773,952.798 1097.112,958.01 " />
<line x1="1097.112" y1="441.99" x2="1123.959" y2="441.99"  stroke="#7f7fff" />
<line x1="1097.112" y1="958.01" x2="1123.959" y2="958.01"  stroke="#7f7fff" />
<polyline fill="none" stroke="#7f7fff" points="1123.959,441.99 1126.966,447.202 1129.891,452.415 1132.737,457.627 1135.506,462.839 1138.197,468.052 1140.814,473.264 1143.357,478.476 1145.827,483.689 1148.226,488.901 1150.555,494.113 1152.814,499.326 1155.005,504.538 1157.128,509.75 1159.185,514.963 1161.176,520.175 1163.103,525.387 1164.965,530.6 1166.765,535.812 1168.501,541.024 1170.176,546.237 1171.79,551.449 1173.342,556.661 1174.835,561.874 1176.268,567.086 1177.642,572.298 1178.958,577.51 1180.216,582.723 1181.415,587.935 1182.558,593.147 1183.644,598.36 1184.673,603.572 1185.646,608.784 1186.564,613.997 1187.426,619.209 1188.233,624.421 1188.984,629.634 1189.681,634.846 1190.324,640.058 1190.912,645.271 1191.447,650.483 1191.927,655.695 1192.354,660.908 1192.727,666.12 1193.046,671.332 1193.312,676.545 1193.525,681.757 1193.685,686.969 1193.791,692.182 1193.844,697.394 1193.844,702.606 1193.791,707.818 1193.685,713.031 1193.525,718.243 1193.312,723.455 1193.046,728.668 1192.727,733.88 1192.354,739.092 1191.927,744.305 1191.447,749.517 1190.912,754.729 1190.324,759.942 1189.681,765.154 1188.984,770.366 1188.233,775.579 1187.426,780.791 1186.564,786.003 1185.646,791.216 1184.673,796.428 1183.644,801.64 1182.558,806.853 1181.415,812.065 1180.216,817.277 1178.958,822.49 1177.642,827.702 1176.268,832.914 1174.835,838.126 1173.342,843.339 1171.79,848.551 1170.176,853.763 1168.501,858.976 1166.765,864.188 1164.965,869.4 1163.103,874.613 1161.176,879.825 1159.185,885.037 1157.128,890.25 1155.005,895.462 1152.814,900.674 1150.555,905.887 1148.226,911.099 1145.827,916.311 1143.357,921.524 1140.814,926.736 1138.197,931.948 1135.506,937.161 1132.737,942.373 1129.891,947.585 1126.966,952.798 1123.959,958.01 " />
</g>
<g>
<polyline fill="none" stroke="#7f7fff" points="1189.466,446.483 1189.719,451.604 1189.966,456.726 1190.208,461.848 1190.445,466.969 1190.677,472.091 1190.904,477.212 1191.125,482.334 1191.342,487.455 1191.553,492.577 1191.759,497.698 1191.96,502.82 1192.156,507.942 1192.346,513.063 1192.532,518.185 1192.712,523.306 1192.887,528.428 1193.057,533.549 1193.222,538.671 1193.381,543.792 1193.536,548.914 1193.685,554.036 1193.829,559.157 1193.968,564.279 1194.102,569.4 1194.231,574.522 1194.355,579.643 1194.473,584.765 1194.586,589.886 1194.694,595.008 1194.797,600.13 1194.895,605.251 1194.988,610.373 1195.075,615.494 1195.158,620.616 1195.235,625.737 1195.307,630.859 1195.374,635.981 1195.436,641.102 1195.492,646.224 1195.544,651.345 1195.59,656.467 1195.631,661.588 1195.667,666.71 1195.698,671.831 1195.724,676.953 1195.745,682.075 1195.76,687.196 1195.77,692.318 1195.775,697.439 1195.775,702.561 1195.77,707.682 1195.76,712.804 1195.745,717.925 1195.724,723.047 1195.698,728.169 1195.667,733.29 1195.631,738.412 1195.59,743.533 1195.544,748.655 1195.492,753.776 1195.436,758.898 1195.374,764.019 1195.307,769.141 1195.235,774.263 1195.158,779.384 1195.075,784.506 1194.988,789.627 1194.895,794.749 1194.797,799.87 1194.694,804.992 1194.586,810.114 1194.473,815.235 1194.355,820.357 1194.231,825.478 1194.102,830.6 1193.968,835.721 1193.829,840.843 1193.685,845.964 1193.536,851.086 1193.381,856.208 1193.222,861.329 1193.057,866.451 1192.887,871.572 1192.712,876.694 1192.532,881.815 1192.346,886.937 1192.156,892.058 1191.96,897.18 1191.759,902.302 1191.553,907.423 1191.342,912.545 1191.125,917.666 1190.904,922.788 1190.677,927.909 1190.445,933.031 1190.208,938.152 1189.966,943.274 1189.719,948.396 1189.466,953.517 " />
<line x1="1189.466" y1="446.483" x2="1226.979" y2="446.483"  stroke="#7f7fff" />
<line x1="1189.466" y1="953.517" x2="1226.979" y2="953.517"  stroke="#7f7fff" />
<polyline fill="none" stroke="#7f7fff" points="1226.979,446.483 1228.954,451.604 1230.883,456.726 1232.766,461.848 1234.604,466.969 1236.397,472.091 1238.145,477.212 1239.849,482.334 1241.51,487.455 1243.127,492.577 1244.7,497.698 1246.231,502.82 1247.719,507.942 1249.165,513.063 1250.568,518.185 1251.93,523.306 1253.251,528.428 1254.53,533.549 1255.768,538.671 1256.965,543.792 1258.122,548.914 1259.238,554.036 1260.314,559.157 1261.35,564.279 1262.346,569.4 1263.302,574.522 1264.219,579.643 1265.096,584.765 1265.935,589.886 1266.734,595.008 1267.494,600.13 1268.216,605.251 1268.899,610.373 1269.543,615.494 1270.149,620.616 1270.716,625.737 1271.246,630.859 1271.737,635.981 1272.19,641.102 1272.605,646.224 1272.982,651.345 1273.321,656.467 1273.622,661.588 1273.886,666.71 1274.112,671.831 1274.3,676.953 1274.451,682.075 1274.563,687.196 1274.639,692.318 1274.676,697.439 1274.676,702.561 1274.639,707.682 1274.563,712.804 1274.451,717.925 1274.3,723.047 1274.112,728.169 1273.886,733.29 1273.622,738.412 1273.321,743.533 1272.982,748.655 1272.605,753.776 1272.19,758.898 1271.737,764.019 1271.246,769.141 1270.716,774.263 1270.149,779.384 1269.543,784.506 1268.899,789.627 1268.216,794.749 1267.494,799.87 1266.734,804.992 1265.935,810.114 1265.096,815.235 1264.219,820.357 1263.302,825.478 1262.346,830.6 1261.35,835.721 1260.314,840.843 1259.238,845.964 1258.122,851.086 1256.965,856.208 1255.768,861.329 1254.53,866.451 1253.251,871.572 1251.93,876.694 1250.568,881.815 1249.165,886.937 1247.719,892.058 1246.231,897.18 1244.7,902.302 1243.127,907.423 1241.51,912.545 1239.849,917.666 1238.145,922.788 1236.397,927.909 1234.604,933.031 1232.766,938.152 1230.883,943.274 1228.954,948.396 1226.979,953.517 " />
</g>
<g>
<polyline fill="none" stroke="#7f7fff" points="1285.213,454.345 1284.791,459.308 1284.378,464.271 1283.973,469.233 1283.577,474.196 1283.19,479.159 1282.811,484.121 1282.441,489.084 1282.08,494.047 1281.727,499.01 1281.383,503.972 1281.048,508.935 1280.721,513.898 1280.403,518.861 1280.093,523.823 1279.792,528.786 1279.5,533.749 1279.216,538.711 1278.941,543.674 1278.675,548.637 1278.417,553.6 1278.168,558.562 1277.927,563.525 1277.695,568.488 1277.472,573.451 1277.257,578.413 1277.051,583.376 1276.854,588.339 1276.665,593.301 1276.485,598.264 1276.313,603.227 1276.15,608.19 1275.995,613.152 1275.849,618.115 1275.712,623.078 1275.583,628.04 1275.463,633.003 1275.351,637.966 1275.248,642.929 1275.154,647.891 1275.068,652.854 1274.991,657.817 1274.922,662.78 1274.862,667.742 1274.811,672.705 1274.768,677.668 1274.733,682.63 1274.708,687.593 1274.691,692.556 1274.682,697.519 1274.682,702.481 1274.691,707.444 1274.708,712.407 1274.733,717.37 1274.768,722.332 1274.811,727.295 1274.862,732.258 1274.922,737.22 1274.991,742.183 1275.068,747.146 1275.154,752.109 1275.248,757.071 1275.351,762.034 1275.463,766.997 1275.583,771.96 1275.712,776.922 1275.849,781.885 1275.995,786.848 1276.15,791.81 1276.313,796.773 1276.485,801.736 1276.665,806.699 1276.854,811.661 1277.051,816.624 1277.257,821.587 1277.472,826.549 1277.695,831.512 1277.927,836.475 1278.168,841.438 1278.417,846.4 1278.675,851.363 1278.941,856.326 1279.216,861.289 1279.5,866.251 1279.792,871.214 1280.093,876.177 1280.403,881.139 1280.721,886.102 1281.048,891.065 1281.383,896.028 1281.727,900.99 1282.08,905.953 1282.441,910.916 1282.811,915.879 1283.19,920.841 1283.577,925.804 1283.973,930.767 1284.378,935.729 1284.791,940.692 1285.213,945.655 " />
<line x1="1285.213" y1="454.345" x2="1300.939" y2="454.345"  stroke="#7f7fff" />
<line x1="1285.213" y1="945.655" x2="1300.939" y2="945.655"  stroke="#7f7fff" />
<polyline fill="none" stroke="#7f7fff" points="1300.939,454.345 1301.961,459.308 1302.961,464.271 1303.94,469.233 1304.897,474.196 1305.833,479.159 1306.746,484.121 1307.639,489.084 1308.51,494.047 1309.36,499.01 1310.188,503.972 1310.995,508.935 1311.781,513.898 1312.546,518.861 1313.29,523.823 1314.012,528.786 1314.714,533.749 1315.394,538.711 1316.054,543.674 1316.692,548.637 1317.31,553.6 1317.906,558.562 1318.482,563.525 1319.037,568.488 1319.571,573.451 1320.085,578.413 1320.578,583.376 1321.05,588.339 1321.501,593.301 1321.931,598.264 1322.341,603.227 1322.731,608.19 1323.099,613.152 1323.448,618.115 1323.775,623.078 1324.082,628.04 1324.369,633.003 1324.635,637.966 1324.88,642.929 1325.105,647.891 1325.309,652.854 1325.493,657.817 1325.657,662.78 1325.8,667.742 1325.923,672.705 1326.025,677.668 1326.106,682.63 1326.168,687.593 1326.209,692.556 1326.229,697.519 1326.229,702.481 1326.209,707.444 1326.168,712.407 1326.106,717.37 1326.025,722.332 1325.923,727.295 1325.8,732.258 1325.657,737.22 1325.493,742.183 1325.309,747.146 1325.105,752.109 1324.88,757.071 1324.635,762.034 1324.369,766.997 1324.082,771.96 1323.775,776.922 1323.448,781.885 1323.099,786.848 1322.731,791.81 1322.341,796.773 1321.931,801.736 1321.501,806.699 1321.05,811.661 1320.578,816.624 1320.085,821.587 1319.571,826.549 1319.037,831.512 1318.482,836.475 1317.906,841.438 1317.31,846.4 1316.692,851.363 1316.054,856.326 1315.394,861.289 1314.714,866.251 1314.012,871.214 1313.29,876.177 1312.546,881.139 1311.781,886.102 1310.995,891.065 1310.188,896.028 1309.36,900.99 1308.51,905.953 1307.639,910.916 1306.746,915.879 1305.833,920.841 1304.897,925.804 1303.94,930.767 1302.961,935.729 1301.961,940.692 1300.939,945.655 " />
</g>
</g>
<g><title>element</title>
<polyline fill="none" stroke="#7f7fff" points="1814.475,144.444 1814.475,155.668 1814.475,166.891 1814.475,178.114 1814.475,189.338 1814.475,200.561 1814.475,211.785 1814.475,223.008 1814.475,234.231 1814.475,245.455 1814.475,256.678 1814.475,267.901 1814.475,279.125 1814.475,290.348 1814.475,301.571 1814.475,312.795 1814.475,324.018 1814.475,335.241 1814.475,346.465 1814.475,357.688 1814.475,368.911 1814.475,380.135 1814.475,391.358 1814.475,402.581 1814.475,413.805 1814.475,425.028 1814.475,436.251 1814.475,447.475 1814.475,458.698 1814.475,469.921 1814.475,481.145 1814.475,492.368 1814.475,503.591 1814.475,514.815 1814.475,526.038 1814.475,537.262 1814.475,548.485 1814.475,559.708 1814.475,570.932 1814.475,582.155 1814.475,593.378 1814.475,604.602 1814.475,615.825 1814.475,627.048 1814.475,638.272 1814.475,649.495 1814.475,660.718 1814.475,671.942 1814.475,683.165 1814.475,694.388 1814.475,705.612 1814.475,716.835 1814.475,728.058 1814.475,739.282 1814.475,750.505 1814.475,761.728 1814.475,772.952 1814.475,784.175 1814.475,795.398 1814.475,806.622 1814.475,817.845 1814.475,829.068 1814.475,840.292 1814.475,851.515 1814.475,862.738 1814.475,873.962 1814.475,885.185 1814.475,896.409 1814.475,907.632 1814.475,918.855 1814.475,930.079 1814.475,941.302 1814.475,952.525 1814.475,963.749 1814.475,974.972 1814.475,986.195 1814.475,997.419 1814.475,1008.642 1814.475,1019.865 1814.475,1031.089 1814.475,1042.312 1814.475,1053.535 1814.475,1064.759 1814.475,1075.982 1814.475,1087.205 1814.475,1098.429 1814.475,1109.652 1814.475,1120.875 1814.475,1132.099 1814.475,1143.322 1814.475,1154.545 1814.475,1165.769 1814.475,1176.992 1814.475,1188.215 1814.475,1199.439 1814.475,1210.662 1814.475,1221.886 1814.475,1233.109 1814.475,1244.332 1814.475,1255.556 " />
</g>
</svg>
