<?xml version="1.0" standalone="no"?>
<svg width="2400px" height="1400px" version="1.1" xmlns="http://www.w3.org/2000/svg" xmlns:xlink="http://www.w3.org/1999/xlink">
<rect x="0" y="0" width="2400" height="1400"  fill="#ffffff" />
<defs>
<g id="dot">
<line x1="1" y1="1" x2="0" y2="0"  />
</g>
<g id="cross">
<line x1="-3" y1="0" x2="3" y2="0"  />
<line x1="0" y1="-3" x2="0" y2="3"  />
</g>
<g id="square">
<line x1="-3" y1="-3" x2="-3" y2="3"  />
<line x1="-3" y1="3" x2="3" y2="3"  />
<line x1="3" y1="3" x2="3" y2="-3"  />
<line x1="3" y1="-3" x2="-3" y2="-3"  />
</g>
<g id="round">
<ellipse cx="0" cy="0" rx="3" ry="3"  fill="none" /></g>
<g id="triangle">
<line x1="0" y1="-3" x2="-3" y2="3"  />
<line x1="-3" y1="3" x2="3" y2="3"  />
<line x1="0" y1="-3" x2="3" y2="3"  />
</g>
</defs>
<line x1="247.619" y1="700" x2="2152.381" y2="700"  stroke="#7f7f7f" />
<g><title>element</title>
<g>
<line x1="1215.819" y1="417.396" x2="1215.819" y2="134.792"  stroke="#7f7fff" />
<line x1="1215.819" y1="982.604" x2="1215.819" y2="1265.208"  stroke="#7f7fff" />
</g>
<g>
<polyline fill="none" stroke="#7f7fff" points="302.884,306.013 300.91,313.973 298.955,321.932 297.018,329.891 295.103,337.851 293.211,345.81 291.344,353.769 289.502,361.729 287.688,369.688 285.903,377.647 284.148,385.607 282.425,393.566 280.734,401.525 279.077,409.485 277.455,417.444 275.868,425.403 274.318,433.363 272.806,441.322 271.331,449.281 269.896,457.241 268.501,465.2 267.147,473.159 265.834,481.119 264.563,489.078 263.334,497.037 262.149,504.997 261.007,512.956 259.909,520.915 258.856,528.875 257.849,536.834 256.886,544.793 255.969,552.753 255.099,560.712 254.275,568.671 253.499,576.63 252.769,584.59 252.087,592.549 251.452,600.508 250.866,608.468 250.327,616.427 249.837,624.386 249.396,632.346 249.003,640.305 248.659,648.264 248.364,656.224 248.118,664.183 247.921,672.142 247.773,680.102 247.674,688.061 247.625,696.02 247.625,703.98 247.674,711.939 247.773,719.898 247.921,727.858 248.118,735.817 248.364,743.776 248.659,751.736 249.003,759.695 249.396,767.654 249.837,775.614 250.327,783.573 250.866,791.532 251.452,799.492 252.087,807.451 252.769,815.41 253.499,823.37 254.275,831.329 255.099,839.288 255.969,847.247 256.886,855.207 257.849,863.166 258.856,871.125 259.909,879.085 261.007,887.044 262.149,895.003 263.334,902.963 264.563,910.922 265.834,918.881 267.147,926.841 268.501,934.8 269.896,942.759 271.331,950.719 272.806,958.678 274.318,966.637 275.868,974.597 277.455,982.556 279.077,990.515 280.734,998.475 282.425,1006.434 284.148,1014.393 285.903,1022.353 287.688,1030.312 289.502,1038.271 291.344,1046.231 293.211,1054.19 295.103,1062.149 297.018,1070.109 298.955,1078.068 300.91,1086.027 302.884,1093.987 " />
<line x1="330.82" y1="306.013" x2="330.82" y2="313.123"  stroke="#7f7fff" />
<line x1="302.884" y1="306.013" x2="330.82" y2="306.013"  stroke="#7f7fff" />
<line x1="330.82" y1="1093.987" x2="330.82" y2="1086.877"  stroke="#7f7fff" />
<line x1="302.884" y1="1093.987" x2="330.82" y2="1093.987"  stroke="#7f7fff" />
<polyline fill="none" stroke="#7f7fff" points="330.82,313.123 331.118,320.939 331.41,328.754 331.695,336.57 331.975,344.386 332.248,352.201 332.516,360.017 332.777,367.833 333.033,375.649 333.282,383.464 333.525,391.28 333.762,399.096 333.993,406.911 334.218,414.727 334.437,422.543 334.649,430.358 334.856,438.174 335.057,445.99 335.251,453.806 335.439,461.621 335.622,469.437 335.798,477.253 335.968,485.068 336.132,492.884 336.29,500.7 336.442,508.515 336.588,516.331 336.728,524.147 336.861,531.963 336.989,539.778 337.11,547.594 337.226,555.41 337.335,563.225 337.439,571.041 337.536,578.857 337.627,586.672 337.712,594.488 337.791,602.304 337.864,610.119 337.931,617.935 337.991,625.751 338.046,633.567 338.095,641.382 338.137,649.198 338.174,657.014 338.204,664.829 338.228,672.645 338.247,680.461 338.259,688.276 338.265,696.092 338.265,703.908 338.259,711.724 338.247,719.539 338.228,727.355 338.204,735.171 338.174,742.986 338.137,750.802 338.095,758.618 338.046,766.433 337.991,774.249 337.931,782.065 337.864,789.881 337.791,797.696 337.712,805.512 337.627,813.328 337.536,821.143 337.439,828.959 337.335,836.775 337.226,844.59 337.11,852.406 336.989,860.222 336.861,868.037 336.728,875.853 336.588,883.669 336.442,891.485 336.29,899.3 336.132,907.116 335.968,914.932 335.798,922.747 335.622,930.563 335.439,938.379 335.251,946.194 335.057,954.01 334.856,961.826 334.649,969.642 334.437,977.457 334.218,985.273 333.993,993.089 333.762,1000.904 333.525,1008.72 333.282,1016.536 333.033,1024.351 332.777,1032.167 332.516,1039.983 332.248,1047.799 331.975,1055.614 331.695,1063.43 331.41,1071.246 331.118,1079.061 330.82,1086.877 " />
<line x1="481.862" y1="313.123" x2="481.862" y2="354.595"  stroke="#7f7fff" />
<line x1="330.82" y1="313.123" x2="481.862" y2="313.123"  stroke="#7f7fff" />
<line x1="481.862" y1="1086.877" x2="481.862" y2="1045.405"  stroke="#7f7fff" />
<line x1="330.82" y1="1086.877" x2="481.862" y2="1086.877"  stroke="#7f7fff" />
<polyline fill="none" stroke="#7f7fff" points="481.862,354.595 476.968,361.573 472.22,368.551 467.615,375.529 463.149,382.507 458.818,389.485 454.619,396.463 450.548,403.44 446.602,410.418 442.78,417.396 439.077,424.374 435.491,431.352 432.02,438.33 428.663,445.308 425.416,452.286 422.278,459.263 419.246,466.241 416.32,473.219 413.497,480.197 410.777,487.175 408.156,494.153 405.635,501.131 403.211,508.108 400.883,515.086 398.651,522.064 396.513,529.042 394.468,536.02 392.515,542.998 390.653,549.976 388.881,556.954 387.199,563.931 385.605,570.909 384.099,577.887 382.681,584.865 381.349,591.843 380.103,598.821 378.942,605.799 377.866,612.777 376.875,619.754 375.968,626.732 375.145,633.71 374.405,640.688 373.748,647.666 373.173,654.644 372.681,661.622 372.272,668.6 371.944,675.577 371.699,682.555 371.535,689.533 371.454,696.511 371.454,703.489 371.535,710.467 371.699,717.445 371.944,724.423 372.272,731.4 372.681,738.378 373.173,745.356 373.748,752.334 374.405,759.312 375.145,766.29 375.968,773.268 376.875,780.246 377.866,787.223 378.942,794.201 380.103,801.179 381.349,808.157 382.681,815.135 384.099,822.113 385.605,829.091 387.199,836.069 388.881,843.046 390.653,850.024 392.515,857.002 394.468,863.98 396.513,870.958 398.651,877.936 400.883,884.914 403.211,891.892 405.635,898.869 408.156,905.847 410.777,912.825 413.497,919.803 416.32,926.781 419.246,933.759 422.278,940.737 425.416,947.714 428.663,954.692 432.02,961.67 435.491,968.648 439.077,975.626 442.78,982.604 446.602,989.582 450.548,996.56 454.619,1003.537 458.818,1010.515 463.149,1017.493 467.615,1024.471 472.22,1031.449 476.968,1038.427 481.862,1045.405 " />
</g>
<g>
<polyline fill="none" stroke="#7f7fff" points="497.169,353.41 500.968,360.412 504.667,367.414 508.269,374.416 511.774,381.418 515.185,388.419 518.502,395.421 521.728,402.423 524.864,409.425 527.911,416.427 530.87,423.428 533.743,430.43 536.529,437.432 539.232,444.434 541.851,451.436 544.388,458.438 546.843,465.439 549.217,472.441 551.512,479.443 553.727,486.445 555.865,493.447 557.924,500.448 559.907,507.45 561.814,514.452 563.645,521.454 565.402,528.456 567.084,535.457 568.692,542.459 570.226,549.461 571.688,556.463 573.077,563.465 574.395,570.466 575.641,577.468 576.815,584.47 577.919,591.472 578.952,598.474 579.915,605.476 580.808,612.477 581.631,619.479 582.385,626.481 583.07,633.483 583.685,640.485 584.232,647.486 584.71,654.488 585.12,661.49 585.461,668.492 585.734,675.494 585.938,682.495 586.075,689.497 586.143,696.499 586.143,703.501 586.075,710.503 585.938,717.505 585.734,724.506 585.461,731.508 585.12,738.51 584.71,745.512 584.232,752.514 583.685,759.515 583.07,766.517 582.385,773.519 581.631,780.521 580.808,787.523 579.915,794.524 578.952,801.526 577.919,808.528 576.815,815.53 575.641,822.532 574.395,829.534 573.077,836.535 571.688,843.537 570.226,850.539 568.692,857.541 567.084,864.543 565.402,871.544 563.645,878.546 561.814,885.548 559.907,892.55 557.924,899.552 555.865,906.553 553.727,913.555 551.512,920.557 549.217,927.559 546.843,934.561 544.388,941.562 541.851,948.564 539.232,955.566 536.529,962.568 533.743,969.57 530.87,976.572 527.911,983.573 524.864,990.575 521.728,997.577 518.502,1004.579 515.185,1011.581 511.774,1018.582 508.269,1025.584 504.667,1032.586 500.968,1039.588 497.169,1046.59 " />
<line x1="497.169" y1="313.123" x2="497.169" y2="353.41"  stroke="#7f7fff" />
<line x1="497.169" y1="313.123" x2="621.858" y2="313.123"  stroke="#7f7fff" />
<line x1="497.169" y1="1086.877" x2="497.169" y2="1046.59"  stroke="#7f7fff" />
<line x1="497.169" y1="1086.877" x2="621.858" y2="1086.877"  stroke="#7f7fff" />
<polyline fill="none" stroke="#7f7fff" points="621.858,313.123 621.757,320.939 621.658,328.754 621.561,336.57 621.466,344.386 621.373,352.201 621.282,360.017 621.193,367.833 621.107,375.649 621.022,383.464 620.939,391.28 620.859,399.096 620.78,406.911 620.704,414.727 620.63,422.543 620.557,430.358 620.487,438.174 620.419,445.99 620.353,453.806 620.289,461.621 620.227,469.437 620.167,477.253 620.11,485.068 620.054,492.884 620,500.7 619.949,508.515 619.899,516.331 619.852,524.147 619.806,531.963 619.763,539.778 619.721,547.594 619.682,555.41 619.645,563.225 619.61,571.041 619.577,578.857 619.546,586.672 619.517,594.488 619.49,602.304 619.466,610.119 619.443,617.935 619.422,625.751 619.404,633.567 619.387,641.382 619.373,649.198 619.36,657.014 619.35,664.829 619.342,672.645 619.335,680.461 619.331,688.276 619.329,696.092 619.329,703.908 619.331,711.724 619.335,719.539 619.342,727.355 619.35,735.171 619.36,742.986 619.373,750.802 619.387,758.618 619.404,766.433 619.422,774.249 619.443,782.065 619.466,789.881 619.49,797.696 619.517,805.512 619.546,813.328 619.577,821.143 619.61,828.959 619.645,836.775 619.682,844.59 619.721,852.406 619.763,860.222 619.806,868.037 619.852,875.853 619.899,883.669 619.949,891.485 620,899.3 620.054,907.116 620.11,914.932 620.167,922.747 620.227,930.563 620.289,938.379 620.353,946.194 620.419,954.01 620.487,961.826 620.557,969.642 620.63,977.457 620.704,985.273 620.78,993.089 620.859,1000.904 620.939,1008.72 621.022,1016.536 621.107,1024.351 621.193,1032.167 621.282,1039.983 621.373,1047.799 621.466,1055.614 621.561,1063.43 621.658,1071.246 621.757,1079.061 621.858,1086.877 " />
<line x1="621.858" y1="313.123" x2="641.959" y2="313.123"  stroke="#7f7fff" />
<line x1="621.858" y1="1086.877" x2="641.959" y2="1086.877"  stroke="#7f7fff" />
<polyline fill="none" stroke="#7f7fff" points="641.959,313.123 645.56,320.939 649.073,328.754 652.498,336.57 655.836,344.386 659.09,352.201 662.259,360.017 665.344,367.833 668.347,375.649 671.269,383.464 674.109,391.28 676.87,399.096 679.551,406.911 682.154,414.727 684.679,422.543 687.127,430.358 689.499,438.174 691.794,445.99 694.015,453.806 696.16,461.621 698.232,469.437 700.229,477.253 702.154,485.068 704.006,492.884 705.786,500.7 707.494,508.515 709.13,516.331 710.696,524.147 712.191,531.963 713.616,539.778 714.971,547.594 716.256,555.41 717.472,563.225 718.618,571.041 719.696,578.857 720.706,586.672 721.647,594.488 722.52,602.304 723.325,610.119 724.063,617.935 724.733,625.751 725.335,633.567 725.87,641.382 726.338,649.198 726.739,657.014 727.073,664.829 727.34,672.645 727.541,680.461 727.674,688.276 727.741,696.092 727.741,703.908 727.674,711.724 727.541,719.539 727.34,727.355 727.073,735.171 726.739,742.986 726.338,750.802 725.87,758.618 725.335,766.433 724.733,774.249 724.063,782.065 723.325,789.881 722.52,797.696 721.647,805.512 720.706,813.328 719.696,821.143 718.618,828.959 717.472,836.775 716.256,844.59 714.971,852.406 713.616,860.222 712.191,868.037 710.696,875.853 709.13,883.669 707.494,891.485 705.786,899.3 704.006,907.116 702.154,914.932 700.229,922.747 698.232,930.563 696.16,938.379 694.015,946.194 691.794,954.01 689.499,961.826 687.127,969.642 684.679,977.457 682.154,985.273 679.551,993.089 676.87,1000.904 674.109,1008.72 671.269,1016.536 668.347,1024.351 665.344,1032.167 662.259,1039.983 659.09,1047.799 655.836,1055.614 652.498,1063.43 649.073,1071.246 645.56,1079.061 641.959,1086.877 " />
</g>
<g>
<polyline fill="none" stroke="#7f7fff" points="799.802,279.353 797.042,287.851 794.344,296.349 791.707,304.847 789.133,313.344 786.618,321.842 784.165,330.34 781.772,338.838 779.439,347.336 777.165,355.834 774.95,364.332 772.795,372.83 770.698,381.328 768.66,389.826 766.68,398.324 764.757,406.822 762.892,415.32 761.085,423.817 759.335,432.315 757.641,440.813 756.005,449.311 754.424,457.809 752.9,466.307 751.433,474.805 750.021,483.303 748.664,491.801 747.364,500.299 746.118,508.797 744.928,517.295 743.793,525.793 742.713,534.29 741.688,542.788 740.717,551.286 739.801,559.784 738.94,568.282 738.133,576.78 737.38,585.278 736.681,593.776 736.036,602.274 735.445,610.772 734.909,619.27 734.426,627.768 733.997,636.266 733.621,644.763 733.3,653.261 733.032,661.759 732.817,670.257 732.656,678.755 732.549,687.253 732.496,695.751 732.496,704.249 732.549,712.747 732.656,721.245 732.817,729.743 733.032,738.241 733.3,746.739 733.621,755.237 733.997,763.734 734.426,772.232 734.909,780.73 735.445,789.228 736.036,797.726 736.681,806.224 737.38,814.722 738.133,823.22 738.94,831.718 739.801,840.216 740.717,848.714 741.688,857.212 742.713,865.71 743.793,874.207 744.928,882.705 746.118,891.203 747.364,899.701 748.664,908.199 750.021,916.697 751.433,925.195 752.9,933.693 754.424,942.191 756.005,950.689 757.641,959.187 759.335,967.685 761.085,976.183 762.892,984.68 764.757,993.178 766.68,1001.676 768.66,1010.174 770.698,1018.672 772.795,1027.17 774.95,1035.668 777.165,1044.166 779.439,1052.664 781.772,1061.162 784.165,1069.66 786.618,1078.158 789.133,1086.656 791.707,1095.153 794.344,1103.651 797.042,1112.149 799.802,1120.647 " />
<line x1="799.802" y1="279.353" x2="819.88" y2="279.353"  stroke="#7f7fff" />
<line x1="799.802" y1="1120.647" x2="819.88" y2="1120.647"  stroke="#7f7fff" />
<polyline fill="none" stroke="#7f7fff" points="819.88,279.353 821.591,287.851 823.266,296.349 824.904,304.847 826.506,313.344 828.072,321.842 829.603,330.34 831.097,338.838 832.555,347.336 833.978,355.834 835.366,364.332 836.717,372.83 838.033,381.328 839.314,389.826 840.559,398.324 841.769,406.822 842.944,415.32 844.084,423.817 845.188,432.315 846.258,440.813 847.292,449.311 848.291,457.809 849.256,466.307 850.186,474.805 851.08,483.303 851.94,491.801 852.766,500.299 853.556,508.797 854.312,517.295 855.034,525.793 855.721,534.29 856.373,542.788 856.99,551.286 857.574,559.784 858.122,568.282 858.637,576.78 859.117,585.278 859.562,593.776 859.974,602.274 860.35,610.772 860.693,619.27 861.001,627.768 861.275,636.266 861.515,644.763 861.72,653.261 861.891,661.759 862.028,670.257 862.131,678.755 862.2,687.253 862.234,695.751 862.234,704.249 862.2,712.747 862.131,721.245 862.028,729.743 861.891,738.241 861.72,746.739 861.515,755.237 861.275,763.734 861.001,772.232 860.693,780.73 860.35,789.228 859.974,797.726 859.562,806.224 859.117,814.722 858.637,823.22 858.122,831.718 857.574,840.216 856.99,848.714 856.373,857.212 855.721,865.71 855.034,874.207 854.312,882.705 853.556,891.203 852.766,899.701 851.94,908.199 851.08,916.697 850.186,925.195 849.256,933.693 848.291,942.191 847.292,950.689 846.258,959.187 845.188,967.685 844.084,976.183 842.944,984.68 841.769,993.178 840.559,1001.676 839.314,1010.174 838.033,1018.672 836.717,1027.17 835.366,1035.668 833.978,1044.166 832.555,1052.664 831.097,1061.162 829.603,1069.66 828.072,1078.158 826.506,1086.656 824.904,1095.153 823.266,1103.651 821.591,1112.149 819.88,1120.647 " />
</g>
<g>
<polyline fill="none" stroke="#7f7fff" points="959.272,317.863 955.362,325.583 951.552,333.303 947.839,341.023 944.224,348.742 940.703,356.462 937.276,364.182 933.942,371.902 930.699,379.622 927.547,387.342 924.484,395.062 921.508,402.782 918.62,410.502 915.818,418.222 913.102,425.942 910.47,433.662 907.921,441.382 905.455,449.102 903.071,456.822 900.768,464.542 898.546,472.262 896.404,479.982 894.341,487.701 892.356,495.421 890.45,503.141 888.621,510.861 886.869,518.581 885.194,526.301 883.595,534.021 882.071,541.741 880.622,549.461 879.249,557.181 877.949,564.901 876.724,572.621 875.573,580.341 874.494,588.061 873.49,595.781 872.557,603.501 871.698,611.221 870.911,618.941 870.196,626.661 869.553,634.38 868.982,642.1 868.483,649.82 868.055,657.54 867.699,665.26 867.414,672.98 867.2,680.7 867.058,688.42 866.987,696.14 866.987,703.86 867.058,711.58 867.2,719.3 867.414,727.02 867.699,734.74 868.055,742.46 868.483,750.18 868.982,757.9 869.553,765.62 870.196,773.339 870.911,781.059 871.698,788.779 872.557,796.499 873.49,804.219 874.494,811.939 875.573,819.659 876.724,827.379 877.949,835.099 879.249,842.819 880.622,850.539 882.071,858.259 883.595,865.979 885.194,873.699 886.869,881.419 888.621,889.139 890.45,896.859 892.356,904.579 894.341,912.299 896.404,920.018 898.546,927.738 900.768,935.458 903.071,943.178 905.455,950.898 907.921,958.618 910.47,966.338 913.102,974.058 915.818,981.778 918.62,989.498 921.508,997.218 924.484,1004.938 927.547,1012.658 930.699,1020.378 933.942,1028.098 937.276,1035.818 940.703,1043.538 944.224,1051.258 947.839,1058.977 951.552,1066.697 955.362,1074.417 959.272,1082.137 " />
<line x1="959.272" y1="317.863" x2="979.259" y2="317.863"  stroke="#7f7fff" />
<line x1="959.272" y1="1082.137" x2="979.259" y2="1082.137"  stroke="#7f7fff" />
<polyline fill="none" stroke="#7f7fff" points="979.259,317.863 979.384,325.583 979.506,333.303 979.627,341.023 979.744,348.742 979.859,356.462 979.972,364.182 980.081,371.902 980.189,379.622 980.294,387.342 980.396,395.062 980.495,402.782 980.592,410.502 980.687,418.222 980.779,425.942 980.868,433.662 980.955,441.382 981.04,449.102 981.121,456.822 981.201,464.542 981.277,472.262 981.351,479.982 981.423,487.701 981.492,495.421 981.558,503.141 981.622,510.861 981.684,518.581 981.742,526.301 981.799,534.021 981.852,541.741 981.903,549.461 981.952,557.181 981.998,564.901 982.041,572.621 982.082,580.341 982.12,588.061 982.156,595.781 982.189,603.501 982.22,611.221 982.248,618.941 982.274,626.661 982.297,634.38 982.317,642.1 982.335,649.82 982.35,657.54 982.363,665.26 982.373,672.98 982.381,680.7 982.386,688.42 982.389,696.14 982.389,703.86 982.386,711.58 982.381,719.3 982.373,727.02 982.363,734.74 982.35,742.46 982.335,750.18 982.317,757.9 982.297,765.62 982.274,773.339 982.248,781.059 982.22,788.779 982.189,796.499 982.156,804.219 982.12,811.939 982.082,819.659 982.041,827.379 981.998,835.099 981.952,842.819 981.903,850.539 981.852,858.259 981.799,865.979 981.742,873.699 981.684,881.419 981.622,889.139 981.558,896.859 981.492,904.579 981.423,912.299 981.351,920.018 981.277,927.738 981.201,935.458 981.121,943.178 981.04,950.898 980.955,958.618 980.868,966.338 980.779,974.058 980.687,981.778 980.592,989.498 980.495,997.218 980.396,1004.938 980.294,1012.658 980.189,1020.378 980.081,1028.098 979.972,1035.818 979.859,1043.538 979.744,1051.258 979.627,1058.977 979.506,1066.697 979.384,1074.417 979.259,1082.137 " />
</g>
<g>
<polyline fill="none" stroke="#7f7fff" points="1003.525,341.561 1002.772,348.802 1002.035,356.044 1001.314,363.285 1000.608,370.526 999.917,377.767 999.242,385.008 998.583,392.249 997.939,399.491 997.31,406.732 996.697,413.973 996.099,421.214 995.517,428.455 994.95,435.697 994.398,442.938 993.862,450.179 993.341,457.42 992.836,464.661 992.346,471.903 991.871,479.144 991.412,486.385 990.968,493.626 990.54,500.867 990.127,508.108 989.729,515.35 989.347,522.591 988.98,529.832 988.628,537.073 988.291,544.314 987.97,551.556 987.664,558.797 987.374,566.038 987.099,573.279 986.839,580.52 986.594,587.762 986.365,595.003 986.151,602.244 985.953,609.485 985.769,616.726 985.601,623.968 985.448,631.209 985.311,638.45 985.189,645.691 985.082,652.932 984.99,660.173 984.914,667.415 984.853,674.656 984.807,681.897 984.776,689.138 984.761,696.379 984.761,703.621 984.776,710.862 984.807,718.103 984.853,725.344 984.914,732.585 984.99,739.827 985.082,747.068 985.189,754.309 985.311,761.55 985.448,768.791 985.601,776.032 985.769,783.274 985.953,790.515 986.151,797.756 986.365,804.997 986.594,812.238 986.839,819.48 987.099,826.721 987.374,833.962 987.664,841.203 987.97,848.444 988.291,855.686 988.628,862.927 988.98,870.168 989.347,877.409 989.729,884.65 990.127,891.892 990.54,899.133 990.968,906.374 991.412,913.615 991.871,920.856 992.346,928.097 992.836,935.339 993.341,942.58 993.862,949.821 994.398,957.062 994.95,964.303 995.517,971.545 996.099,978.786 996.697,986.027 997.31,993.268 997.939,1000.509 998.583,1007.751 999.242,1014.992 999.917,1022.233 1000.608,1029.474 1001.314,1036.715 1002.035,1043.956 1002.772,1051.198 1003.525,1058.439 " />
<line x1="1024.782" y1="341.561" x2="1024.782" y2="349.263"  stroke="#7f7fff" />
<line x1="1003.525" y1="341.561" x2="1024.782" y2="341.561"  stroke="#7f7fff" />
<line x1="1024.782" y1="1058.439" x2="1024.782" y2="1050.737"  stroke="#7f7fff" />
<line x1="1003.525" y1="1058.439" x2="1024.782" y2="1058.439"  stroke="#7f7fff" />
<polyline fill="none" stroke="#7f7fff" points="1024.782,349.263 1027.025,356.349 1029.218,363.434 1031.361,370.52 1033.454,377.606 1035.498,384.691 1037.493,391.777 1039.439,398.862 1041.337,405.948 1043.186,413.033 1044.987,420.119 1046.741,427.205 1048.447,434.29 1050.105,441.376 1051.716,448.461 1053.28,455.547 1054.798,462.633 1056.269,469.718 1057.693,476.804 1059.072,483.889 1060.404,490.975 1061.69,498.061 1062.931,505.146 1064.126,512.232 1065.275,519.317 1066.379,526.403 1067.438,533.489 1068.452,540.574 1069.421,547.66 1070.346,554.745 1071.225,561.831 1072.06,568.917 1072.851,576.002 1073.597,583.088 1074.298,590.173 1074.956,597.259 1075.569,604.344 1076.138,611.43 1076.663,618.516 1077.144,625.601 1077.582,632.687 1077.975,639.772 1078.325,646.858 1078.63,653.944 1078.892,661.029 1079.111,668.115 1079.285,675.2 1079.416,682.286 1079.504,689.372 1079.547,696.457 1079.547,703.543 1079.504,710.628 1079.416,717.714 1079.285,724.8 1079.111,731.885 1078.892,738.971 1078.63,746.056 1078.325,753.142 1077.975,760.228 1077.582,767.313 1077.144,774.399 1076.663,781.484 1076.138,788.57 1075.569,795.656 1074.956,802.741 1074.298,809.827 1073.597,816.912 1072.851,823.998 1072.06,831.083 1071.225,838.169 1070.346,845.255 1069.421,852.34 1068.452,859.426 1067.438,866.511 1066.379,873.597 1065.275,880.683 1064.126,887.768 1062.931,894.854 1061.69,901.939 1060.404,909.025 1059.072,916.111 1057.693,923.196 1056.269,930.282 1054.798,937.367 1053.28,944.453 1051.716,951.539 1050.105,958.624 1048.447,965.71 1046.741,972.795 1044.987,979.881 1043.186,986.967 1041.337,994.052 1039.439,1001.138 1037.493,1008.223 1035.498,1015.309 1033.454,1022.394 1031.361,1029.48 1029.218,1036.566 1027.025,1043.651 1024.782,1050.737 " />
<line x1="1197.152" y1="349.263" x2="1197.152" y2="404.954"  stroke="#7f7fff" />
<line x1="1024.782" y1="349.263" x2="1197.152" y2="349.263"  stroke="#7f7fff" />
<line x1="1197.152" y1="1050.737" x2="1197.152" y2="995.046"  stroke="#7f7fff" />
<line x1="1024.782" y1="1050.737" x2="1197.152" y2="1050.737"  stroke="#7f7fff" />
<polyline fill="none" stroke="#7f7fff" points="1197.152,404.954 1193.488,410.915 1189.927,416.875 1186.465,422.836 1183.1,428.797 1179.831,434.757 1176.656,440.718 1173.572,446.678 1170.578,452.639 1167.673,458.599 1164.855,464.56 1162.122,470.52 1159.474,476.481 1156.908,482.441 1154.424,488.402 1152.02,494.362 1149.696,500.323 1147.449,506.283 1145.28,512.244 1143.188,518.204 1141.17,524.165 1139.227,530.125 1137.358,536.086 1135.562,542.046 1133.838,548.007 1132.186,553.967 1130.604,559.928 1129.093,565.888 1127.651,571.849 1126.279,577.809 1124.975,583.77 1123.739,589.73 1122.57,595.691 1121.469,601.651 1120.435,607.612 1119.467,613.573 1118.565,619.533 1117.729,625.494 1116.958,631.454 1116.253,637.415 1115.612,643.375 1115.036,649.336 1114.525,655.296 1114.078,661.257 1113.695,667.217 1113.376,673.178 1113.121,679.138 1112.93,685.099 1112.802,691.059 1112.738,697.02 1112.738,702.98 1112.802,708.941 1112.93,714.901 1113.121,720.862 1113.376,726.822 1113.695,732.783 1114.078,738.743 1114.525,744.704 1115.036,750.664 1115.612,756.625 1116.253,762.585 1116.958,768.546 1117.729,774.506 1118.565,780.467 1119.467,786.427 1120.435,792.388 1121.469,798.349 1122.57,804.309 1123.739,810.27 1124.975,816.23 1126.279,822.191 1127.651,828.151 1129.093,834.112 1130.604,840.072 1132.186,846.033 1133.838,851.993 1135.562,857.954 1137.358,863.914 1139.227,869.875 1141.17,875.835 1143.188,881.796 1145.28,887.756 1147.449,893.717 1149.696,899.677 1152.02,905.638 1154.424,911.598 1156.908,917.559 1159.474,923.519 1162.122,929.48 1164.855,935.44 1167.673,941.401 1170.578,947.361 1173.572,953.322 1176.656,959.282 1179.831,965.243 1183.1,971.203 1186.465,977.164 1189.927,983.125 1193.488,989.085 1197.152,995.046 " />
</g>
<g>
<polyline fill="none" stroke="#7f7fff" points="1238.923,403.77 1240.534,409.754 1242.109,415.738 1243.65,421.723 1245.155,427.707 1246.626,433.692 1248.062,439.676 1249.464,445.661 1250.831,451.645 1252.164,457.63 1253.463,463.614 1254.729,469.599 1255.96,475.583 1257.157,481.567 1258.321,487.552 1259.452,493.536 1260.549,499.521 1261.613,505.505 1262.643,511.49 1263.641,517.474 1264.605,523.459 1265.537,529.443 1266.435,535.428 1267.301,541.412 1268.134,547.396 1268.935,553.381 1269.703,559.365 1270.438,565.35 1271.142,571.334 1271.812,577.319 1272.451,583.303 1273.057,589.288 1273.631,595.272 1274.172,601.257 1274.682,607.241 1275.16,613.225 1275.605,619.21 1276.019,625.194 1276.4,631.179 1276.75,637.163 1277.068,643.148 1277.354,649.132 1277.608,655.117 1277.83,661.101 1278.021,667.086 1278.18,673.07 1278.307,679.054 1278.402,685.039 1278.465,691.023 1278.497,697.008 1278.497,702.992 1278.465,708.977 1278.402,714.961 1278.307,720.946 1278.18,726.93 1278.021,732.914 1277.83,738.899 1277.608,744.883 1277.354,750.868 1277.068,756.852 1276.75,762.837 1276.4,768.821 1276.019,774.806 1275.605,780.79 1275.16,786.775 1274.682,792.759 1274.172,798.743 1273.631,804.728 1273.057,810.712 1272.451,816.697 1271.812,822.681 1271.142,828.666 1270.438,834.65 1269.703,840.635 1268.935,846.619 1268.134,852.604 1267.301,858.588 1266.435,864.572 1265.537,870.557 1264.605,876.541 1263.641,882.526 1262.643,888.51 1261.613,894.495 1260.549,900.479 1259.452,906.464 1258.321,912.448 1257.157,918.433 1255.96,924.417 1254.729,930.401 1253.463,936.386 1252.164,942.37 1250.831,948.355 1249.464,954.339 1248.062,960.324 1246.626,966.308 1245.155,972.293 1243.65,978.277 1242.109,984.262 1240.534,990.246 1238.923,996.23 " />
<line x1="1238.923" y1="403.77" x2="1404.705" y2="403.77"  stroke="#7f7fff" />
<line x1="1238.923" y1="996.23" x2="1404.705" y2="996.23"  stroke="#7f7fff" />
<polyline fill="none" stroke="#7f7fff" points="1404.705,403.77 1400.21,409.754 1395.855,415.738 1391.637,421.723 1387.551,427.707 1383.594,433.692 1379.761,439.676 1376.049,445.661 1372.455,451.645 1368.977,457.63 1365.61,463.614 1362.353,469.599 1359.203,475.583 1356.157,481.567 1353.215,487.552 1350.372,493.536 1347.629,499.521 1344.982,505.505 1342.43,511.49 1339.971,517.474 1337.605,523.459 1335.329,529.443 1333.142,535.428 1331.043,541.412 1329.031,547.396 1327.105,553.381 1325.263,559.365 1323.504,565.35 1321.828,571.334 1320.234,577.319 1318.721,583.303 1317.288,589.288 1315.934,595.272 1314.659,601.257 1313.462,607.241 1312.343,613.225 1311.3,619.21 1310.334,625.194 1309.444,631.179 1308.63,637.163 1307.891,643.148 1307.226,649.132 1306.637,655.117 1306.121,661.101 1305.68,667.086 1305.313,673.07 1305.019,679.054 1304.799,685.039 1304.652,691.023 1304.579,697.008 1304.579,702.992 1304.652,708.977 1304.799,714.961 1305.019,720.946 1305.313,726.93 1305.68,732.914 1306.121,738.899 1306.637,744.883 1307.226,750.868 1307.891,756.852 1308.63,762.837 1309.444,768.821 1310.334,774.806 1311.3,780.79 1312.343,786.775 1313.462,792.759 1314.659,798.743 1315.934,804.728 1317.288,810.712 1318.721,816.697 1320.234,822.681 1321.828,828.666 1323.504,834.65 1325.263,840.635 1327.105,846.619 1329.031,852.604 1331.043,858.588 1333.142,864.572 1335.329,870.557 1337.605,876.541 1339.971,882.526 1342.43,888.51 1344.982,894.495 1347.629,900.479 1350.372,906.464 1353.215,912.448 1356.157,918.433 1359.203,924.417 1362.353,930.401 1365.61,936.386 1368.977,942.37 1372.455,948.355 1376.049,954.339 1379.761,960.324 1383.594,966.308 1387.551,972.293 1391.637,978.277 1395.855,984.262 1400.21,990.246 1404.705,996.23 " />
<line x1="1428.855" y1="403.77" x2="1428.855" y2="415.026"  stroke="#7f7fff" />
<line x1="1404.705" y1="403.77" x2="1428.855" y2="403.77"  stroke="#7f7fff" />
<line x1="1428.855" y1="996.23" x2="1428.855" y2="984.974"  stroke="#7f7fff" />
<line x1="1404.705" y1="996.23" x2="1428.855" y2="996.23"  stroke="#7f7fff" />
<polyline fill="none" stroke="#7f7fff" points="1428.855,415.026 1429.359,420.783 1429.852,426.54 1430.336,432.297 1430.808,438.054 1431.271,443.812 1431.723,449.569 1432.164,455.326 1432.596,461.083 1433.017,466.84 1433.428,472.597 1433.828,478.354 1434.218,484.111 1434.598,489.868 1434.967,495.625 1435.327,501.382 1435.675,507.139 1436.014,512.896 1436.342,518.653 1436.66,524.41 1436.968,530.167 1437.265,535.924 1437.553,541.681 1437.829,547.438 1438.096,553.195 1438.352,558.952 1438.598,564.709 1438.834,570.466 1439.06,576.224 1439.275,581.981 1439.48,587.738 1439.675,593.495 1439.859,599.252 1440.033,605.009 1440.197,610.766 1440.351,616.523 1440.494,622.28 1440.628,628.037 1440.75,633.794 1440.863,639.551 1440.966,645.308 1441.058,651.065 1441.14,656.822 1441.211,662.579 1441.273,668.336 1441.324,674.093 1441.365,679.85 1441.396,685.607 1441.416,691.364 1441.427,697.121 1441.427,702.879 1441.416,708.636 1441.396,714.393 1441.365,720.15 1441.324,725.907 1441.273,731.664 1441.211,737.421 1441.14,743.178 1441.058,748.935 1440.966,754.692 1440.863,760.449 1440.75,766.206 1440.628,771.963 1440.494,777.72 1440.351,783.477 1440.197,789.234 1440.033,794.991 1439.859,800.748 1439.675,806.505 1439.48,812.262 1439.275,818.019 1439.06,823.776 1438.834,829.534 1438.598,835.291 1438.352,841.048 1438.096,846.805 1437.829,852.562 1437.553,858.319 1437.265,864.076 1436.968,869.833 1436.66,875.59 1436.342,881.347 1436.014,887.104 1435.675,892.861 1435.327,898.618 1434.967,904.375 1434.598,910.132 1434.218,915.889 1433.828,921.646 1433.428,927.403 1433.017,933.16 1432.596,938.917 1432.164,944.674 1431.723,950.431 1431.271,956.188 1430.808,961.946 1430.336,967.703 1429.852,973.46 1429.359,979.217 1428.855,984.974 " />
</g>
<g>
<polyline fill="none" stroke="#7f7fff" points="1495.875,397.845 1493.731,403.949 1491.636,410.053 1489.59,416.157 1487.592,422.261 1485.642,428.366 1483.739,434.47 1481.884,440.574 1480.076,446.678 1478.314,452.782 1476.599,458.886 1474.93,464.99 1473.306,471.095 1471.729,477.199 1470.196,483.303 1468.709,489.407 1467.267,495.511 1465.869,501.615 1464.516,507.719 1463.208,513.824 1461.943,519.928 1460.722,526.032 1459.545,532.136 1458.411,538.24 1457.321,544.344 1456.274,550.448 1455.27,556.553 1454.308,562.657 1453.39,568.761 1452.514,574.865 1451.681,580.969 1450.89,587.073 1450.141,593.177 1449.435,599.282 1448.77,605.386 1448.148,611.49 1447.567,617.594 1447.029,623.698 1446.532,629.802 1446.076,635.906 1445.662,642.011 1445.29,648.115 1444.959,654.219 1444.67,660.323 1444.422,666.427 1444.216,672.531 1444.051,678.635 1443.927,684.74 1443.844,690.844 1443.803,696.948 1443.803,703.052 1443.844,709.156 1443.927,715.26 1444.051,721.365 1444.216,727.469 1444.422,733.573 1444.67,739.677 1444.959,745.781 1445.29,751.885 1445.662,757.989 1446.076,764.094 1446.532,770.198 1447.029,776.302 1447.567,782.406 1448.148,788.51 1448.77,794.614 1449.435,800.718 1450.141,806.823 1450.89,812.927 1451.681,819.031 1452.514,825.135 1453.39,831.239 1454.308,837.343 1455.27,843.447 1456.274,849.552 1457.321,855.656 1458.411,861.76 1459.545,867.864 1460.722,873.968 1461.943,880.072 1463.208,886.176 1464.516,892.281 1465.869,898.385 1467.267,904.489 1468.709,910.593 1470.196,916.697 1471.729,922.801 1473.306,928.905 1474.93,935.01 1476.599,941.114 1478.314,947.218 1480.076,953.322 1481.884,959.426 1483.739,965.53 1485.642,971.634 1487.592,977.739 1489.59,983.843 1491.636,989.947 1493.731,996.051 1495.875,1002.155 " />
<line x1="1520.238" y1="397.845" x2="1520.238" y2="407.324"  stroke="#7f7fff" />
<line x1="1495.875" y1="397.845" x2="1520.238" y2="397.845"  stroke="#7f7fff" />
<line x1="1520.238" y1="1002.155" x2="1520.238" y2="992.676"  stroke="#7f7fff" />
<line x1="1495.875" y1="1002.155" x2="1520.238" y2="1002.155"  stroke="#7f7fff" />
<polyline fill="none" stroke="#7f7fff" points="1520.238,407.324 1521.704,413.237 1523.139,419.15 1524.542,425.062 1525.914,430.975 1527.254,436.888 1528.563,442.8 1529.841,448.713 1531.088,454.625 1532.303,460.538 1533.488,466.451 1534.643,472.363 1535.766,478.276 1536.859,484.189 1537.921,490.101 1538.953,496.014 1539.955,501.927 1540.926,507.839 1541.867,513.752 1542.779,519.664 1543.66,525.577 1544.511,531.49 1545.332,537.402 1546.123,543.315 1546.884,549.228 1547.616,555.14 1548.318,561.053 1548.99,566.966 1549.633,572.878 1550.246,578.791 1550.83,584.704 1551.384,590.616 1551.909,596.529 1552.405,602.441 1552.871,608.354 1553.308,614.267 1553.716,620.179 1554.094,626.092 1554.443,632.005 1554.763,637.917 1555.054,643.83 1555.316,649.743 1555.548,655.655 1555.751,661.568 1555.926,667.48 1556.071,673.393 1556.187,679.306 1556.274,685.218 1556.333,691.131 1556.362,697.044 1556.362,702.956 1556.333,708.869 1556.274,714.782 1556.187,720.694 1556.071,726.607 1555.926,732.52 1555.751,738.432 1555.548,744.345 1555.316,750.257 1555.054,756.17 1554.763,762.083 1554.443,767.995 1554.094,773.908 1553.716,779.821 1553.308,785.733 1552.871,791.646 1552.405,797.559 1551.909,803.471 1551.384,809.384 1550.83,815.296 1550.246,821.209 1549.633,827.122 1548.99,833.034 1548.318,838.947 1547.616,844.86 1546.884,850.772 1546.123,856.685 1545.332,862.598 1544.511,868.51 1543.66,874.423 1542.779,880.336 1541.867,886.248 1540.926,892.161 1539.955,898.073 1538.953,903.986 1537.921,909.899 1536.859,915.811 1535.766,921.724 1534.643,927.637 1533.488,933.549 1532.303,939.462 1531.088,945.375 1529.841,951.287 1528.563,957.2 1527.254,963.112 1525.914,969.025 1524.542,974.938 1523.139,980.85 1521.704,986.763 1520.238,992.676 " />
</g>
<g>
<polyline fill="none" stroke="#7f7fff" points="1572.329,425.691 1571.971,431.232 1571.604,436.774 1571.23,442.315 1570.85,447.857 1570.464,453.399 1570.073,458.94 1569.68,464.482 1569.283,470.023 1568.885,475.565 1568.486,481.107 1568.087,486.648 1567.688,492.19 1567.292,497.731 1566.897,503.273 1566.506,508.815 1566.119,514.356 1565.736,519.898 1565.358,525.439 1564.986,530.981 1564.621,536.523 1564.263,542.064 1563.912,547.606 1563.569,553.147 1563.235,558.689 1562.91,564.231 1562.595,569.772 1562.289,575.314 1561.994,580.856 1561.71,586.397 1561.437,591.939 1561.176,597.48 1560.927,603.022 1560.69,608.564 1560.465,614.105 1560.253,619.647 1560.054,625.188 1559.869,630.73 1559.697,636.272 1559.538,641.813 1559.394,647.355 1559.263,652.896 1559.147,658.438 1559.045,663.98 1558.957,669.521 1558.884,675.063 1558.825,680.604 1558.781,686.146 1558.752,691.688 1558.737,697.229 1558.737,702.771 1558.752,708.312 1558.781,713.854 1558.825,719.396 1558.884,724.937 1558.957,730.479 1559.045,736.02 1559.147,741.562 1559.263,747.104 1559.394,752.645 1559.538,758.187 1559.697,763.728 1559.869,769.27 1560.054,774.812 1560.253,780.353 1560.465,785.895 1560.69,791.436 1560.927,796.978 1561.176,802.52 1561.437,808.061 1561.71,813.603 1561.994,819.144 1562.289,824.686 1562.595,830.228 1562.91,835.769 1563.235,841.311 1563.569,846.853 1563.912,852.394 1564.263,857.936 1564.621,863.477 1564.986,869.019 1565.358,874.561 1565.736,880.102 1566.119,885.644 1566.506,891.185 1566.897,896.727 1567.292,902.269 1567.688,907.81 1568.087,913.352 1568.486,918.893 1568.885,924.435 1569.283,929.977 1569.68,935.518 1570.073,941.06 1570.464,946.601 1570.85,952.143 1571.23,957.685 1571.604,963.226 1571.971,968.768 1572.329,974.309 " />
<line x1="1600.857" y1="425.691" x2="1600.857" y2="432.8"  stroke="#7f7fff" />
<line x1="1572.329" y1="425.691" x2="1600.857" y2="425.691"  stroke="#7f7fff" />
<line x1="1600.857" y1="974.309" x2="1600.857" y2="967.2"  stroke="#7f7fff" />
<line x1="1572.329" y1="974.309" x2="1600.857" y2="974.309"  stroke="#7f7fff" />
<polyline fill="none" stroke="#7f7fff" points="1600.857,432.8 1602.757,438.198 1604.614,443.596 1606.428,448.994 1608.199,454.392 1609.928,459.79 1611.614,465.188 1613.258,470.586 1614.861,475.984 1616.423,481.382 1617.943,486.78 1619.422,492.178 1620.861,497.576 1622.259,502.974 1623.617,508.372 1624.935,513.77 1626.213,519.168 1627.452,524.566 1628.651,529.964 1629.811,535.362 1630.932,540.76 1632.014,546.158 1633.057,551.556 1634.062,556.954 1635.028,562.352 1635.956,567.75 1636.846,573.148 1637.697,578.546 1638.511,583.943 1639.288,589.341 1640.026,594.739 1640.727,600.137 1641.39,605.535 1642.016,610.933 1642.605,616.331 1643.157,621.729 1643.671,627.127 1644.149,632.525 1644.589,637.923 1644.993,643.321 1645.359,648.719 1645.689,654.117 1645.982,659.515 1646.239,664.913 1646.458,670.311 1646.641,675.709 1646.788,681.107 1646.897,686.505 1646.971,691.903 1647.007,697.301 1647.007,702.699 1646.971,708.097 1646.897,713.495 1646.788,718.893 1646.641,724.291 1646.458,729.689 1646.239,735.087 1645.982,740.485 1645.689,745.883 1645.359,751.281 1644.993,756.679 1644.589,762.077 1644.149,767.475 1643.671,772.873 1643.157,778.271 1642.605,783.669 1642.016,789.067 1641.39,794.465 1640.727,799.863 1640.026,805.261 1639.288,810.659 1638.511,816.057 1637.697,821.454 1636.846,826.852 1635.956,832.25 1635.028,837.648 1634.062,843.046 1633.057,848.444 1632.014,853.842 1630.932,859.24 1629.811,864.638 1628.651,870.036 1627.452,875.434 1626.213,880.832 1624.935,886.23 1623.617,891.628 1622.259,897.026 1620.861,902.424 1619.422,907.822 1617.943,913.22 1616.423,918.618 1614.861,924.016 1613.258,929.414 1611.614,934.812 1609.928,940.21 1608.199,945.608 1606.428,951.006 1604.614,956.404 1602.757,961.802 1600.857,967.2 " />
<line x1="1710.483" y1="432.8" x2="1710.483" y2="468.348"  stroke="#7f7fff" />
<line x1="1600.857" y1="432.8" x2="1710.483" y2="432.8"  stroke="#7f7fff" />
<line x1="1710.483" y1="967.2" x2="1710.483" y2="931.652"  stroke="#7f7fff" />
<line x1="1600.857" y1="967.2" x2="1710.483" y2="967.2"  stroke="#7f7fff" />
<polyline fill="none" stroke="#7f7fff" points="1710.483,468.348 1708.742,473.028 1707.042,477.707 1705.381,482.387 1703.76,487.067 1702.179,491.747 1700.636,496.427 1699.132,501.107 1697.667,505.787 1696.24,510.466 1694.85,515.146 1693.499,519.826 1692.184,524.506 1690.907,529.186 1689.667,533.866 1688.464,538.545 1687.297,543.225 1686.167,547.905 1685.073,552.585 1684.014,557.265 1682.992,561.945 1682.005,566.624 1681.054,571.304 1680.137,575.984 1679.257,580.664 1678.411,585.344 1677.6,590.024 1676.823,594.704 1676.082,599.383 1675.374,604.063 1674.702,608.743 1674.063,613.423 1673.459,618.103 1672.889,622.783 1672.352,627.462 1671.85,632.142 1671.382,636.822 1670.947,641.502 1670.546,646.182 1670.178,650.862 1669.845,655.541 1669.544,660.221 1669.278,664.901 1669.044,669.581 1668.844,674.261 1668.678,678.941 1668.544,683.621 1668.444,688.3 1668.378,692.98 1668.345,697.66 1668.345,702.34 1668.378,707.02 1668.444,711.7 1668.544,716.379 1668.678,721.059 1668.844,725.739 1669.044,730.419 1669.278,735.099 1669.544,739.779 1669.845,744.459 1670.178,749.138 1670.546,753.818 1670.947,758.498 1671.382,763.178 1671.85,767.858 1672.352,772.538 1672.889,777.217 1673.459,781.897 1674.063,786.577 1674.702,791.257 1675.374,795.937 1676.082,800.617 1676.823,805.296 1677.6,809.976 1678.411,814.656 1679.257,819.336 1680.137,824.016 1681.054,828.696 1682.005,833.376 1682.992,838.055 1684.014,842.735 1685.073,847.415 1686.167,852.095 1687.297,856.775 1688.464,861.455 1689.667,866.134 1690.907,870.814 1692.184,875.494 1693.499,880.174 1694.85,884.854 1696.24,889.534 1697.667,894.213 1699.132,898.893 1700.636,903.573 1702.179,908.253 1703.76,912.933 1705.381,917.613 1707.042,922.293 1708.742,926.972 1710.483,931.652 " />
</g>
<g>
<polyline fill="none" stroke="#7f7fff" points="1732.422,468.348 1731.105,473.028 1729.816,477.707 1728.556,482.387 1727.325,487.067 1726.123,491.747 1724.949,496.427 1723.803,501.107 1722.685,505.787 1721.596,510.466 1720.534,515.146 1719.5,519.826 1718.494,524.506 1717.516,529.186 1716.565,533.866 1715.642,538.545 1714.746,543.225 1713.877,547.905 1713.036,552.585 1712.221,557.265 1711.434,561.945 1710.674,566.624 1709.94,571.304 1709.233,575.984 1708.553,580.664 1707.9,585.344 1707.273,590.024 1706.673,594.704 1706.1,599.383 1705.552,604.063 1705.031,608.743 1704.537,613.423 1704.069,618.103 1703.627,622.783 1703.211,627.462 1702.821,632.142 1702.458,636.822 1702.121,641.502 1701.809,646.182 1701.524,650.862 1701.265,655.541 1701.032,660.221 1700.825,664.901 1700.643,669.581 1700.488,674.261 1700.358,678.941 1700.255,683.621 1700.177,688.3 1700.125,692.98 1700.1,697.66 1700.1,702.34 1700.125,707.02 1700.177,711.7 1700.255,716.379 1700.358,721.059 1700.488,725.739 1700.643,730.419 1700.825,735.099 1701.032,739.779 1701.265,744.459 1701.524,749.138 1701.809,753.818 1702.121,758.498 1702.458,763.178 1702.821,767.858 1703.211,772.538 1703.627,777.217 1704.069,781.897 1704.537,786.577 1705.031,791.257 1705.552,795.937 1706.1,800.617 1706.673,805.296 1707.273,809.976 1707.9,814.656 1708.553,819.336 1709.233,824.016 1709.94,828.696 1710.674,833.376 1711.434,838.055 1712.221,842.735 1713.036,847.415 1713.877,852.095 1714.746,856.775 1715.642,861.455 1716.565,866.134 1717.516,870.814 1718.494,875.494 1719.5,880.174 1720.534,884.854 1721.596,889.534 1722.685,894.213 1723.803,898.893 1724.949,903.573 1726.123,908.253 1727.325,912.933 1728.556,917.613 1729.816,922.293 1731.105,926.972 1732.422,931.652 " />
<line x1="1732.422" y1="468.348" x2="1755.508" y2="468.348"  stroke="#7f7fff" />
<line x1="1732.422" y1="931.652" x2="1755.508" y2="931.652"  stroke="#7f7fff" />
<polyline fill="none" stroke="#7f7fff" points="1755.508,468.348 1756.307,473.028 1757.089,477.707 1757.854,482.387 1758.603,487.067 1759.335,491.747 1760.05,496.427 1760.749,501.107 1761.431,505.787 1762.096,510.466 1762.745,515.146 1763.377,519.826 1763.993,524.506 1764.593,529.186 1765.176,533.866 1765.742,538.545 1766.292,543.225 1766.826,547.905 1767.343,552.585 1767.844,557.265 1768.329,561.945 1768.797,566.624 1769.249,571.304 1769.685,575.984 1770.104,580.664 1770.508,585.344 1770.895,590.024 1771.265,594.704 1771.62,599.383 1771.958,604.063 1772.28,608.743 1772.586,613.423 1772.876,618.103 1773.15,622.783 1773.407,627.462 1773.649,632.142 1773.874,636.822 1774.083,641.502 1774.276,646.182 1774.453,650.862 1774.614,655.541 1774.758,660.221 1774.887,664.901 1774.999,669.581 1775.096,674.261 1775.176,678.941 1775.24,683.621 1775.289,688.3 1775.321,692.98 1775.337,697.66 1775.337,702.34 1775.321,707.02 1775.289,711.7 1775.24,716.379 1775.176,721.059 1775.096,725.739 1774.999,730.419 1774.887,735.099 1774.758,739.779 1774.614,744.459 1774.453,749.138 1774.276,753.818 1774.083,758.498 1773.874,763.178 1773.649,767.858 1773.407,772.538 1773.15,777.217 1772.876,781.897 1772.586,786.577 1772.28,791.257 1771.958,795.937 1771.62,800.617 1771.265,805.296 1770.895,809.976 1770.508,814.656 1770.104,819.336 1769.685,824.016 1769.249,828.696 1768.797,833.376 1768.329,838.055 1767.844,842.735 1767.343,847.415 1766.826,852.095 1766.292,856.775 1765.742,861.455 1765.176,866.134 1764.593,870.814 1763.993,875.494 1763.377,880.174 1762.745,884.854 1762.096,889.534 1761.431,894.213 1760.749,898.893 1760.05,903.573 1759.335,908.253 1758.603,912.933 1757.854,917.613 1757.089,922.293 1756.307,926.972 1755.508,931.652 " />
<line x1="1755.508" y1="468.348" x2="1847.319" y2="468.348"  stroke="#7f7fff" />
<line x1="1755.508" y1="931.652" x2="1847.319" y2="931.652"  stroke="#7f7fff" />
<polyline fill="none" stroke="#7f7fff" points="1847.319,468.348 1845.201,473.028 1843.135,477.707 1841.12,482.387 1839.156,487.067 1837.242,491.747 1835.377,496.427 1833.561,501.107 1831.793,505.787 1830.073,510.466 1828.4,515.146 1826.775,519.826 1825.196,524.506 1823.663,529.186 1822.175,533.866 1820.733,538.545 1819.336,543.225 1817.984,547.905 1816.676,552.585 1815.411,557.265 1814.191,561.945 1813.013,566.624 1811.879,571.304 1810.787,575.984 1809.738,580.664 1808.731,585.344 1807.766,590.024 1806.843,594.704 1805.962,599.383 1805.122,604.063 1804.323,608.743 1803.565,613.423 1802.848,618.103 1802.172,622.783 1801.536,627.462 1800.941,632.142 1800.385,636.822 1799.87,641.502 1799.396,646.182 1798.961,650.862 1798.565,655.541 1798.21,660.221 1797.894,664.901 1797.618,669.581 1797.382,674.261 1797.185,678.941 1797.027,683.621 1796.909,688.3 1796.83,692.98 1796.791,697.66 1796.791,702.34 1796.83,707.02 1796.909,711.7 1797.027,716.379 1797.185,721.059 1797.382,725.739 1797.618,730.419 1797.894,735.099 1798.21,739.779 1798.565,744.459 1798.961,749.138 1799.396,753.818 1799.87,758.498 1800.385,763.178 1800.941,767.858 1801.536,772.538 1802.172,777.217 1802.848,781.897 1803.565,786.577 1804.323,791.257 1805.122,795.937 1805.962,800.617 1806.843,805.296 1807.766,809.976 1808.731,814.656 1809.738,819.336 1810.787,824.016 1811.879,828.696 1813.013,833.376 1814.191,838.055 1815.411,842.735 1816.676,847.415 1817.984,852.095 1819.336,856.775 1820.733,861.455 1822.175,866.134 1823.663,870.814 1825.196,875.494 1826.775,880.174 1828.4,884.854 1830.073,889.534 1831.793,894.213 1833.561,898.893 1835.377,903.573 1837.242,908.253 1839.156,912.933 1841.12,917.613 1843.135,922.293 1845.201,926.972 1847.319,931.652 " />
</g>
<g>
<polyline fill="none" stroke="#7f7fff" points="1847.262,471.903 1845.57,476.511 1843.917,481.119 1842.303,485.727 1840.727,490.335 1839.189,494.943 1837.689,499.551 1836.227,504.159 1834.801,508.767 1833.413,513.375 1832.062,517.983 1830.747,522.591 1829.469,527.199 1828.227,531.807 1827.02,536.415 1825.85,541.023 1824.715,545.631 1823.615,550.239 1822.55,554.847 1821.521,559.455 1820.526,564.063 1819.565,568.671 1818.64,573.279 1817.748,577.887 1816.891,582.495 1816.068,587.103 1815.278,591.711 1814.523,596.319 1813.801,600.927 1813.113,605.535 1812.458,610.143 1811.836,614.751 1811.248,619.359 1810.693,623.968 1810.171,628.576 1809.682,633.184 1809.226,637.792 1808.803,642.4 1808.412,647.008 1808.055,651.616 1807.73,656.224 1807.437,660.832 1807.178,665.44 1806.95,670.048 1806.756,674.656 1806.594,679.264 1806.464,683.872 1806.367,688.48 1806.302,693.088 1806.269,697.696 1806.269,702.304 1806.302,706.912 1806.367,711.52 1806.464,716.128 1806.594,720.736 1806.756,725.344 1806.95,729.952 1807.178,734.56 1807.437,739.168 1807.73,743.776 1808.055,748.384 1808.412,752.992 1808.803,757.6 1809.226,762.208 1809.682,766.816 1810.171,771.424 1810.693,776.032 1811.248,780.641 1811.836,785.249 1812.458,789.857 1813.113,794.465 1813.801,799.073 1814.523,803.681 1815.278,808.289 1816.068,812.897 1816.891,817.505 1817.748,822.113 1818.64,826.721 1819.565,831.329 1820.526,835.937 1821.521,840.545 1822.55,845.153 1823.615,849.761 1824.715,854.369 1825.85,858.977 1827.02,863.585 1828.227,868.193 1829.469,872.801 1830.747,877.409 1832.062,882.017 1833.413,886.625 1834.801,891.233 1836.227,895.841 1837.689,900.449 1839.189,905.057 1840.727,909.665 1842.303,914.273 1843.917,918.881 1845.57,923.489 1847.262,928.097 " />
<line x1="1899.298" y1="471.903" x2="1899.298" y2="474.865"  stroke="#7f7fff" />
<line x1="1847.262" y1="471.903" x2="1899.298" y2="471.903"  stroke="#7f7fff" />
<line x1="1899.298" y1="928.097" x2="1899.298" y2="925.135"  stroke="#7f7fff" />
<line x1="1847.262" y1="928.097" x2="1899.298" y2="928.097"  stroke="#7f7fff" />
<polyline fill="none" stroke="#7f7fff" points="1899.298,474.865 1899.897,479.413 1900.484,483.961 1901.058,488.509 1901.62,493.058 1902.169,497.606 1902.706,502.154 1903.231,506.702 1903.743,511.25 1904.243,515.799 1904.73,520.347 1905.206,524.895 1905.668,529.443 1906.119,533.991 1906.557,538.539 1906.983,543.088 1907.397,547.636 1907.799,552.184 1908.188,556.732 1908.565,561.28 1908.93,565.829 1909.282,570.377 1909.623,574.925 1909.951,579.473 1910.267,584.021 1910.57,588.569 1910.862,593.118 1911.141,597.666 1911.408,602.214 1911.663,606.762 1911.906,611.31 1912.136,615.859 1912.355,620.407 1912.561,624.955 1912.755,629.503 1912.937,634.051 1913.107,638.6 1913.265,643.148 1913.41,647.696 1913.543,652.244 1913.665,656.792 1913.774,661.34 1913.871,665.889 1913.956,670.437 1914.028,674.985 1914.089,679.533 1914.137,684.081 1914.174,688.63 1914.198,693.178 1914.21,697.726 1914.21,702.274 1914.198,706.822 1914.174,711.37 1914.137,715.919 1914.089,720.467 1914.028,725.015 1913.956,729.563 1913.871,734.111 1913.774,738.66 1913.665,743.208 1913.543,747.756 1913.41,752.304 1913.265,756.852 1913.107,761.4 1912.937,765.949 1912.755,770.497 1912.561,775.045 1912.355,779.593 1912.136,784.141 1911.906,788.69 1911.663,793.238 1911.408,797.786 1911.141,802.334 1910.862,806.882 1910.57,811.431 1910.267,815.979 1909.951,820.527 1909.623,825.075 1909.282,829.623 1908.93,834.171 1908.565,838.72 1908.188,843.268 1907.799,847.816 1907.397,852.364 1906.983,856.912 1906.557,861.461 1906.119,866.009 1905.668,870.557 1905.206,875.105 1904.73,879.653 1904.243,884.201 1903.743,888.75 1903.231,893.298 1902.706,897.846 1902.169,902.394 1901.62,906.942 1901.058,911.491 1900.484,916.039 1899.897,920.587 1899.298,925.135 " />
<line x1="1899.298" y1="474.865" x2="1996.611" y2="474.865"  stroke="#7f7fff" />
<line x1="1899.298" y1="925.135" x2="1996.611" y2="925.135"  stroke="#7f7fff" />
<polyline fill="none" stroke="#7f7fff" points="1996.611,474.865 1994.383,479.413 1992.246,483.961 1990.193,488.509 1988.218,493.058 1986.317,497.606 1984.486,502.154 1982.721,506.702 1981.019,511.25 1979.378,515.799 1977.796,520.347 1976.27,524.895 1974.798,529.443 1973.379,533.991 1972.012,538.539 1970.694,543.088 1969.424,547.636 1968.202,552.184 1967.025,556.732 1965.893,561.28 1964.806,565.829 1963.761,570.377 1962.759,574.925 1961.797,579.473 1960.877,584.021 1959.996,588.569 1959.155,593.118 1958.353,597.666 1957.588,602.214 1956.862,606.762 1956.173,611.31 1955.521,615.859 1954.905,620.407 1954.326,624.955 1953.782,629.503 1953.274,634.051 1952.801,638.6 1952.364,643.148 1951.961,647.696 1951.592,652.244 1951.258,656.792 1950.958,661.34 1950.691,665.889 1950.459,670.437 1950.26,674.985 1950.094,679.533 1949.962,684.081 1949.863,688.63 1949.796,693.178 1949.763,697.726 1949.763,702.274 1949.796,706.822 1949.863,711.37 1949.962,715.919 1950.094,720.467 1950.26,725.015 1950.459,729.563 1950.691,734.111 1950.958,738.66 1951.258,743.208 1951.592,747.756 1951.961,752.304 1952.364,756.852 1952.801,761.4 1953.274,765.949 1953.782,770.497 1954.326,775.045 1954.905,779.593 1955.521,784.141 1956.173,788.69 1956.862,793.238 1957.588,797.786 1958.353,802.334 1959.155,806.882 1959.996,811.431 1960.877,815.979 1961.797,820.527 1962.759,825.075 1963.761,829.623 1964.806,834.171 1965.893,838.72 1967.025,843.268 1968.202,847.816 1969.424,852.364 1970.694,856.912 1972.012,861.461 1973.379,866.009 1974.798,870.557 1976.27,875.105 1977.796,879.653 1979.378,884.201 1981.019,888.75 1982.721,893.298 1984.486,897.846 1986.317,902.394 1988.218,906.942 1990.193,911.491 1992.246,916.039 1994.383,920.587 1996.611,925.135 " />
</g>
<g>
<polyline fill="none" stroke="#7f7fff" points="2121.573,442.872 2121.573,448.066 2121.573,453.261 2121.573,458.455 2121.573,463.65 2121.573,468.844 2121.573,474.039 2121.573,479.233 2121.573,484.428 2121.573,489.623 2121.573,494.817 2121.573,500.012 2121.573,505.206 2121.573,510.401 2121.573,515.595 2121.573,520.79 2121.573,525.984 2121.573,531.179 2121.573,536.373 2121.573,541.568 2121.573,546.762 2121.573,551.957 2121.573,557.151 2121.573,562.346 2121.573,567.54 2121.573,572.735 2121.573,577.929 2121.573,583.124 2121.573,588.318 2121.573,593.513 2121.573,598.707 2121.573,603.902 2121.573,609.096 2121.573,614.291 2121.573,619.485 2121.573,624.68 2121.573,629.874 2121.573,635.069 2121.573,640.263 2121.573,645.458 2121.573,650.652 2121.573,655.847 2121.573,661.041 2121.573,666.236 2121.573,671.43 2121.573,676.625 2121.573,681.819 2121.573,687.014 2121.573,692.208 2121.573,697.403 2121.573,702.597 2121.573,707.792 2121.573,712.986 2121.573,718.181 2121.573,723.375 2121.573,728.57 2121.573,733.764 2121.573,738.959 2121.573,744.153 2121.573,749.348 2121.573,754.542 2121.573,759.737 2121.573,764.931 2121.573,770.126 2121.573,775.32 2121.573,780.515 2121.573,785.709 2121.573,790.904 2121.573,796.098 2121.573,801.293 2121.573,806.487 2121.573,811.682 2121.573,816.876 2121.573,822.071 2121.573,827.265 2121.573,832.46 2121.573,837.654 2121.573,842.849 2121.573,848.043 2121.573,853.238 2121.573,858.432 2121.573,863.627 2121.573,868.821 2121.573,874.016 2121.573,879.21 2121.573,884.405 2121.573,889.599 2121.573,894.794 2121.573,899.988 2121.573,905.183 2121.573,910.377 2121.573,915.572 2121.573,920.767 2121.573,925.961 2121.573,931.156 2121.573,936.35 2121.573,941.545 2121.573,946.739 2121.573,951.934 2121.573,957.128 " />
<line x1="2121.573" y1="442.872" x2="2140.532" y2="442.872"  stroke="#7f7fff" />
<line x1="2121.573" y1="957.128" x2="2140.532" y2="957.128"  stroke="#7f7fff" />
<polyline fill="none" stroke="#7f7fff" points="2140.532,442.872 2140.532,448.066 2140.532,453.261 2140.532,458.455 2140.532,463.65 2140.532,468.844 2140.532,474.039 2140.532,479.233 2140.532,484.428 2140.532,489.623 2140.532,494.817 2140.532,500.012 2140.532,505.206 2140.532,510.401 2140.532,515.595 2140.532,520.79 2140.532,525.984 2140.532,531.179 2140.532,536.373 2140.532,541.568 2140.532,546.762 2140.532,551.957 2140.532,557.151 2140.532,562.346 2140.532,567.54 2140.532,572.735 2140.532,577.929 2140.532,583.124 2140.532,588.318 2140.532,593.513 2140.532,598.707 2140.532,603.902 2140.532,609.096 2140.532,614.291 2140.532,619.485 2140.532,624.68 2140.532,629.874 2140.532,635.069 2140.532,640.263 2140.532,645.458 2140.532,650.652 2140.532,655.847 2140.532,661.041 2140.532,666.236 2140.532,671.43 2140.532,676.625 2140.532,681.819 2140.532,687.014 2140.532,692.208 2140.532,697.403 2140.532,702.597 2140.532,707.792 2140.532,712.986 2140.532,718.181 2140.532,723.375 2140.532,728.57 2140.532,733.764 2140.532,738.959 2140.532,744.153 2140.532,749.348 2140.532,754.542 2140.532,759.737 2140.532,764.931 2140.532,770.126 2140.532,775.32 2140.532,780.515 2140.532,785.709 2140.532,790.904 2140.532,796.098 2140.532,801.293 2140.532,806.487 2140.532,811.682 2140.532,816.876 2140.532,822.071 2140.532,827.265 2140.532,832.46 2140.532,837.654 2140.532,842.849 2140.532,848.043 2140.532,853.238 2140.532,858.432 2140.532,863.627 2140.532,868.821 2140.532,874.016 2140.532,879.21 2140.532,884.405 2140.532,889.599 2140.532,894.794 2140.532,899.988 2140.532,905.183 2140.532,910.377 2140.532,915.572 2140.532,920.767 2140.532,925.961 2140.532,931.156 2140.532,936.35 2140.532,941.545 2140.532,946.739 2140.532,951.934 2140.532,957.128 " />
</g>
</g>
<g><title>element</title>
<polyline fill="none" stroke="#7f7fff" points="2152.381,185.744 2152.381,196.133 2152.381,206.522 2152.381,216.911 2152.381,227.3 2152.381,237.689 2152.381,248.078 2152.381,258.467 2152.381,268.856 2152.381,279.245 2152.381,289.634 2152.381,300.023 2152.381,310.412 2152.381,320.801 2152.381,331.19 2152.381,341.579 2152.381,351.968 2152.381,362.357 2152.381,372.746 2152.381,383.135 2152.381,393.524 2152.381,403.913 2152.381,414.302 2152.381,424.691 2152.381,435.08 2152.381,445.469 2152.381,455.858 2152.381,466.247 2152.381,476.636 2152.381,487.025 2152.381,497.414 2152.381,507.803 2152.381,518.192 2152.381,528.581 2152.381,538.97 2152.381,549.359 2152.381,559.748 2152.381,570.137 2152.381,580.526 2152.381,590.915 2152.381,601.304 2152.381,611.693 2152.381,622.082 2152.381,632.471 2152.381,642.86 2152.381,653.249 2152.381,663.638 2152.381,674.027 2152.381,684.416 2152.381,694.805 2152.381,705.195 2152.381,715.584 2152.381,725.973 2152.381,736.362 2152.381,746.751 2152.381,757.14 2152.381,767.529 2152.381,777.918 2152.381,788.307 2152.381,798.696 2152.381,809.085 2152.381,819.474 2152.381,829.863 2152.381,840.252 2152.381,850.641 2152.381,861.03 2152.381,871.419 2152.381,881.808 2152.381,892.197 2152.381,902.586 2152.381,912.975 2152.381,923.364 2152.381,933.753 2152.381,944.142 2152.381,954.531 2152.381,964.92 2152.381,975.309 2152.381,985.698 2152.381,996.087 2152.381,1006.476 2152.381,1016.865 2152.381,1027.254 2152.381,1037.643 2152.381,1048.032 2152.381,1058.421 2152.381,1068.81 2152.381,1079.199 2152.381,1089.588 2152.381,1099.977 2152.381,1110.366 2152.381,1120.755 2152.381,1131.144 2152.381,1141.533 2152.381,1151.922 2152.381,1162.311 2152.381,1172.7 2152.381,1183.089 2152.381,1193.478 2152.381,1203.867 2152.381,1214.256 " />
</g>
</svg>
