<?xml version="1.0" standalone="no"?>
<svg width="2400px" height="1400px" version="1.1" xmlns="http://www.w3.org/2000/svg" xmlns:xlink="http://www.w3.org/1999/xlink">
<rect x="0" y="0" width="2400" height="1400"  fill="#ffffff" />
<defs>
<g id="dot">
<line x1="1" y1="1" x2="0" y2="0"  />
</g>
<g id="cross">
<line x1="-3" y1="0" x2="3" y2="0"  />
<line x1="0" y1="-3" x2="0" y2="3"  />
</g>
<g id="square">
<line x1="-3" y1="-3" x2="-3" y2="3"  />
<line x1="-3" y1="3" x2="3" y2="3"  />
<line x1="3" y1="3" x2="3" y2="-3"  />
<line x1="3" y1="-3" x2="-3" y2="-3"  />
</g>
<g id="round">
<ellipse cx="0" cy="0" rx="3" ry="3"  fill="none" /></g>
<g id="triangle">
<line x1="0" y1="-3" x2="-3" y2="3"  />
<line x1="-3" y1="3" x2="3" y2="3"  />
<line x1="0" y1="-3" x2="3" y2="3"  />
</g>
</defs>
<line x1="622.762" y1="700" x2="1777.238" y2="700"  stroke="#7f7f7f" />
<g><title>element</title>
<g>
<line x1="947.599" y1="520.602" x2="947.599" y2="341.204"  stroke="#7f7fff" />
<line x1="947.599" y1="879.398" x2="947.599" y2="1058.796"  stroke="#7f7fff" />
</g>
<g>
<polyline fill="none" stroke="#7f7fff" points="675.358,431.224 673.175,436.654 671.042,442.084 668.961,447.514 666.93,452.944 664.95,458.373 663.019,463.803 661.137,469.233 659.304,474.663 657.52,480.093 655.783,485.522 654.094,490.952 652.453,496.382 650.858,501.812 649.311,507.242 647.809,512.671 646.354,518.101 644.944,523.531 643.58,528.961 642.261,534.391 640.986,539.821 639.757,545.25 638.572,550.68 637.431,556.11 636.334,561.54 635.281,566.97 634.272,572.399 633.306,577.829 632.383,583.259 631.504,588.689 630.667,594.119 629.873,599.548 629.122,604.978 628.413,610.408 627.746,615.838 627.122,621.268 626.54,626.698 626,632.127 625.501,637.557 625.045,642.987 624.63,648.417 624.257,653.847 623.926,659.276 623.636,664.706 623.388,670.136 623.181,675.566 623.015,680.996 622.891,686.425 622.809,691.855 622.767,697.285 622.767,702.715 622.809,708.145 622.891,713.575 623.015,719.004 623.181,724.434 623.388,729.864 623.636,735.294 623.926,740.724 624.257,746.153 624.63,751.583 625.045,757.013 625.501,762.443 626,767.873 626.54,773.302 627.122,778.732 627.746,784.162 628.413,789.592 629.122,795.022 629.873,800.452 630.667,805.881 631.504,811.311 632.383,816.741 633.306,822.171 634.272,827.601 635.281,833.03 636.334,838.46 637.431,843.89 638.572,849.32 639.757,854.75 640.986,860.179 642.261,865.609 643.58,871.039 644.944,876.469 646.354,881.899 647.809,887.329 649.311,892.758 650.858,898.188 652.453,903.618 654.094,909.048 655.783,914.478 657.52,919.907 659.304,925.337 661.137,930.767 663.019,936.197 664.95,941.627 666.93,947.056 668.961,952.486 671.042,957.916 673.175,963.346 675.358,968.776 " />
<line x1="692.24" y1="431.224" x2="692.24" y2="434.843"  stroke="#7f7fff" />
<line x1="675.358" y1="431.224" x2="692.24" y2="431.224"  stroke="#7f7fff" />
<line x1="692.24" y1="968.776" x2="692.24" y2="965.157"  stroke="#7f7fff" />
<line x1="675.358" y1="968.776" x2="692.24" y2="968.776"  stroke="#7f7fff" />
<polyline fill="none" stroke="#7f7fff" points="692.24,434.843 691.645,440.199 691.061,445.556 690.49,450.913 689.931,456.269 689.384,461.626 688.85,466.983 688.328,472.34 687.818,477.696 687.321,483.053 686.835,488.41 686.362,493.766 685.901,499.123 685.453,504.48 685.016,509.837 684.592,515.193 684.18,520.55 683.78,525.907 683.392,531.263 683.017,536.62 682.653,541.977 682.302,547.334 681.963,552.69 681.636,558.047 681.321,563.404 681.019,568.76 680.728,574.117 680.45,579.474 680.184,584.831 679.93,590.187 679.688,595.544 679.458,600.901 679.24,606.257 679.035,611.614 678.841,616.971 678.66,622.328 678.491,627.684 678.334,633.041 678.189,638.398 678.056,643.754 677.935,649.111 677.826,654.468 677.729,659.825 677.645,665.181 677.572,670.538 677.512,675.895 677.463,681.251 677.427,686.608 677.403,691.965 677.391,697.322 677.391,702.678 677.403,708.035 677.427,713.392 677.463,718.749 677.512,724.105 677.572,729.462 677.645,734.819 677.729,740.175 677.826,745.532 677.935,750.889 678.056,756.246 678.189,761.602 678.334,766.959 678.491,772.316 678.66,777.672 678.841,783.029 679.035,788.386 679.24,793.743 679.458,799.099 679.688,804.456 679.93,809.813 680.184,815.169 680.45,820.526 680.728,825.883 681.019,831.24 681.321,836.596 681.636,841.953 681.963,847.31 682.302,852.666 682.653,858.023 683.017,863.38 683.392,868.737 683.78,874.093 684.18,879.45 684.592,884.807 685.016,890.163 685.453,895.52 685.901,900.877 686.362,906.234 686.835,911.59 687.321,916.947 687.818,922.304 688.328,927.66 688.85,933.017 689.384,938.374 689.931,943.731 690.49,949.087 691.061,954.444 691.645,959.801 692.24,965.157 " />
</g>
<g>
<polyline fill="none" stroke="#7f7fff" points="742.832,446.795 740.16,451.911 737.558,457.026 735.023,462.141 732.554,467.256 730.149,472.372 727.808,477.487 725.528,482.602 723.309,487.717 721.151,492.833 719.052,497.948 717.011,503.063 715.028,508.178 713.104,513.294 711.236,518.409 709.424,523.524 707.669,528.639 705.97,533.755 704.326,538.87 702.737,543.985 701.202,549.1 699.722,554.215 698.296,559.331 696.923,564.446 695.604,569.561 694.337,574.676 693.124,579.792 691.963,584.907 690.854,590.022 689.797,595.137 688.792,600.253 687.838,605.368 686.935,610.483 686.084,615.598 685.283,620.714 684.534,625.829 683.835,630.944 683.186,636.059 682.588,641.175 682.04,646.29 681.542,651.405 681.094,656.52 680.696,661.636 680.348,666.751 680.049,671.866 679.801,676.981 679.602,682.097 679.453,687.212 679.354,692.327 679.304,697.442 679.304,702.558 679.354,707.673 679.453,712.788 679.602,717.903 679.801,723.019 680.049,728.134 680.348,733.249 680.696,738.364 681.094,743.48 681.542,748.595 682.04,753.71 682.588,758.825 683.186,763.941 683.835,769.056 684.534,774.171 685.283,779.286 686.084,784.402 686.935,789.517 687.838,794.632 688.792,799.747 689.797,804.863 690.854,809.978 691.963,815.093 693.124,820.208 694.337,825.324 695.604,830.439 696.923,835.554 698.296,840.669 699.722,845.785 701.202,850.9 702.737,856.015 704.326,861.13 705.97,866.245 707.669,871.361 709.424,876.476 711.236,881.591 713.104,886.706 715.028,891.822 717.011,896.937 719.052,902.052 721.151,907.167 723.309,912.283 725.528,917.398 727.808,922.513 730.149,927.628 732.554,932.744 735.023,937.859 737.558,942.974 740.16,948.089 742.832,953.205 " />
<line x1="830.737" y1="446.795" x2="830.737" y2="478.6"  stroke="#7f7fff" />
<line x1="742.832" y1="446.795" x2="830.737" y2="446.795"  stroke="#7f7fff" />
<line x1="830.737" y1="953.205" x2="830.737" y2="921.4"  stroke="#7f7fff" />
<line x1="742.832" y1="953.205" x2="830.737" y2="953.205"  stroke="#7f7fff" />
<polyline fill="none" stroke="#7f7fff" points="830.737,478.6 830.458,483.073 830.186,487.545 829.918,492.018 829.657,496.491 829.401,500.964 829.151,505.436 828.907,509.909 828.668,514.382 828.435,518.855 828.208,523.327 827.986,527.8 827.77,532.273 827.56,536.745 827.356,541.218 827.157,545.691 826.964,550.164 826.776,554.636 826.595,559.109 826.419,563.582 826.248,568.055 826.084,572.527 825.925,577 825.771,581.473 825.624,585.945 825.482,590.418 825.345,594.891 825.215,599.364 825.09,603.836 824.971,608.309 824.857,612.782 824.749,617.255 824.647,621.727 824.551,626.2 824.46,630.673 824.375,635.145 824.295,639.618 824.222,644.091 824.153,648.564 824.091,653.036 824.034,657.509 823.983,661.982 823.938,666.455 823.898,670.927 823.864,675.4 823.836,679.873 823.813,684.345 823.796,688.818 823.785,693.291 823.779,697.764 823.779,702.236 823.785,706.709 823.796,711.182 823.813,715.655 823.836,720.127 823.864,724.6 823.898,729.073 823.938,733.545 823.983,738.018 824.034,742.491 824.091,746.964 824.153,751.436 824.222,755.909 824.295,760.382 824.375,764.855 824.46,769.327 824.551,773.8 824.647,778.273 824.749,782.745 824.857,787.218 824.971,791.691 825.09,796.164 825.215,800.636 825.345,805.109 825.482,809.582 825.624,814.055 825.771,818.527 825.925,823 826.084,827.473 826.248,831.945 826.419,836.418 826.595,840.891 826.776,845.364 826.964,849.836 827.157,854.309 827.356,858.782 827.56,863.255 827.77,867.727 827.986,872.2 828.208,876.673 828.435,881.145 828.668,885.618 828.907,890.091 829.151,894.564 829.401,899.036 829.657,903.509 829.918,907.982 830.186,912.455 830.458,916.927 830.737,921.4 " />
<line x1="920.841" y1="478.6" x2="920.841" y2="514.265"  stroke="#7f7fff" />
<line x1="830.737" y1="478.6" x2="920.841" y2="478.6"  stroke="#7f7fff" />
<line x1="920.841" y1="921.4" x2="920.841" y2="885.735"  stroke="#7f7fff" />
<line x1="830.737" y1="921.4" x2="920.841" y2="921.4"  stroke="#7f7fff" />
<polyline fill="none" stroke="#7f7fff" points="920.841,514.265 917.549,518.017 914.373,521.769 911.308,525.521 908.35,529.274 905.494,533.026 902.736,536.778 900.073,540.53 897.502,544.282 895.019,548.035 892.622,551.787 890.308,555.539 888.074,559.291 885.92,563.044 883.841,566.796 881.837,570.548 879.906,574.3 878.046,578.053 876.255,581.805 874.533,585.557 872.877,589.309 871.286,593.061 869.759,596.814 868.296,600.566 866.894,604.318 865.553,608.07 864.272,611.823 863.051,615.575 861.888,619.327 860.782,623.079 859.733,626.832 858.741,630.584 857.804,634.336 856.922,638.088 856.094,641.84 855.321,645.593 854.601,649.345 853.934,653.097 853.32,656.849 852.758,660.602 852.249,664.354 851.791,668.106 851.384,671.858 851.029,675.611 850.725,679.363 850.472,683.115 850.27,686.867 850.118,690.619 850.017,694.372 849.967,698.124 849.967,701.876 850.017,705.628 850.118,709.381 850.27,713.133 850.472,716.885 850.725,720.637 851.029,724.389 851.384,728.142 851.791,731.894 852.249,735.646 852.758,739.398 853.32,743.151 853.934,746.903 854.601,750.655 855.321,754.407 856.094,758.16 856.922,761.912 857.804,765.664 858.741,769.416 859.733,773.168 860.782,776.921 861.888,780.673 863.051,784.425 864.272,788.177 865.553,791.93 866.894,795.682 868.296,799.434 869.759,803.186 871.286,806.939 872.877,810.691 874.533,814.443 876.255,818.195 878.046,821.947 879.906,825.7 881.837,829.452 883.841,833.204 885.92,836.956 888.074,840.709 890.308,844.461 892.622,848.213 895.019,851.965 897.502,855.718 900.073,859.47 902.736,863.222 905.494,866.974 908.35,870.726 911.308,874.479 914.373,878.231 917.549,881.983 920.841,885.735 " />
</g>
<g>
<polyline fill="none" stroke="#7f7fff" points="979.3,520.602 982.781,524.226 986.129,527.85 989.351,531.474 992.453,535.099 995.441,538.723 998.32,542.347 1001.094,545.971 1003.769,549.595 1006.346,553.22 1008.831,556.844 1011.226,560.468 1013.534,564.092 1015.758,567.717 1017.901,571.341 1019.964,574.965 1021.95,578.589 1023.862,582.213 1025.7,585.838 1027.467,589.462 1029.164,593.086 1030.793,596.71 1032.355,600.334 1033.852,603.959 1035.284,607.583 1036.653,611.207 1037.96,614.831 1039.206,618.455 1040.392,622.08 1041.519,625.704 1042.587,629.328 1043.598,632.952 1044.551,636.576 1045.449,640.201 1046.29,643.825 1047.077,647.449 1047.808,651.073 1048.486,654.697 1049.11,658.322 1049.68,661.946 1050.198,665.57 1050.663,669.194 1051.075,672.818 1051.435,676.443 1051.744,680.067 1052.001,683.691 1052.206,687.315 1052.36,690.939 1052.462,694.564 1052.514,698.188 1052.514,701.812 1052.462,705.436 1052.36,709.061 1052.206,712.685 1052.001,716.309 1051.744,719.933 1051.435,723.557 1051.075,727.182 1050.663,730.806 1050.198,734.43 1049.68,738.054 1049.11,741.678 1048.486,745.303 1047.808,748.927 1047.077,752.551 1046.29,756.175 1045.449,759.799 1044.551,763.424 1043.598,767.048 1042.587,770.672 1041.519,774.296 1040.392,777.92 1039.206,781.545 1037.96,785.169 1036.653,788.793 1035.284,792.417 1033.852,796.041 1032.355,799.666 1030.793,803.29 1029.164,806.914 1027.467,810.538 1025.7,814.162 1023.862,817.787 1021.95,821.411 1019.964,825.035 1017.901,828.659 1015.758,832.283 1013.534,835.908 1011.226,839.532 1008.831,843.156 1006.346,846.78 1003.769,850.405 1001.094,854.029 998.32,857.653 995.441,861.277 992.453,864.901 989.351,868.526 986.129,872.15 982.781,875.774 979.3,879.398 " />
<line x1="979.3" y1="488.907" x2="979.3" y2="520.602"  stroke="#7f7fff" />
<line x1="979.3" y1="488.907" x2="1078.605" y2="488.907"  stroke="#7f7fff" />
<line x1="979.3" y1="911.093" x2="979.3" y2="879.398"  stroke="#7f7fff" />
<line x1="979.3" y1="911.093" x2="1078.605" y2="911.093"  stroke="#7f7fff" />
<polyline fill="none" stroke="#7f7fff" points="1078.605,488.907 1078.17,493.171 1077.745,497.436 1077.329,501.7 1076.921,505.965 1076.523,510.229 1076.133,514.494 1075.753,518.758 1075.381,523.023 1075.018,527.287 1074.665,531.552 1074.32,535.816 1073.984,540.081 1073.656,544.345 1073.338,548.61 1073.029,552.874 1072.728,557.139 1072.437,561.403 1072.154,565.668 1071.88,569.932 1071.615,574.197 1071.359,578.461 1071.112,582.726 1070.873,586.99 1070.644,591.255 1070.423,595.519 1070.211,599.784 1070.008,604.048 1069.814,608.313 1069.629,612.577 1069.452,616.842 1069.285,621.107 1069.126,625.371 1068.976,629.636 1068.835,633.9 1068.702,638.165 1068.579,642.429 1068.464,646.694 1068.358,650.958 1068.261,655.223 1068.173,659.487 1068.094,663.752 1068.023,668.016 1067.962,672.281 1067.909,676.545 1067.865,680.81 1067.829,685.074 1067.803,689.339 1067.785,693.603 1067.777,697.868 1067.777,702.132 1067.785,706.397 1067.803,710.661 1067.829,714.926 1067.865,719.19 1067.909,723.455 1067.962,727.719 1068.023,731.984 1068.094,736.248 1068.173,740.513 1068.261,744.777 1068.358,749.042 1068.464,753.306 1068.579,757.571 1068.702,761.835 1068.835,766.1 1068.976,770.364 1069.126,774.629 1069.285,778.893 1069.452,783.158 1069.629,787.423 1069.814,791.687 1070.008,795.952 1070.211,800.216 1070.423,804.481 1070.644,808.745 1070.873,813.01 1071.112,817.274 1071.359,821.539 1071.615,825.803 1071.88,830.068 1072.154,834.332 1072.437,838.597 1072.728,842.861 1073.029,847.126 1073.338,851.39 1073.656,855.655 1073.984,859.919 1074.32,864.184 1074.665,868.448 1075.018,872.713 1075.381,876.977 1075.753,881.242 1076.133,885.506 1076.523,889.771 1076.921,894.035 1077.329,898.3 1077.745,902.564 1078.17,906.829 1078.605,911.093 " />
<line x1="1078.605" y1="473.172" x2="1078.605" y2="488.907"  stroke="#7f7fff" />
<line x1="1078.605" y1="473.172" x2="1124.708" y2="473.172"  stroke="#7f7fff" />
<line x1="1078.605" y1="926.828" x2="1078.605" y2="911.093"  stroke="#7f7fff" />
<line x1="1078.605" y1="926.828" x2="1124.708" y2="926.828"  stroke="#7f7fff" />
<polyline fill="none" stroke="#7f7fff" points="1124.708,473.172 1127.425,477.754 1130.068,482.336 1132.638,486.919 1135.137,491.501 1137.567,496.084 1139.928,500.666 1142.221,505.248 1144.449,509.831 1146.611,514.413 1148.71,518.996 1150.745,523.578 1152.719,528.16 1154.631,532.743 1156.483,537.325 1158.276,541.907 1160.01,546.49 1161.686,551.072 1163.305,555.655 1164.867,560.237 1166.373,564.819 1167.824,569.402 1169.22,573.984 1170.562,578.567 1171.85,583.149 1173.085,587.731 1174.268,592.314 1175.397,596.896 1176.475,601.479 1177.502,606.061 1178.477,610.643 1179.402,615.226 1180.276,619.808 1181.1,624.391 1181.874,628.973 1182.598,633.555 1183.273,638.138 1183.899,642.72 1184.476,647.302 1185.004,651.885 1185.484,656.467 1185.915,661.05 1186.298,665.632 1186.632,670.214 1186.919,674.797 1187.158,679.379 1187.349,683.962 1187.492,688.544 1187.587,693.126 1187.635,697.709 1187.635,702.291 1187.587,706.874 1187.492,711.456 1187.349,716.038 1187.158,720.621 1186.919,725.203 1186.632,729.786 1186.298,734.368 1185.915,738.95 1185.484,743.533 1185.004,748.115 1184.476,752.698 1183.899,757.28 1183.273,761.862 1182.598,766.445 1181.874,771.027 1181.1,775.609 1180.276,780.192 1179.402,784.774 1178.477,789.357 1177.502,793.939 1176.475,798.521 1175.397,803.104 1174.268,807.686 1173.085,812.269 1171.85,816.851 1170.562,821.433 1169.22,826.016 1167.824,830.598 1166.373,835.181 1164.867,839.763 1163.305,844.345 1161.686,848.928 1160.01,853.51 1158.276,858.093 1156.483,862.675 1154.631,867.257 1152.719,871.84 1150.745,876.422 1148.71,881.004 1146.611,885.587 1144.449,890.169 1142.221,894.752 1139.928,899.334 1137.567,903.916 1135.137,908.499 1132.638,913.081 1130.068,917.664 1127.425,922.246 1124.708,926.828 " />
</g>
<g>
<polyline fill="none" stroke="#7f7fff" points="1176.08,465.2 1176.62,469.943 1177.149,474.687 1177.667,479.43 1178.174,484.174 1178.67,488.917 1179.155,493.66 1179.629,498.404 1180.091,503.147 1180.542,507.891 1180.983,512.634 1181.412,517.378 1181.83,522.121 1182.237,526.865 1182.633,531.608 1183.017,536.351 1183.391,541.095 1183.754,545.838 1184.106,550.582 1184.446,555.325 1184.776,560.069 1185.094,564.812 1185.402,569.555 1185.698,574.299 1185.984,579.042 1186.258,583.786 1186.521,588.529 1186.774,593.273 1187.015,598.016 1187.246,602.76 1187.465,607.503 1187.674,612.246 1187.871,616.99 1188.057,621.733 1188.233,626.477 1188.397,631.22 1188.551,635.964 1188.693,640.707 1188.825,645.45 1188.946,650.194 1189.055,654.937 1189.154,659.681 1189.241,664.424 1189.318,669.168 1189.384,673.911 1189.439,678.655 1189.483,683.398 1189.515,688.141 1189.537,692.885 1189.548,697.628 1189.548,702.372 1189.537,707.115 1189.515,711.859 1189.483,716.602 1189.439,721.345 1189.384,726.089 1189.318,730.832 1189.241,735.576 1189.154,740.319 1189.055,745.063 1188.946,749.806 1188.825,754.55 1188.693,759.293 1188.551,764.036 1188.397,768.78 1188.233,773.523 1188.057,778.267 1187.871,783.01 1187.674,787.754 1187.465,792.497 1187.246,797.24 1187.015,801.984 1186.774,806.727 1186.521,811.471 1186.258,816.214 1185.984,820.958 1185.698,825.701 1185.402,830.445 1185.094,835.188 1184.776,839.931 1184.446,844.675 1184.106,849.418 1183.754,854.162 1183.391,858.905 1183.017,863.649 1182.633,868.392 1182.237,873.135 1181.83,877.879 1181.412,882.622 1180.983,887.366 1180.542,892.109 1180.091,896.853 1179.629,901.596 1179.155,906.34 1178.67,911.083 1178.174,915.826 1177.667,920.57 1177.149,925.313 1176.62,930.057 1176.08,934.8 " />
<line x1="1176.08" y1="463.398" x2="1176.08" y2="465.2"  stroke="#7f7fff" />
<line x1="1176.08" y1="463.398" x2="1189.301" y2="463.398"  stroke="#7f7fff" />
<line x1="1176.08" y1="936.602" x2="1176.08" y2="934.8"  stroke="#7f7fff" />
<line x1="1176.08" y1="936.602" x2="1189.301" y2="936.602"  stroke="#7f7fff" />
<polyline fill="none" stroke="#7f7fff" points="1189.301,463.398 1191.44,468.178 1193.527,472.958 1195.562,477.738 1197.547,482.517 1199.481,487.297 1201.366,492.077 1203.201,496.857 1204.988,501.637 1206.726,506.417 1208.417,511.197 1210.06,515.976 1211.656,520.756 1213.206,525.536 1214.71,530.316 1216.168,535.096 1217.58,539.876 1218.948,544.655 1220.271,549.435 1221.55,554.215 1222.784,558.995 1223.975,563.775 1225.123,568.555 1226.227,573.334 1227.288,578.114 1228.306,582.894 1229.282,587.674 1230.216,592.454 1231.108,597.234 1231.958,602.013 1232.766,606.793 1233.533,611.573 1234.258,616.353 1234.942,621.133 1235.586,625.913 1236.188,630.692 1236.75,635.472 1237.271,640.252 1237.751,645.032 1238.192,649.812 1238.591,654.592 1238.951,659.371 1239.271,664.151 1239.55,668.931 1239.789,673.711 1239.989,678.491 1240.148,683.271 1240.268,688.05 1240.347,692.83 1240.387,697.61 1240.387,702.39 1240.347,707.17 1240.268,711.95 1240.148,716.729 1239.989,721.509 1239.789,726.289 1239.55,731.069 1239.271,735.849 1238.951,740.629 1238.591,745.408 1238.192,750.188 1237.751,754.968 1237.271,759.748 1236.75,764.528 1236.188,769.308 1235.586,774.087 1234.942,778.867 1234.258,783.647 1233.533,788.427 1232.766,793.207 1231.958,797.987 1231.108,802.766 1230.216,807.546 1229.282,812.326 1228.306,817.106 1227.288,821.886 1226.227,826.666 1225.123,831.445 1223.975,836.225 1222.784,841.005 1221.55,845.785 1220.271,850.565 1218.948,855.345 1217.58,860.124 1216.168,864.904 1214.71,869.684 1213.206,874.464 1211.656,879.244 1210.06,884.024 1208.417,888.803 1206.726,893.583 1204.988,898.363 1203.201,903.143 1201.366,907.923 1199.481,912.703 1197.547,917.483 1195.562,922.262 1193.527,927.042 1191.44,931.822 1189.301,936.602 " />
</g>
<g>
<polyline fill="none" stroke="#7f7fff" points="1245.127,470.822 1244.989,475.451 1244.853,480.081 1244.72,484.711 1244.59,489.341 1244.463,493.971 1244.339,498.601 1244.217,503.231 1244.098,507.861 1243.982,512.49 1243.869,517.12 1243.759,521.75 1243.652,526.38 1243.547,531.01 1243.445,535.64 1243.346,540.27 1243.25,544.899 1243.157,549.529 1243.067,554.159 1242.979,558.789 1242.894,563.419 1242.812,568.049 1242.733,572.679 1242.657,577.309 1242.583,581.938 1242.513,586.568 1242.445,591.198 1242.38,595.828 1242.318,600.458 1242.258,605.088 1242.202,609.718 1242.148,614.347 1242.097,618.977 1242.049,623.607 1242.004,628.237 1241.962,632.867 1241.922,637.497 1241.885,642.127 1241.852,646.757 1241.82,651.386 1241.792,656.016 1241.767,660.646 1241.744,665.276 1241.724,669.906 1241.707,674.536 1241.693,679.166 1241.682,683.795 1241.674,688.425 1241.668,693.055 1241.665,697.685 1241.665,702.315 1241.668,706.945 1241.674,711.575 1241.682,716.205 1241.693,720.834 1241.707,725.464 1241.724,730.094 1241.744,734.724 1241.767,739.354 1241.792,743.984 1241.82,748.614 1241.852,753.243 1241.885,757.873 1241.922,762.503 1241.962,767.133 1242.004,771.763 1242.049,776.393 1242.097,781.023 1242.148,785.653 1242.202,790.282 1242.258,794.912 1242.318,799.542 1242.38,804.172 1242.445,808.802 1242.513,813.432 1242.583,818.062 1242.657,822.691 1242.733,827.321 1242.812,831.951 1242.894,836.581 1242.979,841.211 1243.067,845.841 1243.157,850.471 1243.25,855.101 1243.346,859.73 1243.445,864.36 1243.547,868.99 1243.652,873.62 1243.759,878.25 1243.869,882.88 1243.982,887.51 1244.098,892.139 1244.217,896.769 1244.339,901.399 1244.463,906.029 1244.59,910.659 1244.72,915.289 1244.853,919.919 1244.989,924.549 1245.127,929.178 " />
<line x1="1259.424" y1="470.822" x2="1259.424" y2="471.682"  stroke="#7f7fff" />
<line x1="1245.127" y1="470.822" x2="1259.424" y2="470.822"  stroke="#7f7fff" />
<line x1="1259.424" y1="929.178" x2="1259.424" y2="928.318"  stroke="#7f7fff" />
<line x1="1245.127" y1="929.178" x2="1259.424" y2="929.178"  stroke="#7f7fff" />
<polyline fill="none" stroke="#7f7fff" points="1259.424,471.682 1260.428,476.295 1261.41,480.907 1262.372,485.52 1263.312,490.132 1264.23,494.745 1265.128,499.357 1266.004,503.969 1266.859,508.582 1267.694,513.194 1268.507,517.807 1269.299,522.419 1270.071,527.032 1270.821,531.644 1271.551,536.257 1272.26,540.869 1272.948,545.482 1273.616,550.094 1274.263,554.707 1274.889,559.319 1275.495,563.932 1276.08,568.544 1276.645,573.157 1277.19,577.769 1277.714,582.382 1278.217,586.994 1278.7,591.607 1279.163,596.219 1279.606,600.832 1280.028,605.444 1280.43,610.057 1280.812,614.669 1281.173,619.282 1281.514,623.894 1281.835,628.507 1282.136,633.119 1282.417,637.731 1282.678,642.344 1282.919,646.956 1283.139,651.569 1283.339,656.181 1283.52,660.794 1283.68,665.406 1283.82,670.019 1283.94,674.631 1284.041,679.244 1284.121,683.856 1284.181,688.469 1284.221,693.081 1284.241,697.694 1284.241,702.306 1284.221,706.919 1284.181,711.531 1284.121,716.144 1284.041,720.756 1283.94,725.369 1283.82,729.981 1283.68,734.594 1283.52,739.206 1283.339,743.819 1283.139,748.431 1282.919,753.044 1282.678,757.656 1282.417,762.269 1282.136,766.881 1281.835,771.493 1281.514,776.106 1281.173,780.718 1280.812,785.331 1280.43,789.943 1280.028,794.556 1279.606,799.168 1279.163,803.781 1278.7,808.393 1278.217,813.006 1277.714,817.618 1277.19,822.231 1276.645,826.843 1276.08,831.456 1275.495,836.068 1274.889,840.681 1274.263,845.293 1273.616,849.906 1272.948,854.518 1272.26,859.131 1271.551,863.743 1270.821,868.356 1270.071,872.968 1269.299,877.581 1268.507,882.193 1267.694,886.806 1266.859,891.418 1266.004,896.031 1265.128,900.643 1264.23,905.255 1263.312,909.868 1262.372,914.48 1261.41,919.093 1260.428,923.705 1259.424,928.318 " />
</g>
<g>
<polyline fill="none" stroke="#7f7fff" points="1290.656,481.656 1290.501,486.067 1290.35,490.478 1290.201,494.889 1290.056,499.3 1289.914,503.711 1289.775,508.122 1289.639,512.533 1289.507,516.944 1289.377,521.355 1289.251,525.766 1289.128,530.177 1289.008,534.588 1288.891,538.999 1288.777,543.41 1288.667,547.821 1288.559,552.232 1288.455,556.643 1288.354,561.054 1288.256,565.465 1288.162,569.876 1288.07,574.287 1287.982,578.698 1287.896,583.109 1287.814,587.52 1287.735,591.931 1287.66,596.342 1287.587,600.753 1287.518,605.164 1287.451,609.575 1287.388,613.986 1287.328,618.397 1287.271,622.808 1287.218,627.219 1287.167,631.63 1287.12,636.041 1287.076,640.452 1287.035,644.863 1286.997,649.274 1286.962,653.685 1286.931,658.096 1286.902,662.507 1286.877,666.918 1286.855,671.329 1286.836,675.74 1286.82,680.151 1286.807,684.562 1286.798,688.973 1286.792,693.384 1286.789,697.795 1286.789,702.205 1286.792,706.616 1286.798,711.027 1286.807,715.438 1286.82,719.849 1286.836,724.26 1286.855,728.671 1286.877,733.082 1286.902,737.493 1286.931,741.904 1286.962,746.315 1286.997,750.726 1287.035,755.137 1287.076,759.548 1287.12,763.959 1287.167,768.37 1287.218,772.781 1287.271,777.192 1287.328,781.603 1287.388,786.014 1287.451,790.425 1287.518,794.836 1287.587,799.247 1287.66,803.658 1287.735,808.069 1287.814,812.48 1287.896,816.891 1287.982,821.302 1288.07,825.713 1288.162,830.124 1288.256,834.535 1288.354,838.946 1288.455,843.357 1288.559,847.768 1288.667,852.179 1288.777,856.59 1288.891,861.001 1289.008,865.412 1289.128,869.823 1289.251,874.234 1289.377,878.645 1289.507,883.056 1289.639,887.467 1289.775,891.878 1289.914,896.289 1290.056,900.7 1290.201,905.111 1290.35,909.522 1290.501,913.933 1290.656,918.344 " />
<line x1="1305.878" y1="481.656" x2="1305.878" y2="483.951"  stroke="#7f7fff" />
<line x1="1290.656" y1="481.656" x2="1305.878" y2="481.656"  stroke="#7f7fff" />
<line x1="1305.878" y1="918.344" x2="1305.878" y2="916.049"  stroke="#7f7fff" />
<line x1="1290.656" y1="918.344" x2="1305.878" y2="918.344"  stroke="#7f7fff" />
<polyline fill="none" stroke="#7f7fff" points="1305.878,483.951 1306.029,488.315 1306.178,492.68 1306.323,497.045 1306.465,501.409 1306.604,505.774 1306.74,510.138 1306.873,514.503 1307.003,518.868 1307.13,523.232 1307.253,527.597 1307.374,531.962 1307.491,536.326 1307.606,540.691 1307.717,545.055 1307.825,549.42 1307.93,553.785 1308.032,558.149 1308.131,562.514 1308.227,566.879 1308.32,571.243 1308.41,575.608 1308.496,579.973 1308.58,584.337 1308.66,588.702 1308.737,593.066 1308.811,597.431 1308.882,601.796 1308.95,606.16 1309.015,610.525 1309.077,614.89 1309.136,619.254 1309.191,623.619 1309.244,627.984 1309.293,632.348 1309.34,636.713 1309.383,641.077 1309.423,645.442 1309.46,649.807 1309.494,654.171 1309.525,658.536 1309.553,662.901 1309.578,667.265 1309.599,671.63 1309.618,675.995 1309.633,680.359 1309.646,684.724 1309.655,689.088 1309.661,693.453 1309.664,697.818 1309.664,702.182 1309.661,706.547 1309.655,710.912 1309.646,715.276 1309.633,719.641 1309.618,724.005 1309.599,728.37 1309.578,732.735 1309.553,737.099 1309.525,741.464 1309.494,745.829 1309.46,750.193 1309.423,754.558 1309.383,758.923 1309.34,763.287 1309.293,767.652 1309.244,772.016 1309.191,776.381 1309.136,780.746 1309.077,785.11 1309.015,789.475 1308.95,793.84 1308.882,798.204 1308.811,802.569 1308.737,806.934 1308.66,811.298 1308.58,815.663 1308.496,820.027 1308.41,824.392 1308.32,828.757 1308.227,833.121 1308.131,837.486 1308.032,841.851 1307.93,846.215 1307.825,850.58 1307.717,854.945 1307.606,859.309 1307.491,863.674 1307.374,868.038 1307.253,872.403 1307.13,876.768 1307.003,881.132 1306.873,885.497 1306.74,889.862 1306.604,894.226 1306.465,898.591 1306.323,902.955 1306.178,907.32 1306.029,911.685 1305.878,916.049 " />
</g>
</g>
<g><title>element</title>
<polyline fill="none" stroke="#7f7fff" points="1777.238,144.444 1777.238,155.668 1777.238,166.891 1777.238,178.114 1777.238,189.338 1777.238,200.561 1777.238,211.785 1777.238,223.008 1777.238,234.231 1777.238,245.455 1777.238,256.678 1777.238,267.901 1777.238,279.125 1777.238,290.348 1777.238,301.571 1777.238,312.795 1777.238,324.018 1777.238,335.241 1777.238,346.465 1777.238,357.688 1777.238,368.911 1777.238,380.135 1777.238,391.358 1777.238,402.581 1777.238,413.805 1777.238,425.028 1777.238,436.251 1777.238,447.475 1777.238,458.698 1777.238,469.921 1777.238,481.145 1777.238,492.368 1777.238,503.591 1777.238,514.815 1777.238,526.038 1777.238,537.262 1777.238,548.485 1777.238,559.708 1777.238,570.932 1777.238,582.155 1777.238,593.378 1777.238,604.602 1777.238,615.825 1777.238,627.048 1777.238,638.272 1777.238,649.495 1777.238,660.718 1777.238,671.942 1777.238,683.165 1777.238,694.388 1777.238,705.612 1777.238,716.835 1777.238,728.058 1777.238,739.282 1777.238,750.505 1777.238,761.728 1777.238,772.952 1777.238,784.175 1777.238,795.398 1777.238,806.622 1777.238,817.845 1777.238,829.068 1777.238,840.292 1777.238,851.515 1777.238,862.738 1777.238,873.962 1777.238,885.185 1777.238,896.409 1777.238,907.632 1777.238,918.855 1777.238,930.079 1777.238,941.302 1777.238,952.525 1777.238,963.749 1777.238,974.972 1777.238,986.195 1777.238,997.419 1777.238,1008.642 1777.238,1019.865 1777.238,1031.089 1777.238,1042.312 1777.238,1053.535 1777.238,1064.759 1777.238,1075.982 1777.238,1087.205 1777.238,1098.429 1777.238,1109.652 1777.238,1120.875 1777.238,1132.099 1777.238,1143.322 1777.238,1154.545 1777.238,1165.769 1777.238,1176.992 1777.238,1188.215 1777.238,1199.439 1777.238,1210.662 1777.238,1221.886 1777.238,1233.109 1777.238,1244.332 1777.238,1255.556 " />
</g>
</svg>
