<?xml version="1.0" standalone="no"?>
<svg width="2400px" height="1400px" version="1.1" xmlns="http://www.w3.org/2000/svg"
>
    <rect x="0" y="0" width="2400" height="1400" fill="#ffffff"/>
    <defs>
        <g id="dot">
            <line x1="1" y1="1" x2="0" y2="0"/>
        </g>
        <g id="cross">
            <line x1="-3" y1="0" x2="3" y2="0"/>
            <line x1="0" y1="-3" x2="0" y2="3"/>
        </g>
        <g id="square">
            <line x1="-3" y1="-3" x2="-3" y2="3"/>
            <line x1="-3" y1="3" x2="3" y2="3"/>
            <line x1="3" y1="3" x2="3" y2="-3"/>
            <line x1="3" y1="-3" x2="-3" y2="-3"/>
        </g>
        <g id="round">
            <ellipse cx="0" cy="0" rx="3" ry="3" fill="none"/>
        </g>
        <g id="triangle">
            <line x1="0" y1="-3" x2="-3" y2="3"/>
            <line x1="-3" y1="3" x2="3" y2="3"/>
            <line x1="0" y1="-3" x2="3" y2="3"/>
        </g>
    </defs>
    <line x1="734.109" y1="700" x2="1665.891" y2="700" stroke="#7f7f7f"/>
    <g>
        <title>element</title>
        <g>
            <line x1="983.595" y1="570.904" x2="983.595" y2="441.808" stroke="#7f7fff"/>
            <line x1="983.595" y1="829.096" x2="983.595" y2="958.192" stroke="#7f7fff"/>
        </g>
        <g>
            <polyline fill="none" stroke="#7f7fff"
                      points="780.521,483.693 778.579,488.063 776.684,492.433 774.836,496.803 773.034,501.173 771.277,505.543 769.566,509.912 767.899,514.282 766.277,518.652 764.698,523.022 763.162,527.392 761.67,531.762 760.22,536.131 758.812,540.501 757.446,544.871 756.122,549.241 754.838,553.611 753.596,557.981 752.394,562.35 751.232,566.72 750.11,571.09 749.028,575.46 747.986,579.83 746.982,584.2 746.018,588.569 745.093,592.939 744.206,597.309 743.357,601.679 742.547,606.049 741.775,610.418 741.04,614.788 740.343,619.158 739.684,623.528 739.062,627.898 738.477,632.268 737.93,636.637 737.42,641.007 736.946,645.377 736.509,649.747 736.109,654.117 735.746,658.487 735.419,662.856 735.128,667.226 734.875,671.596 734.657,675.966 734.476,680.336 734.331,684.706 734.222,689.075 734.15,693.445 734.113,697.815 734.113,702.185 734.15,706.555 734.222,710.925 734.331,715.294 734.476,719.664 734.657,724.034 734.875,728.404 735.128,732.774 735.419,737.144 735.746,741.513 736.109,745.883 736.509,750.253 736.946,754.623 737.42,758.993 737.93,763.363 738.477,767.732 739.062,772.102 739.684,776.472 740.343,780.842 741.04,785.212 741.775,789.582 742.547,793.951 743.357,798.321 744.206,802.691 745.093,807.061 746.018,811.431 746.982,815.8 747.986,820.17 749.028,824.54 750.11,828.91 751.232,833.28 752.394,837.65 753.596,842.019 754.838,846.389 756.122,850.759 757.446,855.129 758.812,859.499 760.22,863.869 761.67,868.238 763.162,872.608 764.698,876.978 766.277,881.348 767.899,885.718 769.566,890.088 771.277,894.457 773.034,898.827 774.836,903.197 776.684,907.567 778.579,911.937 780.521,916.307 "/>
            <line x1="780.521" y1="483.693" x2="802.474" y2="483.693" stroke="#7f7fff"/>
            <line x1="780.521" y1="916.307" x2="802.474" y2="916.307" stroke="#7f7fff"/>
            <polyline fill="none" stroke="#7f7fff"
                      points="802.474,483.693 802.105,488.063 801.744,492.433 801.39,496.803 801.044,501.173 800.705,505.543 800.374,509.912 800.051,514.282 799.735,518.652 799.426,523.022 799.125,527.392 798.832,531.762 798.546,536.131 798.268,540.501 797.998,544.871 797.734,549.241 797.479,553.611 797.231,557.981 796.99,562.35 796.758,566.72 796.532,571.09 796.314,575.46 796.104,579.83 795.901,584.2 795.706,588.569 795.518,592.939 795.338,597.309 795.165,601.679 795,606.049 794.842,610.418 794.692,614.788 794.55,619.158 794.414,623.528 794.287,627.898 794.167,632.268 794.054,636.637 793.949,641.007 793.852,645.377 793.761,649.747 793.679,654.117 793.604,658.487 793.536,662.856 793.476,667.226 793.424,671.596 793.379,675.966 793.341,680.336 793.311,684.706 793.289,689.075 793.274,693.445 793.266,697.815 793.266,702.185 793.274,706.555 793.289,710.925 793.311,715.294 793.341,719.664 793.379,724.034 793.424,728.404 793.476,732.774 793.536,737.144 793.604,741.513 793.679,745.883 793.761,750.253 793.852,754.623 793.949,758.993 794.054,763.363 794.167,767.732 794.287,772.102 794.414,776.472 794.55,780.842 794.692,785.212 794.842,789.582 795,793.951 795.165,798.321 795.338,802.691 795.518,807.061 795.706,811.431 795.901,815.8 796.104,820.17 796.314,824.54 796.532,828.91 796.758,833.28 796.99,837.65 797.231,842.019 797.479,846.389 797.734,850.759 797.998,855.129 798.268,859.499 798.546,863.869 798.832,868.238 799.125,872.608 799.426,876.978 799.735,881.348 800.051,885.718 800.374,890.088 800.705,894.457 801.044,898.827 801.39,903.197 801.744,907.567 802.105,911.937 802.474,916.307 "/>
        </g>
        <g>
            <polyline fill="none" stroke="#7f7fff"
                      points="860.289,521.502 857.269,525.108 854.352,528.714 851.533,532.32 848.809,535.926 846.176,539.532 843.632,543.138 841.173,546.744 838.796,550.35 836.499,553.956 834.279,557.562 832.136,561.168 830.065,564.774 828.066,568.38 826.137,571.986 824.276,575.592 822.482,579.198 820.752,582.804 819.087,586.41 817.484,590.016 815.942,593.622 814.461,597.228 813.039,600.834 811.675,604.44 810.368,608.047 809.118,611.653 807.923,615.259 806.783,618.865 805.698,622.471 804.665,626.077 803.686,629.683 802.759,633.289 801.884,636.895 801.06,640.501 800.287,644.107 799.564,647.713 798.891,651.319 798.268,654.925 797.694,658.531 797.168,662.137 796.692,665.743 796.264,669.349 795.883,672.955 795.551,676.561 795.267,680.167 795.03,683.773 794.841,687.379 794.699,690.985 794.604,694.591 794.557,698.197 794.557,701.803 794.604,705.409 794.699,709.015 794.841,712.621 795.03,716.227 795.267,719.833 795.551,723.439 795.883,727.045 796.264,730.651 796.692,734.257 797.168,737.863 797.694,741.469 798.268,745.075 798.891,748.681 799.564,752.287 800.287,755.893 801.06,759.499 801.884,763.105 802.759,766.711 803.686,770.317 804.665,773.923 805.698,777.529 806.783,781.135 807.923,784.741 809.118,788.347 810.368,791.953 811.675,795.56 813.039,799.166 814.461,802.772 815.942,806.378 817.484,809.984 819.087,813.59 820.752,817.196 822.482,820.802 824.276,824.408 826.137,828.014 828.066,831.62 830.065,835.226 832.136,838.832 834.279,842.438 836.499,846.044 838.796,849.65 841.173,853.256 843.632,856.862 846.176,860.468 848.809,864.074 851.533,867.68 854.352,871.286 857.269,874.892 860.289,878.498 "/>
            <line x1="887.681" y1="521.502" x2="887.681" y2="537.706" stroke="#7f7fff"/>
            <line x1="860.289" y1="521.502" x2="887.681" y2="521.502" stroke="#7f7fff"/>
            <line x1="887.681" y1="878.498" x2="887.681" y2="862.294" stroke="#7f7fff"/>
            <line x1="860.289" y1="878.498" x2="887.681" y2="878.498" stroke="#7f7fff"/>
            <polyline fill="none" stroke="#7f7fff"
                      points="887.681,537.706 886.321,540.984 884.993,544.263 883.697,547.542 882.433,550.82 881.201,554.099 879.999,557.378 878.828,560.656 877.688,563.935 876.578,567.214 875.498,570.492 874.448,573.771 873.428,577.05 872.437,580.328 871.475,583.607 870.542,586.886 869.637,590.165 868.761,593.443 867.914,596.722 867.095,600.001 866.303,603.279 865.54,606.558 864.804,609.837 864.096,613.115 863.415,616.394 862.761,619.673 862.135,622.951 861.535,626.23 860.962,629.509 860.417,632.787 859.897,636.066 859.405,639.345 858.939,642.623 858.499,645.902 858.085,649.181 857.698,652.459 857.337,655.738 857.002,659.017 856.693,662.295 856.41,665.574 856.152,668.853 855.921,672.131 855.715,675.41 855.536,678.689 855.382,681.967 855.253,685.246 855.151,688.525 855.074,691.803 855.023,695.082 854.997,698.361 854.997,701.639 855.023,704.918 855.074,708.197 855.151,711.475 855.253,714.754 855.382,718.033 855.536,721.311 855.715,724.59 855.921,727.869 856.152,731.147 856.41,734.426 856.693,737.705 857.002,740.983 857.337,744.262 857.698,747.541 858.085,750.819 858.499,754.098 858.939,757.377 859.405,760.655 859.897,763.934 860.417,767.213 860.962,770.491 861.535,773.77 862.135,777.049 862.761,780.327 863.415,783.606 864.096,786.885 864.804,790.163 865.54,793.442 866.303,796.721 867.095,799.999 867.914,803.278 868.761,806.557 869.637,809.835 870.542,813.114 871.475,816.393 872.437,819.672 873.428,822.95 874.448,826.229 875.498,829.508 876.578,832.786 877.688,836.065 878.828,839.344 879.999,842.622 881.201,845.901 882.433,849.18 883.697,852.458 884.993,855.737 886.321,859.016 887.681,862.294 "/>
        </g>
        <g>
            <polyline fill="none" stroke="#7f7fff"
                      points="888.251,537.706 887.423,540.984 886.612,544.263 885.82,547.542 885.045,550.82 884.288,554.099 883.549,557.378 882.827,560.656 882.123,563.935 881.436,567.214 880.767,570.492 880.116,573.771 879.481,577.05 878.864,580.328 878.264,583.607 877.682,586.886 877.116,590.165 876.568,593.443 876.036,596.722 875.522,600.001 875.025,603.279 874.544,606.558 874.081,609.837 873.634,613.115 873.204,616.394 872.791,619.673 872.395,622.951 872.016,626.23 871.653,629.509 871.307,632.787 870.977,636.066 870.665,639.345 870.368,642.623 870.089,645.902 869.826,649.181 869.579,652.459 869.349,655.738 869.136,659.017 868.938,662.295 868.758,665.574 868.594,668.853 868.446,672.131 868.315,675.41 868.2,678.689 868.102,681.967 868.02,685.246 867.954,688.525 867.905,691.803 867.872,695.082 867.856,698.361 867.856,701.639 867.872,704.918 867.905,708.197 867.954,711.475 868.02,714.754 868.102,718.033 868.2,721.311 868.315,724.59 868.446,727.869 868.594,731.147 868.758,734.426 868.938,737.705 869.136,740.983 869.349,744.262 869.579,747.541 869.826,750.819 870.089,754.098 870.368,757.377 870.665,760.655 870.977,763.934 871.307,767.213 871.653,770.491 872.016,773.77 872.395,777.049 872.791,780.327 873.204,783.606 873.634,786.885 874.081,790.163 874.544,793.442 875.025,796.721 875.522,799.999 876.036,803.278 876.568,806.557 877.116,809.835 877.682,813.114 878.264,816.393 878.864,819.672 879.481,822.95 880.116,826.229 880.767,829.508 881.436,832.786 882.123,836.065 882.827,839.344 883.549,842.622 884.288,845.901 885.045,849.18 885.82,852.458 886.612,855.737 887.423,859.016 888.251,862.294 "/>
            <line x1="931.194" y1="537.706" x2="931.194" y2="565.548" stroke="#7f7fff"/>
            <line x1="888.251" y1="537.706" x2="931.194" y2="537.706" stroke="#7f7fff"/>
            <line x1="931.194" y1="862.294" x2="931.194" y2="834.452" stroke="#7f7fff"/>
            <line x1="888.251" y1="862.294" x2="931.194" y2="862.294" stroke="#7f7fff"/>
            <polyline fill="none" stroke="#7f7fff"
                      points="931.194,565.548 928.938,568.264 926.759,570.98 924.652,573.696 922.616,576.413 920.648,579.129 918.746,581.845 916.907,584.561 915.129,587.277 913.411,589.994 911.751,592.71 910.147,595.426 908.598,598.142 907.102,600.859 905.658,603.575 904.265,606.291 902.922,609.007 901.627,611.723 900.38,614.44 899.18,617.156 898.025,619.872 896.916,622.588 895.851,625.304 894.829,628.021 893.851,630.737 892.914,633.453 892.019,636.169 891.165,638.885 890.352,641.602 889.579,644.318 888.845,647.034 888.151,649.75 887.495,652.466 886.878,655.183 886.298,657.899 885.757,660.615 885.252,663.331 884.785,666.047 884.355,668.764 883.961,671.48 883.604,674.196 883.283,676.912 882.998,679.628 882.749,682.345 882.536,685.061 882.359,687.777 882.217,690.493 882.111,693.209 882.04,695.926 882.004,698.642 882.004,701.358 882.04,704.074 882.111,706.791 882.217,709.507 882.359,712.223 882.536,714.939 882.749,717.655 882.998,720.372 883.283,723.088 883.604,725.804 883.961,728.52 884.355,731.236 884.785,733.953 885.252,736.669 885.757,739.385 886.298,742.101 886.878,744.817 887.495,747.534 888.151,750.25 888.845,752.966 889.579,755.682 890.352,758.398 891.165,761.115 892.019,763.831 892.914,766.547 893.851,769.263 894.829,771.979 895.851,774.696 896.916,777.412 898.025,780.128 899.18,782.844 900.38,785.56 901.627,788.277 902.922,790.993 904.265,793.709 905.658,796.425 907.102,799.141 908.598,801.858 910.147,804.574 911.751,807.29 913.411,810.006 915.129,812.723 916.907,815.439 918.746,818.155 920.648,820.871 922.616,823.587 924.652,826.304 926.759,829.02 928.938,831.736 931.194,834.452 "/>
        </g>
        <g>
            <polyline fill="none" stroke="#7f7fff"
                      points="1007.884,572.492 1009.79,575.068 1011.637,577.644 1013.427,580.22 1015.161,582.796 1016.841,585.372 1018.468,587.948 1020.045,590.524 1021.572,593.1 1023.05,595.676 1024.481,598.251 1025.865,600.827 1027.205,603.403 1028.5,605.979 1029.751,608.555 1030.96,611.131 1032.128,613.707 1033.254,616.283 1034.34,618.859 1035.386,621.435 1036.394,624.011 1037.363,626.586 1038.294,629.162 1039.187,631.738 1040.044,634.314 1040.865,636.89 1041.649,639.466 1042.398,642.042 1043.112,644.618 1043.791,647.194 1044.436,649.77 1045.047,652.346 1045.623,654.922 1046.167,657.497 1046.677,660.073 1047.154,662.649 1047.598,665.225 1048.01,667.801 1048.389,670.377 1048.736,672.953 1049.051,675.529 1049.334,678.105 1049.586,680.681 1049.805,683.257 1049.993,685.832 1050.15,688.408 1050.275,690.984 1050.369,693.56 1050.432,696.136 1050.463,698.712 1050.463,701.288 1050.432,703.864 1050.369,706.44 1050.275,709.016 1050.15,711.592 1049.993,714.168 1049.805,716.743 1049.586,719.319 1049.334,721.895 1049.051,724.471 1048.736,727.047 1048.389,729.623 1048.01,732.199 1047.598,734.775 1047.154,737.351 1046.677,739.927 1046.167,742.503 1045.623,745.078 1045.047,747.654 1044.436,750.23 1043.791,752.806 1043.112,755.382 1042.398,757.958 1041.649,760.534 1040.865,763.11 1040.044,765.686 1039.187,768.262 1038.294,770.838 1037.363,773.414 1036.394,775.989 1035.386,778.565 1034.34,781.141 1033.254,783.717 1032.128,786.293 1030.96,788.869 1029.751,791.445 1028.5,794.021 1027.205,796.597 1025.865,799.173 1024.481,801.749 1023.05,804.324 1021.572,806.9 1020.045,809.476 1018.468,812.052 1016.841,814.628 1015.161,817.204 1013.427,819.78 1011.637,822.356 1009.79,824.932 1007.884,827.508 "/>
            <line x1="1007.884" y1="549.923" x2="1007.884" y2="572.492" stroke="#7f7fff"/>
            <line x1="1007.884" y1="549.923" x2="1058.398" y2="549.923" stroke="#7f7fff"/>
            <line x1="1007.884" y1="850.077" x2="1007.884" y2="827.508" stroke="#7f7fff"/>
            <line x1="1007.884" y1="850.077" x2="1058.398" y2="850.077" stroke="#7f7fff"/>
            <polyline fill="none" stroke="#7f7fff"
                      points="1058.398,549.923 1058.751,552.955 1059.096,555.987 1059.434,559.018 1059.765,562.05 1060.088,565.082 1060.404,568.114 1060.713,571.146 1061.015,574.178 1061.31,577.21 1061.597,580.241 1061.877,583.273 1062.149,586.305 1062.415,589.337 1062.673,592.369 1062.924,595.401 1063.168,598.433 1063.405,601.464 1063.634,604.496 1063.856,607.528 1064.071,610.56 1064.279,613.592 1064.479,616.624 1064.673,619.656 1064.859,622.688 1065.038,625.719 1065.21,628.751 1065.374,631.783 1065.532,634.815 1065.682,637.847 1065.825,640.879 1065.961,643.911 1066.09,646.942 1066.212,649.974 1066.326,653.006 1066.433,656.038 1066.534,659.07 1066.627,662.102 1066.712,665.134 1066.791,668.165 1066.862,671.197 1066.927,674.229 1066.984,677.261 1067.034,680.293 1067.077,683.325 1067.113,686.357 1067.141,689.388 1067.163,692.42 1067.177,695.452 1067.184,698.484 1067.184,701.516 1067.177,704.548 1067.163,707.58 1067.141,710.612 1067.113,713.643 1067.077,716.675 1067.034,719.707 1066.984,722.739 1066.927,725.771 1066.862,728.803 1066.791,731.835 1066.712,734.866 1066.627,737.898 1066.534,740.93 1066.433,743.962 1066.326,746.994 1066.212,750.026 1066.09,753.058 1065.961,756.089 1065.825,759.121 1065.682,762.153 1065.532,765.185 1065.374,768.217 1065.21,771.249 1065.038,774.281 1064.859,777.312 1064.673,780.344 1064.479,783.376 1064.279,786.408 1064.071,789.44 1063.856,792.472 1063.634,795.504 1063.405,798.536 1063.168,801.567 1062.924,804.599 1062.673,807.631 1062.415,810.663 1062.149,813.695 1061.877,816.727 1061.597,819.759 1061.31,822.79 1061.015,825.822 1060.713,828.854 1060.404,831.886 1060.088,834.918 1059.765,837.95 1059.434,840.982 1059.096,844.013 1058.751,847.045 1058.398,850.077 "/>
            <line x1="1058.398" y1="539.892" x2="1058.398" y2="549.923" stroke="#7f7fff"/>
            <line x1="1058.398" y1="539.892" x2="1082.904" y2="539.892" stroke="#7f7fff"/>
            <line x1="1058.398" y1="860.108" x2="1058.398" y2="850.077" stroke="#7f7fff"/>
            <line x1="1058.398" y1="860.108" x2="1082.904" y2="860.108" stroke="#7f7fff"/>
            <polyline fill="none" stroke="#7f7fff"
                      points="1082.904,539.892 1085.312,543.126 1087.644,546.361 1089.904,549.595 1092.094,552.83 1094.215,556.065 1096.269,559.299 1098.259,562.534 1100.186,565.768 1102.052,569.003 1103.858,572.237 1105.605,575.472 1107.295,578.706 1108.929,581.941 1110.508,585.175 1112.033,588.41 1113.505,591.644 1114.926,594.879 1116.296,598.113 1117.616,601.348 1118.886,604.582 1120.108,607.817 1121.282,611.051 1122.409,614.286 1123.489,617.52 1124.524,620.755 1125.513,623.989 1126.458,627.224 1127.358,630.458 1128.214,633.693 1129.027,636.927 1129.797,640.162 1130.524,643.396 1131.209,646.631 1131.852,649.865 1132.453,653.1 1133.013,656.334 1133.532,659.569 1134.01,662.803 1134.448,666.038 1134.845,669.272 1135.202,672.507 1135.519,675.741 1135.796,678.976 1136.033,682.21 1136.23,685.445 1136.388,688.679 1136.506,691.914 1136.585,695.148 1136.625,698.383 1136.625,701.617 1136.585,704.852 1136.506,708.086 1136.388,711.321 1136.23,714.555 1136.033,717.79 1135.796,721.024 1135.519,724.259 1135.202,727.493 1134.845,730.728 1134.448,733.962 1134.01,737.197 1133.532,740.431 1133.013,743.666 1132.453,746.9 1131.852,750.135 1131.209,753.369 1130.524,756.604 1129.797,759.838 1129.027,763.073 1128.214,766.307 1127.358,769.542 1126.458,772.776 1125.513,776.011 1124.524,779.245 1123.489,782.48 1122.409,785.714 1121.282,788.949 1120.108,792.183 1118.886,795.418 1117.616,798.652 1116.296,801.887 1114.926,805.121 1113.505,808.356 1112.033,811.59 1110.508,814.825 1108.929,818.059 1107.295,821.294 1105.605,824.528 1103.858,827.763 1102.052,830.997 1100.186,834.232 1098.259,837.466 1096.269,840.701 1094.215,843.935 1092.094,847.17 1089.904,850.405 1087.644,853.639 1085.312,856.874 1082.904,860.108 "/>
        </g>
        <g>
            <polyline fill="none" stroke="#7f7fff"
                      points="1142.566,543.75 1142.38,546.907 1142.197,550.063 1142.019,553.22 1141.844,556.376 1141.673,559.533 1141.506,562.689 1141.343,565.846 1141.183,569.003 1141.028,572.159 1140.876,575.316 1140.728,578.472 1140.583,581.629 1140.443,584.785 1140.306,587.942 1140.173,591.098 1140.044,594.255 1139.919,597.412 1139.798,600.568 1139.68,603.725 1139.566,606.881 1139.456,610.038 1139.35,613.194 1139.247,616.351 1139.149,619.508 1139.054,622.664 1138.963,625.821 1138.876,628.977 1138.792,632.134 1138.713,635.29 1138.637,638.447 1138.565,641.604 1138.496,644.76 1138.432,647.917 1138.371,651.073 1138.314,654.23 1138.261,657.386 1138.212,660.543 1138.166,663.699 1138.125,666.856 1138.087,670.013 1138.053,673.169 1138.022,676.326 1137.996,679.482 1137.973,682.639 1137.954,685.795 1137.939,688.952 1137.927,692.109 1137.92,695.265 1137.916,698.422 1137.916,701.578 1137.92,704.735 1137.927,707.891 1137.939,711.048 1137.954,714.205 1137.973,717.361 1137.996,720.518 1138.022,723.674 1138.053,726.831 1138.087,729.987 1138.125,733.144 1138.166,736.301 1138.212,739.457 1138.261,742.614 1138.314,745.77 1138.371,748.927 1138.432,752.083 1138.496,755.24 1138.565,758.396 1138.637,761.553 1138.713,764.71 1138.792,767.866 1138.876,771.023 1138.963,774.179 1139.054,777.336 1139.149,780.492 1139.247,783.649 1139.35,786.806 1139.456,789.962 1139.566,793.119 1139.68,796.275 1139.798,799.432 1139.919,802.588 1140.044,805.745 1140.173,808.902 1140.306,812.058 1140.443,815.215 1140.583,818.371 1140.728,821.528 1140.876,824.684 1141.028,827.841 1141.183,830.997 1141.343,834.154 1141.506,837.311 1141.673,840.467 1141.844,843.624 1142.019,846.78 1142.197,849.937 1142.38,853.093 1142.566,856.25 "/>
            <line x1="1142.566" y1="543.75" x2="1162.869" y2="543.75" stroke="#7f7fff"/>
            <line x1="1142.566" y1="856.25" x2="1162.869" y2="856.25" stroke="#7f7fff"/>
            <polyline fill="none" stroke="#7f7fff"
                      points="1162.869,543.75 1163.658,546.907 1164.429,550.063 1165.183,553.22 1165.92,556.376 1166.64,559.533 1167.344,562.689 1168.03,565.846 1168.7,569.003 1169.354,572.159 1169.991,575.316 1170.611,578.472 1171.215,581.629 1171.802,584.785 1172.373,587.942 1172.927,591.098 1173.465,594.255 1173.987,597.412 1174.493,600.568 1174.983,603.725 1175.456,606.881 1175.913,610.038 1176.355,613.194 1176.78,616.351 1177.189,619.508 1177.582,622.664 1177.959,625.821 1178.32,628.977 1178.666,632.134 1178.995,635.29 1179.309,638.447 1179.607,641.604 1179.889,644.76 1180.155,647.917 1180.405,651.073 1180.64,654.23 1180.859,657.386 1181.062,660.543 1181.25,663.699 1181.422,666.856 1181.578,670.013 1181.719,673.169 1181.844,676.326 1181.953,679.482 1182.047,682.639 1182.125,685.795 1182.187,688.952 1182.234,692.109 1182.265,695.265 1182.281,698.422 1182.281,701.578 1182.265,704.735 1182.234,707.891 1182.187,711.048 1182.125,714.205 1182.047,717.361 1181.953,720.518 1181.844,723.674 1181.719,726.831 1181.578,729.987 1181.422,733.144 1181.25,736.301 1181.062,739.457 1180.859,742.614 1180.64,745.77 1180.405,748.927 1180.155,752.083 1179.889,755.24 1179.607,758.396 1179.309,761.553 1178.995,764.71 1178.666,767.866 1178.32,771.023 1177.959,774.179 1177.582,777.336 1177.189,780.492 1176.78,783.649 1176.355,786.806 1175.913,789.962 1175.456,793.119 1174.983,796.275 1174.493,799.432 1173.987,802.588 1173.465,805.745 1172.927,808.902 1172.373,812.058 1171.802,815.215 1171.215,818.371 1170.611,821.528 1169.991,824.684 1169.354,827.841 1168.7,830.997 1168.03,834.154 1167.344,837.311 1166.64,840.467 1165.92,843.624 1165.183,846.78 1164.429,849.937 1163.658,853.093 1162.869,856.25 "/>
        </g>
    </g>
    <g>
        <title>element</title>
        <polyline fill="none" stroke="#7f7fff"
                  points="1665.891,144.444 1665.891,155.668 1665.891,166.891 1665.891,178.114 1665.891,189.338 1665.891,200.561 1665.891,211.785 1665.891,223.008 1665.891,234.231 1665.891,245.455 1665.891,256.678 1665.891,267.901 1665.891,279.125 1665.891,290.348 1665.891,301.571 1665.891,312.795 1665.891,324.018 1665.891,335.241 1665.891,346.465 1665.891,357.688 1665.891,368.911 1665.891,380.135 1665.891,391.358 1665.891,402.581 1665.891,413.805 1665.891,425.028 1665.891,436.251 1665.891,447.475 1665.891,458.698 1665.891,469.921 1665.891,481.145 1665.891,492.368 1665.891,503.591 1665.891,514.815 1665.891,526.038 1665.891,537.262 1665.891,548.485 1665.891,559.708 1665.891,570.932 1665.891,582.155 1665.891,593.378 1665.891,604.602 1665.891,615.825 1665.891,627.048 1665.891,638.272 1665.891,649.495 1665.891,660.718 1665.891,671.942 1665.891,683.165 1665.891,694.388 1665.891,705.612 1665.891,716.835 1665.891,728.058 1665.891,739.282 1665.891,750.505 1665.891,761.728 1665.891,772.952 1665.891,784.175 1665.891,795.398 1665.891,806.622 1665.891,817.845 1665.891,829.068 1665.891,840.292 1665.891,851.515 1665.891,862.738 1665.891,873.962 1665.891,885.185 1665.891,896.409 1665.891,907.632 1665.891,918.855 1665.891,930.079 1665.891,941.302 1665.891,952.525 1665.891,963.749 1665.891,974.972 1665.891,986.195 1665.891,997.419 1665.891,1008.642 1665.891,1019.865 1665.891,1031.089 1665.891,1042.312 1665.891,1053.535 1665.891,1064.759 1665.891,1075.982 1665.891,1087.205 1665.891,1098.429 1665.891,1109.652 1665.891,1120.875 1665.891,1132.099 1665.891,1143.322 1665.891,1154.545 1665.891,1165.769 1665.891,1176.992 1665.891,1188.215 1665.891,1199.439 1665.891,1210.662 1665.891,1221.886 1665.891,1233.109 1665.891,1244.332 1665.891,1255.556 "/>
    </g>
</svg>
