<?xml version="1.0" standalone="no"?>
<svg width="2400px" height="1400px" version="1.1" xmlns="http://www.w3.org/2000/svg" xmlns:xlink="http://www.w3.org/1999/xlink">
<rect x="0" y="0" width="2400" height="1400"  fill="#ffffff" />
<defs>
<g id="dot">
<line x1="1" y1="1" x2="0" y2="0"  />
</g>
<g id="cross">
<line x1="-3" y1="0" x2="3" y2="0"  />
<line x1="0" y1="-3" x2="0" y2="3"  />
</g>
<g id="square">
<line x1="-3" y1="-3" x2="-3" y2="3"  />
<line x1="-3" y1="3" x2="3" y2="3"  />
<line x1="3" y1="3" x2="3" y2="-3"  />
<line x1="3" y1="-3" x2="-3" y2="-3"  />
</g>
<g id="round">
<ellipse cx="0" cy="0" rx="3" ry="3"  fill="none" /></g>
<g id="triangle">
<line x1="0" y1="-3" x2="-3" y2="3"  />
<line x1="-3" y1="3" x2="3" y2="3"  />
<line x1="0" y1="-3" x2="3" y2="3"  />
</g>
</defs>
<line x1="662.443" y1="700" x2="1737.557" y2="700"  stroke="#7f7f7f" />
<g><title>element</title>
<g>
<line x1="1088.253" y1="552.314" x2="1088.253" y2="404.628"  stroke="#7f7fff" />
<line x1="1088.253" y1="847.686" x2="1088.253" y2="995.372"  stroke="#7f7fff" />
</g>
<g>
<polyline fill="none" stroke="#7f7fff" points="714.791,494.524 716.753,498.675 718.666,502.826 720.531,506.977 722.349,511.128 724.119,515.279 725.844,519.43 727.523,523.581 729.157,527.732 730.746,531.883 732.29,536.034 733.792,540.185 735.249,544.336 736.664,548.487 738.037,552.638 739.367,556.79 740.655,560.941 741.903,565.092 743.109,569.243 744.274,573.394 745.399,577.545 746.484,581.696 747.529,585.847 748.535,589.998 749.501,594.149 750.428,598.3 751.317,602.451 752.166,606.602 752.978,610.753 753.751,614.904 754.486,619.055 755.183,623.206 755.843,627.357 756.465,631.508 757.05,635.659 757.598,639.81 758.108,643.961 758.582,648.112 759.019,652.263 759.419,656.414 759.782,660.565 760.109,664.716 760.399,668.867 760.653,673.018 760.87,677.169 761.052,681.32 761.196,685.471 761.305,689.622 761.377,693.773 761.414,697.924 761.414,702.076 761.377,706.227 761.305,710.378 761.196,714.529 761.052,718.68 760.87,722.831 760.653,726.982 760.399,731.133 760.109,735.284 759.782,739.435 759.419,743.586 759.019,747.737 758.582,751.888 758.108,756.039 757.598,760.19 757.05,764.341 756.465,768.492 755.843,772.643 755.183,776.794 754.486,780.945 753.751,785.096 752.978,789.247 752.166,793.398 751.317,797.549 750.428,801.7 749.501,805.851 748.535,810.002 747.529,814.153 746.484,818.304 745.399,822.455 744.274,826.606 743.109,830.757 741.903,834.908 740.655,839.059 739.367,843.21 738.037,847.362 736.664,851.513 735.249,855.664 733.792,859.815 732.29,863.966 730.746,868.117 729.157,872.268 727.523,876.419 725.844,880.57 724.119,884.721 722.349,888.872 720.531,893.023 718.666,897.174 716.753,901.325 714.791,905.476 " />
<line x1="714.791" y1="494.524" x2="805.304" y2="494.524"  stroke="#7f7fff" />
<line x1="714.791" y1="905.476" x2="805.304" y2="905.476"  stroke="#7f7fff" />
<polyline fill="none" stroke="#7f7fff" points="805.304,494.524 804.412,498.675 803.539,502.826 802.685,506.977 801.85,511.128 801.034,515.279 800.237,519.43 799.458,523.581 798.698,527.732 797.957,531.883 797.234,536.034 796.53,540.185 795.845,544.336 795.178,548.487 794.53,552.638 793.9,556.79 793.288,560.941 792.695,565.092 792.12,569.243 791.563,573.394 791.025,577.545 790.505,581.696 790.003,585.847 789.519,589.998 789.053,594.149 788.606,598.3 788.177,602.451 787.765,606.602 787.372,610.753 786.997,614.904 786.639,619.055 786.3,623.206 785.979,627.357 785.676,631.508 785.39,635.659 785.123,639.81 784.873,643.961 784.641,648.112 784.427,652.263 784.231,656.414 784.053,660.565 783.893,664.716 783.751,668.867 783.626,673.018 783.519,677.169 783.43,681.32 783.359,685.471 783.306,689.622 783.27,693.773 783.252,697.924 783.252,702.076 783.27,706.227 783.306,710.378 783.359,714.529 783.43,718.68 783.519,722.831 783.626,726.982 783.751,731.133 783.893,735.284 784.053,739.435 784.231,743.586 784.427,747.737 784.641,751.888 784.873,756.039 785.123,760.19 785.39,764.341 785.676,768.492 785.979,772.643 786.3,776.794 786.639,780.945 786.997,785.096 787.372,789.247 787.765,793.398 788.177,797.549 788.606,801.7 789.053,805.851 789.519,810.002 790.003,814.153 790.505,818.304 791.025,822.455 791.563,826.606 792.12,830.757 792.695,834.908 793.288,839.059 793.9,843.21 794.53,847.362 795.178,851.513 795.845,855.664 796.53,859.815 797.234,863.966 797.957,868.117 798.698,872.268 799.458,876.419 800.237,880.57 801.034,884.721 801.85,888.872 802.685,893.023 803.539,897.174 804.412,901.325 805.304,905.476 " />
</g>
<g>
<polyline fill="none" stroke="#7f7fff" points="819.527,494.524 818.023,498.675 816.576,502.826 815.18,506.977 813.834,511.128 812.533,515.279 811.277,519.43 810.061,523.581 808.885,527.732 807.747,531.883 806.645,536.034 805.577,540.185 804.542,544.336 803.54,548.487 802.568,552.638 801.628,556.79 800.717,560.941 799.835,565.092 798.982,569.243 798.156,573.394 797.359,577.545 796.589,581.696 795.846,585.847 795.131,589.998 794.442,594.149 793.779,598.3 793.144,602.451 792.535,606.602 791.952,610.753 791.396,614.904 790.866,619.055 790.362,623.206 789.885,627.357 789.434,631.508 789.01,635.659 788.612,639.81 788.24,643.961 787.895,648.112 787.576,652.263 787.284,656.414 787.018,660.565 786.779,664.716 786.567,668.867 786.38,673.018 786.221,677.169 786.088,681.32 785.981,685.471 785.902,689.622 785.848,693.773 785.822,697.924 785.822,702.076 785.848,706.227 785.902,710.378 785.981,714.529 786.088,718.68 786.221,722.831 786.38,726.982 786.567,731.133 786.779,735.284 787.018,739.435 787.284,743.586 787.576,747.737 787.895,751.888 788.24,756.039 788.612,760.19 789.01,764.341 789.434,768.492 789.885,772.643 790.362,776.794 790.866,780.945 791.396,785.096 791.952,789.247 792.535,793.398 793.144,797.549 793.779,801.7 794.442,805.851 795.131,810.002 795.846,814.153 796.589,818.304 797.359,822.455 798.156,826.606 798.982,830.757 799.835,834.908 800.717,839.059 801.628,843.21 802.568,847.362 803.54,851.513 804.542,855.664 805.577,859.815 806.645,863.966 807.747,868.117 808.885,872.268 810.061,876.419 811.277,880.57 812.533,884.721 813.834,888.872 815.18,893.023 816.576,897.174 818.023,901.325 819.527,905.476 " />
<line x1="819.527" y1="494.524" x2="844.59" y2="494.524"  stroke="#7f7fff" />
<line x1="819.527" y1="905.476" x2="844.59" y2="905.476"  stroke="#7f7fff" />
<polyline fill="none" stroke="#7f7fff" points="844.59,494.524 843.609,498.675 842.694,502.826 841.841,506.977 841.044,511.128 840.3,515.279 839.605,519.43 838.955,523.581 838.347,527.732 837.778,531.883 837.246,536.034 836.747,540.185 836.28,544.336 835.842,548.487 835.431,552.638 835.046,556.79 834.685,560.941 834.346,565.092 834.028,569.243 833.73,573.394 833.45,577.545 833.187,581.696 832.941,585.847 832.711,589.998 832.495,594.149 832.293,598.3 832.103,602.451 831.927,606.602 831.762,610.753 831.608,614.904 831.464,619.055 831.331,623.206 831.207,627.357 831.092,631.508 830.987,635.659 830.889,639.81 830.8,643.961 830.718,648.112 830.643,652.263 830.576,656.414 830.516,660.565 830.462,664.716 830.415,668.867 830.374,673.018 830.339,677.169 830.31,681.32 830.287,685.471 830.27,689.622 830.259,693.773 830.253,697.924 830.253,702.076 830.259,706.227 830.27,710.378 830.287,714.529 830.31,718.68 830.339,722.831 830.374,726.982 830.415,731.133 830.462,735.284 830.516,739.435 830.576,743.586 830.643,747.737 830.718,751.888 830.8,756.039 830.889,760.19 830.987,764.341 831.092,768.492 831.207,772.643 831.331,776.794 831.464,780.945 831.608,785.096 831.762,789.247 831.927,793.398 832.103,797.549 832.293,801.7 832.495,805.851 832.711,810.002 832.941,814.153 833.187,818.304 833.45,822.455 833.73,826.606 834.028,830.757 834.346,834.908 834.685,839.059 835.046,843.21 835.431,847.362 835.842,851.513 836.28,855.664 836.747,859.815 837.246,863.966 837.778,868.117 838.347,872.268 838.955,876.419 839.605,880.57 840.3,884.721 841.044,888.872 841.841,893.023 842.694,897.174 843.609,901.325 844.59,905.476 " />
</g>
<g>
<polyline fill="none" stroke="#7f7fff" points="859.013,494.524 858.014,498.675 857.035,502.826 856.079,506.977 855.143,511.128 854.229,515.279 853.337,519.43 852.465,523.581 851.615,527.732 850.785,531.883 849.977,536.034 849.19,540.185 848.423,544.336 847.677,548.487 846.952,552.638 846.248,556.79 845.565,560.941 844.902,565.092 844.26,569.243 843.638,573.394 843.037,577.545 842.456,581.696 841.895,585.847 841.355,589.998 840.835,594.149 840.336,598.3 839.857,602.451 839.398,606.602 838.959,610.753 838.54,614.904 838.142,619.055 837.763,623.206 837.405,627.357 837.066,631.508 836.748,635.659 836.45,639.81 836.172,643.961 835.913,648.112 835.675,652.263 835.456,656.414 835.258,660.565 835.079,664.716 834.92,668.867 834.781,673.018 834.662,677.169 834.563,681.32 834.484,685.471 834.424,689.622 834.384,693.773 834.365,697.924 834.365,702.076 834.384,706.227 834.424,710.378 834.484,714.529 834.563,718.68 834.662,722.831 834.781,726.982 834.92,731.133 835.079,735.284 835.258,739.435 835.456,743.586 835.675,747.737 835.913,751.888 836.172,756.039 836.45,760.19 836.748,764.341 837.066,768.492 837.405,772.643 837.763,776.794 838.142,780.945 838.54,785.096 838.959,789.247 839.398,793.398 839.857,797.549 840.336,801.7 840.835,805.851 841.355,810.002 841.895,814.153 842.456,818.304 843.037,822.455 843.638,826.606 844.26,830.757 844.902,834.908 845.565,839.059 846.248,843.21 846.952,847.362 847.677,851.513 848.423,855.664 849.19,859.815 849.977,863.966 850.785,868.117 851.615,872.268 852.465,876.419 853.337,880.57 854.229,884.721 855.143,888.872 856.079,893.023 857.035,897.174 858.014,901.325 859.013,905.476 " />
<line x1="859.013" y1="494.524" x2="898.748" y2="494.524"  stroke="#7f7fff" />
<line x1="859.013" y1="905.476" x2="898.748" y2="905.476"  stroke="#7f7fff" />
<polyline fill="none" stroke="#7f7fff" points="898.748,494.524 900.094,498.675 901.41,502.826 902.696,506.977 903.951,511.128 905.178,515.279 906.374,519.43 907.541,523.581 908.679,527.732 909.788,531.883 910.868,536.034 911.919,540.185 912.942,544.336 913.936,548.487 914.902,552.638 915.839,556.79 916.749,560.941 917.631,565.092 918.484,569.243 919.31,573.394 920.108,577.545 920.879,581.696 921.622,585.847 922.338,589.998 923.027,594.149 923.688,598.3 924.323,602.451 924.93,606.602 925.511,610.753 926.064,614.904 926.591,619.055 927.091,623.206 927.565,627.357 928.011,631.508 928.432,635.659 928.825,639.81 929.192,643.961 929.533,648.112 929.848,652.263 930.136,656.414 930.398,660.565 930.633,664.716 930.843,668.867 931.026,673.018 931.183,677.169 931.313,681.32 931.418,685.471 931.496,689.622 931.548,693.773 931.575,697.924 931.575,702.076 931.548,706.227 931.496,710.378 931.418,714.529 931.313,718.68 931.183,722.831 931.026,726.982 930.843,731.133 930.633,735.284 930.398,739.435 930.136,743.586 929.848,747.737 929.533,751.888 929.192,756.039 928.825,760.19 928.432,764.341 928.011,768.492 927.565,772.643 927.091,776.794 926.591,780.945 926.064,785.096 925.511,789.247 924.93,793.398 924.323,797.549 923.688,801.7 923.027,805.851 922.338,810.002 921.622,814.153 920.879,818.304 920.108,822.455 919.31,826.606 918.484,830.757 917.631,834.908 916.749,839.059 915.839,843.21 914.902,847.362 913.936,851.513 912.942,855.664 911.919,859.815 910.868,863.966 909.788,868.117 908.679,872.268 907.541,876.419 906.374,880.57 905.178,884.721 903.951,888.872 902.696,893.023 901.41,897.174 900.094,901.325 898.748,905.476 " />
</g>
<g>
<polyline fill="none" stroke="#7f7fff" points="955.859,513.787 954.979,517.549 954.118,521.311 953.276,525.073 952.453,528.835 951.648,532.597 950.862,536.359 950.095,540.121 949.346,543.882 948.616,547.644 947.904,551.406 947.211,555.168 946.536,558.93 945.879,562.692 945.24,566.454 944.62,570.215 944.018,573.977 943.434,577.739 942.868,581.501 942.32,585.263 941.791,589.025 941.279,592.787 940.785,596.549 940.309,600.31 939.851,604.072 939.411,607.834 938.989,611.596 938.584,615.358 938.198,619.12 937.829,622.882 937.478,626.644 937.144,630.405 936.828,634.167 936.53,637.929 936.25,641.691 935.987,645.453 935.741,649.215 935.514,652.977 935.303,656.738 935.111,660.5 934.936,664.262 934.778,668.024 934.638,671.786 934.516,675.548 934.411,679.31 934.323,683.072 934.253,686.833 934.201,690.595 934.166,694.357 934.149,698.119 934.149,701.881 934.166,705.643 934.201,709.405 934.253,713.167 934.323,716.928 934.411,720.69 934.516,724.452 934.638,728.214 934.778,731.976 934.936,735.738 935.111,739.5 935.303,743.262 935.514,747.023 935.741,750.785 935.987,754.547 936.25,758.309 936.53,762.071 936.828,765.833 937.144,769.595 937.478,773.356 937.829,777.118 938.198,780.88 938.584,784.642 938.989,788.404 939.411,792.166 939.851,795.928 940.309,799.69 940.785,803.451 941.279,807.213 941.791,810.975 942.32,814.737 942.868,818.499 943.434,822.261 944.018,826.023 944.62,829.785 945.24,833.546 945.879,837.308 946.536,841.07 947.211,844.832 947.904,848.594 948.616,852.356 949.346,856.118 950.095,859.879 950.862,863.641 951.648,867.403 952.453,871.165 953.276,874.927 954.118,878.689 954.979,882.451 955.859,886.213 " />
<line x1="955.859" y1="513.787" x2="973.821" y2="513.787"  stroke="#7f7fff" />
<line x1="955.859" y1="886.213" x2="973.821" y2="886.213"  stroke="#7f7fff" />
<polyline fill="none" stroke="#7f7fff" points="973.821,513.787 974.664,517.549 975.488,521.311 976.295,525.073 977.083,528.835 977.854,532.597 978.607,536.359 979.342,540.121 980.059,543.882 980.759,547.644 981.441,551.406 982.106,555.168 982.752,558.93 983.382,562.692 983.994,566.454 984.588,570.215 985.165,573.977 985.725,577.739 986.268,581.501 986.793,585.263 987.301,589.025 987.792,592.787 988.265,596.549 988.721,600.31 989.161,604.072 989.583,607.834 989.988,611.596 990.376,615.358 990.746,619.12 991.1,622.882 991.437,626.644 991.757,630.405 992.06,634.167 992.346,637.929 992.615,641.691 992.868,645.453 993.103,649.215 993.321,652.977 993.523,656.738 993.708,660.5 993.876,664.262 994.027,668.024 994.161,671.786 994.279,675.548 994.38,679.31 994.463,683.072 994.531,686.833 994.581,690.595 994.614,694.357 994.631,698.119 994.631,701.881 994.614,705.643 994.581,709.405 994.531,713.167 994.463,716.928 994.38,720.69 994.279,724.452 994.161,728.214 994.027,731.976 993.876,735.738 993.708,739.5 993.523,743.262 993.321,747.023 993.103,750.785 992.868,754.547 992.615,758.309 992.346,762.071 992.06,765.833 991.757,769.595 991.437,773.356 991.1,777.118 990.746,780.88 990.376,784.642 989.988,788.404 989.583,792.166 989.161,795.928 988.721,799.69 988.265,803.451 987.792,807.213 987.301,810.975 986.793,814.737 986.268,818.499 985.725,822.261 985.165,826.023 984.588,829.785 983.994,833.546 983.382,837.308 982.752,841.07 982.106,844.832 981.441,848.594 980.759,852.356 980.059,856.118 979.342,859.879 978.607,863.641 977.854,867.403 977.083,871.165 976.295,874.927 975.488,878.689 974.664,882.451 973.821,886.213 " />
</g>
<g>
<polyline fill="none" stroke="#7f7fff" points="1003.502,520.209 1003.25,523.841 1003.003,527.473 1002.761,531.105 1002.524,534.737 1002.292,538.369 1002.066,542.001 1001.845,545.634 1001.629,549.266 1001.418,552.898 1001.212,556.53 1001.011,560.162 1000.816,563.794 1000.626,567.427 1000.44,571.059 1000.26,574.691 1000.086,578.323 999.916,581.955 999.751,585.587 999.592,589.219 999.438,592.852 999.289,596.484 999.145,600.116 999.006,603.748 998.872,607.38 998.744,611.012 998.62,614.644 998.502,618.277 998.389,621.909 998.281,625.541 998.179,629.173 998.081,632.805 997.988,636.437 997.901,640.07 997.819,643.702 997.742,647.334 997.67,650.966 997.603,654.598 997.541,658.23 997.485,661.862 997.434,665.495 997.387,669.127 997.346,672.759 997.31,676.391 997.279,680.023 997.254,683.655 997.233,687.287 997.218,690.92 997.208,694.552 997.202,698.184 997.202,701.816 997.208,705.448 997.218,709.08 997.233,712.713 997.254,716.345 997.279,719.977 997.31,723.609 997.346,727.241 997.387,730.873 997.434,734.505 997.485,738.138 997.541,741.77 997.603,745.402 997.67,749.034 997.742,752.666 997.819,756.298 997.901,759.93 997.988,763.563 998.081,767.195 998.179,770.827 998.281,774.459 998.389,778.091 998.502,781.723 998.62,785.356 998.744,788.988 998.872,792.62 999.006,796.252 999.145,799.884 999.289,803.516 999.438,807.148 999.592,810.781 999.751,814.413 999.916,818.045 1000.086,821.677 1000.26,825.309 1000.44,828.941 1000.626,832.573 1000.816,836.206 1001.011,839.838 1001.212,843.47 1001.418,847.102 1001.629,850.734 1001.845,854.366 1002.066,857.999 1002.292,861.631 1002.524,865.263 1002.761,868.895 1003.003,872.527 1003.25,876.159 1003.502,879.791 " />
<line x1="1003.502" y1="520.209" x2="1063.147" y2="520.209"  stroke="#7f7fff" />
<line x1="1003.502" y1="879.791" x2="1063.147" y2="879.791"  stroke="#7f7fff" />
<polyline fill="none" stroke="#7f7fff" points="1063.147,520.209 1061.213,523.841 1059.33,527.473 1057.496,531.105 1055.71,534.737 1053.972,538.369 1052.282,542.001 1050.637,545.634 1049.039,549.266 1047.486,552.898 1045.977,556.53 1044.512,560.162 1043.09,563.794 1041.712,567.427 1040.375,571.059 1039.081,574.691 1037.828,578.323 1036.616,581.955 1035.445,585.587 1034.314,589.219 1033.223,592.852 1032.171,596.484 1031.159,600.116 1030.185,603.748 1029.25,607.38 1028.353,611.012 1027.493,614.644 1026.672,618.277 1025.888,621.909 1025.141,625.541 1024.431,629.173 1023.758,632.805 1023.122,636.437 1022.521,640.07 1021.957,643.702 1021.429,647.334 1020.937,650.966 1020.481,654.598 1020.06,658.23 1019.675,661.862 1019.325,665.495 1019.01,669.127 1018.73,672.759 1018.486,676.391 1018.277,680.023 1018.102,683.655 1017.963,687.287 1017.858,690.92 1017.789,694.552 1017.754,698.184 1017.754,701.816 1017.789,705.448 1017.858,709.08 1017.963,712.713 1018.102,716.345 1018.277,719.977 1018.486,723.609 1018.73,727.241 1019.01,730.873 1019.325,734.505 1019.675,738.138 1020.06,741.77 1020.481,745.402 1020.937,749.034 1021.429,752.666 1021.957,756.298 1022.521,759.93 1023.122,763.563 1023.758,767.195 1024.431,770.827 1025.141,774.459 1025.888,778.091 1026.672,781.723 1027.493,785.356 1028.353,788.988 1029.25,792.62 1030.185,796.252 1031.159,799.884 1032.171,803.516 1033.223,807.148 1034.314,810.781 1035.445,814.413 1036.616,818.045 1037.828,821.677 1039.081,825.309 1040.375,828.941 1041.712,832.573 1043.09,836.206 1044.512,839.838 1045.977,843.47 1047.486,847.102 1049.039,850.734 1050.637,854.366 1052.282,857.999 1053.972,861.631 1055.71,865.263 1057.496,868.895 1059.33,872.527 1061.213,876.159 1063.147,879.791 " />
</g>
<g>
<polyline fill="none" stroke="#7f7fff" points="1107.631,526.63 1108.6,530.132 1109.547,533.635 1110.473,537.137 1111.377,540.639 1112.261,544.142 1113.124,547.644 1113.967,551.147 1114.788,554.649 1115.589,558.152 1116.37,561.654 1117.13,565.156 1117.87,568.659 1118.589,572.161 1119.288,575.664 1119.967,579.166 1120.626,582.669 1121.265,586.171 1121.884,589.673 1122.483,593.176 1123.062,596.678 1123.621,600.181 1124.161,603.683 1124.681,607.186 1125.181,610.688 1125.662,614.19 1126.123,617.693 1126.564,621.195 1126.986,624.698 1127.389,628.2 1127.772,631.703 1128.136,635.205 1128.48,638.707 1128.805,642.21 1129.111,645.712 1129.398,649.215 1129.665,652.717 1129.914,656.22 1130.143,659.722 1130.352,663.224 1130.543,666.727 1130.715,670.229 1130.867,673.732 1131.001,677.234 1131.115,680.737 1131.21,684.239 1131.287,687.741 1131.344,691.244 1131.382,694.746 1131.401,698.249 1131.401,701.751 1131.382,705.254 1131.344,708.756 1131.287,712.259 1131.21,715.761 1131.115,719.263 1131.001,722.766 1130.867,726.268 1130.715,729.771 1130.543,733.273 1130.352,736.776 1130.143,740.278 1129.914,743.78 1129.665,747.283 1129.398,750.785 1129.111,754.288 1128.805,757.79 1128.48,761.293 1128.136,764.795 1127.772,768.297 1127.389,771.8 1126.986,775.302 1126.564,778.805 1126.123,782.307 1125.662,785.81 1125.181,789.312 1124.681,792.814 1124.161,796.317 1123.621,799.819 1123.062,803.322 1122.483,806.824 1121.884,810.327 1121.265,813.829 1120.626,817.331 1119.967,820.834 1119.288,824.336 1118.589,827.839 1117.87,831.341 1117.13,834.844 1116.37,838.346 1115.589,841.848 1114.788,845.351 1113.967,848.853 1113.124,852.356 1112.261,855.858 1111.377,859.361 1110.473,862.863 1109.547,866.365 1108.6,869.868 1107.631,873.37 " />
<line x1="1107.631" y1="526.63" x2="1201.764" y2="526.63"  stroke="#7f7fff" />
<line x1="1107.631" y1="873.37" x2="1201.764" y2="873.37"  stroke="#7f7fff" />
<polyline fill="none" stroke="#7f7fff" points="1201.764,526.63 1199.601,530.132 1197.498,533.635 1195.454,537.137 1193.468,540.639 1191.538,544.142 1189.664,547.644 1187.844,551.147 1186.077,554.649 1184.362,558.152 1182.699,561.654 1181.087,565.156 1179.524,568.659 1178.01,572.161 1176.544,575.664 1175.126,579.166 1173.754,582.669 1172.429,586.171 1171.149,589.673 1169.915,593.176 1168.725,596.678 1167.578,600.181 1166.476,603.683 1165.416,607.186 1164.4,610.688 1163.425,614.19 1162.492,617.693 1161.601,621.195 1160.75,624.698 1159.941,628.2 1159.172,631.703 1158.443,635.205 1157.754,638.707 1157.104,642.21 1156.494,645.712 1155.923,649.215 1155.392,652.717 1154.898,656.22 1154.444,659.722 1154.028,663.224 1153.65,666.727 1153.31,670.229 1153.009,673.732 1152.745,677.234 1152.519,680.737 1152.331,684.239 1152.181,687.741 1152.068,691.244 1151.993,694.746 1151.956,698.249 1151.956,701.751 1151.993,705.254 1152.068,708.756 1152.181,712.259 1152.331,715.761 1152.519,719.263 1152.745,722.766 1153.009,726.268 1153.31,729.771 1153.65,733.273 1154.028,736.776 1154.444,740.278 1154.898,743.78 1155.392,747.283 1155.923,750.785 1156.494,754.288 1157.104,757.79 1157.754,761.293 1158.443,764.795 1159.172,768.297 1159.941,771.8 1160.75,775.302 1161.601,778.805 1162.492,782.307 1163.425,785.81 1164.4,789.312 1165.416,792.814 1166.476,796.317 1167.578,799.819 1168.725,803.322 1169.915,806.824 1171.149,810.327 1172.429,813.829 1173.754,817.331 1175.126,820.834 1176.544,824.336 1178.01,827.839 1179.524,831.341 1181.087,834.844 1182.699,838.346 1184.362,841.848 1186.077,845.351 1187.844,848.853 1189.664,852.356 1191.538,855.858 1193.468,859.361 1195.454,862.863 1197.498,866.365 1199.601,869.868 1201.764,873.37 " />
<line x1="1201.764" y1="520.209" x2="1201.764" y2="526.63"  stroke="#7f7fff" />
<line x1="1201.764" y1="520.209" x2="1217.139" y2="520.209"  stroke="#7f7fff" />
<line x1="1201.764" y1="879.791" x2="1201.764" y2="873.37"  stroke="#7f7fff" />
<line x1="1201.764" y1="879.791" x2="1217.139" y2="879.791"  stroke="#7f7fff" />
<polyline fill="none" stroke="#7f7fff" points="1217.139,520.209 1217.994,523.841 1218.832,527.473 1219.651,531.105 1220.451,534.737 1221.234,538.369 1221.998,542.001 1222.744,545.634 1223.472,549.266 1224.182,552.898 1224.875,556.53 1225.549,560.162 1226.205,563.794 1226.844,567.427 1227.465,571.059 1228.068,574.691 1228.653,578.323 1229.221,581.955 1229.771,585.587 1230.304,589.219 1230.819,592.852 1231.316,596.484 1231.796,600.116 1232.259,603.748 1232.704,607.38 1233.132,611.012 1233.543,614.644 1233.936,618.277 1234.312,621.909 1234.671,625.541 1235.012,629.173 1235.336,632.805 1235.643,636.437 1235.933,640.07 1236.206,643.702 1236.462,647.334 1236.7,650.966 1236.922,654.598 1237.126,658.23 1237.313,661.862 1237.483,665.495 1237.636,669.127 1237.772,672.759 1237.892,676.391 1237.994,680.023 1238.079,683.655 1238.147,687.287 1238.198,690.92 1238.232,694.552 1238.249,698.184 1238.249,701.816 1238.232,705.448 1238.198,709.08 1238.147,712.713 1238.079,716.345 1237.994,719.977 1237.892,723.609 1237.772,727.241 1237.636,730.873 1237.483,734.505 1237.313,738.138 1237.126,741.77 1236.922,745.402 1236.7,749.034 1236.462,752.666 1236.206,756.298 1235.933,759.93 1235.643,763.563 1235.336,767.195 1235.012,770.827 1234.671,774.459 1234.312,778.091 1233.936,781.723 1233.543,785.356 1233.132,788.988 1232.704,792.62 1232.259,796.252 1231.796,799.884 1231.316,803.516 1230.819,807.148 1230.304,810.781 1229.771,814.413 1229.221,818.045 1228.653,821.677 1228.068,825.309 1227.465,828.941 1226.844,832.573 1226.205,836.206 1225.549,839.838 1224.875,843.47 1224.182,847.102 1223.472,850.734 1222.744,854.366 1221.998,857.999 1221.234,861.631 1220.451,865.263 1219.651,868.895 1218.832,872.527 1217.994,876.159 1217.139,879.791 " />
</g>
<g>
<polyline fill="none" stroke="#7f7fff" points="1282.262,507.366 1280.736,511.258 1279.246,515.149 1277.791,519.041 1276.371,522.933 1274.986,526.824 1273.636,530.716 1272.32,534.607 1271.037,538.499 1269.789,542.391 1268.574,546.282 1267.392,550.174 1266.243,554.065 1265.127,557.957 1264.044,561.849 1262.993,565.74 1261.974,569.632 1260.986,573.523 1260.031,577.415 1259.107,581.307 1258.215,585.198 1257.354,589.09 1256.524,592.981 1255.724,596.873 1254.956,600.764 1254.218,604.656 1253.511,608.548 1252.834,612.439 1252.187,616.331 1251.571,620.222 1250.984,624.114 1250.428,628.006 1249.901,631.897 1249.404,635.789 1248.937,639.68 1248.499,643.572 1248.091,647.464 1247.713,651.355 1247.363,655.247 1247.043,659.138 1246.752,663.03 1246.491,666.921 1246.258,670.813 1246.055,674.705 1245.881,678.596 1245.736,682.488 1245.62,686.379 1245.533,690.271 1245.475,694.163 1245.446,698.054 1245.446,701.946 1245.475,705.837 1245.533,709.729 1245.62,713.621 1245.736,717.512 1245.881,721.404 1246.055,725.295 1246.258,729.187 1246.491,733.079 1246.752,736.97 1247.043,740.862 1247.363,744.753 1247.713,748.645 1248.091,752.536 1248.499,756.428 1248.937,760.32 1249.404,764.211 1249.901,768.103 1250.428,771.994 1250.984,775.886 1251.571,779.778 1252.187,783.669 1252.834,787.561 1253.511,791.452 1254.218,795.344 1254.956,799.236 1255.724,803.127 1256.524,807.019 1257.354,810.91 1258.215,814.802 1259.107,818.693 1260.031,822.585 1260.986,826.477 1261.974,830.368 1262.993,834.26 1264.044,838.151 1265.127,842.043 1266.243,845.935 1267.392,849.826 1268.574,853.718 1269.789,857.609 1271.037,861.501 1272.32,865.393 1273.636,869.284 1274.986,873.176 1276.371,877.067 1277.791,880.959 1279.246,884.851 1280.736,888.742 1282.262,892.634 " />
<line x1="1282.262" y1="507.366" x2="1293.817" y2="507.366"  stroke="#7f7fff" />
<line x1="1282.262" y1="892.634" x2="1293.817" y2="892.634"  stroke="#7f7fff" />
<polyline fill="none" stroke="#7f7fff" points="1293.817,507.366 1295.341,511.258 1296.829,515.149 1298.282,519.041 1299.7,522.933 1301.083,526.824 1302.431,530.716 1303.745,534.607 1305.026,538.499 1306.272,542.391 1307.486,546.282 1308.666,550.174 1309.813,554.065 1310.928,557.957 1312.01,561.849 1313.059,565.74 1314.077,569.632 1315.063,573.523 1316.017,577.415 1316.94,581.307 1317.831,585.198 1318.691,589.09 1319.52,592.981 1320.318,596.873 1321.085,600.764 1321.822,604.656 1322.528,608.548 1323.204,612.439 1323.85,616.331 1324.466,620.222 1325.052,624.114 1325.607,628.006 1326.133,631.897 1326.63,635.789 1327.096,639.68 1327.533,643.572 1327.941,647.464 1328.319,651.355 1328.668,655.247 1328.988,659.138 1329.278,663.03 1329.539,666.921 1329.771,670.813 1329.974,674.705 1330.148,678.596 1330.293,682.488 1330.409,686.379 1330.496,690.271 1330.554,694.163 1330.583,698.054 1330.583,701.946 1330.554,705.837 1330.496,709.729 1330.409,713.621 1330.293,717.512 1330.148,721.404 1329.974,725.295 1329.771,729.187 1329.539,733.079 1329.278,736.97 1328.988,740.862 1328.668,744.753 1328.319,748.645 1327.941,752.536 1327.533,756.428 1327.096,760.32 1326.63,764.211 1326.133,768.103 1325.607,771.994 1325.052,775.886 1324.466,779.778 1323.85,783.669 1323.204,787.561 1322.528,791.452 1321.822,795.344 1321.085,799.236 1320.318,803.127 1319.52,807.019 1318.691,810.91 1317.831,814.802 1316.94,818.693 1316.017,822.585 1315.063,826.477 1314.077,830.368 1313.059,834.26 1312.01,838.151 1310.928,842.043 1309.813,845.935 1308.666,849.826 1307.486,853.718 1306.272,857.609 1305.026,861.501 1303.745,865.393 1302.431,869.284 1301.083,873.176 1299.7,877.067 1298.282,880.959 1296.829,884.851 1295.341,888.742 1293.817,892.634 " />
<line x1="1293.817" y1="507.366" x2="1401.147" y2="507.366"  stroke="#7f7fff" />
<line x1="1293.817" y1="892.634" x2="1401.147" y2="892.634"  stroke="#7f7fff" />
<polyline fill="none" stroke="#7f7fff" points="1401.147,507.366 1399.008,511.258 1396.926,515.149 1394.9,519.041 1392.927,522.933 1391.009,526.824 1389.142,530.716 1387.328,534.607 1385.564,538.499 1383.851,542.391 1382.187,546.282 1380.572,550.174 1379.006,554.065 1377.487,557.957 1376.015,561.849 1374.589,565.74 1373.209,569.632 1371.875,573.523 1370.586,577.415 1369.341,581.307 1368.14,585.198 1366.983,589.09 1365.869,592.981 1364.798,596.873 1363.77,600.764 1362.784,604.656 1361.839,608.548 1360.936,612.439 1360.074,616.331 1359.253,620.222 1358.473,624.114 1357.734,628.006 1357.034,631.897 1356.375,635.789 1355.755,639.68 1355.175,643.572 1354.635,647.464 1354.133,651.355 1353.671,655.247 1353.248,659.138 1352.864,663.03 1352.518,666.921 1352.211,670.813 1351.943,674.705 1351.713,678.596 1351.521,682.488 1351.368,686.379 1351.254,690.271 1351.177,694.163 1351.139,698.054 1351.139,701.946 1351.177,705.837 1351.254,709.729 1351.368,713.621 1351.521,717.512 1351.713,721.404 1351.943,725.295 1352.211,729.187 1352.518,733.079 1352.864,736.97 1353.248,740.862 1353.671,744.753 1354.133,748.645 1354.635,752.536 1355.175,756.428 1355.755,760.32 1356.375,764.211 1357.034,768.103 1357.734,771.994 1358.473,775.886 1359.253,779.778 1360.074,783.669 1360.936,787.561 1361.839,791.452 1362.784,795.344 1363.77,799.236 1364.798,803.127 1365.869,807.019 1366.983,810.91 1368.14,814.802 1369.341,818.693 1370.586,822.585 1371.875,826.477 1373.209,830.368 1374.589,834.26 1376.015,838.151 1377.487,842.043 1379.006,845.935 1380.572,849.826 1382.187,853.718 1383.851,857.609 1385.564,861.501 1387.328,865.393 1389.142,869.284 1391.009,873.176 1392.927,877.067 1394.9,880.959 1396.926,884.851 1399.008,888.742 1401.147,892.634 " />
</g>
<g>
<polyline fill="none" stroke="#7f7fff" points="1415.958,494.524 1420.81,498.675 1425.606,502.826 1430.312,506.977 1434.905,511.128 1439.364,515.279 1443.677,519.43 1447.833,523.581 1451.825,527.732 1455.651,531.883 1459.309,536.034 1462.8,540.185 1466.125,544.336 1469.287,548.487 1472.289,552.638 1475.137,556.79 1477.835,560.941 1480.387,565.092 1482.799,569.243 1485.076,573.394 1487.222,577.545 1489.244,581.696 1491.145,585.847 1492.931,589.998 1494.606,594.149 1496.175,598.3 1497.642,602.451 1499.012,606.602 1500.288,610.753 1501.475,614.904 1502.577,619.055 1503.597,623.206 1504.539,627.357 1505.407,631.508 1506.204,635.659 1506.933,639.81 1507.598,643.961 1508.202,648.112 1508.747,652.263 1509.236,656.414 1509.672,660.565 1510.057,664.716 1510.394,668.867 1510.684,673.018 1510.93,677.169 1511.131,681.32 1511.291,685.471 1511.411,689.622 1511.489,693.773 1511.529,697.924 1511.529,702.076 1511.489,706.227 1511.411,710.378 1511.291,714.529 1511.131,718.68 1510.93,722.831 1510.684,726.982 1510.394,731.133 1510.057,735.284 1509.672,739.435 1509.236,743.586 1508.747,747.737 1508.202,751.888 1507.598,756.039 1506.933,760.19 1506.204,764.341 1505.407,768.492 1504.539,772.643 1503.597,776.794 1502.577,780.945 1501.475,785.096 1500.288,789.247 1499.012,793.398 1497.642,797.549 1496.175,801.7 1494.606,805.851 1492.931,810.002 1491.145,814.153 1489.244,818.304 1487.222,822.455 1485.076,826.606 1482.799,830.757 1480.387,834.908 1477.835,839.059 1475.137,843.21 1472.289,847.362 1469.287,851.513 1466.125,855.664 1462.8,859.815 1459.309,863.966 1455.651,868.117 1451.825,872.268 1447.833,876.419 1443.677,880.57 1439.364,884.721 1434.905,888.872 1430.312,893.023 1425.606,897.174 1420.81,901.325 1415.958,905.476 " />
<line x1="1415.958" y1="494.524" x2="1507.067" y2="494.524"  stroke="#7f7fff" />
<line x1="1415.958" y1="905.476" x2="1507.067" y2="905.476"  stroke="#7f7fff" />
<polyline fill="none" stroke="#7f7fff" points="1507.067,494.524 1508.757,498.675 1510.464,502.826 1512.175,506.977 1513.875,511.128 1515.554,515.279 1517.204,519.43 1518.817,523.581 1520.388,527.732 1521.914,531.883 1523.389,536.034 1524.813,540.185 1526.183,544.336 1527.497,548.487 1528.756,552.638 1529.958,556.79 1531.104,560.941 1532.194,565.092 1533.228,569.243 1534.207,573.394 1535.131,577.545 1536.001,581.696 1536.819,585.847 1537.585,589.998 1538.302,594.149 1538.97,598.3 1539.59,602.451 1540.165,606.602 1540.696,610.753 1541.185,614.904 1541.634,619.055 1542.044,623.206 1542.418,627.357 1542.757,631.508 1543.063,635.659 1543.339,639.81 1543.586,643.961 1543.805,648.112 1544,652.263 1544.172,656.414 1544.321,660.565 1544.451,664.716 1544.563,668.867 1544.657,673.018 1544.736,677.169 1544.799,681.32 1544.849,685.471 1544.886,689.622 1544.91,693.773 1544.922,697.924 1544.922,702.076 1544.91,706.227 1544.886,710.378 1544.849,714.529 1544.799,718.68 1544.736,722.831 1544.657,726.982 1544.563,731.133 1544.451,735.284 1544.321,739.435 1544.172,743.586 1544,747.737 1543.805,751.888 1543.586,756.039 1543.339,760.19 1543.063,764.341 1542.757,768.492 1542.418,772.643 1542.044,776.794 1541.634,780.945 1541.185,785.096 1540.696,789.247 1540.165,793.398 1539.59,797.549 1538.97,801.7 1538.302,805.851 1537.585,810.002 1536.819,814.153 1536.001,818.304 1535.131,822.455 1534.207,826.606 1533.228,830.757 1532.194,834.908 1531.104,839.059 1529.958,843.21 1528.756,847.362 1527.497,851.513 1526.183,855.664 1524.813,859.815 1523.389,863.966 1521.914,868.117 1520.388,872.268 1518.817,876.419 1517.204,880.57 1515.554,884.721 1513.875,888.872 1512.175,893.023 1510.464,897.174 1508.757,901.325 1507.067,905.476 " />
</g>
</g>
<g><title>element</title>
<polyline fill="none" stroke="#7f7fff" points="1737.557,144.444 1737.557,155.668 1737.557,166.891 1737.557,178.114 1737.557,189.338 1737.557,200.561 1737.557,211.785 1737.557,223.008 1737.557,234.231 1737.557,245.455 1737.557,256.678 1737.557,267.901 1737.557,279.125 1737.557,290.348 1737.557,301.571 1737.557,312.795 1737.557,324.018 1737.557,335.241 1737.557,346.465 1737.557,357.688 1737.557,368.911 1737.557,380.135 1737.557,391.358 1737.557,402.581 1737.557,413.805 1737.557,425.028 1737.557,436.251 1737.557,447.475 1737.557,458.698 1737.557,469.921 1737.557,481.145 1737.557,492.368 1737.557,503.591 1737.557,514.815 1737.557,526.038 1737.557,537.262 1737.557,548.485 1737.557,559.708 1737.557,570.932 1737.557,582.155 1737.557,593.378 1737.557,604.602 1737.557,615.825 1737.557,627.048 1737.557,638.272 1737.557,649.495 1737.557,660.718 1737.557,671.942 1737.557,683.165 1737.557,694.388 1737.557,705.612 1737.557,716.835 1737.557,728.058 1737.557,739.282 1737.557,750.505 1737.557,761.728 1737.557,772.952 1737.557,784.175 1737.557,795.398 1737.557,806.622 1737.557,817.845 1737.557,829.068 1737.557,840.292 1737.557,851.515 1737.557,862.738 1737.557,873.962 1737.557,885.185 1737.557,896.409 1737.557,907.632 1737.557,918.855 1737.557,930.079 1737.557,941.302 1737.557,952.525 1737.557,963.749 1737.557,974.972 1737.557,986.195 1737.557,997.419 1737.557,1008.642 1737.557,1019.865 1737.557,1031.089 1737.557,1042.312 1737.557,1053.535 1737.557,1064.759 1737.557,1075.982 1737.557,1087.205 1737.557,1098.429 1737.557,1109.652 1737.557,1120.875 1737.557,1132.099 1737.557,1143.322 1737.557,1154.545 1737.557,1165.769 1737.557,1176.992 1737.557,1188.215 1737.557,1199.439 1737.557,1210.662 1737.557,1221.886 1737.557,1233.109 1737.557,1244.332 1737.557,1255.556 " />
</g>
</svg>
