<?xml version="1.0" standalone="no"?>
<svg width="2400px" height="1400px" version="1.1" xmlns="http://www.w3.org/2000/svg" xmlns:xlink="http://www.w3.org/1999/xlink">
<rect x="0" y="0" width="2400" height="1400"  fill="#ffffff" />
<defs>
<g id="dot">
<line x1="1" y1="1" x2="0" y2="0"  />
</g>
<g id="cross">
<line x1="-3" y1="0" x2="3" y2="0"  />
<line x1="0" y1="-3" x2="0" y2="3"  />
</g>
<g id="square">
<line x1="-3" y1="-3" x2="-3" y2="3"  />
<line x1="-3" y1="3" x2="3" y2="3"  />
<line x1="3" y1="3" x2="3" y2="-3"  />
<line x1="3" y1="-3" x2="-3" y2="-3"  />
</g>
<g id="round">
<ellipse cx="0" cy="0" rx="3" ry="3"  fill="none" /></g>
<g id="triangle">
<line x1="0" y1="-3" x2="-3" y2="3"  />
<line x1="-3" y1="3" x2="3" y2="3"  />
<line x1="0" y1="-3" x2="3" y2="3"  />
</g>
</defs>
<line x1="664.511" y1="700" x2="1735.489" y2="700"  stroke="#7f7f7f" />
<g><title>element</title>
<g>
<line x1="1086.185" y1="553.476" x2="1086.185" y2="406.953"  stroke="#7f7fff" />
<line x1="1086.185" y1="846.524" x2="1086.185" y2="993.047"  stroke="#7f7fff" />
</g>
<g>
<polyline fill="none" stroke="#7f7fff" points="714.545,498.377 716.426,502.45 718.261,506.523 720.05,510.596 721.794,514.67 723.493,518.743 725.148,522.816 726.76,526.889 728.329,530.962 729.854,535.036 731.338,539.109 732.78,543.182 734.18,547.255 735.54,551.328 736.858,555.402 738.137,559.475 739.375,563.548 740.574,567.621 741.734,571.694 742.854,575.767 743.936,579.841 744.979,583.914 745.984,587.987 746.952,592.06 747.881,596.133 748.773,600.207 749.627,604.28 750.445,608.353 751.226,612.426 751.97,616.499 752.677,620.573 753.348,624.646 753.983,628.719 754.582,632.792 755.145,636.865 755.672,640.939 756.163,645.012 756.619,649.085 757.04,653.158 757.425,657.231 757.775,661.305 758.089,665.378 758.369,669.451 758.613,673.524 758.822,677.597 758.997,681.671 759.136,685.744 759.241,689.817 759.311,693.89 759.345,697.963 759.345,702.037 759.311,706.11 759.241,710.183 759.136,714.256 758.997,718.329 758.822,722.403 758.613,726.476 758.369,730.549 758.089,734.622 757.775,738.695 757.425,742.769 757.04,746.842 756.619,750.915 756.163,754.988 755.672,759.061 755.145,763.135 754.582,767.208 753.983,771.281 753.348,775.354 752.677,779.427 751.97,783.501 751.226,787.574 750.445,791.647 749.627,795.72 748.773,799.793 747.881,803.867 746.952,807.94 745.984,812.013 744.979,816.086 743.936,820.159 742.854,824.233 741.734,828.306 740.574,832.379 739.375,836.452 738.137,840.525 736.858,844.598 735.54,848.672 734.18,852.745 732.78,856.818 731.338,860.891 729.854,864.964 728.329,869.038 726.76,873.111 725.148,877.184 723.493,881.257 721.794,885.33 720.05,889.404 718.261,893.477 716.426,897.55 714.545,901.623 " />
<line x1="714.545" y1="498.377" x2="802.407" y2="498.377"  stroke="#7f7fff" />
<line x1="714.545" y1="901.623" x2="802.407" y2="901.623"  stroke="#7f7fff" />
<polyline fill="none" stroke="#7f7fff" points="802.407,498.377 801.549,502.45 800.709,506.523 799.888,510.596 799.084,514.67 798.299,518.743 797.532,522.816 796.783,526.889 796.052,530.962 795.338,535.036 794.643,539.109 793.965,543.182 793.306,547.255 792.664,551.328 792.04,555.402 791.434,559.475 790.845,563.548 790.274,567.621 789.721,571.694 789.185,575.767 788.667,579.841 788.166,583.914 787.683,587.987 787.217,592.06 786.769,596.133 786.338,600.207 785.925,604.28 785.529,608.353 785.15,612.426 784.789,616.499 784.445,620.573 784.118,624.646 783.809,628.719 783.517,632.792 783.242,636.865 782.985,640.939 782.744,645.012 782.521,649.085 782.315,653.158 782.127,657.231 781.955,661.305 781.801,665.378 781.664,669.451 781.544,673.524 781.441,677.597 781.355,681.671 781.287,685.744 781.235,689.817 781.201,693.89 781.184,697.963 781.184,702.037 781.201,706.11 781.235,710.183 781.287,714.256 781.355,718.329 781.441,722.403 781.544,726.476 781.664,730.549 781.801,734.622 781.955,738.695 782.127,742.769 782.315,746.842 782.521,750.915 782.744,754.988 782.985,759.061 783.242,763.135 783.517,767.208 783.809,771.281 784.118,775.354 784.445,779.427 784.789,783.501 785.15,787.574 785.529,791.647 785.925,795.72 786.338,799.793 786.769,803.867 787.217,807.94 787.683,812.013 788.166,816.086 788.667,820.159 789.185,824.233 789.721,828.306 790.274,832.379 790.845,836.452 791.434,840.525 792.04,844.598 792.664,848.672 793.306,852.745 793.965,856.818 794.643,860.891 795.338,864.964 796.052,869.038 796.783,873.111 797.532,877.184 798.299,881.257 799.084,885.33 799.888,889.404 800.709,893.477 801.549,897.55 802.407,901.623 " />
</g>
<g>
<polyline fill="none" stroke="#7f7fff" points="814.668,502.358 813.319,506.351 812.016,510.343 810.757,514.336 809.538,518.329 808.358,522.322 807.214,526.314 806.107,530.307 805.033,534.3 803.991,538.293 802.981,542.286 802.001,546.278 801.05,550.271 800.128,554.264 799.234,558.257 798.367,562.249 797.527,566.242 796.713,570.235 795.926,574.228 795.163,578.22 794.427,582.213 793.715,586.206 793.028,590.199 792.366,594.192 791.729,598.184 791.117,602.177 790.529,606.17 789.965,610.163 789.426,614.155 788.911,618.148 788.421,622.141 787.955,626.134 787.513,630.127 787.096,634.119 786.703,638.112 786.335,642.105 785.991,646.098 785.672,650.09 785.377,654.083 785.106,658.076 784.86,662.069 784.639,666.061 784.442,670.054 784.27,674.047 784.122,678.04 783.999,682.033 783.901,686.025 783.827,690.018 783.778,694.011 783.753,698.004 783.753,701.996 783.778,705.989 783.827,709.982 783.901,713.975 783.999,717.967 784.122,721.96 784.27,725.953 784.442,729.946 784.639,733.939 784.86,737.931 785.106,741.924 785.377,745.917 785.672,749.91 785.991,753.902 786.335,757.895 786.703,761.888 787.096,765.881 787.513,769.873 787.955,773.866 788.421,777.859 788.911,781.852 789.426,785.845 789.965,789.837 790.529,793.83 791.117,797.823 791.729,801.816 792.366,805.808 793.028,809.801 793.715,813.794 794.427,817.787 795.163,821.78 795.926,825.772 796.713,829.765 797.527,833.758 798.367,837.751 799.234,841.743 800.128,845.736 801.05,849.729 802.001,853.722 802.981,857.714 803.991,861.707 805.033,865.7 806.107,869.693 807.214,873.686 808.358,877.678 809.538,881.671 810.757,885.664 812.016,889.657 813.319,893.649 814.668,897.642 " />
<line x1="814.668" y1="502.358" x2="840.726" y2="502.358"  stroke="#7f7fff" />
<line x1="814.668" y1="897.642" x2="840.726" y2="897.642"  stroke="#7f7fff" />
<polyline fill="none" stroke="#7f7fff" points="840.726,502.358 839.898,506.351 839.122,510.343 838.396,514.336 837.717,518.329 837.079,522.322 836.482,526.314 835.922,530.307 835.396,534.3 834.902,538.293 834.438,542.286 834.003,546.278 833.594,550.271 833.209,554.264 832.847,558.257 832.507,562.249 832.187,566.242 831.886,570.235 831.604,574.228 831.338,578.22 831.088,582.213 830.853,586.206 830.632,590.199 830.424,594.192 830.23,598.184 830.047,602.177 829.876,606.17 829.716,610.163 829.566,614.155 829.426,618.148 829.296,622.141 829.174,626.134 829.061,630.127 828.957,634.119 828.86,638.112 828.77,642.105 828.688,646.098 828.613,650.09 828.545,654.083 828.483,658.076 828.427,662.069 828.378,666.061 828.334,670.054 828.296,674.047 828.264,678.04 828.238,682.033 828.217,686.025 828.201,690.018 828.19,694.011 828.185,698.004 828.185,701.996 828.19,705.989 828.201,709.982 828.217,713.975 828.238,717.967 828.264,721.96 828.296,725.953 828.334,729.946 828.378,733.939 828.427,737.931 828.483,741.924 828.545,745.917 828.613,749.91 828.688,753.902 828.77,757.895 828.86,761.888 828.957,765.881 829.061,769.873 829.174,773.866 829.296,777.859 829.426,781.852 829.566,785.845 829.716,789.837 829.876,793.83 830.047,797.823 830.23,801.816 830.424,805.808 830.632,809.801 830.853,813.794 831.088,817.787 831.338,821.78 831.604,825.772 831.886,829.765 832.187,833.758 832.507,837.751 832.847,841.743 833.209,845.736 833.594,849.729 834.003,853.722 834.438,857.714 834.902,861.707 835.396,865.7 835.922,869.693 836.482,873.686 837.079,877.678 837.717,881.671 838.396,885.664 839.122,889.657 839.898,893.649 840.726,897.642 " />
</g>
<g>
<polyline fill="none" stroke="#7f7fff" points="854.303,505.697 853.412,509.622 852.54,513.547 851.687,517.473 850.853,521.398 850.037,525.323 849.241,529.249 848.463,533.174 847.705,537.099 846.965,541.025 846.243,544.95 845.54,548.875 844.856,552.801 844.191,556.726 843.543,560.651 842.915,564.577 842.304,568.502 841.712,572.427 841.139,576.353 840.583,580.278 840.046,584.203 839.528,588.128 839.027,592.054 838.544,595.979 838.08,599.904 837.634,603.83 837.205,607.755 836.795,611.68 836.403,615.606 836.029,619.531 835.673,623.456 835.334,627.382 835.014,631.307 834.712,635.232 834.427,639.158 834.16,643.083 833.912,647.008 833.681,650.934 833.467,654.859 833.272,658.784 833.095,662.709 832.935,666.635 832.793,670.56 832.669,674.485 832.562,678.411 832.473,682.336 832.402,686.261 832.349,690.187 832.314,694.112 832.296,698.037 832.296,701.963 832.314,705.888 832.349,709.813 832.402,713.739 832.473,717.664 832.562,721.589 832.669,725.515 832.793,729.44 832.935,733.365 833.095,737.291 833.272,741.216 833.467,745.141 833.681,749.066 833.912,752.992 834.16,756.917 834.427,760.842 834.712,764.768 835.014,768.693 835.334,772.618 835.673,776.544 836.029,780.469 836.403,784.394 836.795,788.32 837.205,792.245 837.634,796.17 838.08,800.096 838.544,804.021 839.027,807.946 839.528,811.872 840.046,815.797 840.583,819.722 841.139,823.647 841.712,827.573 842.304,831.498 842.915,835.423 843.543,839.349 844.191,843.274 844.856,847.199 845.54,851.125 846.243,855.05 846.965,858.975 847.705,862.901 848.463,866.826 849.241,870.751 850.037,874.677 850.853,878.602 851.687,882.527 852.54,886.453 853.412,890.378 854.303,894.303 " />
<line x1="854.303" y1="505.697" x2="900.234" y2="505.697"  stroke="#7f7fff" />
<line x1="854.303" y1="894.303" x2="900.234" y2="894.303"  stroke="#7f7fff" />
<polyline fill="none" stroke="#7f7fff" points="900.234,505.697 901.431,509.622 902.601,513.547 903.745,517.473 904.863,521.398 905.954,525.323 907.019,529.249 908.059,533.174 909.072,537.099 910.06,541.025 911.022,544.95 911.959,548.875 912.871,552.801 913.757,556.726 914.618,560.651 915.454,564.577 916.266,568.502 917.052,572.427 917.814,576.353 918.551,580.278 919.263,584.203 919.951,588.128 920.614,592.054 921.254,595.979 921.869,599.904 922.459,603.83 923.026,607.755 923.568,611.68 924.087,615.606 924.581,619.531 925.052,623.456 925.499,627.382 925.922,631.307 926.321,635.232 926.697,639.158 927.049,643.083 927.377,647.008 927.682,650.934 927.963,654.859 928.22,658.784 928.454,662.709 928.665,666.635 928.852,670.56 929.016,674.485 929.156,678.411 929.273,682.336 929.366,686.261 929.437,690.187 929.483,694.112 929.507,698.037 929.507,701.963 929.483,705.888 929.437,709.813 929.366,713.739 929.273,717.664 929.156,721.589 929.016,725.515 928.852,729.44 928.665,733.365 928.454,737.291 928.22,741.216 927.963,745.141 927.682,749.066 927.377,752.992 927.049,756.917 926.697,760.842 926.321,764.768 925.922,768.693 925.499,772.618 925.052,776.544 924.581,780.469 924.087,784.394 923.568,788.32 923.026,792.245 922.459,796.17 921.869,800.096 921.254,804.021 920.614,807.946 919.951,811.872 919.263,815.797 918.551,819.722 917.814,823.647 917.052,827.573 916.266,831.498 915.454,835.423 914.618,839.349 913.757,843.274 912.871,847.199 911.959,851.125 911.022,855.05 910.06,858.975 909.072,862.901 908.059,866.826 907.019,870.751 905.954,874.677 904.863,878.602 903.745,882.527 902.601,886.453 901.431,890.378 900.234,894.303 " />
</g>
<g>
<polyline fill="none" stroke="#7f7fff" points="952.388,519.823 951.566,523.463 950.761,527.103 949.974,530.743 949.204,534.383 948.452,538.023 947.717,541.663 947,545.303 946.3,548.943 945.617,552.583 944.951,556.223 944.303,559.863 943.671,563.502 943.057,567.142 942.46,570.782 941.88,574.422 941.316,578.062 940.77,581.702 940.241,585.342 939.728,588.982 939.233,592.622 938.754,596.262 938.292,599.902 937.847,603.542 937.418,607.182 937.006,610.822 936.611,614.462 936.232,618.101 935.87,621.741 935.525,625.381 935.196,629.021 934.884,632.661 934.589,636.301 934.31,639.941 934.047,643.581 933.801,647.221 933.571,650.861 933.358,654.501 933.161,658.141 932.981,661.781 932.817,665.421 932.67,669.061 932.539,672.7 932.424,676.34 932.326,679.98 932.244,683.62 932.178,687.26 932.129,690.9 932.096,694.54 932.08,698.18 932.08,701.82 932.096,705.46 932.129,709.1 932.178,712.74 932.244,716.38 932.326,720.02 932.424,723.66 932.539,727.3 932.67,730.939 932.817,734.579 932.981,738.219 933.161,741.859 933.358,745.499 933.571,749.139 933.801,752.779 934.047,756.419 934.31,760.059 934.589,763.699 934.884,767.339 935.196,770.979 935.525,774.619 935.87,778.259 936.232,781.899 936.611,785.538 937.006,789.178 937.418,792.818 937.847,796.458 938.292,800.098 938.754,803.738 939.233,807.378 939.728,811.018 940.241,814.658 940.77,818.298 941.316,821.938 941.88,825.578 942.46,829.218 943.057,832.858 943.671,836.498 944.303,840.137 944.951,843.777 945.617,847.417 946.3,851.057 947,854.697 947.717,858.337 948.452,861.977 949.204,865.617 949.974,869.257 950.761,872.897 951.566,876.537 952.388,880.177 " />
<line x1="952.388" y1="519.823" x2="973.096" y2="519.823"  stroke="#7f7fff" />
<line x1="952.388" y1="880.177" x2="973.096" y2="880.177"  stroke="#7f7fff" />
<polyline fill="none" stroke="#7f7fff" points="973.096,519.823 973.883,523.463 974.654,527.103 975.408,530.743 976.145,534.383 976.866,538.023 977.57,541.663 978.257,545.303 978.928,548.943 979.582,552.583 980.22,556.223 980.842,559.863 981.447,563.502 982.036,567.142 982.608,570.782 983.164,574.422 983.704,578.062 984.228,581.702 984.735,585.342 985.227,588.982 985.702,592.622 986.161,596.262 986.604,599.902 987.031,603.542 987.442,607.182 987.837,610.822 988.216,614.462 988.579,618.101 988.927,621.741 989.258,625.381 989.573,629.021 989.873,632.661 990.156,636.301 990.424,639.941 990.676,643.581 990.912,647.221 991.132,650.861 991.337,654.501 991.526,658.141 991.699,661.781 991.856,665.421 991.997,669.061 992.123,672.7 992.233,676.34 992.327,679.98 992.406,683.62 992.469,687.26 992.516,690.9 992.547,694.54 992.563,698.18 992.563,701.82 992.547,705.46 992.516,709.1 992.469,712.74 992.406,716.38 992.327,720.02 992.233,723.66 992.123,727.3 991.997,730.939 991.856,734.579 991.699,738.219 991.526,741.859 991.337,745.499 991.132,749.139 990.912,752.779 990.676,756.419 990.424,760.059 990.156,763.699 989.873,767.339 989.573,770.979 989.258,774.619 988.927,778.259 988.579,781.899 988.216,785.538 987.837,789.178 987.442,792.818 987.031,796.458 986.604,800.098 986.161,803.738 985.702,807.378 985.227,811.018 984.735,814.658 984.228,818.298 983.704,821.938 983.164,825.578 982.608,829.218 982.036,832.858 981.447,836.498 980.842,840.137 980.22,843.777 979.582,847.417 978.928,851.057 978.257,854.697 977.57,858.337 976.866,861.977 976.145,865.617 975.408,869.257 974.654,872.897 973.883,876.537 973.096,880.177 " />
</g>
<g>
<polyline fill="none" stroke="#7f7fff" points="1000.582,532.794 1000.364,536.172 1000.15,539.55 999.941,542.928 999.736,546.306 999.536,549.683 999.34,553.061 999.149,556.439 998.962,559.817 998.779,563.195 998.601,566.573 998.428,569.951 998.259,573.329 998.094,576.707 997.934,580.085 997.779,583.462 997.627,586.84 997.481,590.218 997.338,593.596 997.201,596.974 997.067,600.352 996.938,603.73 996.814,607.108 996.694,610.486 996.578,613.864 996.467,617.241 996.36,620.619 996.258,623.997 996.16,627.375 996.067,630.753 995.978,634.131 995.894,637.509 995.814,640.887 995.738,644.265 995.667,647.643 995.601,651.02 995.538,654.398 995.481,657.776 995.427,661.154 995.378,664.532 995.334,667.91 995.294,671.288 995.258,674.666 995.227,678.044 995.201,681.422 995.178,684.799 995.161,688.177 995.147,691.555 995.138,694.933 995.134,698.311 995.134,701.689 995.138,705.067 995.147,708.445 995.161,711.823 995.178,715.201 995.201,718.578 995.227,721.956 995.258,725.334 995.294,728.712 995.334,732.09 995.378,735.468 995.427,738.846 995.481,742.224 995.538,745.602 995.601,748.98 995.667,752.357 995.738,755.735 995.814,759.113 995.894,762.491 995.978,765.869 996.067,769.247 996.16,772.625 996.258,776.003 996.36,779.381 996.467,782.759 996.578,786.136 996.694,789.514 996.814,792.892 996.938,796.27 997.067,799.648 997.201,803.026 997.338,806.404 997.481,809.782 997.627,813.16 997.779,816.538 997.934,819.915 998.094,823.293 998.259,826.671 998.428,830.049 998.601,833.427 998.779,836.805 998.962,840.183 999.149,843.561 999.34,846.939 999.536,850.317 999.736,853.694 999.941,857.072 1000.15,860.45 1000.364,863.828 1000.582,867.206 " />
<line x1="1049.492" y1="532.794" x2="1049.492" y2="543.581"  stroke="#7f7fff" />
<line x1="1000.582" y1="532.794" x2="1049.492" y2="532.794"  stroke="#7f7fff" />
<line x1="1049.492" y1="867.206" x2="1049.492" y2="856.419"  stroke="#7f7fff" />
<line x1="1000.582" y1="867.206" x2="1049.492" y2="867.206"  stroke="#7f7fff" />
<polyline fill="none" stroke="#7f7fff" points="1049.492,543.581 1048.077,546.741 1046.696,549.901 1045.348,553.061 1044.035,556.221 1042.755,559.381 1041.508,562.541 1040.293,565.701 1039.111,568.861 1037.96,572.021 1036.841,575.181 1035.754,578.341 1034.697,581.501 1033.672,584.661 1032.677,587.821 1031.712,590.981 1030.777,594.141 1029.872,597.301 1028.996,600.461 1028.15,603.621 1027.333,606.781 1026.545,609.941 1025.786,613.101 1025.055,616.261 1024.353,619.421 1023.679,622.581 1023.033,625.741 1022.415,628.901 1021.825,632.061 1021.262,635.221 1020.728,638.381 1020.22,641.541 1019.74,644.701 1019.287,647.86 1018.862,651.02 1018.463,654.18 1018.091,657.34 1017.747,660.5 1017.429,663.66 1017.137,666.82 1016.873,669.98 1016.635,673.14 1016.423,676.3 1016.238,679.46 1016.08,682.62 1015.948,685.78 1015.843,688.94 1015.763,692.1 1015.711,695.26 1015.684,698.42 1015.684,701.58 1015.711,704.74 1015.763,707.9 1015.843,711.06 1015.948,714.22 1016.08,717.38 1016.238,720.54 1016.423,723.7 1016.635,726.86 1016.873,730.02 1017.137,733.18 1017.429,736.34 1017.747,739.5 1018.091,742.66 1018.463,745.82 1018.862,748.98 1019.287,752.14 1019.74,755.299 1020.22,758.459 1020.728,761.619 1021.262,764.779 1021.825,767.939 1022.415,771.099 1023.033,774.259 1023.679,777.419 1024.353,780.579 1025.055,783.739 1025.786,786.899 1026.545,790.059 1027.333,793.219 1028.15,796.379 1028.996,799.539 1029.872,802.699 1030.777,805.859 1031.712,809.019 1032.677,812.179 1033.672,815.339 1034.697,818.499 1035.754,821.659 1036.841,824.819 1037.96,827.979 1039.111,831.139 1040.293,834.299 1041.508,837.459 1042.755,840.619 1044.035,843.779 1045.348,846.939 1046.696,850.099 1048.077,853.259 1049.492,856.419 " />
</g>
<g>
<polyline fill="none" stroke="#7f7fff" points="1111.348,548.847 1112.077,551.9 1112.791,554.954 1113.489,558.008 1114.171,561.061 1114.838,564.115 1115.489,567.168 1116.125,570.222 1116.745,573.276 1117.351,576.329 1117.94,579.383 1118.515,582.436 1119.074,585.49 1119.618,588.544 1120.147,591.597 1120.661,594.651 1121.16,597.704 1121.643,600.758 1122.112,603.812 1122.566,606.865 1123.005,609.919 1123.428,612.972 1123.837,616.026 1124.231,619.08 1124.611,622.133 1124.975,625.187 1125.325,628.24 1125.66,631.294 1125.98,634.348 1126.286,637.401 1126.577,640.455 1126.853,643.508 1127.114,646.562 1127.361,649.616 1127.594,652.669 1127.811,655.723 1128.014,658.776 1128.203,661.83 1128.377,664.884 1128.536,667.937 1128.681,670.991 1128.812,674.044 1128.928,677.098 1129.029,680.152 1129.116,683.205 1129.188,686.259 1129.246,689.312 1129.29,692.366 1129.319,695.42 1129.333,698.473 1129.333,701.527 1129.319,704.58 1129.29,707.634 1129.246,710.688 1129.188,713.741 1129.116,716.795 1129.029,719.848 1128.928,722.902 1128.812,725.956 1128.681,729.009 1128.536,732.063 1128.377,735.116 1128.203,738.17 1128.014,741.224 1127.811,744.277 1127.594,747.331 1127.361,750.384 1127.114,753.438 1126.853,756.492 1126.577,759.545 1126.286,762.599 1125.98,765.652 1125.66,768.706 1125.325,771.76 1124.975,774.813 1124.611,777.867 1124.231,780.92 1123.837,783.974 1123.428,787.028 1123.005,790.081 1122.566,793.135 1122.112,796.188 1121.643,799.242 1121.16,802.296 1120.661,805.349 1120.147,808.403 1119.618,811.456 1119.074,814.51 1118.515,817.564 1117.94,820.617 1117.351,823.671 1116.745,826.724 1116.125,829.778 1115.489,832.832 1114.838,835.885 1114.171,838.939 1113.489,841.992 1112.791,845.046 1112.077,848.1 1111.348,851.153 " />
<line x1="1111.348" y1="532.537" x2="1111.348" y2="548.847"  stroke="#7f7fff" />
<line x1="1111.348" y1="532.537" x2="1196.083" y2="532.537"  stroke="#7f7fff" />
<line x1="1111.348" y1="867.463" x2="1111.348" y2="851.153"  stroke="#7f7fff" />
<line x1="1111.348" y1="867.463" x2="1196.083" y2="867.463"  stroke="#7f7fff" />
<polyline fill="none" stroke="#7f7fff" points="1196.083,532.537 1194.09,535.92 1192.151,539.303 1190.265,542.686 1188.432,546.069 1186.649,549.453 1184.917,552.836 1183.234,556.219 1181.599,559.602 1180.012,562.985 1178.472,566.368 1176.978,569.751 1175.529,573.134 1174.126,576.517 1172.766,579.9 1171.45,583.283 1170.177,586.667 1168.946,590.05 1167.758,593.433 1166.61,596.816 1165.504,600.199 1164.439,603.582 1163.414,606.965 1162.428,610.348 1161.482,613.731 1160.575,617.114 1159.707,620.497 1158.877,623.881 1158.085,627.264 1157.331,630.647 1156.615,634.03 1155.935,637.413 1155.293,640.796 1154.688,644.179 1154.12,647.562 1153.587,650.945 1153.092,654.328 1152.632,657.711 1152.208,661.094 1151.82,664.478 1151.468,667.861 1151.151,671.244 1150.87,674.627 1150.624,678.01 1150.413,681.393 1150.238,684.776 1150.097,688.159 1149.992,691.542 1149.922,694.925 1149.887,698.308 1149.887,701.692 1149.922,705.075 1149.992,708.458 1150.097,711.841 1150.238,715.224 1150.413,718.607 1150.624,721.99 1150.87,725.373 1151.151,728.756 1151.468,732.139 1151.82,735.522 1152.208,738.906 1152.632,742.289 1153.092,745.672 1153.587,749.055 1154.12,752.438 1154.688,755.821 1155.293,759.204 1155.935,762.587 1156.615,765.97 1157.331,769.353 1158.085,772.736 1158.877,776.119 1159.707,779.503 1160.575,782.886 1161.482,786.269 1162.428,789.652 1163.414,793.035 1164.439,796.418 1165.504,799.801 1166.61,803.184 1167.758,806.567 1168.946,809.95 1170.177,813.333 1171.45,816.717 1172.766,820.1 1174.126,823.483 1175.529,826.866 1176.978,830.249 1178.472,833.632 1180.012,837.015 1181.599,840.398 1183.234,843.781 1184.917,847.164 1186.649,850.547 1188.432,853.931 1190.265,857.314 1192.151,860.697 1194.09,864.08 1196.083,867.463 " />
<line x1="1196.083" y1="530.354" x2="1196.083" y2="532.537"  stroke="#7f7fff" />
<line x1="1196.083" y1="530.354" x2="1217.414" y2="530.354"  stroke="#7f7fff" />
<line x1="1196.083" y1="869.646" x2="1196.083" y2="867.463"  stroke="#7f7fff" />
<line x1="1196.083" y1="869.646" x2="1217.414" y2="869.646"  stroke="#7f7fff" />
<polyline fill="none" stroke="#7f7fff" points="1217.414,530.354 1218.174,533.781 1218.917,537.208 1219.644,540.636 1220.355,544.063 1221.05,547.49 1221.729,550.917 1222.392,554.344 1223.039,557.771 1223.67,561.199 1224.285,564.626 1224.884,568.053 1225.467,571.48 1226.035,574.907 1226.587,578.335 1227.123,581.762 1227.643,585.189 1228.148,588.616 1228.637,592.043 1229.111,595.471 1229.569,598.898 1230.012,602.325 1230.439,605.752 1230.85,609.179 1231.246,612.607 1231.627,616.034 1231.992,619.461 1232.342,622.888 1232.677,626.315 1232.996,629.743 1233.3,633.17 1233.588,636.597 1233.862,640.024 1234.12,643.451 1234.362,646.879 1234.59,650.306 1234.802,653.733 1234.999,657.16 1235.181,660.587 1235.348,664.014 1235.499,667.442 1235.636,670.869 1235.757,674.296 1235.863,677.723 1235.953,681.15 1236.029,684.578 1236.09,688.005 1236.135,691.432 1236.165,694.859 1236.181,698.286 1236.181,701.714 1236.165,705.141 1236.135,708.568 1236.09,711.995 1236.029,715.422 1235.953,718.85 1235.863,722.277 1235.757,725.704 1235.636,729.131 1235.499,732.558 1235.348,735.986 1235.181,739.413 1234.999,742.84 1234.802,746.267 1234.59,749.694 1234.362,753.121 1234.12,756.549 1233.862,759.976 1233.588,763.403 1233.3,766.83 1232.996,770.257 1232.677,773.685 1232.342,777.112 1231.992,780.539 1231.627,783.966 1231.246,787.393 1230.85,790.821 1230.439,794.248 1230.012,797.675 1229.569,801.102 1229.111,804.529 1228.637,807.957 1228.148,811.384 1227.643,814.811 1227.123,818.238 1226.587,821.665 1226.035,825.093 1225.467,828.52 1224.884,831.947 1224.285,835.374 1223.67,838.801 1223.039,842.229 1222.392,845.656 1221.729,849.083 1221.05,852.51 1220.355,855.937 1219.644,859.364 1218.917,862.792 1218.174,866.219 1217.414,869.646 " />
</g>
<g>
<polyline fill="none" stroke="#7f7fff" points="1276.916,515.842 1275.53,519.563 1274.177,523.283 1272.855,527.003 1271.565,530.724 1270.306,534.444 1269.078,538.164 1267.881,541.885 1266.715,545.605 1265.579,549.325 1264.473,553.046 1263.397,556.766 1262.351,560.487 1261.335,564.207 1260.348,567.927 1259.39,571.648 1258.461,575.368 1257.562,579.088 1256.691,582.809 1255.848,586.529 1255.035,590.249 1254.249,593.97 1253.492,597.69 1252.763,601.41 1252.062,605.131 1251.389,608.851 1250.743,612.572 1250.125,616.292 1249.535,620.012 1248.972,623.733 1248.437,627.453 1247.929,631.173 1247.448,634.894 1246.994,638.614 1246.567,642.334 1246.167,646.055 1245.794,649.775 1245.448,653.496 1245.129,657.216 1244.837,660.936 1244.571,664.657 1244.332,668.377 1244.12,672.097 1243.934,675.818 1243.775,679.538 1243.642,683.258 1243.536,686.979 1243.457,690.699 1243.404,694.419 1243.377,698.14 1243.377,701.86 1243.404,705.581 1243.457,709.301 1243.536,713.021 1243.642,716.742 1243.775,720.462 1243.934,724.182 1244.12,727.903 1244.332,731.623 1244.571,735.343 1244.837,739.064 1245.129,742.784 1245.448,746.504 1245.794,750.225 1246.167,753.945 1246.567,757.666 1246.994,761.386 1247.448,765.106 1247.929,768.827 1248.437,772.547 1248.972,776.267 1249.535,779.988 1250.125,783.708 1250.743,787.428 1251.389,791.149 1252.062,794.869 1252.763,798.59 1253.492,802.31 1254.249,806.03 1255.035,809.751 1255.848,813.471 1256.691,817.191 1257.562,820.912 1258.461,824.632 1259.39,828.352 1260.348,832.073 1261.335,835.793 1262.351,839.513 1263.397,843.234 1264.473,846.954 1265.579,850.675 1266.715,854.395 1267.881,858.115 1269.078,861.836 1270.306,865.556 1271.565,869.276 1272.855,872.997 1274.177,876.717 1275.53,880.437 1276.916,884.158 " />
<line x1="1276.916" y1="515.842" x2="1295.022" y2="515.842"  stroke="#7f7fff" />
<line x1="1276.916" y1="884.158" x2="1295.022" y2="884.158"  stroke="#7f7fff" />
<polyline fill="none" stroke="#7f7fff" points="1295.022,515.842 1296.406,519.563 1297.757,523.283 1299.077,527.003 1300.365,530.724 1301.623,534.444 1302.849,538.164 1304.044,541.885 1305.209,545.605 1306.343,549.325 1307.447,553.046 1308.522,556.766 1309.566,560.487 1310.581,564.207 1311.567,567.927 1312.523,571.648 1313.451,575.368 1314.349,579.088 1315.219,582.809 1316.06,586.529 1316.873,590.249 1317.657,593.97 1318.413,597.69 1319.141,601.41 1319.842,605.131 1320.514,608.851 1321.159,612.572 1321.776,616.292 1322.365,620.012 1322.927,623.733 1323.462,627.453 1323.969,631.173 1324.45,634.894 1324.903,638.614 1325.329,642.334 1325.729,646.055 1326.101,649.775 1326.446,653.496 1326.765,657.216 1327.057,660.936 1327.323,664.657 1327.561,668.377 1327.773,672.097 1327.959,675.818 1328.118,679.538 1328.25,683.258 1328.356,686.979 1328.435,690.699 1328.488,694.419 1328.515,698.14 1328.515,701.86 1328.488,705.581 1328.435,709.301 1328.356,713.021 1328.25,716.742 1328.118,720.462 1327.959,724.182 1327.773,727.903 1327.561,731.623 1327.323,735.343 1327.057,739.064 1326.765,742.784 1326.446,746.504 1326.101,750.225 1325.729,753.945 1325.329,757.666 1324.903,761.386 1324.45,765.106 1323.969,768.827 1323.462,772.547 1322.927,776.267 1322.365,779.988 1321.776,783.708 1321.159,787.428 1320.514,791.149 1319.842,794.869 1319.141,798.59 1318.413,802.31 1317.657,806.03 1316.873,809.751 1316.06,813.471 1315.219,817.191 1314.349,820.912 1313.451,824.632 1312.523,828.352 1311.567,832.073 1310.581,835.793 1309.566,839.513 1308.522,843.234 1307.447,846.954 1306.343,850.675 1305.209,854.395 1304.044,858.115 1302.849,861.836 1301.623,865.556 1300.365,869.276 1299.077,872.997 1297.757,876.717 1296.406,880.437 1295.022,884.158 " />
<line x1="1387.002" y1="515.842" x2="1387.002" y2="530.868"  stroke="#7f7fff" />
<line x1="1295.022" y1="515.842" x2="1387.002" y2="515.842"  stroke="#7f7fff" />
<line x1="1387.002" y1="884.158" x2="1387.002" y2="869.132"  stroke="#7f7fff" />
<line x1="1295.022" y1="884.158" x2="1387.002" y2="884.158"  stroke="#7f7fff" />
<polyline fill="none" stroke="#7f7fff" points="1387.002,530.868 1385.408,534.284 1383.853,537.701 1382.337,541.118 1380.86,544.535 1379.42,547.952 1378.018,551.369 1376.653,554.785 1375.324,558.202 1374.032,561.619 1372.775,565.036 1371.554,568.453 1370.368,571.869 1369.217,575.286 1368.101,578.703 1367.018,582.12 1365.97,585.537 1364.955,588.953 1363.973,592.37 1363.025,595.787 1362.109,599.204 1361.226,602.621 1360.375,606.038 1359.557,609.454 1358.77,612.871 1358.015,616.288 1357.292,619.705 1356.6,623.122 1355.939,626.538 1355.31,629.955 1354.711,633.372 1354.143,636.789 1353.606,640.206 1353.1,643.623 1352.623,647.039 1352.177,650.456 1351.761,653.873 1351.376,657.29 1351.02,660.707 1350.694,664.123 1350.398,667.54 1350.132,670.957 1349.896,674.374 1349.689,677.791 1349.512,681.208 1349.364,684.624 1349.246,688.041 1349.158,691.458 1349.099,694.875 1349.069,698.292 1349.069,701.708 1349.099,705.125 1349.158,708.542 1349.246,711.959 1349.364,715.376 1349.512,718.792 1349.689,722.209 1349.896,725.626 1350.132,729.043 1350.398,732.46 1350.694,735.877 1351.02,739.293 1351.376,742.71 1351.761,746.127 1352.177,749.544 1352.623,752.961 1353.1,756.377 1353.606,759.794 1354.143,763.211 1354.711,766.628 1355.31,770.045 1355.939,773.462 1356.6,776.878 1357.292,780.295 1358.015,783.712 1358.77,787.129 1359.557,790.546 1360.375,793.962 1361.226,797.379 1362.109,800.796 1363.025,804.213 1363.973,807.63 1364.955,811.047 1365.97,814.463 1367.018,817.88 1368.101,821.297 1369.217,824.714 1370.368,828.131 1371.554,831.547 1372.775,834.964 1374.032,838.381 1375.324,841.798 1376.653,845.215 1378.018,848.631 1379.42,852.048 1380.86,855.465 1382.337,858.882 1383.853,862.299 1385.408,865.716 1387.002,869.132 " />
</g>
<g>
<polyline fill="none" stroke="#7f7fff" points="1444.717,522.52 1448.212,526.106 1451.583,529.691 1454.83,533.277 1457.95,536.862 1460.946,540.447 1463.819,544.033 1466.57,547.618 1469.201,551.204 1471.716,554.789 1474.117,558.375 1476.407,561.96 1478.589,565.546 1480.668,569.131 1482.645,572.716 1484.525,576.302 1486.31,579.887 1488.004,583.473 1489.61,587.058 1491.13,590.644 1492.569,594.229 1493.929,597.815 1495.212,601.4 1496.421,604.986 1497.56,608.571 1498.631,612.156 1499.636,615.742 1500.578,619.327 1501.459,622.913 1502.282,626.498 1503.049,630.084 1503.762,633.669 1504.424,637.255 1505.036,640.84 1505.601,644.426 1506.12,648.011 1506.595,651.596 1507.028,655.182 1507.421,658.767 1507.776,662.353 1508.093,665.938 1508.375,669.524 1508.622,673.109 1508.835,676.695 1509.017,680.28 1509.166,683.865 1509.285,687.451 1509.374,691.036 1509.432,694.622 1509.462,698.207 1509.462,701.793 1509.432,705.378 1509.374,708.964 1509.285,712.549 1509.166,716.135 1509.017,719.72 1508.835,723.305 1508.622,726.891 1508.375,730.476 1508.093,734.062 1507.776,737.647 1507.421,741.233 1507.028,744.818 1506.595,748.404 1506.12,751.989 1505.601,755.574 1505.036,759.16 1504.424,762.745 1503.762,766.331 1503.049,769.916 1502.282,773.502 1501.459,777.087 1500.578,780.673 1499.636,784.258 1498.631,787.844 1497.56,791.429 1496.421,795.014 1495.212,798.6 1493.929,802.185 1492.569,805.771 1491.13,809.356 1489.61,812.942 1488.004,816.527 1486.31,820.113 1484.525,823.698 1482.645,827.284 1480.668,830.869 1478.589,834.454 1476.407,838.04 1474.117,841.625 1471.716,845.211 1469.201,848.796 1466.57,852.382 1463.819,855.967 1460.946,859.553 1457.95,863.138 1454.83,866.723 1451.583,870.309 1448.212,873.894 1444.717,877.48 " />
<line x1="1444.717" y1="494.524" x2="1444.717" y2="522.52"  stroke="#7f7fff" />
<line x1="1444.717" y1="494.524" x2="1504.999" y2="494.524"  stroke="#7f7fff" />
<line x1="1444.717" y1="905.476" x2="1444.717" y2="877.48"  stroke="#7f7fff" />
<line x1="1444.717" y1="905.476" x2="1504.999" y2="905.476"  stroke="#7f7fff" />
<polyline fill="none" stroke="#7f7fff" points="1504.999,494.524 1506.688,498.675 1508.396,502.826 1510.106,506.977 1511.807,511.128 1513.486,515.279 1515.135,519.43 1516.749,523.581 1518.32,527.732 1519.845,531.883 1521.321,536.034 1522.744,540.185 1524.114,544.336 1525.429,548.487 1526.688,552.638 1527.89,556.79 1529.036,560.941 1530.126,565.092 1531.16,569.243 1532.138,573.394 1533.062,577.545 1533.933,581.696 1534.751,585.847 1535.517,589.998 1536.234,594.149 1536.901,598.3 1537.522,602.451 1538.097,606.602 1538.628,610.753 1539.117,614.904 1539.566,619.055 1539.976,623.206 1540.35,627.357 1540.689,631.508 1540.995,635.659 1541.27,639.81 1541.517,643.961 1541.737,648.112 1541.932,652.263 1542.103,656.414 1542.253,660.565 1542.383,664.716 1542.495,668.867 1542.589,673.018 1542.667,677.169 1542.731,681.32 1542.781,685.471 1542.818,689.622 1542.842,693.773 1542.854,697.924 1542.854,702.076 1542.842,706.227 1542.818,710.378 1542.781,714.529 1542.731,718.68 1542.667,722.831 1542.589,726.982 1542.495,731.133 1542.383,735.284 1542.253,739.435 1542.103,743.586 1541.932,747.737 1541.737,751.888 1541.517,756.039 1541.27,760.19 1540.995,764.341 1540.689,768.492 1540.35,772.643 1539.976,776.794 1539.566,780.945 1539.117,785.096 1538.628,789.247 1538.097,793.398 1537.522,797.549 1536.901,801.7 1536.234,805.851 1535.517,810.002 1534.751,814.153 1533.933,818.304 1533.062,822.455 1532.138,826.606 1531.16,830.757 1530.126,834.908 1529.036,839.059 1527.89,843.21 1526.688,847.362 1525.429,851.513 1524.114,855.664 1522.744,859.815 1521.321,863.966 1519.845,868.117 1518.32,872.268 1516.749,876.419 1515.135,880.57 1513.486,884.721 1511.807,888.872 1510.106,893.023 1508.396,897.174 1506.688,901.325 1504.999,905.476 " />
</g>
</g>
<g><title>element</title>
<polyline fill="none" stroke="#7f7fff" points="1735.489,144.444 1735.489,155.668 1735.489,166.891 1735.489,178.114 1735.489,189.338 1735.489,200.561 1735.489,211.785 1735.489,223.008 1735.489,234.231 1735.489,245.455 1735.489,256.678 1735.489,267.901 1735.489,279.125 1735.489,290.348 1735.489,301.571 1735.489,312.795 1735.489,324.018 1735.489,335.241 1735.489,346.465 1735.489,357.688 1735.489,368.911 1735.489,380.135 1735.489,391.358 1735.489,402.581 1735.489,413.805 1735.489,425.028 1735.489,436.251 1735.489,447.475 1735.489,458.698 1735.489,469.921 1735.489,481.145 1735.489,492.368 1735.489,503.591 1735.489,514.815 1735.489,526.038 1735.489,537.262 1735.489,548.485 1735.489,559.708 1735.489,570.932 1735.489,582.155 1735.489,593.378 1735.489,604.602 1735.489,615.825 1735.489,627.048 1735.489,638.272 1735.489,649.495 1735.489,660.718 1735.489,671.942 1735.489,683.165 1735.489,694.388 1735.489,705.612 1735.489,716.835 1735.489,728.058 1735.489,739.282 1735.489,750.505 1735.489,761.728 1735.489,772.952 1735.489,784.175 1735.489,795.398 1735.489,806.622 1735.489,817.845 1735.489,829.068 1735.489,840.292 1735.489,851.515 1735.489,862.738 1735.489,873.962 1735.489,885.185 1735.489,896.409 1735.489,907.632 1735.489,918.855 1735.489,930.079 1735.489,941.302 1735.489,952.525 1735.489,963.749 1735.489,974.972 1735.489,986.195 1735.489,997.419 1735.489,1008.642 1735.489,1019.865 1735.489,1031.089 1735.489,1042.312 1735.489,1053.535 1735.489,1064.759 1735.489,1075.982 1735.489,1087.205 1735.489,1098.429 1735.489,1109.652 1735.489,1120.875 1735.489,1132.099 1735.489,1143.322 1735.489,1154.545 1735.489,1165.769 1735.489,1176.992 1735.489,1188.215 1735.489,1199.439 1735.489,1210.662 1735.489,1221.886 1735.489,1233.109 1735.489,1244.332 1735.489,1255.556 " />
</g>
</svg>
