<?xml version="1.0" standalone="no"?>
<svg width="300px" height="300px" version="1.1" xmlns="http://www.w3.org/2000/svg"
     xmlns:xlink="http://www.w3.org/1999/xlink">
    <rect x="0" y="0" width="300" height="300" fill="#000000"/>
    <defs>
        <g id="dot">
            <line x1="1" y1="1" x2="0" y2="0"/>
        </g>
        <g id="cross">
            <line x1="-3" y1="0" x2="3" y2="0"/>
            <line x1="0" y1="-3" x2="0" y2="3"/>
        </g>
        <g id="square">
            <line x1="-3" y1="-3" x2="-3" y2="3"/>
            <line x1="-3" y1="3" x2="3" y2="3"/>
            <line x1="3" y1="3" x2="3" y2="-3"/>
            <line x1="3" y1="-3" x2="-3" y2="-3"/>
        </g>
        <g id="round">
            <ellipse cx="0" cy="0" rx="3" ry="3" fill="none"/>
        </g>
        <g id="triangle">
            <line x1="0" y1="-3" x2="-3" y2="3"/>
            <line x1="-3" y1="3" x2="3" y2="3"/>
            <line x1="0" y1="-3" x2="3" y2="3"/>
        </g>
    </defs>
    <polygon fill="none" stroke="#ffffff" points="30.952,269.048 30.952,30.952 269.048,30.952 269.048,269.048 "/>
    <text style="font-size:12;text-align:center;text-anchor:middle;" x="150" y="298.262" fill="#ffffff">Sagittal
        distance (um)
    </text>
    <use x="70.635" y="30.952" xlink:href="#cross" stroke="#ffffff"/>
    <use x="70.635" y="269.048" xlink:href="#cross" stroke="#ffffff"/>
    <text style="font-size:12;text-align:center;text-anchor:middle;" x="70.635" y="287.048" fill="#ffffff">-105</text>
    <use x="150" y="30.952" xlink:href="#cross" stroke="#ffffff"/>
    <use x="150" y="269.048" xlink:href="#cross" stroke="#ffffff"/>
    <text style="font-size:12;text-align:center;text-anchor:middle;" x="150" y="287.048" fill="#ffffff">0</text>
    <use x="229.365" y="30.952" xlink:href="#cross" stroke="#ffffff"/>
    <use x="229.365" y="269.048" xlink:href="#cross" stroke="#ffffff"/>
    <text style="font-size:12;text-align:center;text-anchor:middle;" x="229.365" y="287.048" fill="#ffffff">105</text>
    <text style="font-size:12;text-align:center;text-anchor:middle;" x="7.738" y="156" transform="rotate(-90,7.738,150)"
          fill="#ffffff">Tangential distance (um)
    </text>
    <use x="269.048" y="243.149" xlink:href="#cross" stroke="#ffffff"/>
    <use x="30.952" y="243.149" xlink:href="#cross" stroke="#ffffff"/>
    <text style="font-size:12;text-align:right;text-anchor:end;" x="24.952" y="249.149" fill="#ffffff">-105</text>
    <use x="269.048" y="163.784" xlink:href="#cross" stroke="#ffffff"/>
    <use x="30.952" y="163.784" xlink:href="#cross" stroke="#ffffff"/>
    <text style="font-size:12;text-align:right;text-anchor:end;" x="24.952" y="169.784" fill="#ffffff">0</text>
    <use x="269.048" y="84.418" xlink:href="#cross" stroke="#ffffff"/>
    <use x="30.952" y="84.418" xlink:href="#cross" stroke="#ffffff"/>
    <text style="font-size:12;text-align:right;text-anchor:end;" x="24.952" y="90.418" fill="#ffffff">105</text>
    <use x="163.492" y="146.078" xlink:href="#dot" stroke="#ffe100"/>
    <use x="168.939" y="153.728" xlink:href="#dot" stroke="#ff0000"/>
    <use x="161.127" y="131.092" xlink:href="#dot" stroke="#00ebff"/>
    <use x="157.598" y="142.613" xlink:href="#dot" stroke="#ffe100"/>
    <use x="161.873" y="150.145" xlink:href="#dot" stroke="#ff0000"/>
    <use x="155.808" y="128.201" xlink:href="#dot" stroke="#00ebff"/>
    <use x="153.892" y="140.009" xlink:href="#dot" stroke="#ffe100"/>
    <use x="157.051" y="147.46" xlink:href="#dot" stroke="#ff0000"/>
    <use x="152.607" y="126.017" xlink:href="#dot" stroke="#00ebff"/>
    <use x="151.768" y="138.243" xlink:href="#dot" stroke="#ffe100"/>
    <use x="153.851" y="145.639" xlink:href="#dot" stroke="#ff0000"/>
    <use x="150.938" y="124.536" xlink:href="#dot" stroke="#00ebff"/>
    <use x="150.644" y="137.236" xlink:href="#dot" stroke="#ffe100"/>
    <use x="151.68" y="144.6" xlink:href="#dot" stroke="#ff0000"/>
    <use x="150.238" y="123.695" xlink:href="#dot" stroke="#00ebff"/>
    <use x="150" y="136.911" xlink:href="#dot" stroke="#ffe100"/>
    <use x="150" y="144.265" xlink:href="#dot" stroke="#ff0000"/>
    <use x="150" y="123.425" xlink:href="#dot" stroke="#00ebff"/>
    <use x="149.356" y="137.236" xlink:href="#dot" stroke="#ffe100"/>
    <use x="148.32" y="144.6" xlink:href="#dot" stroke="#ff0000"/>
    <use x="149.762" y="123.695" xlink:href="#dot" stroke="#00ebff"/>
    <use x="148.232" y="138.243" xlink:href="#dot" stroke="#ffe100"/>
    <use x="146.149" y="145.639" xlink:href="#dot" stroke="#ff0000"/>
    <use x="149.062" y="124.536" xlink:href="#dot" stroke="#00ebff"/>
    <use x="146.108" y="140.009" xlink:href="#dot" stroke="#ffe100"/>
    <use x="142.949" y="147.46" xlink:href="#dot" stroke="#ff0000"/>
    <use x="147.393" y="126.017" xlink:href="#dot" stroke="#00ebff"/>
    <use x="142.402" y="142.613" xlink:href="#dot" stroke="#ffe100"/>
    <use x="138.127" y="150.145" xlink:href="#dot" stroke="#ff0000"/>
    <use x="144.192" y="128.201" xlink:href="#dot" stroke="#00ebff"/>
    <use x="136.508" y="146.078" xlink:href="#dot" stroke="#ffe100"/>
    <use x="131.061" y="153.728" xlink:href="#dot" stroke="#ff0000"/>
    <use x="138.873" y="131.092" xlink:href="#dot" stroke="#00ebff"/>
    <use x="197.121" y="166.82" xlink:href="#dot" stroke="#ffe100"/>
    <use x="204.947" y="171.83" xlink:href="#dot" stroke="#ff0000"/>
    <use x="195.788" y="153.884" xlink:href="#dot" stroke="#00ebff"/>
    <use x="182.233" y="162.982" xlink:href="#dot" stroke="#ffe100"/>
    <use x="188.951" y="167.803" xlink:href="#dot" stroke="#ff0000"/>
    <use x="181.081" y="151.134" xlink:href="#dot" stroke="#00ebff"/>
    <use x="170.963" y="159.37" xlink:href="#dot" stroke="#ffe100"/>
    <use x="176.624" y="164.071" xlink:href="#dot" stroke="#ff0000"/>
    <use x="169.992" y="148.326" xlink:href="#dot" stroke="#00ebff"/>
    <use x="162.797" y="156.138" xlink:href="#dot" stroke="#ffe100"/>
    <use x="167.443" y="160.765" xlink:href="#dot" stroke="#ff0000"/>
    <use x="162.009" y="145.687" xlink:href="#dot" stroke="#00ebff"/>
    <use x="157.252" y="153.403" xlink:href="#dot" stroke="#ffe100"/>
    <use x="160.919" y="157.984" xlink:href="#dot" stroke="#ff0000"/>
    <use x="156.642" y="143.386" xlink:href="#dot" stroke="#00ebff"/>
    <use x="153.771" y="151.25" xlink:href="#dot" stroke="#ffe100"/>
    <use x="156.492" y="155.804" xlink:href="#dot" stroke="#ff0000"/>
    <use x="153.328" y="141.544" xlink:href="#dot" stroke="#00ebff"/>
    <use x="151.76" y="149.722" xlink:href="#dot" stroke="#ffe100"/>
    <use x="153.56" y="154.259" xlink:href="#dot" stroke="#ff0000"/>
    <use x="151.473" y="140.225" xlink:href="#dot" stroke="#00ebff"/>
    <use x="150.665" y="148.818" xlink:href="#dot" stroke="#ffe100"/>
    <use x="151.56" y="153.346" xlink:href="#dot" stroke="#ff0000"/>
    <use x="150.524" y="139.442" xlink:href="#dot" stroke="#00ebff"/>
    <use x="150" y="148.52" xlink:href="#dot" stroke="#ffe100"/>
    <use x="150" y="153.045" xlink:href="#dot" stroke="#ff0000"/>
    <use x="150" y="139.184" xlink:href="#dot" stroke="#00ebff"/>
    <use x="149.335" y="148.818" xlink:href="#dot" stroke="#ffe100"/>
    <use x="148.44" y="153.346" xlink:href="#dot" stroke="#ff0000"/>
    <use x="149.476" y="139.442" xlink:href="#dot" stroke="#00ebff"/>
    <use x="148.24" y="149.722" xlink:href="#dot" stroke="#ffe100"/>
    <use x="146.44" y="154.259" xlink:href="#dot" stroke="#ff0000"/>
    <use x="148.527" y="140.225" xlink:href="#dot" stroke="#00ebff"/>
    <use x="146.229" y="151.25" xlink:href="#dot" stroke="#ffe100"/>
    <use x="143.508" y="155.804" xlink:href="#dot" stroke="#ff0000"/>
    <use x="146.672" y="141.544" xlink:href="#dot" stroke="#00ebff"/>
    <use x="142.748" y="153.403" xlink:href="#dot" stroke="#ffe100"/>
    <use x="139.081" y="157.984" xlink:href="#dot" stroke="#ff0000"/>
    <use x="143.358" y="143.386" xlink:href="#dot" stroke="#00ebff"/>
    <use x="137.203" y="156.138" xlink:href="#dot" stroke="#ffe100"/>
    <use x="132.557" y="160.765" xlink:href="#dot" stroke="#ff0000"/>
    <use x="137.991" y="145.687" xlink:href="#dot" stroke="#00ebff"/>
    <use x="129.037" y="159.37" xlink:href="#dot" stroke="#ffe100"/>
    <use x="123.376" y="164.071" xlink:href="#dot" stroke="#ff0000"/>
    <use x="130.008" y="148.326" xlink:href="#dot" stroke="#00ebff"/>
    <use x="117.767" y="162.982" xlink:href="#dot" stroke="#ffe100"/>
    <use x="111.049" y="167.803" xlink:href="#dot" stroke="#ff0000"/>
    <use x="118.919" y="151.134" xlink:href="#dot" stroke="#00ebff"/>
    <use x="102.879" y="166.82" xlink:href="#dot" stroke="#ffe100"/>
    <use x="95.053" y="171.83" xlink:href="#dot" stroke="#ff0000"/>
    <use x="104.212" y="153.884" xlink:href="#dot" stroke="#00ebff"/>
    <use x="257.285" y="170.508" xlink:href="#dot" stroke="#ffe100"/>
    <use x="265.837" y="173.767" xlink:href="#dot" stroke="#ff0000"/>
    <use x="260.246" y="156.638" xlink:href="#dot" stroke="#00ebff"/>
    <use x="225.242" y="173.704" xlink:href="#dot" stroke="#ffe100"/>
    <use x="232.994" y="176.575" xlink:href="#dot" stroke="#ff0000"/>
    <use x="227.393" y="161.874" xlink:href="#dot" stroke="#00ebff"/>
    <use x="203.956" y="172.501" xlink:href="#dot" stroke="#ffe100"/>
    <use x="210.917" y="175.113" xlink:href="#dot" stroke="#ff0000"/>
    <use x="205.488" y="162.188" xlink:href="#dot" stroke="#00ebff"/>
    <use x="188.292" y="170.085" xlink:href="#dot" stroke="#ffe100"/>
    <use x="194.463" y="172.537" xlink:href="#dot" stroke="#ff0000"/>
    <use x="189.358" y="160.903" xlink:href="#dot" stroke="#00ebff"/>
    <use x="176.263" y="167.509" xlink:href="#dot" stroke="#ffe100"/>
    <use x="181.642" y="169.868" xlink:href="#dot" stroke="#ff0000"/>
    <use x="176.995" y="159.162" xlink:href="#dot" stroke="#00ebff"/>
    <use x="167.121" y="165.053" xlink:href="#dot" stroke="#ffe100"/>
    <use x="171.707" y="167.369" xlink:href="#dot" stroke="#ff0000"/>
    <use x="167.625" y="157.319" xlink:href="#dot" stroke="#00ebff"/>
    <use x="160.479" y="162.799" xlink:href="#dot" stroke="#ffe100"/>
    <use x="164.276" y="165.1" xlink:href="#dot" stroke="#ff0000"/>
    <use x="160.829" y="155.511" xlink:href="#dot" stroke="#00ebff"/>
    <use x="155.957" y="160.811" xlink:href="#dot" stroke="#ffe100"/>
    <use x="158.975" y="163.113" xlink:href="#dot" stroke="#ff0000"/>
    <use x="156.202" y="153.844" xlink:href="#dot" stroke="#00ebff"/>
    <use x="153.108" y="159.167" xlink:href="#dot" stroke="#ffe100"/>
    <use x="155.358" y="161.476" xlink:href="#dot" stroke="#ff0000"/>
    <use x="153.277" y="152.425" xlink:href="#dot" stroke="#00ebff"/>
    <use x="151.456" y="157.94" xlink:href="#dot" stroke="#ffe100"/>
    <use x="152.95" y="160.257" xlink:href="#dot" stroke="#ff0000"/>
    <use x="151.564" y="151.347" xlink:href="#dot" stroke="#00ebff"/>
    <use x="150.552" y="157.184" xlink:href="#dot" stroke="#ffe100"/>
    <use x="151.296" y="159.507" xlink:href="#dot" stroke="#ff0000"/>
    <use x="150.604" y="150.677" xlink:href="#dot" stroke="#00ebff"/>
    <use x="150" y="156.928" xlink:href="#dot" stroke="#ffe100"/>
    <use x="150" y="159.254" xlink:href="#dot" stroke="#ff0000"/>
    <use x="150" y="150.45" xlink:href="#dot" stroke="#00ebff"/>
    <use x="149.448" y="157.184" xlink:href="#dot" stroke="#ffe100"/>
    <use x="148.704" y="159.507" xlink:href="#dot" stroke="#ff0000"/>
    <use x="149.396" y="150.677" xlink:href="#dot" stroke="#00ebff"/>
    <use x="148.544" y="157.94" xlink:href="#dot" stroke="#ffe100"/>
    <use x="147.05" y="160.257" xlink:href="#dot" stroke="#ff0000"/>
    <use x="148.436" y="151.347" xlink:href="#dot" stroke="#00ebff"/>
    <use x="146.892" y="159.167" xlink:href="#dot" stroke="#ffe100"/>
    <use x="144.642" y="161.476" xlink:href="#dot" stroke="#ff0000"/>
    <use x="146.723" y="152.425" xlink:href="#dot" stroke="#00ebff"/>
    <use x="144.043" y="160.811" xlink:href="#dot" stroke="#ffe100"/>
    <use x="141.025" y="163.113" xlink:href="#dot" stroke="#ff0000"/>
    <use x="143.798" y="153.844" xlink:href="#dot" stroke="#00ebff"/>
    <use x="139.521" y="162.799" xlink:href="#dot" stroke="#ffe100"/>
    <use x="135.724" y="165.1" xlink:href="#dot" stroke="#ff0000"/>
    <use x="139.171" y="155.511" xlink:href="#dot" stroke="#00ebff"/>
    <use x="132.879" y="165.053" xlink:href="#dot" stroke="#ffe100"/>
    <use x="128.293" y="167.369" xlink:href="#dot" stroke="#ff0000"/>
    <use x="132.375" y="157.319" xlink:href="#dot" stroke="#00ebff"/>
    <use x="123.737" y="167.509" xlink:href="#dot" stroke="#ffe100"/>
    <use x="118.358" y="169.868" xlink:href="#dot" stroke="#ff0000"/>
    <use x="123.005" y="159.162" xlink:href="#dot" stroke="#00ebff"/>
    <use x="111.708" y="170.085" xlink:href="#dot" stroke="#ffe100"/>
    <use x="105.537" y="172.537" xlink:href="#dot" stroke="#ff0000"/>
    <use x="110.642" y="160.903" xlink:href="#dot" stroke="#00ebff"/>
    <use x="96.044" y="172.501" xlink:href="#dot" stroke="#ffe100"/>
    <use x="89.083" y="175.113" xlink:href="#dot" stroke="#ff0000"/>
    <use x="94.512" y="162.188" xlink:href="#dot" stroke="#00ebff"/>
    <use x="74.758" y="173.704" xlink:href="#dot" stroke="#ffe100"/>
    <use x="67.006" y="176.575" xlink:href="#dot" stroke="#ff0000"/>
    <use x="72.607" y="161.874" xlink:href="#dot" stroke="#00ebff"/>
    <use x="42.715" y="170.508" xlink:href="#dot" stroke="#ffe100"/>
    <use x="34.163" y="173.767" xlink:href="#dot" stroke="#ff0000"/>
    <use x="39.754" y="156.638" xlink:href="#dot" stroke="#00ebff"/>
    <use x="261.4" y="162.759" xlink:href="#dot" stroke="#ffe100"/>
    <use x="268.092" y="164.138" xlink:href="#dot" stroke="#ff0000"/>
    <use x="268.301" y="150.468" xlink:href="#dot" stroke="#00ebff"/>
    <use x="224.11" y="172.721" xlink:href="#dot" stroke="#ffe100"/>
    <use x="230.385" y="173.716" xlink:href="#dot" stroke="#ff0000"/>
    <use x="229.275" y="162.639" xlink:href="#dot" stroke="#00ebff"/>
    <use x="201.721" y="174.18" xlink:href="#dot" stroke="#ffe100"/>
    <use x="207.498" y="174.926" xlink:href="#dot" stroke="#ff0000"/>
    <use x="205.596" y="165.724" xlink:href="#dot" stroke="#00ebff"/>
    <use x="186.332" y="172.949" xlink:href="#dot" stroke="#ffe100"/>
    <use x="191.555" y="173.543" xlink:href="#dot" stroke="#ff0000"/>
    <use x="189.229" y="165.693" xlink:href="#dot" stroke="#00ebff"/>
    <use x="174.84" y="171.121" xlink:href="#dot" stroke="#ffe100"/>
    <use x="179.462" y="171.638" xlink:href="#dot" stroke="#ff0000"/>
    <use x="176.999" y="164.745" xlink:href="#dot" stroke="#00ebff"/>
    <use x="166.132" y="169.3" xlink:href="#dot" stroke="#ffe100"/>
    <use x="170.12" y="169.789" xlink:href="#dot" stroke="#ff0000"/>
    <use x="167.74" y="163.557" xlink:href="#dot" stroke="#00ebff"/>
    <use x="159.768" y="167.599" xlink:href="#dot" stroke="#ffe100"/>
    <use x="163.1" y="168.093" xlink:href="#dot" stroke="#ff0000"/>
    <use x="160.963" y="162.307" xlink:href="#dot" stroke="#00ebff"/>
    <use x="155.42" y="166.049" xlink:href="#dot" stroke="#ffe100"/>
    <use x="158.086" y="166.562" xlink:href="#dot" stroke="#ff0000"/>
    <use x="156.295" y="161.071" xlink:href="#dot" stroke="#00ebff"/>
    <use x="152.702" y="164.704" xlink:href="#dot" stroke="#ffe100"/>
    <use x="154.698" y="165.243" xlink:href="#dot" stroke="#ff0000"/>
    <use x="153.318" y="159.941" xlink:href="#dot" stroke="#00ebff"/>
    <use x="151.176" y="163.653" xlink:href="#dot" stroke="#ffe100"/>
    <use x="152.504" y="164.213" xlink:href="#dot" stroke="#ff0000"/>
    <use x="151.57" y="159.027" xlink:href="#dot" stroke="#00ebff"/>
    <use x="150.407" y="162.98" xlink:href="#dot" stroke="#ffe100"/>
    <use x="151.07" y="163.556" xlink:href="#dot" stroke="#ff0000"/>
    <use x="150.599" y="158.433" xlink:href="#dot" stroke="#00ebff"/>
    <use x="150" y="162.749" xlink:href="#dot" stroke="#ffe100"/>
    <use x="150" y="163.33" xlink:href="#dot" stroke="#ff0000"/>
    <use x="150" y="158.226" xlink:href="#dot" stroke="#00ebff"/>
    <use x="149.593" y="162.98" xlink:href="#dot" stroke="#ffe100"/>
    <use x="148.93" y="163.556" xlink:href="#dot" stroke="#ff0000"/>
    <use x="149.401" y="158.433" xlink:href="#dot" stroke="#00ebff"/>
    <use x="148.824" y="163.653" xlink:href="#dot" stroke="#ffe100"/>
    <use x="147.496" y="164.213" xlink:href="#dot" stroke="#ff0000"/>
    <use x="148.43" y="159.027" xlink:href="#dot" stroke="#00ebff"/>
    <use x="147.298" y="164.704" xlink:href="#dot" stroke="#ffe100"/>
    <use x="145.302" y="165.243" xlink:href="#dot" stroke="#ff0000"/>
    <use x="146.682" y="159.941" xlink:href="#dot" stroke="#00ebff"/>
    <use x="144.58" y="166.049" xlink:href="#dot" stroke="#ffe100"/>
    <use x="141.914" y="166.562" xlink:href="#dot" stroke="#ff0000"/>
    <use x="143.705" y="161.071" xlink:href="#dot" stroke="#00ebff"/>
    <use x="140.232" y="167.599" xlink:href="#dot" stroke="#ffe100"/>
    <use x="136.9" y="168.093" xlink:href="#dot" stroke="#ff0000"/>
    <use x="139.037" y="162.307" xlink:href="#dot" stroke="#00ebff"/>
    <use x="133.868" y="169.3" xlink:href="#dot" stroke="#ffe100"/>
    <use x="129.88" y="169.789" xlink:href="#dot" stroke="#ff0000"/>
    <use x="132.26" y="163.557" xlink:href="#dot" stroke="#00ebff"/>
    <use x="125.16" y="171.121" xlink:href="#dot" stroke="#ffe100"/>
    <use x="120.538" y="171.638" xlink:href="#dot" stroke="#ff0000"/>
    <use x="123.001" y="164.745" xlink:href="#dot" stroke="#00ebff"/>
    <use x="113.668" y="172.949" xlink:href="#dot" stroke="#ffe100"/>
    <use x="108.445" y="173.543" xlink:href="#dot" stroke="#ff0000"/>
    <use x="110.771" y="165.693" xlink:href="#dot" stroke="#00ebff"/>
    <use x="98.279" y="174.18" xlink:href="#dot" stroke="#ffe100"/>
    <use x="92.502" y="174.926" xlink:href="#dot" stroke="#ff0000"/>
    <use x="94.404" y="165.724" xlink:href="#dot" stroke="#00ebff"/>
    <use x="75.89" y="172.721" xlink:href="#dot" stroke="#ffe100"/>
    <use x="69.615" y="173.716" xlink:href="#dot" stroke="#ff0000"/>
    <use x="70.725" y="162.639" xlink:href="#dot" stroke="#00ebff"/>
    <use x="38.6" y="162.759" xlink:href="#dot" stroke="#ffe100"/>
    <use x="31.908" y="164.138" xlink:href="#dot" stroke="#ff0000"/>
    <use x="31.699" y="150.468" xlink:href="#dot" stroke="#00ebff"/>
    <use x="226.228" y="167.144" xlink:href="#dot" stroke="#ffe100"/>
    <use x="231.261" y="166.826" xlink:href="#dot" stroke="#ff0000"/>
    <use x="233.954" y="157.495" xlink:href="#dot" stroke="#00ebff"/>
    <use x="200.439" y="173.605" xlink:href="#dot" stroke="#ffe100"/>
    <use x="205.22" y="172.996" xlink:href="#dot" stroke="#ff0000"/>
    <use x="206.296" y="165.856" xlink:href="#dot" stroke="#00ebff"/>
    <use x="184.505" y="174.161" xlink:href="#dot" stroke="#ffe100"/>
    <use x="188.929" y="173.37" xlink:href="#dot" stroke="#ff0000"/>
    <use x="188.945" y="167.811" xlink:href="#dot" stroke="#00ebff"/>
    <use x="173.339" y="173.038" xlink:href="#dot" stroke="#ffe100"/>
    <use x="177.327" y="172.147" xlink:href="#dot" stroke="#ff0000"/>
    <use x="176.696" y="167.711" xlink:href="#dot" stroke="#00ebff"/>
    <use x="165.055" y="171.66" xlink:href="#dot" stroke="#ffe100"/>
    <use x="168.544" y="170.728" xlink:href="#dot" stroke="#ff0000"/>
    <use x="167.582" y="167.07" xlink:href="#dot" stroke="#00ebff"/>
    <use x="158.994" y="170.371" xlink:href="#dot" stroke="#ffe100"/>
    <use x="161.941" y="169.439" xlink:href="#dot" stroke="#ff0000"/>
    <use x="160.883" y="166.302" xlink:href="#dot" stroke="#00ebff"/>
    <use x="154.832" y="169.207" xlink:href="#dot" stroke="#ffe100"/>
    <use x="157.208" y="168.297" xlink:href="#dot" stroke="#ff0000"/>
    <use x="156.218" y="165.495" xlink:href="#dot" stroke="#00ebff"/>
    <use x="152.246" y="168.182" xlink:href="#dot" stroke="#ffe100"/>
    <use x="154.036" y="167.301" xlink:href="#dot" stroke="#ff0000"/>
    <use x="153.222" y="164.71" xlink:href="#dot" stroke="#00ebff"/>
    <use x="150.851" y="167.357" xlink:href="#dot" stroke="#ffe100"/>
    <use x="152.046" y="166.503" xlink:href="#dot" stroke="#ff0000"/>
    <use x="151.474" y="164.035" xlink:href="#dot" stroke="#00ebff"/>
    <use x="150.235" y="166.814" xlink:href="#dot" stroke="#ffe100"/>
    <use x="150.834" y="165.979" xlink:href="#dot" stroke="#ff0000"/>
    <use x="150.54" y="163.576" xlink:href="#dot" stroke="#00ebff"/>
    <use x="150" y="166.625" xlink:href="#dot" stroke="#ffe100"/>
    <use x="150" y="165.796" xlink:href="#dot" stroke="#ff0000"/>
    <use x="150" y="163.413" xlink:href="#dot" stroke="#00ebff"/>
    <use x="149.765" y="166.814" xlink:href="#dot" stroke="#ffe100"/>
    <use x="149.166" y="165.979" xlink:href="#dot" stroke="#ff0000"/>
    <use x="149.46" y="163.576" xlink:href="#dot" stroke="#00ebff"/>
    <use x="149.149" y="167.357" xlink:href="#dot" stroke="#ffe100"/>
    <use x="147.954" y="166.503" xlink:href="#dot" stroke="#ff0000"/>
    <use x="148.526" y="164.035" xlink:href="#dot" stroke="#00ebff"/>
    <use x="147.754" y="168.182" xlink:href="#dot" stroke="#ffe100"/>
    <use x="145.964" y="167.301" xlink:href="#dot" stroke="#ff0000"/>
    <use x="146.778" y="164.71" xlink:href="#dot" stroke="#00ebff"/>
    <use x="145.168" y="169.207" xlink:href="#dot" stroke="#ffe100"/>
    <use x="142.792" y="168.297" xlink:href="#dot" stroke="#ff0000"/>
    <use x="143.782" y="165.495" xlink:href="#dot" stroke="#00ebff"/>
    <use x="141.006" y="170.371" xlink:href="#dot" stroke="#ffe100"/>
    <use x="138.059" y="169.439" xlink:href="#dot" stroke="#ff0000"/>
    <use x="139.117" y="166.302" xlink:href="#dot" stroke="#00ebff"/>
    <use x="134.945" y="171.66" xlink:href="#dot" stroke="#ffe100"/>
    <use x="131.456" y="170.728" xlink:href="#dot" stroke="#ff0000"/>
    <use x="132.418" y="167.07" xlink:href="#dot" stroke="#00ebff"/>
    <use x="126.661" y="173.038" xlink:href="#dot" stroke="#ffe100"/>
    <use x="122.673" y="172.147" xlink:href="#dot" stroke="#ff0000"/>
    <use x="123.304" y="167.711" xlink:href="#dot" stroke="#00ebff"/>
    <use x="115.495" y="174.161" xlink:href="#dot" stroke="#ffe100"/>
    <use x="111.071" y="173.37" xlink:href="#dot" stroke="#ff0000"/>
    <use x="111.055" y="167.811" xlink:href="#dot" stroke="#00ebff"/>
    <use x="99.561" y="173.605" xlink:href="#dot" stroke="#ffe100"/>
    <use x="94.78" y="172.996" xlink:href="#dot" stroke="#ff0000"/>
    <use x="93.704" y="165.856" xlink:href="#dot" stroke="#00ebff"/>
    <use x="73.772" y="167.144" xlink:href="#dot" stroke="#ffe100"/>
    <use x="68.739" y="166.826" xlink:href="#dot" stroke="#ff0000"/>
    <use x="66.046" y="157.495" xlink:href="#dot" stroke="#00ebff"/>
    <use x="235.152" y="152.359" xlink:href="#dot" stroke="#ffe100"/>
    <use x="239.086" y="151.179" xlink:href="#dot" stroke="#ff0000"/>
    <use x="245.236" y="141.993" xlink:href="#dot" stroke="#00ebff"/>
    <use x="201.575" y="169.375" xlink:href="#dot" stroke="#ffe100"/>
    <use x="205.476" y="167.824" xlink:href="#dot" stroke="#ff0000"/>
    <use x="209.234" y="161.354" xlink:href="#dot" stroke="#00ebff"/>
    <use x="183.308" y="173.783" xlink:href="#dot" stroke="#ffe100"/>
    <use x="187.026" y="171.987" xlink:href="#dot" stroke="#ff0000"/>
    <use x="189.143" y="167.478" xlink:href="#dot" stroke="#00ebff"/>
    <use x="171.877" y="173.879" xlink:href="#dot" stroke="#ffe100"/>
    <use x="175.304" y="171.933" xlink:href="#dot" stroke="#ff0000"/>
    <use x="176.311" y="168.837" xlink:href="#dot" stroke="#00ebff"/>
    <use x="163.904" y="172.888" xlink:href="#dot" stroke="#ffe100"/>
    <use x="166.955" y="170.865" xlink:href="#dot" stroke="#ff0000"/>
    <use x="167.254" y="168.764" xlink:href="#dot" stroke="#00ebff"/>
    <use x="158.177" y="171.834" xlink:href="#dot" stroke="#ffe100"/>
    <use x="160.789" y="169.784" xlink:href="#dot" stroke="#ff0000"/>
    <use x="160.682" y="168.362" xlink:href="#dot" stroke="#00ebff"/>
    <use x="154.246" y="170.924" xlink:href="#dot" stroke="#ffe100"/>
    <use x="156.373" y="168.879" xlink:href="#dot" stroke="#ff0000"/>
    <use x="156.081" y="167.904" xlink:href="#dot" stroke="#00ebff"/>
    <use x="151.814" y="170.164" xlink:href="#dot" stroke="#ffe100"/>
    <use x="153.427" y="168.139" xlink:href="#dot" stroke="#ff0000"/>
    <use x="153.102" y="167.444" xlink:href="#dot" stroke="#00ebff"/>
    <use x="150.551" y="169.562" xlink:href="#dot" stroke="#ffe100"/>
    <use x="151.634" y="167.561" xlink:href="#dot" stroke="#ff0000"/>
    <use x="151.371" y="167.031" xlink:href="#dot" stroke="#00ebff"/>
    <use x="150.078" y="169.166" xlink:href="#dot" stroke="#ffe100"/>
    <use x="150.621" y="167.182" xlink:href="#dot" stroke="#ff0000"/>
    <use x="150.477" y="166.739" xlink:href="#dot" stroke="#00ebff"/>
    <use x="150" y="169.027" xlink:href="#dot" stroke="#ffe100"/>
    <use x="150" y="167.049" xlink:href="#dot" stroke="#ff0000"/>
    <use x="150" y="166.632" xlink:href="#dot" stroke="#00ebff"/>
    <use x="149.922" y="169.166" xlink:href="#dot" stroke="#ffe100"/>
    <use x="149.379" y="167.182" xlink:href="#dot" stroke="#ff0000"/>
    <use x="149.523" y="166.739" xlink:href="#dot" stroke="#00ebff"/>
    <use x="149.449" y="169.562" xlink:href="#dot" stroke="#ffe100"/>
    <use x="148.366" y="167.561" xlink:href="#dot" stroke="#ff0000"/>
    <use x="148.629" y="167.031" xlink:href="#dot" stroke="#00ebff"/>
    <use x="148.186" y="170.164" xlink:href="#dot" stroke="#ffe100"/>
    <use x="146.573" y="168.139" xlink:href="#dot" stroke="#ff0000"/>
    <use x="146.898" y="167.444" xlink:href="#dot" stroke="#00ebff"/>
    <use x="145.754" y="170.924" xlink:href="#dot" stroke="#ffe100"/>
    <use x="143.627" y="168.879" xlink:href="#dot" stroke="#ff0000"/>
    <use x="143.919" y="167.904" xlink:href="#dot" stroke="#00ebff"/>
    <use x="141.823" y="171.834" xlink:href="#dot" stroke="#ffe100"/>
    <use x="139.211" y="169.784" xlink:href="#dot" stroke="#ff0000"/>
    <use x="139.318" y="168.362" xlink:href="#dot" stroke="#00ebff"/>
    <use x="136.096" y="172.888" xlink:href="#dot" stroke="#ffe100"/>
    <use x="133.045" y="170.865" xlink:href="#dot" stroke="#ff0000"/>
    <use x="132.746" y="168.764" xlink:href="#dot" stroke="#00ebff"/>
    <use x="128.123" y="173.879" xlink:href="#dot" stroke="#ffe100"/>
    <use x="124.696" y="171.933" xlink:href="#dot" stroke="#ff0000"/>
    <use x="123.689" y="168.837" xlink:href="#dot" stroke="#00ebff"/>
    <use x="116.692" y="173.783" xlink:href="#dot" stroke="#ffe100"/>
    <use x="112.974" y="171.987" xlink:href="#dot" stroke="#ff0000"/>
    <use x="110.857" y="167.478" xlink:href="#dot" stroke="#00ebff"/>
    <use x="98.425" y="169.375" xlink:href="#dot" stroke="#ffe100"/>
    <use x="94.524" y="167.824" xlink:href="#dot" stroke="#ff0000"/>
    <use x="90.766" y="161.354" xlink:href="#dot" stroke="#00ebff"/>
    <use x="64.848" y="152.359" xlink:href="#dot" stroke="#ffe100"/>
    <use x="60.914" y="151.179" xlink:href="#dot" stroke="#ff0000"/>
    <use x="54.764" y="141.993" xlink:href="#dot" stroke="#00ebff"/>
    <use x="208.313" y="156.969" xlink:href="#dot" stroke="#ffe100"/>
    <use x="211.402" y="154.827" xlink:href="#dot" stroke="#ff0000"/>
    <use x="217.732" y="147.744" xlink:href="#dot" stroke="#00ebff"/>
    <use x="184.075" y="170.437" xlink:href="#dot" stroke="#ffe100"/>
    <use x="187.142" y="167.964" xlink:href="#dot" stroke="#ff0000"/>
    <use x="191.259" y="163.381" xlink:href="#dot" stroke="#00ebff"/>
    <use x="170.92" y="173.703" xlink:href="#dot" stroke="#ffe100"/>
    <use x="173.83" y="171.008" xlink:href="#dot" stroke="#ff0000"/>
    <use x="176.393" y="168.246" xlink:href="#dot" stroke="#00ebff"/>
    <use x="162.793" y="173.595" xlink:href="#dot" stroke="#ffe100"/>
    <use x="165.441" y="170.763" xlink:href="#dot" stroke="#ff0000"/>
    <use x="166.934" y="169.312" xlink:href="#dot" stroke="#00ebff"/>
    <use x="157.326" y="172.724" xlink:href="#dot" stroke="#ffe100"/>
    <use x="159.63" y="169.819" xlink:href="#dot" stroke="#ff0000"/>
    <use x="160.421" y="169.288" xlink:href="#dot" stroke="#00ebff"/>
    <use x="153.66" y="171.888" xlink:href="#dot" stroke="#ffe100"/>
    <use x="155.56" y="168.955" xlink:href="#dot" stroke="#ff0000"/>
    <use x="155.923" y="169.048" xlink:href="#dot" stroke="#00ebff"/>
    <use x="151.418" y="171.24" xlink:href="#dot" stroke="#ffe100"/>
    <use x="152.872" y="168.305" xlink:href="#dot" stroke="#ff0000"/>
    <use x="153" y="168.801" xlink:href="#dot" stroke="#00ebff"/>
    <use x="150.295" y="170.772" xlink:href="#dot" stroke="#ffe100"/>
    <use x="151.277" y="167.846" xlink:href="#dot" stroke="#ff0000"/>
    <use x="151.299" y="168.588" xlink:href="#dot" stroke="#00ebff"/>
    <use x="149.949" y="170.481" xlink:href="#dot" stroke="#ffe100"/>
    <use x="150.444" y="167.565" xlink:href="#dot" stroke="#ff0000"/>
    <use x="150.437" y="168.437" xlink:href="#dot" stroke="#00ebff"/>
    <use x="150" y="170.381" xlink:href="#dot" stroke="#ffe100"/>
    <use x="150" y="167.469" xlink:href="#dot" stroke="#ff0000"/>
    <use x="150" y="168.382" xlink:href="#dot" stroke="#00ebff"/>
    <use x="150.051" y="170.481" xlink:href="#dot" stroke="#ffe100"/>
    <use x="149.556" y="167.565" xlink:href="#dot" stroke="#ff0000"/>
    <use x="149.563" y="168.437" xlink:href="#dot" stroke="#00ebff"/>
    <use x="149.705" y="170.772" xlink:href="#dot" stroke="#ffe100"/>
    <use x="148.723" y="167.846" xlink:href="#dot" stroke="#ff0000"/>
    <use x="148.701" y="168.588" xlink:href="#dot" stroke="#00ebff"/>
    <use x="148.582" y="171.24" xlink:href="#dot" stroke="#ffe100"/>
    <use x="147.128" y="168.305" xlink:href="#dot" stroke="#ff0000"/>
    <use x="147" y="168.801" xlink:href="#dot" stroke="#00ebff"/>
    <use x="146.34" y="171.888" xlink:href="#dot" stroke="#ffe100"/>
    <use x="144.44" y="168.955" xlink:href="#dot" stroke="#ff0000"/>
    <use x="144.077" y="169.048" xlink:href="#dot" stroke="#00ebff"/>
    <use x="142.674" y="172.724" xlink:href="#dot" stroke="#ffe100"/>
    <use x="140.37" y="169.819" xlink:href="#dot" stroke="#ff0000"/>
    <use x="139.579" y="169.288" xlink:href="#dot" stroke="#00ebff"/>
    <use x="137.207" y="173.595" xlink:href="#dot" stroke="#ffe100"/>
    <use x="134.559" y="170.763" xlink:href="#dot" stroke="#ff0000"/>
    <use x="133.066" y="169.312" xlink:href="#dot" stroke="#00ebff"/>
    <use x="129.08" y="173.703" xlink:href="#dot" stroke="#ffe100"/>
    <use x="126.17" y="171.008" xlink:href="#dot" stroke="#ff0000"/>
    <use x="123.607" y="168.246" xlink:href="#dot" stroke="#00ebff"/>
    <use x="115.925" y="170.437" xlink:href="#dot" stroke="#ffe100"/>
    <use x="112.858" y="167.964" xlink:href="#dot" stroke="#ff0000"/>
    <use x="108.741" y="163.381" xlink:href="#dot" stroke="#00ebff"/>
    <use x="91.687" y="156.969" xlink:href="#dot" stroke="#ffe100"/>
    <use x="88.598" y="154.827" xlink:href="#dot" stroke="#ff0000"/>
    <use x="82.268" y="147.744" xlink:href="#dot" stroke="#00ebff"/>
    <use x="189.726" y="159.284" xlink:href="#dot" stroke="#ffe100"/>
    <use x="192.172" y="156.422" xlink:href="#dot" stroke="#ff0000"/>
    <use x="198.295" y="150.663" xlink:href="#dot" stroke="#00ebff"/>
    <use x="171.708" y="170.884" xlink:href="#dot" stroke="#ffe100"/>
    <use x="174.123" y="167.712" xlink:href="#dot" stroke="#ff0000"/>
    <use x="178.239" y="164.312" xlink:href="#dot" stroke="#00ebff"/>
    <use x="162.165" y="173.66" xlink:href="#dot" stroke="#ffe100"/>
    <use x="164.425" y="170.277" xlink:href="#dot" stroke="#ff0000"/>
    <use x="167.111" y="168.6" xlink:href="#dot" stroke="#00ebff"/>
    <use x="156.546" y="173.534" xlink:href="#dot" stroke="#ffe100"/>
    <use x="158.555" y="170.016" xlink:href="#dot" stroke="#ff0000"/>
    <use x="160.243" y="169.583" xlink:href="#dot" stroke="#00ebff"/>
    <use x="153.066" y="172.774" xlink:href="#dot" stroke="#ffe100"/>
    <use x="154.748" y="169.18" xlink:href="#dot" stroke="#ff0000"/>
    <use x="155.764" y="169.614" xlink:href="#dot" stroke="#00ebff"/>
    <use x="151.027" y="172.083" xlink:href="#dot" stroke="#ffe100"/>
    <use x="152.33" y="168.451" xlink:href="#dot" stroke="#ff0000"/>
    <use x="152.91" y="169.467" xlink:href="#dot" stroke="#00ebff"/>
    <use x="150.061" y="171.601" xlink:href="#dot" stroke="#ffe100"/>
    <use x="150.948" y="167.955" xlink:href="#dot" stroke="#ff0000"/>
    <use x="151.253" y="169.335" xlink:href="#dot" stroke="#00ebff"/>
    <use x="149.839" y="171.322" xlink:href="#dot" stroke="#ffe100"/>
    <use x="150.287" y="167.674" xlink:href="#dot" stroke="#ff0000"/>
    <use x="150.416" y="169.251" xlink:href="#dot" stroke="#00ebff"/>
    <use x="150" y="171.231" xlink:href="#dot" stroke="#ffe100"/>
    <use x="150" y="167.582" xlink:href="#dot" stroke="#ff0000"/>
    <use x="150" y="169.222" xlink:href="#dot" stroke="#00ebff"/>
    <use x="150.161" y="171.322" xlink:href="#dot" stroke="#ffe100"/>
    <use x="149.713" y="167.674" xlink:href="#dot" stroke="#ff0000"/>
    <use x="149.584" y="169.251" xlink:href="#dot" stroke="#00ebff"/>
    <use x="149.939" y="171.601" xlink:href="#dot" stroke="#ffe100"/>
    <use x="149.052" y="167.955" xlink:href="#dot" stroke="#ff0000"/>
    <use x="148.747" y="169.335" xlink:href="#dot" stroke="#00ebff"/>
    <use x="148.973" y="172.083" xlink:href="#dot" stroke="#ffe100"/>
    <use x="147.67" y="168.451" xlink:href="#dot" stroke="#ff0000"/>
    <use x="147.09" y="169.467" xlink:href="#dot" stroke="#00ebff"/>
    <use x="146.934" y="172.774" xlink:href="#dot" stroke="#ffe100"/>
    <use x="145.252" y="169.18" xlink:href="#dot" stroke="#ff0000"/>
    <use x="144.236" y="169.614" xlink:href="#dot" stroke="#00ebff"/>
    <use x="143.454" y="173.534" xlink:href="#dot" stroke="#ffe100"/>
    <use x="141.445" y="170.016" xlink:href="#dot" stroke="#ff0000"/>
    <use x="139.757" y="169.583" xlink:href="#dot" stroke="#00ebff"/>
    <use x="137.835" y="173.66" xlink:href="#dot" stroke="#ffe100"/>
    <use x="135.575" y="170.277" xlink:href="#dot" stroke="#ff0000"/>
    <use x="132.889" y="168.6" xlink:href="#dot" stroke="#00ebff"/>
    <use x="128.292" y="170.884" xlink:href="#dot" stroke="#ffe100"/>
    <use x="125.877" y="167.712" xlink:href="#dot" stroke="#ff0000"/>
    <use x="121.761" y="164.312" xlink:href="#dot" stroke="#00ebff"/>
    <use x="110.274" y="159.284" xlink:href="#dot" stroke="#ffe100"/>
    <use x="107.828" y="156.422" xlink:href="#dot" stroke="#ff0000"/>
    <use x="101.705" y="150.663" xlink:href="#dot" stroke="#00ebff"/>
    <use x="177.009" y="159.843" xlink:href="#dot" stroke="#ffe100"/>
    <use x="178.937" y="156.443" xlink:href="#dot" stroke="#ff0000"/>
    <use x="184.666" y="151.403" xlink:href="#dot" stroke="#00ebff"/>
    <use x="163.231" y="170.915" xlink:href="#dot" stroke="#ffe100"/>
    <use x="165.107" y="167.219" xlink:href="#dot" stroke="#ff0000"/>
    <use x="169.03" y="164.43" xlink:href="#dot" stroke="#00ebff"/>
    <use x="156.297" y="173.771" xlink:href="#dot" stroke="#ffe100"/>
    <use x="158.011" y="169.869" xlink:href="#dot" stroke="#ff0000"/>
    <use x="160.633" y="168.727" xlink:href="#dot" stroke="#00ebff"/>
    <use x="152.594" y="173.84" xlink:href="#dot" stroke="#ffe100"/>
    <use x="154.059" y="169.801" xlink:href="#dot" stroke="#ff0000"/>
    <use x="155.757" y="169.839" xlink:href="#dot" stroke="#00ebff"/>
    <use x="150.651" y="173.247" xlink:href="#dot" stroke="#ffe100"/>
    <use x="151.802" y="169.125" xlink:href="#dot" stroke="#ff0000"/>
    <use x="152.854" y="169.975" xlink:href="#dot" stroke="#00ebff"/>
    <use x="149.827" y="172.693" xlink:href="#dot" stroke="#ffe100"/>
    <use x="150.618" y="168.525" xlink:href="#dot" stroke="#ff0000"/>
    <use x="151.219" y="169.897" xlink:href="#dot" stroke="#00ebff"/>
    <use x="149.73" y="172.349" xlink:href="#dot" stroke="#ffe100"/>
    <use x="150.132" y="168.16" xlink:href="#dot" stroke="#ff0000"/>
    <use x="150.403" y="169.82" xlink:href="#dot" stroke="#00ebff"/>
    <use x="150" y="172.235" xlink:href="#dot" stroke="#ffe100"/>
    <use x="150" y="168.04" xlink:href="#dot" stroke="#ff0000"/>
    <use x="150" y="169.793" xlink:href="#dot" stroke="#00ebff"/>
    <use x="150.27" y="172.349" xlink:href="#dot" stroke="#ffe100"/>
    <use x="149.868" y="168.16" xlink:href="#dot" stroke="#ff0000"/>
    <use x="149.597" y="169.82" xlink:href="#dot" stroke="#00ebff"/>
    <use x="150.173" y="172.693" xlink:href="#dot" stroke="#ffe100"/>
    <use x="149.382" y="168.525" xlink:href="#dot" stroke="#ff0000"/>
    <use x="148.781" y="169.897" xlink:href="#dot" stroke="#00ebff"/>
    <use x="149.349" y="173.247" xlink:href="#dot" stroke="#ffe100"/>
    <use x="148.198" y="169.125" xlink:href="#dot" stroke="#ff0000"/>
    <use x="147.146" y="169.975" xlink:href="#dot" stroke="#00ebff"/>
    <use x="147.406" y="173.84" xlink:href="#dot" stroke="#ffe100"/>
    <use x="145.941" y="169.801" xlink:href="#dot" stroke="#ff0000"/>
    <use x="144.243" y="169.839" xlink:href="#dot" stroke="#00ebff"/>
    <use x="143.703" y="173.771" xlink:href="#dot" stroke="#ffe100"/>
    <use x="141.989" y="169.869" xlink:href="#dot" stroke="#ff0000"/>
    <use x="139.367" y="168.727" xlink:href="#dot" stroke="#00ebff"/>
    <use x="136.769" y="170.915" xlink:href="#dot" stroke="#ffe100"/>
    <use x="134.893" y="167.219" xlink:href="#dot" stroke="#ff0000"/>
    <use x="130.97" y="164.43" xlink:href="#dot" stroke="#00ebff"/>
    <use x="122.991" y="159.843" xlink:href="#dot" stroke="#ffe100"/>
    <use x="121.063" y="156.443" xlink:href="#dot" stroke="#ff0000"/>
    <use x="115.334" y="151.403" xlink:href="#dot" stroke="#00ebff"/>
    <use x="168.698" y="158.508" xlink:href="#dot" stroke="#ffe100"/>
    <use x="170.189" y="154.716" xlink:href="#dot" stroke="#ff0000"/>
    <use x="175.43" y="149.872" xlink:href="#dot" stroke="#00ebff"/>
    <use x="157.826" y="170.312" xlink:href="#dot" stroke="#ffe100"/>
    <use x="159.242" y="166.238" xlink:href="#dot" stroke="#ff0000"/>
    <use x="162.857" y="163.547" xlink:href="#dot" stroke="#00ebff"/>
    <use x="152.769" y="173.885" xlink:href="#dot" stroke="#ffe100"/>
    <use x="154.013" y="169.61" xlink:href="#dot" stroke="#ff0000"/>
    <use x="156.439" y="168.48" xlink:href="#dot" stroke="#00ebff"/>
    <use x="150.482" y="174.477" xlink:href="#dot" stroke="#ffe100"/>
    <use x="151.478" y="170.067" xlink:href="#dot" stroke="#ff0000"/>
    <use x="153.037" y="170.032" xlink:href="#dot" stroke="#00ebff"/>
    <use x="149.652" y="174.232" xlink:href="#dot" stroke="#ffe100"/>
    <use x="150.344" y="169.738" xlink:href="#dot" stroke="#ff0000"/>
    <use x="151.264" y="170.422" xlink:href="#dot" stroke="#00ebff"/>
    <use x="149.635" y="173.93" xlink:href="#dot" stroke="#ffe100"/>
    <use x="149.989" y="169.392" xlink:href="#dot" stroke="#ff0000"/>
    <use x="150.414" y="170.48" xlink:href="#dot" stroke="#00ebff"/>
    <use x="150" y="173.812" xlink:href="#dot" stroke="#ffe100"/>
    <use x="150" y="169.26" xlink:href="#dot" stroke="#ff0000"/>
    <use x="150" y="170.479" xlink:href="#dot" stroke="#00ebff"/>
    <use x="150.365" y="173.93" xlink:href="#dot" stroke="#ffe100"/>
    <use x="150.011" y="169.392" xlink:href="#dot" stroke="#ff0000"/>
    <use x="149.586" y="170.48" xlink:href="#dot" stroke="#00ebff"/>
    <use x="150.348" y="174.232" xlink:href="#dot" stroke="#ffe100"/>
    <use x="149.656" y="169.738" xlink:href="#dot" stroke="#ff0000"/>
    <use x="148.736" y="170.422" xlink:href="#dot" stroke="#00ebff"/>
    <use x="149.518" y="174.477" xlink:href="#dot" stroke="#ffe100"/>
    <use x="148.522" y="170.067" xlink:href="#dot" stroke="#ff0000"/>
    <use x="146.963" y="170.032" xlink:href="#dot" stroke="#00ebff"/>
    <use x="147.231" y="173.885" xlink:href="#dot" stroke="#ffe100"/>
    <use x="145.987" y="169.61" xlink:href="#dot" stroke="#ff0000"/>
    <use x="143.561" y="168.48" xlink:href="#dot" stroke="#00ebff"/>
    <use x="142.174" y="170.312" xlink:href="#dot" stroke="#ffe100"/>
    <use x="140.758" y="166.238" xlink:href="#dot" stroke="#ff0000"/>
    <use x="137.143" y="163.547" xlink:href="#dot" stroke="#00ebff"/>
    <use x="131.302" y="158.508" xlink:href="#dot" stroke="#ffe100"/>
    <use x="129.811" y="154.716" xlink:href="#dot" stroke="#ff0000"/>
    <use x="124.57" y="149.872" xlink:href="#dot" stroke="#00ebff"/>
    <use x="163.844" y="154.26" xlink:href="#dot" stroke="#ffe100"/>
    <use x="164.958" y="150.205" xlink:href="#dot" stroke="#ff0000"/>
    <use x="169.649" y="145.052" xlink:href="#dot" stroke="#00ebff"/>
    <use x="154.915" y="168.158" xlink:href="#dot" stroke="#ffe100"/>
    <use x="155.932" y="163.838" xlink:href="#dot" stroke="#ff0000"/>
    <use x="159.146" y="160.724" xlink:href="#dot" stroke="#00ebff"/>
    <use x="151.14" y="173.237" xlink:href="#dot" stroke="#ffe100"/>
    <use x="151.975" y="168.728" xlink:href="#dot" stroke="#ff0000"/>
    <use x="154.084" y="167.056" xlink:href="#dot" stroke="#00ebff"/>
    <use x="149.805" y="174.825" xlink:href="#dot" stroke="#ffe100"/>
    <use x="150.395" y="170.192" xlink:href="#dot" stroke="#ff0000"/>
    <use x="151.663" y="169.475" xlink:href="#dot" stroke="#00ebff"/>
    <use x="149.653" y="175.205" xlink:href="#dot" stroke="#ffe100"/>
    <use x="149.958" y="170.503" xlink:href="#dot" stroke="#ff0000"/>
    <use x="150.551" y="170.33" xlink:href="#dot" stroke="#00ebff"/>
    <use x="150" y="175.257" xlink:href="#dot" stroke="#ffe100"/>
    <use x="150" y="170.533" xlink:href="#dot" stroke="#ff0000"/>
    <use x="150" y="170.536" xlink:href="#dot" stroke="#00ebff"/>
    <use x="150.347" y="175.205" xlink:href="#dot" stroke="#ffe100"/>
    <use x="150.042" y="170.503" xlink:href="#dot" stroke="#ff0000"/>
    <use x="149.449" y="170.33" xlink:href="#dot" stroke="#00ebff"/>
    <use x="150.195" y="174.825" xlink:href="#dot" stroke="#ffe100"/>
    <use x="149.605" y="170.192" xlink:href="#dot" stroke="#ff0000"/>
    <use x="148.337" y="169.475" xlink:href="#dot" stroke="#00ebff"/>
    <use x="148.86" y="173.237" xlink:href="#dot" stroke="#ffe100"/>
    <use x="148.025" y="168.728" xlink:href="#dot" stroke="#ff0000"/>
    <use x="145.916" y="167.056" xlink:href="#dot" stroke="#00ebff"/>
    <use x="145.085" y="168.158" xlink:href="#dot" stroke="#ffe100"/>
    <use x="144.068" y="163.838" xlink:href="#dot" stroke="#ff0000"/>
    <use x="140.854" y="160.724" xlink:href="#dot" stroke="#00ebff"/>
    <use x="136.156" y="154.26" xlink:href="#dot" stroke="#ffe100"/>
    <use x="135.042" y="150.205" xlink:href="#dot" stroke="#ff0000"/>
    <use x="130.351" y="145.052" xlink:href="#dot" stroke="#00ebff"/>
    <use x="154.009" y="162.042" xlink:href="#dot" stroke="#ffe100"/>
    <use x="154.679" y="157.602" xlink:href="#dot" stroke="#ff0000"/>
    <use x="157.388" y="153.487" xlink:href="#dot" stroke="#00ebff"/>
    <use x="150.957" y="169.45" xlink:href="#dot" stroke="#ffe100"/>
    <use x="151.443" y="164.847" xlink:href="#dot" stroke="#ff0000"/>
    <use x="153.088" y="161.981" xlink:href="#dot" stroke="#00ebff"/>
    <use x="150.055" y="172.349" xlink:href="#dot" stroke="#ffe100"/>
    <use x="150.309" y="167.652" xlink:href="#dot" stroke="#ff0000"/>
    <use x="151.084" y="165.5" xlink:href="#dot" stroke="#00ebff"/>
    <use x="150" y="173.101" xlink:href="#dot" stroke="#ffe100"/>
    <use x="150" y="168.374" xlink:href="#dot" stroke="#ff0000"/>
    <use x="150" y="166.453" xlink:href="#dot" stroke="#00ebff"/>
    <use x="149.945" y="172.349" xlink:href="#dot" stroke="#ffe100"/>
    <use x="149.691" y="167.652" xlink:href="#dot" stroke="#ff0000"/>
    <use x="148.916" y="165.5" xlink:href="#dot" stroke="#00ebff"/>
    <use x="149.043" y="169.45" xlink:href="#dot" stroke="#ffe100"/>
    <use x="148.557" y="164.847" xlink:href="#dot" stroke="#ff0000"/>
    <use x="146.912" y="161.981" xlink:href="#dot" stroke="#00ebff"/>
    <use x="145.991" y="162.042" xlink:href="#dot" stroke="#ffe100"/>
    <use x="145.321" y="157.602" xlink:href="#dot" stroke="#ff0000"/>
    <use x="142.612" y="153.487" xlink:href="#dot" stroke="#00ebff"/>
    <use x="151.394" y="155.705" xlink:href="#dot" stroke="#ffe100"/>
    <use x="151.596" y="151.155" xlink:href="#dot" stroke="#ff0000"/>
    <use x="152.571" y="146.263" xlink:href="#dot" stroke="#00ebff"/>
    <use x="150" y="158.415" xlink:href="#dot" stroke="#ffe100"/>
    <use x="150" y="153.827" xlink:href="#dot" stroke="#ff0000"/>
    <use x="150" y="149.239" xlink:href="#dot" stroke="#00ebff"/>
    <use x="148.606" y="155.705" xlink:href="#dot" stroke="#ffe100"/>
    <use x="148.404" y="151.155" xlink:href="#dot" stroke="#ff0000"/>
    <use x="147.429" y="146.263" xlink:href="#dot" stroke="#00ebff"/>
</svg>
