<?xml version="1.0" standalone="no"?>
<svg width="2400px" height="1400px" version="1.1" xmlns="http://www.w3.org/2000/svg" xmlns:xlink="http://www.w3.org/1999/xlink">
<rect x="0" y="0" width="2400" height="1400"  fill="#ffffff" />
<defs>
<g id="dot">
<line x1="1" y1="1" x2="0" y2="0"  />
</g>
<g id="cross">
<line x1="-3" y1="0" x2="3" y2="0"  />
<line x1="0" y1="-3" x2="0" y2="3"  />
</g>
<g id="square">
<line x1="-3" y1="-3" x2="-3" y2="3"  />
<line x1="-3" y1="3" x2="3" y2="3"  />
<line x1="3" y1="3" x2="3" y2="-3"  />
<line x1="3" y1="-3" x2="-3" y2="-3"  />
</g>
<g id="round">
<ellipse cx="0" cy="0" rx="3" ry="3"  fill="none" /></g>
<g id="triangle">
<line x1="0" y1="-3" x2="-3" y2="3"  />
<line x1="-3" y1="3" x2="3" y2="3"  />
<line x1="0" y1="-3" x2="3" y2="3"  />
</g>
</defs>
<line x1="288.609" y1="700" x2="2111.391" y2="700"  stroke="#7f7f7f" />
<g><title>element</title>
<g>
<line x1="1258.367" y1="498.271" x2="1258.367" y2="296.542"  stroke="#7f7fff" />
<line x1="1258.367" y1="901.729" x2="1258.367" y2="1103.458"  stroke="#7f7fff" />
</g>
<g>
<polyline fill="none" stroke="#7f7fff" points="323.906,357.399 322.48,364.32 321.084,371.241 319.718,378.163 318.382,385.084 317.077,392.005 315.801,398.926 314.556,405.847 313.34,412.769 312.154,419.69 310.998,426.611 309.872,433.532 308.775,440.454 307.708,447.375 306.67,454.296 305.662,461.217 304.683,468.139 303.733,475.06 302.813,481.981 301.922,488.902 301.06,495.824 300.227,502.745 299.424,509.666 298.649,516.587 297.904,523.508 297.187,530.43 296.499,537.351 295.841,544.272 295.211,551.193 294.61,558.115 294.038,565.036 293.495,571.957 292.98,578.878 292.494,585.8 292.037,592.721 291.609,599.642 291.209,606.563 290.838,613.485 290.495,620.406 290.181,627.327 289.896,634.248 289.639,641.169 289.411,648.091 289.211,655.012 289.04,661.933 288.898,668.854 288.784,675.776 288.698,682.697 288.641,689.618 288.613,696.539 288.613,703.461 288.641,710.382 288.698,717.303 288.784,724.224 288.898,731.146 289.04,738.067 289.211,744.988 289.411,751.909 289.639,758.831 289.896,765.752 290.181,772.673 290.495,779.594 290.838,786.515 291.209,793.437 291.609,800.358 292.037,807.279 292.494,814.2 292.98,821.122 293.495,828.043 294.038,834.964 294.61,841.885 295.211,848.807 295.841,855.728 296.499,862.649 297.187,869.57 297.904,876.492 298.649,883.413 299.424,890.334 300.227,897.255 301.06,904.176 301.922,911.098 302.813,918.019 303.733,924.94 304.683,931.861 305.662,938.783 306.67,945.704 307.708,952.625 308.775,959.546 309.872,966.468 310.998,973.389 312.154,980.31 313.34,987.231 314.556,994.153 315.801,1001.074 317.077,1007.995 318.382,1014.916 319.718,1021.837 321.084,1028.759 322.48,1035.68 323.906,1042.601 " />
<line x1="409.068" y1="357.399" x2="409.068" y2="398.475"  stroke="#7f7fff" />
<line x1="323.906" y1="357.399" x2="409.068" y2="357.399"  stroke="#7f7fff" />
<line x1="409.068" y1="1042.601" x2="409.068" y2="1001.525"  stroke="#7f7fff" />
<line x1="323.906" y1="1042.601" x2="409.068" y2="1042.601"  stroke="#7f7fff" />
<polyline fill="none" stroke="#7f7fff" points="409.068,398.475 405.151,404.566 401.346,410.658 397.649,416.749 394.059,422.841 390.573,428.932 387.189,435.024 383.905,441.115 380.718,447.206 377.626,453.298 374.629,459.389 371.724,465.481 368.909,471.572 366.184,477.663 363.546,483.755 360.995,489.846 358.529,495.938 356.146,502.029 353.847,508.12 351.628,514.212 349.491,520.303 347.433,526.395 345.453,532.486 343.551,538.578 341.727,544.669 339.978,550.76 338.304,556.852 336.706,562.943 335.181,569.035 333.729,575.126 332.351,581.217 331.044,587.309 329.809,593.4 328.646,599.492 327.553,605.583 326.53,611.675 325.577,617.766 324.694,623.857 323.88,629.949 323.135,636.04 322.459,642.132 321.85,648.223 321.31,654.314 320.838,660.406 320.434,666.497 320.097,672.589 319.828,678.68 319.626,684.771 319.492,690.863 319.425,696.954 319.425,703.046 319.492,709.137 319.626,715.229 319.828,721.32 320.097,727.411 320.434,733.503 320.838,739.594 321.31,745.686 321.85,751.777 322.459,757.868 323.135,763.96 323.88,770.051 324.694,776.143 325.577,782.234 326.53,788.325 327.553,794.417 328.646,800.508 329.809,806.6 331.044,812.691 332.351,818.783 333.729,824.874 335.181,830.965 336.706,837.057 338.304,843.148 339.978,849.24 341.727,855.331 343.551,861.422 345.453,867.514 347.433,873.605 349.491,879.697 351.628,885.788 353.847,891.88 356.146,897.971 358.529,904.062 360.995,910.154 363.546,916.245 366.184,922.337 368.909,928.428 371.724,934.519 374.629,940.611 377.626,946.702 380.718,952.794 383.905,958.885 387.189,964.976 390.573,971.068 394.059,977.159 397.649,983.251 401.346,989.342 405.151,995.434 409.068,1001.525 " />
</g>
<g>
<polyline fill="none" stroke="#7f7fff" points="437.278,405.407 441.895,411.358 446.364,417.309 450.69,423.261 454.877,429.212 458.93,435.164 462.854,441.115 466.651,447.066 470.326,453.018 473.882,458.969 477.321,464.92 480.648,470.872 483.863,476.823 486.971,482.775 489.972,488.726 492.871,494.677 495.667,500.629 498.365,506.58 500.965,512.532 503.468,518.483 505.878,524.434 508.195,530.386 510.42,536.337 512.556,542.288 514.603,548.24 516.562,554.191 518.435,560.143 520.223,566.094 521.927,572.045 523.547,577.997 525.085,583.948 526.541,589.899 527.917,595.851 529.212,601.802 530.428,607.754 531.565,613.705 532.623,619.656 533.604,625.608 534.508,631.559 535.335,637.511 536.085,643.462 536.759,649.413 537.358,655.365 537.881,661.316 538.329,667.267 538.702,673.219 539,679.17 539.224,685.122 539.372,691.073 539.447,697.024 539.447,702.976 539.372,708.927 539.224,714.878 539,720.83 538.702,726.781 538.329,732.733 537.881,738.684 537.358,744.635 536.759,750.587 536.085,756.538 535.335,762.489 534.508,768.441 533.604,774.392 532.623,780.344 531.565,786.295 530.428,792.246 529.212,798.198 527.917,804.149 526.541,810.101 525.085,816.052 523.547,822.003 521.927,827.955 520.223,833.906 518.435,839.857 516.562,845.809 514.603,851.76 512.556,857.712 510.42,863.663 508.195,869.614 505.878,875.566 503.468,881.517 500.965,887.468 498.365,893.42 495.667,899.371 492.871,905.323 489.972,911.274 486.971,917.225 483.863,923.177 480.648,929.128 477.321,935.08 473.882,941.031 470.326,946.982 466.651,952.934 462.854,958.885 458.93,964.836 454.877,970.788 450.69,976.739 446.364,982.691 441.895,988.642 437.278,994.593 " />
<line x1="437.278" y1="353.291" x2="437.278" y2="405.407"  stroke="#7f7fff" />
<line x1="437.278" y1="353.291" x2="650.436" y2="353.291"  stroke="#7f7fff" />
<line x1="437.278" y1="1046.709" x2="437.278" y2="994.593"  stroke="#7f7fff" />
<line x1="437.278" y1="1046.709" x2="650.436" y2="1046.709"  stroke="#7f7fff" />
<polyline fill="none" stroke="#7f7fff" points="650.436,353.291 646.983,360.295 643.616,367.3 640.335,374.304 637.139,381.308 634.026,388.312 630.995,395.317 628.046,402.321 625.176,409.325 622.387,416.329 619.675,423.333 617.041,430.338 614.484,437.342 612.002,444.346 609.596,451.35 607.264,458.354 605.006,465.359 602.821,472.363 600.708,479.367 598.666,486.371 596.696,493.376 594.797,500.38 592.967,507.384 591.208,514.388 589.517,521.392 587.895,528.397 586.341,535.401 584.854,542.405 583.435,549.409 582.083,556.414 580.798,563.418 579.579,570.422 578.425,577.426 577.338,584.43 576.316,591.435 575.359,598.439 574.467,605.443 573.639,612.447 572.876,619.451 572.177,626.456 571.542,633.46 570.972,640.464 570.464,647.468 570.021,654.473 569.641,661.477 569.325,668.481 569.072,675.485 568.882,682.489 568.756,689.494 568.692,696.498 568.692,703.502 568.756,710.506 568.882,717.511 569.072,724.515 569.325,731.519 569.641,738.523 570.021,745.527 570.464,752.532 570.972,759.536 571.542,766.54 572.177,773.544 572.876,780.549 573.639,787.553 574.467,794.557 575.359,801.561 576.316,808.565 577.338,815.57 578.425,822.574 579.579,829.578 580.798,836.582 582.083,843.586 583.435,850.591 584.854,857.595 586.341,864.599 587.895,871.603 589.517,878.608 591.208,885.612 592.967,892.616 594.797,899.62 596.696,906.624 598.666,913.629 600.708,920.633 602.821,927.637 605.006,934.641 607.264,941.646 609.596,948.65 612.002,955.654 614.484,962.658 617.041,969.662 619.675,976.667 622.387,983.671 625.176,990.675 628.046,997.679 630.995,1004.683 634.026,1011.688 637.139,1018.692 640.335,1025.696 643.616,1032.7 646.983,1039.705 650.436,1046.709 " />
<line x1="650.436" y1="353.291" x2="660.183" y2="353.291"  stroke="#7f7fff" />
<line x1="650.436" y1="1046.709" x2="660.183" y2="1046.709"  stroke="#7f7fff" />
<polyline fill="none" stroke="#7f7fff" points="660.183,353.291 664.702,360.295 669.092,367.3 673.356,374.304 677.498,381.308 681.519,388.312 685.423,395.317 689.211,402.321 692.887,409.325 696.452,416.329 699.909,423.333 703.26,430.338 706.505,437.342 709.648,444.346 712.69,451.35 715.631,458.354 718.475,465.359 721.222,472.363 723.874,479.367 726.431,486.371 728.896,493.376 731.269,500.38 733.551,507.384 735.744,514.388 737.847,521.392 739.864,528.397 741.793,535.401 743.636,542.405 745.394,549.409 747.067,556.414 748.656,563.418 750.162,570.422 751.586,577.426 752.927,584.43 754.187,591.435 755.366,598.439 756.464,605.443 757.482,612.447 758.42,619.451 759.279,626.456 760.059,633.46 760.76,640.464 761.382,647.468 761.926,654.473 762.392,661.477 762.78,668.481 763.091,675.485 763.323,682.489 763.478,689.494 763.556,696.498 763.556,703.502 763.478,710.506 763.323,717.511 763.091,724.515 762.78,731.519 762.392,738.523 761.926,745.527 761.382,752.532 760.76,759.536 760.059,766.54 759.279,773.544 758.42,780.549 757.482,787.553 756.464,794.557 755.366,801.561 754.187,808.565 752.927,815.57 751.586,822.574 750.162,829.578 748.656,836.582 747.067,843.586 745.394,850.591 743.636,857.595 741.793,864.599 739.864,871.603 737.847,878.608 735.744,885.612 733.551,892.616 731.269,899.62 728.896,906.624 726.431,913.629 723.874,920.633 721.222,927.637 718.475,934.641 715.631,941.646 712.69,948.65 709.648,955.654 706.505,962.658 703.26,969.662 699.909,976.667 696.452,983.671 692.887,990.675 689.211,997.679 685.423,1004.683 681.519,1011.688 677.498,1018.692 673.356,1025.696 669.092,1032.7 664.702,1039.705 660.183,1046.709 " />
</g>
<g>
<polyline fill="none" stroke="#7f7fff" points="859.505,316.323 855.606,324.074 851.807,331.825 848.105,339.576 844.499,347.327 840.988,355.078 837.571,362.829 834.245,370.58 831.01,378.331 827.866,386.082 824.81,393.833 821.842,401.584 818.96,409.335 816.165,417.086 813.454,424.837 810.828,432.589 808.285,440.34 805.824,448.091 803.445,455.842 801.147,463.593 798.929,471.344 796.791,479.095 794.732,486.846 792.751,494.597 790.848,502.348 789.023,510.099 787.274,517.85 785.602,525.601 784.006,533.352 782.485,541.103 781.039,548.854 779.667,556.605 778.37,564.356 777.147,572.108 775.997,579.859 774.921,587.61 773.918,595.361 772.987,603.112 772.129,610.863 771.343,618.614 770.63,626.365 769.988,634.116 769.418,641.867 768.919,649.618 768.492,657.369 768.136,665.12 767.852,672.871 767.638,680.622 767.496,688.373 767.425,696.124 767.425,703.876 767.496,711.627 767.638,719.378 767.852,727.129 768.136,734.88 768.492,742.631 768.919,750.382 769.418,758.133 769.988,765.884 770.63,773.635 771.343,781.386 772.129,789.137 772.987,796.888 773.918,804.639 774.921,812.39 775.997,820.141 777.147,827.892 778.37,835.644 779.667,843.395 781.039,851.146 782.485,858.897 784.006,866.648 785.602,874.399 787.274,882.15 789.023,889.901 790.848,897.652 792.751,905.403 794.732,913.154 796.791,920.905 798.929,928.656 801.147,936.407 803.445,944.158 805.824,951.909 808.285,959.66 810.828,967.411 813.454,975.163 816.165,982.914 818.96,990.665 821.842,998.416 824.81,1006.167 827.866,1013.918 831.01,1021.669 834.245,1029.42 837.571,1037.171 840.988,1044.922 844.499,1052.673 848.105,1060.424 851.807,1068.175 855.606,1075.926 859.505,1083.677 " />
<line x1="859.505" y1="316.323" x2="860.595" y2="316.323"  stroke="#7f7fff" />
<line x1="859.505" y1="1083.677" x2="860.595" y2="1083.677"  stroke="#7f7fff" />
<polyline fill="none" stroke="#7f7fff" points="860.595,316.323 861.614,324.074 862.613,331.825 863.591,339.576 864.547,347.327 865.482,355.078 866.396,362.829 867.29,370.58 868.162,378.331 869.013,386.082 869.843,393.833 870.652,401.584 871.44,409.335 872.207,417.086 872.954,424.837 873.679,432.589 874.384,440.34 875.067,448.091 875.73,455.842 876.372,463.593 876.993,471.344 877.593,479.095 878.172,486.846 878.731,494.597 879.269,502.348 879.786,510.099 880.282,517.85 880.757,525.601 881.212,533.352 881.646,541.103 882.06,548.854 882.452,556.605 882.824,564.356 883.175,572.108 883.506,579.859 883.815,587.61 884.104,595.361 884.373,603.112 884.621,610.863 884.848,618.614 885.054,626.365 885.24,634.116 885.405,641.867 885.549,649.618 885.673,657.369 885.776,665.12 885.859,672.871 885.921,680.622 885.962,688.373 885.983,696.124 885.983,703.876 885.962,711.627 885.921,719.378 885.859,727.129 885.776,734.88 885.673,742.631 885.549,750.382 885.405,758.133 885.24,765.884 885.054,773.635 884.848,781.386 884.621,789.137 884.373,796.888 884.104,804.639 883.815,812.39 883.506,820.141 883.175,827.892 882.824,835.644 882.452,843.395 882.06,851.146 881.646,858.897 881.212,866.648 880.757,874.399 880.282,882.15 879.786,889.901 879.269,897.652 878.731,905.403 878.172,913.154 877.593,920.905 876.993,928.656 876.372,936.407 875.73,944.158 875.067,951.909 874.384,959.66 873.679,967.411 872.954,975.163 872.207,982.914 871.44,990.665 870.652,998.416 869.843,1006.167 869.013,1013.918 868.162,1021.669 867.29,1029.42 866.396,1037.171 865.482,1044.922 864.547,1052.673 863.591,1060.424 862.613,1068.175 861.614,1075.926 860.595,1083.677 " />
</g>
<g>
<polyline fill="none" stroke="#7f7fff" points="1032.905,377.937 1025.861,384.443 1019.119,390.95 1012.659,397.456 1006.463,403.962 1000.517,410.469 994.807,416.975 989.321,423.481 984.048,429.988 978.979,436.494 974.104,443 969.415,449.507 964.905,456.013 960.568,462.519 956.397,469.025 952.387,475.532 948.533,482.038 944.829,488.544 941.272,495.051 937.857,501.557 934.581,508.063 931.44,514.57 928.432,521.076 925.552,527.582 922.798,534.089 920.168,540.595 917.659,547.101 915.269,553.608 912.996,560.114 910.838,566.62 908.793,573.127 906.86,579.633 905.037,586.139 903.322,592.646 901.715,599.152 900.213,605.658 898.817,612.165 897.524,618.671 896.334,625.177 895.246,631.684 894.26,638.19 893.374,644.696 892.588,651.203 891.901,657.709 891.314,664.215 890.825,670.722 890.434,677.228 890.141,683.734 889.946,690.241 889.848,696.747 889.848,703.253 889.946,709.759 890.141,716.266 890.434,722.772 890.825,729.278 891.314,735.785 891.901,742.291 892.588,748.797 893.374,755.304 894.26,761.81 895.246,768.316 896.334,774.823 897.524,781.329 898.817,787.835 900.213,794.342 901.715,800.848 903.322,807.354 905.037,813.861 906.86,820.367 908.793,826.873 910.838,833.38 912.996,839.886 915.269,846.392 917.659,852.899 920.168,859.405 922.798,865.911 925.552,872.418 928.432,878.924 931.44,885.43 934.581,891.937 937.857,898.443 941.272,904.949 944.829,911.456 948.533,917.962 952.387,924.468 956.397,930.975 960.568,937.481 964.905,943.987 969.415,950.493 974.104,957 978.979,963.506 984.048,970.012 989.321,976.519 994.807,983.025 1000.517,989.531 1006.463,996.038 1012.659,1002.544 1019.119,1009.05 1025.861,1015.557 1032.905,1022.063 " />
<line x1="1032.905" y1="371.134" x2="1032.905" y2="377.937"  stroke="#7f7fff" />
<line x1="1032.905" y1="371.134" x2="1033.443" y2="371.134"  stroke="#7f7fff" />
<line x1="1032.905" y1="1028.866" x2="1032.905" y2="1022.063"  stroke="#7f7fff" />
<line x1="1032.905" y1="1028.866" x2="1033.443" y2="1028.866"  stroke="#7f7fff" />
<polyline fill="none" stroke="#7f7fff" points="1033.443,371.134 1035.374,377.777 1037.262,384.421 1039.107,391.065 1040.91,397.709 1042.671,404.353 1044.391,410.996 1046.069,417.64 1047.705,424.284 1049.3,430.928 1050.854,437.571 1052.368,444.215 1053.84,450.859 1055.272,457.503 1056.663,464.146 1058.015,470.79 1059.326,477.434 1060.597,484.078 1061.828,490.721 1063.02,497.365 1064.171,504.009 1065.284,510.653 1066.357,517.297 1067.391,523.94 1068.385,530.584 1069.341,537.228 1070.257,543.872 1071.135,550.515 1071.974,557.159 1072.774,563.803 1073.536,570.447 1074.259,577.09 1074.943,583.734 1075.589,590.378 1076.197,597.022 1076.767,603.665 1077.298,610.309 1077.791,616.953 1078.246,623.597 1078.663,630.24 1079.042,636.884 1079.383,643.528 1079.686,650.172 1079.951,656.816 1080.178,663.459 1080.368,670.103 1080.519,676.747 1080.632,683.391 1080.708,690.034 1080.746,696.678 1080.746,703.322 1080.708,709.966 1080.632,716.609 1080.519,723.253 1080.368,729.897 1080.178,736.541 1079.951,743.184 1079.686,749.828 1079.383,756.472 1079.042,763.116 1078.663,769.76 1078.246,776.403 1077.791,783.047 1077.298,789.691 1076.767,796.335 1076.197,802.978 1075.589,809.622 1074.943,816.266 1074.259,822.91 1073.536,829.553 1072.774,836.197 1071.974,842.841 1071.135,849.485 1070.257,856.128 1069.341,862.772 1068.385,869.416 1067.391,876.06 1066.357,882.703 1065.284,889.347 1064.171,895.991 1063.02,902.635 1061.828,909.279 1060.597,915.922 1059.326,922.566 1058.015,929.21 1056.663,935.854 1055.272,942.497 1053.84,949.141 1052.368,955.785 1050.854,962.429 1049.3,969.072 1047.705,975.716 1046.069,982.36 1044.391,989.004 1042.671,995.647 1040.91,1002.291 1039.107,1008.935 1037.262,1015.579 1035.374,1022.223 1033.443,1028.866 " />
<line x1="1227.622" y1="371.134" x2="1227.622" y2="477.932"  stroke="#7f7fff" />
<line x1="1033.443" y1="371.134" x2="1227.622" y2="371.134"  stroke="#7f7fff" />
<line x1="1227.622" y1="1028.866" x2="1227.622" y2="922.068"  stroke="#7f7fff" />
<line x1="1033.443" y1="1028.866" x2="1227.622" y2="1028.866"  stroke="#7f7fff" />
<polyline fill="none" stroke="#7f7fff" points="1227.622,477.932 1222.928,482.418 1218.428,486.904 1214.111,491.39 1209.965,495.877 1205.982,500.363 1202.154,504.849 1198.472,509.335 1194.93,513.822 1191.522,518.308 1188.243,522.794 1185.087,527.28 1182.049,531.767 1179.127,536.253 1176.314,540.739 1173.609,545.225 1171.008,549.711 1168.508,554.198 1166.105,558.684 1163.798,563.17 1161.583,567.656 1159.46,572.143 1157.425,576.629 1155.477,581.115 1153.613,585.601 1151.833,590.087 1150.134,594.574 1148.516,599.06 1146.977,603.546 1145.515,608.032 1144.129,612.519 1142.819,617.005 1141.584,621.491 1140.421,625.977 1139.332,630.463 1138.314,634.95 1137.366,639.436 1136.49,643.922 1135.683,648.408 1134.945,652.895 1134.276,657.381 1133.675,661.867 1133.142,666.353 1132.676,670.84 1132.277,675.326 1131.945,679.812 1131.68,684.298 1131.481,688.784 1131.349,693.271 1131.283,697.757 1131.283,702.243 1131.349,706.729 1131.481,711.216 1131.68,715.702 1131.945,720.188 1132.277,724.674 1132.676,729.16 1133.142,733.647 1133.675,738.133 1134.276,742.619 1134.945,747.105 1135.683,751.592 1136.49,756.078 1137.366,760.564 1138.314,765.05 1139.332,769.537 1140.421,774.023 1141.584,778.509 1142.819,782.995 1144.129,787.481 1145.515,791.968 1146.977,796.454 1148.516,800.94 1150.134,805.426 1151.833,809.913 1153.613,814.399 1155.477,818.885 1157.425,823.371 1159.46,827.857 1161.583,832.344 1163.798,836.83 1166.105,841.316 1168.508,845.802 1171.008,850.289 1173.609,854.775 1176.314,859.261 1179.127,863.747 1182.049,868.233 1185.087,872.72 1188.243,877.206 1191.522,881.692 1194.93,886.178 1198.472,890.665 1202.154,895.151 1205.982,899.637 1209.965,904.123 1214.111,908.61 1218.428,913.096 1222.928,917.582 1227.622,922.068 " />
</g>
<g>
<polyline fill="none" stroke="#7f7fff" points="1434.696,508.097 1433.238,511.974 1431.814,515.851 1430.423,519.728 1429.066,523.604 1427.742,527.481 1426.45,531.358 1425.191,535.235 1423.964,539.112 1422.769,542.989 1421.606,546.865 1420.475,550.742 1419.375,554.619 1418.306,558.496 1417.268,562.373 1416.261,566.25 1415.285,570.126 1414.339,574.003 1413.423,577.88 1412.537,581.757 1411.682,585.634 1410.856,589.51 1410.06,593.387 1409.294,597.264 1408.557,601.141 1407.849,605.018 1407.17,608.895 1406.521,612.771 1405.9,616.648 1405.309,620.525 1404.746,624.402 1404.212,628.279 1403.706,632.156 1403.229,636.032 1402.781,639.909 1402.361,643.786 1401.969,647.663 1401.605,651.54 1401.27,655.417 1400.962,659.293 1400.683,663.17 1400.432,667.047 1400.209,670.924 1400.014,674.801 1399.846,678.677 1399.707,682.554 1399.596,686.431 1399.512,690.308 1399.456,694.185 1399.428,698.062 1399.428,701.938 1399.456,705.815 1399.512,709.692 1399.596,713.569 1399.707,717.446 1399.846,721.323 1400.014,725.199 1400.209,729.076 1400.432,732.953 1400.683,736.83 1400.962,740.707 1401.27,744.583 1401.605,748.46 1401.969,752.337 1402.361,756.214 1402.781,760.091 1403.229,763.968 1403.706,767.844 1404.212,771.721 1404.746,775.598 1405.309,779.475 1405.9,783.352 1406.521,787.229 1407.17,791.105 1407.849,794.982 1408.557,798.859 1409.294,802.736 1410.06,806.613 1410.856,810.49 1411.682,814.366 1412.537,818.243 1413.423,822.12 1414.339,825.997 1415.285,829.874 1416.261,833.75 1417.268,837.627 1418.306,841.504 1419.375,845.381 1420.475,849.258 1421.606,853.135 1422.769,857.011 1423.964,860.888 1425.191,864.765 1426.45,868.642 1427.742,872.519 1429.066,876.396 1430.423,880.272 1431.814,884.149 1433.238,888.026 1434.696,891.903 " />
<line x1="1434.696" y1="508.097" x2="1447.391" y2="508.097"  stroke="#7f7fff" />
<line x1="1434.696" y1="891.903" x2="1447.391" y2="891.903"  stroke="#7f7fff" />
<polyline fill="none" stroke="#7f7fff" points="1447.391,508.097 1446.816,511.974 1446.252,515.851 1445.701,519.728 1445.161,523.604 1444.634,527.481 1444.118,531.358 1443.615,535.235 1443.123,539.112 1442.643,542.989 1442.175,546.865 1441.719,550.742 1441.275,554.619 1440.842,558.496 1440.422,562.373 1440.013,566.25 1439.616,570.126 1439.231,574.003 1438.857,577.88 1438.496,581.757 1438.146,585.634 1437.808,589.51 1437.481,593.387 1437.167,597.264 1436.864,601.141 1436.572,605.018 1436.293,608.895 1436.025,612.771 1435.769,616.648 1435.525,620.525 1435.292,624.402 1435.071,628.279 1434.862,632.156 1434.664,636.032 1434.478,639.909 1434.303,643.786 1434.141,647.663 1433.99,651.54 1433.85,655.417 1433.722,659.293 1433.606,663.17 1433.501,667.047 1433.408,670.924 1433.327,674.801 1433.257,678.677 1433.199,682.554 1433.153,686.431 1433.118,690.308 1433.095,694.185 1433.083,698.062 1433.083,701.938 1433.095,705.815 1433.118,709.692 1433.153,713.569 1433.199,717.446 1433.257,721.323 1433.327,725.199 1433.408,729.076 1433.501,732.953 1433.606,736.83 1433.722,740.707 1433.85,744.583 1433.99,748.46 1434.141,752.337 1434.303,756.214 1434.478,760.091 1434.664,763.968 1434.862,767.844 1435.071,771.721 1435.292,775.598 1435.525,779.475 1435.769,783.352 1436.025,787.229 1436.293,791.105 1436.572,794.982 1436.864,798.859 1437.167,802.736 1437.481,806.613 1437.808,810.49 1438.146,814.366 1438.496,818.243 1438.857,822.12 1439.231,825.997 1439.616,829.874 1440.013,833.75 1440.422,837.627 1440.842,841.504 1441.275,845.381 1441.719,849.258 1442.175,853.135 1442.643,857.011 1443.123,860.888 1443.615,864.765 1444.118,868.642 1444.634,872.519 1445.161,876.396 1445.701,880.272 1446.252,884.149 1446.816,888.026 1447.391,891.903 " />
</g>
<g>
<polyline fill="none" stroke="#7f7fff" points="1469.77,524.528 1471.099,528.073 1472.397,531.617 1473.664,535.162 1474.901,538.707 1476.108,542.252 1477.286,545.797 1478.433,549.342 1479.552,552.887 1480.641,556.432 1481.701,559.977 1482.732,563.521 1483.735,567.066 1484.709,570.611 1485.655,574.156 1486.573,577.701 1487.464,581.246 1488.326,584.791 1489.161,588.336 1489.968,591.881 1490.748,595.426 1491.501,598.97 1492.227,602.515 1492.925,606.06 1493.597,609.605 1494.242,613.15 1494.861,616.695 1495.453,620.24 1496.019,623.785 1496.558,627.33 1497.071,630.875 1497.558,634.419 1498.019,637.964 1498.454,641.509 1498.863,645.054 1499.246,648.599 1499.604,652.144 1499.935,655.689 1500.241,659.234 1500.521,662.779 1500.776,666.323 1501.005,669.868 1501.208,673.413 1501.386,676.958 1501.539,680.503 1501.666,684.048 1501.767,687.593 1501.844,691.138 1501.894,694.683 1501.92,698.228 1501.92,701.772 1501.894,705.317 1501.844,708.862 1501.767,712.407 1501.666,715.952 1501.539,719.497 1501.386,723.042 1501.208,726.587 1501.005,730.132 1500.776,733.677 1500.521,737.221 1500.241,740.766 1499.935,744.311 1499.604,747.856 1499.246,751.401 1498.863,754.946 1498.454,758.491 1498.019,762.036 1497.558,765.581 1497.071,769.125 1496.558,772.67 1496.019,776.215 1495.453,779.76 1494.861,783.305 1494.242,786.85 1493.597,790.395 1492.925,793.94 1492.227,797.485 1491.501,801.03 1490.748,804.574 1489.968,808.119 1489.161,811.664 1488.326,815.209 1487.464,818.754 1486.573,822.299 1485.655,825.844 1484.709,829.389 1483.735,832.934 1482.732,836.479 1481.701,840.023 1480.641,843.568 1479.552,847.113 1478.433,850.658 1477.286,854.203 1476.108,857.748 1474.901,861.293 1473.664,864.838 1472.397,868.383 1471.099,871.927 1469.77,875.472 " />
<line x1="1469.77" y1="524.528" x2="1533.781" y2="524.528"  stroke="#7f7fff" />
<line x1="1469.77" y1="875.472" x2="1533.781" y2="875.472"  stroke="#7f7fff" />
<polyline fill="none" stroke="#7f7fff" points="1533.781,524.528 1533.17,528.073 1532.572,531.617 1531.986,535.162 1531.414,538.707 1530.854,542.252 1530.306,545.797 1529.772,549.342 1529.25,552.887 1528.741,556.432 1528.244,559.977 1527.761,563.521 1527.289,567.066 1526.831,570.611 1526.385,574.156 1525.951,577.701 1525.531,581.246 1525.122,584.791 1524.727,588.336 1524.343,591.881 1523.973,595.426 1523.614,598.97 1523.268,602.515 1522.935,606.06 1522.614,609.605 1522.306,613.15 1522.01,616.695 1521.726,620.24 1521.455,623.785 1521.196,627.33 1520.95,630.875 1520.716,634.419 1520.494,637.964 1520.285,641.509 1520.088,645.054 1519.903,648.599 1519.731,652.144 1519.571,655.689 1519.423,659.234 1519.288,662.779 1519.165,666.323 1519.054,669.868 1518.956,673.413 1518.87,676.958 1518.796,680.503 1518.735,684.048 1518.685,687.593 1518.648,691.138 1518.624,694.683 1518.612,698.228 1518.612,701.772 1518.624,705.317 1518.648,708.862 1518.685,712.407 1518.735,715.952 1518.796,719.497 1518.87,723.042 1518.956,726.587 1519.054,730.132 1519.165,733.677 1519.288,737.221 1519.423,740.766 1519.571,744.311 1519.731,747.856 1519.903,751.401 1520.088,754.946 1520.285,758.491 1520.494,762.036 1520.716,765.581 1520.95,769.125 1521.196,772.67 1521.455,776.215 1521.726,779.76 1522.01,783.305 1522.306,786.85 1522.614,790.395 1522.935,793.94 1523.268,797.485 1523.614,801.03 1523.973,804.574 1524.343,808.119 1524.727,811.664 1525.122,815.209 1525.531,818.754 1525.951,822.299 1526.385,825.844 1526.831,829.389 1527.289,832.934 1527.761,836.479 1528.244,840.023 1528.741,843.568 1529.25,847.113 1529.772,850.658 1530.306,854.203 1530.854,857.748 1531.414,861.293 1531.986,864.838 1532.572,868.383 1533.17,871.927 1533.781,875.472 " />
</g>
<g>
<polyline fill="none" stroke="#7f7fff" points="1561.219,483.451 1560.362,487.826 1559.536,492.201 1558.741,496.576 1557.974,500.95 1557.234,505.325 1556.52,509.7 1555.831,514.074 1555.165,518.449 1554.521,522.824 1553.9,527.199 1553.299,531.573 1552.718,535.948 1552.156,540.323 1551.613,544.697 1551.089,549.072 1550.581,553.447 1550.091,557.822 1549.618,562.196 1549.16,566.571 1548.719,570.946 1548.294,575.321 1547.884,579.695 1547.489,584.07 1547.109,588.445 1546.744,592.819 1546.394,597.194 1546.058,601.569 1545.737,605.944 1545.43,610.318 1545.138,614.693 1544.861,619.068 1544.597,623.442 1544.348,627.817 1544.114,632.192 1543.894,636.567 1543.688,640.941 1543.497,645.316 1543.321,649.691 1543.159,654.065 1543.011,658.44 1542.879,662.815 1542.761,667.19 1542.657,671.564 1542.568,675.939 1542.494,680.314 1542.435,684.688 1542.391,689.063 1542.361,693.438 1542.346,697.813 1542.346,702.187 1542.361,706.562 1542.391,710.937 1542.435,715.312 1542.494,719.686 1542.568,724.061 1542.657,728.436 1542.761,732.81 1542.879,737.185 1543.011,741.56 1543.159,745.935 1543.321,750.309 1543.497,754.684 1543.688,759.059 1543.894,763.433 1544.114,767.808 1544.348,772.183 1544.597,776.558 1544.861,780.932 1545.138,785.307 1545.43,789.682 1545.737,794.056 1546.058,798.431 1546.394,802.806 1546.744,807.181 1547.109,811.555 1547.489,815.93 1547.884,820.305 1548.294,824.679 1548.719,829.054 1549.16,833.429 1549.618,837.804 1550.091,842.178 1550.581,846.553 1551.089,850.928 1551.613,855.303 1552.156,859.677 1552.718,864.052 1553.299,868.427 1553.9,872.801 1554.521,877.176 1555.165,881.551 1555.831,885.926 1556.52,890.3 1557.234,894.675 1557.974,899.05 1558.741,903.424 1559.536,907.799 1560.362,912.174 1561.219,916.549 " />
<line x1="1561.219" y1="483.451" x2="1575.08" y2="483.451"  stroke="#7f7fff" />
<line x1="1561.219" y1="916.549" x2="1575.08" y2="916.549"  stroke="#7f7fff" />
<polyline fill="none" stroke="#7f7fff" points="1575.08,483.451 1577.293,487.826 1579.466,492.201 1581.599,496.576 1583.69,500.95 1585.739,505.325 1587.745,509.7 1589.708,514.074 1591.628,518.449 1593.503,522.824 1595.334,527.199 1597.121,531.573 1598.862,535.948 1600.559,540.323 1602.21,544.697 1603.815,549.072 1605.376,553.447 1606.89,557.822 1608.359,562.196 1609.782,566.571 1611.159,570.946 1612.49,575.321 1613.775,579.695 1615.014,584.07 1616.207,588.445 1617.354,592.819 1618.455,597.194 1619.51,601.569 1620.519,605.944 1621.481,610.318 1622.398,614.693 1623.268,619.068 1624.093,623.442 1624.871,627.817 1625.604,632.192 1626.29,636.567 1626.931,640.941 1627.525,645.316 1628.074,649.691 1628.577,654.065 1629.034,658.44 1629.445,662.815 1629.81,667.19 1630.13,671.564 1630.404,675.939 1630.632,680.314 1630.815,684.688 1630.952,689.063 1631.043,693.438 1631.089,697.813 1631.089,702.187 1631.043,706.562 1630.952,710.937 1630.815,715.312 1630.632,719.686 1630.404,724.061 1630.13,728.436 1629.81,732.81 1629.445,737.185 1629.034,741.56 1628.577,745.935 1628.074,750.309 1627.525,754.684 1626.931,759.059 1626.29,763.433 1625.604,767.808 1624.871,772.183 1624.093,776.558 1623.268,780.932 1622.398,785.307 1621.481,789.682 1620.519,794.056 1619.51,798.431 1618.455,802.806 1617.354,807.181 1616.207,811.555 1615.014,815.93 1613.775,820.305 1612.49,824.679 1611.159,829.054 1609.782,833.429 1608.359,837.804 1606.89,842.178 1605.376,846.553 1603.815,850.928 1602.21,855.303 1600.559,859.677 1598.862,864.052 1597.121,868.427 1595.334,872.801 1593.503,877.176 1591.628,881.551 1589.708,885.926 1587.745,890.3 1585.739,894.675 1583.69,899.05 1581.599,903.424 1579.466,907.799 1577.293,912.174 1575.08,916.549 " />
</g>
<g>
<polyline fill="none" stroke="#7f7fff" points="1648.102,472.412 1649.23,477.01 1650.334,481.608 1651.413,486.205 1652.469,490.803 1653.5,495.401 1654.507,499.999 1655.49,504.596 1656.45,509.194 1657.385,513.792 1658.297,518.39 1659.186,522.987 1660.05,527.585 1660.891,532.183 1661.709,536.78 1662.503,541.378 1663.274,545.976 1664.022,550.574 1664.746,555.171 1665.447,559.769 1666.126,564.367 1666.781,568.965 1667.413,573.562 1668.022,578.16 1668.608,582.758 1669.171,587.356 1669.711,591.953 1670.229,596.551 1670.724,601.149 1671.196,605.746 1671.645,610.344 1672.072,614.942 1672.476,619.54 1672.857,624.137 1673.216,628.735 1673.553,633.333 1673.866,637.931 1674.158,642.528 1674.426,647.126 1674.673,651.724 1674.897,656.322 1675.098,660.919 1675.277,665.517 1675.434,670.115 1675.568,674.712 1675.68,679.31 1675.769,683.908 1675.836,688.506 1675.881,693.103 1675.903,697.701 1675.903,702.299 1675.881,706.897 1675.836,711.494 1675.769,716.092 1675.68,720.69 1675.568,725.288 1675.434,729.885 1675.277,734.483 1675.098,739.081 1674.897,743.678 1674.673,748.276 1674.426,752.874 1674.158,757.472 1673.866,762.069 1673.553,766.667 1673.216,771.265 1672.857,775.863 1672.476,780.46 1672.072,785.058 1671.645,789.656 1671.196,794.254 1670.724,798.851 1670.229,803.449 1669.711,808.047 1669.171,812.644 1668.608,817.242 1668.022,821.84 1667.413,826.438 1666.781,831.035 1666.126,835.633 1665.447,840.231 1664.746,844.829 1664.022,849.426 1663.274,854.024 1662.503,858.622 1661.709,863.22 1660.891,867.817 1660.05,872.415 1659.186,877.013 1658.297,881.61 1657.385,886.208 1656.45,890.806 1655.49,895.404 1654.507,900.001 1653.5,904.599 1652.469,909.197 1651.413,913.795 1650.334,918.392 1649.23,922.99 1648.102,927.588 " />
<line x1="1648.102" y1="446.483" x2="1648.102" y2="472.412"  stroke="#7f7fff" />
<line x1="1648.102" y1="446.483" x2="1726.105" y2="446.483"  stroke="#7f7fff" />
<line x1="1648.102" y1="953.517" x2="1648.102" y2="927.588"  stroke="#7f7fff" />
<line x1="1648.102" y1="953.517" x2="1726.105" y2="953.517"  stroke="#7f7fff" />
<polyline fill="none" stroke="#7f7fff" points="1726.105,446.483 1725.063,451.604 1724.042,456.726 1723.044,461.848 1722.067,466.969 1721.113,472.091 1720.18,477.212 1719.27,482.334 1718.381,487.455 1717.514,492.577 1716.668,497.698 1715.845,502.82 1715.043,507.942 1714.262,513.063 1713.504,518.185 1712.766,523.306 1712.05,528.428 1711.356,533.549 1710.683,538.671 1710.031,543.792 1709.401,548.914 1708.792,554.036 1708.205,559.157 1707.638,564.279 1707.093,569.4 1706.569,574.522 1706.066,579.643 1705.584,584.765 1705.124,589.886 1704.684,595.008 1704.266,600.13 1703.868,605.251 1703.492,610.373 1703.137,615.494 1702.802,620.616 1702.489,625.737 1702.197,630.859 1701.925,635.981 1701.675,641.102 1701.445,646.224 1701.237,651.345 1701.049,656.467 1700.882,661.588 1700.736,666.71 1700.611,671.831 1700.506,676.953 1700.423,682.075 1700.36,687.196 1700.319,692.318 1700.298,697.439 1700.298,702.561 1700.319,707.682 1700.36,712.804 1700.423,717.925 1700.506,723.047 1700.611,728.169 1700.736,733.29 1700.882,738.412 1701.049,743.533 1701.237,748.655 1701.445,753.776 1701.675,758.898 1701.925,764.019 1702.197,769.141 1702.489,774.263 1702.802,779.384 1703.137,784.506 1703.492,789.627 1703.868,794.749 1704.266,799.87 1704.684,804.992 1705.124,810.114 1705.584,815.235 1706.066,820.357 1706.569,825.478 1707.093,830.6 1707.638,835.721 1708.205,840.843 1708.792,845.964 1709.401,851.086 1710.031,856.208 1710.683,861.329 1711.356,866.451 1712.05,871.572 1712.766,876.694 1713.504,881.815 1714.262,886.937 1715.043,892.058 1715.845,897.18 1716.668,902.302 1717.514,907.423 1718.381,912.545 1719.27,917.666 1720.18,922.788 1721.113,927.909 1722.067,933.031 1723.044,938.152 1724.042,943.274 1725.063,948.396 1726.105,953.517 " />
</g>
<g>
<polyline fill="none" stroke="#7f7fff" points="1773.801,424.533 1770.852,430.098 1768.051,435.663 1765.389,441.228 1762.859,446.793 1760.453,452.358 1758.164,457.923 1755.985,463.488 1753.911,469.053 1751.935,474.618 1750.052,480.183 1748.256,485.748 1746.544,491.313 1744.911,496.878 1743.352,502.443 1741.865,508.008 1740.444,513.573 1739.088,519.138 1737.793,524.703 1736.557,530.268 1735.376,535.833 1734.249,541.398 1733.173,546.963 1732.148,552.528 1731.169,558.093 1730.238,563.658 1729.351,569.223 1728.507,574.788 1727.706,580.353 1726.946,585.918 1726.227,591.483 1725.547,597.048 1724.906,602.613 1724.303,608.178 1723.738,613.743 1723.21,619.308 1722.719,624.873 1722.264,630.438 1721.844,636.003 1721.461,641.568 1721.113,647.133 1720.801,652.698 1720.523,658.263 1720.28,663.828 1720.073,669.393 1719.9,674.958 1719.761,680.523 1719.658,686.088 1719.589,691.653 1719.554,697.218 1719.554,702.782 1719.589,708.347 1719.658,713.912 1719.761,719.477 1719.9,725.042 1720.073,730.607 1720.28,736.172 1720.523,741.737 1720.801,747.302 1721.113,752.867 1721.461,758.432 1721.844,763.997 1722.264,769.562 1722.719,775.127 1723.21,780.692 1723.738,786.257 1724.303,791.822 1724.906,797.387 1725.547,802.952 1726.227,808.517 1726.946,814.082 1727.706,819.647 1728.507,825.212 1729.351,830.777 1730.238,836.342 1731.169,841.907 1732.148,847.472 1733.173,853.037 1734.249,858.602 1735.376,864.167 1736.557,869.732 1737.793,875.297 1739.088,880.862 1740.444,886.427 1741.865,891.992 1743.352,897.557 1744.911,903.122 1746.544,908.687 1748.256,914.252 1750.052,919.817 1751.935,925.382 1753.911,930.947 1755.985,936.512 1758.164,942.077 1760.453,947.642 1762.859,953.207 1765.389,958.772 1768.051,964.337 1770.852,969.902 1773.801,975.467 " />
<line x1="1773.801" y1="424.533" x2="1784.342" y2="424.533"  stroke="#7f7fff" />
<line x1="1773.801" y1="975.467" x2="1784.342" y2="975.467"  stroke="#7f7fff" />
<polyline fill="none" stroke="#7f7fff" points="1784.342,424.533 1783.99,430.098 1783.779,435.663 1783.696,441.228 1783.727,446.793 1783.861,452.358 1784.086,457.923 1784.392,463.488 1784.768,469.053 1785.206,474.618 1785.696,480.183 1786.231,485.748 1786.804,491.313 1787.408,496.878 1788.036,502.443 1788.683,508.008 1789.345,513.573 1790.016,519.138 1790.692,524.703 1791.369,530.268 1792.044,535.833 1792.713,541.398 1793.375,546.963 1794.026,552.528 1794.664,558.093 1795.288,563.658 1795.895,569.223 1796.485,574.788 1797.054,580.353 1797.604,585.918 1798.131,591.483 1798.636,597.048 1799.118,602.613 1799.576,608.178 1800.009,613.743 1800.417,619.308 1800.799,624.873 1801.156,630.438 1801.486,636.003 1801.789,641.568 1802.065,647.133 1802.315,652.698 1802.536,658.263 1802.731,663.828 1802.898,669.393 1803.037,674.958 1803.149,680.523 1803.232,686.088 1803.288,691.653 1803.316,697.218 1803.316,702.782 1803.288,708.347 1803.232,713.912 1803.149,719.477 1803.037,725.042 1802.898,730.607 1802.731,736.172 1802.536,741.737 1802.315,747.302 1802.065,752.867 1801.789,758.432 1801.486,763.997 1801.156,769.562 1800.799,775.127 1800.417,780.692 1800.009,786.257 1799.576,791.822 1799.118,797.387 1798.636,802.952 1798.131,808.517 1797.604,814.082 1797.054,819.647 1796.485,825.212 1795.895,830.777 1795.288,836.342 1794.664,841.907 1794.026,847.472 1793.375,853.037 1792.713,858.602 1792.044,864.167 1791.369,869.732 1790.692,875.297 1790.016,880.862 1789.345,886.427 1788.683,891.992 1788.036,897.557 1787.408,903.122 1786.804,908.687 1786.231,914.252 1785.696,919.817 1785.206,925.382 1784.768,930.947 1784.392,936.512 1784.086,942.077 1783.861,947.642 1783.727,953.207 1783.696,958.772 1783.779,964.337 1783.99,969.902 1784.342,975.467 " />
</g>
<g>
<polyline fill="none" stroke="#7f7fff" points="2083.023,353.291 2083.023,360.295 2083.023,367.3 2083.023,374.304 2083.023,381.308 2083.023,388.312 2083.023,395.317 2083.023,402.321 2083.023,409.325 2083.023,416.329 2083.023,423.333 2083.023,430.338 2083.023,437.342 2083.023,444.346 2083.023,451.35 2083.023,458.354 2083.023,465.359 2083.023,472.363 2083.023,479.367 2083.023,486.371 2083.023,493.376 2083.023,500.38 2083.023,507.384 2083.023,514.388 2083.023,521.392 2083.023,528.397 2083.023,535.401 2083.023,542.405 2083.023,549.409 2083.023,556.414 2083.023,563.418 2083.023,570.422 2083.023,577.426 2083.023,584.43 2083.023,591.435 2083.023,598.439 2083.023,605.443 2083.023,612.447 2083.023,619.451 2083.023,626.456 2083.023,633.46 2083.023,640.464 2083.023,647.468 2083.023,654.473 2083.023,661.477 2083.023,668.481 2083.023,675.485 2083.023,682.489 2083.023,689.494 2083.023,696.498 2083.023,703.502 2083.023,710.506 2083.023,717.511 2083.023,724.515 2083.023,731.519 2083.023,738.523 2083.023,745.527 2083.023,752.532 2083.023,759.536 2083.023,766.54 2083.023,773.544 2083.023,780.549 2083.023,787.553 2083.023,794.557 2083.023,801.561 2083.023,808.565 2083.023,815.57 2083.023,822.574 2083.023,829.578 2083.023,836.582 2083.023,843.586 2083.023,850.591 2083.023,857.595 2083.023,864.599 2083.023,871.603 2083.023,878.608 2083.023,885.612 2083.023,892.616 2083.023,899.62 2083.023,906.624 2083.023,913.629 2083.023,920.633 2083.023,927.637 2083.023,934.641 2083.023,941.646 2083.023,948.65 2083.023,955.654 2083.023,962.658 2083.023,969.662 2083.023,976.667 2083.023,983.671 2083.023,990.675 2083.023,997.679 2083.023,1004.683 2083.023,1011.688 2083.023,1018.692 2083.023,1025.696 2083.023,1032.7 2083.023,1039.705 2083.023,1046.709 " />
<line x1="2083.023" y1="353.291" x2="2101.122" y2="353.291"  stroke="#7f7fff" />
<line x1="2083.023" y1="1046.709" x2="2101.122" y2="1046.709"  stroke="#7f7fff" />
<polyline fill="none" stroke="#7f7fff" points="2101.122,353.291 2101.122,360.295 2101.122,367.3 2101.122,374.304 2101.122,381.308 2101.122,388.312 2101.122,395.317 2101.122,402.321 2101.122,409.325 2101.122,416.329 2101.122,423.333 2101.122,430.338 2101.122,437.342 2101.122,444.346 2101.122,451.35 2101.122,458.354 2101.122,465.359 2101.122,472.363 2101.122,479.367 2101.122,486.371 2101.122,493.376 2101.122,500.38 2101.122,507.384 2101.122,514.388 2101.122,521.392 2101.122,528.397 2101.122,535.401 2101.122,542.405 2101.122,549.409 2101.122,556.414 2101.122,563.418 2101.122,570.422 2101.122,577.426 2101.122,584.43 2101.122,591.435 2101.122,598.439 2101.122,605.443 2101.122,612.447 2101.122,619.451 2101.122,626.456 2101.122,633.46 2101.122,640.464 2101.122,647.468 2101.122,654.473 2101.122,661.477 2101.122,668.481 2101.122,675.485 2101.122,682.489 2101.122,689.494 2101.122,696.498 2101.122,703.502 2101.122,710.506 2101.122,717.511 2101.122,724.515 2101.122,731.519 2101.122,738.523 2101.122,745.527 2101.122,752.532 2101.122,759.536 2101.122,766.54 2101.122,773.544 2101.122,780.549 2101.122,787.553 2101.122,794.557 2101.122,801.561 2101.122,808.565 2101.122,815.57 2101.122,822.574 2101.122,829.578 2101.122,836.582 2101.122,843.586 2101.122,850.591 2101.122,857.595 2101.122,864.599 2101.122,871.603 2101.122,878.608 2101.122,885.612 2101.122,892.616 2101.122,899.62 2101.122,906.624 2101.122,913.629 2101.122,920.633 2101.122,927.637 2101.122,934.641 2101.122,941.646 2101.122,948.65 2101.122,955.654 2101.122,962.658 2101.122,969.662 2101.122,976.667 2101.122,983.671 2101.122,990.675 2101.122,997.679 2101.122,1004.683 2101.122,1011.688 2101.122,1018.692 2101.122,1025.696 2101.122,1032.7 2101.122,1039.705 2101.122,1046.709 " />
</g>
</g>
<g><title>element</title>
<polyline fill="none" stroke="#7f7fff" points="2111.391,144.444 2111.391,155.668 2111.391,166.891 2111.391,178.114 2111.391,189.338 2111.391,200.561 2111.391,211.785 2111.391,223.008 2111.391,234.231 2111.391,245.455 2111.391,256.678 2111.391,267.901 2111.391,279.125 2111.391,290.348 2111.391,301.571 2111.391,312.795 2111.391,324.018 2111.391,335.241 2111.391,346.465 2111.391,357.688 2111.391,368.911 2111.391,380.135 2111.391,391.358 2111.391,402.581 2111.391,413.805 2111.391,425.028 2111.391,436.251 2111.391,447.475 2111.391,458.698 2111.391,469.921 2111.391,481.145 2111.391,492.368 2111.391,503.591 2111.391,514.815 2111.391,526.038 2111.391,537.262 2111.391,548.485 2111.391,559.708 2111.391,570.932 2111.391,582.155 2111.391,593.378 2111.391,604.602 2111.391,615.825 2111.391,627.048 2111.391,638.272 2111.391,649.495 2111.391,660.718 2111.391,671.942 2111.391,683.165 2111.391,694.388 2111.391,705.612 2111.391,716.835 2111.391,728.058 2111.391,739.282 2111.391,750.505 2111.391,761.728 2111.391,772.952 2111.391,784.175 2111.391,795.398 2111.391,806.622 2111.391,817.845 2111.391,829.068 2111.391,840.292 2111.391,851.515 2111.391,862.738 2111.391,873.962 2111.391,885.185 2111.391,896.409 2111.391,907.632 2111.391,918.855 2111.391,930.079 2111.391,941.302 2111.391,952.525 2111.391,963.749 2111.391,974.972 2111.391,986.195 2111.391,997.419 2111.391,1008.642 2111.391,1019.865 2111.391,1031.089 2111.391,1042.312 2111.391,1053.535 2111.391,1064.759 2111.391,1075.982 2111.391,1087.205 2111.391,1098.429 2111.391,1109.652 2111.391,1120.875 2111.391,1132.099 2111.391,1143.322 2111.391,1154.545 2111.391,1165.769 2111.391,1176.992 2111.391,1188.215 2111.391,1199.439 2111.391,1210.662 2111.391,1221.886 2111.391,1233.109 2111.391,1244.332 2111.391,1255.556 " />
</g>
</svg>
