<?xml version="1.0" standalone="no"?>
<svg width="2400px" height="1400px" version="1.1" xmlns="http://www.w3.org/2000/svg" xmlns:xlink="http://www.w3.org/1999/xlink">
<rect x="0" y="0" width="2400" height="1400"  fill="#ffffff" />
<defs>
<g id="dot">
<line x1="1" y1="1" x2="0" y2="0"  />
</g>
<g id="cross">
<line x1="-3" y1="0" x2="3" y2="0"  />
<line x1="0" y1="-3" x2="0" y2="3"  />
</g>
<g id="square">
<line x1="-3" y1="-3" x2="-3" y2="3"  />
<line x1="-3" y1="3" x2="3" y2="3"  />
<line x1="3" y1="3" x2="3" y2="-3"  />
<line x1="3" y1="-3" x2="-3" y2="-3"  />
</g>
<g id="round">
<ellipse cx="0" cy="0" rx="3" ry="3"  fill="none" /></g>
<g id="triangle">
<line x1="0" y1="-3" x2="-3" y2="3"  />
<line x1="-3" y1="3" x2="3" y2="3"  />
<line x1="0" y1="-3" x2="3" y2="3"  />
</g>
</defs>
<line x1="654.033" y1="700" x2="1745.967" y2="700"  stroke="#7f7f7f" />
<g><title>element</title>
<g>
<line x1="944.81" y1="527.501" x2="944.81" y2="355.003"  stroke="#7f7fff" />
<line x1="944.81" y1="872.499" x2="944.81" y2="1044.997"  stroke="#7f7fff" />
</g>
<g>
<polyline fill="none" stroke="#7f7fff" points="725.543,429.938 722.477,435.394 719.493,440.85 716.588,446.306 713.763,451.761 711.014,457.217 708.342,462.673 705.744,468.129 703.22,473.585 700.768,479.04 698.388,484.496 696.077,489.952 693.837,495.408 691.664,500.864 689.56,506.319 687.522,511.775 685.55,517.231 683.643,522.687 681.801,528.143 680.022,533.598 678.307,539.054 676.654,544.51 675.063,549.966 673.534,555.421 672.065,560.877 670.657,566.333 669.308,571.789 668.019,577.245 666.789,582.7 665.617,588.156 664.504,593.612 663.448,599.068 662.45,604.524 661.509,609.979 660.625,615.435 659.798,620.891 659.027,626.347 658.311,631.803 657.652,637.258 657.048,642.714 656.5,648.17 656.007,653.626 655.57,659.082 655.187,664.537 654.859,669.993 654.586,675.449 654.367,680.905 654.204,686.361 654.095,691.816 654.04,697.272 654.04,702.728 654.095,708.184 654.204,713.639 654.367,719.095 654.586,724.551 654.859,730.007 655.187,735.463 655.57,740.918 656.007,746.374 656.5,751.83 657.048,757.286 657.652,762.742 658.311,768.197 659.027,773.653 659.798,779.109 660.625,784.565 661.509,790.021 662.45,795.476 663.448,800.932 664.504,806.388 665.617,811.844 666.789,817.3 668.019,822.755 669.308,828.211 670.657,833.667 672.065,839.123 673.534,844.579 675.063,850.034 676.654,855.49 678.307,860.946 680.022,866.402 681.801,871.857 683.643,877.313 685.55,882.769 687.522,888.225 689.56,893.681 691.664,899.136 693.837,904.592 696.077,910.048 698.388,915.504 700.768,920.96 703.22,926.415 705.744,931.871 708.342,937.327 711.014,942.783 713.763,948.239 716.588,953.694 719.493,959.15 722.477,964.606 725.543,970.062 " />
<line x1="741.245" y1="429.938" x2="741.245" y2="434.529"  stroke="#7f7fff" />
<line x1="725.543" y1="429.938" x2="741.245" y2="429.938"  stroke="#7f7fff" />
<line x1="741.245" y1="970.062" x2="741.245" y2="965.471"  stroke="#7f7fff" />
<line x1="725.543" y1="970.062" x2="741.245" y2="970.062"  stroke="#7f7fff" />
<polyline fill="none" stroke="#7f7fff" points="741.245,434.529 740.888,439.892 740.538,445.255 740.196,450.618 739.86,455.981 739.532,461.344 739.212,466.707 738.898,472.07 738.592,477.433 738.294,482.796 738.002,488.16 737.718,493.523 737.441,498.886 737.172,504.249 736.91,509.612 736.655,514.975 736.407,520.338 736.167,525.701 735.934,531.064 735.708,536.427 735.49,541.79 735.279,547.153 735.075,552.516 734.878,557.879 734.689,563.242 734.507,568.605 734.332,573.968 734.165,579.331 734.005,584.694 733.852,590.057 733.707,595.421 733.568,600.784 733.437,606.147 733.314,611.51 733.197,616.873 733.088,622.236 732.986,627.599 732.892,632.962 732.804,638.325 732.724,643.688 732.651,649.051 732.586,654.414 732.528,659.777 732.477,665.14 732.433,670.503 732.397,675.866 732.368,681.229 732.346,686.592 732.331,691.955 732.324,697.318 732.324,702.682 732.331,708.045 732.346,713.408 732.368,718.771 732.397,724.134 732.433,729.497 732.477,734.86 732.528,740.223 732.586,745.586 732.651,750.949 732.724,756.312 732.804,761.675 732.892,767.038 732.986,772.401 733.088,777.764 733.197,783.127 733.314,788.49 733.437,793.853 733.568,799.216 733.707,804.579 733.852,809.943 734.005,815.306 734.165,820.669 734.332,826.032 734.507,831.395 734.689,836.758 734.878,842.121 735.075,847.484 735.279,852.847 735.49,858.21 735.708,863.573 735.934,868.936 736.167,874.299 736.407,879.662 736.655,885.025 736.91,890.388 737.172,895.751 737.441,901.114 737.718,906.477 738.002,911.84 738.294,917.204 738.592,922.567 738.898,927.93 739.212,933.293 739.532,938.656 739.86,944.019 740.196,949.382 740.538,954.745 740.888,960.108 741.245,965.471 " />
</g>
<g>
<polyline fill="none" stroke="#7f7fff" points="819.522,466.553 815.614,471.269 811.837,475.985 808.188,480.701 804.66,485.417 801.25,490.133 797.953,494.849 794.766,499.566 791.685,504.282 788.707,508.998 785.83,513.714 783.05,518.43 780.364,523.146 777.771,527.862 775.269,532.578 772.854,537.294 770.525,542.01 768.281,546.727 766.119,551.443 764.039,556.159 762.037,560.875 760.114,565.591 758.267,570.307 756.496,575.023 754.799,579.739 753.176,584.455 751.624,589.172 750.144,593.888 748.734,598.604 747.393,603.32 746.121,608.036 744.917,612.752 743.78,617.468 742.709,622.184 741.705,626.9 740.765,631.616 739.891,636.333 739.081,641.049 738.335,645.765 737.652,650.481 737.033,655.197 736.476,659.913 735.982,664.629 735.551,669.345 735.181,674.061 734.873,678.778 734.627,683.494 734.443,688.21 734.32,692.926 734.259,697.642 734.259,702.358 734.32,707.074 734.443,711.79 734.627,716.506 734.873,721.222 735.181,725.939 735.551,730.655 735.982,735.371 736.476,740.087 737.033,744.803 737.652,749.519 738.335,754.235 739.081,758.951 739.891,763.667 740.765,768.384 741.705,773.1 742.709,777.816 743.78,782.532 744.917,787.248 746.121,791.964 747.393,796.68 748.734,801.396 750.144,806.112 751.624,810.828 753.176,815.545 754.799,820.261 756.496,824.977 758.267,829.693 760.114,834.409 762.037,839.125 764.039,843.841 766.119,848.557 768.281,853.273 770.525,857.99 772.854,862.706 775.269,867.422 777.771,872.138 780.364,876.854 783.05,881.57 785.83,886.286 788.707,891.002 791.685,895.718 794.766,900.434 797.953,905.151 801.25,909.867 804.66,914.583 808.188,919.299 811.837,924.015 815.614,928.731 819.522,933.447 " />
<line x1="837.453" y1="466.553" x2="837.453" y2="476.82"  stroke="#7f7fff" />
<line x1="819.522" y1="466.553" x2="837.453" y2="466.553"  stroke="#7f7fff" />
<line x1="837.453" y1="933.447" x2="837.453" y2="923.18"  stroke="#7f7fff" />
<line x1="819.522" y1="933.447" x2="837.453" y2="933.447"  stroke="#7f7fff" />
<polyline fill="none" stroke="#7f7fff" points="837.453,476.82 835.536,481.329 833.666,485.837 831.84,490.346 830.06,494.855 828.324,499.363 826.632,503.872 824.984,508.381 823.379,512.89 821.817,517.398 820.298,521.907 818.82,526.416 817.385,530.924 815.991,535.433 814.638,539.942 813.325,544.45 812.054,548.959 810.822,553.468 809.631,557.976 808.479,562.485 807.367,566.994 806.294,571.502 805.259,576.011 804.264,580.52 803.307,585.028 802.389,589.537 801.509,594.046 800.666,598.555 799.862,603.063 799.095,607.572 798.366,612.081 797.674,616.589 797.019,621.098 796.401,625.607 795.821,630.115 795.277,634.624 794.769,639.133 794.299,643.641 793.865,648.15 793.467,652.659 793.106,657.167 792.782,661.676 792.493,666.185 792.241,670.694 792.024,675.202 791.844,679.711 791.7,684.22 791.592,688.728 791.52,693.237 791.484,697.746 791.484,702.254 791.52,706.763 791.592,711.272 791.7,715.78 791.844,720.289 792.024,724.798 792.241,729.306 792.493,733.815 792.782,738.324 793.106,742.833 793.467,747.341 793.865,751.85 794.299,756.359 794.769,760.867 795.277,765.376 795.821,769.885 796.401,774.393 797.019,778.902 797.674,783.411 798.366,787.919 799.095,792.428 799.862,796.937 800.666,801.445 801.509,805.954 802.389,810.463 803.307,814.972 804.264,819.48 805.259,823.989 806.294,828.498 807.367,833.006 808.479,837.515 809.631,842.024 810.822,846.532 812.054,851.041 813.325,855.55 814.638,860.058 815.991,864.567 817.385,869.076 818.82,873.584 820.298,878.093 821.817,882.602 823.379,887.11 824.984,891.619 826.632,896.128 828.324,900.637 830.06,905.145 831.84,909.654 833.666,914.163 835.536,918.671 837.453,923.18 " />
</g>
<g>
<polyline fill="none" stroke="#7f7fff" points="837.504,476.855 836.594,481.363 835.703,485.871 834.832,490.379 833.98,494.887 833.147,499.395 832.333,503.903 831.539,508.411 830.763,512.919 830.007,517.427 829.269,521.935 828.55,526.443 827.85,530.951 827.169,535.459 826.507,539.967 825.863,544.475 825.239,548.983 824.633,553.491 824.045,557.999 823.477,562.507 822.927,567.015 822.395,571.523 821.882,576.031 821.388,580.539 820.912,585.047 820.455,589.555 820.016,594.063 819.596,598.571 819.194,603.079 818.81,607.587 818.445,612.095 818.098,616.603 817.769,621.111 817.459,625.618 817.168,630.126 816.894,634.634 816.639,639.142 816.402,643.65 816.183,648.158 815.983,652.666 815.801,657.174 815.637,661.682 815.491,666.19 815.364,670.698 815.254,675.206 815.163,679.714 815.091,684.222 815.036,688.73 815,693.238 814.981,697.746 814.981,702.254 815,706.762 815.036,711.27 815.091,715.778 815.163,720.286 815.254,724.794 815.364,729.302 815.491,733.81 815.637,738.318 815.801,742.826 815.983,747.334 816.183,751.842 816.402,756.35 816.639,760.858 816.894,765.366 817.168,769.874 817.459,774.382 817.769,778.889 818.098,783.397 818.445,787.905 818.81,792.413 819.194,796.921 819.596,801.429 820.016,805.937 820.455,810.445 820.912,814.953 821.388,819.461 821.882,823.969 822.395,828.477 822.927,832.985 823.477,837.493 824.045,842.001 824.633,846.509 825.239,851.017 825.863,855.525 826.507,860.033 827.169,864.541 827.85,869.049 828.55,873.557 829.269,878.065 830.007,882.573 830.763,887.081 831.539,891.589 832.333,896.097 833.147,900.605 833.98,905.113 834.832,909.621 835.703,914.129 836.594,918.637 837.504,923.145 " />
<line x1="928.567" y1="476.855" x2="928.567" y2="519.938"  stroke="#7f7fff" />
<line x1="837.504" y1="476.855" x2="928.567" y2="476.855"  stroke="#7f7fff" />
<line x1="928.567" y1="923.145" x2="928.567" y2="880.062"  stroke="#7f7fff" />
<line x1="837.504" y1="923.145" x2="928.567" y2="923.145"  stroke="#7f7fff" />
<polyline fill="none" stroke="#7f7fff" points="928.567,519.938 924.328,523.576 920.284,527.214 916.421,530.851 912.728,534.489 909.192,538.126 905.805,541.764 902.557,545.402 899.441,549.039 896.451,552.677 893.58,556.314 890.823,559.952 888.174,563.59 885.631,567.227 883.187,570.865 880.841,574.503 878.587,578.14 876.424,581.778 874.348,585.415 872.357,589.053 870.449,592.691 868.62,596.328 866.869,599.966 865.194,603.603 863.594,607.241 862.066,610.879 860.61,614.516 859.223,618.154 857.905,621.791 856.654,625.429 855.468,629.067 854.348,632.704 853.292,636.342 852.3,639.979 851.369,643.617 850.5,647.255 849.692,650.892 848.944,654.53 848.256,658.168 847.627,661.805 847.057,665.443 846.545,669.08 846.091,672.718 845.694,676.356 845.355,679.993 845.072,683.631 844.846,687.268 844.677,690.906 844.564,694.544 844.508,698.181 844.508,701.819 844.564,705.456 844.677,709.094 844.846,712.732 845.072,716.369 845.355,720.007 845.694,723.644 846.091,727.282 846.545,730.92 847.057,734.557 847.627,738.195 848.256,741.832 848.944,745.47 849.692,749.108 850.5,752.745 851.369,756.383 852.3,760.021 853.292,763.658 854.348,767.296 855.468,770.933 856.654,774.571 857.905,778.209 859.223,781.846 860.61,785.484 862.066,789.121 863.594,792.759 865.194,796.397 866.869,800.034 868.62,803.672 870.449,807.309 872.357,810.947 874.348,814.585 876.424,818.222 878.587,821.86 880.841,825.497 883.187,829.135 885.631,832.773 888.174,836.41 890.823,840.048 893.58,843.686 896.451,847.323 899.441,850.961 902.557,854.598 905.805,858.236 909.192,861.874 912.728,865.511 916.421,869.149 920.284,872.786 924.328,876.424 928.567,880.062 " />
</g>
<g>
<polyline fill="none" stroke="#7f7fff" points="974.706,523.817 978.429,527.376 981.998,530.935 985.423,534.495 988.711,538.054 991.871,541.613 994.908,545.172 997.828,548.732 1000.638,552.291 1003.341,555.85 1005.942,559.409 1008.446,562.969 1010.855,566.528 1013.174,570.087 1015.405,573.646 1017.551,577.206 1019.614,580.765 1021.598,584.324 1023.504,587.883 1025.334,591.443 1027.091,595.002 1028.775,598.561 1030.389,602.12 1031.935,605.68 1033.413,609.239 1034.825,612.798 1036.173,616.358 1037.457,619.917 1038.678,623.476 1039.837,627.035 1040.936,630.595 1041.976,634.154 1042.956,637.713 1043.878,641.272 1044.743,644.832 1045.55,648.391 1046.301,651.95 1046.997,655.509 1047.637,659.069 1048.222,662.628 1048.753,666.187 1049.23,669.746 1049.653,673.306 1050.023,676.865 1050.339,680.424 1050.602,683.983 1050.812,687.543 1050.97,691.102 1051.075,694.661 1051.128,698.22 1051.128,701.78 1051.075,705.339 1050.97,708.898 1050.812,712.457 1050.602,716.017 1050.339,719.576 1050.023,723.135 1049.653,726.694 1049.23,730.254 1048.753,733.813 1048.222,737.372 1047.637,740.931 1046.997,744.491 1046.301,748.05 1045.55,751.609 1044.743,755.168 1043.878,758.728 1042.956,762.287 1041.976,765.846 1040.936,769.405 1039.837,772.965 1038.678,776.524 1037.457,780.083 1036.173,783.642 1034.825,787.202 1033.413,790.761 1031.935,794.32 1030.389,797.88 1028.775,801.439 1027.091,804.998 1025.334,808.557 1023.504,812.117 1021.598,815.676 1019.614,819.235 1017.551,822.794 1015.405,826.354 1013.174,829.913 1010.855,833.472 1008.446,837.031 1005.942,840.591 1003.341,844.15 1000.638,847.709 997.828,851.268 994.908,854.828 991.871,858.387 988.711,861.946 985.423,865.505 981.998,869.065 978.429,872.624 974.706,876.183 " />
<line x1="974.706" y1="488.117" x2="974.706" y2="523.817"  stroke="#7f7fff" />
<line x1="974.706" y1="488.117" x2="1071.871" y2="488.117"  stroke="#7f7fff" />
<line x1="974.706" y1="911.883" x2="974.706" y2="876.183"  stroke="#7f7fff" />
<line x1="974.706" y1="911.883" x2="1071.871" y2="911.883"  stroke="#7f7fff" />
<polyline fill="none" stroke="#7f7fff" points="1071.871,488.117 1071.914,492.398 1071.956,496.678 1071.998,500.959 1072.038,505.239 1072.078,509.52 1072.117,513.8 1072.155,518.081 1072.192,522.361 1072.228,526.641 1072.263,530.922 1072.297,535.202 1072.331,539.483 1072.364,543.763 1072.395,548.044 1072.426,552.324 1072.456,556.605 1072.485,560.885 1072.514,565.166 1072.541,569.446 1072.567,573.727 1072.593,578.007 1072.618,582.287 1072.641,586.568 1072.664,590.848 1072.686,595.129 1072.708,599.409 1072.728,603.69 1072.747,607.97 1072.766,612.251 1072.783,616.531 1072.8,620.812 1072.816,625.092 1072.831,629.372 1072.845,633.653 1072.858,637.933 1072.871,642.214 1072.882,646.494 1072.893,650.775 1072.902,655.055 1072.911,659.336 1072.919,663.616 1072.926,667.897 1072.932,672.177 1072.938,676.457 1072.942,680.738 1072.946,685.018 1072.948,689.299 1072.95,693.579 1072.951,697.86 1072.951,702.14 1072.95,706.421 1072.948,710.701 1072.946,714.982 1072.942,719.262 1072.938,723.543 1072.932,727.823 1072.926,732.103 1072.919,736.384 1072.911,740.664 1072.902,744.945 1072.893,749.225 1072.882,753.506 1072.871,757.786 1072.858,762.067 1072.845,766.347 1072.831,770.628 1072.816,774.908 1072.8,779.188 1072.783,783.469 1072.766,787.749 1072.747,792.03 1072.728,796.31 1072.708,800.591 1072.686,804.871 1072.664,809.152 1072.641,813.432 1072.618,817.713 1072.593,821.993 1072.567,826.273 1072.541,830.554 1072.514,834.834 1072.485,839.115 1072.456,843.395 1072.426,847.676 1072.395,851.956 1072.364,856.237 1072.331,860.517 1072.297,864.798 1072.263,869.078 1072.228,873.359 1072.192,877.639 1072.155,881.919 1072.117,886.2 1072.078,890.48 1072.038,894.761 1071.998,899.041 1071.956,903.322 1071.914,907.602 1071.871,911.883 " />
<line x1="1071.871" y1="478.526" x2="1071.871" y2="488.117"  stroke="#7f7fff" />
<line x1="1071.871" y1="478.526" x2="1096.625" y2="478.526"  stroke="#7f7fff" />
<line x1="1071.871" y1="921.474" x2="1071.871" y2="911.883"  stroke="#7f7fff" />
<line x1="1071.871" y1="921.474" x2="1096.625" y2="921.474"  stroke="#7f7fff" />
<polyline fill="none" stroke="#7f7fff" points="1096.625,478.526 1099.676,483.001 1102.638,487.475 1105.511,491.949 1108.3,496.423 1111.006,500.897 1113.63,505.372 1116.175,509.846 1118.643,514.32 1121.035,518.794 1123.352,523.269 1125.597,527.743 1127.771,532.217 1129.874,536.691 1131.909,541.165 1133.876,545.64 1135.776,550.114 1137.611,554.588 1139.382,559.062 1141.089,563.536 1142.733,568.011 1144.316,572.485 1145.837,576.959 1147.299,581.433 1148.701,585.908 1150.043,590.382 1151.328,594.856 1152.555,599.33 1153.725,603.804 1154.838,608.279 1155.896,612.753 1156.897,617.227 1157.844,621.701 1158.736,626.175 1159.573,630.65 1160.357,635.124 1161.086,639.598 1161.763,644.072 1162.386,648.547 1162.957,653.021 1163.475,657.495 1163.94,661.969 1164.353,666.443 1164.715,670.918 1165.024,675.392 1165.282,679.866 1165.488,684.34 1165.642,688.814 1165.745,693.289 1165.797,697.763 1165.797,702.237 1165.745,706.711 1165.642,711.186 1165.488,715.66 1165.282,720.134 1165.024,724.608 1164.715,729.082 1164.353,733.557 1163.94,738.031 1163.475,742.505 1162.957,746.979 1162.386,751.453 1161.763,755.928 1161.086,760.402 1160.357,764.876 1159.573,769.35 1158.736,773.825 1157.844,778.299 1156.897,782.773 1155.896,787.247 1154.838,791.721 1153.725,796.196 1152.555,800.67 1151.328,805.144 1150.043,809.618 1148.701,814.092 1147.299,818.567 1145.837,823.041 1144.316,827.515 1142.733,831.989 1141.089,836.464 1139.382,840.938 1137.611,845.412 1135.776,849.886 1133.876,854.36 1131.909,858.835 1129.874,863.309 1127.771,867.783 1125.597,872.257 1123.352,876.731 1121.035,881.206 1118.643,885.68 1116.175,890.154 1113.63,894.628 1111.006,899.103 1108.3,903.577 1105.511,908.051 1102.638,912.525 1099.676,916.999 1096.625,921.474 " />
</g>
<g>
<polyline fill="none" stroke="#7f7fff" points="1157.393,467.626 1157.807,472.32 1158.213,477.015 1158.61,481.709 1158.999,486.404 1159.379,491.098 1159.751,495.792 1160.114,500.487 1160.469,505.181 1160.815,509.876 1161.153,514.57 1161.482,519.265 1161.803,523.959 1162.115,528.653 1162.419,533.348 1162.714,538.042 1163.001,542.737 1163.28,547.431 1163.549,552.126 1163.811,556.82 1164.064,561.514 1164.309,566.209 1164.545,570.903 1164.772,575.598 1164.991,580.292 1165.202,584.987 1165.405,589.681 1165.598,594.375 1165.784,599.07 1165.961,603.764 1166.129,608.459 1166.289,613.153 1166.441,617.848 1166.584,622.542 1166.719,627.236 1166.846,631.931 1166.964,636.625 1167.073,641.32 1167.174,646.014 1167.267,650.709 1167.351,655.403 1167.427,660.097 1167.494,664.792 1167.553,669.486 1167.604,674.181 1167.646,678.875 1167.679,683.57 1167.705,688.264 1167.722,692.958 1167.73,697.653 1167.73,702.347 1167.722,707.042 1167.705,711.736 1167.679,716.43 1167.646,721.125 1167.604,725.819 1167.553,730.514 1167.494,735.208 1167.427,739.903 1167.351,744.597 1167.267,749.291 1167.174,753.986 1167.073,758.68 1166.964,763.375 1166.846,768.069 1166.719,772.764 1166.584,777.458 1166.441,782.152 1166.289,786.847 1166.129,791.541 1165.961,796.236 1165.784,800.93 1165.598,805.625 1165.405,810.319 1165.202,815.013 1164.991,819.708 1164.772,824.402 1164.545,829.097 1164.309,833.791 1164.064,838.486 1163.811,843.18 1163.549,847.874 1163.28,852.569 1163.001,857.263 1162.714,861.958 1162.419,866.652 1162.115,871.347 1161.803,876.041 1161.482,880.735 1161.153,885.43 1160.815,890.124 1160.469,894.819 1160.114,899.513 1159.751,904.208 1159.379,908.902 1158.999,913.596 1158.61,918.291 1158.213,922.985 1157.807,927.68 1157.393,932.374 " />
<line x1="1157.393" y1="465.505" x2="1157.393" y2="467.626"  stroke="#7f7fff" />
<line x1="1157.393" y1="465.505" x2="1172.855" y2="465.505"  stroke="#7f7fff" />
<line x1="1157.393" y1="934.495" x2="1157.393" y2="932.374"  stroke="#7f7fff" />
<line x1="1157.393" y1="934.495" x2="1172.855" y2="934.495"  stroke="#7f7fff" />
<polyline fill="none" stroke="#7f7fff" points="1172.855,465.505 1175.493,470.243 1178.062,474.98 1180.562,479.717 1182.995,484.455 1185.361,489.192 1187.662,493.929 1189.899,498.666 1192.073,503.404 1194.185,508.141 1196.235,512.878 1198.225,517.615 1200.156,522.353 1202.027,527.09 1203.841,531.827 1205.597,536.564 1207.296,541.302 1208.939,546.039 1210.527,550.776 1212.06,555.513 1213.538,560.251 1214.963,564.988 1216.334,569.725 1217.652,574.463 1218.918,579.2 1220.133,583.937 1221.295,588.674 1222.406,593.412 1223.467,598.149 1224.477,602.886 1225.437,607.623 1226.347,612.361 1227.208,617.098 1228.019,621.835 1228.782,626.572 1229.495,631.31 1230.16,636.047 1230.777,640.784 1231.346,645.521 1231.866,650.259 1232.339,654.996 1232.764,659.733 1233.142,664.471 1233.472,669.208 1233.755,673.945 1233.99,678.682 1234.178,683.42 1234.32,688.157 1234.414,692.894 1234.461,697.631 1234.461,702.369 1234.414,707.106 1234.32,711.843 1234.178,716.58 1233.99,721.318 1233.755,726.055 1233.472,730.792 1233.142,735.529 1232.764,740.267 1232.339,745.004 1231.866,749.741 1231.346,754.479 1230.777,759.216 1230.16,763.953 1229.495,768.69 1228.782,773.428 1228.019,778.165 1227.208,782.902 1226.347,787.639 1225.437,792.377 1224.477,797.114 1223.467,801.851 1222.406,806.588 1221.295,811.326 1220.133,816.063 1218.918,820.8 1217.652,825.537 1216.334,830.275 1214.963,835.012 1213.538,839.749 1212.06,844.487 1210.527,849.224 1208.939,853.961 1207.296,858.698 1205.597,863.436 1203.841,868.173 1202.027,872.91 1200.156,877.647 1198.225,882.385 1196.235,887.122 1194.185,891.859 1192.073,896.596 1189.899,901.334 1187.662,906.071 1185.361,910.808 1182.995,915.545 1180.562,920.283 1178.062,925.02 1175.493,929.757 1172.855,934.495 " />
</g>
<g>
<polyline fill="none" stroke="#7f7fff" points="1251.726,480.937 1251.11,485.362 1250.507,489.788 1249.917,494.213 1249.339,498.639 1248.774,503.064 1248.222,507.49 1247.682,511.915 1247.155,516.341 1246.641,520.766 1246.14,525.192 1245.651,529.617 1245.175,534.043 1244.712,538.468 1244.262,542.894 1243.824,547.319 1243.398,551.745 1242.985,556.17 1242.585,560.596 1242.198,565.022 1241.823,569.447 1241.46,573.873 1241.111,578.298 1240.773,582.724 1240.449,587.149 1240.137,591.575 1239.837,596 1239.55,600.426 1239.276,604.851 1239.014,609.277 1238.764,613.702 1238.527,618.128 1238.303,622.553 1238.091,626.979 1237.891,631.404 1237.704,635.83 1237.53,640.255 1237.368,644.681 1237.218,649.106 1237.081,653.532 1236.957,657.958 1236.845,662.383 1236.745,666.809 1236.658,671.234 1236.583,675.66 1236.521,680.085 1236.471,684.511 1236.433,688.936 1236.409,693.362 1236.396,697.787 1236.396,702.213 1236.409,706.638 1236.433,711.064 1236.471,715.489 1236.521,719.915 1236.583,724.34 1236.658,728.766 1236.745,733.191 1236.845,737.617 1236.957,742.042 1237.081,746.468 1237.218,750.894 1237.368,755.319 1237.53,759.745 1237.704,764.17 1237.891,768.596 1238.091,773.021 1238.303,777.447 1238.527,781.872 1238.764,786.298 1239.014,790.723 1239.276,795.149 1239.55,799.574 1239.837,804 1240.137,808.425 1240.449,812.851 1240.773,817.276 1241.111,821.702 1241.46,826.127 1241.823,830.553 1242.198,834.978 1242.585,839.404 1242.985,843.83 1243.398,848.255 1243.824,852.681 1244.262,857.106 1244.712,861.532 1245.175,865.957 1245.651,870.383 1246.14,874.808 1246.641,879.234 1247.155,883.659 1247.682,888.085 1248.222,892.51 1248.774,896.936 1249.339,901.361 1249.917,905.787 1250.507,910.212 1251.11,914.638 1251.726,919.063 " />
<line x1="1270.06" y1="480.937" x2="1270.06" y2="483.951"  stroke="#7f7fff" />
<line x1="1251.726" y1="480.937" x2="1270.06" y2="480.937"  stroke="#7f7fff" />
<line x1="1270.06" y1="919.063" x2="1270.06" y2="916.049"  stroke="#7f7fff" />
<line x1="1251.726" y1="919.063" x2="1270.06" y2="919.063"  stroke="#7f7fff" />
<polyline fill="none" stroke="#7f7fff" points="1270.06,483.951 1270.357,488.315 1270.647,492.68 1270.932,497.045 1271.21,501.409 1271.482,505.774 1271.748,510.138 1272.008,514.503 1272.262,518.868 1272.51,523.232 1272.752,527.597 1272.987,531.962 1273.217,536.326 1273.441,540.691 1273.658,545.055 1273.87,549.42 1274.075,553.785 1274.275,558.149 1274.468,562.514 1274.655,566.879 1274.837,571.243 1275.012,575.608 1275.181,579.973 1275.344,584.337 1275.501,588.702 1275.652,593.066 1275.797,597.431 1275.936,601.796 1276.069,606.16 1276.196,610.525 1276.316,614.89 1276.431,619.254 1276.54,623.619 1276.642,627.984 1276.739,632.348 1276.83,636.713 1276.914,641.077 1276.993,645.442 1277.065,649.807 1277.131,654.171 1277.192,658.536 1277.246,662.901 1277.294,667.265 1277.337,671.63 1277.373,675.995 1277.403,680.359 1277.427,684.724 1277.445,689.088 1277.457,693.453 1277.463,697.818 1277.463,702.182 1277.457,706.547 1277.445,710.912 1277.427,715.276 1277.403,719.641 1277.373,724.005 1277.337,728.37 1277.294,732.735 1277.246,737.099 1277.192,741.464 1277.131,745.829 1277.065,750.193 1276.993,754.558 1276.914,758.923 1276.83,763.287 1276.739,767.652 1276.642,772.016 1276.54,776.381 1276.431,780.746 1276.316,785.11 1276.196,789.475 1276.069,793.84 1275.936,798.204 1275.797,802.569 1275.652,806.934 1275.501,811.298 1275.344,815.663 1275.181,820.027 1275.012,824.392 1274.837,828.757 1274.655,833.121 1274.468,837.486 1274.275,841.851 1274.075,846.215 1273.87,850.58 1273.658,854.945 1273.441,859.309 1273.217,863.674 1272.987,868.038 1272.752,872.403 1272.51,876.768 1272.262,881.132 1272.008,885.497 1271.748,889.862 1271.482,894.226 1271.21,898.591 1270.932,902.955 1270.647,907.32 1270.357,911.685 1270.06,916.049 " />
</g>
</g>
<g><title>element</title>
<polyline fill="none" stroke="#7f7fff" points="1745.967,144.444 1745.967,155.668 1745.967,166.891 1745.967,178.114 1745.967,189.338 1745.967,200.561 1745.967,211.785 1745.967,223.008 1745.967,234.231 1745.967,245.455 1745.967,256.678 1745.967,267.901 1745.967,279.125 1745.967,290.348 1745.967,301.571 1745.967,312.795 1745.967,324.018 1745.967,335.241 1745.967,346.465 1745.967,357.688 1745.967,368.911 1745.967,380.135 1745.967,391.358 1745.967,402.581 1745.967,413.805 1745.967,425.028 1745.967,436.251 1745.967,447.475 1745.967,458.698 1745.967,469.921 1745.967,481.145 1745.967,492.368 1745.967,503.591 1745.967,514.815 1745.967,526.038 1745.967,537.262 1745.967,548.485 1745.967,559.708 1745.967,570.932 1745.967,582.155 1745.967,593.378 1745.967,604.602 1745.967,615.825 1745.967,627.048 1745.967,638.272 1745.967,649.495 1745.967,660.718 1745.967,671.942 1745.967,683.165 1745.967,694.388 1745.967,705.612 1745.967,716.835 1745.967,728.058 1745.967,739.282 1745.967,750.505 1745.967,761.728 1745.967,772.952 1745.967,784.175 1745.967,795.398 1745.967,806.622 1745.967,817.845 1745.967,829.068 1745.967,840.292 1745.967,851.515 1745.967,862.738 1745.967,873.962 1745.967,885.185 1745.967,896.409 1745.967,907.632 1745.967,918.855 1745.967,930.079 1745.967,941.302 1745.967,952.525 1745.967,963.749 1745.967,974.972 1745.967,986.195 1745.967,997.419 1745.967,1008.642 1745.967,1019.865 1745.967,1031.089 1745.967,1042.312 1745.967,1053.535 1745.967,1064.759 1745.967,1075.982 1745.967,1087.205 1745.967,1098.429 1745.967,1109.652 1745.967,1120.875 1745.967,1132.099 1745.967,1143.322 1745.967,1154.545 1745.967,1165.769 1745.967,1176.992 1745.967,1188.215 1745.967,1199.439 1745.967,1210.662 1745.967,1221.886 1745.967,1233.109 1745.967,1244.332 1745.967,1255.556 " />
</g>
</svg>
