<?xml version="1.0" standalone="no"?>
<svg width="2400px" height="1400px" version="1.1" xmlns="http://www.w3.org/2000/svg" xmlns:xlink="http://www.w3.org/1999/xlink">
<rect x="0" y="0" width="2400" height="1400"  fill="#ffffff" />
<defs>
<g id="dot">
<line x1="1" y1="1" x2="0" y2="0"  />
</g>
<g id="cross">
<line x1="-3" y1="0" x2="3" y2="0"  />
<line x1="0" y1="-3" x2="0" y2="3"  />
</g>
<g id="square">
<line x1="-3" y1="-3" x2="-3" y2="3"  />
<line x1="-3" y1="3" x2="3" y2="3"  />
<line x1="3" y1="3" x2="3" y2="-3"  />
<line x1="3" y1="-3" x2="-3" y2="-3"  />
</g>
<g id="round">
<ellipse cx="0" cy="0" rx="3" ry="3"  fill="none" /></g>
<g id="triangle">
<line x1="0" y1="-3" x2="-3" y2="3"  />
<line x1="-3" y1="3" x2="3" y2="3"  />
<line x1="0" y1="-3" x2="3" y2="3"  />
</g>
</defs>
<line x1="247.619" y1="700" x2="2152.381" y2="700"  stroke="#7f7f7f" />
<g><title>element</title>
<g>
<line x1="1086.355" y1="570.215" x2="1086.355" y2="440.43"  stroke="#7f7fff" />
<line x1="1086.355" y1="829.785" x2="1086.355" y2="959.57"  stroke="#7f7fff" />
</g>
<g>
<line x1="1443.437" y1="613.058" x2="1443.437" y2="526.116"  stroke="#7f7fff" />
<line x1="1443.437" y1="786.942" x2="1443.437" y2="873.884"  stroke="#7f7fff" />
</g>
<g>
<polyline fill="none" stroke="#7f7fff" points="261.984,480.145 261.407,484.587 260.842,489.028 260.289,493.47 259.748,497.911 259.219,502.353 258.702,506.794 258.197,511.236 257.703,515.677 257.222,520.119 256.752,524.56 256.294,529.002 255.848,533.443 255.414,537.885 254.992,542.326 254.582,546.768 254.183,551.209 253.796,555.651 253.422,560.092 253.058,564.534 252.707,568.975 252.367,573.417 252.04,577.858 251.724,582.3 251.419,586.741 251.127,591.183 250.846,595.625 250.577,600.066 250.32,604.508 250.074,608.949 249.84,613.391 249.618,617.832 249.408,622.274 249.209,626.715 249.022,631.157 248.847,635.598 248.683,640.04 248.531,644.481 248.391,648.923 248.263,653.364 248.146,657.806 248.041,662.247 247.947,666.689 247.866,671.13 247.796,675.572 247.737,680.013 247.691,684.455 247.656,688.896 247.632,693.338 247.621,697.779 247.621,702.221 247.632,706.662 247.656,711.104 247.691,715.545 247.737,719.987 247.796,724.428 247.866,728.87 247.947,733.311 248.041,737.753 248.146,742.194 248.263,746.636 248.391,751.077 248.531,755.519 248.683,759.96 248.847,764.402 249.022,768.843 249.209,773.285 249.408,777.726 249.618,782.168 249.84,786.609 250.074,791.051 250.32,795.492 250.577,799.934 250.846,804.375 251.127,808.817 251.419,813.259 251.724,817.7 252.04,822.142 252.367,826.583 252.707,831.025 253.058,835.466 253.422,839.908 253.796,844.349 254.183,848.791 254.582,853.232 254.992,857.674 255.414,862.115 255.848,866.557 256.294,870.998 256.752,875.44 257.222,879.881 257.703,884.323 258.197,888.764 258.702,893.206 259.219,897.647 259.748,902.089 260.289,906.53 260.842,910.972 261.407,915.413 261.984,919.855 " />
<line x1="302.385" y1="480.145" x2="302.385" y2="481.47"  stroke="#7f7fff" />
<line x1="261.984" y1="480.145" x2="302.385" y2="480.145"  stroke="#7f7fff" />
<line x1="302.385" y1="919.855" x2="302.385" y2="918.53"  stroke="#7f7fff" />
<line x1="261.984" y1="919.855" x2="302.385" y2="919.855"  stroke="#7f7fff" />
<polyline fill="none" stroke="#7f7fff" points="302.385,481.47 301.019,485.884 299.682,490.299 298.376,494.714 297.101,499.129 295.855,503.543 294.639,507.958 293.453,512.373 292.296,516.788 291.168,521.202 290.07,525.617 289.001,530.032 287.961,534.447 286.949,538.861 285.967,543.276 285.013,547.691 284.087,552.106 283.19,556.52 282.321,560.935 281.48,565.35 280.667,569.765 279.883,574.18 279.126,578.594 278.397,583.009 277.695,587.424 277.021,591.839 276.375,596.253 275.756,600.668 275.165,605.083 274.601,609.498 274.064,613.912 273.554,618.327 273.072,622.742 272.617,627.157 272.188,631.571 271.787,635.986 271.413,640.401 271.065,644.816 270.745,649.23 270.451,653.645 270.184,658.06 269.944,662.475 269.73,666.889 269.544,671.304 269.384,675.719 269.251,680.134 269.144,684.548 269.064,688.963 269.011,693.378 268.984,697.793 268.984,702.207 269.011,706.622 269.064,711.037 269.144,715.452 269.251,719.866 269.384,724.281 269.544,728.696 269.73,733.111 269.944,737.525 270.184,741.94 270.451,746.355 270.745,750.77 271.065,755.184 271.413,759.599 271.787,764.014 272.188,768.429 272.617,772.843 273.072,777.258 273.554,781.673 274.064,786.088 274.601,790.502 275.165,794.917 275.756,799.332 276.375,803.747 277.021,808.161 277.695,812.576 278.397,816.991 279.126,821.406 279.883,825.82 280.667,830.235 281.48,834.65 282.321,839.065 283.19,843.48 284.087,847.894 285.013,852.309 285.967,856.724 286.949,861.139 287.961,865.553 289.001,869.968 290.07,874.383 291.168,878.798 292.296,883.212 293.453,887.627 294.639,892.042 295.855,896.457 297.101,900.871 298.376,905.286 299.682,909.701 301.019,914.116 302.385,918.53 " />
<line x1="302.385" y1="481.47" x2="315.194" y2="481.47"  stroke="#7f7fff" />
<line x1="302.385" y1="918.53" x2="315.194" y2="918.53"  stroke="#7f7fff" />
<polyline fill="none" stroke="#7f7fff" points="315.194,481.47 315.74,485.884 316.275,490.299 316.798,494.714 317.31,499.129 317.811,503.543 318.301,507.958 318.779,512.373 319.246,516.788 319.702,521.202 320.146,525.617 320.579,530.032 321.002,534.447 321.412,538.861 321.812,543.276 322.201,547.691 322.578,552.106 322.944,556.52 323.299,560.935 323.643,565.35 323.976,569.765 324.297,574.18 324.607,578.594 324.907,583.009 325.195,587.424 325.472,591.839 325.738,596.253 325.992,600.668 326.236,605.083 326.469,609.498 326.69,613.912 326.9,618.327 327.1,622.742 327.288,627.157 327.465,631.571 327.631,635.986 327.786,640.401 327.929,644.816 328.062,649.23 328.184,653.645 328.295,658.06 328.394,662.475 328.483,666.889 328.56,671.304 328.626,675.719 328.682,680.134 328.726,684.548 328.759,688.963 328.781,693.378 328.792,697.793 328.792,702.207 328.781,706.622 328.759,711.037 328.726,715.452 328.682,719.866 328.626,724.281 328.56,728.696 328.483,733.111 328.394,737.525 328.295,741.94 328.184,746.355 328.062,750.77 327.929,755.184 327.786,759.599 327.631,764.014 327.465,768.429 327.288,772.843 327.1,777.258 326.9,781.673 326.69,786.088 326.469,790.502 326.236,794.917 325.992,799.332 325.738,803.747 325.472,808.161 325.195,812.576 324.907,816.991 324.607,821.406 324.297,825.82 323.976,830.235 323.643,834.65 323.299,839.065 322.944,843.48 322.578,847.894 322.201,852.309 321.812,856.724 321.412,861.139 321.002,865.553 320.579,869.968 320.146,874.383 319.702,878.798 319.246,883.212 318.779,887.627 318.301,892.042 317.811,896.457 317.31,900.871 316.798,905.286 316.275,909.701 315.74,914.116 315.194,918.53 " />
</g>
<g>
<polyline fill="none" stroke="#7f7fff" points="373.616,476.556 371.866,481.07 370.156,485.585 368.488,490.099 366.859,494.613 365.27,499.127 363.721,503.641 362.211,508.155 360.74,512.669 359.307,517.183 357.913,521.697 356.557,526.211 355.239,530.725 353.958,535.239 352.714,539.753 351.508,544.267 350.338,548.781 349.205,553.295 348.108,557.809 347.048,562.323 346.023,566.837 345.035,571.351 344.082,575.865 343.164,580.379 342.282,584.893 341.435,589.407 340.623,593.921 339.846,598.435 339.103,602.949 338.395,607.463 337.722,611.977 337.083,616.491 336.478,621.005 335.907,625.519 335.371,630.033 334.868,634.547 334.399,639.061 333.964,643.575 333.563,648.089 333.196,652.603 332.862,657.117 332.561,661.631 332.294,666.145 332.061,670.659 331.861,675.173 331.694,679.687 331.561,684.201 331.461,688.715 331.394,693.229 331.361,697.743 331.361,702.257 331.394,706.771 331.461,711.285 331.561,715.799 331.694,720.313 331.861,724.827 332.061,729.341 332.294,733.855 332.561,738.369 332.862,742.883 333.196,747.397 333.563,751.911 333.964,756.425 334.399,760.939 334.868,765.453 335.371,769.967 335.907,774.481 336.478,778.995 337.083,783.509 337.722,788.023 338.395,792.537 339.103,797.051 339.846,801.565 340.623,806.079 341.435,810.593 342.282,815.107 343.164,819.621 344.082,824.135 345.035,828.649 346.023,833.163 347.048,837.677 348.108,842.191 349.205,846.705 350.338,851.219 351.508,855.733 352.714,860.247 353.958,864.761 355.239,869.275 356.557,873.789 357.913,878.303 359.307,882.817 360.74,887.331 362.211,891.845 363.721,896.359 365.27,900.873 366.859,905.387 368.488,909.901 370.156,914.415 371.866,918.93 373.616,923.444 " />
<line x1="373.616" y1="476.556" x2="389.409" y2="476.556"  stroke="#7f7fff" />
<line x1="373.616" y1="923.444" x2="389.409" y2="923.444"  stroke="#7f7fff" />
<polyline fill="none" stroke="#7f7fff" points="389.409,476.556 389.137,481.07 388.871,485.585 388.611,490.099 388.356,494.613 388.107,499.127 387.863,503.641 387.625,508.155 387.392,512.669 387.165,517.183 386.943,521.697 386.727,526.211 386.517,530.725 386.312,535.239 386.113,539.753 385.919,544.267 385.731,548.781 385.548,553.295 385.371,557.809 385.199,562.323 385.033,566.837 384.873,571.351 384.718,575.865 384.568,580.379 384.424,584.893 384.286,589.407 384.153,593.921 384.026,598.435 383.904,602.949 383.788,607.463 383.677,611.977 383.572,616.491 383.472,621.005 383.378,625.519 383.29,630.033 383.207,634.547 383.129,639.061 383.057,643.575 382.991,648.089 382.93,652.603 382.875,657.117 382.825,661.631 382.781,666.145 382.742,670.659 382.709,675.173 382.681,679.687 382.659,684.201 382.642,688.715 382.631,693.229 382.626,697.743 382.626,702.257 382.631,706.771 382.642,711.285 382.659,715.799 382.681,720.313 382.709,724.827 382.742,729.341 382.781,733.855 382.825,738.369 382.875,742.883 382.93,747.397 382.991,751.911 383.057,756.425 383.129,760.939 383.207,765.453 383.29,769.967 383.378,774.481 383.472,778.995 383.572,783.509 383.677,788.023 383.788,792.537 383.904,797.051 384.026,801.565 384.153,806.079 384.286,810.593 384.424,815.107 384.568,819.621 384.718,824.135 384.873,828.649 385.033,833.163 385.199,837.677 385.371,842.191 385.548,846.705 385.731,851.219 385.919,855.733 386.113,860.247 386.312,864.761 386.517,869.275 386.727,873.789 386.943,878.303 387.165,882.817 387.392,887.331 387.625,891.845 387.863,896.359 388.107,900.873 388.356,905.387 388.611,909.901 388.871,914.415 389.137,918.93 389.409,923.444 " />
</g>
<g>
<polyline fill="none" stroke="#7f7fff" points="473.028,489.544 471.649,493.796 470.301,498.048 468.983,502.299 467.697,506.551 466.44,510.803 465.214,515.054 464.018,519.306 462.852,523.557 461.716,527.809 460.61,532.061 459.532,536.312 458.485,540.564 457.466,544.816 456.476,549.067 455.516,553.319 454.584,557.57 453.681,561.822 452.806,566.074 451.96,570.325 451.142,574.577 450.352,578.829 449.591,583.08 448.857,587.332 448.151,591.583 447.474,595.835 446.824,600.087 446.201,604.338 445.606,608.59 445.039,612.842 444.5,617.093 443.987,621.345 443.502,625.597 443.044,629.848 442.614,634.1 442.21,638.351 441.834,642.603 441.485,646.855 441.163,651.106 440.867,655.358 440.599,659.61 440.358,663.861 440.143,668.113 439.956,672.364 439.795,676.616 439.661,680.868 439.554,685.119 439.474,689.371 439.42,693.623 439.393,697.874 439.393,702.126 439.42,706.377 439.474,710.629 439.554,714.881 439.661,719.132 439.795,723.384 439.956,727.636 440.143,731.887 440.358,736.139 440.599,740.39 440.867,744.642 441.163,748.894 441.485,753.145 441.834,757.397 442.21,761.649 442.614,765.9 443.044,770.152 443.502,774.403 443.987,778.655 444.5,782.907 445.039,787.158 445.606,791.41 446.201,795.662 446.824,799.913 447.474,804.165 448.151,808.417 448.857,812.668 449.591,816.92 450.352,821.171 451.142,825.423 451.96,829.675 452.806,833.926 453.681,838.178 454.584,842.43 455.516,846.681 456.476,850.933 457.466,855.184 458.485,859.436 459.532,863.688 460.61,867.939 461.716,872.191 462.852,876.443 464.018,880.694 465.214,884.946 466.44,889.197 467.697,893.449 468.983,897.701 470.301,901.952 471.649,906.204 473.028,910.456 " />
<line x1="522.062" y1="489.544" x2="522.062" y2="504.797"  stroke="#7f7fff" />
<line x1="473.028" y1="489.544" x2="522.062" y2="489.544"  stroke="#7f7fff" />
<line x1="522.062" y1="910.456" x2="522.062" y2="895.203"  stroke="#7f7fff" />
<line x1="473.028" y1="910.456" x2="522.062" y2="910.456"  stroke="#7f7fff" />
<polyline fill="none" stroke="#7f7fff" points="522.062,504.797 519.354,508.74 516.727,512.684 514.178,516.627 511.704,520.571 509.305,524.514 506.978,528.458 504.721,532.401 502.533,536.345 500.412,540.288 498.358,544.232 496.368,548.175 494.442,552.119 492.577,556.062 490.774,560.006 489.031,563.949 487.347,567.893 485.721,571.836 484.152,575.78 482.64,579.723 481.183,583.667 479.781,587.61 478.433,591.554 477.139,595.497 475.897,599.441 474.708,603.384 473.57,607.328 472.483,611.271 471.447,615.215 470.461,619.158 469.525,623.102 468.638,627.045 467.799,630.989 467.01,634.932 466.268,638.876 465.574,642.819 464.928,646.763 464.329,650.706 463.777,654.65 463.272,658.593 462.813,662.537 462.401,666.48 462.035,670.424 461.715,674.367 461.441,678.311 461.213,682.254 461.031,686.198 460.894,690.141 460.803,694.085 460.757,698.028 460.757,701.972 460.803,705.915 460.894,709.859 461.031,713.802 461.213,717.746 461.441,721.689 461.715,725.633 462.035,729.576 462.401,733.52 462.813,737.463 463.272,741.407 463.777,745.35 464.329,749.294 464.928,753.237 465.574,757.181 466.268,761.124 467.01,765.068 467.799,769.011 468.638,772.955 469.525,776.898 470.461,780.842 471.447,784.785 472.483,788.729 473.57,792.672 474.708,796.616 475.897,800.559 477.139,804.503 478.433,808.446 479.781,812.39 481.183,816.333 482.64,820.277 484.152,824.22 485.721,828.164 487.347,832.107 489.031,836.051 490.774,839.994 492.577,843.938 494.442,847.881 496.368,851.825 498.358,855.768 500.412,859.712 502.533,863.655 504.721,867.599 506.978,871.542 509.305,875.486 511.704,879.429 514.178,883.373 516.727,887.316 519.354,891.26 522.062,895.203 " />
<line x1="522.062" y1="504.797" x2="540.605" y2="504.797"  stroke="#7f7fff" />
<line x1="522.062" y1="895.203" x2="540.605" y2="895.203"  stroke="#7f7fff" />
<polyline fill="none" stroke="#7f7fff" points="540.605,504.797 540.419,508.74 540.236,512.684 540.057,516.627 539.882,520.571 539.711,524.514 539.543,528.458 539.38,532.401 539.22,536.345 539.064,540.288 538.912,544.232 538.763,548.175 538.619,552.119 538.478,556.062 538.341,560.006 538.208,563.949 538.079,567.893 537.953,571.836 537.831,575.78 537.714,579.723 537.599,583.667 537.489,587.61 537.383,591.554 537.28,595.497 537.181,599.441 537.086,603.384 536.995,607.328 536.907,611.271 536.824,615.215 536.744,619.158 536.668,623.102 536.596,627.045 536.527,630.989 536.462,634.932 536.402,638.876 536.345,642.819 536.291,646.763 536.242,650.706 536.196,654.65 536.154,658.593 536.116,662.537 536.082,666.48 536.052,670.424 536.025,674.367 536.002,678.311 535.983,682.254 535.968,686.198 535.957,690.141 535.949,694.085 535.945,698.028 535.945,701.972 535.949,705.915 535.957,709.859 535.968,713.802 535.983,717.746 536.002,721.689 536.025,725.633 536.052,729.576 536.082,733.52 536.116,737.463 536.154,741.407 536.196,745.35 536.242,749.294 536.291,753.237 536.345,757.181 536.402,761.124 536.462,765.068 536.527,769.011 536.596,772.955 536.668,776.898 536.744,780.842 536.824,784.785 536.907,788.729 536.995,792.672 537.086,796.616 537.181,800.559 537.28,804.503 537.383,808.446 537.489,812.39 537.599,816.333 537.714,820.277 537.831,824.22 537.953,828.164 538.079,832.107 538.208,836.051 538.341,839.994 538.478,843.938 538.619,847.881 538.763,851.825 538.912,855.768 539.064,859.712 539.22,863.655 539.38,867.599 539.543,871.542 539.711,875.486 539.882,879.429 540.057,883.373 540.236,887.316 540.419,891.26 540.605,895.203 " />
</g>
<g>
<polyline fill="none" stroke="#7f7fff" points="588.181,533.165 587.848,536.535 587.521,539.906 587.202,543.276 586.889,546.647 586.583,550.017 586.284,553.387 585.992,556.758 585.707,560.128 585.428,563.499 585.157,566.869 584.892,570.239 584.634,573.61 584.383,576.98 584.139,580.351 583.901,583.721 583.671,587.091 583.447,590.462 583.23,593.832 583.02,597.203 582.816,600.573 582.62,603.943 582.43,607.314 582.247,610.684 582.071,614.055 581.901,617.425 581.739,620.796 581.583,624.166 581.434,627.536 581.291,630.907 581.156,634.277 581.027,637.648 580.905,641.018 580.79,644.388 580.682,647.759 580.58,651.129 580.486,654.5 580.398,657.87 580.316,661.24 580.242,664.611 580.174,667.981 580.113,671.352 580.059,674.722 580.012,678.092 579.971,681.463 579.937,684.833 579.91,688.204 579.89,691.574 579.876,694.944 579.87,698.315 579.87,701.685 579.876,705.056 579.89,708.426 579.91,711.796 579.937,715.167 579.971,718.537 580.012,721.908 580.059,725.278 580.113,728.648 580.174,732.019 580.242,735.389 580.316,738.76 580.398,742.13 580.486,745.5 580.58,748.871 580.682,752.241 580.79,755.612 580.905,758.982 581.027,762.352 581.156,765.723 581.291,769.093 581.434,772.464 581.583,775.834 581.739,779.204 581.901,782.575 582.071,785.945 582.247,789.316 582.43,792.686 582.62,796.057 582.816,799.427 583.02,802.797 583.23,806.168 583.447,809.538 583.671,812.909 583.901,816.279 584.139,819.649 584.383,823.02 584.634,826.39 584.892,829.761 585.157,833.131 585.428,836.501 585.707,839.872 585.992,843.242 586.284,846.613 586.583,849.983 586.889,853.353 587.202,856.724 587.521,860.094 587.848,863.465 588.181,866.835 " />
<line x1="646.211" y1="533.165" x2="646.211" y2="544.914"  stroke="#7f7fff" />
<line x1="588.181" y1="533.165" x2="646.211" y2="533.165"  stroke="#7f7fff" />
<line x1="646.211" y1="866.835" x2="646.211" y2="855.086"  stroke="#7f7fff" />
<line x1="588.181" y1="866.835" x2="646.211" y2="866.835"  stroke="#7f7fff" />
<polyline fill="none" stroke="#7f7fff" points="646.211,544.914 644.031,548.047 641.916,551.18 639.864,554.313 637.874,557.446 635.944,560.579 634.072,563.712 632.257,566.845 630.498,569.978 628.793,573.111 627.142,576.244 625.543,579.378 623.995,582.511 622.498,585.644 621.049,588.777 619.649,591.91 618.297,595.043 616.991,598.176 615.732,601.309 614.517,604.442 613.348,607.575 612.223,610.708 611.141,613.841 610.102,616.974 609.106,620.107 608.151,623.24 607.238,626.373 606.367,629.506 605.535,632.639 604.744,635.772 603.993,638.906 603.282,642.039 602.609,645.172 601.976,648.305 601.381,651.438 600.825,654.571 600.307,657.704 599.826,660.837 599.384,663.97 598.979,667.103 598.611,670.236 598.281,673.369 597.987,676.502 597.731,679.635 597.511,682.768 597.328,685.901 597.182,689.034 597.072,692.167 596.999,695.3 596.963,698.433 596.963,701.567 596.999,704.7 597.072,707.833 597.182,710.966 597.328,714.099 597.511,717.232 597.731,720.365 597.987,723.498 598.281,726.631 598.611,729.764 598.979,732.897 599.384,736.03 599.826,739.163 600.307,742.296 600.825,745.429 601.381,748.562 601.976,751.695 602.609,754.828 603.282,757.961 603.993,761.094 604.744,764.228 605.535,767.361 606.367,770.494 607.238,773.627 608.151,776.76 609.106,779.893 610.102,783.026 611.141,786.159 612.223,789.292 613.348,792.425 614.517,795.558 615.732,798.691 616.991,801.824 618.297,804.957 619.649,808.09 621.049,811.223 622.498,814.356 623.995,817.489 625.543,820.622 627.142,823.756 628.793,826.889 630.498,830.022 632.257,833.155 634.072,836.288 635.944,839.421 637.874,842.554 639.864,845.687 641.916,848.82 644.031,851.953 646.211,855.086 " />
<line x1="659.64" y1="544.914" x2="659.64" y2="555.552"  stroke="#7f7fff" />
<line x1="646.211" y1="544.914" x2="659.64" y2="544.914"  stroke="#7f7fff" />
<line x1="659.64" y1="855.086" x2="659.64" y2="844.448"  stroke="#7f7fff" />
<line x1="646.211" y1="855.086" x2="659.64" y2="855.086"  stroke="#7f7fff" />
<polyline fill="none" stroke="#7f7fff" points="659.64,555.552 658.827,558.47 658.031,561.388 657.254,564.307 656.494,567.225 655.752,570.143 655.027,573.061 654.32,575.979 653.63,578.897 652.957,581.815 652.302,584.733 651.664,587.652 651.042,590.57 650.438,593.488 649.851,596.406 649.281,599.324 648.728,602.242 648.192,605.16 647.672,608.079 647.169,610.997 646.683,613.915 646.214,616.833 645.761,619.751 645.324,622.669 644.904,625.587 644.501,628.506 644.114,631.424 643.743,634.342 643.389,637.26 643.051,640.178 642.729,643.096 642.424,646.014 642.135,648.933 641.862,651.851 641.605,654.769 641.365,657.687 641.14,660.605 640.932,663.523 640.74,666.441 640.563,669.36 640.403,672.278 640.259,675.196 640.131,678.114 640.019,681.032 639.923,683.95 639.843,686.868 639.779,689.787 639.731,692.705 639.699,695.623 639.683,698.541 639.683,701.459 639.699,704.377 639.731,707.295 639.779,710.213 639.843,713.132 639.923,716.05 640.019,718.968 640.131,721.886 640.259,724.804 640.403,727.722 640.563,730.64 640.74,733.559 640.932,736.477 641.14,739.395 641.365,742.313 641.605,745.231 641.862,748.149 642.135,751.067 642.424,753.986 642.729,756.904 643.051,759.822 643.389,762.74 643.743,765.658 644.114,768.576 644.501,771.494 644.904,774.413 645.324,777.331 645.761,780.249 646.214,783.167 646.683,786.085 647.169,789.003 647.672,791.921 648.192,794.84 648.728,797.758 649.281,800.676 649.851,803.594 650.438,806.512 651.042,809.43 651.664,812.348 652.302,815.267 652.957,818.185 653.63,821.103 654.32,824.021 655.027,826.939 655.752,829.857 656.494,832.775 657.254,835.693 658.031,838.612 658.827,841.53 659.64,844.448 " />
</g>
<g>
<polyline fill="none" stroke="#7f7fff" points="659.661,555.552 660.13,558.47 660.588,561.388 661.037,564.307 661.476,567.225 661.905,570.143 662.324,573.061 662.734,575.979 663.134,578.897 663.525,581.815 663.905,584.733 664.276,587.652 664.637,590.57 664.989,593.488 665.331,596.406 665.664,599.324 665.986,602.242 666.3,605.16 666.603,608.079 666.897,610.997 667.182,613.915 667.456,616.833 667.722,619.751 667.977,622.669 668.224,625.587 668.46,628.506 668.688,631.424 668.905,634.342 669.113,637.26 669.312,640.178 669.501,643.096 669.681,646.014 669.851,648.933 670.011,651.851 670.163,654.769 670.304,657.687 670.437,660.605 670.559,663.523 670.673,666.441 670.777,669.36 670.871,672.278 670.956,675.196 671.031,678.114 671.097,681.032 671.154,683.95 671.201,686.868 671.239,689.787 671.267,692.705 671.286,695.623 671.296,698.541 671.296,701.459 671.286,704.377 671.267,707.295 671.239,710.213 671.201,713.132 671.154,716.05 671.097,718.968 671.031,721.886 670.956,724.804 670.871,727.722 670.777,730.64 670.673,733.559 670.559,736.477 670.437,739.395 670.304,742.313 670.163,745.231 670.011,748.149 669.851,751.067 669.681,753.986 669.501,756.904 669.312,759.822 669.113,762.74 668.905,765.658 668.688,768.576 668.46,771.494 668.224,774.413 667.977,777.331 667.722,780.249 667.456,783.167 667.182,786.085 666.897,789.003 666.603,791.921 666.3,794.84 665.986,797.758 665.664,800.676 665.331,803.594 664.989,806.512 664.637,809.43 664.276,812.348 663.905,815.267 663.525,818.185 663.134,821.103 662.734,824.021 662.324,826.939 661.905,829.857 661.476,832.775 661.037,835.693 660.588,838.612 660.13,841.53 659.661,844.448 " />
<line x1="685.477" y1="555.552" x2="685.477" y2="559.483"  stroke="#7f7fff" />
<line x1="659.661" y1="555.552" x2="685.477" y2="555.552"  stroke="#7f7fff" />
<line x1="685.477" y1="844.448" x2="685.477" y2="840.517"  stroke="#7f7fff" />
<line x1="659.661" y1="844.448" x2="685.477" y2="844.448"  stroke="#7f7fff" />
<polyline fill="none" stroke="#7f7fff" points="685.477,559.483 686.293,562.321 687.091,565.16 687.87,567.999 688.632,570.838 689.377,573.676 690.103,576.515 690.813,579.354 691.504,582.193 692.178,585.031 692.835,587.87 693.475,590.709 694.097,593.547 694.703,596.386 695.291,599.225 695.862,602.064 696.416,604.902 696.954,607.741 697.474,610.58 697.978,613.419 698.465,616.257 698.935,619.096 699.389,621.935 699.826,624.774 700.247,627.612 700.651,630.451 701.038,633.29 701.409,636.128 701.764,638.967 702.102,641.806 702.424,644.645 702.73,647.483 703.02,650.322 703.293,653.161 703.55,656 703.791,658.838 704.016,661.677 704.224,664.516 704.416,667.355 704.593,670.193 704.753,673.032 704.897,675.871 705.025,678.709 705.137,681.548 705.234,684.387 705.314,687.226 705.378,690.064 705.426,692.903 705.458,695.742 705.474,698.581 705.474,701.419 705.458,704.258 705.426,707.097 705.378,709.936 705.314,712.774 705.234,715.613 705.137,718.452 705.025,721.291 704.897,724.129 704.753,726.968 704.593,729.807 704.416,732.645 704.224,735.484 704.016,738.323 703.791,741.162 703.55,744 703.293,746.839 703.02,749.678 702.73,752.517 702.424,755.355 702.102,758.194 701.764,761.033 701.409,763.872 701.038,766.71 700.651,769.549 700.247,772.388 699.826,775.226 699.389,778.065 698.935,780.904 698.465,783.743 697.978,786.581 697.474,789.42 696.954,792.259 696.416,795.098 695.862,797.936 695.291,800.775 694.703,803.614 694.097,806.453 693.475,809.291 692.835,812.13 692.178,814.969 691.504,817.807 690.813,820.646 690.103,823.485 689.377,826.324 688.632,829.162 687.87,832.001 687.091,834.84 686.293,837.679 685.477,840.517 " />
<line x1="685.477" y1="559.483" x2="746.764" y2="559.483"  stroke="#7f7fff" />
<line x1="685.477" y1="840.517" x2="746.764" y2="840.517"  stroke="#7f7fff" />
<polyline fill="none" stroke="#7f7fff" points="746.764,559.483 745.767,562.321 744.794,565.16 743.843,567.999 742.915,570.838 742.009,573.676 741.124,576.515 740.262,579.354 739.422,582.193 738.604,585.031 737.807,587.87 737.031,590.709 736.277,593.547 735.544,596.386 734.832,599.225 734.141,602.064 733.471,604.902 732.821,607.741 732.192,610.58 731.584,613.419 730.997,616.257 730.429,619.096 729.882,621.935 729.355,624.774 728.849,627.612 728.362,630.451 727.896,633.29 727.449,636.128 727.022,638.967 726.615,641.806 726.228,644.645 725.861,647.483 725.513,650.322 725.184,653.161 724.876,656 724.586,658.838 724.317,661.677 724.066,664.516 723.835,667.355 723.624,670.193 723.431,673.032 723.259,675.871 723.105,678.709 722.97,681.548 722.855,684.387 722.759,687.226 722.682,690.064 722.625,692.903 722.587,695.742 722.567,698.581 722.567,701.419 722.587,704.258 722.625,707.097 722.682,709.936 722.759,712.774 722.855,715.613 722.97,718.452 723.105,721.291 723.259,724.129 723.431,726.968 723.624,729.807 723.835,732.645 724.066,735.484 724.317,738.323 724.586,741.162 724.876,744 725.184,746.839 725.513,749.678 725.861,752.517 726.228,755.355 726.615,758.194 727.022,761.033 727.449,763.872 727.896,766.71 728.362,769.549 728.849,772.388 729.355,775.226 729.882,778.065 730.429,780.904 730.997,783.743 731.584,786.581 732.192,789.42 732.821,792.259 733.471,795.098 734.141,797.936 734.832,800.775 735.544,803.614 736.277,806.453 737.031,809.291 737.807,812.13 738.604,814.969 739.422,817.807 740.262,820.646 741.124,823.485 742.009,826.324 742.915,829.162 743.843,832.001 744.794,834.84 745.767,837.679 746.764,840.517 " />
</g>
<g>
<polyline fill="none" stroke="#7f7fff" points="1109.046,563.584 1109.01,566.34 1108.975,569.096 1108.94,571.852 1108.906,574.608 1108.873,577.363 1108.841,580.119 1108.809,582.875 1108.778,585.631 1108.748,588.387 1108.718,591.143 1108.69,593.899 1108.662,596.655 1108.634,599.41 1108.608,602.166 1108.582,604.922 1108.557,607.678 1108.533,610.434 1108.509,613.19 1108.486,615.946 1108.464,618.702 1108.443,621.458 1108.422,624.213 1108.402,626.969 1108.383,629.725 1108.365,632.481 1108.347,635.237 1108.33,637.993 1108.314,640.749 1108.298,643.505 1108.284,646.26 1108.27,649.016 1108.256,651.772 1108.244,654.528 1108.232,657.284 1108.221,660.04 1108.211,662.796 1108.201,665.552 1108.192,668.307 1108.184,671.063 1108.177,673.819 1108.17,676.575 1108.164,679.331 1108.159,682.087 1108.155,684.843 1108.151,687.599 1108.148,690.354 1108.146,693.11 1108.144,695.866 1108.144,698.622 1108.144,701.378 1108.144,704.134 1108.146,706.89 1108.148,709.646 1108.151,712.401 1108.155,715.157 1108.159,717.913 1108.164,720.669 1108.17,723.425 1108.177,726.181 1108.184,728.937 1108.192,731.693 1108.201,734.448 1108.211,737.204 1108.221,739.96 1108.232,742.716 1108.244,745.472 1108.256,748.228 1108.27,750.984 1108.284,753.74 1108.298,756.495 1108.314,759.251 1108.33,762.007 1108.347,764.763 1108.365,767.519 1108.383,770.275 1108.402,773.031 1108.422,775.787 1108.443,778.542 1108.464,781.298 1108.486,784.054 1108.509,786.81 1108.533,789.566 1108.557,792.322 1108.582,795.078 1108.608,797.834 1108.634,800.59 1108.662,803.345 1108.69,806.101 1108.718,808.857 1108.748,811.613 1108.778,814.369 1108.809,817.125 1108.841,819.881 1108.873,822.637 1108.906,825.392 1108.94,828.148 1108.975,830.904 1109.01,833.66 1109.046,836.416 " />
<line x1="1109.046" y1="563.584" x2="1141.089" y2="563.584"  stroke="#7f7fff" />
<line x1="1109.046" y1="836.416" x2="1141.089" y2="836.416"  stroke="#7f7fff" />
<polyline fill="none" stroke="#7f7fff" points="1141.089,563.584 1140.446,566.34 1139.818,569.096 1139.203,571.852 1138.601,574.608 1138.014,577.363 1137.44,580.119 1136.88,582.875 1136.333,585.631 1135.799,588.387 1135.28,591.143 1134.773,593.899 1134.28,596.655 1133.801,599.41 1133.335,602.166 1132.882,604.922 1132.442,607.678 1132.016,610.434 1131.602,613.19 1131.202,615.946 1130.816,618.702 1130.442,621.458 1130.081,624.213 1129.734,626.969 1129.399,629.725 1129.078,632.481 1128.769,635.237 1128.474,637.993 1128.192,640.749 1127.922,643.505 1127.666,646.26 1127.422,649.016 1127.191,651.772 1126.974,654.528 1126.769,657.284 1126.577,660.04 1126.398,662.796 1126.231,665.552 1126.078,668.307 1125.937,671.063 1125.809,673.819 1125.694,676.575 1125.592,679.331 1125.503,682.087 1125.426,684.843 1125.362,687.599 1125.311,690.354 1125.273,693.11 1125.247,695.866 1125.234,698.622 1125.234,701.378 1125.247,704.134 1125.273,706.89 1125.311,709.646 1125.362,712.401 1125.426,715.157 1125.503,717.913 1125.592,720.669 1125.694,723.425 1125.809,726.181 1125.937,728.937 1126.078,731.693 1126.231,734.448 1126.398,737.204 1126.577,739.96 1126.769,742.716 1126.974,745.472 1127.191,748.228 1127.422,750.984 1127.666,753.74 1127.922,756.495 1128.192,759.251 1128.474,762.007 1128.769,764.763 1129.078,767.519 1129.399,770.275 1129.734,773.031 1130.081,775.787 1130.442,778.542 1130.816,781.298 1131.202,784.054 1131.602,786.81 1132.016,789.566 1132.442,792.322 1132.882,795.078 1133.335,797.834 1133.801,800.59 1134.28,803.345 1134.773,806.101 1135.28,808.857 1135.799,811.613 1136.333,814.369 1136.88,817.125 1137.44,819.881 1138.014,822.637 1138.601,825.392 1139.203,828.148 1139.818,830.904 1140.446,833.66 1141.089,836.416 " />
<line x1="1141.089" y1="563.584" x2="1157.751" y2="563.584"  stroke="#7f7fff" />
<line x1="1141.089" y1="836.416" x2="1157.751" y2="836.416"  stroke="#7f7fff" />
<polyline fill="none" stroke="#7f7fff" points="1157.751,563.584 1158.514,566.34 1159.261,569.096 1159.992,571.852 1160.706,574.608 1161.403,577.363 1162.084,580.119 1162.748,582.875 1163.396,585.631 1164.028,588.387 1164.644,591.143 1165.243,593.899 1165.827,596.655 1166.394,599.41 1166.946,602.166 1167.481,604.922 1168.001,607.678 1168.505,610.434 1168.993,613.19 1169.465,615.946 1169.922,618.702 1170.363,621.458 1170.789,624.213 1171.199,626.969 1171.593,629.725 1171.973,632.481 1172.336,635.237 1172.684,637.993 1173.017,640.749 1173.335,643.505 1173.637,646.26 1173.924,649.016 1174.196,651.772 1174.452,654.528 1174.693,657.284 1174.919,660.04 1175.13,662.796 1175.326,665.552 1175.507,668.307 1175.672,671.063 1175.823,673.819 1175.958,676.575 1176.078,679.331 1176.184,682.087 1176.274,684.843 1176.349,687.599 1176.409,690.354 1176.454,693.11 1176.484,695.866 1176.499,698.622 1176.499,701.378 1176.484,704.134 1176.454,706.89 1176.409,709.646 1176.349,712.401 1176.274,715.157 1176.184,717.913 1176.078,720.669 1175.958,723.425 1175.823,726.181 1175.672,728.937 1175.507,731.693 1175.326,734.448 1175.13,737.204 1174.919,739.96 1174.693,742.716 1174.452,745.472 1174.196,748.228 1173.924,750.984 1173.637,753.74 1173.335,756.495 1173.017,759.251 1172.684,762.007 1172.336,764.763 1171.973,767.519 1171.593,770.275 1171.199,773.031 1170.789,775.787 1170.363,778.542 1169.922,781.298 1169.465,784.054 1168.993,786.81 1168.505,789.566 1168.001,792.322 1167.481,795.078 1166.946,797.834 1166.394,800.59 1165.827,803.345 1165.243,806.101 1164.644,808.857 1164.028,811.613 1163.396,814.369 1162.748,817.125 1162.084,819.881 1161.403,822.637 1160.706,825.392 1159.992,828.148 1159.261,830.904 1158.514,833.66 1157.751,836.416 " />
</g>
<g>
<polyline fill="none" stroke="#7f7fff" points="1561.316,575.888 1561.822,578.396 1562.316,580.903 1562.8,583.41 1563.274,585.918 1563.736,588.425 1564.188,590.932 1564.63,593.44 1565.061,595.947 1565.481,598.454 1565.891,600.961 1566.29,603.469 1566.679,605.976 1567.057,608.483 1567.425,610.991 1567.782,613.498 1568.129,616.005 1568.466,618.513 1568.792,621.02 1569.108,623.527 1569.414,626.035 1569.709,628.542 1569.994,631.049 1570.269,633.556 1570.533,636.064 1570.787,638.571 1571.031,641.078 1571.264,643.586 1571.488,646.093 1571.701,648.6 1571.904,651.108 1572.096,653.615 1572.279,656.122 1572.451,658.629 1572.613,661.137 1572.765,663.644 1572.907,666.151 1573.038,668.659 1573.16,671.166 1573.271,673.673 1573.372,676.181 1573.464,678.688 1573.544,681.195 1573.615,683.703 1573.676,686.21 1573.726,688.717 1573.767,691.224 1573.797,693.732 1573.817,696.239 1573.828,698.746 1573.828,701.254 1573.817,703.761 1573.797,706.268 1573.767,708.776 1573.726,711.283 1573.676,713.79 1573.615,716.297 1573.544,718.805 1573.464,721.312 1573.372,723.819 1573.271,726.327 1573.16,728.834 1573.038,731.341 1572.907,733.849 1572.765,736.356 1572.613,738.863 1572.451,741.371 1572.279,743.878 1572.096,746.385 1571.904,748.892 1571.701,751.4 1571.488,753.907 1571.264,756.414 1571.031,758.922 1570.787,761.429 1570.533,763.936 1570.269,766.444 1569.994,768.951 1569.709,771.458 1569.414,773.965 1569.108,776.473 1568.792,778.98 1568.466,781.487 1568.129,783.995 1567.782,786.502 1567.425,789.009 1567.057,791.517 1566.679,794.024 1566.29,796.531 1565.891,799.039 1565.481,801.546 1565.061,804.053 1564.63,806.56 1564.188,809.068 1563.736,811.575 1563.274,814.082 1562.8,816.59 1562.316,819.097 1561.822,821.604 1561.316,824.112 " />
<line x1="1561.316" y1="575.888" x2="1593.123" y2="575.888"  stroke="#7f7fff" />
<line x1="1561.316" y1="824.112" x2="1593.123" y2="824.112"  stroke="#7f7fff" />
<polyline fill="none" stroke="#7f7fff" points="1593.123,575.888 1593.206,578.396 1593.287,580.903 1593.366,583.41 1593.444,585.918 1593.52,588.425 1593.594,590.932 1593.667,593.44 1593.738,595.947 1593.807,598.454 1593.874,600.961 1593.94,603.469 1594.004,605.976 1594.067,608.483 1594.127,610.991 1594.187,613.498 1594.244,616.005 1594.3,618.513 1594.354,621.02 1594.406,623.527 1594.456,626.035 1594.505,628.542 1594.553,631.049 1594.598,633.556 1594.642,636.064 1594.684,638.571 1594.725,641.078 1594.764,643.586 1594.801,646.093 1594.836,648.6 1594.87,651.108 1594.902,653.615 1594.932,656.122 1594.961,658.629 1594.988,661.137 1595.013,663.644 1595.037,666.151 1595.059,668.659 1595.079,671.166 1595.098,673.673 1595.114,676.181 1595.13,678.688 1595.143,681.195 1595.155,683.703 1595.165,686.21 1595.173,688.717 1595.18,691.224 1595.185,693.732 1595.189,696.239 1595.19,698.746 1595.19,701.254 1595.189,703.761 1595.185,706.268 1595.18,708.776 1595.173,711.283 1595.165,713.79 1595.155,716.297 1595.143,718.805 1595.13,721.312 1595.114,723.819 1595.098,726.327 1595.079,728.834 1595.059,731.341 1595.037,733.849 1595.013,736.356 1594.988,738.863 1594.961,741.371 1594.932,743.878 1594.902,746.385 1594.87,748.892 1594.836,751.4 1594.801,753.907 1594.764,756.414 1594.725,758.922 1594.684,761.429 1594.642,763.936 1594.598,766.444 1594.553,768.951 1594.505,771.458 1594.456,773.965 1594.406,776.473 1594.354,778.98 1594.3,781.487 1594.244,783.995 1594.187,786.502 1594.127,789.009 1594.067,791.517 1594.004,794.024 1593.94,796.531 1593.874,799.039 1593.807,801.546 1593.738,804.053 1593.667,806.56 1593.594,809.068 1593.52,811.575 1593.444,814.082 1593.366,816.59 1593.287,819.097 1593.206,821.604 1593.123,824.112 " />
</g>
<g>
<polyline fill="none" stroke="#7f7fff" points="1611.976,559.824 1611.437,562.656 1610.909,565.488 1610.392,568.32 1609.887,571.152 1609.393,573.984 1608.911,576.815 1608.439,579.647 1607.979,582.479 1607.53,585.311 1607.093,588.143 1606.666,590.975 1606.251,593.806 1605.847,596.638 1605.454,599.47 1605.072,602.302 1604.701,605.134 1604.341,607.966 1603.993,610.797 1603.655,613.629 1603.329,616.461 1603.013,619.293 1602.708,622.125 1602.415,624.957 1602.132,627.788 1601.861,630.62 1601.6,633.452 1601.351,636.284 1601.112,639.116 1600.884,641.947 1600.667,644.779 1600.461,647.611 1600.266,650.443 1600.082,653.275 1599.909,656.107 1599.746,658.938 1599.594,661.77 1599.454,664.602 1599.324,667.434 1599.205,670.266 1599.097,673.098 1598.999,675.929 1598.913,678.761 1598.837,681.593 1598.772,684.425 1598.718,687.257 1598.675,690.089 1598.642,692.92 1598.621,695.752 1598.61,698.584 1598.61,701.416 1598.621,704.248 1598.642,707.08 1598.675,709.911 1598.718,712.743 1598.772,715.575 1598.837,718.407 1598.913,721.239 1598.999,724.071 1599.097,726.902 1599.205,729.734 1599.324,732.566 1599.454,735.398 1599.594,738.23 1599.746,741.062 1599.909,743.893 1600.082,746.725 1600.266,749.557 1600.461,752.389 1600.667,755.221 1600.884,758.053 1601.112,760.884 1601.351,763.716 1601.6,766.548 1601.861,769.38 1602.132,772.212 1602.415,775.043 1602.708,777.875 1603.013,780.707 1603.329,783.539 1603.655,786.371 1603.993,789.203 1604.341,792.034 1604.701,794.866 1605.072,797.698 1605.454,800.53 1605.847,803.362 1606.251,806.194 1606.666,809.025 1607.093,811.857 1607.53,814.689 1607.979,817.521 1608.439,820.353 1608.911,823.185 1609.393,826.016 1609.887,828.848 1610.392,831.68 1610.909,834.512 1611.437,837.344 1611.976,840.176 " />
<line x1="1611.976" y1="559.824" x2="1651.315" y2="559.824"  stroke="#7f7fff" />
<line x1="1611.976" y1="840.176" x2="1651.315" y2="840.176"  stroke="#7f7fff" />
<polyline fill="none" stroke="#7f7fff" points="1651.315,559.824 1651.258,562.656 1651.201,565.488 1651.146,568.32 1651.092,571.152 1651.039,573.984 1650.987,576.815 1650.937,579.647 1650.888,582.479 1650.839,585.311 1650.793,588.143 1650.747,590.975 1650.702,593.806 1650.659,596.638 1650.616,599.47 1650.575,602.302 1650.535,605.134 1650.497,607.966 1650.459,610.797 1650.423,613.629 1650.387,616.461 1650.353,619.293 1650.321,622.125 1650.289,624.957 1650.258,627.788 1650.229,630.62 1650.201,633.452 1650.174,636.284 1650.148,639.116 1650.123,641.947 1650.1,644.779 1650.077,647.611 1650.056,650.443 1650.036,653.275 1650.018,656.107 1650,658.938 1649.984,661.77 1649.968,664.602 1649.954,667.434 1649.941,670.266 1649.93,673.098 1649.919,675.929 1649.91,678.761 1649.901,681.593 1649.894,684.425 1649.888,687.257 1649.884,690.089 1649.88,692.92 1649.878,695.752 1649.877,698.584 1649.877,701.416 1649.878,704.248 1649.88,707.08 1649.884,709.911 1649.888,712.743 1649.894,715.575 1649.901,718.407 1649.91,721.239 1649.919,724.071 1649.93,726.902 1649.941,729.734 1649.954,732.566 1649.968,735.398 1649.984,738.23 1650,741.062 1650.018,743.893 1650.036,746.725 1650.056,749.557 1650.077,752.389 1650.1,755.221 1650.123,758.053 1650.148,760.884 1650.174,763.716 1650.201,766.548 1650.229,769.38 1650.258,772.212 1650.289,775.043 1650.321,777.875 1650.353,780.707 1650.387,783.539 1650.423,786.371 1650.459,789.203 1650.497,792.034 1650.535,794.866 1650.575,797.698 1650.616,800.53 1650.659,803.362 1650.702,806.194 1650.747,809.025 1650.793,811.857 1650.839,814.689 1650.888,817.521 1650.937,820.353 1650.987,823.185 1651.039,826.016 1651.092,828.848 1651.146,831.68 1651.201,834.512 1651.258,837.344 1651.315,840.176 " />
</g>
</g>
<g><title>element</title>
<polyline fill="none" stroke="#7f7fff" points="2152.381,330.87 2152.381,338.327 2152.381,345.784 2152.381,353.241 2152.381,360.698 2152.381,368.155 2152.381,375.613 2152.381,383.07 2152.381,390.527 2152.381,397.984 2152.381,405.441 2152.381,412.899 2152.381,420.356 2152.381,427.813 2152.381,435.27 2152.381,442.727 2152.381,450.184 2152.381,457.642 2152.381,465.099 2152.381,472.556 2152.381,480.013 2152.381,487.47 2152.381,494.928 2152.381,502.385 2152.381,509.842 2152.381,517.299 2152.381,524.756 2152.381,532.213 2152.381,539.671 2152.381,547.128 2152.381,554.585 2152.381,562.042 2152.381,569.499 2152.381,576.957 2152.381,584.414 2152.381,591.871 2152.381,599.328 2152.381,606.785 2152.381,614.242 2152.381,621.7 2152.381,629.157 2152.381,636.614 2152.381,644.071 2152.381,651.528 2152.381,658.986 2152.381,666.443 2152.381,673.9 2152.381,681.357 2152.381,688.814 2152.381,696.271 2152.381,703.729 2152.381,711.186 2152.381,718.643 2152.381,726.1 2152.381,733.557 2152.381,741.014 2152.381,748.472 2152.381,755.929 2152.381,763.386 2152.381,770.843 2152.381,778.3 2152.381,785.758 2152.381,793.215 2152.381,800.672 2152.381,808.129 2152.381,815.586 2152.381,823.043 2152.381,830.501 2152.381,837.958 2152.381,845.415 2152.381,852.872 2152.381,860.329 2152.381,867.787 2152.381,875.244 2152.381,882.701 2152.381,890.158 2152.381,897.615 2152.381,905.072 2152.381,912.53 2152.381,919.987 2152.381,927.444 2152.381,934.901 2152.381,942.358 2152.381,949.816 2152.381,957.273 2152.381,964.73 2152.381,972.187 2152.381,979.644 2152.381,987.101 2152.381,994.559 2152.381,1002.016 2152.381,1009.473 2152.381,1016.93 2152.381,1024.387 2152.381,1031.845 2152.381,1039.302 2152.381,1046.759 2152.381,1054.216 2152.381,1061.673 2152.381,1069.13 " />
</g>
</svg>
