<?xml version="1.0" standalone="no"?>
<svg width="2400px" height="1400px" version="1.1" xmlns="http://www.w3.org/2000/svg" xmlns:xlink="http://www.w3.org/1999/xlink">
<rect x="0" y="0" width="2400" height="1400"  fill="#ffffff" />
<defs>
<g id="dot">
<line x1="1" y1="1" x2="0" y2="0"  />
</g>
<g id="cross">
<line x1="-3" y1="0" x2="3" y2="0"  />
<line x1="0" y1="-3" x2="0" y2="3"  />
</g>
<g id="square">
<line x1="-3" y1="-3" x2="-3" y2="3"  />
<line x1="-3" y1="3" x2="3" y2="3"  />
<line x1="3" y1="3" x2="3" y2="-3"  />
<line x1="3" y1="-3" x2="-3" y2="-3"  />
</g>
<g id="round">
<ellipse cx="0" cy="0" rx="3" ry="3"  fill="none" /></g>
<g id="triangle">
<line x1="0" y1="-3" x2="-3" y2="3"  />
<line x1="-3" y1="3" x2="3" y2="3"  />
<line x1="0" y1="-3" x2="3" y2="3"  />
</g>
</defs>
<line x1="593.817" y1="700" x2="1806.183" y2="700"  stroke="#7f7f7f" />
<g><title>element</title>
<g>
<line x1="916.317" y1="514.281" x2="916.317" y2="328.562"  stroke="#7f7fff" />
<line x1="916.317" y1="885.719" x2="916.317" y2="1071.438"  stroke="#7f7fff" />
</g>
<g>
<polyline fill="none" stroke="#7f7fff" points="665.67,399.074 662.63,405.153 659.667,411.233 656.78,417.312 653.968,423.391 651.229,429.471 648.564,435.55 645.97,441.629 643.446,447.709 640.993,453.788 638.609,459.867 636.293,465.947 634.045,472.026 631.864,478.105 629.749,484.184 627.7,490.264 625.715,496.343 623.795,502.422 621.939,508.502 620.145,514.581 618.414,520.66 616.746,526.74 615.139,532.819 613.593,538.898 612.108,544.978 610.683,551.057 609.318,557.136 608.013,563.215 606.767,569.295 605.58,575.374 604.451,581.453 603.381,587.533 602.368,593.612 601.413,599.691 600.516,605.771 599.676,611.85 598.892,617.929 598.166,624.009 597.496,630.088 596.883,636.167 596.325,642.247 595.824,648.326 595.379,654.405 594.99,660.484 594.657,666.564 594.379,672.643 594.157,678.722 593.99,684.802 593.879,690.881 593.824,696.96 593.824,703.04 593.879,709.119 593.99,715.198 594.157,721.278 594.379,727.357 594.657,733.436 594.99,739.516 595.379,745.595 595.824,751.674 596.325,757.753 596.883,763.833 597.496,769.912 598.166,775.991 598.892,782.071 599.676,788.15 600.516,794.229 601.413,800.309 602.368,806.388 603.381,812.467 604.451,818.547 605.58,824.626 606.767,830.705 608.013,836.785 609.318,842.864 610.683,848.943 612.108,855.022 613.593,861.102 615.139,867.181 616.746,873.26 618.414,879.34 620.145,885.419 621.939,891.498 623.795,897.578 625.715,903.657 627.7,909.736 629.749,915.816 631.864,921.895 634.045,927.974 636.293,934.053 638.609,940.133 640.993,946.212 643.446,952.291 645.97,958.371 648.564,964.45 651.229,970.529 653.968,976.609 656.78,982.688 659.667,988.767 662.63,994.847 665.67,1000.926 " />
<line x1="687.799" y1="399.074" x2="687.799" y2="412.577"  stroke="#7f7fff" />
<line x1="665.67" y1="399.074" x2="687.799" y2="399.074"  stroke="#7f7fff" />
<line x1="687.799" y1="1000.926" x2="687.799" y2="987.423"  stroke="#7f7fff" />
<line x1="665.67" y1="1000.926" x2="687.799" y2="1000.926"  stroke="#7f7fff" />
<polyline fill="none" stroke="#7f7fff" points="687.799,412.577 687.124,418.384 686.463,424.19 685.816,429.997 685.183,435.803 684.563,441.61 683.958,447.416 683.367,453.223 682.789,459.029 682.225,464.836 681.676,470.642 681.14,476.449 680.618,482.255 680.109,488.062 679.615,493.868 679.134,499.675 678.668,505.482 678.215,511.288 677.776,517.095 677.35,522.901 676.939,528.708 676.541,534.514 676.157,540.321 675.787,546.127 675.43,551.934 675.088,557.74 674.759,563.547 674.444,569.353 674.142,575.16 673.854,580.966 673.58,586.773 673.32,592.579 673.074,598.386 672.841,604.192 672.622,609.999 672.416,615.805 672.225,621.612 672.047,627.418 671.882,633.225 671.732,639.032 671.595,644.838 671.472,650.645 671.362,656.451 671.266,662.258 671.184,668.064 671.116,673.871 671.061,679.677 671.02,685.484 670.993,691.29 670.979,697.097 670.979,702.903 670.993,708.71 671.02,714.516 671.061,720.323 671.116,726.129 671.184,731.936 671.266,737.742 671.362,743.549 671.472,749.355 671.595,755.162 671.732,760.968 671.882,766.775 672.047,772.582 672.225,778.388 672.416,784.195 672.622,790.001 672.841,795.808 673.074,801.614 673.32,807.421 673.58,813.227 673.854,819.034 674.142,824.84 674.444,830.647 674.759,836.453 675.088,842.26 675.43,848.066 675.787,853.873 676.157,859.679 676.541,865.486 676.939,871.292 677.35,877.099 677.776,882.905 678.215,888.712 678.668,894.518 679.134,900.325 679.615,906.132 680.109,911.938 680.618,917.745 681.14,923.551 681.676,929.358 682.225,935.164 682.789,940.971 683.367,946.777 683.958,952.584 684.563,958.39 685.183,964.197 685.816,970.003 686.463,975.81 687.124,981.616 687.799,987.423 " />
</g>
<g>
<polyline fill="none" stroke="#7f7fff" points="739.195,444.084 736.268,449.254 733.418,454.424 730.646,459.594 727.948,464.764 725.325,469.934 722.774,475.104 720.295,480.274 717.886,485.444 715.546,490.614 713.275,495.784 711.07,500.955 708.933,506.125 706.86,511.295 704.852,516.465 702.908,521.635 701.027,526.805 699.209,531.975 697.452,537.145 695.755,542.315 694.12,547.485 692.543,552.655 691.026,557.825 689.568,562.995 688.167,568.165 686.825,573.335 685.539,578.505 684.31,583.675 683.137,588.845 682.02,594.015 680.959,599.185 679.952,604.355 679.001,609.525 678.104,614.695 677.261,619.865 676.472,625.035 675.737,630.205 675.055,635.375 674.427,640.545 673.851,645.715 673.329,650.885 672.859,656.055 672.442,661.225 672.077,666.395 671.764,671.565 671.504,676.735 671.296,681.905 671.14,687.075 671.036,692.245 670.984,697.415 670.984,702.585 671.036,707.755 671.14,712.925 671.296,718.095 671.504,723.265 671.764,728.435 672.077,733.605 672.442,738.775 672.859,743.945 673.329,749.115 673.851,754.285 674.427,759.455 675.055,764.625 675.737,769.795 676.472,774.965 677.261,780.135 678.104,785.305 679.001,790.475 679.952,795.645 680.959,800.815 682.02,805.985 683.137,811.155 684.31,816.325 685.539,821.495 686.825,826.665 688.167,831.835 689.568,837.005 691.026,842.175 692.543,847.345 694.12,852.515 695.755,857.685 697.452,862.855 699.209,868.025 701.027,873.195 702.908,878.365 704.852,883.535 706.86,888.705 708.933,893.875 711.07,899.045 713.275,904.216 715.546,909.386 717.886,914.556 720.295,919.726 722.774,924.896 725.325,930.066 727.948,935.236 730.646,940.406 733.418,945.576 736.268,950.746 739.195,955.916 " />
<line x1="739.195" y1="444.084" x2="752.795" y2="444.084"  stroke="#7f7fff" />
<line x1="739.195" y1="955.916" x2="752.795" y2="955.916"  stroke="#7f7fff" />
<polyline fill="none" stroke="#7f7fff" points="752.795,444.084 752.609,449.254 752.426,454.424 752.247,459.594 752.073,464.764 751.901,469.934 751.734,475.104 751.571,480.274 751.411,485.444 751.255,490.614 751.103,495.784 750.955,500.955 750.81,506.125 750.67,511.295 750.533,516.465 750.4,521.635 750.271,526.805 750.145,531.975 750.023,537.145 749.906,542.315 749.792,547.485 749.681,552.655 749.575,557.825 749.472,562.995 749.373,568.165 749.278,573.335 749.187,578.505 749.1,583.675 749.016,588.845 748.936,594.015 748.86,599.185 748.788,604.355 748.72,609.525 748.655,614.695 748.594,619.865 748.537,625.035 748.484,630.205 748.435,635.375 748.389,640.545 748.347,645.715 748.309,650.885 748.275,656.055 748.245,661.225 748.218,666.395 748.195,671.565 748.176,676.735 748.161,681.905 748.15,687.075 748.142,692.245 748.138,697.415 748.138,702.585 748.142,707.755 748.15,712.925 748.161,718.095 748.176,723.265 748.195,728.435 748.218,733.605 748.245,738.775 748.275,743.945 748.309,749.115 748.347,754.285 748.389,759.455 748.435,764.625 748.484,769.795 748.537,774.965 748.594,780.135 748.655,785.305 748.72,790.475 748.788,795.645 748.86,800.815 748.936,805.985 749.016,811.155 749.1,816.325 749.187,821.495 749.278,826.665 749.373,831.835 749.472,837.005 749.575,842.175 749.681,847.345 749.792,852.515 749.906,857.685 750.023,862.855 750.145,868.025 750.271,873.195 750.4,878.365 750.533,883.535 750.67,888.705 750.81,893.875 750.955,899.045 751.103,904.216 751.255,909.386 751.411,914.556 751.571,919.726 751.734,924.896 751.901,930.066 752.073,935.236 752.247,940.406 752.426,945.576 752.609,950.746 752.795,955.916 " />
<line x1="820.267" y1="444.084" x2="820.267" y2="474.949"  stroke="#7f7fff" />
<line x1="752.795" y1="444.084" x2="820.267" y2="444.084"  stroke="#7f7fff" />
<line x1="820.267" y1="955.916" x2="820.267" y2="925.051"  stroke="#7f7fff" />
<line x1="752.795" y1="955.916" x2="820.267" y2="955.916"  stroke="#7f7fff" />
<polyline fill="none" stroke="#7f7fff" points="820.267,474.949 817.839,479.495 815.516,484.042 813.286,488.588 811.138,493.135 809.065,497.681 807.06,502.228 805.121,506.774 803.244,511.321 801.426,515.867 799.665,520.413 797.959,524.96 796.309,529.506 794.711,534.053 793.166,538.599 791.672,543.146 790.229,547.692 788.836,552.239 787.491,556.785 786.195,561.332 784.947,565.878 783.745,570.425 782.59,574.971 781.48,579.518 780.416,584.064 779.397,588.611 778.421,593.157 777.489,597.704 776.601,602.25 775.756,606.797 774.953,611.343 774.192,615.89 773.473,620.436 772.795,624.983 772.159,629.529 771.564,634.076 771.01,638.622 770.496,643.169 770.023,647.715 769.589,652.262 769.196,656.808 768.843,661.355 768.529,665.901 768.254,670.448 768.019,674.994 767.824,679.541 767.667,684.087 767.55,688.634 767.472,693.18 767.433,697.727 767.433,702.273 767.472,706.82 767.55,711.366 767.667,715.913 767.824,720.459 768.019,725.006 768.254,729.552 768.529,734.099 768.843,738.645 769.196,743.192 769.589,747.738 770.023,752.285 770.496,756.831 771.01,761.378 771.564,765.924 772.159,770.471 772.795,775.017 773.473,779.564 774.192,784.11 774.953,788.657 775.756,793.203 776.601,797.75 777.489,802.296 778.421,806.843 779.397,811.389 780.416,815.936 781.48,820.482 782.59,825.029 783.745,829.575 784.947,834.122 786.195,838.668 787.491,843.215 788.836,847.761 790.229,852.308 791.672,856.854 793.166,861.401 794.711,865.947 796.309,870.494 797.959,875.04 799.665,879.587 801.426,884.133 803.244,888.679 805.121,893.226 807.06,897.772 809.065,902.319 811.138,906.865 813.286,911.412 815.516,915.958 817.839,920.505 820.267,925.051 " />
</g>
<g>
<polyline fill="none" stroke="#7f7fff" points="819.614,477.521 819.108,482.015 818.613,486.51 818.128,491.004 817.653,495.499 817.189,499.993 816.736,504.488 816.292,508.982 815.859,513.477 815.437,517.971 815.025,522.466 814.623,526.96 814.232,531.455 813.851,535.95 813.481,540.444 813.12,544.939 812.771,549.433 812.431,553.928 812.102,558.422 811.783,562.917 811.475,567.411 811.177,571.906 810.889,576.4 810.611,580.895 810.344,585.389 810.087,589.884 809.841,594.378 809.604,598.873 809.378,603.368 809.163,607.862 808.957,612.357 808.762,616.851 808.578,621.346 808.403,625.84 808.239,630.335 808.085,634.829 807.941,639.324 807.808,643.818 807.685,648.313 807.572,652.807 807.469,657.302 807.377,661.796 807.295,666.291 807.223,670.786 807.161,675.28 807.11,679.775 807.069,684.269 807.038,688.764 807.018,693.258 807.007,697.753 807.007,702.247 807.018,706.742 807.038,711.236 807.069,715.731 807.11,720.225 807.161,724.72 807.223,729.214 807.295,733.709 807.377,738.204 807.469,742.698 807.572,747.193 807.685,751.687 807.808,756.182 807.941,760.676 808.085,765.171 808.239,769.665 808.403,774.16 808.578,778.654 808.762,783.149 808.957,787.643 809.163,792.138 809.378,796.632 809.604,801.127 809.841,805.622 810.087,810.116 810.344,814.611 810.611,819.105 810.889,823.6 811.177,828.094 811.475,832.589 811.783,837.083 812.102,841.578 812.431,846.072 812.771,850.567 813.12,855.061 813.481,859.556 813.851,864.05 814.232,868.545 814.623,873.04 815.025,877.534 815.437,882.029 815.859,886.523 816.292,891.018 816.736,895.512 817.189,900.007 817.653,904.501 818.128,908.996 818.613,913.49 819.108,917.985 819.614,922.479 " />
<line x1="893.003" y1="477.521" x2="893.003" y2="484.594"  stroke="#7f7fff" />
<line x1="819.614" y1="477.521" x2="893.003" y2="477.521"  stroke="#7f7fff" />
<line x1="893.003" y1="922.479" x2="893.003" y2="915.406"  stroke="#7f7fff" />
<line x1="819.614" y1="922.479" x2="893.003" y2="922.479"  stroke="#7f7fff" />
<polyline fill="none" stroke="#7f7fff" points="893.003,484.594 890.066,488.945 887.215,493.297 884.447,497.649 881.762,502 879.155,506.352 876.627,510.703 874.175,515.055 871.797,519.407 869.491,523.758 867.257,528.11 865.093,532.462 862.998,536.813 860.969,541.165 859.007,545.517 857.11,549.868 855.277,554.22 853.507,558.572 851.799,562.923 850.152,567.275 848.566,571.627 847.039,575.978 845.571,580.33 844.16,584.681 842.808,589.033 841.512,593.385 840.272,597.736 839.087,602.088 837.958,606.44 836.883,610.791 835.863,615.143 834.896,619.495 833.982,623.846 833.121,628.198 832.312,632.55 831.556,636.901 830.851,641.253 830.198,645.604 829.596,649.956 829.045,654.308 828.545,658.659 828.095,663.011 827.696,667.363 827.347,671.714 827.049,676.066 826.8,680.418 826.601,684.769 826.452,689.121 826.352,693.473 826.303,697.824 826.303,702.176 826.352,706.527 826.452,710.879 826.601,715.231 826.8,719.582 827.049,723.934 827.347,728.286 827.696,732.637 828.095,736.989 828.545,741.341 829.045,745.692 829.596,750.044 830.198,754.396 830.851,758.747 831.556,763.099 832.312,767.45 833.121,771.802 833.982,776.154 834.896,780.505 835.863,784.857 836.883,789.209 837.958,793.56 839.087,797.912 840.272,802.264 841.512,806.615 842.808,810.967 844.16,815.319 845.571,819.67 847.039,824.022 848.566,828.373 850.152,832.725 851.799,837.077 853.507,841.428 855.277,845.78 857.11,850.132 859.007,854.483 860.969,858.835 862.998,863.187 865.093,867.538 867.257,871.89 869.491,876.242 871.797,880.593 874.175,884.945 876.627,889.297 879.155,893.648 881.762,898 884.447,902.351 887.215,906.703 890.066,911.055 893.003,915.406 " />
</g>
<g>
<polyline fill="none" stroke="#7f7fff" points="957.082,506.456 959.182,510.366 961.227,514.276 963.219,518.186 965.158,522.096 967.045,526.006 968.88,529.916 970.665,533.826 972.4,537.736 974.086,541.646 975.723,545.556 977.313,549.466 978.855,553.376 980.351,557.286 981.801,561.196 983.205,565.106 984.564,569.016 985.879,572.925 987.15,576.835 988.376,580.745 989.56,584.655 990.701,588.565 991.799,592.475 992.855,596.385 993.869,600.295 994.842,604.205 995.773,608.115 996.664,612.025 997.514,615.935 998.324,619.845 999.094,623.755 999.824,627.665 1000.514,631.575 1001.164,635.485 1001.776,639.395 1002.348,643.305 1002.882,647.215 1003.377,651.125 1003.833,655.035 1004.251,658.945 1004.63,662.855 1004.971,666.765 1005.274,670.675 1005.539,674.585 1005.766,678.495 1005.955,682.405 1006.106,686.315 1006.219,690.225 1006.295,694.135 1006.333,698.045 1006.333,701.955 1006.295,705.865 1006.219,709.775 1006.106,713.685 1005.955,717.595 1005.766,721.505 1005.539,725.415 1005.274,729.325 1004.971,733.235 1004.63,737.145 1004.251,741.055 1003.833,744.965 1003.377,748.875 1002.882,752.785 1002.348,756.695 1001.776,760.605 1001.164,764.515 1000.514,768.425 999.824,772.335 999.094,776.245 998.324,780.155 997.514,784.065 996.664,787.975 995.773,791.885 994.842,795.795 993.869,799.705 992.855,803.615 991.799,807.525 990.701,811.435 989.56,815.345 988.376,819.255 987.15,823.165 985.879,827.075 984.564,830.984 983.205,834.894 981.801,838.804 980.351,842.714 978.855,846.624 977.313,850.534 975.723,854.444 974.086,858.354 972.4,862.264 970.665,866.174 968.88,870.084 967.045,873.994 965.158,877.904 963.219,881.814 961.227,885.724 959.182,889.634 957.082,893.544 " />
<line x1="957.082" y1="481.379" x2="957.082" y2="506.456"  stroke="#7f7fff" />
<line x1="957.082" y1="481.379" x2="1097.385" y2="481.379"  stroke="#7f7fff" />
<line x1="957.082" y1="918.621" x2="957.082" y2="893.544"  stroke="#7f7fff" />
<line x1="957.082" y1="918.621" x2="1097.385" y2="918.621"  stroke="#7f7fff" />
<polyline fill="none" stroke="#7f7fff" points="1097.385,481.379 1094.325,485.795 1091.356,490.212 1088.476,494.628 1085.681,499.045 1082.971,503.462 1080.343,507.878 1077.795,512.295 1075.324,516.711 1072.93,521.128 1070.611,525.545 1068.365,529.961 1066.191,534.378 1064.087,538.794 1062.053,543.211 1060.086,547.628 1058.186,552.044 1056.352,556.461 1054.582,560.877 1052.876,565.294 1051.233,569.71 1049.652,574.127 1048.132,578.544 1046.672,582.96 1045.272,587.377 1043.931,591.793 1042.648,596.21 1041.423,600.627 1040.255,605.043 1039.143,609.46 1038.088,613.876 1037.088,618.293 1036.143,622.71 1035.253,627.126 1034.417,631.543 1033.635,635.959 1032.906,640.376 1032.231,644.793 1031.609,649.209 1031.04,653.626 1030.523,658.042 1030.058,662.459 1029.646,666.876 1029.286,671.292 1028.977,675.709 1028.72,680.125 1028.514,684.542 1028.36,688.959 1028.257,693.375 1028.206,697.792 1028.206,702.208 1028.257,706.625 1028.36,711.041 1028.514,715.458 1028.72,719.875 1028.977,724.291 1029.286,728.708 1029.646,733.124 1030.058,737.541 1030.523,741.958 1031.04,746.374 1031.609,750.791 1032.231,755.207 1032.906,759.624 1033.635,764.041 1034.417,768.457 1035.253,772.874 1036.143,777.29 1037.088,781.707 1038.088,786.124 1039.143,790.54 1040.255,794.957 1041.423,799.373 1042.648,803.79 1043.931,808.207 1045.272,812.623 1046.672,817.04 1048.132,821.456 1049.652,825.873 1051.233,830.29 1052.876,834.706 1054.582,839.123 1056.352,843.539 1058.186,847.956 1060.086,852.372 1062.053,856.789 1064.087,861.206 1066.191,865.622 1068.365,870.039 1070.611,874.455 1072.93,878.872 1075.324,883.289 1077.795,887.705 1080.343,892.122 1082.971,896.538 1085.681,900.955 1088.476,905.372 1091.356,909.788 1094.325,914.205 1097.385,918.621 " />
<line x1="1097.385" y1="481.379" x2="1109.59" y2="481.379"  stroke="#7f7fff" />
<line x1="1097.385" y1="918.621" x2="1109.59" y2="918.621"  stroke="#7f7fff" />
<polyline fill="none" stroke="#7f7fff" points="1109.59,481.379 1109.935,485.795 1110.274,490.212 1110.605,494.628 1110.93,499.045 1111.247,503.462 1111.557,507.878 1111.861,512.295 1112.157,516.711 1112.446,521.128 1112.728,525.545 1113.002,529.961 1113.27,534.378 1113.531,538.794 1113.784,543.211 1114.031,547.628 1114.271,552.044 1114.503,556.461 1114.728,560.877 1114.947,565.294 1115.158,569.71 1115.362,574.127 1115.559,578.544 1115.749,582.96 1115.932,587.377 1116.108,591.793 1116.277,596.21 1116.439,600.627 1116.594,605.043 1116.742,609.46 1116.883,613.876 1117.016,618.293 1117.143,622.71 1117.263,627.126 1117.375,631.543 1117.481,635.959 1117.579,640.376 1117.671,644.793 1117.755,649.209 1117.832,653.626 1117.903,658.042 1117.966,662.459 1118.022,666.876 1118.072,671.292 1118.114,675.709 1118.149,680.125 1118.177,684.542 1118.198,688.959 1118.212,693.375 1118.219,697.792 1118.219,702.208 1118.212,706.625 1118.198,711.041 1118.177,715.458 1118.149,719.875 1118.114,724.291 1118.072,728.708 1118.022,733.124 1117.966,737.541 1117.903,741.958 1117.832,746.374 1117.755,750.791 1117.671,755.207 1117.579,759.624 1117.481,764.041 1117.375,768.457 1117.263,772.874 1117.143,777.29 1117.016,781.707 1116.883,786.124 1116.742,790.54 1116.594,794.957 1116.439,799.373 1116.277,803.79 1116.108,808.207 1115.932,812.623 1115.749,817.04 1115.559,821.456 1115.362,825.873 1115.158,830.29 1114.947,834.706 1114.728,839.123 1114.503,843.539 1114.271,847.956 1114.031,852.372 1113.784,856.789 1113.531,861.206 1113.27,865.622 1113.002,870.039 1112.728,874.455 1112.446,878.872 1112.157,883.289 1111.861,887.705 1111.557,892.122 1111.247,896.538 1110.93,900.955 1110.605,905.372 1110.274,909.788 1109.935,914.205 1109.59,918.621 " />
</g>
<g>
<polyline fill="none" stroke="#7f7fff" points="1140.027,481.379 1139.199,485.795 1138.389,490.212 1137.596,494.628 1136.821,499.045 1136.063,503.462 1135.322,507.878 1134.598,512.295 1133.892,516.711 1133.203,521.128 1132.531,525.545 1131.877,529.961 1131.239,534.378 1130.619,538.794 1130.016,543.211 1129.429,547.628 1128.86,552.044 1128.308,556.461 1127.773,560.877 1127.255,565.294 1126.753,569.71 1126.269,574.127 1125.801,578.544 1125.351,582.96 1124.917,587.377 1124.5,591.793 1124.1,596.21 1123.717,600.627 1123.35,605.043 1123,609.46 1122.667,613.876 1122.351,618.293 1122.051,622.71 1121.769,627.126 1121.502,631.543 1121.253,635.959 1121.02,640.376 1120.804,644.793 1120.605,649.209 1120.422,653.626 1120.256,658.042 1120.106,662.459 1119.973,666.876 1119.857,671.292 1119.757,675.709 1119.674,680.125 1119.608,684.542 1119.558,688.959 1119.525,693.375 1119.508,697.792 1119.508,702.208 1119.525,706.625 1119.558,711.041 1119.608,715.458 1119.674,719.875 1119.757,724.291 1119.857,728.708 1119.973,733.124 1120.106,737.541 1120.256,741.958 1120.422,746.374 1120.605,750.791 1120.804,755.207 1121.02,759.624 1121.253,764.041 1121.502,768.457 1121.769,772.874 1122.051,777.29 1122.351,781.707 1122.667,786.124 1123,790.54 1123.35,794.957 1123.717,799.373 1124.1,803.79 1124.5,808.207 1124.917,812.623 1125.351,817.04 1125.801,821.456 1126.269,825.873 1126.753,830.29 1127.255,834.706 1127.773,839.123 1128.308,843.539 1128.86,847.956 1129.429,852.372 1130.016,856.789 1130.619,861.206 1131.239,865.622 1131.877,870.039 1132.531,874.455 1133.203,878.872 1133.892,883.289 1134.598,887.705 1135.322,892.122 1136.063,896.538 1136.821,900.955 1137.596,905.372 1138.389,909.788 1139.199,914.205 1140.027,918.621 " />
<line x1="1140.027" y1="480.093" x2="1140.027" y2="481.379"  stroke="#7f7fff" />
<line x1="1140.027" y1="480.093" x2="1155.743" y2="480.093"  stroke="#7f7fff" />
<line x1="1140.027" y1="919.907" x2="1140.027" y2="918.621"  stroke="#7f7fff" />
<line x1="1140.027" y1="919.907" x2="1155.743" y2="919.907"  stroke="#7f7fff" />
<polyline fill="none" stroke="#7f7fff" points="1155.743,480.093 1157.903,484.535 1160.009,488.978 1162.062,493.42 1164.063,497.863 1166.011,502.305 1167.908,506.748 1169.755,511.191 1171.551,515.633 1173.298,520.076 1174.996,524.518 1176.645,528.961 1178.247,533.403 1179.801,537.846 1181.309,542.289 1182.77,546.731 1184.185,551.174 1185.554,555.616 1186.878,560.059 1188.157,564.501 1189.392,568.944 1190.582,573.387 1191.729,577.829 1192.832,582.272 1193.892,586.714 1194.909,591.157 1195.883,595.6 1196.815,600.042 1197.704,604.485 1198.552,608.927 1199.358,613.37 1200.123,617.812 1200.846,622.255 1201.528,626.698 1202.169,631.14 1202.769,635.583 1203.328,640.025 1203.847,644.468 1204.326,648.91 1204.764,653.353 1205.162,657.796 1205.52,662.238 1205.838,666.681 1206.116,671.123 1206.355,675.566 1206.553,680.008 1206.712,684.451 1206.831,688.894 1206.91,693.336 1206.95,697.779 1206.95,702.221 1206.91,706.664 1206.831,711.106 1206.712,715.549 1206.553,719.992 1206.355,724.434 1206.116,728.877 1205.838,733.319 1205.52,737.762 1205.162,742.204 1204.764,746.647 1204.326,751.09 1203.847,755.532 1203.328,759.975 1202.769,764.417 1202.169,768.86 1201.528,773.302 1200.846,777.745 1200.123,782.188 1199.358,786.63 1198.552,791.073 1197.704,795.515 1196.815,799.958 1195.883,804.4 1194.909,808.843 1193.892,813.286 1192.832,817.728 1191.729,822.171 1190.582,826.613 1189.392,831.056 1188.157,835.499 1186.878,839.941 1185.554,844.384 1184.185,848.826 1182.77,853.269 1181.309,857.711 1179.801,862.154 1178.247,866.597 1176.645,871.039 1174.996,875.482 1173.298,879.924 1171.551,884.367 1169.755,888.809 1167.908,893.252 1166.011,897.695 1164.063,902.137 1162.062,906.58 1160.009,911.022 1157.903,915.465 1155.743,919.907 " />
<line x1="1255.446" y1="480.093" x2="1255.446" y2="482.665"  stroke="#7f7fff" />
<line x1="1155.743" y1="480.093" x2="1255.446" y2="480.093"  stroke="#7f7fff" />
<line x1="1255.446" y1="919.907" x2="1255.446" y2="917.335"  stroke="#7f7fff" />
<line x1="1155.743" y1="919.907" x2="1255.446" y2="919.907"  stroke="#7f7fff" />
<polyline fill="none" stroke="#7f7fff" points="1255.446,482.665 1254.258,487.055 1253.095,491.446 1251.959,495.836 1250.848,500.227 1249.762,504.618 1248.703,509.008 1247.668,513.399 1246.659,517.79 1245.676,522.18 1244.717,526.571 1243.783,530.961 1242.875,535.352 1241.991,539.743 1241.132,544.133 1240.298,548.524 1239.489,552.914 1238.704,557.305 1237.944,561.696 1237.208,566.086 1236.496,570.477 1235.809,574.868 1235.146,579.258 1234.507,583.649 1233.892,588.039 1233.302,592.43 1232.735,596.821 1232.193,601.211 1231.674,605.602 1231.179,609.992 1230.708,614.383 1230.261,618.774 1229.838,623.164 1229.438,627.555 1229.062,631.945 1228.71,636.336 1228.381,640.727 1228.076,645.117 1227.794,649.508 1227.537,653.899 1227.302,658.289 1227.091,662.68 1226.904,667.07 1226.74,671.461 1226.599,675.852 1226.482,680.242 1226.388,684.633 1226.318,689.023 1226.271,693.414 1226.248,697.805 1226.248,702.195 1226.271,706.586 1226.318,710.977 1226.388,715.367 1226.482,719.758 1226.599,724.148 1226.74,728.539 1226.904,732.93 1227.091,737.32 1227.302,741.711 1227.537,746.101 1227.794,750.492 1228.076,754.883 1228.381,759.273 1228.71,763.664 1229.062,768.055 1229.438,772.445 1229.838,776.836 1230.261,781.226 1230.708,785.617 1231.179,790.008 1231.674,794.398 1232.193,798.789 1232.735,803.179 1233.302,807.57 1233.892,811.961 1234.507,816.351 1235.146,820.742 1235.809,825.132 1236.496,829.523 1237.208,833.914 1237.944,838.304 1238.704,842.695 1239.489,847.086 1240.298,851.476 1241.132,855.867 1241.991,860.257 1242.875,864.648 1243.783,869.039 1244.717,873.429 1245.676,877.82 1246.659,882.21 1247.668,886.601 1248.703,890.992 1249.762,895.382 1250.848,899.773 1251.959,904.164 1253.095,908.554 1254.258,912.945 1255.446,917.335 " />
<line x1="1255.446" y1="482.665" x2="1275.299" y2="482.665"  stroke="#7f7fff" />
<line x1="1255.446" y1="917.335" x2="1275.299" y2="917.335"  stroke="#7f7fff" />
<polyline fill="none" stroke="#7f7fff" points="1275.299,482.665 1275.62,487.055 1275.957,491.446 1276.31,495.836 1276.679,500.227 1277.062,504.618 1277.458,509.008 1277.865,513.399 1278.282,517.79 1278.707,522.18 1279.139,526.571 1279.576,530.961 1280.017,535.352 1280.46,539.743 1280.904,544.133 1281.347,548.524 1281.79,552.914 1282.229,557.305 1282.665,561.696 1283.096,566.086 1283.521,570.477 1283.94,574.868 1284.351,579.258 1284.754,583.649 1285.148,588.039 1285.533,592.43 1285.907,596.821 1286.269,601.211 1286.621,605.602 1286.959,609.992 1287.286,614.383 1287.598,618.774 1287.897,623.164 1288.182,627.555 1288.452,631.945 1288.707,636.336 1288.947,640.727 1289.171,645.117 1289.379,649.508 1289.571,653.899 1289.746,658.289 1289.904,662.68 1290.045,667.07 1290.169,671.461 1290.276,675.852 1290.364,680.242 1290.436,684.633 1290.489,689.023 1290.525,693.414 1290.543,697.805 1290.543,702.195 1290.525,706.586 1290.489,710.977 1290.436,715.367 1290.364,719.758 1290.276,724.148 1290.169,728.539 1290.045,732.93 1289.904,737.32 1289.746,741.711 1289.571,746.101 1289.379,750.492 1289.171,754.883 1288.947,759.273 1288.707,763.664 1288.452,768.055 1288.182,772.445 1287.897,776.836 1287.598,781.226 1287.286,785.617 1286.959,790.008 1286.621,794.398 1286.269,798.789 1285.907,803.179 1285.533,807.57 1285.148,811.961 1284.754,816.351 1284.351,820.742 1283.94,825.132 1283.521,829.523 1283.096,833.914 1282.665,838.304 1282.229,842.695 1281.79,847.086 1281.347,851.476 1280.904,855.867 1280.46,860.257 1280.017,864.648 1279.576,869.039 1279.139,873.429 1278.707,877.82 1278.282,882.21 1277.865,886.601 1277.458,890.992 1277.062,895.382 1276.679,899.773 1276.31,904.164 1275.957,908.554 1275.62,912.945 1275.299,917.335 " />
</g>
<g>
<polyline fill="none" stroke="#7f7fff" points="1774.084,410.648 1774.084,416.494 1774.084,422.339 1774.084,428.185 1774.084,434.03 1774.084,439.876 1774.084,445.721 1774.084,451.567 1774.084,457.412 1774.084,463.258 1774.084,469.103 1774.084,474.949 1774.084,480.794 1774.084,486.64 1774.084,492.485 1774.084,498.331 1774.084,504.176 1774.084,510.022 1774.084,515.867 1774.084,521.712 1774.084,527.558 1774.084,533.403 1774.084,539.249 1774.084,545.094 1774.084,550.94 1774.084,556.785 1774.084,562.631 1774.084,568.476 1774.084,574.322 1774.084,580.167 1774.084,586.013 1774.084,591.858 1774.084,597.704 1774.084,603.549 1774.084,609.395 1774.084,615.24 1774.084,621.086 1774.084,626.931 1774.084,632.777 1774.084,638.622 1774.084,644.468 1774.084,650.313 1774.084,656.159 1774.084,662.004 1774.084,667.85 1774.084,673.695 1774.084,679.541 1774.084,685.386 1774.084,691.232 1774.084,697.077 1774.084,702.923 1774.084,708.768 1774.084,714.614 1774.084,720.459 1774.084,726.305 1774.084,732.15 1774.084,737.996 1774.084,743.841 1774.084,749.687 1774.084,755.532 1774.084,761.378 1774.084,767.223 1774.084,773.069 1774.084,778.914 1774.084,784.76 1774.084,790.605 1774.084,796.451 1774.084,802.296 1774.084,808.142 1774.084,813.987 1774.084,819.833 1774.084,825.678 1774.084,831.524 1774.084,837.369 1774.084,843.215 1774.084,849.06 1774.084,854.906 1774.084,860.751 1774.084,866.597 1774.084,872.442 1774.084,878.288 1774.084,884.133 1774.084,889.978 1774.084,895.824 1774.084,901.669 1774.084,907.515 1774.084,913.36 1774.084,919.206 1774.084,925.051 1774.084,930.897 1774.084,936.742 1774.084,942.588 1774.084,948.433 1774.084,954.279 1774.084,960.124 1774.084,965.97 1774.084,971.815 1774.084,977.661 1774.084,983.506 1774.084,989.352 " />
<line x1="1774.084" y1="410.648" x2="1799.805" y2="410.648"  stroke="#7f7fff" />
<line x1="1774.084" y1="989.352" x2="1799.805" y2="989.352"  stroke="#7f7fff" />
<polyline fill="none" stroke="#7f7fff" points="1799.805,410.648 1799.805,416.494 1799.805,422.339 1799.805,428.185 1799.805,434.03 1799.805,439.876 1799.805,445.721 1799.805,451.567 1799.805,457.412 1799.805,463.258 1799.805,469.103 1799.805,474.949 1799.805,480.794 1799.805,486.64 1799.805,492.485 1799.805,498.331 1799.805,504.176 1799.805,510.022 1799.805,515.867 1799.805,521.712 1799.805,527.558 1799.805,533.403 1799.805,539.249 1799.805,545.094 1799.805,550.94 1799.805,556.785 1799.805,562.631 1799.805,568.476 1799.805,574.322 1799.805,580.167 1799.805,586.013 1799.805,591.858 1799.805,597.704 1799.805,603.549 1799.805,609.395 1799.805,615.24 1799.805,621.086 1799.805,626.931 1799.805,632.777 1799.805,638.622 1799.805,644.468 1799.805,650.313 1799.805,656.159 1799.805,662.004 1799.805,667.85 1799.805,673.695 1799.805,679.541 1799.805,685.386 1799.805,691.232 1799.805,697.077 1799.805,702.923 1799.805,708.768 1799.805,714.614 1799.805,720.459 1799.805,726.305 1799.805,732.15 1799.805,737.996 1799.805,743.841 1799.805,749.687 1799.805,755.532 1799.805,761.378 1799.805,767.223 1799.805,773.069 1799.805,778.914 1799.805,784.76 1799.805,790.605 1799.805,796.451 1799.805,802.296 1799.805,808.142 1799.805,813.987 1799.805,819.833 1799.805,825.678 1799.805,831.524 1799.805,837.369 1799.805,843.215 1799.805,849.06 1799.805,854.906 1799.805,860.751 1799.805,866.597 1799.805,872.442 1799.805,878.288 1799.805,884.133 1799.805,889.978 1799.805,895.824 1799.805,901.669 1799.805,907.515 1799.805,913.36 1799.805,919.206 1799.805,925.051 1799.805,930.897 1799.805,936.742 1799.805,942.588 1799.805,948.433 1799.805,954.279 1799.805,960.124 1799.805,965.97 1799.805,971.815 1799.805,977.661 1799.805,983.506 1799.805,989.352 " />
</g>
</g>
<g><title>element</title>
<polyline fill="none" stroke="#7f7fff" points="1806.183,144.444 1806.183,155.668 1806.183,166.891 1806.183,178.114 1806.183,189.338 1806.183,200.561 1806.183,211.785 1806.183,223.008 1806.183,234.231 1806.183,245.455 1806.183,256.678 1806.183,267.901 1806.183,279.125 1806.183,290.348 1806.183,301.571 1806.183,312.795 1806.183,324.018 1806.183,335.241 1806.183,346.465 1806.183,357.688 1806.183,368.911 1806.183,380.135 1806.183,391.358 1806.183,402.581 1806.183,413.805 1806.183,425.028 1806.183,436.251 1806.183,447.475 1806.183,458.698 1806.183,469.921 1806.183,481.145 1806.183,492.368 1806.183,503.591 1806.183,514.815 1806.183,526.038 1806.183,537.262 1806.183,548.485 1806.183,559.708 1806.183,570.932 1806.183,582.155 1806.183,593.378 1806.183,604.602 1806.183,615.825 1806.183,627.048 1806.183,638.272 1806.183,649.495 1806.183,660.718 1806.183,671.942 1806.183,683.165 1806.183,694.388 1806.183,705.612 1806.183,716.835 1806.183,728.058 1806.183,739.282 1806.183,750.505 1806.183,761.728 1806.183,772.952 1806.183,784.175 1806.183,795.398 1806.183,806.622 1806.183,817.845 1806.183,829.068 1806.183,840.292 1806.183,851.515 1806.183,862.738 1806.183,873.962 1806.183,885.185 1806.183,896.409 1806.183,907.632 1806.183,918.855 1806.183,930.079 1806.183,941.302 1806.183,952.525 1806.183,963.749 1806.183,974.972 1806.183,986.195 1806.183,997.419 1806.183,1008.642 1806.183,1019.865 1806.183,1031.089 1806.183,1042.312 1806.183,1053.535 1806.183,1064.759 1806.183,1075.982 1806.183,1087.205 1806.183,1098.429 1806.183,1109.652 1806.183,1120.875 1806.183,1132.099 1806.183,1143.322 1806.183,1154.545 1806.183,1165.769 1806.183,1176.992 1806.183,1188.215 1806.183,1199.439 1806.183,1210.662 1806.183,1221.886 1806.183,1233.109 1806.183,1244.332 1806.183,1255.556 " />
</g>
</svg>
