<?xml version="1.0" standalone="no"?>
<svg width="2400px" height="1400px" version="1.1" xmlns="http://www.w3.org/2000/svg"
>
    <rect x="0" y="0" width="2400" height="1400" fill="#ffffff"/>
    <defs>
        <g id="dot">
            <line x1="1" y1="1" x2="0" y2="0"/>
        </g>
        <g id="cross">
            <line x1="-3" y1="0" x2="3" y2="0"/>
            <line x1="0" y1="-3" x2="0" y2="3"/>
        </g>
        <g id="square">
            <line x1="-3" y1="-3" x2="-3" y2="3"/>
            <line x1="-3" y1="3" x2="3" y2="3"/>
            <line x1="3" y1="3" x2="3" y2="-3"/>
            <line x1="3" y1="-3" x2="-3" y2="-3"/>
        </g>
        <g id="round">
            <ellipse cx="0" cy="0" rx="3" ry="3" fill="none"/>
        </g>
        <g id="triangle">
            <line x1="0" y1="-3" x2="-3" y2="3"/>
            <line x1="-3" y1="3" x2="3" y2="3"/>
            <line x1="0" y1="-3" x2="3" y2="3"/>
        </g>
    </defs>
    <line x1="404.101" y1="700" x2="1995.899" y2="700" stroke="#7f7f7f"/>
    <g>
        <title>element</title>
        <g>
            <line x1="1159.935" y1="491.622" x2="1159.935" y2="283.243" stroke="#7f7fff"/>
            <line x1="1159.935" y1="908.378" x2="1159.935" y2="1116.757" stroke="#7f7fff"/>
        </g>
        <g>
            <polyline fill="none" stroke="#7f7fff"
                      points="417.312,378.559 416.783,385.052 416.264,391.546 415.757,398.04 415.26,404.534 414.775,411.027 414.3,417.521 413.836,424.015 413.382,430.509 412.94,437.002 412.508,443.496 412.088,449.99 411.678,456.484 411.279,462.978 410.89,469.471 410.513,475.965 410.146,482.459 409.791,488.953 409.446,495.446 409.112,501.94 408.788,508.434 408.476,514.928 408.174,521.421 407.883,527.915 407.603,534.409 407.333,540.903 407.075,547.397 406.827,553.89 406.59,560.384 406.364,566.878 406.148,573.372 405.944,579.865 405.75,586.359 405.567,592.853 405.395,599.347 405.233,605.84 405.082,612.334 404.942,618.828 404.813,625.322 404.695,631.815 404.587,638.309 404.49,644.803 404.404,651.297 404.329,657.791 404.264,664.284 404.21,670.778 404.167,677.272 404.135,683.766 404.113,690.259 404.103,696.753 404.103,703.247 404.113,709.741 404.135,716.234 404.167,722.728 404.21,729.222 404.264,735.716 404.329,742.209 404.404,748.703 404.49,755.197 404.587,761.691 404.695,768.185 404.813,774.678 404.942,781.172 405.082,787.666 405.233,794.16 405.395,800.653 405.567,807.147 405.75,813.641 405.944,820.135 406.148,826.628 406.364,833.122 406.59,839.616 406.827,846.11 407.075,852.603 407.333,859.097 407.603,865.591 407.883,872.085 408.174,878.579 408.476,885.072 408.788,891.566 409.112,898.06 409.446,904.554 409.791,911.047 410.146,917.541 410.513,924.035 410.89,930.529 411.279,937.022 411.678,943.516 412.088,950.01 412.508,956.504 412.94,962.998 413.382,969.491 413.836,975.985 414.3,982.479 414.775,988.973 415.26,995.466 415.757,1001.96 416.264,1008.454 416.783,1014.948 417.312,1021.441 "/>
            <line x1="564.023" y1="378.559" x2="564.023" y2="442.577" stroke="#7f7fff"/>
            <line x1="417.312" y1="378.559" x2="564.023" y2="378.559" stroke="#7f7fff"/>
            <line x1="564.023" y1="1021.441" x2="564.023" y2="957.423" stroke="#7f7fff"/>
            <line x1="417.312" y1="1021.441" x2="564.023" y2="1021.441" stroke="#7f7fff"/>
            <polyline fill="none" stroke="#7f7fff"
                      points="564.023,442.577 557.022,447.778 550.403,452.978 544.128,458.179 538.167,463.379 532.493,468.579 527.085,473.78 521.924,478.98 516.993,484.181 512.279,489.381 507.767,494.582 503.449,499.782 499.312,504.983 495.349,510.183 491.552,515.384 487.912,520.584 484.425,525.785 481.083,530.985 477.882,536.185 474.816,541.386 471.882,546.586 469.074,551.787 466.39,556.987 463.825,562.188 461.377,567.388 459.043,572.589 456.819,577.789 454.704,582.99 452.695,588.19 450.789,593.391 448.986,598.591 447.283,603.791 445.678,608.992 444.17,614.192 442.758,619.393 441.439,624.593 440.214,629.794 439.081,634.994 438.038,640.195 437.085,645.395 436.222,650.596 435.447,655.796 434.759,660.997 434.159,666.197 433.645,671.397 433.218,676.598 432.876,681.798 432.62,686.999 432.45,692.199 432.365,697.4 432.365,702.6 432.45,707.801 432.62,713.001 432.876,718.202 433.218,723.402 433.645,728.603 434.159,733.803 434.759,739.003 435.447,744.204 436.222,749.404 437.085,754.605 438.038,759.805 439.081,765.006 440.214,770.206 441.439,775.407 442.758,780.607 444.17,785.808 445.678,791.008 447.283,796.209 448.986,801.409 450.789,806.609 452.695,811.81 454.704,817.01 456.819,822.211 459.043,827.411 461.377,832.612 463.825,837.812 466.39,843.013 469.074,848.213 471.882,853.414 474.816,858.614 477.882,863.815 481.083,869.015 484.425,874.215 487.912,879.416 491.552,884.616 495.349,889.817 499.312,895.017 503.449,900.218 507.767,905.418 512.279,910.619 516.993,915.819 521.924,921.02 527.085,926.22 532.493,931.421 538.167,936.621 544.128,941.821 550.403,947.022 557.022,952.222 564.023,957.423 "/>
        </g>
        <g>
            <polyline fill="none" stroke="#7f7fff"
                      points="564.396,442.577 566.64,447.778 568.83,452.978 570.966,458.179 573.05,463.379 575.082,468.579 577.061,473.78 578.99,478.98 580.867,484.181 582.695,489.381 584.472,494.582 586.2,499.782 587.879,504.983 589.51,510.183 591.092,515.384 592.626,520.584 594.113,525.785 595.553,530.985 596.946,536.185 598.293,541.386 599.593,546.586 600.847,551.787 602.056,556.987 603.219,562.188 604.338,567.388 605.411,572.589 606.44,577.789 607.424,582.99 608.364,588.19 609.26,593.391 610.112,598.591 610.921,603.791 611.686,608.992 612.407,614.192 613.086,619.393 613.721,624.593 614.314,629.794 614.864,634.994 615.371,640.195 615.835,645.395 616.257,650.596 616.636,655.796 616.973,660.997 617.268,666.197 617.521,671.397 617.731,676.598 617.899,681.798 618.026,686.999 618.11,692.199 618.152,697.4 618.152,702.6 618.11,707.801 618.026,713.001 617.899,718.202 617.731,723.402 617.521,728.603 617.268,733.803 616.973,739.003 616.636,744.204 616.257,749.404 615.835,754.605 615.371,759.805 614.864,765.006 614.314,770.206 613.721,775.407 613.086,780.607 612.407,785.808 611.686,791.008 610.921,796.209 610.112,801.409 609.26,806.609 608.364,811.81 607.424,817.01 606.44,822.211 605.411,827.411 604.338,832.612 603.219,837.812 602.056,843.013 600.847,848.213 599.593,853.414 598.293,858.614 596.946,863.815 595.553,869.015 594.113,874.215 592.626,879.416 591.092,884.616 589.51,889.817 587.879,895.017 586.2,900.218 584.472,905.418 582.695,910.619 580.867,915.819 578.99,921.02 577.061,926.22 575.082,931.421 573.05,936.621 570.966,941.821 568.83,947.022 566.64,952.222 564.396,957.423 "/>
            <line x1="564.396" y1="437.119" x2="564.396" y2="442.577" stroke="#7f7fff"/>
            <line x1="564.396" y1="437.119" x2="673.446" y2="437.119" stroke="#7f7fff"/>
            <line x1="564.396" y1="962.881" x2="564.396" y2="957.423" stroke="#7f7fff"/>
            <line x1="564.396" y1="962.881" x2="673.446" y2="962.881" stroke="#7f7fff"/>
            <polyline fill="none" stroke="#7f7fff"
                      points="673.446,437.119 671.978,442.43 670.543,447.741 669.14,453.051 667.769,458.362 666.429,463.673 665.121,468.984 663.845,474.294 662.6,479.605 661.386,484.916 660.203,490.226 659.051,495.537 657.93,500.848 656.84,506.159 655.78,511.469 654.751,516.78 653.753,522.091 652.785,527.402 651.847,532.712 650.939,538.023 650.061,543.334 649.214,548.644 648.396,553.955 647.608,559.266 646.85,564.577 646.122,569.887 645.423,575.198 644.754,580.509 644.114,585.819 643.504,591.13 642.923,596.441 642.372,601.752 641.85,607.062 641.357,612.373 640.894,617.684 640.459,622.995 640.054,628.305 639.678,633.616 639.331,638.927 639.013,644.237 638.724,649.548 638.464,654.859 638.232,660.17 638.03,665.48 637.857,670.791 637.713,676.102 637.597,681.412 637.511,686.723 637.453,692.034 637.424,697.345 637.424,702.655 637.453,707.966 637.511,713.277 637.597,718.588 637.713,723.898 637.857,729.209 638.03,734.52 638.232,739.83 638.464,745.141 638.724,750.452 639.013,755.763 639.331,761.073 639.678,766.384 640.054,771.695 640.459,777.005 640.894,782.316 641.357,787.627 641.85,792.938 642.372,798.248 642.923,803.559 643.504,808.87 644.114,814.181 644.754,819.491 645.423,824.802 646.122,830.113 646.85,835.423 647.608,840.734 648.396,846.045 649.214,851.356 650.061,856.666 650.939,861.977 651.847,867.288 652.785,872.598 653.753,877.909 654.751,883.22 655.78,888.531 656.84,893.841 657.93,899.152 659.051,904.463 660.203,909.774 661.386,915.084 662.6,920.395 663.845,925.706 665.121,931.016 666.429,936.327 667.769,941.638 669.14,946.949 670.543,952.259 671.978,957.57 673.446,962.881 "/>
        </g>
        <g>
            <polyline fill="none" stroke="#7f7fff"
                      points="692.914,435.321 690.958,440.668 689.047,446.015 687.181,451.362 685.359,456.709 683.581,462.057 681.847,467.404 680.156,472.751 678.508,478.098 676.904,483.445 675.341,488.792 673.821,494.139 672.343,499.486 670.907,504.833 669.512,510.18 668.159,515.527 666.846,520.874 665.574,526.221 664.343,531.568 663.153,536.915 662.002,542.262 660.892,547.609 659.821,552.956 658.79,558.303 657.799,563.65 656.847,568.997 655.934,574.344 655.06,579.692 654.226,585.039 653.43,590.386 652.672,595.733 651.954,601.08 651.273,606.427 650.632,611.774 650.028,617.121 649.462,622.468 648.935,627.815 648.446,633.162 647.994,638.509 647.58,643.856 647.205,649.203 646.867,654.55 646.566,659.897 646.303,665.244 646.078,670.591 645.891,675.938 645.741,681.285 645.628,686.632 645.553,691.979 645.516,697.326 645.516,702.674 645.553,708.021 645.628,713.368 645.741,718.715 645.891,724.062 646.078,729.409 646.303,734.756 646.566,740.103 646.867,745.45 647.205,750.797 647.58,756.144 647.994,761.491 648.446,766.838 648.935,772.185 649.462,777.532 650.028,782.879 650.632,788.226 651.273,793.573 651.954,798.92 652.672,804.267 653.43,809.614 654.226,814.961 655.06,820.308 655.934,825.656 656.847,831.003 657.799,836.35 658.79,841.697 659.821,847.044 660.892,852.391 662.002,857.738 663.153,863.085 664.343,868.432 665.574,873.779 666.846,879.126 668.159,884.473 669.512,889.82 670.907,895.167 672.343,900.514 673.821,905.861 675.341,911.208 676.904,916.555 678.508,921.902 680.156,927.249 681.847,932.596 683.581,937.943 685.359,943.291 687.181,948.638 689.047,953.985 690.958,959.332 692.914,964.679 "/>
            <line x1="692.914" y1="435.321" x2="712.601" y2="435.321" stroke="#7f7fff"/>
            <line x1="692.914" y1="964.679" x2="712.601" y2="964.679" stroke="#7f7fff"/>
            <polyline fill="none" stroke="#7f7fff"
                      points="712.601,435.321 713.421,440.668 714.223,446.015 715.009,451.362 715.777,456.709 716.528,462.057 717.263,467.404 717.98,472.751 718.681,478.098 719.364,483.445 720.031,488.792 720.68,494.139 721.313,499.486 721.929,504.833 722.528,510.18 723.11,515.527 723.675,520.874 724.224,526.221 724.755,531.568 725.27,536.915 725.769,542.262 726.25,547.609 726.715,552.956 727.163,558.303 727.594,563.65 728.009,568.997 728.407,574.344 728.788,579.692 729.152,585.039 729.5,590.386 729.832,595.733 730.146,601.08 730.444,606.427 730.726,611.774 730.991,617.121 731.239,622.468 731.471,627.815 731.686,633.162 731.885,638.509 732.067,643.856 732.232,649.203 732.381,654.55 732.513,659.897 732.629,665.244 732.728,670.591 732.811,675.938 732.877,681.285 732.927,686.632 732.96,691.979 732.976,697.326 732.976,702.674 732.96,708.021 732.927,713.368 732.877,718.715 732.811,724.062 732.728,729.409 732.629,734.756 732.513,740.103 732.381,745.45 732.232,750.797 732.067,756.144 731.885,761.491 731.686,766.838 731.471,772.185 731.239,777.532 730.991,782.879 730.726,788.226 730.444,793.573 730.146,798.92 729.832,804.267 729.5,809.614 729.152,814.961 728.788,820.308 728.407,825.656 728.009,831.003 727.594,836.35 727.163,841.697 726.715,847.044 726.25,852.391 725.769,857.738 725.27,863.085 724.755,868.432 724.224,873.779 723.675,879.126 723.11,884.473 722.528,889.82 721.929,895.167 721.313,900.514 720.68,905.861 720.031,911.208 719.364,916.555 718.681,921.902 717.98,927.249 717.263,932.596 716.528,937.943 715.777,943.291 715.009,948.638 714.223,953.985 713.421,959.332 712.601,964.679 "/>
        </g>
        <g>
            <polyline fill="none" stroke="#7f7fff"
                      points="789.235,456.639 789.193,461.556 789.142,466.472 789.083,471.389 789.016,476.305 788.94,481.221 788.857,486.138 788.766,491.054 788.667,495.97 788.562,500.887 788.45,505.803 788.333,510.72 788.209,515.636 788.081,520.552 787.948,525.469 787.812,530.385 787.672,535.301 787.529,540.218 787.385,545.134 787.238,550.051 787.091,554.967 786.943,559.883 786.796,564.8 786.648,569.716 786.502,574.632 786.358,579.549 786.215,584.465 786.075,589.382 785.938,594.298 785.804,599.214 785.674,604.131 785.548,609.047 785.426,613.963 785.31,618.88 785.198,623.796 785.092,628.713 784.991,633.629 784.897,638.545 784.809,643.462 784.727,648.378 784.652,653.294 784.584,658.211 784.524,663.127 784.47,668.044 784.424,672.96 784.385,677.876 784.354,682.793 784.331,687.709 784.315,692.625 784.307,697.542 784.307,702.458 784.315,707.375 784.331,712.291 784.354,717.207 784.385,722.124 784.424,727.04 784.47,731.956 784.524,736.873 784.584,741.789 784.652,746.706 784.727,751.622 784.809,756.538 784.897,761.455 784.991,766.371 785.092,771.287 785.198,776.204 785.31,781.12 785.426,786.037 785.548,790.953 785.674,795.869 785.804,800.786 785.938,805.702 786.075,810.618 786.215,815.535 786.358,820.451 786.502,825.368 786.648,830.284 786.796,835.2 786.943,840.117 787.091,845.033 787.238,849.949 787.385,854.866 787.529,859.782 787.672,864.699 787.812,869.615 787.948,874.531 788.081,879.448 788.209,884.364 788.333,889.28 788.45,894.197 788.562,899.113 788.667,904.03 788.766,908.946 788.857,913.862 788.94,918.779 789.016,923.695 789.083,928.611 789.142,933.528 789.193,938.444 789.235,943.361 "/>
            <line x1="789.235" y1="456.639" x2="812.234" y2="456.639" stroke="#7f7fff"/>
            <line x1="789.235" y1="943.361" x2="812.234" y2="943.361" stroke="#7f7fff"/>
            <polyline fill="none" stroke="#7f7fff"
                      points="812.234,456.639 814.565,461.556 816.839,466.472 819.055,471.389 821.215,476.305 823.32,481.221 825.369,486.138 827.365,491.054 829.306,495.97 831.194,500.887 833.03,505.803 834.814,510.72 836.546,515.636 838.227,520.552 839.858,525.469 841.438,530.385 842.969,535.301 844.451,540.218 845.884,545.134 847.269,550.051 848.605,554.967 849.894,559.883 851.136,564.8 852.33,569.716 853.478,574.632 854.58,579.549 855.635,584.465 856.644,589.382 857.608,594.298 858.527,599.214 859.4,604.131 860.228,609.047 861.012,613.963 861.751,618.88 862.446,623.796 863.096,628.713 863.703,633.629 864.265,638.545 864.784,643.462 865.259,648.378 865.691,653.294 866.079,658.211 866.424,663.127 866.725,668.044 866.984,672.96 867.199,677.876 867.371,682.793 867.5,687.709 867.586,692.625 867.629,697.542 867.629,702.458 867.586,707.375 867.5,712.291 867.371,717.207 867.199,722.124 866.984,727.04 866.725,731.956 866.424,736.873 866.079,741.789 865.691,746.706 865.259,751.622 864.784,756.538 864.265,761.455 863.703,766.371 863.096,771.287 862.446,776.204 861.751,781.12 861.012,786.037 860.228,790.953 859.4,795.869 858.527,800.786 857.608,805.702 856.644,810.618 855.635,815.535 854.58,820.451 853.478,825.368 852.33,830.284 851.136,835.2 849.894,840.117 848.605,845.033 847.269,849.949 845.884,854.866 844.451,859.782 842.969,864.699 841.438,869.615 839.858,874.531 838.227,879.448 836.546,884.364 834.814,889.28 833.03,894.197 831.194,899.113 829.306,904.03 827.365,908.946 825.369,913.862 823.32,918.779 821.215,923.695 819.055,928.611 816.839,933.528 814.565,938.444 812.234,943.361 "/>
            <line x1="913.293" y1="456.639" x2="913.293" y2="479.499" stroke="#7f7fff"/>
            <line x1="812.234" y1="456.639" x2="913.293" y2="456.639" stroke="#7f7fff"/>
            <line x1="913.293" y1="943.361" x2="913.293" y2="920.501" stroke="#7f7fff"/>
            <line x1="812.234" y1="943.361" x2="913.293" y2="943.361" stroke="#7f7fff"/>
            <polyline fill="none" stroke="#7f7fff"
                      points="913.293,479.499 911.952,483.953 910.64,488.408 909.359,492.862 908.107,497.317 906.884,501.772 905.69,506.226 904.525,510.681 903.389,515.135 902.282,519.59 901.204,524.044 900.154,528.499 899.132,532.954 898.139,537.408 897.173,541.863 896.236,546.317 895.327,550.772 894.445,555.226 893.591,559.681 892.765,564.136 891.966,568.59 891.195,573.045 890.451,577.499 889.735,581.954 889.045,586.408 888.383,590.863 887.747,595.318 887.139,599.772 886.558,604.227 886.003,608.681 885.475,613.136 884.974,617.59 884.5,622.045 884.052,626.5 883.631,630.954 883.236,635.409 882.868,639.863 882.527,644.318 882.211,648.772 881.923,653.227 881.66,657.682 881.424,662.136 881.214,666.591 881.03,671.045 880.873,675.5 880.742,679.954 880.637,684.409 880.558,688.864 880.506,693.318 880.48,697.773 880.48,702.227 880.506,706.682 880.558,711.136 880.637,715.591 880.742,720.046 880.873,724.5 881.03,728.955 881.214,733.409 881.424,737.864 881.66,742.318 881.923,746.773 882.211,751.228 882.527,755.682 882.868,760.137 883.236,764.591 883.631,769.046 884.052,773.5 884.5,777.955 884.974,782.41 885.475,786.864 886.003,791.319 886.558,795.773 887.139,800.228 887.747,804.682 888.383,809.137 889.045,813.592 889.735,818.046 890.451,822.501 891.195,826.955 891.966,831.41 892.765,835.864 893.591,840.319 894.445,844.774 895.327,849.228 896.236,853.683 897.173,858.137 898.139,862.592 899.132,867.046 900.154,871.501 901.204,875.956 902.282,880.41 903.389,884.865 904.525,889.319 905.69,893.774 906.884,898.228 908.107,902.683 909.359,907.138 910.64,911.592 911.952,916.047 913.293,920.501 "/>
        </g>
        <g>
            <polyline fill="none" stroke="#7f7fff"
                      points="944.639,463.703 942.585,468.476 940.58,473.25 938.624,478.024 936.716,482.797 934.857,487.571 933.044,492.345 931.279,497.118 929.56,501.892 927.887,506.666 926.259,511.44 924.677,516.213 923.14,520.987 921.647,525.761 920.198,530.534 918.793,535.308 917.432,540.082 916.114,544.855 914.838,549.629 913.605,554.403 912.415,559.176 911.266,563.95 910.159,568.724 909.094,573.497 908.07,578.271 907.087,583.045 906.145,587.818 905.244,592.592 904.383,597.366 903.562,602.139 902.782,606.913 902.041,611.687 901.341,616.461 900.68,621.234 900.059,626.008 899.477,630.782 898.934,635.555 898.431,640.329 897.967,645.103 897.541,649.876 897.155,654.65 896.807,659.424 896.499,664.197 896.229,668.971 895.997,673.745 895.805,678.518 895.651,683.292 895.535,688.066 895.458,692.839 895.419,697.613 895.419,702.387 895.458,707.161 895.535,711.934 895.651,716.708 895.805,721.482 895.997,726.255 896.229,731.029 896.499,735.803 896.807,740.576 897.155,745.35 897.541,750.124 897.967,754.897 898.431,759.671 898.934,764.445 899.477,769.218 900.059,773.992 900.68,778.766 901.341,783.539 902.041,788.313 902.782,793.087 903.562,797.861 904.383,802.634 905.244,807.408 906.145,812.182 907.087,816.955 908.07,821.729 909.094,826.503 910.159,831.276 911.266,836.05 912.415,840.824 913.605,845.597 914.838,850.371 916.114,855.145 917.432,859.918 918.793,864.692 920.198,869.466 921.647,874.239 923.14,879.013 924.677,883.787 926.259,888.56 927.887,893.334 929.56,898.108 931.279,902.882 933.044,907.655 934.857,912.429 936.716,917.203 938.624,921.976 940.58,926.75 942.585,931.524 944.639,936.297 "/>
            <line x1="996.463" y1="463.703" x2="996.463" y2="476.545" stroke="#7f7fff"/>
            <line x1="944.639" y1="463.703" x2="996.463" y2="463.703" stroke="#7f7fff"/>
            <line x1="996.463" y1="936.297" x2="996.463" y2="923.455" stroke="#7f7fff"/>
            <line x1="944.639" y1="936.297" x2="996.463" y2="936.297" stroke="#7f7fff"/>
            <polyline fill="none" stroke="#7f7fff"
                      points="996.463,476.545 992.32,481.059 988.329,485.573 984.482,490.088 980.774,494.602 977.197,499.116 973.748,503.63 970.42,508.145 967.209,512.659 964.112,517.173 961.124,521.687 958.241,526.202 955.461,530.716 952.781,535.23 950.197,539.744 947.707,544.259 945.308,548.773 942.999,553.287 940.778,557.801 938.641,562.316 936.588,566.83 934.617,571.344 932.726,575.858 930.914,580.373 929.178,584.887 927.519,589.401 925.935,593.915 924.424,598.43 922.986,602.944 921.619,607.458 920.323,611.972 919.096,616.486 917.939,621.001 916.849,625.515 915.827,630.029 914.872,634.543 913.983,639.058 913.16,643.572 912.402,648.086 911.709,652.6 911.08,657.115 910.515,661.629 910.014,666.143 909.575,670.657 909.2,675.172 908.888,679.686 908.639,684.2 908.452,688.714 908.327,693.229 908.265,697.743 908.265,702.257 908.327,706.771 908.452,711.286 908.639,715.8 908.888,720.314 909.2,724.828 909.575,729.343 910.014,733.857 910.515,738.371 911.08,742.885 911.709,747.4 912.402,751.914 913.16,756.428 913.983,760.942 914.872,765.457 915.827,769.971 916.849,774.485 917.939,778.999 919.096,783.514 920.323,788.028 921.619,792.542 922.986,797.056 924.424,801.57 925.935,806.085 927.519,810.599 929.178,815.113 930.914,819.627 932.726,824.142 934.617,828.656 936.588,833.17 938.641,837.684 940.778,842.199 942.999,846.713 945.308,851.227 947.707,855.741 950.197,860.256 952.781,864.77 955.461,869.284 958.241,873.798 961.124,878.313 964.112,882.827 967.209,887.341 970.42,891.855 973.748,896.37 977.197,900.884 980.774,905.398 984.482,909.912 988.329,914.427 992.32,918.941 996.463,923.455 "/>
            <line x1="996.463" y1="461.905" x2="996.463" y2="476.545" stroke="#7f7fff"/>
            <line x1="996.463" y1="461.905" x2="1032.248" y2="461.905" stroke="#7f7fff"/>
            <line x1="996.463" y1="938.095" x2="996.463" y2="923.455" stroke="#7f7fff"/>
            <line x1="996.463" y1="938.095" x2="1032.248" y2="938.095" stroke="#7f7fff"/>
            <polyline fill="none" stroke="#7f7fff"
                      points="1032.248,461.905 1032.942,466.715 1033.621,471.525 1034.286,476.335 1034.936,481.145 1035.572,485.955 1036.194,490.765 1036.801,495.575 1037.394,500.385 1037.973,505.195 1038.537,510.005 1039.087,514.815 1039.623,519.625 1040.144,524.435 1040.651,529.245 1041.144,534.055 1041.623,538.865 1042.087,543.675 1042.538,548.485 1042.974,553.295 1043.396,558.105 1043.804,562.915 1044.197,567.725 1044.577,572.535 1044.942,577.345 1045.293,582.155 1045.63,586.965 1045.953,591.775 1046.262,596.585 1046.557,601.395 1046.838,606.205 1047.104,611.015 1047.357,615.825 1047.595,620.635 1047.82,625.445 1048.03,630.255 1048.226,635.065 1048.409,639.875 1048.577,644.685 1048.731,649.495 1048.871,654.305 1048.997,659.115 1049.11,663.925 1049.208,668.735 1049.292,673.545 1049.362,678.355 1049.418,683.165 1049.46,687.975 1049.488,692.785 1049.502,697.595 1049.502,702.405 1049.488,707.215 1049.46,712.025 1049.418,716.835 1049.362,721.645 1049.292,726.455 1049.208,731.265 1049.11,736.075 1048.997,740.885 1048.871,745.695 1048.731,750.505 1048.577,755.315 1048.409,760.125 1048.226,764.935 1048.03,769.745 1047.82,774.555 1047.595,779.365 1047.357,784.175 1047.104,788.985 1046.838,793.795 1046.557,798.605 1046.262,803.415 1045.953,808.225 1045.63,813.035 1045.293,817.845 1044.942,822.655 1044.577,827.465 1044.197,832.275 1043.804,837.085 1043.396,841.895 1042.974,846.705 1042.538,851.515 1042.087,856.325 1041.623,861.135 1041.144,865.945 1040.651,870.755 1040.144,875.565 1039.623,880.375 1039.087,885.185 1038.537,889.995 1037.973,894.805 1037.394,899.615 1036.801,904.425 1036.194,909.235 1035.572,914.045 1034.936,918.855 1034.286,923.665 1033.621,928.475 1032.942,933.285 1032.248,938.095 "/>
        </g>
        <g>
            <polyline fill="none" stroke="#7f7fff"
                      points="1093.094,462.804 1091.377,467.596 1089.699,472.387 1088.06,477.179 1086.461,481.971 1084.899,486.763 1083.376,491.555 1081.891,496.347 1080.443,501.138 1079.033,505.93 1077.661,510.722 1076.325,515.514 1075.026,520.306 1073.764,525.098 1072.538,529.89 1071.348,534.681 1070.195,539.473 1069.077,544.265 1067.994,549.057 1066.948,553.849 1065.936,558.641 1064.96,563.432 1064.018,568.224 1063.112,573.016 1062.24,577.808 1061.403,582.6 1060.6,587.392 1059.831,592.184 1059.097,596.975 1058.397,601.767 1057.731,606.559 1057.099,611.351 1056.5,616.143 1055.935,620.935 1055.404,625.726 1054.907,630.518 1054.443,635.31 1054.012,640.102 1053.615,644.894 1053.251,649.686 1052.92,654.477 1052.623,659.269 1052.358,664.061 1052.127,668.853 1051.929,673.645 1051.764,678.437 1051.632,683.229 1051.533,688.02 1051.467,692.812 1051.434,697.604 1051.434,702.396 1051.467,707.188 1051.533,711.98 1051.632,716.771 1051.764,721.563 1051.929,726.355 1052.127,731.147 1052.358,735.939 1052.623,740.731 1052.92,745.523 1053.251,750.314 1053.615,755.106 1054.012,759.898 1054.443,764.69 1054.907,769.482 1055.404,774.274 1055.935,779.065 1056.5,783.857 1057.099,788.649 1057.731,793.441 1058.397,798.233 1059.097,803.025 1059.831,807.816 1060.6,812.608 1061.403,817.4 1062.24,822.192 1063.112,826.984 1064.018,831.776 1064.96,836.568 1065.936,841.359 1066.948,846.151 1067.994,850.943 1069.077,855.735 1070.195,860.527 1071.348,865.319 1072.538,870.11 1073.764,874.902 1075.026,879.694 1076.325,884.486 1077.661,889.278 1079.033,894.07 1080.443,898.862 1081.891,903.653 1083.376,908.445 1084.899,913.237 1086.461,918.029 1088.06,922.821 1089.699,927.613 1091.377,932.404 1093.094,937.196 "/>
            <line x1="1093.094" y1="462.804" x2="1114.164" y2="462.804" stroke="#7f7fff"/>
            <line x1="1093.094" y1="937.196" x2="1114.164" y2="937.196" stroke="#7f7fff"/>
            <polyline fill="none" stroke="#7f7fff"
                      points="1114.164,462.804 1115.479,467.596 1116.765,472.387 1118.022,477.179 1119.251,481.971 1120.451,486.763 1121.623,491.555 1122.767,496.347 1123.883,501.138 1124.971,505.93 1126.031,510.722 1127.063,515.514 1128.067,520.306 1129.045,525.098 1129.994,529.89 1130.916,534.681 1131.811,539.473 1132.679,544.265 1133.52,549.057 1134.333,553.849 1135.12,558.641 1135.88,563.432 1136.613,568.224 1137.319,573.016 1137.998,577.808 1138.651,582.6 1139.277,587.392 1139.877,592.184 1140.45,596.975 1140.997,601.767 1141.518,606.559 1142.012,611.351 1142.48,616.143 1142.922,620.935 1143.337,625.726 1143.727,630.518 1144.09,635.31 1144.427,640.102 1144.738,644.894 1145.024,649.686 1145.283,654.477 1145.516,659.269 1145.723,664.061 1145.904,668.853 1146.06,673.645 1146.189,678.437 1146.293,683.229 1146.37,688.02 1146.422,692.812 1146.448,697.604 1146.448,702.396 1146.422,707.188 1146.37,711.98 1146.293,716.771 1146.189,721.563 1146.06,726.355 1145.904,731.147 1145.723,735.939 1145.516,740.731 1145.283,745.523 1145.024,750.314 1144.738,755.106 1144.427,759.898 1144.09,764.69 1143.727,769.482 1143.337,774.274 1142.922,779.065 1142.48,783.857 1142.012,788.649 1141.518,793.441 1140.997,798.233 1140.45,803.025 1139.877,807.816 1139.277,812.608 1138.651,817.4 1137.998,822.192 1137.319,826.984 1136.613,831.776 1135.88,836.568 1135.12,841.359 1134.333,846.151 1133.52,850.943 1132.679,855.735 1131.811,860.527 1130.916,865.319 1129.994,870.11 1129.045,874.902 1128.067,879.694 1127.063,884.486 1126.031,889.278 1124.971,894.07 1123.883,898.862 1122.767,903.653 1121.623,908.445 1120.451,913.237 1119.251,918.029 1118.022,922.821 1116.765,927.613 1115.479,932.404 1114.164,937.196 "/>
        </g>
        <g>
            <polyline fill="none" stroke="#7f7fff"
                      points="1203.205,496.964 1203.525,501.066 1203.838,505.168 1204.145,509.269 1204.445,513.371 1204.738,517.473 1205.025,521.575 1205.305,525.676 1205.579,529.778 1205.846,533.88 1206.107,537.981 1206.361,542.083 1206.609,546.185 1206.85,550.287 1207.084,554.388 1207.312,558.49 1207.534,562.592 1207.749,566.694 1207.957,570.795 1208.159,574.897 1208.354,578.999 1208.543,583.101 1208.726,587.202 1208.901,591.304 1209.071,595.406 1209.233,599.507 1209.39,603.609 1209.539,607.711 1209.682,611.813 1209.819,615.914 1209.949,620.016 1210.073,624.118 1210.19,628.22 1210.301,632.321 1210.405,636.423 1210.502,640.525 1210.593,644.627 1210.678,648.728 1210.756,652.83 1210.828,656.932 1210.893,661.034 1210.951,665.135 1211.003,669.237 1211.049,673.339 1211.088,677.44 1211.12,681.542 1211.146,685.644 1211.166,689.746 1211.179,693.847 1211.185,697.949 1211.185,702.051 1211.179,706.153 1211.166,710.254 1211.146,714.356 1211.12,718.458 1211.088,722.56 1211.049,726.661 1211.003,730.763 1210.951,734.865 1210.893,738.966 1210.828,743.068 1210.756,747.17 1210.678,751.272 1210.593,755.373 1210.502,759.475 1210.405,763.577 1210.301,767.679 1210.19,771.78 1210.073,775.882 1209.949,779.984 1209.819,784.086 1209.682,788.187 1209.539,792.289 1209.39,796.391 1209.233,800.493 1209.071,804.594 1208.901,808.696 1208.726,812.798 1208.543,816.899 1208.354,821.001 1208.159,825.103 1207.957,829.205 1207.749,833.306 1207.534,837.408 1207.312,841.51 1207.084,845.612 1206.85,849.713 1206.609,853.815 1206.361,857.917 1206.107,862.019 1205.846,866.12 1205.579,870.222 1205.305,874.324 1205.025,878.425 1204.738,882.527 1204.445,886.629 1204.145,890.731 1203.838,894.832 1203.525,898.934 1203.205,903.036 "/>
            <line x1="1280.673" y1="496.964" x2="1280.673" y2="509.293" stroke="#7f7fff"/>
            <line x1="1203.205" y1="496.964" x2="1280.673" y2="496.964" stroke="#7f7fff"/>
            <line x1="1280.673" y1="903.036" x2="1280.673" y2="890.707" stroke="#7f7fff"/>
            <line x1="1203.205" y1="903.036" x2="1280.673" y2="903.036" stroke="#7f7fff"/>
            <polyline fill="none" stroke="#7f7fff"
                      points="1280.673,509.293 1278.132,513.145 1275.664,516.998 1273.268,520.851 1270.942,524.703 1268.684,528.556 1266.492,532.409 1264.366,536.261 1262.304,540.114 1260.304,543.967 1258.366,547.819 1256.488,551.672 1254.668,555.525 1252.907,559.377 1251.203,563.23 1249.555,567.083 1247.962,570.935 1246.424,574.788 1244.94,578.641 1243.508,582.493 1242.129,586.346 1240.801,590.199 1239.524,594.051 1238.297,597.904 1237.12,601.757 1235.992,605.609 1234.914,609.462 1233.883,613.315 1232.9,617.168 1231.964,621.02 1231.076,624.873 1230.234,628.726 1229.438,632.578 1228.689,636.431 1227.984,640.284 1227.326,644.136 1226.712,647.989 1226.143,651.842 1225.619,655.694 1225.139,659.547 1224.703,663.4 1224.312,667.252 1223.964,671.105 1223.66,674.958 1223.4,678.81 1223.183,682.663 1223.01,686.516 1222.88,690.368 1222.793,694.221 1222.75,698.074 1222.75,701.926 1222.793,705.779 1222.88,709.632 1223.01,713.484 1223.183,717.337 1223.4,721.19 1223.66,725.042 1223.964,728.895 1224.312,732.748 1224.703,736.6 1225.139,740.453 1225.619,744.306 1226.143,748.158 1226.712,752.011 1227.326,755.864 1227.984,759.716 1228.689,763.569 1229.438,767.422 1230.234,771.274 1231.076,775.127 1231.964,778.98 1232.9,782.832 1233.883,786.685 1234.914,790.538 1235.992,794.391 1237.12,798.243 1238.297,802.096 1239.524,805.949 1240.801,809.801 1242.129,813.654 1243.508,817.507 1244.94,821.359 1246.424,825.212 1247.962,829.065 1249.555,832.917 1251.203,836.77 1252.907,840.623 1254.668,844.475 1256.488,848.328 1258.366,852.181 1260.304,856.033 1262.304,859.886 1264.366,863.739 1266.492,867.591 1268.684,871.444 1270.942,875.297 1273.268,879.149 1275.664,883.002 1278.132,886.855 1280.673,890.707 "/>
        </g>
        <g>
            <polyline fill="none" stroke="#7f7fff"
                      points="1416.142,511.091 1414.53,514.907 1412.957,518.723 1411.421,522.54 1409.924,526.356 1408.464,530.172 1407.041,533.989 1405.654,537.805 1404.304,541.621 1402.99,545.438 1401.712,549.254 1400.469,553.07 1399.261,556.887 1398.088,560.703 1396.949,564.519 1395.845,568.336 1394.775,572.152 1393.739,575.969 1392.736,579.785 1391.767,583.601 1390.831,587.418 1389.928,591.234 1389.057,595.05 1388.22,598.867 1387.414,602.683 1386.641,606.499 1385.901,610.316 1385.192,614.132 1384.515,617.948 1383.869,621.765 1383.255,625.581 1382.673,629.397 1382.122,633.214 1381.602,637.03 1381.113,640.847 1380.655,644.663 1380.228,648.479 1379.832,652.296 1379.467,656.112 1379.132,659.928 1378.828,663.745 1378.555,667.561 1378.312,671.377 1378.099,675.194 1377.917,679.01 1377.766,682.826 1377.644,686.643 1377.553,690.459 1377.493,694.275 1377.462,698.092 1377.462,701.908 1377.493,705.725 1377.553,709.541 1377.644,713.357 1377.766,717.174 1377.917,720.99 1378.099,724.806 1378.312,728.623 1378.555,732.439 1378.828,736.255 1379.132,740.072 1379.467,743.888 1379.832,747.704 1380.228,751.521 1380.655,755.337 1381.113,759.153 1381.602,762.97 1382.122,766.786 1382.673,770.603 1383.255,774.419 1383.869,778.235 1384.515,782.052 1385.192,785.868 1385.901,789.684 1386.641,793.501 1387.414,797.317 1388.22,801.133 1389.057,804.95 1389.928,808.766 1390.831,812.582 1391.767,816.399 1392.736,820.215 1393.739,824.031 1394.775,827.848 1395.845,831.664 1396.949,835.481 1398.088,839.297 1399.261,843.113 1400.469,846.93 1401.712,850.746 1402.99,854.562 1404.304,858.379 1405.654,862.195 1407.041,866.011 1408.464,869.828 1409.924,873.644 1411.421,877.46 1412.957,881.277 1414.53,885.093 1416.142,888.909 "/>
            <line x1="1444.239" y1="511.091" x2="1444.239" y2="524.19" stroke="#7f7fff"/>
            <line x1="1416.142" y1="511.091" x2="1444.239" y2="511.091" stroke="#7f7fff"/>
            <line x1="1444.239" y1="888.909" x2="1444.239" y2="875.81" stroke="#7f7fff"/>
            <line x1="1416.142" y1="888.909" x2="1444.239" y2="888.909" stroke="#7f7fff"/>
            <polyline fill="none" stroke="#7f7fff"
                      points="1444.239,524.19 1441.766,527.741 1439.367,531.293 1437.039,534.845 1434.782,538.397 1432.592,541.948 1430.469,545.5 1428.411,549.052 1426.415,552.603 1424.482,556.155 1422.609,559.707 1420.795,563.259 1419.04,566.81 1417.341,570.362 1415.698,573.914 1414.11,577.466 1412.576,581.017 1411.095,584.569 1409.667,588.121 1408.29,591.672 1406.963,595.224 1405.687,598.776 1404.46,602.328 1403.282,605.879 1402.152,609.431 1401.069,612.983 1400.034,616.534 1399.045,620.086 1398.102,623.638 1397.205,627.19 1396.353,630.741 1395.546,634.293 1394.784,637.845 1394.066,641.397 1393.391,644.948 1392.76,648.5 1392.172,652.052 1391.628,655.603 1391.126,659.155 1390.666,662.707 1390.249,666.259 1389.874,669.81 1389.542,673.362 1389.251,676.914 1389.002,680.466 1388.794,684.017 1388.628,687.569 1388.504,691.121 1388.421,694.672 1388.38,698.224 1388.38,701.776 1388.421,705.328 1388.504,708.879 1388.628,712.431 1388.794,715.983 1389.002,719.534 1389.251,723.086 1389.542,726.638 1389.874,730.19 1390.249,733.741 1390.666,737.293 1391.126,740.845 1391.628,744.397 1392.172,747.948 1392.76,751.5 1393.391,755.052 1394.066,758.603 1394.784,762.155 1395.546,765.707 1396.353,769.259 1397.205,772.81 1398.102,776.362 1399.045,779.914 1400.034,783.466 1401.069,787.017 1402.152,790.569 1403.282,794.121 1404.46,797.672 1405.687,801.224 1406.963,804.776 1408.29,808.328 1409.667,811.879 1411.095,815.431 1412.576,818.983 1414.11,822.534 1415.698,826.086 1417.341,829.638 1419.04,833.19 1420.795,836.741 1422.609,840.293 1424.482,843.845 1426.415,847.397 1428.411,850.948 1430.469,854.5 1432.592,858.052 1434.782,861.603 1437.039,865.155 1439.367,868.707 1441.766,872.259 1444.239,875.81 "/>
            <line x1="1444.239" y1="511.091" x2="1444.239" y2="524.19" stroke="#7f7fff"/>
            <line x1="1444.239" y1="511.091" x2="1477.04" y2="511.091" stroke="#7f7fff"/>
            <line x1="1444.239" y1="888.909" x2="1444.239" y2="875.81" stroke="#7f7fff"/>
            <line x1="1444.239" y1="888.909" x2="1477.04" y2="888.909" stroke="#7f7fff"/>
            <polyline fill="none" stroke="#7f7fff"
                      points="1477.04,511.091 1477.316,514.907 1477.586,518.723 1477.85,522.54 1478.109,526.356 1478.362,530.172 1478.609,533.989 1478.851,537.805 1479.087,541.621 1479.317,545.438 1479.542,549.254 1479.761,553.07 1479.975,556.887 1480.183,560.703 1480.385,564.519 1480.581,568.336 1480.772,572.152 1480.958,575.969 1481.137,579.785 1481.311,583.601 1481.48,587.418 1481.643,591.234 1481.8,595.05 1481.952,598.867 1482.098,602.683 1482.238,606.499 1482.373,610.316 1482.502,614.132 1482.625,617.948 1482.743,621.765 1482.855,625.581 1482.962,629.397 1483.063,633.214 1483.158,637.03 1483.248,640.847 1483.332,644.663 1483.411,648.479 1483.484,652.296 1483.551,656.112 1483.613,659.928 1483.669,663.745 1483.719,667.561 1483.764,671.377 1483.804,675.194 1483.837,679.01 1483.865,682.826 1483.888,686.643 1483.905,690.459 1483.916,694.275 1483.921,698.092 1483.921,701.908 1483.916,705.725 1483.905,709.541 1483.888,713.357 1483.865,717.174 1483.837,720.99 1483.804,724.806 1483.764,728.623 1483.719,732.439 1483.669,736.255 1483.613,740.072 1483.551,743.888 1483.484,747.704 1483.411,751.521 1483.332,755.337 1483.248,759.153 1483.158,762.97 1483.063,766.786 1482.962,770.603 1482.855,774.419 1482.743,778.235 1482.625,782.052 1482.502,785.868 1482.373,789.684 1482.238,793.501 1482.098,797.317 1481.952,801.133 1481.8,804.95 1481.643,808.766 1481.48,812.582 1481.311,816.399 1481.137,820.215 1480.958,824.031 1480.772,827.848 1480.581,831.664 1480.385,835.481 1480.183,839.297 1479.975,843.113 1479.761,846.93 1479.542,850.746 1479.317,854.562 1479.087,858.379 1478.851,862.195 1478.609,866.011 1478.362,869.828 1478.109,873.644 1477.85,877.46 1477.586,881.277 1477.316,885.093 1477.04,888.909 "/>
        </g>
        <g>
            <polyline fill="none" stroke="#7f7fff"
                      points="1522.297,498.89 1520.792,502.953 1519.322,507.016 1517.886,511.079 1516.484,515.142 1515.117,519.205 1513.783,523.267 1512.482,527.33 1511.215,531.393 1509.98,535.456 1508.779,539.519 1507.61,543.581 1506.473,547.644 1505.369,551.707 1504.296,555.77 1503.255,559.833 1502.246,563.896 1501.269,567.958 1500.322,572.021 1499.407,576.084 1498.522,580.147 1497.669,584.21 1496.846,588.272 1496.054,592.335 1495.292,596.398 1494.56,600.461 1493.858,604.524 1493.187,608.587 1492.545,612.649 1491.933,616.712 1491.351,620.775 1490.799,624.838 1490.276,628.901 1489.783,632.963 1489.319,637.026 1488.885,641.089 1488.479,645.152 1488.103,649.215 1487.756,653.278 1487.439,657.34 1487.15,661.403 1486.89,665.466 1486.659,669.529 1486.457,673.592 1486.284,677.654 1486.14,681.717 1486.025,685.78 1485.939,689.843 1485.881,693.906 1485.852,697.969 1485.852,702.031 1485.881,706.094 1485.939,710.157 1486.025,714.22 1486.14,718.283 1486.284,722.346 1486.457,726.408 1486.659,730.471 1486.89,734.534 1487.15,738.597 1487.439,742.66 1487.756,746.722 1488.103,750.785 1488.479,754.848 1488.885,758.911 1489.319,762.974 1489.783,767.037 1490.276,771.099 1490.799,775.162 1491.351,779.225 1491.933,783.288 1492.545,787.351 1493.187,791.413 1493.858,795.476 1494.56,799.539 1495.292,803.602 1496.054,807.665 1496.846,811.728 1497.669,815.79 1498.522,819.853 1499.407,823.916 1500.322,827.979 1501.269,832.042 1502.246,836.104 1503.255,840.167 1504.296,844.23 1505.369,848.293 1506.473,852.356 1507.61,856.419 1508.779,860.481 1509.98,864.544 1511.215,868.607 1512.482,872.67 1513.783,876.733 1515.117,880.795 1516.484,884.858 1517.886,888.921 1519.322,892.984 1520.792,897.047 1522.297,901.11 "/>
            <line x1="1522.297" y1="498.89" x2="1543.884" y2="498.89" stroke="#7f7fff"/>
            <line x1="1522.297" y1="901.11" x2="1543.884" y2="901.11" stroke="#7f7fff"/>
            <polyline fill="none" stroke="#7f7fff"
                      points="1543.884,498.89 1544.673,502.953 1545.445,507.016 1546.201,511.079 1546.94,515.142 1547.662,519.205 1548.368,523.267 1549.057,527.33 1549.73,531.393 1550.387,535.456 1551.027,539.519 1551.65,543.581 1552.258,547.644 1552.849,551.707 1553.423,555.77 1553.982,559.833 1554.524,563.896 1555.05,567.958 1555.56,572.021 1556.053,576.084 1556.531,580.147 1556.992,584.21 1557.437,588.272 1557.866,592.335 1558.279,596.398 1558.676,600.461 1559.057,604.524 1559.422,608.587 1559.771,612.649 1560.105,616.712 1560.422,620.775 1560.723,624.838 1561.008,628.901 1561.277,632.963 1561.531,637.026 1561.768,641.089 1561.99,645.152 1562.195,649.215 1562.385,653.278 1562.559,657.34 1562.718,661.403 1562.86,665.466 1562.986,669.529 1563.097,673.592 1563.192,677.654 1563.271,681.717 1563.334,685.78 1563.382,689.843 1563.413,693.906 1563.429,697.969 1563.429,702.031 1563.413,706.094 1563.382,710.157 1563.334,714.22 1563.271,718.283 1563.192,722.346 1563.097,726.408 1562.986,730.471 1562.86,734.534 1562.718,738.597 1562.559,742.66 1562.385,746.722 1562.195,750.785 1561.99,754.848 1561.768,758.911 1561.531,762.974 1561.277,767.037 1561.008,771.099 1560.723,775.162 1560.422,779.225 1560.105,783.288 1559.771,787.351 1559.422,791.413 1559.057,795.476 1558.676,799.539 1558.279,803.602 1557.866,807.665 1557.437,811.728 1556.992,815.79 1556.531,819.853 1556.053,823.916 1555.56,827.979 1555.05,832.042 1554.524,836.104 1553.982,840.167 1553.423,844.23 1552.849,848.293 1552.258,852.356 1551.65,856.419 1551.027,860.481 1550.387,864.544 1549.73,868.607 1549.057,872.67 1548.368,876.733 1547.662,880.795 1546.94,884.858 1546.201,888.921 1545.445,892.984 1544.673,897.047 1543.884,901.11 "/>
        </g>
        <g>
            <polyline fill="none" stroke="#7f7fff"
                      points="1558.397,503.128 1558.768,507.106 1559.131,511.083 1559.487,515.06 1559.834,519.037 1560.175,523.014 1560.508,526.992 1560.833,530.969 1561.15,534.946 1561.46,538.923 1561.762,542.9 1562.057,546.878 1562.344,550.855 1562.624,554.832 1562.896,558.809 1563.16,562.786 1563.417,566.764 1563.666,570.741 1563.908,574.718 1564.142,578.695 1564.368,582.672 1564.587,586.65 1564.798,590.627 1565.002,594.604 1565.198,598.581 1565.387,602.558 1565.568,606.536 1565.741,610.513 1565.907,614.49 1566.066,618.467 1566.216,622.445 1566.36,626.422 1566.495,630.399 1566.624,634.376 1566.744,638.353 1566.857,642.331 1566.963,646.308 1567.061,650.285 1567.151,654.262 1567.234,658.239 1567.31,662.217 1567.377,666.194 1567.438,670.171 1567.491,674.148 1567.536,678.125 1567.573,682.103 1567.604,686.08 1567.626,690.057 1567.641,694.034 1567.649,698.011 1567.649,701.989 1567.641,705.966 1567.626,709.943 1567.604,713.92 1567.573,717.897 1567.536,721.875 1567.491,725.852 1567.438,729.829 1567.377,733.806 1567.31,737.783 1567.234,741.761 1567.151,745.738 1567.061,749.715 1566.963,753.692 1566.857,757.669 1566.744,761.647 1566.624,765.624 1566.495,769.601 1566.36,773.578 1566.216,777.555 1566.066,781.533 1565.907,785.51 1565.741,789.487 1565.568,793.464 1565.387,797.442 1565.198,801.419 1565.002,805.396 1564.798,809.373 1564.587,813.35 1564.368,817.328 1564.142,821.305 1563.908,825.282 1563.666,829.259 1563.417,833.236 1563.16,837.214 1562.896,841.191 1562.624,845.168 1562.344,849.145 1562.057,853.122 1561.762,857.1 1561.46,861.077 1561.15,865.054 1560.833,869.031 1560.508,873.008 1560.175,876.986 1559.834,880.963 1559.487,884.94 1559.131,888.917 1558.768,892.894 1558.397,896.872 "/>
            <line x1="1636.707" y1="503.128" x2="1636.707" y2="525.602" stroke="#7f7fff"/>
            <line x1="1558.397" y1="503.128" x2="1636.707" y2="503.128" stroke="#7f7fff"/>
            <line x1="1636.707" y1="896.872" x2="1636.707" y2="874.398" stroke="#7f7fff"/>
            <line x1="1558.397" y1="896.872" x2="1636.707" y2="896.872" stroke="#7f7fff"/>
            <polyline fill="none" stroke="#7f7fff"
                      points="1636.707,525.602 1634.141,529.125 1631.654,532.649 1629.243,536.172 1626.906,539.695 1624.642,543.218 1622.447,546.741 1620.321,550.265 1618.262,553.788 1616.267,557.311 1614.336,560.834 1612.467,564.357 1610.659,567.881 1608.911,571.404 1607.22,574.927 1605.587,578.45 1604.01,581.973 1602.489,585.496 1601.021,589.02 1599.607,592.543 1598.245,596.066 1596.936,599.589 1595.677,603.112 1594.469,606.636 1593.31,610.159 1592.201,613.682 1591.139,617.205 1590.126,620.728 1589.161,624.252 1588.242,627.775 1587.37,631.298 1586.544,634.821 1585.763,638.344 1585.028,641.867 1584.338,645.391 1583.692,648.914 1583.091,652.437 1582.534,655.96 1582.02,659.483 1581.551,663.007 1581.124,666.53 1580.741,670.053 1580.401,673.576 1580.103,677.099 1579.849,680.622 1579.637,684.146 1579.467,687.669 1579.34,691.192 1579.255,694.715 1579.213,698.238 1579.213,701.762 1579.255,705.285 1579.34,708.808 1579.467,712.331 1579.637,715.854 1579.849,719.378 1580.103,722.901 1580.401,726.424 1580.741,729.947 1581.124,733.47 1581.551,736.993 1582.02,740.517 1582.534,744.04 1583.091,747.563 1583.692,751.086 1584.338,754.609 1585.028,758.133 1585.763,761.656 1586.544,765.179 1587.37,768.702 1588.242,772.225 1589.161,775.748 1590.126,779.272 1591.139,782.795 1592.201,786.318 1593.31,789.841 1594.469,793.364 1595.677,796.888 1596.936,800.411 1598.245,803.934 1599.607,807.457 1601.021,810.98 1602.489,814.504 1604.01,818.027 1605.587,821.55 1607.22,825.073 1608.911,828.596 1610.659,832.119 1612.467,835.643 1614.336,839.166 1616.267,842.689 1618.262,846.212 1620.321,849.735 1622.447,853.259 1624.642,856.782 1626.906,860.305 1629.243,863.828 1631.654,867.351 1634.141,870.875 1636.707,874.398 "/>
        </g>
        <g>
            <polyline fill="none" stroke="#7f7fff"
                      points="1656.71,498.248 1655.811,502.324 1654.923,506.4 1654.044,510.476 1653.174,514.551 1652.311,518.627 1651.458,522.703 1650.613,526.779 1649.779,530.855 1648.955,534.93 1648.143,539.006 1647.344,543.082 1646.557,547.158 1645.785,551.234 1645.027,555.309 1644.285,559.385 1643.559,563.461 1642.849,567.537 1642.157,571.613 1641.482,575.688 1640.825,579.764 1640.186,583.84 1639.567,587.916 1638.966,591.992 1638.385,596.067 1637.824,600.143 1637.284,604.219 1636.763,608.295 1636.264,612.37 1635.785,616.446 1635.328,620.522 1634.892,624.598 1634.478,628.674 1634.086,632.749 1633.716,636.825 1633.369,640.901 1633.044,644.977 1632.741,649.053 1632.461,653.128 1632.204,657.204 1631.971,661.28 1631.76,665.356 1631.572,669.432 1631.408,673.507 1631.267,677.583 1631.149,681.659 1631.055,685.735 1630.984,689.811 1630.937,693.886 1630.914,697.962 1630.914,702.038 1630.937,706.114 1630.984,710.189 1631.055,714.265 1631.149,718.341 1631.267,722.417 1631.408,726.493 1631.572,730.568 1631.76,734.644 1631.971,738.72 1632.204,742.796 1632.461,746.872 1632.741,750.947 1633.044,755.023 1633.369,759.099 1633.716,763.175 1634.086,767.251 1634.478,771.326 1634.892,775.402 1635.328,779.478 1635.785,783.554 1636.264,787.63 1636.763,791.705 1637.284,795.781 1637.824,799.857 1638.385,803.933 1638.966,808.008 1639.567,812.084 1640.186,816.16 1640.825,820.236 1641.482,824.312 1642.157,828.387 1642.849,832.463 1643.559,836.539 1644.285,840.615 1645.027,844.691 1645.785,848.766 1646.557,852.842 1647.344,856.918 1648.143,860.994 1648.955,865.07 1649.779,869.145 1650.613,873.221 1651.458,877.297 1652.311,881.373 1653.174,885.449 1654.044,889.524 1654.923,893.6 1655.811,897.676 1656.71,901.752 "/>
            <line x1="1656.71" y1="498.248" x2="1676.049" y2="498.248" stroke="#7f7fff"/>
            <line x1="1656.71" y1="901.752" x2="1676.049" y2="901.752" stroke="#7f7fff"/>
            <polyline fill="none" stroke="#7f7fff"
                      points="1676.049,498.248 1677.671,502.324 1679.256,506.4 1680.803,510.476 1682.312,514.551 1683.784,518.627 1685.219,522.703 1686.618,526.779 1687.98,530.855 1689.307,534.93 1690.598,539.006 1691.853,543.082 1693.074,547.158 1694.259,551.234 1695.41,555.309 1696.527,559.385 1697.609,563.461 1698.657,567.537 1699.672,571.613 1700.653,575.688 1701.601,579.764 1702.515,583.84 1703.397,587.916 1704.245,591.992 1705.061,596.067 1705.844,600.143 1706.595,604.219 1707.313,608.295 1708,612.37 1708.654,616.446 1709.277,620.522 1709.867,624.598 1710.426,628.674 1710.954,632.749 1711.45,636.825 1711.914,640.901 1712.347,644.977 1712.749,649.053 1713.12,653.128 1713.46,657.204 1713.768,661.28 1714.046,665.356 1714.292,669.432 1714.508,673.507 1714.693,677.583 1714.847,681.659 1714.97,685.735 1715.062,689.811 1715.124,693.886 1715.154,697.962 1715.154,702.038 1715.124,706.114 1715.062,710.189 1714.97,714.265 1714.847,718.341 1714.693,722.417 1714.508,726.493 1714.292,730.568 1714.046,734.644 1713.768,738.72 1713.46,742.796 1713.12,746.872 1712.749,750.947 1712.347,755.023 1711.914,759.099 1711.45,763.175 1710.954,767.251 1710.426,771.326 1709.867,775.402 1709.277,779.478 1708.654,783.554 1708,787.63 1707.313,791.705 1706.595,795.781 1705.844,799.857 1705.061,803.933 1704.245,808.008 1703.397,812.084 1702.515,816.16 1701.601,820.236 1700.653,824.312 1699.672,828.387 1698.657,832.463 1697.609,836.539 1696.527,840.615 1695.41,844.691 1694.259,848.766 1693.074,852.842 1691.853,856.918 1690.598,860.994 1689.307,865.07 1687.98,869.145 1686.618,873.221 1685.219,877.297 1683.784,881.373 1682.312,885.449 1680.803,889.524 1679.256,893.6 1677.671,897.676 1676.049,901.752 "/>
            <line x1="1676.049" y1="498.248" x2="1747.518" y2="498.248" stroke="#7f7fff"/>
            <line x1="1676.049" y1="901.752" x2="1747.518" y2="901.752" stroke="#7f7fff"/>
            <polyline fill="none" stroke="#7f7fff"
                      points="1747.518,498.248 1746.678,502.324 1745.855,506.4 1745.05,510.476 1744.263,514.551 1743.494,518.627 1742.742,522.703 1742.008,526.779 1741.291,530.855 1740.592,534.93 1739.911,539.006 1739.247,543.082 1738.601,547.158 1737.972,551.234 1737.36,555.309 1736.766,559.385 1736.189,563.461 1735.629,567.537 1735.087,571.613 1734.562,575.688 1734.054,579.764 1733.563,583.84 1733.09,587.916 1732.633,591.992 1732.194,596.067 1731.772,600.143 1731.366,604.219 1730.978,608.295 1730.607,612.37 1730.253,616.446 1729.916,620.522 1729.596,624.598 1729.292,628.674 1729.006,632.749 1728.737,636.825 1728.484,640.901 1728.249,644.977 1728.03,649.053 1727.828,653.128 1727.643,657.204 1727.475,661.28 1727.323,665.356 1727.189,669.432 1727.071,673.507 1726.971,677.583 1726.886,681.659 1726.819,685.735 1726.769,689.811 1726.735,693.886 1726.718,697.962 1726.718,702.038 1726.735,706.114 1726.769,710.189 1726.819,714.265 1726.886,718.341 1726.971,722.417 1727.071,726.493 1727.189,730.568 1727.323,734.644 1727.475,738.72 1727.643,742.796 1727.828,746.872 1728.03,750.947 1728.249,755.023 1728.484,759.099 1728.737,763.175 1729.006,767.251 1729.292,771.326 1729.596,775.402 1729.916,779.478 1730.253,783.554 1730.607,787.63 1730.978,791.705 1731.366,795.781 1731.772,799.857 1732.194,803.933 1732.633,808.008 1733.09,812.084 1733.563,816.16 1734.054,820.236 1734.562,824.312 1735.087,828.387 1735.629,832.463 1736.189,836.539 1736.766,840.615 1737.36,844.691 1737.972,848.766 1738.601,852.842 1739.247,856.918 1739.911,860.994 1740.592,865.07 1741.291,869.145 1742.008,873.221 1742.742,877.297 1743.494,881.373 1744.263,885.449 1745.05,889.524 1745.855,893.6 1746.678,897.676 1747.518,901.752 "/>
        </g>
    </g>
    <g>
        <title>element</title>
        <polyline fill="none" stroke="#7f7fff"
                  points="1995.899,144.444 1995.899,155.668 1995.899,166.891 1995.899,178.114 1995.899,189.338 1995.899,200.561 1995.899,211.785 1995.899,223.008 1995.899,234.231 1995.899,245.455 1995.899,256.678 1995.899,267.901 1995.899,279.125 1995.899,290.348 1995.899,301.571 1995.899,312.795 1995.899,324.018 1995.899,335.241 1995.899,346.465 1995.899,357.688 1995.899,368.911 1995.899,380.135 1995.899,391.358 1995.899,402.581 1995.899,413.805 1995.899,425.028 1995.899,436.251 1995.899,447.475 1995.899,458.698 1995.899,469.921 1995.899,481.145 1995.899,492.368 1995.899,503.591 1995.899,514.815 1995.899,526.038 1995.899,537.262 1995.899,548.485 1995.899,559.708 1995.899,570.932 1995.899,582.155 1995.899,593.378 1995.899,604.602 1995.899,615.825 1995.899,627.048 1995.899,638.272 1995.899,649.495 1995.899,660.718 1995.899,671.942 1995.899,683.165 1995.899,694.388 1995.899,705.612 1995.899,716.835 1995.899,728.058 1995.899,739.282 1995.899,750.505 1995.899,761.728 1995.899,772.952 1995.899,784.175 1995.899,795.398 1995.899,806.622 1995.899,817.845 1995.899,829.068 1995.899,840.292 1995.899,851.515 1995.899,862.738 1995.899,873.962 1995.899,885.185 1995.899,896.409 1995.899,907.632 1995.899,918.855 1995.899,930.079 1995.899,941.302 1995.899,952.525 1995.899,963.749 1995.899,974.972 1995.899,986.195 1995.899,997.419 1995.899,1008.642 1995.899,1019.865 1995.899,1031.089 1995.899,1042.312 1995.899,1053.535 1995.899,1064.759 1995.899,1075.982 1995.899,1087.205 1995.899,1098.429 1995.899,1109.652 1995.899,1120.875 1995.899,1132.099 1995.899,1143.322 1995.899,1154.545 1995.899,1165.769 1995.899,1176.992 1995.899,1188.215 1995.899,1199.439 1995.899,1210.662 1995.899,1221.886 1995.899,1233.109 1995.899,1244.332 1995.899,1255.556 "/>
    </g>
</svg>
