<?xml version="1.0" standalone="no"?>
<svg width="2400px" height="1400px" version="1.1" xmlns="http://www.w3.org/2000/svg" xmlns:xlink="http://www.w3.org/1999/xlink">
<rect x="0" y="0" width="2400" height="1400"  fill="#ffffff" />
<defs>
<g id="dot">
<line x1="1" y1="1" x2="0" y2="0"  />
</g>
<g id="cross">
<line x1="-3" y1="0" x2="3" y2="0"  />
<line x1="0" y1="-3" x2="0" y2="3"  />
</g>
<g id="square">
<line x1="-3" y1="-3" x2="-3" y2="3"  />
<line x1="-3" y1="3" x2="3" y2="3"  />
<line x1="3" y1="3" x2="3" y2="-3"  />
<line x1="3" y1="-3" x2="-3" y2="-3"  />
</g>
<g id="round">
<ellipse cx="0" cy="0" rx="3" ry="3"  fill="none" /></g>
<g id="triangle">
<line x1="0" y1="-3" x2="-3" y2="3"  />
<line x1="-3" y1="3" x2="3" y2="3"  />
<line x1="0" y1="-3" x2="3" y2="3"  />
</g>
</defs>
<line x1="587.169" y1="700" x2="1812.831" y2="700"  stroke="#7f7f7f" />
<g><title>element</title>
<g>
<line x1="967.188" y1="499.58" x2="967.188" y2="299.161"  stroke="#7f7fff" />
<line x1="967.188" y1="900.42" x2="967.188" y2="1100.839"  stroke="#7f7fff" />
</g>
<g>
<polyline fill="none" stroke="#7f7fff" points="640.384,375.963 638.187,382.51 636.043,389.056 633.951,395.602 631.911,402.148 629.921,408.694 627.981,415.241 626.09,421.787 624.247,428.333 622.452,434.879 620.704,441.425 619.002,447.972 617.347,454.518 615.738,461.064 614.174,467.61 612.656,474.156 611.183,480.702 609.755,487.249 608.372,493.795 607.034,500.341 605.741,506.887 604.492,513.433 603.288,519.98 602.128,526.526 601.012,533.072 599.94,539.618 598.912,546.164 597.928,552.711 596.988,559.257 596.092,565.803 595.239,572.349 594.429,578.895 593.663,585.442 592.94,591.988 592.26,598.534 591.623,605.08 591.029,611.626 590.477,618.173 589.968,624.719 589.502,631.265 589.078,637.811 588.697,644.357 588.359,650.904 588.062,657.45 587.809,663.996 587.597,670.542 587.428,677.088 587.301,683.635 587.216,690.181 587.174,696.727 587.174,703.273 587.216,709.819 587.301,716.365 587.428,722.912 587.597,729.458 587.809,736.004 588.062,742.55 588.359,749.096 588.697,755.643 589.078,762.189 589.502,768.735 589.968,775.281 590.477,781.827 591.029,788.374 591.623,794.92 592.26,801.466 592.94,808.012 593.663,814.558 594.429,821.105 595.239,827.651 596.092,834.197 596.988,840.743 597.928,847.289 598.912,853.836 599.94,860.382 601.012,866.928 602.128,873.474 603.288,880.02 604.492,886.567 605.741,893.113 607.034,899.659 608.372,906.205 609.755,912.751 611.183,919.298 612.656,925.844 614.174,932.39 615.738,938.936 617.347,945.482 619.002,952.028 620.704,958.575 622.452,965.121 624.247,971.667 626.09,978.213 627.981,984.759 629.921,991.306 631.911,997.852 633.951,1004.398 636.043,1010.944 638.187,1017.49 640.384,1024.037 " />
<line x1="640.384" y1="375.963" x2="675.547" y2="375.963"  stroke="#7f7fff" />
<line x1="640.384" y1="1024.037" x2="675.547" y2="1024.037"  stroke="#7f7fff" />
<polyline fill="none" stroke="#7f7fff" points="675.547,375.963 675.547,382.51 675.547,389.056 675.547,395.602 675.547,402.148 675.547,408.694 675.547,415.241 675.547,421.787 675.547,428.333 675.547,434.879 675.547,441.425 675.547,447.972 675.547,454.518 675.547,461.064 675.547,467.61 675.547,474.156 675.547,480.702 675.547,487.249 675.547,493.795 675.547,500.341 675.547,506.887 675.547,513.433 675.547,519.98 675.547,526.526 675.547,533.072 675.547,539.618 675.547,546.164 675.547,552.711 675.547,559.257 675.547,565.803 675.547,572.349 675.547,578.895 675.547,585.442 675.547,591.988 675.547,598.534 675.547,605.08 675.547,611.626 675.547,618.173 675.547,624.719 675.547,631.265 675.547,637.811 675.547,644.357 675.547,650.904 675.547,657.45 675.547,663.996 675.547,670.542 675.547,677.088 675.547,683.635 675.547,690.181 675.547,696.727 675.547,703.273 675.547,709.819 675.547,716.365 675.547,722.912 675.547,729.458 675.547,736.004 675.547,742.55 675.547,749.096 675.547,755.643 675.547,762.189 675.547,768.735 675.547,775.281 675.547,781.827 675.547,788.374 675.547,794.92 675.547,801.466 675.547,808.012 675.547,814.558 675.547,821.105 675.547,827.651 675.547,834.197 675.547,840.743 675.547,847.289 675.547,853.836 675.547,860.382 675.547,866.928 675.547,873.474 675.547,880.02 675.547,886.567 675.547,893.113 675.547,899.659 675.547,906.205 675.547,912.751 675.547,919.298 675.547,925.844 675.547,932.39 675.547,938.936 675.547,945.482 675.547,952.028 675.547,958.575 675.547,965.121 675.547,971.667 675.547,978.213 675.547,984.759 675.547,991.306 675.547,997.852 675.547,1004.398 675.547,1010.944 675.547,1017.49 675.547,1024.037 " />
</g>
<g>
<polyline fill="none" stroke="#7f7fff" points="784.217,412.261 779.264,418.074 774.482,423.887 769.863,429.7 765.401,435.513 761.091,441.326 756.926,447.139 752.903,452.952 749.015,458.764 745.26,464.577 741.632,470.39 738.128,476.203 734.746,482.016 731.481,487.829 728.33,493.642 725.291,499.455 722.362,505.268 719.54,511.081 716.822,516.894 714.206,522.706 711.691,528.519 709.275,534.332 706.956,540.145 704.731,545.958 702.601,551.771 700.562,557.584 698.615,563.397 696.757,569.21 694.988,575.023 693.306,580.835 691.71,586.648 690.2,592.461 688.774,598.274 687.431,604.087 686.172,609.9 684.994,615.713 683.898,621.526 682.883,627.339 681.948,633.152 681.092,638.965 680.316,644.777 679.619,650.59 679,656.403 678.459,662.216 677.996,668.029 677.61,673.842 677.302,679.655 677.071,685.468 676.917,691.281 676.84,697.094 676.84,702.906 676.917,708.719 677.071,714.532 677.302,720.345 677.61,726.158 677.996,731.971 678.459,737.784 679,743.597 679.619,749.41 680.316,755.223 681.092,761.035 681.948,766.848 682.883,772.661 683.898,778.474 684.994,784.287 686.172,790.1 687.431,795.913 688.774,801.726 690.2,807.539 691.71,813.352 693.306,819.165 694.988,824.977 696.757,830.79 698.615,836.603 700.562,842.416 702.601,848.229 704.731,854.042 706.956,859.855 709.275,865.668 711.691,871.481 714.206,877.294 716.822,883.106 719.54,888.919 722.362,894.732 725.291,900.545 728.33,906.358 731.481,912.171 734.746,917.984 738.128,923.797 741.632,929.61 745.26,935.423 749.015,941.236 752.903,947.048 756.926,952.861 761.091,958.674 765.401,964.487 769.863,970.3 774.482,976.113 779.264,981.926 784.217,987.739 " />
<line x1="784.217" y1="412.261" x2="849.799" y2="412.261"  stroke="#7f7fff" />
<line x1="784.217" y1="987.739" x2="849.799" y2="987.739"  stroke="#7f7fff" />
<polyline fill="none" stroke="#7f7fff" points="849.799,412.261 847.835,418.074 845.915,423.887 844.039,429.7 842.208,435.513 840.419,441.326 838.675,447.139 836.973,452.952 835.314,458.764 833.698,464.577 832.124,470.39 830.592,476.203 829.102,482.016 827.654,487.829 826.247,493.642 824.882,499.455 823.557,505.268 822.274,511.081 821.031,516.894 819.829,522.706 818.667,528.519 817.545,534.332 816.463,540.145 815.422,545.958 814.42,551.771 813.457,557.584 812.534,563.397 811.651,569.21 810.806,575.023 810.001,580.835 809.235,586.648 808.508,592.461 807.819,598.274 807.17,604.087 806.559,609.9 805.986,615.713 805.452,621.526 804.957,627.339 804.499,633.152 804.081,638.965 803.7,644.777 803.358,650.59 803.053,656.403 802.787,662.216 802.559,668.029 802.369,673.842 802.217,679.655 802.103,685.468 802.027,691.281 801.989,697.094 801.989,702.906 802.027,708.719 802.103,714.532 802.217,720.345 802.369,726.158 802.559,731.971 802.787,737.784 803.053,743.597 803.358,749.41 803.7,755.223 804.081,761.035 804.499,766.848 804.957,772.661 805.452,778.474 805.986,784.287 806.559,790.1 807.17,795.913 807.819,801.726 808.508,807.539 809.235,813.352 810.001,819.165 810.806,824.977 811.651,830.79 812.534,836.603 813.457,842.416 814.42,848.229 815.422,854.042 816.463,859.855 817.545,865.668 818.667,871.481 819.829,877.294 821.031,883.106 822.274,888.919 823.557,894.732 824.882,900.545 826.247,906.358 827.654,912.171 829.102,917.984 830.592,923.797 832.124,929.61 833.698,935.423 835.314,941.236 836.973,947.048 838.675,952.861 840.419,958.674 842.208,964.487 844.039,970.3 845.915,976.113 847.835,981.926 849.799,987.739 " />
</g>
<g>
<polyline fill="none" stroke="#7f7fff" points="843.61,429.353 842.741,434.82 841.889,440.288 841.057,445.756 840.242,451.223 839.445,456.691 838.666,462.159 837.906,467.626 837.163,473.094 836.439,478.561 835.732,484.029 835.043,489.497 834.373,494.964 833.72,500.432 833.085,505.899 832.468,511.367 831.868,516.835 831.287,522.302 830.723,527.77 830.178,533.238 829.65,538.705 829.139,544.173 828.647,549.64 828.172,555.108 827.715,560.576 827.275,566.043 826.854,571.511 826.45,576.979 826.063,582.446 825.694,587.914 825.343,593.381 825.01,598.849 824.694,604.317 824.396,609.784 824.115,615.252 823.852,620.72 823.606,626.187 823.378,631.655 823.168,637.122 822.975,642.59 822.8,648.058 822.642,653.525 822.502,658.993 822.379,664.46 822.274,669.928 822.187,675.396 822.116,680.863 822.064,686.331 822.029,691.799 822.011,697.266 822.011,702.734 822.029,708.201 822.064,713.669 822.116,719.137 822.187,724.604 822.274,730.072 822.379,735.54 822.502,741.007 822.642,746.475 822.8,751.942 822.975,757.41 823.168,762.878 823.378,768.345 823.606,773.813 823.852,779.28 824.115,784.748 824.396,790.216 824.694,795.683 825.01,801.151 825.343,806.619 825.694,812.086 826.063,817.554 826.45,823.021 826.854,828.489 827.275,833.957 827.715,839.424 828.172,844.892 828.647,850.36 829.139,855.827 829.65,861.295 830.178,866.762 830.723,872.23 831.287,877.698 831.868,883.165 832.468,888.633 833.085,894.101 833.72,899.568 834.373,905.036 835.043,910.503 835.732,915.971 836.439,921.439 837.163,926.906 837.906,932.374 838.666,937.841 839.445,943.309 840.242,948.777 841.057,954.244 841.889,959.712 842.741,965.18 843.61,970.647 " />
<line x1="944.634" y1="429.353" x2="944.634" y2="493.795"  stroke="#7f7fff" />
<line x1="843.61" y1="429.353" x2="944.634" y2="429.353"  stroke="#7f7fff" />
<line x1="944.634" y1="970.647" x2="944.634" y2="906.205"  stroke="#7f7fff" />
<line x1="843.61" y1="970.647" x2="944.634" y2="970.647"  stroke="#7f7fff" />
<polyline fill="none" stroke="#7f7fff" points="944.634,493.795 940.526,497.961 936.579,502.126 932.784,506.292 929.132,510.458 925.618,514.624 922.234,518.789 918.975,522.955 915.836,527.121 912.811,531.287 909.897,535.452 907.09,539.618 904.386,543.784 901.781,547.95 899.272,552.116 896.857,556.281 894.533,560.447 892.298,564.613 890.148,568.779 888.083,572.944 886.099,577.11 884.196,581.276 882.371,585.442 880.624,589.607 878.951,593.773 877.353,597.939 875.827,602.105 874.373,606.27 872.989,610.436 871.675,614.602 870.429,618.768 869.25,622.933 868.138,627.099 867.092,631.265 866.11,635.431 865.194,639.596 864.341,643.762 863.551,647.928 862.824,652.094 862.159,656.26 861.555,660.425 861.014,664.591 860.533,668.757 860.113,672.923 859.754,677.088 859.454,681.254 859.215,685.42 859.036,689.586 858.917,693.751 858.857,697.917 858.857,702.083 858.917,706.249 859.036,710.414 859.215,714.58 859.454,718.746 859.754,722.912 860.113,727.077 860.533,731.243 861.014,735.409 861.555,739.575 862.159,743.74 862.824,747.906 863.551,752.072 864.341,756.238 865.194,760.404 866.11,764.569 867.092,768.735 868.138,772.901 869.25,777.067 870.429,781.232 871.675,785.398 872.989,789.564 874.373,793.73 875.827,797.895 877.353,802.061 878.951,806.227 880.624,810.393 882.371,814.558 884.196,818.724 886.099,822.89 888.083,827.056 890.148,831.221 892.298,835.387 894.533,839.553 896.857,843.719 899.272,847.884 901.781,852.05 904.386,856.216 907.09,860.382 909.897,864.548 912.811,868.713 915.836,872.879 918.975,877.045 922.234,881.211 925.618,885.376 929.132,889.542 932.784,893.708 936.579,897.874 940.526,902.039 944.634,906.205 " />
</g>
<g>
<polyline fill="none" stroke="#7f7fff" points="990.984,498.181 994.638,502.258 998.16,506.335 1001.557,510.413 1004.834,514.49 1007.996,518.567 1011.048,522.644 1013.993,526.721 1016.837,530.798 1019.581,534.875 1022.23,538.953 1024.785,543.03 1027.251,547.107 1029.63,551.184 1031.923,555.261 1034.134,559.338 1036.264,563.415 1038.315,567.493 1040.29,571.57 1042.189,575.647 1044.014,579.724 1045.766,583.801 1047.448,587.878 1049.06,591.956 1050.604,596.033 1052.08,600.11 1053.491,604.187 1054.835,608.264 1056.116,612.341 1057.333,616.418 1058.487,620.496 1059.579,624.573 1060.61,628.65 1061.58,632.727 1062.491,636.804 1063.341,640.881 1064.133,644.958 1064.867,649.036 1065.542,653.113 1066.16,657.19 1066.72,661.267 1067.224,665.344 1067.671,669.421 1068.061,673.499 1068.395,677.576 1068.674,681.653 1068.896,685.73 1069.063,689.807 1069.174,693.884 1069.23,697.961 1069.23,702.039 1069.174,706.116 1069.063,710.193 1068.896,714.27 1068.674,718.347 1068.395,722.424 1068.061,726.501 1067.671,730.579 1067.224,734.656 1066.72,738.733 1066.16,742.81 1065.542,746.887 1064.867,750.964 1064.133,755.042 1063.341,759.119 1062.491,763.196 1061.58,767.273 1060.61,771.35 1059.579,775.427 1058.487,779.504 1057.333,783.582 1056.116,787.659 1054.835,791.736 1053.491,795.813 1052.08,799.89 1050.604,803.967 1049.06,808.044 1047.448,812.122 1045.766,816.199 1044.014,820.276 1042.189,824.353 1040.29,828.43 1038.315,832.507 1036.264,836.585 1034.134,840.662 1031.923,844.739 1029.63,848.816 1027.251,852.893 1024.785,856.97 1022.23,861.047 1019.581,865.125 1016.837,869.202 1013.993,873.279 1011.048,877.356 1007.996,881.433 1004.834,885.51 1001.557,889.587 998.16,893.665 994.638,897.742 990.984,901.819 " />
<line x1="990.984" y1="441.99" x2="990.984" y2="498.181"  stroke="#7f7fff" />
<line x1="990.984" y1="441.99" x2="1098.863" y2="441.99"  stroke="#7f7fff" />
<line x1="990.984" y1="958.01" x2="990.984" y2="901.819"  stroke="#7f7fff" />
<line x1="990.984" y1="958.01" x2="1098.863" y2="958.01"  stroke="#7f7fff" />
<polyline fill="none" stroke="#7f7fff" points="1098.863,441.99 1098.52,447.202 1098.184,452.415 1097.854,457.627 1097.532,462.839 1097.217,468.052 1096.909,473.264 1096.608,478.476 1096.313,483.689 1096.026,488.901 1095.746,494.113 1095.473,499.326 1095.207,504.538 1094.948,509.75 1094.696,514.963 1094.451,520.175 1094.213,525.387 1093.982,530.6 1093.758,535.812 1093.541,541.024 1093.331,546.237 1093.129,551.449 1092.933,556.661 1092.744,561.874 1092.562,567.086 1092.387,572.298 1092.219,577.51 1092.058,582.723 1091.904,587.935 1091.757,593.147 1091.618,598.36 1091.485,603.572 1091.359,608.784 1091.24,613.997 1091.128,619.209 1091.023,624.421 1090.925,629.634 1090.834,634.846 1090.75,640.058 1090.673,645.271 1090.604,650.483 1090.541,655.695 1090.485,660.908 1090.436,666.12 1090.394,671.332 1090.359,676.545 1090.331,681.757 1090.31,686.969 1090.296,692.182 1090.289,697.394 1090.289,702.606 1090.296,707.818 1090.31,713.031 1090.331,718.243 1090.359,723.455 1090.394,728.668 1090.436,733.88 1090.485,739.092 1090.541,744.305 1090.604,749.517 1090.673,754.729 1090.75,759.942 1090.834,765.154 1090.925,770.366 1091.023,775.579 1091.128,780.791 1091.24,786.003 1091.359,791.216 1091.485,796.428 1091.618,801.64 1091.757,806.853 1091.904,812.065 1092.058,817.277 1092.219,822.49 1092.387,827.702 1092.562,832.914 1092.744,838.126 1092.933,843.339 1093.129,848.551 1093.331,853.763 1093.541,858.976 1093.758,864.188 1093.982,869.4 1094.213,874.613 1094.451,879.825 1094.696,885.037 1094.948,890.25 1095.207,895.462 1095.473,900.674 1095.746,905.887 1096.026,911.099 1096.313,916.311 1096.608,921.524 1096.909,926.736 1097.217,931.948 1097.532,937.161 1097.854,942.373 1098.184,947.585 1098.52,952.798 1098.863,958.01 " />
<line x1="1098.863" y1="441.99" x2="1121.753" y2="441.99"  stroke="#7f7fff" />
<line x1="1098.863" y1="958.01" x2="1121.753" y2="958.01"  stroke="#7f7fff" />
<polyline fill="none" stroke="#7f7fff" points="1121.753,441.99 1124.952,447.202 1128.062,452.415 1131.086,457.627 1134.025,462.839 1136.88,468.052 1139.653,473.264 1142.347,478.476 1144.961,483.689 1147.499,488.901 1149.961,494.113 1152.347,499.326 1154.661,504.538 1156.902,509.75 1159.072,514.963 1161.172,520.175 1163.202,525.387 1165.164,530.6 1167.059,535.812 1168.887,541.024 1170.649,546.237 1172.347,551.449 1173.979,556.661 1175.548,561.874 1177.054,567.086 1178.498,572.298 1179.88,577.51 1181.2,582.723 1182.459,587.935 1183.658,593.147 1184.798,598.36 1185.877,603.572 1186.898,608.784 1187.86,613.997 1188.764,619.209 1189.609,624.421 1190.397,629.634 1191.128,634.846 1191.801,640.058 1192.417,645.271 1192.977,650.483 1193.48,655.695 1193.927,660.908 1194.318,666.12 1194.652,671.332 1194.931,676.545 1195.154,681.757 1195.321,686.969 1195.432,692.182 1195.487,697.394 1195.487,702.606 1195.432,707.818 1195.321,713.031 1195.154,718.243 1194.931,723.455 1194.652,728.668 1194.318,733.88 1193.927,739.092 1193.48,744.305 1192.977,749.517 1192.417,754.729 1191.801,759.942 1191.128,765.154 1190.397,770.366 1189.609,775.579 1188.764,780.791 1187.86,786.003 1186.898,791.216 1185.877,796.428 1184.798,801.64 1183.658,806.853 1182.459,812.065 1181.2,817.277 1179.88,822.49 1178.498,827.702 1177.054,832.914 1175.548,838.126 1173.979,843.339 1172.347,848.551 1170.649,853.763 1168.887,858.976 1167.059,864.188 1165.164,869.4 1163.202,874.613 1161.172,879.825 1159.072,885.037 1156.902,890.25 1154.661,895.462 1152.347,900.674 1149.961,905.887 1147.499,911.099 1144.961,916.311 1142.347,921.524 1139.653,926.736 1136.88,931.948 1134.025,937.161 1131.086,942.373 1128.062,947.585 1124.952,952.798 1121.753,958.01 " />
</g>
<g>
<polyline fill="none" stroke="#7f7fff" points="1191.027,446.483 1191.283,451.604 1191.533,456.726 1191.779,461.848 1192.019,466.969 1192.254,472.091 1192.484,477.212 1192.708,482.334 1192.927,487.455 1193.141,492.577 1193.35,497.698 1193.554,502.82 1193.752,507.942 1193.945,513.063 1194.133,518.185 1194.315,523.306 1194.493,528.428 1194.665,533.549 1194.832,538.671 1194.994,543.792 1195.15,548.914 1195.302,554.036 1195.448,559.157 1195.589,564.279 1195.724,569.4 1195.855,574.522 1195.98,579.643 1196.1,584.765 1196.214,589.886 1196.324,595.008 1196.428,600.13 1196.527,605.251 1196.621,610.373 1196.71,615.494 1196.793,620.616 1196.872,625.737 1196.945,630.859 1197.012,635.981 1197.075,641.102 1197.132,646.224 1197.185,651.345 1197.232,656.467 1197.273,661.588 1197.31,666.71 1197.341,671.831 1197.367,676.953 1197.388,682.075 1197.404,687.196 1197.414,692.318 1197.419,697.439 1197.419,702.561 1197.414,707.682 1197.404,712.804 1197.388,717.925 1197.367,723.047 1197.341,728.169 1197.31,733.29 1197.273,738.412 1197.232,743.533 1197.185,748.655 1197.132,753.776 1197.075,758.898 1197.012,764.019 1196.945,769.141 1196.872,774.263 1196.793,779.384 1196.71,784.506 1196.621,789.627 1196.527,794.749 1196.428,799.87 1196.324,804.992 1196.214,810.114 1196.1,815.235 1195.98,820.357 1195.855,825.478 1195.724,830.6 1195.589,835.721 1195.448,840.843 1195.302,845.964 1195.15,851.086 1194.994,856.208 1194.832,861.329 1194.665,866.451 1194.493,871.572 1194.315,876.694 1194.133,881.815 1193.945,886.937 1193.752,892.058 1193.554,897.18 1193.35,902.302 1193.141,907.423 1192.927,912.545 1192.708,917.666 1192.484,922.788 1192.254,927.909 1192.019,933.031 1191.779,938.152 1191.533,943.274 1191.283,948.396 1191.027,953.517 " />
<line x1="1191.027" y1="446.483" x2="1227.548" y2="446.483"  stroke="#7f7fff" />
<line x1="1191.027" y1="953.517" x2="1227.548" y2="953.517"  stroke="#7f7fff" />
<polyline fill="none" stroke="#7f7fff" points="1227.548,446.483 1229.57,451.604 1231.546,456.726 1233.474,461.848 1235.355,466.969 1237.19,472.091 1238.98,477.212 1240.724,482.334 1242.423,487.455 1244.077,492.577 1245.687,497.698 1247.252,502.82 1248.774,507.942 1250.253,513.063 1251.688,518.185 1253.081,523.306 1254.431,528.428 1255.738,533.549 1257.004,538.671 1258.228,543.792 1259.41,548.914 1260.55,554.036 1261.65,559.157 1262.708,564.279 1263.726,569.4 1264.703,574.522 1265.64,579.643 1266.536,584.765 1267.393,589.886 1268.209,595.008 1268.986,600.13 1269.723,605.251 1270.42,610.373 1271.078,615.494 1271.697,620.616 1272.277,625.737 1272.817,630.859 1273.319,635.981 1273.781,641.102 1274.205,646.224 1274.59,651.345 1274.936,656.467 1275.244,661.588 1275.513,666.71 1275.744,671.831 1275.936,676.953 1276.09,682.075 1276.205,687.196 1276.282,692.318 1276.32,697.439 1276.32,702.561 1276.282,707.682 1276.205,712.804 1276.09,717.925 1275.936,723.047 1275.744,728.169 1275.513,733.29 1275.244,738.412 1274.936,743.533 1274.59,748.655 1274.205,753.776 1273.781,758.898 1273.319,764.019 1272.817,769.141 1272.277,774.263 1271.697,779.384 1271.078,784.506 1270.42,789.627 1269.723,794.749 1268.986,799.87 1268.209,804.992 1267.393,810.114 1266.536,815.235 1265.64,820.357 1264.703,825.478 1263.726,830.6 1262.708,835.721 1261.65,840.843 1260.55,845.964 1259.41,851.086 1258.228,856.208 1257.004,861.329 1255.738,866.451 1254.431,871.572 1253.081,876.694 1251.688,881.815 1250.253,886.937 1248.774,892.058 1247.252,897.18 1245.687,902.302 1244.077,907.423 1242.423,912.545 1240.724,917.666 1238.98,922.788 1237.19,927.909 1235.355,933.031 1233.474,938.152 1231.546,943.274 1229.57,948.396 1227.548,953.517 " />
</g>
<g>
<polyline fill="none" stroke="#7f7fff" points="1286.979,454.345 1286.552,459.308 1286.134,464.271 1285.724,469.233 1285.324,474.196 1284.932,479.159 1284.549,484.121 1284.175,489.084 1283.809,494.047 1283.452,499.01 1283.104,503.972 1282.765,508.935 1282.434,513.898 1282.113,518.861 1281.799,523.823 1281.495,528.786 1281.199,533.749 1280.913,538.711 1280.634,543.674 1280.365,548.637 1280.104,553.6 1279.852,558.562 1279.609,563.525 1279.374,568.488 1279.148,573.451 1278.931,578.413 1278.722,583.376 1278.523,588.339 1278.332,593.301 1278.149,598.264 1277.975,603.227 1277.81,608.19 1277.654,613.152 1277.507,618.115 1277.368,623.078 1277.237,628.04 1277.116,633.003 1277.003,637.966 1276.899,642.929 1276.803,647.891 1276.716,652.854 1276.638,657.817 1276.569,662.78 1276.508,667.742 1276.456,672.705 1276.413,677.668 1276.378,682.63 1276.352,687.593 1276.334,692.556 1276.326,697.519 1276.326,702.481 1276.334,707.444 1276.352,712.407 1276.378,717.37 1276.413,722.332 1276.456,727.295 1276.508,732.258 1276.569,737.22 1276.638,742.183 1276.716,747.146 1276.803,752.109 1276.899,757.071 1277.003,762.034 1277.116,766.997 1277.237,771.96 1277.368,776.922 1277.507,781.885 1277.654,786.848 1277.81,791.81 1277.975,796.773 1278.149,801.736 1278.332,806.699 1278.523,811.661 1278.722,816.624 1278.931,821.587 1279.148,826.549 1279.374,831.512 1279.609,836.475 1279.852,841.438 1280.104,846.4 1280.365,851.363 1280.634,856.326 1280.913,861.289 1281.199,866.251 1281.495,871.214 1281.799,876.177 1282.113,881.139 1282.434,886.102 1282.765,891.065 1283.104,896.028 1283.452,900.99 1283.809,905.953 1284.175,910.916 1284.549,915.879 1284.932,920.841 1285.324,925.804 1285.724,930.767 1286.134,935.729 1286.552,940.692 1286.979,945.655 " />
<line x1="1286.979" y1="454.345" x2="1302.3" y2="454.345"  stroke="#7f7fff" />
<line x1="1286.979" y1="945.655" x2="1302.3" y2="945.655"  stroke="#7f7fff" />
<polyline fill="none" stroke="#7f7fff" points="1302.3,454.345 1303.334,459.308 1304.345,464.271 1305.335,469.233 1306.303,474.196 1307.249,479.159 1308.173,484.121 1309.076,489.084 1309.957,494.047 1310.816,499.01 1311.654,503.972 1312.47,508.935 1313.265,513.898 1314.038,518.861 1314.79,523.823 1315.521,528.786 1316.23,533.749 1316.918,538.711 1317.585,543.674 1318.231,548.637 1318.855,553.6 1319.458,558.562 1320.041,563.525 1320.602,568.488 1321.142,573.451 1321.661,578.413 1322.159,583.376 1322.636,588.339 1323.093,593.301 1323.528,598.264 1323.942,603.227 1324.336,608.19 1324.709,613.152 1325.061,618.115 1325.392,623.078 1325.702,628.04 1325.992,633.003 1326.261,637.966 1326.509,642.929 1326.736,647.891 1326.943,652.854 1327.129,657.817 1327.294,662.78 1327.439,667.742 1327.563,672.705 1327.666,677.668 1327.749,682.63 1327.811,687.593 1327.852,692.556 1327.873,697.519 1327.873,702.481 1327.852,707.444 1327.811,712.407 1327.749,717.37 1327.666,722.332 1327.563,727.295 1327.439,732.258 1327.294,737.22 1327.129,742.183 1326.943,747.146 1326.736,752.109 1326.509,757.071 1326.261,762.034 1325.992,766.997 1325.702,771.96 1325.392,776.922 1325.061,781.885 1324.709,786.848 1324.336,791.81 1323.942,796.773 1323.528,801.736 1323.093,806.699 1322.636,811.661 1322.159,816.624 1321.661,821.587 1321.142,826.549 1320.602,831.512 1320.041,836.475 1319.458,841.438 1318.855,846.4 1318.231,851.363 1317.585,856.326 1316.918,861.289 1316.23,866.251 1315.521,871.214 1314.79,876.177 1314.038,881.139 1313.265,886.102 1312.47,891.065 1311.654,896.028 1310.816,900.99 1309.957,905.953 1309.076,910.916 1308.173,915.879 1307.249,920.841 1306.303,925.804 1305.335,930.767 1304.345,935.729 1303.334,940.692 1302.3,945.655 " />
</g>
</g>
<g><title>element</title>
<polyline fill="none" stroke="#7f7fff" points="1812.831,144.444 1812.831,155.668 1812.831,166.891 1812.831,178.114 1812.831,189.338 1812.831,200.561 1812.831,211.785 1812.831,223.008 1812.831,234.231 1812.831,245.455 1812.831,256.678 1812.831,267.901 1812.831,279.125 1812.831,290.348 1812.831,301.571 1812.831,312.795 1812.831,324.018 1812.831,335.241 1812.831,346.465 1812.831,357.688 1812.831,368.911 1812.831,380.135 1812.831,391.358 1812.831,402.581 1812.831,413.805 1812.831,425.028 1812.831,436.251 1812.831,447.475 1812.831,458.698 1812.831,469.921 1812.831,481.145 1812.831,492.368 1812.831,503.591 1812.831,514.815 1812.831,526.038 1812.831,537.262 1812.831,548.485 1812.831,559.708 1812.831,570.932 1812.831,582.155 1812.831,593.378 1812.831,604.602 1812.831,615.825 1812.831,627.048 1812.831,638.272 1812.831,649.495 1812.831,660.718 1812.831,671.942 1812.831,683.165 1812.831,694.388 1812.831,705.612 1812.831,716.835 1812.831,728.058 1812.831,739.282 1812.831,750.505 1812.831,761.728 1812.831,772.952 1812.831,784.175 1812.831,795.398 1812.831,806.622 1812.831,817.845 1812.831,829.068 1812.831,840.292 1812.831,851.515 1812.831,862.738 1812.831,873.962 1812.831,885.185 1812.831,896.409 1812.831,907.632 1812.831,918.855 1812.831,930.079 1812.831,941.302 1812.831,952.525 1812.831,963.749 1812.831,974.972 1812.831,986.195 1812.831,997.419 1812.831,1008.642 1812.831,1019.865 1812.831,1031.089 1812.831,1042.312 1812.831,1053.535 1812.831,1064.759 1812.831,1075.982 1812.831,1087.205 1812.831,1098.429 1812.831,1109.652 1812.831,1120.875 1812.831,1132.099 1812.831,1143.322 1812.831,1154.545 1812.831,1165.769 1812.831,1176.992 1812.831,1188.215 1812.831,1199.439 1812.831,1210.662 1812.831,1221.886 1812.831,1233.109 1812.831,1244.332 1812.831,1255.556 " />
</g>
</svg>
