<?xml version="1.0" standalone="no"?>
<svg width="2400px" height="1400px" version="1.1" xmlns="http://www.w3.org/2000/svg"
>
    <rect x="0" y="0" width="2400" height="1400" fill="#ffffff"/>
    <defs>
        <g id="dot">
            <line x1="1" y1="1" x2="0" y2="0"/>
        </g>
        <g id="cross">
            <line x1="-3" y1="0" x2="3" y2="0"/>
            <line x1="0" y1="-3" x2="0" y2="3"/>
        </g>
        <g id="square">
            <line x1="-3" y1="-3" x2="-3" y2="3"/>
            <line x1="-3" y1="3" x2="3" y2="3"/>
            <line x1="3" y1="3" x2="3" y2="-3"/>
            <line x1="3" y1="-3" x2="-3" y2="-3"/>
        </g>
        <g id="round">
            <ellipse cx="0" cy="0" rx="3" ry="3" fill="none"/>
        </g>
        <g id="triangle">
            <line x1="0" y1="-3" x2="-3" y2="3"/>
            <line x1="-3" y1="3" x2="3" y2="3"/>
            <line x1="0" y1="-3" x2="3" y2="3"/>
        </g>
    </defs>
    <line x1="681.224" y1="700" x2="1718.776" y2="700" stroke="#7f7f7f"/>
    <g>
        <title>element</title>
        <g>
            <line x1="954.951" y1="545.036" x2="954.951" y2="390.072" stroke="#7f7fff"/>
            <line x1="954.951" y1="854.964" x2="954.951" y2="1009.928" stroke="#7f7fff"/>
        </g>
        <g>
            <polyline fill="none" stroke="#7f7fff"
                      points="724.571,452.443 722.784,457.445 721.039,462.446 719.335,467.447 717.67,472.448 716.046,477.449 714.462,482.45 712.917,487.451 711.411,492.453 709.944,497.454 708.516,502.455 707.127,507.456 705.775,512.457 704.462,517.458 703.187,522.459 701.949,527.461 700.749,532.462 699.585,537.463 698.459,542.464 697.37,547.465 696.318,552.466 695.302,557.467 694.323,562.469 693.379,567.47 692.472,572.471 691.601,577.472 690.766,582.473 689.966,587.474 689.202,592.475 688.474,597.477 687.781,602.478 687.123,607.479 686.5,612.48 685.912,617.481 685.36,622.482 684.842,627.483 684.359,632.485 683.911,637.486 683.498,642.487 683.119,647.488 682.775,652.489 682.465,657.49 682.19,662.491 681.95,667.493 681.744,672.494 681.572,677.495 681.435,682.496 681.332,687.497 681.263,692.498 681.229,697.499 681.229,702.501 681.263,707.502 681.332,712.503 681.435,717.504 681.572,722.505 681.744,727.506 681.95,732.507 682.19,737.509 682.465,742.51 682.775,747.511 683.119,752.512 683.498,757.513 683.911,762.514 684.359,767.515 684.842,772.517 685.36,777.518 685.912,782.519 686.5,787.52 687.123,792.521 687.781,797.522 688.474,802.523 689.202,807.525 689.966,812.526 690.766,817.527 691.601,822.528 692.472,827.529 693.379,832.53 694.323,837.531 695.302,842.533 696.318,847.534 697.37,852.535 698.459,857.536 699.585,862.537 700.749,867.538 701.949,872.539 703.187,877.541 704.462,882.542 705.775,887.543 707.127,892.544 708.516,897.545 709.944,902.546 711.411,907.547 712.917,912.549 714.462,917.55 716.046,922.551 717.67,927.552 719.335,932.553 721.039,937.554 722.784,942.555 724.571,947.557 "/>
            <line x1="724.571" y1="452.443" x2="752.583" y2="452.443" stroke="#7f7fff"/>
            <line x1="724.571" y1="947.557" x2="752.583" y2="947.557" stroke="#7f7fff"/>
            <polyline fill="none" stroke="#7f7fff"
                      points="752.583,452.443 752.424,457.445 752.269,462.446 752.116,467.447 751.967,472.448 751.821,477.449 751.679,482.45 751.539,487.451 751.403,492.453 751.27,497.454 751.14,502.455 751.014,507.456 750.891,512.457 750.771,517.458 750.654,522.459 750.54,527.461 750.43,532.462 750.323,537.463 750.219,542.464 750.119,547.465 750.022,552.466 749.928,557.467 749.837,562.469 749.749,567.47 749.665,572.471 749.584,577.472 749.506,582.473 749.432,587.474 749.36,592.475 749.292,597.477 749.227,602.478 749.166,607.479 749.107,612.48 749.052,617.481 749.001,622.482 748.952,627.483 748.906,632.485 748.864,637.486 748.825,642.487 748.79,647.488 748.757,652.489 748.728,657.49 748.702,662.491 748.68,667.493 748.66,672.494 748.644,677.495 748.631,682.496 748.621,687.497 748.615,692.498 748.612,697.499 748.612,702.501 748.615,707.502 748.621,712.503 748.631,717.504 748.644,722.505 748.66,727.506 748.68,732.507 748.702,737.509 748.728,742.51 748.757,747.511 748.79,752.512 748.825,757.513 748.864,762.514 748.906,767.515 748.952,772.517 749.001,777.518 749.052,782.519 749.107,787.52 749.166,792.521 749.227,797.522 749.292,802.523 749.36,807.525 749.432,812.526 749.506,817.527 749.584,822.528 749.665,827.529 749.749,832.53 749.837,837.531 749.928,842.533 750.022,847.534 750.119,852.535 750.219,857.536 750.323,862.537 750.43,867.538 750.54,872.539 750.654,877.541 750.771,882.542 750.891,887.543 751.014,892.544 751.14,897.545 751.27,902.546 751.403,907.547 751.539,912.549 751.679,917.55 751.821,922.551 751.967,927.552 752.116,932.553 752.269,937.554 752.424,942.555 752.583,947.557 "/>
        </g>
        <g>
            <polyline fill="none" stroke="#7f7fff"
                      points="835.798,484.594 832.118,488.945 828.565,493.297 825.132,497.649 821.815,502 818.611,506.352 815.514,510.703 812.521,515.055 809.63,519.407 806.836,523.758 804.137,528.11 801.53,532.462 799.012,536.813 796.582,541.165 794.237,545.517 791.975,549.868 789.794,554.22 787.693,558.572 785.669,562.923 783.722,567.275 781.849,571.627 780.049,575.978 778.322,580.33 776.665,584.681 775.078,589.033 773.56,593.385 772.109,597.736 770.725,602.088 769.407,606.44 768.154,610.791 766.965,615.143 765.84,619.495 764.777,623.846 763.777,628.198 762.839,632.55 761.961,636.901 761.144,641.253 760.388,645.604 759.691,649.956 759.053,654.308 758.475,658.659 757.955,663.011 757.494,667.363 757.091,671.714 756.745,676.066 756.458,680.418 756.228,684.769 756.056,689.121 755.942,693.473 755.884,697.824 755.884,702.176 755.942,706.527 756.056,710.879 756.228,715.231 756.458,719.582 756.745,723.934 757.091,728.286 757.494,732.637 757.955,736.989 758.475,741.341 759.053,745.692 759.691,750.044 760.388,754.396 761.144,758.747 761.961,763.099 762.839,767.45 763.777,771.802 764.777,776.154 765.84,780.505 766.965,784.857 768.154,789.209 769.407,793.56 770.725,797.912 772.109,802.264 773.56,806.615 775.078,810.967 776.665,815.319 778.322,819.67 780.049,824.022 781.849,828.373 783.722,832.725 785.669,837.077 787.693,841.428 789.794,845.78 791.975,850.132 794.237,854.483 796.582,858.835 799.012,863.187 801.53,867.538 804.137,871.89 806.836,876.242 809.63,880.593 812.521,884.945 815.514,889.297 818.611,893.648 821.815,898 825.132,902.351 828.565,906.703 832.118,911.055 835.798,915.406 "/>
            <line x1="866.301" y1="484.594" x2="866.301" y2="515.355" stroke="#7f7fff"/>
            <line x1="835.798" y1="484.594" x2="866.301" y2="484.594" stroke="#7f7fff"/>
            <line x1="866.301" y1="915.406" x2="866.301" y2="884.645" stroke="#7f7fff"/>
            <line x1="835.798" y1="915.406" x2="866.301" y2="915.406" stroke="#7f7fff"/>
            <polyline fill="none" stroke="#7f7fff"
                      points="866.301,515.355 865.239,519.085 864.199,522.815 863.183,526.546 862.191,530.276 861.221,534.006 860.274,537.736 859.35,541.466 858.449,545.197 857.57,548.927 856.714,552.657 855.881,556.387 855.069,560.117 854.281,563.848 853.514,567.578 852.77,571.308 852.047,575.038 851.347,578.768 850.669,582.499 850.012,586.229 849.377,589.959 848.764,593.689 848.173,597.419 847.603,601.15 847.055,604.88 846.529,608.61 846.024,612.34 845.54,616.07 845.077,619.801 844.636,623.531 844.217,627.261 843.818,630.991 843.441,634.721 843.084,638.452 842.749,642.182 842.435,645.912 842.143,649.642 841.871,653.372 841.62,657.103 841.39,660.833 841.181,664.563 840.993,668.293 840.826,672.023 840.68,675.754 840.555,679.484 840.45,683.214 840.367,686.944 840.304,690.674 840.263,694.405 840.242,698.135 840.242,701.865 840.263,705.595 840.304,709.326 840.367,713.056 840.45,716.786 840.555,720.516 840.68,724.246 840.826,727.977 840.993,731.707 841.181,735.437 841.39,739.167 841.62,742.897 841.871,746.628 842.143,750.358 842.435,754.088 842.749,757.818 843.084,761.548 843.441,765.279 843.818,769.009 844.217,772.739 844.636,776.469 845.077,780.199 845.54,783.93 846.024,787.66 846.529,791.39 847.055,795.12 847.603,798.85 848.173,802.581 848.764,806.311 849.377,810.041 850.012,813.771 850.669,817.501 851.347,821.232 852.047,824.962 852.77,828.692 853.514,832.422 854.281,836.152 855.069,839.883 855.881,843.613 856.714,847.343 857.57,851.073 858.449,854.803 859.35,858.534 860.274,862.264 861.221,865.994 862.191,869.724 863.183,873.454 864.199,877.185 865.239,880.915 866.301,884.645 "/>
        </g>
        <g>
            <polyline fill="none" stroke="#7f7fff"
                      points="872.719,481.379 871.823,485.795 870.945,490.212 870.087,494.628 869.247,499.045 868.427,503.462 867.625,507.878 866.842,512.295 866.078,516.711 865.332,521.128 864.605,525.545 863.897,529.961 863.208,534.378 862.537,538.794 861.884,543.211 861.25,547.628 860.635,552.044 860.038,556.461 859.459,560.877 858.899,565.294 858.357,569.71 857.833,574.127 857.328,578.544 856.841,582.96 856.372,587.377 855.922,591.793 855.489,596.21 855.075,600.627 854.679,605.043 854.301,609.46 853.941,613.876 853.6,618.293 853.276,622.71 852.971,627.126 852.683,631.543 852.414,635.959 852.162,640.376 851.929,644.793 851.713,649.209 851.516,653.626 851.337,658.042 851.175,662.459 851.032,666.876 850.906,671.292 850.798,675.709 850.709,680.125 850.637,684.542 850.583,688.959 850.547,693.375 850.53,697.792 850.53,702.208 850.547,706.625 850.583,711.041 850.637,715.458 850.709,719.875 850.798,724.291 850.906,728.708 851.032,733.124 851.175,737.541 851.337,741.958 851.516,746.374 851.713,750.791 851.929,755.207 852.162,759.624 852.414,764.041 852.683,768.457 852.971,772.874 853.276,777.29 853.6,781.707 853.941,786.124 854.301,790.54 854.679,794.957 855.075,799.373 855.489,803.79 855.922,808.207 856.372,812.623 856.841,817.04 857.328,821.456 857.833,825.873 858.357,830.29 858.899,834.706 859.459,839.123 860.038,843.539 860.635,847.956 861.25,852.372 861.884,856.789 862.537,861.206 863.208,865.622 863.897,870.039 864.605,874.455 865.332,878.872 866.078,883.289 866.842,887.705 867.625,892.122 868.427,896.538 869.247,900.955 870.087,905.372 870.945,909.788 871.823,914.205 872.719,918.621 "/>
            <line x1="944.936" y1="481.379" x2="944.936" y2="542.464" stroke="#7f7fff"/>
            <line x1="872.719" y1="481.379" x2="944.936" y2="481.379" stroke="#7f7fff"/>
            <line x1="944.936" y1="918.621" x2="944.936" y2="857.536" stroke="#7f7fff"/>
            <line x1="872.719" y1="918.621" x2="944.936" y2="918.621" stroke="#7f7fff"/>
            <polyline fill="none" stroke="#7f7fff"
                      points="944.936,542.464 941.806,545.647 938.798,548.829 935.906,552.012 933.123,555.194 930.445,558.377 927.865,561.559 925.381,564.742 922.988,567.924 920.682,571.107 918.461,574.289 916.32,577.472 914.258,580.655 912.272,583.837 910.359,587.02 908.518,590.202 906.745,593.385 905.04,596.567 903.401,599.75 901.826,602.932 900.313,606.115 898.862,609.297 897.47,612.48 896.137,615.663 894.861,618.845 893.642,622.028 892.478,625.21 891.369,628.393 890.314,631.575 889.311,634.758 888.36,637.94 887.461,641.123 886.613,644.305 885.815,647.488 885.066,650.671 884.367,653.853 883.716,657.036 883.113,660.218 882.559,663.401 882.051,666.583 881.591,669.766 881.178,672.948 880.811,676.131 880.491,679.313 880.217,682.496 879.988,685.679 879.806,688.861 879.669,692.044 879.578,695.226 879.532,698.409 879.532,701.591 879.578,704.774 879.669,707.956 879.806,711.139 879.988,714.321 880.217,717.504 880.491,720.687 880.811,723.869 881.178,727.052 881.591,730.234 882.051,733.417 882.559,736.599 883.113,739.782 883.716,742.964 884.367,746.147 885.066,749.329 885.815,752.512 886.613,755.695 887.461,758.877 888.36,762.06 889.311,765.242 890.314,768.425 891.369,771.607 892.478,774.79 893.642,777.972 894.861,781.155 896.137,784.337 897.47,787.52 898.862,790.703 900.313,793.885 901.826,797.068 903.401,800.25 905.04,803.433 906.745,806.615 908.518,809.798 910.359,812.98 912.272,816.163 914.258,819.345 916.32,822.528 918.461,825.711 920.682,828.893 922.988,832.076 925.381,835.258 927.865,838.441 930.445,841.623 933.123,844.806 935.906,847.988 938.798,851.171 941.806,854.353 944.936,857.536 "/>
        </g>
        <g>
            <polyline fill="none" stroke="#7f7fff"
                      points="973.324,545.679 975.724,548.797 978.047,551.914 980.296,555.032 982.474,558.149 984.582,561.267 986.623,564.385 988.599,567.502 990.511,570.62 992.361,573.737 994.151,576.855 995.882,579.973 997.556,583.09 999.174,586.208 1000.737,589.325 1002.246,592.443 1003.702,595.561 1005.107,598.678 1006.461,601.796 1007.765,604.913 1009.02,608.031 1010.227,611.149 1011.386,614.266 1012.499,617.384 1013.565,620.501 1014.586,623.619 1015.562,626.737 1016.494,629.854 1017.381,632.972 1018.226,636.089 1019.027,639.207 1019.786,642.324 1020.503,645.442 1021.178,648.56 1021.811,651.677 1022.404,654.795 1022.956,657.912 1023.467,661.03 1023.938,664.148 1024.369,667.265 1024.76,670.383 1025.112,673.5 1025.424,676.618 1025.696,679.736 1025.93,682.853 1026.124,685.971 1026.28,689.088 1026.396,692.206 1026.474,695.324 1026.513,698.441 1026.513,701.559 1026.474,704.676 1026.396,707.794 1026.28,710.912 1026.124,714.029 1025.93,717.147 1025.696,720.264 1025.424,723.382 1025.112,726.5 1024.76,729.617 1024.369,732.735 1023.938,735.852 1023.467,738.97 1022.956,742.088 1022.404,745.205 1021.811,748.323 1021.178,751.44 1020.503,754.558 1019.786,757.676 1019.027,760.793 1018.226,763.911 1017.381,767.028 1016.494,770.146 1015.562,773.263 1014.586,776.381 1013.565,779.499 1012.499,782.616 1011.386,785.734 1010.227,788.851 1009.02,791.969 1007.765,795.087 1006.461,798.204 1005.107,801.322 1003.702,804.439 1002.246,807.557 1000.737,810.675 999.174,813.792 997.556,816.91 995.882,820.027 994.151,823.145 992.361,826.263 990.511,829.38 988.599,832.498 986.623,835.615 984.582,838.733 982.474,841.851 980.296,844.968 978.047,848.086 975.724,851.203 973.324,854.321 "/>
            <line x1="973.324" y1="500.669" x2="973.324" y2="545.679" stroke="#7f7fff"/>
            <line x1="973.324" y1="500.669" x2="1069.519" y2="500.669" stroke="#7f7fff"/>
            <line x1="973.324" y1="899.331" x2="973.324" y2="854.321" stroke="#7f7fff"/>
            <line x1="973.324" y1="899.331" x2="1069.519" y2="899.331" stroke="#7f7fff"/>
            <polyline fill="none" stroke="#7f7fff"
                      points="1069.519,500.669 1069.267,504.696 1069.02,508.723 1068.779,512.749 1068.543,516.776 1068.312,520.803 1068.086,524.83 1067.865,528.857 1067.65,532.884 1067.439,536.911 1067.234,540.938 1067.034,544.965 1066.839,548.991 1066.649,553.018 1066.464,557.045 1066.285,561.072 1066.11,565.099 1065.941,569.126 1065.777,573.153 1065.618,577.18 1065.464,581.207 1065.315,585.234 1065.172,589.26 1065.033,593.287 1064.9,597.314 1064.772,601.341 1064.649,605.368 1064.531,609.395 1064.418,613.422 1064.31,617.449 1064.208,621.476 1064.11,625.502 1064.018,629.529 1063.931,633.556 1063.849,637.583 1063.772,641.61 1063.7,645.637 1063.633,649.664 1063.572,653.691 1063.516,657.718 1063.464,661.745 1063.418,665.771 1063.377,669.798 1063.341,673.825 1063.311,677.852 1063.285,681.879 1063.264,685.906 1063.249,689.933 1063.239,693.96 1063.234,697.987 1063.234,702.013 1063.239,706.04 1063.249,710.067 1063.264,714.094 1063.285,718.121 1063.311,722.148 1063.341,726.175 1063.377,730.202 1063.418,734.229 1063.464,738.255 1063.516,742.282 1063.572,746.309 1063.633,750.336 1063.7,754.363 1063.772,758.39 1063.849,762.417 1063.931,766.444 1064.018,770.471 1064.11,774.498 1064.208,778.524 1064.31,782.551 1064.418,786.578 1064.531,790.605 1064.649,794.632 1064.772,798.659 1064.9,802.686 1065.033,806.713 1065.172,810.74 1065.315,814.766 1065.464,818.793 1065.618,822.82 1065.777,826.847 1065.941,830.874 1066.11,834.901 1066.285,838.928 1066.464,842.955 1066.649,846.982 1066.839,851.009 1067.034,855.035 1067.234,859.062 1067.439,863.089 1067.65,867.116 1067.865,871.143 1068.086,875.17 1068.312,879.197 1068.543,883.224 1068.779,887.251 1069.02,891.277 1069.267,895.304 1069.519,899.331 "/>
            <line x1="1069.519" y1="500.669" x2="1097.615" y2="500.669" stroke="#7f7fff"/>
            <line x1="1069.519" y1="899.331" x2="1097.615" y2="899.331" stroke="#7f7fff"/>
            <polyline fill="none" stroke="#7f7fff"
                      points="1097.615,500.669 1099.514,504.696 1101.367,508.723 1103.173,512.749 1104.933,516.776 1106.648,520.803 1108.318,524.83 1109.944,528.857 1111.526,532.884 1113.065,536.911 1114.561,540.938 1116.014,544.965 1117.426,548.991 1118.797,553.018 1120.126,557.045 1121.414,561.072 1122.662,565.099 1123.87,569.126 1125.038,573.153 1126.167,577.18 1127.257,581.207 1128.308,585.234 1129.32,589.26 1130.294,593.287 1131.23,597.314 1132.128,601.341 1132.988,605.368 1133.811,609.395 1134.597,613.422 1135.346,617.449 1136.058,621.476 1136.733,625.502 1137.372,629.529 1137.975,633.556 1138.542,637.583 1139.072,641.61 1139.567,645.637 1140.025,649.664 1140.448,653.691 1140.836,657.718 1141.188,661.745 1141.504,665.771 1141.786,669.798 1142.031,673.825 1142.242,677.852 1142.418,681.879 1142.558,685.906 1142.663,689.933 1142.733,693.96 1142.768,697.987 1142.768,702.013 1142.733,706.04 1142.663,710.067 1142.558,714.094 1142.418,718.121 1142.242,722.148 1142.031,726.175 1141.786,730.202 1141.504,734.229 1141.188,738.255 1140.836,742.282 1140.448,746.309 1140.025,750.336 1139.567,754.363 1139.072,758.39 1138.542,762.417 1137.975,766.444 1137.372,770.471 1136.733,774.498 1136.058,778.524 1135.346,782.551 1134.597,786.578 1133.811,790.605 1132.988,794.632 1132.128,798.659 1131.23,802.686 1130.294,806.713 1129.32,810.74 1128.308,814.766 1127.257,818.793 1126.167,822.82 1125.038,826.847 1123.87,830.874 1122.662,834.901 1121.414,838.928 1120.126,842.955 1118.797,846.982 1117.426,851.009 1116.014,855.035 1114.561,859.062 1113.065,863.089 1111.526,867.116 1109.944,871.143 1108.318,875.17 1106.648,879.197 1104.933,883.224 1103.173,887.251 1101.367,891.277 1099.514,895.304 1097.615,899.331 "/>
        </g>
        <g>
            <polyline fill="none" stroke="#7f7fff"
                      points="1131.275,497.454 1131.785,501.546 1132.285,505.637 1132.775,509.729 1133.254,513.821 1133.722,517.913 1134.18,522.005 1134.628,526.097 1135.064,530.188 1135.491,534.28 1135.906,538.372 1136.312,542.464 1136.707,546.556 1137.091,550.648 1137.465,554.74 1137.828,558.831 1138.181,562.923 1138.523,567.015 1138.855,571.107 1139.177,575.199 1139.488,579.291 1139.789,583.382 1140.079,587.474 1140.359,591.566 1140.629,595.658 1140.888,599.75 1141.136,603.842 1141.375,607.934 1141.602,612.025 1141.82,616.117 1142.027,620.209 1142.224,624.301 1142.41,628.393 1142.586,632.485 1142.752,636.576 1142.907,640.668 1143.052,644.76 1143.186,648.852 1143.31,652.944 1143.424,657.036 1143.528,661.127 1143.621,665.219 1143.703,669.311 1143.776,673.403 1143.838,677.495 1143.89,681.587 1143.931,685.679 1143.962,689.77 1143.983,693.862 1143.993,697.954 1143.993,702.046 1143.983,706.138 1143.962,710.23 1143.931,714.321 1143.89,718.413 1143.838,722.505 1143.776,726.597 1143.703,730.689 1143.621,734.781 1143.528,738.873 1143.424,742.964 1143.31,747.056 1143.186,751.148 1143.052,755.24 1142.907,759.332 1142.752,763.424 1142.586,767.515 1142.41,771.607 1142.224,775.699 1142.027,779.791 1141.82,783.883 1141.602,787.975 1141.375,792.066 1141.136,796.158 1140.888,800.25 1140.629,804.342 1140.359,808.434 1140.079,812.526 1139.789,816.618 1139.488,820.709 1139.177,824.801 1138.855,828.893 1138.523,832.985 1138.181,837.077 1137.828,841.169 1137.465,845.26 1137.091,849.352 1136.707,853.444 1136.312,857.536 1135.906,861.628 1135.491,865.72 1135.064,869.812 1134.628,873.903 1134.18,877.995 1133.722,882.087 1133.254,886.179 1132.775,890.271 1132.285,894.363 1131.785,898.454 1131.275,902.546 "/>
            <line x1="1131.275" y1="497.454" x2="1151.644" y2="497.454" stroke="#7f7fff"/>
            <line x1="1131.275" y1="902.546" x2="1151.644" y2="902.546" stroke="#7f7fff"/>
            <polyline fill="none" stroke="#7f7fff"
                      points="1151.644,497.454 1153.507,501.546 1155.325,505.637 1157.097,509.729 1158.825,513.821 1160.509,517.913 1162.149,522.005 1163.746,526.097 1165.301,530.188 1166.814,534.28 1168.285,538.372 1169.714,542.464 1171.103,546.556 1172.451,550.648 1173.758,554.74 1175.026,558.831 1176.255,562.923 1177.444,567.015 1178.594,571.107 1179.706,575.199 1180.779,579.291 1181.814,583.382 1182.811,587.474 1183.771,591.566 1184.693,595.658 1185.578,599.75 1186.427,603.842 1187.238,607.934 1188.013,612.025 1188.751,616.117 1189.453,620.209 1190.119,624.301 1190.75,628.393 1191.344,632.485 1191.903,636.576 1192.426,640.668 1192.914,644.76 1193.367,648.852 1193.784,652.944 1194.166,657.036 1194.514,661.127 1194.826,665.219 1195.103,669.311 1195.346,673.403 1195.554,677.495 1195.727,681.587 1195.866,685.679 1195.97,689.77 1196.039,693.862 1196.073,697.954 1196.073,702.046 1196.039,706.138 1195.97,710.23 1195.866,714.321 1195.727,718.413 1195.554,722.505 1195.346,726.597 1195.103,730.689 1194.826,734.781 1194.514,738.873 1194.166,742.964 1193.784,747.056 1193.367,751.148 1192.914,755.24 1192.426,759.332 1191.903,763.424 1191.344,767.515 1190.75,771.607 1190.119,775.699 1189.453,779.791 1188.751,783.883 1188.013,787.975 1187.238,792.066 1186.427,796.158 1185.578,800.25 1184.693,804.342 1183.771,808.434 1182.811,812.526 1181.814,816.618 1180.779,820.709 1179.706,824.801 1178.594,828.893 1177.444,832.985 1176.255,837.077 1175.026,841.169 1173.758,845.26 1172.451,849.352 1171.103,853.444 1169.714,857.536 1168.285,861.628 1166.814,865.72 1165.301,869.812 1163.746,873.903 1162.149,877.995 1160.509,882.087 1158.825,886.179 1157.097,890.271 1155.325,894.363 1153.507,898.454 1151.644,902.546 "/>
        </g>
        <g>
            <polyline fill="none" stroke="#7f7fff"
                      points="1205.363,497.454 1205.04,501.546 1204.723,505.637 1204.414,509.729 1204.11,513.821 1203.814,517.913 1203.524,522.005 1203.241,526.097 1202.964,530.188 1202.694,534.28 1202.431,538.372 1202.174,542.464 1201.924,546.556 1201.68,550.648 1201.443,554.74 1201.213,558.831 1200.989,562.923 1200.772,567.015 1200.562,571.107 1200.358,575.199 1200.16,579.291 1199.97,583.382 1199.785,587.474 1199.608,591.566 1199.437,595.658 1199.272,599.75 1199.114,603.842 1198.963,607.934 1198.819,612.025 1198.681,616.117 1198.549,620.209 1198.424,624.301 1198.306,628.393 1198.194,632.485 1198.089,636.576 1197.99,640.668 1197.898,644.76 1197.813,648.852 1197.734,652.944 1197.662,657.036 1197.596,661.127 1197.537,665.219 1197.484,669.311 1197.438,673.403 1197.399,677.495 1197.366,681.587 1197.34,685.679 1197.32,689.77 1197.307,693.862 1197.3,697.954 1197.3,702.046 1197.307,706.138 1197.32,710.23 1197.34,714.321 1197.366,718.413 1197.399,722.505 1197.438,726.597 1197.484,730.689 1197.537,734.781 1197.596,738.873 1197.662,742.964 1197.734,747.056 1197.813,751.148 1197.898,755.24 1197.99,759.332 1198.089,763.424 1198.194,767.515 1198.306,771.607 1198.424,775.699 1198.549,779.791 1198.681,783.883 1198.819,787.975 1198.963,792.066 1199.114,796.158 1199.272,800.25 1199.437,804.342 1199.608,808.434 1199.785,812.526 1199.97,816.618 1200.16,820.709 1200.358,824.801 1200.562,828.893 1200.772,832.985 1200.989,837.077 1201.213,841.169 1201.443,845.26 1201.68,849.352 1201.924,853.444 1202.174,857.536 1202.431,861.628 1202.694,865.72 1202.964,869.812 1203.241,873.903 1203.524,877.995 1203.814,882.087 1204.11,886.179 1204.414,890.271 1204.723,894.363 1205.04,898.454 1205.363,902.546 "/>
            <line x1="1205.363" y1="497.454" x2="1223.667" y2="497.454" stroke="#7f7fff"/>
            <line x1="1205.363" y1="902.546" x2="1223.667" y2="902.546" stroke="#7f7fff"/>
            <polyline fill="none" stroke="#7f7fff"
                      points="1223.667,497.454 1224.711,501.546 1225.733,505.637 1226.733,509.729 1227.71,513.821 1228.664,517.913 1229.596,522.005 1230.506,526.097 1231.394,530.188 1232.26,534.28 1233.104,538.372 1233.925,542.464 1234.725,546.556 1235.503,550.648 1236.26,554.74 1236.994,558.831 1237.707,562.923 1238.398,567.015 1239.068,571.107 1239.717,575.199 1240.344,579.291 1240.949,583.382 1241.534,587.474 1242.097,591.566 1242.638,595.658 1243.159,599.75 1243.658,603.842 1244.137,607.934 1244.594,612.025 1245.03,616.117 1245.446,620.209 1245.84,624.301 1246.213,628.393 1246.566,632.485 1246.897,636.576 1247.208,640.668 1247.498,644.76 1247.767,648.852 1248.016,652.944 1248.243,657.036 1248.45,661.127 1248.636,665.219 1248.802,669.311 1248.946,673.403 1249.07,677.495 1249.174,681.587 1249.256,685.679 1249.318,689.77 1249.359,693.862 1249.38,697.954 1249.38,702.046 1249.359,706.138 1249.318,710.23 1249.256,714.321 1249.174,718.413 1249.07,722.505 1248.946,726.597 1248.802,730.689 1248.636,734.781 1248.45,738.873 1248.243,742.964 1248.016,747.056 1247.767,751.148 1247.498,755.24 1247.208,759.332 1246.897,763.424 1246.566,767.515 1246.213,771.607 1245.84,775.699 1245.446,779.791 1245.03,783.883 1244.594,787.975 1244.137,792.066 1243.658,796.158 1243.159,800.25 1242.638,804.342 1242.097,808.434 1241.534,812.526 1240.949,816.618 1240.344,820.709 1239.717,824.801 1239.068,828.893 1238.398,832.985 1237.707,837.077 1236.994,841.169 1236.26,845.26 1235.503,849.352 1234.725,853.444 1233.925,857.536 1233.104,861.628 1232.26,865.72 1231.394,869.812 1230.506,873.903 1229.596,877.995 1228.664,882.087 1227.71,886.179 1226.733,890.271 1225.733,894.363 1224.711,898.454 1223.667,902.546 "/>
        </g>
    </g>
    <g>
        <title>element</title>
        <polyline fill="none" stroke="#7f7fff"
                  points="1718.776,144.444 1718.776,155.668 1718.776,166.891 1718.776,178.114 1718.776,189.338 1718.776,200.561 1718.776,211.785 1718.776,223.008 1718.776,234.231 1718.776,245.455 1718.776,256.678 1718.776,267.901 1718.776,279.125 1718.776,290.348 1718.776,301.571 1718.776,312.795 1718.776,324.018 1718.776,335.241 1718.776,346.465 1718.776,357.688 1718.776,368.911 1718.776,380.135 1718.776,391.358 1718.776,402.581 1718.776,413.805 1718.776,425.028 1718.776,436.251 1718.776,447.475 1718.776,458.698 1718.776,469.921 1718.776,481.145 1718.776,492.368 1718.776,503.591 1718.776,514.815 1718.776,526.038 1718.776,537.262 1718.776,548.485 1718.776,559.708 1718.776,570.932 1718.776,582.155 1718.776,593.378 1718.776,604.602 1718.776,615.825 1718.776,627.048 1718.776,638.272 1718.776,649.495 1718.776,660.718 1718.776,671.942 1718.776,683.165 1718.776,694.388 1718.776,705.612 1718.776,716.835 1718.776,728.058 1718.776,739.282 1718.776,750.505 1718.776,761.728 1718.776,772.952 1718.776,784.175 1718.776,795.398 1718.776,806.622 1718.776,817.845 1718.776,829.068 1718.776,840.292 1718.776,851.515 1718.776,862.738 1718.776,873.962 1718.776,885.185 1718.776,896.409 1718.776,907.632 1718.776,918.855 1718.776,930.079 1718.776,941.302 1718.776,952.525 1718.776,963.749 1718.776,974.972 1718.776,986.195 1718.776,997.419 1718.776,1008.642 1718.776,1019.865 1718.776,1031.089 1718.776,1042.312 1718.776,1053.535 1718.776,1064.759 1718.776,1075.982 1718.776,1087.205 1718.776,1098.429 1718.776,1109.652 1718.776,1120.875 1718.776,1132.099 1718.776,1143.322 1718.776,1154.545 1718.776,1165.769 1718.776,1176.992 1718.776,1188.215 1718.776,1199.439 1718.776,1210.662 1718.776,1221.886 1718.776,1233.109 1718.776,1244.332 1718.776,1255.556 "/>
    </g>
</svg>
