<?xml version="1.0" standalone="no"?>
<svg width="2400px" height="1400px" version="1.1" xmlns="http://www.w3.org/2000/svg" xmlns:xlink="http://www.w3.org/1999/xlink">
<rect x="0" y="0" width="2400" height="1400"  fill="#ffffff" />
<defs>
<g id="dot">
<line x1="1" y1="1" x2="0" y2="0"  />
</g>
<g id="cross">
<line x1="-3" y1="0" x2="3" y2="0"  />
<line x1="0" y1="-3" x2="0" y2="3"  />
</g>
<g id="square">
<line x1="-3" y1="-3" x2="-3" y2="3"  />
<line x1="-3" y1="3" x2="3" y2="3"  />
<line x1="3" y1="3" x2="3" y2="-3"  />
<line x1="3" y1="-3" x2="-3" y2="-3"  />
</g>
<g id="round">
<ellipse cx="0" cy="0" rx="3" ry="3"  fill="none" /></g>
<g id="triangle">
<line x1="0" y1="-3" x2="-3" y2="3"  />
<line x1="-3" y1="3" x2="3" y2="3"  />
<line x1="0" y1="-3" x2="3" y2="3"  />
</g>
</defs>
<line x1="553.961" y1="700" x2="1846.039" y2="700"  stroke="#7f7f7f" />
<g><title>element</title>
<g>
<line x1="1038.812" y1="508.295" x2="1038.812" y2="316.59"  stroke="#7f7fff" />
<line x1="1038.812" y1="891.705" x2="1038.812" y2="1083.41"  stroke="#7f7fff" />
</g>
<g>
<polyline fill="none" stroke="#7f7fff" points="626.74,295.422 623.736,303.595 620.802,311.768 617.936,319.942 615.138,328.115 612.408,336.288 609.745,344.462 607.148,352.635 604.618,360.808 602.154,368.981 599.755,377.155 597.421,385.328 595.152,393.501 592.947,401.675 590.805,409.848 588.727,418.021 586.712,426.195 584.76,434.368 582.87,442.541 581.042,450.714 579.276,458.888 577.571,467.061 575.927,475.234 574.345,483.408 572.823,491.581 571.362,499.754 569.96,507.928 568.619,516.101 567.338,524.274 566.116,532.447 564.953,540.621 563.85,548.794 562.806,556.967 561.821,565.141 560.894,573.314 560.026,581.487 559.216,589.66 558.465,597.834 557.772,606.007 557.137,614.18 556.56,622.354 556.042,630.527 555.58,638.7 555.177,646.874 554.832,655.047 554.544,663.22 554.313,671.393 554.141,679.567 554.026,687.74 553.968,695.913 553.968,704.087 554.026,712.26 554.141,720.433 554.313,728.607 554.544,736.78 554.832,744.953 555.177,753.126 555.58,761.3 556.042,769.473 556.56,777.646 557.137,785.82 557.772,793.993 558.465,802.166 559.216,810.34 560.026,818.513 560.894,826.686 561.821,834.859 562.806,843.033 563.85,851.206 564.953,859.379 566.116,867.553 567.338,875.726 568.619,883.899 569.96,892.072 571.362,900.246 572.823,908.419 574.345,916.592 575.927,924.766 577.571,932.939 579.276,941.112 581.042,949.286 582.87,957.459 584.76,965.632 586.712,973.805 588.727,981.979 590.805,990.152 592.947,998.325 595.152,1006.499 597.421,1014.672 599.755,1022.845 602.154,1031.019 604.618,1039.192 607.148,1047.365 609.745,1055.538 612.408,1063.712 615.138,1071.885 617.936,1080.058 620.802,1088.232 623.736,1096.405 626.74,1104.578 " />
<line x1="626.74" y1="295.422" x2="652.446" y2="295.422"  stroke="#7f7fff" />
<line x1="626.74" y1="1104.578" x2="652.446" y2="1104.578"  stroke="#7f7fff" />
<polyline fill="none" stroke="#7f7fff" points="652.446,295.422 651.615,303.595 650.8,311.768 650.002,319.942 649.222,328.115 648.458,336.288 647.712,344.462 646.983,352.635 646.271,360.808 645.576,368.981 644.898,377.155 644.237,385.328 643.594,393.501 642.967,401.675 642.357,409.848 641.764,418.021 641.189,426.195 640.63,434.368 640.088,442.541 639.564,450.714 639.056,458.888 638.565,467.061 638.092,475.234 637.635,483.408 637.195,491.581 636.772,499.754 636.367,507.928 635.978,516.101 635.606,524.274 635.251,532.447 634.913,540.621 634.591,548.794 634.287,556.967 634,565.141 633.729,573.314 633.476,581.487 633.239,589.66 633.02,597.834 632.817,606.007 632.631,614.18 632.462,622.354 632.31,630.527 632.175,638.7 632.057,646.874 631.956,655.047 631.871,663.22 631.804,671.393 631.753,679.567 631.719,687.74 631.702,695.913 631.702,704.087 631.719,712.26 631.753,720.433 631.804,728.607 631.871,736.78 631.956,744.953 632.057,753.126 632.175,761.3 632.31,769.473 632.462,777.646 632.631,785.82 632.817,793.993 633.02,802.166 633.239,810.34 633.476,818.513 633.729,826.686 634,834.859 634.287,843.033 634.591,851.206 634.913,859.379 635.251,867.553 635.606,875.726 635.978,883.899 636.367,892.072 636.772,900.246 637.195,908.419 637.635,916.592 638.092,924.766 638.565,932.939 639.056,941.112 639.564,949.286 640.088,957.459 640.63,965.632 641.189,973.805 641.764,981.979 642.357,990.152 642.967,998.325 643.594,1006.499 644.237,1014.672 644.898,1022.845 645.576,1031.019 646.271,1039.192 646.983,1047.365 647.712,1055.538 648.458,1063.712 649.222,1071.885 650.002,1080.058 650.8,1088.232 651.615,1096.405 652.446,1104.578 " />
</g>
<g>
<polyline fill="none" stroke="#7f7fff" points="739.454,327.122 734.853,334.655 730.38,342.188 726.031,349.721 721.805,357.253 717.697,364.786 713.708,372.319 709.833,379.852 706.071,387.385 702.42,394.918 698.878,402.451 695.444,409.984 692.114,417.517 688.889,425.049 685.766,432.582 682.745,440.115 679.822,447.648 676.998,455.181 674.271,462.714 671.64,470.247 669.103,477.78 666.66,485.313 664.31,492.846 662.051,500.378 659.883,507.911 657.805,515.444 655.816,522.977 653.915,530.51 652.102,538.043 650.376,545.576 648.736,553.109 647.181,560.642 645.711,568.174 644.326,575.707 643.025,583.24 641.808,590.773 640.673,598.306 639.621,605.839 638.652,613.372 637.764,620.905 636.958,628.438 636.234,635.97 635.591,643.503 635.028,651.036 634.546,658.569 634.145,666.102 633.824,673.635 633.584,681.168 633.423,688.701 633.343,696.234 633.343,703.766 633.423,711.299 633.584,718.832 633.824,726.365 634.145,733.898 634.546,741.431 635.028,748.964 635.591,756.497 636.234,764.03 636.958,771.562 637.764,779.095 638.652,786.628 639.621,794.161 640.673,801.694 641.808,809.227 643.025,816.76 644.326,824.293 645.711,831.826 647.181,839.358 648.736,846.891 650.376,854.424 652.102,861.957 653.915,869.49 655.816,877.023 657.805,884.556 659.883,892.089 662.051,899.622 664.31,907.154 666.66,914.687 669.103,922.22 671.64,929.753 674.271,937.286 676.998,944.819 679.822,952.352 682.745,959.885 685.766,967.418 688.889,974.951 692.114,982.483 695.444,990.016 698.878,997.549 702.42,1005.082 706.071,1012.615 709.833,1020.148 713.708,1027.681 717.697,1035.214 721.805,1042.747 726.031,1050.279 730.38,1057.812 734.853,1065.345 739.454,1072.878 " />
<line x1="739.454" y1="327.122" x2="761.077" y2="327.122"  stroke="#7f7fff" />
<line x1="739.454" y1="1072.878" x2="761.077" y2="1072.878"  stroke="#7f7fff" />
<polyline fill="none" stroke="#7f7fff" points="761.077,327.122 759.179,334.655 757.321,342.188 755.505,349.721 753.729,357.253 751.995,364.786 750.3,372.319 748.646,379.852 747.032,387.385 745.459,394.918 743.925,402.451 742.431,409.984 740.977,417.517 739.563,425.049 738.188,432.582 736.853,440.115 735.557,447.648 734.3,455.181 733.082,462.714 731.903,470.247 730.763,477.78 729.662,485.313 728.6,492.846 727.576,500.378 726.591,507.911 725.644,515.444 724.736,522.977 723.866,530.51 723.035,538.043 722.241,545.576 721.486,553.109 720.769,560.642 720.09,568.174 719.449,575.707 718.846,583.24 718.281,590.773 717.754,598.306 717.264,605.839 716.812,613.372 716.399,620.905 716.022,628.438 715.684,635.97 715.383,643.503 715.12,651.036 714.894,658.569 714.707,666.102 714.556,673.635 714.444,681.168 714.368,688.701 714.331,696.234 714.331,703.766 714.368,711.299 714.444,718.832 714.556,726.365 714.707,733.898 714.894,741.431 715.12,748.964 715.383,756.497 715.684,764.03 716.022,771.562 716.399,779.095 716.812,786.628 717.264,794.161 717.754,801.694 718.281,809.227 718.846,816.76 719.449,824.293 720.09,831.826 720.769,839.358 721.486,846.891 722.241,854.424 723.035,861.957 723.866,869.49 724.736,877.023 725.644,884.556 726.591,892.089 727.576,899.622 728.6,907.154 729.662,914.687 730.763,922.22 731.903,929.753 733.082,937.286 734.3,944.819 735.557,952.352 736.853,959.885 738.188,967.418 739.563,974.951 740.977,982.483 742.431,990.016 743.925,997.549 745.459,1005.082 747.032,1012.615 748.646,1020.148 750.3,1027.681 751.995,1035.214 753.729,1042.747 755.505,1050.279 757.321,1057.812 759.179,1065.345 761.077,1072.878 " />
</g>
<g>
<polyline fill="none" stroke="#7f7fff" points="848.152,398.238 841.684,404.334 835.488,410.431 829.546,416.527 823.843,422.623 818.367,428.719 813.105,434.815 808.046,440.912 803.181,447.008 798.502,453.104 794.001,459.2 789.67,465.296 785.502,471.393 781.493,477.489 777.637,483.585 773.928,489.681 770.362,495.777 766.934,501.874 763.642,507.97 760.481,514.066 757.447,520.162 754.538,526.258 751.751,532.355 749.082,538.451 746.531,544.547 744.093,550.643 741.768,556.739 739.552,562.836 737.445,568.932 735.444,575.028 733.548,581.124 731.755,587.22 730.064,593.317 728.473,599.413 726.982,605.509 725.589,611.605 724.293,617.701 723.094,623.798 721.99,629.894 720.98,635.99 720.065,642.086 719.243,648.182 718.513,654.279 717.876,660.375 717.331,666.471 716.877,672.567 716.514,678.663 716.242,684.76 716.061,690.856 715.971,696.952 715.971,703.048 716.061,709.144 716.242,715.24 716.514,721.337 716.877,727.433 717.331,733.529 717.876,739.625 718.513,745.721 719.243,751.818 720.065,757.914 720.98,764.01 721.99,770.106 723.094,776.202 724.293,782.299 725.589,788.395 726.982,794.491 728.473,800.587 730.064,806.683 731.755,812.78 733.548,818.876 735.444,824.972 737.445,831.068 739.552,837.164 741.768,843.261 744.093,849.357 746.531,855.453 749.082,861.549 751.751,867.645 754.538,873.742 757.447,879.838 760.481,885.934 763.642,892.03 766.934,898.126 770.362,904.223 773.928,910.319 777.637,916.415 781.493,922.511 785.502,928.607 789.67,934.704 794.001,940.8 798.502,946.896 803.181,952.992 808.046,959.088 813.105,965.185 818.367,971.281 823.843,977.377 829.546,983.473 835.488,989.569 841.684,995.666 848.152,1001.762 " />
<line x1="848.152" y1="398.238" x2="881.152" y2="398.238"  stroke="#7f7fff" />
<line x1="848.152" y1="1001.762" x2="881.152" y2="1001.762"  stroke="#7f7fff" />
<polyline fill="none" stroke="#7f7fff" points="881.152,398.238 881.038,404.334 880.926,410.431 880.816,416.527 880.708,422.623 880.603,428.719 880.501,434.815 880.4,440.912 880.302,447.008 880.207,453.104 880.113,459.2 880.022,465.296 879.933,471.393 879.847,477.489 879.763,483.585 879.681,489.681 879.602,495.777 879.525,501.874 879.45,507.97 879.378,514.066 879.308,520.162 879.24,526.258 879.175,532.355 879.112,538.451 879.051,544.547 878.993,550.643 878.937,556.739 878.883,562.836 878.832,568.932 878.783,575.028 878.736,581.124 878.692,587.22 878.65,593.317 878.61,599.413 878.573,605.509 878.538,611.605 878.505,617.701 878.475,623.798 878.447,629.894 878.421,635.99 878.398,642.086 878.377,648.182 878.358,654.279 878.341,660.375 878.327,666.471 878.316,672.567 878.306,678.663 878.299,684.76 878.295,690.856 878.292,696.952 878.292,703.048 878.295,709.144 878.299,715.24 878.306,721.337 878.316,727.433 878.327,733.529 878.341,739.625 878.358,745.721 878.377,751.818 878.398,757.914 878.421,764.01 878.447,770.106 878.475,776.202 878.505,782.299 878.538,788.395 878.573,794.491 878.61,800.587 878.65,806.683 878.692,812.78 878.736,818.876 878.783,824.972 878.832,831.068 878.883,837.164 878.937,843.261 878.993,849.357 879.051,855.453 879.112,861.549 879.175,867.645 879.24,873.742 879.308,879.838 879.378,885.934 879.45,892.03 879.525,898.126 879.602,904.223 879.681,910.319 879.763,916.415 879.847,922.511 879.933,928.607 880.022,934.704 880.113,940.8 880.207,946.896 880.302,952.992 880.4,959.088 880.501,965.185 880.603,971.281 880.708,977.377 880.816,983.473 880.926,989.569 881.038,995.666 881.152,1001.762 " />
<line x1="1008.714" y1="398.238" x2="1008.714" y2="502.984"  stroke="#7f7fff" />
<line x1="881.152" y1="398.238" x2="1008.714" y2="398.238"  stroke="#7f7fff" />
<line x1="1008.714" y1="1001.762" x2="1008.714" y2="897.016"  stroke="#7f7fff" />
<line x1="881.152" y1="1001.762" x2="1008.714" y2="1001.762"  stroke="#7f7fff" />
<polyline fill="none" stroke="#7f7fff" points="1008.714,502.984 1002.254,506.964 996.238,510.944 990.607,514.924 985.314,518.904 980.323,522.884 975.603,526.864 971.13,530.844 966.882,534.825 962.843,538.805 958.996,542.785 955.329,546.765 951.83,550.745 948.49,554.725 945.3,558.705 942.251,562.685 939.337,566.666 936.552,570.646 933.89,574.626 931.346,578.606 928.915,582.586 926.594,586.566 924.377,590.546 922.263,594.527 920.248,598.507 918.329,602.487 916.503,606.467 914.768,610.447 913.122,614.427 911.562,618.407 910.087,622.387 908.696,626.368 907.385,630.348 906.155,634.328 905.003,638.308 903.929,642.288 902.931,646.268 902.008,650.248 901.159,654.228 900.385,658.209 899.682,662.189 899.052,666.169 898.494,670.149 898.006,674.129 897.589,678.109 897.242,682.089 896.965,686.07 896.757,690.05 896.618,694.03 896.549,698.01 896.549,701.99 896.618,705.97 896.757,709.95 896.965,713.93 897.242,717.911 897.589,721.891 898.006,725.871 898.494,729.851 899.052,733.831 899.682,737.811 900.385,741.791 901.159,745.772 902.008,749.752 902.931,753.732 903.929,757.712 905.003,761.692 906.155,765.672 907.385,769.652 908.696,773.632 910.087,777.613 911.562,781.593 913.122,785.573 914.768,789.553 916.503,793.533 918.329,797.513 920.248,801.493 922.263,805.473 924.377,809.454 926.594,813.434 928.915,817.414 931.346,821.394 933.89,825.374 936.552,829.354 939.337,833.334 942.251,837.315 945.3,841.295 948.49,845.275 951.83,849.255 955.329,853.235 958.996,857.215 962.843,861.195 966.882,865.175 971.13,869.156 975.603,873.136 980.323,877.116 985.314,881.096 990.607,885.076 996.238,889.056 1002.254,893.036 1008.714,897.016 " />
</g>
<g>
<polyline fill="none" stroke="#7f7fff" points="1039.392,508.063 1042.841,511.941 1046.166,515.818 1049.375,519.696 1052.47,523.573 1055.458,527.451 1058.342,531.328 1061.126,535.206 1063.813,539.083 1066.408,542.961 1068.912,546.838 1071.329,550.716 1073.661,554.593 1075.911,558.471 1078.08,562.348 1080.172,566.226 1082.187,570.103 1084.127,573.981 1085.996,577.858 1087.792,581.736 1089.52,585.613 1091.178,589.491 1092.77,593.368 1094.296,597.246 1095.758,601.124 1097.155,605.001 1098.49,608.879 1099.763,612.756 1100.975,616.634 1102.127,620.511 1103.22,624.389 1104.254,628.266 1105.231,632.144 1106.149,636.021 1107.011,639.899 1107.817,643.776 1108.567,647.654 1109.262,651.531 1109.901,655.409 1110.486,659.286 1111.017,663.164 1111.494,667.041 1111.917,670.919 1112.287,674.796 1112.604,678.674 1112.867,682.551 1113.078,686.429 1113.236,690.306 1113.341,694.184 1113.394,698.061 1113.394,701.939 1113.341,705.816 1113.236,709.694 1113.078,713.571 1112.867,717.449 1112.604,721.326 1112.287,725.204 1111.917,729.081 1111.494,732.959 1111.017,736.836 1110.486,740.714 1109.901,744.591 1109.262,748.469 1108.567,752.346 1107.817,756.224 1107.011,760.101 1106.149,763.979 1105.231,767.856 1104.254,771.734 1103.22,775.611 1102.127,779.489 1100.975,783.366 1099.763,787.244 1098.49,791.121 1097.155,794.999 1095.758,798.876 1094.296,802.754 1092.77,806.632 1091.178,810.509 1089.52,814.387 1087.792,818.264 1085.996,822.142 1084.127,826.019 1082.187,829.897 1080.172,833.774 1078.08,837.652 1075.911,841.529 1073.661,845.407 1071.329,849.284 1068.912,853.162 1066.408,857.039 1063.813,860.917 1061.126,864.794 1058.342,868.672 1055.458,872.549 1052.47,876.427 1049.375,880.304 1046.166,884.182 1042.841,888.059 1039.392,891.937 " />
<line x1="1039.392" y1="439.133" x2="1039.392" y2="508.063"  stroke="#7f7fff" />
<line x1="1039.392" y1="439.133" x2="1157.94" y2="439.133"  stroke="#7f7fff" />
<line x1="1039.392" y1="960.867" x2="1039.392" y2="891.937"  stroke="#7f7fff" />
<line x1="1039.392" y1="960.867" x2="1157.94" y2="960.867"  stroke="#7f7fff" />
<polyline fill="none" stroke="#7f7fff" points="1157.94,439.133 1156.925,444.403 1155.931,449.673 1154.959,454.943 1154.007,460.213 1153.078,465.483 1152.169,470.753 1151.282,476.023 1150.416,481.294 1149.571,486.564 1148.747,491.834 1147.945,497.104 1147.163,502.374 1146.402,507.644 1145.663,512.914 1144.944,518.184 1144.246,523.454 1143.569,528.724 1142.913,533.994 1142.277,539.264 1141.663,544.534 1141.069,549.804 1140.496,555.074 1139.944,560.344 1139.412,565.614 1138.901,570.884 1138.41,576.154 1137.941,581.424 1137.491,586.694 1137.063,591.964 1136.654,597.234 1136.267,602.504 1135.9,607.774 1135.553,613.044 1135.227,618.314 1134.921,623.584 1134.636,628.855 1134.371,634.125 1134.126,639.395 1133.902,644.665 1133.699,649.935 1133.516,655.205 1133.353,660.475 1133.21,665.745 1133.088,671.015 1132.986,676.285 1132.905,681.555 1132.844,686.825 1132.803,692.095 1132.783,697.365 1132.783,702.635 1132.803,707.905 1132.844,713.175 1132.905,718.445 1132.986,723.715 1133.088,728.985 1133.21,734.255 1133.353,739.525 1133.516,744.795 1133.699,750.065 1133.902,755.335 1134.126,760.605 1134.371,765.875 1134.636,771.145 1134.921,776.416 1135.227,781.686 1135.553,786.956 1135.9,792.226 1136.267,797.496 1136.654,802.766 1137.063,808.036 1137.491,813.306 1137.941,818.576 1138.41,823.846 1138.901,829.116 1139.412,834.386 1139.944,839.656 1140.496,844.926 1141.069,850.196 1141.663,855.466 1142.277,860.736 1142.913,866.006 1143.569,871.276 1144.246,876.546 1144.944,881.816 1145.663,887.086 1146.402,892.356 1147.163,897.626 1147.945,902.896 1148.747,908.166 1149.571,913.436 1150.416,918.706 1151.282,923.977 1152.169,929.247 1153.078,934.517 1154.007,939.787 1154.959,945.057 1155.931,950.327 1156.925,955.597 1157.94,960.867 " />
<line x1="1157.94" y1="439.133" x2="1231.118" y2="439.133"  stroke="#7f7fff" />
<line x1="1157.94" y1="960.867" x2="1231.118" y2="960.867"  stroke="#7f7fff" />
<polyline fill="none" stroke="#7f7fff" points="1231.118,439.133 1235.716,444.403 1240.153,449.673 1244.436,454.943 1248.57,460.213 1252.562,465.483 1256.417,470.753 1260.14,476.023 1263.735,481.294 1267.207,486.564 1270.559,491.834 1273.796,497.104 1276.919,502.374 1279.933,507.644 1282.841,512.914 1285.644,518.184 1288.346,523.454 1290.948,528.724 1293.454,533.994 1295.864,539.264 1298.182,544.534 1300.408,549.804 1302.544,555.074 1304.593,560.344 1306.555,565.614 1308.431,570.884 1310.224,576.154 1311.934,581.424 1313.562,586.694 1315.109,591.964 1316.578,597.234 1317.967,602.504 1319.279,607.774 1320.513,613.044 1321.672,618.314 1322.755,623.584 1323.763,628.855 1324.696,634.125 1325.556,639.395 1326.342,644.665 1327.056,649.935 1327.697,655.205 1328.266,660.475 1328.763,665.745 1329.189,671.015 1329.543,676.285 1329.826,681.555 1330.039,686.825 1330.18,692.095 1330.251,697.365 1330.251,702.635 1330.18,707.905 1330.039,713.175 1329.826,718.445 1329.543,723.715 1329.189,728.985 1328.763,734.255 1328.266,739.525 1327.697,744.795 1327.056,750.065 1326.342,755.335 1325.556,760.605 1324.696,765.875 1323.763,771.145 1322.755,776.416 1321.672,781.686 1320.513,786.956 1319.279,792.226 1317.967,797.496 1316.578,802.766 1315.109,808.036 1313.562,813.306 1311.934,818.576 1310.224,823.846 1308.431,829.116 1306.555,834.386 1304.593,839.656 1302.544,844.926 1300.408,850.196 1298.182,855.466 1295.864,860.736 1293.454,866.006 1290.948,871.276 1288.346,876.546 1285.644,881.816 1282.841,887.086 1279.933,892.356 1276.919,897.626 1273.796,902.896 1270.559,908.166 1267.207,913.436 1263.735,918.706 1260.14,923.977 1256.417,929.247 1252.562,934.517 1248.57,939.787 1244.436,945.057 1240.153,950.327 1235.716,955.597 1231.118,960.867 " />
</g>
<g>
<polyline fill="none" stroke="#7f7fff" points="1355.271,448.457 1354.328,453.538 1353.405,458.62 1352.502,463.702 1351.619,468.784 1350.755,473.865 1349.912,478.947 1349.087,484.029 1348.283,489.11 1347.498,494.192 1346.733,499.274 1345.987,504.355 1345.261,509.437 1344.554,514.519 1343.867,519.6 1343.199,524.682 1342.55,529.764 1341.921,534.845 1341.312,539.927 1340.721,545.009 1340.15,550.09 1339.598,555.172 1339.066,560.254 1338.552,565.335 1338.058,570.417 1337.583,575.499 1337.127,580.58 1336.69,585.662 1336.273,590.744 1335.874,595.826 1335.495,600.907 1335.134,605.989 1334.793,611.071 1334.471,616.152 1334.168,621.234 1333.883,626.316 1333.618,631.397 1333.372,636.479 1333.145,641.561 1332.936,646.642 1332.747,651.724 1332.577,656.806 1332.425,661.887 1332.293,666.969 1332.179,672.051 1332.085,677.132 1332.009,682.214 1331.952,687.296 1331.914,692.377 1331.895,697.459 1331.895,702.541 1331.914,707.623 1331.952,712.704 1332.009,717.786 1332.085,722.868 1332.179,727.949 1332.293,733.031 1332.425,738.113 1332.577,743.194 1332.747,748.276 1332.936,753.358 1333.145,758.439 1333.372,763.521 1333.618,768.603 1333.883,773.684 1334.168,778.766 1334.471,783.848 1334.793,788.929 1335.134,794.011 1335.495,799.093 1335.874,804.174 1336.273,809.256 1336.69,814.338 1337.127,819.42 1337.583,824.501 1338.058,829.583 1338.552,834.665 1339.066,839.746 1339.598,844.828 1340.15,849.91 1340.721,854.991 1341.312,860.073 1341.921,865.155 1342.55,870.236 1343.199,875.318 1343.867,880.4 1344.554,885.481 1345.261,890.563 1345.987,895.645 1346.733,900.726 1347.498,905.808 1348.283,910.89 1349.087,915.971 1349.912,921.053 1350.755,926.135 1351.619,931.216 1352.502,936.298 1353.405,941.38 1354.328,946.462 1355.271,951.543 " />
<line x1="1355.271" y1="448.457" x2="1368.358" y2="448.457"  stroke="#7f7fff" />
<line x1="1355.271" y1="951.543" x2="1368.358" y2="951.543"  stroke="#7f7fff" />
<polyline fill="none" stroke="#7f7fff" points="1368.358,448.457 1369.162,453.538 1369.949,458.62 1370.719,463.702 1371.473,468.784 1372.209,473.865 1372.93,478.947 1373.633,484.029 1374.32,489.11 1374.99,494.192 1375.643,499.274 1376.28,504.355 1376.901,509.437 1377.505,514.519 1378.092,519.6 1378.663,524.682 1379.217,529.764 1379.755,534.845 1380.276,539.927 1380.781,545.009 1381.269,550.09 1381.741,555.172 1382.197,560.254 1382.636,565.335 1383.059,570.417 1383.465,575.499 1383.855,580.58 1384.229,585.662 1384.586,590.744 1384.927,595.826 1385.252,600.907 1385.56,605.989 1385.853,611.071 1386.128,616.152 1386.388,621.234 1386.631,626.316 1386.859,631.397 1387.069,636.479 1387.264,641.561 1387.442,646.642 1387.604,651.724 1387.75,656.806 1387.88,661.887 1387.994,666.969 1388.091,672.051 1388.172,677.132 1388.237,682.214 1388.285,687.296 1388.318,692.377 1388.334,697.459 1388.334,702.541 1388.318,707.623 1388.285,712.704 1388.237,717.786 1388.172,722.868 1388.091,727.949 1387.994,733.031 1387.88,738.113 1387.75,743.194 1387.604,748.276 1387.442,753.358 1387.264,758.439 1387.069,763.521 1386.859,768.603 1386.631,773.684 1386.388,778.766 1386.128,783.848 1385.853,788.929 1385.56,794.011 1385.252,799.093 1384.927,804.174 1384.586,809.256 1384.229,814.338 1383.855,819.42 1383.465,824.501 1383.059,829.583 1382.636,834.665 1382.197,839.746 1381.741,844.828 1381.269,849.91 1380.781,854.991 1380.276,860.073 1379.755,865.155 1379.217,870.236 1378.663,875.318 1378.092,880.4 1377.505,885.481 1376.901,890.563 1376.28,895.645 1375.643,900.726 1374.99,905.808 1374.32,910.89 1373.633,915.971 1372.93,921.053 1372.209,926.135 1371.473,931.216 1370.719,936.298 1369.949,941.38 1369.162,946.462 1368.358,951.543 " />
</g>
<g>
<polyline fill="none" stroke="#7f7fff" points="1415.306,450.772 1414.283,455.807 1413.281,460.841 1412.301,465.876 1411.342,470.911 1410.405,475.946 1409.49,480.981 1408.596,486.016 1407.723,491.051 1406.872,496.086 1406.042,501.121 1405.234,506.156 1404.447,511.191 1403.681,516.226 1402.936,521.26 1402.212,526.295 1401.509,531.33 1400.827,536.365 1400.167,541.4 1399.527,546.435 1398.908,551.47 1398.311,556.505 1397.734,561.54 1397.178,566.575 1396.642,571.61 1396.128,576.645 1395.634,581.679 1395.161,586.714 1394.709,591.749 1394.278,596.784 1393.867,601.819 1393.477,606.854 1393.108,611.889 1392.759,616.924 1392.431,621.959 1392.123,626.994 1391.836,632.029 1391.569,637.064 1391.323,642.098 1391.098,647.133 1390.893,652.168 1390.709,657.203 1390.545,662.238 1390.402,667.273 1390.279,672.308 1390.176,677.343 1390.095,682.378 1390.033,687.413 1389.992,692.448 1389.972,697.483 1389.972,702.517 1389.992,707.552 1390.033,712.587 1390.095,717.622 1390.176,722.657 1390.279,727.692 1390.402,732.727 1390.545,737.762 1390.709,742.797 1390.893,747.832 1391.098,752.867 1391.323,757.902 1391.569,762.936 1391.836,767.971 1392.123,773.006 1392.431,778.041 1392.759,783.076 1393.108,788.111 1393.477,793.146 1393.867,798.181 1394.278,803.216 1394.709,808.251 1395.161,813.286 1395.634,818.321 1396.128,823.355 1396.642,828.39 1397.178,833.425 1397.734,838.46 1398.311,843.495 1398.908,848.53 1399.527,853.565 1400.167,858.6 1400.827,863.635 1401.509,868.67 1402.212,873.705 1402.936,878.74 1403.681,883.774 1404.447,888.809 1405.234,893.844 1406.042,898.879 1406.872,903.914 1407.723,908.949 1408.596,913.984 1409.49,919.019 1410.405,924.054 1411.342,929.089 1412.301,934.124 1413.281,939.159 1414.283,944.193 1415.306,949.228 " />
<line x1="1415.306" y1="450.772" x2="1428.213" y2="450.772"  stroke="#7f7fff" />
<line x1="1415.306" y1="949.228" x2="1428.213" y2="949.228"  stroke="#7f7fff" />
<polyline fill="none" stroke="#7f7fff" points="1428.213,450.772 1429.088,455.807 1429.946,460.841 1430.785,465.876 1431.605,470.911 1432.408,475.946 1433.192,480.981 1433.958,486.016 1434.705,491.051 1435.435,496.086 1436.146,501.121 1436.839,506.156 1437.514,511.191 1438.171,516.226 1438.81,521.26 1439.431,526.295 1440.034,531.33 1440.619,536.365 1441.186,541.4 1441.735,546.435 1442.266,551.47 1442.78,556.505 1443.275,561.54 1443.753,566.575 1444.212,571.61 1444.654,576.645 1445.078,581.679 1445.485,586.714 1445.873,591.749 1446.244,596.784 1446.597,601.819 1446.932,606.854 1447.25,611.889 1447.55,616.924 1447.832,621.959 1448.096,626.994 1448.343,632.029 1448.572,637.064 1448.784,642.098 1448.978,647.133 1449.154,652.168 1449.312,657.203 1449.453,662.238 1449.577,667.273 1449.682,672.308 1449.77,677.343 1449.841,682.378 1449.894,687.413 1449.929,692.448 1449.946,697.483 1449.946,702.517 1449.929,707.552 1449.894,712.587 1449.841,717.622 1449.77,722.657 1449.682,727.692 1449.577,732.727 1449.453,737.762 1449.312,742.797 1449.154,747.832 1448.978,752.867 1448.784,757.902 1448.572,762.936 1448.343,767.971 1448.096,773.006 1447.832,778.041 1447.55,783.076 1447.25,788.111 1446.932,793.146 1446.597,798.181 1446.244,803.216 1445.873,808.251 1445.485,813.286 1445.078,818.321 1444.654,823.355 1444.212,828.39 1443.753,833.425 1443.275,838.46 1442.78,843.495 1442.266,848.53 1441.735,853.565 1441.186,858.6 1440.619,863.635 1440.034,868.67 1439.431,873.705 1438.81,878.74 1438.171,883.774 1437.514,888.809 1436.839,893.844 1436.146,898.879 1435.435,903.914 1434.705,908.949 1433.958,913.984 1433.192,919.019 1432.408,924.054 1431.605,929.089 1430.785,934.124 1429.946,939.159 1429.088,944.193 1428.213,949.228 " />
</g>
</g>
<g><title>element</title>
<polyline fill="none" stroke="#7f7fff" points="1846.039,144.444 1846.039,155.668 1846.039,166.891 1846.039,178.114 1846.039,189.338 1846.039,200.561 1846.039,211.785 1846.039,223.008 1846.039,234.231 1846.039,245.455 1846.039,256.678 1846.039,267.901 1846.039,279.125 1846.039,290.348 1846.039,301.571 1846.039,312.795 1846.039,324.018 1846.039,335.241 1846.039,346.465 1846.039,357.688 1846.039,368.911 1846.039,380.135 1846.039,391.358 1846.039,402.581 1846.039,413.805 1846.039,425.028 1846.039,436.251 1846.039,447.475 1846.039,458.698 1846.039,469.921 1846.039,481.145 1846.039,492.368 1846.039,503.591 1846.039,514.815 1846.039,526.038 1846.039,537.262 1846.039,548.485 1846.039,559.708 1846.039,570.932 1846.039,582.155 1846.039,593.378 1846.039,604.602 1846.039,615.825 1846.039,627.048 1846.039,638.272 1846.039,649.495 1846.039,660.718 1846.039,671.942 1846.039,683.165 1846.039,694.388 1846.039,705.612 1846.039,716.835 1846.039,728.058 1846.039,739.282 1846.039,750.505 1846.039,761.728 1846.039,772.952 1846.039,784.175 1846.039,795.398 1846.039,806.622 1846.039,817.845 1846.039,829.068 1846.039,840.292 1846.039,851.515 1846.039,862.738 1846.039,873.962 1846.039,885.185 1846.039,896.409 1846.039,907.632 1846.039,918.855 1846.039,930.079 1846.039,941.302 1846.039,952.525 1846.039,963.749 1846.039,974.972 1846.039,986.195 1846.039,997.419 1846.039,1008.642 1846.039,1019.865 1846.039,1031.089 1846.039,1042.312 1846.039,1053.535 1846.039,1064.759 1846.039,1075.982 1846.039,1087.205 1846.039,1098.429 1846.039,1109.652 1846.039,1120.875 1846.039,1132.099 1846.039,1143.322 1846.039,1154.545 1846.039,1165.769 1846.039,1176.992 1846.039,1188.215 1846.039,1199.439 1846.039,1210.662 1846.039,1221.886 1846.039,1233.109 1846.039,1244.332 1846.039,1255.556 " />
</g>
</svg>
