<?xml version="1.0" standalone="no"?>
<svg width="2400px" height="1400px" version="1.1" xmlns="http://www.w3.org/2000/svg" xmlns:xlink="http://www.w3.org/1999/xlink">
<rect x="0" y="0" width="2400" height="1400"  fill="#ffffff" />
<defs>
<g id="dot">
<line x1="1" y1="1" x2="0" y2="0"  />
</g>
<g id="cross">
<line x1="-3" y1="0" x2="3" y2="0"  />
<line x1="0" y1="-3" x2="0" y2="3"  />
</g>
<g id="square">
<line x1="-3" y1="-3" x2="-3" y2="3"  />
<line x1="-3" y1="3" x2="3" y2="3"  />
<line x1="3" y1="3" x2="3" y2="-3"  />
<line x1="3" y1="-3" x2="-3" y2="-3"  />
</g>
<g id="round">
<ellipse cx="0" cy="0" rx="3" ry="3"  fill="none" /></g>
<g id="triangle">
<line x1="0" y1="-3" x2="-3" y2="3"  />
<line x1="-3" y1="3" x2="3" y2="3"  />
<line x1="0" y1="-3" x2="3" y2="3"  />
</g>
</defs>
<line x1="247.619" y1="700" x2="2152.381" y2="700"  stroke="#7f7f7f" />
<g><title>element</title>
<g>
<line x1="1373.209" y1="515.021" x2="1373.209" y2="330.042"  stroke="#7f7fff" />
<line x1="1373.209" y1="884.979" x2="1373.209" y2="1069.958"  stroke="#7f7fff" />
</g>
<g>
<polyline fill="none" stroke="#7f7fff" points="310.036,310.861 307.476,318.722 304.974,326.584 302.529,334.445 300.141,342.306 297.81,350.168 295.535,358.029 293.316,365.891 291.152,373.752 289.044,381.613 286.99,389.475 284.991,397.336 283.047,405.198 281.157,413.059 279.321,420.92 277.538,428.782 275.809,436.643 274.133,444.505 272.51,452.366 270.94,460.227 269.422,468.089 267.957,475.95 266.544,483.812 265.183,491.673 263.874,499.534 262.616,507.396 261.41,515.257 260.256,523.119 259.152,530.98 258.1,538.841 257.099,546.703 256.148,554.564 255.248,562.426 254.399,570.287 253.6,578.148 252.852,586.01 252.153,593.871 251.506,601.733 250.908,609.594 250.36,617.455 249.862,625.317 249.415,633.178 249.017,641.04 248.669,648.901 248.371,656.762 248.122,664.624 247.923,672.485 247.774,680.347 247.675,688.208 247.625,696.069 247.625,703.931 247.675,711.792 247.774,719.653 247.923,727.515 248.122,735.376 248.371,743.238 248.669,751.099 249.017,758.96 249.415,766.822 249.862,774.683 250.36,782.545 250.908,790.406 251.506,798.267 252.153,806.129 252.852,813.99 253.6,821.852 254.399,829.713 255.248,837.574 256.148,845.436 257.099,853.297 258.1,861.159 259.152,869.02 260.256,876.881 261.41,884.743 262.616,892.604 263.874,900.466 265.183,908.327 266.544,916.188 267.957,924.05 269.422,931.911 270.94,939.773 272.51,947.634 274.133,955.495 275.809,963.357 277.538,971.218 279.321,979.08 281.157,986.941 283.047,994.802 284.991,1002.664 286.99,1010.525 289.044,1018.387 291.152,1026.248 293.316,1034.109 295.535,1041.971 297.81,1049.832 300.141,1057.694 302.529,1065.555 304.974,1073.416 307.476,1081.278 310.036,1089.139 " />
<line x1="310.036" y1="310.861" x2="322.655" y2="310.861"  stroke="#7f7fff" />
<line x1="310.036" y1="1089.139" x2="322.655" y2="1089.139"  stroke="#7f7fff" />
<polyline fill="none" stroke="#7f7fff" points="322.655,310.861 322.125,318.722 321.606,326.584 321.097,334.445 320.6,342.306 320.113,350.168 319.637,358.029 319.172,365.891 318.718,373.752 318.275,381.613 317.843,389.475 317.421,397.336 317.01,405.198 316.61,413.059 316.221,420.92 315.843,428.782 315.476,436.643 315.119,444.505 314.773,452.366 314.439,460.227 314.114,468.089 313.801,475.95 313.499,483.812 313.207,491.673 312.926,499.534 312.656,507.396 312.397,515.257 312.149,523.119 311.911,530.98 311.684,538.841 311.468,546.703 311.263,554.564 311.069,562.426 310.885,570.287 310.713,578.148 310.551,586.01 310.399,593.871 310.259,601.733 310.13,609.594 310.011,617.455 309.903,625.317 309.806,633.178 309.719,641.04 309.644,648.901 309.579,656.762 309.525,664.624 309.482,672.485 309.449,680.347 309.428,688.208 309.417,696.069 309.417,703.931 309.428,711.792 309.449,719.653 309.482,727.515 309.525,735.376 309.579,743.238 309.644,751.099 309.719,758.96 309.806,766.822 309.903,774.683 310.011,782.545 310.13,790.406 310.259,798.267 310.399,806.129 310.551,813.99 310.713,821.852 310.885,829.713 311.069,837.574 311.263,845.436 311.468,853.297 311.684,861.159 311.911,869.02 312.149,876.881 312.397,884.743 312.656,892.604 312.926,900.466 313.207,908.327 313.499,916.188 313.801,924.05 314.114,931.911 314.439,939.773 314.773,947.634 315.119,955.495 315.476,963.357 315.843,971.218 316.221,979.08 316.61,986.941 317.01,994.802 317.421,1002.664 317.843,1010.525 318.275,1018.387 318.718,1026.248 319.172,1034.109 319.637,1041.971 320.113,1049.832 320.6,1057.694 321.097,1065.555 321.606,1073.416 322.125,1081.278 322.655,1089.139 " />
</g>
<g>
<polyline fill="none" stroke="#7f7fff" points="342.417,335.366 341.155,342.733 339.919,350.099 338.71,357.465 337.528,364.832 336.371,372.198 335.241,379.564 334.137,386.931 333.06,394.297 332.009,401.663 330.983,409.03 329.984,416.396 329.011,423.762 328.064,431.129 327.143,438.495 326.248,445.861 325.379,453.228 324.536,460.594 323.718,467.96 322.927,475.327 322.161,482.693 321.421,490.059 320.707,497.426 320.019,504.792 319.356,512.158 318.719,519.525 318.108,526.891 317.522,534.257 316.962,541.624 316.427,548.99 315.919,556.356 315.435,563.723 314.977,571.089 314.545,578.455 314.138,585.822 313.757,593.188 313.401,600.554 313.071,607.921 312.766,615.287 312.486,622.653 312.232,630.02 312.004,637.386 311.801,644.752 311.623,652.119 311.471,659.485 311.344,666.851 311.242,674.218 311.166,681.584 311.115,688.95 311.09,696.317 311.09,703.683 311.115,711.05 311.166,718.416 311.242,725.782 311.344,733.149 311.471,740.515 311.623,747.881 311.801,755.248 312.004,762.614 312.232,769.98 312.486,777.347 312.766,784.713 313.071,792.079 313.401,799.446 313.757,806.812 314.138,814.178 314.545,821.545 314.977,828.911 315.435,836.277 315.919,843.644 316.427,851.01 316.962,858.376 317.522,865.743 318.108,873.109 318.719,880.475 319.356,887.842 320.019,895.208 320.707,902.574 321.421,909.941 322.161,917.307 322.927,924.673 323.718,932.04 324.536,939.406 325.379,946.772 326.248,954.139 327.143,961.505 328.064,968.871 329.011,976.238 329.984,983.604 330.983,990.97 332.009,998.337 333.06,1005.703 334.137,1013.069 335.241,1020.436 336.371,1027.802 337.528,1035.168 338.71,1042.535 339.919,1049.901 341.155,1057.267 342.417,1064.634 " />
<line x1="467.117" y1="335.366" x2="467.117" y2="427.096"  stroke="#7f7fff" />
<line x1="342.417" y1="335.366" x2="467.117" y2="335.366"  stroke="#7f7fff" />
<line x1="467.117" y1="1064.634" x2="467.117" y2="972.904"  stroke="#7f7fff" />
<line x1="342.417" y1="1064.634" x2="467.117" y2="1064.634"  stroke="#7f7fff" />
<polyline fill="none" stroke="#7f7fff" points="467.117,427.096 459.719,432.609 452.722,438.122 446.087,443.635 439.784,449.149 433.783,454.662 428.063,460.175 422.604,465.688 417.388,471.201 412.4,476.715 407.627,482.228 403.057,487.741 398.68,493.254 394.486,498.768 390.467,504.281 386.615,509.794 382.924,515.307 379.387,520.82 375.998,526.334 372.753,531.847 369.647,537.36 366.674,542.873 363.833,548.386 361.118,553.9 358.526,559.413 356.054,564.926 353.7,570.439 351.46,575.953 349.333,581.466 347.316,586.979 345.406,592.492 343.603,598.005 341.904,603.519 340.307,609.032 338.812,614.545 337.416,620.058 336.118,625.572 334.918,631.085 333.814,636.598 332.805,642.111 331.891,647.624 331.07,653.138 330.342,658.651 329.706,664.164 329.162,669.677 328.71,675.191 328.348,680.704 328.077,686.217 327.896,691.73 327.806,697.243 327.806,702.757 327.896,708.27 328.077,713.783 328.348,719.296 328.71,724.809 329.162,730.323 329.706,735.836 330.342,741.349 331.07,746.862 331.891,752.376 332.805,757.889 333.814,763.402 334.918,768.915 336.118,774.428 337.416,779.942 338.812,785.455 340.307,790.968 341.904,796.481 343.603,801.995 345.406,807.508 347.316,813.021 349.333,818.534 351.46,824.047 353.7,829.561 356.054,835.074 358.526,840.587 361.118,846.1 363.833,851.614 366.674,857.127 369.647,862.64 372.753,868.153 375.998,873.666 379.387,879.18 382.924,884.693 386.615,890.206 390.467,895.719 394.486,901.232 398.68,906.746 403.057,912.259 407.627,917.772 412.4,923.285 417.388,928.799 422.604,934.312 428.063,939.825 433.783,945.338 439.784,950.851 446.087,956.365 452.722,961.878 459.719,967.391 467.117,972.904 " />
</g>
<g>
<polyline fill="none" stroke="#7f7fff" points="470.963,411.278 470.61,417.111 470.263,422.944 469.924,428.777 469.592,434.609 469.268,440.442 468.95,446.275 468.64,452.108 468.337,457.94 468.041,463.773 467.753,469.606 467.472,475.439 467.197,481.271 466.931,487.104 466.671,492.937 466.419,498.77 466.174,504.603 465.936,510.435 465.705,516.268 465.481,522.101 465.265,527.934 465.056,533.766 464.854,539.599 464.66,545.432 464.472,551.265 464.292,557.097 464.119,562.93 463.953,568.763 463.795,574.596 463.644,580.428 463.499,586.261 463.363,592.094 463.233,597.927 463.11,603.759 462.995,609.592 462.887,615.425 462.786,621.258 462.692,627.09 462.606,632.923 462.527,638.756 462.455,644.589 462.39,650.422 462.332,656.254 462.282,662.087 462.239,667.92 462.203,673.753 462.174,679.585 462.152,685.418 462.138,691.251 462.131,697.084 462.131,702.916 462.138,708.749 462.152,714.582 462.174,720.415 462.203,726.247 462.239,732.08 462.282,737.913 462.332,743.746 462.39,749.578 462.455,755.411 462.527,761.244 462.606,767.077 462.692,772.91 462.786,778.742 462.887,784.575 462.995,790.408 463.11,796.241 463.233,802.073 463.363,807.906 463.499,813.739 463.644,819.572 463.795,825.404 463.953,831.237 464.119,837.07 464.292,842.903 464.472,848.735 464.66,854.568 464.854,860.401 465.056,866.234 465.265,872.066 465.481,877.899 465.705,883.732 465.936,889.565 466.174,895.397 466.419,901.23 466.671,907.063 466.931,912.896 467.197,918.729 467.472,924.561 467.753,930.394 468.041,936.227 468.337,942.06 468.64,947.892 468.95,953.725 469.268,959.558 469.592,965.391 469.924,971.223 470.263,977.056 470.61,982.889 470.963,988.722 " />
<line x1="539.846" y1="411.278" x2="539.846" y2="444.361"  stroke="#7f7fff" />
<line x1="470.963" y1="411.278" x2="539.846" y2="411.278"  stroke="#7f7fff" />
<line x1="539.846" y1="988.722" x2="539.846" y2="955.639"  stroke="#7f7fff" />
<line x1="470.963" y1="988.722" x2="539.846" y2="988.722"  stroke="#7f7fff" />
<polyline fill="none" stroke="#7f7fff" points="539.846,444.361 537.265,449.525 534.75,454.69 532.299,459.854 529.911,465.019 527.586,470.183 525.322,475.348 523.12,480.512 520.978,485.676 518.895,490.841 516.871,496.005 514.904,501.17 512.996,506.334 511.144,511.499 509.348,516.663 507.608,521.827 505.923,526.992 504.292,532.156 502.716,537.321 501.193,542.485 499.724,547.65 498.307,552.814 496.943,557.978 495.63,563.143 494.369,568.307 493.159,573.472 492,578.636 490.892,583.8 489.834,588.965 488.826,594.129 487.868,599.294 486.959,604.458 486.099,609.623 485.288,614.787 484.526,619.951 483.813,625.116 483.148,630.28 482.531,635.445 481.962,640.609 481.441,645.774 480.968,650.938 480.543,656.102 480.165,661.267 479.834,666.431 479.551,671.596 479.315,676.76 479.127,681.925 478.985,687.089 478.891,692.253 478.844,697.418 478.844,702.582 478.891,707.747 478.985,712.911 479.127,718.075 479.315,723.24 479.551,728.404 479.834,733.569 480.165,738.733 480.543,743.898 480.968,749.062 481.441,754.226 481.962,759.391 482.531,764.555 483.148,769.72 483.813,774.884 484.526,780.049 485.288,785.213 486.099,790.377 486.959,795.542 487.868,800.706 488.826,805.871 489.834,811.035 490.892,816.2 492,821.364 493.159,826.528 494.369,831.693 495.63,836.857 496.943,842.022 498.307,847.186 499.724,852.35 501.193,857.515 502.716,862.679 504.292,867.844 505.923,873.008 507.608,878.173 509.348,883.337 511.144,888.501 512.996,893.666 514.904,898.83 516.871,903.995 518.895,909.159 520.978,914.324 523.12,919.488 525.322,924.652 527.586,929.817 529.911,934.981 532.299,940.146 534.75,945.31 537.265,950.475 539.846,955.639 " />
</g>
<g>
<polyline fill="none" stroke="#7f7fff" points="541.557,444.361 545.381,449.525 549.086,454.69 552.676,459.854 556.154,465.019 559.524,470.183 562.789,475.348 565.951,480.512 569.014,485.676 571.979,490.841 574.849,496.005 577.626,501.17 580.312,506.334 582.91,511.499 585.42,516.663 587.845,521.827 590.187,526.992 592.446,532.156 594.624,537.321 596.722,542.485 598.743,547.65 600.686,552.814 602.553,557.978 604.346,563.143 606.064,568.307 607.71,573.472 609.283,578.636 610.786,583.8 612.217,588.965 613.579,594.129 614.873,599.294 616.097,604.458 617.254,609.623 618.344,614.787 619.367,619.951 620.323,625.116 621.214,630.28 622.04,635.445 622.801,640.609 623.497,645.774 624.129,650.938 624.697,656.102 625.201,661.267 625.641,666.431 626.019,671.596 626.333,676.76 626.584,681.925 626.772,687.089 626.898,692.253 626.96,697.418 626.96,702.582 626.898,707.747 626.772,712.911 626.584,718.075 626.333,723.24 626.019,728.404 625.641,733.569 625.201,738.733 624.697,743.898 624.129,749.062 623.497,754.226 622.801,759.391 622.04,764.555 621.214,769.72 620.323,774.884 619.367,780.049 618.344,785.213 617.254,790.377 616.097,795.542 614.873,800.706 613.579,805.871 612.217,811.035 610.786,816.2 609.283,821.364 607.71,826.528 606.064,831.693 604.346,836.857 602.553,842.022 600.686,847.186 598.743,852.35 596.722,857.515 594.624,862.679 592.446,867.844 590.187,873.008 587.845,878.173 585.42,883.337 582.91,888.501 580.312,893.666 577.626,898.83 574.849,903.995 571.979,909.159 569.014,914.324 565.951,919.488 562.789,924.652 559.524,929.817 556.154,934.981 552.676,940.146 549.086,945.31 545.381,950.475 541.557,955.639 " />
<line x1="541.557" y1="400.975" x2="541.557" y2="444.361"  stroke="#7f7fff" />
<line x1="541.557" y1="400.975" x2="667.081" y2="400.975"  stroke="#7f7fff" />
<line x1="541.557" y1="999.025" x2="541.557" y2="955.639"  stroke="#7f7fff" />
<line x1="541.557" y1="999.025" x2="667.081" y2="999.025"  stroke="#7f7fff" />
<polyline fill="none" stroke="#7f7fff" points="667.081,400.975 666.139,407.016 665.217,413.057 664.315,419.098 663.432,425.138 662.569,431.179 661.726,437.22 660.902,443.261 660.097,449.302 659.312,455.343 658.547,461.384 657.801,467.425 657.074,473.466 656.366,479.507 655.679,485.548 655.01,491.589 654.361,497.629 653.731,503.67 653.12,509.711 652.529,515.752 651.956,521.793 651.403,527.834 650.87,533.875 650.355,539.916 649.86,545.957 649.384,551.998 648.927,558.039 648.489,564.079 648.07,570.12 647.671,576.161 647.29,582.202 646.929,588.243 646.586,594.284 646.263,600.325 645.959,606.366 645.674,612.407 645.408,618.448 645.161,624.489 644.933,630.53 644.724,636.57 644.534,642.611 644.363,648.652 644.211,654.693 644.078,660.734 643.964,666.775 643.869,672.816 643.793,678.857 643.736,684.898 643.698,690.939 643.679,696.98 643.679,703.02 643.698,709.061 643.736,715.102 643.793,721.143 643.869,727.184 643.964,733.225 644.078,739.266 644.211,745.307 644.363,751.348 644.534,757.389 644.724,763.43 644.933,769.47 645.161,775.511 645.408,781.552 645.674,787.593 645.959,793.634 646.263,799.675 646.586,805.716 646.929,811.757 647.29,817.798 647.671,823.839 648.07,829.88 648.489,835.921 648.927,841.961 649.384,848.002 649.86,854.043 650.355,860.084 650.87,866.125 651.403,872.166 651.956,878.207 652.529,884.248 653.12,890.289 653.731,896.33 654.361,902.371 655.01,908.411 655.679,914.452 656.366,920.493 657.074,926.534 657.801,932.575 658.547,938.616 659.312,944.657 660.097,950.698 660.902,956.739 661.726,962.78 662.569,968.821 663.432,974.862 664.315,980.902 665.217,986.943 666.139,992.984 667.081,999.025 " />
<line x1="667.081" y1="400.975" x2="672.348" y2="400.975"  stroke="#7f7fff" />
<line x1="667.081" y1="999.025" x2="672.348" y2="999.025"  stroke="#7f7fff" />
<polyline fill="none" stroke="#7f7fff" points="672.348,400.975 675.582,407.016 678.732,413.057 681.799,419.098 684.785,425.138 687.691,431.179 690.517,437.22 693.266,443.261 695.938,449.302 698.535,455.343 701.057,461.384 703.506,467.425 705.882,473.466 708.186,479.507 710.42,485.548 712.583,491.589 714.677,497.629 716.702,503.67 718.659,509.711 720.549,515.752 722.372,521.793 724.13,527.834 725.822,533.875 727.449,539.916 729.011,545.957 730.51,551.998 731.946,558.039 733.318,564.079 734.628,570.12 735.876,576.161 737.062,582.202 738.186,588.243 739.25,594.284 740.252,600.325 741.195,606.366 742.077,612.407 742.899,618.448 743.661,624.489 744.364,630.53 745.008,636.57 745.592,642.611 746.118,648.652 746.585,654.693 746.993,660.734 747.343,666.775 747.634,672.816 747.867,678.857 748.042,684.898 748.158,690.939 748.216,696.98 748.216,703.02 748.158,709.061 748.042,715.102 747.867,721.143 747.634,727.184 747.343,733.225 746.993,739.266 746.585,745.307 746.118,751.348 745.592,757.389 745.008,763.43 744.364,769.47 743.661,775.511 742.899,781.552 742.077,787.593 741.195,793.634 740.252,799.675 739.25,805.716 738.186,811.757 737.062,817.798 735.876,823.839 734.628,829.88 733.318,835.921 731.946,841.961 730.51,848.002 729.011,854.043 727.449,860.084 725.822,866.125 724.13,872.166 722.372,878.207 720.549,884.248 718.659,890.289 716.702,896.33 714.677,902.371 712.583,908.411 710.42,914.452 708.186,920.493 705.882,926.534 703.506,932.575 701.057,938.616 698.535,944.657 695.938,950.698 693.266,956.739 690.517,962.78 687.691,968.821 684.785,974.862 681.799,980.902 678.732,986.943 675.582,992.984 672.348,999.025 " />
</g>
<g>
<polyline fill="none" stroke="#7f7fff" points="747.637,412.671 747.727,418.475 747.816,424.28 747.902,430.085 747.987,435.889 748.07,441.694 748.151,447.499 748.23,453.303 748.308,459.108 748.383,464.912 748.457,470.717 748.529,476.522 748.599,482.326 748.667,488.131 748.733,493.936 748.798,499.74 748.861,505.545 748.921,511.349 748.98,517.154 749.037,522.959 749.093,528.763 749.146,534.568 749.198,540.373 749.247,546.177 749.295,551.982 749.341,557.787 749.386,563.591 749.428,569.396 749.469,575.2 749.507,581.005 749.544,586.81 749.579,592.614 749.612,598.419 749.644,604.224 749.673,610.028 749.701,615.833 749.727,621.637 749.75,627.442 749.773,633.247 749.793,639.051 749.811,644.856 749.828,650.661 749.843,656.465 749.856,662.27 749.867,668.075 749.876,673.879 749.883,679.684 749.889,685.488 749.892,691.293 749.894,697.098 749.894,702.902 749.892,708.707 749.889,714.512 749.883,720.316 749.876,726.121 749.867,731.925 749.856,737.73 749.843,743.535 749.828,749.339 749.811,755.144 749.793,760.949 749.773,766.753 749.75,772.558 749.727,778.363 749.701,784.167 749.673,789.972 749.644,795.776 749.612,801.581 749.579,807.386 749.544,813.19 749.507,818.995 749.469,824.8 749.428,830.604 749.386,836.409 749.341,842.213 749.295,848.018 749.247,853.823 749.198,859.627 749.146,865.432 749.093,871.237 749.037,877.041 748.98,882.846 748.921,888.651 748.861,894.455 748.798,900.26 748.733,906.064 748.667,911.869 748.599,917.674 748.529,923.478 748.457,929.283 748.383,935.088 748.308,940.892 748.23,946.697 748.151,952.501 748.07,958.306 747.987,964.111 747.902,969.915 747.816,975.72 747.727,981.525 747.637,987.329 " />
<line x1="747.637" y1="412.671" x2="748.402" y2="412.671"  stroke="#7f7fff" />
<line x1="747.637" y1="987.329" x2="748.402" y2="987.329"  stroke="#7f7fff" />
<polyline fill="none" stroke="#7f7fff" points="748.402,412.671 755.658,418.475 762.551,424.28 769.113,430.085 775.369,435.889 781.342,441.694 787.051,447.499 792.512,453.303 797.741,459.108 802.751,464.912 807.553,470.717 812.158,476.522 816.575,482.326 820.813,488.131 824.879,493.936 828.779,499.74 832.521,505.545 836.11,511.349 839.551,517.154 842.849,522.959 846.009,528.763 849.034,534.568 851.928,540.373 854.694,546.177 857.337,551.982 859.858,557.787 862.261,563.591 864.548,569.396 866.72,575.2 868.782,581.005 870.734,586.81 872.578,592.614 874.316,598.419 875.949,604.224 877.48,610.028 878.909,615.833 880.237,621.637 881.466,627.442 882.597,633.247 883.631,639.051 884.568,644.856 885.409,650.661 886.155,656.465 886.807,662.27 887.364,668.075 887.828,673.879 888.199,679.684 888.477,685.488 888.662,691.293 888.754,697.098 888.754,702.902 888.662,708.707 888.477,714.512 888.199,720.316 887.828,726.121 887.364,731.925 886.807,737.73 886.155,743.535 885.409,749.339 884.568,755.144 883.631,760.949 882.597,766.753 881.466,772.558 880.237,778.363 878.909,784.167 877.48,789.972 875.949,795.776 874.316,801.581 872.578,807.386 870.734,813.19 868.782,818.995 866.72,824.8 864.548,830.604 862.261,836.409 859.858,842.213 857.337,848.018 854.694,853.823 851.928,859.627 849.034,865.432 846.009,871.237 842.849,877.041 839.551,882.846 836.11,888.651 832.521,894.455 828.779,900.26 824.879,906.064 820.813,911.869 816.575,917.674 812.158,923.478 807.553,929.283 802.751,935.088 797.741,940.892 792.512,946.697 787.051,952.501 781.342,958.306 775.369,964.111 769.113,969.915 762.551,975.72 755.658,981.525 748.402,987.329 " />
<line x1="748.402" y1="407.714" x2="748.402" y2="412.671"  stroke="#7f7fff" />
<line x1="748.402" y1="407.714" x2="921.052" y2="407.714"  stroke="#7f7fff" />
<line x1="748.402" y1="992.286" x2="748.402" y2="987.329"  stroke="#7f7fff" />
<line x1="748.402" y1="992.286" x2="921.052" y2="992.286"  stroke="#7f7fff" />
<polyline fill="none" stroke="#7f7fff" points="921.052,407.714 920.427,413.619 919.815,419.523 919.216,425.428 918.63,431.333 918.057,437.238 917.496,443.143 916.949,449.047 916.414,454.952 915.892,460.857 915.383,466.762 914.887,472.666 914.404,478.571 913.933,484.476 913.475,490.381 913.03,496.285 912.598,502.19 912.179,508.095 911.772,514 911.378,519.905 910.997,525.809 910.628,531.714 910.273,537.619 909.93,543.524 909.6,549.428 909.282,555.333 908.978,561.238 908.686,567.143 908.406,573.047 908.14,578.952 907.886,584.857 907.645,590.762 907.417,596.667 907.201,602.571 906.998,608.476 906.808,614.381 906.63,620.286 906.465,626.19 906.313,632.095 906.173,638 906.047,643.905 905.932,649.809 905.831,655.714 905.742,661.619 905.666,667.524 905.603,673.429 905.552,679.333 905.514,685.238 905.489,691.143 905.476,697.048 905.476,702.952 905.489,708.857 905.514,714.762 905.552,720.667 905.603,726.571 905.666,732.476 905.742,738.381 905.831,744.286 905.932,750.191 906.047,756.095 906.173,762 906.313,767.905 906.465,773.81 906.63,779.714 906.808,785.619 906.998,791.524 907.201,797.429 907.417,803.333 907.645,809.238 907.886,815.143 908.14,821.048 908.406,826.953 908.686,832.857 908.978,838.762 909.282,844.667 909.6,850.572 909.93,856.476 910.273,862.381 910.628,868.286 910.997,874.191 911.378,880.095 911.772,886 912.179,891.905 912.598,897.81 913.03,903.715 913.475,909.619 913.933,915.524 914.404,921.429 914.887,927.334 915.383,933.238 915.892,939.143 916.414,945.048 916.949,950.953 917.496,956.857 918.057,962.762 918.63,968.667 919.216,974.572 919.815,980.477 920.427,986.381 921.052,992.286 " />
</g>
<g>
<polyline fill="none" stroke="#7f7fff" points="951.83,415.567 949.999,421.313 948.21,427.059 946.461,432.805 944.753,438.551 943.085,444.297 941.457,450.044 939.869,455.79 938.321,461.536 936.812,467.282 935.342,473.028 933.912,478.774 932.52,484.52 931.167,490.266 929.852,496.013 928.576,501.759 927.338,507.505 926.138,513.251 924.976,518.997 923.852,524.743 922.765,530.489 921.716,536.235 920.704,541.982 919.729,547.728 918.791,553.474 917.89,559.22 917.027,564.966 916.199,570.712 915.409,576.458 914.655,582.204 913.938,587.951 913.257,593.697 912.612,599.443 912.003,605.189 911.431,610.935 910.895,616.681 910.395,622.427 909.93,628.173 909.502,633.92 909.11,639.666 908.753,645.412 908.432,651.158 908.147,656.904 907.898,662.65 907.684,668.396 907.506,674.142 907.363,679.889 907.256,685.635 907.185,691.381 907.15,697.127 907.15,702.873 907.185,708.619 907.256,714.365 907.363,720.111 907.506,725.858 907.684,731.604 907.898,737.35 908.147,743.096 908.432,748.842 908.753,754.588 909.11,760.334 909.502,766.08 909.93,771.827 910.395,777.573 910.895,783.319 911.431,789.065 912.003,794.811 912.612,800.557 913.257,806.303 913.938,812.049 914.655,817.796 915.409,823.542 916.199,829.288 917.027,835.034 917.89,840.78 918.791,846.526 919.729,852.272 920.704,858.018 921.716,863.765 922.765,869.511 923.852,875.257 924.976,881.003 926.138,886.749 927.338,892.495 928.576,898.241 929.852,903.987 931.167,909.734 932.52,915.48 933.912,921.226 935.342,926.972 936.812,932.718 938.321,938.464 939.869,944.21 941.457,949.956 943.085,955.703 944.753,961.449 946.461,967.195 948.21,972.941 949.999,978.687 951.83,984.433 " />
<line x1="951.83" y1="415.567" x2="963.022" y2="415.567"  stroke="#7f7fff" />
<line x1="951.83" y1="984.433" x2="963.022" y2="984.433"  stroke="#7f7fff" />
<polyline fill="none" stroke="#7f7fff" points="963.022,415.567 963.408,421.313 963.786,427.059 964.157,432.805 964.519,438.551 964.873,444.297 965.22,450.044 965.559,455.79 965.889,461.536 966.212,467.282 966.527,473.028 966.834,478.774 967.133,484.52 967.425,490.266 967.708,496.013 967.983,501.759 968.251,507.505 968.511,513.251 968.762,518.997 969.006,524.743 969.242,530.489 969.471,536.235 969.691,541.982 969.903,547.728 970.108,553.474 970.304,559.22 970.493,564.966 970.674,570.712 970.847,576.458 971.012,582.204 971.17,587.951 971.319,593.697 971.461,599.443 971.594,605.189 971.72,610.935 971.838,616.681 971.948,622.427 972.05,628.173 972.145,633.92 972.231,639.666 972.31,645.412 972.381,651.158 972.443,656.904 972.498,662.65 972.546,668.396 972.585,674.142 972.616,679.889 972.64,685.635 972.656,691.381 972.664,697.127 972.664,702.873 972.656,708.619 972.64,714.365 972.616,720.111 972.585,725.858 972.546,731.604 972.498,737.35 972.443,743.096 972.381,748.842 972.31,754.588 972.231,760.334 972.145,766.08 972.05,771.827 971.948,777.573 971.838,783.319 971.72,789.065 971.594,794.811 971.461,800.557 971.319,806.303 971.17,812.049 971.012,817.796 970.847,823.542 970.674,829.288 970.493,835.034 970.304,840.78 970.108,846.526 969.903,852.272 969.691,858.018 969.471,863.765 969.242,869.511 969.006,875.257 968.762,881.003 968.511,886.749 968.251,892.495 967.983,898.241 967.708,903.987 967.425,909.734 967.133,915.48 966.834,921.226 966.527,926.972 966.212,932.718 965.889,938.464 965.559,944.21 965.22,949.956 964.873,955.703 964.519,961.449 964.157,967.195 963.786,972.941 963.408,978.687 963.022,984.433 " />
</g>
<g>
<polyline fill="none" stroke="#7f7fff" points="1111.301,415.567 1109.628,421.313 1107.993,427.059 1106.394,432.805 1104.831,438.551 1103.305,444.297 1101.816,450.044 1100.362,455.79 1098.944,461.536 1097.562,467.282 1096.215,473.028 1094.904,478.774 1093.629,484.52 1092.388,490.266 1091.182,496.013 1090.012,501.759 1088.876,507.505 1087.775,513.251 1086.708,518.997 1085.676,524.743 1084.678,530.489 1083.714,536.235 1082.784,541.982 1081.889,547.728 1081.027,553.474 1080.199,559.22 1079.405,564.966 1078.645,570.712 1077.918,576.458 1077.225,582.204 1076.565,587.951 1075.938,593.697 1075.345,599.443 1074.786,605.189 1074.259,610.935 1073.766,616.681 1073.305,622.427 1072.878,628.173 1072.484,633.92 1072.123,639.666 1071.794,645.412 1071.499,651.158 1071.236,656.904 1071.007,662.65 1070.81,668.396 1070.646,674.142 1070.515,679.889 1070.417,685.635 1070.351,691.381 1070.318,697.127 1070.318,702.873 1070.351,708.619 1070.417,714.365 1070.515,720.111 1070.646,725.858 1070.81,731.604 1071.007,737.35 1071.236,743.096 1071.499,748.842 1071.794,754.588 1072.123,760.334 1072.484,766.08 1072.878,771.827 1073.305,777.573 1073.766,783.319 1074.259,789.065 1074.786,794.811 1075.345,800.557 1075.938,806.303 1076.565,812.049 1077.225,817.796 1077.918,823.542 1078.645,829.288 1079.405,835.034 1080.199,840.78 1081.027,846.526 1081.889,852.272 1082.784,858.018 1083.714,863.765 1084.678,869.511 1085.676,875.257 1086.708,881.003 1087.775,886.749 1088.876,892.495 1090.012,898.241 1091.182,903.987 1092.388,909.734 1093.629,915.48 1094.904,921.226 1096.215,926.972 1097.562,932.718 1098.944,938.464 1100.362,944.21 1101.816,949.956 1103.305,955.703 1104.831,961.449 1106.394,967.195 1107.993,972.941 1109.628,978.687 1111.301,984.433 " />
<line x1="1111.301" y1="415.567" x2="1122.503" y2="415.567"  stroke="#7f7fff" />
<line x1="1111.301" y1="984.433" x2="1122.503" y2="984.433"  stroke="#7f7fff" />
<polyline fill="none" stroke="#7f7fff" points="1122.503,415.567 1122.779,421.313 1123.049,427.059 1123.313,432.805 1123.572,438.551 1123.825,444.297 1124.073,450.044 1124.315,455.79 1124.551,461.536 1124.781,467.282 1125.006,473.028 1125.226,478.774 1125.439,484.52 1125.647,490.266 1125.85,496.013 1126.047,501.759 1126.238,507.505 1126.423,513.251 1126.603,518.997 1126.778,524.743 1126.946,530.489 1127.109,536.235 1127.267,541.982 1127.418,547.728 1127.565,553.474 1127.705,559.22 1127.84,564.966 1127.969,570.712 1128.093,576.458 1128.211,582.204 1128.323,587.951 1128.43,593.697 1128.531,599.443 1128.627,605.189 1128.717,610.935 1128.801,616.681 1128.88,622.427 1128.953,628.173 1129.02,633.92 1129.082,639.666 1129.138,645.412 1129.189,651.158 1129.234,656.904 1129.273,662.65 1129.307,668.396 1129.335,674.142 1129.357,679.889 1129.374,685.635 1129.386,691.381 1129.391,697.127 1129.391,702.873 1129.386,708.619 1129.374,714.365 1129.357,720.111 1129.335,725.858 1129.307,731.604 1129.273,737.35 1129.234,743.096 1129.189,748.842 1129.138,754.588 1129.082,760.334 1129.02,766.08 1128.953,771.827 1128.88,777.573 1128.801,783.319 1128.717,789.065 1128.627,794.811 1128.531,800.557 1128.43,806.303 1128.323,812.049 1128.211,817.796 1128.093,823.542 1127.969,829.288 1127.84,835.034 1127.705,840.78 1127.565,846.526 1127.418,852.272 1127.267,858.018 1127.109,863.765 1126.946,869.511 1126.778,875.257 1126.603,881.003 1126.423,886.749 1126.238,892.495 1126.047,898.241 1125.85,903.987 1125.647,909.734 1125.439,915.48 1125.226,921.226 1125.006,926.972 1124.781,932.718 1124.551,938.464 1124.315,944.21 1124.073,949.956 1123.825,955.703 1123.572,961.449 1123.313,967.195 1123.049,972.941 1122.779,978.687 1122.503,984.433 " />
</g>
<g>
<polyline fill="none" stroke="#7f7fff" points="1188.774,438.847 1186.353,444.123 1183.991,449.399 1181.687,454.675 1179.442,459.951 1177.254,465.226 1175.123,470.502 1173.047,475.778 1171.027,481.054 1169.062,486.33 1167.151,491.605 1165.295,496.881 1163.491,502.157 1161.74,507.433 1160.041,512.709 1158.394,517.984 1156.799,523.26 1155.255,528.536 1153.761,533.812 1152.318,539.088 1150.924,544.364 1149.58,549.639 1148.285,554.915 1147.039,560.191 1145.841,565.467 1144.692,570.743 1143.591,576.018 1142.538,581.294 1141.532,586.57 1140.573,591.846 1139.662,597.122 1138.797,602.397 1137.979,607.673 1137.207,612.949 1136.482,618.225 1135.802,623.501 1135.169,628.777 1134.582,634.052 1134.04,639.328 1133.544,644.604 1133.093,649.88 1132.687,655.156 1132.327,660.431 1132.012,665.707 1131.742,670.983 1131.518,676.259 1131.338,681.535 1131.203,686.81 1131.113,692.086 1131.068,697.362 1131.068,702.638 1131.113,707.914 1131.203,713.19 1131.338,718.465 1131.518,723.741 1131.742,729.017 1132.012,734.293 1132.327,739.569 1132.687,744.844 1133.093,750.12 1133.544,755.396 1134.04,760.672 1134.582,765.948 1135.169,771.223 1135.802,776.499 1136.482,781.775 1137.207,787.051 1137.979,792.327 1138.797,797.603 1139.662,802.878 1140.573,808.154 1141.532,813.43 1142.538,818.706 1143.591,823.982 1144.692,829.257 1145.841,834.533 1147.039,839.809 1148.285,845.085 1149.58,850.361 1150.924,855.636 1152.318,860.912 1153.761,866.188 1155.255,871.464 1156.799,876.74 1158.394,882.016 1160.041,887.291 1161.74,892.567 1163.491,897.843 1165.295,903.119 1167.151,908.395 1169.062,913.67 1171.027,918.946 1173.047,924.222 1175.123,929.498 1177.254,934.774 1179.442,940.049 1181.687,945.325 1183.991,950.601 1186.353,955.877 1188.774,961.153 " />
<line x1="1188.774" y1="438.847" x2="1189.071" y2="438.847"  stroke="#7f7fff" />
<line x1="1188.774" y1="961.153" x2="1189.071" y2="961.153"  stroke="#7f7fff" />
<polyline fill="none" stroke="#7f7fff" points="1189.071,438.847 1192.285,444.123 1195.41,449.399 1198.449,454.675 1201.402,459.951 1204.272,465.226 1207.06,470.502 1209.767,475.778 1212.396,481.054 1214.947,486.33 1217.423,491.605 1219.823,496.881 1222.15,502.157 1224.404,507.433 1226.586,512.709 1228.698,517.984 1230.741,523.26 1232.714,528.536 1234.62,533.812 1236.46,539.088 1238.233,544.364 1239.94,549.639 1241.583,554.915 1243.162,560.191 1244.677,565.467 1246.13,570.743 1247.52,576.018 1248.849,581.294 1250.117,586.57 1251.323,591.846 1252.47,597.122 1253.557,602.397 1254.584,607.673 1255.552,612.949 1256.462,618.225 1257.313,623.501 1258.106,628.777 1258.841,634.052 1259.519,639.328 1260.14,644.604 1260.703,649.88 1261.21,655.156 1261.659,660.431 1262.053,665.707 1262.389,670.983 1262.67,676.259 1262.894,681.535 1263.062,686.81 1263.174,692.086 1263.23,697.362 1263.23,702.638 1263.174,707.914 1263.062,713.19 1262.894,718.465 1262.67,723.741 1262.389,729.017 1262.053,734.293 1261.659,739.569 1261.21,744.844 1260.703,750.12 1260.14,755.396 1259.519,760.672 1258.841,765.948 1258.106,771.223 1257.313,776.499 1256.462,781.775 1255.552,787.051 1254.584,792.327 1253.557,797.603 1252.47,802.878 1251.323,808.154 1250.117,813.43 1248.849,818.706 1247.52,823.982 1246.13,829.257 1244.677,834.533 1243.162,839.809 1241.583,845.085 1239.94,850.361 1238.233,855.636 1236.46,860.912 1234.62,866.188 1232.714,871.464 1230.741,876.74 1228.698,882.016 1226.586,887.291 1224.404,892.567 1222.15,897.843 1219.823,903.119 1217.423,908.395 1214.947,913.67 1212.396,918.946 1209.767,924.222 1207.06,929.498 1204.272,934.774 1201.402,940.049 1198.449,945.325 1195.41,950.601 1192.285,955.877 1189.071,961.153 " />
<line x1="1340.826" y1="438.847" x2="1340.826" y2="496.714"  stroke="#7f7fff" />
<line x1="1189.071" y1="438.847" x2="1340.826" y2="438.847"  stroke="#7f7fff" />
<line x1="1340.826" y1="961.153" x2="1340.826" y2="903.286"  stroke="#7f7fff" />
<line x1="1189.071" y1="961.153" x2="1340.826" y2="961.153"  stroke="#7f7fff" />
<polyline fill="none" stroke="#7f7fff" points="1340.826,496.714 1338.706,500.821 1336.641,504.928 1334.629,509.034 1332.669,513.141 1330.762,517.248 1328.905,521.355 1327.099,525.462 1325.343,529.568 1323.636,533.675 1321.978,537.782 1320.367,541.889 1318.804,545.996 1317.288,550.102 1315.818,554.209 1314.394,558.316 1313.015,562.423 1311.681,566.529 1310.391,570.636 1309.146,574.743 1307.944,578.85 1306.786,582.957 1305.67,587.063 1304.598,591.17 1303.567,595.277 1302.578,599.384 1301.632,603.491 1300.726,607.597 1299.862,611.704 1299.038,615.811 1298.256,619.918 1297.513,624.024 1296.811,628.131 1296.149,632.238 1295.527,636.345 1294.945,640.452 1294.402,644.558 1293.898,648.665 1293.434,652.772 1293.009,656.879 1292.623,660.986 1292.275,665.092 1291.967,669.199 1291.697,673.306 1291.466,677.413 1291.274,681.519 1291.12,685.626 1291.005,689.733 1290.928,693.84 1290.889,697.947 1290.889,702.053 1290.928,706.16 1291.005,710.267 1291.12,714.374 1291.274,718.481 1291.466,722.587 1291.697,726.694 1291.967,730.801 1292.275,734.908 1292.623,739.014 1293.009,743.121 1293.434,747.228 1293.898,751.335 1294.402,755.442 1294.945,759.548 1295.527,763.655 1296.149,767.762 1296.811,771.869 1297.513,775.976 1298.256,780.082 1299.038,784.189 1299.862,788.296 1300.726,792.403 1301.632,796.509 1302.578,800.616 1303.567,804.723 1304.598,808.83 1305.67,812.937 1306.786,817.043 1307.944,821.15 1309.146,825.257 1310.391,829.364 1311.681,833.471 1313.015,837.577 1314.394,841.684 1315.818,845.791 1317.288,849.898 1318.804,854.004 1320.367,858.111 1321.978,862.218 1323.636,866.325 1325.343,870.432 1327.099,874.538 1328.905,878.645 1330.762,882.752 1332.669,886.859 1334.629,890.966 1336.641,895.072 1338.706,899.179 1340.826,903.286 " />
</g>
<g>
<polyline fill="none" stroke="#7f7fff" points="1409.528,509.413 1408.736,513.263 1407.96,517.113 1407.201,520.963 1406.459,524.814 1405.734,528.664 1405.025,532.514 1404.333,536.364 1403.658,540.215 1402.999,544.065 1402.357,547.915 1401.731,551.765 1401.122,555.616 1400.529,559.466 1399.952,563.316 1399.392,567.166 1398.848,571.017 1398.32,574.867 1397.809,578.717 1397.314,582.567 1396.835,586.418 1396.372,590.268 1395.926,594.118 1395.496,597.968 1395.081,601.819 1394.683,605.669 1394.301,609.519 1393.935,613.369 1393.586,617.22 1393.252,621.07 1392.934,624.92 1392.632,628.77 1392.346,632.621 1392.076,636.471 1391.822,640.321 1391.584,644.171 1391.362,648.022 1391.156,651.872 1390.965,655.722 1390.791,659.572 1390.632,663.423 1390.49,667.273 1390.363,671.123 1390.252,674.973 1390.157,678.824 1390.078,682.674 1390.014,686.524 1389.967,690.374 1389.935,694.225 1389.919,698.075 1389.919,701.925 1389.935,705.775 1389.967,709.626 1390.014,713.476 1390.078,717.326 1390.157,721.176 1390.252,725.027 1390.363,728.877 1390.49,732.727 1390.632,736.577 1390.791,740.428 1390.965,744.278 1391.156,748.128 1391.362,751.978 1391.584,755.829 1391.822,759.679 1392.076,763.529 1392.346,767.379 1392.632,771.23 1392.934,775.08 1393.252,778.93 1393.586,782.78 1393.935,786.631 1394.301,790.481 1394.683,794.331 1395.081,798.181 1395.496,802.032 1395.926,805.882 1396.372,809.732 1396.835,813.582 1397.314,817.433 1397.809,821.283 1398.32,825.133 1398.848,828.983 1399.392,832.834 1399.952,836.684 1400.529,840.534 1401.122,844.384 1401.731,848.235 1402.357,852.085 1402.999,855.935 1403.658,859.785 1404.333,863.636 1405.025,867.486 1405.734,871.336 1406.459,875.186 1407.201,879.037 1407.96,882.887 1408.736,886.737 1409.528,890.587 " />
<line x1="1409.528" y1="509.413" x2="1411.828" y2="509.413"  stroke="#7f7fff" />
<line x1="1409.528" y1="890.587" x2="1411.828" y2="890.587"  stroke="#7f7fff" />
<polyline fill="none" stroke="#7f7fff" points="1411.828,509.413 1414.209,513.263 1416.524,517.113 1418.774,520.963 1420.96,524.814 1423.084,528.664 1425.147,532.514 1427.151,536.364 1429.095,540.215 1430.982,544.065 1432.813,547.915 1434.588,551.765 1436.308,555.616 1437.974,559.466 1439.587,563.316 1441.148,567.166 1442.657,571.017 1444.116,574.867 1445.524,578.717 1446.883,582.567 1448.192,586.418 1449.454,590.268 1450.667,594.118 1451.833,597.968 1452.952,601.819 1454.024,605.669 1455.051,609.519 1456.032,613.369 1456.968,617.22 1457.858,621.07 1458.705,624.92 1459.507,628.77 1460.265,632.621 1460.98,636.471 1461.651,640.321 1462.279,644.171 1462.864,648.022 1463.407,651.872 1463.907,655.722 1464.365,659.572 1464.781,663.423 1465.154,667.273 1465.486,671.123 1465.776,674.973 1466.025,678.824 1466.232,682.674 1466.397,686.524 1466.521,690.374 1466.604,694.225 1466.645,698.075 1466.645,701.925 1466.604,705.775 1466.521,709.626 1466.397,713.476 1466.232,717.326 1466.025,721.176 1465.776,725.027 1465.486,728.877 1465.154,732.727 1464.781,736.577 1464.365,740.428 1463.907,744.278 1463.407,748.128 1462.864,751.978 1462.279,755.829 1461.651,759.679 1460.98,763.529 1460.265,767.379 1459.507,771.23 1458.705,775.08 1457.858,778.93 1456.968,782.78 1456.032,786.631 1455.051,790.481 1454.024,794.331 1452.952,798.181 1451.833,802.032 1450.667,805.882 1449.454,809.732 1448.192,813.582 1446.883,817.433 1445.524,821.283 1444.116,825.133 1442.657,828.983 1441.148,832.834 1439.587,836.684 1437.974,840.534 1436.308,844.384 1434.588,848.235 1432.813,852.085 1430.982,855.935 1429.095,859.785 1427.151,863.636 1425.147,867.486 1423.084,871.336 1420.96,875.186 1418.774,879.037 1416.524,882.887 1414.209,886.737 1411.828,890.587 " />
<line x1="1501.572" y1="509.413" x2="1501.572" y2="537.093"  stroke="#7f7fff" />
<line x1="1411.828" y1="509.413" x2="1501.572" y2="509.413"  stroke="#7f7fff" />
<line x1="1501.572" y1="890.587" x2="1501.572" y2="862.907"  stroke="#7f7fff" />
<line x1="1411.828" y1="890.587" x2="1501.572" y2="890.587"  stroke="#7f7fff" />
<polyline fill="none" stroke="#7f7fff" points="1501.572,537.093 1500.835,540.384 1500.113,543.675 1499.407,546.966 1498.717,550.257 1498.043,553.548 1497.384,556.839 1496.741,560.13 1496.113,563.421 1495.5,566.712 1494.904,570.003 1494.322,573.294 1493.756,576.585 1493.205,579.877 1492.67,583.168 1492.149,586.459 1491.644,589.75 1491.154,593.041 1490.68,596.332 1490.22,599.623 1489.776,602.914 1489.346,606.205 1488.932,609.496 1488.532,612.787 1488.148,616.078 1487.779,619.369 1487.424,622.66 1487.085,625.951 1486.76,629.242 1486.45,632.533 1486.156,635.824 1485.876,639.116 1485.611,642.407 1485.36,645.698 1485.125,648.989 1484.904,652.28 1484.698,655.571 1484.507,658.862 1484.33,662.153 1484.169,665.444 1484.022,668.735 1483.889,672.026 1483.772,675.317 1483.669,678.608 1483.581,681.899 1483.507,685.19 1483.449,688.481 1483.405,691.772 1483.375,695.063 1483.361,698.354 1483.361,701.646 1483.375,704.937 1483.405,708.228 1483.449,711.519 1483.507,714.81 1483.581,718.101 1483.669,721.392 1483.772,724.683 1483.889,727.974 1484.022,731.265 1484.169,734.556 1484.33,737.847 1484.507,741.138 1484.698,744.429 1484.904,747.72 1485.125,751.011 1485.36,754.302 1485.611,757.593 1485.876,760.884 1486.156,764.176 1486.45,767.467 1486.76,770.758 1487.085,774.049 1487.424,777.34 1487.779,780.631 1488.148,783.922 1488.532,787.213 1488.932,790.504 1489.346,793.795 1489.776,797.086 1490.22,800.377 1490.68,803.668 1491.154,806.959 1491.644,810.25 1492.149,813.541 1492.67,816.832 1493.205,820.123 1493.756,823.415 1494.322,826.706 1494.904,829.997 1495.5,833.288 1496.113,836.579 1496.741,839.87 1497.384,843.161 1498.043,846.452 1498.717,849.743 1499.407,853.034 1500.113,856.325 1500.835,859.616 1501.572,862.907 " />
</g>
<g>
<polyline fill="none" stroke="#7f7fff" points="1522.953,537.093 1525.045,540.384 1527.078,543.675 1529.054,546.966 1530.972,550.257 1532.836,553.548 1534.645,556.839 1536.401,560.13 1538.105,563.421 1539.759,566.712 1541.362,570.003 1542.916,573.294 1544.422,576.585 1545.88,579.877 1547.291,583.168 1548.657,586.459 1549.977,589.75 1551.252,593.041 1552.483,596.332 1553.671,599.623 1554.815,602.914 1555.917,606.205 1556.977,609.496 1557.995,612.787 1558.973,616.078 1559.909,619.369 1560.806,622.66 1561.662,625.951 1562.479,629.242 1563.256,632.533 1563.995,635.824 1564.695,639.116 1565.356,642.407 1565.98,645.698 1566.565,648.989 1567.113,652.28 1567.624,655.571 1568.097,658.862 1568.533,662.153 1568.933,665.444 1569.295,668.735 1569.621,672.026 1569.91,675.317 1570.163,678.608 1570.38,681.899 1570.56,685.19 1570.705,688.481 1570.813,691.772 1570.885,695.063 1570.921,698.354 1570.921,701.646 1570.885,704.937 1570.813,708.228 1570.705,711.519 1570.56,714.81 1570.38,718.101 1570.163,721.392 1569.91,724.683 1569.621,727.974 1569.295,731.265 1568.933,734.556 1568.533,737.847 1568.097,741.138 1567.624,744.429 1567.113,747.72 1566.565,751.011 1565.98,754.302 1565.356,757.593 1564.695,760.884 1563.995,764.176 1563.256,767.467 1562.479,770.758 1561.662,774.049 1560.806,777.34 1559.909,780.631 1558.973,783.922 1557.995,787.213 1556.977,790.504 1555.917,793.795 1554.815,797.086 1553.671,800.377 1552.483,803.668 1551.252,806.959 1549.977,810.25 1548.657,813.541 1547.291,816.832 1545.88,820.123 1544.422,823.415 1542.916,826.706 1541.362,829.997 1539.759,833.288 1538.105,836.579 1536.401,839.87 1534.645,843.161 1532.836,846.452 1530.972,849.743 1529.054,853.034 1527.078,856.325 1525.045,859.616 1522.953,862.907 " />
<line x1="1522.953" y1="517.655" x2="1522.953" y2="537.093"  stroke="#7f7fff" />
<line x1="1522.953" y1="517.655" x2="1575.245" y2="517.655"  stroke="#7f7fff" />
<line x1="1522.953" y1="882.345" x2="1522.953" y2="862.907"  stroke="#7f7fff" />
<line x1="1522.953" y1="882.345" x2="1575.245" y2="882.345"  stroke="#7f7fff" />
<polyline fill="none" stroke="#7f7fff" points="1575.245,517.655 1575.743,521.339 1576.23,525.023 1576.707,528.707 1577.174,532.39 1577.63,536.074 1578.077,539.758 1578.512,543.441 1578.938,547.125 1579.353,550.809 1579.758,554.493 1580.153,558.176 1580.538,561.86 1580.912,565.544 1581.276,569.228 1581.63,572.911 1581.974,576.595 1582.307,580.279 1582.631,583.962 1582.944,587.646 1583.247,591.33 1583.54,595.014 1583.822,598.697 1584.095,602.381 1584.357,606.065 1584.61,609.749 1584.852,613.432 1585.084,617.116 1585.305,620.8 1585.517,624.484 1585.719,628.167 1585.91,631.851 1586.092,635.535 1586.263,639.218 1586.424,642.902 1586.575,646.586 1586.716,650.27 1586.847,653.953 1586.968,657.637 1587.079,661.321 1587.18,665.005 1587.27,668.688 1587.351,672.372 1587.421,676.056 1587.482,679.739 1587.532,683.423 1587.572,687.107 1587.602,690.791 1587.623,694.474 1587.633,698.158 1587.633,701.842 1587.623,705.526 1587.602,709.209 1587.572,712.893 1587.532,716.577 1587.482,720.261 1587.421,723.944 1587.351,727.628 1587.27,731.312 1587.18,734.995 1587.079,738.679 1586.968,742.363 1586.847,746.047 1586.716,749.73 1586.575,753.414 1586.424,757.098 1586.263,760.782 1586.092,764.465 1585.91,768.149 1585.719,771.833 1585.517,775.516 1585.305,779.2 1585.084,782.884 1584.852,786.568 1584.61,790.251 1584.357,793.935 1584.095,797.619 1583.822,801.303 1583.54,804.986 1583.247,808.67 1582.944,812.354 1582.631,816.038 1582.307,819.721 1581.974,823.405 1581.63,827.089 1581.276,830.772 1580.912,834.456 1580.538,838.14 1580.153,841.824 1579.758,845.507 1579.353,849.191 1578.938,852.875 1578.512,856.559 1578.077,860.242 1577.63,863.926 1577.174,867.61 1576.707,871.293 1576.23,874.977 1575.743,878.661 1575.245,882.345 " />
</g>
<g>
<polyline fill="none" stroke="#7f7fff" points="1615.164,508.688 1614.111,512.553 1613.082,516.418 1612.075,520.283 1611.091,524.148 1610.13,528.013 1609.191,531.878 1608.275,535.743 1607.382,539.608 1606.51,543.472 1605.661,547.337 1604.835,551.202 1604.03,555.067 1603.248,558.932 1602.487,562.797 1601.748,566.662 1601.032,570.527 1600.337,574.391 1599.663,578.256 1599.012,582.121 1598.382,585.986 1597.773,589.851 1597.186,593.716 1596.62,597.581 1596.076,601.446 1595.553,605.31 1595.051,609.175 1594.571,613.04 1594.112,616.905 1593.674,620.77 1593.257,624.635 1592.861,628.5 1592.486,632.365 1592.132,636.229 1591.799,640.094 1591.487,643.959 1591.196,647.824 1590.926,651.689 1590.677,655.554 1590.448,659.419 1590.241,663.284 1590.054,667.149 1589.888,671.013 1589.743,674.878 1589.618,678.743 1589.515,682.608 1589.432,686.473 1589.369,690.338 1589.328,694.203 1589.307,698.068 1589.307,701.932 1589.328,705.797 1589.369,709.662 1589.432,713.527 1589.515,717.392 1589.618,721.257 1589.743,725.122 1589.888,728.987 1590.054,732.851 1590.241,736.716 1590.448,740.581 1590.677,744.446 1590.926,748.311 1591.196,752.176 1591.487,756.041 1591.799,759.906 1592.132,763.771 1592.486,767.635 1592.861,771.5 1593.257,775.365 1593.674,779.23 1594.112,783.095 1594.571,786.96 1595.051,790.825 1595.553,794.69 1596.076,798.554 1596.62,802.419 1597.186,806.284 1597.773,810.149 1598.382,814.014 1599.012,817.879 1599.663,821.744 1600.337,825.609 1601.032,829.473 1601.748,833.338 1602.487,837.203 1603.248,841.068 1604.03,844.933 1604.835,848.798 1605.661,852.663 1606.51,856.528 1607.382,860.392 1608.275,864.257 1609.191,868.122 1610.13,871.987 1611.091,875.852 1612.075,879.717 1613.082,883.582 1614.111,887.447 1615.164,891.312 " />
<line x1="1615.164" y1="508.688" x2="1622.499" y2="508.688"  stroke="#7f7fff" />
<line x1="1615.164" y1="891.312" x2="1622.499" y2="891.312"  stroke="#7f7fff" />
<polyline fill="none" stroke="#7f7fff" points="1622.499,508.688 1624.269,512.553 1625.996,516.418 1627.68,520.283 1629.322,524.148 1630.922,528.013 1632.48,531.878 1633.997,535.743 1635.474,539.608 1636.911,543.472 1638.308,547.337 1639.666,551.202 1640.985,555.067 1642.265,558.932 1643.507,562.797 1644.711,566.662 1645.878,570.527 1647.007,574.391 1648.1,578.256 1649.155,582.121 1650.174,585.986 1651.157,589.851 1652.104,593.716 1653.015,597.581 1653.891,601.446 1654.731,605.31 1655.537,609.175 1656.307,613.04 1657.042,616.905 1657.744,620.77 1658.41,624.635 1659.043,628.5 1659.641,632.365 1660.205,636.229 1660.736,640.094 1661.232,643.959 1661.696,647.824 1662.125,651.689 1662.521,655.554 1662.884,659.419 1663.214,663.284 1663.511,667.149 1663.774,671.013 1664.004,674.878 1664.202,678.743 1664.366,682.608 1664.497,686.473 1664.596,690.338 1664.662,694.203 1664.695,698.068 1664.695,701.932 1664.662,705.797 1664.596,709.662 1664.497,713.527 1664.366,717.392 1664.202,721.257 1664.004,725.122 1663.774,728.987 1663.511,732.851 1663.214,736.716 1662.884,740.581 1662.521,744.446 1662.125,748.311 1661.696,752.176 1661.232,756.041 1660.736,759.906 1660.205,763.771 1659.641,767.635 1659.043,771.5 1658.41,775.365 1657.744,779.23 1657.042,783.095 1656.307,786.96 1655.537,790.825 1654.731,794.69 1653.891,798.554 1653.015,802.419 1652.104,806.284 1651.157,810.149 1650.174,814.014 1649.155,817.879 1648.1,821.744 1647.007,825.609 1645.878,829.473 1644.711,833.338 1643.507,837.203 1642.265,841.068 1640.985,844.933 1639.666,848.798 1638.308,852.663 1636.911,856.528 1635.474,860.392 1633.997,864.257 1632.48,868.122 1630.922,871.987 1629.322,875.852 1627.68,879.717 1625.996,883.582 1624.269,887.447 1622.499,891.312 " />
</g>
<g>
<polyline fill="none" stroke="#7f7fff" points="1663.522,510.192 1663.394,514.027 1663.309,517.861 1663.261,521.696 1663.246,525.53 1663.259,529.365 1663.295,533.199 1663.352,537.034 1663.425,540.868 1663.512,544.703 1663.61,548.537 1663.717,552.372 1663.83,556.206 1663.948,560.041 1664.07,563.875 1664.192,567.71 1664.315,571.544 1664.438,575.379 1664.559,579.213 1664.678,583.048 1664.794,586.882 1664.906,590.717 1665.015,594.551 1665.12,598.386 1665.221,602.22 1665.317,606.055 1665.409,609.889 1665.496,613.724 1665.578,617.558 1665.656,621.393 1665.729,625.227 1665.798,629.062 1665.862,632.896 1665.922,636.731 1665.977,640.565 1666.029,644.4 1666.076,648.234 1666.12,652.069 1666.159,655.903 1666.195,659.738 1666.228,663.572 1666.256,667.407 1666.282,671.241 1666.304,675.076 1666.323,678.91 1666.338,682.745 1666.351,686.579 1666.36,690.414 1666.366,694.248 1666.369,698.083 1666.369,701.917 1666.366,705.752 1666.36,709.586 1666.351,713.421 1666.338,717.255 1666.323,721.09 1666.304,724.924 1666.282,728.759 1666.256,732.593 1666.228,736.428 1666.195,740.262 1666.159,744.097 1666.12,747.931 1666.076,751.766 1666.029,755.6 1665.977,759.435 1665.922,763.269 1665.862,767.104 1665.798,770.938 1665.729,774.773 1665.656,778.607 1665.578,782.442 1665.496,786.276 1665.409,790.111 1665.317,793.945 1665.221,797.78 1665.12,801.614 1665.015,805.449 1664.906,809.283 1664.794,813.118 1664.678,816.952 1664.559,820.787 1664.438,824.621 1664.315,828.456 1664.192,832.29 1664.07,836.125 1663.948,839.959 1663.83,843.794 1663.717,847.628 1663.61,851.463 1663.512,855.297 1663.425,859.132 1663.352,862.966 1663.295,866.801 1663.259,870.635 1663.246,874.47 1663.261,878.304 1663.309,882.139 1663.394,885.973 1663.522,889.808 " />
<line x1="1663.522" y1="510.192" x2="1694.8" y2="510.192"  stroke="#7f7fff" />
<line x1="1663.522" y1="889.808" x2="1694.8" y2="889.808"  stroke="#7f7fff" />
<polyline fill="none" stroke="#7f7fff" points="1694.8,510.192 1695.243,514.027 1695.742,517.861 1696.289,521.696 1696.877,525.53 1697.5,529.365 1698.15,533.199 1698.822,537.034 1699.513,540.868 1700.216,544.703 1700.928,548.537 1701.646,552.372 1702.365,556.206 1703.084,560.041 1703.8,563.875 1704.509,567.71 1705.211,571.544 1705.903,575.379 1706.583,579.213 1707.251,583.048 1707.904,586.882 1708.542,590.717 1709.164,594.551 1709.769,598.386 1710.355,602.22 1710.922,606.055 1711.47,609.889 1711.998,613.724 1712.506,617.558 1712.993,621.393 1713.458,625.227 1713.902,629.062 1714.323,632.896 1714.723,636.731 1715.1,640.565 1715.454,644.4 1715.786,648.234 1716.094,652.069 1716.379,655.903 1716.641,659.738 1716.88,663.572 1717.094,667.407 1717.286,671.241 1717.453,675.076 1717.597,678.91 1717.717,682.745 1717.813,686.579 1717.885,690.414 1717.933,694.248 1717.957,698.083 1717.957,701.917 1717.933,705.752 1717.885,709.586 1717.813,713.421 1717.717,717.255 1717.597,721.09 1717.453,724.924 1717.286,728.759 1717.094,732.593 1716.88,736.428 1716.641,740.262 1716.379,744.097 1716.094,747.931 1715.786,751.766 1715.454,755.6 1715.1,759.435 1714.723,763.269 1714.323,767.104 1713.902,770.938 1713.458,774.773 1712.993,778.607 1712.506,782.442 1711.998,786.276 1711.47,790.111 1710.922,793.945 1710.355,797.78 1709.769,801.614 1709.164,805.449 1708.542,809.283 1707.904,813.118 1707.251,816.952 1706.583,820.787 1705.903,824.621 1705.211,828.456 1704.509,832.29 1703.8,836.125 1703.084,839.959 1702.365,843.794 1701.646,847.628 1700.928,851.463 1700.216,855.297 1699.513,859.132 1698.822,862.966 1698.15,866.801 1697.5,870.635 1696.877,874.47 1696.289,878.304 1695.742,882.139 1695.243,885.973 1694.8,889.808 " />
</g>
</g>
<g><title>element</title>
<polyline fill="none" stroke="#7f7fff" points="2152.381,218.129 2152.381,227.864 2152.381,237.598 2152.381,247.333 2152.381,257.068 2152.381,266.803 2152.381,276.538 2152.381,286.272 2152.381,296.007 2152.381,305.742 2152.381,315.477 2152.381,325.211 2152.381,334.946 2152.381,344.681 2152.381,354.416 2152.381,364.15 2152.381,373.885 2152.381,383.62 2152.381,393.355 2152.381,403.09 2152.381,412.824 2152.381,422.559 2152.381,432.294 2152.381,442.029 2152.381,451.763 2152.381,461.498 2152.381,471.233 2152.381,480.968 2152.381,490.702 2152.381,500.437 2152.381,510.172 2152.381,519.907 2152.381,529.642 2152.381,539.376 2152.381,549.111 2152.381,558.846 2152.381,568.581 2152.381,578.315 2152.381,588.05 2152.381,597.785 2152.381,607.52 2152.381,617.254 2152.381,626.989 2152.381,636.724 2152.381,646.459 2152.381,656.194 2152.381,665.928 2152.381,675.663 2152.381,685.398 2152.381,695.133 2152.381,704.867 2152.381,714.602 2152.381,724.337 2152.381,734.072 2152.381,743.806 2152.381,753.541 2152.381,763.276 2152.381,773.011 2152.381,782.746 2152.381,792.48 2152.381,802.215 2152.381,811.95 2152.381,821.685 2152.381,831.419 2152.381,841.154 2152.381,850.889 2152.381,860.624 2152.381,870.358 2152.381,880.093 2152.381,889.828 2152.381,899.563 2152.381,909.298 2152.381,919.032 2152.381,928.767 2152.381,938.502 2152.381,948.237 2152.381,957.971 2152.381,967.706 2152.381,977.441 2152.381,987.176 2152.381,996.91 2152.381,1006.645 2152.381,1016.38 2152.381,1026.115 2152.381,1035.85 2152.381,1045.584 2152.381,1055.319 2152.381,1065.054 2152.381,1074.789 2152.381,1084.523 2152.381,1094.258 2152.381,1103.993 2152.381,1113.728 2152.381,1123.462 2152.381,1133.197 2152.381,1142.932 2152.381,1152.667 2152.381,1162.402 2152.381,1172.136 2152.381,1181.871 " />
</g>
</svg>
