<?xml version="1.0" standalone="no"?>
<svg width="2400px" height="1400px" version="1.1" xmlns="http://www.w3.org/2000/svg" xmlns:xlink="http://www.w3.org/1999/xlink">
<rect x="0" y="0" width="2400" height="1400"  fill="#ffffff" />
<defs>
<g id="dot">
<line x1="1" y1="1" x2="0" y2="0"  />
</g>
<g id="cross">
<line x1="-3" y1="0" x2="3" y2="0"  />
<line x1="0" y1="-3" x2="0" y2="3"  />
</g>
<g id="square">
<line x1="-3" y1="-3" x2="-3" y2="3"  />
<line x1="-3" y1="3" x2="3" y2="3"  />
<line x1="3" y1="3" x2="3" y2="-3"  />
<line x1="3" y1="-3" x2="-3" y2="-3"  />
</g>
<g id="round">
<ellipse cx="0" cy="0" rx="3" ry="3"  fill="none" /></g>
<g id="triangle">
<line x1="0" y1="-3" x2="-3" y2="3"  />
<line x1="-3" y1="3" x2="3" y2="3"  />
<line x1="0" y1="-3" x2="3" y2="3"  />
</g>
</defs>
<line x1="449.056" y1="700" x2="1950.944" y2="700"  stroke="#7f7f7f" />
<g><title>element</title>
<g>
<line x1="1096.833" y1="609.259" x2="1096.833" y2="518.519"  stroke="#7f7fff" />
<line x1="1096.833" y1="790.741" x2="1096.833" y2="881.481"  stroke="#7f7fff" />
</g>
<g>
<line x1="1271.685" y1="622.843" x2="1271.685" y2="545.685"  stroke="#7f7fff" />
<line x1="1271.685" y1="777.157" x2="1271.685" y2="854.315"  stroke="#7f7fff" />
</g>
<g>
<polyline fill="none" stroke="#7f7fff" points="579.929,376.481 573.728,383.017 567.761,389.553 562.016,396.089 556.483,402.624 551.151,409.16 546.013,415.696 541.06,422.232 536.285,428.767 531.68,435.303 527.241,441.839 522.961,448.374 518.836,454.91 514.86,461.446 511.029,467.982 507.339,474.517 503.787,481.053 500.368,487.589 497.079,494.125 493.917,500.66 490.881,507.196 487.965,513.732 485.17,520.267 482.491,526.803 479.927,533.339 477.475,539.875 475.135,546.41 472.904,552.946 470.78,559.482 468.763,566.018 466.85,572.553 465.04,579.089 463.332,585.625 461.725,592.16 460.217,598.696 458.808,605.232 457.498,611.768 456.284,618.303 455.166,624.839 454.144,631.375 453.217,637.911 452.384,644.446 451.645,650.982 450.999,657.518 450.446,664.053 449.986,670.589 449.618,677.125 449.343,683.661 449.159,690.196 449.067,696.732 449.067,703.268 449.159,709.804 449.343,716.339 449.618,722.875 449.986,729.411 450.446,735.947 450.999,742.482 451.645,749.018 452.384,755.554 453.217,762.089 454.144,768.625 455.166,775.161 456.284,781.697 457.498,788.232 458.808,794.768 460.217,801.304 461.725,807.84 463.332,814.375 465.04,820.911 466.85,827.447 468.763,833.982 470.78,840.518 472.904,847.054 475.135,853.59 477.475,860.125 479.927,866.661 482.491,873.197 485.17,879.733 487.965,886.268 490.881,892.804 493.917,899.34 497.079,905.875 500.368,912.411 503.787,918.947 507.339,925.483 511.029,932.018 514.86,938.554 518.836,945.09 522.961,951.626 527.241,958.161 531.68,964.697 536.285,971.233 541.06,977.768 546.013,984.304 551.151,990.84 556.483,997.376 562.016,1003.911 567.761,1010.447 573.728,1016.983 579.929,1023.519 " />
<line x1="588.99" y1="376.481" x2="588.99" y2="387.5"  stroke="#7f7fff" />
<line x1="579.929" y1="376.481" x2="588.99" y2="376.481"  stroke="#7f7fff" />
<line x1="588.99" y1="1023.519" x2="588.99" y2="1012.5"  stroke="#7f7fff" />
<line x1="579.929" y1="1023.519" x2="588.99" y2="1023.519"  stroke="#7f7fff" />
<polyline fill="none" stroke="#7f7fff" points="588.99,387.5 586.53,393.813 584.128,400.126 581.782,406.439 579.493,412.753 577.26,419.066 575.083,425.379 572.961,431.692 570.894,438.005 568.881,444.318 566.921,450.631 565.016,456.944 563.163,463.258 561.363,469.571 559.616,475.884 557.921,482.197 556.277,488.51 554.685,494.823 553.144,501.136 551.654,507.449 550.215,513.763 548.826,520.076 547.487,526.389 546.198,532.702 544.958,539.015 543.768,545.328 542.627,551.641 541.535,557.955 540.492,564.268 539.498,570.581 538.552,576.894 537.654,583.207 536.804,589.52 536.003,595.833 535.249,602.146 534.543,608.46 533.885,614.773 533.274,621.086 532.71,627.399 532.194,633.712 531.725,640.025 531.303,646.338 530.928,652.652 530.6,658.965 530.319,665.278 530.085,671.591 529.898,677.904 529.757,684.217 529.664,690.53 529.617,696.843 529.617,703.157 529.664,709.47 529.757,715.783 529.898,722.096 530.085,728.409 530.319,734.722 530.6,741.035 530.928,747.348 531.303,753.662 531.725,759.975 532.194,766.288 532.71,772.601 533.274,778.914 533.885,785.227 534.543,791.54 535.249,797.854 536.003,804.167 536.804,810.48 537.654,816.793 538.552,823.106 539.498,829.419 540.492,835.732 541.535,842.045 542.627,848.359 543.768,854.672 544.958,860.985 546.198,867.298 547.487,873.611 548.826,879.924 550.215,886.237 551.654,892.551 553.144,898.864 554.685,905.177 556.277,911.49 557.921,917.803 559.616,924.116 561.363,930.429 563.163,936.742 565.016,943.056 566.921,949.369 568.881,955.682 570.894,961.995 572.961,968.308 575.083,974.621 577.26,980.934 579.493,987.247 581.782,993.561 584.128,999.874 586.53,1006.187 588.99,1012.5 " />
</g>
<g>
<polyline fill="none" stroke="#7f7fff" points="625.406,482.222 620.744,486.622 616.276,491.021 611.992,495.421 607.881,499.82 603.932,504.22 600.137,508.62 596.49,513.019 592.982,517.419 589.608,521.818 586.361,526.218 583.238,530.617 580.233,535.017 577.341,539.416 574.56,543.816 571.885,548.215 569.313,552.615 566.841,557.015 564.467,561.414 562.187,565.814 559.999,570.213 557.901,574.613 555.89,579.012 553.966,583.412 552.125,587.811 550.367,592.211 548.69,596.611 547.092,601.01 545.572,605.41 544.129,609.809 542.761,614.209 541.468,618.608 540.248,623.008 539.101,627.407 538.025,631.807 537.02,636.207 536.086,640.606 535.22,645.006 534.424,649.405 533.696,653.805 533.036,658.204 532.443,662.604 531.916,667.003 531.457,671.403 531.063,675.802 530.736,680.202 530.474,684.602 530.278,689.001 530.148,693.401 530.082,697.8 530.082,702.2 530.148,706.599 530.278,710.999 530.474,715.398 530.736,719.798 531.063,724.198 531.457,728.597 531.916,732.997 532.443,737.396 533.036,741.796 533.696,746.195 534.424,750.595 535.22,754.994 536.086,759.394 537.02,763.793 538.025,768.193 539.101,772.593 540.248,776.992 541.468,781.392 542.761,785.791 544.129,790.191 545.572,794.59 547.092,798.99 548.69,803.389 550.367,807.789 552.125,812.189 553.966,816.588 555.89,820.988 557.901,825.387 559.999,829.787 562.187,834.186 564.467,838.586 566.841,842.985 569.313,847.385 571.885,851.785 574.56,856.184 577.341,860.584 580.233,864.983 583.238,869.383 586.361,873.782 589.608,878.182 592.982,882.581 596.49,886.981 600.137,891.38 603.932,895.78 607.881,900.18 611.992,904.579 616.276,908.979 620.744,913.378 625.406,917.778 " />
<line x1="659.15" y1="482.222" x2="659.15" y2="535.278"  stroke="#7f7fff" />
<line x1="625.406" y1="482.222" x2="659.15" y2="482.222"  stroke="#7f7fff" />
<line x1="659.15" y1="917.778" x2="659.15" y2="864.722"  stroke="#7f7fff" />
<line x1="625.406" y1="917.778" x2="659.15" y2="917.778"  stroke="#7f7fff" />
<polyline fill="none" stroke="#7f7fff" points="659.15,535.278 649.795,538.605 641.821,541.933 634.803,545.261 628.5,548.589 622.762,551.916 617.485,555.244 612.598,558.572 608.045,561.9 603.784,565.227 599.782,568.555 596.013,571.883 592.454,575.21 589.087,578.538 585.897,581.866 582.871,585.194 579.998,588.521 577.268,591.849 574.672,595.177 572.202,598.504 569.854,601.832 567.619,605.16 565.494,608.488 563.474,611.815 561.554,615.143 559.731,618.471 558,621.799 556.36,625.126 554.807,628.454 553.339,631.782 551.954,635.109 550.648,638.437 549.421,641.765 548.27,645.093 547.195,648.42 546.193,651.748 545.263,655.076 544.404,658.403 543.616,661.731 542.896,665.059 542.244,668.387 541.659,671.714 541.142,675.042 540.69,678.37 540.303,681.698 539.982,685.025 539.726,688.353 539.533,691.681 539.405,695.008 539.341,698.336 539.341,701.664 539.405,704.992 539.533,708.319 539.726,711.647 539.982,714.975 540.303,718.302 540.69,721.63 541.142,724.958 541.659,728.286 542.244,731.613 542.896,734.941 543.616,738.269 544.404,741.597 545.263,744.924 546.193,748.252 547.195,751.58 548.27,754.907 549.421,758.235 550.648,761.563 551.954,764.891 553.339,768.218 554.807,771.546 556.36,774.874 558,778.201 559.731,781.529 561.554,784.857 563.474,788.185 565.494,791.512 567.619,794.84 569.854,798.168 572.202,801.496 574.672,804.823 577.268,808.151 579.998,811.479 582.871,814.806 585.897,818.134 589.087,821.462 592.454,824.79 596.013,828.117 599.782,831.445 603.784,834.773 608.045,838.1 612.598,841.428 617.485,844.756 622.762,848.084 628.5,851.411 634.803,854.739 641.821,858.067 649.795,861.395 659.15,864.722 " />
</g>
<g>
<polyline fill="none" stroke="#7f7fff" points="663.319,537.963 662.224,541.236 661.154,544.51 660.108,547.783 659.087,551.057 658.09,554.33 657.117,557.604 656.168,560.877 655.243,564.151 654.341,567.424 653.463,570.698 652.609,573.971 651.778,577.245 650.97,580.518 650.186,583.792 649.424,587.065 648.685,590.339 647.969,593.612 647.276,596.886 646.605,600.159 645.957,603.432 645.331,606.706 644.727,609.979 644.146,613.253 643.587,616.526 643.05,619.8 642.535,623.073 642.042,626.347 641.571,629.62 641.122,632.894 640.694,636.167 640.288,639.441 639.904,642.714 639.542,645.988 639.201,649.261 638.881,652.535 638.583,655.808 638.307,659.082 638.052,662.355 637.818,665.629 637.606,668.902 637.414,672.175 637.245,675.449 637.096,678.722 636.969,681.996 636.863,685.269 636.778,688.543 636.714,691.816 636.672,695.09 636.651,698.363 636.651,701.637 636.672,704.91 636.714,708.184 636.778,711.457 636.863,714.731 636.969,718.004 637.096,721.278 637.245,724.551 637.414,727.825 637.606,731.098 637.818,734.371 638.052,737.645 638.307,740.918 638.583,744.192 638.881,747.465 639.201,750.739 639.542,754.012 639.904,757.286 640.288,760.559 640.694,763.833 641.122,767.106 641.571,770.38 642.042,773.653 642.535,776.927 643.05,780.2 643.587,783.474 644.146,786.747 644.727,790.021 645.331,793.294 645.957,796.568 646.605,799.841 647.276,803.114 647.969,806.388 648.685,809.661 649.424,812.935 650.186,816.208 650.97,819.482 651.778,822.755 652.609,826.029 653.463,829.302 654.341,832.576 655.243,835.849 656.168,839.123 657.117,842.396 658.09,845.67 659.087,848.943 660.108,852.217 661.154,855.49 662.224,858.764 663.319,862.037 " />
<line x1="706.38" y1="537.963" x2="706.38" y2="560.093"  stroke="#7f7fff" />
<line x1="663.319" y1="537.963" x2="706.38" y2="537.963"  stroke="#7f7fff" />
<line x1="706.38" y1="862.037" x2="706.38" y2="839.907"  stroke="#7f7fff" />
<line x1="663.319" y1="862.037" x2="706.38" y2="862.037"  stroke="#7f7fff" />
<polyline fill="none" stroke="#7f7fff" points="706.38,560.093 703.746,562.919 701.211,565.745 698.769,568.572 696.415,571.398 694.146,574.225 691.958,577.051 689.849,579.877 687.814,582.704 685.851,585.53 683.958,588.357 682.133,591.183 680.373,594.01 678.676,596.836 677.04,599.662 675.465,602.489 673.948,605.315 672.487,608.142 671.082,610.968 669.731,613.794 668.433,616.621 667.187,619.447 665.992,622.274 664.846,625.1 663.75,627.926 662.701,630.753 661.7,633.579 660.746,636.406 659.837,639.232 658.974,642.059 658.155,644.885 657.38,647.711 656.649,650.538 655.962,653.364 655.316,656.191 654.713,659.017 654.152,661.843 653.632,664.67 653.154,667.496 652.716,670.323 652.319,673.149 651.962,675.975 651.646,678.802 651.369,681.628 651.133,684.455 650.936,687.281 650.778,690.108 650.66,692.934 650.581,695.76 650.542,698.587 650.542,701.413 650.581,704.24 650.66,707.066 650.778,709.892 650.936,712.719 651.133,715.545 651.369,718.372 651.646,721.198 651.962,724.025 652.319,726.851 652.716,729.677 653.154,732.504 653.632,735.33 654.152,738.157 654.713,740.983 655.316,743.809 655.962,746.636 656.649,749.462 657.38,752.289 658.155,755.115 658.974,757.941 659.837,760.768 660.746,763.594 661.7,766.421 662.701,769.247 663.75,772.074 664.846,774.9 665.992,777.726 667.187,780.553 668.433,783.379 669.731,786.206 671.082,789.032 672.487,791.858 673.948,794.685 675.465,797.511 677.04,800.338 678.676,803.164 680.373,805.99 682.133,808.817 683.958,811.643 685.851,814.47 687.814,817.296 689.849,820.123 691.958,822.949 694.146,825.775 696.415,828.602 698.769,831.428 701.211,834.255 703.746,837.081 706.38,839.907 " />
</g>
<g>
<polyline fill="none" stroke="#7f7fff" points="711.853,562.87 711.187,565.641 710.536,568.411 709.899,571.181 709.277,573.952 708.669,576.722 708.074,579.492 707.494,582.262 706.928,585.033 706.376,587.803 705.838,590.573 705.314,593.344 704.804,596.114 704.308,598.884 703.825,601.655 703.356,604.425 702.901,607.195 702.46,609.965 702.033,612.736 701.619,615.506 701.219,618.276 700.832,621.047 700.459,623.817 700.099,626.587 699.753,629.357 699.421,632.128 699.102,634.898 698.796,637.668 698.504,640.439 698.226,643.209 697.96,645.979 697.708,648.75 697.47,651.52 697.245,654.29 697.033,657.06 696.834,659.831 696.649,662.601 696.477,665.371 696.318,668.142 696.173,670.912 696.041,673.682 695.922,676.452 695.816,679.223 695.723,681.993 695.644,684.763 695.578,687.534 695.525,690.304 695.486,693.074 695.459,695.845 695.446,698.615 695.446,701.385 695.459,704.155 695.486,706.926 695.525,709.696 695.578,712.466 695.644,715.237 695.723,718.007 695.816,720.777 695.922,723.548 696.041,726.318 696.173,729.088 696.318,731.858 696.477,734.629 696.649,737.399 696.834,740.169 697.033,742.94 697.245,745.71 697.47,748.48 697.708,751.25 697.96,754.021 698.226,756.791 698.504,759.561 698.796,762.332 699.102,765.102 699.421,767.872 699.753,770.643 700.099,773.413 700.459,776.183 700.832,778.953 701.219,781.724 701.619,784.494 702.033,787.264 702.46,790.035 702.901,792.805 703.356,795.575 703.825,798.345 704.308,801.116 704.804,803.886 705.314,806.656 705.838,809.427 706.376,812.197 706.928,814.967 707.494,817.738 708.074,820.508 708.669,823.278 709.277,826.048 709.899,828.819 710.536,831.589 711.187,834.359 711.853,837.13 " />
<line x1="749.601" y1="562.87" x2="749.601" y2="574.815"  stroke="#7f7fff" />
<line x1="711.853" y1="562.87" x2="749.601" y2="562.87"  stroke="#7f7fff" />
<line x1="749.601" y1="837.13" x2="749.601" y2="825.185"  stroke="#7f7fff" />
<line x1="711.853" y1="837.13" x2="749.601" y2="837.13"  stroke="#7f7fff" />
<polyline fill="none" stroke="#7f7fff" points="749.601,574.815 747.814,577.344 746.08,579.873 744.399,582.402 742.769,584.931 741.188,587.46 739.656,589.989 738.17,592.518 736.731,595.047 735.336,597.576 733.985,600.105 732.678,602.634 731.412,605.163 730.187,607.692 729.003,610.221 727.859,612.75 726.754,615.279 725.687,617.808 724.658,620.337 723.666,622.866 722.711,625.395 721.792,627.924 720.908,630.453 720.06,632.982 719.246,635.511 718.467,638.04 717.722,640.569 717.01,643.098 716.332,645.627 715.686,648.156 715.073,650.685 714.492,653.214 713.944,655.743 713.427,658.272 712.942,660.801 712.488,663.33 712.065,665.859 711.673,668.388 711.312,670.917 710.982,673.446 710.682,675.975 710.412,678.504 710.173,681.033 709.963,683.562 709.784,686.091 709.635,688.62 709.516,691.149 709.426,693.678 709.367,696.207 709.337,698.736 709.337,701.264 709.367,703.793 709.426,706.322 709.516,708.851 709.635,711.38 709.784,713.909 709.963,716.438 710.173,718.967 710.412,721.496 710.682,724.025 710.982,726.554 711.312,729.083 711.673,731.612 712.065,734.141 712.488,736.67 712.942,739.199 713.427,741.728 713.944,744.257 714.492,746.786 715.073,749.315 715.686,751.844 716.332,754.373 717.01,756.902 717.722,759.431 718.467,761.96 719.246,764.489 720.06,767.018 720.908,769.547 721.792,772.076 722.711,774.605 723.666,777.134 724.658,779.663 725.687,782.192 726.754,784.721 727.859,787.25 729.003,789.779 730.187,792.308 731.412,794.837 732.678,797.366 733.985,799.895 735.336,802.424 736.731,804.953 738.17,807.482 739.656,810.011 741.188,812.54 742.769,815.069 744.399,817.598 746.08,820.127 747.814,822.656 749.601,825.185 " />
</g>
<g>
<polyline fill="none" stroke="#7f7fff" points="754.377,575.093 754.568,577.616 754.756,580.139 754.939,582.663 755.118,585.186 755.294,587.71 755.465,590.233 755.633,592.756 755.796,595.28 755.956,597.803 756.112,600.326 756.264,602.85 756.412,605.373 756.556,607.897 756.696,610.42 756.832,612.943 756.965,615.467 757.093,617.99 757.218,620.513 757.339,623.037 757.455,625.56 757.568,628.084 757.677,630.607 757.782,633.13 757.883,635.654 757.981,638.177 758.074,640.701 758.164,643.224 758.249,645.747 758.331,648.271 758.409,650.794 758.483,653.317 758.553,655.841 758.619,658.364 758.681,660.888 758.739,663.411 758.794,665.934 758.844,668.458 758.891,670.981 758.934,673.504 758.973,676.028 759.008,678.551 759.039,681.075 759.066,683.598 759.089,686.121 759.109,688.645 759.124,691.168 759.136,693.692 759.144,696.215 759.148,698.738 759.148,701.262 759.144,703.785 759.136,706.308 759.124,708.832 759.109,711.355 759.089,713.879 759.066,716.402 759.039,718.925 759.008,721.449 758.973,723.972 758.934,726.496 758.891,729.019 758.844,731.542 758.794,734.066 758.739,736.589 758.681,739.112 758.619,741.636 758.553,744.159 758.483,746.683 758.409,749.206 758.331,751.729 758.249,754.253 758.164,756.776 758.074,759.299 757.981,761.823 757.883,764.346 757.782,766.87 757.677,769.393 757.568,771.916 757.455,774.44 757.339,776.963 757.218,779.487 757.093,782.01 756.965,784.533 756.832,787.057 756.696,789.58 756.556,792.103 756.412,794.627 756.264,797.15 756.112,799.674 755.956,802.197 755.796,804.72 755.633,807.244 755.465,809.767 755.294,812.29 755.118,814.814 754.939,817.337 754.756,819.861 754.568,822.384 754.377,824.907 " />
<line x1="754.377" y1="575.093" x2="821.889" y2="575.093"  stroke="#7f7fff" />
<line x1="754.377" y1="824.907" x2="821.889" y2="824.907"  stroke="#7f7fff" />
<polyline fill="none" stroke="#7f7fff" points="821.889,575.093 820.88,577.616 819.894,580.139 818.933,582.663 817.994,585.186 817.079,587.71 816.186,590.233 815.317,592.756 814.469,595.28 813.644,597.803 812.842,600.326 812.061,602.85 811.302,605.373 810.565,607.897 809.85,610.42 809.156,612.943 808.483,615.467 807.831,617.99 807.2,620.513 806.59,623.037 806.001,625.56 805.433,628.084 804.885,630.607 804.357,633.13 803.85,635.654 803.363,638.177 802.897,640.701 802.45,643.224 802.023,645.747 801.617,648.271 801.23,650.794 800.863,653.317 800.515,655.841 800.187,658.364 799.879,660.888 799.59,663.411 799.321,665.934 799.071,668.458 798.841,670.981 798.63,673.504 798.438,676.028 798.266,678.551 798.112,681.075 797.978,683.598 797.863,686.121 797.768,688.645 797.691,691.168 797.634,693.692 797.596,696.215 797.576,698.738 797.576,701.262 797.596,703.785 797.634,706.308 797.691,708.832 797.768,711.355 797.863,713.879 797.978,716.402 798.112,718.925 798.266,721.449 798.438,723.972 798.63,726.496 798.841,729.019 799.071,731.542 799.321,734.066 799.59,736.589 799.879,739.112 800.187,741.636 800.515,744.159 800.863,746.683 801.23,749.206 801.617,751.729 802.023,754.253 802.45,756.776 802.897,759.299 803.363,761.823 803.85,764.346 804.357,766.87 804.885,769.393 805.433,771.916 806.001,774.44 806.59,776.963 807.2,779.487 807.831,782.01 808.483,784.533 809.156,787.057 809.85,789.58 810.565,792.103 811.302,794.627 812.061,797.15 812.842,799.674 813.644,802.197 814.469,804.72 815.317,807.244 816.186,809.767 817.079,812.29 817.994,814.814 818.933,817.337 819.894,819.861 820.88,822.384 821.889,824.907 " />
</g>
<g>
<polyline fill="none" stroke="#7f7fff" points="824.216,573.889 823.86,576.437 823.511,578.984 823.17,581.532 822.836,584.08 822.509,586.627 822.19,589.175 821.878,591.723 821.573,594.27 821.276,596.818 820.986,599.366 820.704,601.914 820.429,604.461 820.161,607.009 819.9,609.557 819.647,612.104 819.401,614.652 819.162,617.2 818.931,619.747 818.707,622.295 818.49,624.843 818.281,627.391 818.078,629.938 817.884,632.486 817.696,635.034 817.515,637.581 817.342,640.129 817.176,642.677 817.018,645.224 816.866,647.772 816.722,650.32 816.585,652.868 816.455,655.415 816.332,657.963 816.217,660.511 816.109,663.058 816.008,665.606 815.915,668.154 815.828,670.701 815.749,673.249 815.677,675.797 815.612,678.345 815.554,680.892 815.504,683.44 815.461,685.988 815.425,688.535 815.396,691.083 815.374,693.631 815.36,696.178 815.353,698.726 815.353,701.274 815.36,703.822 815.374,706.369 815.396,708.917 815.425,711.465 815.461,714.012 815.504,716.56 815.554,719.108 815.612,721.655 815.677,724.203 815.749,726.751 815.828,729.299 815.915,731.846 816.008,734.394 816.109,736.942 816.217,739.489 816.332,742.037 816.455,744.585 816.585,747.132 816.722,749.68 816.866,752.228 817.018,754.776 817.176,757.323 817.342,759.871 817.515,762.419 817.696,764.966 817.884,767.514 818.078,770.062 818.281,772.609 818.49,775.157 818.707,777.705 818.931,780.253 819.162,782.8 819.401,785.348 819.647,787.896 819.9,790.443 820.161,792.991 820.429,795.539 820.704,798.086 820.986,800.634 821.276,803.182 821.573,805.73 821.878,808.277 822.19,810.825 822.509,813.373 822.836,815.92 823.17,818.468 823.511,821.016 823.86,823.563 824.216,826.111 " />
<line x1="824.216" y1="573.889" x2="841.269" y2="573.889"  stroke="#7f7fff" />
<line x1="824.216" y1="826.111" x2="841.269" y2="826.111"  stroke="#7f7fff" />
<polyline fill="none" stroke="#7f7fff" points="841.269,573.889 841.717,576.437 842.156,578.984 842.585,581.532 843.005,584.08 843.416,586.627 843.817,589.175 844.209,591.723 844.591,594.27 844.964,596.818 845.328,599.366 845.683,601.914 846.028,604.461 846.364,607.009 846.691,609.557 847.009,612.104 847.317,614.652 847.617,617.2 847.907,619.747 848.188,622.295 848.459,624.843 848.722,627.391 848.975,629.938 849.22,632.486 849.455,635.034 849.681,637.581 849.898,640.129 850.106,642.677 850.304,645.224 850.494,647.772 850.675,650.32 850.846,652.868 851.008,655.415 851.162,657.963 851.306,660.511 851.441,663.058 851.568,665.606 851.685,668.154 851.793,670.701 851.892,673.249 851.982,675.797 852.063,678.345 852.136,680.892 852.199,683.44 852.253,685.988 852.298,688.535 852.334,691.083 852.361,693.631 852.379,696.178 852.388,698.726 852.388,701.274 852.379,703.822 852.361,706.369 852.334,708.917 852.298,711.465 852.253,714.012 852.199,716.56 852.136,719.108 852.063,721.655 851.982,724.203 851.892,726.751 851.793,729.299 851.685,731.846 851.568,734.394 851.441,736.942 851.306,739.489 851.162,742.037 851.008,744.585 850.846,747.132 850.675,749.68 850.494,752.228 850.304,754.776 850.106,757.323 849.898,759.871 849.681,762.419 849.455,764.966 849.22,767.514 848.975,770.062 848.722,772.609 848.459,775.157 848.188,777.705 847.907,780.253 847.617,782.8 847.317,785.348 847.009,787.896 846.691,790.443 846.364,792.991 846.028,795.539 845.683,798.086 845.328,800.634 844.964,803.182 844.591,805.73 844.209,808.277 843.817,810.825 843.416,813.373 843.005,815.92 842.585,818.468 842.156,821.016 841.717,823.563 841.269,826.111 " />
</g>
<g>
<polyline fill="none" stroke="#7f7fff" points="910.025,571.019 909.124,573.624 908.244,576.23 907.385,578.836 906.545,581.441 905.726,584.047 904.926,586.653 904.146,589.258 903.386,591.864 902.646,594.47 901.925,597.075 901.223,599.681 900.541,602.287 899.878,604.892 899.233,607.498 898.608,610.104 898.002,612.71 897.414,615.315 896.845,617.921 896.295,620.527 895.763,623.132 895.249,625.738 894.754,628.344 894.278,630.949 893.819,633.555 893.378,636.161 892.956,638.766 892.552,641.372 892.165,643.978 891.797,646.583 891.446,649.189 891.114,651.795 890.799,654.4 890.502,657.006 890.222,659.612 889.96,662.218 889.716,664.823 889.489,667.429 889.28,670.035 889.088,672.64 888.914,675.246 888.758,677.852 888.619,680.457 888.497,683.063 888.392,685.669 888.306,688.274 888.236,690.88 888.184,693.486 888.149,696.091 888.132,698.697 888.132,701.303 888.149,703.909 888.184,706.514 888.236,709.12 888.306,711.726 888.392,714.331 888.497,716.937 888.619,719.543 888.758,722.148 888.914,724.754 889.088,727.36 889.28,729.965 889.489,732.571 889.716,735.177 889.96,737.782 890.222,740.388 890.502,742.994 890.799,745.6 891.114,748.205 891.446,750.811 891.797,753.417 892.165,756.022 892.552,758.628 892.956,761.234 893.378,763.839 893.819,766.445 894.278,769.051 894.754,771.656 895.249,774.262 895.763,776.868 896.295,779.473 896.845,782.079 897.414,784.685 898.002,787.29 898.608,789.896 899.233,792.502 899.878,795.108 900.541,797.713 901.223,800.319 901.925,802.925 902.646,805.53 903.386,808.136 904.146,810.742 904.926,813.347 905.726,815.953 906.545,818.559 907.385,821.164 908.244,823.77 909.124,826.376 910.025,828.981 " />
<line x1="1020.555" y1="571.019" x2="1020.555" y2="584.63"  stroke="#7f7fff" />
<line x1="910.025" y1="571.019" x2="1020.555" y2="571.019"  stroke="#7f7fff" />
<line x1="1020.555" y1="828.981" x2="1020.555" y2="815.37"  stroke="#7f7fff" />
<line x1="910.025" y1="828.981" x2="1020.555" y2="828.981"  stroke="#7f7fff" />
<polyline fill="none" stroke="#7f7fff" points="1020.555,584.63 1021.989,586.96 1023.383,589.291 1024.738,591.622 1026.055,593.952 1027.334,596.283 1028.577,598.614 1029.784,600.945 1030.955,603.275 1032.092,605.606 1033.195,607.937 1034.265,610.267 1035.301,612.598 1036.305,614.929 1037.278,617.26 1038.218,619.59 1039.128,621.921 1040.007,624.252 1040.856,626.582 1041.675,628.913 1042.464,631.244 1043.224,633.575 1043.956,635.905 1044.659,638.236 1045.333,640.567 1045.98,642.897 1046.599,645.228 1047.19,647.559 1047.754,649.89 1048.291,652.22 1048.802,654.551 1049.285,656.882 1049.742,659.212 1050.173,661.543 1050.578,663.874 1050.957,666.205 1051.31,668.535 1051.637,670.866 1051.938,673.197 1052.214,675.527 1052.465,677.858 1052.69,680.189 1052.891,682.52 1053.065,684.85 1053.215,687.181 1053.34,689.512 1053.44,691.842 1053.515,694.173 1053.565,696.504 1053.589,698.835 1053.589,701.165 1053.565,703.496 1053.515,705.827 1053.44,708.158 1053.34,710.488 1053.215,712.819 1053.065,715.15 1052.891,717.48 1052.69,719.811 1052.465,722.142 1052.214,724.473 1051.938,726.803 1051.637,729.134 1051.31,731.465 1050.957,733.795 1050.578,736.126 1050.173,738.457 1049.742,740.788 1049.285,743.118 1048.802,745.449 1048.291,747.78 1047.754,750.11 1047.19,752.441 1046.599,754.772 1045.98,757.103 1045.333,759.433 1044.659,761.764 1043.956,764.095 1043.224,766.425 1042.464,768.756 1041.675,771.087 1040.856,773.418 1040.007,775.748 1039.128,778.079 1038.218,780.41 1037.278,782.74 1036.305,785.071 1035.301,787.402 1034.265,789.733 1033.195,792.063 1032.092,794.394 1030.955,796.725 1029.784,799.055 1028.577,801.386 1027.334,803.717 1026.055,806.048 1024.738,808.378 1023.383,810.709 1021.989,813.04 1020.555,815.37 " />
</g>
<g>
<polyline fill="none" stroke="#7f7fff" points="1020.631,584.63 1022.066,586.96 1023.461,589.291 1024.817,591.622 1026.134,593.952 1027.414,596.283 1028.658,598.614 1029.865,600.945 1031.037,603.275 1032.175,605.606 1033.278,607.937 1034.348,610.267 1035.385,612.598 1036.39,614.929 1037.363,617.26 1038.304,619.59 1039.214,621.921 1040.093,624.252 1040.943,626.582 1041.762,628.913 1042.552,631.244 1043.312,633.575 1044.044,635.905 1044.747,638.236 1045.422,640.567 1046.069,642.897 1046.688,645.228 1047.28,647.559 1047.844,649.89 1048.382,652.22 1048.892,654.551 1049.376,656.882 1049.833,659.212 1050.264,661.543 1050.669,663.874 1051.048,666.205 1051.401,668.535 1051.728,670.866 1052.03,673.197 1052.306,675.527 1052.557,677.858 1052.783,680.189 1052.983,682.52 1053.158,684.85 1053.308,687.181 1053.433,689.512 1053.532,691.842 1053.607,694.173 1053.657,696.504 1053.682,698.835 1053.682,701.165 1053.657,703.496 1053.607,705.827 1053.532,708.158 1053.433,710.488 1053.308,712.819 1053.158,715.15 1052.983,717.48 1052.783,719.811 1052.557,722.142 1052.306,724.473 1052.03,726.803 1051.728,729.134 1051.401,731.465 1051.048,733.795 1050.669,736.126 1050.264,738.457 1049.833,740.788 1049.376,743.118 1048.892,745.449 1048.382,747.78 1047.844,750.11 1047.28,752.441 1046.688,754.772 1046.069,757.103 1045.422,759.433 1044.747,761.764 1044.044,764.095 1043.312,766.425 1042.552,768.756 1041.762,771.087 1040.943,773.418 1040.093,775.748 1039.214,778.079 1038.304,780.41 1037.363,782.74 1036.39,785.071 1035.385,787.402 1034.348,789.733 1033.278,792.063 1032.175,794.394 1031.037,796.725 1029.865,799.055 1028.658,801.386 1027.414,803.717 1026.134,806.048 1024.817,808.378 1023.461,810.709 1022.066,813.04 1020.631,815.37 " />
<line x1="1020.631" y1="584.63" x2="1050.541" y2="584.63"  stroke="#7f7fff" />
<line x1="1020.631" y1="815.37" x2="1050.541" y2="815.37"  stroke="#7f7fff" />
<polyline fill="none" stroke="#7f7fff" points="1050.541,584.63 1051.499,586.96 1052.435,589.291 1053.349,591.622 1054.24,593.952 1055.109,596.283 1055.956,598.614 1056.781,600.945 1057.585,603.275 1058.367,605.606 1059.129,607.937 1059.869,610.267 1060.589,612.598 1061.288,614.929 1061.966,617.26 1062.624,619.59 1063.262,621.921 1063.88,624.252 1064.477,626.582 1065.055,628.913 1065.614,631.244 1066.152,633.575 1066.671,635.905 1067.171,638.236 1067.651,640.567 1068.112,642.897 1068.554,645.228 1068.977,647.559 1069.381,649.89 1069.766,652.22 1070.133,654.551 1070.48,656.882 1070.809,659.212 1071.119,661.543 1071.411,663.874 1071.684,666.205 1071.939,668.535 1072.176,670.866 1072.394,673.197 1072.594,675.527 1072.775,677.858 1072.938,680.189 1073.083,682.52 1073.21,684.85 1073.319,687.181 1073.409,689.512 1073.482,691.842 1073.536,694.173 1073.572,696.504 1073.59,698.835 1073.59,701.165 1073.572,703.496 1073.536,705.827 1073.482,708.158 1073.409,710.488 1073.319,712.819 1073.21,715.15 1073.083,717.48 1072.938,719.811 1072.775,722.142 1072.594,724.473 1072.394,726.803 1072.176,729.134 1071.939,731.465 1071.684,733.795 1071.411,736.126 1071.119,738.457 1070.809,740.788 1070.48,743.118 1070.133,745.449 1069.766,747.78 1069.381,750.11 1068.977,752.441 1068.554,754.772 1068.112,757.103 1067.651,759.433 1067.171,761.764 1066.671,764.095 1066.152,766.425 1065.614,768.756 1065.055,771.087 1064.477,773.418 1063.88,775.748 1063.262,778.079 1062.624,780.41 1061.966,782.74 1061.288,785.071 1060.589,787.402 1059.869,789.733 1059.129,792.063 1058.367,794.394 1057.585,796.725 1056.781,799.055 1055.956,801.386 1055.109,803.717 1054.24,806.048 1053.349,808.378 1052.435,810.709 1051.499,813.04 1050.541,815.37 " />
</g>
<g>
<polyline fill="none" stroke="#7f7fff" points="1116.568,607.407 1116.33,609.278 1116.096,611.149 1115.868,613.019 1115.644,614.89 1115.425,616.76 1115.212,618.631 1115.003,620.501 1114.799,622.372 1114.6,624.242 1114.406,626.113 1114.216,627.984 1114.032,629.854 1113.853,631.725 1113.678,633.595 1113.508,635.466 1113.344,637.336 1113.184,639.207 1113.029,641.077 1112.879,642.948 1112.733,644.819 1112.593,646.689 1112.457,648.56 1112.327,650.43 1112.201,652.301 1112.08,654.171 1111.964,656.042 1111.853,657.912 1111.746,659.783 1111.645,661.654 1111.548,663.524 1111.456,665.395 1111.369,667.265 1111.287,669.136 1111.21,671.006 1111.137,672.877 1111.07,674.747 1111.007,676.618 1110.949,678.489 1110.896,680.359 1110.848,682.23 1110.804,684.1 1110.765,685.971 1110.732,687.841 1110.703,689.712 1110.679,691.582 1110.659,693.453 1110.645,695.324 1110.635,697.194 1110.63,699.065 1110.63,700.935 1110.635,702.806 1110.645,704.676 1110.659,706.547 1110.679,708.418 1110.703,710.288 1110.732,712.159 1110.765,714.029 1110.804,715.9 1110.848,717.77 1110.896,719.641 1110.949,721.511 1111.007,723.382 1111.07,725.253 1111.137,727.123 1111.21,728.994 1111.287,730.864 1111.369,732.735 1111.456,734.605 1111.548,736.476 1111.645,738.346 1111.746,740.217 1111.853,742.088 1111.964,743.958 1112.08,745.829 1112.201,747.699 1112.327,749.57 1112.457,751.44 1112.593,753.311 1112.733,755.181 1112.879,757.052 1113.029,758.923 1113.184,760.793 1113.344,762.664 1113.508,764.534 1113.678,766.405 1113.853,768.275 1114.032,770.146 1114.216,772.016 1114.406,773.887 1114.6,775.758 1114.799,777.628 1115.003,779.499 1115.212,781.369 1115.425,783.24 1115.644,785.11 1115.868,786.981 1116.096,788.851 1116.33,790.722 1116.568,792.593 " />
<line x1="1232.14" y1="607.407" x2="1232.14" y2="619.259"  stroke="#7f7fff" />
<line x1="1116.568" y1="607.407" x2="1232.14" y2="607.407"  stroke="#7f7fff" />
<line x1="1232.14" y1="792.593" x2="1232.14" y2="780.741"  stroke="#7f7fff" />
<line x1="1116.568" y1="792.593" x2="1232.14" y2="792.593"  stroke="#7f7fff" />
<polyline fill="none" stroke="#7f7fff" points="1232.14,619.259 1230.528,620.89 1228.98,622.522 1227.491,624.153 1226.058,625.784 1224.68,627.415 1223.352,629.046 1222.074,630.677 1220.843,632.308 1219.657,633.939 1218.514,635.571 1217.413,637.202 1216.352,638.833 1215.331,640.464 1214.347,642.095 1213.4,643.726 1212.489,645.357 1211.613,646.988 1210.77,648.62 1209.96,650.251 1209.182,651.882 1208.436,653.513 1207.721,655.144 1207.036,656.775 1206.38,658.406 1205.753,660.037 1205.155,661.669 1204.585,663.3 1204.043,664.931 1203.527,666.562 1203.039,668.193 1202.577,669.824 1202.141,671.455 1201.731,673.086 1201.346,674.718 1200.987,676.349 1200.652,677.98 1200.343,679.611 1200.058,681.242 1199.797,682.873 1199.561,684.504 1199.348,686.135 1199.16,687.767 1198.995,689.398 1198.854,691.029 1198.737,692.66 1198.643,694.291 1198.573,695.922 1198.526,697.553 1198.503,699.184 1198.503,700.816 1198.526,702.447 1198.573,704.078 1198.643,705.709 1198.737,707.34 1198.854,708.971 1198.995,710.602 1199.16,712.233 1199.348,713.865 1199.561,715.496 1199.797,717.127 1200.058,718.758 1200.343,720.389 1200.652,722.02 1200.987,723.651 1201.346,725.282 1201.731,726.914 1202.141,728.545 1202.577,730.176 1203.039,731.807 1203.527,733.438 1204.043,735.069 1204.585,736.7 1205.155,738.331 1205.753,739.963 1206.38,741.594 1207.036,743.225 1207.721,744.856 1208.436,746.487 1209.182,748.118 1209.96,749.749 1210.77,751.38 1211.613,753.012 1212.489,754.643 1213.4,756.274 1214.347,757.905 1215.331,759.536 1216.352,761.167 1217.413,762.798 1218.514,764.429 1219.657,766.061 1220.843,767.692 1222.074,769.323 1223.352,770.954 1224.68,772.585 1226.058,774.216 1227.491,775.847 1228.98,777.478 1230.528,779.11 1232.14,780.741 " />
</g>
<g>
<polyline fill="none" stroke="#7f7fff" points="1232.14,619.259 1230.528,620.89 1228.98,622.522 1227.491,624.153 1226.058,625.784 1224.68,627.415 1223.352,629.046 1222.074,630.677 1220.843,632.308 1219.657,633.939 1218.514,635.571 1217.413,637.202 1216.352,638.833 1215.331,640.464 1214.347,642.095 1213.4,643.726 1212.489,645.357 1211.613,646.988 1210.77,648.62 1209.96,650.251 1209.182,651.882 1208.436,653.513 1207.721,655.144 1207.036,656.775 1206.38,658.406 1205.753,660.037 1205.155,661.669 1204.585,663.3 1204.043,664.931 1203.527,666.562 1203.039,668.193 1202.577,669.824 1202.141,671.455 1201.731,673.086 1201.346,674.718 1200.987,676.349 1200.652,677.98 1200.343,679.611 1200.058,681.242 1199.797,682.873 1199.561,684.504 1199.348,686.135 1199.16,687.767 1198.995,689.398 1198.854,691.029 1198.737,692.66 1198.643,694.291 1198.573,695.922 1198.526,697.553 1198.503,699.184 1198.503,700.816 1198.526,702.447 1198.573,704.078 1198.643,705.709 1198.737,707.34 1198.854,708.971 1198.995,710.602 1199.16,712.233 1199.348,713.865 1199.561,715.496 1199.797,717.127 1200.058,718.758 1200.343,720.389 1200.652,722.02 1200.987,723.651 1201.346,725.282 1201.731,726.914 1202.141,728.545 1202.577,730.176 1203.039,731.807 1203.527,733.438 1204.043,735.069 1204.585,736.7 1205.155,738.331 1205.753,739.963 1206.38,741.594 1207.036,743.225 1207.721,744.856 1208.436,746.487 1209.182,748.118 1209.96,749.749 1210.77,751.38 1211.613,753.012 1212.489,754.643 1213.4,756.274 1214.347,757.905 1215.331,759.536 1216.352,761.167 1217.413,762.798 1218.514,764.429 1219.657,766.061 1220.843,767.692 1222.074,769.323 1223.352,770.954 1224.68,772.585 1226.058,774.216 1227.491,775.847 1228.98,777.478 1230.528,779.11 1232.14,780.741 " />
<line x1="1232.14" y1="619.259" x2="1258.185" y2="619.259"  stroke="#7f7fff" />
<line x1="1232.14" y1="780.741" x2="1258.185" y2="780.741"  stroke="#7f7fff" />
<polyline fill="none" stroke="#7f7fff" points="1258.185,619.259 1258.544,620.89 1258.896,622.522 1259.239,624.153 1259.575,625.784 1259.904,627.415 1260.224,629.046 1260.538,630.677 1260.843,632.308 1261.141,633.939 1261.432,635.571 1261.715,637.202 1261.991,638.833 1262.259,640.464 1262.52,642.095 1262.773,643.726 1263.019,645.357 1263.258,646.988 1263.489,648.62 1263.713,650.251 1263.93,651.882 1264.139,653.513 1264.341,655.144 1264.535,656.775 1264.722,658.406 1264.902,660.037 1265.075,661.669 1265.24,663.3 1265.398,664.931 1265.549,666.562 1265.693,668.193 1265.829,669.824 1265.959,671.455 1266.08,673.086 1266.195,674.718 1266.303,676.349 1266.403,677.98 1266.496,679.611 1266.582,681.242 1266.661,682.873 1266.733,684.504 1266.797,686.135 1266.854,687.767 1266.904,689.398 1266.947,691.029 1266.983,692.66 1267.012,694.291 1267.033,695.922 1267.048,697.553 1267.055,699.184 1267.055,700.816 1267.048,702.447 1267.033,704.078 1267.012,705.709 1266.983,707.34 1266.947,708.971 1266.904,710.602 1266.854,712.233 1266.797,713.865 1266.733,715.496 1266.661,717.127 1266.582,718.758 1266.496,720.389 1266.403,722.02 1266.303,723.651 1266.195,725.282 1266.08,726.914 1265.959,728.545 1265.829,730.176 1265.693,731.807 1265.549,733.438 1265.398,735.069 1265.24,736.7 1265.075,738.331 1264.902,739.963 1264.722,741.594 1264.535,743.225 1264.341,744.856 1264.139,746.487 1263.93,748.118 1263.713,749.749 1263.489,751.38 1263.258,753.012 1263.019,754.643 1262.773,756.274 1262.52,757.905 1262.259,759.536 1261.991,761.167 1261.715,762.798 1261.432,764.429 1261.141,766.061 1260.843,767.692 1260.538,769.323 1260.224,770.954 1259.904,772.585 1259.575,774.216 1259.239,775.847 1258.896,777.478 1258.544,779.11 1258.185,780.741 " />
</g>
<g>
<polyline fill="none" stroke="#7f7fff" points="1287.919,621.204 1288.22,622.796 1288.515,624.387 1288.804,625.979 1289.086,627.571 1289.362,629.163 1289.632,630.755 1289.895,632.347 1290.152,633.938 1290.403,635.53 1290.648,637.122 1290.886,638.714 1291.118,640.306 1291.344,641.898 1291.564,643.49 1291.777,645.081 1291.984,646.673 1292.185,648.265 1292.38,649.857 1292.569,651.449 1292.751,653.041 1292.927,654.632 1293.098,656.224 1293.262,657.816 1293.42,659.408 1293.571,661 1293.717,662.592 1293.856,664.184 1293.99,665.775 1294.117,667.367 1294.238,668.959 1294.353,670.551 1294.463,672.143 1294.565,673.735 1294.662,675.326 1294.753,676.918 1294.838,678.51 1294.917,680.102 1294.989,681.694 1295.056,683.286 1295.116,684.877 1295.171,686.469 1295.219,688.061 1295.261,689.653 1295.297,691.245 1295.328,692.837 1295.352,694.429 1295.37,696.02 1295.382,697.612 1295.388,699.204 1295.388,700.796 1295.382,702.388 1295.37,703.98 1295.352,705.571 1295.328,707.163 1295.297,708.755 1295.261,710.347 1295.219,711.939 1295.171,713.531 1295.116,715.123 1295.056,716.714 1294.989,718.306 1294.917,719.898 1294.838,721.49 1294.753,723.082 1294.662,724.674 1294.565,726.265 1294.463,727.857 1294.353,729.449 1294.238,731.041 1294.117,732.633 1293.99,734.225 1293.856,735.816 1293.717,737.408 1293.571,739 1293.42,740.592 1293.262,742.184 1293.098,743.776 1292.927,745.368 1292.751,746.959 1292.569,748.551 1292.38,750.143 1292.185,751.735 1291.984,753.327 1291.777,754.919 1291.564,756.51 1291.344,758.102 1291.118,759.694 1290.886,761.286 1290.648,762.878 1290.403,764.47 1290.152,766.062 1289.895,767.653 1289.632,769.245 1289.362,770.837 1289.086,772.429 1288.804,774.021 1288.515,775.613 1288.22,777.204 1287.919,778.796 " />
<line x1="1287.919" y1="621.204" x2="1302.387" y2="621.204"  stroke="#7f7fff" />
<line x1="1287.919" y1="778.796" x2="1302.387" y2="778.796"  stroke="#7f7fff" />
<polyline fill="none" stroke="#7f7fff" points="1302.387,621.204 1304.086,622.796 1305.714,624.387 1307.274,625.979 1308.772,627.571 1310.209,629.163 1311.591,630.755 1312.918,632.347 1314.195,633.938 1315.422,635.53 1316.603,637.122 1317.739,638.714 1318.832,640.306 1319.883,641.898 1320.894,643.49 1321.867,645.081 1322.802,646.673 1323.7,648.265 1324.563,649.857 1325.392,651.449 1326.187,653.041 1326.949,654.632 1327.679,656.224 1328.379,657.816 1329.047,659.408 1329.686,661 1330.295,662.592 1330.876,664.184 1331.428,665.775 1331.952,667.367 1332.449,668.959 1332.918,670.551 1333.361,672.143 1333.778,673.735 1334.169,675.326 1334.533,676.918 1334.873,678.51 1335.187,680.102 1335.476,681.694 1335.741,683.286 1335.98,684.877 1336.196,686.469 1336.387,688.061 1336.554,689.653 1336.696,691.245 1336.815,692.837 1336.91,694.429 1336.981,696.02 1337.029,697.612 1337.053,699.204 1337.053,700.796 1337.029,702.388 1336.981,703.98 1336.91,705.571 1336.815,707.163 1336.696,708.755 1336.554,710.347 1336.387,711.939 1336.196,713.531 1335.98,715.123 1335.741,716.714 1335.476,718.306 1335.187,719.898 1334.873,721.49 1334.533,723.082 1334.169,724.674 1333.778,726.265 1333.361,727.857 1332.918,729.449 1332.449,731.041 1331.952,732.633 1331.428,734.225 1330.876,735.816 1330.295,737.408 1329.686,739 1329.047,740.592 1328.379,742.184 1327.679,743.776 1326.949,745.368 1326.187,746.959 1325.392,748.551 1324.563,750.143 1323.7,751.735 1322.802,753.327 1321.867,754.919 1320.894,756.51 1319.883,758.102 1318.832,759.694 1317.739,761.286 1316.603,762.878 1315.422,764.47 1314.195,766.062 1312.918,767.653 1311.591,769.245 1310.209,770.837 1308.772,772.429 1307.274,774.021 1305.714,775.613 1304.086,777.204 1302.387,778.796 " />
</g>
<g>
<polyline fill="none" stroke="#7f7fff" points="1302.889,621.667 1304.557,623.249 1306.156,624.832 1307.69,626.414 1309.162,627.997 1310.576,629.579 1311.935,631.162 1313.242,632.744 1314.498,634.327 1315.707,635.909 1316.871,637.492 1317.99,639.074 1319.067,640.657 1320.103,642.239 1321.1,643.822 1322.059,645.404 1322.981,646.987 1323.867,648.569 1324.719,650.152 1325.537,651.734 1326.321,653.316 1327.074,654.899 1327.795,656.481 1328.485,658.064 1329.145,659.646 1329.775,661.229 1330.377,662.811 1330.95,664.394 1331.495,665.976 1332.013,667.559 1332.504,669.141 1332.968,670.724 1333.405,672.306 1333.817,673.889 1334.203,675.471 1334.563,677.054 1334.899,678.636 1335.209,680.219 1335.495,681.801 1335.756,683.384 1335.993,684.966 1336.206,686.549 1336.395,688.131 1336.559,689.714 1336.701,691.296 1336.818,692.879 1336.912,694.461 1336.982,696.044 1337.029,697.626 1337.053,699.209 1337.053,700.791 1337.029,702.374 1336.982,703.956 1336.912,705.539 1336.818,707.121 1336.701,708.704 1336.559,710.286 1336.395,711.869 1336.206,713.451 1335.993,715.034 1335.756,716.616 1335.495,718.199 1335.209,719.781 1334.899,721.364 1334.563,722.946 1334.203,724.529 1333.817,726.111 1333.405,727.694 1332.968,729.276 1332.504,730.859 1332.013,732.441 1331.495,734.024 1330.95,735.606 1330.377,737.189 1329.775,738.771 1329.145,740.354 1328.485,741.936 1327.795,743.519 1327.074,745.101 1326.321,746.684 1325.537,748.266 1324.719,749.848 1323.867,751.431 1322.981,753.013 1322.059,754.596 1321.1,756.178 1320.103,757.761 1319.067,759.343 1317.99,760.926 1316.871,762.508 1315.707,764.091 1314.498,765.673 1313.242,767.256 1311.935,768.838 1310.576,770.421 1309.162,772.003 1307.69,773.586 1306.156,775.168 1304.557,776.751 1302.889,778.333 " />
<line x1="1332.72" y1="621.667" x2="1332.72" y2="622.407"  stroke="#7f7fff" />
<line x1="1302.889" y1="621.667" x2="1332.72" y2="621.667"  stroke="#7f7fff" />
<line x1="1332.72" y1="778.333" x2="1332.72" y2="777.593"  stroke="#7f7fff" />
<line x1="1302.889" y1="778.333" x2="1332.72" y2="778.333"  stroke="#7f7fff" />
<polyline fill="none" stroke="#7f7fff" points="1332.72,622.407 1333.177,623.975 1333.623,625.542 1334.059,627.11 1334.486,628.678 1334.902,630.245 1335.309,631.813 1335.706,633.38 1336.093,634.948 1336.47,636.515 1336.838,638.083 1337.196,639.65 1337.544,641.218 1337.882,642.785 1338.211,644.353 1338.531,645.92 1338.841,647.488 1339.142,649.055 1339.433,650.623 1339.715,652.19 1339.987,653.758 1340.25,655.325 1340.504,656.893 1340.748,658.461 1340.983,660.028 1341.209,661.596 1341.426,663.163 1341.634,664.731 1341.832,666.298 1342.021,667.866 1342.201,669.433 1342.372,671.001 1342.534,672.568 1342.687,674.136 1342.831,675.703 1342.965,677.271 1343.091,678.838 1343.208,680.406 1343.315,681.973 1343.414,683.541 1343.503,685.108 1343.584,686.676 1343.656,688.244 1343.718,689.811 1343.772,691.379 1343.817,692.946 1343.853,694.514 1343.879,696.081 1343.897,697.649 1343.906,699.216 1343.906,700.784 1343.897,702.351 1343.879,703.919 1343.853,705.486 1343.817,707.054 1343.772,708.621 1343.718,710.189 1343.656,711.756 1343.584,713.324 1343.503,714.892 1343.414,716.459 1343.315,718.027 1343.208,719.594 1343.091,721.162 1342.965,722.729 1342.831,724.297 1342.687,725.864 1342.534,727.432 1342.372,728.999 1342.201,730.567 1342.021,732.134 1341.832,733.702 1341.634,735.269 1341.426,736.837 1341.209,738.404 1340.983,739.972 1340.748,741.539 1340.504,743.107 1340.25,744.675 1339.987,746.242 1339.715,747.81 1339.433,749.377 1339.142,750.945 1338.841,752.512 1338.531,754.08 1338.211,755.647 1337.882,757.215 1337.544,758.782 1337.196,760.35 1336.838,761.917 1336.47,763.485 1336.093,765.052 1335.706,766.62 1335.309,768.187 1334.902,769.755 1334.486,771.322 1334.059,772.89 1333.623,774.458 1333.177,776.025 1332.72,777.593 " />
</g>
<g>
<polyline fill="none" stroke="#7f7fff" points="1357.047,622.407 1356.53,623.975 1356.026,625.542 1355.533,627.11 1355.051,628.678 1354.581,630.245 1354.122,631.813 1353.674,633.38 1353.238,634.948 1352.813,636.515 1352.399,638.083 1351.996,639.65 1351.604,641.218 1351.223,642.785 1350.853,644.353 1350.493,645.92 1350.145,647.488 1349.807,649.055 1349.48,650.623 1349.163,652.19 1348.857,653.758 1348.562,655.325 1348.277,656.893 1348.003,658.461 1347.739,660.028 1347.485,661.596 1347.242,663.163 1347.01,664.731 1346.787,666.298 1346.575,667.866 1346.373,669.433 1346.182,671.001 1346,672.568 1345.829,674.136 1345.668,675.703 1345.517,677.271 1345.377,678.838 1345.246,680.406 1345.126,681.973 1345.015,683.541 1344.915,685.108 1344.825,686.676 1344.745,688.244 1344.674,689.811 1344.614,691.379 1344.564,692.946 1344.524,694.514 1344.494,696.081 1344.474,697.649 1344.464,699.216 1344.464,700.784 1344.474,702.351 1344.494,703.919 1344.524,705.486 1344.564,707.054 1344.614,708.621 1344.674,710.189 1344.745,711.756 1344.825,713.324 1344.915,714.892 1345.015,716.459 1345.126,718.027 1345.246,719.594 1345.377,721.162 1345.517,722.729 1345.668,724.297 1345.829,725.864 1346,727.432 1346.182,728.999 1346.373,730.567 1346.575,732.134 1346.787,733.702 1347.01,735.269 1347.242,736.837 1347.485,738.404 1347.739,739.972 1348.003,741.539 1348.277,743.107 1348.562,744.675 1348.857,746.242 1349.163,747.81 1349.48,749.377 1349.807,750.945 1350.145,752.512 1350.493,754.08 1350.853,755.647 1351.223,757.215 1351.604,758.782 1351.996,760.35 1352.399,761.917 1352.813,763.485 1353.238,765.052 1353.674,766.62 1354.122,768.187 1354.581,769.755 1355.051,771.322 1355.533,772.89 1356.026,774.458 1356.53,776.025 1357.047,777.593 " />
<line x1="1368.063" y1="622.407" x2="1368.063" y2="625.185"  stroke="#7f7fff" />
<line x1="1357.047" y1="622.407" x2="1368.063" y2="622.407"  stroke="#7f7fff" />
<line x1="1368.063" y1="777.593" x2="1368.063" y2="774.815"  stroke="#7f7fff" />
<line x1="1357.047" y1="777.593" x2="1368.063" y2="777.593"  stroke="#7f7fff" />
<polyline fill="none" stroke="#7f7fff" points="1368.063,625.185 1368.553,626.697 1369.032,628.208 1369.5,629.719 1369.958,631.231 1370.404,632.742 1370.84,634.254 1371.265,635.765 1371.679,637.276 1372.083,638.788 1372.477,640.299 1372.859,641.811 1373.232,643.322 1373.594,644.834 1373.946,646.345 1374.287,647.856 1374.618,649.368 1374.939,650.879 1375.25,652.391 1375.551,653.902 1375.842,655.413 1376.122,656.925 1376.393,658.436 1376.654,659.948 1376.905,661.459 1377.145,662.97 1377.376,664.482 1377.598,665.993 1377.809,667.505 1378.011,669.016 1378.202,670.527 1378.385,672.039 1378.557,673.55 1378.72,675.062 1378.873,676.573 1379.016,678.085 1379.15,679.596 1379.274,681.107 1379.388,682.619 1379.493,684.13 1379.589,685.642 1379.675,687.153 1379.751,688.664 1379.817,690.176 1379.875,691.687 1379.922,693.199 1379.96,694.71 1379.989,696.221 1380.008,697.733 1380.017,699.244 1380.017,700.756 1380.008,702.267 1379.989,703.779 1379.96,705.29 1379.922,706.801 1379.875,708.313 1379.817,709.824 1379.751,711.336 1379.675,712.847 1379.589,714.358 1379.493,715.87 1379.388,717.381 1379.274,718.893 1379.15,720.404 1379.016,721.915 1378.873,723.427 1378.72,724.938 1378.557,726.45 1378.385,727.961 1378.202,729.473 1378.011,730.984 1377.809,732.495 1377.598,734.007 1377.376,735.518 1377.145,737.03 1376.905,738.541 1376.654,740.052 1376.393,741.564 1376.122,743.075 1375.842,744.587 1375.551,746.098 1375.25,747.609 1374.939,749.121 1374.618,750.632 1374.287,752.144 1373.946,753.655 1373.594,755.166 1373.232,756.678 1372.859,758.189 1372.477,759.701 1372.083,761.212 1371.679,762.724 1371.265,764.235 1370.84,765.746 1370.404,767.258 1369.958,768.769 1369.5,770.281 1369.032,771.792 1368.553,773.303 1368.063,774.815 " />
</g>
<g>
<polyline fill="none" stroke="#7f7fff" points="1376.26,625.185 1376.478,626.697 1376.691,628.208 1376.9,629.719 1377.105,631.231 1377.305,632.742 1377.5,634.254 1377.691,635.765 1377.878,637.276 1378.06,638.788 1378.237,640.299 1378.41,641.811 1378.578,643.322 1378.742,644.834 1378.902,646.345 1379.057,647.856 1379.207,649.368 1379.353,650.879 1379.495,652.391 1379.632,653.902 1379.765,655.413 1379.893,656.925 1380.017,658.436 1380.136,659.948 1380.251,661.459 1380.361,662.97 1380.467,664.482 1380.569,665.993 1380.666,667.505 1380.759,669.016 1380.847,670.527 1380.931,672.039 1381.01,673.55 1381.085,675.062 1381.156,676.573 1381.222,678.085 1381.284,679.596 1381.341,681.107 1381.394,682.619 1381.442,684.13 1381.486,685.642 1381.526,687.153 1381.561,688.664 1381.592,690.176 1381.619,691.687 1381.641,693.199 1381.658,694.71 1381.671,696.221 1381.68,697.733 1381.685,699.244 1381.685,700.756 1381.68,702.267 1381.671,703.779 1381.658,705.29 1381.641,706.801 1381.619,708.313 1381.592,709.824 1381.561,711.336 1381.526,712.847 1381.486,714.358 1381.442,715.87 1381.394,717.381 1381.341,718.893 1381.284,720.404 1381.222,721.915 1381.156,723.427 1381.085,724.938 1381.01,726.45 1380.931,727.961 1380.847,729.473 1380.759,730.984 1380.666,732.495 1380.569,734.007 1380.467,735.518 1380.361,737.03 1380.251,738.541 1380.136,740.052 1380.017,741.564 1379.893,743.075 1379.765,744.587 1379.632,746.098 1379.495,747.609 1379.353,749.121 1379.207,750.632 1379.057,752.144 1378.902,753.655 1378.742,755.166 1378.578,756.678 1378.41,758.189 1378.237,759.701 1378.06,761.212 1377.878,762.724 1377.691,764.235 1377.5,765.746 1377.305,767.258 1377.105,768.769 1376.9,770.281 1376.691,771.792 1376.478,773.303 1376.26,774.815 " />
<line x1="1376.26" y1="625.185" x2="1400.84" y2="625.185"  stroke="#7f7fff" />
<line x1="1376.26" y1="774.815" x2="1400.84" y2="774.815"  stroke="#7f7fff" />
<polyline fill="none" stroke="#7f7fff" points="1400.84,625.185 1400.422,626.697 1400.013,628.208 1399.613,629.719 1399.222,631.231 1398.84,632.742 1398.468,634.254 1398.104,635.765 1397.749,637.276 1397.403,638.788 1397.066,640.299 1396.738,641.811 1396.418,643.322 1396.108,644.834 1395.806,646.345 1395.513,647.856 1395.228,649.368 1394.952,650.879 1394.685,652.391 1394.426,653.902 1394.176,655.413 1393.935,656.925 1393.702,658.436 1393.477,659.948 1393.261,661.459 1393.054,662.97 1392.854,664.482 1392.664,665.993 1392.482,667.505 1392.308,669.016 1392.142,670.527 1391.985,672.039 1391.836,673.55 1391.696,675.062 1391.564,676.573 1391.44,678.085 1391.325,679.596 1391.217,681.107 1391.118,682.619 1391.028,684.13 1390.945,685.642 1390.871,687.153 1390.805,688.664 1390.748,690.176 1390.698,691.687 1390.657,693.199 1390.624,694.71 1390.6,696.221 1390.583,697.733 1390.575,699.244 1390.575,700.756 1390.583,702.267 1390.6,703.779 1390.624,705.29 1390.657,706.801 1390.698,708.313 1390.748,709.824 1390.805,711.336 1390.871,712.847 1390.945,714.358 1391.028,715.87 1391.118,717.381 1391.217,718.893 1391.325,720.404 1391.44,721.915 1391.564,723.427 1391.696,724.938 1391.836,726.45 1391.985,727.961 1392.142,729.473 1392.308,730.984 1392.482,732.495 1392.664,734.007 1392.854,735.518 1393.054,737.03 1393.261,738.541 1393.477,740.052 1393.702,741.564 1393.935,743.075 1394.176,744.587 1394.426,746.098 1394.685,747.609 1394.952,749.121 1395.228,750.632 1395.513,752.144 1395.806,753.655 1396.108,755.166 1396.418,756.678 1396.738,758.189 1397.066,759.701 1397.403,761.212 1397.749,762.724 1398.104,764.235 1398.468,765.746 1398.84,767.258 1399.222,768.769 1399.613,770.281 1400.013,771.792 1400.422,773.303 1400.84,774.815 " />
</g>
<g>
<polyline fill="none" stroke="#7f7fff" points="1406.494,626.204 1407.081,627.695 1407.655,629.185 1408.215,630.676 1408.762,632.167 1409.295,633.658 1409.815,635.149 1410.322,636.64 1410.815,638.13 1411.296,639.621 1411.764,641.112 1412.219,642.603 1412.661,644.094 1413.091,645.585 1413.508,647.075 1413.912,648.566 1414.305,650.057 1414.684,651.548 1415.052,653.039 1415.408,654.53 1415.751,656.02 1416.083,657.511 1416.402,659.002 1416.71,660.493 1417.006,661.984 1417.29,663.475 1417.562,664.965 1417.822,666.456 1418.071,667.947 1418.308,669.438 1418.534,670.929 1418.748,672.42 1418.951,673.91 1419.142,675.401 1419.322,676.892 1419.49,678.383 1419.647,679.874 1419.793,681.365 1419.928,682.855 1420.051,684.346 1420.163,685.837 1420.263,687.328 1420.353,688.819 1420.431,690.31 1420.498,691.8 1420.554,693.291 1420.598,694.782 1420.632,696.273 1420.654,697.764 1420.665,699.255 1420.665,700.745 1420.654,702.236 1420.632,703.727 1420.598,705.218 1420.554,706.709 1420.498,708.2 1420.431,709.69 1420.353,711.181 1420.263,712.672 1420.163,714.163 1420.051,715.654 1419.928,717.145 1419.793,718.635 1419.647,720.126 1419.49,721.617 1419.322,723.108 1419.142,724.599 1418.951,726.09 1418.748,727.58 1418.534,729.071 1418.308,730.562 1418.071,732.053 1417.822,733.544 1417.562,735.035 1417.29,736.525 1417.006,738.016 1416.71,739.507 1416.402,740.998 1416.083,742.489 1415.751,743.98 1415.408,745.47 1415.052,746.961 1414.684,748.452 1414.305,749.943 1413.912,751.434 1413.508,752.925 1413.091,754.415 1412.661,755.906 1412.219,757.397 1411.764,758.888 1411.296,760.379 1410.815,761.87 1410.322,763.36 1409.815,764.851 1409.295,766.342 1408.762,767.833 1408.215,769.324 1407.655,770.815 1407.081,772.305 1406.494,773.796 " />
<line x1="1406.494" y1="611.296" x2="1406.494" y2="626.204"  stroke="#7f7fff" />
<line x1="1406.494" y1="611.296" x2="1442.138" y2="611.296"  stroke="#7f7fff" />
<line x1="1406.494" y1="788.704" x2="1406.494" y2="773.796"  stroke="#7f7fff" />
<line x1="1406.494" y1="788.704" x2="1442.138" y2="788.704"  stroke="#7f7fff" />
<polyline fill="none" stroke="#7f7fff" points="1442.138,611.296 1441.517,613.088 1440.911,614.88 1440.319,616.672 1439.74,618.464 1439.176,620.256 1438.625,622.048 1438.088,623.84 1437.565,625.632 1437.054,627.424 1436.558,629.216 1436.075,631.008 1435.604,632.8 1435.148,634.592 1434.704,636.384 1434.273,638.176 1433.855,639.968 1433.451,641.76 1433.059,643.552 1432.68,645.344 1432.313,647.136 1431.96,648.928 1431.619,650.72 1431.29,652.512 1430.974,654.304 1430.671,656.096 1430.38,657.888 1430.101,659.68 1429.835,661.472 1429.582,663.264 1429.34,665.056 1429.111,666.848 1428.894,668.64 1428.689,670.432 1428.497,672.224 1428.316,674.016 1428.148,675.808 1427.992,677.6 1427.848,679.392 1427.716,681.184 1427.596,682.976 1427.488,684.768 1427.392,686.56 1427.308,688.352 1427.237,690.144 1427.177,691.936 1427.129,693.728 1427.093,695.52 1427.069,697.312 1427.057,699.104 1427.057,700.896 1427.069,702.688 1427.093,704.48 1427.129,706.272 1427.177,708.064 1427.237,709.856 1427.308,711.648 1427.392,713.44 1427.488,715.232 1427.596,717.024 1427.716,718.816 1427.848,720.608 1427.992,722.4 1428.148,724.192 1428.316,725.984 1428.497,727.776 1428.689,729.568 1428.894,731.36 1429.111,733.152 1429.34,734.944 1429.582,736.736 1429.835,738.528 1430.101,740.32 1430.38,742.112 1430.671,743.904 1430.974,745.696 1431.29,747.488 1431.619,749.28 1431.96,751.072 1432.313,752.864 1432.68,754.656 1433.059,756.448 1433.451,758.24 1433.855,760.032 1434.273,761.824 1434.704,763.616 1435.148,765.408 1435.604,767.2 1436.075,768.992 1436.558,770.784 1437.054,772.576 1437.565,774.368 1438.088,776.16 1438.625,777.952 1439.176,779.744 1439.74,781.536 1440.319,783.328 1440.911,785.12 1441.517,786.912 1442.138,788.704 " />
</g>
<g>
<polyline fill="none" stroke="#7f7fff" points="1442.217,611.296 1441.597,613.088 1440.991,614.88 1440.399,616.672 1439.822,618.464 1439.258,620.256 1438.707,622.048 1438.171,623.84 1437.648,625.632 1437.138,627.424 1436.642,629.216 1436.159,631.008 1435.69,632.8 1435.233,634.592 1434.79,636.384 1434.359,638.176 1433.942,639.968 1433.538,641.76 1433.146,643.552 1432.767,645.344 1432.401,647.136 1432.048,648.928 1431.707,650.72 1431.379,652.512 1431.063,654.304 1430.76,656.096 1430.47,657.888 1430.191,659.68 1429.926,661.472 1429.672,663.264 1429.431,665.056 1429.202,666.848 1428.985,668.64 1428.78,670.432 1428.588,672.224 1428.408,674.016 1428.24,675.808 1428.084,677.6 1427.94,679.392 1427.808,681.184 1427.688,682.976 1427.58,684.768 1427.485,686.56 1427.401,688.352 1427.329,690.144 1427.269,691.936 1427.221,693.728 1427.186,695.52 1427.162,697.312 1427.15,699.104 1427.15,700.896 1427.162,702.688 1427.186,704.48 1427.221,706.272 1427.269,708.064 1427.329,709.856 1427.401,711.648 1427.485,713.44 1427.58,715.232 1427.688,717.024 1427.808,718.816 1427.94,720.608 1428.084,722.4 1428.24,724.192 1428.408,725.984 1428.588,727.776 1428.78,729.568 1428.985,731.36 1429.202,733.152 1429.431,734.944 1429.672,736.736 1429.926,738.528 1430.191,740.32 1430.47,742.112 1430.76,743.904 1431.063,745.696 1431.379,747.488 1431.707,749.28 1432.048,751.072 1432.401,752.864 1432.767,754.656 1433.146,756.448 1433.538,758.24 1433.942,760.032 1434.359,761.824 1434.79,763.616 1435.233,765.408 1435.69,767.2 1436.159,768.992 1436.642,770.784 1437.138,772.576 1437.648,774.368 1438.171,776.16 1438.707,777.952 1439.258,779.744 1439.822,781.536 1440.399,783.328 1440.991,785.12 1441.597,786.912 1442.217,788.704 " />
<line x1="1442.217" y1="599.63" x2="1442.217" y2="611.296"  stroke="#7f7fff" />
<line x1="1442.217" y1="599.63" x2="1457.544" y2="599.63"  stroke="#7f7fff" />
<line x1="1442.217" y1="800.37" x2="1442.217" y2="788.704"  stroke="#7f7fff" />
<line x1="1442.217" y1="800.37" x2="1457.544" y2="800.37"  stroke="#7f7fff" />
<polyline fill="none" stroke="#7f7fff" points="1457.544,599.63 1459.038,601.657 1460.486,603.685 1461.888,605.713 1463.248,607.74 1464.565,609.768 1465.841,611.796 1467.077,613.823 1468.274,615.851 1469.433,617.879 1470.556,619.906 1471.641,621.934 1472.692,623.962 1473.708,625.99 1474.689,628.017 1475.638,630.045 1476.554,632.073 1477.437,634.1 1478.289,636.128 1479.11,638.156 1479.9,640.183 1480.661,642.211 1481.391,644.239 1482.092,646.266 1482.765,648.294 1483.408,650.322 1484.024,652.349 1484.612,654.377 1485.172,656.405 1485.705,658.432 1486.211,660.46 1486.69,662.488 1487.143,664.516 1487.569,666.543 1487.97,668.571 1488.344,670.599 1488.693,672.626 1489.016,674.654 1489.313,676.682 1489.586,678.709 1489.833,680.737 1490.055,682.765 1490.253,684.792 1490.425,686.82 1490.573,688.848 1490.696,690.875 1490.794,692.903 1490.868,694.931 1490.917,696.958 1490.941,698.986 1490.941,701.014 1490.917,703.042 1490.868,705.069 1490.794,707.097 1490.696,709.125 1490.573,711.152 1490.425,713.18 1490.253,715.208 1490.055,717.235 1489.833,719.263 1489.586,721.291 1489.313,723.318 1489.016,725.346 1488.693,727.374 1488.344,729.401 1487.97,731.429 1487.569,733.457 1487.143,735.484 1486.69,737.512 1486.211,739.54 1485.705,741.568 1485.172,743.595 1484.612,745.623 1484.024,747.651 1483.408,749.678 1482.765,751.706 1482.092,753.734 1481.391,755.761 1480.661,757.789 1479.9,759.817 1479.11,761.844 1478.289,763.872 1477.437,765.9 1476.554,767.927 1475.638,769.955 1474.689,771.983 1473.708,774.01 1472.692,776.038 1471.641,778.066 1470.556,780.094 1469.433,782.121 1468.274,784.149 1467.077,786.177 1465.841,788.204 1464.565,790.232 1463.248,792.26 1461.888,794.287 1460.486,796.315 1459.038,798.343 1457.544,800.37 " />
</g>
<g>
<polyline fill="none" stroke="#7f7fff" points="1485.93,586.574 1486.224,588.866 1486.512,591.157 1486.794,593.448 1487.07,595.74 1487.34,598.031 1487.604,600.323 1487.862,602.614 1488.114,604.906 1488.359,607.197 1488.599,609.488 1488.833,611.78 1489.06,614.071 1489.282,616.363 1489.497,618.654 1489.706,620.946 1489.91,623.237 1490.107,625.528 1490.298,627.82 1490.484,630.111 1490.663,632.403 1490.836,634.694 1491.004,636.986 1491.165,639.277 1491.32,641.568 1491.469,643.86 1491.613,646.151 1491.75,648.443 1491.881,650.734 1492.006,653.026 1492.126,655.317 1492.239,657.608 1492.346,659.9 1492.448,662.191 1492.543,664.483 1492.633,666.774 1492.716,669.066 1492.794,671.357 1492.865,673.649 1492.931,675.94 1492.99,678.231 1493.044,680.523 1493.092,682.814 1493.133,685.106 1493.169,687.397 1493.199,689.689 1493.223,691.98 1493.241,694.271 1493.253,696.563 1493.259,698.854 1493.259,701.146 1493.253,703.437 1493.241,705.729 1493.223,708.02 1493.199,710.311 1493.169,712.603 1493.133,714.894 1493.092,717.186 1493.044,719.477 1492.99,721.769 1492.931,724.06 1492.865,726.351 1492.794,728.643 1492.716,730.934 1492.633,733.226 1492.543,735.517 1492.448,737.809 1492.346,740.1 1492.239,742.392 1492.126,744.683 1492.006,746.974 1491.881,749.266 1491.75,751.557 1491.613,753.849 1491.469,756.14 1491.32,758.432 1491.165,760.723 1491.004,763.014 1490.836,765.306 1490.663,767.597 1490.484,769.889 1490.298,772.18 1490.107,774.472 1489.91,776.763 1489.706,779.054 1489.497,781.346 1489.282,783.637 1489.06,785.929 1488.833,788.22 1488.599,790.512 1488.359,792.803 1488.114,795.094 1487.862,797.386 1487.604,799.677 1487.34,801.969 1487.07,804.26 1486.794,806.552 1486.512,808.843 1486.224,811.134 1485.93,813.426 " />
<line x1="1485.93" y1="580.37" x2="1485.93" y2="586.574"  stroke="#7f7fff" />
<line x1="1485.93" y1="580.37" x2="1495.401" y2="580.37"  stroke="#7f7fff" />
<line x1="1485.93" y1="819.63" x2="1485.93" y2="813.426"  stroke="#7f7fff" />
<line x1="1485.93" y1="819.63" x2="1495.401" y2="819.63"  stroke="#7f7fff" />
<polyline fill="none" stroke="#7f7fff" points="1495.401,580.37 1496.473,582.787 1497.52,585.204 1498.541,587.621 1499.536,590.037 1500.506,592.454 1501.451,594.871 1502.372,597.288 1503.268,599.704 1504.14,602.121 1504.988,604.538 1505.813,606.955 1506.614,609.371 1507.391,611.788 1508.146,614.205 1508.877,616.622 1509.586,619.039 1510.273,621.455 1510.937,623.872 1511.578,626.289 1512.198,628.706 1512.796,631.122 1513.371,633.539 1513.926,635.956 1514.458,638.373 1514.97,640.789 1515.459,643.206 1515.928,645.623 1516.376,648.04 1516.802,650.456 1517.208,652.873 1517.593,655.29 1517.957,657.707 1518.301,660.123 1518.624,662.54 1518.926,664.957 1519.208,667.374 1519.47,669.79 1519.711,672.207 1519.932,674.624 1520.133,677.041 1520.313,679.458 1520.474,681.874 1520.614,684.291 1520.734,686.708 1520.834,689.125 1520.914,691.541 1520.975,693.958 1521.015,696.375 1521.035,698.792 1521.035,701.208 1521.015,703.625 1520.975,706.042 1520.914,708.459 1520.834,710.875 1520.734,713.292 1520.614,715.709 1520.474,718.126 1520.313,720.542 1520.133,722.959 1519.932,725.376 1519.711,727.793 1519.47,730.21 1519.208,732.626 1518.926,735.043 1518.624,737.46 1518.301,739.877 1517.957,742.293 1517.593,744.71 1517.208,747.127 1516.802,749.544 1516.376,751.96 1515.928,754.377 1515.459,756.794 1514.97,759.211 1514.458,761.627 1513.926,764.044 1513.371,766.461 1512.796,768.878 1512.198,771.294 1511.578,773.711 1510.937,776.128 1510.273,778.545 1509.586,780.961 1508.877,783.378 1508.146,785.795 1507.391,788.212 1506.614,790.629 1505.813,793.045 1504.988,795.462 1504.14,797.879 1503.268,800.296 1502.372,802.712 1501.451,805.129 1500.506,807.546 1499.536,809.963 1498.541,812.379 1497.52,814.796 1496.473,817.213 1495.401,819.63 " />
</g>
</g>
<g><title>element</title>
<polyline fill="none" stroke="#7f7fff" points="1950.944,144.444 1950.944,155.668 1950.944,166.891 1950.944,178.114 1950.944,189.338 1950.944,200.561 1950.944,211.785 1950.944,223.008 1950.944,234.231 1950.944,245.455 1950.944,256.678 1950.944,267.901 1950.944,279.125 1950.944,290.348 1950.944,301.571 1950.944,312.795 1950.944,324.018 1950.944,335.241 1950.944,346.465 1950.944,357.688 1950.944,368.911 1950.944,380.135 1950.944,391.358 1950.944,402.581 1950.944,413.805 1950.944,425.028 1950.944,436.251 1950.944,447.475 1950.944,458.698 1950.944,469.921 1950.944,481.145 1950.944,492.368 1950.944,503.591 1950.944,514.815 1950.944,526.038 1950.944,537.262 1950.944,548.485 1950.944,559.708 1950.944,570.932 1950.944,582.155 1950.944,593.378 1950.944,604.602 1950.944,615.825 1950.944,627.048 1950.944,638.272 1950.944,649.495 1950.944,660.718 1950.944,671.942 1950.944,683.165 1950.944,694.388 1950.944,705.612 1950.944,716.835 1950.944,728.058 1950.944,739.282 1950.944,750.505 1950.944,761.728 1950.944,772.952 1950.944,784.175 1950.944,795.398 1950.944,806.622 1950.944,817.845 1950.944,829.068 1950.944,840.292 1950.944,851.515 1950.944,862.738 1950.944,873.962 1950.944,885.185 1950.944,896.409 1950.944,907.632 1950.944,918.855 1950.944,930.079 1950.944,941.302 1950.944,952.525 1950.944,963.749 1950.944,974.972 1950.944,986.195 1950.944,997.419 1950.944,1008.642 1950.944,1019.865 1950.944,1031.089 1950.944,1042.312 1950.944,1053.535 1950.944,1064.759 1950.944,1075.982 1950.944,1087.205 1950.944,1098.429 1950.944,1109.652 1950.944,1120.875 1950.944,1132.099 1950.944,1143.322 1950.944,1154.545 1950.944,1165.769 1950.944,1176.992 1950.944,1188.215 1950.944,1199.439 1950.944,1210.662 1950.944,1221.886 1950.944,1233.109 1950.944,1244.332 1950.944,1255.556 " />
</g>
</svg>
