<?xml version="1.0" standalone="no"?>
<svg width="2400px" height="1400px" version="1.1" xmlns="http://www.w3.org/2000/svg" xmlns:xlink="http://www.w3.org/1999/xlink">
<rect x="0" y="0" width="2400" height="1400"  fill="#ffffff" />
<defs>
<g id="dot">
<line x1="1" y1="1" x2="0" y2="0"  />
</g>
<g id="cross">
<line x1="-3" y1="0" x2="3" y2="0"  />
<line x1="0" y1="-3" x2="0" y2="3"  />
</g>
<g id="square">
<line x1="-3" y1="-3" x2="-3" y2="3"  />
<line x1="-3" y1="3" x2="3" y2="3"  />
<line x1="3" y1="3" x2="3" y2="-3"  />
<line x1="3" y1="-3" x2="-3" y2="-3"  />
</g>
<g id="round">
<ellipse cx="0" cy="0" rx="3" ry="3"  fill="none" /></g>
<g id="triangle">
<line x1="0" y1="-3" x2="-3" y2="3"  />
<line x1="-3" y1="3" x2="3" y2="3"  />
<line x1="0" y1="-3" x2="3" y2="3"  />
</g>
</defs>
<line x1="466.178" y1="700" x2="1933.822" y2="700"  stroke="#7f7f7f" />
<g><title>element</title>
<g>
<line x1="1099.186" y1="611.328" x2="1099.186" y2="522.657"  stroke="#7f7fff" />
<line x1="1099.186" y1="788.672" x2="1099.186" y2="877.343"  stroke="#7f7fff" />
</g>
<g>
<line x1="1270.051" y1="624.602" x2="1270.051" y2="549.204"  stroke="#7f7fff" />
<line x1="1270.051" y1="775.398" x2="1270.051" y2="850.796"  stroke="#7f7fff" />
</g>
<g>
<polyline fill="none" stroke="#7f7fff" points="594.068,383.858 588.008,390.245 582.177,396.632 576.563,403.018 571.156,409.405 565.946,415.792 560.925,422.178 556.085,428.565 551.418,434.952 546.919,441.338 542.581,447.725 538.399,454.112 534.367,460.499 530.482,466.885 526.739,473.272 523.133,479.659 519.661,486.045 516.32,492.432 513.106,498.819 510.017,505.206 507.049,511.592 504.201,517.979 501.469,524.366 498.851,530.752 496.345,537.139 493.95,543.526 491.663,549.912 489.483,556.299 487.408,562.686 485.436,569.073 483.566,575.459 481.798,581.846 480.129,588.233 478.558,594.619 477.085,601.006 475.709,607.393 474.428,613.779 473.241,620.166 472.149,626.553 471.15,632.94 470.244,639.326 469.43,645.713 468.708,652.1 468.077,658.486 467.537,664.873 467.087,671.26 466.728,677.647 466.458,684.033 466.279,690.42 466.189,696.807 466.189,703.193 466.279,709.58 466.458,715.967 466.728,722.353 467.087,728.74 467.537,735.127 468.077,741.514 468.708,747.9 469.43,754.287 470.244,760.674 471.15,767.06 472.149,773.447 473.241,779.834 474.428,786.221 475.709,792.607 477.085,798.994 478.558,805.381 480.129,811.767 481.798,818.154 483.566,824.541 485.436,830.927 487.408,837.314 489.483,843.701 491.663,850.088 493.95,856.474 496.345,862.861 498.851,869.248 501.469,875.634 504.201,882.021 507.049,888.408 510.017,894.794 513.106,901.181 516.32,907.568 519.661,913.955 523.133,920.341 526.739,926.728 530.482,933.115 534.367,939.501 538.399,945.888 542.581,952.275 546.919,958.662 551.418,965.048 556.085,971.435 560.925,977.822 565.946,984.208 571.156,990.595 576.563,996.982 582.177,1003.368 588.008,1009.755 594.068,1016.142 " />
<line x1="602.922" y1="383.858" x2="602.922" y2="394.625"  stroke="#7f7fff" />
<line x1="594.068" y1="383.858" x2="602.922" y2="383.858"  stroke="#7f7fff" />
<line x1="602.922" y1="1016.142" x2="602.922" y2="1005.375"  stroke="#7f7fff" />
<line x1="594.068" y1="1016.142" x2="602.922" y2="1016.142"  stroke="#7f7fff" />
<polyline fill="none" stroke="#7f7fff" points="602.922,394.625 600.518,400.795 598.17,406.964 595.878,413.133 593.642,419.302 591.46,425.471 589.332,431.641 587.258,437.81 585.238,443.979 583.271,450.148 581.356,456.317 579.494,462.486 577.684,468.656 575.925,474.825 574.218,480.994 572.561,487.163 570.955,493.332 569.399,499.502 567.893,505.671 566.437,511.84 565.031,518.009 563.673,524.178 562.365,530.347 561.105,536.517 559.894,542.686 558.731,548.855 557.616,555.024 556.549,561.193 555.53,567.363 554.558,573.532 553.634,579.701 552.756,585.87 551.926,592.039 551.143,598.208 550.406,604.378 549.716,610.547 549.073,616.716 548.476,622.885 547.925,629.054 547.421,635.224 546.962,641.393 546.55,647.562 546.183,653.731 545.863,659.9 545.589,666.069 545.36,672.239 545.177,678.408 545.04,684.577 544.948,690.746 544.903,696.915 544.903,703.085 544.948,709.254 545.04,715.423 545.177,721.592 545.36,727.761 545.589,733.931 545.863,740.1 546.183,746.269 546.55,752.438 546.962,758.607 547.421,764.776 547.925,770.946 548.476,777.115 549.073,783.284 549.716,789.453 550.406,795.622 551.143,801.792 551.926,807.961 552.756,814.13 553.634,820.299 554.558,826.468 555.53,832.637 556.549,838.807 557.616,844.976 558.731,851.145 559.894,857.314 561.105,863.483 562.365,869.653 563.673,875.822 565.031,881.991 566.437,888.16 567.893,894.329 569.399,900.498 570.955,906.668 572.561,912.837 574.218,919.006 575.925,925.175 577.684,931.344 579.494,937.514 581.356,943.683 583.271,949.852 585.238,956.021 587.258,962.19 589.332,968.359 591.46,974.529 593.642,980.698 595.878,986.867 598.17,993.036 600.518,999.205 602.922,1005.375 " />
</g>
<g>
<polyline fill="none" stroke="#7f7fff" points="638.508,487.188 633.951,491.487 629.586,495.786 625.4,500.086 621.382,504.385 617.523,508.684 613.815,512.983 610.251,517.282 606.823,521.582 603.525,525.881 600.353,530.18 597.301,534.479 594.364,538.779 591.539,543.078 588.821,547.377 586.207,551.676 583.694,555.976 581.278,560.275 578.958,564.574 576.73,568.873 574.592,573.173 572.541,577.472 570.577,581.771 568.696,586.07 566.898,590.369 565.18,594.669 563.541,598.968 561.979,603.267 560.494,607.566 559.083,611.866 557.747,616.165 556.483,620.464 555.291,624.763 554.17,629.063 553.119,633.362 552.137,637.661 551.224,641.96 550.378,646.26 549.6,650.559 548.889,654.858 548.243,659.157 547.664,663.456 547.15,667.756 546.7,672.055 546.316,676.354 545.996,680.653 545.74,684.953 545.549,689.252 545.421,693.551 545.357,697.85 545.357,702.15 545.421,706.449 545.549,710.748 545.74,715.047 545.996,719.347 546.316,723.646 546.7,727.945 547.15,732.244 547.664,736.544 548.243,740.843 548.889,745.142 549.6,749.441 550.378,753.74 551.224,758.04 552.137,762.339 553.119,766.638 554.17,770.937 555.291,775.237 556.483,779.536 557.747,783.835 559.083,788.134 560.494,792.434 561.979,796.733 563.541,801.032 565.18,805.331 566.898,809.631 568.696,813.93 570.577,818.229 572.541,822.528 574.592,826.827 576.73,831.127 578.958,835.426 581.278,839.725 583.694,844.024 586.207,848.324 588.821,852.623 591.539,856.922 594.364,861.221 597.301,865.521 600.353,869.82 603.525,874.119 606.823,878.418 610.251,882.718 613.815,887.017 617.523,891.316 621.382,895.615 625.4,899.914 629.586,904.214 633.951,908.513 638.508,912.812 " />
<line x1="671.482" y1="487.188" x2="671.482" y2="539.034"  stroke="#7f7fff" />
<line x1="638.508" y1="487.188" x2="671.482" y2="487.188"  stroke="#7f7fff" />
<line x1="671.482" y1="912.812" x2="671.482" y2="860.966"  stroke="#7f7fff" />
<line x1="638.508" y1="912.812" x2="671.482" y2="912.812"  stroke="#7f7fff" />
<polyline fill="none" stroke="#7f7fff" points="671.482,539.034 662.34,542.286 654.548,545.537 647.69,548.789 641.531,552.041 635.923,555.293 630.767,558.545 625.991,561.797 621.542,565.048 617.378,568.3 613.468,571.552 609.784,574.804 606.307,578.056 603.017,581.308 599.9,584.559 596.943,587.811 594.135,591.063 591.467,594.315 588.93,597.567 586.517,600.819 584.222,604.071 582.039,607.322 579.962,610.574 577.988,613.826 576.111,617.078 574.33,620.33 572.639,623.582 571.036,626.833 569.519,630.085 568.084,633.337 566.73,636.589 565.454,639.841 564.255,643.093 563.131,646.345 562.08,649.596 561.101,652.848 560.192,656.1 559.353,659.352 558.582,662.604 557.879,665.856 557.242,669.107 556.671,672.359 556.164,675.611 555.723,678.863 555.345,682.115 555.031,685.367 554.781,688.619 554.593,691.87 554.468,695.122 554.405,698.374 554.405,701.626 554.468,704.878 554.593,708.13 554.781,711.381 555.031,714.633 555.345,717.885 555.723,721.137 556.164,724.389 556.671,727.641 557.242,730.893 557.879,734.144 558.582,737.396 559.353,740.648 560.192,743.9 561.101,747.152 562.08,750.404 563.131,753.655 564.255,756.907 565.454,760.159 566.73,763.411 568.084,766.663 569.519,769.915 571.036,773.167 572.639,776.418 574.33,779.67 576.111,782.922 577.988,786.174 579.962,789.426 582.039,792.678 584.222,795.929 586.517,799.181 588.93,802.433 591.467,805.685 594.135,808.937 596.943,812.189 599.9,815.441 603.017,818.692 606.307,821.944 609.784,825.196 613.468,828.448 617.378,831.7 621.542,834.952 625.991,838.203 630.767,841.455 635.923,844.707 641.531,847.959 647.69,851.211 654.548,854.463 662.34,857.714 671.482,860.966 " />
</g>
<g>
<polyline fill="none" stroke="#7f7fff" points="675.556,541.658 674.486,544.856 673.44,548.055 672.418,551.254 671.42,554.453 670.446,557.652 669.495,560.851 668.568,564.049 667.664,567.248 666.783,570.447 665.925,573.646 665.09,576.845 664.278,580.044 663.489,583.242 662.722,586.441 661.978,589.64 661.256,592.839 660.556,596.038 659.879,599.237 659.223,602.436 658.59,605.634 657.978,608.833 657.388,612.032 656.82,615.231 656.274,618.43 655.749,621.629 655.246,624.827 654.764,628.026 654.304,631.225 653.865,634.424 653.447,637.623 653.051,640.822 652.675,644.02 652.321,647.219 651.988,650.418 651.676,653.617 651.384,656.816 651.114,660.015 650.865,663.213 650.636,666.412 650.429,669.611 650.242,672.81 650.076,676.009 649.931,679.208 649.807,682.406 649.703,685.605 649.62,688.804 649.558,692.003 649.517,695.202 649.496,698.401 649.496,701.599 649.517,704.798 649.558,707.997 649.62,711.196 649.703,714.395 649.807,717.594 649.931,720.792 650.076,723.991 650.242,727.19 650.429,730.389 650.636,733.588 650.865,736.787 651.114,739.985 651.384,743.184 651.676,746.383 651.988,749.582 652.321,752.781 652.675,755.98 653.051,759.178 653.447,762.377 653.865,765.576 654.304,768.775 654.764,771.974 655.246,775.173 655.749,778.371 656.274,781.57 656.82,784.769 657.388,787.968 657.978,791.167 658.59,794.366 659.223,797.564 659.879,800.763 660.556,803.962 661.256,807.161 661.978,810.36 662.722,813.559 663.489,816.758 664.278,819.956 665.09,823.155 665.925,826.354 666.783,829.553 667.664,832.752 668.568,835.951 669.495,839.149 670.446,842.348 671.42,845.547 672.418,848.746 673.44,851.945 674.486,855.144 675.556,858.342 " />
<line x1="717.635" y1="541.658" x2="717.635" y2="563.283"  stroke="#7f7fff" />
<line x1="675.556" y1="541.658" x2="717.635" y2="541.658"  stroke="#7f7fff" />
<line x1="717.635" y1="858.342" x2="717.635" y2="836.717"  stroke="#7f7fff" />
<line x1="675.556" y1="858.342" x2="717.635" y2="858.342"  stroke="#7f7fff" />
<polyline fill="none" stroke="#7f7fff" points="717.635,563.283 715.062,566.045 712.584,568.807 710.197,571.569 707.897,574.331 705.68,577.092 703.542,579.854 701.481,582.616 699.492,585.378 697.574,588.14 695.725,590.902 693.941,593.664 692.221,596.426 690.563,599.188 688.965,601.95 687.425,604.712 685.942,607.474 684.515,610.236 683.142,612.998 681.822,615.76 680.554,618.522 679.336,621.284 678.168,624.046 677.048,626.808 675.977,629.57 674.952,632.332 673.974,635.094 673.041,637.856 672.154,640.618 671.31,643.38 670.51,646.142 669.753,648.904 669.039,651.666 668.366,654.428 667.736,657.19 667.146,659.951 666.598,662.713 666.09,665.475 665.623,668.237 665.195,670.999 664.807,673.761 664.458,676.523 664.149,679.285 663.879,682.047 663.647,684.809 663.455,687.571 663.301,690.333 663.186,693.095 663.109,695.857 663.07,698.619 663.07,701.381 663.109,704.143 663.186,706.905 663.301,709.667 663.455,712.429 663.647,715.191 663.879,717.953 664.149,720.715 664.458,723.477 664.807,726.239 665.195,729.001 665.623,731.763 666.09,734.525 666.598,737.287 667.146,740.049 667.736,742.81 668.366,745.572 669.039,748.334 669.753,751.096 670.51,753.858 671.31,756.62 672.154,759.382 673.041,762.144 673.974,764.906 674.952,767.668 675.977,770.43 677.048,773.192 678.168,775.954 679.336,778.716 680.554,781.478 681.822,784.24 683.142,787.002 684.515,789.764 685.942,792.526 687.425,795.288 688.965,798.05 690.563,800.812 692.221,803.574 693.941,806.336 695.725,809.098 697.574,811.86 699.492,814.622 701.481,817.384 703.542,820.146 705.68,822.908 707.897,825.669 710.197,828.431 712.584,831.193 715.062,833.955 717.635,836.717 " />
</g>
<g>
<polyline fill="none" stroke="#7f7fff" points="722.983,565.997 722.333,568.704 721.697,571.411 721.074,574.118 720.466,576.826 719.871,579.533 719.291,582.24 718.724,584.947 718.171,587.654 717.631,590.361 717.106,593.068 716.594,595.776 716.095,598.483 715.61,601.19 715.138,603.897 714.68,606.604 714.236,609.311 713.805,612.018 713.387,614.725 712.982,617.433 712.591,620.14 712.214,622.847 711.849,625.554 711.498,628.261 711.16,630.968 710.835,633.675 710.523,636.382 710.224,639.09 709.939,641.797 709.667,644.504 709.407,647.211 709.161,649.918 708.928,652.625 708.708,655.332 708.501,658.039 708.307,660.747 708.126,663.454 707.958,666.161 707.803,668.868 707.661,671.575 707.532,674.282 707.415,676.989 707.312,679.697 707.222,682.404 707.144,685.111 707.08,687.818 707.028,690.525 706.989,693.232 706.963,695.939 706.951,698.646 706.951,701.354 706.963,704.061 706.989,706.768 707.028,709.475 707.08,712.182 707.144,714.889 707.222,717.596 707.312,720.303 707.415,723.011 707.532,725.718 707.661,728.425 707.803,731.132 707.958,733.839 708.126,736.546 708.307,739.253 708.501,741.961 708.708,744.668 708.928,747.375 709.161,750.082 709.407,752.789 709.667,755.496 709.939,758.203 710.224,760.91 710.523,763.618 710.835,766.325 711.16,769.032 711.498,771.739 711.849,774.446 712.214,777.153 712.591,779.86 712.982,782.567 713.387,785.275 713.805,787.982 714.236,790.689 714.68,793.396 715.138,796.103 715.61,798.81 716.095,801.517 716.594,804.224 717.106,806.932 717.631,809.639 718.171,812.346 718.724,815.053 719.291,817.76 719.871,820.467 720.466,823.174 721.074,825.882 721.697,828.589 722.333,831.296 722.983,834.003 " />
<line x1="759.871" y1="565.997" x2="759.871" y2="577.669"  stroke="#7f7fff" />
<line x1="722.983" y1="565.997" x2="759.871" y2="565.997"  stroke="#7f7fff" />
<line x1="759.871" y1="834.003" x2="759.871" y2="822.331"  stroke="#7f7fff" />
<line x1="722.983" y1="834.003" x2="759.871" y2="834.003"  stroke="#7f7fff" />
<polyline fill="none" stroke="#7f7fff" points="759.871,577.669 758.124,580.141 756.43,582.612 754.787,585.083 753.194,587.555 751.65,590.026 750.152,592.497 748.701,594.969 747.294,597.44 745.931,599.911 744.611,602.382 743.333,604.854 742.096,607.325 740.9,609.796 739.743,612.268 738.624,614.739 737.544,617.21 736.502,619.682 735.496,622.153 734.527,624.624 733.594,627.096 732.695,629.567 731.832,632.038 731.003,634.51 730.208,636.981 729.447,639.452 728.718,641.924 728.023,644.395 727.36,646.866 726.729,649.338 726.13,651.809 725.563,654.28 725.027,656.752 724.521,659.223 724.047,661.694 723.604,664.166 723.191,666.637 722.808,669.108 722.455,671.58 722.132,674.051 721.839,676.522 721.575,678.994 721.341,681.465 721.137,683.936 720.962,686.408 720.816,688.879 720.7,691.35 720.612,693.822 720.554,696.293 720.525,698.764 720.525,701.236 720.554,703.707 720.612,706.178 720.7,708.65 720.816,711.121 720.962,713.592 721.137,716.064 721.341,718.535 721.575,721.006 721.839,723.478 722.132,725.949 722.455,728.42 722.808,730.892 723.191,733.363 723.604,735.834 724.047,738.306 724.521,740.777 725.027,743.248 725.563,745.72 726.13,748.191 726.729,750.662 727.36,753.134 728.023,755.605 728.718,758.076 729.447,760.548 730.208,763.019 731.003,765.49 731.832,767.962 732.695,770.433 733.594,772.904 734.527,775.376 735.496,777.847 736.502,780.318 737.544,782.79 738.624,785.261 739.743,787.732 740.9,790.204 742.096,792.675 743.333,795.146 744.611,797.618 745.931,800.089 747.294,802.56 748.701,805.031 750.152,807.503 751.65,809.974 753.194,812.445 754.787,814.917 756.43,817.388 758.124,819.859 759.871,822.331 " />
</g>
<g>
<polyline fill="none" stroke="#7f7fff" points="764.538,577.941 764.725,580.406 764.908,582.872 765.087,585.338 765.262,587.804 765.433,590.27 765.601,592.736 765.765,595.202 765.925,597.667 766.081,600.133 766.233,602.599 766.382,605.065 766.526,607.531 766.667,609.997 766.804,612.462 766.937,614.928 767.067,617.394 767.192,619.86 767.314,622.326 767.432,624.792 767.546,627.258 767.656,629.723 767.763,632.189 767.865,634.655 767.964,637.121 768.059,639.587 768.151,642.053 768.238,644.518 768.322,646.984 768.402,649.45 768.478,651.916 768.55,654.382 768.618,656.848 768.683,659.314 768.744,661.779 768.801,664.245 768.854,666.711 768.903,669.177 768.949,671.643 768.991,674.109 769.029,676.574 769.063,679.04 769.093,681.506 769.12,683.972 769.143,686.438 769.162,688.904 769.177,691.37 769.188,693.835 769.196,696.301 769.2,698.767 769.2,701.233 769.196,703.699 769.188,706.165 769.177,708.63 769.162,711.096 769.143,713.562 769.12,716.028 769.093,718.494 769.063,720.96 769.029,723.426 768.991,725.891 768.949,728.357 768.903,730.823 768.854,733.289 768.801,735.755 768.744,738.221 768.683,740.686 768.618,743.152 768.55,745.618 768.478,748.084 768.402,750.55 768.322,753.016 768.238,755.482 768.151,757.947 768.059,760.413 767.964,762.879 767.865,765.345 767.763,767.811 767.656,770.277 767.546,772.742 767.432,775.208 767.314,777.674 767.192,780.14 767.067,782.606 766.937,785.072 766.804,787.538 766.667,790.003 766.526,792.469 766.382,794.935 766.233,797.401 766.081,799.867 765.925,802.333 765.765,804.798 765.601,807.264 765.433,809.73 765.262,812.196 765.087,814.662 764.908,817.128 764.725,819.594 764.538,822.059 " />
<line x1="764.538" y1="577.941" x2="830.51" y2="577.941"  stroke="#7f7fff" />
<line x1="764.538" y1="822.059" x2="830.51" y2="822.059"  stroke="#7f7fff" />
<polyline fill="none" stroke="#7f7fff" points="830.51,577.941 829.524,580.406 828.561,582.872 827.621,585.338 826.704,587.804 825.81,590.27 824.938,592.736 824.088,595.202 823.26,597.667 822.454,600.133 821.67,602.599 820.907,605.065 820.165,607.531 819.445,609.997 818.746,612.462 818.067,614.928 817.41,617.394 816.773,619.86 816.157,622.326 815.561,624.792 814.985,627.258 814.429,629.723 813.894,632.189 813.379,634.655 812.883,637.121 812.407,639.587 811.951,642.053 811.515,644.518 811.098,646.984 810.7,649.45 810.322,651.916 809.963,654.382 809.624,656.848 809.304,659.314 809.002,661.779 808.72,664.245 808.457,666.711 808.213,669.177 807.988,671.643 807.782,674.109 807.594,676.574 807.426,679.04 807.276,681.506 807.145,683.972 807.033,686.438 806.939,688.904 806.864,691.37 806.808,693.835 806.771,696.301 806.752,698.767 806.752,701.233 806.771,703.699 806.808,706.165 806.864,708.63 806.939,711.096 807.033,713.562 807.145,716.028 807.276,718.494 807.426,720.96 807.594,723.426 807.782,725.891 807.988,728.357 808.213,730.823 808.457,733.289 808.72,735.755 809.002,738.221 809.304,740.686 809.624,743.152 809.963,745.618 810.322,748.084 810.7,750.55 811.098,753.016 811.515,755.482 811.951,757.947 812.407,760.413 812.883,762.879 813.379,765.345 813.894,767.811 814.429,770.277 814.985,772.742 815.561,775.208 816.157,777.674 816.773,780.14 817.41,782.606 818.067,785.072 818.746,787.538 819.445,790.003 820.165,792.469 820.907,794.935 821.67,797.401 822.454,799.867 823.26,802.333 824.088,804.798 824.938,807.264 825.81,809.73 826.704,812.196 827.621,814.662 828.561,817.128 829.524,819.594 830.51,822.059 " />
</g>
<g>
<polyline fill="none" stroke="#7f7fff" points="832.785,576.764 832.437,579.254 832.096,581.744 831.762,584.233 831.436,586.723 831.117,589.212 830.805,591.702 830.5,594.192 830.202,596.681 829.912,599.171 829.628,601.66 829.352,604.15 829.083,606.64 828.822,609.129 828.567,611.619 828.32,614.109 828.079,616.598 827.846,619.088 827.62,621.577 827.401,624.067 827.189,626.557 826.984,629.046 826.787,631.536 826.596,634.025 826.413,636.515 826.237,639.005 826.067,641.494 825.905,643.984 825.75,646.473 825.602,648.963 825.461,651.453 825.327,653.942 825.2,656.432 825.081,658.921 824.968,661.411 824.862,663.901 824.764,666.39 824.672,668.88 824.588,671.37 824.51,673.859 824.44,676.349 824.377,678.838 824.32,681.328 824.271,683.818 824.229,686.307 824.194,688.797 824.165,691.286 824.144,693.776 824.13,696.266 824.123,698.755 824.123,701.245 824.13,703.734 824.144,706.224 824.165,708.714 824.194,711.203 824.229,713.693 824.271,716.182 824.32,718.672 824.377,721.162 824.44,723.651 824.51,726.141 824.588,728.63 824.672,731.12 824.764,733.61 824.862,736.099 824.968,738.589 825.081,741.079 825.2,743.568 825.327,746.058 825.461,748.547 825.602,751.037 825.75,753.527 825.905,756.016 826.067,758.506 826.237,760.995 826.413,763.485 826.596,765.975 826.787,768.464 826.984,770.954 827.189,773.443 827.401,775.933 827.62,778.423 827.846,780.912 828.079,783.402 828.32,785.891 828.567,788.381 828.822,790.871 829.083,793.36 829.352,795.85 829.628,798.34 829.912,800.829 830.202,803.319 830.5,805.808 830.805,808.298 831.117,810.788 831.436,813.277 831.762,815.767 832.096,818.256 832.437,820.746 832.785,823.236 " />
<line x1="832.785" y1="576.764" x2="849.449" y2="576.764"  stroke="#7f7fff" />
<line x1="832.785" y1="823.236" x2="849.449" y2="823.236"  stroke="#7f7fff" />
<polyline fill="none" stroke="#7f7fff" points="849.449,576.764 849.887,579.254 850.315,581.744 850.735,584.233 851.145,586.723 851.546,589.212 851.938,591.702 852.321,594.192 852.695,596.681 853.06,599.171 853.415,601.66 853.762,604.15 854.099,606.64 854.428,609.129 854.747,611.619 855.058,614.109 855.359,616.598 855.651,619.088 855.935,621.577 856.209,624.067 856.475,626.557 856.731,629.046 856.979,631.536 857.218,634.025 857.448,636.515 857.669,639.005 857.88,641.494 858.084,643.984 858.278,646.473 858.463,648.963 858.64,651.453 858.807,653.942 858.966,656.432 859.116,658.921 859.257,661.411 859.389,663.901 859.512,666.39 859.627,668.88 859.733,671.37 859.83,673.859 859.918,676.349 859.997,678.838 860.067,681.328 860.129,683.818 860.182,686.307 860.226,688.797 860.261,691.286 860.287,693.776 860.305,696.266 860.314,698.755 860.314,701.245 860.305,703.734 860.287,706.224 860.261,708.714 860.226,711.203 860.182,713.693 860.129,716.182 860.067,718.672 859.997,721.162 859.918,723.651 859.83,726.141 859.733,728.63 859.627,731.12 859.512,733.61 859.389,736.099 859.257,738.589 859.116,741.079 858.966,743.568 858.807,746.058 858.64,748.547 858.463,751.037 858.278,753.527 858.084,756.016 857.88,758.506 857.669,760.995 857.448,763.485 857.218,765.975 856.979,768.464 856.731,770.954 856.475,773.443 856.209,775.933 855.935,778.423 855.651,780.912 855.359,783.402 855.058,785.891 854.747,788.381 854.428,790.871 854.099,793.36 853.762,795.85 853.415,798.34 853.06,800.829 852.695,803.319 852.321,805.808 851.938,808.298 851.546,810.788 851.145,813.277 850.735,815.767 850.315,818.256 849.887,820.746 849.449,823.236 " />
</g>
<g>
<polyline fill="none" stroke="#7f7fff" points="916.637,573.959 915.757,576.506 914.897,579.052 914.057,581.598 913.236,584.145 912.435,586.691 911.654,589.237 910.892,591.783 910.15,594.33 909.426,596.876 908.721,599.422 908.036,601.968 907.369,604.515 906.721,607.061 906.091,609.607 905.48,612.154 904.888,614.7 904.314,617.246 903.758,619.792 903.22,622.339 902.7,624.885 902.198,627.431 901.714,629.977 901.248,632.524 900.8,635.07 900.37,637.616 899.957,640.163 899.562,642.709 899.184,645.255 898.824,647.801 898.482,650.348 898.157,652.894 897.849,655.44 897.558,657.986 897.285,660.533 897.029,663.079 896.791,665.625 896.569,668.172 896.365,670.718 896.178,673.264 896.007,675.81 895.854,678.357 895.718,680.903 895.599,683.449 895.498,685.995 895.413,688.542 895.345,691.088 895.294,693.634 895.26,696.181 895.243,698.727 895.243,701.273 895.26,703.819 895.294,706.366 895.345,708.912 895.413,711.458 895.498,714.005 895.599,716.551 895.718,719.097 895.854,721.643 896.007,724.19 896.178,726.736 896.365,729.282 896.569,731.828 896.791,734.375 897.029,736.921 897.285,739.467 897.558,742.014 897.849,744.56 898.157,747.106 898.482,749.652 898.824,752.199 899.184,754.745 899.562,757.291 899.957,759.837 900.37,762.384 900.8,764.93 901.248,767.476 901.714,770.023 902.198,772.569 902.7,775.115 903.22,777.661 903.758,780.208 904.314,782.754 904.888,785.3 905.48,787.846 906.091,790.393 906.721,792.939 907.369,795.485 908.036,798.032 908.721,800.578 909.426,803.124 910.15,805.67 910.892,808.217 911.654,810.763 912.435,813.309 913.236,815.855 914.057,818.402 914.897,820.948 915.757,823.494 916.637,826.041 " />
<line x1="1024.647" y1="573.959" x2="1024.647" y2="587.26"  stroke="#7f7fff" />
<line x1="916.637" y1="573.959" x2="1024.647" y2="573.959"  stroke="#7f7fff" />
<line x1="1024.647" y1="826.041" x2="1024.647" y2="812.74"  stroke="#7f7fff" />
<line x1="916.637" y1="826.041" x2="1024.647" y2="826.041"  stroke="#7f7fff" />
<polyline fill="none" stroke="#7f7fff" points="1024.647,587.26 1026.048,589.538 1027.41,591.815 1028.734,594.093 1030.021,596.371 1031.271,598.648 1032.486,600.926 1033.665,603.203 1034.81,605.481 1035.921,607.758 1036.999,610.036 1038.044,612.314 1039.057,614.591 1040.038,616.869 1040.988,619.146 1041.907,621.424 1042.796,623.701 1043.655,625.979 1044.484,628.257 1045.285,630.534 1046.056,632.812 1046.799,635.089 1047.514,637.367 1048.2,639.644 1048.86,641.922 1049.492,644.2 1050.096,646.477 1050.674,648.755 1051.226,651.032 1051.75,653.31 1052.249,655.587 1052.722,657.865 1053.168,660.143 1053.589,662.42 1053.985,664.698 1054.355,666.975 1054.7,669.253 1055.02,671.53 1055.314,673.808 1055.584,676.086 1055.829,678.363 1056.049,680.641 1056.245,682.918 1056.416,685.196 1056.562,687.473 1056.684,689.751 1056.782,692.029 1056.855,694.306 1056.903,696.584 1056.928,698.861 1056.928,701.139 1056.903,703.416 1056.855,705.694 1056.782,707.971 1056.684,710.249 1056.562,712.527 1056.416,714.804 1056.245,717.082 1056.049,719.359 1055.829,721.637 1055.584,723.914 1055.314,726.192 1055.02,728.47 1054.7,730.747 1054.355,733.025 1053.985,735.302 1053.589,737.58 1053.168,739.857 1052.722,742.135 1052.249,744.413 1051.75,746.69 1051.226,748.968 1050.674,751.245 1050.096,753.523 1049.492,755.8 1048.86,758.078 1048.2,760.356 1047.514,762.633 1046.799,764.911 1046.056,767.188 1045.285,769.466 1044.484,771.743 1043.655,774.021 1042.796,776.299 1041.907,778.576 1040.988,780.854 1040.038,783.131 1039.057,785.409 1038.044,787.686 1036.999,789.964 1035.921,792.242 1034.81,794.519 1033.665,796.797 1032.486,799.074 1031.271,801.352 1030.021,803.629 1028.734,805.907 1027.41,808.185 1026.048,810.462 1024.647,812.74 " />
</g>
<g>
<polyline fill="none" stroke="#7f7fff" points="1024.721,587.26 1026.123,589.538 1027.486,591.815 1028.811,594.093 1030.098,596.371 1031.349,598.648 1032.564,600.926 1033.744,603.203 1034.89,605.481 1036.002,607.758 1037.08,610.036 1038.125,612.314 1039.139,614.591 1040.121,616.869 1041.071,619.146 1041.991,621.424 1042.88,623.701 1043.739,625.979 1044.569,628.257 1045.37,630.534 1046.142,632.812 1046.885,635.089 1047.6,637.367 1048.287,639.644 1048.947,641.922 1049.579,644.2 1050.184,646.477 1050.762,648.755 1051.314,651.032 1051.839,653.31 1052.337,655.587 1052.81,657.865 1053.257,660.143 1053.678,662.42 1054.074,664.698 1054.444,666.975 1054.789,669.253 1055.109,671.53 1055.404,673.808 1055.674,676.086 1055.919,678.363 1056.139,680.641 1056.335,682.918 1056.506,685.196 1056.653,687.473 1056.775,689.751 1056.872,692.029 1056.945,694.306 1056.994,696.584 1057.018,698.861 1057.018,701.139 1056.994,703.416 1056.945,705.694 1056.872,707.971 1056.775,710.249 1056.653,712.527 1056.506,714.804 1056.335,717.082 1056.139,719.359 1055.919,721.637 1055.674,723.914 1055.404,726.192 1055.109,728.47 1054.789,730.747 1054.444,733.025 1054.074,735.302 1053.678,737.58 1053.257,739.857 1052.81,742.135 1052.337,744.413 1051.839,746.69 1051.314,748.968 1050.762,751.245 1050.184,753.523 1049.579,755.8 1048.947,758.078 1048.287,760.356 1047.6,762.633 1046.885,764.911 1046.142,767.188 1045.37,769.466 1044.569,771.743 1043.739,774.021 1042.88,776.299 1041.991,778.576 1041.071,780.854 1040.121,783.131 1039.139,785.409 1038.125,787.686 1037.08,789.964 1036.002,792.242 1034.89,794.519 1033.744,796.797 1032.564,799.074 1031.349,801.352 1030.098,803.629 1028.811,805.907 1027.486,808.185 1026.123,810.462 1024.721,812.74 " />
<line x1="1024.721" y1="587.26" x2="1053.948" y2="587.26"  stroke="#7f7fff" />
<line x1="1024.721" y1="812.74" x2="1053.948" y2="812.74"  stroke="#7f7fff" />
<polyline fill="none" stroke="#7f7fff" points="1053.948,587.26 1054.885,589.538 1055.8,591.815 1056.692,594.093 1057.563,596.371 1058.412,598.648 1059.24,600.926 1060.047,603.203 1060.832,605.481 1061.597,607.758 1062.341,610.036 1063.064,612.314 1063.768,614.591 1064.451,616.869 1065.114,619.146 1065.757,621.424 1066.38,623.701 1066.983,625.979 1067.568,628.257 1068.132,630.534 1068.678,632.812 1069.204,635.089 1069.711,637.367 1070.199,639.644 1070.669,641.922 1071.119,644.2 1071.551,646.477 1071.965,648.755 1072.359,651.032 1072.736,653.31 1073.094,655.587 1073.433,657.865 1073.755,660.143 1074.058,662.42 1074.343,664.698 1074.61,666.975 1074.859,669.253 1075.09,671.53 1075.303,673.808 1075.499,676.086 1075.676,678.363 1075.835,680.641 1075.977,682.918 1076.101,685.196 1076.207,687.473 1076.296,689.751 1076.367,692.029 1076.42,694.306 1076.455,696.584 1076.473,698.861 1076.473,701.139 1076.455,703.416 1076.42,705.694 1076.367,707.971 1076.296,710.249 1076.207,712.527 1076.101,714.804 1075.977,717.082 1075.835,719.359 1075.676,721.637 1075.499,723.914 1075.303,726.192 1075.09,728.47 1074.859,730.747 1074.61,733.025 1074.343,735.302 1074.058,737.58 1073.755,739.857 1073.433,742.135 1073.094,744.413 1072.736,746.69 1072.359,748.968 1071.965,751.245 1071.551,753.523 1071.119,755.8 1070.669,758.078 1070.199,760.356 1069.711,762.633 1069.204,764.911 1068.678,767.188 1068.132,769.466 1067.568,771.743 1066.983,774.021 1066.38,776.299 1065.757,778.576 1065.114,780.854 1064.451,783.131 1063.768,785.409 1063.064,787.686 1062.341,789.964 1061.597,792.242 1060.832,794.519 1060.047,796.797 1059.24,799.074 1058.412,801.352 1057.563,803.629 1056.692,805.907 1055.8,808.185 1054.885,810.462 1053.948,812.74 " />
</g>
<g>
<polyline fill="none" stroke="#7f7fff" points="1118.471,609.519 1118.238,611.347 1118.009,613.174 1117.786,615.002 1117.568,616.83 1117.354,618.658 1117.145,620.486 1116.941,622.314 1116.741,624.142 1116.547,625.97 1116.357,627.798 1116.172,629.626 1115.992,631.454 1115.817,633.281 1115.646,635.109 1115.48,636.937 1115.319,638.765 1115.163,640.593 1115.012,642.421 1114.865,644.249 1114.723,646.077 1114.586,647.905 1114.453,649.733 1114.326,651.56 1114.203,653.388 1114.085,655.216 1113.971,657.044 1113.863,658.872 1113.759,660.7 1113.659,662.528 1113.565,664.356 1113.475,666.184 1113.39,668.012 1113.31,669.84 1113.234,671.667 1113.163,673.495 1113.097,675.323 1113.036,677.151 1112.979,678.979 1112.927,680.807 1112.88,682.635 1112.838,684.463 1112.8,686.291 1112.767,688.119 1112.739,689.947 1112.715,691.774 1112.696,693.602 1112.682,695.43 1112.673,697.258 1112.668,699.086 1112.668,700.914 1112.673,702.742 1112.682,704.57 1112.696,706.398 1112.715,708.226 1112.739,710.053 1112.767,711.881 1112.8,713.709 1112.838,715.537 1112.88,717.365 1112.927,719.193 1112.979,721.021 1113.036,722.849 1113.097,724.677 1113.163,726.505 1113.234,728.333 1113.31,730.16 1113.39,731.988 1113.475,733.816 1113.565,735.644 1113.659,737.472 1113.759,739.3 1113.863,741.128 1113.971,742.956 1114.085,744.784 1114.203,746.612 1114.326,748.44 1114.453,750.267 1114.586,752.095 1114.723,753.923 1114.865,755.751 1115.012,757.579 1115.163,759.407 1115.319,761.235 1115.48,763.063 1115.646,764.891 1115.817,766.719 1115.992,768.546 1116.172,770.374 1116.357,772.202 1116.547,774.03 1116.741,775.858 1116.941,777.686 1117.145,779.514 1117.354,781.342 1117.568,783.17 1117.786,784.998 1118.009,786.826 1118.238,788.653 1118.471,790.481 " />
<line x1="1231.407" y1="609.519" x2="1231.407" y2="621.1"  stroke="#7f7fff" />
<line x1="1118.471" y1="609.519" x2="1231.407" y2="609.519"  stroke="#7f7fff" />
<line x1="1231.407" y1="790.481" x2="1231.407" y2="778.9"  stroke="#7f7fff" />
<line x1="1118.471" y1="790.481" x2="1231.407" y2="790.481"  stroke="#7f7fff" />
<polyline fill="none" stroke="#7f7fff" points="1231.407,621.1 1229.832,622.694 1228.319,624.288 1226.864,625.882 1225.464,627.476 1224.117,629.07 1222.82,630.664 1221.571,632.258 1220.368,633.852 1219.208,635.446 1218.092,637.04 1217.016,638.634 1215.98,640.227 1214.981,641.821 1214.02,643.415 1213.095,645.009 1212.204,646.603 1211.348,648.197 1210.524,649.791 1209.733,651.385 1208.973,652.979 1208.244,654.573 1207.545,656.167 1206.875,657.761 1206.235,659.355 1205.622,660.949 1205.038,662.543 1204.481,664.136 1203.951,665.73 1203.447,667.324 1202.97,668.918 1202.518,670.512 1202.092,672.106 1201.691,673.7 1201.315,675.294 1200.964,676.888 1200.638,678.482 1200.335,680.076 1200.056,681.67 1199.802,683.264 1199.571,684.858 1199.363,686.452 1199.179,688.045 1199.018,689.639 1198.881,691.233 1198.766,692.827 1198.674,694.421 1198.606,696.015 1198.56,697.609 1198.537,699.203 1198.537,700.797 1198.56,702.391 1198.606,703.985 1198.674,705.579 1198.766,707.173 1198.881,708.767 1199.018,710.361 1199.179,711.955 1199.363,713.548 1199.571,715.142 1199.802,716.736 1200.056,718.33 1200.335,719.924 1200.638,721.518 1200.964,723.112 1201.315,724.706 1201.691,726.3 1202.092,727.894 1202.518,729.488 1202.97,731.082 1203.447,732.676 1203.951,734.27 1204.481,735.864 1205.038,737.457 1205.622,739.051 1206.235,740.645 1206.875,742.239 1207.545,743.833 1208.244,745.427 1208.973,747.021 1209.733,748.615 1210.524,750.209 1211.348,751.803 1212.204,753.397 1213.095,754.991 1214.02,756.585 1214.981,758.179 1215.98,759.773 1217.016,761.366 1218.092,762.96 1219.208,764.554 1220.368,766.148 1221.571,767.742 1222.82,769.336 1224.117,770.93 1225.464,772.524 1226.864,774.118 1228.319,775.712 1229.832,777.306 1231.407,778.9 " />
</g>
<g>
<polyline fill="none" stroke="#7f7fff" points="1231.407,621.1 1229.832,622.694 1228.319,624.288 1226.864,625.882 1225.464,627.476 1224.117,629.07 1222.82,630.664 1221.571,632.258 1220.368,633.852 1219.208,635.446 1218.092,637.04 1217.016,638.634 1215.98,640.227 1214.981,641.821 1214.02,643.415 1213.095,645.009 1212.204,646.603 1211.348,648.197 1210.524,649.791 1209.733,651.385 1208.973,652.979 1208.244,654.573 1207.545,656.167 1206.875,657.761 1206.235,659.355 1205.622,660.949 1205.038,662.543 1204.481,664.136 1203.951,665.73 1203.447,667.324 1202.97,668.918 1202.518,670.512 1202.092,672.106 1201.691,673.7 1201.315,675.294 1200.964,676.888 1200.638,678.482 1200.335,680.076 1200.056,681.67 1199.802,683.264 1199.571,684.858 1199.363,686.452 1199.179,688.045 1199.018,689.639 1198.881,691.233 1198.766,692.827 1198.674,694.421 1198.606,696.015 1198.56,697.609 1198.537,699.203 1198.537,700.797 1198.56,702.391 1198.606,703.985 1198.674,705.579 1198.766,707.173 1198.881,708.767 1199.018,710.361 1199.179,711.955 1199.363,713.548 1199.571,715.142 1199.802,716.736 1200.056,718.33 1200.335,719.924 1200.638,721.518 1200.964,723.112 1201.315,724.706 1201.691,726.3 1202.092,727.894 1202.518,729.488 1202.97,731.082 1203.447,732.676 1203.951,734.27 1204.481,735.864 1205.038,737.457 1205.622,739.051 1206.235,740.645 1206.875,742.239 1207.545,743.833 1208.244,745.427 1208.973,747.021 1209.733,748.615 1210.524,750.209 1211.348,751.803 1212.204,753.397 1213.095,754.991 1214.02,756.585 1214.981,758.179 1215.98,759.773 1217.016,761.366 1218.092,762.96 1219.208,764.554 1220.368,766.148 1221.571,767.742 1222.82,769.336 1224.117,770.93 1225.464,772.524 1226.864,774.118 1228.319,775.712 1229.832,777.306 1231.407,778.9 " />
<line x1="1231.407" y1="621.1" x2="1256.859" y2="621.1"  stroke="#7f7fff" />
<line x1="1231.407" y1="778.9" x2="1256.859" y2="778.9"  stroke="#7f7fff" />
<polyline fill="none" stroke="#7f7fff" points="1256.859,621.1 1257.209,622.694 1257.553,624.288 1257.888,625.882 1258.217,627.476 1258.538,629.07 1258.851,630.664 1259.157,632.258 1259.456,633.852 1259.747,635.446 1260.031,637.04 1260.308,638.634 1260.578,640.227 1260.84,641.821 1261.095,643.415 1261.342,645.009 1261.583,646.603 1261.816,648.197 1262.042,649.791 1262.26,651.385 1262.472,652.979 1262.676,654.573 1262.874,656.167 1263.064,657.761 1263.247,659.355 1263.422,660.949 1263.591,662.543 1263.753,664.136 1263.907,665.73 1264.055,667.324 1264.195,668.918 1264.328,670.512 1264.455,672.106 1264.574,673.7 1264.686,675.294 1264.791,676.888 1264.889,678.482 1264.98,680.076 1265.064,681.67 1265.141,683.264 1265.211,684.858 1265.274,686.452 1265.33,688.045 1265.379,689.639 1265.421,691.233 1265.456,692.827 1265.484,694.421 1265.505,696.015 1265.519,697.609 1265.526,699.203 1265.526,700.797 1265.519,702.391 1265.505,703.985 1265.484,705.579 1265.456,707.173 1265.421,708.767 1265.379,710.361 1265.33,711.955 1265.274,713.548 1265.211,715.142 1265.141,716.736 1265.064,718.33 1264.98,719.924 1264.889,721.518 1264.791,723.112 1264.686,724.706 1264.574,726.3 1264.455,727.894 1264.328,729.488 1264.195,731.082 1264.055,732.676 1263.907,734.27 1263.753,735.864 1263.591,737.457 1263.422,739.051 1263.247,740.645 1263.064,742.239 1262.874,743.833 1262.676,745.427 1262.472,747.021 1262.26,748.615 1262.042,750.209 1261.816,751.803 1261.583,753.397 1261.342,754.991 1261.095,756.585 1260.84,758.179 1260.578,759.773 1260.308,761.366 1260.031,762.96 1259.747,764.554 1259.456,766.148 1259.157,767.742 1258.851,769.336 1258.538,770.93 1258.217,772.524 1257.888,774.118 1257.553,775.712 1257.209,777.306 1256.859,778.9 " />
</g>
<g>
<polyline fill="none" stroke="#7f7fff" points="1285.914,623 1286.209,624.556 1286.497,626.111 1286.779,627.667 1287.055,629.223 1287.325,630.778 1287.588,632.334 1287.846,633.889 1288.097,635.445 1288.342,637 1288.581,638.556 1288.814,640.111 1289.041,641.667 1289.261,643.222 1289.476,644.778 1289.684,646.334 1289.887,647.889 1290.083,649.445 1290.274,651 1290.458,652.556 1290.636,654.111 1290.809,655.667 1290.975,657.222 1291.135,658.778 1291.289,660.334 1291.438,661.889 1291.58,663.445 1291.716,665 1291.847,666.556 1291.971,668.111 1292.09,669.667 1292.202,671.222 1292.309,672.778 1292.409,674.333 1292.504,675.889 1292.593,677.445 1292.675,679 1292.752,680.556 1292.823,682.111 1292.888,683.667 1292.947,685.222 1293.001,686.778 1293.048,688.333 1293.089,689.889 1293.125,691.444 1293.154,693 1293.178,694.556 1293.195,696.111 1293.207,697.667 1293.213,699.222 1293.213,700.778 1293.207,702.333 1293.195,703.889 1293.178,705.444 1293.154,707 1293.125,708.556 1293.089,710.111 1293.048,711.667 1293.001,713.222 1292.947,714.778 1292.888,716.333 1292.823,717.889 1292.752,719.444 1292.675,721 1292.593,722.555 1292.504,724.111 1292.409,725.667 1292.309,727.222 1292.202,728.778 1292.09,730.333 1291.971,731.889 1291.847,733.444 1291.716,735 1291.58,736.555 1291.438,738.111 1291.289,739.666 1291.135,741.222 1290.975,742.778 1290.809,744.333 1290.636,745.889 1290.458,747.444 1290.274,749 1290.083,750.555 1289.887,752.111 1289.684,753.666 1289.476,755.222 1289.261,756.778 1289.041,758.333 1288.814,759.889 1288.581,761.444 1288.342,763 1288.097,764.555 1287.846,766.111 1287.588,767.666 1287.325,769.222 1287.055,770.777 1286.779,772.333 1286.497,773.889 1286.209,775.444 1285.914,777 " />
<line x1="1285.914" y1="623" x2="1300.052" y2="623"  stroke="#7f7fff" />
<line x1="1285.914" y1="777" x2="1300.052" y2="777"  stroke="#7f7fff" />
<polyline fill="none" stroke="#7f7fff" points="1300.052,623 1301.713,624.556 1303.304,626.111 1304.828,627.667 1306.292,629.223 1307.697,630.778 1309.046,632.334 1310.343,633.889 1311.591,635.445 1312.79,637 1313.944,638.556 1315.054,640.111 1316.122,641.667 1317.15,643.222 1318.138,644.778 1319.088,646.334 1320.002,647.889 1320.879,649.445 1321.723,651 1322.533,652.556 1323.309,654.111 1324.054,655.667 1324.768,657.222 1325.451,658.778 1326.105,660.334 1326.729,661.889 1327.324,663.445 1327.892,665 1328.431,666.556 1328.943,668.111 1329.429,669.667 1329.888,671.222 1330.321,672.778 1330.728,674.333 1331.109,675.889 1331.466,677.445 1331.798,679 1332.105,680.556 1332.387,682.111 1332.645,683.667 1332.88,685.222 1333.09,686.778 1333.277,688.333 1333.44,689.889 1333.58,691.444 1333.696,693 1333.789,694.556 1333.858,696.111 1333.904,697.667 1333.928,699.222 1333.928,700.778 1333.904,702.333 1333.858,703.889 1333.789,705.444 1333.696,707 1333.58,708.556 1333.44,710.111 1333.277,711.667 1333.09,713.222 1332.88,714.778 1332.645,716.333 1332.387,717.889 1332.105,719.444 1331.798,721 1331.466,722.555 1331.109,724.111 1330.728,725.667 1330.321,727.222 1329.888,728.778 1329.429,730.333 1328.943,731.889 1328.431,733.444 1327.892,735 1327.324,736.555 1326.729,738.111 1326.105,739.666 1325.451,741.222 1324.768,742.778 1324.054,744.333 1323.309,745.889 1322.533,747.444 1321.723,749 1320.879,750.555 1320.002,752.111 1319.088,753.666 1318.138,755.222 1317.15,756.778 1316.122,758.333 1315.054,759.889 1313.944,761.444 1312.79,763 1311.591,764.555 1310.343,766.111 1309.046,767.666 1307.697,769.222 1306.292,770.777 1304.828,772.333 1303.304,773.889 1301.713,775.444 1300.052,777 " />
</g>
<g>
<polyline fill="none" stroke="#7f7fff" points="1300.543,623.453 1302.173,624.999 1303.736,626.546 1305.234,628.092 1306.673,629.638 1308.055,631.185 1309.383,632.731 1310.66,634.278 1311.888,635.824 1313.069,637.37 1314.206,638.917 1315.3,640.463 1316.352,642.01 1317.365,643.556 1318.339,645.102 1319.276,646.649 1320.177,648.195 1321.043,649.742 1321.875,651.288 1322.674,652.835 1323.441,654.381 1324.176,655.927 1324.881,657.474 1325.555,659.02 1326.2,660.567 1326.816,662.113 1327.404,663.659 1327.964,665.206 1328.497,666.752 1329.003,668.299 1329.483,669.845 1329.936,671.391 1330.364,672.938 1330.766,674.484 1331.143,676.031 1331.495,677.577 1331.823,679.123 1332.126,680.67 1332.405,682.216 1332.661,683.763 1332.892,685.309 1333.1,686.856 1333.285,688.402 1333.446,689.948 1333.584,691.495 1333.698,693.041 1333.79,694.588 1333.859,696.134 1333.905,697.68 1333.928,699.227 1333.928,700.773 1333.905,702.32 1333.859,703.866 1333.79,705.412 1333.698,706.959 1333.584,708.505 1333.446,710.052 1333.285,711.598 1333.1,713.144 1332.892,714.691 1332.661,716.237 1332.405,717.784 1332.126,719.33 1331.823,720.877 1331.495,722.423 1331.143,723.969 1330.766,725.516 1330.364,727.062 1329.936,728.609 1329.483,730.155 1329.003,731.701 1328.497,733.248 1327.964,734.794 1327.404,736.341 1326.816,737.887 1326.2,739.433 1325.555,740.98 1324.881,742.526 1324.176,744.073 1323.441,745.619 1322.674,747.165 1321.875,748.712 1321.043,750.258 1320.177,751.805 1319.276,753.351 1318.339,754.898 1317.365,756.444 1316.352,757.99 1315.3,759.537 1314.206,761.083 1313.069,762.63 1311.888,764.176 1310.66,765.722 1309.383,767.269 1308.055,768.815 1306.673,770.362 1305.234,771.908 1303.736,773.454 1302.173,775.001 1300.543,776.547 " />
<line x1="1329.694" y1="623.453" x2="1329.694" y2="624.177"  stroke="#7f7fff" />
<line x1="1300.543" y1="623.453" x2="1329.694" y2="623.453"  stroke="#7f7fff" />
<line x1="1329.694" y1="776.547" x2="1329.694" y2="775.823"  stroke="#7f7fff" />
<line x1="1300.543" y1="776.547" x2="1329.694" y2="776.547"  stroke="#7f7fff" />
<polyline fill="none" stroke="#7f7fff" points="1329.694,624.177 1330.14,625.708 1330.576,627.24 1331.003,628.772 1331.419,630.304 1331.826,631.836 1332.224,633.367 1332.612,634.899 1332.99,636.431 1333.358,637.963 1333.718,639.494 1334.067,641.026 1334.408,642.558 1334.738,644.09 1335.06,645.622 1335.372,647.153 1335.675,648.685 1335.969,650.217 1336.254,651.749 1336.529,653.281 1336.795,654.812 1337.052,656.344 1337.3,657.876 1337.539,659.408 1337.769,660.939 1337.99,662.471 1338.201,664.003 1338.404,665.535 1338.598,667.067 1338.783,668.598 1338.959,670.13 1339.126,671.662 1339.284,673.194 1339.434,674.726 1339.574,676.257 1339.706,677.789 1339.828,679.321 1339.942,680.853 1340.047,682.384 1340.144,683.916 1340.231,685.448 1340.31,686.98 1340.38,688.512 1340.441,690.043 1340.494,691.575 1340.538,693.107 1340.573,694.639 1340.599,696.171 1340.616,697.702 1340.625,699.234 1340.625,700.766 1340.616,702.298 1340.599,703.829 1340.573,705.361 1340.538,706.893 1340.494,708.425 1340.441,709.957 1340.38,711.488 1340.31,713.02 1340.231,714.552 1340.144,716.084 1340.047,717.616 1339.942,719.147 1339.828,720.679 1339.706,722.211 1339.574,723.743 1339.434,725.274 1339.284,726.806 1339.126,728.338 1338.959,729.87 1338.783,731.402 1338.598,732.933 1338.404,734.465 1338.201,735.997 1337.99,737.529 1337.769,739.061 1337.539,740.592 1337.3,742.124 1337.052,743.656 1336.795,745.188 1336.529,746.719 1336.254,748.251 1335.969,749.783 1335.675,751.315 1335.372,752.847 1335.06,754.378 1334.738,755.91 1334.408,757.442 1334.067,758.974 1333.718,760.506 1333.358,762.037 1332.99,763.569 1332.612,765.101 1332.224,766.633 1331.826,768.164 1331.419,769.696 1331.003,771.228 1330.576,772.76 1330.14,774.292 1329.694,775.823 " />
</g>
<g>
<polyline fill="none" stroke="#7f7fff" points="1353.466,624.177 1352.961,625.708 1352.468,627.24 1351.986,628.772 1351.516,630.304 1351.056,631.836 1350.608,633.367 1350.17,634.899 1349.744,636.431 1349.329,637.963 1348.924,639.494 1348.53,641.026 1348.147,642.558 1347.775,644.09 1347.413,645.622 1347.062,647.153 1346.721,648.685 1346.391,650.217 1346.071,651.749 1345.762,653.281 1345.463,654.812 1345.174,656.344 1344.896,657.876 1344.628,659.408 1344.37,660.939 1344.122,662.471 1343.885,664.003 1343.657,665.535 1343.44,667.067 1343.233,668.598 1343.036,670.13 1342.849,671.662 1342.671,673.194 1342.504,674.726 1342.347,676.257 1342.199,677.789 1342.062,679.321 1341.934,680.853 1341.817,682.384 1341.709,683.916 1341.611,685.448 1341.523,686.98 1341.444,688.512 1341.376,690.043 1341.317,691.575 1341.268,693.107 1341.229,694.639 1341.2,696.171 1341.18,697.702 1341.17,699.234 1341.17,700.766 1341.18,702.298 1341.2,703.829 1341.229,705.361 1341.268,706.893 1341.317,708.425 1341.376,709.957 1341.444,711.488 1341.523,713.02 1341.611,714.552 1341.709,716.084 1341.817,717.616 1341.934,719.147 1342.062,720.679 1342.199,722.211 1342.347,723.743 1342.504,725.274 1342.671,726.806 1342.849,728.338 1343.036,729.87 1343.233,731.402 1343.44,732.933 1343.657,734.465 1343.885,735.997 1344.122,737.529 1344.37,739.061 1344.628,740.592 1344.896,742.124 1345.174,743.656 1345.463,745.188 1345.762,746.719 1346.071,748.251 1346.391,749.783 1346.721,751.315 1347.062,752.847 1347.413,754.378 1347.775,755.91 1348.147,757.442 1348.53,758.974 1348.924,760.506 1349.329,762.037 1349.744,763.569 1350.17,765.101 1350.608,766.633 1351.056,768.164 1351.516,769.696 1351.986,771.228 1352.468,772.76 1352.961,774.292 1353.466,775.823 " />
<line x1="1364.231" y1="624.177" x2="1364.231" y2="626.891"  stroke="#7f7fff" />
<line x1="1353.466" y1="624.177" x2="1364.231" y2="624.177"  stroke="#7f7fff" />
<line x1="1364.231" y1="775.823" x2="1364.231" y2="773.109"  stroke="#7f7fff" />
<line x1="1353.466" y1="775.823" x2="1364.231" y2="775.823"  stroke="#7f7fff" />
<polyline fill="none" stroke="#7f7fff" points="1364.231,626.891 1364.71,628.368 1365.178,629.845 1365.636,631.322 1366.082,632.799 1366.519,634.276 1366.945,635.753 1367.36,637.23 1367.765,638.707 1368.16,640.184 1368.544,641.661 1368.918,643.137 1369.282,644.614 1369.636,646.091 1369.979,647.568 1370.313,649.045 1370.637,650.522 1370.95,651.999 1371.254,653.476 1371.548,654.953 1371.832,656.43 1372.106,657.907 1372.371,659.384 1372.626,660.861 1372.871,662.338 1373.106,663.815 1373.332,665.292 1373.548,666.769 1373.755,668.246 1373.952,669.723 1374.139,671.2 1374.317,672.676 1374.486,674.153 1374.645,675.63 1374.794,677.107 1374.934,678.584 1375.065,680.061 1375.186,681.538 1375.298,683.015 1375.401,684.492 1375.494,685.969 1375.578,687.446 1375.652,688.923 1375.717,690.4 1375.773,691.877 1375.82,693.354 1375.857,694.831 1375.885,696.308 1375.903,697.785 1375.913,699.262 1375.913,700.738 1375.903,702.215 1375.885,703.692 1375.857,705.169 1375.82,706.646 1375.773,708.123 1375.717,709.6 1375.652,711.077 1375.578,712.554 1375.494,714.031 1375.401,715.508 1375.298,716.985 1375.186,718.462 1375.065,719.939 1374.934,721.416 1374.794,722.893 1374.645,724.37 1374.486,725.847 1374.317,727.324 1374.139,728.8 1373.952,730.277 1373.755,731.754 1373.548,733.231 1373.332,734.708 1373.106,736.185 1372.871,737.662 1372.626,739.139 1372.371,740.616 1372.106,742.093 1371.832,743.57 1371.548,745.047 1371.254,746.524 1370.95,748.001 1370.637,749.478 1370.313,750.955 1369.979,752.432 1369.636,753.909 1369.282,755.386 1368.918,756.863 1368.544,758.339 1368.16,759.816 1367.765,761.293 1367.36,762.77 1366.945,764.247 1366.519,765.724 1366.082,767.201 1365.636,768.678 1365.178,770.155 1364.71,771.632 1364.231,773.109 " />
</g>
<g>
<polyline fill="none" stroke="#7f7fff" points="1372.241,626.891 1372.454,628.368 1372.663,629.845 1372.867,631.322 1373.067,632.799 1373.262,634.276 1373.453,635.753 1373.64,637.23 1373.822,638.707 1374,640.184 1374.173,641.661 1374.342,643.137 1374.507,644.614 1374.667,646.091 1374.823,647.568 1374.974,649.045 1375.121,650.522 1375.264,651.999 1375.402,653.476 1375.536,654.953 1375.666,656.43 1375.791,657.907 1375.912,659.384 1376.029,660.861 1376.141,662.338 1376.249,663.815 1376.352,665.292 1376.452,666.769 1376.547,668.246 1376.637,669.723 1376.723,671.2 1376.805,672.676 1376.883,674.153 1376.956,675.63 1377.025,677.107 1377.09,678.584 1377.15,680.061 1377.206,681.538 1377.258,683.015 1377.305,684.492 1377.348,685.969 1377.387,687.446 1377.421,688.923 1377.452,690.4 1377.477,691.877 1377.499,693.354 1377.516,694.831 1377.529,696.308 1377.538,697.785 1377.542,699.262 1377.542,700.738 1377.538,702.215 1377.529,703.692 1377.516,705.169 1377.499,706.646 1377.477,708.123 1377.452,709.6 1377.421,711.077 1377.387,712.554 1377.348,714.031 1377.305,715.508 1377.258,716.985 1377.206,718.462 1377.15,719.939 1377.09,721.416 1377.025,722.893 1376.956,724.37 1376.883,725.847 1376.805,727.324 1376.723,728.8 1376.637,730.277 1376.547,731.754 1376.452,733.231 1376.352,734.708 1376.249,736.185 1376.141,737.662 1376.029,739.139 1375.912,740.616 1375.791,742.093 1375.666,743.57 1375.536,745.047 1375.402,746.524 1375.264,748.001 1375.121,749.478 1374.974,750.955 1374.823,752.432 1374.667,753.909 1374.507,755.386 1374.342,756.863 1374.173,758.339 1374,759.816 1373.822,761.293 1373.64,762.77 1373.453,764.247 1373.262,765.724 1373.067,767.201 1372.867,768.678 1372.663,770.155 1372.454,771.632 1372.241,773.109 " />
<line x1="1372.241" y1="626.891" x2="1396.261" y2="626.891"  stroke="#7f7fff" />
<line x1="1372.241" y1="773.109" x2="1396.261" y2="773.109"  stroke="#7f7fff" />
<polyline fill="none" stroke="#7f7fff" points="1396.261,626.891 1395.852,628.368 1395.452,629.845 1395.062,631.322 1394.68,632.799 1394.307,634.276 1393.942,635.753 1393.587,637.23 1393.24,638.707 1392.902,640.184 1392.573,641.661 1392.252,643.137 1391.94,644.614 1391.636,646.091 1391.341,647.568 1391.055,649.045 1390.777,650.522 1390.507,651.999 1390.246,653.476 1389.993,654.953 1389.749,656.43 1389.513,657.907 1389.285,659.384 1389.066,660.861 1388.854,662.338 1388.652,663.815 1388.457,665.292 1388.271,666.769 1388.093,668.246 1387.923,669.723 1387.761,671.2 1387.608,672.676 1387.462,674.153 1387.325,675.63 1387.196,677.107 1387.075,678.584 1386.962,680.061 1386.857,681.538 1386.761,683.015 1386.672,684.492 1386.592,685.969 1386.519,687.446 1386.455,688.923 1386.399,690.4 1386.35,691.877 1386.31,693.354 1386.278,694.831 1386.254,696.308 1386.238,697.785 1386.23,699.262 1386.23,700.738 1386.238,702.215 1386.254,703.692 1386.278,705.169 1386.31,706.646 1386.35,708.123 1386.399,709.6 1386.455,711.077 1386.519,712.554 1386.592,714.031 1386.672,715.508 1386.761,716.985 1386.857,718.462 1386.962,719.939 1387.075,721.416 1387.196,722.893 1387.325,724.37 1387.462,725.847 1387.608,727.324 1387.761,728.8 1387.923,730.277 1388.093,731.754 1388.271,733.231 1388.457,734.708 1388.652,736.185 1388.854,737.662 1389.066,739.139 1389.285,740.616 1389.513,742.093 1389.749,743.57 1389.993,745.047 1390.246,746.524 1390.507,748.001 1390.777,749.478 1391.055,750.955 1391.341,752.432 1391.636,753.909 1391.94,755.386 1392.252,756.863 1392.573,758.339 1392.902,759.816 1393.24,761.293 1393.587,762.77 1393.942,764.247 1394.307,765.724 1394.68,767.201 1395.062,768.678 1395.452,770.155 1395.852,771.632 1396.261,773.109 " />
</g>
<g>
<polyline fill="none" stroke="#7f7fff" points="1401.785,627.886 1402.359,629.343 1402.92,630.8 1403.468,632.257 1404.002,633.714 1404.523,635.171 1405.031,636.627 1405.526,638.084 1406.009,639.541 1406.478,640.998 1406.935,642.455 1407.38,643.912 1407.812,645.368 1408.232,646.825 1408.639,648.282 1409.035,649.739 1409.418,651.196 1409.789,652.653 1410.149,654.109 1410.496,655.566 1410.832,657.023 1411.156,658.48 1411.468,659.937 1411.769,661.394 1412.058,662.851 1412.335,664.307 1412.601,665.764 1412.856,667.221 1413.099,668.678 1413.331,670.135 1413.551,671.592 1413.76,673.048 1413.958,674.505 1414.145,675.962 1414.321,677.419 1414.486,678.876 1414.639,680.333 1414.782,681.789 1414.913,683.246 1415.033,684.703 1415.143,686.16 1415.241,687.617 1415.328,689.074 1415.405,690.531 1415.47,691.987 1415.525,693.444 1415.568,694.901 1415.601,696.358 1415.623,697.815 1415.634,699.272 1415.634,700.728 1415.623,702.185 1415.601,703.642 1415.568,705.099 1415.525,706.556 1415.47,708.013 1415.405,709.469 1415.328,710.926 1415.241,712.383 1415.143,713.84 1415.033,715.297 1414.913,716.754 1414.782,718.211 1414.639,719.667 1414.486,721.124 1414.321,722.581 1414.145,724.038 1413.958,725.495 1413.76,726.952 1413.551,728.408 1413.331,729.865 1413.099,731.322 1412.856,732.779 1412.601,734.236 1412.335,735.693 1412.058,737.149 1411.769,738.606 1411.468,740.063 1411.156,741.52 1410.832,742.977 1410.496,744.434 1410.149,745.891 1409.789,747.347 1409.418,748.804 1409.035,750.261 1408.639,751.718 1408.232,753.175 1407.812,754.632 1407.38,756.088 1406.935,757.545 1406.478,759.002 1406.009,760.459 1405.526,761.916 1405.031,763.373 1404.523,764.829 1404.002,766.286 1403.468,767.743 1402.92,769.2 1402.359,770.657 1401.785,772.114 " />
<line x1="1401.785" y1="613.319" x2="1401.785" y2="627.886"  stroke="#7f7fff" />
<line x1="1401.785" y1="613.319" x2="1436.617" y2="613.319"  stroke="#7f7fff" />
<line x1="1401.785" y1="786.681" x2="1401.785" y2="772.114"  stroke="#7f7fff" />
<line x1="1401.785" y1="786.681" x2="1436.617" y2="786.681"  stroke="#7f7fff" />
<polyline fill="none" stroke="#7f7fff" points="1436.617,613.319 1436.01,615.07 1435.418,616.821 1434.839,618.572 1434.274,620.323 1433.722,622.075 1433.184,623.826 1432.659,625.577 1432.148,627.328 1431.649,629.079 1431.164,630.83 1430.692,632.581 1430.232,634.332 1429.786,636.084 1429.352,637.835 1428.931,639.586 1428.523,641.337 1428.128,643.088 1427.745,644.839 1427.374,646.59 1427.016,648.342 1426.671,650.093 1426.337,651.844 1426.016,653.595 1425.708,655.346 1425.411,657.097 1425.127,658.848 1424.855,660.599 1424.595,662.351 1424.347,664.102 1424.111,665.853 1423.887,667.604 1423.675,669.355 1423.475,671.106 1423.287,672.857 1423.11,674.609 1422.946,676.36 1422.793,678.111 1422.653,679.862 1422.524,681.613 1422.407,683.364 1422.301,685.115 1422.207,686.866 1422.126,688.618 1422.055,690.369 1421.997,692.12 1421.95,693.871 1421.915,695.622 1421.892,697.373 1421.88,699.124 1421.88,700.876 1421.892,702.627 1421.915,704.378 1421.95,706.129 1421.997,707.88 1422.055,709.631 1422.126,711.382 1422.207,713.134 1422.301,714.885 1422.407,716.636 1422.524,718.387 1422.653,720.138 1422.793,721.889 1422.946,723.64 1423.11,725.391 1423.287,727.143 1423.475,728.894 1423.675,730.645 1423.887,732.396 1424.111,734.147 1424.347,735.898 1424.595,737.649 1424.855,739.401 1425.127,741.152 1425.411,742.903 1425.708,744.654 1426.016,746.405 1426.337,748.156 1426.671,749.907 1427.016,751.658 1427.374,753.41 1427.745,755.161 1428.128,756.912 1428.523,758.663 1428.931,760.414 1429.352,762.165 1429.786,763.916 1430.232,765.668 1430.692,767.419 1431.164,769.17 1431.649,770.921 1432.148,772.672 1432.659,774.423 1433.184,776.174 1433.722,777.925 1434.274,779.677 1434.839,781.428 1435.418,783.179 1436.01,784.93 1436.617,786.681 " />
</g>
<g>
<polyline fill="none" stroke="#7f7fff" points="1436.694,613.319 1436.088,615.07 1435.496,616.821 1434.918,618.572 1434.353,620.323 1433.802,622.075 1433.265,623.826 1432.74,625.577 1432.229,627.328 1431.731,629.079 1431.246,630.83 1430.774,632.581 1430.316,634.332 1429.869,636.084 1429.436,637.835 1429.016,639.586 1428.608,641.337 1428.213,643.088 1427.83,644.839 1427.46,646.59 1427.102,648.342 1426.757,650.093 1426.424,651.844 1426.103,653.595 1425.795,655.346 1425.499,657.097 1425.215,658.848 1424.943,660.599 1424.683,662.351 1424.435,664.102 1424.199,665.853 1423.976,667.604 1423.764,669.355 1423.564,671.106 1423.376,672.857 1423.2,674.609 1423.036,676.36 1422.883,678.111 1422.742,679.862 1422.614,681.613 1422.497,683.364 1422.391,685.115 1422.298,686.866 1422.216,688.618 1422.146,690.369 1422.087,692.12 1422.04,693.871 1422.005,695.622 1421.982,697.373 1421.97,699.124 1421.97,700.876 1421.982,702.627 1422.005,704.378 1422.04,706.129 1422.087,707.88 1422.146,709.631 1422.216,711.382 1422.298,713.134 1422.391,714.885 1422.497,716.636 1422.614,718.387 1422.742,720.138 1422.883,721.889 1423.036,723.64 1423.2,725.391 1423.376,727.143 1423.564,728.894 1423.764,730.645 1423.976,732.396 1424.199,734.147 1424.435,735.898 1424.683,737.649 1424.943,739.401 1425.215,741.152 1425.499,742.903 1425.795,744.654 1426.103,746.405 1426.424,748.156 1426.757,749.907 1427.102,751.658 1427.46,753.41 1427.83,755.161 1428.213,756.912 1428.608,758.663 1429.016,760.414 1429.436,762.165 1429.869,763.916 1430.316,765.668 1430.774,767.419 1431.246,769.17 1431.731,770.921 1432.229,772.672 1432.74,774.423 1433.265,776.174 1433.802,777.925 1434.353,779.677 1434.918,781.428 1435.496,783.179 1436.088,784.93 1436.694,786.681 " />
<line x1="1436.694" y1="601.918" x2="1436.694" y2="613.319"  stroke="#7f7fff" />
<line x1="1436.694" y1="601.918" x2="1451.672" y2="601.918"  stroke="#7f7fff" />
<line x1="1436.694" y1="798.082" x2="1436.694" y2="786.681"  stroke="#7f7fff" />
<line x1="1436.694" y1="798.082" x2="1451.672" y2="798.082"  stroke="#7f7fff" />
<polyline fill="none" stroke="#7f7fff" points="1451.672,601.918 1453.132,603.9 1454.546,605.881 1455.917,607.863 1457.245,609.844 1458.532,611.825 1459.779,613.807 1460.987,615.788 1462.157,617.77 1463.29,619.751 1464.387,621.733 1465.448,623.714 1466.474,625.696 1467.467,627.677 1468.426,629.659 1469.353,631.64 1470.248,633.621 1471.111,635.603 1471.944,637.584 1472.746,639.566 1473.518,641.547 1474.261,643.529 1474.975,645.51 1475.66,647.492 1476.317,649.473 1476.946,651.454 1477.548,653.436 1478.122,655.417 1478.67,657.399 1479.191,659.38 1479.685,661.362 1480.153,663.343 1480.596,665.325 1481.012,667.306 1481.404,669.288 1481.769,671.269 1482.11,673.25 1482.426,675.232 1482.717,677.213 1482.983,679.195 1483.225,681.176 1483.442,683.158 1483.635,685.139 1483.803,687.121 1483.947,689.102 1484.068,691.083 1484.164,693.065 1484.236,695.046 1484.284,697.028 1484.308,699.009 1484.308,700.991 1484.284,702.972 1484.236,704.954 1484.164,706.935 1484.068,708.917 1483.947,710.898 1483.803,712.879 1483.635,714.861 1483.442,716.842 1483.225,718.824 1482.983,720.805 1482.717,722.787 1482.426,724.768 1482.11,726.75 1481.769,728.731 1481.404,730.712 1481.012,732.694 1480.596,734.675 1480.153,736.657 1479.685,738.638 1479.191,740.62 1478.67,742.601 1478.122,744.583 1477.548,746.564 1476.946,748.546 1476.317,750.527 1475.66,752.508 1474.975,754.49 1474.261,756.471 1473.518,758.453 1472.746,760.434 1471.944,762.416 1471.111,764.397 1470.248,766.379 1469.353,768.36 1468.426,770.341 1467.467,772.323 1466.474,774.304 1465.448,776.286 1464.387,778.267 1463.29,780.249 1462.157,782.23 1460.987,784.212 1459.779,786.193 1458.532,788.175 1457.245,790.156 1455.917,792.137 1454.546,794.119 1453.132,796.1 1451.672,798.082 " />
</g>
<g>
<polyline fill="none" stroke="#7f7fff" points="1479.41,589.16 1479.698,591.4 1479.979,593.639 1480.255,595.878 1480.525,598.117 1480.789,600.356 1481.046,602.595 1481.298,604.835 1481.544,607.074 1481.784,609.313 1482.019,611.552 1482.247,613.791 1482.469,616.031 1482.686,618.27 1482.896,620.509 1483.101,622.748 1483.299,624.987 1483.492,627.226 1483.679,629.466 1483.86,631.705 1484.035,633.944 1484.205,636.183 1484.368,638.422 1484.526,640.662 1484.678,642.901 1484.823,645.14 1484.963,647.379 1485.098,649.618 1485.226,651.858 1485.348,654.097 1485.465,656.336 1485.576,658.575 1485.681,660.814 1485.78,663.053 1485.873,665.293 1485.96,667.532 1486.042,669.771 1486.118,672.01 1486.187,674.249 1486.252,676.489 1486.31,678.728 1486.362,680.967 1486.409,683.206 1486.45,685.445 1486.485,687.684 1486.514,689.924 1486.537,692.163 1486.554,694.402 1486.566,696.641 1486.572,698.88 1486.572,701.12 1486.566,703.359 1486.554,705.598 1486.537,707.837 1486.514,710.076 1486.485,712.316 1486.45,714.555 1486.409,716.794 1486.362,719.033 1486.31,721.272 1486.252,723.511 1486.187,725.751 1486.118,727.99 1486.042,730.229 1485.96,732.468 1485.873,734.707 1485.78,736.947 1485.681,739.186 1485.576,741.425 1485.465,743.664 1485.348,745.903 1485.226,748.142 1485.098,750.382 1484.963,752.621 1484.823,754.86 1484.678,757.099 1484.526,759.338 1484.368,761.578 1484.205,763.817 1484.035,766.056 1483.86,768.295 1483.679,770.534 1483.492,772.774 1483.299,775.013 1483.101,777.252 1482.896,779.491 1482.686,781.73 1482.469,783.969 1482.247,786.209 1482.019,788.448 1481.784,790.687 1481.544,792.926 1481.298,795.165 1481.046,797.405 1480.789,799.644 1480.525,801.883 1480.255,804.122 1479.979,806.361 1479.698,808.6 1479.41,810.84 " />
<line x1="1479.41" y1="583.098" x2="1479.41" y2="589.16"  stroke="#7f7fff" />
<line x1="1479.41" y1="583.098" x2="1488.665" y2="583.098"  stroke="#7f7fff" />
<line x1="1479.41" y1="816.902" x2="1479.41" y2="810.84"  stroke="#7f7fff" />
<line x1="1479.41" y1="816.902" x2="1488.665" y2="816.902"  stroke="#7f7fff" />
<polyline fill="none" stroke="#7f7fff" points="1488.665,583.098 1489.713,585.46 1490.736,587.821 1491.734,590.183 1492.706,592.545 1493.654,594.906 1494.578,597.268 1495.477,599.63 1496.353,601.991 1497.205,604.353 1498.034,606.715 1498.84,609.076 1499.622,611.438 1500.382,613.8 1501.12,616.161 1501.835,618.523 1502.527,620.885 1503.198,623.246 1503.847,625.608 1504.474,627.97 1505.079,630.331 1505.663,632.693 1506.226,635.054 1506.768,637.416 1507.288,639.778 1507.788,642.139 1508.267,644.501 1508.725,646.863 1509.162,649.224 1509.579,651.586 1509.975,653.948 1510.352,656.309 1510.707,658.671 1511.043,661.033 1511.359,663.394 1511.654,665.756 1511.93,668.118 1512.185,670.479 1512.421,672.841 1512.637,675.203 1512.833,677.564 1513.01,679.926 1513.167,682.288 1513.304,684.649 1513.421,687.011 1513.519,689.373 1513.597,691.734 1513.656,694.096 1513.695,696.458 1513.715,698.819 1513.715,701.181 1513.695,703.542 1513.656,705.904 1513.597,708.266 1513.519,710.627 1513.421,712.989 1513.304,715.351 1513.167,717.712 1513.01,720.074 1512.833,722.436 1512.637,724.797 1512.421,727.159 1512.185,729.521 1511.93,731.882 1511.654,734.244 1511.359,736.606 1511.043,738.967 1510.707,741.329 1510.352,743.691 1509.975,746.052 1509.579,748.414 1509.162,750.776 1508.725,753.137 1508.267,755.499 1507.788,757.861 1507.288,760.222 1506.768,762.584 1506.226,764.946 1505.663,767.307 1505.079,769.669 1504.474,772.03 1503.847,774.392 1503.198,776.754 1502.527,779.115 1501.835,781.477 1501.12,783.839 1500.382,786.2 1499.622,788.562 1498.84,790.924 1498.034,793.285 1497.205,795.647 1496.353,798.009 1495.477,800.37 1494.578,802.732 1493.654,805.094 1492.706,807.455 1491.734,809.817 1490.736,812.179 1489.713,814.54 1488.665,816.902 " />
</g>
</g>
<g><title>element</title>
<polyline fill="none" stroke="#7f7fff" points="1933.822,144.444 1933.822,155.668 1933.822,166.891 1933.822,178.114 1933.822,189.338 1933.822,200.561 1933.822,211.785 1933.822,223.008 1933.822,234.231 1933.822,245.455 1933.822,256.678 1933.822,267.901 1933.822,279.125 1933.822,290.348 1933.822,301.571 1933.822,312.795 1933.822,324.018 1933.822,335.241 1933.822,346.465 1933.822,357.688 1933.822,368.911 1933.822,380.135 1933.822,391.358 1933.822,402.581 1933.822,413.805 1933.822,425.028 1933.822,436.251 1933.822,447.475 1933.822,458.698 1933.822,469.921 1933.822,481.145 1933.822,492.368 1933.822,503.591 1933.822,514.815 1933.822,526.038 1933.822,537.262 1933.822,548.485 1933.822,559.708 1933.822,570.932 1933.822,582.155 1933.822,593.378 1933.822,604.602 1933.822,615.825 1933.822,627.048 1933.822,638.272 1933.822,649.495 1933.822,660.718 1933.822,671.942 1933.822,683.165 1933.822,694.388 1933.822,705.612 1933.822,716.835 1933.822,728.058 1933.822,739.282 1933.822,750.505 1933.822,761.728 1933.822,772.952 1933.822,784.175 1933.822,795.398 1933.822,806.622 1933.822,817.845 1933.822,829.068 1933.822,840.292 1933.822,851.515 1933.822,862.738 1933.822,873.962 1933.822,885.185 1933.822,896.409 1933.822,907.632 1933.822,918.855 1933.822,930.079 1933.822,941.302 1933.822,952.525 1933.822,963.749 1933.822,974.972 1933.822,986.195 1933.822,997.419 1933.822,1008.642 1933.822,1019.865 1933.822,1031.089 1933.822,1042.312 1933.822,1053.535 1933.822,1064.759 1933.822,1075.982 1933.822,1087.205 1933.822,1098.429 1933.822,1109.652 1933.822,1120.875 1933.822,1132.099 1933.822,1143.322 1933.822,1154.545 1933.822,1165.769 1933.822,1176.992 1933.822,1188.215 1933.822,1199.439 1933.822,1210.662 1933.822,1221.886 1933.822,1233.109 1933.822,1244.332 1933.822,1255.556 " />
</g>
</svg>
