<?xml version="1.0" standalone="no"?>
<svg width="300px" height="300px" version="1.1" xmlns="http://www.w3.org/2000/svg" xmlns:xlink="http://www.w3.org/1999/xlink">
<rect x="0" y="0" width="300" height="300"  fill="#000000" />
<defs>
<g id="dot">
<line x1="1" y1="1" x2="0" y2="0"  />
</g>
<g id="cross">
<line x1="-3" y1="0" x2="3" y2="0"  />
<line x1="0" y1="-3" x2="0" y2="3"  />
</g>
<g id="square">
<line x1="-3" y1="-3" x2="-3" y2="3"  />
<line x1="-3" y1="3" x2="3" y2="3"  />
<line x1="3" y1="3" x2="3" y2="-3"  />
<line x1="3" y1="-3" x2="-3" y2="-3"  />
</g>
<g id="round">
<ellipse cx="0" cy="0" rx="3" ry="3"  fill="none" /></g>
<g id="triangle">
<line x1="0" y1="-3" x2="-3" y2="3"  />
<line x1="-3" y1="3" x2="3" y2="3"  />
<line x1="0" y1="-3" x2="3" y2="3"  />
</g>
</defs>
<polygon fill="none" stroke="#ffffff" points="30.952,269.048 30.952,30.952 269.048,30.952 269.048,269.048 " />
<text style="font-size:12;text-align:center;text-anchor:middle;" x="150" y="298.262" fill="#ffffff">Sagittal distance (um)</text>
<use x="73.101" y="30.952" xlink:href="#cross"  stroke="#ffffff" />
<use x="73.101" y="269.048" xlink:href="#cross"  stroke="#ffffff" />
<text style="font-size:12;text-align:center;text-anchor:middle;" x="73.101" y="287.048" fill="#ffffff">-97</text>
<use x="152.466" y="30.952" xlink:href="#cross"  stroke="#ffffff" />
<use x="152.466" y="269.048" xlink:href="#cross"  stroke="#ffffff" />
<text style="font-size:12;text-align:center;text-anchor:middle;" x="152.466" y="287.048" fill="#ffffff">0</text>
<use x="231.831" y="30.952" xlink:href="#cross"  stroke="#ffffff" />
<use x="231.831" y="269.048" xlink:href="#cross"  stroke="#ffffff" />
<text style="font-size:12;text-align:center;text-anchor:middle;" x="231.831" y="287.048" fill="#ffffff">97</text>
<text style="font-size:12;text-align:center;text-anchor:middle;" x="7.738" y="156" transform="rotate(-90,7.738,150)" fill="#ffffff">Tangential distance (um)</text>
<use x="269.048" y="204.892" xlink:href="#cross"  stroke="#ffffff" />
<use x="30.952" y="204.892" xlink:href="#cross"  stroke="#ffffff" />
<text style="font-size:12;text-align:right;text-anchor:end;" x="24.952" y="210.892" fill="#ffffff">-97</text>
<use x="269.048" y="125.527" xlink:href="#cross"  stroke="#ffffff" />
<use x="30.952" y="125.527" xlink:href="#cross"  stroke="#ffffff" />
<text style="font-size:12;text-align:right;text-anchor:end;" x="24.952" y="131.527" fill="#ffffff">0</text>
<use x="269.048" y="46.162" xlink:href="#cross"  stroke="#ffffff" />
<use x="30.952" y="46.162" xlink:href="#cross"  stroke="#ffffff" />
<text style="font-size:12;text-align:right;text-anchor:end;" x="24.952" y="52.162" fill="#ffffff">97</text>
<use x="157.399" y="76.58" xlink:href="#dot"  stroke="#00ebff" />
<use x="197.016" y="66.197" xlink:href="#dot"  stroke="#00ebff" />
<use x="102.984" y="233.803" xlink:href="#dot"  stroke="#ff0000" />
</svg>
