<?xml version="1.0" standalone="no"?>
<svg width="300px" height="300px" version="1.1" xmlns="http://www.w3.org/2000/svg" xmlns:xlink="http://www.w3.org/1999/xlink">
<rect x="0" y="0" width="300" height="300"  fill="#000000" />
<defs>
<g id="dot">
<line x1="1" y1="1" x2="0" y2="0"  />
</g>
<g id="cross">
<line x1="-3" y1="0" x2="3" y2="0"  />
<line x1="0" y1="-3" x2="0" y2="3"  />
</g>
<g id="square">
<line x1="-3" y1="-3" x2="-3" y2="3"  />
<line x1="-3" y1="3" x2="3" y2="3"  />
<line x1="3" y1="3" x2="3" y2="-3"  />
<line x1="3" y1="-3" x2="-3" y2="-3"  />
</g>
<g id="round">
<ellipse cx="0" cy="0" rx="3" ry="3"  fill="none" /></g>
<g id="triangle">
<line x1="0" y1="-3" x2="-3" y2="3"  />
<line x1="-3" y1="3" x2="3" y2="3"  />
<line x1="0" y1="-3" x2="3" y2="3"  />
</g>
</defs>
<polygon fill="none" stroke="#ffffff" points="30.952,269.048 30.952,30.952 269.048,30.952 269.048,269.048 " />
<text style="font-size:12;text-align:center;text-anchor:middle;" x="150" y="298.262" fill="#ffffff">Sagittal distance (um)</text>
<use x="72.426" y="30.952" xlink:href="#cross"  stroke="#ffffff" />
<use x="72.426" y="269.048" xlink:href="#cross"  stroke="#ffffff" />
<text style="font-size:12;text-align:center;text-anchor:middle;" x="72.426" y="287.048" fill="#ffffff">-49</text>
<use x="151.791" y="30.952" xlink:href="#cross"  stroke="#ffffff" />
<use x="151.791" y="269.048" xlink:href="#cross"  stroke="#ffffff" />
<text style="font-size:12;text-align:center;text-anchor:middle;" x="151.791" y="287.048" fill="#ffffff">0</text>
<use x="231.156" y="30.952" xlink:href="#cross"  stroke="#ffffff" />
<use x="231.156" y="269.048" xlink:href="#cross"  stroke="#ffffff" />
<text style="font-size:12;text-align:center;text-anchor:middle;" x="231.156" y="287.048" fill="#ffffff">49</text>
<text style="font-size:12;text-align:center;text-anchor:middle;" x="7.738" y="156" transform="rotate(-90,7.738,150)" fill="#ffffff">Tangential distance (um)</text>
<use x="269.048" y="231.009" xlink:href="#cross"  stroke="#ffffff" />
<use x="30.952" y="231.009" xlink:href="#cross"  stroke="#ffffff" />
<text style="font-size:12;text-align:right;text-anchor:end;" x="24.952" y="237.009" fill="#ffffff">-49</text>
<use x="269.048" y="151.644" xlink:href="#cross"  stroke="#ffffff" />
<use x="30.952" y="151.644" xlink:href="#cross"  stroke="#ffffff" />
<text style="font-size:12;text-align:right;text-anchor:end;" x="24.952" y="157.644" fill="#ffffff">0</text>
<use x="269.048" y="72.279" xlink:href="#cross"  stroke="#ffffff" />
<use x="30.952" y="72.279" xlink:href="#cross"  stroke="#ffffff" />
<text style="font-size:12;text-align:right;text-anchor:end;" x="24.952" y="78.279" fill="#ffffff">49</text>
<use x="123.492" y="262.909" xlink:href="#dot"  stroke="#ffe100" />
<use x="37.71" y="185.67" xlink:href="#dot"  stroke="#ffe100" />
<use x="123.492" y="37.091" xlink:href="#dot"  stroke="#ffe100" />
<use x="262.29" y="137.934" xlink:href="#dot"  stroke="#ffe100" />
<use x="257.273" y="185.67" xlink:href="#dot"  stroke="#ffe100" />
<use x="95.587" y="179.967" xlink:href="#dot"  stroke="#ffe100" />
<use x="163.003" y="92.109" xlink:href="#dot"  stroke="#ffe100" />
<use x="191.962" y="105.529" xlink:href="#dot"  stroke="#00ebff" />
<use x="178.937" y="204.465" xlink:href="#dot"  stroke="#00ebff" />
<use x="147.491" y="164.178" xlink:href="#dot"  stroke="#ff0000" />
<use x="142.642" y="163.323" xlink:href="#dot"  stroke="#ff0000" />
<use x="130.161" y="160.006" xlink:href="#dot"  stroke="#ffe100" />
<use x="130.161" y="139.994" xlink:href="#dot"  stroke="#ffe100" />
<use x="142.642" y="136.677" xlink:href="#dot"  stroke="#ff0000" />
<use x="147.491" y="135.822" xlink:href="#dot"  stroke="#ff0000" />
<use x="152.341" y="136.677" xlink:href="#dot"  stroke="#ff0000" />
<use x="159.77" y="142.911" xlink:href="#dot"  stroke="#ff0000" />
<use x="169.109" y="137.519" xlink:href="#dot"  stroke="#00ebff" />
<use x="159.77" y="157.089" xlink:href="#dot"  stroke="#ff0000" />
<use x="154.336" y="168.805" xlink:href="#dot"  stroke="#ffe100" />
<use x="152.341" y="163.323" xlink:href="#dot"  stroke="#ff0000" />
<use x="147.834" y="149.406" xlink:href="#dot"  stroke="#ff0000" />
<use x="148.085" y="149.657" xlink:href="#dot"  stroke="#ff0000" />
<use x="148.085" y="150.343" xlink:href="#dot"  stroke="#ff0000" />
<use x="147.834" y="150.594" xlink:href="#dot"  stroke="#ff0000" />
<use x="147.148" y="150.594" xlink:href="#dot"  stroke="#ff0000" />
<use x="146.897" y="150.343" xlink:href="#dot"  stroke="#ff0000" />
<use x="146.897" y="149.657" xlink:href="#dot"  stroke="#ff0000" />
<use x="147.148" y="149.406" xlink:href="#dot"  stroke="#ff0000" />
</svg>
