<?xml version="1.0" standalone="no"?>
<svg width="2400px" height="1400px" version="1.1" xmlns="http://www.w3.org/2000/svg" xmlns:xlink="http://www.w3.org/1999/xlink">
<rect x="0" y="0" width="2400" height="1400"  fill="#ffffff" />
<defs>
<g id="dot">
<line x1="1" y1="1" x2="0" y2="0"  />
</g>
<g id="cross">
<line x1="-3" y1="0" x2="3" y2="0"  />
<line x1="0" y1="-3" x2="0" y2="3"  />
</g>
<g id="square">
<line x1="-3" y1="-3" x2="-3" y2="3"  />
<line x1="-3" y1="3" x2="3" y2="3"  />
<line x1="3" y1="3" x2="3" y2="-3"  />
<line x1="3" y1="-3" x2="-3" y2="-3"  />
</g>
<g id="round">
<ellipse cx="0" cy="0" rx="3" ry="3"  fill="none" /></g>
<g id="triangle">
<line x1="0" y1="-3" x2="-3" y2="3"  />
<line x1="-3" y1="3" x2="3" y2="3"  />
<line x1="0" y1="-3" x2="3" y2="3"  />
</g>
</defs>
<line x1="247.619" y1="700" x2="2152.381" y2="700"  stroke="#7f7f7f" />
<g><title>element</title>
<g>
<line x1="1441.385" y1="539.059" x2="1441.385" y2="378.118"  stroke="#7f7fff" />
<line x1="1441.385" y1="860.941" x2="1441.385" y2="1021.882"  stroke="#7f7fff" />
</g>
<g>
<polyline fill="none" stroke="#7f7fff" points="266.348,383.168 267.095,389.569 267.825,395.969 268.541,402.37 269.241,408.77 269.926,415.171 270.595,421.572 271.249,427.972 271.888,434.373 272.511,440.774 273.119,447.174 273.711,453.575 274.289,459.976 274.851,466.376 275.397,472.777 275.929,479.178 276.445,485.578 276.946,491.979 277.431,498.38 277.901,504.78 278.356,511.181 278.796,517.581 279.221,523.982 279.63,530.383 280.024,536.783 280.403,543.184 280.767,549.585 281.115,555.985 281.449,562.386 281.767,568.787 282.07,575.187 282.357,581.588 282.63,587.989 282.887,594.389 283.13,600.79 283.357,607.191 283.569,613.591 283.765,619.992 283.947,626.393 284.114,632.793 284.265,639.194 284.401,645.594 284.522,651.995 284.628,658.396 284.719,664.796 284.794,671.197 284.855,677.598 284.9,683.998 284.931,690.399 284.946,696.8 284.946,703.2 284.931,709.601 284.9,716.002 284.855,722.402 284.794,728.803 284.719,735.204 284.628,741.604 284.522,748.005 284.401,754.406 284.265,760.806 284.114,767.207 283.947,773.607 283.765,780.008 283.569,786.409 283.357,792.809 283.13,799.21 282.887,805.611 282.63,812.011 282.357,818.412 282.07,824.813 281.767,831.213 281.449,837.614 281.115,844.015 280.767,850.415 280.403,856.816 280.024,863.217 279.63,869.617 279.221,876.018 278.796,882.419 278.356,888.819 277.901,895.22 277.431,901.62 276.946,908.021 276.445,914.422 275.929,920.822 275.397,927.223 274.851,933.624 274.289,940.024 273.711,946.425 273.119,952.826 272.511,959.226 271.888,965.627 271.249,972.028 270.595,978.428 269.926,984.829 269.241,991.23 268.541,997.63 267.825,1004.031 267.095,1010.431 266.348,1016.832 " />
<line x1="416.623" y1="383.168" x2="416.623" y2="418.268"  stroke="#7f7fff" />
<line x1="266.348" y1="383.168" x2="416.623" y2="383.168"  stroke="#7f7fff" />
<line x1="416.623" y1="1016.832" x2="416.623" y2="981.732"  stroke="#7f7fff" />
<line x1="266.348" y1="1016.832" x2="416.623" y2="1016.832"  stroke="#7f7fff" />
<polyline fill="none" stroke="#7f7fff" points="416.623,418.268 412.398,423.959 408.304,429.651 404.337,435.342 400.494,441.034 396.771,446.726 393.164,452.417 389.671,458.109 386.288,463.8 383.012,469.492 379.842,475.183 376.774,480.875 373.807,486.566 370.938,492.258 368.166,497.95 365.487,503.641 362.902,509.333 360.407,515.024 358.002,520.716 355.684,526.407 353.453,532.099 351.307,537.79 349.245,543.482 347.266,549.174 345.368,554.865 343.551,560.557 341.814,566.248 340.155,571.94 338.574,577.631 337.07,583.323 335.642,589.015 334.29,594.706 333.013,600.398 331.81,606.089 330.68,611.781 329.624,617.472 328.64,623.164 327.729,628.855 326.889,634.547 326.12,640.239 325.423,645.93 324.796,651.622 324.239,657.313 323.753,663.005 323.336,668.696 322.99,674.388 322.712,680.08 322.504,685.771 322.366,691.463 322.297,697.154 322.297,702.846 322.366,708.537 322.504,714.229 322.712,719.92 322.99,725.612 323.336,731.304 323.753,736.995 324.239,742.687 324.796,748.378 325.423,754.07 326.12,759.761 326.889,765.453 327.729,771.145 328.64,776.836 329.624,782.528 330.68,788.219 331.81,793.911 333.013,799.602 334.29,805.294 335.642,810.985 337.07,816.677 338.574,822.369 340.155,828.06 341.814,833.752 343.551,839.443 345.368,845.135 347.266,850.826 349.245,856.518 351.307,862.21 353.453,867.901 355.684,873.593 358.002,879.284 360.407,884.976 362.902,890.667 365.487,896.359 368.166,902.05 370.938,907.742 373.807,913.434 376.774,919.125 379.842,924.817 383.012,930.508 386.288,936.2 389.671,941.891 393.164,947.583 396.771,953.274 400.494,958.966 404.337,964.658 408.304,970.349 412.398,976.041 416.623,981.732 " />
</g>
<g>
<polyline fill="none" stroke="#7f7fff" points="440.641,427.976 441.975,433.472 443.279,438.967 444.555,444.462 445.803,449.958 447.022,455.453 448.213,460.949 449.375,466.444 450.509,471.94 451.616,477.435 452.694,482.93 453.744,488.426 454.766,493.921 455.76,499.417 456.727,504.912 457.666,510.408 458.578,515.903 459.462,521.399 460.318,526.894 461.148,532.389 461.949,537.885 462.724,543.38 463.471,548.876 464.191,554.371 464.885,559.867 465.551,565.362 466.19,570.857 466.802,576.353 467.387,581.848 467.945,587.344 468.477,592.839 468.981,598.335 469.459,603.83 469.91,609.325 470.335,614.821 470.732,620.316 471.103,625.812 471.448,631.307 471.766,636.803 472.057,642.298 472.322,647.793 472.56,653.289 472.772,658.784 472.957,664.28 473.116,669.775 473.248,675.271 473.354,680.766 473.433,686.261 473.486,691.757 473.513,697.252 473.513,702.748 473.486,708.243 473.433,713.739 473.354,719.234 473.248,724.729 473.116,730.225 472.957,735.72 472.772,741.216 472.56,746.711 472.322,752.207 472.057,757.702 471.766,763.197 471.448,768.693 471.103,774.188 470.732,779.684 470.335,785.179 469.91,790.675 469.459,796.17 468.981,801.665 468.477,807.161 467.945,812.656 467.387,818.152 466.802,823.647 466.19,829.143 465.551,834.638 464.885,840.133 464.191,845.629 463.471,851.124 462.724,856.62 461.949,862.115 461.148,867.611 460.318,873.106 459.462,878.601 458.578,884.097 457.666,889.592 456.727,895.088 455.76,900.583 454.766,906.079 453.744,911.574 452.694,917.07 451.616,922.565 450.509,928.06 449.375,933.556 448.213,939.051 447.022,944.547 445.803,950.042 444.555,955.538 443.279,961.033 441.975,966.528 440.641,972.024 " />
<line x1="440.641" y1="399.411" x2="440.641" y2="427.976"  stroke="#7f7fff" />
<line x1="440.641" y1="399.411" x2="471.213" y2="399.411"  stroke="#7f7fff" />
<line x1="440.641" y1="1000.589" x2="440.641" y2="972.024"  stroke="#7f7fff" />
<line x1="440.641" y1="1000.589" x2="471.213" y2="1000.589"  stroke="#7f7fff" />
<polyline fill="none" stroke="#7f7fff" points="471.213,399.411 474.275,405.483 477.26,411.556 480.167,417.628 482.999,423.701 485.757,429.773 488.442,435.846 491.053,441.918 493.594,447.991 496.063,454.063 498.463,460.136 500.794,466.208 503.057,472.281 505.252,478.353 507.381,484.426 509.443,490.498 511.441,496.571 513.373,502.644 515.241,508.716 517.045,514.789 518.787,520.861 520.466,526.934 522.083,533.006 523.638,539.079 525.132,545.151 526.565,551.224 527.938,557.296 529.251,563.369 530.504,569.441 531.699,575.514 532.834,581.586 533.911,587.659 534.929,593.731 535.889,599.804 536.792,605.876 537.637,611.949 538.425,618.021 539.155,624.094 539.829,630.166 540.446,636.239 541.006,642.311 541.51,648.384 541.958,654.456 542.349,660.529 542.685,666.601 542.964,672.674 543.187,678.746 543.355,684.819 543.466,690.891 543.522,696.964 543.522,703.036 543.466,709.109 543.355,715.181 543.187,721.254 542.964,727.326 542.685,733.399 542.349,739.471 541.958,745.544 541.51,751.616 541.006,757.689 540.446,763.761 539.829,769.834 539.155,775.906 538.425,781.979 537.637,788.051 536.792,794.124 535.889,800.196 534.929,806.269 533.911,812.341 532.834,818.414 531.699,824.486 530.504,830.559 529.251,836.631 527.938,842.704 526.565,848.776 525.132,854.849 523.638,860.921 522.083,866.994 520.466,873.066 518.787,879.139 517.045,885.211 515.241,891.284 513.373,897.356 511.441,903.429 509.443,909.502 507.381,915.574 505.252,921.647 503.057,927.719 500.794,933.792 498.463,939.864 496.063,945.937 493.594,952.009 491.053,958.082 488.442,964.154 485.757,970.227 482.999,976.299 480.167,982.372 477.26,988.444 474.275,994.517 471.213,1000.589 " />
</g>
<g>
<polyline fill="none" stroke="#7f7fff" points="562.73,416.307 566.714,422.039 570.579,427.77 574.328,433.501 577.965,439.232 581.493,444.963 584.913,450.694 588.23,456.425 591.445,462.157 594.56,467.888 597.578,473.619 600.5,479.35 603.329,485.081 606.067,490.812 608.714,496.544 611.273,502.275 613.745,508.006 616.131,513.737 618.433,519.468 620.652,525.199 622.79,530.931 624.847,536.662 626.824,542.393 628.723,548.124 630.544,553.855 632.289,559.586 633.957,565.318 635.551,571.049 637.07,576.78 638.516,582.511 639.889,588.242 641.19,593.973 642.419,599.705 643.577,605.436 644.664,611.167 645.681,616.898 646.628,622.629 647.506,628.36 648.315,634.092 649.055,639.823 649.728,645.554 650.332,651.285 650.868,657.016 651.337,662.747 651.739,668.479 652.073,674.21 652.34,679.941 652.541,685.672 652.674,691.403 652.741,697.134 652.741,702.866 652.674,708.597 652.541,714.328 652.34,720.059 652.073,725.79 651.739,731.521 651.337,737.253 650.868,742.984 650.332,748.715 649.728,754.446 649.055,760.177 648.315,765.908 647.506,771.64 646.628,777.371 645.681,783.102 644.664,788.833 643.577,794.564 642.419,800.295 641.19,806.027 639.889,811.758 638.516,817.489 637.07,823.22 635.551,828.951 633.957,834.682 632.289,840.414 630.544,846.145 628.723,851.876 626.824,857.607 624.847,863.338 622.79,869.069 620.652,874.801 618.433,880.532 616.131,886.263 613.745,891.994 611.273,897.725 608.714,903.456 606.067,909.188 603.329,914.919 600.5,920.65 597.578,926.381 594.56,932.112 591.445,937.843 588.23,943.575 584.913,949.306 581.493,955.037 577.965,960.768 574.328,966.499 570.579,972.23 566.714,977.961 562.73,983.693 " />
<line x1="562.73" y1="369.912" x2="562.73" y2="416.307"  stroke="#7f7fff" />
<line x1="562.73" y1="369.912" x2="682.158" y2="369.912"  stroke="#7f7fff" />
<line x1="562.73" y1="1030.088" x2="562.73" y2="983.693"  stroke="#7f7fff" />
<line x1="562.73" y1="1030.088" x2="682.158" y2="1030.088"  stroke="#7f7fff" />
<polyline fill="none" stroke="#7f7fff" points="682.158,369.912 682.513,376.581 682.86,383.249 683.201,389.917 683.534,396.586 683.86,403.254 684.178,409.923 684.489,416.591 684.793,423.26 685.09,429.928 685.38,436.596 685.662,443.265 685.937,449.933 686.205,456.602 686.465,463.27 686.718,469.939 686.964,476.607 687.203,483.276 687.435,489.944 687.659,496.612 687.876,503.281 688.086,509.949 688.288,516.618 688.484,523.286 688.672,529.955 688.853,536.623 689.026,543.292 689.192,549.96 689.352,556.628 689.503,563.297 689.648,569.965 689.786,576.634 689.916,583.302 690.039,589.971 690.154,596.639 690.263,603.308 690.364,609.976 690.458,616.644 690.545,623.313 690.624,629.981 690.697,636.65 690.762,643.318 690.82,649.987 690.87,656.655 690.914,663.324 690.95,669.992 690.979,676.66 691,683.329 691.015,689.997 691.022,696.666 691.022,703.334 691.015,710.003 691,716.671 690.979,723.34 690.95,730.008 690.914,736.676 690.87,743.345 690.82,750.013 690.762,756.682 690.697,763.35 690.624,770.019 690.545,776.687 690.458,783.356 690.364,790.024 690.263,796.692 690.154,803.361 690.039,810.029 689.916,816.698 689.786,823.366 689.648,830.035 689.503,836.703 689.352,843.372 689.192,850.04 689.026,856.708 688.853,863.377 688.672,870.045 688.484,876.714 688.288,883.382 688.086,890.051 687.876,896.719 687.659,903.388 687.435,910.056 687.203,916.724 686.964,923.393 686.718,930.061 686.465,936.73 686.205,943.398 685.937,950.067 685.662,956.735 685.38,963.404 685.09,970.072 684.793,976.74 684.489,983.409 684.178,990.077 683.86,996.746 683.534,1003.414 683.201,1010.083 682.86,1016.751 682.513,1023.419 682.158,1030.088 " />
</g>
<g>
<polyline fill="none" stroke="#7f7fff" points="718.302,350.028 717.696,357.099 717.101,364.169 716.519,371.239 715.95,378.309 715.393,385.379 714.849,392.449 714.317,399.519 713.797,406.589 713.29,413.66 712.795,420.73 712.313,427.8 711.843,434.87 711.386,441.94 710.94,449.01 710.508,456.08 710.088,463.151 709.68,470.221 709.284,477.291 708.901,484.361 708.531,491.431 708.172,498.501 707.827,505.571 707.493,512.641 707.172,519.712 706.863,526.782 706.567,533.852 706.283,540.922 706.011,547.992 705.752,555.062 705.505,562.132 705.27,569.203 705.048,576.273 704.838,583.343 704.641,590.413 704.456,597.483 704.283,604.553 704.123,611.623 703.975,618.693 703.839,625.764 703.715,632.834 703.604,639.904 703.506,646.974 703.419,654.044 703.345,661.114 703.284,668.184 703.234,675.255 703.197,682.325 703.173,689.395 703.16,696.465 703.16,703.535 703.173,710.605 703.197,717.675 703.234,724.745 703.284,731.816 703.345,738.886 703.419,745.956 703.506,753.026 703.604,760.096 703.715,767.166 703.839,774.236 703.975,781.307 704.123,788.377 704.283,795.447 704.456,802.517 704.641,809.587 704.838,816.657 705.048,823.727 705.27,830.797 705.505,837.868 705.752,844.938 706.011,852.008 706.283,859.078 706.567,866.148 706.863,873.218 707.172,880.288 707.493,887.359 707.827,894.429 708.172,901.499 708.531,908.569 708.901,915.639 709.284,922.709 709.68,929.779 710.088,936.849 710.508,943.92 710.94,950.99 711.386,958.06 711.843,965.13 712.313,972.2 712.795,979.27 713.29,986.34 713.797,993.411 714.317,1000.481 714.849,1007.551 715.393,1014.621 715.95,1021.691 716.519,1028.761 717.101,1035.831 717.696,1042.901 718.302,1049.972 " />
<line x1="718.302" y1="350.028" x2="749.507" y2="350.028"  stroke="#7f7fff" />
<line x1="718.302" y1="1049.972" x2="749.507" y2="1049.972"  stroke="#7f7fff" />
<polyline fill="none" stroke="#7f7fff" points="749.507,350.028 755.009,357.099 760.334,364.169 765.488,371.239 770.477,378.309 775.306,385.379 779.979,392.449 784.503,399.519 788.88,406.589 793.115,413.66 797.212,420.73 801.173,427.8 805.003,434.87 808.703,441.94 812.278,449.01 815.729,456.08 819.06,463.151 822.271,470.221 825.367,477.291 828.348,484.361 831.217,491.431 833.975,498.501 836.625,505.571 839.168,512.641 841.605,519.712 843.937,526.782 846.167,533.852 848.296,540.922 850.324,547.992 852.253,555.062 854.083,562.132 855.817,569.203 857.454,576.273 858.996,583.343 860.443,590.413 861.796,597.483 863.057,604.553 864.224,611.623 865.3,618.693 866.284,625.764 867.177,632.834 867.98,639.904 868.692,646.974 869.315,654.044 869.848,661.114 870.292,668.184 870.647,675.255 870.913,682.325 871.09,689.395 871.179,696.465 871.179,703.535 871.09,710.605 870.913,717.675 870.647,724.745 870.292,731.816 869.848,738.886 869.315,745.956 868.692,753.026 867.98,760.096 867.177,767.166 866.284,774.236 865.3,781.307 864.224,788.377 863.057,795.447 861.796,802.517 860.443,809.587 858.996,816.657 857.454,823.727 855.817,830.797 854.083,837.868 852.253,844.938 850.324,852.008 848.296,859.078 846.167,866.148 843.937,873.218 841.605,880.288 839.168,887.359 836.625,894.429 833.975,901.499 831.217,908.569 828.348,915.639 825.367,922.709 822.271,929.779 819.06,936.849 815.729,943.92 812.278,950.99 808.703,958.06 805.003,965.13 801.173,972.2 797.212,979.27 793.115,986.34 788.88,993.411 784.503,1000.481 779.979,1007.551 775.306,1014.621 770.477,1021.691 765.488,1028.761 760.334,1035.831 755.009,1042.901 749.507,1049.972 " />
</g>
<g>
<polyline fill="none" stroke="#7f7fff" points="955.075,364.124 951.64,370.91 948.293,377.695 945.031,384.48 941.855,391.266 938.762,398.051 935.751,404.837 932.822,411.622 929.973,418.407 927.204,425.193 924.513,431.978 921.899,438.763 919.362,445.549 916.9,452.334 914.513,459.119 912.201,465.905 909.962,472.69 907.795,479.476 905.701,486.261 903.678,493.046 901.725,499.832 899.843,506.617 898.031,513.402 896.287,520.188 894.612,526.973 893.006,533.759 891.467,540.544 889.995,547.329 888.59,554.115 887.251,560.9 885.978,567.685 884.771,574.471 883.63,581.256 882.553,588.041 881.542,594.827 880.594,601.612 879.712,608.398 878.893,615.183 878.137,621.968 877.446,628.754 876.818,635.539 876.253,642.324 875.751,649.11 875.313,655.895 874.937,662.68 874.624,669.466 874.373,676.251 874.186,683.037 874.061,689.822 873.998,696.607 873.998,703.393 874.061,710.178 874.186,716.963 874.373,723.749 874.624,730.534 874.937,737.32 875.313,744.105 875.751,750.89 876.253,757.676 876.818,764.461 877.446,771.246 878.137,778.032 878.893,784.817 879.712,791.602 880.594,798.388 881.542,805.173 882.553,811.959 883.63,818.744 884.771,825.529 885.978,832.315 887.251,839.1 888.59,845.885 889.995,852.671 891.467,859.456 893.006,866.241 894.612,873.027 896.287,879.812 898.031,886.598 899.843,893.383 901.725,900.168 903.678,906.954 905.701,913.739 907.795,920.524 909.962,927.31 912.201,934.095 914.513,940.881 916.9,947.666 919.362,954.451 921.899,961.237 924.513,968.022 927.204,974.807 929.973,981.593 932.822,988.378 935.751,995.163 938.762,1001.949 941.855,1008.734 945.031,1015.52 948.293,1022.305 951.64,1029.09 955.075,1035.876 " />
<line x1="955.075" y1="364.124" x2="986.767" y2="364.124"  stroke="#7f7fff" />
<line x1="955.075" y1="1035.876" x2="986.767" y2="1035.876"  stroke="#7f7fff" />
<polyline fill="none" stroke="#7f7fff" points="986.767,364.124 988.016,370.91 989.239,377.695 990.436,384.48 991.607,391.266 992.751,398.051 993.869,404.837 994.962,411.622 996.028,418.407 997.068,425.193 998.082,431.978 999.07,438.763 1000.033,445.549 1000.97,452.334 1001.88,459.119 1002.765,465.905 1003.625,472.69 1004.459,479.476 1005.267,486.261 1006.049,493.046 1006.806,499.832 1007.538,506.617 1008.244,513.402 1008.924,520.188 1009.579,526.973 1010.209,533.759 1010.813,540.544 1011.392,547.329 1011.945,554.115 1012.474,560.9 1012.976,567.685 1013.454,574.471 1013.906,581.256 1014.334,588.041 1014.736,594.827 1015.112,601.612 1015.464,608.398 1015.79,615.183 1016.091,621.968 1016.367,628.754 1016.618,635.539 1016.844,642.324 1017.045,649.11 1017.221,655.895 1017.371,662.68 1017.496,669.466 1017.597,676.251 1017.672,683.037 1017.722,689.822 1017.747,696.607 1017.747,703.393 1017.722,710.178 1017.672,716.963 1017.597,723.749 1017.496,730.534 1017.371,737.32 1017.221,744.105 1017.045,750.89 1016.844,757.676 1016.618,764.461 1016.367,771.246 1016.091,778.032 1015.79,784.817 1015.464,791.602 1015.112,798.388 1014.736,805.173 1014.334,811.959 1013.906,818.744 1013.454,825.529 1012.976,832.315 1012.474,839.1 1011.945,845.885 1011.392,852.671 1010.813,859.456 1010.209,866.241 1009.579,873.027 1008.924,879.812 1008.244,886.598 1007.538,893.383 1006.806,900.168 1006.049,906.954 1005.267,913.739 1004.459,920.524 1003.625,927.31 1002.765,934.095 1001.88,940.881 1000.97,947.666 1000.033,954.451 999.07,961.237 998.082,968.022 997.068,974.807 996.028,981.593 994.962,988.378 993.869,995.163 992.751,1001.949 991.607,1008.734 990.436,1015.52 989.239,1022.305 988.016,1029.09 986.767,1035.876 " />
</g>
<g>
<polyline fill="none" stroke="#7f7fff" points="1211.188,426.389 1206.796,431.917 1202.547,437.444 1198.437,442.972 1194.46,448.499 1190.612,454.027 1186.889,459.554 1183.287,465.082 1179.803,470.609 1176.433,476.137 1173.175,481.664 1170.025,487.192 1166.98,492.719 1164.039,498.247 1161.198,503.774 1158.456,509.302 1155.811,514.829 1153.261,520.357 1150.803,525.884 1148.437,531.412 1146.16,536.939 1143.971,542.467 1141.868,547.994 1139.851,553.521 1137.918,559.049 1136.068,564.576 1134.3,570.104 1132.612,575.631 1131.004,581.159 1129.475,586.686 1128.024,592.214 1126.65,597.741 1125.353,603.269 1124.131,608.796 1122.984,614.324 1121.912,619.851 1120.913,625.379 1119.988,630.906 1119.136,636.434 1118.357,641.961 1117.649,647.489 1117.014,653.016 1116.449,658.544 1115.956,664.071 1115.534,669.599 1115.182,675.126 1114.901,680.654 1114.69,686.181 1114.55,691.709 1114.48,697.236 1114.48,702.764 1114.55,708.291 1114.69,713.819 1114.901,719.346 1115.182,724.874 1115.534,730.401 1115.956,735.929 1116.449,741.456 1117.014,746.984 1117.649,752.511 1118.357,758.039 1119.136,763.566 1119.988,769.094 1120.913,774.621 1121.912,780.149 1122.984,785.676 1124.131,791.204 1125.353,796.731 1126.65,802.259 1128.024,807.786 1129.475,813.314 1131.004,818.841 1132.612,824.369 1134.3,829.896 1136.068,835.424 1137.918,840.951 1139.851,846.479 1141.868,852.006 1143.971,857.533 1146.16,863.061 1148.437,868.588 1150.803,874.116 1153.261,879.643 1155.811,885.171 1158.456,890.698 1161.198,896.226 1164.039,901.753 1166.98,907.281 1170.025,912.808 1173.175,918.336 1176.433,923.863 1179.803,929.391 1183.287,934.918 1186.889,940.446 1190.612,945.973 1194.46,951.501 1198.437,957.028 1202.547,962.556 1206.796,968.083 1211.188,973.611 " />
<line x1="1245.063" y1="426.389" x2="1245.063" y2="441.045"  stroke="#7f7fff" />
<line x1="1211.188" y1="426.389" x2="1245.063" y2="426.389"  stroke="#7f7fff" />
<line x1="1245.063" y1="973.611" x2="1245.063" y2="958.955"  stroke="#7f7fff" />
<line x1="1211.188" y1="973.611" x2="1245.063" y2="973.611"  stroke="#7f7fff" />
<polyline fill="none" stroke="#7f7fff" points="1245.063,441.045 1246.084,446.277 1247.084,451.508 1248.062,456.739 1249.019,461.971 1249.954,467.202 1250.868,472.434 1251.761,477.665 1252.632,482.897 1253.481,488.128 1254.31,493.359 1255.117,498.591 1255.904,503.822 1256.669,509.054 1257.412,514.285 1258.135,519.516 1258.837,524.748 1259.518,529.979 1260.178,535.211 1260.817,540.442 1261.435,545.673 1262.032,550.905 1262.608,556.136 1263.164,561.368 1263.698,566.599 1264.212,571.83 1264.705,577.062 1265.178,582.293 1265.63,587.525 1266.061,592.756 1266.471,597.988 1266.861,603.219 1267.23,608.45 1267.579,613.682 1267.907,618.913 1268.214,624.145 1268.501,629.376 1268.767,634.607 1269.013,639.839 1269.238,645.07 1269.443,650.302 1269.627,655.533 1269.791,660.764 1269.934,665.996 1270.057,671.227 1270.159,676.459 1270.241,681.69 1270.303,686.921 1270.344,692.153 1270.364,697.384 1270.364,702.616 1270.344,707.847 1270.303,713.079 1270.241,718.31 1270.159,723.541 1270.057,728.773 1269.934,734.004 1269.791,739.236 1269.627,744.467 1269.443,749.698 1269.238,754.93 1269.013,760.161 1268.767,765.393 1268.501,770.624 1268.214,775.855 1267.907,781.087 1267.579,786.318 1267.23,791.55 1266.861,796.781 1266.471,802.012 1266.061,807.244 1265.63,812.475 1265.178,817.707 1264.705,822.938 1264.212,828.17 1263.698,833.401 1263.164,838.632 1262.608,843.864 1262.032,849.095 1261.435,854.327 1260.817,859.558 1260.178,864.789 1259.518,870.021 1258.837,875.252 1258.135,880.484 1257.412,885.715 1256.669,890.946 1255.904,896.178 1255.117,901.409 1254.31,906.641 1253.481,911.872 1252.632,917.103 1251.761,922.335 1250.868,927.566 1249.954,932.798 1249.019,938.029 1248.062,943.261 1247.084,948.492 1246.084,953.723 1245.063,958.955 " />
<line x1="1331.774" y1="441.045" x2="1331.774" y2="485.527"  stroke="#7f7fff" />
<line x1="1245.063" y1="441.045" x2="1331.774" y2="441.045"  stroke="#7f7fff" />
<line x1="1331.774" y1="958.955" x2="1331.774" y2="914.473"  stroke="#7f7fff" />
<line x1="1245.063" y1="958.955" x2="1331.774" y2="958.955"  stroke="#7f7fff" />
<polyline fill="none" stroke="#7f7fff" points="1331.774,485.527 1330.799,489.86 1329.846,494.192 1328.913,498.525 1328.001,502.858 1327.11,507.191 1326.239,511.524 1325.389,515.856 1324.56,520.189 1323.75,524.522 1322.962,528.855 1322.193,533.188 1321.445,537.52 1320.717,541.853 1320.01,546.186 1319.322,550.519 1318.655,554.852 1318.007,559.184 1317.38,563.517 1316.773,567.85 1316.186,572.183 1315.618,576.515 1315.071,580.848 1314.543,585.181 1314.035,589.514 1313.547,593.847 1313.079,598.179 1312.63,602.512 1312.201,606.845 1311.792,611.178 1311.402,615.511 1311.032,619.843 1310.682,624.176 1310.351,628.509 1310.04,632.842 1309.748,637.175 1309.476,641.507 1309.224,645.84 1308.991,650.173 1308.777,654.506 1308.583,658.838 1308.408,663.171 1308.253,667.504 1308.117,671.837 1308,676.17 1307.903,680.502 1307.826,684.835 1307.767,689.168 1307.729,693.501 1307.709,697.834 1307.709,702.166 1307.729,706.499 1307.767,710.832 1307.826,715.165 1307.903,719.498 1308,723.83 1308.117,728.163 1308.253,732.496 1308.408,736.829 1308.583,741.162 1308.777,745.494 1308.991,749.827 1309.224,754.16 1309.476,758.493 1309.748,762.825 1310.04,767.158 1310.351,771.491 1310.682,775.824 1311.032,780.157 1311.402,784.489 1311.792,788.822 1312.201,793.155 1312.63,797.488 1313.079,801.821 1313.547,806.153 1314.035,810.486 1314.543,814.819 1315.071,819.152 1315.618,823.485 1316.186,827.817 1316.773,832.15 1317.38,836.483 1318.007,840.816 1318.655,845.148 1319.322,849.481 1320.01,853.814 1320.717,858.147 1321.445,862.48 1322.193,866.812 1322.962,871.145 1323.75,875.478 1324.56,879.811 1325.389,884.144 1326.239,888.476 1327.11,892.809 1328.001,897.142 1328.913,901.475 1329.846,905.808 1330.799,910.14 1331.774,914.473 " />
</g>
<g>
<polyline fill="none" stroke="#7f7fff" points="1340.796,490.801 1339.871,495.027 1338.967,499.254 1338.083,503.48 1337.218,507.706 1336.372,511.932 1335.544,516.159 1334.735,520.385 1333.943,524.611 1333.168,528.837 1332.411,533.064 1331.671,537.29 1330.948,541.516 1330.242,545.742 1329.553,549.969 1328.881,554.195 1328.226,558.421 1327.589,562.647 1326.969,566.873 1326.366,571.1 1325.781,575.326 1325.213,579.552 1324.663,583.778 1324.131,588.005 1323.617,592.231 1323.122,596.457 1322.644,600.683 1322.186,604.91 1321.746,609.136 1321.324,613.362 1320.922,617.588 1320.539,621.815 1320.175,626.041 1319.83,630.267 1319.505,634.493 1319.2,638.72 1318.915,642.946 1318.649,647.172 1318.403,651.398 1318.178,655.624 1317.972,659.851 1317.787,664.077 1317.623,668.303 1317.478,672.529 1317.354,676.756 1317.251,680.982 1317.169,685.208 1317.107,689.434 1317.065,693.661 1317.044,697.887 1317.044,702.113 1317.065,706.339 1317.107,710.566 1317.169,714.792 1317.251,719.018 1317.354,723.244 1317.478,727.471 1317.623,731.697 1317.787,735.923 1317.972,740.149 1318.178,744.376 1318.403,748.602 1318.649,752.828 1318.915,757.054 1319.2,761.28 1319.505,765.507 1319.83,769.733 1320.175,773.959 1320.539,778.185 1320.922,782.412 1321.324,786.638 1321.746,790.864 1322.186,795.09 1322.644,799.317 1323.122,803.543 1323.617,807.769 1324.131,811.995 1324.663,816.222 1325.213,820.448 1325.781,824.674 1326.366,828.9 1326.969,833.127 1327.589,837.353 1328.226,841.579 1328.881,845.805 1329.553,850.031 1330.242,854.258 1330.948,858.484 1331.671,862.71 1332.411,866.936 1333.168,871.163 1333.943,875.389 1334.735,879.615 1335.544,883.841 1336.372,888.068 1337.218,892.294 1338.083,896.52 1338.967,900.746 1339.871,904.973 1340.796,909.199 " />
<line x1="1411.083" y1="490.801" x2="1411.083" y2="526.041"  stroke="#7f7fff" />
<line x1="1340.796" y1="490.801" x2="1411.083" y2="490.801"  stroke="#7f7fff" />
<line x1="1411.083" y1="909.199" x2="1411.083" y2="873.959"  stroke="#7f7fff" />
<line x1="1340.796" y1="909.199" x2="1411.083" y2="909.199"  stroke="#7f7fff" />
<polyline fill="none" stroke="#7f7fff" points="1411.083,526.041 1408.559,529.555 1406.112,533.07 1403.74,536.584 1401.44,540.098 1399.21,543.613 1397.049,547.127 1394.955,550.641 1392.925,554.156 1390.96,557.67 1389.057,561.184 1387.215,564.699 1385.432,568.213 1383.708,571.727 1382.041,575.242 1380.43,578.756 1378.874,582.27 1377.373,585.785 1375.925,589.299 1374.529,592.813 1373.185,596.327 1371.893,599.842 1370.65,603.356 1369.457,606.87 1368.313,610.385 1367.218,613.899 1366.17,617.413 1365.169,620.928 1364.216,624.442 1363.308,627.956 1362.447,631.471 1361.631,634.985 1360.86,638.499 1360.133,642.014 1359.451,645.528 1358.814,649.042 1358.22,652.557 1357.669,656.071 1357.162,659.585 1356.698,663.1 1356.276,666.614 1355.897,670.128 1355.561,673.643 1355.267,677.157 1355.016,680.671 1354.806,684.186 1354.639,687.7 1354.513,691.214 1354.429,694.729 1354.387,698.243 1354.387,701.757 1354.429,705.271 1354.513,708.786 1354.639,712.3 1354.806,715.814 1355.016,719.329 1355.267,722.843 1355.561,726.357 1355.897,729.872 1356.276,733.386 1356.698,736.9 1357.162,740.415 1357.669,743.929 1358.22,747.443 1358.814,750.958 1359.451,754.472 1360.133,757.986 1360.86,761.501 1361.631,765.015 1362.447,768.529 1363.308,772.044 1364.216,775.558 1365.169,779.072 1366.17,782.587 1367.218,786.101 1368.313,789.615 1369.457,793.13 1370.65,796.644 1371.893,800.158 1373.185,803.673 1374.529,807.187 1375.925,810.701 1377.373,814.215 1378.874,817.73 1380.43,821.244 1382.041,824.758 1383.708,828.273 1385.432,831.787 1387.215,835.301 1389.057,838.816 1390.96,842.33 1392.925,845.844 1394.955,849.359 1397.049,852.873 1399.21,856.387 1401.44,859.902 1403.74,863.416 1406.112,866.93 1408.559,870.445 1411.083,873.959 " />
</g>
<g>
<polyline fill="none" stroke="#7f7fff" points="1463.099,544.945 1464.987,548.077 1466.823,551.209 1468.609,554.342 1470.344,557.474 1472.031,560.607 1473.67,563.739 1475.261,566.872 1476.807,570.004 1478.307,573.136 1479.763,576.269 1481.175,579.401 1482.543,582.534 1483.869,585.666 1485.153,588.799 1486.396,591.931 1487.597,595.063 1488.759,598.196 1489.881,601.328 1490.963,604.461 1492.006,607.593 1493.012,610.726 1493.979,613.858 1494.908,616.991 1495.8,620.123 1496.655,623.255 1497.474,626.388 1498.256,629.52 1499.003,632.653 1499.713,635.785 1500.389,638.918 1501.029,642.05 1501.634,645.182 1502.204,648.315 1502.739,651.447 1503.241,654.58 1503.708,657.712 1504.141,660.845 1504.54,663.977 1504.906,667.109 1505.238,670.242 1505.536,673.374 1505.801,676.507 1506.032,679.639 1506.231,682.772 1506.396,685.904 1506.528,689.036 1506.627,692.169 1506.693,695.301 1506.726,698.434 1506.726,701.566 1506.693,704.699 1506.627,707.831 1506.528,710.964 1506.396,714.096 1506.231,717.228 1506.032,720.361 1505.801,723.493 1505.536,726.626 1505.238,729.758 1504.906,732.891 1504.54,736.023 1504.141,739.155 1503.708,742.288 1503.241,745.42 1502.739,748.553 1502.204,751.685 1501.634,754.818 1501.029,757.95 1500.389,761.082 1499.713,764.215 1499.003,767.347 1498.256,770.48 1497.474,773.612 1496.655,776.745 1495.8,779.877 1494.908,783.009 1493.979,786.142 1493.012,789.274 1492.006,792.407 1490.963,795.539 1489.881,798.672 1488.759,801.804 1487.597,804.937 1486.396,808.069 1485.153,811.201 1483.869,814.334 1482.543,817.466 1481.175,820.599 1479.763,823.731 1478.307,826.864 1476.807,829.996 1475.261,833.128 1473.67,836.261 1472.031,839.393 1470.344,842.526 1468.609,845.658 1466.823,848.791 1464.987,851.923 1463.099,855.055 " />
<line x1="1463.099" y1="526.461" x2="1463.099" y2="544.945"  stroke="#7f7fff" />
<line x1="1463.099" y1="526.461" x2="1558.234" y2="526.461"  stroke="#7f7fff" />
<line x1="1463.099" y1="873.539" x2="1463.099" y2="855.055"  stroke="#7f7fff" />
<line x1="1463.099" y1="873.539" x2="1558.234" y2="873.539"  stroke="#7f7fff" />
<polyline fill="none" stroke="#7f7fff" points="1558.234,526.461 1557.664,529.967 1557.105,533.473 1556.559,536.979 1556.025,540.484 1555.502,543.99 1554.992,547.496 1554.493,551.002 1554.006,554.508 1553.531,558.014 1553.067,561.519 1552.616,565.025 1552.176,568.531 1551.748,572.037 1551.332,575.543 1550.927,579.049 1550.534,582.554 1550.153,586.06 1549.783,589.566 1549.426,593.072 1549.079,596.578 1548.745,600.084 1548.422,603.59 1548.111,607.095 1547.811,610.601 1547.523,614.107 1547.246,617.613 1546.982,621.119 1546.728,624.625 1546.487,628.13 1546.256,631.636 1546.038,635.142 1545.831,638.648 1545.635,642.154 1545.451,645.66 1545.279,649.165 1545.118,652.671 1544.968,656.177 1544.83,659.683 1544.704,663.189 1544.589,666.695 1544.486,670.2 1544.394,673.706 1544.313,677.212 1544.244,680.718 1544.187,684.224 1544.141,687.73 1544.107,691.235 1544.084,694.741 1544.072,698.247 1544.072,701.753 1544.084,705.259 1544.107,708.765 1544.141,712.27 1544.187,715.776 1544.244,719.282 1544.313,722.788 1544.394,726.294 1544.486,729.8 1544.589,733.305 1544.704,736.811 1544.83,740.317 1544.968,743.823 1545.118,747.329 1545.279,750.835 1545.451,754.34 1545.635,757.846 1545.831,761.352 1546.038,764.858 1546.256,768.364 1546.487,771.87 1546.728,775.375 1546.982,778.881 1547.246,782.387 1547.523,785.893 1547.811,789.399 1548.111,792.905 1548.422,796.41 1548.745,799.916 1549.079,803.422 1549.426,806.928 1549.783,810.434 1550.153,813.94 1550.534,817.446 1550.927,820.951 1551.332,824.457 1551.748,827.963 1552.176,831.469 1552.616,834.975 1553.067,838.481 1553.531,841.986 1554.006,845.492 1554.493,848.998 1554.992,852.504 1555.502,856.01 1556.025,859.516 1556.559,863.021 1557.105,866.527 1557.664,870.033 1558.234,873.539 " />
</g>
<g>
<polyline fill="none" stroke="#7f7fff" points="1568.079,528.982 1568.449,532.437 1568.811,535.891 1569.166,539.346 1569.513,542.801 1569.852,546.256 1570.184,549.711 1570.508,553.166 1570.825,556.621 1571.134,560.076 1571.436,563.531 1571.729,566.986 1572.016,570.441 1572.294,573.896 1572.566,577.35 1572.829,580.805 1573.085,584.26 1573.333,587.715 1573.574,591.17 1573.808,594.625 1574.033,598.08 1574.251,601.535 1574.462,604.99 1574.665,608.445 1574.861,611.9 1575.049,615.355 1575.229,618.809 1575.402,622.264 1575.567,625.719 1575.725,629.174 1575.875,632.629 1576.018,636.084 1576.153,639.539 1576.281,642.994 1576.401,646.449 1576.514,649.904 1576.619,653.359 1576.717,656.814 1576.807,660.268 1576.89,663.723 1576.965,667.178 1577.032,670.633 1577.092,674.088 1577.145,677.543 1577.19,680.998 1577.228,684.453 1577.258,687.908 1577.28,691.363 1577.295,694.818 1577.303,698.273 1577.303,701.727 1577.295,705.182 1577.28,708.637 1577.258,712.092 1577.228,715.547 1577.19,719.002 1577.145,722.457 1577.092,725.912 1577.032,729.367 1576.965,732.822 1576.89,736.277 1576.807,739.732 1576.717,743.186 1576.619,746.641 1576.514,750.096 1576.401,753.551 1576.281,757.006 1576.153,760.461 1576.018,763.916 1575.875,767.371 1575.725,770.826 1575.567,774.281 1575.402,777.736 1575.229,781.191 1575.049,784.645 1574.861,788.1 1574.665,791.555 1574.462,795.01 1574.251,798.465 1574.033,801.92 1573.808,805.375 1573.574,808.83 1573.333,812.285 1573.085,815.74 1572.829,819.195 1572.566,822.65 1572.294,826.104 1572.016,829.559 1571.729,833.014 1571.436,836.469 1571.134,839.924 1570.825,843.379 1570.508,846.834 1570.184,850.289 1569.852,853.744 1569.513,857.199 1569.166,860.654 1568.811,864.109 1568.449,867.563 1568.079,871.018 " />
<line x1="1568.079" y1="515.632" x2="1568.079" y2="528.982"  stroke="#7f7fff" />
<line x1="1568.079" y1="515.632" x2="1605.13" y2="515.632"  stroke="#7f7fff" />
<line x1="1568.079" y1="884.368" x2="1568.079" y2="871.018"  stroke="#7f7fff" />
<line x1="1568.079" y1="884.368" x2="1605.13" y2="884.368"  stroke="#7f7fff" />
<polyline fill="none" stroke="#7f7fff" points="1605.13,515.632 1606.82,519.357 1608.469,523.082 1610.077,526.806 1611.645,530.531 1613.172,534.255 1614.66,537.98 1616.11,541.705 1617.52,545.429 1618.893,549.154 1620.227,552.878 1621.524,556.603 1622.784,560.328 1624.007,564.052 1625.194,567.777 1626.345,571.501 1627.459,575.226 1628.538,578.951 1629.582,582.675 1630.591,586.4 1631.565,590.124 1632.504,593.849 1633.409,597.574 1634.28,601.298 1635.117,605.023 1635.92,608.747 1636.69,612.472 1637.426,616.197 1638.13,619.921 1638.8,623.646 1639.437,627.37 1640.042,631.095 1640.614,634.82 1641.153,638.544 1641.66,642.269 1642.135,645.993 1642.578,649.718 1642.989,653.443 1643.368,657.167 1643.715,660.892 1644.03,664.616 1644.313,668.341 1644.565,672.066 1644.786,675.79 1644.974,679.515 1645.131,683.239 1645.257,686.964 1645.351,690.689 1645.414,694.413 1645.446,698.138 1645.446,701.862 1645.414,705.587 1645.351,709.311 1645.257,713.036 1645.131,716.761 1644.974,720.485 1644.786,724.21 1644.565,727.934 1644.313,731.659 1644.03,735.384 1643.715,739.108 1643.368,742.833 1642.989,746.557 1642.578,750.282 1642.135,754.007 1641.66,757.731 1641.153,761.456 1640.614,765.18 1640.042,768.905 1639.437,772.63 1638.8,776.354 1638.13,780.079 1637.426,783.803 1636.69,787.528 1635.92,791.253 1635.117,794.977 1634.28,798.702 1633.409,802.426 1632.504,806.151 1631.565,809.876 1630.591,813.6 1629.582,817.325 1628.538,821.049 1627.459,824.774 1626.345,828.499 1625.194,832.223 1624.007,835.948 1622.784,839.672 1621.524,843.397 1620.227,847.122 1618.893,850.846 1617.52,854.571 1616.11,858.295 1614.66,862.02 1613.172,865.745 1611.645,869.469 1610.077,873.194 1608.469,876.918 1606.82,880.643 1605.13,884.368 " />
</g>
<g>
<polyline fill="none" stroke="#7f7fff" points="1656.332,515.632 1655.971,519.357 1655.617,523.082 1655.27,526.806 1654.931,530.531 1654.6,534.255 1654.275,537.98 1653.959,541.705 1653.649,545.429 1653.347,549.154 1653.053,552.878 1652.765,556.603 1652.486,560.328 1652.213,564.052 1651.948,567.777 1651.691,571.501 1651.441,575.226 1651.198,578.951 1650.962,582.675 1650.734,586.4 1650.514,590.124 1650.3,593.849 1650.095,597.574 1649.896,601.298 1649.705,605.023 1649.521,608.747 1649.345,612.472 1649.176,616.197 1649.014,619.921 1648.86,623.646 1648.713,627.37 1648.573,631.095 1648.441,634.82 1648.316,638.544 1648.199,642.269 1648.088,645.993 1647.986,649.718 1647.89,653.443 1647.802,657.167 1647.721,660.892 1647.648,664.616 1647.582,668.341 1647.523,672.066 1647.472,675.79 1647.428,679.515 1647.391,683.239 1647.362,686.964 1647.339,690.689 1647.325,694.413 1647.317,698.138 1647.317,701.862 1647.325,705.587 1647.339,709.311 1647.362,713.036 1647.391,716.761 1647.428,720.485 1647.472,724.21 1647.523,727.934 1647.582,731.659 1647.648,735.384 1647.721,739.108 1647.802,742.833 1647.89,746.557 1647.986,750.282 1648.088,754.007 1648.199,757.731 1648.316,761.456 1648.441,765.18 1648.573,768.905 1648.713,772.63 1648.86,776.354 1649.014,780.079 1649.176,783.803 1649.345,787.528 1649.521,791.253 1649.705,794.977 1649.896,798.702 1650.095,802.426 1650.3,806.151 1650.514,809.876 1650.734,813.6 1650.962,817.325 1651.198,821.049 1651.441,824.774 1651.691,828.499 1651.948,832.223 1652.213,835.948 1652.486,839.672 1652.765,843.397 1653.053,847.122 1653.347,850.846 1653.649,854.571 1653.959,858.295 1654.275,862.02 1654.6,865.745 1654.931,869.469 1655.27,873.194 1655.617,876.918 1655.971,880.643 1656.332,884.368 " />
<line x1="1656.332" y1="515.632" x2="1692.43" y2="515.632"  stroke="#7f7fff" />
<line x1="1656.332" y1="884.368" x2="1692.43" y2="884.368"  stroke="#7f7fff" />
<polyline fill="none" stroke="#7f7fff" points="1692.43,515.632 1693.443,519.357 1694.435,523.082 1695.404,526.806 1696.352,530.531 1697.277,534.255 1698.181,537.98 1699.063,541.705 1699.923,545.429 1700.762,549.154 1701.58,552.878 1702.376,556.603 1703.15,560.328 1703.904,564.052 1704.636,567.777 1705.347,571.501 1706.038,575.226 1706.707,578.951 1707.355,582.675 1707.983,586.4 1708.589,590.124 1709.175,593.849 1709.741,597.574 1710.285,601.298 1710.809,605.023 1711.313,608.747 1711.796,612.472 1712.259,616.197 1712.701,619.921 1713.123,623.646 1713.524,627.37 1713.905,631.095 1714.266,634.82 1714.607,638.544 1714.928,642.269 1715.228,645.993 1715.508,649.718 1715.768,653.443 1716.008,657.167 1716.228,660.892 1716.428,664.616 1716.608,668.341 1716.768,672.066 1716.908,675.79 1717.028,679.515 1717.127,683.239 1717.207,686.964 1717.267,690.689 1717.307,694.413 1717.327,698.138 1717.327,701.862 1717.307,705.587 1717.267,709.311 1717.207,713.036 1717.127,716.761 1717.028,720.485 1716.908,724.21 1716.768,727.934 1716.608,731.659 1716.428,735.384 1716.228,739.108 1716.008,742.833 1715.768,746.557 1715.508,750.282 1715.228,754.007 1714.928,757.731 1714.607,761.456 1714.266,765.18 1713.905,768.905 1713.524,772.63 1713.123,776.354 1712.701,780.079 1712.259,783.803 1711.796,787.528 1711.313,791.253 1710.809,794.977 1710.285,798.702 1709.741,802.426 1709.175,806.151 1708.589,809.876 1707.983,813.6 1707.355,817.325 1706.707,821.049 1706.038,824.774 1705.347,828.499 1704.636,832.223 1703.904,835.948 1703.15,839.672 1702.376,843.397 1701.58,847.122 1700.762,850.846 1699.923,854.571 1699.063,858.295 1698.181,862.02 1697.277,865.745 1696.352,869.469 1695.404,873.194 1694.435,876.918 1693.443,880.643 1692.43,884.368 " />
</g>
<g>
<polyline fill="none" stroke="#7f7fff" points="1745.447,516.939 1744.376,520.638 1743.328,524.336 1742.304,528.034 1741.304,531.732 1740.327,535.43 1739.373,539.129 1738.442,542.827 1737.534,546.525 1736.649,550.223 1735.786,553.921 1734.947,557.619 1734.13,561.318 1733.335,565.016 1732.563,568.714 1731.813,572.412 1731.086,576.11 1730.38,579.809 1729.697,583.507 1729.036,587.205 1728.397,590.903 1727.78,594.601 1727.184,598.3 1726.611,601.998 1726.059,605.696 1725.528,609.394 1725.02,613.092 1724.533,616.791 1724.067,620.489 1723.623,624.187 1723.201,627.885 1722.799,631.583 1722.419,635.282 1722.061,638.98 1721.723,642.678 1721.407,646.376 1721.113,650.074 1720.839,653.773 1720.586,657.471 1720.355,661.169 1720.145,664.867 1719.955,668.565 1719.787,672.264 1719.64,675.962 1719.514,679.66 1719.409,683.358 1719.325,687.056 1719.262,690.755 1719.22,694.453 1719.199,698.151 1719.199,701.849 1719.22,705.547 1719.262,709.245 1719.325,712.944 1719.409,716.642 1719.514,720.34 1719.64,724.038 1719.787,727.736 1719.955,731.435 1720.145,735.133 1720.355,738.831 1720.586,742.529 1720.839,746.227 1721.113,749.926 1721.407,753.624 1721.723,757.322 1722.061,761.02 1722.419,764.718 1722.799,768.417 1723.201,772.115 1723.623,775.813 1724.067,779.511 1724.533,783.209 1725.02,786.908 1725.528,790.606 1726.059,794.304 1726.611,798.002 1727.184,801.7 1727.78,805.399 1728.397,809.097 1729.036,812.795 1729.697,816.493 1730.38,820.191 1731.086,823.89 1731.813,827.588 1732.563,831.286 1733.335,834.984 1734.13,838.682 1734.947,842.381 1735.786,846.079 1736.649,849.777 1737.534,853.475 1738.442,857.173 1739.373,860.871 1740.327,864.57 1741.304,868.268 1742.304,871.966 1743.328,875.664 1744.376,879.362 1745.447,883.061 " />
<line x1="1745.447" y1="516.939" x2="1794.328" y2="516.939"  stroke="#7f7fff" />
<line x1="1745.447" y1="883.061" x2="1794.328" y2="883.061"  stroke="#7f7fff" />
<polyline fill="none" stroke="#7f7fff" points="1794.328,516.939 1795.218,520.638 1796.09,524.336 1796.942,528.034 1797.775,531.732 1798.589,535.43 1799.384,539.129 1800.16,542.827 1800.917,546.525 1801.656,550.223 1802.375,553.921 1803.077,557.619 1803.759,561.318 1804.423,565.016 1805.069,568.714 1805.696,572.412 1806.305,576.11 1806.895,579.809 1807.467,583.507 1808.021,587.205 1808.556,590.903 1809.073,594.601 1809.573,598.3 1810.054,601.998 1810.516,605.696 1810.961,609.394 1811.388,613.092 1811.797,616.791 1812.188,620.489 1812.56,624.187 1812.915,627.885 1813.252,631.583 1813.572,635.282 1813.873,638.98 1814.156,642.678 1814.422,646.376 1814.67,650.074 1814.9,653.773 1815.112,657.471 1815.307,661.169 1815.484,664.867 1815.643,668.565 1815.784,672.264 1815.908,675.962 1816.014,679.66 1816.102,683.358 1816.173,687.056 1816.226,690.755 1816.261,694.453 1816.279,698.151 1816.279,701.849 1816.261,705.547 1816.226,709.245 1816.173,712.944 1816.102,716.642 1816.014,720.34 1815.908,724.038 1815.784,727.736 1815.643,731.435 1815.484,735.133 1815.307,738.831 1815.112,742.529 1814.9,746.227 1814.67,749.926 1814.422,753.624 1814.156,757.322 1813.873,761.02 1813.572,764.718 1813.252,768.417 1812.915,772.115 1812.56,775.813 1812.188,779.511 1811.797,783.209 1811.388,786.908 1810.961,790.606 1810.516,794.304 1810.054,798.002 1809.573,801.7 1809.073,805.399 1808.556,809.097 1808.021,812.795 1807.467,816.493 1806.895,820.191 1806.305,823.89 1805.696,827.588 1805.069,831.286 1804.423,834.984 1803.759,838.682 1803.077,842.381 1802.375,846.079 1801.656,849.777 1800.917,853.475 1800.16,857.173 1799.384,860.871 1798.589,864.57 1797.775,868.268 1796.942,871.966 1796.09,875.664 1795.218,879.362 1794.328,883.061 " />
</g>
</g>
<g><title>element</title>
<polyline fill="none" stroke="#7f7fff" points="2152.381,409.306 2152.381,415.179 2152.381,421.051 2152.381,426.924 2152.381,432.796 2152.381,438.669 2152.381,444.542 2152.381,450.414 2152.381,456.287 2152.381,462.159 2152.381,468.032 2152.381,473.905 2152.381,479.777 2152.381,485.65 2152.381,491.523 2152.381,497.395 2152.381,503.268 2152.381,509.14 2152.381,515.013 2152.381,520.886 2152.381,526.758 2152.381,532.631 2152.381,538.503 2152.381,544.376 2152.381,550.249 2152.381,556.121 2152.381,561.994 2152.381,567.866 2152.381,573.739 2152.381,579.612 2152.381,585.484 2152.381,591.357 2152.381,597.229 2152.381,603.102 2152.381,608.975 2152.381,614.847 2152.381,620.72 2152.381,626.592 2152.381,632.465 2152.381,638.338 2152.381,644.21 2152.381,650.083 2152.381,655.955 2152.381,661.828 2152.381,667.701 2152.381,673.573 2152.381,679.446 2152.381,685.318 2152.381,691.191 2152.381,697.064 2152.381,702.936 2152.381,708.809 2152.381,714.682 2152.381,720.554 2152.381,726.427 2152.381,732.299 2152.381,738.172 2152.381,744.045 2152.381,749.917 2152.381,755.79 2152.381,761.662 2152.381,767.535 2152.381,773.408 2152.381,779.28 2152.381,785.153 2152.381,791.025 2152.381,796.898 2152.381,802.771 2152.381,808.643 2152.381,814.516 2152.381,820.388 2152.381,826.261 2152.381,832.134 2152.381,838.006 2152.381,843.879 2152.381,849.751 2152.381,855.624 2152.381,861.497 2152.381,867.369 2152.381,873.242 2152.381,879.114 2152.381,884.987 2152.381,890.86 2152.381,896.732 2152.381,902.605 2152.381,908.477 2152.381,914.35 2152.381,920.223 2152.381,926.095 2152.381,931.968 2152.381,937.841 2152.381,943.713 2152.381,949.586 2152.381,955.458 2152.381,961.331 2152.381,967.204 2152.381,973.076 2152.381,978.949 2152.381,984.821 2152.381,990.694 " />
</g>
</svg>
