<?xml version="1.0" standalone="no"?>
<svg width="2400px" height="1400px" version="1.1" xmlns="http://www.w3.org/2000/svg" xmlns:xlink="http://www.w3.org/1999/xlink">
<rect x="0" y="0" width="2400" height="1400"  fill="#ffffff" />
<defs>
<g id="dot">
<line x1="1" y1="1" x2="0" y2="0"  />
</g>
<g id="cross">
<line x1="-3" y1="0" x2="3" y2="0"  />
<line x1="0" y1="-3" x2="0" y2="3"  />
</g>
<g id="square">
<line x1="-3" y1="-3" x2="-3" y2="3"  />
<line x1="-3" y1="3" x2="3" y2="3"  />
<line x1="3" y1="3" x2="3" y2="-3"  />
<line x1="3" y1="-3" x2="-3" y2="-3"  />
</g>
<g id="round">
<ellipse cx="0" cy="0" rx="3" ry="3"  fill="none" /></g>
<g id="triangle">
<line x1="0" y1="-3" x2="-3" y2="3"  />
<line x1="-3" y1="3" x2="3" y2="3"  />
<line x1="0" y1="-3" x2="3" y2="3"  />
</g>
</defs>
<line x1="614.541" y1="700" x2="1785.459" y2="700"  stroke="#7f7f7f" />
<g><title>element</title>
<g>
<line x1="1146.981" y1="530.086" x2="1146.981" y2="360.171"  stroke="#7f7fff" />
<line x1="1146.981" y1="869.914" x2="1146.981" y2="1039.829"  stroke="#7f7fff" />
</g>
<g>
<polyline fill="none" stroke="#7f7fff" points="655.497,428.512 654.92,433.997 654.354,439.481 653.801,444.966 653.259,450.45 652.73,455.935 652.212,461.42 651.706,466.904 651.212,472.389 650.729,477.873 650.259,483.358 649.8,488.843 649.354,494.327 648.919,499.812 648.496,505.296 648.084,510.781 647.685,516.266 647.297,521.75 646.922,527.235 646.557,532.72 646.205,538.204 645.865,543.689 645.536,549.173 645.219,554.658 644.914,560.143 644.621,565.627 644.339,571.112 644.069,576.596 643.811,582.081 643.565,587.566 643.33,593.05 643.108,598.535 642.897,604.019 642.697,609.504 642.51,614.989 642.334,620.473 642.17,625.958 642.017,631.442 641.877,636.927 641.748,642.412 641.631,647.896 641.525,653.381 641.431,658.865 641.349,664.35 641.279,669.835 641.22,675.319 641.174,680.804 641.138,686.288 641.115,691.773 641.103,697.258 641.103,702.742 641.115,708.227 641.138,713.712 641.174,719.196 641.22,724.681 641.279,730.165 641.349,735.65 641.431,741.135 641.525,746.619 641.631,752.104 641.748,757.588 641.877,763.073 642.017,768.558 642.17,774.042 642.334,779.527 642.51,785.011 642.697,790.496 642.897,795.981 643.108,801.465 643.33,806.95 643.565,812.434 643.811,817.919 644.069,823.404 644.339,828.888 644.621,834.373 644.914,839.857 645.219,845.342 645.536,850.827 645.865,856.311 646.205,861.796 646.557,867.28 646.922,872.765 647.297,878.25 647.685,883.734 648.084,889.219 648.496,894.704 648.919,900.188 649.354,905.673 649.8,911.157 650.259,916.642 650.729,922.127 651.212,927.611 651.706,933.096 652.212,938.58 652.73,944.065 653.259,949.55 653.801,955.034 654.354,960.519 654.92,966.003 655.497,971.488 " />
<line x1="710.966" y1="428.512" x2="710.966" y2="476.52"  stroke="#7f7fff" />
<line x1="655.497" y1="428.512" x2="710.966" y2="428.512"  stroke="#7f7fff" />
<line x1="710.966" y1="971.488" x2="710.966" y2="923.48"  stroke="#7f7fff" />
<line x1="655.497" y1="971.488" x2="710.966" y2="971.488"  stroke="#7f7fff" />
<polyline fill="none" stroke="#7f7fff" points="710.966,476.52 708.896,481.035 706.878,485.549 704.909,490.064 702.99,494.579 701.12,499.094 699.299,503.608 697.525,508.123 695.799,512.638 694.119,517.153 692.486,521.667 690.899,526.182 689.358,530.697 687.861,535.212 686.409,539.726 685.002,544.241 683.638,548.756 682.318,553.271 681.041,557.785 679.808,562.3 678.616,566.815 677.468,571.33 676.361,575.844 675.296,580.359 674.272,584.874 673.29,589.389 672.349,593.903 671.448,598.418 670.589,602.933 669.769,607.448 668.99,611.962 668.251,616.477 667.552,620.992 666.892,625.507 666.272,630.021 665.691,634.536 665.15,639.051 664.648,643.566 664.185,648.08 663.76,652.595 663.375,657.11 663.029,661.625 662.721,666.139 662.452,670.654 662.221,675.169 662.029,679.684 661.875,684.198 661.76,688.713 661.683,693.228 661.645,697.743 661.645,702.257 661.683,706.772 661.76,711.287 661.875,715.802 662.029,720.316 662.221,724.831 662.452,729.346 662.721,733.861 663.029,738.375 663.375,742.89 663.76,747.405 664.185,751.92 664.648,756.434 665.15,760.949 665.691,765.464 666.272,769.979 666.892,774.493 667.552,779.008 668.251,783.523 668.99,788.038 669.769,792.552 670.589,797.067 671.448,801.582 672.349,806.097 673.29,810.611 674.272,815.126 675.296,819.641 676.361,824.156 677.468,828.67 678.616,833.185 679.808,837.7 681.041,842.215 682.318,846.729 683.638,851.244 685.002,855.759 686.409,860.274 687.861,864.788 689.358,869.303 690.899,873.818 692.486,878.333 694.119,882.847 695.799,887.362 697.525,891.877 699.299,896.392 701.12,900.906 702.99,905.421 704.909,909.936 706.878,914.451 708.896,918.965 710.966,923.48 " />
</g>
<g>
<polyline fill="none" stroke="#7f7fff" points="711.368,476.52 714.612,481.035 717.756,485.549 720.805,490.064 723.761,494.579 726.626,499.094 729.403,503.608 732.094,508.123 734.701,512.638 737.227,517.153 739.672,521.667 742.039,526.182 744.33,530.697 746.546,535.212 748.688,539.726 750.758,544.241 752.757,548.756 754.686,553.271 756.546,557.785 758.339,562.3 760.066,566.815 761.727,571.33 763.324,575.844 764.857,580.359 766.327,584.874 767.734,589.389 769.081,593.903 770.366,598.418 771.592,602.933 772.758,607.448 773.865,611.962 774.913,616.477 775.904,620.992 776.837,625.507 777.713,630.021 778.533,634.536 779.296,639.051 780.003,643.566 780.655,648.08 781.252,652.595 781.793,657.11 782.28,661.625 782.712,666.139 783.089,670.654 783.413,675.169 783.682,679.684 783.897,684.198 784.059,688.713 784.166,693.228 784.22,697.743 784.22,702.257 784.166,706.772 784.059,711.287 783.897,715.802 783.682,720.316 783.413,724.831 783.089,729.346 782.712,733.861 782.28,738.375 781.793,742.89 781.252,747.405 780.655,751.92 780.003,756.434 779.296,760.949 778.533,765.464 777.713,769.979 776.837,774.493 775.904,779.008 774.913,783.523 773.865,788.038 772.758,792.552 771.592,797.067 770.366,801.582 769.081,806.097 767.734,810.611 766.327,815.126 764.857,819.641 763.324,824.156 761.727,828.67 760.066,833.185 758.339,837.7 756.546,842.215 754.686,846.729 752.757,851.244 750.758,855.759 748.688,860.274 746.546,864.788 744.33,869.303 742.039,873.818 739.672,878.333 737.227,882.847 734.701,887.362 732.094,891.877 729.403,896.392 726.626,900.906 723.761,905.421 720.805,909.936 717.756,914.451 714.612,918.965 711.368,923.48 " />
<line x1="711.368" y1="450.976" x2="711.368" y2="476.52"  stroke="#7f7fff" />
<line x1="711.368" y1="450.976" x2="813.822" y2="450.976"  stroke="#7f7fff" />
<line x1="711.368" y1="949.024" x2="711.368" y2="923.48"  stroke="#7f7fff" />
<line x1="711.368" y1="949.024" x2="813.822" y2="949.024"  stroke="#7f7fff" />
<polyline fill="none" stroke="#7f7fff" points="813.822,450.976 813.408,456.006 813.002,461.037 812.605,466.068 812.216,471.099 811.836,476.13 811.464,481.16 811.101,486.191 810.746,491.222 810.4,496.253 810.062,501.284 809.733,506.314 809.412,511.345 809.099,516.376 808.796,521.407 808.5,526.438 808.213,531.468 807.935,536.499 807.665,541.53 807.403,546.561 807.15,551.591 806.905,556.622 806.669,561.653 806.441,566.684 806.222,571.715 806.011,576.745 805.809,581.776 805.615,586.807 805.429,591.838 805.252,596.869 805.084,601.899 804.923,606.93 804.772,611.961 804.628,616.992 804.494,622.023 804.367,627.053 804.249,632.084 804.14,637.115 804.038,642.146 803.946,647.177 803.861,652.207 803.786,657.238 803.718,662.269 803.659,667.3 803.609,672.331 803.566,677.361 803.533,682.392 803.507,687.423 803.491,692.454 803.482,697.485 803.482,702.515 803.491,707.546 803.507,712.577 803.533,717.608 803.566,722.639 803.609,727.669 803.659,732.7 803.718,737.731 803.786,742.762 803.861,747.793 803.946,752.823 804.038,757.854 804.14,762.885 804.249,767.916 804.367,772.947 804.494,777.977 804.628,783.008 804.772,788.039 804.923,793.07 805.084,798.101 805.252,803.131 805.429,808.162 805.615,813.193 805.809,818.224 806.011,823.255 806.222,828.285 806.441,833.316 806.669,838.347 806.905,843.378 807.15,848.409 807.403,853.439 807.665,858.47 807.935,863.501 808.213,868.532 808.5,873.562 808.796,878.593 809.099,883.624 809.412,888.655 809.733,893.686 810.062,898.716 810.4,903.747 810.746,908.778 811.101,913.809 811.464,918.84 811.836,923.87 812.216,928.901 812.605,933.932 813.002,938.963 813.408,943.994 813.822,949.024 " />
<line x1="813.822" y1="450.976" x2="827.056" y2="450.976"  stroke="#7f7fff" />
<line x1="813.822" y1="949.024" x2="827.056" y2="949.024"  stroke="#7f7fff" />
<polyline fill="none" stroke="#7f7fff" points="827.056,450.976 829.695,456.006 832.265,461.037 834.768,466.068 837.205,471.099 839.578,476.13 841.886,481.16 844.131,486.191 846.314,491.222 848.436,496.253 850.497,501.284 852.499,506.314 854.441,511.345 856.325,516.376 858.151,521.407 859.92,526.438 861.633,531.468 863.29,536.499 864.891,541.53 866.437,546.561 867.929,551.591 869.368,556.622 870.752,561.653 872.084,566.684 873.363,571.715 874.59,576.745 875.766,581.776 876.889,586.807 877.962,591.838 878.984,596.869 879.955,601.899 880.876,606.93 881.747,611.961 882.568,616.992 883.34,622.023 884.063,627.053 884.736,632.084 885.361,637.115 885.937,642.146 886.464,647.177 886.943,652.207 887.374,657.238 887.757,662.269 888.091,667.3 888.378,672.331 888.616,677.361 888.807,682.392 888.95,687.423 889.046,692.454 889.093,697.485 889.093,702.515 889.046,707.546 888.95,712.577 888.807,717.608 888.616,722.639 888.378,727.669 888.091,732.7 887.757,737.731 887.374,742.762 886.943,747.793 886.464,752.823 885.937,757.854 885.361,762.885 884.736,767.916 884.063,772.947 883.34,777.977 882.568,783.008 881.747,788.039 880.876,793.07 879.955,798.101 878.984,803.131 877.962,808.162 876.889,813.193 875.766,818.224 874.59,823.255 873.363,828.285 872.084,833.316 870.752,838.347 869.368,843.378 867.929,848.409 866.437,853.439 864.891,858.47 863.29,863.501 861.633,868.532 859.92,873.562 858.151,878.593 856.325,883.624 854.441,888.655 852.499,893.686 850.497,898.716 848.436,903.747 846.314,908.778 844.131,913.809 841.886,918.84 839.578,923.87 837.205,928.901 834.768,933.932 832.265,938.963 829.695,943.994 827.056,949.024 " />
</g>
<g>
<polyline fill="none" stroke="#7f7fff" points="992.09,445.328 987.334,450.472 982.753,455.617 978.34,460.762 974.086,465.907 969.984,471.052 966.028,476.197 962.212,481.342 958.532,486.487 954.982,491.632 951.557,496.777 948.254,501.921 945.068,507.066 941.997,512.211 939.037,517.356 936.185,522.501 933.438,527.646 930.793,532.791 928.249,537.936 925.802,543.081 923.452,548.226 921.195,553.37 919.029,558.515 916.954,563.66 914.968,568.805 913.069,573.95 911.255,579.095 909.526,584.24 907.879,589.385 906.315,594.53 904.832,599.675 903.428,604.819 902.103,609.964 900.856,615.109 899.687,620.254 898.594,625.399 897.577,630.544 896.635,635.689 895.768,640.834 894.975,645.979 894.255,651.123 893.608,656.268 893.035,661.413 892.533,666.558 892.104,671.703 891.747,676.848 891.462,681.993 891.248,687.138 891.105,692.283 891.034,697.428 891.034,702.572 891.105,707.717 891.248,712.862 891.462,718.007 891.747,723.152 892.104,728.297 892.533,733.442 893.035,738.587 893.608,743.732 894.255,748.877 894.975,754.021 895.768,759.166 896.635,764.311 897.577,769.456 898.594,774.601 899.687,779.746 900.856,784.891 902.103,790.036 903.428,795.181 904.832,800.325 906.315,805.47 907.879,810.615 909.526,815.76 911.255,820.905 913.069,826.05 914.968,831.195 916.954,836.34 919.029,841.485 921.195,846.63 923.452,851.774 925.802,856.919 928.249,862.064 930.793,867.209 933.438,872.354 936.185,877.499 939.037,882.644 941.997,887.789 945.068,892.934 948.254,898.079 951.557,903.223 954.982,908.368 958.532,913.513 962.212,918.658 966.028,923.803 969.984,928.948 974.086,934.093 978.34,939.238 982.753,944.383 987.334,949.528 992.09,954.672 " />
<line x1="992.09" y1="445.328" x2="1003.138" y2="445.328"  stroke="#7f7fff" />
<line x1="992.09" y1="954.672" x2="1003.138" y2="954.672"  stroke="#7f7fff" />
<polyline fill="none" stroke="#7f7fff" points="1003.138,445.328 1005.488,450.472 1007.781,455.617 1010.017,460.762 1012.197,465.907 1014.321,471.052 1016.39,476.197 1018.405,481.342 1020.367,486.487 1022.275,491.632 1024.13,496.777 1025.933,501.921 1027.684,507.066 1029.385,512.211 1031.034,517.356 1032.633,522.501 1034.183,527.646 1035.682,532.791 1037.133,537.936 1038.535,543.081 1039.889,548.226 1041.194,553.37 1042.452,558.515 1043.662,563.66 1044.825,568.805 1045.941,573.95 1047.011,579.095 1048.034,584.24 1049.011,589.385 1049.942,594.53 1050.827,599.675 1051.667,604.819 1052.462,609.964 1053.212,615.109 1053.916,620.254 1054.576,625.399 1055.191,630.544 1055.762,635.689 1056.288,640.834 1056.77,645.979 1057.208,651.123 1057.602,656.268 1057.952,661.413 1058.258,666.558 1058.52,671.703 1058.739,676.848 1058.913,681.993 1059.044,687.138 1059.131,692.283 1059.175,697.428 1059.175,702.572 1059.131,707.717 1059.044,712.862 1058.913,718.007 1058.739,723.152 1058.52,728.297 1058.258,733.442 1057.952,738.587 1057.602,743.732 1057.208,748.877 1056.77,754.021 1056.288,759.166 1055.762,764.311 1055.191,769.456 1054.576,774.601 1053.916,779.746 1053.212,784.891 1052.462,790.036 1051.667,795.181 1050.827,800.325 1049.942,805.47 1049.011,810.615 1048.034,815.76 1047.011,820.905 1045.941,826.05 1044.825,831.195 1043.662,836.34 1042.452,841.485 1041.194,846.63 1039.889,851.774 1038.535,856.919 1037.133,862.064 1035.682,867.209 1034.183,872.354 1032.633,877.499 1031.034,882.644 1029.385,887.789 1027.684,892.934 1025.933,898.079 1024.13,903.223 1022.275,908.368 1020.367,913.513 1018.405,918.658 1016.39,923.803 1014.321,928.948 1012.197,934.093 1010.017,939.238 1007.781,944.383 1005.488,949.528 1003.138,954.672 " />
<line x1="1132.419" y1="445.328" x2="1132.419" y2="507.07"  stroke="#7f7fff" />
<line x1="1003.138" y1="445.328" x2="1132.419" y2="445.328"  stroke="#7f7fff" />
<line x1="1132.419" y1="954.672" x2="1132.419" y2="892.93"  stroke="#7f7fff" />
<line x1="1003.138" y1="954.672" x2="1132.419" y2="954.672"  stroke="#7f7fff" />
<polyline fill="none" stroke="#7f7fff" points="1132.419,507.07 1130.872,510.968 1129.362,514.865 1127.887,518.763 1126.448,522.661 1125.044,526.558 1123.675,530.456 1122.342,534.353 1121.042,538.251 1119.777,542.148 1118.546,546.046 1117.349,549.944 1116.185,553.841 1115.055,557.739 1113.957,561.636 1112.892,565.534 1111.86,569.431 1110.86,573.329 1109.893,577.227 1108.957,581.124 1108.053,585.022 1107.181,588.919 1106.34,592.817 1105.531,596.714 1104.753,600.612 1104.006,604.51 1103.29,608.407 1102.605,612.305 1101.95,616.202 1101.326,620.1 1100.732,623.997 1100.169,627.895 1099.636,631.793 1099.132,635.69 1098.659,639.588 1098.216,643.485 1097.803,647.383 1097.42,651.28 1097.066,655.178 1096.742,659.076 1096.448,662.973 1096.183,666.871 1095.948,670.768 1095.742,674.666 1095.566,678.563 1095.419,682.461 1095.302,686.359 1095.214,690.256 1095.155,694.154 1095.126,698.051 1095.126,701.949 1095.155,705.846 1095.214,709.744 1095.302,713.641 1095.419,717.539 1095.566,721.437 1095.742,725.334 1095.948,729.232 1096.183,733.129 1096.448,737.027 1096.742,740.924 1097.066,744.822 1097.42,748.72 1097.803,752.617 1098.216,756.515 1098.659,760.412 1099.132,764.31 1099.636,768.207 1100.169,772.105 1100.732,776.003 1101.326,779.9 1101.95,783.798 1102.605,787.695 1103.29,791.593 1104.006,795.49 1104.753,799.388 1105.531,803.286 1106.34,807.183 1107.181,811.081 1108.053,814.978 1108.957,818.876 1109.893,822.773 1110.86,826.671 1111.86,830.569 1112.892,834.466 1113.957,838.364 1115.055,842.261 1116.185,846.159 1117.349,850.056 1118.546,853.954 1119.777,857.852 1121.042,861.749 1122.342,865.647 1123.675,869.544 1125.044,873.442 1126.448,877.339 1127.887,881.237 1129.362,885.135 1130.872,889.032 1132.419,892.93 " />
</g>
<g>
<polyline fill="none" stroke="#7f7fff" points="1165.84,525.298 1167.85,528.827 1169.727,532.356 1171.479,535.886 1173.112,539.415 1174.634,542.944 1176.051,546.474 1177.368,550.003 1178.592,553.533 1179.728,557.062 1180.782,560.591 1181.758,564.121 1182.662,567.65 1183.498,571.179 1184.27,574.709 1184.982,578.238 1185.639,581.767 1186.244,585.297 1186.8,588.826 1187.311,592.355 1187.78,595.885 1188.21,599.414 1188.604,602.943 1188.964,606.473 1189.293,610.002 1189.592,613.531 1189.865,617.061 1190.114,620.59 1190.339,624.119 1190.543,627.649 1190.728,631.178 1190.895,634.707 1191.045,638.237 1191.181,641.766 1191.302,645.295 1191.411,648.825 1191.508,652.354 1191.594,655.883 1191.67,659.413 1191.737,662.942 1191.796,666.471 1191.848,670.001 1191.892,673.53 1191.929,677.059 1191.961,680.589 1191.986,684.118 1192.006,687.647 1192.021,691.177 1192.031,694.706 1192.036,698.235 1192.036,701.765 1192.031,705.294 1192.021,708.823 1192.006,712.353 1191.986,715.882 1191.961,719.411 1191.929,722.941 1191.892,726.47 1191.848,729.999 1191.796,733.529 1191.737,737.058 1191.67,740.587 1191.594,744.117 1191.508,747.646 1191.411,751.175 1191.302,754.705 1191.181,758.234 1191.045,761.763 1190.895,765.293 1190.728,768.822 1190.543,772.351 1190.339,775.881 1190.114,779.41 1189.865,782.939 1189.592,786.469 1189.293,789.998 1188.964,793.527 1188.604,797.057 1188.21,800.586 1187.78,804.115 1187.311,807.645 1186.8,811.174 1186.244,814.703 1185.639,818.233 1184.982,821.762 1184.27,825.291 1183.498,828.821 1182.662,832.35 1181.758,835.879 1180.782,839.409 1179.728,842.938 1178.592,846.467 1177.368,849.997 1176.051,853.526 1174.634,857.056 1173.112,860.585 1171.479,864.114 1169.727,867.644 1167.85,871.173 1165.84,874.702 " />
<line x1="1165.84" y1="516.184" x2="1165.84" y2="525.298"  stroke="#7f7fff" />
<line x1="1165.84" y1="516.184" x2="1208.673" y2="516.184"  stroke="#7f7fff" />
<line x1="1165.84" y1="883.816" x2="1165.84" y2="874.702"  stroke="#7f7fff" />
<line x1="1165.84" y1="883.816" x2="1208.673" y2="883.816"  stroke="#7f7fff" />
<polyline fill="none" stroke="#7f7fff" points="1208.673,516.184 1208.88,519.897 1209.084,523.611 1209.283,527.324 1209.477,531.038 1209.668,534.751 1209.854,538.465 1210.036,542.178 1210.214,545.892 1210.388,549.605 1210.557,553.319 1210.722,557.032 1210.883,560.745 1211.04,564.459 1211.192,568.172 1211.34,571.886 1211.484,575.599 1211.624,579.313 1211.759,583.026 1211.89,586.74 1212.017,590.453 1212.14,594.167 1212.258,597.88 1212.373,601.593 1212.483,605.307 1212.588,609.02 1212.69,612.734 1212.787,616.447 1212.88,620.161 1212.969,623.874 1213.054,627.588 1213.134,631.301 1213.21,635.015 1213.282,638.728 1213.35,642.441 1213.413,646.155 1213.473,649.868 1213.528,653.582 1213.578,657.295 1213.625,661.009 1213.667,664.722 1213.705,668.436 1213.739,672.149 1213.769,675.863 1213.794,679.576 1213.815,683.289 1213.832,687.003 1213.845,690.716 1213.853,694.43 1213.857,698.143 1213.857,701.857 1213.853,705.57 1213.845,709.284 1213.832,712.997 1213.815,716.711 1213.794,720.424 1213.769,724.137 1213.739,727.851 1213.705,731.564 1213.667,735.278 1213.625,738.991 1213.578,742.705 1213.528,746.418 1213.473,750.132 1213.413,753.845 1213.35,757.559 1213.282,761.272 1213.21,764.985 1213.134,768.699 1213.054,772.412 1212.969,776.126 1212.88,779.839 1212.787,783.553 1212.69,787.266 1212.588,790.98 1212.483,794.693 1212.373,798.407 1212.258,802.12 1212.14,805.833 1212.017,809.547 1211.89,813.26 1211.759,816.974 1211.624,820.687 1211.484,824.401 1211.34,828.114 1211.192,831.828 1211.04,835.541 1210.883,839.255 1210.722,842.968 1210.557,846.681 1210.388,850.395 1210.214,854.108 1210.036,857.822 1209.854,861.535 1209.668,865.249 1209.477,868.962 1209.283,872.676 1209.084,876.389 1208.88,880.103 1208.673,883.816 " />
</g>
<g>
<polyline fill="none" stroke="#7f7fff" points="1208.703,524.656 1210.475,528.198 1212.201,531.741 1213.883,535.283 1215.522,538.825 1217.117,542.368 1218.671,545.91 1220.182,549.452 1221.652,552.994 1223.082,556.537 1224.471,560.079 1225.82,563.621 1227.13,567.164 1228.401,570.706 1229.633,574.248 1230.827,577.791 1231.984,581.333 1233.102,584.875 1234.184,588.417 1235.229,591.96 1236.238,595.502 1237.21,599.044 1238.146,602.587 1239.047,606.129 1239.912,609.671 1240.742,613.214 1241.538,616.756 1242.298,620.298 1243.024,623.84 1243.716,627.383 1244.374,630.925 1244.997,634.467 1245.587,638.01 1246.144,641.552 1246.667,645.094 1247.156,648.637 1247.612,652.179 1248.036,655.721 1248.426,659.264 1248.784,662.806 1249.108,666.348 1249.4,669.89 1249.659,673.433 1249.886,676.975 1250.081,680.517 1250.242,684.06 1250.372,687.602 1250.469,691.144 1250.533,694.687 1250.566,698.229 1250.566,701.771 1250.533,705.313 1250.469,708.856 1250.372,712.398 1250.242,715.94 1250.081,719.483 1249.886,723.025 1249.659,726.567 1249.4,730.11 1249.108,733.652 1248.784,737.194 1248.426,740.736 1248.036,744.279 1247.612,747.821 1247.156,751.363 1246.667,754.906 1246.144,758.448 1245.587,761.99 1244.997,765.533 1244.374,769.075 1243.716,772.617 1243.024,776.16 1242.298,779.702 1241.538,783.244 1240.742,786.786 1239.912,790.329 1239.047,793.871 1238.146,797.413 1237.21,800.956 1236.238,804.498 1235.229,808.04 1234.184,811.583 1233.102,815.125 1231.984,818.667 1230.827,822.209 1229.633,825.752 1228.401,829.294 1227.13,832.836 1225.82,836.379 1224.471,839.921 1223.082,843.463 1221.652,847.006 1220.182,850.548 1218.671,854.09 1217.117,857.632 1215.522,861.175 1213.883,864.717 1212.201,868.259 1210.475,871.802 1208.703,875.344 " />
<line x1="1208.703" y1="496.159" x2="1208.703" y2="524.656"  stroke="#7f7fff" />
<line x1="1208.703" y1="496.159" x2="1304.05" y2="496.159"  stroke="#7f7fff" />
<line x1="1208.703" y1="903.841" x2="1208.703" y2="875.344"  stroke="#7f7fff" />
<line x1="1208.703" y1="903.841" x2="1304.05" y2="903.841"  stroke="#7f7fff" />
<polyline fill="none" stroke="#7f7fff" points="1304.05,496.159 1302.587,500.277 1301.158,504.395 1299.762,508.513 1298.399,512.631 1297.068,516.749 1295.77,520.867 1294.505,524.985 1293.272,529.103 1292.07,533.221 1290.901,537.339 1289.762,541.457 1288.655,545.575 1287.58,549.693 1286.535,553.811 1285.521,557.929 1284.538,562.047 1283.585,566.165 1282.662,570.283 1281.77,574.401 1280.908,578.519 1280.075,582.637 1279.273,586.755 1278.5,590.873 1277.757,594.991 1277.043,599.109 1276.359,603.227 1275.704,607.345 1275.078,611.463 1274.481,615.581 1273.913,619.699 1273.374,623.817 1272.864,627.935 1272.382,632.053 1271.929,636.171 1271.505,640.289 1271.11,644.407 1270.742,648.525 1270.404,652.643 1270.093,656.761 1269.811,660.879 1269.558,664.997 1269.332,669.115 1269.135,673.233 1268.966,677.351 1268.826,681.469 1268.713,685.587 1268.629,689.705 1268.572,693.823 1268.544,697.941 1268.544,702.059 1268.572,706.177 1268.629,710.295 1268.713,714.413 1268.826,718.531 1268.966,722.649 1269.135,726.767 1269.332,730.885 1269.558,735.003 1269.811,739.121 1270.093,743.239 1270.404,747.357 1270.742,751.475 1271.11,755.593 1271.505,759.711 1271.929,763.829 1272.382,767.947 1272.864,772.065 1273.374,776.183 1273.913,780.301 1274.481,784.419 1275.078,788.537 1275.704,792.655 1276.359,796.773 1277.043,800.891 1277.757,805.009 1278.5,809.127 1279.273,813.245 1280.075,817.363 1280.908,821.481 1281.77,825.599 1282.662,829.717 1283.585,833.835 1284.538,837.953 1285.521,842.071 1286.535,846.189 1287.58,850.307 1288.655,854.425 1289.762,858.543 1290.901,862.661 1292.07,866.779 1293.272,870.897 1294.505,875.015 1295.77,879.133 1297.068,883.251 1298.399,887.369 1299.762,891.487 1301.158,895.605 1302.587,899.723 1304.05,903.841 " />
<line x1="1304.05" y1="496.159" x2="1312.013" y2="496.159"  stroke="#7f7fff" />
<line x1="1304.05" y1="903.841" x2="1312.013" y2="903.841"  stroke="#7f7fff" />
<polyline fill="none" stroke="#7f7fff" points="1312.013,496.159 1314.934,500.277 1317.766,504.395 1320.513,508.513 1323.177,512.631 1325.759,516.749 1328.263,520.867 1330.69,524.985 1333.041,529.103 1335.32,533.221 1337.526,537.339 1339.662,541.457 1341.729,545.575 1343.729,549.693 1345.663,553.811 1347.532,557.929 1349.337,562.047 1351.079,566.165 1352.759,570.283 1354.379,574.401 1355.938,578.519 1357.439,582.637 1358.882,586.755 1360.267,590.873 1361.595,594.991 1362.867,599.109 1364.084,603.227 1365.246,607.345 1366.353,611.463 1367.407,615.581 1368.408,619.699 1369.356,623.817 1370.252,627.935 1371.095,632.053 1371.888,636.171 1372.629,640.289 1373.319,644.407 1373.958,648.525 1374.548,652.643 1375.087,656.761 1375.577,660.879 1376.017,664.997 1376.408,669.115 1376.749,673.233 1377.042,677.351 1377.285,681.469 1377.48,685.587 1377.626,689.705 1377.723,693.823 1377.772,697.941 1377.772,702.059 1377.723,706.177 1377.626,710.295 1377.48,714.413 1377.285,718.531 1377.042,722.649 1376.749,726.767 1376.408,730.885 1376.017,735.003 1375.577,739.121 1375.087,743.239 1374.548,747.357 1373.958,751.475 1373.319,755.593 1372.629,759.711 1371.888,763.829 1371.095,767.947 1370.252,772.065 1369.356,776.183 1368.408,780.301 1367.407,784.419 1366.353,788.537 1365.246,792.655 1364.084,796.773 1362.867,800.891 1361.595,805.009 1360.267,809.127 1358.882,813.245 1357.439,817.363 1355.938,821.481 1354.379,825.599 1352.759,829.717 1351.079,833.835 1349.337,837.953 1347.532,842.071 1345.663,846.189 1343.729,850.307 1341.729,854.425 1339.662,858.543 1337.526,862.661 1335.32,866.779 1333.041,870.897 1330.69,875.015 1328.263,879.133 1325.759,883.251 1323.177,887.369 1320.513,891.487 1317.766,895.605 1314.934,899.723 1312.013,903.841 " />
</g>
<g>
<polyline fill="none" stroke="#7f7fff" points="1400.477,498.983 1399.769,503.044 1399.026,507.105 1398.263,511.166 1397.489,515.227 1396.711,519.288 1395.937,523.349 1395.172,527.41 1394.419,531.471 1393.681,535.532 1392.96,539.593 1392.259,543.654 1391.578,547.715 1390.918,551.776 1390.278,555.837 1389.66,559.897 1389.063,563.958 1388.488,568.019 1387.932,572.08 1387.398,576.141 1386.883,580.202 1386.388,584.263 1385.913,588.324 1385.457,592.385 1385.02,596.446 1384.601,600.507 1384.2,604.568 1383.818,608.629 1383.454,612.69 1383.107,616.751 1382.778,620.812 1382.466,624.873 1382.171,628.934 1381.894,632.994 1381.633,637.055 1381.39,641.116 1381.163,645.177 1380.953,649.238 1380.76,653.299 1380.583,657.36 1380.423,661.421 1380.279,665.482 1380.151,669.543 1380.039,673.604 1379.943,677.665 1379.864,681.726 1379.8,685.787 1379.753,689.848 1379.721,693.909 1379.705,697.97 1379.705,702.03 1379.721,706.091 1379.753,710.152 1379.8,714.213 1379.864,718.274 1379.943,722.335 1380.039,726.396 1380.151,730.457 1380.279,734.518 1380.423,738.579 1380.583,742.64 1380.76,746.701 1380.953,750.762 1381.163,754.823 1381.39,758.884 1381.633,762.945 1381.894,767.006 1382.171,771.066 1382.466,775.127 1382.778,779.188 1383.107,783.249 1383.454,787.31 1383.818,791.371 1384.2,795.432 1384.601,799.493 1385.02,803.554 1385.457,807.615 1385.913,811.676 1386.388,815.737 1386.883,819.798 1387.398,823.859 1387.932,827.92 1388.488,831.981 1389.063,836.042 1389.66,840.103 1390.278,844.163 1390.918,848.224 1391.578,852.285 1392.259,856.346 1392.96,860.407 1393.681,864.468 1394.419,868.529 1395.172,872.59 1395.937,876.651 1396.711,880.712 1397.489,884.773 1398.263,888.834 1399.026,892.895 1399.769,896.956 1400.477,901.017 " />
<line x1="1400.477" y1="498.983" x2="1414.509" y2="498.983"  stroke="#7f7fff" />
<line x1="1400.477" y1="901.017" x2="1414.509" y2="901.017"  stroke="#7f7fff" />
<polyline fill="none" stroke="#7f7fff" points="1414.509,498.983 1416.492,503.044 1418.394,507.105 1420.225,511.166 1421.994,515.227 1423.708,519.288 1425.373,523.349 1426.993,527.41 1428.572,531.471 1430.112,535.532 1431.614,539.593 1433.081,543.654 1434.513,547.715 1435.91,551.776 1437.274,555.837 1438.603,559.897 1439.899,563.958 1441.161,568.019 1442.388,572.08 1443.581,576.141 1444.738,580.202 1445.861,584.263 1446.948,588.324 1447.999,592.385 1449.014,596.446 1449.993,600.507 1450.935,604.568 1451.841,608.629 1452.709,612.69 1453.54,616.751 1454.333,620.812 1455.088,624.873 1455.805,628.934 1456.484,632.994 1457.125,637.055 1457.726,641.116 1458.289,645.177 1458.813,649.238 1459.297,653.299 1459.742,657.36 1460.147,661.421 1460.512,665.482 1460.837,669.543 1461.122,673.604 1461.367,677.665 1461.57,681.726 1461.734,685.787 1461.856,689.848 1461.938,693.909 1461.979,697.97 1461.979,702.03 1461.938,706.091 1461.856,710.152 1461.734,714.213 1461.57,718.274 1461.367,722.335 1461.122,726.396 1460.837,730.457 1460.512,734.518 1460.147,738.579 1459.742,742.64 1459.297,746.701 1458.813,750.762 1458.289,754.823 1457.726,758.884 1457.125,762.945 1456.484,767.006 1455.805,771.066 1455.088,775.127 1454.333,779.188 1453.54,783.249 1452.709,787.31 1451.841,791.371 1450.935,795.432 1449.993,799.493 1449.014,803.554 1447.999,807.615 1446.948,811.676 1445.861,815.737 1444.738,819.798 1443.581,823.859 1442.388,827.92 1441.161,831.981 1439.899,836.042 1438.603,840.103 1437.274,844.163 1435.91,848.224 1434.513,852.285 1433.081,856.346 1431.614,860.407 1430.112,864.468 1428.572,868.529 1426.993,872.59 1425.373,876.651 1423.708,880.712 1421.994,884.773 1420.225,888.834 1418.394,892.895 1416.492,896.956 1414.509,901.017 " />
</g>
<g>
<polyline fill="none" stroke="#7f7fff" points="1443.653,500.395 1444.498,504.428 1445.324,508.46 1446.133,512.493 1446.924,516.525 1447.697,520.557 1448.453,524.59 1449.19,528.622 1449.91,532.655 1450.612,536.687 1451.297,540.72 1451.964,544.752 1452.613,548.784 1453.245,552.817 1453.86,556.849 1454.457,560.882 1455.036,564.914 1455.598,568.946 1456.143,572.979 1456.671,577.011 1457.181,581.044 1457.674,585.076 1458.15,589.109 1458.608,593.141 1459.05,597.173 1459.474,601.206 1459.881,605.238 1460.271,609.271 1460.643,613.303 1460.999,617.335 1461.338,621.368 1461.659,625.4 1461.964,629.433 1462.252,633.465 1462.522,637.498 1462.776,641.53 1463.012,645.562 1463.232,649.595 1463.435,653.627 1463.621,657.66 1463.789,661.692 1463.941,665.724 1464.076,669.757 1464.195,673.789 1464.296,677.822 1464.38,681.854 1464.448,685.887 1464.498,689.919 1464.532,693.951 1464.549,697.984 1464.549,702.016 1464.532,706.049 1464.498,710.081 1464.448,714.113 1464.38,718.146 1464.296,722.178 1464.195,726.211 1464.076,730.243 1463.941,734.276 1463.789,738.308 1463.621,742.34 1463.435,746.373 1463.232,750.405 1463.012,754.438 1462.776,758.47 1462.522,762.502 1462.252,766.535 1461.964,770.567 1461.659,774.6 1461.338,778.632 1460.999,782.665 1460.643,786.697 1460.271,790.729 1459.881,794.762 1459.474,798.794 1459.05,802.827 1458.608,806.859 1458.15,810.891 1457.674,814.924 1457.181,818.956 1456.671,822.989 1456.143,827.021 1455.598,831.054 1455.036,835.086 1454.457,839.118 1453.86,843.151 1453.245,847.183 1452.613,851.216 1451.964,855.248 1451.297,859.28 1450.612,863.313 1449.91,867.345 1449.19,871.378 1448.453,875.41 1447.697,879.443 1446.924,883.475 1446.133,887.507 1445.324,891.54 1444.498,895.572 1443.653,899.605 " />
<line x1="1533.856" y1="500.395" x2="1533.856" y2="510.151"  stroke="#7f7fff" />
<line x1="1443.653" y1="500.395" x2="1533.856" y2="500.395"  stroke="#7f7fff" />
<line x1="1533.856" y1="899.605" x2="1533.856" y2="889.849"  stroke="#7f7fff" />
<line x1="1443.653" y1="899.605" x2="1533.856" y2="899.605"  stroke="#7f7fff" />
<polyline fill="none" stroke="#7f7fff" points="1533.856,510.151 1531.711,513.986 1529.624,517.822 1527.592,521.657 1525.615,525.492 1523.692,529.328 1521.823,533.163 1520.005,536.998 1518.239,540.834 1516.523,544.669 1514.857,548.504 1513.24,552.34 1511.672,556.175 1510.152,560.01 1508.679,563.846 1507.252,567.681 1505.872,571.516 1504.537,575.352 1503.248,579.187 1502.003,583.022 1500.802,586.858 1499.645,590.693 1498.531,594.528 1497.46,598.364 1496.432,602.199 1495.446,606.034 1494.502,609.87 1493.599,613.705 1492.738,617.54 1491.917,621.376 1491.138,625.211 1490.399,629.046 1489.7,632.882 1489.041,636.717 1488.422,640.552 1487.842,644.388 1487.302,648.223 1486.802,652.058 1486.34,655.894 1485.917,659.729 1485.533,663.564 1485.188,667.4 1484.881,671.235 1484.613,675.07 1484.384,678.906 1484.193,682.741 1484.04,686.576 1483.925,690.412 1483.849,694.247 1483.81,698.082 1483.81,701.918 1483.849,705.753 1483.925,709.588 1484.04,713.424 1484.193,717.259 1484.384,721.094 1484.613,724.93 1484.881,728.765 1485.188,732.6 1485.533,736.436 1485.917,740.271 1486.34,744.106 1486.802,747.942 1487.302,751.777 1487.842,755.612 1488.422,759.448 1489.041,763.283 1489.7,767.118 1490.399,770.954 1491.138,774.789 1491.917,778.624 1492.738,782.46 1493.599,786.295 1494.502,790.13 1495.446,793.966 1496.432,797.801 1497.46,801.636 1498.531,805.472 1499.645,809.307 1500.802,813.142 1502.003,816.978 1503.248,820.813 1504.537,824.648 1505.872,828.484 1507.252,832.319 1508.679,836.154 1510.152,839.99 1511.672,843.825 1513.24,847.66 1514.857,851.496 1516.523,855.331 1518.239,859.166 1520.005,863.002 1521.823,866.837 1523.692,870.672 1525.615,874.508 1527.592,878.343 1529.624,882.178 1531.711,886.014 1533.856,889.849 " />
</g>
</g>
<g><title>element</title>
<polyline fill="none" stroke="#7f7fff" points="1785.459,144.444 1785.459,155.668 1785.459,166.891 1785.459,178.114 1785.459,189.338 1785.459,200.561 1785.459,211.785 1785.459,223.008 1785.459,234.231 1785.459,245.455 1785.459,256.678 1785.459,267.901 1785.459,279.125 1785.459,290.348 1785.459,301.571 1785.459,312.795 1785.459,324.018 1785.459,335.241 1785.459,346.465 1785.459,357.688 1785.459,368.911 1785.459,380.135 1785.459,391.358 1785.459,402.581 1785.459,413.805 1785.459,425.028 1785.459,436.251 1785.459,447.475 1785.459,458.698 1785.459,469.921 1785.459,481.145 1785.459,492.368 1785.459,503.591 1785.459,514.815 1785.459,526.038 1785.459,537.262 1785.459,548.485 1785.459,559.708 1785.459,570.932 1785.459,582.155 1785.459,593.378 1785.459,604.602 1785.459,615.825 1785.459,627.048 1785.459,638.272 1785.459,649.495 1785.459,660.718 1785.459,671.942 1785.459,683.165 1785.459,694.388 1785.459,705.612 1785.459,716.835 1785.459,728.058 1785.459,739.282 1785.459,750.505 1785.459,761.728 1785.459,772.952 1785.459,784.175 1785.459,795.398 1785.459,806.622 1785.459,817.845 1785.459,829.068 1785.459,840.292 1785.459,851.515 1785.459,862.738 1785.459,873.962 1785.459,885.185 1785.459,896.409 1785.459,907.632 1785.459,918.855 1785.459,930.079 1785.459,941.302 1785.459,952.525 1785.459,963.749 1785.459,974.972 1785.459,986.195 1785.459,997.419 1785.459,1008.642 1785.459,1019.865 1785.459,1031.089 1785.459,1042.312 1785.459,1053.535 1785.459,1064.759 1785.459,1075.982 1785.459,1087.205 1785.459,1098.429 1785.459,1109.652 1785.459,1120.875 1785.459,1132.099 1785.459,1143.322 1785.459,1154.545 1785.459,1165.769 1785.459,1176.992 1785.459,1188.215 1785.459,1199.439 1785.459,1210.662 1785.459,1221.886 1785.459,1233.109 1785.459,1244.332 1785.459,1255.556 " />
</g>
</svg>
