<?xml version="1.0" standalone="no"?>
<svg width="300px" height="300px" version="1.1" xmlns="http://www.w3.org/2000/svg"
     xmlns:xlink="http://www.w3.org/1999/xlink">
    <rect x="0" y="0" width="300" height="300" fill="#000000"/>
    <defs>
        <g id="dot">
            <line x1="1" y1="1" x2="0" y2="0"/>
        </g>
        <g id="cross">
            <line x1="-3" y1="0" x2="3" y2="0"/>
            <line x1="0" y1="-3" x2="0" y2="3"/>
        </g>
        <g id="square">
            <line x1="-3" y1="-3" x2="-3" y2="3"/>
            <line x1="-3" y1="3" x2="3" y2="3"/>
            <line x1="3" y1="3" x2="3" y2="-3"/>
            <line x1="3" y1="-3" x2="-3" y2="-3"/>
        </g>
        <g id="round">
            <ellipse cx="0" cy="0" rx="3" ry="3" fill="none"/>
        </g>
        <g id="triangle">
            <line x1="0" y1="-3" x2="-3" y2="3"/>
            <line x1="-3" y1="3" x2="3" y2="3"/>
            <line x1="0" y1="-3" x2="3" y2="3"/>
        </g>
    </defs>
    <polygon fill="none" stroke="#ffffff" points="30.952,269.048 30.952,30.952 269.048,30.952 269.048,269.048 "/>
    <text style="font-size:12;text-align:center;text-anchor:middle;" x="150" y="298.262" fill="#ffffff">Sagittal
        distance (um)
    </text>
    <use x="70.635" y="30.952" xlink:href="#cross" stroke="#ffffff"/>
    <use x="70.635" y="269.048" xlink:href="#cross" stroke="#ffffff"/>
    <text style="font-size:12;text-align:center;text-anchor:middle;" x="70.635" y="287.048" fill="#ffffff">-165</text>
    <use x="150" y="30.952" xlink:href="#cross" stroke="#ffffff"/>
    <use x="150" y="269.048" xlink:href="#cross" stroke="#ffffff"/>
    <text style="font-size:12;text-align:center;text-anchor:middle;" x="150" y="287.048" fill="#ffffff">0</text>
    <use x="229.365" y="30.952" xlink:href="#cross" stroke="#ffffff"/>
    <use x="229.365" y="269.048" xlink:href="#cross" stroke="#ffffff"/>
    <text style="font-size:12;text-align:center;text-anchor:middle;" x="229.365" y="287.048" fill="#ffffff">165</text>
    <text style="font-size:12;text-align:center;text-anchor:middle;" x="7.738" y="156" transform="rotate(-90,7.738,150)"
          fill="#ffffff">Tangential distance (um)
    </text>
    <use x="269.048" y="257.704" xlink:href="#cross" stroke="#ffffff"/>
    <use x="30.952" y="257.704" xlink:href="#cross" stroke="#ffffff"/>
    <text style="font-size:12;text-align:right;text-anchor:end;" x="24.952" y="263.704" fill="#ffffff">-165</text>
    <use x="269.048" y="178.339" xlink:href="#cross" stroke="#ffffff"/>
    <use x="30.952" y="178.339" xlink:href="#cross" stroke="#ffffff"/>
    <text style="font-size:12;text-align:right;text-anchor:end;" x="24.952" y="184.339" fill="#ffffff">0</text>
    <use x="269.048" y="98.974" xlink:href="#cross" stroke="#ffffff"/>
    <use x="30.952" y="98.974" xlink:href="#cross" stroke="#ffffff"/>
    <text style="font-size:12;text-align:right;text-anchor:end;" x="24.952" y="104.974" fill="#ffffff">165</text>
    <use x="173.206" y="189.325" xlink:href="#dot" stroke="#ffe100"/>
    <use x="181.405" y="196.031" xlink:href="#dot" stroke="#ff0000"/>
    <use x="174.639" y="179.268" xlink:href="#dot" stroke="#00ebff"/>
    <use x="169.491" y="193.494" xlink:href="#dot" stroke="#ffe100"/>
    <use x="176.541" y="201.064" xlink:href="#dot" stroke="#ff0000"/>
    <use x="171.115" y="182.454" xlink:href="#dot" stroke="#00ebff"/>
    <use x="164.187" y="197.823" xlink:href="#dot" stroke="#ffe100"/>
    <use x="170.244" y="206.147" xlink:href="#dot" stroke="#ff0000"/>
    <use x="165.807" y="185.93" xlink:href="#dot" stroke="#00ebff"/>
    <use x="158.195" y="202.07" xlink:href="#dot" stroke="#ffe100"/>
    <use x="163.37" y="211.047" xlink:href="#dot" stroke="#ff0000"/>
    <use x="159.688" y="189.443" xlink:href="#dot" stroke="#00ebff"/>
    <use x="152.71" y="205.737" xlink:href="#dot" stroke="#ffe100"/>
    <use x="157.074" y="215.271" xlink:href="#dot" stroke="#ff0000"/>
    <use x="154.004" y="192.479" xlink:href="#dot" stroke="#00ebff"/>
    <use x="148.622" y="208.452" xlink:href="#dot" stroke="#ffe100"/>
    <use x="152.223" y="218.454" xlink:href="#dot" stroke="#ff0000"/>
    <use x="149.686" y="194.66" xlink:href="#dot" stroke="#00ebff"/>
    <use x="146.307" y="210.117" xlink:href="#dot" stroke="#ffe100"/>
    <use x="149.173" y="220.502" xlink:href="#dot" stroke="#ff0000"/>
    <use x="147.136" y="195.883" xlink:href="#dot" stroke="#00ebff"/>
    <use x="145.686" y="210.892" xlink:href="#dot" stroke="#ffe100"/>
    <use x="147.83" y="221.574" xlink:href="#dot" stroke="#ff0000"/>
    <use x="146.287" y="196.309" xlink:href="#dot" stroke="#00ebff"/>
    <use x="146.398" y="211.085" xlink:href="#dot" stroke="#ffe100"/>
    <use x="147.827" y="221.981" xlink:href="#dot" stroke="#ff0000"/>
    <use x="146.787" y="196.249" xlink:href="#dot" stroke="#00ebff"/>
    <use x="147.987" y="211.032" xlink:href="#dot" stroke="#ffe100"/>
    <use x="148.702" y="222.057" xlink:href="#dot" stroke="#ff0000"/>
    <use x="148.178" y="196.043" xlink:href="#dot" stroke="#00ebff"/>
    <use x="150" y="210.984" xlink:href="#dot" stroke="#ffe100"/>
    <use x="150" y="222.051" xlink:href="#dot" stroke="#ff0000"/>
    <use x="150" y="195.944" xlink:href="#dot" stroke="#00ebff"/>
    <use x="152.013" y="211.032" xlink:href="#dot" stroke="#ffe100"/>
    <use x="151.298" y="222.057" xlink:href="#dot" stroke="#ff0000"/>
    <use x="151.822" y="196.043" xlink:href="#dot" stroke="#00ebff"/>
    <use x="153.602" y="211.085" xlink:href="#dot" stroke="#ffe100"/>
    <use x="152.173" y="221.981" xlink:href="#dot" stroke="#ff0000"/>
    <use x="153.213" y="196.249" xlink:href="#dot" stroke="#00ebff"/>
    <use x="154.314" y="210.892" xlink:href="#dot" stroke="#ffe100"/>
    <use x="152.17" y="221.574" xlink:href="#dot" stroke="#ff0000"/>
    <use x="153.713" y="196.309" xlink:href="#dot" stroke="#00ebff"/>
    <use x="153.693" y="210.117" xlink:href="#dot" stroke="#ffe100"/>
    <use x="150.827" y="220.502" xlink:href="#dot" stroke="#ff0000"/>
    <use x="152.864" y="195.883" xlink:href="#dot" stroke="#00ebff"/>
    <use x="151.378" y="208.452" xlink:href="#dot" stroke="#ffe100"/>
    <use x="147.777" y="218.454" xlink:href="#dot" stroke="#ff0000"/>
    <use x="150.314" y="194.66" xlink:href="#dot" stroke="#00ebff"/>
    <use x="147.29" y="205.737" xlink:href="#dot" stroke="#ffe100"/>
    <use x="142.926" y="215.271" xlink:href="#dot" stroke="#ff0000"/>
    <use x="145.996" y="192.479" xlink:href="#dot" stroke="#00ebff"/>
    <use x="141.805" y="202.07" xlink:href="#dot" stroke="#ffe100"/>
    <use x="136.63" y="211.047" xlink:href="#dot" stroke="#ff0000"/>
    <use x="140.312" y="189.443" xlink:href="#dot" stroke="#00ebff"/>
    <use x="135.813" y="197.823" xlink:href="#dot" stroke="#ffe100"/>
    <use x="129.756" y="206.147" xlink:href="#dot" stroke="#ff0000"/>
    <use x="134.193" y="185.93" xlink:href="#dot" stroke="#00ebff"/>
    <use x="130.509" y="193.494" xlink:href="#dot" stroke="#ffe100"/>
    <use x="123.459" y="201.064" xlink:href="#dot" stroke="#ff0000"/>
    <use x="128.885" y="182.454" xlink:href="#dot" stroke="#00ebff"/>
    <use x="126.794" y="189.325" xlink:href="#dot" stroke="#ffe100"/>
    <use x="118.595" y="196.031" xlink:href="#dot" stroke="#ff0000"/>
    <use x="125.361" y="179.268" xlink:href="#dot" stroke="#00ebff"/>
    <use x="201.64" y="168.814" xlink:href="#dot" stroke="#ffe100"/>
    <use x="213.766" y="168.309" xlink:href="#dot" stroke="#ff0000"/>
    <use x="201.804" y="165.697" xlink:href="#dot" stroke="#00ebff"/>
    <use x="192.834" y="185.767" xlink:href="#dot" stroke="#ffe100"/>
    <use x="203.092" y="186.613" xlink:href="#dot" stroke="#ff0000"/>
    <use x="193.807" y="181.782" xlink:href="#dot" stroke="#00ebff"/>
    <use x="183.8" y="192.873" xlink:href="#dot" stroke="#ffe100"/>
    <use x="192.516" y="194.95" xlink:href="#dot" stroke="#ff0000"/>
    <use x="185.411" y="187.661" xlink:href="#dot" stroke="#00ebff"/>
    <use x="177.248" y="194.497" xlink:href="#dot" stroke="#ffe100"/>
    <use x="184.683" y="197.651" xlink:href="#dot" stroke="#ff0000"/>
    <use x="179.262" y="188.101" xlink:href="#dot" stroke="#00ebff"/>
    <use x="171.421" y="194.438" xlink:href="#dot" stroke="#ffe100"/>
    <use x="177.779" y="198.517" xlink:href="#dot" stroke="#ff0000"/>
    <use x="173.609" y="187.013" xlink:href="#dot" stroke="#00ebff"/>
    <use x="165.138" y="194.789" xlink:href="#dot" stroke="#ffe100"/>
    <use x="170.571" y="199.653" xlink:href="#dot" stroke="#ff0000"/>
    <use x="167.31" y="186.51" xlink:href="#dot" stroke="#00ebff"/>
    <use x="158.589" y="196.025" xlink:href="#dot" stroke="#ffe100"/>
    <use x="163.205" y="201.551" xlink:href="#dot" stroke="#ff0000"/>
    <use x="160.611" y="187.048" xlink:href="#dot" stroke="#00ebff"/>
    <use x="152.643" y="197.773" xlink:href="#dot" stroke="#ffe100"/>
    <use x="156.517" y="203.853" xlink:href="#dot" stroke="#ff0000"/>
    <use x="154.429" y="188.229" xlink:href="#dot" stroke="#00ebff"/>
    <use x="148.135" y="199.476" xlink:href="#dot" stroke="#ffe100"/>
    <use x="151.316" y="206.011" xlink:href="#dot" stroke="#ff0000"/>
    <use x="149.637" y="189.473" xlink:href="#dot" stroke="#00ebff"/>
    <use x="145.509" y="200.745" xlink:href="#dot" stroke="#ffe100"/>
    <use x="148.031" y="207.644" xlink:href="#dot" stroke="#ff0000"/>
    <use x="146.708" y="190.378" xlink:href="#dot" stroke="#00ebff"/>
    <use x="144.773" y="201.465" xlink:href="#dot" stroke="#ffe100"/>
    <use x="146.655" y="208.643" xlink:href="#dot" stroke="#ff0000"/>
    <use x="145.665" y="190.82" xlink:href="#dot" stroke="#00ebff"/>
    <use x="145.609" y="201.743" xlink:href="#dot" stroke="#ffe100"/>
    <use x="146.86" y="209.118" xlink:href="#dot" stroke="#ff0000"/>
    <use x="146.198" y="190.899" xlink:href="#dot" stroke="#00ebff"/>
    <use x="147.532" y="201.785" xlink:href="#dot" stroke="#ffe100"/>
    <use x="148.156" y="209.277" xlink:href="#dot" stroke="#ff0000"/>
    <use x="147.824" y="190.823" xlink:href="#dot" stroke="#00ebff"/>
    <use x="150" y="201.775" xlink:href="#dot" stroke="#ffe100"/>
    <use x="150" y="209.306" xlink:href="#dot" stroke="#ff0000"/>
    <use x="150" y="190.773" xlink:href="#dot" stroke="#00ebff"/>
    <use x="152.468" y="201.785" xlink:href="#dot" stroke="#ffe100"/>
    <use x="151.844" y="209.277" xlink:href="#dot" stroke="#ff0000"/>
    <use x="152.176" y="190.823" xlink:href="#dot" stroke="#00ebff"/>
    <use x="154.391" y="201.743" xlink:href="#dot" stroke="#ffe100"/>
    <use x="153.14" y="209.118" xlink:href="#dot" stroke="#ff0000"/>
    <use x="153.802" y="190.899" xlink:href="#dot" stroke="#00ebff"/>
    <use x="155.227" y="201.465" xlink:href="#dot" stroke="#ffe100"/>
    <use x="153.345" y="208.643" xlink:href="#dot" stroke="#ff0000"/>
    <use x="154.335" y="190.82" xlink:href="#dot" stroke="#00ebff"/>
    <use x="154.491" y="200.745" xlink:href="#dot" stroke="#ffe100"/>
    <use x="151.969" y="207.644" xlink:href="#dot" stroke="#ff0000"/>
    <use x="153.292" y="190.378" xlink:href="#dot" stroke="#00ebff"/>
    <use x="151.865" y="199.476" xlink:href="#dot" stroke="#ffe100"/>
    <use x="148.684" y="206.011" xlink:href="#dot" stroke="#ff0000"/>
    <use x="150.363" y="189.473" xlink:href="#dot" stroke="#00ebff"/>
    <use x="147.357" y="197.773" xlink:href="#dot" stroke="#ffe100"/>
    <use x="143.483" y="203.853" xlink:href="#dot" stroke="#ff0000"/>
    <use x="145.571" y="188.229" xlink:href="#dot" stroke="#00ebff"/>
    <use x="141.411" y="196.025" xlink:href="#dot" stroke="#ffe100"/>
    <use x="136.795" y="201.551" xlink:href="#dot" stroke="#ff0000"/>
    <use x="139.389" y="187.048" xlink:href="#dot" stroke="#00ebff"/>
    <use x="134.862" y="194.789" xlink:href="#dot" stroke="#ffe100"/>
    <use x="129.429" y="199.653" xlink:href="#dot" stroke="#ff0000"/>
    <use x="132.69" y="186.51" xlink:href="#dot" stroke="#00ebff"/>
    <use x="128.579" y="194.438" xlink:href="#dot" stroke="#ffe100"/>
    <use x="122.221" y="198.517" xlink:href="#dot" stroke="#ff0000"/>
    <use x="126.391" y="187.013" xlink:href="#dot" stroke="#00ebff"/>
    <use x="122.752" y="194.497" xlink:href="#dot" stroke="#ffe100"/>
    <use x="115.317" y="197.651" xlink:href="#dot" stroke="#ff0000"/>
    <use x="120.738" y="188.101" xlink:href="#dot" stroke="#00ebff"/>
    <use x="116.2" y="192.873" xlink:href="#dot" stroke="#ffe100"/>
    <use x="107.484" y="194.95" xlink:href="#dot" stroke="#ff0000"/>
    <use x="114.589" y="187.661" xlink:href="#dot" stroke="#00ebff"/>
    <use x="107.166" y="185.767" xlink:href="#dot" stroke="#ffe100"/>
    <use x="96.908" y="186.613" xlink:href="#dot" stroke="#ff0000"/>
    <use x="106.193" y="181.782" xlink:href="#dot" stroke="#00ebff"/>
    <use x="98.36" y="168.814" xlink:href="#dot" stroke="#ffe100"/>
    <use x="86.234" y="168.309" xlink:href="#dot" stroke="#ff0000"/>
    <use x="98.196" y="165.697" xlink:href="#dot" stroke="#00ebff"/>
    <use x="200.639" y="165.418" xlink:href="#dot" stroke="#ffe100"/>
    <use x="210.421" y="163.309" xlink:href="#dot" stroke="#ff0000"/>
    <use x="201.837" y="163.54" xlink:href="#dot" stroke="#00ebff"/>
    <use x="185.085" y="184.62" xlink:href="#dot" stroke="#ffe100"/>
    <use x="193.413" y="183.858" xlink:href="#dot" stroke="#ff0000"/>
    <use x="186.666" y="181.786" xlink:href="#dot" stroke="#00ebff"/>
    <use x="174.753" y="190.355" xlink:href="#dot" stroke="#ffe100"/>
    <use x="181.832" y="190.787" xlink:href="#dot" stroke="#ff0000"/>
    <use x="176.721" y="186.31" xlink:href="#dot" stroke="#00ebff"/>
    <use x="167.653" y="189.986" xlink:href="#dot" stroke="#ffe100"/>
    <use x="173.67" y="191.434" xlink:href="#dot" stroke="#ff0000"/>
    <use x="169.851" y="184.824" xlink:href="#dot" stroke="#00ebff"/>
    <use x="161.597" y="188.19" xlink:href="#dot" stroke="#ffe100"/>
    <use x="166.705" y="190.486" xlink:href="#dot" stroke="#ff0000"/>
    <use x="163.846" y="182.104" xlink:href="#dot" stroke="#00ebff"/>
    <use x="155.795" y="187.13" xlink:href="#dot" stroke="#ffe100"/>
    <use x="160.108" y="190.128" xlink:href="#dot" stroke="#ff0000"/>
    <use x="157.944" y="180.313" xlink:href="#dot" stroke="#00ebff"/>
    <use x="150.556" y="187.223" xlink:href="#dot" stroke="#ffe100"/>
    <use x="154.155" y="190.796" xlink:href="#dot" stroke="#ff0000"/>
    <use x="152.496" y="179.84" xlink:href="#dot" stroke="#00ebff"/>
    <use x="146.537" y="188.078" xlink:href="#dot" stroke="#ffe100"/>
    <use x="149.478" y="192.116" xlink:href="#dot" stroke="#ff0000"/>
    <use x="148.2" y="180.262" xlink:href="#dot" stroke="#00ebff"/>
    <use x="144.223" y="189.155" xlink:href="#dot" stroke="#ffe100"/>
    <use x="146.544" y="193.559" xlink:href="#dot" stroke="#ff0000"/>
    <use x="145.572" y="181.009" xlink:href="#dot" stroke="#00ebff"/>
    <use x="143.734" y="190.073" xlink:href="#dot" stroke="#ffe100"/>
    <use x="145.46" y="194.754" xlink:href="#dot" stroke="#ff0000"/>
    <use x="144.75" y="181.685" xlink:href="#dot" stroke="#00ebff"/>
    <use x="144.85" y="190.685" xlink:href="#dot" stroke="#ffe100"/>
    <use x="145.994" y="195.559" xlink:href="#dot" stroke="#ff0000"/>
    <use x="145.528" y="182.13" xlink:href="#dot" stroke="#00ebff"/>
    <use x="147.125" y="191.004" xlink:href="#dot" stroke="#ffe100"/>
    <use x="147.696" y="195.993" xlink:href="#dot" stroke="#ff0000"/>
    <use x="147.464" y="182.351" xlink:href="#dot" stroke="#00ebff"/>
    <use x="150" y="191.099" xlink:href="#dot" stroke="#ffe100"/>
    <use x="150" y="196.126" xlink:href="#dot" stroke="#ff0000"/>
    <use x="150" y="182.414" xlink:href="#dot" stroke="#00ebff"/>
    <use x="152.875" y="191.004" xlink:href="#dot" stroke="#ffe100"/>
    <use x="152.304" y="195.993" xlink:href="#dot" stroke="#ff0000"/>
    <use x="152.536" y="182.351" xlink:href="#dot" stroke="#00ebff"/>
    <use x="155.15" y="190.685" xlink:href="#dot" stroke="#ffe100"/>
    <use x="154.006" y="195.559" xlink:href="#dot" stroke="#ff0000"/>
    <use x="154.472" y="182.13" xlink:href="#dot" stroke="#00ebff"/>
    <use x="156.266" y="190.073" xlink:href="#dot" stroke="#ffe100"/>
    <use x="154.54" y="194.754" xlink:href="#dot" stroke="#ff0000"/>
    <use x="155.25" y="181.685" xlink:href="#dot" stroke="#00ebff"/>
    <use x="155.777" y="189.155" xlink:href="#dot" stroke="#ffe100"/>
    <use x="153.456" y="193.559" xlink:href="#dot" stroke="#ff0000"/>
    <use x="154.428" y="181.009" xlink:href="#dot" stroke="#00ebff"/>
    <use x="153.463" y="188.078" xlink:href="#dot" stroke="#ffe100"/>
    <use x="150.522" y="192.116" xlink:href="#dot" stroke="#ff0000"/>
    <use x="151.8" y="180.262" xlink:href="#dot" stroke="#00ebff"/>
    <use x="149.444" y="187.223" xlink:href="#dot" stroke="#ffe100"/>
    <use x="145.845" y="190.796" xlink:href="#dot" stroke="#ff0000"/>
    <use x="147.504" y="179.84" xlink:href="#dot" stroke="#00ebff"/>
    <use x="144.205" y="187.13" xlink:href="#dot" stroke="#ffe100"/>
    <use x="139.892" y="190.128" xlink:href="#dot" stroke="#ff0000"/>
    <use x="142.056" y="180.313" xlink:href="#dot" stroke="#00ebff"/>
    <use x="138.403" y="188.19" xlink:href="#dot" stroke="#ffe100"/>
    <use x="133.295" y="190.486" xlink:href="#dot" stroke="#ff0000"/>
    <use x="136.154" y="182.104" xlink:href="#dot" stroke="#00ebff"/>
    <use x="132.347" y="189.986" xlink:href="#dot" stroke="#ffe100"/>
    <use x="126.33" y="191.434" xlink:href="#dot" stroke="#ff0000"/>
    <use x="130.149" y="184.824" xlink:href="#dot" stroke="#00ebff"/>
    <use x="125.247" y="190.355" xlink:href="#dot" stroke="#ffe100"/>
    <use x="118.168" y="190.787" xlink:href="#dot" stroke="#ff0000"/>
    <use x="123.279" y="186.31" xlink:href="#dot" stroke="#00ebff"/>
    <use x="114.915" y="184.62" xlink:href="#dot" stroke="#ffe100"/>
    <use x="106.587" y="183.858" xlink:href="#dot" stroke="#ff0000"/>
    <use x="113.334" y="181.786" xlink:href="#dot" stroke="#00ebff"/>
    <use x="99.361" y="165.418" xlink:href="#dot" stroke="#ffe100"/>
    <use x="89.579" y="163.309" xlink:href="#dot" stroke="#ff0000"/>
    <use x="98.163" y="163.54" xlink:href="#dot" stroke="#00ebff"/>
    <use x="190.561" y="156.443" xlink:href="#dot" stroke="#ffe100"/>
    <use x="198.774" y="153.193" xlink:href="#dot" stroke="#ff0000"/>
    <use x="191.904" y="155.134" xlink:href="#dot" stroke="#00ebff"/>
    <use x="173.845" y="178.712" xlink:href="#dot" stroke="#ffe100"/>
    <use x="180.826" y="176.787" xlink:href="#dot" stroke="#ff0000"/>
    <use x="175.44" y="176.427" xlink:href="#dot" stroke="#00ebff"/>
    <use x="163.95" y="185.044" xlink:href="#dot" stroke="#ffe100"/>
    <use x="169.856" y="184.266" xlink:href="#dot" stroke="#ff0000"/>
    <use x="165.828" y="181.587" xlink:href="#dot" stroke="#00ebff"/>
    <use x="157.526" y="184.565" xlink:href="#dot" stroke="#ffe100"/>
    <use x="162.505" y="184.741" xlink:href="#dot" stroke="#ff0000"/>
    <use x="159.554" y="180.063" xlink:href="#dot" stroke="#00ebff"/>
    <use x="152.52" y="182.455" xlink:href="#dot" stroke="#ffe100"/>
    <use x="156.694" y="183.409" xlink:href="#dot" stroke="#ff0000"/>
    <use x="154.543" y="177.115" xlink:href="#dot" stroke="#00ebff"/>
    <use x="148.324" y="180.98" xlink:href="#dot" stroke="#ffe100"/>
    <use x="151.785" y="182.561" xlink:href="#dot" stroke="#ff0000"/>
    <use x="150.21" y="175.004" xlink:href="#dot" stroke="#00ebff"/>
    <use x="145.153" y="180.617" xlink:href="#dot" stroke="#ffe100"/>
    <use x="147.966" y="182.697" xlink:href="#dot" stroke="#ff0000"/>
    <use x="146.81" y="174.172" xlink:href="#dot" stroke="#00ebff"/>
    <use x="143.392" y="181.052" xlink:href="#dot" stroke="#ffe100"/>
    <use x="145.602" y="183.519" xlink:href="#dot" stroke="#ff0000"/>
    <use x="144.76" y="174.267" xlink:href="#dot" stroke="#00ebff"/>
    <use x="143.226" y="181.803" xlink:href="#dot" stroke="#ffe100"/>
    <use x="144.863" y="184.559" xlink:href="#dot" stroke="#ff0000"/>
    <use x="144.27" y="174.779" xlink:href="#dot" stroke="#00ebff"/>
    <use x="144.542" y="182.508" xlink:href="#dot" stroke="#ffe100"/>
    <use x="145.625" y="185.465" xlink:href="#dot" stroke="#ff0000"/>
    <use x="145.245" y="175.325" xlink:href="#dot" stroke="#00ebff"/>
    <use x="146.974" y="182.976" xlink:href="#dot" stroke="#ffe100"/>
    <use x="147.513" y="186.051" xlink:href="#dot" stroke="#ff0000"/>
    <use x="147.327" y="175.702" xlink:href="#dot" stroke="#00ebff"/>
    <use x="150" y="183.137" xlink:href="#dot" stroke="#ffe100"/>
    <use x="150" y="186.251" xlink:href="#dot" stroke="#ff0000"/>
    <use x="150" y="175.833" xlink:href="#dot" stroke="#00ebff"/>
    <use x="153.026" y="182.976" xlink:href="#dot" stroke="#ffe100"/>
    <use x="152.487" y="186.051" xlink:href="#dot" stroke="#ff0000"/>
    <use x="152.673" y="175.702" xlink:href="#dot" stroke="#00ebff"/>
    <use x="155.458" y="182.508" xlink:href="#dot" stroke="#ffe100"/>
    <use x="154.375" y="185.465" xlink:href="#dot" stroke="#ff0000"/>
    <use x="154.755" y="175.325" xlink:href="#dot" stroke="#00ebff"/>
    <use x="156.774" y="181.803" xlink:href="#dot" stroke="#ffe100"/>
    <use x="155.137" y="184.559" xlink:href="#dot" stroke="#ff0000"/>
    <use x="155.73" y="174.779" xlink:href="#dot" stroke="#00ebff"/>
    <use x="156.608" y="181.052" xlink:href="#dot" stroke="#ffe100"/>
    <use x="154.398" y="183.519" xlink:href="#dot" stroke="#ff0000"/>
    <use x="155.24" y="174.267" xlink:href="#dot" stroke="#00ebff"/>
    <use x="154.847" y="180.617" xlink:href="#dot" stroke="#ffe100"/>
    <use x="152.034" y="182.697" xlink:href="#dot" stroke="#ff0000"/>
    <use x="153.19" y="174.172" xlink:href="#dot" stroke="#00ebff"/>
    <use x="151.676" y="180.98" xlink:href="#dot" stroke="#ffe100"/>
    <use x="148.215" y="182.561" xlink:href="#dot" stroke="#ff0000"/>
    <use x="149.79" y="175.004" xlink:href="#dot" stroke="#00ebff"/>
    <use x="147.48" y="182.455" xlink:href="#dot" stroke="#ffe100"/>
    <use x="143.306" y="183.409" xlink:href="#dot" stroke="#ff0000"/>
    <use x="145.457" y="177.115" xlink:href="#dot" stroke="#00ebff"/>
    <use x="142.474" y="184.565" xlink:href="#dot" stroke="#ffe100"/>
    <use x="137.495" y="184.741" xlink:href="#dot" stroke="#ff0000"/>
    <use x="140.446" y="180.063" xlink:href="#dot" stroke="#00ebff"/>
    <use x="136.05" y="185.044" xlink:href="#dot" stroke="#ffe100"/>
    <use x="130.144" y="184.266" xlink:href="#dot" stroke="#ff0000"/>
    <use x="134.172" y="181.587" xlink:href="#dot" stroke="#00ebff"/>
    <use x="126.155" y="178.712" xlink:href="#dot" stroke="#ffe100"/>
    <use x="119.174" y="176.787" xlink:href="#dot" stroke="#ff0000"/>
    <use x="124.56" y="176.427" xlink:href="#dot" stroke="#00ebff"/>
    <use x="109.439" y="156.443" xlink:href="#dot" stroke="#ffe100"/>
    <use x="101.226" y="153.193" xlink:href="#dot" stroke="#ff0000"/>
    <use x="108.096" y="155.134" xlink:href="#dot" stroke="#00ebff"/>
    <use x="213.978" y="77.943" xlink:href="#dot" stroke="#00ebff"/>
    <use x="181.182" y="145.549" xlink:href="#dot" stroke="#ffe100"/>
    <use x="188.231" y="141.377" xlink:href="#dot" stroke="#ff0000"/>
    <use x="182.372" y="144.524" xlink:href="#dot" stroke="#00ebff"/>
    <use x="164.645" y="172.568" xlink:href="#dot" stroke="#ffe100"/>
    <use x="170.601" y="169.696" xlink:href="#dot" stroke="#ff0000"/>
    <use x="166.032" y="170.596" xlink:href="#dot" stroke="#00ebff"/>
    <use x="155.538" y="181.233" xlink:href="#dot" stroke="#ffe100"/>
    <use x="160.531" y="179.464" xlink:href="#dot" stroke="#ff0000"/>
    <use x="157.148" y="178.138" xlink:href="#dot" stroke="#00ebff"/>
    <use x="150.154" y="181.949" xlink:href="#dot" stroke="#ffe100"/>
    <use x="154.312" y="181.079" xlink:href="#dot" stroke="#ff0000"/>
    <use x="151.87" y="177.867" xlink:href="#dot" stroke="#00ebff"/>
    <use x="146.576" y="180.348" xlink:href="#dot" stroke="#ffe100"/>
    <use x="149.999" y="180.196" xlink:href="#dot" stroke="#ff0000"/>
    <use x="148.257" y="175.492" xlink:href="#dot" stroke="#00ebff"/>
    <use x="144.193" y="178.917" xlink:href="#dot" stroke="#ffe100"/>
    <use x="146.959" y="179.326" xlink:href="#dot" stroke="#ff0000"/>
    <use x="145.722" y="173.489" xlink:href="#dot" stroke="#00ebff"/>
    <use x="143.025" y="178.311" xlink:href="#dot" stroke="#ffe100"/>
    <use x="145.186" y="179.152" xlink:href="#dot" stroke="#ff0000"/>
    <use x="144.319" y="172.477" xlink:href="#dot" stroke="#00ebff"/>
    <use x="143.184" y="178.371" xlink:href="#dot" stroke="#ffe100"/>
    <use x="144.779" y="179.53" xlink:href="#dot" stroke="#ff0000"/>
    <use x="144.189" y="172.259" xlink:href="#dot" stroke="#00ebff"/>
    <use x="144.615" y="178.725" xlink:href="#dot" stroke="#ffe100"/>
    <use x="145.667" y="180.103" xlink:href="#dot" stroke="#ff0000"/>
    <use x="145.299" y="172.434" xlink:href="#dot" stroke="#00ebff"/>
    <use x="147.037" y="179.058" xlink:href="#dot" stroke="#ffe100"/>
    <use x="147.56" y="180.564" xlink:href="#dot" stroke="#ff0000"/>
    <use x="147.383" y="172.667" xlink:href="#dot" stroke="#00ebff"/>
    <use x="150" y="179.188" xlink:href="#dot" stroke="#ffe100"/>
    <use x="150" y="180.736" xlink:href="#dot" stroke="#ff0000"/>
    <use x="150" y="172.765" xlink:href="#dot" stroke="#00ebff"/>
    <use x="152.963" y="179.058" xlink:href="#dot" stroke="#ffe100"/>
    <use x="152.44" y="180.564" xlink:href="#dot" stroke="#ff0000"/>
    <use x="152.617" y="172.667" xlink:href="#dot" stroke="#00ebff"/>
    <use x="155.385" y="178.725" xlink:href="#dot" stroke="#ffe100"/>
    <use x="154.333" y="180.103" xlink:href="#dot" stroke="#ff0000"/>
    <use x="154.701" y="172.434" xlink:href="#dot" stroke="#00ebff"/>
    <use x="156.816" y="178.371" xlink:href="#dot" stroke="#ffe100"/>
    <use x="155.221" y="179.53" xlink:href="#dot" stroke="#ff0000"/>
    <use x="155.811" y="172.259" xlink:href="#dot" stroke="#00ebff"/>
    <use x="156.975" y="178.311" xlink:href="#dot" stroke="#ffe100"/>
    <use x="154.814" y="179.152" xlink:href="#dot" stroke="#ff0000"/>
    <use x="155.681" y="172.477" xlink:href="#dot" stroke="#00ebff"/>
    <use x="155.807" y="178.917" xlink:href="#dot" stroke="#ffe100"/>
    <use x="153.041" y="179.326" xlink:href="#dot" stroke="#ff0000"/>
    <use x="154.278" y="173.489" xlink:href="#dot" stroke="#00ebff"/>
    <use x="153.424" y="180.348" xlink:href="#dot" stroke="#ffe100"/>
    <use x="150.001" y="180.196" xlink:href="#dot" stroke="#ff0000"/>
    <use x="151.743" y="175.492" xlink:href="#dot" stroke="#00ebff"/>
    <use x="149.846" y="181.949" xlink:href="#dot" stroke="#ffe100"/>
    <use x="145.688" y="181.079" xlink:href="#dot" stroke="#ff0000"/>
    <use x="148.13" y="177.867" xlink:href="#dot" stroke="#00ebff"/>
    <use x="144.462" y="181.233" xlink:href="#dot" stroke="#ffe100"/>
    <use x="139.469" y="179.464" xlink:href="#dot" stroke="#ff0000"/>
    <use x="142.852" y="178.138" xlink:href="#dot" stroke="#00ebff"/>
    <use x="135.355" y="172.568" xlink:href="#dot" stroke="#ffe100"/>
    <use x="129.399" y="169.696" xlink:href="#dot" stroke="#ff0000"/>
    <use x="133.968" y="170.596" xlink:href="#dot" stroke="#00ebff"/>
    <use x="118.818" y="145.549" xlink:href="#dot" stroke="#ffe100"/>
    <use x="111.769" y="141.377" xlink:href="#dot" stroke="#ff0000"/>
    <use x="117.628" y="144.524" xlink:href="#dot" stroke="#00ebff"/>
    <use x="86.022" y="77.943" xlink:href="#dot" stroke="#00ebff"/>
    <use x="175.172" y="132.242" xlink:href="#dot" stroke="#ffe100"/>
    <use x="181.286" y="127.241" xlink:href="#dot" stroke="#ff0000"/>
    <use x="176.121" y="131.382" xlink:href="#dot" stroke="#00ebff"/>
    <use x="158.907" y="166.289" xlink:href="#dot" stroke="#ffe100"/>
    <use x="164.028" y="162.564" xlink:href="#dot" stroke="#ff0000"/>
    <use x="160.01" y="164.561" xlink:href="#dot" stroke="#00ebff"/>
    <use x="150.487" y="179.05" xlink:href="#dot" stroke="#ffe100"/>
    <use x="154.727" y="176.39" xlink:href="#dot" stroke="#ff0000"/>
    <use x="151.767" y="176.262" xlink:href="#dot" stroke="#00ebff"/>
    <use x="146.099" y="182.159" xlink:href="#dot" stroke="#ffe100"/>
    <use x="149.567" y="180.351" xlink:href="#dot" stroke="#ff0000"/>
    <use x="147.451" y="178.436" xlink:href="#dot" stroke="#00ebff"/>
    <use x="143.857" y="181.798" xlink:href="#dot" stroke="#ffe100"/>
    <use x="146.64" y="180.654" xlink:href="#dot" stroke="#ff0000"/>
    <use x="145.155" y="177.345" xlink:href="#dot" stroke="#00ebff"/>
    <use x="143.034" y="180.811" xlink:href="#dot" stroke="#ffe100"/>
    <use x="145.198" y="180.172" xlink:href="#dot" stroke="#ff0000"/>
    <use x="144.175" y="175.829" xlink:href="#dot" stroke="#00ebff"/>
    <use x="143.424" y="180.155" xlink:href="#dot" stroke="#ffe100"/>
    <use x="145.013" y="179.884" xlink:href="#dot" stroke="#ff0000"/>
    <use x="144.334" y="174.809" xlink:href="#dot" stroke="#00ebff"/>
    <use x="144.899" y="179.913" xlink:href="#dot" stroke="#ffe100"/>
    <use x="145.943" y="179.893" xlink:href="#dot" stroke="#ff0000"/>
    <use x="145.528" y="174.334" xlink:href="#dot" stroke="#00ebff"/>
    <use x="147.217" y="179.892" xlink:href="#dot" stroke="#ffe100"/>
    <use x="147.735" y="180.018" xlink:href="#dot" stroke="#ff0000"/>
    <use x="147.538" y="174.184" xlink:href="#dot" stroke="#00ebff"/>
    <use x="150" y="179.908" xlink:href="#dot" stroke="#ffe100"/>
    <use x="150" y="180.082" xlink:href="#dot" stroke="#ff0000"/>
    <use x="150" y="174.159" xlink:href="#dot" stroke="#00ebff"/>
    <use x="152.783" y="179.892" xlink:href="#dot" stroke="#ffe100"/>
    <use x="152.265" y="180.018" xlink:href="#dot" stroke="#ff0000"/>
    <use x="152.462" y="174.184" xlink:href="#dot" stroke="#00ebff"/>
    <use x="155.101" y="179.913" xlink:href="#dot" stroke="#ffe100"/>
    <use x="154.057" y="179.893" xlink:href="#dot" stroke="#ff0000"/>
    <use x="154.472" y="174.334" xlink:href="#dot" stroke="#00ebff"/>
    <use x="156.576" y="180.155" xlink:href="#dot" stroke="#ffe100"/>
    <use x="154.987" y="179.884" xlink:href="#dot" stroke="#ff0000"/>
    <use x="155.666" y="174.809" xlink:href="#dot" stroke="#00ebff"/>
    <use x="156.966" y="180.811" xlink:href="#dot" stroke="#ffe100"/>
    <use x="154.802" y="180.172" xlink:href="#dot" stroke="#ff0000"/>
    <use x="155.825" y="175.829" xlink:href="#dot" stroke="#00ebff"/>
    <use x="156.143" y="181.798" xlink:href="#dot" stroke="#ffe100"/>
    <use x="153.36" y="180.654" xlink:href="#dot" stroke="#ff0000"/>
    <use x="154.845" y="177.345" xlink:href="#dot" stroke="#00ebff"/>
    <use x="153.901" y="182.159" xlink:href="#dot" stroke="#ffe100"/>
    <use x="150.433" y="180.351" xlink:href="#dot" stroke="#ff0000"/>
    <use x="152.549" y="178.436" xlink:href="#dot" stroke="#00ebff"/>
    <use x="149.513" y="179.05" xlink:href="#dot" stroke="#ffe100"/>
    <use x="145.273" y="176.39" xlink:href="#dot" stroke="#ff0000"/>
    <use x="148.233" y="176.262" xlink:href="#dot" stroke="#00ebff"/>
    <use x="141.093" y="166.289" xlink:href="#dot" stroke="#ffe100"/>
    <use x="135.972" y="162.564" xlink:href="#dot" stroke="#ff0000"/>
    <use x="139.99" y="164.561" xlink:href="#dot" stroke="#00ebff"/>
    <use x="124.828" y="132.242" xlink:href="#dot" stroke="#ffe100"/>
    <use x="118.714" y="127.241" xlink:href="#dot" stroke="#ff0000"/>
    <use x="123.879" y="131.382" xlink:href="#dot" stroke="#00ebff"/>
    <use x="172.933" y="113.689" xlink:href="#dot" stroke="#ffe100"/>
    <use x="178.255" y="107.878" xlink:href="#dot" stroke="#ff0000"/>
    <use x="173.643" y="112.93" xlink:href="#dot" stroke="#00ebff"/>
    <use x="156.642" y="157.647" xlink:href="#dot" stroke="#ffe100"/>
    <use x="161.047" y="153.088" xlink:href="#dot" stroke="#ff0000"/>
    <use x="157.45" y="156.172" xlink:href="#dot" stroke="#00ebff"/>
    <use x="148.624" y="176.53" xlink:href="#dot" stroke="#ffe100"/>
    <use x="152.209" y="172.998" xlink:href="#dot" stroke="#ff0000"/>
    <use x="149.563" y="174.087" xlink:href="#dot" stroke="#00ebff"/>
    <use x="144.964" y="183.425" xlink:href="#dot" stroke="#ffe100"/>
    <use x="147.824" y="180.702" xlink:href="#dot" stroke="#ff0000"/>
    <use x="145.946" y="180.106" xlink:href="#dot" stroke="#00ebff"/>
    <use x="143.713" y="185.24" xlink:href="#dot" stroke="#ffe100"/>
    <use x="145.924" y="183.131" xlink:href="#dot" stroke="#ff0000"/>
    <use x="144.63" y="181.237" xlink:href="#dot" stroke="#00ebff"/>
    <use x="143.981" y="185.332" xlink:href="#dot" stroke="#ffe100"/>
    <use x="145.597" y="183.669" xlink:href="#dot" stroke="#ff0000"/>
    <use x="144.741" y="180.839" xlink:href="#dot" stroke="#00ebff"/>
    <use x="145.339" y="185.073" xlink:href="#dot" stroke="#ffe100"/>
    <use x="146.398" y="183.713" xlink:href="#dot" stroke="#ff0000"/>
    <use x="145.879" y="180.259" xlink:href="#dot" stroke="#00ebff"/>
    <use x="147.465" y="184.881" xlink:href="#dot" stroke="#ffe100"/>
    <use x="147.99" y="183.696" xlink:href="#dot" stroke="#ff0000"/>
    <use x="147.745" y="179.887" xlink:href="#dot" stroke="#00ebff"/>
    <use x="150" y="184.82" xlink:href="#dot" stroke="#ffe100"/>
    <use x="150" y="183.692" xlink:href="#dot" stroke="#ff0000"/>
    <use x="150" y="179.768" xlink:href="#dot" stroke="#00ebff"/>
    <use x="152.535" y="184.881" xlink:href="#dot" stroke="#ffe100"/>
    <use x="152.01" y="183.696" xlink:href="#dot" stroke="#ff0000"/>
    <use x="152.255" y="179.887" xlink:href="#dot" stroke="#00ebff"/>
    <use x="154.661" y="185.073" xlink:href="#dot" stroke="#ffe100"/>
    <use x="153.602" y="183.713" xlink:href="#dot" stroke="#ff0000"/>
    <use x="154.121" y="180.259" xlink:href="#dot" stroke="#00ebff"/>
    <use x="156.019" y="185.332" xlink:href="#dot" stroke="#ffe100"/>
    <use x="154.403" y="183.669" xlink:href="#dot" stroke="#ff0000"/>
    <use x="155.259" y="180.839" xlink:href="#dot" stroke="#00ebff"/>
    <use x="156.287" y="185.24" xlink:href="#dot" stroke="#ffe100"/>
    <use x="154.076" y="183.131" xlink:href="#dot" stroke="#ff0000"/>
    <use x="155.37" y="181.237" xlink:href="#dot" stroke="#00ebff"/>
    <use x="155.036" y="183.425" xlink:href="#dot" stroke="#ffe100"/>
    <use x="152.176" y="180.702" xlink:href="#dot" stroke="#ff0000"/>
    <use x="154.054" y="180.106" xlink:href="#dot" stroke="#00ebff"/>
    <use x="151.376" y="176.53" xlink:href="#dot" stroke="#ffe100"/>
    <use x="147.791" y="172.998" xlink:href="#dot" stroke="#ff0000"/>
    <use x="150.437" y="174.087" xlink:href="#dot" stroke="#00ebff"/>
    <use x="143.358" y="157.647" xlink:href="#dot" stroke="#ffe100"/>
    <use x="138.953" y="153.088" xlink:href="#dot" stroke="#ff0000"/>
    <use x="142.55" y="156.172" xlink:href="#dot" stroke="#00ebff"/>
    <use x="127.067" y="113.689" xlink:href="#dot" stroke="#ffe100"/>
    <use x="121.745" y="107.878" xlink:href="#dot" stroke="#ff0000"/>
    <use x="126.357" y="112.93" xlink:href="#dot" stroke="#00ebff"/>
    <use x="174.164" y="84.874" xlink:href="#dot" stroke="#ffe100"/>
    <use x="178.785" y="78.22" xlink:href="#dot" stroke="#ff0000"/>
    <use x="174.676" y="84.133" xlink:href="#dot" stroke="#00ebff"/>
    <use x="157.395" y="142.413" xlink:href="#dot" stroke="#ffe100"/>
    <use x="161.159" y="136.979" xlink:href="#dot" stroke="#ff0000"/>
    <use x="157.935" y="141.216" xlink:href="#dot" stroke="#00ebff"/>
    <use x="149.401" y="169.866" xlink:href="#dot" stroke="#ffe100"/>
    <use x="152.394" y="165.421" xlink:href="#dot" stroke="#ff0000"/>
    <use x="150.024" y="167.852" xlink:href="#dot" stroke="#00ebff"/>
    <use x="146.08" y="182.263" xlink:href="#dot" stroke="#ffe100"/>
    <use x="148.382" y="178.579" xlink:href="#dot" stroke="#ff0000"/>
    <use x="146.718" y="179.471" xlink:href="#dot" stroke="#00ebff"/>
    <use x="145.355" y="187.481" xlink:href="#dot" stroke="#ffe100"/>
    <use x="147.031" y="184.352" xlink:href="#dot" stroke="#ff0000"/>
    <use x="145.92" y="184.075" xlink:href="#dot" stroke="#00ebff"/>
    <use x="146.155" y="189.525" xlink:href="#dot" stroke="#ffe100"/>
    <use x="147.249" y="186.773" xlink:href="#dot" stroke="#ff0000"/>
    <use x="146.573" y="185.696" xlink:href="#dot" stroke="#00ebff"/>
    <use x="147.859" y="190.261" xlink:href="#dot" stroke="#ffe100"/>
    <use x="148.4" y="187.726" xlink:href="#dot" stroke="#ff0000"/>
    <use x="148.081" y="186.187" xlink:href="#dot" stroke="#00ebff"/>
    <use x="150" y="190.441" xlink:href="#dot" stroke="#ffe100"/>
    <use x="150" y="187.977" xlink:href="#dot" stroke="#ff0000"/>
    <use x="150" y="186.288" xlink:href="#dot" stroke="#00ebff"/>
    <use x="152.141" y="190.261" xlink:href="#dot" stroke="#ffe100"/>
    <use x="151.6" y="187.726" xlink:href="#dot" stroke="#ff0000"/>
    <use x="151.919" y="186.187" xlink:href="#dot" stroke="#00ebff"/>
    <use x="153.845" y="189.525" xlink:href="#dot" stroke="#ffe100"/>
    <use x="152.751" y="186.773" xlink:href="#dot" stroke="#ff0000"/>
    <use x="153.427" y="185.696" xlink:href="#dot" stroke="#00ebff"/>
    <use x="154.645" y="187.481" xlink:href="#dot" stroke="#ffe100"/>
    <use x="152.969" y="184.352" xlink:href="#dot" stroke="#ff0000"/>
    <use x="154.08" y="184.075" xlink:href="#dot" stroke="#00ebff"/>
    <use x="153.92" y="182.263" xlink:href="#dot" stroke="#ffe100"/>
    <use x="151.618" y="178.579" xlink:href="#dot" stroke="#ff0000"/>
    <use x="153.282" y="179.471" xlink:href="#dot" stroke="#00ebff"/>
    <use x="150.599" y="169.866" xlink:href="#dot" stroke="#ffe100"/>
    <use x="147.606" y="165.421" xlink:href="#dot" stroke="#ff0000"/>
    <use x="149.976" y="167.852" xlink:href="#dot" stroke="#00ebff"/>
    <use x="142.605" y="142.413" xlink:href="#dot" stroke="#ffe100"/>
    <use x="138.841" y="136.979" xlink:href="#dot" stroke="#ff0000"/>
    <use x="142.065" y="141.216" xlink:href="#dot" stroke="#00ebff"/>
    <use x="125.836" y="84.874" xlink:href="#dot" stroke="#ffe100"/>
    <use x="121.215" y="78.22" xlink:href="#dot" stroke="#ff0000"/>
    <use x="125.324" y="84.133" xlink:href="#dot" stroke="#00ebff"/>
    <use x="160.575" y="113.488" xlink:href="#dot" stroke="#ffe100"/>
    <use x="163.743" y="107.089" xlink:href="#dot" stroke="#ff0000"/>
    <use x="160.901" y="112.541" xlink:href="#dot" stroke="#00ebff"/>
    <use x="152.159" y="152.405" xlink:href="#dot" stroke="#ffe100"/>
    <use x="154.593" y="146.939" xlink:href="#dot" stroke="#ff0000"/>
    <use x="152.516" y="150.895" xlink:href="#dot" stroke="#00ebff"/>
    <use x="148.71" y="172.155" xlink:href="#dot" stroke="#ffe100"/>
    <use x="150.476" y="167.383" xlink:href="#dot" stroke="#ff0000"/>
    <use x="149.058" y="170.038" xlink:href="#dot" stroke="#00ebff"/>
    <use x="147.966" y="181.88" xlink:href="#dot" stroke="#ffe100"/>
    <use x="149.115" y="177.582" xlink:href="#dot" stroke="#ff0000"/>
    <use x="148.241" y="179.285" xlink:href="#dot" stroke="#00ebff"/>
    <use x="148.664" y="186.279" xlink:href="#dot" stroke="#ffe100"/>
    <use x="149.23" y="182.256" xlink:href="#dot" stroke="#ff0000"/>
    <use x="148.815" y="183.391" xlink:href="#dot" stroke="#00ebff"/>
    <use x="150" y="187.536" xlink:href="#dot" stroke="#ffe100"/>
    <use x="150" y="183.603" xlink:href="#dot" stroke="#ff0000"/>
    <use x="150" y="184.55" xlink:href="#dot" stroke="#00ebff"/>
    <use x="151.336" y="186.279" xlink:href="#dot" stroke="#ffe100"/>
    <use x="150.77" y="182.256" xlink:href="#dot" stroke="#ff0000"/>
    <use x="151.185" y="183.391" xlink:href="#dot" stroke="#00ebff"/>
    <use x="152.034" y="181.88" xlink:href="#dot" stroke="#ffe100"/>
    <use x="150.885" y="177.582" xlink:href="#dot" stroke="#ff0000"/>
    <use x="151.759" y="179.285" xlink:href="#dot" stroke="#00ebff"/>
    <use x="151.29" y="172.155" xlink:href="#dot" stroke="#ffe100"/>
    <use x="149.524" y="167.383" xlink:href="#dot" stroke="#ff0000"/>
    <use x="150.942" y="170.038" xlink:href="#dot" stroke="#00ebff"/>
    <use x="147.841" y="152.405" xlink:href="#dot" stroke="#ffe100"/>
    <use x="145.407" y="146.939" xlink:href="#dot" stroke="#ff0000"/>
    <use x="147.484" y="150.895" xlink:href="#dot" stroke="#00ebff"/>
    <use x="139.425" y="113.488" xlink:href="#dot" stroke="#ffe100"/>
    <use x="136.257" y="107.089" xlink:href="#dot" stroke="#ff0000"/>
    <use x="139.099" y="112.541" xlink:href="#dot" stroke="#00ebff"/>
    <use x="156.092" y="111.841" xlink:href="#dot" stroke="#ffe100"/>
    <use x="157.972" y="105.178" xlink:href="#dot" stroke="#ff0000"/>
    <use x="156.26" y="110.78" xlink:href="#dot" stroke="#00ebff"/>
    <use x="151.903" y="140.036" xlink:href="#dot" stroke="#ffe100"/>
    <use x="153.125" y="133.963" xlink:href="#dot" stroke="#ff0000"/>
    <use x="152.043" y="138.657" xlink:href="#dot" stroke="#00ebff"/>
    <use x="150.383" y="153.648" xlink:href="#dot" stroke="#ffe100"/>
    <use x="150.985" y="147.921" xlink:href="#dot" stroke="#ff0000"/>
    <use x="150.464" y="152.019" xlink:href="#dot" stroke="#00ebff"/>
    <use x="150" y="157.694" xlink:href="#dot" stroke="#ffe100"/>
    <use x="150" y="152.08" xlink:href="#dot" stroke="#ff0000"/>
    <use x="150" y="155.974" xlink:href="#dot" stroke="#00ebff"/>
    <use x="149.617" y="153.648" xlink:href="#dot" stroke="#ffe100"/>
    <use x="149.015" y="147.921" xlink:href="#dot" stroke="#ff0000"/>
    <use x="149.536" y="152.019" xlink:href="#dot" stroke="#00ebff"/>
    <use x="148.097" y="140.036" xlink:href="#dot" stroke="#ffe100"/>
    <use x="146.875" y="133.963" xlink:href="#dot" stroke="#ff0000"/>
    <use x="147.957" y="138.657" xlink:href="#dot" stroke="#00ebff"/>
    <use x="143.908" y="111.841" xlink:href="#dot" stroke="#ffe100"/>
    <use x="142.028" y="105.178" xlink:href="#dot" stroke="#ff0000"/>
    <use x="143.74" y="110.78" xlink:href="#dot" stroke="#00ebff"/>
</svg>
