<?xml version="1.0" standalone="no"?>
<svg width="300px" height="300px" version="1.1" xmlns="http://www.w3.org/2000/svg"
     xmlns:xlink="http://www.w3.org/1999/xlink">
    <rect x="0" y="0" width="300" height="300" fill="#000000"/>
    <defs>
        <g id="dot">
            <line x1="1" y1="1" x2="0" y2="0"/>
        </g>
        <g id="cross">
            <line x1="-3" y1="0" x2="3" y2="0"/>
            <line x1="0" y1="-3" x2="0" y2="3"/>
        </g>
        <g id="square">
            <line x1="-3" y1="-3" x2="-3" y2="3"/>
            <line x1="-3" y1="3" x2="3" y2="3"/>
            <line x1="3" y1="3" x2="3" y2="-3"/>
            <line x1="3" y1="-3" x2="-3" y2="-3"/>
        </g>
        <g id="round">
            <ellipse cx="0" cy="0" rx="3" ry="3" fill="none"/>
        </g>
        <g id="triangle">
            <line x1="0" y1="-3" x2="-3" y2="3"/>
            <line x1="-3" y1="3" x2="3" y2="3"/>
            <line x1="0" y1="-3" x2="3" y2="3"/>
        </g>
    </defs>
    <polygon fill="none" stroke="#ffffff" points="30.952,269.048 30.952,30.952 269.048,30.952 269.048,269.048 "/>
    <text style="font-size:12;text-align:center;text-anchor:middle;" x="150" y="298.262" fill="#ffffff">Sagittal
        distance (um)
    </text>
    <use x="70.635" y="30.952" xlink:href="#cross" stroke="#ffffff"/>
    <use x="70.635" y="269.048" xlink:href="#cross" stroke="#ffffff"/>
    <text style="font-size:12;text-align:center;text-anchor:middle;" x="70.635" y="287.048" fill="#ffffff">-105</text>
    <use x="150" y="30.952" xlink:href="#cross" stroke="#ffffff"/>
    <use x="150" y="269.048" xlink:href="#cross" stroke="#ffffff"/>
    <text style="font-size:12;text-align:center;text-anchor:middle;" x="150" y="287.048" fill="#ffffff">0</text>
    <use x="229.365" y="30.952" xlink:href="#cross" stroke="#ffffff"/>
    <use x="229.365" y="269.048" xlink:href="#cross" stroke="#ffffff"/>
    <text style="font-size:12;text-align:center;text-anchor:middle;" x="229.365" y="287.048" fill="#ffffff">105</text>
    <text style="font-size:12;text-align:center;text-anchor:middle;" x="7.738" y="156" transform="rotate(-90,7.738,150)"
          fill="#ffffff">Tangential distance (um)
    </text>
    <use x="269.048" y="243.113" xlink:href="#cross" stroke="#ffffff"/>
    <use x="30.952" y="243.113" xlink:href="#cross" stroke="#ffffff"/>
    <text style="font-size:12;text-align:right;text-anchor:end;" x="24.952" y="249.113" fill="#ffffff">-105</text>
    <use x="269.048" y="163.748" xlink:href="#cross" stroke="#ffffff"/>
    <use x="30.952" y="163.748" xlink:href="#cross" stroke="#ffffff"/>
    <text style="font-size:12;text-align:right;text-anchor:end;" x="24.952" y="169.748" fill="#ffffff">0</text>
    <use x="269.048" y="84.383" xlink:href="#cross" stroke="#ffffff"/>
    <use x="30.952" y="84.383" xlink:href="#cross" stroke="#ffffff"/>
    <text style="font-size:12;text-align:right;text-anchor:end;" x="24.952" y="90.383" fill="#ffffff">105</text>
    <use x="163.468" y="145.393" xlink:href="#dot" stroke="#ffe100"/>
    <use x="169.443" y="155.095" xlink:href="#dot" stroke="#ff0000"/>
    <use x="160.395" y="130.28" xlink:href="#dot" stroke="#00ebff"/>
    <use x="157.584" y="141.933" xlink:href="#dot" stroke="#ffe100"/>
    <use x="162.285" y="151.56" xlink:href="#dot" stroke="#ff0000"/>
    <use x="155.235" y="127.386" xlink:href="#dot" stroke="#00ebff"/>
    <use x="153.885" y="139.335" xlink:href="#dot" stroke="#ffe100"/>
    <use x="157.365" y="148.912" xlink:href="#dot" stroke="#ff0000"/>
    <use x="152.185" y="125.198" xlink:href="#dot" stroke="#00ebff"/>
    <use x="151.764" y="137.572" xlink:href="#dot" stroke="#ffe100"/>
    <use x="154.063" y="147.118" xlink:href="#dot" stroke="#ff0000"/>
    <use x="150.66" y="123.715" xlink:href="#dot" stroke="#00ebff"/>
    <use x="150.643" y="136.567" xlink:href="#dot" stroke="#ffe100"/>
    <use x="151.786" y="146.096" xlink:href="#dot" stroke="#ff0000"/>
    <use x="150.1" y="122.873" xlink:href="#dot" stroke="#00ebff"/>
    <use x="150" y="136.243" xlink:href="#dot" stroke="#ffe100"/>
    <use x="150" y="145.766" xlink:href="#dot" stroke="#ff0000"/>
    <use x="150" y="122.602" xlink:href="#dot" stroke="#00ebff"/>
    <use x="149.357" y="136.567" xlink:href="#dot" stroke="#ffe100"/>
    <use x="148.214" y="146.096" xlink:href="#dot" stroke="#ff0000"/>
    <use x="149.9" y="122.873" xlink:href="#dot" stroke="#00ebff"/>
    <use x="148.236" y="137.572" xlink:href="#dot" stroke="#ffe100"/>
    <use x="145.937" y="147.118" xlink:href="#dot" stroke="#ff0000"/>
    <use x="149.34" y="123.715" xlink:href="#dot" stroke="#00ebff"/>
    <use x="146.115" y="139.335" xlink:href="#dot" stroke="#ffe100"/>
    <use x="142.635" y="148.912" xlink:href="#dot" stroke="#ff0000"/>
    <use x="147.815" y="125.198" xlink:href="#dot" stroke="#00ebff"/>
    <use x="142.416" y="141.933" xlink:href="#dot" stroke="#ffe100"/>
    <use x="137.715" y="151.56" xlink:href="#dot" stroke="#ff0000"/>
    <use x="144.765" y="127.386" xlink:href="#dot" stroke="#00ebff"/>
    <use x="136.532" y="145.393" xlink:href="#dot" stroke="#ffe100"/>
    <use x="130.557" y="155.095" xlink:href="#dot" stroke="#ff0000"/>
    <use x="139.605" y="130.28" xlink:href="#dot" stroke="#00ebff"/>
    <use x="197.035" y="166.097" xlink:href="#dot" stroke="#ffe100"/>
    <use x="205.717" y="172.896" xlink:href="#dot" stroke="#ff0000"/>
    <use x="194.558" y="153.285" xlink:href="#dot" stroke="#00ebff"/>
    <use x="182.174" y="162.266" xlink:href="#dot" stroke="#ffe100"/>
    <use x="189.65" y="168.947" xlink:href="#dot" stroke="#ff0000"/>
    <use x="180.044" y="150.517" xlink:href="#dot" stroke="#00ebff"/>
    <use x="170.925" y="158.66" xlink:href="#dot" stroke="#ffe100"/>
    <use x="177.242" y="165.283" xlink:href="#dot" stroke="#ff0000"/>
    <use x="169.131" y="147.694" xlink:href="#dot" stroke="#00ebff"/>
    <use x="162.773" y="155.434" xlink:href="#dot" stroke="#ffe100"/>
    <use x="167.97" y="162.035" xlink:href="#dot" stroke="#ff0000"/>
    <use x="161.31" y="145.045" xlink:href="#dot" stroke="#00ebff"/>
    <use x="157.239" y="152.704" xlink:href="#dot" stroke="#ffe100"/>
    <use x="161.35" y="159.302" xlink:href="#dot" stroke="#ff0000"/>
    <use x="156.095" y="142.735" xlink:href="#dot" stroke="#00ebff"/>
    <use x="153.764" y="150.555" xlink:href="#dot" stroke="#ffe100"/>
    <use x="156.819" y="157.16" xlink:href="#dot" stroke="#ff0000"/>
    <use x="152.925" y="140.887" xlink:href="#dot" stroke="#00ebff"/>
    <use x="151.757" y="149.03" xlink:href="#dot" stroke="#ffe100"/>
    <use x="153.78" y="155.642" xlink:href="#dot" stroke="#ff0000"/>
    <use x="151.208" y="139.563" xlink:href="#dot" stroke="#00ebff"/>
    <use x="150.664" y="148.127" xlink:href="#dot" stroke="#ffe100"/>
    <use x="151.671" y="154.745" xlink:href="#dot" stroke="#ff0000"/>
    <use x="150.392" y="138.778" xlink:href="#dot" stroke="#00ebff"/>
    <use x="150" y="147.829" xlink:href="#dot" stroke="#ffe100"/>
    <use x="150" y="154.45" xlink:href="#dot" stroke="#ff0000"/>
    <use x="150" y="138.519" xlink:href="#dot" stroke="#00ebff"/>
    <use x="149.336" y="148.127" xlink:href="#dot" stroke="#ffe100"/>
    <use x="148.329" y="154.745" xlink:href="#dot" stroke="#ff0000"/>
    <use x="149.608" y="138.778" xlink:href="#dot" stroke="#00ebff"/>
    <use x="148.243" y="149.03" xlink:href="#dot" stroke="#ffe100"/>
    <use x="146.22" y="155.642" xlink:href="#dot" stroke="#ff0000"/>
    <use x="148.792" y="139.563" xlink:href="#dot" stroke="#00ebff"/>
    <use x="146.236" y="150.555" xlink:href="#dot" stroke="#ffe100"/>
    <use x="143.181" y="157.16" xlink:href="#dot" stroke="#ff0000"/>
    <use x="147.075" y="140.887" xlink:href="#dot" stroke="#00ebff"/>
    <use x="142.761" y="152.704" xlink:href="#dot" stroke="#ffe100"/>
    <use x="138.65" y="159.302" xlink:href="#dot" stroke="#ff0000"/>
    <use x="143.905" y="142.735" xlink:href="#dot" stroke="#00ebff"/>
    <use x="137.227" y="155.434" xlink:href="#dot" stroke="#ffe100"/>
    <use x="132.03" y="162.035" xlink:href="#dot" stroke="#ff0000"/>
    <use x="138.69" y="145.045" xlink:href="#dot" stroke="#00ebff"/>
    <use x="129.075" y="158.66" xlink:href="#dot" stroke="#ffe100"/>
    <use x="122.758" y="165.283" xlink:href="#dot" stroke="#ff0000"/>
    <use x="130.869" y="147.694" xlink:href="#dot" stroke="#00ebff"/>
    <use x="117.826" y="162.266" xlink:href="#dot" stroke="#ffe100"/>
    <use x="110.35" y="168.947" xlink:href="#dot" stroke="#ff0000"/>
    <use x="119.956" y="150.517" xlink:href="#dot" stroke="#00ebff"/>
    <use x="102.965" y="166.097" xlink:href="#dot" stroke="#ffe100"/>
    <use x="94.283" y="172.896" xlink:href="#dot" stroke="#ff0000"/>
    <use x="105.442" y="153.285" xlink:href="#dot" stroke="#00ebff"/>
    <use x="257.089" y="169.778" xlink:href="#dot" stroke="#ffe100"/>
    <use x="266.763" y="174.503" xlink:href="#dot" stroke="#ff0000"/>
    <use x="258.526" y="156.319" xlink:href="#dot" stroke="#00ebff"/>
    <use x="225.104" y="172.968" xlink:href="#dot" stroke="#ffe100"/>
    <use x="233.887" y="177.398" xlink:href="#dot" stroke="#ff0000"/>
    <use x="225.913" y="161.501" xlink:href="#dot" stroke="#00ebff"/>
    <use x="203.857" y="171.767" xlink:href="#dot" stroke="#ffe100"/>
    <use x="211.755" y="176.022" xlink:href="#dot" stroke="#ff0000"/>
    <use x="204.212" y="161.778" xlink:href="#dot" stroke="#00ebff"/>
    <use x="188.221" y="169.356" xlink:href="#dot" stroke="#ffe100"/>
    <use x="195.235" y="173.524" xlink:href="#dot" stroke="#ff0000"/>
    <use x="188.264" y="160.464" xlink:href="#dot" stroke="#00ebff"/>
    <use x="176.215" y="166.784" xlink:href="#dot" stroke="#ffe100"/>
    <use x="182.337" y="170.926" xlink:href="#dot" stroke="#ff0000"/>
    <use x="176.068" y="158.701" xlink:href="#dot" stroke="#00ebff"/>
    <use x="167.09" y="164.333" xlink:href="#dot" stroke="#ffe100"/>
    <use x="172.318" y="168.488" xlink:href="#dot" stroke="#ff0000"/>
    <use x="166.852" y="156.84" xlink:href="#dot" stroke="#00ebff"/>
    <use x="160.46" y="162.083" xlink:href="#dot" stroke="#ffe100"/>
    <use x="164.796" y="166.272" xlink:href="#dot" stroke="#ff0000"/>
    <use x="160.2" y="155.017" xlink:href="#dot" stroke="#00ebff"/>
    <use x="155.946" y="160.099" xlink:href="#dot" stroke="#ffe100"/>
    <use x="159.397" y="164.329" xlink:href="#dot" stroke="#ff0000"/>
    <use x="155.709" y="153.339" xlink:href="#dot" stroke="#00ebff"/>
    <use x="153.102" y="158.457" xlink:href="#dot" stroke="#ffe100"/>
    <use x="155.679" y="162.726" xlink:href="#dot" stroke="#ff0000"/>
    <use x="152.912" y="151.912" xlink:href="#dot" stroke="#00ebff"/>
    <use x="151.454" y="157.232" xlink:href="#dot" stroke="#ffe100"/>
    <use x="153.165" y="161.532" xlink:href="#dot" stroke="#ff0000"/>
    <use x="151.323" y="150.829" xlink:href="#dot" stroke="#00ebff"/>
    <use x="150.551" y="156.478" xlink:href="#dot" stroke="#ffe100"/>
    <use x="151.405" y="160.796" xlink:href="#dot" stroke="#ff0000"/>
    <use x="150.484" y="150.156" xlink:href="#dot" stroke="#00ebff"/>
    <use x="150" y="156.223" xlink:href="#dot" stroke="#ffe100"/>
    <use x="150" y="160.548" xlink:href="#dot" stroke="#ff0000"/>
    <use x="150" y="149.927" xlink:href="#dot" stroke="#00ebff"/>
    <use x="149.449" y="156.478" xlink:href="#dot" stroke="#ffe100"/>
    <use x="148.595" y="160.796" xlink:href="#dot" stroke="#ff0000"/>
    <use x="149.516" y="150.156" xlink:href="#dot" stroke="#00ebff"/>
    <use x="148.546" y="157.232" xlink:href="#dot" stroke="#ffe100"/>
    <use x="146.835" y="161.532" xlink:href="#dot" stroke="#ff0000"/>
    <use x="148.677" y="150.829" xlink:href="#dot" stroke="#00ebff"/>
    <use x="146.898" y="158.457" xlink:href="#dot" stroke="#ffe100"/>
    <use x="144.321" y="162.726" xlink:href="#dot" stroke="#ff0000"/>
    <use x="147.088" y="151.912" xlink:href="#dot" stroke="#00ebff"/>
    <use x="144.054" y="160.099" xlink:href="#dot" stroke="#ffe100"/>
    <use x="140.603" y="164.329" xlink:href="#dot" stroke="#ff0000"/>
    <use x="144.291" y="153.339" xlink:href="#dot" stroke="#00ebff"/>
    <use x="139.54" y="162.083" xlink:href="#dot" stroke="#ffe100"/>
    <use x="135.204" y="166.272" xlink:href="#dot" stroke="#ff0000"/>
    <use x="139.8" y="155.017" xlink:href="#dot" stroke="#00ebff"/>
    <use x="132.91" y="164.333" xlink:href="#dot" stroke="#ffe100"/>
    <use x="127.682" y="168.488" xlink:href="#dot" stroke="#ff0000"/>
    <use x="133.148" y="156.84" xlink:href="#dot" stroke="#00ebff"/>
    <use x="123.785" y="166.784" xlink:href="#dot" stroke="#ffe100"/>
    <use x="117.663" y="170.926" xlink:href="#dot" stroke="#ff0000"/>
    <use x="123.932" y="158.701" xlink:href="#dot" stroke="#00ebff"/>
    <use x="111.779" y="169.356" xlink:href="#dot" stroke="#ffe100"/>
    <use x="104.765" y="173.524" xlink:href="#dot" stroke="#ff0000"/>
    <use x="111.736" y="160.464" xlink:href="#dot" stroke="#00ebff"/>
    <use x="96.143" y="171.767" xlink:href="#dot" stroke="#ffe100"/>
    <use x="88.245" y="176.022" xlink:href="#dot" stroke="#ff0000"/>
    <use x="95.788" y="161.778" xlink:href="#dot" stroke="#00ebff"/>
    <use x="74.896" y="172.968" xlink:href="#dot" stroke="#ffe100"/>
    <use x="66.113" y="177.398" xlink:href="#dot" stroke="#ff0000"/>
    <use x="74.087" y="161.501" xlink:href="#dot" stroke="#00ebff"/>
    <use x="42.911" y="169.778" xlink:href="#dot" stroke="#ffe100"/>
    <use x="33.237" y="174.503" xlink:href="#dot" stroke="#ff0000"/>
    <use x="41.474" y="156.319" xlink:href="#dot" stroke="#00ebff"/>
    <use x="261.196" y="162.043" xlink:href="#dot" stroke="#ffe100"/>
    <use x="269.043" y="164.753" xlink:href="#dot" stroke="#ff0000"/>
    <use x="266.637" y="150.347" xlink:href="#dot" stroke="#00ebff"/>
    <use x="223.975" y="171.986" xlink:href="#dot" stroke="#ffe100"/>
    <use x="231.306" y="174.412" xlink:href="#dot" stroke="#ff0000"/>
    <use x="227.853" y="162.441" xlink:href="#dot" stroke="#00ebff"/>
    <use x="201.626" y="173.443" xlink:href="#dot" stroke="#ffe100"/>
    <use x="208.363" y="175.706" xlink:href="#dot" stroke="#ff0000"/>
    <use x="204.372" y="165.476" xlink:href="#dot" stroke="#00ebff"/>
    <use x="186.265" y="172.214" xlink:href="#dot" stroke="#ffe100"/>
    <use x="192.349" y="174.404" xlink:href="#dot" stroke="#ff0000"/>
    <use x="188.18" y="165.409" xlink:href="#dot" stroke="#00ebff"/>
    <use x="174.794" y="170.39" xlink:href="#dot" stroke="#ffe100"/>
    <use x="180.176" y="172.571" xlink:href="#dot" stroke="#ff0000"/>
    <use x="176.11" y="164.432" xlink:href="#dot" stroke="#00ebff"/>
    <use x="166.102" y="168.572" xlink:href="#dot" stroke="#ffe100"/>
    <use x="170.746" y="170.785" xlink:href="#dot" stroke="#ff0000"/>
    <use x="166.998" y="163.221" xlink:href="#dot" stroke="#00ebff"/>
    <use x="159.75" y="166.874" xlink:href="#dot" stroke="#ffe100"/>
    <use x="163.632" y="169.143" xlink:href="#dot" stroke="#ff0000"/>
    <use x="160.358" y="161.953" xlink:href="#dot" stroke="#00ebff"/>
    <use x="155.411" y="165.326" xlink:href="#dot" stroke="#ffe100"/>
    <use x="158.518" y="167.657" xlink:href="#dot" stroke="#ff0000"/>
    <use x="155.821" y="160.702" xlink:href="#dot" stroke="#00ebff"/>
    <use x="152.697" y="163.985" xlink:href="#dot" stroke="#ffe100"/>
    <use x="155.026" y="166.373" xlink:href="#dot" stroke="#ff0000"/>
    <use x="152.967" y="159.562" xlink:href="#dot" stroke="#00ebff"/>
    <use x="151.173" y="162.935" xlink:href="#dot" stroke="#ffe100"/>
    <use x="152.725" y="165.369" xlink:href="#dot" stroke="#ff0000"/>
    <use x="151.338" y="158.642" xlink:href="#dot" stroke="#00ebff"/>
    <use x="150.406" y="162.264" xlink:href="#dot" stroke="#ffe100"/>
    <use x="151.181" y="164.726" xlink:href="#dot" stroke="#ff0000"/>
    <use x="150.484" y="158.043" xlink:href="#dot" stroke="#00ebff"/>
    <use x="150" y="162.033" xlink:href="#dot" stroke="#ffe100"/>
    <use x="150" y="164.505" xlink:href="#dot" stroke="#ff0000"/>
    <use x="150" y="157.835" xlink:href="#dot" stroke="#00ebff"/>
    <use x="149.594" y="162.264" xlink:href="#dot" stroke="#ffe100"/>
    <use x="148.819" y="164.726" xlink:href="#dot" stroke="#ff0000"/>
    <use x="149.516" y="158.043" xlink:href="#dot" stroke="#00ebff"/>
    <use x="148.827" y="162.935" xlink:href="#dot" stroke="#ffe100"/>
    <use x="147.275" y="165.369" xlink:href="#dot" stroke="#ff0000"/>
    <use x="148.662" y="158.642" xlink:href="#dot" stroke="#00ebff"/>
    <use x="147.303" y="163.985" xlink:href="#dot" stroke="#ffe100"/>
    <use x="144.974" y="166.373" xlink:href="#dot" stroke="#ff0000"/>
    <use x="147.033" y="159.562" xlink:href="#dot" stroke="#00ebff"/>
    <use x="144.589" y="165.326" xlink:href="#dot" stroke="#ffe100"/>
    <use x="141.482" y="167.657" xlink:href="#dot" stroke="#ff0000"/>
    <use x="144.179" y="160.702" xlink:href="#dot" stroke="#00ebff"/>
    <use x="140.25" y="166.874" xlink:href="#dot" stroke="#ffe100"/>
    <use x="136.368" y="169.143" xlink:href="#dot" stroke="#ff0000"/>
    <use x="139.642" y="161.953" xlink:href="#dot" stroke="#00ebff"/>
    <use x="133.898" y="168.572" xlink:href="#dot" stroke="#ffe100"/>
    <use x="129.254" y="170.785" xlink:href="#dot" stroke="#ff0000"/>
    <use x="133.002" y="163.221" xlink:href="#dot" stroke="#00ebff"/>
    <use x="125.206" y="170.39" xlink:href="#dot" stroke="#ffe100"/>
    <use x="119.824" y="172.571" xlink:href="#dot" stroke="#ff0000"/>
    <use x="123.89" y="164.432" xlink:href="#dot" stroke="#00ebff"/>
    <use x="113.735" y="172.214" xlink:href="#dot" stroke="#ffe100"/>
    <use x="107.651" y="174.404" xlink:href="#dot" stroke="#ff0000"/>
    <use x="111.82" y="165.409" xlink:href="#dot" stroke="#00ebff"/>
    <use x="98.374" y="173.443" xlink:href="#dot" stroke="#ffe100"/>
    <use x="91.637" y="175.706" xlink:href="#dot" stroke="#ff0000"/>
    <use x="95.628" y="165.476" xlink:href="#dot" stroke="#00ebff"/>
    <use x="76.025" y="171.986" xlink:href="#dot" stroke="#ffe100"/>
    <use x="68.694" y="174.412" xlink:href="#dot" stroke="#ff0000"/>
    <use x="72.147" y="162.441" xlink:href="#dot" stroke="#00ebff"/>
    <use x="38.804" y="162.043" xlink:href="#dot" stroke="#ffe100"/>
    <use x="30.957" y="164.753" xlink:href="#dot" stroke="#ff0000"/>
    <use x="33.363" y="150.347" xlink:href="#dot" stroke="#00ebff"/>
    <use x="226.089" y="166.42" xlink:href="#dot" stroke="#ffe100"/>
    <use x="232.197" y="167.385" xlink:href="#dot" stroke="#ff0000"/>
    <use x="232.574" y="157.468" xlink:href="#dot" stroke="#00ebff"/>
    <use x="200.347" y="172.869" xlink:href="#dot" stroke="#ffe100"/>
    <use x="206.104" y="173.636" xlink:href="#dot" stroke="#ff0000"/>
    <use x="205.116" y="165.763" xlink:href="#dot" stroke="#00ebff"/>
    <use x="184.442" y="173.424" xlink:href="#dot" stroke="#ffe100"/>
    <use x="189.741" y="174.092" xlink:href="#dot" stroke="#ff0000"/>
    <use x="187.934" y="167.671" xlink:href="#dot" stroke="#00ebff"/>
    <use x="173.297" y="172.303" xlink:href="#dot" stroke="#ffe100"/>
    <use x="178.056" y="172.944" xlink:href="#dot" stroke="#ff0000"/>
    <use x="175.838" y="167.537" xlink:href="#dot" stroke="#00ebff"/>
    <use x="165.027" y="170.927" xlink:href="#dot" stroke="#ffe100"/>
    <use x="169.183" y="171.592" xlink:href="#dot" stroke="#ff0000"/>
    <use x="166.866" y="166.868" xlink:href="#dot" stroke="#00ebff"/>
    <use x="158.978" y="169.641" xlink:href="#dot" stroke="#ffe100"/>
    <use x="162.483" y="170.359" xlink:href="#dot" stroke="#ff0000"/>
    <use x="160.3" y="166.077" xlink:href="#dot" stroke="#00ebff"/>
    <use x="154.823" y="168.479" xlink:href="#dot" stroke="#ffe100"/>
    <use x="157.649" y="169.263" xlink:href="#dot" stroke="#ff0000"/>
    <use x="155.761" y="165.254" xlink:href="#dot" stroke="#00ebff"/>
    <use x="152.242" y="167.456" xlink:href="#dot" stroke="#ffe100"/>
    <use x="154.37" y="168.304" xlink:href="#dot" stroke="#ff0000"/>
    <use x="152.884" y="164.455" xlink:href="#dot" stroke="#00ebff"/>
    <use x="150.85" y="166.632" xlink:href="#dot" stroke="#ffe100"/>
    <use x="152.271" y="167.532" xlink:href="#dot" stroke="#ff0000"/>
    <use x="151.251" y="163.772" xlink:href="#dot" stroke="#00ebff"/>
    <use x="150.235" y="166.091" xlink:href="#dot" stroke="#ffe100"/>
    <use x="150.946" y="167.024" xlink:href="#dot" stroke="#ff0000"/>
    <use x="150.429" y="163.308" xlink:href="#dot" stroke="#00ebff"/>
    <use x="150" y="165.901" xlink:href="#dot" stroke="#ffe100"/>
    <use x="150" y="166.846" xlink:href="#dot" stroke="#ff0000"/>
    <use x="150" y="163.143" xlink:href="#dot" stroke="#00ebff"/>
    <use x="149.765" y="166.091" xlink:href="#dot" stroke="#ffe100"/>
    <use x="149.054" y="167.024" xlink:href="#dot" stroke="#ff0000"/>
    <use x="149.571" y="163.308" xlink:href="#dot" stroke="#00ebff"/>
    <use x="149.15" y="166.632" xlink:href="#dot" stroke="#ffe100"/>
    <use x="147.729" y="167.532" xlink:href="#dot" stroke="#ff0000"/>
    <use x="148.749" y="163.772" xlink:href="#dot" stroke="#00ebff"/>
    <use x="147.758" y="167.456" xlink:href="#dot" stroke="#ffe100"/>
    <use x="145.63" y="168.304" xlink:href="#dot" stroke="#ff0000"/>
    <use x="147.116" y="164.455" xlink:href="#dot" stroke="#00ebff"/>
    <use x="145.177" y="168.479" xlink:href="#dot" stroke="#ffe100"/>
    <use x="142.351" y="169.263" xlink:href="#dot" stroke="#ff0000"/>
    <use x="144.239" y="165.254" xlink:href="#dot" stroke="#00ebff"/>
    <use x="141.022" y="169.641" xlink:href="#dot" stroke="#ffe100"/>
    <use x="137.517" y="170.359" xlink:href="#dot" stroke="#ff0000"/>
    <use x="139.7" y="166.077" xlink:href="#dot" stroke="#00ebff"/>
    <use x="134.973" y="170.927" xlink:href="#dot" stroke="#ffe100"/>
    <use x="130.817" y="171.592" xlink:href="#dot" stroke="#ff0000"/>
    <use x="133.134" y="166.868" xlink:href="#dot" stroke="#00ebff"/>
    <use x="126.703" y="172.303" xlink:href="#dot" stroke="#ffe100"/>
    <use x="121.944" y="172.944" xlink:href="#dot" stroke="#ff0000"/>
    <use x="124.162" y="167.537" xlink:href="#dot" stroke="#00ebff"/>
    <use x="115.558" y="173.424" xlink:href="#dot" stroke="#ffe100"/>
    <use x="110.259" y="174.092" xlink:href="#dot" stroke="#ff0000"/>
    <use x="112.066" y="167.671" xlink:href="#dot" stroke="#00ebff"/>
    <use x="99.653" y="172.869" xlink:href="#dot" stroke="#ffe100"/>
    <use x="93.896" y="173.636" xlink:href="#dot" stroke="#ff0000"/>
    <use x="94.884" y="165.763" xlink:href="#dot" stroke="#00ebff"/>
    <use x="73.911" y="166.42" xlink:href="#dot" stroke="#ffe100"/>
    <use x="67.803" y="167.385" xlink:href="#dot" stroke="#ff0000"/>
    <use x="67.426" y="157.468" xlink:href="#dot" stroke="#00ebff"/>
    <use x="234.996" y="151.662" xlink:href="#dot" stroke="#ffe100"/>
    <use x="240.021" y="151.604" xlink:href="#dot" stroke="#ff0000"/>
    <use x="243.878" y="142.148" xlink:href="#dot" stroke="#00ebff"/>
    <use x="201.481" y="168.647" xlink:href="#dot" stroke="#ffe100"/>
    <use x="206.369" y="168.318" xlink:href="#dot" stroke="#ff0000"/>
    <use x="208.085" y="161.413" xlink:href="#dot" stroke="#00ebff"/>
    <use x="183.247" y="173.046" xlink:href="#dot" stroke="#ffe100"/>
    <use x="187.85" y="172.562" xlink:href="#dot" stroke="#ff0000"/>
    <use x="188.165" y="167.477" xlink:href="#dot" stroke="#00ebff"/>
    <use x="171.837" y="173.142" xlink:href="#dot" stroke="#ffe100"/>
    <use x="176.045" y="172.585" xlink:href="#dot" stroke="#ff0000"/>
    <use x="175.482" y="168.793" xlink:href="#dot" stroke="#00ebff"/>
    <use x="163.878" y="172.154" xlink:href="#dot" stroke="#ffe100"/>
    <use x="167.604" y="171.587" xlink:href="#dot" stroke="#ff0000"/>
    <use x="166.561" y="168.688" xlink:href="#dot" stroke="#00ebff"/>
    <use x="158.162" y="171.101" xlink:href="#dot" stroke="#ffe100"/>
    <use x="161.34" y="170.566" xlink:href="#dot" stroke="#ff0000"/>
    <use x="160.118" y="168.26" xlink:href="#dot" stroke="#00ebff"/>
    <use x="154.238" y="170.193" xlink:href="#dot" stroke="#ffe100"/>
    <use x="156.82" y="169.71" xlink:href="#dot" stroke="#ff0000"/>
    <use x="155.638" y="167.781" xlink:href="#dot" stroke="#00ebff"/>
    <use x="151.811" y="169.434" xlink:href="#dot" stroke="#ffe100"/>
    <use x="153.767" y="169.008" xlink:href="#dot" stroke="#ff0000"/>
    <use x="152.774" y="167.305" xlink:href="#dot" stroke="#00ebff"/>
    <use x="150.55" y="168.833" xlink:href="#dot" stroke="#ffe100"/>
    <use x="151.862" y="168.457" xlink:href="#dot" stroke="#ff0000"/>
    <use x="151.155" y="166.882" xlink:href="#dot" stroke="#00ebff"/>
    <use x="150.078" y="168.438" xlink:href="#dot" stroke="#ffe100"/>
    <use x="150.736" y="168.095" xlink:href="#dot" stroke="#ff0000"/>
    <use x="150.37" y="166.584" xlink:href="#dot" stroke="#00ebff"/>
    <use x="150" y="168.299" xlink:href="#dot" stroke="#ffe100"/>
    <use x="150" y="167.967" xlink:href="#dot" stroke="#ff0000"/>
    <use x="150" y="166.475" xlink:href="#dot" stroke="#00ebff"/>
    <use x="149.922" y="168.438" xlink:href="#dot" stroke="#ffe100"/>
    <use x="149.264" y="168.095" xlink:href="#dot" stroke="#ff0000"/>
    <use x="149.63" y="166.584" xlink:href="#dot" stroke="#00ebff"/>
    <use x="149.45" y="168.833" xlink:href="#dot" stroke="#ffe100"/>
    <use x="148.138" y="168.457" xlink:href="#dot" stroke="#ff0000"/>
    <use x="148.845" y="166.882" xlink:href="#dot" stroke="#00ebff"/>
    <use x="148.189" y="169.434" xlink:href="#dot" stroke="#ffe100"/>
    <use x="146.233" y="169.008" xlink:href="#dot" stroke="#ff0000"/>
    <use x="147.226" y="167.305" xlink:href="#dot" stroke="#00ebff"/>
    <use x="145.762" y="170.193" xlink:href="#dot" stroke="#ffe100"/>
    <use x="143.18" y="169.71" xlink:href="#dot" stroke="#ff0000"/>
    <use x="144.362" y="167.781" xlink:href="#dot" stroke="#00ebff"/>
    <use x="141.838" y="171.101" xlink:href="#dot" stroke="#ffe100"/>
    <use x="138.66" y="170.566" xlink:href="#dot" stroke="#ff0000"/>
    <use x="139.882" y="168.26" xlink:href="#dot" stroke="#00ebff"/>
    <use x="136.122" y="172.154" xlink:href="#dot" stroke="#ffe100"/>
    <use x="132.396" y="171.587" xlink:href="#dot" stroke="#ff0000"/>
    <use x="133.439" y="168.688" xlink:href="#dot" stroke="#00ebff"/>
    <use x="128.163" y="173.142" xlink:href="#dot" stroke="#ffe100"/>
    <use x="123.955" y="172.585" xlink:href="#dot" stroke="#ff0000"/>
    <use x="124.518" y="168.793" xlink:href="#dot" stroke="#00ebff"/>
    <use x="116.753" y="173.046" xlink:href="#dot" stroke="#ffe100"/>
    <use x="112.15" y="172.562" xlink:href="#dot" stroke="#ff0000"/>
    <use x="111.835" y="167.477" xlink:href="#dot" stroke="#00ebff"/>
    <use x="98.519" y="168.647" xlink:href="#dot" stroke="#ffe100"/>
    <use x="93.631" y="168.318" xlink:href="#dot" stroke="#ff0000"/>
    <use x="91.915" y="161.413" xlink:href="#dot" stroke="#00ebff"/>
    <use x="65.004" y="151.662" xlink:href="#dot" stroke="#ffe100"/>
    <use x="59.979" y="151.604" xlink:href="#dot" stroke="#ff0000"/>
    <use x="56.122" y="142.148" xlink:href="#dot" stroke="#00ebff"/>
    <use x="208.206" y="156.263" xlink:href="#dot" stroke="#ffe100"/>
    <use x="212.289" y="155.178" xlink:href="#dot" stroke="#ff0000"/>
    <use x="216.599" y="147.967" xlink:href="#dot" stroke="#00ebff"/>
    <use x="184.012" y="169.706" xlink:href="#dot" stroke="#ffe100"/>
    <use x="187.971" y="168.386" xlink:href="#dot" stroke="#ff0000"/>
    <use x="190.303" y="163.519" xlink:href="#dot" stroke="#00ebff"/>
    <use x="170.881" y="172.967" xlink:href="#dot" stroke="#ffe100"/>
    <use x="174.579" y="171.508" xlink:href="#dot" stroke="#ff0000"/>
    <use x="175.586" y="168.328" xlink:href="#dot" stroke="#00ebff"/>
    <use x="162.769" y="172.859" xlink:href="#dot" stroke="#ffe100"/>
    <use x="166.097" y="171.336" xlink:href="#dot" stroke="#ff0000"/>
    <use x="166.261" y="169.355" xlink:href="#dot" stroke="#00ebff"/>
    <use x="157.313" y="171.989" xlink:href="#dot" stroke="#ffe100"/>
    <use x="160.188" y="170.455" xlink:href="#dot" stroke="#ff0000"/>
    <use x="159.872" y="169.301" xlink:href="#dot" stroke="#00ebff"/>
    <use x="153.653" y="171.156" xlink:href="#dot" stroke="#ffe100"/>
    <use x="156.013" y="169.644" xlink:href="#dot" stroke="#ff0000"/>
    <use x="155.492" y="169.037" xlink:href="#dot" stroke="#00ebff"/>
    <use x="151.415" y="170.508" xlink:href="#dot" stroke="#ffe100"/>
    <use x="153.216" y="169.035" xlink:href="#dot" stroke="#ff0000"/>
    <use x="152.681" y="168.772" xlink:href="#dot" stroke="#00ebff"/>
    <use x="150.294" y="170.041" xlink:href="#dot" stroke="#ffe100"/>
    <use x="151.508" y="168.605" xlink:href="#dot" stroke="#ff0000"/>
    <use x="151.089" y="168.547" xlink:href="#dot" stroke="#00ebff"/>
    <use x="149.949" y="169.751" xlink:href="#dot" stroke="#ffe100"/>
    <use x="150.56" y="168.342" xlink:href="#dot" stroke="#ff0000"/>
    <use x="150.333" y="168.388" xlink:href="#dot" stroke="#00ebff"/>
    <use x="150" y="169.651" xlink:href="#dot" stroke="#ffe100"/>
    <use x="150" y="168.252" xlink:href="#dot" stroke="#ff0000"/>
    <use x="150" y="168.331" xlink:href="#dot" stroke="#00ebff"/>
    <use x="150.051" y="169.751" xlink:href="#dot" stroke="#ffe100"/>
    <use x="149.44" y="168.342" xlink:href="#dot" stroke="#ff0000"/>
    <use x="149.667" y="168.388" xlink:href="#dot" stroke="#00ebff"/>
    <use x="149.706" y="170.041" xlink:href="#dot" stroke="#ffe100"/>
    <use x="148.492" y="168.605" xlink:href="#dot" stroke="#ff0000"/>
    <use x="148.911" y="168.547" xlink:href="#dot" stroke="#00ebff"/>
    <use x="148.585" y="170.508" xlink:href="#dot" stroke="#ffe100"/>
    <use x="146.784" y="169.035" xlink:href="#dot" stroke="#ff0000"/>
    <use x="147.319" y="168.772" xlink:href="#dot" stroke="#00ebff"/>
    <use x="146.347" y="171.156" xlink:href="#dot" stroke="#ffe100"/>
    <use x="143.987" y="169.644" xlink:href="#dot" stroke="#ff0000"/>
    <use x="144.508" y="169.037" xlink:href="#dot" stroke="#00ebff"/>
    <use x="142.687" y="171.989" xlink:href="#dot" stroke="#ffe100"/>
    <use x="139.812" y="170.455" xlink:href="#dot" stroke="#ff0000"/>
    <use x="140.128" y="169.301" xlink:href="#dot" stroke="#00ebff"/>
    <use x="137.231" y="172.859" xlink:href="#dot" stroke="#ffe100"/>
    <use x="133.903" y="171.336" xlink:href="#dot" stroke="#ff0000"/>
    <use x="133.739" y="169.355" xlink:href="#dot" stroke="#00ebff"/>
    <use x="129.119" y="172.967" xlink:href="#dot" stroke="#ffe100"/>
    <use x="125.421" y="171.508" xlink:href="#dot" stroke="#ff0000"/>
    <use x="124.414" y="168.328" xlink:href="#dot" stroke="#00ebff"/>
    <use x="115.988" y="169.706" xlink:href="#dot" stroke="#ffe100"/>
    <use x="112.029" y="168.386" xlink:href="#dot" stroke="#ff0000"/>
    <use x="109.697" y="163.519" xlink:href="#dot" stroke="#00ebff"/>
    <use x="91.794" y="156.263" xlink:href="#dot" stroke="#ffe100"/>
    <use x="87.711" y="155.178" xlink:href="#dot" stroke="#ff0000"/>
    <use x="83.401" y="147.967" xlink:href="#dot" stroke="#00ebff"/>
    <use x="189.653" y="158.574" xlink:href="#dot" stroke="#ffe100"/>
    <use x="192.993" y="156.696" xlink:href="#dot" stroke="#ff0000"/>
    <use x="197.349" y="150.952" xlink:href="#dot" stroke="#00ebff"/>
    <use x="171.669" y="170.153" xlink:href="#dot" stroke="#ffe100"/>
    <use x="174.873" y="168.056" xlink:href="#dot" stroke="#ff0000"/>
    <use x="177.448" y="164.521" xlink:href="#dot" stroke="#00ebff"/>
    <use x="162.142" y="172.923" xlink:href="#dot" stroke="#ffe100"/>
    <use x="165.085" y="170.693" xlink:href="#dot" stroke="#ff0000"/>
    <use x="166.454" y="168.759" xlink:href="#dot" stroke="#00ebff"/>
    <use x="156.534" y="172.798" xlink:href="#dot" stroke="#ffe100"/>
    <use x="159.116" y="170.499" xlink:href="#dot" stroke="#ff0000"/>
    <use x="159.708" y="169.705" xlink:href="#dot" stroke="#00ebff"/>
    <use x="153.06" y="172.04" xlink:href="#dot" stroke="#ffe100"/>
    <use x="155.205" y="169.719" xlink:href="#dot" stroke="#ff0000"/>
    <use x="155.343" y="169.709" xlink:href="#dot" stroke="#00ebff"/>
    <use x="151.025" y="171.35" xlink:href="#dot" stroke="#ffe100"/>
    <use x="152.676" y="169.035" xlink:href="#dot" stroke="#ff0000"/>
    <use x="152.598" y="169.542" xlink:href="#dot" stroke="#00ebff"/>
    <use x="150.061" y="170.868" xlink:href="#dot" stroke="#ffe100"/>
    <use x="151.181" y="168.571" xlink:href="#dot" stroke="#ff0000"/>
    <use x="151.047" y="169.395" xlink:href="#dot" stroke="#00ebff"/>
    <use x="149.839" y="170.591" xlink:href="#dot" stroke="#ffe100"/>
    <use x="150.404" y="168.308" xlink:href="#dot" stroke="#ff0000"/>
    <use x="150.314" y="169.303" xlink:href="#dot" stroke="#00ebff"/>
    <use x="150" y="170.5" xlink:href="#dot" stroke="#ffe100"/>
    <use x="150" y="168.224" xlink:href="#dot" stroke="#ff0000"/>
    <use x="150" y="169.271" xlink:href="#dot" stroke="#00ebff"/>
    <use x="150.161" y="170.591" xlink:href="#dot" stroke="#ffe100"/>
    <use x="149.596" y="168.308" xlink:href="#dot" stroke="#ff0000"/>
    <use x="149.686" y="169.303" xlink:href="#dot" stroke="#00ebff"/>
    <use x="149.939" y="170.868" xlink:href="#dot" stroke="#ffe100"/>
    <use x="148.819" y="168.571" xlink:href="#dot" stroke="#ff0000"/>
    <use x="148.953" y="169.395" xlink:href="#dot" stroke="#00ebff"/>
    <use x="148.975" y="171.35" xlink:href="#dot" stroke="#ffe100"/>
    <use x="147.324" y="169.035" xlink:href="#dot" stroke="#ff0000"/>
    <use x="147.402" y="169.542" xlink:href="#dot" stroke="#00ebff"/>
    <use x="146.94" y="172.04" xlink:href="#dot" stroke="#ffe100"/>
    <use x="144.795" y="169.719" xlink:href="#dot" stroke="#ff0000"/>
    <use x="144.657" y="169.709" xlink:href="#dot" stroke="#00ebff"/>
    <use x="143.466" y="172.798" xlink:href="#dot" stroke="#ffe100"/>
    <use x="140.884" y="170.499" xlink:href="#dot" stroke="#ff0000"/>
    <use x="140.292" y="169.705" xlink:href="#dot" stroke="#00ebff"/>
    <use x="137.858" y="172.923" xlink:href="#dot" stroke="#ffe100"/>
    <use x="134.915" y="170.693" xlink:href="#dot" stroke="#ff0000"/>
    <use x="133.546" y="168.759" xlink:href="#dot" stroke="#00ebff"/>
    <use x="128.331" y="170.153" xlink:href="#dot" stroke="#ffe100"/>
    <use x="125.127" y="168.056" xlink:href="#dot" stroke="#ff0000"/>
    <use x="122.552" y="164.521" xlink:href="#dot" stroke="#00ebff"/>
    <use x="110.347" y="158.574" xlink:href="#dot" stroke="#ffe100"/>
    <use x="107.007" y="156.696" xlink:href="#dot" stroke="#ff0000"/>
    <use x="102.651" y="150.952" xlink:href="#dot" stroke="#00ebff"/>
    <use x="176.96" y="159.133" xlink:href="#dot" stroke="#ffe100"/>
    <use x="179.676" y="156.637" xlink:href="#dot" stroke="#ff0000"/>
    <use x="183.879" y="151.756" xlink:href="#dot" stroke="#00ebff"/>
    <use x="163.207" y="170.184" xlink:href="#dot" stroke="#ffe100"/>
    <use x="165.766" y="167.477" xlink:href="#dot" stroke="#ff0000"/>
    <use x="168.383" y="164.708" xlink:href="#dot" stroke="#00ebff"/>
    <use x="156.286" y="173.035" xlink:href="#dot" stroke="#ffe100"/>
    <use x="158.574" y="170.193" xlink:href="#dot" stroke="#ff0000"/>
    <use x="160.108" y="168.957" xlink:href="#dot" stroke="#00ebff"/>
    <use x="152.589" y="173.104" xlink:href="#dot" stroke="#ffe100"/>
    <use x="154.518" y="170.185" xlink:href="#dot" stroke="#ff0000"/>
    <use x="155.344" y="170.036" xlink:href="#dot" stroke="#00ebff"/>
    <use x="150.649" y="172.512" xlink:href="#dot" stroke="#ffe100"/>
    <use x="152.15" y="169.557" xlink:href="#dot" stroke="#ff0000"/>
    <use x="152.549" y="170.148" xlink:href="#dot" stroke="#00ebff"/>
    <use x="149.828" y="171.958" xlink:href="#dot" stroke="#ffe100"/>
    <use x="150.853" y="168.991" xlink:href="#dot" stroke="#ff0000"/>
    <use x="151.018" y="170.053" xlink:href="#dot" stroke="#00ebff"/>
    <use x="149.73" y="171.615" xlink:href="#dot" stroke="#ffe100"/>
    <use x="150.25" y="168.647" xlink:href="#dot" stroke="#ff0000"/>
    <use x="150.303" y="169.967" xlink:href="#dot" stroke="#00ebff"/>
    <use x="150" y="171.502" xlink:href="#dot" stroke="#ffe100"/>
    <use x="150" y="168.534" xlink:href="#dot" stroke="#ff0000"/>
    <use x="150" y="169.937" xlink:href="#dot" stroke="#00ebff"/>
    <use x="150.27" y="171.615" xlink:href="#dot" stroke="#ffe100"/>
    <use x="149.75" y="168.647" xlink:href="#dot" stroke="#ff0000"/>
    <use x="149.697" y="169.967" xlink:href="#dot" stroke="#00ebff"/>
    <use x="150.172" y="171.958" xlink:href="#dot" stroke="#ffe100"/>
    <use x="149.147" y="168.991" xlink:href="#dot" stroke="#ff0000"/>
    <use x="148.982" y="170.053" xlink:href="#dot" stroke="#00ebff"/>
    <use x="149.351" y="172.512" xlink:href="#dot" stroke="#ffe100"/>
    <use x="147.85" y="169.557" xlink:href="#dot" stroke="#ff0000"/>
    <use x="147.451" y="170.148" xlink:href="#dot" stroke="#00ebff"/>
    <use x="147.411" y="173.104" xlink:href="#dot" stroke="#ffe100"/>
    <use x="145.482" y="170.185" xlink:href="#dot" stroke="#ff0000"/>
    <use x="144.656" y="170.036" xlink:href="#dot" stroke="#00ebff"/>
    <use x="143.714" y="173.035" xlink:href="#dot" stroke="#ffe100"/>
    <use x="141.426" y="170.193" xlink:href="#dot" stroke="#ff0000"/>
    <use x="139.892" y="168.957" xlink:href="#dot" stroke="#00ebff"/>
    <use x="136.793" y="170.184" xlink:href="#dot" stroke="#ffe100"/>
    <use x="134.234" y="167.477" xlink:href="#dot" stroke="#ff0000"/>
    <use x="131.617" y="164.708" xlink:href="#dot" stroke="#00ebff"/>
    <use x="123.04" y="159.133" xlink:href="#dot" stroke="#ffe100"/>
    <use x="120.324" y="156.637" xlink:href="#dot" stroke="#ff0000"/>
    <use x="116.121" y="151.756" xlink:href="#dot" stroke="#00ebff"/>
    <use x="168.664" y="157.799" xlink:href="#dot" stroke="#ffe100"/>
    <use x="170.836" y="154.827" xlink:href="#dot" stroke="#ff0000"/>
    <use x="174.783" y="150.289" xlink:href="#dot" stroke="#00ebff"/>
    <use x="157.811" y="169.582" xlink:href="#dot" stroke="#ffe100"/>
    <use x="159.802" y="166.406" xlink:href="#dot" stroke="#ff0000"/>
    <use x="162.337" y="163.891" xlink:href="#dot" stroke="#00ebff"/>
    <use x="152.764" y="173.149" xlink:href="#dot" stroke="#ffe100"/>
    <use x="154.471" y="169.835" xlink:href="#dot" stroke="#ff0000"/>
    <use x="156.033" y="168.779" xlink:href="#dot" stroke="#00ebff"/>
    <use x="150.481" y="173.739" xlink:href="#dot" stroke="#ffe100"/>
    <use x="151.827" y="170.341" xlink:href="#dot" stroke="#ff0000"/>
    <use x="152.737" y="170.302" xlink:href="#dot" stroke="#00ebff"/>
    <use x="149.652" y="173.495" xlink:href="#dot" stroke="#ffe100"/>
    <use x="150.58" y="170.049" xlink:href="#dot" stroke="#ff0000"/>
    <use x="151.066" y="170.672" xlink:href="#dot" stroke="#00ebff"/>
    <use x="149.635" y="173.193" xlink:href="#dot" stroke="#ffe100"/>
    <use x="150.108" y="169.725" xlink:href="#dot" stroke="#ff0000"/>
    <use x="150.316" y="170.718" xlink:href="#dot" stroke="#00ebff"/>
    <use x="150" y="173.076" xlink:href="#dot" stroke="#ffe100"/>
    <use x="150" y="169.602" xlink:href="#dot" stroke="#ff0000"/>
    <use x="150" y="170.714" xlink:href="#dot" stroke="#00ebff"/>
    <use x="150.365" y="173.193" xlink:href="#dot" stroke="#ffe100"/>
    <use x="149.892" y="169.725" xlink:href="#dot" stroke="#ff0000"/>
    <use x="149.684" y="170.718" xlink:href="#dot" stroke="#00ebff"/>
    <use x="150.348" y="173.495" xlink:href="#dot" stroke="#ffe100"/>
    <use x="149.42" y="170.049" xlink:href="#dot" stroke="#ff0000"/>
    <use x="148.934" y="170.672" xlink:href="#dot" stroke="#00ebff"/>
    <use x="149.519" y="173.739" xlink:href="#dot" stroke="#ffe100"/>
    <use x="148.173" y="170.341" xlink:href="#dot" stroke="#ff0000"/>
    <use x="147.263" y="170.302" xlink:href="#dot" stroke="#00ebff"/>
    <use x="147.236" y="173.149" xlink:href="#dot" stroke="#ffe100"/>
    <use x="145.529" y="169.835" xlink:href="#dot" stroke="#ff0000"/>
    <use x="143.967" y="168.779" xlink:href="#dot" stroke="#00ebff"/>
    <use x="142.189" y="169.582" xlink:href="#dot" stroke="#ffe100"/>
    <use x="140.198" y="166.406" xlink:href="#dot" stroke="#ff0000"/>
    <use x="137.663" y="163.891" xlink:href="#dot" stroke="#00ebff"/>
    <use x="131.336" y="157.799" xlink:href="#dot" stroke="#ffe100"/>
    <use x="129.164" y="154.827" xlink:href="#dot" stroke="#ff0000"/>
    <use x="125.217" y="150.289" xlink:href="#dot" stroke="#00ebff"/>
    <use x="163.818" y="153.559" xlink:href="#dot" stroke="#ffe100"/>
    <use x="165.504" y="150.233" xlink:href="#dot" stroke="#ff0000"/>
    <use x="169.124" y="145.538" xlink:href="#dot" stroke="#00ebff"/>
    <use x="154.906" y="167.432" xlink:href="#dot" stroke="#ffe100"/>
    <use x="156.385" y="163.91" xlink:href="#dot" stroke="#ff0000"/>
    <use x="158.741" y="161.138" xlink:href="#dot" stroke="#00ebff"/>
    <use x="151.138" y="172.502" xlink:href="#dot" stroke="#ffe100"/>
    <use x="152.322" y="168.846" xlink:href="#dot" stroke="#ff0000"/>
    <use x="153.786" y="167.426" xlink:href="#dot" stroke="#00ebff"/>
    <use x="149.805" y="174.087" xlink:href="#dot" stroke="#ffe100"/>
    <use x="150.63" y="170.347" xlink:href="#dot" stroke="#ff0000"/>
    <use x="151.466" y="169.819" xlink:href="#dot" stroke="#00ebff"/>
    <use x="149.653" y="174.466" xlink:href="#dot" stroke="#ffe100"/>
    <use x="150.077" y="170.681" xlink:href="#dot" stroke="#ff0000"/>
    <use x="150.453" y="170.659" xlink:href="#dot" stroke="#00ebff"/>
    <use x="150" y="174.518" xlink:href="#dot" stroke="#ffe100"/>
    <use x="150" y="170.719" xlink:href="#dot" stroke="#ff0000"/>
    <use x="150" y="170.861" xlink:href="#dot" stroke="#00ebff"/>
    <use x="150.347" y="174.466" xlink:href="#dot" stroke="#ffe100"/>
    <use x="149.923" y="170.681" xlink:href="#dot" stroke="#ff0000"/>
    <use x="149.547" y="170.659" xlink:href="#dot" stroke="#00ebff"/>
    <use x="150.195" y="174.087" xlink:href="#dot" stroke="#ffe100"/>
    <use x="149.37" y="170.347" xlink:href="#dot" stroke="#ff0000"/>
    <use x="148.534" y="169.819" xlink:href="#dot" stroke="#00ebff"/>
    <use x="148.862" y="172.502" xlink:href="#dot" stroke="#ffe100"/>
    <use x="147.678" y="168.846" xlink:href="#dot" stroke="#ff0000"/>
    <use x="146.214" y="167.426" xlink:href="#dot" stroke="#00ebff"/>
    <use x="145.094" y="167.432" xlink:href="#dot" stroke="#ffe100"/>
    <use x="143.615" y="163.91" xlink:href="#dot" stroke="#ff0000"/>
    <use x="141.259" y="161.138" xlink:href="#dot" stroke="#00ebff"/>
    <use x="136.182" y="153.559" xlink:href="#dot" stroke="#ffe100"/>
    <use x="134.496" y="150.233" xlink:href="#dot" stroke="#ff0000"/>
    <use x="130.876" y="145.538" xlink:href="#dot" stroke="#00ebff"/>
    <use x="154.001" y="161.327" xlink:href="#dot" stroke="#ffe100"/>
    <use x="155.02" y="157.578" xlink:href="#dot" stroke="#ff0000"/>
    <use x="157.087" y="153.981" xlink:href="#dot" stroke="#00ebff"/>
    <use x="150.956" y="168.721" xlink:href="#dot" stroke="#ffe100"/>
    <use x="151.675" y="164.853" xlink:href="#dot" stroke="#ff0000"/>
    <use x="152.891" y="162.433" xlink:href="#dot" stroke="#00ebff"/>
    <use x="150.055" y="171.615" xlink:href="#dot" stroke="#ffe100"/>
    <use x="150.426" y="167.68" xlink:href="#dot" stroke="#ff0000"/>
    <use x="150.987" y="165.929" xlink:href="#dot" stroke="#00ebff"/>
    <use x="150" y="172.365" xlink:href="#dot" stroke="#ffe100"/>
    <use x="150" y="168.408" xlink:href="#dot" stroke="#ff0000"/>
    <use x="150" y="166.876" xlink:href="#dot" stroke="#00ebff"/>
    <use x="149.945" y="171.615" xlink:href="#dot" stroke="#ffe100"/>
    <use x="149.574" y="167.68" xlink:href="#dot" stroke="#ff0000"/>
    <use x="149.013" y="165.929" xlink:href="#dot" stroke="#00ebff"/>
    <use x="149.044" y="168.721" xlink:href="#dot" stroke="#ffe100"/>
    <use x="148.325" y="164.853" xlink:href="#dot" stroke="#ff0000"/>
    <use x="147.109" y="162.433" xlink:href="#dot" stroke="#00ebff"/>
    <use x="145.999" y="161.327" xlink:href="#dot" stroke="#ffe100"/>
    <use x="144.98" y="157.578" xlink:href="#dot" stroke="#ff0000"/>
    <use x="142.913" y="153.981" xlink:href="#dot" stroke="#00ebff"/>
    <use x="151.392" y="155.002" xlink:href="#dot" stroke="#ffe100"/>
    <use x="151.711" y="151.054" xlink:href="#dot" stroke="#ff0000"/>
    <use x="152.471" y="146.823" xlink:href="#dot" stroke="#00ebff"/>
    <use x="150" y="157.707" xlink:href="#dot" stroke="#ffe100"/>
    <use x="150" y="153.731" xlink:href="#dot" stroke="#ff0000"/>
    <use x="150" y="149.786" xlink:href="#dot" stroke="#00ebff"/>
    <use x="148.608" y="155.002" xlink:href="#dot" stroke="#ffe100"/>
    <use x="148.289" y="151.054" xlink:href="#dot" stroke="#ff0000"/>
    <use x="147.529" y="146.823" xlink:href="#dot" stroke="#00ebff"/>
</svg>
