<?xml version="1.0" standalone="no"?>
<svg width="300px" height="300px" version="1.1" xmlns="http://www.w3.org/2000/svg" xmlns:xlink="http://www.w3.org/1999/xlink">
<rect x="0" y="0" width="300" height="300"  fill="#000000" />
<defs>
<g id="dot">
<line x1="1" y1="1" x2="0" y2="0"  />
</g>
<g id="cross">
<line x1="-3" y1="0" x2="3" y2="0"  />
<line x1="0" y1="-3" x2="0" y2="3"  />
</g>
<g id="square">
<line x1="-3" y1="-3" x2="-3" y2="3"  />
<line x1="-3" y1="3" x2="3" y2="3"  />
<line x1="3" y1="3" x2="3" y2="-3"  />
<line x1="3" y1="-3" x2="-3" y2="-3"  />
</g>
<g id="round">
<ellipse cx="0" cy="0" rx="3" ry="3"  fill="none" /></g>
<g id="triangle">
<line x1="0" y1="-3" x2="-3" y2="3"  />
<line x1="-3" y1="3" x2="3" y2="3"  />
<line x1="0" y1="-3" x2="3" y2="3"  />
</g>
</defs>
<polygon fill="none" stroke="#ffffff" points="30.952,269.048 30.952,30.952 269.048,30.952 269.048,269.048 " />
<text style="font-size:12;text-align:center;text-anchor:middle;" x="150" y="298.262" fill="#ffffff">Sagittal distance (um)</text>
<use x="70.635" y="30.952" xlink:href="#cross"  stroke="#ffffff" />
<use x="70.635" y="269.048" xlink:href="#cross"  stroke="#ffffff" />
<text style="font-size:12;text-align:center;text-anchor:middle;" x="70.635" y="287.048" fill="#ffffff">-20</text>
<use x="150" y="30.952" xlink:href="#cross"  stroke="#ffffff" />
<use x="150" y="269.048" xlink:href="#cross"  stroke="#ffffff" />
<text style="font-size:12;text-align:center;text-anchor:middle;" x="150" y="287.048" fill="#ffffff">0</text>
<use x="229.365" y="30.952" xlink:href="#cross"  stroke="#ffffff" />
<use x="229.365" y="269.048" xlink:href="#cross"  stroke="#ffffff" />
<text style="font-size:12;text-align:center;text-anchor:middle;" x="229.365" y="287.048" fill="#ffffff">20</text>
<text style="font-size:12;text-align:center;text-anchor:middle;" x="7.738" y="156" transform="rotate(-90,7.738,150)" fill="#ffffff">Tangential distance (um)</text>
<use x="269.048" y="229.365" xlink:href="#cross"  stroke="#ffffff" />
<use x="30.952" y="229.365" xlink:href="#cross"  stroke="#ffffff" />
<text style="font-size:12;text-align:right;text-anchor:end;" x="24.952" y="235.365" fill="#ffffff">-20</text>
<use x="269.048" y="150" xlink:href="#cross"  stroke="#ffffff" />
<use x="30.952" y="150" xlink:href="#cross"  stroke="#ffffff" />
<text style="font-size:12;text-align:right;text-anchor:end;" x="24.952" y="156" fill="#ffffff">0</text>
<use x="269.048" y="70.635" xlink:href="#cross"  stroke="#ffffff" />
<use x="30.952" y="70.635" xlink:href="#cross"  stroke="#ffffff" />
<text style="font-size:12;text-align:right;text-anchor:end;" x="24.952" y="76.635" fill="#ffffff">20</text>
<use x="150" y="150" xlink:href="#dot"  stroke="#ffe100" />
<use x="150" y="150" xlink:href="#dot"  stroke="#ff0000" />
<use x="150" y="150" xlink:href="#dot"  stroke="#00ebff" />
<use x="150" y="269.048" xlink:href="#dot"  stroke="#ffe100" />
<use x="150" y="267.579" xlink:href="#dot"  stroke="#ff0000" />
<use x="150" y="248.299" xlink:href="#dot"  stroke="#00ebff" />
<use x="132.257" y="267.718" xlink:href="#dot"  stroke="#ffe100" />
<use x="132.476" y="266.266" xlink:href="#dot"  stroke="#ff0000" />
<use x="135.349" y="247.201" xlink:href="#dot"  stroke="#00ebff" />
<use x="114.91" y="263.759" xlink:href="#dot"  stroke="#ffe100" />
<use x="115.343" y="262.355" xlink:href="#dot"  stroke="#ff0000" />
<use x="121.026" y="243.932" xlink:href="#dot"  stroke="#00ebff" />
<use x="98.347" y="257.258" xlink:href="#dot"  stroke="#ffe100" />
<use x="98.984" y="255.935" xlink:href="#dot"  stroke="#ff0000" />
<use x="107.35" y="238.565" xlink:href="#dot"  stroke="#00ebff" />
<use x="82.938" y="248.362" xlink:href="#dot"  stroke="#ffe100" />
<use x="83.765" y="247.148" xlink:href="#dot"  stroke="#ff0000" />
<use x="94.626" y="231.219" xlink:href="#dot"  stroke="#00ebff" />
<use x="69.027" y="237.268" xlink:href="#dot"  stroke="#ffe100" />
<use x="70.026" y="236.192" xlink:href="#dot"  stroke="#ff0000" />
<use x="83.14" y="222.058" xlink:href="#dot"  stroke="#00ebff" />
<use x="56.925" y="224.225" xlink:href="#dot"  stroke="#ffe100" />
<use x="58.073" y="223.309" xlink:href="#dot"  stroke="#ff0000" />
<use x="73.147" y="211.289" xlink:href="#dot"  stroke="#00ebff" />
<use x="46.902" y="209.524" xlink:href="#dot"  stroke="#ffe100" />
<use x="48.174" y="208.79" xlink:href="#dot"  stroke="#ff0000" />
<use x="64.87" y="199.15" xlink:href="#dot"  stroke="#00ebff" />
<use x="39.182" y="193.493" xlink:href="#dot"  stroke="#ffe100" />
<use x="40.549" y="192.956" xlink:href="#dot"  stroke="#ff0000" />
<use x="58.496" y="185.913" xlink:href="#dot"  stroke="#00ebff" />
<use x="33.937" y="176.491" xlink:href="#dot"  stroke="#ffe100" />
<use x="35.369" y="176.164" xlink:href="#dot"  stroke="#ff0000" />
<use x="54.165" y="171.874" xlink:href="#dot"  stroke="#00ebff" />
<use x="31.285" y="158.896" xlink:href="#dot"  stroke="#ffe100" />
<use x="32.75" y="158.787" xlink:href="#dot"  stroke="#ff0000" />
<use x="51.976" y="157.346" xlink:href="#dot"  stroke="#00ebff" />
<use x="31.285" y="141.104" xlink:href="#dot"  stroke="#ffe100" />
<use x="32.75" y="141.213" xlink:href="#dot"  stroke="#ff0000" />
<use x="51.976" y="142.654" xlink:href="#dot"  stroke="#00ebff" />
<use x="33.937" y="123.509" xlink:href="#dot"  stroke="#ffe100" />
<use x="35.369" y="123.836" xlink:href="#dot"  stroke="#ff0000" />
<use x="54.165" y="128.126" xlink:href="#dot"  stroke="#00ebff" />
<use x="39.182" y="106.507" xlink:href="#dot"  stroke="#ffe100" />
<use x="40.549" y="107.044" xlink:href="#dot"  stroke="#ff0000" />
<use x="58.496" y="114.087" xlink:href="#dot"  stroke="#00ebff" />
<use x="46.902" y="90.476" xlink:href="#dot"  stroke="#ffe100" />
<use x="48.174" y="91.21" xlink:href="#dot"  stroke="#ff0000" />
<use x="64.87" y="100.85" xlink:href="#dot"  stroke="#00ebff" />
<use x="56.925" y="75.775" xlink:href="#dot"  stroke="#ffe100" />
<use x="58.073" y="76.691" xlink:href="#dot"  stroke="#ff0000" />
<use x="73.147" y="88.711" xlink:href="#dot"  stroke="#00ebff" />
<use x="69.027" y="62.732" xlink:href="#dot"  stroke="#ffe100" />
<use x="70.026" y="63.808" xlink:href="#dot"  stroke="#ff0000" />
<use x="83.14" y="77.942" xlink:href="#dot"  stroke="#00ebff" />
<use x="82.938" y="51.638" xlink:href="#dot"  stroke="#ffe100" />
<use x="83.765" y="52.852" xlink:href="#dot"  stroke="#ff0000" />
<use x="94.626" y="68.781" xlink:href="#dot"  stroke="#00ebff" />
<use x="98.347" y="42.742" xlink:href="#dot"  stroke="#ffe100" />
<use x="98.984" y="44.065" xlink:href="#dot"  stroke="#ff0000" />
<use x="107.35" y="61.435" xlink:href="#dot"  stroke="#00ebff" />
<use x="114.91" y="36.241" xlink:href="#dot"  stroke="#ffe100" />
<use x="115.343" y="37.645" xlink:href="#dot"  stroke="#ff0000" />
<use x="121.026" y="56.068" xlink:href="#dot"  stroke="#00ebff" />
<use x="132.257" y="32.282" xlink:href="#dot"  stroke="#ffe100" />
<use x="132.476" y="33.734" xlink:href="#dot"  stroke="#ff0000" />
<use x="135.349" y="52.799" xlink:href="#dot"  stroke="#00ebff" />
<use x="150" y="30.952" xlink:href="#dot"  stroke="#ffe100" />
<use x="150" y="32.421" xlink:href="#dot"  stroke="#ff0000" />
<use x="150" y="51.701" xlink:href="#dot"  stroke="#00ebff" />
<use x="167.743" y="32.282" xlink:href="#dot"  stroke="#ffe100" />
<use x="167.524" y="33.734" xlink:href="#dot"  stroke="#ff0000" />
<use x="164.651" y="52.799" xlink:href="#dot"  stroke="#00ebff" />
<use x="185.09" y="36.241" xlink:href="#dot"  stroke="#ffe100" />
<use x="184.657" y="37.645" xlink:href="#dot"  stroke="#ff0000" />
<use x="178.974" y="56.068" xlink:href="#dot"  stroke="#00ebff" />
<use x="201.653" y="42.742" xlink:href="#dot"  stroke="#ffe100" />
<use x="201.016" y="44.065" xlink:href="#dot"  stroke="#ff0000" />
<use x="192.65" y="61.435" xlink:href="#dot"  stroke="#00ebff" />
<use x="217.062" y="51.638" xlink:href="#dot"  stroke="#ffe100" />
<use x="216.235" y="52.852" xlink:href="#dot"  stroke="#ff0000" />
<use x="205.374" y="68.781" xlink:href="#dot"  stroke="#00ebff" />
<use x="230.973" y="62.732" xlink:href="#dot"  stroke="#ffe100" />
<use x="229.974" y="63.808" xlink:href="#dot"  stroke="#ff0000" />
<use x="216.86" y="77.942" xlink:href="#dot"  stroke="#00ebff" />
<use x="243.075" y="75.775" xlink:href="#dot"  stroke="#ffe100" />
<use x="241.927" y="76.691" xlink:href="#dot"  stroke="#ff0000" />
<use x="226.853" y="88.711" xlink:href="#dot"  stroke="#00ebff" />
<use x="253.098" y="90.476" xlink:href="#dot"  stroke="#ffe100" />
<use x="251.826" y="91.21" xlink:href="#dot"  stroke="#ff0000" />
<use x="235.13" y="100.85" xlink:href="#dot"  stroke="#00ebff" />
<use x="260.818" y="106.507" xlink:href="#dot"  stroke="#ffe100" />
<use x="259.451" y="107.044" xlink:href="#dot"  stroke="#ff0000" />
<use x="241.504" y="114.087" xlink:href="#dot"  stroke="#00ebff" />
<use x="266.063" y="123.509" xlink:href="#dot"  stroke="#ffe100" />
<use x="264.631" y="123.836" xlink:href="#dot"  stroke="#ff0000" />
<use x="245.835" y="128.126" xlink:href="#dot"  stroke="#00ebff" />
<use x="268.715" y="141.104" xlink:href="#dot"  stroke="#ffe100" />
<use x="267.25" y="141.213" xlink:href="#dot"  stroke="#ff0000" />
<use x="248.024" y="142.654" xlink:href="#dot"  stroke="#00ebff" />
<use x="268.715" y="158.896" xlink:href="#dot"  stroke="#ffe100" />
<use x="267.25" y="158.787" xlink:href="#dot"  stroke="#ff0000" />
<use x="248.024" y="157.346" xlink:href="#dot"  stroke="#00ebff" />
<use x="266.063" y="176.491" xlink:href="#dot"  stroke="#ffe100" />
<use x="264.631" y="176.164" xlink:href="#dot"  stroke="#ff0000" />
<use x="245.835" y="171.874" xlink:href="#dot"  stroke="#00ebff" />
<use x="260.818" y="193.493" xlink:href="#dot"  stroke="#ffe100" />
<use x="259.451" y="192.956" xlink:href="#dot"  stroke="#ff0000" />
<use x="241.504" y="185.913" xlink:href="#dot"  stroke="#00ebff" />
<use x="253.098" y="209.524" xlink:href="#dot"  stroke="#ffe100" />
<use x="251.826" y="208.79" xlink:href="#dot"  stroke="#ff0000" />
<use x="235.13" y="199.15" xlink:href="#dot"  stroke="#00ebff" />
<use x="243.075" y="224.225" xlink:href="#dot"  stroke="#ffe100" />
<use x="241.927" y="223.309" xlink:href="#dot"  stroke="#ff0000" />
<use x="226.853" y="211.289" xlink:href="#dot"  stroke="#00ebff" />
<use x="230.973" y="237.268" xlink:href="#dot"  stroke="#ffe100" />
<use x="229.974" y="236.192" xlink:href="#dot"  stroke="#ff0000" />
<use x="216.86" y="222.058" xlink:href="#dot"  stroke="#00ebff" />
<use x="217.062" y="248.362" xlink:href="#dot"  stroke="#ffe100" />
<use x="216.235" y="247.148" xlink:href="#dot"  stroke="#ff0000" />
<use x="205.374" y="231.219" xlink:href="#dot"  stroke="#00ebff" />
<use x="201.653" y="257.258" xlink:href="#dot"  stroke="#ffe100" />
<use x="201.016" y="255.935" xlink:href="#dot"  stroke="#ff0000" />
<use x="192.65" y="238.565" xlink:href="#dot"  stroke="#00ebff" />
<use x="185.09" y="263.759" xlink:href="#dot"  stroke="#ffe100" />
<use x="184.657" y="262.355" xlink:href="#dot"  stroke="#ff0000" />
<use x="178.974" y="243.932" xlink:href="#dot"  stroke="#00ebff" />
<use x="167.743" y="267.718" xlink:href="#dot"  stroke="#ffe100" />
<use x="167.524" y="266.266" xlink:href="#dot"  stroke="#ff0000" />
<use x="164.651" y="247.201" xlink:href="#dot"  stroke="#00ebff" />
<use x="150" y="244.973" xlink:href="#dot"  stroke="#ffe100" />
<use x="150" y="240.949" xlink:href="#dot"  stroke="#ff0000" />
<use x="150" y="235.117" xlink:href="#dot"  stroke="#00ebff" />
<use x="133.508" y="243.53" xlink:href="#dot"  stroke="#ffe100" />
<use x="134.207" y="239.567" xlink:href="#dot"  stroke="#ff0000" />
<use x="135.22" y="233.824" xlink:href="#dot"  stroke="#00ebff" />
<use x="117.517" y="239.246" xlink:href="#dot"  stroke="#ffe100" />
<use x="118.894" y="235.464" xlink:href="#dot"  stroke="#ff0000" />
<use x="120.888" y="229.984" xlink:href="#dot"  stroke="#00ebff" />
<use x="102.513" y="232.249" xlink:href="#dot"  stroke="#ffe100" />
<use x="104.526" y="228.764" xlink:href="#dot"  stroke="#ff0000" />
<use x="107.442" y="223.713" xlink:href="#dot"  stroke="#00ebff" />
<use x="88.952" y="222.754" xlink:href="#dot"  stroke="#ffe100" />
<use x="91.539" y="219.671" xlink:href="#dot"  stroke="#ff0000" />
<use x="95.288" y="215.203" xlink:href="#dot"  stroke="#00ebff" />
<use x="77.246" y="211.048" xlink:href="#dot"  stroke="#ffe100" />
<use x="80.329" y="208.461" xlink:href="#dot"  stroke="#ff0000" />
<use x="84.797" y="204.712" xlink:href="#dot"  stroke="#00ebff" />
<use x="67.751" y="197.487" xlink:href="#dot"  stroke="#ffe100" />
<use x="71.236" y="195.474" xlink:href="#dot"  stroke="#ff0000" />
<use x="76.287" y="192.558" xlink:href="#dot"  stroke="#00ebff" />
<use x="60.754" y="182.483" xlink:href="#dot"  stroke="#ffe100" />
<use x="64.536" y="181.106" xlink:href="#dot"  stroke="#ff0000" />
<use x="70.016" y="179.112" xlink:href="#dot"  stroke="#00ebff" />
<use x="56.47" y="166.492" xlink:href="#dot"  stroke="#ffe100" />
<use x="60.433" y="165.793" xlink:href="#dot"  stroke="#ff0000" />
<use x="66.176" y="164.78" xlink:href="#dot"  stroke="#00ebff" />
<use x="55.027" y="150" xlink:href="#dot"  stroke="#ffe100" />
<use x="59.051" y="150" xlink:href="#dot"  stroke="#ff0000" />
<use x="64.883" y="150" xlink:href="#dot"  stroke="#00ebff" />
<use x="56.47" y="133.508" xlink:href="#dot"  stroke="#ffe100" />
<use x="60.433" y="134.207" xlink:href="#dot"  stroke="#ff0000" />
<use x="66.176" y="135.22" xlink:href="#dot"  stroke="#00ebff" />
<use x="60.754" y="117.517" xlink:href="#dot"  stroke="#ffe100" />
<use x="64.536" y="118.894" xlink:href="#dot"  stroke="#ff0000" />
<use x="70.016" y="120.888" xlink:href="#dot"  stroke="#00ebff" />
<use x="67.751" y="102.513" xlink:href="#dot"  stroke="#ffe100" />
<use x="71.236" y="104.526" xlink:href="#dot"  stroke="#ff0000" />
<use x="76.287" y="107.442" xlink:href="#dot"  stroke="#00ebff" />
<use x="77.246" y="88.952" xlink:href="#dot"  stroke="#ffe100" />
<use x="80.329" y="91.539" xlink:href="#dot"  stroke="#ff0000" />
<use x="84.797" y="95.288" xlink:href="#dot"  stroke="#00ebff" />
<use x="88.952" y="77.246" xlink:href="#dot"  stroke="#ffe100" />
<use x="91.539" y="80.329" xlink:href="#dot"  stroke="#ff0000" />
<use x="95.288" y="84.797" xlink:href="#dot"  stroke="#00ebff" />
<use x="102.513" y="67.751" xlink:href="#dot"  stroke="#ffe100" />
<use x="104.526" y="71.236" xlink:href="#dot"  stroke="#ff0000" />
<use x="107.442" y="76.287" xlink:href="#dot"  stroke="#00ebff" />
<use x="117.517" y="60.754" xlink:href="#dot"  stroke="#ffe100" />
<use x="118.894" y="64.536" xlink:href="#dot"  stroke="#ff0000" />
<use x="120.888" y="70.016" xlink:href="#dot"  stroke="#00ebff" />
<use x="133.508" y="56.47" xlink:href="#dot"  stroke="#ffe100" />
<use x="134.207" y="60.433" xlink:href="#dot"  stroke="#ff0000" />
<use x="135.22" y="66.176" xlink:href="#dot"  stroke="#00ebff" />
<use x="150" y="55.027" xlink:href="#dot"  stroke="#ffe100" />
<use x="150" y="59.051" xlink:href="#dot"  stroke="#ff0000" />
<use x="150" y="64.883" xlink:href="#dot"  stroke="#00ebff" />
<use x="166.492" y="56.47" xlink:href="#dot"  stroke="#ffe100" />
<use x="165.793" y="60.433" xlink:href="#dot"  stroke="#ff0000" />
<use x="164.78" y="66.176" xlink:href="#dot"  stroke="#00ebff" />
<use x="182.483" y="60.754" xlink:href="#dot"  stroke="#ffe100" />
<use x="181.106" y="64.536" xlink:href="#dot"  stroke="#ff0000" />
<use x="179.112" y="70.016" xlink:href="#dot"  stroke="#00ebff" />
<use x="197.487" y="67.751" xlink:href="#dot"  stroke="#ffe100" />
<use x="195.474" y="71.236" xlink:href="#dot"  stroke="#ff0000" />
<use x="192.558" y="76.287" xlink:href="#dot"  stroke="#00ebff" />
<use x="211.048" y="77.246" xlink:href="#dot"  stroke="#ffe100" />
<use x="208.461" y="80.329" xlink:href="#dot"  stroke="#ff0000" />
<use x="204.712" y="84.797" xlink:href="#dot"  stroke="#00ebff" />
<use x="222.754" y="88.952" xlink:href="#dot"  stroke="#ffe100" />
<use x="219.671" y="91.539" xlink:href="#dot"  stroke="#ff0000" />
<use x="215.203" y="95.288" xlink:href="#dot"  stroke="#00ebff" />
<use x="232.249" y="102.513" xlink:href="#dot"  stroke="#ffe100" />
<use x="228.764" y="104.526" xlink:href="#dot"  stroke="#ff0000" />
<use x="223.713" y="107.442" xlink:href="#dot"  stroke="#00ebff" />
<use x="239.246" y="117.517" xlink:href="#dot"  stroke="#ffe100" />
<use x="235.464" y="118.894" xlink:href="#dot"  stroke="#ff0000" />
<use x="229.984" y="120.888" xlink:href="#dot"  stroke="#00ebff" />
<use x="243.53" y="133.508" xlink:href="#dot"  stroke="#ffe100" />
<use x="239.567" y="134.207" xlink:href="#dot"  stroke="#ff0000" />
<use x="233.824" y="135.22" xlink:href="#dot"  stroke="#00ebff" />
<use x="244.973" y="150" xlink:href="#dot"  stroke="#ffe100" />
<use x="240.949" y="150" xlink:href="#dot"  stroke="#ff0000" />
<use x="235.117" y="150" xlink:href="#dot"  stroke="#00ebff" />
<use x="243.53" y="166.492" xlink:href="#dot"  stroke="#ffe100" />
<use x="239.567" y="165.793" xlink:href="#dot"  stroke="#ff0000" />
<use x="233.824" y="164.78" xlink:href="#dot"  stroke="#00ebff" />
<use x="239.246" y="182.483" xlink:href="#dot"  stroke="#ffe100" />
<use x="235.464" y="181.106" xlink:href="#dot"  stroke="#ff0000" />
<use x="229.984" y="179.112" xlink:href="#dot"  stroke="#00ebff" />
<use x="232.249" y="197.487" xlink:href="#dot"  stroke="#ffe100" />
<use x="228.764" y="195.474" xlink:href="#dot"  stroke="#ff0000" />
<use x="223.713" y="192.558" xlink:href="#dot"  stroke="#00ebff" />
<use x="222.754" y="211.048" xlink:href="#dot"  stroke="#ffe100" />
<use x="219.671" y="208.461" xlink:href="#dot"  stroke="#ff0000" />
<use x="215.203" y="204.712" xlink:href="#dot"  stroke="#00ebff" />
<use x="211.048" y="222.754" xlink:href="#dot"  stroke="#ffe100" />
<use x="208.461" y="219.671" xlink:href="#dot"  stroke="#ff0000" />
<use x="204.712" y="215.203" xlink:href="#dot"  stroke="#00ebff" />
<use x="197.487" y="232.249" xlink:href="#dot"  stroke="#ffe100" />
<use x="195.474" y="228.764" xlink:href="#dot"  stroke="#ff0000" />
<use x="192.558" y="223.713" xlink:href="#dot"  stroke="#00ebff" />
<use x="182.483" y="239.246" xlink:href="#dot"  stroke="#ffe100" />
<use x="181.106" y="235.464" xlink:href="#dot"  stroke="#ff0000" />
<use x="179.112" y="229.984" xlink:href="#dot"  stroke="#00ebff" />
<use x="166.492" y="243.53" xlink:href="#dot"  stroke="#ffe100" />
<use x="165.793" y="239.567" xlink:href="#dot"  stroke="#ff0000" />
<use x="164.78" y="233.824" xlink:href="#dot"  stroke="#00ebff" />
<use x="150" y="216.419" xlink:href="#dot"  stroke="#ffe100" />
<use x="150" y="211.307" xlink:href="#dot"  stroke="#ff0000" />
<use x="150" y="213.294" xlink:href="#dot"  stroke="#00ebff" />
<use x="136.191" y="214.968" xlink:href="#dot"  stroke="#ffe100" />
<use x="137.253" y="209.968" xlink:href="#dot"  stroke="#ff0000" />
<use x="136.84" y="211.911" xlink:href="#dot"  stroke="#00ebff" />
<use x="122.985" y="210.677" xlink:href="#dot"  stroke="#ffe100" />
<use x="125.064" y="206.007" xlink:href="#dot"  stroke="#ff0000" />
<use x="124.256" y="207.822" xlink:href="#dot"  stroke="#00ebff" />
<use x="110.96" y="203.734" xlink:href="#dot"  stroke="#ffe100" />
<use x="113.964" y="199.599" xlink:href="#dot"  stroke="#ff0000" />
<use x="112.796" y="201.206" xlink:href="#dot"  stroke="#00ebff" />
<use x="100.641" y="194.443" xlink:href="#dot"  stroke="#ffe100" />
<use x="104.44" y="191.023" xlink:href="#dot"  stroke="#ff0000" />
<use x="102.963" y="192.352" xlink:href="#dot"  stroke="#00ebff" />
<use x="92.479" y="183.21" xlink:href="#dot"  stroke="#ffe100" />
<use x="96.906" y="180.654" xlink:href="#dot"  stroke="#ff0000" />
<use x="95.185" y="181.647" xlink:href="#dot"  stroke="#00ebff" />
<use x="86.831" y="170.525" xlink:href="#dot"  stroke="#ffe100" />
<use x="91.693" y="168.945" xlink:href="#dot"  stroke="#ff0000" />
<use x="89.803" y="169.559" xlink:href="#dot"  stroke="#00ebff" />
<use x="83.944" y="156.943" xlink:href="#dot"  stroke="#ffe100" />
<use x="89.028" y="156.408" xlink:href="#dot"  stroke="#ff0000" />
<use x="87.052" y="156.616" xlink:href="#dot"  stroke="#00ebff" />
<use x="83.944" y="143.057" xlink:href="#dot"  stroke="#ffe100" />
<use x="89.028" y="143.592" xlink:href="#dot"  stroke="#ff0000" />
<use x="87.052" y="143.384" xlink:href="#dot"  stroke="#00ebff" />
<use x="86.831" y="129.475" xlink:href="#dot"  stroke="#ffe100" />
<use x="91.693" y="131.055" xlink:href="#dot"  stroke="#ff0000" />
<use x="89.803" y="130.441" xlink:href="#dot"  stroke="#00ebff" />
<use x="92.479" y="116.79" xlink:href="#dot"  stroke="#ffe100" />
<use x="96.906" y="119.346" xlink:href="#dot"  stroke="#ff0000" />
<use x="95.185" y="118.353" xlink:href="#dot"  stroke="#00ebff" />
<use x="100.641" y="105.557" xlink:href="#dot"  stroke="#ffe100" />
<use x="104.44" y="108.977" xlink:href="#dot"  stroke="#ff0000" />
<use x="102.963" y="107.648" xlink:href="#dot"  stroke="#00ebff" />
<use x="110.96" y="96.266" xlink:href="#dot"  stroke="#ffe100" />
<use x="113.964" y="100.401" xlink:href="#dot"  stroke="#ff0000" />
<use x="112.796" y="98.794" xlink:href="#dot"  stroke="#00ebff" />
<use x="122.985" y="89.323" xlink:href="#dot"  stroke="#ffe100" />
<use x="125.064" y="93.993" xlink:href="#dot"  stroke="#ff0000" />
<use x="124.256" y="92.178" xlink:href="#dot"  stroke="#00ebff" />
<use x="136.191" y="85.032" xlink:href="#dot"  stroke="#ffe100" />
<use x="137.253" y="90.032" xlink:href="#dot"  stroke="#ff0000" />
<use x="136.84" y="88.089" xlink:href="#dot"  stroke="#00ebff" />
<use x="150" y="83.581" xlink:href="#dot"  stroke="#ffe100" />
<use x="150" y="88.693" xlink:href="#dot"  stroke="#ff0000" />
<use x="150" y="86.706" xlink:href="#dot"  stroke="#00ebff" />
<use x="163.809" y="85.032" xlink:href="#dot"  stroke="#ffe100" />
<use x="162.747" y="90.032" xlink:href="#dot"  stroke="#ff0000" />
<use x="163.16" y="88.089" xlink:href="#dot"  stroke="#00ebff" />
<use x="177.015" y="89.323" xlink:href="#dot"  stroke="#ffe100" />
<use x="174.936" y="93.993" xlink:href="#dot"  stroke="#ff0000" />
<use x="175.744" y="92.178" xlink:href="#dot"  stroke="#00ebff" />
<use x="189.04" y="96.266" xlink:href="#dot"  stroke="#ffe100" />
<use x="186.036" y="100.401" xlink:href="#dot"  stroke="#ff0000" />
<use x="187.204" y="98.794" xlink:href="#dot"  stroke="#00ebff" />
<use x="199.359" y="105.557" xlink:href="#dot"  stroke="#ffe100" />
<use x="195.56" y="108.977" xlink:href="#dot"  stroke="#ff0000" />
<use x="197.037" y="107.648" xlink:href="#dot"  stroke="#00ebff" />
<use x="207.521" y="116.79" xlink:href="#dot"  stroke="#ffe100" />
<use x="203.094" y="119.346" xlink:href="#dot"  stroke="#ff0000" />
<use x="204.815" y="118.353" xlink:href="#dot"  stroke="#00ebff" />
<use x="213.169" y="129.475" xlink:href="#dot"  stroke="#ffe100" />
<use x="208.307" y="131.055" xlink:href="#dot"  stroke="#ff0000" />
<use x="210.197" y="130.441" xlink:href="#dot"  stroke="#00ebff" />
<use x="216.056" y="143.057" xlink:href="#dot"  stroke="#ffe100" />
<use x="210.972" y="143.592" xlink:href="#dot"  stroke="#ff0000" />
<use x="212.948" y="143.384" xlink:href="#dot"  stroke="#00ebff" />
<use x="216.056" y="156.943" xlink:href="#dot"  stroke="#ffe100" />
<use x="210.972" y="156.408" xlink:href="#dot"  stroke="#ff0000" />
<use x="212.948" y="156.616" xlink:href="#dot"  stroke="#00ebff" />
<use x="213.169" y="170.525" xlink:href="#dot"  stroke="#ffe100" />
<use x="208.307" y="168.945" xlink:href="#dot"  stroke="#ff0000" />
<use x="210.197" y="169.559" xlink:href="#dot"  stroke="#00ebff" />
<use x="207.521" y="183.21" xlink:href="#dot"  stroke="#ffe100" />
<use x="203.094" y="180.654" xlink:href="#dot"  stroke="#ff0000" />
<use x="204.815" y="181.647" xlink:href="#dot"  stroke="#00ebff" />
<use x="199.359" y="194.443" xlink:href="#dot"  stroke="#ffe100" />
<use x="195.56" y="191.023" xlink:href="#dot"  stroke="#ff0000" />
<use x="197.037" y="192.352" xlink:href="#dot"  stroke="#00ebff" />
<use x="189.04" y="203.734" xlink:href="#dot"  stroke="#ffe100" />
<use x="186.036" y="199.599" xlink:href="#dot"  stroke="#ff0000" />
<use x="187.204" y="201.206" xlink:href="#dot"  stroke="#00ebff" />
<use x="177.015" y="210.677" xlink:href="#dot"  stroke="#ffe100" />
<use x="174.936" y="206.007" xlink:href="#dot"  stroke="#ff0000" />
<use x="175.744" y="207.822" xlink:href="#dot"  stroke="#00ebff" />
<use x="163.809" y="214.968" xlink:href="#dot"  stroke="#ffe100" />
<use x="162.747" y="209.968" xlink:href="#dot"  stroke="#ff0000" />
<use x="163.16" y="211.911" xlink:href="#dot"  stroke="#00ebff" />
<use x="150" y="191.339" xlink:href="#dot"  stroke="#ffe100" />
<use x="150" y="186.192" xlink:href="#dot"  stroke="#ff0000" />
<use x="150" y="191.923" xlink:href="#dot"  stroke="#00ebff" />
<use x="139.301" y="189.931" xlink:href="#dot"  stroke="#ffe100" />
<use x="140.633" y="184.959" xlink:href="#dot"  stroke="#ff0000" />
<use x="139.149" y="190.495" xlink:href="#dot"  stroke="#00ebff" />
<use x="129.33" y="185.801" xlink:href="#dot"  stroke="#ffe100" />
<use x="131.904" y="181.344" xlink:href="#dot"  stroke="#ff0000" />
<use x="129.038" y="186.307" xlink:href="#dot"  stroke="#00ebff" />
<use x="120.769" y="179.231" xlink:href="#dot"  stroke="#ffe100" />
<use x="124.408" y="175.592" xlink:href="#dot"  stroke="#ff0000" />
<use x="120.356" y="179.644" xlink:href="#dot"  stroke="#00ebff" />
<use x="114.199" y="170.67" xlink:href="#dot"  stroke="#ffe100" />
<use x="118.656" y="168.096" xlink:href="#dot"  stroke="#ff0000" />
<use x="113.693" y="170.962" xlink:href="#dot"  stroke="#00ebff" />
<use x="110.069" y="160.699" xlink:href="#dot"  stroke="#ffe100" />
<use x="115.041" y="159.367" xlink:href="#dot"  stroke="#ff0000" />
<use x="109.505" y="160.851" xlink:href="#dot"  stroke="#00ebff" />
<use x="108.661" y="150" xlink:href="#dot"  stroke="#ffe100" />
<use x="113.808" y="150" xlink:href="#dot"  stroke="#ff0000" />
<use x="108.077" y="150" xlink:href="#dot"  stroke="#00ebff" />
<use x="110.069" y="139.301" xlink:href="#dot"  stroke="#ffe100" />
<use x="115.041" y="140.633" xlink:href="#dot"  stroke="#ff0000" />
<use x="109.505" y="139.149" xlink:href="#dot"  stroke="#00ebff" />
<use x="114.199" y="129.33" xlink:href="#dot"  stroke="#ffe100" />
<use x="118.656" y="131.904" xlink:href="#dot"  stroke="#ff0000" />
<use x="113.693" y="129.038" xlink:href="#dot"  stroke="#00ebff" />
<use x="120.769" y="120.769" xlink:href="#dot"  stroke="#ffe100" />
<use x="124.408" y="124.408" xlink:href="#dot"  stroke="#ff0000" />
<use x="120.356" y="120.356" xlink:href="#dot"  stroke="#00ebff" />
<use x="129.33" y="114.199" xlink:href="#dot"  stroke="#ffe100" />
<use x="131.904" y="118.656" xlink:href="#dot"  stroke="#ff0000" />
<use x="129.038" y="113.693" xlink:href="#dot"  stroke="#00ebff" />
<use x="139.301" y="110.069" xlink:href="#dot"  stroke="#ffe100" />
<use x="140.633" y="115.041" xlink:href="#dot"  stroke="#ff0000" />
<use x="139.149" y="109.505" xlink:href="#dot"  stroke="#00ebff" />
<use x="150" y="108.661" xlink:href="#dot"  stroke="#ffe100" />
<use x="150" y="113.808" xlink:href="#dot"  stroke="#ff0000" />
<use x="150" y="108.077" xlink:href="#dot"  stroke="#00ebff" />
<use x="160.699" y="110.069" xlink:href="#dot"  stroke="#ffe100" />
<use x="159.367" y="115.041" xlink:href="#dot"  stroke="#ff0000" />
<use x="160.851" y="109.505" xlink:href="#dot"  stroke="#00ebff" />
<use x="170.67" y="114.199" xlink:href="#dot"  stroke="#ffe100" />
<use x="168.096" y="118.656" xlink:href="#dot"  stroke="#ff0000" />
<use x="170.962" y="113.693" xlink:href="#dot"  stroke="#00ebff" />
<use x="179.231" y="120.769" xlink:href="#dot"  stroke="#ffe100" />
<use x="175.592" y="124.408" xlink:href="#dot"  stroke="#ff0000" />
<use x="179.644" y="120.356" xlink:href="#dot"  stroke="#00ebff" />
<use x="185.801" y="129.33" xlink:href="#dot"  stroke="#ffe100" />
<use x="181.344" y="131.904" xlink:href="#dot"  stroke="#ff0000" />
<use x="186.307" y="129.038" xlink:href="#dot"  stroke="#00ebff" />
<use x="189.931" y="139.301" xlink:href="#dot"  stroke="#ffe100" />
<use x="184.959" y="140.633" xlink:href="#dot"  stroke="#ff0000" />
<use x="190.495" y="139.149" xlink:href="#dot"  stroke="#00ebff" />
<use x="191.339" y="150" xlink:href="#dot"  stroke="#ffe100" />
<use x="186.192" y="150" xlink:href="#dot"  stroke="#ff0000" />
<use x="191.923" y="150" xlink:href="#dot"  stroke="#00ebff" />
<use x="189.931" y="160.699" xlink:href="#dot"  stroke="#ffe100" />
<use x="184.959" y="159.367" xlink:href="#dot"  stroke="#ff0000" />
<use x="190.495" y="160.851" xlink:href="#dot"  stroke="#00ebff" />
<use x="185.801" y="170.67" xlink:href="#dot"  stroke="#ffe100" />
<use x="181.344" y="168.096" xlink:href="#dot"  stroke="#ff0000" />
<use x="186.307" y="170.962" xlink:href="#dot"  stroke="#00ebff" />
<use x="179.231" y="179.231" xlink:href="#dot"  stroke="#ffe100" />
<use x="175.592" y="175.592" xlink:href="#dot"  stroke="#ff0000" />
<use x="179.644" y="179.644" xlink:href="#dot"  stroke="#00ebff" />
<use x="170.67" y="185.801" xlink:href="#dot"  stroke="#ffe100" />
<use x="168.096" y="181.344" xlink:href="#dot"  stroke="#ff0000" />
<use x="170.962" y="186.307" xlink:href="#dot"  stroke="#00ebff" />
<use x="160.699" y="189.931" xlink:href="#dot"  stroke="#ffe100" />
<use x="159.367" y="184.959" xlink:href="#dot"  stroke="#ff0000" />
<use x="160.851" y="190.495" xlink:href="#dot"  stroke="#00ebff" />
<use x="150" y="172.751" xlink:href="#dot"  stroke="#ffe100" />
<use x="150" y="168.313" xlink:href="#dot"  stroke="#ff0000" />
<use x="150" y="174.882" xlink:href="#dot"  stroke="#00ebff" />
<use x="142.219" y="171.379" xlink:href="#dot"  stroke="#ffe100" />
<use x="143.736" y="167.209" xlink:href="#dot"  stroke="#ff0000" />
<use x="141.49" y="173.381" xlink:href="#dot"  stroke="#00ebff" />
<use x="135.376" y="167.428" xlink:href="#dot"  stroke="#ffe100" />
<use x="138.228" y="164.029" xlink:href="#dot"  stroke="#ff0000" />
<use x="134.006" y="169.061" xlink:href="#dot"  stroke="#00ebff" />
<use x="130.297" y="161.375" xlink:href="#dot"  stroke="#ffe100" />
<use x="134.14" y="159.157" xlink:href="#dot"  stroke="#ff0000" />
<use x="128.452" y="162.441" xlink:href="#dot"  stroke="#00ebff" />
<use x="127.595" y="153.951" xlink:href="#dot"  stroke="#ffe100" />
<use x="131.965" y="153.18" xlink:href="#dot"  stroke="#ff0000" />
<use x="125.496" y="154.321" xlink:href="#dot"  stroke="#00ebff" />
<use x="127.595" y="146.049" xlink:href="#dot"  stroke="#ffe100" />
<use x="131.965" y="146.82" xlink:href="#dot"  stroke="#ff0000" />
<use x="125.496" y="145.679" xlink:href="#dot"  stroke="#00ebff" />
<use x="130.297" y="138.625" xlink:href="#dot"  stroke="#ffe100" />
<use x="134.14" y="140.843" xlink:href="#dot"  stroke="#ff0000" />
<use x="128.452" y="137.559" xlink:href="#dot"  stroke="#00ebff" />
<use x="135.376" y="132.572" xlink:href="#dot"  stroke="#ffe100" />
<use x="138.228" y="135.971" xlink:href="#dot"  stroke="#ff0000" />
<use x="134.006" y="130.939" xlink:href="#dot"  stroke="#00ebff" />
<use x="142.219" y="128.621" xlink:href="#dot"  stroke="#ffe100" />
<use x="143.736" y="132.791" xlink:href="#dot"  stroke="#ff0000" />
<use x="141.49" y="126.619" xlink:href="#dot"  stroke="#00ebff" />
<use x="150" y="127.249" xlink:href="#dot"  stroke="#ffe100" />
<use x="150" y="131.687" xlink:href="#dot"  stroke="#ff0000" />
<use x="150" y="125.118" xlink:href="#dot"  stroke="#00ebff" />
<use x="157.781" y="128.621" xlink:href="#dot"  stroke="#ffe100" />
<use x="156.264" y="132.791" xlink:href="#dot"  stroke="#ff0000" />
<use x="158.51" y="126.619" xlink:href="#dot"  stroke="#00ebff" />
<use x="164.624" y="132.572" xlink:href="#dot"  stroke="#ffe100" />
<use x="161.772" y="135.971" xlink:href="#dot"  stroke="#ff0000" />
<use x="165.994" y="130.939" xlink:href="#dot"  stroke="#00ebff" />
<use x="169.703" y="138.625" xlink:href="#dot"  stroke="#ffe100" />
<use x="165.86" y="140.843" xlink:href="#dot"  stroke="#ff0000" />
<use x="171.548" y="137.559" xlink:href="#dot"  stroke="#00ebff" />
<use x="172.405" y="146.049" xlink:href="#dot"  stroke="#ffe100" />
<use x="168.035" y="146.82" xlink:href="#dot"  stroke="#ff0000" />
<use x="174.504" y="145.679" xlink:href="#dot"  stroke="#00ebff" />
<use x="172.405" y="153.951" xlink:href="#dot"  stroke="#ffe100" />
<use x="168.035" y="153.18" xlink:href="#dot"  stroke="#ff0000" />
<use x="174.504" y="154.321" xlink:href="#dot"  stroke="#00ebff" />
<use x="169.703" y="161.375" xlink:href="#dot"  stroke="#ffe100" />
<use x="165.86" y="159.157" xlink:href="#dot"  stroke="#ff0000" />
<use x="171.548" y="162.441" xlink:href="#dot"  stroke="#00ebff" />
<use x="164.624" y="167.428" xlink:href="#dot"  stroke="#ffe100" />
<use x="161.772" y="164.029" xlink:href="#dot"  stroke="#ff0000" />
<use x="165.994" y="169.061" xlink:href="#dot"  stroke="#00ebff" />
<use x="157.781" y="171.379" xlink:href="#dot"  stroke="#ffe100" />
<use x="156.264" y="167.209" xlink:href="#dot"  stroke="#ff0000" />
<use x="158.51" y="173.381" xlink:href="#dot"  stroke="#00ebff" />
<use x="150" y="160.806" xlink:href="#dot"  stroke="#ffe100" />
<use x="150" y="157.586" xlink:href="#dot"  stroke="#ff0000" />
<use x="150" y="162.998" xlink:href="#dot"  stroke="#00ebff" />
<use x="144.597" y="159.358" xlink:href="#dot"  stroke="#ffe100" />
<use x="146.207" y="156.57" xlink:href="#dot"  stroke="#ff0000" />
<use x="143.501" y="161.257" xlink:href="#dot"  stroke="#00ebff" />
<use x="140.642" y="155.403" xlink:href="#dot"  stroke="#ffe100" />
<use x="143.43" y="153.793" xlink:href="#dot"  stroke="#ff0000" />
<use x="138.743" y="156.499" xlink:href="#dot"  stroke="#00ebff" />
<use x="139.194" y="150" xlink:href="#dot"  stroke="#ffe100" />
<use x="142.414" y="150" xlink:href="#dot"  stroke="#ff0000" />
<use x="137.002" y="150" xlink:href="#dot"  stroke="#00ebff" />
<use x="140.642" y="144.597" xlink:href="#dot"  stroke="#ffe100" />
<use x="143.43" y="146.207" xlink:href="#dot"  stroke="#ff0000" />
<use x="138.743" y="143.501" xlink:href="#dot"  stroke="#00ebff" />
<use x="144.597" y="140.642" xlink:href="#dot"  stroke="#ffe100" />
<use x="146.207" y="143.43" xlink:href="#dot"  stroke="#ff0000" />
<use x="143.501" y="138.743" xlink:href="#dot"  stroke="#00ebff" />
<use x="150" y="139.194" xlink:href="#dot"  stroke="#ffe100" />
<use x="150" y="142.414" xlink:href="#dot"  stroke="#ff0000" />
<use x="150" y="137.002" xlink:href="#dot"  stroke="#00ebff" />
<use x="155.403" y="140.642" xlink:href="#dot"  stroke="#ffe100" />
<use x="153.793" y="143.43" xlink:href="#dot"  stroke="#ff0000" />
<use x="156.499" y="138.743" xlink:href="#dot"  stroke="#00ebff" />
<use x="159.358" y="144.597" xlink:href="#dot"  stroke="#ffe100" />
<use x="156.57" y="146.207" xlink:href="#dot"  stroke="#ff0000" />
<use x="161.257" y="143.501" xlink:href="#dot"  stroke="#00ebff" />
<use x="160.806" y="150" xlink:href="#dot"  stroke="#ffe100" />
<use x="157.586" y="150" xlink:href="#dot"  stroke="#ff0000" />
<use x="162.998" y="150" xlink:href="#dot"  stroke="#00ebff" />
<use x="159.358" y="155.403" xlink:href="#dot"  stroke="#ffe100" />
<use x="156.57" y="153.793" xlink:href="#dot"  stroke="#ff0000" />
<use x="161.257" y="156.499" xlink:href="#dot"  stroke="#00ebff" />
<use x="155.403" y="159.358" xlink:href="#dot"  stroke="#ffe100" />
<use x="153.793" y="156.57" xlink:href="#dot"  stroke="#ff0000" />
<use x="156.499" y="161.257" xlink:href="#dot"  stroke="#00ebff" />
<use x="150" y="154.016" xlink:href="#dot"  stroke="#ffe100" />
<use x="150" y="152.33" xlink:href="#dot"  stroke="#ff0000" />
<use x="150" y="155.337" xlink:href="#dot"  stroke="#00ebff" />
<use x="146.522" y="152.008" xlink:href="#dot"  stroke="#ffe100" />
<use x="147.982" y="151.165" xlink:href="#dot"  stroke="#ff0000" />
<use x="145.378" y="152.669" xlink:href="#dot"  stroke="#00ebff" />
<use x="146.522" y="147.992" xlink:href="#dot"  stroke="#ffe100" />
<use x="147.982" y="148.835" xlink:href="#dot"  stroke="#ff0000" />
<use x="145.378" y="147.331" xlink:href="#dot"  stroke="#00ebff" />
<use x="150" y="145.984" xlink:href="#dot"  stroke="#ffe100" />
<use x="150" y="147.67" xlink:href="#dot"  stroke="#ff0000" />
<use x="150" y="144.663" xlink:href="#dot"  stroke="#00ebff" />
<use x="153.478" y="147.992" xlink:href="#dot"  stroke="#ffe100" />
<use x="152.018" y="148.835" xlink:href="#dot"  stroke="#ff0000" />
<use x="154.622" y="147.331" xlink:href="#dot"  stroke="#00ebff" />
<use x="153.478" y="152.008" xlink:href="#dot"  stroke="#ffe100" />
<use x="152.018" y="151.165" xlink:href="#dot"  stroke="#ff0000" />
<use x="154.622" y="152.669" xlink:href="#dot"  stroke="#00ebff" />
</svg>
