<?xml version="1.0" standalone="no"?>
<svg width="300px" height="300px" version="1.1" xmlns="http://www.w3.org/2000/svg" xmlns:xlink="http://www.w3.org/1999/xlink">
<rect x="0" y="0" width="300" height="300"  fill="#000000" />
<defs>
<g id="dot">
<line x1="1" y1="1" x2="0" y2="0"  />
</g>
<g id="cross">
<line x1="-3" y1="0" x2="3" y2="0"  />
<line x1="0" y1="-3" x2="0" y2="3"  />
</g>
<g id="square">
<line x1="-3" y1="-3" x2="-3" y2="3"  />
<line x1="-3" y1="3" x2="3" y2="3"  />
<line x1="3" y1="3" x2="3" y2="-3"  />
<line x1="3" y1="-3" x2="-3" y2="-3"  />
</g>
<g id="round">
<ellipse cx="0" cy="0" rx="3" ry="3"  fill="none" /></g>
<g id="triangle">
<line x1="0" y1="-3" x2="-3" y2="3"  />
<line x1="-3" y1="3" x2="3" y2="3"  />
<line x1="0" y1="-3" x2="3" y2="3"  />
</g>
</defs>
<polygon fill="none" stroke="#ffffff" points="30.952,269.048 30.952,30.952 269.048,30.952 269.048,269.048 " />
<text style="font-size:12;text-align:center;text-anchor:middle;" x="150" y="298.262" fill="#ffffff">Sagittal distance (um)</text>
<use x="71.339" y="30.952" xlink:href="#cross"  stroke="#ffffff" />
<use x="71.339" y="269.048" xlink:href="#cross"  stroke="#ffffff" />
<text style="font-size:12;text-align:center;text-anchor:middle;" x="71.339" y="287.048" fill="#ffffff">-38</text>
<use x="150.704" y="30.952" xlink:href="#cross"  stroke="#ffffff" />
<use x="150.704" y="269.048" xlink:href="#cross"  stroke="#ffffff" />
<text style="font-size:12;text-align:center;text-anchor:middle;" x="150.704" y="287.048" fill="#ffffff">0</text>
<use x="230.069" y="30.952" xlink:href="#cross"  stroke="#ffffff" />
<use x="230.069" y="269.048" xlink:href="#cross"  stroke="#ffffff" />
<text style="font-size:12;text-align:center;text-anchor:middle;" x="230.069" y="287.048" fill="#ffffff">38</text>
<text style="font-size:12;text-align:center;text-anchor:middle;" x="7.738" y="156" transform="rotate(-90,7.738,150)" fill="#ffffff">Tangential distance (um)</text>
<use x="269.048" y="207.59" xlink:href="#cross"  stroke="#ffffff" />
<use x="30.952" y="207.59" xlink:href="#cross"  stroke="#ffffff" />
<text style="font-size:12;text-align:right;text-anchor:end;" x="24.952" y="213.59" fill="#ffffff">-38</text>
<use x="269.048" y="128.225" xlink:href="#cross"  stroke="#ffffff" />
<use x="30.952" y="128.225" xlink:href="#cross"  stroke="#ffffff" />
<text style="font-size:12;text-align:right;text-anchor:end;" x="24.952" y="134.225" fill="#ffffff">0</text>
<use x="269.048" y="48.86" xlink:href="#cross"  stroke="#ffffff" />
<use x="30.952" y="48.86" xlink:href="#cross"  stroke="#ffffff" />
<text style="font-size:12;text-align:right;text-anchor:end;" x="24.952" y="54.86" fill="#ffffff">38</text>
<use x="150.479" y="65.326" xlink:href="#dot"  stroke="#ff0000" />
<use x="111.253" y="81.901" xlink:href="#dot"  stroke="#ffe100" />
<use x="118.003" y="77.851" xlink:href="#dot"  stroke="#ffe100" />
<use x="125.562" y="74.924" xlink:href="#dot"  stroke="#ffe100" />
<use x="127.106" y="68.039" xlink:href="#dot"  stroke="#ff0000" />
<use x="133.628" y="72.947" xlink:href="#dot"  stroke="#ffe100" />
<use x="141.987" y="71.805" xlink:href="#dot"  stroke="#ffe100" />
<use x="141.693" y="64.486" xlink:href="#dot"  stroke="#00ebff" />
<use x="158.971" y="71.805" xlink:href="#dot"  stroke="#ffe100" />
<use x="166.27" y="66.048" xlink:href="#dot"  stroke="#ff0000" />
<use x="175.396" y="74.924" xlink:href="#dot"  stroke="#ffe100" />
<use x="180.984" y="70.991" xlink:href="#dot"  stroke="#ff0000" />
<use x="105.296" y="79.74" xlink:href="#dot"  stroke="#ff0000" />
<use x="108.796" y="72.091" xlink:href="#dot"  stroke="#00ebff" />
<use x="118.363" y="72.438" xlink:href="#dot"  stroke="#ff0000" />
<use x="125.993" y="70.245" xlink:href="#dot"  stroke="#ff0000" />
<use x="132.926" y="75.113" xlink:href="#dot"  stroke="#ffe100" />
<use x="142.189" y="67.95" xlink:href="#dot"  stroke="#ff0000" />
<use x="168.032" y="75.113" xlink:href="#dot"  stroke="#ffe100" />
<use x="176.514" y="76.584" xlink:href="#dot"  stroke="#ffe100" />
<use x="182.595" y="72.438" xlink:href="#dot"  stroke="#ff0000" />
<use x="185.094" y="69.245" xlink:href="#dot"  stroke="#00ebff" />
<use x="198.218" y="86.108" xlink:href="#dot"  stroke="#ffe100" />
<use x="95.028" y="92.559" xlink:href="#dot"  stroke="#ffe100" />
<use x="96.582" y="80.844" xlink:href="#dot"  stroke="#00ebff" />
<use x="100.508" y="88.217" xlink:href="#dot"  stroke="#ffe100" />
<use x="103.083" y="82.12" xlink:href="#dot"  stroke="#ff0000" />
<use x="109.756" y="79.012" xlink:href="#dot"  stroke="#ff0000" />
<use x="141.97" y="73.713" xlink:href="#dot"  stroke="#ff0000" />
<use x="150.479" y="73.532" xlink:href="#dot"  stroke="#ff0000" />
<use x="150.479" y="68.52" xlink:href="#dot"  stroke="#00ebff" />
<use x="159.535" y="79.639" xlink:href="#dot"  stroke="#ffe100" />
<use x="158.988" y="73.713" xlink:href="#dot"  stroke="#ff0000" />
<use x="159.796" y="68.698" xlink:href="#dot"  stroke="#00ebff" />
<use x="167.429" y="74.273" xlink:href="#dot"  stroke="#ff0000" />
<use x="168.97" y="69.248" xlink:href="#dot"  stroke="#00ebff" />
<use x="175.715" y="75.269" xlink:href="#dot"  stroke="#ff0000" />
<use x="191.202" y="79.012" xlink:href="#dot"  stroke="#ff0000" />
<use x="200.45" y="88.217" xlink:href="#dot"  stroke="#ffe100" />
<use x="205.93" y="92.559" xlink:href="#dot"  stroke="#ffe100" />
<use x="204.376" y="80.844" xlink:href="#dot"  stroke="#00ebff" />
<use x="209.271" y="98.485" xlink:href="#dot"  stroke="#ffe100" />
<use x="86.978" y="106.867" xlink:href="#dot"  stroke="#ffe100" />
<use x="89.303" y="100.641" xlink:href="#dot"  stroke="#ff0000" />
<use x="91.119" y="94.275" xlink:href="#dot"  stroke="#ff0000" />
<use x="91.76" y="87.437" xlink:href="#dot"  stroke="#00ebff" />
<use x="92.773" y="95.863" xlink:href="#dot"  stroke="#ffe100" />
<use x="108.707" y="84.491" xlink:href="#dot"  stroke="#ff0000" />
<use x="116.551" y="83.028" xlink:href="#dot"  stroke="#ff0000" />
<use x="123.211" y="87.883" xlink:href="#dot"  stroke="#ffe100" />
<use x="124.797" y="82.068" xlink:href="#dot"  stroke="#ff0000" />
<use x="122.662" y="75.484" xlink:href="#dot"  stroke="#00ebff" />
<use x="132.177" y="87.25" xlink:href="#dot"  stroke="#ffe100" />
<use x="133.267" y="81.472" xlink:href="#dot"  stroke="#ff0000" />
<use x="131.711" y="74.864" xlink:href="#dot"  stroke="#00ebff" />
<use x="150.479" y="81.046" xlink:href="#dot"  stroke="#ff0000" />
<use x="150.479" y="74.415" xlink:href="#dot"  stroke="#00ebff" />
<use x="168.781" y="87.25" xlink:href="#dot"  stroke="#ffe100" />
<use x="169.247" y="74.864" xlink:href="#dot"  stroke="#00ebff" />
<use x="177.747" y="87.883" xlink:href="#dot"  stroke="#ffe100" />
<use x="178.296" y="75.484" xlink:href="#dot"  stroke="#00ebff" />
<use x="186.428" y="88.893" xlink:href="#dot"  stroke="#ffe100" />
<use x="184.407" y="83.028" xlink:href="#dot"  stroke="#ff0000" />
<use x="186.878" y="76.466" xlink:href="#dot"  stroke="#00ebff" />
<use x="212.465" y="100.429" xlink:href="#dot"  stroke="#ffe100" />
<use x="211.655" y="100.641" xlink:href="#dot"  stroke="#ff0000" />
<use x="86.042" y="110.438" xlink:href="#dot"  stroke="#ff0000" />
<use x="85.809" y="103.02" xlink:href="#dot"  stroke="#ff0000" />
<use x="89.482" y="90.55" xlink:href="#dot"  stroke="#00ebff" />
<use x="100.555" y="92.49" xlink:href="#dot"  stroke="#ff0000" />
<use x="105.598" y="83.702" xlink:href="#dot"  stroke="#00ebff" />
<use x="113.689" y="82.814" xlink:href="#dot"  stroke="#00ebff" />
<use x="131.589" y="81.971" xlink:href="#dot"  stroke="#00ebff" />
<use x="141.81" y="89.418" xlink:href="#dot"  stroke="#ff0000" />
<use x="140.98" y="81.816" xlink:href="#dot"  stroke="#00ebff" />
<use x="150.479" y="89.382" xlink:href="#dot"  stroke="#ff0000" />
<use x="159.148" y="89.418" xlink:href="#dot"  stroke="#ff0000" />
<use x="159.978" y="81.816" xlink:href="#dot"  stroke="#00ebff" />
<use x="167.789" y="89.542" xlink:href="#dot"  stroke="#ff0000" />
<use x="178.524" y="82.277" xlink:href="#dot"  stroke="#00ebff" />
<use x="192.86" y="91.118" xlink:href="#dot"  stroke="#ff0000" />
<use x="202.447" y="85.112" xlink:href="#dot"  stroke="#00ebff" />
<use x="212.189" y="98.003" xlink:href="#dot"  stroke="#ff0000" />
<use x="211.476" y="90.55" xlink:href="#dot"  stroke="#00ebff" />
<use x="89.493" y="105.715" xlink:href="#dot"  stroke="#00ebff" />
<use x="80.455" y="114.002" xlink:href="#dot"  stroke="#ffe100" />
<use x="83.936" y="109.71" xlink:href="#dot"  stroke="#ffe100" />
<use x="89.634" y="107.041" xlink:href="#dot"  stroke="#ffe100" />
<use x="99.518" y="99.054" xlink:href="#dot"  stroke="#ff0000" />
<use x="97.498" y="91.409" xlink:href="#dot"  stroke="#00ebff" />
<use x="122.111" y="90.003" xlink:href="#dot"  stroke="#00ebff" />
<use x="141.165" y="103.999" xlink:href="#dot"  stroke="#ffe100" />
<use x="150.479" y="89.976" xlink:href="#dot"  stroke="#00ebff" />
<use x="159.793" y="103.999" xlink:href="#dot"  stroke="#ffe100" />
<use x="159.216" y="97.875" xlink:href="#dot"  stroke="#ff0000" />
<use x="169.077" y="103.985" xlink:href="#dot"  stroke="#ffe100" />
<use x="167.943" y="97.835" xlink:href="#dot"  stroke="#ff0000" />
<use x="169.562" y="89.963" xlink:href="#dot"  stroke="#00ebff" />
<use x="193.553" y="98.271" xlink:href="#dot"  stroke="#ff0000" />
<use x="201.44" y="99.054" xlink:href="#dot"  stroke="#ff0000" />
<use x="211.324" y="107.041" xlink:href="#dot"  stroke="#ffe100" />
<use x="217.022" y="109.71" xlink:href="#dot"  stroke="#ffe100" />
<use x="213.382" y="95.425" xlink:href="#dot"  stroke="#00ebff" />
<use x="220.503" y="114.002" xlink:href="#dot"  stroke="#ffe100" />
<use x="214.418" y="99.455" xlink:href="#dot"  stroke="#00ebff" />
<use x="220.818" y="120.691" xlink:href="#dot"  stroke="#ffe100" />
<use x="211.465" y="105.715" xlink:href="#dot"  stroke="#00ebff" />
<use x="76.29" y="125.119" xlink:href="#dot"  stroke="#ffe100" />
<use x="78.008" y="117.973" xlink:href="#dot"  stroke="#ff0000" />
<use x="85.917" y="109.783" xlink:href="#dot"  stroke="#00ebff" />
<use x="78.106" y="119.191" xlink:href="#dot"  stroke="#ffe100" />
<use x="104.906" y="112.239" xlink:href="#dot"  stroke="#ffe100" />
<use x="107.393" y="105.405" xlink:href="#dot"  stroke="#ff0000" />
<use x="104.851" y="98.022" xlink:href="#dot"  stroke="#00ebff" />
<use x="113.736" y="112.217" xlink:href="#dot"  stroke="#ffe100" />
<use x="115.859" y="105.448" xlink:href="#dot"  stroke="#ff0000" />
<use x="133.143" y="105.876" xlink:href="#dot"  stroke="#ff0000" />
<use x="131.506" y="98.362" xlink:href="#dot"  stroke="#00ebff" />
<use x="141.815" y="106.044" xlink:href="#dot"  stroke="#ff0000" />
<use x="150.479" y="112.749" xlink:href="#dot"  stroke="#ffe100" />
<use x="150.479" y="106.106" xlink:href="#dot"  stroke="#ff0000" />
<use x="159.727" y="112.696" xlink:href="#dot"  stroke="#ffe100" />
<use x="168.961" y="112.552" xlink:href="#dot"  stroke="#ffe100" />
<use x="178.722" y="98.177" xlink:href="#dot"  stroke="#00ebff" />
<use x="187.222" y="112.217" xlink:href="#dot"  stroke="#ffe100" />
<use x="193.565" y="105.405" xlink:href="#dot"  stroke="#ff0000" />
<use x="196.107" y="98.022" xlink:href="#dot"  stroke="#00ebff" />
<use x="204.427" y="112.618" xlink:href="#dot"  stroke="#ffe100" />
<use x="220.482" y="112.073" xlink:href="#dot"  stroke="#ff0000" />
<use x="224.668" y="125.119" xlink:href="#dot"  stroke="#ffe100" />
<use x="72.784" y="130.951" xlink:href="#dot"  stroke="#ffe100" />
<use x="84.265" y="114.453" xlink:href="#dot"  stroke="#ff0000" />
<use x="88.507" y="120.51" xlink:href="#dot"  stroke="#ffe100" />
<use x="96.476" y="119.872" xlink:href="#dot"  stroke="#ffe100" />
<use x="97.238" y="105.721" xlink:href="#dot"  stroke="#00ebff" />
<use x="124.73" y="112.983" xlink:href="#dot"  stroke="#ff0000" />
<use x="132.186" y="120.765" xlink:href="#dot"  stroke="#ffe100" />
<use x="133.341" y="113.358" xlink:href="#dot"  stroke="#ff0000" />
<use x="131.697" y="106.826" xlink:href="#dot"  stroke="#00ebff" />
<use x="141.057" y="107.07" xlink:href="#dot"  stroke="#00ebff" />
<use x="150.479" y="107.156" xlink:href="#dot"  stroke="#00ebff" />
<use x="159.036" y="113.615" xlink:href="#dot"  stroke="#ff0000" />
<use x="168.772" y="120.765" xlink:href="#dot"  stroke="#ffe100" />
<use x="167.617" y="113.358" xlink:href="#dot"  stroke="#ff0000" />
<use x="169.261" y="106.826" xlink:href="#dot"  stroke="#00ebff" />
<use x="193.396" y="112.279" xlink:href="#dot"  stroke="#ff0000" />
<use x="212.451" y="120.51" xlink:href="#dot"  stroke="#ffe100" />
<use x="209.614" y="112.87" xlink:href="#dot"  stroke="#ff0000" />
<use x="210.427" y="106.192" xlink:href="#dot"  stroke="#00ebff" />
<use x="224.861" y="125.318" xlink:href="#dot"  stroke="#ffe100" />
<use x="226.493" y="123.301" xlink:href="#dot"  stroke="#ff0000" />
<use x="218.222" y="115.363" xlink:href="#dot"  stroke="#00ebff" />
<use x="74.207" y="132.331" xlink:href="#dot"  stroke="#ffe100" />
<use x="88.219" y="127.588" xlink:href="#dot"  stroke="#ffe100" />
<use x="107.824" y="118.762" xlink:href="#dot"  stroke="#ff0000" />
<use x="114.297" y="127.547" xlink:href="#dot"  stroke="#ffe100" />
<use x="116.441" y="119.173" xlink:href="#dot"  stroke="#ff0000" />
<use x="113.901" y="114.119" xlink:href="#dot"  stroke="#00ebff" />
<use x="123.356" y="128.02" xlink:href="#dot"  stroke="#ffe100" />
<use x="132.418" y="128.446" xlink:href="#dot"  stroke="#ffe100" />
<use x="131.945" y="115.138" xlink:href="#dot"  stroke="#00ebff" />
<use x="142.049" y="120.428" xlink:href="#dot"  stroke="#ff0000" />
<use x="150.479" y="120.534" xlink:href="#dot"  stroke="#ff0000" />
<use x="150.479" y="115.56" xlink:href="#dot"  stroke="#00ebff" />
<use x="158.909" y="120.428" xlink:href="#dot"  stroke="#ff0000" />
<use x="175.916" y="119.675" xlink:href="#dot"  stroke="#ff0000" />
<use x="187.057" y="114.119" xlink:href="#dot"  stroke="#00ebff" />
<use x="195.604" y="113.62" xlink:href="#dot"  stroke="#00ebff" />
<use x="212.739" y="127.588" xlink:href="#dot"  stroke="#ffe100" />
<use x="209.912" y="119.15" xlink:href="#dot"  stroke="#ff0000" />
<use x="216.236" y="114.747" xlink:href="#dot"  stroke="#00ebff" />
<use x="224.44" y="123.969" xlink:href="#dot"  stroke="#ff0000" />
<use x="221.251" y="122.437" xlink:href="#dot"  stroke="#00ebff" />
<use x="67.04" y="138.242" xlink:href="#dot"  stroke="#ff0000" />
<use x="72.197" y="140.368" xlink:href="#dot"  stroke="#ffe100" />
<use x="74.408" y="131.269" xlink:href="#dot"  stroke="#ff0000" />
<use x="79.697" y="136.689" xlink:href="#dot"  stroke="#ffe100" />
<use x="96.637" y="134.256" xlink:href="#dot"  stroke="#ffe100" />
<use x="97.646" y="121.212" xlink:href="#dot"  stroke="#00ebff" />
<use x="108.092" y="124.878" xlink:href="#dot"  stroke="#ff0000" />
<use x="116.781" y="125.24" xlink:href="#dot"  stroke="#ff0000" />
<use x="114.324" y="122.08" xlink:href="#dot"  stroke="#00ebff" />
<use x="123.683" y="135.122" xlink:href="#dot"  stroke="#ffe100" />
<use x="123.193" y="122.687" xlink:href="#dot"  stroke="#00ebff" />
<use x="132.666" y="135.557" xlink:href="#dot"  stroke="#ffe100" />
<use x="133.824" y="126.165" xlink:href="#dot"  stroke="#ff0000" />
<use x="132.223" y="123.206" xlink:href="#dot"  stroke="#00ebff" />
<use x="142.18" y="126.469" xlink:href="#dot"  stroke="#ff0000" />
<use x="141.335" y="123.55" xlink:href="#dot"  stroke="#00ebff" />
<use x="167.134" y="126.165" xlink:href="#dot"  stroke="#ff0000" />
<use x="177.275" y="135.122" xlink:href="#dot"  stroke="#ffe100" />
<use x="186.313" y="134.646" xlink:href="#dot"  stroke="#ffe100" />
<use x="192.866" y="124.878" xlink:href="#dot"  stroke="#ff0000" />
<use x="195.214" y="121.521" xlink:href="#dot"  stroke="#00ebff" />
<use x="204.321" y="134.256" xlink:href="#dot"  stroke="#ffe100" />
<use x="210.242" y="125.551" xlink:href="#dot"  stroke="#ff0000" />
<use x="218.626" y="127.431" xlink:href="#dot"  stroke="#ff0000" />
<use x="216.887" y="122.683" xlink:href="#dot"  stroke="#00ebff" />
<use x="221.594" y="125.572" xlink:href="#dot"  stroke="#00ebff" />
<use x="235.354" y="147.074" xlink:href="#dot"  stroke="#ffe100" />
<use x="233.918" y="138.242" xlink:href="#dot"  stroke="#ff0000" />
<use x="224.404" y="131.162" xlink:href="#dot"  stroke="#00ebff" />
<use x="61.245" y="158.056" xlink:href="#dot"  stroke="#ffe100" />
<use x="72.959" y="141.902" xlink:href="#dot"  stroke="#00ebff" />
<use x="87.485" y="142.648" xlink:href="#dot"  stroke="#ffe100" />
<use x="99.297" y="131.142" xlink:href="#dot"  stroke="#ff0000" />
<use x="105.814" y="141.315" xlink:href="#dot"  stroke="#ffe100" />
<use x="117.062" y="130.943" xlink:href="#dot"  stroke="#ff0000" />
<use x="123.982" y="141.84" xlink:href="#dot"  stroke="#ffe100" />
<use x="132.897" y="142.199" xlink:href="#dot"  stroke="#ffe100" />
<use x="141.483" y="131.394" xlink:href="#dot"  stroke="#00ebff" />
<use x="150.479" y="131.961" xlink:href="#dot"  stroke="#ff0000" />
<use x="159.475" y="131.394" xlink:href="#dot"  stroke="#00ebff" />
<use x="175.31" y="131.273" xlink:href="#dot"  stroke="#ff0000" />
<use x="194.835" y="129.541" xlink:href="#dot"  stroke="#00ebff" />
<use x="201.661" y="131.142" xlink:href="#dot"  stroke="#ff0000" />
<use x="203.101" y="129.385" xlink:href="#dot"  stroke="#00ebff" />
<use x="210.799" y="129.882" xlink:href="#dot"  stroke="#00ebff" />
<use x="217.664" y="131.539" xlink:href="#dot"  stroke="#00ebff" />
<use x="68.512" y="150.578" xlink:href="#dot"  stroke="#ff0000" />
<use x="86.719" y="151.236" xlink:href="#dot"  stroke="#ffe100" />
<use x="105.868" y="148.565" xlink:href="#dot"  stroke="#ffe100" />
<use x="106.407" y="137.892" xlink:href="#dot"  stroke="#00ebff" />
<use x="115.141" y="148.349" xlink:href="#dot"  stroke="#ffe100" />
<use x="124.203" y="148.432" xlink:href="#dot"  stroke="#ffe100" />
<use x="125.839" y="136.623" xlink:href="#dot"  stroke="#ff0000" />
<use x="133.079" y="148.615" xlink:href="#dot"  stroke="#ffe100" />
<use x="141.816" y="148.772" xlink:href="#dot"  stroke="#ffe100" />
<use x="150.479" y="136.962" xlink:href="#dot"  stroke="#ff0000" />
<use x="176.755" y="148.432" xlink:href="#dot"  stroke="#ffe100" />
<use x="185.817" y="148.349" xlink:href="#dot"  stroke="#ffe100" />
<use x="195.09" y="148.565" xlink:href="#dot"  stroke="#ffe100" />
<use x="192.696" y="136.908" xlink:href="#dot"  stroke="#ff0000" />
<use x="194.551" y="137.892" xlink:href="#dot"  stroke="#00ebff" />
<use x="214.239" y="151.236" xlink:href="#dot"  stroke="#ffe100" />
<use x="221.747" y="143.802" xlink:href="#dot"  stroke="#ff0000" />
<use x="232.446" y="150.578" xlink:href="#dot"  stroke="#ff0000" />
<use x="64.018" y="164.132" xlink:href="#dot"  stroke="#ff0000" />
<use x="72.004" y="160.426" xlink:href="#dot"  stroke="#00ebff" />
<use x="80.54" y="153.628" xlink:href="#dot"  stroke="#00ebff" />
<use x="85.436" y="161.243" xlink:href="#dot"  stroke="#ffe100" />
<use x="98.221" y="145.597" xlink:href="#dot"  stroke="#ff0000" />
<use x="97.725" y="147.817" xlink:href="#dot"  stroke="#00ebff" />
<use x="106.498" y="146.931" xlink:href="#dot"  stroke="#00ebff" />
<use x="117.133" y="142.688" xlink:href="#dot"  stroke="#ff0000" />
<use x="124.289" y="155.3" xlink:href="#dot"  stroke="#ffe100" />
<use x="125.876" y="142.226" xlink:href="#dot"  stroke="#ff0000" />
<use x="124.155" y="146.737" xlink:href="#dot"  stroke="#00ebff" />
<use x="132.958" y="146.908" xlink:href="#dot"  stroke="#00ebff" />
<use x="150.479" y="155.19" xlink:href="#dot"  stroke="#ffe100" />
<use x="159.082" y="155.184" xlink:href="#dot"  stroke="#ffe100" />
<use x="159.229" y="147.059" xlink:href="#dot"  stroke="#00ebff" />
<use x="167.782" y="155.193" xlink:href="#dot"  stroke="#ffe100" />
<use x="175.082" y="142.226" xlink:href="#dot"  stroke="#ff0000" />
<use x="183.825" y="142.688" xlink:href="#dot"  stroke="#ff0000" />
<use x="195.308" y="156.496" xlink:href="#dot"  stroke="#ffe100" />
<use x="202.737" y="145.597" xlink:href="#dot"  stroke="#ff0000" />
<use x="203.233" y="147.817" xlink:href="#dot"  stroke="#00ebff" />
<use x="215.522" y="161.243" xlink:href="#dot"  stroke="#ffe100" />
<use x="226.469" y="166.508" xlink:href="#dot"  stroke="#ffe100" />
<use x="224.375" y="154.713" xlink:href="#dot"  stroke="#ff0000" />
<use x="238.383" y="175.261" xlink:href="#dot"  stroke="#ffe100" />
<use x="236.94" y="164.132" xlink:href="#dot"  stroke="#ff0000" />
<use x="56.934" y="193.301" xlink:href="#dot"  stroke="#ffe100" />
<use x="78.061" y="168.172" xlink:href="#dot"  stroke="#00ebff" />
<use x="83.408" y="173.469" xlink:href="#dot"  stroke="#ffe100" />
<use x="87.747" y="162.411" xlink:href="#dot"  stroke="#00ebff" />
<use x="105.035" y="165.748" xlink:href="#dot"  stroke="#ffe100" />
<use x="107.194" y="151.847" xlink:href="#dot"  stroke="#ff0000" />
<use x="133.145" y="162.473" xlink:href="#dot"  stroke="#ffe100" />
<use x="134.202" y="148.057" xlink:href="#dot"  stroke="#ff0000" />
<use x="141.874" y="162.22" xlink:href="#dot"  stroke="#ffe100" />
<use x="142.415" y="147.742" xlink:href="#dot"  stroke="#ff0000" />
<use x="158.543" y="147.742" xlink:href="#dot"  stroke="#ff0000" />
<use x="175.266" y="148.699" xlink:href="#dot"  stroke="#ff0000" />
<use x="176.708" y="155.77" xlink:href="#dot"  stroke="#00ebff" />
<use x="185.627" y="156.206" xlink:href="#dot"  stroke="#00ebff" />
<use x="195.923" y="165.748" xlink:href="#dot"  stroke="#ffe100" />
<use x="193.764" y="151.847" xlink:href="#dot"  stroke="#ff0000" />
<use x="217.55" y="173.469" xlink:href="#dot"  stroke="#ffe100" />
<use x="222.897" y="168.172" xlink:href="#dot"  stroke="#00ebff" />
<use x="243.066" y="181.823" xlink:href="#dot"  stroke="#ff0000" />
<use x="233.334" y="177.768" xlink:href="#dot"  stroke="#00ebff" />
<use x="92.719" y="181.813" xlink:href="#dot"  stroke="#ffe100" />
<use x="103.874" y="177.16" xlink:href="#dot"  stroke="#ffe100" />
<use x="105.846" y="162.298" xlink:href="#dot"  stroke="#ff0000" />
<use x="105.645" y="169.297" xlink:href="#dot"  stroke="#00ebff" />
<use x="124.131" y="166.183" xlink:href="#dot"  stroke="#00ebff" />
<use x="133.937" y="155.556" xlink:href="#dot"  stroke="#ff0000" />
<use x="141.787" y="170.568" xlink:href="#dot"  stroke="#ffe100" />
<use x="141.79" y="165.245" xlink:href="#dot"  stroke="#00ebff" />
<use x="150.479" y="170.384" xlink:href="#dot"  stroke="#ffe100" />
<use x="168.018" y="171.161" xlink:href="#dot"  stroke="#ffe100" />
<use x="175.75" y="156.839" xlink:href="#dot"  stroke="#ff0000" />
<use x="176.827" y="166.183" xlink:href="#dot"  stroke="#00ebff" />
<use x="195.112" y="162.298" xlink:href="#dot"  stroke="#ff0000" />
<use x="195.313" y="169.297" xlink:href="#dot"  stroke="#00ebff" />
<use x="208.239" y="181.813" xlink:href="#dot"  stroke="#ffe100" />
<use x="205.063" y="172.565" xlink:href="#dot"  stroke="#00ebff" />
<use x="226.538" y="186.332" xlink:href="#dot"  stroke="#00ebff" />
<use x="69.192" y="209.456" xlink:href="#dot"  stroke="#00ebff" />
<use x="75.939" y="209.081" xlink:href="#dot"  stroke="#ffe100" />
<use x="93.875" y="189.366" xlink:href="#dot"  stroke="#00ebff" />
<use x="104.416" y="184.198" xlink:href="#dot"  stroke="#00ebff" />
<use x="123.028" y="184.065" xlink:href="#dot"  stroke="#ffe100" />
<use x="123.718" y="178.743" xlink:href="#dot"  stroke="#00ebff" />
<use x="132.813" y="177.468" xlink:href="#dot"  stroke="#00ebff" />
<use x="142.062" y="164.336" xlink:href="#dot"  stroke="#ff0000" />
<use x="150.479" y="163.962" xlink:href="#dot"  stroke="#ff0000" />
<use x="150.479" y="176.578" xlink:href="#dot"  stroke="#00ebff" />
<use x="158.896" y="164.336" xlink:href="#dot"  stroke="#ff0000" />
<use x="159.26" y="176.79" xlink:href="#dot"  stroke="#00ebff" />
<use x="167.536" y="165.511" xlink:href="#dot"  stroke="#ff0000" />
<use x="211.133" y="198.755" xlink:href="#dot"  stroke="#ffe100" />
<use x="207.083" y="189.366" xlink:href="#dot"  stroke="#00ebff" />
<use x="218.614" y="197.293" xlink:href="#dot"  stroke="#00ebff" />
<use x="77.583" y="222.17" xlink:href="#dot"  stroke="#00ebff" />
<use x="90.78" y="210.709" xlink:href="#dot"  stroke="#00ebff" />
<use x="99.152" y="210.998" xlink:href="#dot"  stroke="#ffe100" />
<use x="111.045" y="204.126" xlink:href="#dot"  stroke="#ffe100" />
<use x="112.392" y="187.455" xlink:href="#dot"  stroke="#ff0000" />
<use x="113.012" y="197.827" xlink:href="#dot"  stroke="#00ebff" />
<use x="132.583" y="179.114" xlink:href="#dot"  stroke="#ff0000" />
<use x="132.352" y="192.285" xlink:href="#dot"  stroke="#00ebff" />
<use x="150.479" y="194.369" xlink:href="#dot"  stroke="#ffe100" />
<use x="150.479" y="190.741" xlink:href="#dot"  stroke="#00ebff" />
<use x="159.713" y="194.897" xlink:href="#dot"  stroke="#ffe100" />
<use x="169.189" y="196.542" xlink:href="#dot"  stroke="#ffe100" />
<use x="179.159" y="199.499" xlink:href="#dot"  stroke="#ffe100" />
<use x="178.024" y="182.373" xlink:href="#dot"  stroke="#ff0000" />
<use x="178.039" y="194.42" xlink:href="#dot"  stroke="#00ebff" />
<use x="189.913" y="204.126" xlink:href="#dot"  stroke="#ffe100" />
<use x="187.946" y="197.827" xlink:href="#dot"  stroke="#00ebff" />
<use x="201.806" y="210.998" xlink:href="#dot"  stroke="#ffe100" />
<use x="198.549" y="202.999" xlink:href="#dot"  stroke="#00ebff" />
<use x="99.38" y="227.124" xlink:href="#dot"  stroke="#00ebff" />
<use x="140.715" y="213.284" xlink:href="#dot"  stroke="#ffe100" />
<use x="201.578" y="227.124" xlink:href="#dot"  stroke="#00ebff" />
<use x="140.565" y="232.851" xlink:href="#dot"  stroke="#00ebff" />
<use x="150.479" y="231.993" xlink:href="#dot"  stroke="#00ebff" />
<use x="170.569" y="235.514" xlink:href="#dot"  stroke="#00ebff" />
</svg>
