<?xml version="1.0" standalone="no"?>
<svg width="300px" height="300px" version="1.1" xmlns="http://www.w3.org/2000/svg"
     xmlns:xlink="http://www.w3.org/1999/xlink">
    <rect x="0" y="0" width="300" height="300" fill="#000000"/>
    <defs>
        <g id="dot">
            <line x1="1" y1="1" x2="0" y2="0"/>
        </g>
        <g id="cross">
            <line x1="-3" y1="0" x2="3" y2="0"/>
            <line x1="0" y1="-3" x2="0" y2="3"/>
        </g>
        <g id="square">
            <line x1="-3" y1="-3" x2="-3" y2="3"/>
            <line x1="-3" y1="3" x2="3" y2="3"/>
            <line x1="3" y1="3" x2="3" y2="-3"/>
            <line x1="3" y1="-3" x2="-3" y2="-3"/>
        </g>
        <g id="round">
            <ellipse cx="0" cy="0" rx="3" ry="3" fill="none"/>
        </g>
        <g id="triangle">
            <line x1="0" y1="-3" x2="-3" y2="3"/>
            <line x1="-3" y1="3" x2="3" y2="3"/>
            <line x1="0" y1="-3" x2="3" y2="3"/>
        </g>
    </defs>
    <polygon fill="none" stroke="#ffffff" points="30.952,269.048 30.952,30.952 269.048,30.952 269.048,269.048 "/>
    <text style="font-size:12;text-align:center;text-anchor:middle;" x="150" y="298.262" fill="#ffffff">Sagittal
        distance (um)
    </text>
    <use x="70.635" y="30.952" xlink:href="#cross" stroke="#ffffff"/>
    <use x="70.635" y="269.048" xlink:href="#cross" stroke="#ffffff"/>
    <text style="font-size:12;text-align:center;text-anchor:middle;" x="70.635" y="287.048" fill="#ffffff">-73</text>
    <use x="150" y="30.952" xlink:href="#cross" stroke="#ffffff"/>
    <use x="150" y="269.048" xlink:href="#cross" stroke="#ffffff"/>
    <text style="font-size:12;text-align:center;text-anchor:middle;" x="150" y="287.048" fill="#ffffff">0</text>
    <use x="229.365" y="30.952" xlink:href="#cross" stroke="#ffffff"/>
    <use x="229.365" y="269.048" xlink:href="#cross" stroke="#ffffff"/>
    <text style="font-size:12;text-align:center;text-anchor:middle;" x="229.365" y="287.048" fill="#ffffff">73</text>
    <text style="font-size:12;text-align:center;text-anchor:middle;" x="7.738" y="156" transform="rotate(-90,7.738,150)"
          fill="#ffffff">Tangential distance (um)
    </text>
    <use x="269.048" y="191.824" xlink:href="#cross" stroke="#ffffff"/>
    <use x="30.952" y="191.824" xlink:href="#cross" stroke="#ffffff"/>
    <text style="font-size:12;text-align:right;text-anchor:end;" x="24.952" y="197.824" fill="#ffffff">-73</text>
    <use x="269.048" y="112.459" xlink:href="#cross" stroke="#ffffff"/>
    <use x="30.952" y="112.459" xlink:href="#cross" stroke="#ffffff"/>
    <text style="font-size:12;text-align:right;text-anchor:end;" x="24.952" y="118.459" fill="#ffffff">0</text>
    <use x="269.048" y="33.094" xlink:href="#cross" stroke="#ffffff"/>
    <use x="30.952" y="33.094" xlink:href="#cross" stroke="#ffffff"/>
    <text style="font-size:12;text-align:right;text-anchor:end;" x="24.952" y="39.094" fill="#ffffff">73</text>
    <use x="138.933" y="80.347" xlink:href="#dot" stroke="#ffe100"/>
    <use x="148.865" y="84.743" xlink:href="#dot" stroke="#ff0000"/>
    <use x="138.316" y="69.475" xlink:href="#dot" stroke="#00ebff"/>
    <use x="132.084" y="83.376" xlink:href="#dot" stroke="#ffe100"/>
    <use x="140.728" y="88.35" xlink:href="#dot" stroke="#ff0000"/>
    <use x="131.669" y="72.413" xlink:href="#dot" stroke="#00ebff"/>
    <use x="127.772" y="87.073" xlink:href="#dot" stroke="#ffe100"/>
    <use x="135.28" y="92.516" xlink:href="#dot" stroke="#ff0000"/>
    <use x="127.312" y="76.099" xlink:href="#dot" stroke="#00ebff"/>
    <use x="126.367" y="90.689" xlink:href="#dot" stroke="#ffe100"/>
    <use x="132.82" y="96.503" xlink:href="#dot" stroke="#ff0000"/>
    <use x="125.761" y="79.773" xlink:href="#dot" stroke="#00ebff"/>
    <use x="127.625" y="93.726" xlink:href="#dot" stroke="#ffe100"/>
    <use x="133.052" y="99.831" xlink:href="#dot" stroke="#ff0000"/>
    <use x="126.886" y="82.903" xlink:href="#dot" stroke="#00ebff"/>
    <use x="130.823" y="96.094" xlink:href="#dot" stroke="#ffe100"/>
    <use x="135.216" y="102.425" xlink:href="#dot" stroke="#ff0000"/>
    <use x="130.034" y="85.365" xlink:href="#dot" stroke="#00ebff"/>
    <use x="135.15" y="97.899" xlink:href="#dot" stroke="#ffe100"/>
    <use x="138.483" y="104.401" xlink:href="#dot" stroke="#ff0000"/>
    <use x="134.424" y="87.249" xlink:href="#dot" stroke="#00ebff"/>
    <use x="139.987" y="99.231" xlink:href="#dot" stroke="#ffe100"/>
    <use x="142.229" y="105.853" xlink:href="#dot" stroke="#ff0000"/>
    <use x="139.432" y="88.635" xlink:href="#dot" stroke="#00ebff"/>
    <use x="144.981" y="100.077" xlink:href="#dot" stroke="#ffe100"/>
    <use x="146.11" y="106.772" xlink:href="#dot" stroke="#ff0000"/>
    <use x="144.682" y="89.512" xlink:href="#dot" stroke="#00ebff"/>
    <use x="150" y="100.371" xlink:href="#dot" stroke="#ffe100"/>
    <use x="150" y="107.09" xlink:href="#dot" stroke="#ff0000"/>
    <use x="150" y="89.816" xlink:href="#dot" stroke="#00ebff"/>
    <use x="155.019" y="100.077" xlink:href="#dot" stroke="#ffe100"/>
    <use x="153.89" y="106.772" xlink:href="#dot" stroke="#ff0000"/>
    <use x="155.318" y="89.512" xlink:href="#dot" stroke="#00ebff"/>
    <use x="160.013" y="99.231" xlink:href="#dot" stroke="#ffe100"/>
    <use x="157.771" y="105.853" xlink:href="#dot" stroke="#ff0000"/>
    <use x="160.568" y="88.635" xlink:href="#dot" stroke="#00ebff"/>
    <use x="164.85" y="97.899" xlink:href="#dot" stroke="#ffe100"/>
    <use x="161.517" y="104.401" xlink:href="#dot" stroke="#ff0000"/>
    <use x="165.576" y="87.249" xlink:href="#dot" stroke="#00ebff"/>
    <use x="169.177" y="96.094" xlink:href="#dot" stroke="#ffe100"/>
    <use x="164.784" y="102.425" xlink:href="#dot" stroke="#ff0000"/>
    <use x="169.966" y="85.365" xlink:href="#dot" stroke="#00ebff"/>
    <use x="172.375" y="93.726" xlink:href="#dot" stroke="#ffe100"/>
    <use x="166.948" y="99.831" xlink:href="#dot" stroke="#ff0000"/>
    <use x="173.114" y="82.903" xlink:href="#dot" stroke="#00ebff"/>
    <use x="173.633" y="90.689" xlink:href="#dot" stroke="#ffe100"/>
    <use x="167.18" y="96.503" xlink:href="#dot" stroke="#ff0000"/>
    <use x="174.239" y="79.773" xlink:href="#dot" stroke="#00ebff"/>
    <use x="172.228" y="87.073" xlink:href="#dot" stroke="#ffe100"/>
    <use x="164.72" y="92.516" xlink:href="#dot" stroke="#ff0000"/>
    <use x="172.688" y="76.099" xlink:href="#dot" stroke="#00ebff"/>
    <use x="167.916" y="83.376" xlink:href="#dot" stroke="#ffe100"/>
    <use x="159.272" y="88.35" xlink:href="#dot" stroke="#ff0000"/>
    <use x="168.331" y="72.413" xlink:href="#dot" stroke="#00ebff"/>
    <use x="161.067" y="80.347" xlink:href="#dot" stroke="#ffe100"/>
    <use x="151.135" y="84.743" xlink:href="#dot" stroke="#ff0000"/>
    <use x="161.684" y="69.475" xlink:href="#dot" stroke="#00ebff"/>
    <use x="174.21" y="103.01" xlink:href="#dot" stroke="#ffe100"/>
    <use x="188.794" y="99.601" xlink:href="#dot" stroke="#ff0000"/>
    <use x="171.048" y="101.67" xlink:href="#dot" stroke="#00ebff"/>
    <use x="172.775" y="93.857" xlink:href="#dot" stroke="#ffe100"/>
    <use x="184.655" y="92.34" xlink:href="#dot" stroke="#ff0000"/>
    <use x="173.237" y="89.606" xlink:href="#dot" stroke="#00ebff"/>
    <use x="159.207" y="96.523" xlink:href="#dot" stroke="#ffe100"/>
    <use x="169.408" y="96.171" xlink:href="#dot" stroke="#ff0000"/>
    <use x="160.513" y="91.37" xlink:href="#dot" stroke="#00ebff"/>
    <use x="148.643" y="98.083" xlink:href="#dot" stroke="#ffe100"/>
    <use x="157.552" y="98.677" xlink:href="#dot" stroke="#ff0000"/>
    <use x="150.019" y="92.322" xlink:href="#dot" stroke="#00ebff"/>
    <use x="140.939" y="99.4" xlink:href="#dot" stroke="#ffe100"/>
    <use x="148.75" y="100.81" xlink:href="#dot" stroke="#ff0000"/>
    <use x="142.103" y="93.086" xlink:href="#dot" stroke="#00ebff"/>
    <use x="135.583" y="101.372" xlink:href="#dot" stroke="#ffe100"/>
    <use x="142.404" y="103.467" xlink:href="#dot" stroke="#ff0000"/>
    <use x="136.397" y="94.608" xlink:href="#dot" stroke="#00ebff"/>
    <use x="132.748" y="103.658" xlink:href="#dot" stroke="#ffe100"/>
    <use x="138.639" y="106.307" xlink:href="#dot" stroke="#ff0000"/>
    <use x="133.172" y="96.574" xlink:href="#dot" stroke="#00ebff"/>
    <use x="132.442" y="105.63" xlink:href="#dot" stroke="#ffe100"/>
    <use x="137.417" y="108.715" xlink:href="#dot" stroke="#ff0000"/>
    <use x="132.521" y="98.343" xlink:href="#dot" stroke="#00ebff"/>
    <use x="134.222" y="106.978" xlink:href="#dot" stroke="#ffe100"/>
    <use x="138.264" y="110.398" xlink:href="#dot" stroke="#ff0000"/>
    <use x="134.058" y="99.567" xlink:href="#dot" stroke="#00ebff"/>
    <use x="137.403" y="107.737" xlink:href="#dot" stroke="#ffe100"/>
    <use x="140.48" y="111.406" xlink:href="#dot" stroke="#ff0000"/>
    <use x="137.126" y="100.252" xlink:href="#dot" stroke="#00ebff"/>
    <use x="141.348" y="108.101" xlink:href="#dot" stroke="#ffe100"/>
    <use x="143.425" y="111.943" xlink:href="#dot" stroke="#ff0000"/>
    <use x="141.083" y="100.57" xlink:href="#dot" stroke="#00ebff"/>
    <use x="145.623" y="108.25" xlink:href="#dot" stroke="#ffe100"/>
    <use x="146.669" y="112.194" xlink:href="#dot" stroke="#ff0000"/>
    <use x="145.464" y="100.693" xlink:href="#dot" stroke="#00ebff"/>
    <use x="150" y="108.289" xlink:href="#dot" stroke="#ffe100"/>
    <use x="150" y="112.268" xlink:href="#dot" stroke="#ff0000"/>
    <use x="150" y="100.723" xlink:href="#dot" stroke="#00ebff"/>
    <use x="154.377" y="108.25" xlink:href="#dot" stroke="#ffe100"/>
    <use x="153.331" y="112.194" xlink:href="#dot" stroke="#ff0000"/>
    <use x="154.536" y="100.693" xlink:href="#dot" stroke="#00ebff"/>
    <use x="158.652" y="108.101" xlink:href="#dot" stroke="#ffe100"/>
    <use x="156.575" y="111.943" xlink:href="#dot" stroke="#ff0000"/>
    <use x="158.917" y="100.57" xlink:href="#dot" stroke="#00ebff"/>
    <use x="162.597" y="107.737" xlink:href="#dot" stroke="#ffe100"/>
    <use x="159.52" y="111.406" xlink:href="#dot" stroke="#ff0000"/>
    <use x="162.874" y="100.252" xlink:href="#dot" stroke="#00ebff"/>
    <use x="165.778" y="106.978" xlink:href="#dot" stroke="#ffe100"/>
    <use x="161.736" y="110.398" xlink:href="#dot" stroke="#ff0000"/>
    <use x="165.942" y="99.567" xlink:href="#dot" stroke="#00ebff"/>
    <use x="167.558" y="105.63" xlink:href="#dot" stroke="#ffe100"/>
    <use x="162.583" y="108.715" xlink:href="#dot" stroke="#ff0000"/>
    <use x="167.479" y="98.343" xlink:href="#dot" stroke="#00ebff"/>
    <use x="167.252" y="103.658" xlink:href="#dot" stroke="#ffe100"/>
    <use x="161.361" y="106.307" xlink:href="#dot" stroke="#ff0000"/>
    <use x="166.828" y="96.574" xlink:href="#dot" stroke="#00ebff"/>
    <use x="164.417" y="101.372" xlink:href="#dot" stroke="#ffe100"/>
    <use x="157.596" y="103.467" xlink:href="#dot" stroke="#ff0000"/>
    <use x="163.603" y="94.608" xlink:href="#dot" stroke="#00ebff"/>
    <use x="159.061" y="99.4" xlink:href="#dot" stroke="#ffe100"/>
    <use x="151.25" y="100.81" xlink:href="#dot" stroke="#ff0000"/>
    <use x="157.897" y="93.086" xlink:href="#dot" stroke="#00ebff"/>
    <use x="151.357" y="98.083" xlink:href="#dot" stroke="#ffe100"/>
    <use x="142.448" y="98.677" xlink:href="#dot" stroke="#ff0000"/>
    <use x="149.981" y="92.322" xlink:href="#dot" stroke="#00ebff"/>
    <use x="140.793" y="96.523" xlink:href="#dot" stroke="#ffe100"/>
    <use x="130.592" y="96.171" xlink:href="#dot" stroke="#ff0000"/>
    <use x="139.487" y="91.37" xlink:href="#dot" stroke="#00ebff"/>
    <use x="127.225" y="93.857" xlink:href="#dot" stroke="#ffe100"/>
    <use x="115.345" y="92.34" xlink:href="#dot" stroke="#ff0000"/>
    <use x="126.763" y="89.606" xlink:href="#dot" stroke="#00ebff"/>
    <use x="125.79" y="103.01" xlink:href="#dot" stroke="#ffe100"/>
    <use x="111.206" y="99.601" xlink:href="#dot" stroke="#ff0000"/>
    <use x="128.952" y="101.67" xlink:href="#dot" stroke="#00ebff"/>
    <use x="174.234" y="104.772" xlink:href="#dot" stroke="#ffe100"/>
    <use x="185.63" y="99.402" xlink:href="#dot" stroke="#ff0000"/>
    <use x="175.173" y="105.821" xlink:href="#dot" stroke="#00ebff"/>
    <use x="165.085" y="102.848" xlink:href="#dot" stroke="#ffe100"/>
    <use x="174.695" y="99.236" xlink:href="#dot" stroke="#ff0000"/>
    <use x="167.417" y="101.44" xlink:href="#dot" stroke="#00ebff"/>
    <use x="153.23" y="105.588" xlink:href="#dot" stroke="#ffe100"/>
    <use x="161.648" y="103.174" xlink:href="#dot" stroke="#ff0000"/>
    <use x="155.43" y="103.127" xlink:href="#dot" stroke="#00ebff"/>
    <use x="144.865" y="106.631" xlink:href="#dot" stroke="#ffe100"/>
    <use x="152.289" y="105.221" xlink:href="#dot" stroke="#ff0000"/>
    <use x="146.618" y="103.322" xlink:href="#dot" stroke="#00ebff"/>
    <use x="139.213" y="107.357" xlink:href="#dot" stroke="#ffe100"/>
    <use x="145.726" y="106.812" xlink:href="#dot" stroke="#ff0000"/>
    <use x="140.467" y="103.28" xlink:href="#dot" stroke="#00ebff"/>
    <use x="135.842" y="108.469" xlink:href="#dot" stroke="#ffe100"/>
    <use x="141.479" y="108.644" xlink:href="#dot" stroke="#ff0000"/>
    <use x="136.613" y="103.756" xlink:href="#dot" stroke="#00ebff"/>
    <use x="134.726" y="109.677" xlink:href="#dot" stroke="#ffe100"/>
    <use x="139.493" y="110.428" xlink:href="#dot" stroke="#ff0000"/>
    <use x="135.083" y="104.486" xlink:href="#dot" stroke="#00ebff"/>
    <use x="135.66" y="110.554" xlink:href="#dot" stroke="#ffe100"/>
    <use x="139.538" y="111.749" xlink:href="#dot" stroke="#ff0000"/>
    <use x="135.714" y="105.027" xlink:href="#dot" stroke="#00ebff"/>
    <use x="138.167" y="110.956" xlink:href="#dot" stroke="#ffe100"/>
    <use x="141.123" y="112.479" xlink:href="#dot" stroke="#ff0000"/>
    <use x="138.05" y="105.204" xlink:href="#dot" stroke="#00ebff"/>
    <use x="141.682" y="111.001" xlink:href="#dot" stroke="#ffe100"/>
    <use x="143.679" y="112.75" xlink:href="#dot" stroke="#ff0000"/>
    <use x="141.521" y="105.108" xlink:href="#dot" stroke="#00ebff"/>
    <use x="145.734" y="110.909" xlink:href="#dot" stroke="#ffe100"/>
    <use x="146.74" y="112.79" xlink:href="#dot" stroke="#ff0000"/>
    <use x="145.626" y="104.937" xlink:href="#dot" stroke="#00ebff"/>
    <use x="150" y="110.857" xlink:href="#dot" stroke="#ffe100"/>
    <use x="150" y="112.781" xlink:href="#dot" stroke="#ff0000"/>
    <use x="150" y="104.859" xlink:href="#dot" stroke="#00ebff"/>
    <use x="154.266" y="110.909" xlink:href="#dot" stroke="#ffe100"/>
    <use x="153.26" y="112.79" xlink:href="#dot" stroke="#ff0000"/>
    <use x="154.374" y="104.937" xlink:href="#dot" stroke="#00ebff"/>
    <use x="158.318" y="111.001" xlink:href="#dot" stroke="#ffe100"/>
    <use x="156.321" y="112.75" xlink:href="#dot" stroke="#ff0000"/>
    <use x="158.479" y="105.108" xlink:href="#dot" stroke="#00ebff"/>
    <use x="161.833" y="110.956" xlink:href="#dot" stroke="#ffe100"/>
    <use x="158.877" y="112.479" xlink:href="#dot" stroke="#ff0000"/>
    <use x="161.95" y="105.204" xlink:href="#dot" stroke="#00ebff"/>
    <use x="164.34" y="110.554" xlink:href="#dot" stroke="#ffe100"/>
    <use x="160.462" y="111.749" xlink:href="#dot" stroke="#ff0000"/>
    <use x="164.286" y="105.027" xlink:href="#dot" stroke="#00ebff"/>
    <use x="165.274" y="109.677" xlink:href="#dot" stroke="#ffe100"/>
    <use x="160.507" y="110.428" xlink:href="#dot" stroke="#ff0000"/>
    <use x="164.917" y="104.486" xlink:href="#dot" stroke="#00ebff"/>
    <use x="164.158" y="108.469" xlink:href="#dot" stroke="#ffe100"/>
    <use x="158.521" y="108.644" xlink:href="#dot" stroke="#ff0000"/>
    <use x="163.387" y="103.756" xlink:href="#dot" stroke="#00ebff"/>
    <use x="160.787" y="107.357" xlink:href="#dot" stroke="#ffe100"/>
    <use x="154.274" y="106.812" xlink:href="#dot" stroke="#ff0000"/>
    <use x="159.533" y="103.28" xlink:href="#dot" stroke="#00ebff"/>
    <use x="155.135" y="106.631" xlink:href="#dot" stroke="#ffe100"/>
    <use x="147.711" y="105.221" xlink:href="#dot" stroke="#ff0000"/>
    <use x="153.382" y="103.322" xlink:href="#dot" stroke="#00ebff"/>
    <use x="146.77" y="105.588" xlink:href="#dot" stroke="#ffe100"/>
    <use x="138.352" y="103.174" xlink:href="#dot" stroke="#ff0000"/>
    <use x="144.57" y="103.127" xlink:href="#dot" stroke="#00ebff"/>
    <use x="134.915" y="102.848" xlink:href="#dot" stroke="#ffe100"/>
    <use x="125.305" y="99.236" xlink:href="#dot" stroke="#ff0000"/>
    <use x="132.583" y="101.44" xlink:href="#dot" stroke="#00ebff"/>
    <use x="125.766" y="104.772" xlink:href="#dot" stroke="#ffe100"/>
    <use x="114.37" y="99.402" xlink:href="#dot" stroke="#ff0000"/>
    <use x="124.827" y="105.821" xlink:href="#dot" stroke="#00ebff"/>
    <use x="166.166" y="109.757" xlink:href="#dot" stroke="#ffe100"/>
    <use x="176.438" y="102.139" xlink:href="#dot" stroke="#ff0000"/>
    <use x="167.325" y="113.679" xlink:href="#dot" stroke="#00ebff"/>
    <use x="160.828" y="105.127" xlink:href="#dot" stroke="#ffe100"/>
    <use x="169.566" y="99.449" xlink:href="#dot" stroke="#ff0000"/>
    <use x="163.187" y="105.878" xlink:href="#dot" stroke="#00ebff"/>
    <use x="150.8" y="108.4" xlink:href="#dot" stroke="#ffe100"/>
    <use x="158.537" y="103.982" xlink:href="#dot" stroke="#ff0000"/>
    <use x="152.878" y="107.838" xlink:href="#dot" stroke="#00ebff"/>
    <use x="143.62" y="110.007" xlink:href="#dot" stroke="#ffe100"/>
    <use x="150.505" y="106.617" xlink:href="#dot" stroke="#ff0000"/>
    <use x="145.153" y="108.492" xlink:href="#dot" stroke="#00ebff"/>
    <use x="139.083" y="110.462" xlink:href="#dot" stroke="#ffe100"/>
    <use x="145.159" y="107.962" xlink:href="#dot" stroke="#ff0000"/>
    <use x="140.094" y="108.077" xlink:href="#dot" stroke="#00ebff"/>
    <use x="136.568" y="110.832" xlink:href="#dot" stroke="#ffe100"/>
    <use x="141.841" y="109.09" xlink:href="#dot" stroke="#ff0000"/>
    <use x="137.135" y="107.68" xlink:href="#dot" stroke="#00ebff"/>
    <use x="135.847" y="111.335" xlink:href="#dot" stroke="#ffe100"/>
    <use x="140.306" y="110.215" xlink:href="#dot" stroke="#ff0000"/>
    <use x="136.064" y="107.559" xlink:href="#dot" stroke="#00ebff"/>
    <use x="136.752" y="111.783" xlink:href="#dot" stroke="#ffe100"/>
    <use x="140.375" y="111.15" xlink:href="#dot" stroke="#ff0000"/>
    <use x="136.729" y="107.533" xlink:href="#dot" stroke="#00ebff"/>
    <use x="138.992" y="112.016" xlink:href="#dot" stroke="#ffe100"/>
    <use x="141.748" y="111.748" xlink:href="#dot" stroke="#ff0000"/>
    <use x="138.844" y="107.431" xlink:href="#dot" stroke="#00ebff"/>
    <use x="142.186" y="112.043" xlink:href="#dot" stroke="#ffe100"/>
    <use x="144.045" y="112.026" xlink:href="#dot" stroke="#ff0000"/>
    <use x="142.02" y="107.237" xlink:href="#dot" stroke="#00ebff"/>
    <use x="145.961" y="111.978" xlink:href="#dot" stroke="#ffe100"/>
    <use x="146.897" y="112.108" xlink:href="#dot" stroke="#ff0000"/>
    <use x="145.856" y="107.046" xlink:href="#dot" stroke="#00ebff"/>
    <use x="150" y="111.94" xlink:href="#dot" stroke="#ffe100"/>
    <use x="150" y="112.119" xlink:href="#dot" stroke="#ff0000"/>
    <use x="150" y="106.968" xlink:href="#dot" stroke="#00ebff"/>
    <use x="154.039" y="111.978" xlink:href="#dot" stroke="#ffe100"/>
    <use x="153.103" y="112.108" xlink:href="#dot" stroke="#ff0000"/>
    <use x="154.144" y="107.046" xlink:href="#dot" stroke="#00ebff"/>
    <use x="157.814" y="112.043" xlink:href="#dot" stroke="#ffe100"/>
    <use x="155.955" y="112.026" xlink:href="#dot" stroke="#ff0000"/>
    <use x="157.98" y="107.237" xlink:href="#dot" stroke="#00ebff"/>
    <use x="161.008" y="112.016" xlink:href="#dot" stroke="#ffe100"/>
    <use x="158.252" y="111.748" xlink:href="#dot" stroke="#ff0000"/>
    <use x="161.156" y="107.431" xlink:href="#dot" stroke="#00ebff"/>
    <use x="163.248" y="111.783" xlink:href="#dot" stroke="#ffe100"/>
    <use x="159.625" y="111.15" xlink:href="#dot" stroke="#ff0000"/>
    <use x="163.271" y="107.533" xlink:href="#dot" stroke="#00ebff"/>
    <use x="164.153" y="111.335" xlink:href="#dot" stroke="#ffe100"/>
    <use x="159.694" y="110.215" xlink:href="#dot" stroke="#ff0000"/>
    <use x="163.936" y="107.559" xlink:href="#dot" stroke="#00ebff"/>
    <use x="163.432" y="110.832" xlink:href="#dot" stroke="#ffe100"/>
    <use x="158.159" y="109.09" xlink:href="#dot" stroke="#ff0000"/>
    <use x="162.865" y="107.68" xlink:href="#dot" stroke="#00ebff"/>
    <use x="160.917" y="110.462" xlink:href="#dot" stroke="#ffe100"/>
    <use x="154.841" y="107.962" xlink:href="#dot" stroke="#ff0000"/>
    <use x="159.906" y="108.077" xlink:href="#dot" stroke="#00ebff"/>
    <use x="156.38" y="110.007" xlink:href="#dot" stroke="#ffe100"/>
    <use x="149.495" y="106.617" xlink:href="#dot" stroke="#ff0000"/>
    <use x="154.847" y="108.492" xlink:href="#dot" stroke="#00ebff"/>
    <use x="149.2" y="108.4" xlink:href="#dot" stroke="#ffe100"/>
    <use x="141.463" y="103.982" xlink:href="#dot" stroke="#ff0000"/>
    <use x="147.122" y="107.838" xlink:href="#dot" stroke="#00ebff"/>
    <use x="139.172" y="105.127" xlink:href="#dot" stroke="#ffe100"/>
    <use x="130.434" y="99.449" xlink:href="#dot" stroke="#ff0000"/>
    <use x="136.813" y="105.878" xlink:href="#dot" stroke="#00ebff"/>
    <use x="133.834" y="109.757" xlink:href="#dot" stroke="#ffe100"/>
    <use x="123.562" y="102.139" xlink:href="#dot" stroke="#ff0000"/>
    <use x="132.675" y="113.679" xlink:href="#dot" stroke="#00ebff"/>
    <use x="130.938" y="159.435" xlink:href="#dot" stroke="#ffe100"/>
    <use x="142.506" y="146.88" xlink:href="#dot" stroke="#ff0000"/>
    <use x="158.447" y="108.129" xlink:href="#dot" stroke="#ffe100"/>
    <use x="167.478" y="99.375" xlink:href="#dot" stroke="#ff0000"/>
    <use x="159.549" y="112.855" xlink:href="#dot" stroke="#00ebff"/>
    <use x="152.882" y="106.24" xlink:href="#dot" stroke="#ffe100"/>
    <use x="160.667" y="99.351" xlink:href="#dot" stroke="#ff0000"/>
    <use x="154.58" y="107.955" xlink:href="#dot" stroke="#00ebff"/>
    <use x="145.075" y="110.056" xlink:href="#dot" stroke="#ffe100"/>
    <use x="151.976" y="104.406" xlink:href="#dot" stroke="#ff0000"/>
    <use x="146.355" y="110.426" xlink:href="#dot" stroke="#00ebff"/>
    <use x="139.984" y="111.968" xlink:href="#dot" stroke="#ffe100"/>
    <use x="146.084" y="107.325" xlink:href="#dot" stroke="#ff0000"/>
    <use x="140.737" y="111.349" xlink:href="#dot" stroke="#00ebff"/>
    <use x="137.325" y="112.502" xlink:href="#dot" stroke="#ffe100"/>
    <use x="142.627" y="108.72" xlink:href="#dot" stroke="#ff0000"/>
    <use x="137.643" y="110.993" xlink:href="#dot" stroke="#00ebff"/>
    <use x="136.52" y="112.676" xlink:href="#dot" stroke="#ffe100"/>
    <use x="141.005" y="109.619" xlink:href="#dot" stroke="#ff0000"/>
    <use x="136.525" y="110.388" xlink:href="#dot" stroke="#00ebff"/>
    <use x="137.259" y="112.839" xlink:href="#dot" stroke="#ffe100"/>
    <use x="140.9" y="110.362" xlink:href="#dot" stroke="#ff0000"/>
    <use x="137.072" y="109.916" xlink:href="#dot" stroke="#00ebff"/>
    <use x="139.292" y="112.975" xlink:href="#dot" stroke="#ffe100"/>
    <use x="142.059" y="110.94" xlink:href="#dot" stroke="#ff0000"/>
    <use x="139.029" y="109.577" xlink:href="#dot" stroke="#00ebff"/>
    <use x="142.319" y="113.036" xlink:href="#dot" stroke="#ffe100"/>
    <use x="144.183" y="111.307" xlink:href="#dot" stroke="#ff0000"/>
    <use x="142.079" y="109.313" xlink:href="#dot" stroke="#00ebff"/>
    <use x="146" y="113.036" xlink:href="#dot" stroke="#ffe100"/>
    <use x="146.938" y="111.488" xlink:href="#dot" stroke="#ff0000"/>
    <use x="145.86" y="109.126" xlink:href="#dot" stroke="#00ebff"/>
    <use x="150" y="113.028" xlink:href="#dot" stroke="#ffe100"/>
    <use x="150" y="111.539" xlink:href="#dot" stroke="#ff0000"/>
    <use x="150" y="109.057" xlink:href="#dot" stroke="#00ebff"/>
    <use x="154" y="113.036" xlink:href="#dot" stroke="#ffe100"/>
    <use x="153.062" y="111.488" xlink:href="#dot" stroke="#ff0000"/>
    <use x="154.14" y="109.126" xlink:href="#dot" stroke="#00ebff"/>
    <use x="157.681" y="113.036" xlink:href="#dot" stroke="#ffe100"/>
    <use x="155.817" y="111.307" xlink:href="#dot" stroke="#ff0000"/>
    <use x="157.921" y="109.313" xlink:href="#dot" stroke="#00ebff"/>
    <use x="160.708" y="112.975" xlink:href="#dot" stroke="#ffe100"/>
    <use x="157.941" y="110.94" xlink:href="#dot" stroke="#ff0000"/>
    <use x="160.971" y="109.577" xlink:href="#dot" stroke="#00ebff"/>
    <use x="162.741" y="112.839" xlink:href="#dot" stroke="#ffe100"/>
    <use x="159.1" y="110.362" xlink:href="#dot" stroke="#ff0000"/>
    <use x="162.928" y="109.916" xlink:href="#dot" stroke="#00ebff"/>
    <use x="163.48" y="112.676" xlink:href="#dot" stroke="#ffe100"/>
    <use x="158.995" y="109.619" xlink:href="#dot" stroke="#ff0000"/>
    <use x="163.475" y="110.388" xlink:href="#dot" stroke="#00ebff"/>
    <use x="162.675" y="112.502" xlink:href="#dot" stroke="#ffe100"/>
    <use x="157.373" y="108.72" xlink:href="#dot" stroke="#ff0000"/>
    <use x="162.357" y="110.993" xlink:href="#dot" stroke="#00ebff"/>
    <use x="160.016" y="111.968" xlink:href="#dot" stroke="#ffe100"/>
    <use x="153.916" y="107.325" xlink:href="#dot" stroke="#ff0000"/>
    <use x="159.263" y="111.349" xlink:href="#dot" stroke="#00ebff"/>
    <use x="154.925" y="110.056" xlink:href="#dot" stroke="#ffe100"/>
    <use x="148.024" y="104.406" xlink:href="#dot" stroke="#ff0000"/>
    <use x="153.645" y="110.426" xlink:href="#dot" stroke="#00ebff"/>
    <use x="147.118" y="106.24" xlink:href="#dot" stroke="#ffe100"/>
    <use x="139.333" y="99.351" xlink:href="#dot" stroke="#ff0000"/>
    <use x="145.42" y="107.955" xlink:href="#dot" stroke="#00ebff"/>
    <use x="141.553" y="108.129" xlink:href="#dot" stroke="#ffe100"/>
    <use x="132.522" y="99.375" xlink:href="#dot" stroke="#ff0000"/>
    <use x="140.451" y="112.855" xlink:href="#dot" stroke="#00ebff"/>
    <use x="169.062" y="159.435" xlink:href="#dot" stroke="#ffe100"/>
    <use x="157.494" y="146.88" xlink:href="#dot" stroke="#ff0000"/>
    <use x="130.578" y="152.969" xlink:href="#dot" stroke="#ffe100"/>
    <use x="140.891" y="139.415" xlink:href="#dot" stroke="#ff0000"/>
    <use x="127.16" y="167.607" xlink:href="#dot" stroke="#00ebff"/>
    <use x="151.446" y="107.509" xlink:href="#dot" stroke="#ffe100"/>
    <use x="159.619" y="97.649" xlink:href="#dot" stroke="#ff0000"/>
    <use x="151.785" y="113.134" xlink:href="#dot" stroke="#00ebff"/>
    <use x="147.301" y="106.458" xlink:href="#dot" stroke="#ffe100"/>
    <use x="154.346" y="98.447" xlink:href="#dot" stroke="#ff0000"/>
    <use x="148.063" y="109.006" xlink:href="#dot" stroke="#00ebff"/>
    <use x="141.608" y="110.869" xlink:href="#dot" stroke="#ffe100"/>
    <use x="147.8" y="104.075" xlink:href="#dot" stroke="#ff0000"/>
    <use x="142.015" y="112.022" xlink:href="#dot" stroke="#00ebff"/>
    <use x="138.319" y="113.434" xlink:href="#dot" stroke="#ffe100"/>
    <use x="143.701" y="107.606" xlink:href="#dot" stroke="#ff0000"/>
    <use x="138.326" y="113.606" xlink:href="#dot" stroke="#00ebff"/>
    <use x="137.239" y="114.381" xlink:href="#dot" stroke="#ffe100"/>
    <use x="141.795" y="109.359" xlink:href="#dot" stroke="#ff0000"/>
    <use x="136.966" y="113.704" xlink:href="#dot" stroke="#00ebff"/>
    <use x="137.826" y="114.666" xlink:href="#dot" stroke="#ffe100"/>
    <use x="141.525" y="110.303" xlink:href="#dot" stroke="#ff0000"/>
    <use x="137.412" y="113.261" xlink:href="#dot" stroke="#00ebff"/>
    <use x="139.708" y="114.764" xlink:href="#dot" stroke="#ffe100"/>
    <use x="142.518" y="110.91" xlink:href="#dot" stroke="#ff0000"/>
    <use x="139.276" y="112.78" xlink:href="#dot" stroke="#00ebff"/>
    <use x="142.579" y="114.807" xlink:href="#dot" stroke="#ffe100"/>
    <use x="144.47" y="111.315" xlink:href="#dot" stroke="#ff0000"/>
    <use x="142.229" y="112.411" xlink:href="#dot" stroke="#00ebff"/>
    <use x="146.12" y="114.825" xlink:href="#dot" stroke="#ffe100"/>
    <use x="147.072" y="111.546" xlink:href="#dot" stroke="#ff0000"/>
    <use x="145.926" y="112.183" xlink:href="#dot" stroke="#00ebff"/>
    <use x="150" y="114.828" xlink:href="#dot" stroke="#ffe100"/>
    <use x="150" y="111.62" xlink:href="#dot" stroke="#ff0000"/>
    <use x="150" y="112.106" xlink:href="#dot" stroke="#00ebff"/>
    <use x="153.88" y="114.825" xlink:href="#dot" stroke="#ffe100"/>
    <use x="152.928" y="111.546" xlink:href="#dot" stroke="#ff0000"/>
    <use x="154.074" y="112.183" xlink:href="#dot" stroke="#00ebff"/>
    <use x="157.421" y="114.807" xlink:href="#dot" stroke="#ffe100"/>
    <use x="155.53" y="111.315" xlink:href="#dot" stroke="#ff0000"/>
    <use x="157.771" y="112.411" xlink:href="#dot" stroke="#00ebff"/>
    <use x="160.292" y="114.764" xlink:href="#dot" stroke="#ffe100"/>
    <use x="157.482" y="110.91" xlink:href="#dot" stroke="#ff0000"/>
    <use x="160.724" y="112.78" xlink:href="#dot" stroke="#00ebff"/>
    <use x="162.174" y="114.666" xlink:href="#dot" stroke="#ffe100"/>
    <use x="158.475" y="110.303" xlink:href="#dot" stroke="#ff0000"/>
    <use x="162.588" y="113.261" xlink:href="#dot" stroke="#00ebff"/>
    <use x="162.761" y="114.381" xlink:href="#dot" stroke="#ffe100"/>
    <use x="158.205" y="109.359" xlink:href="#dot" stroke="#ff0000"/>
    <use x="163.034" y="113.704" xlink:href="#dot" stroke="#00ebff"/>
    <use x="161.681" y="113.434" xlink:href="#dot" stroke="#ffe100"/>
    <use x="156.299" y="107.606" xlink:href="#dot" stroke="#ff0000"/>
    <use x="161.674" y="113.606" xlink:href="#dot" stroke="#00ebff"/>
    <use x="158.392" y="110.869" xlink:href="#dot" stroke="#ffe100"/>
    <use x="152.2" y="104.075" xlink:href="#dot" stroke="#ff0000"/>
    <use x="157.985" y="112.022" xlink:href="#dot" stroke="#00ebff"/>
    <use x="152.699" y="106.458" xlink:href="#dot" stroke="#ffe100"/>
    <use x="145.654" y="98.447" xlink:href="#dot" stroke="#ff0000"/>
    <use x="151.937" y="109.006" xlink:href="#dot" stroke="#00ebff"/>
    <use x="148.554" y="107.509" xlink:href="#dot" stroke="#ffe100"/>
    <use x="140.381" y="97.649" xlink:href="#dot" stroke="#ff0000"/>
    <use x="148.215" y="113.134" xlink:href="#dot" stroke="#00ebff"/>
    <use x="169.422" y="152.969" xlink:href="#dot" stroke="#ffe100"/>
    <use x="159.109" y="139.415" xlink:href="#dot" stroke="#ff0000"/>
    <use x="172.84" y="167.607" xlink:href="#dot" stroke="#00ebff"/>
    <use x="126.417" y="155.452" xlink:href="#dot" stroke="#ffe100"/>
    <use x="135.865" y="140.599" xlink:href="#dot" stroke="#ff0000"/>
    <use x="122.387" y="171.842" xlink:href="#dot" stroke="#00ebff"/>
    <use x="146.103" y="108.188" xlink:href="#dot" stroke="#ffe100"/>
    <use x="153.584" y="97.125" xlink:href="#dot" stroke="#ff0000"/>
    <use x="145.459" y="115.087" xlink:href="#dot" stroke="#00ebff"/>
    <use x="144.127" y="106.182" xlink:href="#dot" stroke="#ffe100"/>
    <use x="150.499" y="97.018" xlink:href="#dot" stroke="#ff0000"/>
    <use x="143.986" y="109.695" xlink:href="#dot" stroke="#00ebff"/>
    <use x="140.373" y="111.037" xlink:href="#dot" stroke="#ffe100"/>
    <use x="145.867" y="103.079" xlink:href="#dot" stroke="#ff0000"/>
    <use x="140.049" y="113.049" xlink:href="#dot" stroke="#00ebff"/>
    <use x="138.572" y="114.51" xlink:href="#dot" stroke="#ffe100"/>
    <use x="143.218" y="107.463" xlink:href="#dot" stroke="#ff0000"/>
    <use x="138.029" y="115.563" xlink:href="#dot" stroke="#00ebff"/>
    <use x="138.72" y="116.207" xlink:href="#dot" stroke="#ffe100"/>
    <use x="142.494" y="109.886" xlink:href="#dot" stroke="#ff0000"/>
    <use x="138.078" y="116.495" xlink:href="#dot" stroke="#00ebff"/>
    <use x="140.327" y="116.928" xlink:href="#dot" stroke="#ffe100"/>
    <use x="143.195" y="111.173" xlink:href="#dot" stroke="#ff0000"/>
    <use x="139.717" y="116.597" xlink:href="#dot" stroke="#00ebff"/>
    <use x="142.978" y="117.224" xlink:href="#dot" stroke="#ffe100"/>
    <use x="144.908" y="111.873" xlink:href="#dot" stroke="#ff0000"/>
    <use x="142.507" y="116.435" xlink:href="#dot" stroke="#00ebff"/>
    <use x="146.316" y="117.342" xlink:href="#dot" stroke="#ffe100"/>
    <use x="147.287" y="112.233" xlink:href="#dot" stroke="#ff0000"/>
    <use x="146.062" y="116.272" xlink:href="#dot" stroke="#00ebff"/>
    <use x="150" y="117.373" xlink:href="#dot" stroke="#ffe100"/>
    <use x="150" y="112.346" xlink:href="#dot" stroke="#ff0000"/>
    <use x="150" y="116.21" xlink:href="#dot" stroke="#00ebff"/>
    <use x="153.684" y="117.342" xlink:href="#dot" stroke="#ffe100"/>
    <use x="152.713" y="112.233" xlink:href="#dot" stroke="#ff0000"/>
    <use x="153.938" y="116.272" xlink:href="#dot" stroke="#00ebff"/>
    <use x="157.022" y="117.224" xlink:href="#dot" stroke="#ffe100"/>
    <use x="155.092" y="111.873" xlink:href="#dot" stroke="#ff0000"/>
    <use x="157.493" y="116.435" xlink:href="#dot" stroke="#00ebff"/>
    <use x="159.673" y="116.928" xlink:href="#dot" stroke="#ffe100"/>
    <use x="156.805" y="111.173" xlink:href="#dot" stroke="#ff0000"/>
    <use x="160.283" y="116.597" xlink:href="#dot" stroke="#00ebff"/>
    <use x="161.28" y="116.207" xlink:href="#dot" stroke="#ffe100"/>
    <use x="157.506" y="109.886" xlink:href="#dot" stroke="#ff0000"/>
    <use x="161.922" y="116.495" xlink:href="#dot" stroke="#00ebff"/>
    <use x="161.428" y="114.51" xlink:href="#dot" stroke="#ffe100"/>
    <use x="156.782" y="107.463" xlink:href="#dot" stroke="#ff0000"/>
    <use x="161.971" y="115.563" xlink:href="#dot" stroke="#00ebff"/>
    <use x="159.627" y="111.037" xlink:href="#dot" stroke="#ffe100"/>
    <use x="154.133" y="103.079" xlink:href="#dot" stroke="#ff0000"/>
    <use x="159.951" y="113.049" xlink:href="#dot" stroke="#00ebff"/>
    <use x="155.873" y="106.182" xlink:href="#dot" stroke="#ffe100"/>
    <use x="149.501" y="97.018" xlink:href="#dot" stroke="#ff0000"/>
    <use x="156.014" y="109.695" xlink:href="#dot" stroke="#00ebff"/>
    <use x="153.897" y="108.188" xlink:href="#dot" stroke="#ffe100"/>
    <use x="146.416" y="97.125" xlink:href="#dot" stroke="#ff0000"/>
    <use x="154.541" y="115.087" xlink:href="#dot" stroke="#00ebff"/>
    <use x="173.583" y="155.452" xlink:href="#dot" stroke="#ffe100"/>
    <use x="164.135" y="140.599" xlink:href="#dot" stroke="#ff0000"/>
    <use x="177.613" y="171.842" xlink:href="#dot" stroke="#00ebff"/>
    <use x="120.262" y="168.307" xlink:href="#dot" stroke="#ffe100"/>
    <use x="129.054" y="151.711" xlink:href="#dot" stroke="#ff0000"/>
    <use x="115.17" y="187.961" xlink:href="#dot" stroke="#00ebff"/>
    <use x="142.136" y="111.241" xlink:href="#dot" stroke="#ffe100"/>
    <use x="148.983" y="98.754" xlink:href="#dot" stroke="#ff0000"/>
    <use x="140.496" y="120.121" xlink:href="#dot" stroke="#00ebff"/>
    <use x="142.874" y="105.622" xlink:href="#dot" stroke="#ffe100"/>
    <use x="148.567" y="95.171" xlink:href="#dot" stroke="#ff0000"/>
    <use x="141.985" y="110.471" xlink:href="#dot" stroke="#00ebff"/>
    <use x="140.955" y="110.153" xlink:href="#dot" stroke="#ffe100"/>
    <use x="145.712" y="100.925" xlink:href="#dot" stroke="#ff0000"/>
    <use x="140.122" y="113.265" xlink:href="#dot" stroke="#00ebff"/>
    <use x="140.369" y="114.456" xlink:href="#dot" stroke="#ffe100"/>
    <use x="144.221" y="106.084" xlink:href="#dot" stroke="#ff0000"/>
    <use x="139.524" y="116.596" xlink:href="#dot" stroke="#00ebff"/>
    <use x="141.392" y="117.075" xlink:href="#dot" stroke="#ffe100"/>
    <use x="144.319" y="109.334" xlink:href="#dot" stroke="#ff0000"/>
    <use x="140.628" y="118.545" xlink:href="#dot" stroke="#00ebff"/>
    <use x="143.622" y="118.449" xlink:href="#dot" stroke="#ffe100"/>
    <use x="145.593" y="111.153" xlink:href="#dot" stroke="#ff0000"/>
    <use x="143.045" y="119.445" xlink:href="#dot" stroke="#00ebff"/>
    <use x="146.623" y="119.088" xlink:href="#dot" stroke="#ffe100"/>
    <use x="147.614" y="112.059" xlink:href="#dot" stroke="#ff0000"/>
    <use x="146.314" y="119.794" xlink:href="#dot" stroke="#00ebff"/>
    <use x="150" y="119.273" xlink:href="#dot" stroke="#ffe100"/>
    <use x="150" y="112.333" xlink:href="#dot" stroke="#ff0000"/>
    <use x="150" y="119.882" xlink:href="#dot" stroke="#00ebff"/>
    <use x="153.377" y="119.088" xlink:href="#dot" stroke="#ffe100"/>
    <use x="152.386" y="112.059" xlink:href="#dot" stroke="#ff0000"/>
    <use x="153.686" y="119.794" xlink:href="#dot" stroke="#00ebff"/>
    <use x="156.378" y="118.449" xlink:href="#dot" stroke="#ffe100"/>
    <use x="154.407" y="111.153" xlink:href="#dot" stroke="#ff0000"/>
    <use x="156.955" y="119.445" xlink:href="#dot" stroke="#00ebff"/>
    <use x="158.608" y="117.075" xlink:href="#dot" stroke="#ffe100"/>
    <use x="155.681" y="109.334" xlink:href="#dot" stroke="#ff0000"/>
    <use x="159.372" y="118.545" xlink:href="#dot" stroke="#00ebff"/>
    <use x="159.631" y="114.456" xlink:href="#dot" stroke="#ffe100"/>
    <use x="155.779" y="106.084" xlink:href="#dot" stroke="#ff0000"/>
    <use x="160.476" y="116.596" xlink:href="#dot" stroke="#00ebff"/>
    <use x="159.045" y="110.153" xlink:href="#dot" stroke="#ffe100"/>
    <use x="154.288" y="100.925" xlink:href="#dot" stroke="#ff0000"/>
    <use x="159.878" y="113.265" xlink:href="#dot" stroke="#00ebff"/>
    <use x="157.126" y="105.622" xlink:href="#dot" stroke="#ffe100"/>
    <use x="151.433" y="95.171" xlink:href="#dot" stroke="#ff0000"/>
    <use x="158.015" y="110.471" xlink:href="#dot" stroke="#00ebff"/>
    <use x="157.864" y="111.241" xlink:href="#dot" stroke="#ffe100"/>
    <use x="151.017" y="98.754" xlink:href="#dot" stroke="#ff0000"/>
    <use x="159.504" y="120.121" xlink:href="#dot" stroke="#00ebff"/>
    <use x="179.738" y="168.307" xlink:href="#dot" stroke="#ffe100"/>
    <use x="170.946" y="151.711" xlink:href="#dot" stroke="#ff0000"/>
    <use x="184.83" y="187.961" xlink:href="#dot" stroke="#00ebff"/>
    <use x="111.826" y="197.372" xlink:href="#dot" stroke="#ffe100"/>
    <use x="120.084" y="178.348" xlink:href="#dot" stroke="#ff0000"/>
    <use x="138.571" y="119.771" xlink:href="#dot" stroke="#ffe100"/>
    <use x="144.8" y="105.454" xlink:href="#dot" stroke="#ff0000"/>
    <use x="135.974" y="131.893" xlink:href="#dot" stroke="#00ebff"/>
    <use x="142.694" y="105.819" xlink:href="#dot" stroke="#ffe100"/>
    <use x="147.674" y="93.812" xlink:href="#dot" stroke="#ff0000"/>
    <use x="141.222" y="112.753" xlink:href="#dot" stroke="#00ebff"/>
    <use x="142.67" y="107.91" xlink:href="#dot" stroke="#ffe100"/>
    <use x="146.634" y="97.204" xlink:href="#dot" stroke="#ff0000"/>
    <use x="141.546" y="112.611" xlink:href="#dot" stroke="#00ebff"/>
    <use x="143.113" y="112.099" xlink:href="#dot" stroke="#ffe100"/>
    <use x="146.105" y="102.215" xlink:href="#dot" stroke="#ff0000"/>
    <use x="142.197" y="115.691" xlink:href="#dot" stroke="#00ebff"/>
    <use x="144.687" y="115.195" xlink:href="#dot" stroke="#ffe100"/>
    <use x="146.699" y="105.843" xlink:href="#dot" stroke="#ff0000"/>
    <use x="144.02" y="118.163" xlink:href="#dot" stroke="#00ebff"/>
    <use x="147.125" y="116.904" xlink:href="#dot" stroke="#ffe100"/>
    <use x="148.137" y="107.858" xlink:href="#dot" stroke="#ff0000"/>
    <use x="146.772" y="119.533" xlink:href="#dot" stroke="#00ebff"/>
    <use x="150" y="117.438" xlink:href="#dot" stroke="#ffe100"/>
    <use x="150" y="108.493" xlink:href="#dot" stroke="#ff0000"/>
    <use x="150" y="119.957" xlink:href="#dot" stroke="#00ebff"/>
    <use x="152.875" y="116.904" xlink:href="#dot" stroke="#ffe100"/>
    <use x="151.863" y="107.858" xlink:href="#dot" stroke="#ff0000"/>
    <use x="153.228" y="119.533" xlink:href="#dot" stroke="#00ebff"/>
    <use x="155.313" y="115.195" xlink:href="#dot" stroke="#ffe100"/>
    <use x="153.301" y="105.843" xlink:href="#dot" stroke="#ff0000"/>
    <use x="155.98" y="118.163" xlink:href="#dot" stroke="#00ebff"/>
    <use x="156.887" y="112.099" xlink:href="#dot" stroke="#ffe100"/>
    <use x="153.895" y="102.215" xlink:href="#dot" stroke="#ff0000"/>
    <use x="157.803" y="115.691" xlink:href="#dot" stroke="#00ebff"/>
    <use x="157.33" y="107.91" xlink:href="#dot" stroke="#ffe100"/>
    <use x="153.366" y="97.204" xlink:href="#dot" stroke="#ff0000"/>
    <use x="158.454" y="112.611" xlink:href="#dot" stroke="#00ebff"/>
    <use x="157.306" y="105.819" xlink:href="#dot" stroke="#ffe100"/>
    <use x="152.326" y="93.812" xlink:href="#dot" stroke="#ff0000"/>
    <use x="158.778" y="112.753" xlink:href="#dot" stroke="#00ebff"/>
    <use x="161.429" y="119.771" xlink:href="#dot" stroke="#ffe100"/>
    <use x="155.2" y="105.454" xlink:href="#dot" stroke="#ff0000"/>
    <use x="164.026" y="131.893" xlink:href="#dot" stroke="#00ebff"/>
    <use x="188.174" y="197.372" xlink:href="#dot" stroke="#ffe100"/>
    <use x="179.916" y="178.348" xlink:href="#dot" stroke="#ff0000"/>
    <use x="133.86" y="141.977" xlink:href="#dot" stroke="#ffe100"/>
    <use x="139.482" y="125.088" xlink:href="#dot" stroke="#ff0000"/>
    <use x="130.292" y="159.722" xlink:href="#dot" stroke="#00ebff"/>
    <use x="142.353" y="111.189" xlink:href="#dot" stroke="#ffe100"/>
    <use x="146.589" y="97.092" xlink:href="#dot" stroke="#ff0000"/>
    <use x="140.407" y="121.782" xlink:href="#dot" stroke="#00ebff"/>
    <use x="144.527" y="106.178" xlink:href="#dot" stroke="#ffe100"/>
    <use x="147.646" y="93.57" xlink:href="#dot" stroke="#ff0000"/>
    <use x="143.269" y="113.594" xlink:href="#dot" stroke="#00ebff"/>
    <use x="145.945" y="107.542" xlink:href="#dot" stroke="#ffe100"/>
    <use x="148.018" y="95.77" xlink:href="#dot" stroke="#ff0000"/>
    <use x="145.126" y="113.468" xlink:href="#dot" stroke="#00ebff"/>
    <use x="147.789" y="109.365" xlink:href="#dot" stroke="#ffe100"/>
    <use x="148.828" y="98.032" xlink:href="#dot" stroke="#ff0000"/>
    <use x="147.375" y="114.603" xlink:href="#dot" stroke="#00ebff"/>
    <use x="150" y="110.069" xlink:href="#dot" stroke="#ffe100"/>
    <use x="150" y="98.874" xlink:href="#dot" stroke="#ff0000"/>
    <use x="150" y="115.105" xlink:href="#dot" stroke="#00ebff"/>
    <use x="152.211" y="109.365" xlink:href="#dot" stroke="#ffe100"/>
    <use x="151.172" y="98.032" xlink:href="#dot" stroke="#ff0000"/>
    <use x="152.625" y="114.603" xlink:href="#dot" stroke="#00ebff"/>
    <use x="154.055" y="107.542" xlink:href="#dot" stroke="#ffe100"/>
    <use x="151.982" y="95.77" xlink:href="#dot" stroke="#ff0000"/>
    <use x="154.874" y="113.468" xlink:href="#dot" stroke="#00ebff"/>
    <use x="155.473" y="106.178" xlink:href="#dot" stroke="#ffe100"/>
    <use x="152.354" y="93.57" xlink:href="#dot" stroke="#ff0000"/>
    <use x="156.731" y="113.594" xlink:href="#dot" stroke="#00ebff"/>
    <use x="157.647" y="111.189" xlink:href="#dot" stroke="#ffe100"/>
    <use x="153.411" y="97.092" xlink:href="#dot" stroke="#ff0000"/>
    <use x="159.593" y="121.782" xlink:href="#dot" stroke="#00ebff"/>
    <use x="166.14" y="141.977" xlink:href="#dot" stroke="#ffe100"/>
    <use x="160.518" y="125.088" xlink:href="#dot" stroke="#ff0000"/>
    <use x="169.708" y="159.722" xlink:href="#dot" stroke="#00ebff"/>
    <use x="125.864" y="198.893" xlink:href="#dot" stroke="#ffe100"/>
    <use x="130.907" y="177.993" xlink:href="#dot" stroke="#ff0000"/>
    <use x="121.192" y="227.056" xlink:href="#dot" stroke="#00ebff"/>
    <use x="140.201" y="136.796" xlink:href="#dot" stroke="#ffe100"/>
    <use x="143.679" y="119.469" xlink:href="#dot" stroke="#ff0000"/>
    <use x="137.788" y="154.659" xlink:href="#dot" stroke="#00ebff"/>
    <use x="145.241" y="116.292" xlink:href="#dot" stroke="#ffe100"/>
    <use x="147.477" y="100.787" xlink:href="#dot" stroke="#ff0000"/>
    <use x="143.929" y="129.4" xlink:href="#dot" stroke="#00ebff"/>
    <use x="147.86" y="110.168" xlink:href="#dot" stroke="#ffe100"/>
    <use x="148.962" y="95.545" xlink:href="#dot" stroke="#ff0000"/>
    <use x="147.259" y="121.172" xlink:href="#dot" stroke="#00ebff"/>
    <use x="150" y="108.895" xlink:href="#dot" stroke="#ffe100"/>
    <use x="150" y="94.537" xlink:href="#dot" stroke="#ff0000"/>
    <use x="150" y="119.298" xlink:href="#dot" stroke="#00ebff"/>
    <use x="152.14" y="110.168" xlink:href="#dot" stroke="#ffe100"/>
    <use x="151.038" y="95.545" xlink:href="#dot" stroke="#ff0000"/>
    <use x="152.741" y="121.172" xlink:href="#dot" stroke="#00ebff"/>
    <use x="154.759" y="116.292" xlink:href="#dot" stroke="#ffe100"/>
    <use x="152.523" y="100.787" xlink:href="#dot" stroke="#ff0000"/>
    <use x="156.071" y="129.4" xlink:href="#dot" stroke="#00ebff"/>
    <use x="159.799" y="136.796" xlink:href="#dot" stroke="#ffe100"/>
    <use x="156.321" y="119.469" xlink:href="#dot" stroke="#ff0000"/>
    <use x="162.212" y="154.659" xlink:href="#dot" stroke="#00ebff"/>
    <use x="174.136" y="198.893" xlink:href="#dot" stroke="#ffe100"/>
    <use x="169.093" y="177.993" xlink:href="#dot" stroke="#ff0000"/>
    <use x="178.808" y="227.056" xlink:href="#dot" stroke="#00ebff"/>
    <use x="134.748" y="230.525" xlink:href="#dot" stroke="#ffe100"/>
    <use x="137.454" y="207.317" xlink:href="#dot" stroke="#ff0000"/>
    <use x="144.364" y="185.392" xlink:href="#dot" stroke="#ffe100"/>
    <use x="145.651" y="164.373" xlink:href="#dot" stroke="#ff0000"/>
    <use x="143.148" y="212.801" xlink:href="#dot" stroke="#00ebff"/>
    <use x="150" y="173.448" xlink:href="#dot" stroke="#ffe100"/>
    <use x="150" y="153.071" xlink:href="#dot" stroke="#ff0000"/>
    <use x="150" y="198.955" xlink:href="#dot" stroke="#00ebff"/>
    <use x="155.636" y="185.392" xlink:href="#dot" stroke="#ffe100"/>
    <use x="154.349" y="164.373" xlink:href="#dot" stroke="#ff0000"/>
    <use x="156.852" y="212.801" xlink:href="#dot" stroke="#00ebff"/>
    <use x="165.252" y="230.525" xlink:href="#dot" stroke="#ffe100"/>
    <use x="162.546" y="207.317" xlink:href="#dot" stroke="#ff0000"/>
</svg>
